<?xml version="1.0" encoding="utf-8" standalone="no"?>
<!DOCTYPE svg PUBLIC "-//W3C//DTD SVG 1.1//EN"
  "http://www.w3.org/Graphics/SVG/1.1/DTD/svg11.dtd">
<!-- Created with matplotlib (https://matplotlib.org/) -->
<svg height="310.86825pt" version="1.1" viewBox="0 0 396.12 310.86825" width="396.12pt" xmlns="http://www.w3.org/2000/svg" xmlns:xlink="http://www.w3.org/1999/xlink">
 <defs>
  <style type="text/css">
*{stroke-linecap:butt;stroke-linejoin:round;}
  </style>
 </defs>
 <g id="figure_1">
  <g id="patch_1">
   <path d="M 0 310.86825 
L 396.12 310.86825 
L 396.12 0 
L 0 0 
z
" style="fill:#ffffff;"/>
  </g>
  <g id="axes_1">
   <g id="patch_2">
    <path d="M 31.8 273.312 
L 388.92 273.312 
L 388.92 7.2 
L 31.8 7.2 
z
" style="fill:#ffffff;"/>
   </g>
   <g id="matplotlib.axis_1">
    <g id="xtick_1">
     <g id="line2d_1">
      <defs>
       <path d="M 0 0 
L 0 3.5 
" id="mcbd089c576" style="stroke:#000000;stroke-width:0.8;"/>
      </defs>
      <g>
       <use style="stroke:#000000;stroke-width:0.8;" x="48.032727" xlink:href="#mcbd089c576" y="273.312"/>
      </g>
     </g>
     <g id="text_1">
      <!-- 0 -->
      <defs>
       <path d="M 31.78125 66.40625 
Q 24.171875 66.40625 20.328125 58.90625 
Q 16.5 51.421875 16.5 36.375 
Q 16.5 21.390625 20.328125 13.890625 
Q 24.171875 6.390625 31.78125 6.390625 
Q 39.453125 6.390625 43.28125 13.890625 
Q 47.125 21.390625 47.125 36.375 
Q 47.125 51.421875 43.28125 58.90625 
Q 39.453125 66.40625 31.78125 66.40625 
z
M 31.78125 74.21875 
Q 44.046875 74.21875 50.515625 64.515625 
Q 56.984375 54.828125 56.984375 36.375 
Q 56.984375 17.96875 50.515625 8.265625 
Q 44.046875 -1.421875 31.78125 -1.421875 
Q 19.53125 -1.421875 13.0625 8.265625 
Q 6.59375 17.96875 6.59375 36.375 
Q 6.59375 54.828125 13.0625 64.515625 
Q 19.53125 74.21875 31.78125 74.21875 
z
" id="DejaVuSans-48"/>
      </defs>
      <g transform="translate(44.851477 287.910437)scale(0.1 -0.1)">
       <use xlink:href="#DejaVuSans-48"/>
      </g>
     </g>
    </g>
    <g id="xtick_2">
     <g id="line2d_2">
      <g>
       <use style="stroke:#000000;stroke-width:0.8;" x="91.552103" xlink:href="#mcbd089c576" y="273.312"/>
      </g>
     </g>
     <g id="text_2">
      <!-- 50 -->
      <defs>
       <path d="M 10.796875 72.90625 
L 49.515625 72.90625 
L 49.515625 64.59375 
L 19.828125 64.59375 
L 19.828125 46.734375 
Q 21.96875 47.46875 24.109375 47.828125 
Q 26.265625 48.1875 28.421875 48.1875 
Q 40.625 48.1875 47.75 41.5 
Q 54.890625 34.8125 54.890625 23.390625 
Q 54.890625 11.625 47.5625 5.09375 
Q 40.234375 -1.421875 26.90625 -1.421875 
Q 22.3125 -1.421875 17.546875 -0.640625 
Q 12.796875 0.140625 7.71875 1.703125 
L 7.71875 11.625 
Q 12.109375 9.234375 16.796875 8.0625 
Q 21.484375 6.890625 26.703125 6.890625 
Q 35.15625 6.890625 40.078125 11.328125 
Q 45.015625 15.765625 45.015625 23.390625 
Q 45.015625 31 40.078125 35.4375 
Q 35.15625 39.890625 26.703125 39.890625 
Q 22.75 39.890625 18.8125 39.015625 
Q 14.890625 38.140625 10.796875 36.28125 
z
" id="DejaVuSans-53"/>
      </defs>
      <g transform="translate(85.189603 287.910437)scale(0.1 -0.1)">
       <use xlink:href="#DejaVuSans-53"/>
       <use x="63.623047" xlink:href="#DejaVuSans-48"/>
      </g>
     </g>
    </g>
    <g id="xtick_3">
     <g id="line2d_3">
      <g>
       <use style="stroke:#000000;stroke-width:0.8;" x="135.071479" xlink:href="#mcbd089c576" y="273.312"/>
      </g>
     </g>
     <g id="text_3">
      <!-- 100 -->
      <defs>
       <path d="M 12.40625 8.296875 
L 28.515625 8.296875 
L 28.515625 63.921875 
L 10.984375 60.40625 
L 10.984375 69.390625 
L 28.421875 72.90625 
L 38.28125 72.90625 
L 38.28125 8.296875 
L 54.390625 8.296875 
L 54.390625 0 
L 12.40625 0 
z
" id="DejaVuSans-49"/>
      </defs>
      <g transform="translate(125.527729 287.910437)scale(0.1 -0.1)">
       <use xlink:href="#DejaVuSans-49"/>
       <use x="63.623047" xlink:href="#DejaVuSans-48"/>
       <use x="127.246094" xlink:href="#DejaVuSans-48"/>
      </g>
     </g>
    </g>
    <g id="xtick_4">
     <g id="line2d_4">
      <g>
       <use style="stroke:#000000;stroke-width:0.8;" x="178.590855" xlink:href="#mcbd089c576" y="273.312"/>
      </g>
     </g>
     <g id="text_4">
      <!-- 150 -->
      <g transform="translate(169.047105 287.910437)scale(0.1 -0.1)">
       <use xlink:href="#DejaVuSans-49"/>
       <use x="63.623047" xlink:href="#DejaVuSans-53"/>
       <use x="127.246094" xlink:href="#DejaVuSans-48"/>
      </g>
     </g>
    </g>
    <g id="xtick_5">
     <g id="line2d_5">
      <g>
       <use style="stroke:#000000;stroke-width:0.8;" x="222.110232" xlink:href="#mcbd089c576" y="273.312"/>
      </g>
     </g>
     <g id="text_5">
      <!-- 200 -->
      <defs>
       <path d="M 19.1875 8.296875 
L 53.609375 8.296875 
L 53.609375 0 
L 7.328125 0 
L 7.328125 8.296875 
Q 12.9375 14.109375 22.625 23.890625 
Q 32.328125 33.6875 34.8125 36.53125 
Q 39.546875 41.84375 41.421875 45.53125 
Q 43.3125 49.21875 43.3125 52.78125 
Q 43.3125 58.59375 39.234375 62.25 
Q 35.15625 65.921875 28.609375 65.921875 
Q 23.96875 65.921875 18.8125 64.3125 
Q 13.671875 62.703125 7.8125 59.421875 
L 7.8125 69.390625 
Q 13.765625 71.78125 18.9375 73 
Q 24.125 74.21875 28.421875 74.21875 
Q 39.75 74.21875 46.484375 68.546875 
Q 53.21875 62.890625 53.21875 53.421875 
Q 53.21875 48.921875 51.53125 44.890625 
Q 49.859375 40.875 45.40625 35.40625 
Q 44.1875 33.984375 37.640625 27.21875 
Q 31.109375 20.453125 19.1875 8.296875 
z
" id="DejaVuSans-50"/>
      </defs>
      <g transform="translate(212.566482 287.910437)scale(0.1 -0.1)">
       <use xlink:href="#DejaVuSans-50"/>
       <use x="63.623047" xlink:href="#DejaVuSans-48"/>
       <use x="127.246094" xlink:href="#DejaVuSans-48"/>
      </g>
     </g>
    </g>
    <g id="xtick_6">
     <g id="line2d_6">
      <g>
       <use style="stroke:#000000;stroke-width:0.8;" x="265.629608" xlink:href="#mcbd089c576" y="273.312"/>
      </g>
     </g>
     <g id="text_6">
      <!-- 250 -->
      <g transform="translate(256.085858 287.910437)scale(0.1 -0.1)">
       <use xlink:href="#DejaVuSans-50"/>
       <use x="63.623047" xlink:href="#DejaVuSans-53"/>
       <use x="127.246094" xlink:href="#DejaVuSans-48"/>
      </g>
     </g>
    </g>
    <g id="xtick_7">
     <g id="line2d_7">
      <g>
       <use style="stroke:#000000;stroke-width:0.8;" x="309.148984" xlink:href="#mcbd089c576" y="273.312"/>
      </g>
     </g>
     <g id="text_7">
      <!-- 300 -->
      <defs>
       <path d="M 40.578125 39.3125 
Q 47.65625 37.796875 51.625 33 
Q 55.609375 28.21875 55.609375 21.1875 
Q 55.609375 10.40625 48.1875 4.484375 
Q 40.765625 -1.421875 27.09375 -1.421875 
Q 22.515625 -1.421875 17.65625 -0.515625 
Q 12.796875 0.390625 7.625 2.203125 
L 7.625 11.71875 
Q 11.71875 9.328125 16.59375 8.109375 
Q 21.484375 6.890625 26.8125 6.890625 
Q 36.078125 6.890625 40.9375 10.546875 
Q 45.796875 14.203125 45.796875 21.1875 
Q 45.796875 27.640625 41.28125 31.265625 
Q 36.765625 34.90625 28.71875 34.90625 
L 20.21875 34.90625 
L 20.21875 43.015625 
L 29.109375 43.015625 
Q 36.375 43.015625 40.234375 45.921875 
Q 44.09375 48.828125 44.09375 54.296875 
Q 44.09375 59.90625 40.109375 62.90625 
Q 36.140625 65.921875 28.71875 65.921875 
Q 24.65625 65.921875 20.015625 65.03125 
Q 15.375 64.15625 9.8125 62.3125 
L 9.8125 71.09375 
Q 15.4375 72.65625 20.34375 73.4375 
Q 25.25 74.21875 29.59375 74.21875 
Q 40.828125 74.21875 47.359375 69.109375 
Q 53.90625 64.015625 53.90625 55.328125 
Q 53.90625 49.265625 50.4375 45.09375 
Q 46.96875 40.921875 40.578125 39.3125 
z
" id="DejaVuSans-51"/>
      </defs>
      <g transform="translate(299.605234 287.910437)scale(0.1 -0.1)">
       <use xlink:href="#DejaVuSans-51"/>
       <use x="63.623047" xlink:href="#DejaVuSans-48"/>
       <use x="127.246094" xlink:href="#DejaVuSans-48"/>
      </g>
     </g>
    </g>
    <g id="xtick_8">
     <g id="line2d_8">
      <g>
       <use style="stroke:#000000;stroke-width:0.8;" x="352.66836" xlink:href="#mcbd089c576" y="273.312"/>
      </g>
     </g>
     <g id="text_8">
      <!-- 350 -->
      <g transform="translate(343.12461 287.910437)scale(0.1 -0.1)">
       <use xlink:href="#DejaVuSans-51"/>
       <use x="63.623047" xlink:href="#DejaVuSans-53"/>
       <use x="127.246094" xlink:href="#DejaVuSans-48"/>
      </g>
     </g>
    </g>
    <g id="text_9">
     <!-- $ k $ -->
     <defs>
      <path d="M 18.3125 75.984375 
L 27.296875 75.984375 
L 18.703125 31.6875 
L 49.515625 54.6875 
L 61.1875 54.6875 
L 26.8125 28.515625 
L 51.90625 0 
L 41.015625 0 
L 17.671875 26.703125 
L 12.5 0 
L 3.515625 0 
z
" id="DejaVuSans-Oblique-107"/>
     </defs>
     <g transform="translate(207.46 301.588562)scale(0.1 -0.1)">
      <use transform="translate(0 0.015625)" xlink:href="#DejaVuSans-Oblique-107"/>
     </g>
    </g>
   </g>
   <g id="matplotlib.axis_2">
    <g id="ytick_1">
     <g id="line2d_9">
      <defs>
       <path d="M 0 0 
L -3.5 0 
" id="me2ae297f97" style="stroke:#000000;stroke-width:0.8;"/>
      </defs>
      <g>
       <use style="stroke:#000000;stroke-width:0.8;" x="31.8" xlink:href="#me2ae297f97" y="206.90432"/>
      </g>
     </g>
     <g id="text_10">
      <!-- $\mathdefault{10^{0}}$ -->
      <g transform="translate(7.2 210.703539)scale(0.1 -0.1)">
       <use transform="translate(0 0.765625)" xlink:href="#DejaVuSans-49"/>
       <use transform="translate(63.623047 0.765625)" xlink:href="#DejaVuSans-48"/>
       <use transform="translate(128.203125 39.046875)scale(0.7)" xlink:href="#DejaVuSans-48"/>
      </g>
     </g>
    </g>
    <g id="ytick_2">
     <g id="line2d_10">
      <g>
       <use style="stroke:#000000;stroke-width:0.8;" x="31.8" xlink:href="#me2ae297f97" y="123.825585"/>
      </g>
     </g>
     <g id="text_11">
      <!-- $\mathdefault{10^{1}}$ -->
      <g transform="translate(7.2 127.624804)scale(0.1 -0.1)">
       <use transform="translate(0 0.684375)" xlink:href="#DejaVuSans-49"/>
       <use transform="translate(63.623047 0.684375)" xlink:href="#DejaVuSans-48"/>
       <use transform="translate(128.203125 38.965625)scale(0.7)" xlink:href="#DejaVuSans-49"/>
      </g>
     </g>
    </g>
    <g id="ytick_3">
     <g id="line2d_11">
      <g>
       <use style="stroke:#000000;stroke-width:0.8;" x="31.8" xlink:href="#me2ae297f97" y="40.746851"/>
      </g>
     </g>
     <g id="text_12">
      <!-- $\mathdefault{10^{2}}$ -->
      <g transform="translate(7.2 44.546069)scale(0.1 -0.1)">
       <use transform="translate(0 0.765625)" xlink:href="#DejaVuSans-49"/>
       <use transform="translate(63.623047 0.765625)" xlink:href="#DejaVuSans-48"/>
       <use transform="translate(128.203125 39.046875)scale(0.7)" xlink:href="#DejaVuSans-50"/>
      </g>
     </g>
    </g>
    <g id="ytick_4">
     <g id="line2d_12">
      <defs>
       <path d="M 0 0 
L -2 0 
" id="m7c31229239" style="stroke:#000000;stroke-width:0.6;"/>
      </defs>
      <g>
       <use style="stroke:#000000;stroke-width:0.6;" x="31.8" xlink:href="#m7c31229239" y="264.973864"/>
      </g>
     </g>
    </g>
    <g id="ytick_5">
     <g id="line2d_13">
      <g>
       <use style="stroke:#000000;stroke-width:0.6;" x="31.8" xlink:href="#m7c31229239" y="250.344425"/>
      </g>
     </g>
    </g>
    <g id="ytick_6">
     <g id="line2d_14">
      <g>
       <use style="stroke:#000000;stroke-width:0.6;" x="31.8" xlink:href="#m7c31229239" y="239.964673"/>
      </g>
     </g>
    </g>
    <g id="ytick_7">
     <g id="line2d_15">
      <g>
       <use style="stroke:#000000;stroke-width:0.6;" x="31.8" xlink:href="#m7c31229239" y="231.913511"/>
      </g>
     </g>
    </g>
    <g id="ytick_8">
     <g id="line2d_16">
      <g>
       <use style="stroke:#000000;stroke-width:0.6;" x="31.8" xlink:href="#m7c31229239" y="225.335234"/>
      </g>
     </g>
    </g>
    <g id="ytick_9">
     <g id="line2d_17">
      <g>
       <use style="stroke:#000000;stroke-width:0.6;" x="31.8" xlink:href="#m7c31229239" y="219.773379"/>
      </g>
     </g>
    </g>
    <g id="ytick_10">
     <g id="line2d_18">
      <g>
       <use style="stroke:#000000;stroke-width:0.6;" x="31.8" xlink:href="#m7c31229239" y="214.955481"/>
      </g>
     </g>
    </g>
    <g id="ytick_11">
     <g id="line2d_19">
      <g>
       <use style="stroke:#000000;stroke-width:0.6;" x="31.8" xlink:href="#m7c31229239" y="210.705795"/>
      </g>
     </g>
    </g>
    <g id="ytick_12">
     <g id="line2d_20">
      <g>
       <use style="stroke:#000000;stroke-width:0.6;" x="31.8" xlink:href="#m7c31229239" y="181.895129"/>
      </g>
     </g>
    </g>
    <g id="ytick_13">
     <g id="line2d_21">
      <g>
       <use style="stroke:#000000;stroke-width:0.6;" x="31.8" xlink:href="#m7c31229239" y="167.26569"/>
      </g>
     </g>
    </g>
    <g id="ytick_14">
     <g id="line2d_22">
      <g>
       <use style="stroke:#000000;stroke-width:0.6;" x="31.8" xlink:href="#m7c31229239" y="156.885938"/>
      </g>
     </g>
    </g>
    <g id="ytick_15">
     <g id="line2d_23">
      <g>
       <use style="stroke:#000000;stroke-width:0.6;" x="31.8" xlink:href="#m7c31229239" y="148.834777"/>
      </g>
     </g>
    </g>
    <g id="ytick_16">
     <g id="line2d_24">
      <g>
       <use style="stroke:#000000;stroke-width:0.6;" x="31.8" xlink:href="#m7c31229239" y="142.256499"/>
      </g>
     </g>
    </g>
    <g id="ytick_17">
     <g id="line2d_25">
      <g>
       <use style="stroke:#000000;stroke-width:0.6;" x="31.8" xlink:href="#m7c31229239" y="136.694644"/>
      </g>
     </g>
    </g>
    <g id="ytick_18">
     <g id="line2d_26">
      <g>
       <use style="stroke:#000000;stroke-width:0.6;" x="31.8" xlink:href="#m7c31229239" y="131.876747"/>
      </g>
     </g>
    </g>
    <g id="ytick_19">
     <g id="line2d_27">
      <g>
       <use style="stroke:#000000;stroke-width:0.6;" x="31.8" xlink:href="#m7c31229239" y="127.62706"/>
      </g>
     </g>
    </g>
    <g id="ytick_20">
     <g id="line2d_28">
      <g>
       <use style="stroke:#000000;stroke-width:0.6;" x="31.8" xlink:href="#m7c31229239" y="98.816394"/>
      </g>
     </g>
    </g>
    <g id="ytick_21">
     <g id="line2d_29">
      <g>
       <use style="stroke:#000000;stroke-width:0.6;" x="31.8" xlink:href="#m7c31229239" y="84.186955"/>
      </g>
     </g>
    </g>
    <g id="ytick_22">
     <g id="line2d_30">
      <g>
       <use style="stroke:#000000;stroke-width:0.6;" x="31.8" xlink:href="#m7c31229239" y="73.807203"/>
      </g>
     </g>
    </g>
    <g id="ytick_23">
     <g id="line2d_31">
      <g>
       <use style="stroke:#000000;stroke-width:0.6;" x="31.8" xlink:href="#m7c31229239" y="65.756042"/>
      </g>
     </g>
    </g>
    <g id="ytick_24">
     <g id="line2d_32">
      <g>
       <use style="stroke:#000000;stroke-width:0.6;" x="31.8" xlink:href="#m7c31229239" y="59.177764"/>
      </g>
     </g>
    </g>
    <g id="ytick_25">
     <g id="line2d_33">
      <g>
       <use style="stroke:#000000;stroke-width:0.6;" x="31.8" xlink:href="#m7c31229239" y="53.61591"/>
      </g>
     </g>
    </g>
    <g id="ytick_26">
     <g id="line2d_34">
      <g>
       <use style="stroke:#000000;stroke-width:0.6;" x="31.8" xlink:href="#m7c31229239" y="48.798012"/>
      </g>
     </g>
    </g>
    <g id="ytick_27">
     <g id="line2d_35">
      <g>
       <use style="stroke:#000000;stroke-width:0.6;" x="31.8" xlink:href="#m7c31229239" y="44.548325"/>
      </g>
     </g>
    </g>
    <g id="ytick_28">
     <g id="line2d_36">
      <g>
       <use style="stroke:#000000;stroke-width:0.6;" x="31.8" xlink:href="#m7c31229239" y="15.73766"/>
      </g>
     </g>
    </g>
   </g>
   <g id="line2d_37">
    <path clip-path="url(#pc1f837a3f1)" d="M 48.032727 43.265389 
L 48.903115 60.22266 
L 49.773502 43.174965 
L 50.64389 110.778315 
L 51.514277 80.476265 
L 52.384665 134.467996 
L 53.255052 77.301891 
L 54.12544 162.244599 
L 54.995827 70.880201 
L 55.866215 82.398949 
L 56.736602 61.903449 
L 57.60699 46.634345 
L 58.477378 73.36547 
L 59.347765 58.382348 
L 60.218153 40.072356 
L 61.08854 85.465873 
L 61.958928 113.0382 
L 62.829315 80.684613 
L 63.699703 169.490245 
L 64.57009 73.674923 
L 65.440478 98.897703 
L 66.310865 64.603728 
L 67.181253 53.297929 
L 68.05164 33.327659 
L 68.922028 66.304078 
L 69.792415 58.629263 
L 70.662803 27.598606 
L 71.53319 62.778475 
L 72.403578 48.128341 
L 73.273965 57.585136 
L 74.144353 55.871695 
L 75.01474 36.838207 
L 75.885128 78.049656 
L 76.755515 226.842491 
L 77.625903 72.095942 
L 78.496291 90.577358 
L 79.366678 63.378586 
L 80.237066 50.297208 
L 81.107453 40.511367 
L 81.977841 75.544081 
L 82.848228 128.536634 
L 83.718616 67.154472 
L 84.589003 60.044074 
L 85.459391 26.685324 
L 86.329778 62.569682 
L 87.200166 47.528681 
L 88.070553 65.771902 
L 88.940941 57.636479 
L 89.811328 39.958022 
L 90.681716 90.828882 
L 91.552103 91.261455 
L 92.422491 104.352996 
L 93.292878 84.174488 
L 94.163266 129.600966 
L 95.033653 77.145316 
L 95.904041 134.851535 
L 96.774428 68.767652 
L 97.644816 68.572461 
L 98.515204 59.066018 
L 99.385591 40.810996 
L 100.255979 88.848562 
L 101.126366 102.656282 
L 101.996754 85.249866 
L 102.867141 119.09442 
L 103.737529 79.683837 
L 104.607916 214.70009 
L 105.478304 72.684289 
L 106.348691 92.115514 
L 107.219079 63.534725 
L 108.089466 50.390965 
L 108.959854 40.444212 
L 109.830241 76.295109 
L 110.700629 178.366192 
L 111.571016 70.337352 
L 112.441404 76.762177 
L 114.182179 43.649891 
L 115.052566 119.92793 
L 115.922954 77.743616 
L 116.793341 187.215152 
L 117.663729 73.719849 
L 118.534117 106.905345 
L 119.404504 66.087215 
L 120.274892 59.330906 
L 121.145279 57.295305 
L 122.015667 38.159451 
L 122.886054 80.182295 
L 123.756442 177.793753 
L 124.626829 72.923095 
L 125.497217 91.919116 
L 126.367604 63.394 
L 127.237992 49.758144 
L 128.108379 43.549562 
L 128.978767 103.688021 
L 129.849154 76.216188 
L 130.719542 104.444708 
L 131.589929 64.367824 
L 132.460317 50.371125 
L 133.330704 43.355011 
L 134.201092 53.635135 
L 135.071479 34.101155 
L 136.812254 110.964429 
L 137.682642 66.773102 
L 138.553029 62.822303 
L 139.423417 58.063165 
L 140.293805 39.394391 
L 141.164192 83.811351 
L 142.03458 120.821654 
L 142.904967 78.709532 
L 143.775355 184.947593 
L 144.645742 71.273381 
L 145.51613 82.407373 
L 146.386517 61.78469 
L 147.256905 46.098676 
L 148.127292 90.602158 
L 148.99768 61.766869 
L 149.868067 47.98989 
L 150.738455 50.354287 
L 152.47923 57.036351 
L 153.349617 43.944619 
L 154.220005 55.000316 
L 155.090392 35.959651 
L 155.96078 77.788689 
L 156.831167 174.826487 
L 157.701555 74.666104 
L 158.571942 123.562306 
L 159.44233 68.364615 
L 160.312718 70.164316 
L 161.183105 59.585839 
L 162.053493 42.030638 
L 162.92388 98.346916 
L 163.794268 87.253182 
L 164.664655 104.996979 
L 165.535043 85.87476 
L 166.40543 112.621802 
L 167.275818 82.331624 
L 168.146205 133.675722 
L 169.016593 77.13958 
L 169.88698 146.039738 
L 170.757368 69.830538 
L 171.627755 75.20143 
L 172.498143 60.457939 
L 173.36853 43.44994 
L 174.238918 117.416518 
L 175.109305 78.102577 
L 175.979693 187.531501 
L 176.85008 73.550996 
L 177.720468 103.749036 
L 178.590855 65.568796 
L 179.461243 57.220328 
L 180.331631 56.853321 
L 181.202018 37.513912 
L 182.072406 78.698157 
L 182.942793 179.251053 
L 183.813181 70.707744 
L 184.683568 77.745555 
L 186.424343 43.941358 
L 187.294731 128.477304 
L 188.165118 75.985646 
L 189.035506 168.395559 
L 189.905893 71.348583 
L 190.776281 88.132489 
L 191.646668 63.07928 
L 192.517056 49.871549 
L 193.387443 41.810461 
L 194.257831 77.793283 
L 195.128218 158.172361 
L 195.998606 68.441541 
L 196.868993 62.904385 
L 197.739381 22.310576 
L 198.609768 60.413311 
L 199.480156 43.784413 
L 200.350544 140.434075 
L 201.220931 73.205051 
L 202.091319 101.733757 
L 202.961706 65.006498 
L 203.832094 54.825524 
L 204.702481 31.734036 
L 205.572869 65.092931 
L 206.443256 53.592377 
L 207.313644 32.881636 
L 208.184031 67.953257 
L 209.054419 80.304346 
L 209.924806 62.398287 
L 210.795194 50.87907 
L 211.665581 55.801623 
L 212.535969 36.292266 
L 213.406356 76.616651 
L 214.276744 131.885045 
L 215.147131 68.431816 
L 216.017519 67.286519 
L 216.887906 58.812827 
L 217.758294 40.402751 
L 218.628681 87.049608 
L 219.499069 107.836191 
L 220.369456 82.631942 
L 221.239844 137.45687 
L 222.110232 76.194276 
L 222.980619 124.489592 
L 223.851007 67.901883 
L 224.721394 65.147419 
L 225.591782 58.398101 
L 226.462169 39.748873 
L 227.332557 84.599647 
L 228.202944 118.26655 
L 229.073332 79.090377 
L 229.943719 195.587356 
L 230.814107 71.413294 
L 231.684494 82.68886 
L 232.554882 61.808428 
L 233.425269 46.090842 
L 234.295657 91.917073 
L 235.166044 62.061422 
L 236.036432 49.030749 
L 236.906819 44.735835 
L 238.647594 126.303618 
L 239.517982 72.420542 
L 240.388369 72.589627 
L 241.258757 60.164008 
L 242.129145 43.298422 
L 242.999532 130.286593 
L 243.86992 73.861245 
L 244.740307 98.709458 
L 245.610695 64.214507 
L 247.35147 37.550918 
L 248.221857 72.949019 
L 249.092245 129.210424 
L 249.962632 69.026411 
L 250.83302 77.051167 
L 252.573795 45.552918 
L 253.444182 87.43085 
L 254.31457 60.299245 
L 255.184957 42.43652 
L 256.055345 95.19544 
L 256.925732 94.630468 
L 257.79612 89.101645 
L 258.666507 109.269859 
L 259.536895 82.32488 
L 260.407282 144.904001 
L 261.27767 75.262891 
L 262.148058 112.363961 
L 263.018445 66.47424 
L 263.888833 59.330093 
L 264.75922 57.214954 
L 265.629608 37.963407 
L 266.499995 79.596865 
L 267.370383 261.216 
L 268.24077 71.790079 
L 269.111158 83.793156 
L 269.981545 61.936843 
L 270.851933 46.230409 
L 271.72232 90.093905 
L 272.592708 61.936099 
L 273.463095 49.244443 
L 274.333483 45.370982 
L 275.20387 102.113168 
L 276.074258 100.327845 
L 276.944645 76.878535 
L 277.815033 87.048482 
L 278.68542 61.711256 
L 279.555808 45.075207 
L 280.426195 185.347371 
L 281.296583 70.302429 
L 282.166971 93.568569 
L 283.037358 64.401128 
L 283.907746 55.453337 
L 284.778133 56.623322 
L 285.648521 37.32152 
L 286.518908 78.489938 
L 287.389296 180.599774 
L 288.259683 70.873044 
L 289.130071 79.411352 
L 290.870846 44.725779 
L 291.741233 234.956072 
L 292.611621 70.312089 
L 293.482008 87.717187 
L 294.352396 63.071883 
L 295.222783 50.369213 
L 296.093171 40.032677 
L 296.963558 73.456714 
L 297.833946 89.323389 
L 298.704333 61.758922 
L 299.574721 44.655553 
L 300.445108 138.113059 
L 301.315496 76.323811 
L 302.185883 161.838246 
L 303.056271 75.78085 
L 303.926659 152.144626 
L 304.797046 70.848815 
L 305.667434 85.605815 
L 306.537821 62.675074 
L 307.408209 48.951467 
L 308.278596 45.835839 
L 309.148984 103.288024 
L 310.019371 84.446122 
L 310.889759 97.686653 
L 311.760146 96.322576 
L 312.630534 88.960903 
L 313.500921 109.637311 
L 314.371309 82.329232 
L 315.241696 143.797839 
L 316.112084 75.417763 
L 316.982471 114.42295 
L 317.852859 66.746768 
L 318.723246 60.395967 
L 319.593634 57.42994 
L 320.464021 38.271437 
L 321.334409 80.313531 
L 322.204796 178.726914 
L 323.075184 72.801678 
L 323.945572 90.442086 
L 324.815959 63.114162 
L 325.686347 48.978663 
L 326.556734 48.371117 
L 327.427122 52.527872 
L 328.297509 38.627638 
L 329.167897 54.521263 
L 330.038284 39.279246 
L 330.908672 54.129158 
L 331.779059 34.849596 
L 332.649447 75.779249 
L 333.519834 158.966588 
L 334.390222 71.401352 
L 335.260609 91.650355 
L 336.130997 63.871213 
L 337.001384 52.623205 
L 337.871772 36.325079 
L 338.742159 68.958991 
L 339.612547 64.544198 
L 340.482934 19.296 
L 341.353322 59.772072 
L 342.223709 43.503372 
L 343.094097 115.69902 
L 343.964485 63.376173 
L 344.834872 47.092436 
L 345.70526 87.509353 
L 346.575647 63.600766 
L 347.446035 63.996012 
L 348.316422 59.249833 
L 349.18681 43.46239 
L 350.057197 87.855321 
L 350.927585 50.269363 
L 351.797972 30.099251 
L 352.66836 68.881227 
L 353.538747 70.090318 
L 354.409135 59.502981 
L 355.279522 41.734798 
L 356.14991 95.06101 
L 357.020297 91.102324 
L 357.890685 96.680236 
L 358.761072 92.735295 
L 359.63146 96.474772 
L 360.501847 92.820841 
L 361.372235 96.77775 
L 362.242622 92.324608 
L 363.11301 97.70133 
L 363.983398 91.311878 
L 364.853785 99.461295 
L 365.724173 89.688353 
L 366.59456 102.649096 
L 367.464948 87.274917 
L 368.335335 108.801028 
L 369.205723 83.830783 
L 370.07611 123.366057 
L 370.946498 79.039722 
L 370.948933 311.86825 
L 370.948933 311.86825 
" style="fill:none;stroke:#1f77b4;stroke-linecap:square;stroke-width:1.5;"/>
    <defs>
     <path d="M 0 3 
C 0.795609 3 1.55874 2.683901 2.12132 2.12132 
C 2.683901 1.55874 3 0.795609 3 0 
C 3 -0.795609 2.683901 -1.55874 2.12132 -2.12132 
C 1.55874 -2.683901 0.795609 -3 0 -3 
C -0.795609 -3 -1.55874 -2.683901 -2.12132 -2.12132 
C -2.683901 -1.55874 -3 -0.795609 -3 0 
C -3 0.795609 -2.683901 1.55874 -2.12132 2.12132 
C -1.55874 2.683901 -0.795609 3 0 3 
z
" id="m6f31eae019" style="stroke:#1f77b4;"/>
    </defs>
    <g clip-path="url(#pc1f837a3f1)">
     <use style="fill:#1f77b4;stroke:#1f77b4;" x="48.032727" xlink:href="#m6f31eae019" y="43.265389"/>
     <use style="fill:#1f77b4;stroke:#1f77b4;" x="48.903115" xlink:href="#m6f31eae019" y="60.22266"/>
     <use style="fill:#1f77b4;stroke:#1f77b4;" x="49.773502" xlink:href="#m6f31eae019" y="43.174965"/>
     <use style="fill:#1f77b4;stroke:#1f77b4;" x="50.64389" xlink:href="#m6f31eae019" y="110.778315"/>
     <use style="fill:#1f77b4;stroke:#1f77b4;" x="51.514277" xlink:href="#m6f31eae019" y="80.476265"/>
     <use style="fill:#1f77b4;stroke:#1f77b4;" x="52.384665" xlink:href="#m6f31eae019" y="134.467996"/>
     <use style="fill:#1f77b4;stroke:#1f77b4;" x="53.255052" xlink:href="#m6f31eae019" y="77.301891"/>
     <use style="fill:#1f77b4;stroke:#1f77b4;" x="54.12544" xlink:href="#m6f31eae019" y="162.244599"/>
     <use style="fill:#1f77b4;stroke:#1f77b4;" x="54.995827" xlink:href="#m6f31eae019" y="70.880201"/>
     <use style="fill:#1f77b4;stroke:#1f77b4;" x="55.866215" xlink:href="#m6f31eae019" y="82.398949"/>
     <use style="fill:#1f77b4;stroke:#1f77b4;" x="56.736602" xlink:href="#m6f31eae019" y="61.903449"/>
     <use style="fill:#1f77b4;stroke:#1f77b4;" x="57.60699" xlink:href="#m6f31eae019" y="46.634345"/>
     <use style="fill:#1f77b4;stroke:#1f77b4;" x="58.477378" xlink:href="#m6f31eae019" y="73.36547"/>
     <use style="fill:#1f77b4;stroke:#1f77b4;" x="59.347765" xlink:href="#m6f31eae019" y="58.382348"/>
     <use style="fill:#1f77b4;stroke:#1f77b4;" x="60.218153" xlink:href="#m6f31eae019" y="40.072356"/>
     <use style="fill:#1f77b4;stroke:#1f77b4;" x="61.08854" xlink:href="#m6f31eae019" y="85.465873"/>
     <use style="fill:#1f77b4;stroke:#1f77b4;" x="61.958928" xlink:href="#m6f31eae019" y="113.0382"/>
     <use style="fill:#1f77b4;stroke:#1f77b4;" x="62.829315" xlink:href="#m6f31eae019" y="80.684613"/>
     <use style="fill:#1f77b4;stroke:#1f77b4;" x="63.699703" xlink:href="#m6f31eae019" y="169.490245"/>
     <use style="fill:#1f77b4;stroke:#1f77b4;" x="64.57009" xlink:href="#m6f31eae019" y="73.674923"/>
     <use style="fill:#1f77b4;stroke:#1f77b4;" x="65.440478" xlink:href="#m6f31eae019" y="98.897703"/>
     <use style="fill:#1f77b4;stroke:#1f77b4;" x="66.310865" xlink:href="#m6f31eae019" y="64.603728"/>
     <use style="fill:#1f77b4;stroke:#1f77b4;" x="67.181253" xlink:href="#m6f31eae019" y="53.297929"/>
     <use style="fill:#1f77b4;stroke:#1f77b4;" x="68.05164" xlink:href="#m6f31eae019" y="33.327659"/>
     <use style="fill:#1f77b4;stroke:#1f77b4;" x="68.922028" xlink:href="#m6f31eae019" y="66.304078"/>
     <use style="fill:#1f77b4;stroke:#1f77b4;" x="69.792415" xlink:href="#m6f31eae019" y="58.629263"/>
     <use style="fill:#1f77b4;stroke:#1f77b4;" x="70.662803" xlink:href="#m6f31eae019" y="27.598606"/>
     <use style="fill:#1f77b4;stroke:#1f77b4;" x="71.53319" xlink:href="#m6f31eae019" y="62.778475"/>
     <use style="fill:#1f77b4;stroke:#1f77b4;" x="72.403578" xlink:href="#m6f31eae019" y="48.128341"/>
     <use style="fill:#1f77b4;stroke:#1f77b4;" x="73.273965" xlink:href="#m6f31eae019" y="57.585136"/>
     <use style="fill:#1f77b4;stroke:#1f77b4;" x="74.144353" xlink:href="#m6f31eae019" y="55.871695"/>
     <use style="fill:#1f77b4;stroke:#1f77b4;" x="75.01474" xlink:href="#m6f31eae019" y="36.838207"/>
     <use style="fill:#1f77b4;stroke:#1f77b4;" x="75.885128" xlink:href="#m6f31eae019" y="78.049656"/>
     <use style="fill:#1f77b4;stroke:#1f77b4;" x="76.755515" xlink:href="#m6f31eae019" y="226.842491"/>
     <use style="fill:#1f77b4;stroke:#1f77b4;" x="77.625903" xlink:href="#m6f31eae019" y="72.095942"/>
     <use style="fill:#1f77b4;stroke:#1f77b4;" x="78.496291" xlink:href="#m6f31eae019" y="90.577358"/>
     <use style="fill:#1f77b4;stroke:#1f77b4;" x="79.366678" xlink:href="#m6f31eae019" y="63.378586"/>
     <use style="fill:#1f77b4;stroke:#1f77b4;" x="80.237066" xlink:href="#m6f31eae019" y="50.297208"/>
     <use style="fill:#1f77b4;stroke:#1f77b4;" x="81.107453" xlink:href="#m6f31eae019" y="40.511367"/>
     <use style="fill:#1f77b4;stroke:#1f77b4;" x="81.977841" xlink:href="#m6f31eae019" y="75.544081"/>
     <use style="fill:#1f77b4;stroke:#1f77b4;" x="82.848228" xlink:href="#m6f31eae019" y="128.536634"/>
     <use style="fill:#1f77b4;stroke:#1f77b4;" x="83.718616" xlink:href="#m6f31eae019" y="67.154472"/>
     <use style="fill:#1f77b4;stroke:#1f77b4;" x="84.589003" xlink:href="#m6f31eae019" y="60.044074"/>
     <use style="fill:#1f77b4;stroke:#1f77b4;" x="85.459391" xlink:href="#m6f31eae019" y="26.685324"/>
     <use style="fill:#1f77b4;stroke:#1f77b4;" x="86.329778" xlink:href="#m6f31eae019" y="62.569682"/>
     <use style="fill:#1f77b4;stroke:#1f77b4;" x="87.200166" xlink:href="#m6f31eae019" y="47.528681"/>
     <use style="fill:#1f77b4;stroke:#1f77b4;" x="88.070553" xlink:href="#m6f31eae019" y="65.771902"/>
     <use style="fill:#1f77b4;stroke:#1f77b4;" x="88.940941" xlink:href="#m6f31eae019" y="57.636479"/>
     <use style="fill:#1f77b4;stroke:#1f77b4;" x="89.811328" xlink:href="#m6f31eae019" y="39.958022"/>
     <use style="fill:#1f77b4;stroke:#1f77b4;" x="90.681716" xlink:href="#m6f31eae019" y="90.828882"/>
     <use style="fill:#1f77b4;stroke:#1f77b4;" x="91.552103" xlink:href="#m6f31eae019" y="91.261455"/>
     <use style="fill:#1f77b4;stroke:#1f77b4;" x="92.422491" xlink:href="#m6f31eae019" y="104.352996"/>
     <use style="fill:#1f77b4;stroke:#1f77b4;" x="93.292878" xlink:href="#m6f31eae019" y="84.174488"/>
     <use style="fill:#1f77b4;stroke:#1f77b4;" x="94.163266" xlink:href="#m6f31eae019" y="129.600966"/>
     <use style="fill:#1f77b4;stroke:#1f77b4;" x="95.033653" xlink:href="#m6f31eae019" y="77.145316"/>
     <use style="fill:#1f77b4;stroke:#1f77b4;" x="95.904041" xlink:href="#m6f31eae019" y="134.851535"/>
     <use style="fill:#1f77b4;stroke:#1f77b4;" x="96.774428" xlink:href="#m6f31eae019" y="68.767652"/>
     <use style="fill:#1f77b4;stroke:#1f77b4;" x="97.644816" xlink:href="#m6f31eae019" y="68.572461"/>
     <use style="fill:#1f77b4;stroke:#1f77b4;" x="98.515204" xlink:href="#m6f31eae019" y="59.066018"/>
     <use style="fill:#1f77b4;stroke:#1f77b4;" x="99.385591" xlink:href="#m6f31eae019" y="40.810996"/>
     <use style="fill:#1f77b4;stroke:#1f77b4;" x="100.255979" xlink:href="#m6f31eae019" y="88.848562"/>
     <use style="fill:#1f77b4;stroke:#1f77b4;" x="101.126366" xlink:href="#m6f31eae019" y="102.656282"/>
     <use style="fill:#1f77b4;stroke:#1f77b4;" x="101.996754" xlink:href="#m6f31eae019" y="85.249866"/>
     <use style="fill:#1f77b4;stroke:#1f77b4;" x="102.867141" xlink:href="#m6f31eae019" y="119.09442"/>
     <use style="fill:#1f77b4;stroke:#1f77b4;" x="103.737529" xlink:href="#m6f31eae019" y="79.683837"/>
     <use style="fill:#1f77b4;stroke:#1f77b4;" x="104.607916" xlink:href="#m6f31eae019" y="214.70009"/>
     <use style="fill:#1f77b4;stroke:#1f77b4;" x="105.478304" xlink:href="#m6f31eae019" y="72.684289"/>
     <use style="fill:#1f77b4;stroke:#1f77b4;" x="106.348691" xlink:href="#m6f31eae019" y="92.115514"/>
     <use style="fill:#1f77b4;stroke:#1f77b4;" x="107.219079" xlink:href="#m6f31eae019" y="63.534725"/>
     <use style="fill:#1f77b4;stroke:#1f77b4;" x="108.089466" xlink:href="#m6f31eae019" y="50.390965"/>
     <use style="fill:#1f77b4;stroke:#1f77b4;" x="108.959854" xlink:href="#m6f31eae019" y="40.444212"/>
     <use style="fill:#1f77b4;stroke:#1f77b4;" x="109.830241" xlink:href="#m6f31eae019" y="76.295109"/>
     <use style="fill:#1f77b4;stroke:#1f77b4;" x="110.700629" xlink:href="#m6f31eae019" y="178.366192"/>
     <use style="fill:#1f77b4;stroke:#1f77b4;" x="111.571016" xlink:href="#m6f31eae019" y="70.337352"/>
     <use style="fill:#1f77b4;stroke:#1f77b4;" x="112.441404" xlink:href="#m6f31eae019" y="76.762177"/>
     <use style="fill:#1f77b4;stroke:#1f77b4;" x="113.311791" xlink:href="#m6f31eae019" y="60.644928"/>
     <use style="fill:#1f77b4;stroke:#1f77b4;" x="114.182179" xlink:href="#m6f31eae019" y="43.649891"/>
     <use style="fill:#1f77b4;stroke:#1f77b4;" x="115.052566" xlink:href="#m6f31eae019" y="119.92793"/>
     <use style="fill:#1f77b4;stroke:#1f77b4;" x="115.922954" xlink:href="#m6f31eae019" y="77.743616"/>
     <use style="fill:#1f77b4;stroke:#1f77b4;" x="116.793341" xlink:href="#m6f31eae019" y="187.215152"/>
     <use style="fill:#1f77b4;stroke:#1f77b4;" x="117.663729" xlink:href="#m6f31eae019" y="73.719849"/>
     <use style="fill:#1f77b4;stroke:#1f77b4;" x="118.534117" xlink:href="#m6f31eae019" y="106.905345"/>
     <use style="fill:#1f77b4;stroke:#1f77b4;" x="119.404504" xlink:href="#m6f31eae019" y="66.087215"/>
     <use style="fill:#1f77b4;stroke:#1f77b4;" x="120.274892" xlink:href="#m6f31eae019" y="59.330906"/>
     <use style="fill:#1f77b4;stroke:#1f77b4;" x="121.145279" xlink:href="#m6f31eae019" y="57.295305"/>
     <use style="fill:#1f77b4;stroke:#1f77b4;" x="122.015667" xlink:href="#m6f31eae019" y="38.159451"/>
     <use style="fill:#1f77b4;stroke:#1f77b4;" x="122.886054" xlink:href="#m6f31eae019" y="80.182295"/>
     <use style="fill:#1f77b4;stroke:#1f77b4;" x="123.756442" xlink:href="#m6f31eae019" y="177.793753"/>
     <use style="fill:#1f77b4;stroke:#1f77b4;" x="124.626829" xlink:href="#m6f31eae019" y="72.923095"/>
     <use style="fill:#1f77b4;stroke:#1f77b4;" x="125.497217" xlink:href="#m6f31eae019" y="91.919116"/>
     <use style="fill:#1f77b4;stroke:#1f77b4;" x="126.367604" xlink:href="#m6f31eae019" y="63.394"/>
     <use style="fill:#1f77b4;stroke:#1f77b4;" x="127.237992" xlink:href="#m6f31eae019" y="49.758144"/>
     <use style="fill:#1f77b4;stroke:#1f77b4;" x="128.108379" xlink:href="#m6f31eae019" y="43.549562"/>
     <use style="fill:#1f77b4;stroke:#1f77b4;" x="128.978767" xlink:href="#m6f31eae019" y="103.688021"/>
     <use style="fill:#1f77b4;stroke:#1f77b4;" x="129.849154" xlink:href="#m6f31eae019" y="76.216188"/>
     <use style="fill:#1f77b4;stroke:#1f77b4;" x="130.719542" xlink:href="#m6f31eae019" y="104.444708"/>
     <use style="fill:#1f77b4;stroke:#1f77b4;" x="131.589929" xlink:href="#m6f31eae019" y="64.367824"/>
     <use style="fill:#1f77b4;stroke:#1f77b4;" x="132.460317" xlink:href="#m6f31eae019" y="50.371125"/>
     <use style="fill:#1f77b4;stroke:#1f77b4;" x="133.330704" xlink:href="#m6f31eae019" y="43.355011"/>
     <use style="fill:#1f77b4;stroke:#1f77b4;" x="134.201092" xlink:href="#m6f31eae019" y="53.635135"/>
     <use style="fill:#1f77b4;stroke:#1f77b4;" x="135.071479" xlink:href="#m6f31eae019" y="34.101155"/>
     <use style="fill:#1f77b4;stroke:#1f77b4;" x="135.941867" xlink:href="#m6f31eae019" y="73.868812"/>
     <use style="fill:#1f77b4;stroke:#1f77b4;" x="136.812254" xlink:href="#m6f31eae019" y="110.964429"/>
     <use style="fill:#1f77b4;stroke:#1f77b4;" x="137.682642" xlink:href="#m6f31eae019" y="66.773102"/>
     <use style="fill:#1f77b4;stroke:#1f77b4;" x="138.553029" xlink:href="#m6f31eae019" y="62.822303"/>
     <use style="fill:#1f77b4;stroke:#1f77b4;" x="139.423417" xlink:href="#m6f31eae019" y="58.063165"/>
     <use style="fill:#1f77b4;stroke:#1f77b4;" x="140.293805" xlink:href="#m6f31eae019" y="39.394391"/>
     <use style="fill:#1f77b4;stroke:#1f77b4;" x="141.164192" xlink:href="#m6f31eae019" y="83.811351"/>
     <use style="fill:#1f77b4;stroke:#1f77b4;" x="142.03458" xlink:href="#m6f31eae019" y="120.821654"/>
     <use style="fill:#1f77b4;stroke:#1f77b4;" x="142.904967" xlink:href="#m6f31eae019" y="78.709532"/>
     <use style="fill:#1f77b4;stroke:#1f77b4;" x="143.775355" xlink:href="#m6f31eae019" y="184.947593"/>
     <use style="fill:#1f77b4;stroke:#1f77b4;" x="144.645742" xlink:href="#m6f31eae019" y="71.273381"/>
     <use style="fill:#1f77b4;stroke:#1f77b4;" x="145.51613" xlink:href="#m6f31eae019" y="82.407373"/>
     <use style="fill:#1f77b4;stroke:#1f77b4;" x="146.386517" xlink:href="#m6f31eae019" y="61.78469"/>
     <use style="fill:#1f77b4;stroke:#1f77b4;" x="147.256905" xlink:href="#m6f31eae019" y="46.098676"/>
     <use style="fill:#1f77b4;stroke:#1f77b4;" x="148.127292" xlink:href="#m6f31eae019" y="90.602158"/>
     <use style="fill:#1f77b4;stroke:#1f77b4;" x="148.99768" xlink:href="#m6f31eae019" y="61.766869"/>
     <use style="fill:#1f77b4;stroke:#1f77b4;" x="149.868067" xlink:href="#m6f31eae019" y="47.98989"/>
     <use style="fill:#1f77b4;stroke:#1f77b4;" x="150.738455" xlink:href="#m6f31eae019" y="50.354287"/>
     <use style="fill:#1f77b4;stroke:#1f77b4;" x="151.608842" xlink:href="#m6f31eae019" y="53.624694"/>
     <use style="fill:#1f77b4;stroke:#1f77b4;" x="152.47923" xlink:href="#m6f31eae019" y="57.036351"/>
     <use style="fill:#1f77b4;stroke:#1f77b4;" x="153.349617" xlink:href="#m6f31eae019" y="43.944619"/>
     <use style="fill:#1f77b4;stroke:#1f77b4;" x="154.220005" xlink:href="#m6f31eae019" y="55.000316"/>
     <use style="fill:#1f77b4;stroke:#1f77b4;" x="155.090392" xlink:href="#m6f31eae019" y="35.959651"/>
     <use style="fill:#1f77b4;stroke:#1f77b4;" x="155.96078" xlink:href="#m6f31eae019" y="77.788689"/>
     <use style="fill:#1f77b4;stroke:#1f77b4;" x="156.831167" xlink:href="#m6f31eae019" y="174.826487"/>
     <use style="fill:#1f77b4;stroke:#1f77b4;" x="157.701555" xlink:href="#m6f31eae019" y="74.666104"/>
     <use style="fill:#1f77b4;stroke:#1f77b4;" x="158.571942" xlink:href="#m6f31eae019" y="123.562306"/>
     <use style="fill:#1f77b4;stroke:#1f77b4;" x="159.44233" xlink:href="#m6f31eae019" y="68.364615"/>
     <use style="fill:#1f77b4;stroke:#1f77b4;" x="160.312718" xlink:href="#m6f31eae019" y="70.164316"/>
     <use style="fill:#1f77b4;stroke:#1f77b4;" x="161.183105" xlink:href="#m6f31eae019" y="59.585839"/>
     <use style="fill:#1f77b4;stroke:#1f77b4;" x="162.053493" xlink:href="#m6f31eae019" y="42.030638"/>
     <use style="fill:#1f77b4;stroke:#1f77b4;" x="162.92388" xlink:href="#m6f31eae019" y="98.346916"/>
     <use style="fill:#1f77b4;stroke:#1f77b4;" x="163.794268" xlink:href="#m6f31eae019" y="87.253182"/>
     <use style="fill:#1f77b4;stroke:#1f77b4;" x="164.664655" xlink:href="#m6f31eae019" y="104.996979"/>
     <use style="fill:#1f77b4;stroke:#1f77b4;" x="165.535043" xlink:href="#m6f31eae019" y="85.87476"/>
     <use style="fill:#1f77b4;stroke:#1f77b4;" x="166.40543" xlink:href="#m6f31eae019" y="112.621802"/>
     <use style="fill:#1f77b4;stroke:#1f77b4;" x="167.275818" xlink:href="#m6f31eae019" y="82.331624"/>
     <use style="fill:#1f77b4;stroke:#1f77b4;" x="168.146205" xlink:href="#m6f31eae019" y="133.675722"/>
     <use style="fill:#1f77b4;stroke:#1f77b4;" x="169.016593" xlink:href="#m6f31eae019" y="77.13958"/>
     <use style="fill:#1f77b4;stroke:#1f77b4;" x="169.88698" xlink:href="#m6f31eae019" y="146.039738"/>
     <use style="fill:#1f77b4;stroke:#1f77b4;" x="170.757368" xlink:href="#m6f31eae019" y="69.830538"/>
     <use style="fill:#1f77b4;stroke:#1f77b4;" x="171.627755" xlink:href="#m6f31eae019" y="75.20143"/>
     <use style="fill:#1f77b4;stroke:#1f77b4;" x="172.498143" xlink:href="#m6f31eae019" y="60.457939"/>
     <use style="fill:#1f77b4;stroke:#1f77b4;" x="173.36853" xlink:href="#m6f31eae019" y="43.44994"/>
     <use style="fill:#1f77b4;stroke:#1f77b4;" x="174.238918" xlink:href="#m6f31eae019" y="117.416518"/>
     <use style="fill:#1f77b4;stroke:#1f77b4;" x="175.109305" xlink:href="#m6f31eae019" y="78.102577"/>
     <use style="fill:#1f77b4;stroke:#1f77b4;" x="175.979693" xlink:href="#m6f31eae019" y="187.531501"/>
     <use style="fill:#1f77b4;stroke:#1f77b4;" x="176.85008" xlink:href="#m6f31eae019" y="73.550996"/>
     <use style="fill:#1f77b4;stroke:#1f77b4;" x="177.720468" xlink:href="#m6f31eae019" y="103.749036"/>
     <use style="fill:#1f77b4;stroke:#1f77b4;" x="178.590855" xlink:href="#m6f31eae019" y="65.568796"/>
     <use style="fill:#1f77b4;stroke:#1f77b4;" x="179.461243" xlink:href="#m6f31eae019" y="57.220328"/>
     <use style="fill:#1f77b4;stroke:#1f77b4;" x="180.331631" xlink:href="#m6f31eae019" y="56.853321"/>
     <use style="fill:#1f77b4;stroke:#1f77b4;" x="181.202018" xlink:href="#m6f31eae019" y="37.513912"/>
     <use style="fill:#1f77b4;stroke:#1f77b4;" x="182.072406" xlink:href="#m6f31eae019" y="78.698157"/>
     <use style="fill:#1f77b4;stroke:#1f77b4;" x="182.942793" xlink:href="#m6f31eae019" y="179.251053"/>
     <use style="fill:#1f77b4;stroke:#1f77b4;" x="183.813181" xlink:href="#m6f31eae019" y="70.707744"/>
     <use style="fill:#1f77b4;stroke:#1f77b4;" x="184.683568" xlink:href="#m6f31eae019" y="77.745555"/>
     <use style="fill:#1f77b4;stroke:#1f77b4;" x="185.553956" xlink:href="#m6f31eae019" y="60.821268"/>
     <use style="fill:#1f77b4;stroke:#1f77b4;" x="186.424343" xlink:href="#m6f31eae019" y="43.941358"/>
     <use style="fill:#1f77b4;stroke:#1f77b4;" x="187.294731" xlink:href="#m6f31eae019" y="128.477304"/>
     <use style="fill:#1f77b4;stroke:#1f77b4;" x="188.165118" xlink:href="#m6f31eae019" y="75.985646"/>
     <use style="fill:#1f77b4;stroke:#1f77b4;" x="189.035506" xlink:href="#m6f31eae019" y="168.395559"/>
     <use style="fill:#1f77b4;stroke:#1f77b4;" x="189.905893" xlink:href="#m6f31eae019" y="71.348583"/>
     <use style="fill:#1f77b4;stroke:#1f77b4;" x="190.776281" xlink:href="#m6f31eae019" y="88.132489"/>
     <use style="fill:#1f77b4;stroke:#1f77b4;" x="191.646668" xlink:href="#m6f31eae019" y="63.07928"/>
     <use style="fill:#1f77b4;stroke:#1f77b4;" x="192.517056" xlink:href="#m6f31eae019" y="49.871549"/>
     <use style="fill:#1f77b4;stroke:#1f77b4;" x="193.387443" xlink:href="#m6f31eae019" y="41.810461"/>
     <use style="fill:#1f77b4;stroke:#1f77b4;" x="194.257831" xlink:href="#m6f31eae019" y="77.793283"/>
     <use style="fill:#1f77b4;stroke:#1f77b4;" x="195.128218" xlink:href="#m6f31eae019" y="158.172361"/>
     <use style="fill:#1f77b4;stroke:#1f77b4;" x="195.998606" xlink:href="#m6f31eae019" y="68.441541"/>
     <use style="fill:#1f77b4;stroke:#1f77b4;" x="196.868993" xlink:href="#m6f31eae019" y="62.904385"/>
     <use style="fill:#1f77b4;stroke:#1f77b4;" x="197.739381" xlink:href="#m6f31eae019" y="22.310576"/>
     <use style="fill:#1f77b4;stroke:#1f77b4;" x="198.609768" xlink:href="#m6f31eae019" y="60.413311"/>
     <use style="fill:#1f77b4;stroke:#1f77b4;" x="199.480156" xlink:href="#m6f31eae019" y="43.784413"/>
     <use style="fill:#1f77b4;stroke:#1f77b4;" x="200.350544" xlink:href="#m6f31eae019" y="140.434075"/>
     <use style="fill:#1f77b4;stroke:#1f77b4;" x="201.220931" xlink:href="#m6f31eae019" y="73.205051"/>
     <use style="fill:#1f77b4;stroke:#1f77b4;" x="202.091319" xlink:href="#m6f31eae019" y="101.733757"/>
     <use style="fill:#1f77b4;stroke:#1f77b4;" x="202.961706" xlink:href="#m6f31eae019" y="65.006498"/>
     <use style="fill:#1f77b4;stroke:#1f77b4;" x="203.832094" xlink:href="#m6f31eae019" y="54.825524"/>
     <use style="fill:#1f77b4;stroke:#1f77b4;" x="204.702481" xlink:href="#m6f31eae019" y="31.734036"/>
     <use style="fill:#1f77b4;stroke:#1f77b4;" x="205.572869" xlink:href="#m6f31eae019" y="65.092931"/>
     <use style="fill:#1f77b4;stroke:#1f77b4;" x="206.443256" xlink:href="#m6f31eae019" y="53.592377"/>
     <use style="fill:#1f77b4;stroke:#1f77b4;" x="207.313644" xlink:href="#m6f31eae019" y="32.881636"/>
     <use style="fill:#1f77b4;stroke:#1f77b4;" x="208.184031" xlink:href="#m6f31eae019" y="67.953257"/>
     <use style="fill:#1f77b4;stroke:#1f77b4;" x="209.054419" xlink:href="#m6f31eae019" y="80.304346"/>
     <use style="fill:#1f77b4;stroke:#1f77b4;" x="209.924806" xlink:href="#m6f31eae019" y="62.398287"/>
     <use style="fill:#1f77b4;stroke:#1f77b4;" x="210.795194" xlink:href="#m6f31eae019" y="50.87907"/>
     <use style="fill:#1f77b4;stroke:#1f77b4;" x="211.665581" xlink:href="#m6f31eae019" y="55.801623"/>
     <use style="fill:#1f77b4;stroke:#1f77b4;" x="212.535969" xlink:href="#m6f31eae019" y="36.292266"/>
     <use style="fill:#1f77b4;stroke:#1f77b4;" x="213.406356" xlink:href="#m6f31eae019" y="76.616651"/>
     <use style="fill:#1f77b4;stroke:#1f77b4;" x="214.276744" xlink:href="#m6f31eae019" y="131.885045"/>
     <use style="fill:#1f77b4;stroke:#1f77b4;" x="215.147131" xlink:href="#m6f31eae019" y="68.431816"/>
     <use style="fill:#1f77b4;stroke:#1f77b4;" x="216.017519" xlink:href="#m6f31eae019" y="67.286519"/>
     <use style="fill:#1f77b4;stroke:#1f77b4;" x="216.887906" xlink:href="#m6f31eae019" y="58.812827"/>
     <use style="fill:#1f77b4;stroke:#1f77b4;" x="217.758294" xlink:href="#m6f31eae019" y="40.402751"/>
     <use style="fill:#1f77b4;stroke:#1f77b4;" x="218.628681" xlink:href="#m6f31eae019" y="87.049608"/>
     <use style="fill:#1f77b4;stroke:#1f77b4;" x="219.499069" xlink:href="#m6f31eae019" y="107.836191"/>
     <use style="fill:#1f77b4;stroke:#1f77b4;" x="220.369456" xlink:href="#m6f31eae019" y="82.631942"/>
     <use style="fill:#1f77b4;stroke:#1f77b4;" x="221.239844" xlink:href="#m6f31eae019" y="137.45687"/>
     <use style="fill:#1f77b4;stroke:#1f77b4;" x="222.110232" xlink:href="#m6f31eae019" y="76.194276"/>
     <use style="fill:#1f77b4;stroke:#1f77b4;" x="222.980619" xlink:href="#m6f31eae019" y="124.489592"/>
     <use style="fill:#1f77b4;stroke:#1f77b4;" x="223.851007" xlink:href="#m6f31eae019" y="67.901883"/>
     <use style="fill:#1f77b4;stroke:#1f77b4;" x="224.721394" xlink:href="#m6f31eae019" y="65.147419"/>
     <use style="fill:#1f77b4;stroke:#1f77b4;" x="225.591782" xlink:href="#m6f31eae019" y="58.398101"/>
     <use style="fill:#1f77b4;stroke:#1f77b4;" x="226.462169" xlink:href="#m6f31eae019" y="39.748873"/>
     <use style="fill:#1f77b4;stroke:#1f77b4;" x="227.332557" xlink:href="#m6f31eae019" y="84.599647"/>
     <use style="fill:#1f77b4;stroke:#1f77b4;" x="228.202944" xlink:href="#m6f31eae019" y="118.26655"/>
     <use style="fill:#1f77b4;stroke:#1f77b4;" x="229.073332" xlink:href="#m6f31eae019" y="79.090377"/>
     <use style="fill:#1f77b4;stroke:#1f77b4;" x="229.943719" xlink:href="#m6f31eae019" y="195.587356"/>
     <use style="fill:#1f77b4;stroke:#1f77b4;" x="230.814107" xlink:href="#m6f31eae019" y="71.413294"/>
     <use style="fill:#1f77b4;stroke:#1f77b4;" x="231.684494" xlink:href="#m6f31eae019" y="82.68886"/>
     <use style="fill:#1f77b4;stroke:#1f77b4;" x="232.554882" xlink:href="#m6f31eae019" y="61.808428"/>
     <use style="fill:#1f77b4;stroke:#1f77b4;" x="233.425269" xlink:href="#m6f31eae019" y="46.090842"/>
     <use style="fill:#1f77b4;stroke:#1f77b4;" x="234.295657" xlink:href="#m6f31eae019" y="91.917073"/>
     <use style="fill:#1f77b4;stroke:#1f77b4;" x="235.166044" xlink:href="#m6f31eae019" y="62.061422"/>
     <use style="fill:#1f77b4;stroke:#1f77b4;" x="236.036432" xlink:href="#m6f31eae019" y="49.030749"/>
     <use style="fill:#1f77b4;stroke:#1f77b4;" x="236.906819" xlink:href="#m6f31eae019" y="44.735835"/>
     <use style="fill:#1f77b4;stroke:#1f77b4;" x="237.777207" xlink:href="#m6f31eae019" y="87.649137"/>
     <use style="fill:#1f77b4;stroke:#1f77b4;" x="238.647594" xlink:href="#m6f31eae019" y="126.303618"/>
     <use style="fill:#1f77b4;stroke:#1f77b4;" x="239.517982" xlink:href="#m6f31eae019" y="72.420542"/>
     <use style="fill:#1f77b4;stroke:#1f77b4;" x="240.388369" xlink:href="#m6f31eae019" y="72.589627"/>
     <use style="fill:#1f77b4;stroke:#1f77b4;" x="241.258757" xlink:href="#m6f31eae019" y="60.164008"/>
     <use style="fill:#1f77b4;stroke:#1f77b4;" x="242.129145" xlink:href="#m6f31eae019" y="43.298422"/>
     <use style="fill:#1f77b4;stroke:#1f77b4;" x="242.999532" xlink:href="#m6f31eae019" y="130.286593"/>
     <use style="fill:#1f77b4;stroke:#1f77b4;" x="243.86992" xlink:href="#m6f31eae019" y="73.861245"/>
     <use style="fill:#1f77b4;stroke:#1f77b4;" x="244.740307" xlink:href="#m6f31eae019" y="98.709458"/>
     <use style="fill:#1f77b4;stroke:#1f77b4;" x="245.610695" xlink:href="#m6f31eae019" y="64.214507"/>
     <use style="fill:#1f77b4;stroke:#1f77b4;" x="246.481082" xlink:href="#m6f31eae019" y="51.442883"/>
     <use style="fill:#1f77b4;stroke:#1f77b4;" x="247.35147" xlink:href="#m6f31eae019" y="37.550918"/>
     <use style="fill:#1f77b4;stroke:#1f77b4;" x="248.221857" xlink:href="#m6f31eae019" y="72.949019"/>
     <use style="fill:#1f77b4;stroke:#1f77b4;" x="249.092245" xlink:href="#m6f31eae019" y="129.210424"/>
     <use style="fill:#1f77b4;stroke:#1f77b4;" x="249.962632" xlink:href="#m6f31eae019" y="69.026411"/>
     <use style="fill:#1f77b4;stroke:#1f77b4;" x="250.83302" xlink:href="#m6f31eae019" y="77.051167"/>
     <use style="fill:#1f77b4;stroke:#1f77b4;" x="251.703407" xlink:href="#m6f31eae019" y="61.138117"/>
     <use style="fill:#1f77b4;stroke:#1f77b4;" x="252.573795" xlink:href="#m6f31eae019" y="45.552918"/>
     <use style="fill:#1f77b4;stroke:#1f77b4;" x="253.444182" xlink:href="#m6f31eae019" y="87.43085"/>
     <use style="fill:#1f77b4;stroke:#1f77b4;" x="254.31457" xlink:href="#m6f31eae019" y="60.299245"/>
     <use style="fill:#1f77b4;stroke:#1f77b4;" x="255.184957" xlink:href="#m6f31eae019" y="42.43652"/>
     <use style="fill:#1f77b4;stroke:#1f77b4;" x="256.055345" xlink:href="#m6f31eae019" y="95.19544"/>
     <use style="fill:#1f77b4;stroke:#1f77b4;" x="256.925732" xlink:href="#m6f31eae019" y="94.630468"/>
     <use style="fill:#1f77b4;stroke:#1f77b4;" x="257.79612" xlink:href="#m6f31eae019" y="89.101645"/>
     <use style="fill:#1f77b4;stroke:#1f77b4;" x="258.666507" xlink:href="#m6f31eae019" y="109.269859"/>
     <use style="fill:#1f77b4;stroke:#1f77b4;" x="259.536895" xlink:href="#m6f31eae019" y="82.32488"/>
     <use style="fill:#1f77b4;stroke:#1f77b4;" x="260.407282" xlink:href="#m6f31eae019" y="144.904001"/>
     <use style="fill:#1f77b4;stroke:#1f77b4;" x="261.27767" xlink:href="#m6f31eae019" y="75.262891"/>
     <use style="fill:#1f77b4;stroke:#1f77b4;" x="262.148058" xlink:href="#m6f31eae019" y="112.363961"/>
     <use style="fill:#1f77b4;stroke:#1f77b4;" x="263.018445" xlink:href="#m6f31eae019" y="66.47424"/>
     <use style="fill:#1f77b4;stroke:#1f77b4;" x="263.888833" xlink:href="#m6f31eae019" y="59.330093"/>
     <use style="fill:#1f77b4;stroke:#1f77b4;" x="264.75922" xlink:href="#m6f31eae019" y="57.214954"/>
     <use style="fill:#1f77b4;stroke:#1f77b4;" x="265.629608" xlink:href="#m6f31eae019" y="37.963407"/>
     <use style="fill:#1f77b4;stroke:#1f77b4;" x="266.499995" xlink:href="#m6f31eae019" y="79.596865"/>
     <use style="fill:#1f77b4;stroke:#1f77b4;" x="267.370383" xlink:href="#m6f31eae019" y="261.216"/>
     <use style="fill:#1f77b4;stroke:#1f77b4;" x="268.24077" xlink:href="#m6f31eae019" y="71.790079"/>
     <use style="fill:#1f77b4;stroke:#1f77b4;" x="269.111158" xlink:href="#m6f31eae019" y="83.793156"/>
     <use style="fill:#1f77b4;stroke:#1f77b4;" x="269.981545" xlink:href="#m6f31eae019" y="61.936843"/>
     <use style="fill:#1f77b4;stroke:#1f77b4;" x="270.851933" xlink:href="#m6f31eae019" y="46.230409"/>
     <use style="fill:#1f77b4;stroke:#1f77b4;" x="271.72232" xlink:href="#m6f31eae019" y="90.093905"/>
     <use style="fill:#1f77b4;stroke:#1f77b4;" x="272.592708" xlink:href="#m6f31eae019" y="61.936099"/>
     <use style="fill:#1f77b4;stroke:#1f77b4;" x="273.463095" xlink:href="#m6f31eae019" y="49.244443"/>
     <use style="fill:#1f77b4;stroke:#1f77b4;" x="274.333483" xlink:href="#m6f31eae019" y="45.370982"/>
     <use style="fill:#1f77b4;stroke:#1f77b4;" x="275.20387" xlink:href="#m6f31eae019" y="102.113168"/>
     <use style="fill:#1f77b4;stroke:#1f77b4;" x="276.074258" xlink:href="#m6f31eae019" y="100.327845"/>
     <use style="fill:#1f77b4;stroke:#1f77b4;" x="276.944645" xlink:href="#m6f31eae019" y="76.878535"/>
     <use style="fill:#1f77b4;stroke:#1f77b4;" x="277.815033" xlink:href="#m6f31eae019" y="87.048482"/>
     <use style="fill:#1f77b4;stroke:#1f77b4;" x="278.68542" xlink:href="#m6f31eae019" y="61.711256"/>
     <use style="fill:#1f77b4;stroke:#1f77b4;" x="279.555808" xlink:href="#m6f31eae019" y="45.075207"/>
     <use style="fill:#1f77b4;stroke:#1f77b4;" x="280.426195" xlink:href="#m6f31eae019" y="185.347371"/>
     <use style="fill:#1f77b4;stroke:#1f77b4;" x="281.296583" xlink:href="#m6f31eae019" y="70.302429"/>
     <use style="fill:#1f77b4;stroke:#1f77b4;" x="282.166971" xlink:href="#m6f31eae019" y="93.568569"/>
     <use style="fill:#1f77b4;stroke:#1f77b4;" x="283.037358" xlink:href="#m6f31eae019" y="64.401128"/>
     <use style="fill:#1f77b4;stroke:#1f77b4;" x="283.907746" xlink:href="#m6f31eae019" y="55.453337"/>
     <use style="fill:#1f77b4;stroke:#1f77b4;" x="284.778133" xlink:href="#m6f31eae019" y="56.623322"/>
     <use style="fill:#1f77b4;stroke:#1f77b4;" x="285.648521" xlink:href="#m6f31eae019" y="37.32152"/>
     <use style="fill:#1f77b4;stroke:#1f77b4;" x="286.518908" xlink:href="#m6f31eae019" y="78.489938"/>
     <use style="fill:#1f77b4;stroke:#1f77b4;" x="287.389296" xlink:href="#m6f31eae019" y="180.599774"/>
     <use style="fill:#1f77b4;stroke:#1f77b4;" x="288.259683" xlink:href="#m6f31eae019" y="70.873044"/>
     <use style="fill:#1f77b4;stroke:#1f77b4;" x="289.130071" xlink:href="#m6f31eae019" y="79.411352"/>
     <use style="fill:#1f77b4;stroke:#1f77b4;" x="290.000458" xlink:href="#m6f31eae019" y="61.176784"/>
     <use style="fill:#1f77b4;stroke:#1f77b4;" x="290.870846" xlink:href="#m6f31eae019" y="44.725779"/>
     <use style="fill:#1f77b4;stroke:#1f77b4;" x="291.741233" xlink:href="#m6f31eae019" y="234.956072"/>
     <use style="fill:#1f77b4;stroke:#1f77b4;" x="292.611621" xlink:href="#m6f31eae019" y="70.312089"/>
     <use style="fill:#1f77b4;stroke:#1f77b4;" x="293.482008" xlink:href="#m6f31eae019" y="87.717187"/>
     <use style="fill:#1f77b4;stroke:#1f77b4;" x="294.352396" xlink:href="#m6f31eae019" y="63.071883"/>
     <use style="fill:#1f77b4;stroke:#1f77b4;" x="295.222783" xlink:href="#m6f31eae019" y="50.369213"/>
     <use style="fill:#1f77b4;stroke:#1f77b4;" x="296.093171" xlink:href="#m6f31eae019" y="40.032677"/>
     <use style="fill:#1f77b4;stroke:#1f77b4;" x="296.963558" xlink:href="#m6f31eae019" y="73.456714"/>
     <use style="fill:#1f77b4;stroke:#1f77b4;" x="297.833946" xlink:href="#m6f31eae019" y="89.323389"/>
     <use style="fill:#1f77b4;stroke:#1f77b4;" x="298.704333" xlink:href="#m6f31eae019" y="61.758922"/>
     <use style="fill:#1f77b4;stroke:#1f77b4;" x="299.574721" xlink:href="#m6f31eae019" y="44.655553"/>
     <use style="fill:#1f77b4;stroke:#1f77b4;" x="300.445108" xlink:href="#m6f31eae019" y="138.113059"/>
     <use style="fill:#1f77b4;stroke:#1f77b4;" x="301.315496" xlink:href="#m6f31eae019" y="76.323811"/>
     <use style="fill:#1f77b4;stroke:#1f77b4;" x="302.185883" xlink:href="#m6f31eae019" y="161.838246"/>
     <use style="fill:#1f77b4;stroke:#1f77b4;" x="303.056271" xlink:href="#m6f31eae019" y="75.78085"/>
     <use style="fill:#1f77b4;stroke:#1f77b4;" x="303.926659" xlink:href="#m6f31eae019" y="152.144626"/>
     <use style="fill:#1f77b4;stroke:#1f77b4;" x="304.797046" xlink:href="#m6f31eae019" y="70.848815"/>
     <use style="fill:#1f77b4;stroke:#1f77b4;" x="305.667434" xlink:href="#m6f31eae019" y="85.605815"/>
     <use style="fill:#1f77b4;stroke:#1f77b4;" x="306.537821" xlink:href="#m6f31eae019" y="62.675074"/>
     <use style="fill:#1f77b4;stroke:#1f77b4;" x="307.408209" xlink:href="#m6f31eae019" y="48.951467"/>
     <use style="fill:#1f77b4;stroke:#1f77b4;" x="308.278596" xlink:href="#m6f31eae019" y="45.835839"/>
     <use style="fill:#1f77b4;stroke:#1f77b4;" x="309.148984" xlink:href="#m6f31eae019" y="103.288024"/>
     <use style="fill:#1f77b4;stroke:#1f77b4;" x="310.019371" xlink:href="#m6f31eae019" y="84.446122"/>
     <use style="fill:#1f77b4;stroke:#1f77b4;" x="310.889759" xlink:href="#m6f31eae019" y="97.686653"/>
     <use style="fill:#1f77b4;stroke:#1f77b4;" x="311.760146" xlink:href="#m6f31eae019" y="96.322576"/>
     <use style="fill:#1f77b4;stroke:#1f77b4;" x="312.630534" xlink:href="#m6f31eae019" y="88.960903"/>
     <use style="fill:#1f77b4;stroke:#1f77b4;" x="313.500921" xlink:href="#m6f31eae019" y="109.637311"/>
     <use style="fill:#1f77b4;stroke:#1f77b4;" x="314.371309" xlink:href="#m6f31eae019" y="82.329232"/>
     <use style="fill:#1f77b4;stroke:#1f77b4;" x="315.241696" xlink:href="#m6f31eae019" y="143.797839"/>
     <use style="fill:#1f77b4;stroke:#1f77b4;" x="316.112084" xlink:href="#m6f31eae019" y="75.417763"/>
     <use style="fill:#1f77b4;stroke:#1f77b4;" x="316.982471" xlink:href="#m6f31eae019" y="114.42295"/>
     <use style="fill:#1f77b4;stroke:#1f77b4;" x="317.852859" xlink:href="#m6f31eae019" y="66.746768"/>
     <use style="fill:#1f77b4;stroke:#1f77b4;" x="318.723246" xlink:href="#m6f31eae019" y="60.395967"/>
     <use style="fill:#1f77b4;stroke:#1f77b4;" x="319.593634" xlink:href="#m6f31eae019" y="57.42994"/>
     <use style="fill:#1f77b4;stroke:#1f77b4;" x="320.464021" xlink:href="#m6f31eae019" y="38.271437"/>
     <use style="fill:#1f77b4;stroke:#1f77b4;" x="321.334409" xlink:href="#m6f31eae019" y="80.313531"/>
     <use style="fill:#1f77b4;stroke:#1f77b4;" x="322.204796" xlink:href="#m6f31eae019" y="178.726914"/>
     <use style="fill:#1f77b4;stroke:#1f77b4;" x="323.075184" xlink:href="#m6f31eae019" y="72.801678"/>
     <use style="fill:#1f77b4;stroke:#1f77b4;" x="323.945572" xlink:href="#m6f31eae019" y="90.442086"/>
     <use style="fill:#1f77b4;stroke:#1f77b4;" x="324.815959" xlink:href="#m6f31eae019" y="63.114162"/>
     <use style="fill:#1f77b4;stroke:#1f77b4;" x="325.686347" xlink:href="#m6f31eae019" y="48.978663"/>
     <use style="fill:#1f77b4;stroke:#1f77b4;" x="326.556734" xlink:href="#m6f31eae019" y="48.371117"/>
     <use style="fill:#1f77b4;stroke:#1f77b4;" x="327.427122" xlink:href="#m6f31eae019" y="52.527872"/>
     <use style="fill:#1f77b4;stroke:#1f77b4;" x="328.297509" xlink:href="#m6f31eae019" y="38.627638"/>
     <use style="fill:#1f77b4;stroke:#1f77b4;" x="329.167897" xlink:href="#m6f31eae019" y="54.521263"/>
     <use style="fill:#1f77b4;stroke:#1f77b4;" x="330.038284" xlink:href="#m6f31eae019" y="39.279246"/>
     <use style="fill:#1f77b4;stroke:#1f77b4;" x="330.908672" xlink:href="#m6f31eae019" y="54.129158"/>
     <use style="fill:#1f77b4;stroke:#1f77b4;" x="331.779059" xlink:href="#m6f31eae019" y="34.849596"/>
     <use style="fill:#1f77b4;stroke:#1f77b4;" x="332.649447" xlink:href="#m6f31eae019" y="75.779249"/>
     <use style="fill:#1f77b4;stroke:#1f77b4;" x="333.519834" xlink:href="#m6f31eae019" y="158.966588"/>
     <use style="fill:#1f77b4;stroke:#1f77b4;" x="334.390222" xlink:href="#m6f31eae019" y="71.401352"/>
     <use style="fill:#1f77b4;stroke:#1f77b4;" x="335.260609" xlink:href="#m6f31eae019" y="91.650355"/>
     <use style="fill:#1f77b4;stroke:#1f77b4;" x="336.130997" xlink:href="#m6f31eae019" y="63.871213"/>
     <use style="fill:#1f77b4;stroke:#1f77b4;" x="337.001384" xlink:href="#m6f31eae019" y="52.623205"/>
     <use style="fill:#1f77b4;stroke:#1f77b4;" x="337.871772" xlink:href="#m6f31eae019" y="36.325079"/>
     <use style="fill:#1f77b4;stroke:#1f77b4;" x="338.742159" xlink:href="#m6f31eae019" y="68.958991"/>
     <use style="fill:#1f77b4;stroke:#1f77b4;" x="339.612547" xlink:href="#m6f31eae019" y="64.544198"/>
     <use style="fill:#1f77b4;stroke:#1f77b4;" x="340.482934" xlink:href="#m6f31eae019" y="19.296"/>
     <use style="fill:#1f77b4;stroke:#1f77b4;" x="341.353322" xlink:href="#m6f31eae019" y="59.772072"/>
     <use style="fill:#1f77b4;stroke:#1f77b4;" x="342.223709" xlink:href="#m6f31eae019" y="43.503372"/>
     <use style="fill:#1f77b4;stroke:#1f77b4;" x="343.094097" xlink:href="#m6f31eae019" y="115.69902"/>
     <use style="fill:#1f77b4;stroke:#1f77b4;" x="343.964485" xlink:href="#m6f31eae019" y="63.376173"/>
     <use style="fill:#1f77b4;stroke:#1f77b4;" x="344.834872" xlink:href="#m6f31eae019" y="47.092436"/>
     <use style="fill:#1f77b4;stroke:#1f77b4;" x="345.70526" xlink:href="#m6f31eae019" y="87.509353"/>
     <use style="fill:#1f77b4;stroke:#1f77b4;" x="346.575647" xlink:href="#m6f31eae019" y="63.600766"/>
     <use style="fill:#1f77b4;stroke:#1f77b4;" x="347.446035" xlink:href="#m6f31eae019" y="63.996012"/>
     <use style="fill:#1f77b4;stroke:#1f77b4;" x="348.316422" xlink:href="#m6f31eae019" y="59.249833"/>
     <use style="fill:#1f77b4;stroke:#1f77b4;" x="349.18681" xlink:href="#m6f31eae019" y="43.46239"/>
     <use style="fill:#1f77b4;stroke:#1f77b4;" x="350.057197" xlink:href="#m6f31eae019" y="87.855321"/>
     <use style="fill:#1f77b4;stroke:#1f77b4;" x="350.927585" xlink:href="#m6f31eae019" y="50.269363"/>
     <use style="fill:#1f77b4;stroke:#1f77b4;" x="351.797972" xlink:href="#m6f31eae019" y="30.099251"/>
     <use style="fill:#1f77b4;stroke:#1f77b4;" x="352.66836" xlink:href="#m6f31eae019" y="68.881227"/>
     <use style="fill:#1f77b4;stroke:#1f77b4;" x="353.538747" xlink:href="#m6f31eae019" y="70.090318"/>
     <use style="fill:#1f77b4;stroke:#1f77b4;" x="354.409135" xlink:href="#m6f31eae019" y="59.502981"/>
     <use style="fill:#1f77b4;stroke:#1f77b4;" x="355.279522" xlink:href="#m6f31eae019" y="41.734798"/>
     <use style="fill:#1f77b4;stroke:#1f77b4;" x="356.14991" xlink:href="#m6f31eae019" y="95.06101"/>
     <use style="fill:#1f77b4;stroke:#1f77b4;" x="357.020297" xlink:href="#m6f31eae019" y="91.102324"/>
     <use style="fill:#1f77b4;stroke:#1f77b4;" x="357.890685" xlink:href="#m6f31eae019" y="96.680236"/>
     <use style="fill:#1f77b4;stroke:#1f77b4;" x="358.761072" xlink:href="#m6f31eae019" y="92.735295"/>
     <use style="fill:#1f77b4;stroke:#1f77b4;" x="359.63146" xlink:href="#m6f31eae019" y="96.474772"/>
     <use style="fill:#1f77b4;stroke:#1f77b4;" x="360.501847" xlink:href="#m6f31eae019" y="92.820841"/>
     <use style="fill:#1f77b4;stroke:#1f77b4;" x="361.372235" xlink:href="#m6f31eae019" y="96.77775"/>
     <use style="fill:#1f77b4;stroke:#1f77b4;" x="362.242622" xlink:href="#m6f31eae019" y="92.324608"/>
     <use style="fill:#1f77b4;stroke:#1f77b4;" x="363.11301" xlink:href="#m6f31eae019" y="97.70133"/>
     <use style="fill:#1f77b4;stroke:#1f77b4;" x="363.983398" xlink:href="#m6f31eae019" y="91.311878"/>
     <use style="fill:#1f77b4;stroke:#1f77b4;" x="364.853785" xlink:href="#m6f31eae019" y="99.461295"/>
     <use style="fill:#1f77b4;stroke:#1f77b4;" x="365.724173" xlink:href="#m6f31eae019" y="89.688353"/>
     <use style="fill:#1f77b4;stroke:#1f77b4;" x="366.59456" xlink:href="#m6f31eae019" y="102.649096"/>
     <use style="fill:#1f77b4;stroke:#1f77b4;" x="367.464948" xlink:href="#m6f31eae019" y="87.274917"/>
     <use style="fill:#1f77b4;stroke:#1f77b4;" x="368.335335" xlink:href="#m6f31eae019" y="108.801028"/>
     <use style="fill:#1f77b4;stroke:#1f77b4;" x="369.205723" xlink:href="#m6f31eae019" y="83.830783"/>
     <use style="fill:#1f77b4;stroke:#1f77b4;" x="370.07611" xlink:href="#m6f31eae019" y="123.366057"/>
     <use style="fill:#1f77b4;stroke:#1f77b4;" x="370.946498" xlink:href="#m6f31eae019" y="79.039722"/>
     <use style="fill:#1f77b4;stroke:#1f77b4;" x="371.179815" xlink:href="#m6f31eae019" y="22383.514"/>
    </g>
   </g>
   <g id="line2d_38">
    <path clip-path="url(#pc1f837a3f1)" d="M 91.552103 91.261455 
L 93.292878 84.174488 
L 95.033653 77.145316 
L 96.774428 68.767652 
" style="fill:none;stroke:#2ca02c;stroke-dasharray:1.5,2.475;stroke-dashoffset:0;stroke-width:1.5;"/>
    <defs>
     <path d="M -3 3 
L 3 -3 
M -3 -3 
L 3 3 
" id="mcefffe2f05" style="stroke:#2ca02c;"/>
    </defs>
    <g clip-path="url(#pc1f837a3f1)">
     <use style="fill:#2ca02c;stroke:#2ca02c;" x="91.552103" xlink:href="#mcefffe2f05" y="91.261455"/>
     <use style="fill:#2ca02c;stroke:#2ca02c;" x="93.292878" xlink:href="#mcefffe2f05" y="84.174488"/>
     <use style="fill:#2ca02c;stroke:#2ca02c;" x="95.033653" xlink:href="#mcefffe2f05" y="77.145316"/>
     <use style="fill:#2ca02c;stroke:#2ca02c;" x="96.774428" xlink:href="#mcefffe2f05" y="68.767652"/>
    </g>
   </g>
   <g id="line2d_39">
    <path clip-path="url(#pc1f837a3f1)" d="M 48.903115 203.178791 
L 96.604976 -1 
L 96.604976 -1 
" style="fill:none;stroke:#000000;stroke-dasharray:5.55,2.4;stroke-dashoffset:0;stroke-width:1.5;"/>
   </g>
   <g id="patch_3">
    <path d="M 31.8 273.312 
L 31.8 7.2 
" style="fill:none;stroke:#000000;stroke-linecap:square;stroke-linejoin:miter;stroke-width:0.8;"/>
   </g>
   <g id="patch_4">
    <path d="M 388.92 273.312 
L 388.92 7.2 
" style="fill:none;stroke:#000000;stroke-linecap:square;stroke-linejoin:miter;stroke-width:0.8;"/>
   </g>
   <g id="patch_5">
    <path d="M 31.8 273.312 
L 388.92 273.312 
" style="fill:none;stroke:#000000;stroke-linecap:square;stroke-linejoin:miter;stroke-width:0.8;"/>
   </g>
   <g id="patch_6">
    <path d="M 31.8 7.2 
L 388.92 7.2 
" style="fill:none;stroke:#000000;stroke-linecap:square;stroke-linejoin:miter;stroke-width:0.8;"/>
   </g>
   <g id="legend_1">
    <g id="patch_7">
     <path d="M 162.817031 268.312 
L 257.902969 268.312 
Q 259.902969 268.312 259.902969 266.312 
L 259.902969 223.25575 
Q 259.902969 221.25575 257.902969 221.25575 
L 162.817031 221.25575 
Q 160.817031 221.25575 160.817031 223.25575 
L 160.817031 266.312 
Q 160.817031 268.312 162.817031 268.312 
z
" style="fill:#ffffff;opacity:0.8;"/>
    </g>
    <g id="line2d_40">
     <path d="M 164.817031 229.354187 
L 184.817031 229.354187 
" style="fill:none;stroke:#1f77b4;stroke-linecap:square;stroke-width:1.5;"/>
    </g>
    <g id="line2d_41">
     <g>
      <use style="fill:#1f77b4;stroke:#1f77b4;" x="174.817031" xlink:href="#m6f31eae019" y="229.354187"/>
     </g>
    </g>
    <g id="text_13">
     <!-- APD$_n$ - APD$_\infty$ -->
     <defs>
      <path d="M 34.1875 63.1875 
L 20.796875 26.90625 
L 47.609375 26.90625 
z
M 28.609375 72.90625 
L 39.796875 72.90625 
L 67.578125 0 
L 57.328125 0 
L 50.6875 18.703125 
L 17.828125 18.703125 
L 11.1875 0 
L 0.78125 0 
z
" id="DejaVuSans-65"/>
      <path d="M 19.671875 64.796875 
L 19.671875 37.40625 
L 32.078125 37.40625 
Q 38.96875 37.40625 42.71875 40.96875 
Q 46.484375 44.53125 46.484375 51.125 
Q 46.484375 57.671875 42.71875 61.234375 
Q 38.96875 64.796875 32.078125 64.796875 
z
M 9.8125 72.90625 
L 32.078125 72.90625 
Q 44.34375 72.90625 50.609375 67.359375 
Q 56.890625 61.8125 56.890625 51.125 
Q 56.890625 40.328125 50.609375 34.8125 
Q 44.34375 29.296875 32.078125 29.296875 
L 19.671875 29.296875 
L 19.671875 0 
L 9.8125 0 
z
" id="DejaVuSans-80"/>
      <path d="M 19.671875 64.796875 
L 19.671875 8.109375 
L 31.59375 8.109375 
Q 46.6875 8.109375 53.6875 14.9375 
Q 60.6875 21.78125 60.6875 36.53125 
Q 60.6875 51.171875 53.6875 57.984375 
Q 46.6875 64.796875 31.59375 64.796875 
z
M 9.8125 72.90625 
L 30.078125 72.90625 
Q 51.265625 72.90625 61.171875 64.09375 
Q 71.09375 55.28125 71.09375 36.53125 
Q 71.09375 17.671875 61.125 8.828125 
Q 51.171875 0 30.078125 0 
L 9.8125 0 
z
" id="DejaVuSans-68"/>
      <path d="M 55.71875 33.015625 
L 49.3125 0 
L 40.28125 0 
L 46.6875 32.671875 
Q 47.125 34.96875 47.359375 36.71875 
Q 47.609375 38.484375 47.609375 39.5 
Q 47.609375 43.609375 45.015625 45.890625 
Q 42.4375 48.1875 37.796875 48.1875 
Q 30.5625 48.1875 25.34375 43.375 
Q 20.125 38.578125 18.5 30.328125 
L 12.5 0 
L 3.515625 0 
L 14.109375 54.6875 
L 23.09375 54.6875 
L 21.296875 46.09375 
Q 25.046875 50.828125 30.3125 53.40625 
Q 35.59375 56 41.40625 56 
Q 48.640625 56 52.609375 52.09375 
Q 56.59375 48.1875 56.59375 41.109375 
Q 56.59375 39.359375 56.375 37.359375 
Q 56.15625 35.359375 55.71875 33.015625 
z
" id="DejaVuSans-Oblique-110"/>
      <path id="DejaVuSans-32"/>
      <path d="M 4.890625 31.390625 
L 31.203125 31.390625 
L 31.203125 23.390625 
L 4.890625 23.390625 
z
" id="DejaVuSans-45"/>
      <path d="M 45.5625 17.046875 
Q 44.046875 18.796875 41.65625 22.90625 
Q 38.375 17.046875 35.5 14.453125 
Q 31.890625 11.328125 26.265625 11.328125 
Q 19.671875 11.328125 15.328125 16.265625 
Q 10.75 21.4375 10.75 29.984375 
Q 10.75 38.1875 15.328125 43.75 
Q 19.4375 48.6875 26.375 48.6875 
Q 29.9375 48.6875 32.5625 47.21875 
Q 35.640625 45.609375 37.75 42.828125 
Q 39.703125 40.328125 41.65625 36.96875 
Q 44.921875 42.828125 47.796875 45.40625 
Q 51.421875 48.53125 57.03125 48.53125 
Q 63.625 48.53125 67.96875 43.609375 
Q 72.5625 38.421875 72.5625 29.890625 
Q 72.5625 21.6875 67.96875 16.109375 
Q 63.875 11.1875 56.9375 11.1875 
Q 53.375 11.1875 50.734375 12.640625 
Q 48.09375 13.96875 45.5625 17.046875 
z
M 25.734375 17.71875 
Q 33.796875 17.71875 38.625 29.4375 
Q 32.421875 42.234375 25.734375 42.234375 
Q 20.84375 42.234375 18.359375 38.71875 
Q 15.671875 34.96875 15.671875 29.984375 
Q 15.671875 24.515625 18.359375 21.140625 
Q 21.09375 17.71875 25.734375 17.71875 
z
M 57.5625 42.140625 
Q 50.296875 42.140625 44.671875 30.421875 
Q 50.828125 17.625 57.5625 17.625 
Q 62.453125 17.625 64.9375 21.140625 
Q 67.625 24.90625 67.625 29.890625 
Q 67.625 35.359375 64.9375 38.71875 
Q 62.203125 42.140625 57.5625 42.140625 
z
" id="DejaVuSans-8734"/>
     </defs>
     <g transform="translate(192.817031 232.854187)scale(0.1 -0.1)">
      <use transform="translate(0 0.09375)" xlink:href="#DejaVuSans-65"/>
      <use transform="translate(68.408203 0.09375)" xlink:href="#DejaVuSans-80"/>
      <use transform="translate(128.710938 0.09375)" xlink:href="#DejaVuSans-68"/>
      <use transform="translate(206.669922 -16.3125)scale(0.7)" xlink:href="#DejaVuSans-Oblique-110"/>
      <use transform="translate(253.769531 0.09375)" xlink:href="#DejaVuSans-32"/>
      <use transform="translate(285.556641 0.09375)" xlink:href="#DejaVuSans-45"/>
      <use transform="translate(321.640625 0.09375)" xlink:href="#DejaVuSans-32"/>
      <use transform="translate(353.427734 0.09375)" xlink:href="#DejaVuSans-65"/>
      <use transform="translate(421.835938 0.09375)" xlink:href="#DejaVuSans-80"/>
      <use transform="translate(482.138672 0.09375)" xlink:href="#DejaVuSans-68"/>
      <use transform="translate(560.097656 -16.3125)scale(0.7)" xlink:href="#DejaVuSans-8734"/>
     </g>
    </g>
    <g id="line2d_42">
     <path d="M 164.817031 244.032312 
L 184.817031 244.032312 
" style="fill:none;stroke:#2ca02c;stroke-dasharray:1.5,2.475;stroke-dashoffset:0;stroke-width:1.5;"/>
    </g>
    <g id="line2d_43">
     <g>
      <use style="fill:#2ca02c;stroke:#2ca02c;" x="174.817031" xlink:href="#mcefffe2f05" y="244.032312"/>
     </g>
    </g>
    <g id="text_14">
     <!-- linear region -->
     <defs>
      <path d="M 9.421875 75.984375 
L 18.40625 75.984375 
L 18.40625 0 
L 9.421875 0 
z
" id="DejaVuSans-108"/>
      <path d="M 9.421875 54.6875 
L 18.40625 54.6875 
L 18.40625 0 
L 9.421875 0 
z
M 9.421875 75.984375 
L 18.40625 75.984375 
L 18.40625 64.59375 
L 9.421875 64.59375 
z
" id="DejaVuSans-105"/>
      <path d="M 54.890625 33.015625 
L 54.890625 0 
L 45.90625 0 
L 45.90625 32.71875 
Q 45.90625 40.484375 42.875 44.328125 
Q 39.84375 48.1875 33.796875 48.1875 
Q 26.515625 48.1875 22.3125 43.546875 
Q 18.109375 38.921875 18.109375 30.90625 
L 18.109375 0 
L 9.078125 0 
L 9.078125 54.6875 
L 18.109375 54.6875 
L 18.109375 46.1875 
Q 21.34375 51.125 25.703125 53.5625 
Q 30.078125 56 35.796875 56 
Q 45.21875 56 50.046875 50.171875 
Q 54.890625 44.34375 54.890625 33.015625 
z
" id="DejaVuSans-110"/>
      <path d="M 56.203125 29.59375 
L 56.203125 25.203125 
L 14.890625 25.203125 
Q 15.484375 15.921875 20.484375 11.0625 
Q 25.484375 6.203125 34.421875 6.203125 
Q 39.59375 6.203125 44.453125 7.46875 
Q 49.3125 8.734375 54.109375 11.28125 
L 54.109375 2.78125 
Q 49.265625 0.734375 44.1875 -0.34375 
Q 39.109375 -1.421875 33.890625 -1.421875 
Q 20.796875 -1.421875 13.15625 6.1875 
Q 5.515625 13.8125 5.515625 26.8125 
Q 5.515625 40.234375 12.765625 48.109375 
Q 20.015625 56 32.328125 56 
Q 43.359375 56 49.78125 48.890625 
Q 56.203125 41.796875 56.203125 29.59375 
z
M 47.21875 32.234375 
Q 47.125 39.59375 43.09375 43.984375 
Q 39.0625 48.390625 32.421875 48.390625 
Q 24.90625 48.390625 20.390625 44.140625 
Q 15.875 39.890625 15.1875 32.171875 
z
" id="DejaVuSans-101"/>
      <path d="M 34.28125 27.484375 
Q 23.390625 27.484375 19.1875 25 
Q 14.984375 22.515625 14.984375 16.5 
Q 14.984375 11.71875 18.140625 8.90625 
Q 21.296875 6.109375 26.703125 6.109375 
Q 34.1875 6.109375 38.703125 11.40625 
Q 43.21875 16.703125 43.21875 25.484375 
L 43.21875 27.484375 
z
M 52.203125 31.203125 
L 52.203125 0 
L 43.21875 0 
L 43.21875 8.296875 
Q 40.140625 3.328125 35.546875 0.953125 
Q 30.953125 -1.421875 24.3125 -1.421875 
Q 15.921875 -1.421875 10.953125 3.296875 
Q 6 8.015625 6 15.921875 
Q 6 25.140625 12.171875 29.828125 
Q 18.359375 34.515625 30.609375 34.515625 
L 43.21875 34.515625 
L 43.21875 35.40625 
Q 43.21875 41.609375 39.140625 45 
Q 35.0625 48.390625 27.6875 48.390625 
Q 23 48.390625 18.546875 47.265625 
Q 14.109375 46.140625 10.015625 43.890625 
L 10.015625 52.203125 
Q 14.9375 54.109375 19.578125 55.046875 
Q 24.21875 56 28.609375 56 
Q 40.484375 56 46.34375 49.84375 
Q 52.203125 43.703125 52.203125 31.203125 
z
" id="DejaVuSans-97"/>
      <path d="M 41.109375 46.296875 
Q 39.59375 47.171875 37.8125 47.578125 
Q 36.03125 48 33.890625 48 
Q 26.265625 48 22.1875 43.046875 
Q 18.109375 38.09375 18.109375 28.8125 
L 18.109375 0 
L 9.078125 0 
L 9.078125 54.6875 
L 18.109375 54.6875 
L 18.109375 46.1875 
Q 20.953125 51.171875 25.484375 53.578125 
Q 30.03125 56 36.53125 56 
Q 37.453125 56 38.578125 55.875 
Q 39.703125 55.765625 41.0625 55.515625 
z
" id="DejaVuSans-114"/>
      <path d="M 45.40625 27.984375 
Q 45.40625 37.75 41.375 43.109375 
Q 37.359375 48.484375 30.078125 48.484375 
Q 22.859375 48.484375 18.828125 43.109375 
Q 14.796875 37.75 14.796875 27.984375 
Q 14.796875 18.265625 18.828125 12.890625 
Q 22.859375 7.515625 30.078125 7.515625 
Q 37.359375 7.515625 41.375 12.890625 
Q 45.40625 18.265625 45.40625 27.984375 
z
M 54.390625 6.78125 
Q 54.390625 -7.171875 48.1875 -13.984375 
Q 42 -20.796875 29.203125 -20.796875 
Q 24.46875 -20.796875 20.265625 -20.09375 
Q 16.0625 -19.390625 12.109375 -17.921875 
L 12.109375 -9.1875 
Q 16.0625 -11.328125 19.921875 -12.34375 
Q 23.78125 -13.375 27.78125 -13.375 
Q 36.625 -13.375 41.015625 -8.765625 
Q 45.40625 -4.15625 45.40625 5.171875 
L 45.40625 9.625 
Q 42.625 4.78125 38.28125 2.390625 
Q 33.9375 0 27.875 0 
Q 17.828125 0 11.671875 7.65625 
Q 5.515625 15.328125 5.515625 27.984375 
Q 5.515625 40.671875 11.671875 48.328125 
Q 17.828125 56 27.875 56 
Q 33.9375 56 38.28125 53.609375 
Q 42.625 51.21875 45.40625 46.390625 
L 45.40625 54.6875 
L 54.390625 54.6875 
z
" id="DejaVuSans-103"/>
      <path d="M 30.609375 48.390625 
Q 23.390625 48.390625 19.1875 42.75 
Q 14.984375 37.109375 14.984375 27.296875 
Q 14.984375 17.484375 19.15625 11.84375 
Q 23.34375 6.203125 30.609375 6.203125 
Q 37.796875 6.203125 41.984375 11.859375 
Q 46.1875 17.53125 46.1875 27.296875 
Q 46.1875 37.015625 41.984375 42.703125 
Q 37.796875 48.390625 30.609375 48.390625 
z
M 30.609375 56 
Q 42.328125 56 49.015625 48.375 
Q 55.71875 40.765625 55.71875 27.296875 
Q 55.71875 13.875 49.015625 6.21875 
Q 42.328125 -1.421875 30.609375 -1.421875 
Q 18.84375 -1.421875 12.171875 6.21875 
Q 5.515625 13.875 5.515625 27.296875 
Q 5.515625 40.765625 12.171875 48.375 
Q 18.84375 56 30.609375 56 
z
" id="DejaVuSans-111"/>
     </defs>
     <g transform="translate(192.817031 247.532312)scale(0.1 -0.1)">
      <use xlink:href="#DejaVuSans-108"/>
      <use x="27.783203" xlink:href="#DejaVuSans-105"/>
      <use x="55.566406" xlink:href="#DejaVuSans-110"/>
      <use x="118.945312" xlink:href="#DejaVuSans-101"/>
      <use x="180.46875" xlink:href="#DejaVuSans-97"/>
      <use x="241.748047" xlink:href="#DejaVuSans-114"/>
      <use x="282.861328" xlink:href="#DejaVuSans-32"/>
      <use x="314.648438" xlink:href="#DejaVuSans-114"/>
      <use x="353.511719" xlink:href="#DejaVuSans-101"/>
      <use x="415.035156" xlink:href="#DejaVuSans-103"/>
      <use x="478.511719" xlink:href="#DejaVuSans-105"/>
      <use x="506.294922" xlink:href="#DejaVuSans-111"/>
      <use x="567.476562" xlink:href="#DejaVuSans-110"/>
     </g>
    </g>
    <g id="line2d_44">
     <path d="M 164.817031 258.712 
L 184.817031 258.712 
" style="fill:none;stroke:#000000;stroke-dasharray:5.55,2.4;stroke-dashoffset:0;stroke-width:1.5;"/>
    </g>
    <g id="line2d_45"/>
    <g id="text_15">
     <!-- $ \exp(0.103 k)$ -->
     <defs>
      <path d="M 54.890625 54.6875 
L 35.109375 28.078125 
L 55.90625 0 
L 45.3125 0 
L 29.390625 21.484375 
L 13.484375 0 
L 2.875 0 
L 24.125 28.609375 
L 4.6875 54.6875 
L 15.28125 54.6875 
L 29.78125 35.203125 
L 44.28125 54.6875 
z
" id="DejaVuSans-120"/>
      <path d="M 18.109375 8.203125 
L 18.109375 -20.796875 
L 9.078125 -20.796875 
L 9.078125 54.6875 
L 18.109375 54.6875 
L 18.109375 46.390625 
Q 20.953125 51.265625 25.265625 53.625 
Q 29.59375 56 35.59375 56 
Q 45.5625 56 51.78125 48.09375 
Q 58.015625 40.1875 58.015625 27.296875 
Q 58.015625 14.40625 51.78125 6.484375 
Q 45.5625 -1.421875 35.59375 -1.421875 
Q 29.59375 -1.421875 25.265625 0.953125 
Q 20.953125 3.328125 18.109375 8.203125 
z
M 48.6875 27.296875 
Q 48.6875 37.203125 44.609375 42.84375 
Q 40.53125 48.484375 33.40625 48.484375 
Q 26.265625 48.484375 22.1875 42.84375 
Q 18.109375 37.203125 18.109375 27.296875 
Q 18.109375 17.390625 22.1875 11.75 
Q 26.265625 6.109375 33.40625 6.109375 
Q 40.53125 6.109375 44.609375 11.75 
Q 48.6875 17.390625 48.6875 27.296875 
z
" id="DejaVuSans-112"/>
      <path d="M 31 75.875 
Q 24.46875 64.65625 21.28125 53.65625 
Q 18.109375 42.671875 18.109375 31.390625 
Q 18.109375 20.125 21.3125 9.0625 
Q 24.515625 -2 31 -13.1875 
L 23.1875 -13.1875 
Q 15.875 -1.703125 12.234375 9.375 
Q 8.59375 20.453125 8.59375 31.390625 
Q 8.59375 42.28125 12.203125 53.3125 
Q 15.828125 64.359375 23.1875 75.875 
z
" id="DejaVuSans-40"/>
      <path d="M 10.6875 12.40625 
L 21 12.40625 
L 21 0 
L 10.6875 0 
z
" id="DejaVuSans-46"/>
      <path d="M 8.015625 75.875 
L 15.828125 75.875 
Q 23.140625 64.359375 26.78125 53.3125 
Q 30.421875 42.28125 30.421875 31.390625 
Q 30.421875 20.453125 26.78125 9.375 
Q 23.140625 -1.703125 15.828125 -13.1875 
L 8.015625 -13.1875 
Q 14.5 -2 17.703125 9.0625 
Q 20.90625 20.125 20.90625 31.390625 
Q 20.90625 42.671875 17.703125 53.65625 
Q 14.5 64.65625 8.015625 75.875 
z
" id="DejaVuSans-41"/>
     </defs>
     <g transform="translate(192.817031 262.212)scale(0.1 -0.1)">
      <use transform="translate(0 0.015625)" xlink:href="#DejaVuSans-101"/>
      <use transform="translate(61.523438 0.015625)" xlink:href="#DejaVuSans-120"/>
      <use transform="translate(120.703125 0.015625)" xlink:href="#DejaVuSans-112"/>
      <use transform="translate(184.179688 0.015625)" xlink:href="#DejaVuSans-40"/>
      <use transform="translate(223.193359 0.015625)" xlink:href="#DejaVuSans-48"/>
      <use transform="translate(286.816406 0.015625)" xlink:href="#DejaVuSans-46"/>
      <use transform="translate(318.603516 0.015625)" xlink:href="#DejaVuSans-49"/>
      <use transform="translate(382.226562 0.015625)" xlink:href="#DejaVuSans-48"/>
      <use transform="translate(445.849609 0.015625)" xlink:href="#DejaVuSans-51"/>
      <use transform="translate(509.472656 0.015625)" xlink:href="#DejaVuSans-Oblique-107"/>
      <use transform="translate(567.382812 0.015625)" xlink:href="#DejaVuSans-41"/>
     </g>
    </g>
   </g>
  </g>
 </g>
 <defs>
  <clipPath id="pc1f837a3f1">
   <rect height="266.112" width="357.12" x="31.8" y="7.2"/>
  </clipPath>
 </defs>
</svg>
