<?xml version="1.0" encoding="utf-8" standalone="no"?>
<!DOCTYPE svg PUBLIC "-//W3C//DTD SVG 1.1//EN"
  "http://www.w3.org/Graphics/SVG/1.1/DTD/svg11.dtd">
<!-- Created with matplotlib (https://matplotlib.org/) -->
<svg height="310.86825pt" version="1.1" viewBox="0 0 402.02 310.86825" width="402.02pt" xmlns="http://www.w3.org/2000/svg" xmlns:xlink="http://www.w3.org/1999/xlink">
 <defs>
  <style type="text/css">
*{stroke-linecap:butt;stroke-linejoin:round;}
  </style>
 </defs>
 <g id="figure_1">
  <g id="patch_1">
   <path d="M 0 310.86825 
L 402.02 310.86825 
L 402.02 0 
L 0 0 
z
" style="fill:#ffffff;"/>
  </g>
  <g id="axes_1">
   <g id="patch_2">
    <path d="M 37.7 273.312 
L 394.82 273.312 
L 394.82 7.2 
L 37.7 7.2 
z
" style="fill:#ffffff;"/>
   </g>
   <g id="matplotlib.axis_1">
    <g id="xtick_1">
     <g id="line2d_1">
      <defs>
       <path d="M 0 0 
L 0 3.5 
" id="m429e6aa756" style="stroke:#000000;stroke-width:0.8;"/>
      </defs>
      <g>
       <use style="stroke:#000000;stroke-width:0.8;" x="53.932727" xlink:href="#m429e6aa756" y="273.312"/>
      </g>
     </g>
     <g id="text_1">
      <!-- 0 -->
      <defs>
       <path d="M 31.78125 66.40625 
Q 24.171875 66.40625 20.328125 58.90625 
Q 16.5 51.421875 16.5 36.375 
Q 16.5 21.390625 20.328125 13.890625 
Q 24.171875 6.390625 31.78125 6.390625 
Q 39.453125 6.390625 43.28125 13.890625 
Q 47.125 21.390625 47.125 36.375 
Q 47.125 51.421875 43.28125 58.90625 
Q 39.453125 66.40625 31.78125 66.40625 
z
M 31.78125 74.21875 
Q 44.046875 74.21875 50.515625 64.515625 
Q 56.984375 54.828125 56.984375 36.375 
Q 56.984375 17.96875 50.515625 8.265625 
Q 44.046875 -1.421875 31.78125 -1.421875 
Q 19.53125 -1.421875 13.0625 8.265625 
Q 6.59375 17.96875 6.59375 36.375 
Q 6.59375 54.828125 13.0625 64.515625 
Q 19.53125 74.21875 31.78125 74.21875 
z
" id="DejaVuSans-48"/>
      </defs>
      <g transform="translate(50.751477 287.910437)scale(0.1 -0.1)">
       <use xlink:href="#DejaVuSans-48"/>
      </g>
     </g>
    </g>
    <g id="xtick_2">
     <g id="line2d_2">
      <g>
       <use style="stroke:#000000;stroke-width:0.8;" x="132.732374" xlink:href="#m429e6aa756" y="273.312"/>
      </g>
     </g>
     <g id="text_2">
      <!-- 50 -->
      <defs>
       <path d="M 10.796875 72.90625 
L 49.515625 72.90625 
L 49.515625 64.59375 
L 19.828125 64.59375 
L 19.828125 46.734375 
Q 21.96875 47.46875 24.109375 47.828125 
Q 26.265625 48.1875 28.421875 48.1875 
Q 40.625 48.1875 47.75 41.5 
Q 54.890625 34.8125 54.890625 23.390625 
Q 54.890625 11.625 47.5625 5.09375 
Q 40.234375 -1.421875 26.90625 -1.421875 
Q 22.3125 -1.421875 17.546875 -0.640625 
Q 12.796875 0.140625 7.71875 1.703125 
L 7.71875 11.625 
Q 12.109375 9.234375 16.796875 8.0625 
Q 21.484375 6.890625 26.703125 6.890625 
Q 35.15625 6.890625 40.078125 11.328125 
Q 45.015625 15.765625 45.015625 23.390625 
Q 45.015625 31 40.078125 35.4375 
Q 35.15625 39.890625 26.703125 39.890625 
Q 22.75 39.890625 18.8125 39.015625 
Q 14.890625 38.140625 10.796875 36.28125 
z
" id="DejaVuSans-53"/>
      </defs>
      <g transform="translate(126.369874 287.910437)scale(0.1 -0.1)">
       <use xlink:href="#DejaVuSans-53"/>
       <use x="63.623047" xlink:href="#DejaVuSans-48"/>
      </g>
     </g>
    </g>
    <g id="xtick_3">
     <g id="line2d_3">
      <g>
       <use style="stroke:#000000;stroke-width:0.8;" x="211.532021" xlink:href="#m429e6aa756" y="273.312"/>
      </g>
     </g>
     <g id="text_3">
      <!-- 100 -->
      <defs>
       <path d="M 12.40625 8.296875 
L 28.515625 8.296875 
L 28.515625 63.921875 
L 10.984375 60.40625 
L 10.984375 69.390625 
L 28.421875 72.90625 
L 38.28125 72.90625 
L 38.28125 8.296875 
L 54.390625 8.296875 
L 54.390625 0 
L 12.40625 0 
z
" id="DejaVuSans-49"/>
      </defs>
      <g transform="translate(201.988271 287.910437)scale(0.1 -0.1)">
       <use xlink:href="#DejaVuSans-49"/>
       <use x="63.623047" xlink:href="#DejaVuSans-48"/>
       <use x="127.246094" xlink:href="#DejaVuSans-48"/>
      </g>
     </g>
    </g>
    <g id="xtick_4">
     <g id="line2d_4">
      <g>
       <use style="stroke:#000000;stroke-width:0.8;" x="290.331668" xlink:href="#m429e6aa756" y="273.312"/>
      </g>
     </g>
     <g id="text_4">
      <!-- 150 -->
      <g transform="translate(280.787918 287.910437)scale(0.1 -0.1)">
       <use xlink:href="#DejaVuSans-49"/>
       <use x="63.623047" xlink:href="#DejaVuSans-53"/>
       <use x="127.246094" xlink:href="#DejaVuSans-48"/>
      </g>
     </g>
    </g>
    <g id="xtick_5">
     <g id="line2d_5">
      <g>
       <use style="stroke:#000000;stroke-width:0.8;" x="369.131315" xlink:href="#m429e6aa756" y="273.312"/>
      </g>
     </g>
     <g id="text_5">
      <!-- 200 -->
      <defs>
       <path d="M 19.1875 8.296875 
L 53.609375 8.296875 
L 53.609375 0 
L 7.328125 0 
L 7.328125 8.296875 
Q 12.9375 14.109375 22.625 23.890625 
Q 32.328125 33.6875 34.8125 36.53125 
Q 39.546875 41.84375 41.421875 45.53125 
Q 43.3125 49.21875 43.3125 52.78125 
Q 43.3125 58.59375 39.234375 62.25 
Q 35.15625 65.921875 28.609375 65.921875 
Q 23.96875 65.921875 18.8125 64.3125 
Q 13.671875 62.703125 7.8125 59.421875 
L 7.8125 69.390625 
Q 13.765625 71.78125 18.9375 73 
Q 24.125 74.21875 28.421875 74.21875 
Q 39.75 74.21875 46.484375 68.546875 
Q 53.21875 62.890625 53.21875 53.421875 
Q 53.21875 48.921875 51.53125 44.890625 
Q 49.859375 40.875 45.40625 35.40625 
Q 44.1875 33.984375 37.640625 27.21875 
Q 31.109375 20.453125 19.1875 8.296875 
z
" id="DejaVuSans-50"/>
      </defs>
      <g transform="translate(359.587565 287.910437)scale(0.1 -0.1)">
       <use xlink:href="#DejaVuSans-50"/>
       <use x="63.623047" xlink:href="#DejaVuSans-48"/>
       <use x="127.246094" xlink:href="#DejaVuSans-48"/>
      </g>
     </g>
    </g>
    <g id="text_6">
     <!-- $ k $ -->
     <defs>
      <path d="M 18.3125 75.984375 
L 27.296875 75.984375 
L 18.703125 31.6875 
L 49.515625 54.6875 
L 61.1875 54.6875 
L 26.8125 28.515625 
L 51.90625 0 
L 41.015625 0 
L 17.671875 26.703125 
L 12.5 0 
L 3.515625 0 
z
" id="DejaVuSans-Oblique-107"/>
     </defs>
     <g transform="translate(213.36 301.588562)scale(0.1 -0.1)">
      <use transform="translate(0 0.015625)" xlink:href="#DejaVuSans-Oblique-107"/>
     </g>
    </g>
   </g>
   <g id="matplotlib.axis_2">
    <g id="ytick_1">
     <g id="line2d_6">
      <defs>
       <path d="M 0 0 
L -3.5 0 
" id="m1087e800e5" style="stroke:#000000;stroke-width:0.8;"/>
      </defs>
      <g>
       <use style="stroke:#000000;stroke-width:0.8;" x="37.7" xlink:href="#m1087e800e5" y="257.600701"/>
      </g>
     </g>
     <g id="text_7">
      <!-- $\mathdefault{10^{-4}}$ -->
      <defs>
       <path d="M 10.59375 35.5 
L 73.1875 35.5 
L 73.1875 27.203125 
L 10.59375 27.203125 
z
" id="DejaVuSans-8722"/>
       <path d="M 37.796875 64.3125 
L 12.890625 25.390625 
L 37.796875 25.390625 
z
M 35.203125 72.90625 
L 47.609375 72.90625 
L 47.609375 25.390625 
L 58.015625 25.390625 
L 58.015625 17.1875 
L 47.609375 17.1875 
L 47.609375 0 
L 37.796875 0 
L 37.796875 17.1875 
L 4.890625 17.1875 
L 4.890625 26.703125 
z
" id="DejaVuSans-52"/>
      </defs>
      <g transform="translate(7.2 261.399919)scale(0.1 -0.1)">
       <use transform="translate(0 0.684375)" xlink:href="#DejaVuSans-49"/>
       <use transform="translate(63.623047 0.684375)" xlink:href="#DejaVuSans-48"/>
       <use transform="translate(128.203125 38.965625)scale(0.7)" xlink:href="#DejaVuSans-8722"/>
       <use transform="translate(186.855469 38.965625)scale(0.7)" xlink:href="#DejaVuSans-52"/>
      </g>
     </g>
    </g>
    <g id="ytick_2">
     <g id="line2d_7">
      <g>
       <use style="stroke:#000000;stroke-width:0.8;" x="37.7" xlink:href="#m1087e800e5" y="213.696007"/>
      </g>
     </g>
     <g id="text_8">
      <!-- $\mathdefault{10^{-3}}$ -->
      <defs>
       <path d="M 40.578125 39.3125 
Q 47.65625 37.796875 51.625 33 
Q 55.609375 28.21875 55.609375 21.1875 
Q 55.609375 10.40625 48.1875 4.484375 
Q 40.765625 -1.421875 27.09375 -1.421875 
Q 22.515625 -1.421875 17.65625 -0.515625 
Q 12.796875 0.390625 7.625 2.203125 
L 7.625 11.71875 
Q 11.71875 9.328125 16.59375 8.109375 
Q 21.484375 6.890625 26.8125 6.890625 
Q 36.078125 6.890625 40.9375 10.546875 
Q 45.796875 14.203125 45.796875 21.1875 
Q 45.796875 27.640625 41.28125 31.265625 
Q 36.765625 34.90625 28.71875 34.90625 
L 20.21875 34.90625 
L 20.21875 43.015625 
L 29.109375 43.015625 
Q 36.375 43.015625 40.234375 45.921875 
Q 44.09375 48.828125 44.09375 54.296875 
Q 44.09375 59.90625 40.109375 62.90625 
Q 36.140625 65.921875 28.71875 65.921875 
Q 24.65625 65.921875 20.015625 65.03125 
Q 15.375 64.15625 9.8125 62.3125 
L 9.8125 71.09375 
Q 15.4375 72.65625 20.34375 73.4375 
Q 25.25 74.21875 29.59375 74.21875 
Q 40.828125 74.21875 47.359375 69.109375 
Q 53.90625 64.015625 53.90625 55.328125 
Q 53.90625 49.265625 50.4375 45.09375 
Q 46.96875 40.921875 40.578125 39.3125 
z
" id="DejaVuSans-51"/>
      </defs>
      <g transform="translate(7.2 217.495225)scale(0.1 -0.1)">
       <use transform="translate(0 0.765625)" xlink:href="#DejaVuSans-49"/>
       <use transform="translate(63.623047 0.765625)" xlink:href="#DejaVuSans-48"/>
       <use transform="translate(128.203125 39.046875)scale(0.7)" xlink:href="#DejaVuSans-8722"/>
       <use transform="translate(186.855469 39.046875)scale(0.7)" xlink:href="#DejaVuSans-51"/>
      </g>
     </g>
    </g>
    <g id="ytick_3">
     <g id="line2d_8">
      <g>
       <use style="stroke:#000000;stroke-width:0.8;" x="37.7" xlink:href="#m1087e800e5" y="169.791313"/>
      </g>
     </g>
     <g id="text_9">
      <!-- $\mathdefault{10^{-2}}$ -->
      <g transform="translate(7.2 173.590531)scale(0.1 -0.1)">
       <use transform="translate(0 0.765625)" xlink:href="#DejaVuSans-49"/>
       <use transform="translate(63.623047 0.765625)" xlink:href="#DejaVuSans-48"/>
       <use transform="translate(128.203125 39.046875)scale(0.7)" xlink:href="#DejaVuSans-8722"/>
       <use transform="translate(186.855469 39.046875)scale(0.7)" xlink:href="#DejaVuSans-50"/>
      </g>
     </g>
    </g>
    <g id="ytick_4">
     <g id="line2d_9">
      <g>
       <use style="stroke:#000000;stroke-width:0.8;" x="37.7" xlink:href="#m1087e800e5" y="125.886618"/>
      </g>
     </g>
     <g id="text_10">
      <!-- $\mathdefault{10^{-1}}$ -->
      <g transform="translate(7.2 129.685837)scale(0.1 -0.1)">
       <use transform="translate(0 0.684375)" xlink:href="#DejaVuSans-49"/>
       <use transform="translate(63.623047 0.684375)" xlink:href="#DejaVuSans-48"/>
       <use transform="translate(128.203125 38.965625)scale(0.7)" xlink:href="#DejaVuSans-8722"/>
       <use transform="translate(186.855469 38.965625)scale(0.7)" xlink:href="#DejaVuSans-49"/>
      </g>
     </g>
    </g>
    <g id="ytick_5">
     <g id="line2d_10">
      <g>
       <use style="stroke:#000000;stroke-width:0.8;" x="37.7" xlink:href="#m1087e800e5" y="81.981924"/>
      </g>
     </g>
     <g id="text_11">
      <!-- $\mathdefault{10^{0}}$ -->
      <g transform="translate(13.1 85.781143)scale(0.1 -0.1)">
       <use transform="translate(0 0.765625)" xlink:href="#DejaVuSans-49"/>
       <use transform="translate(63.623047 0.765625)" xlink:href="#DejaVuSans-48"/>
       <use transform="translate(128.203125 39.046875)scale(0.7)" xlink:href="#DejaVuSans-48"/>
      </g>
     </g>
    </g>
    <g id="ytick_6">
     <g id="line2d_11">
      <g>
       <use style="stroke:#000000;stroke-width:0.8;" x="37.7" xlink:href="#m1087e800e5" y="38.07723"/>
      </g>
     </g>
     <g id="text_12">
      <!-- $\mathdefault{10^{1}}$ -->
      <g transform="translate(13.1 41.876449)scale(0.1 -0.1)">
       <use transform="translate(0 0.684375)" xlink:href="#DejaVuSans-49"/>
       <use transform="translate(63.623047 0.684375)" xlink:href="#DejaVuSans-48"/>
       <use transform="translate(128.203125 38.965625)scale(0.7)" xlink:href="#DejaVuSans-49"/>
      </g>
     </g>
    </g>
    <g id="ytick_7">
     <g id="line2d_12">
      <defs>
       <path d="M 0 0 
L -2 0 
" id="m22fa5dca17" style="stroke:#000000;stroke-width:0.6;"/>
      </defs>
      <g>
       <use style="stroke:#000000;stroke-width:0.6;" x="37.7" xlink:href="#m22fa5dca17" y="270.81733"/>
      </g>
     </g>
    </g>
    <g id="ytick_8">
     <g id="line2d_13">
      <g>
       <use style="stroke:#000000;stroke-width:0.6;" x="37.7" xlink:href="#m22fa5dca17" y="267.340902"/>
      </g>
     </g>
    </g>
    <g id="ytick_9">
     <g id="line2d_14">
      <g>
       <use style="stroke:#000000;stroke-width:0.6;" x="37.7" xlink:href="#m22fa5dca17" y="264.401624"/>
      </g>
     </g>
    </g>
    <g id="ytick_10">
     <g id="line2d_15">
      <g>
       <use style="stroke:#000000;stroke-width:0.6;" x="37.7" xlink:href="#m22fa5dca17" y="261.855505"/>
      </g>
     </g>
    </g>
    <g id="ytick_11">
     <g id="line2d_16">
      <g>
       <use style="stroke:#000000;stroke-width:0.6;" x="37.7" xlink:href="#m22fa5dca17" y="259.609669"/>
      </g>
     </g>
    </g>
    <g id="ytick_12">
     <g id="line2d_17">
      <g>
       <use style="stroke:#000000;stroke-width:0.6;" x="37.7" xlink:href="#m22fa5dca17" y="244.384071"/>
      </g>
     </g>
    </g>
    <g id="ytick_13">
     <g id="line2d_18">
      <g>
       <use style="stroke:#000000;stroke-width:0.6;" x="37.7" xlink:href="#m22fa5dca17" y="236.652838"/>
      </g>
     </g>
    </g>
    <g id="ytick_14">
     <g id="line2d_19">
      <g>
       <use style="stroke:#000000;stroke-width:0.6;" x="37.7" xlink:href="#m22fa5dca17" y="231.167441"/>
      </g>
     </g>
    </g>
    <g id="ytick_15">
     <g id="line2d_20">
      <g>
       <use style="stroke:#000000;stroke-width:0.6;" x="37.7" xlink:href="#m22fa5dca17" y="226.912636"/>
      </g>
     </g>
    </g>
    <g id="ytick_16">
     <g id="line2d_21">
      <g>
       <use style="stroke:#000000;stroke-width:0.6;" x="37.7" xlink:href="#m22fa5dca17" y="223.436208"/>
      </g>
     </g>
    </g>
    <g id="ytick_17">
     <g id="line2d_22">
      <g>
       <use style="stroke:#000000;stroke-width:0.6;" x="37.7" xlink:href="#m22fa5dca17" y="220.49693"/>
      </g>
     </g>
    </g>
    <g id="ytick_18">
     <g id="line2d_23">
      <g>
       <use style="stroke:#000000;stroke-width:0.6;" x="37.7" xlink:href="#m22fa5dca17" y="217.950811"/>
      </g>
     </g>
    </g>
    <g id="ytick_19">
     <g id="line2d_24">
      <g>
       <use style="stroke:#000000;stroke-width:0.6;" x="37.7" xlink:href="#m22fa5dca17" y="215.704975"/>
      </g>
     </g>
    </g>
    <g id="ytick_20">
     <g id="line2d_25">
      <g>
       <use style="stroke:#000000;stroke-width:0.6;" x="37.7" xlink:href="#m22fa5dca17" y="200.479377"/>
      </g>
     </g>
    </g>
    <g id="ytick_21">
     <g id="line2d_26">
      <g>
       <use style="stroke:#000000;stroke-width:0.6;" x="37.7" xlink:href="#m22fa5dca17" y="192.748144"/>
      </g>
     </g>
    </g>
    <g id="ytick_22">
     <g id="line2d_27">
      <g>
       <use style="stroke:#000000;stroke-width:0.6;" x="37.7" xlink:href="#m22fa5dca17" y="187.262747"/>
      </g>
     </g>
    </g>
    <g id="ytick_23">
     <g id="line2d_28">
      <g>
       <use style="stroke:#000000;stroke-width:0.6;" x="37.7" xlink:href="#m22fa5dca17" y="183.007942"/>
      </g>
     </g>
    </g>
    <g id="ytick_24">
     <g id="line2d_29">
      <g>
       <use style="stroke:#000000;stroke-width:0.6;" x="37.7" xlink:href="#m22fa5dca17" y="179.531514"/>
      </g>
     </g>
    </g>
    <g id="ytick_25">
     <g id="line2d_30">
      <g>
       <use style="stroke:#000000;stroke-width:0.6;" x="37.7" xlink:href="#m22fa5dca17" y="176.592236"/>
      </g>
     </g>
    </g>
    <g id="ytick_26">
     <g id="line2d_31">
      <g>
       <use style="stroke:#000000;stroke-width:0.6;" x="37.7" xlink:href="#m22fa5dca17" y="174.046117"/>
      </g>
     </g>
    </g>
    <g id="ytick_27">
     <g id="line2d_32">
      <g>
       <use style="stroke:#000000;stroke-width:0.6;" x="37.7" xlink:href="#m22fa5dca17" y="171.800281"/>
      </g>
     </g>
    </g>
    <g id="ytick_28">
     <g id="line2d_33">
      <g>
       <use style="stroke:#000000;stroke-width:0.6;" x="37.7" xlink:href="#m22fa5dca17" y="156.574683"/>
      </g>
     </g>
    </g>
    <g id="ytick_29">
     <g id="line2d_34">
      <g>
       <use style="stroke:#000000;stroke-width:0.6;" x="37.7" xlink:href="#m22fa5dca17" y="148.84345"/>
      </g>
     </g>
    </g>
    <g id="ytick_30">
     <g id="line2d_35">
      <g>
       <use style="stroke:#000000;stroke-width:0.6;" x="37.7" xlink:href="#m22fa5dca17" y="143.358053"/>
      </g>
     </g>
    </g>
    <g id="ytick_31">
     <g id="line2d_36">
      <g>
       <use style="stroke:#000000;stroke-width:0.6;" x="37.7" xlink:href="#m22fa5dca17" y="139.103248"/>
      </g>
     </g>
    </g>
    <g id="ytick_32">
     <g id="line2d_37">
      <g>
       <use style="stroke:#000000;stroke-width:0.6;" x="37.7" xlink:href="#m22fa5dca17" y="135.62682"/>
      </g>
     </g>
    </g>
    <g id="ytick_33">
     <g id="line2d_38">
      <g>
       <use style="stroke:#000000;stroke-width:0.6;" x="37.7" xlink:href="#m22fa5dca17" y="132.687542"/>
      </g>
     </g>
    </g>
    <g id="ytick_34">
     <g id="line2d_39">
      <g>
       <use style="stroke:#000000;stroke-width:0.6;" x="37.7" xlink:href="#m22fa5dca17" y="130.141423"/>
      </g>
     </g>
    </g>
    <g id="ytick_35">
     <g id="line2d_40">
      <g>
       <use style="stroke:#000000;stroke-width:0.6;" x="37.7" xlink:href="#m22fa5dca17" y="127.895587"/>
      </g>
     </g>
    </g>
    <g id="ytick_36">
     <g id="line2d_41">
      <g>
       <use style="stroke:#000000;stroke-width:0.6;" x="37.7" xlink:href="#m22fa5dca17" y="112.669989"/>
      </g>
     </g>
    </g>
    <g id="ytick_37">
     <g id="line2d_42">
      <g>
       <use style="stroke:#000000;stroke-width:0.6;" x="37.7" xlink:href="#m22fa5dca17" y="104.938756"/>
      </g>
     </g>
    </g>
    <g id="ytick_38">
     <g id="line2d_43">
      <g>
       <use style="stroke:#000000;stroke-width:0.6;" x="37.7" xlink:href="#m22fa5dca17" y="99.453359"/>
      </g>
     </g>
    </g>
    <g id="ytick_39">
     <g id="line2d_44">
      <g>
       <use style="stroke:#000000;stroke-width:0.6;" x="37.7" xlink:href="#m22fa5dca17" y="95.198554"/>
      </g>
     </g>
    </g>
    <g id="ytick_40">
     <g id="line2d_45">
      <g>
       <use style="stroke:#000000;stroke-width:0.6;" x="37.7" xlink:href="#m22fa5dca17" y="91.722126"/>
      </g>
     </g>
    </g>
    <g id="ytick_41">
     <g id="line2d_46">
      <g>
       <use style="stroke:#000000;stroke-width:0.6;" x="37.7" xlink:href="#m22fa5dca17" y="88.782848"/>
      </g>
     </g>
    </g>
    <g id="ytick_42">
     <g id="line2d_47">
      <g>
       <use style="stroke:#000000;stroke-width:0.6;" x="37.7" xlink:href="#m22fa5dca17" y="86.236729"/>
      </g>
     </g>
    </g>
    <g id="ytick_43">
     <g id="line2d_48">
      <g>
       <use style="stroke:#000000;stroke-width:0.6;" x="37.7" xlink:href="#m22fa5dca17" y="83.990893"/>
      </g>
     </g>
    </g>
    <g id="ytick_44">
     <g id="line2d_49">
      <g>
       <use style="stroke:#000000;stroke-width:0.6;" x="37.7" xlink:href="#m22fa5dca17" y="68.765295"/>
      </g>
     </g>
    </g>
    <g id="ytick_45">
     <g id="line2d_50">
      <g>
       <use style="stroke:#000000;stroke-width:0.6;" x="37.7" xlink:href="#m22fa5dca17" y="61.034062"/>
      </g>
     </g>
    </g>
    <g id="ytick_46">
     <g id="line2d_51">
      <g>
       <use style="stroke:#000000;stroke-width:0.6;" x="37.7" xlink:href="#m22fa5dca17" y="55.548665"/>
      </g>
     </g>
    </g>
    <g id="ytick_47">
     <g id="line2d_52">
      <g>
       <use style="stroke:#000000;stroke-width:0.6;" x="37.7" xlink:href="#m22fa5dca17" y="51.29386"/>
      </g>
     </g>
    </g>
    <g id="ytick_48">
     <g id="line2d_53">
      <g>
       <use style="stroke:#000000;stroke-width:0.6;" x="37.7" xlink:href="#m22fa5dca17" y="47.817432"/>
      </g>
     </g>
    </g>
    <g id="ytick_49">
     <g id="line2d_54">
      <g>
       <use style="stroke:#000000;stroke-width:0.6;" x="37.7" xlink:href="#m22fa5dca17" y="44.878154"/>
      </g>
     </g>
    </g>
    <g id="ytick_50">
     <g id="line2d_55">
      <g>
       <use style="stroke:#000000;stroke-width:0.6;" x="37.7" xlink:href="#m22fa5dca17" y="42.332035"/>
      </g>
     </g>
    </g>
    <g id="ytick_51">
     <g id="line2d_56">
      <g>
       <use style="stroke:#000000;stroke-width:0.6;" x="37.7" xlink:href="#m22fa5dca17" y="40.086199"/>
      </g>
     </g>
    </g>
    <g id="ytick_52">
     <g id="line2d_57">
      <g>
       <use style="stroke:#000000;stroke-width:0.6;" x="37.7" xlink:href="#m22fa5dca17" y="24.860601"/>
      </g>
     </g>
    </g>
    <g id="ytick_53">
     <g id="line2d_58">
      <g>
       <use style="stroke:#000000;stroke-width:0.6;" x="37.7" xlink:href="#m22fa5dca17" y="17.129368"/>
      </g>
     </g>
    </g>
    <g id="ytick_54">
     <g id="line2d_59">
      <g>
       <use style="stroke:#000000;stroke-width:0.6;" x="37.7" xlink:href="#m22fa5dca17" y="11.643971"/>
      </g>
     </g>
    </g>
    <g id="ytick_55">
     <g id="line2d_60">
      <g>
       <use style="stroke:#000000;stroke-width:0.6;" x="37.7" xlink:href="#m22fa5dca17" y="7.389166"/>
      </g>
     </g>
    </g>
   </g>
   <g id="line2d_61">
    <path clip-path="url(#p5c2756f994)" d="M 53.932727 19.296 
L 55.50872 67.149201 
L 57.084713 102.960555 
L 58.660706 143.986475 
L 60.236699 177.376277 
L 61.812692 228.881071 
L 63.388685 206.699714 
L 64.964678 226.927753 
L 66.540671 214.800005 
L 68.116664 220.202198 
L 69.692657 221.718391 
L 71.26865 232.815915 
L 72.844643 201.177277 
L 74.420635 215.621575 
L 75.996628 207.576978 
L 77.572621 241.14006 
L 79.148614 208.552049 
L 80.724607 219.235602 
L 82.3006 227.376647 
L 83.876593 204.51628 
L 85.452586 232.914048 
L 87.028579 207.770803 
L 88.604572 213.424972 
L 90.180565 207.769563 
L 91.756558 229.304009 
L 93.332551 216.673184 
L 94.908544 227.74155 
L 96.484537 217.207951 
L 98.06053 204.017474 
L 99.636523 213.898314 
L 101.212515 210.808283 
L 102.788508 256.612977 
L 104.364501 230.845848 
L 105.940494 208.732093 
L 107.516487 203.942483 
L 109.09248 204.740313 
L 110.668473 233.338047 
L 112.244466 215.165883 
L 113.820459 205.943922 
L 115.396452 260.514966 
L 116.972445 203.645497 
L 118.548438 202.813061 
L 120.124431 210.703123 
L 121.700424 215.856257 
L 123.276417 220.540844 
L 124.85241 200.119249 
L 126.428402 214.15772 
L 128.004395 210.488902 
L 129.580388 210.65366 
L 131.156381 208.924333 
L 134.308367 224.205745 
L 135.88436 210.225881 
L 137.460353 218.0302 
L 139.036346 198.501032 
L 140.612339 220.482692 
L 142.188332 223.667404 
L 143.764325 213.786417 
L 145.340318 206.455688 
L 146.916311 218.244299 
L 148.492304 210.959435 
L 150.068297 227.298362 
L 151.644289 208.106589 
L 153.220282 238.914636 
L 154.796275 204.171364 
L 156.372268 208.837306 
L 157.948261 206.140066 
L 159.524254 212.83517 
L 161.100247 202.271306 
L 162.67624 210.481836 
L 164.252233 206.163107 
L 165.828226 213.290383 
L 167.404219 212.529728 
L 168.980212 210.290295 
L 170.556205 208.689943 
L 172.132198 234.034885 
L 173.708191 202.287 
L 175.284184 209.544502 
L 176.860177 208.614468 
L 178.436169 213.487093 
L 180.012162 212.268462 
L 181.588155 206.413663 
L 183.164148 248.732724 
L 184.740141 212.203355 
L 186.316134 218.372601 
L 187.892127 211.644321 
L 189.46812 213.28098 
L 191.044113 214.453127 
L 192.620106 230.876141 
L 194.196099 205.617597 
L 195.772092 211.1126 
L 197.348085 205.088503 
L 198.924078 215.72978 
L 200.500071 216.804368 
L 202.076064 246.229116 
L 203.652056 201.035961 
L 205.228049 225.802475 
L 206.804042 206.901839 
L 208.380035 215.898192 
L 209.956028 210.333016 
L 211.532021 203.53764 
L 213.108014 203.024657 
L 214.684007 205.635829 
L 216.26 253.376486 
L 217.835993 219.013623 
L 219.411986 216.686683 
L 220.987979 203.736207 
L 222.563972 217.092376 
L 224.139965 205.82288 
L 225.715958 208.389493 
L 227.291951 210.525272 
L 228.867944 216.86008 
L 230.443936 201.736673 
L 232.019929 203.405978 
L 233.595922 209.676721 
L 235.171915 209.829661 
L 236.747908 215.300499 
L 238.323901 222.113753 
L 239.899894 205.225921 
L 241.475887 261.216 
L 243.05188 204.735191 
L 244.627873 216.326926 
L 246.203866 207.633582 
L 247.779859 219.548321 
L 249.355852 210.976045 
L 250.931845 258.466363 
L 252.507838 207.713176 
L 254.083831 211.803351 
L 255.659823 210.96177 
L 257.235816 226.694761 
L 258.811809 210.299271 
L 260.387802 204.82174 
L 261.963795 206.231445 
L 263.539788 204.246421 
L 265.115781 208.776278 
L 266.691774 212.504285 
L 268.267767 207.882191 
L 269.84376 209.328795 
L 271.419753 208.896319 
L 272.995746 214.280802 
L 274.571739 210.714219 
L 276.147732 226.606078 
L 277.723725 211.798433 
L 279.299718 209.506798 
L 280.875711 216.503665 
L 282.451703 207.197652 
L 284.027696 207.112328 
L 285.603689 229.197988 
L 287.179682 218.316193 
L 288.755675 222.124553 
L 290.331668 212.873045 
L 291.907661 219.83181 
L 293.483654 209.275214 
L 295.059647 207.935621 
L 296.63564 225.118544 
L 298.211633 201.555273 
L 299.787626 227.43504 
L 301.363619 213.997828 
L 302.939612 222.786666 
L 304.515605 206.15733 
L 306.091598 203.293801 
L 307.66759 218.476912 
L 309.243583 222.680989 
L 310.819576 204.03184 
L 312.395569 213.278279 
L 313.971562 207.615625 
L 315.547555 221.485005 
L 317.123548 203.598712 
L 318.699541 214.230367 
L 320.275534 215.586603 
L 321.851527 216.370392 
L 323.42752 204.566531 
L 325.003513 207.792488 
L 326.579506 218.034204 
L 328.155499 206.057343 
L 329.731492 222.145039 
L 331.307485 208.357713 
L 332.883477 210.844225 
L 334.45947 203.74263 
L 336.035463 205.625404 
L 337.611456 206.127972 
L 339.187449 231.166162 
L 340.763442 212.891141 
L 342.339435 233.939413 
L 343.915428 204.115123 
L 345.491421 211.218005 
L 347.067414 209.169624 
L 348.643407 209.662312 
L 350.2194 217.765558 
L 351.795393 207.993356 
L 353.371386 209.3981 
L 354.947379 203.521824 
L 356.523372 231.176693 
L 358.099365 215.779107 
L 359.675357 217.753539 
L 361.25135 206.463427 
L 362.827343 215.307851 
L 364.403336 217.235912 
L 365.979329 218.895384 
L 367.555322 201.623671 
L 369.131315 210.091048 
L 370.707308 217.486109 
L 372.283301 209.712824 
L 373.859294 258.076365 
L 375.435287 208.620879 
L 375.439004 311.86825 
L 375.439004 311.86825 
" style="fill:none;stroke:#1f77b4;stroke-linecap:square;stroke-width:1.5;"/>
    <defs>
     <path d="M 0 3 
C 0.795609 3 1.55874 2.683901 2.12132 2.12132 
C 2.683901 1.55874 3 0.795609 3 0 
C 3 -0.795609 2.683901 -1.55874 2.12132 -2.12132 
C 1.55874 -2.683901 0.795609 -3 0 -3 
C -0.795609 -3 -1.55874 -2.683901 -2.12132 -2.12132 
C -2.683901 -1.55874 -3 -0.795609 -3 0 
C -3 0.795609 -2.683901 1.55874 -2.12132 2.12132 
C -1.55874 2.683901 -0.795609 3 0 3 
z
" id="me070ca9571" style="stroke:#1f77b4;"/>
    </defs>
    <g clip-path="url(#p5c2756f994)">
     <use style="fill:#1f77b4;stroke:#1f77b4;" x="53.932727" xlink:href="#me070ca9571" y="19.296"/>
     <use style="fill:#1f77b4;stroke:#1f77b4;" x="55.50872" xlink:href="#me070ca9571" y="67.149201"/>
     <use style="fill:#1f77b4;stroke:#1f77b4;" x="57.084713" xlink:href="#me070ca9571" y="102.960555"/>
     <use style="fill:#1f77b4;stroke:#1f77b4;" x="58.660706" xlink:href="#me070ca9571" y="143.986475"/>
     <use style="fill:#1f77b4;stroke:#1f77b4;" x="60.236699" xlink:href="#me070ca9571" y="177.376277"/>
     <use style="fill:#1f77b4;stroke:#1f77b4;" x="61.812692" xlink:href="#me070ca9571" y="228.881071"/>
     <use style="fill:#1f77b4;stroke:#1f77b4;" x="63.388685" xlink:href="#me070ca9571" y="206.699714"/>
     <use style="fill:#1f77b4;stroke:#1f77b4;" x="64.964678" xlink:href="#me070ca9571" y="226.927753"/>
     <use style="fill:#1f77b4;stroke:#1f77b4;" x="66.540671" xlink:href="#me070ca9571" y="214.800005"/>
     <use style="fill:#1f77b4;stroke:#1f77b4;" x="68.116664" xlink:href="#me070ca9571" y="220.202198"/>
     <use style="fill:#1f77b4;stroke:#1f77b4;" x="69.692657" xlink:href="#me070ca9571" y="221.718391"/>
     <use style="fill:#1f77b4;stroke:#1f77b4;" x="71.26865" xlink:href="#me070ca9571" y="232.815915"/>
     <use style="fill:#1f77b4;stroke:#1f77b4;" x="72.844643" xlink:href="#me070ca9571" y="201.177277"/>
     <use style="fill:#1f77b4;stroke:#1f77b4;" x="74.420635" xlink:href="#me070ca9571" y="215.621575"/>
     <use style="fill:#1f77b4;stroke:#1f77b4;" x="75.996628" xlink:href="#me070ca9571" y="207.576978"/>
     <use style="fill:#1f77b4;stroke:#1f77b4;" x="77.572621" xlink:href="#me070ca9571" y="241.14006"/>
     <use style="fill:#1f77b4;stroke:#1f77b4;" x="79.148614" xlink:href="#me070ca9571" y="208.552049"/>
     <use style="fill:#1f77b4;stroke:#1f77b4;" x="80.724607" xlink:href="#me070ca9571" y="219.235602"/>
     <use style="fill:#1f77b4;stroke:#1f77b4;" x="82.3006" xlink:href="#me070ca9571" y="227.376647"/>
     <use style="fill:#1f77b4;stroke:#1f77b4;" x="83.876593" xlink:href="#me070ca9571" y="204.51628"/>
     <use style="fill:#1f77b4;stroke:#1f77b4;" x="85.452586" xlink:href="#me070ca9571" y="232.914048"/>
     <use style="fill:#1f77b4;stroke:#1f77b4;" x="87.028579" xlink:href="#me070ca9571" y="207.770803"/>
     <use style="fill:#1f77b4;stroke:#1f77b4;" x="88.604572" xlink:href="#me070ca9571" y="213.424972"/>
     <use style="fill:#1f77b4;stroke:#1f77b4;" x="90.180565" xlink:href="#me070ca9571" y="207.769563"/>
     <use style="fill:#1f77b4;stroke:#1f77b4;" x="91.756558" xlink:href="#me070ca9571" y="229.304009"/>
     <use style="fill:#1f77b4;stroke:#1f77b4;" x="93.332551" xlink:href="#me070ca9571" y="216.673184"/>
     <use style="fill:#1f77b4;stroke:#1f77b4;" x="94.908544" xlink:href="#me070ca9571" y="227.74155"/>
     <use style="fill:#1f77b4;stroke:#1f77b4;" x="96.484537" xlink:href="#me070ca9571" y="217.207951"/>
     <use style="fill:#1f77b4;stroke:#1f77b4;" x="98.06053" xlink:href="#me070ca9571" y="204.017474"/>
     <use style="fill:#1f77b4;stroke:#1f77b4;" x="99.636523" xlink:href="#me070ca9571" y="213.898314"/>
     <use style="fill:#1f77b4;stroke:#1f77b4;" x="101.212515" xlink:href="#me070ca9571" y="210.808283"/>
     <use style="fill:#1f77b4;stroke:#1f77b4;" x="102.788508" xlink:href="#me070ca9571" y="256.612977"/>
     <use style="fill:#1f77b4;stroke:#1f77b4;" x="104.364501" xlink:href="#me070ca9571" y="230.845848"/>
     <use style="fill:#1f77b4;stroke:#1f77b4;" x="105.940494" xlink:href="#me070ca9571" y="208.732093"/>
     <use style="fill:#1f77b4;stroke:#1f77b4;" x="107.516487" xlink:href="#me070ca9571" y="203.942483"/>
     <use style="fill:#1f77b4;stroke:#1f77b4;" x="109.09248" xlink:href="#me070ca9571" y="204.740313"/>
     <use style="fill:#1f77b4;stroke:#1f77b4;" x="110.668473" xlink:href="#me070ca9571" y="233.338047"/>
     <use style="fill:#1f77b4;stroke:#1f77b4;" x="112.244466" xlink:href="#me070ca9571" y="215.165883"/>
     <use style="fill:#1f77b4;stroke:#1f77b4;" x="113.820459" xlink:href="#me070ca9571" y="205.943922"/>
     <use style="fill:#1f77b4;stroke:#1f77b4;" x="115.396452" xlink:href="#me070ca9571" y="260.514966"/>
     <use style="fill:#1f77b4;stroke:#1f77b4;" x="116.972445" xlink:href="#me070ca9571" y="203.645497"/>
     <use style="fill:#1f77b4;stroke:#1f77b4;" x="118.548438" xlink:href="#me070ca9571" y="202.813061"/>
     <use style="fill:#1f77b4;stroke:#1f77b4;" x="120.124431" xlink:href="#me070ca9571" y="210.703123"/>
     <use style="fill:#1f77b4;stroke:#1f77b4;" x="121.700424" xlink:href="#me070ca9571" y="215.856257"/>
     <use style="fill:#1f77b4;stroke:#1f77b4;" x="123.276417" xlink:href="#me070ca9571" y="220.540844"/>
     <use style="fill:#1f77b4;stroke:#1f77b4;" x="124.85241" xlink:href="#me070ca9571" y="200.119249"/>
     <use style="fill:#1f77b4;stroke:#1f77b4;" x="126.428402" xlink:href="#me070ca9571" y="214.15772"/>
     <use style="fill:#1f77b4;stroke:#1f77b4;" x="128.004395" xlink:href="#me070ca9571" y="210.488902"/>
     <use style="fill:#1f77b4;stroke:#1f77b4;" x="129.580388" xlink:href="#me070ca9571" y="210.65366"/>
     <use style="fill:#1f77b4;stroke:#1f77b4;" x="131.156381" xlink:href="#me070ca9571" y="208.924333"/>
     <use style="fill:#1f77b4;stroke:#1f77b4;" x="132.732374" xlink:href="#me070ca9571" y="216.690878"/>
     <use style="fill:#1f77b4;stroke:#1f77b4;" x="134.308367" xlink:href="#me070ca9571" y="224.205745"/>
     <use style="fill:#1f77b4;stroke:#1f77b4;" x="135.88436" xlink:href="#me070ca9571" y="210.225881"/>
     <use style="fill:#1f77b4;stroke:#1f77b4;" x="137.460353" xlink:href="#me070ca9571" y="218.0302"/>
     <use style="fill:#1f77b4;stroke:#1f77b4;" x="139.036346" xlink:href="#me070ca9571" y="198.501032"/>
     <use style="fill:#1f77b4;stroke:#1f77b4;" x="140.612339" xlink:href="#me070ca9571" y="220.482692"/>
     <use style="fill:#1f77b4;stroke:#1f77b4;" x="142.188332" xlink:href="#me070ca9571" y="223.667404"/>
     <use style="fill:#1f77b4;stroke:#1f77b4;" x="143.764325" xlink:href="#me070ca9571" y="213.786417"/>
     <use style="fill:#1f77b4;stroke:#1f77b4;" x="145.340318" xlink:href="#me070ca9571" y="206.455688"/>
     <use style="fill:#1f77b4;stroke:#1f77b4;" x="146.916311" xlink:href="#me070ca9571" y="218.244299"/>
     <use style="fill:#1f77b4;stroke:#1f77b4;" x="148.492304" xlink:href="#me070ca9571" y="210.959435"/>
     <use style="fill:#1f77b4;stroke:#1f77b4;" x="150.068297" xlink:href="#me070ca9571" y="227.298362"/>
     <use style="fill:#1f77b4;stroke:#1f77b4;" x="151.644289" xlink:href="#me070ca9571" y="208.106589"/>
     <use style="fill:#1f77b4;stroke:#1f77b4;" x="153.220282" xlink:href="#me070ca9571" y="238.914636"/>
     <use style="fill:#1f77b4;stroke:#1f77b4;" x="154.796275" xlink:href="#me070ca9571" y="204.171364"/>
     <use style="fill:#1f77b4;stroke:#1f77b4;" x="156.372268" xlink:href="#me070ca9571" y="208.837306"/>
     <use style="fill:#1f77b4;stroke:#1f77b4;" x="157.948261" xlink:href="#me070ca9571" y="206.140066"/>
     <use style="fill:#1f77b4;stroke:#1f77b4;" x="159.524254" xlink:href="#me070ca9571" y="212.83517"/>
     <use style="fill:#1f77b4;stroke:#1f77b4;" x="161.100247" xlink:href="#me070ca9571" y="202.271306"/>
     <use style="fill:#1f77b4;stroke:#1f77b4;" x="162.67624" xlink:href="#me070ca9571" y="210.481836"/>
     <use style="fill:#1f77b4;stroke:#1f77b4;" x="164.252233" xlink:href="#me070ca9571" y="206.163107"/>
     <use style="fill:#1f77b4;stroke:#1f77b4;" x="165.828226" xlink:href="#me070ca9571" y="213.290383"/>
     <use style="fill:#1f77b4;stroke:#1f77b4;" x="167.404219" xlink:href="#me070ca9571" y="212.529728"/>
     <use style="fill:#1f77b4;stroke:#1f77b4;" x="168.980212" xlink:href="#me070ca9571" y="210.290295"/>
     <use style="fill:#1f77b4;stroke:#1f77b4;" x="170.556205" xlink:href="#me070ca9571" y="208.689943"/>
     <use style="fill:#1f77b4;stroke:#1f77b4;" x="172.132198" xlink:href="#me070ca9571" y="234.034885"/>
     <use style="fill:#1f77b4;stroke:#1f77b4;" x="173.708191" xlink:href="#me070ca9571" y="202.287"/>
     <use style="fill:#1f77b4;stroke:#1f77b4;" x="175.284184" xlink:href="#me070ca9571" y="209.544502"/>
     <use style="fill:#1f77b4;stroke:#1f77b4;" x="176.860177" xlink:href="#me070ca9571" y="208.614468"/>
     <use style="fill:#1f77b4;stroke:#1f77b4;" x="178.436169" xlink:href="#me070ca9571" y="213.487093"/>
     <use style="fill:#1f77b4;stroke:#1f77b4;" x="180.012162" xlink:href="#me070ca9571" y="212.268462"/>
     <use style="fill:#1f77b4;stroke:#1f77b4;" x="181.588155" xlink:href="#me070ca9571" y="206.413663"/>
     <use style="fill:#1f77b4;stroke:#1f77b4;" x="183.164148" xlink:href="#me070ca9571" y="248.732724"/>
     <use style="fill:#1f77b4;stroke:#1f77b4;" x="184.740141" xlink:href="#me070ca9571" y="212.203355"/>
     <use style="fill:#1f77b4;stroke:#1f77b4;" x="186.316134" xlink:href="#me070ca9571" y="218.372601"/>
     <use style="fill:#1f77b4;stroke:#1f77b4;" x="187.892127" xlink:href="#me070ca9571" y="211.644321"/>
     <use style="fill:#1f77b4;stroke:#1f77b4;" x="189.46812" xlink:href="#me070ca9571" y="213.28098"/>
     <use style="fill:#1f77b4;stroke:#1f77b4;" x="191.044113" xlink:href="#me070ca9571" y="214.453127"/>
     <use style="fill:#1f77b4;stroke:#1f77b4;" x="192.620106" xlink:href="#me070ca9571" y="230.876141"/>
     <use style="fill:#1f77b4;stroke:#1f77b4;" x="194.196099" xlink:href="#me070ca9571" y="205.617597"/>
     <use style="fill:#1f77b4;stroke:#1f77b4;" x="195.772092" xlink:href="#me070ca9571" y="211.1126"/>
     <use style="fill:#1f77b4;stroke:#1f77b4;" x="197.348085" xlink:href="#me070ca9571" y="205.088503"/>
     <use style="fill:#1f77b4;stroke:#1f77b4;" x="198.924078" xlink:href="#me070ca9571" y="215.72978"/>
     <use style="fill:#1f77b4;stroke:#1f77b4;" x="200.500071" xlink:href="#me070ca9571" y="216.804368"/>
     <use style="fill:#1f77b4;stroke:#1f77b4;" x="202.076064" xlink:href="#me070ca9571" y="246.229116"/>
     <use style="fill:#1f77b4;stroke:#1f77b4;" x="203.652056" xlink:href="#me070ca9571" y="201.035961"/>
     <use style="fill:#1f77b4;stroke:#1f77b4;" x="205.228049" xlink:href="#me070ca9571" y="225.802475"/>
     <use style="fill:#1f77b4;stroke:#1f77b4;" x="206.804042" xlink:href="#me070ca9571" y="206.901839"/>
     <use style="fill:#1f77b4;stroke:#1f77b4;" x="208.380035" xlink:href="#me070ca9571" y="215.898192"/>
     <use style="fill:#1f77b4;stroke:#1f77b4;" x="209.956028" xlink:href="#me070ca9571" y="210.333016"/>
     <use style="fill:#1f77b4;stroke:#1f77b4;" x="211.532021" xlink:href="#me070ca9571" y="203.53764"/>
     <use style="fill:#1f77b4;stroke:#1f77b4;" x="213.108014" xlink:href="#me070ca9571" y="203.024657"/>
     <use style="fill:#1f77b4;stroke:#1f77b4;" x="214.684007" xlink:href="#me070ca9571" y="205.635829"/>
     <use style="fill:#1f77b4;stroke:#1f77b4;" x="216.26" xlink:href="#me070ca9571" y="253.376486"/>
     <use style="fill:#1f77b4;stroke:#1f77b4;" x="217.835993" xlink:href="#me070ca9571" y="219.013623"/>
     <use style="fill:#1f77b4;stroke:#1f77b4;" x="219.411986" xlink:href="#me070ca9571" y="216.686683"/>
     <use style="fill:#1f77b4;stroke:#1f77b4;" x="220.987979" xlink:href="#me070ca9571" y="203.736207"/>
     <use style="fill:#1f77b4;stroke:#1f77b4;" x="222.563972" xlink:href="#me070ca9571" y="217.092376"/>
     <use style="fill:#1f77b4;stroke:#1f77b4;" x="224.139965" xlink:href="#me070ca9571" y="205.82288"/>
     <use style="fill:#1f77b4;stroke:#1f77b4;" x="225.715958" xlink:href="#me070ca9571" y="208.389493"/>
     <use style="fill:#1f77b4;stroke:#1f77b4;" x="227.291951" xlink:href="#me070ca9571" y="210.525272"/>
     <use style="fill:#1f77b4;stroke:#1f77b4;" x="228.867944" xlink:href="#me070ca9571" y="216.86008"/>
     <use style="fill:#1f77b4;stroke:#1f77b4;" x="230.443936" xlink:href="#me070ca9571" y="201.736673"/>
     <use style="fill:#1f77b4;stroke:#1f77b4;" x="232.019929" xlink:href="#me070ca9571" y="203.405978"/>
     <use style="fill:#1f77b4;stroke:#1f77b4;" x="233.595922" xlink:href="#me070ca9571" y="209.676721"/>
     <use style="fill:#1f77b4;stroke:#1f77b4;" x="235.171915" xlink:href="#me070ca9571" y="209.829661"/>
     <use style="fill:#1f77b4;stroke:#1f77b4;" x="236.747908" xlink:href="#me070ca9571" y="215.300499"/>
     <use style="fill:#1f77b4;stroke:#1f77b4;" x="238.323901" xlink:href="#me070ca9571" y="222.113753"/>
     <use style="fill:#1f77b4;stroke:#1f77b4;" x="239.899894" xlink:href="#me070ca9571" y="205.225921"/>
     <use style="fill:#1f77b4;stroke:#1f77b4;" x="241.475887" xlink:href="#me070ca9571" y="261.216"/>
     <use style="fill:#1f77b4;stroke:#1f77b4;" x="243.05188" xlink:href="#me070ca9571" y="204.735191"/>
     <use style="fill:#1f77b4;stroke:#1f77b4;" x="244.627873" xlink:href="#me070ca9571" y="216.326926"/>
     <use style="fill:#1f77b4;stroke:#1f77b4;" x="246.203866" xlink:href="#me070ca9571" y="207.633582"/>
     <use style="fill:#1f77b4;stroke:#1f77b4;" x="247.779859" xlink:href="#me070ca9571" y="219.548321"/>
     <use style="fill:#1f77b4;stroke:#1f77b4;" x="249.355852" xlink:href="#me070ca9571" y="210.976045"/>
     <use style="fill:#1f77b4;stroke:#1f77b4;" x="250.931845" xlink:href="#me070ca9571" y="258.466363"/>
     <use style="fill:#1f77b4;stroke:#1f77b4;" x="252.507838" xlink:href="#me070ca9571" y="207.713176"/>
     <use style="fill:#1f77b4;stroke:#1f77b4;" x="254.083831" xlink:href="#me070ca9571" y="211.803351"/>
     <use style="fill:#1f77b4;stroke:#1f77b4;" x="255.659823" xlink:href="#me070ca9571" y="210.96177"/>
     <use style="fill:#1f77b4;stroke:#1f77b4;" x="257.235816" xlink:href="#me070ca9571" y="226.694761"/>
     <use style="fill:#1f77b4;stroke:#1f77b4;" x="258.811809" xlink:href="#me070ca9571" y="210.299271"/>
     <use style="fill:#1f77b4;stroke:#1f77b4;" x="260.387802" xlink:href="#me070ca9571" y="204.82174"/>
     <use style="fill:#1f77b4;stroke:#1f77b4;" x="261.963795" xlink:href="#me070ca9571" y="206.231445"/>
     <use style="fill:#1f77b4;stroke:#1f77b4;" x="263.539788" xlink:href="#me070ca9571" y="204.246421"/>
     <use style="fill:#1f77b4;stroke:#1f77b4;" x="265.115781" xlink:href="#me070ca9571" y="208.776278"/>
     <use style="fill:#1f77b4;stroke:#1f77b4;" x="266.691774" xlink:href="#me070ca9571" y="212.504285"/>
     <use style="fill:#1f77b4;stroke:#1f77b4;" x="268.267767" xlink:href="#me070ca9571" y="207.882191"/>
     <use style="fill:#1f77b4;stroke:#1f77b4;" x="269.84376" xlink:href="#me070ca9571" y="209.328795"/>
     <use style="fill:#1f77b4;stroke:#1f77b4;" x="271.419753" xlink:href="#me070ca9571" y="208.896319"/>
     <use style="fill:#1f77b4;stroke:#1f77b4;" x="272.995746" xlink:href="#me070ca9571" y="214.280802"/>
     <use style="fill:#1f77b4;stroke:#1f77b4;" x="274.571739" xlink:href="#me070ca9571" y="210.714219"/>
     <use style="fill:#1f77b4;stroke:#1f77b4;" x="276.147732" xlink:href="#me070ca9571" y="226.606078"/>
     <use style="fill:#1f77b4;stroke:#1f77b4;" x="277.723725" xlink:href="#me070ca9571" y="211.798433"/>
     <use style="fill:#1f77b4;stroke:#1f77b4;" x="279.299718" xlink:href="#me070ca9571" y="209.506798"/>
     <use style="fill:#1f77b4;stroke:#1f77b4;" x="280.875711" xlink:href="#me070ca9571" y="216.503665"/>
     <use style="fill:#1f77b4;stroke:#1f77b4;" x="282.451703" xlink:href="#me070ca9571" y="207.197652"/>
     <use style="fill:#1f77b4;stroke:#1f77b4;" x="284.027696" xlink:href="#me070ca9571" y="207.112328"/>
     <use style="fill:#1f77b4;stroke:#1f77b4;" x="285.603689" xlink:href="#me070ca9571" y="229.197988"/>
     <use style="fill:#1f77b4;stroke:#1f77b4;" x="287.179682" xlink:href="#me070ca9571" y="218.316193"/>
     <use style="fill:#1f77b4;stroke:#1f77b4;" x="288.755675" xlink:href="#me070ca9571" y="222.124553"/>
     <use style="fill:#1f77b4;stroke:#1f77b4;" x="290.331668" xlink:href="#me070ca9571" y="212.873045"/>
     <use style="fill:#1f77b4;stroke:#1f77b4;" x="291.907661" xlink:href="#me070ca9571" y="219.83181"/>
     <use style="fill:#1f77b4;stroke:#1f77b4;" x="293.483654" xlink:href="#me070ca9571" y="209.275214"/>
     <use style="fill:#1f77b4;stroke:#1f77b4;" x="295.059647" xlink:href="#me070ca9571" y="207.935621"/>
     <use style="fill:#1f77b4;stroke:#1f77b4;" x="296.63564" xlink:href="#me070ca9571" y="225.118544"/>
     <use style="fill:#1f77b4;stroke:#1f77b4;" x="298.211633" xlink:href="#me070ca9571" y="201.555273"/>
     <use style="fill:#1f77b4;stroke:#1f77b4;" x="299.787626" xlink:href="#me070ca9571" y="227.43504"/>
     <use style="fill:#1f77b4;stroke:#1f77b4;" x="301.363619" xlink:href="#me070ca9571" y="213.997828"/>
     <use style="fill:#1f77b4;stroke:#1f77b4;" x="302.939612" xlink:href="#me070ca9571" y="222.786666"/>
     <use style="fill:#1f77b4;stroke:#1f77b4;" x="304.515605" xlink:href="#me070ca9571" y="206.15733"/>
     <use style="fill:#1f77b4;stroke:#1f77b4;" x="306.091598" xlink:href="#me070ca9571" y="203.293801"/>
     <use style="fill:#1f77b4;stroke:#1f77b4;" x="307.66759" xlink:href="#me070ca9571" y="218.476912"/>
     <use style="fill:#1f77b4;stroke:#1f77b4;" x="309.243583" xlink:href="#me070ca9571" y="222.680989"/>
     <use style="fill:#1f77b4;stroke:#1f77b4;" x="310.819576" xlink:href="#me070ca9571" y="204.03184"/>
     <use style="fill:#1f77b4;stroke:#1f77b4;" x="312.395569" xlink:href="#me070ca9571" y="213.278279"/>
     <use style="fill:#1f77b4;stroke:#1f77b4;" x="313.971562" xlink:href="#me070ca9571" y="207.615625"/>
     <use style="fill:#1f77b4;stroke:#1f77b4;" x="315.547555" xlink:href="#me070ca9571" y="221.485005"/>
     <use style="fill:#1f77b4;stroke:#1f77b4;" x="317.123548" xlink:href="#me070ca9571" y="203.598712"/>
     <use style="fill:#1f77b4;stroke:#1f77b4;" x="318.699541" xlink:href="#me070ca9571" y="214.230367"/>
     <use style="fill:#1f77b4;stroke:#1f77b4;" x="320.275534" xlink:href="#me070ca9571" y="215.586603"/>
     <use style="fill:#1f77b4;stroke:#1f77b4;" x="321.851527" xlink:href="#me070ca9571" y="216.370392"/>
     <use style="fill:#1f77b4;stroke:#1f77b4;" x="323.42752" xlink:href="#me070ca9571" y="204.566531"/>
     <use style="fill:#1f77b4;stroke:#1f77b4;" x="325.003513" xlink:href="#me070ca9571" y="207.792488"/>
     <use style="fill:#1f77b4;stroke:#1f77b4;" x="326.579506" xlink:href="#me070ca9571" y="218.034204"/>
     <use style="fill:#1f77b4;stroke:#1f77b4;" x="328.155499" xlink:href="#me070ca9571" y="206.057343"/>
     <use style="fill:#1f77b4;stroke:#1f77b4;" x="329.731492" xlink:href="#me070ca9571" y="222.145039"/>
     <use style="fill:#1f77b4;stroke:#1f77b4;" x="331.307485" xlink:href="#me070ca9571" y="208.357713"/>
     <use style="fill:#1f77b4;stroke:#1f77b4;" x="332.883477" xlink:href="#me070ca9571" y="210.844225"/>
     <use style="fill:#1f77b4;stroke:#1f77b4;" x="334.45947" xlink:href="#me070ca9571" y="203.74263"/>
     <use style="fill:#1f77b4;stroke:#1f77b4;" x="336.035463" xlink:href="#me070ca9571" y="205.625404"/>
     <use style="fill:#1f77b4;stroke:#1f77b4;" x="337.611456" xlink:href="#me070ca9571" y="206.127972"/>
     <use style="fill:#1f77b4;stroke:#1f77b4;" x="339.187449" xlink:href="#me070ca9571" y="231.166162"/>
     <use style="fill:#1f77b4;stroke:#1f77b4;" x="340.763442" xlink:href="#me070ca9571" y="212.891141"/>
     <use style="fill:#1f77b4;stroke:#1f77b4;" x="342.339435" xlink:href="#me070ca9571" y="233.939413"/>
     <use style="fill:#1f77b4;stroke:#1f77b4;" x="343.915428" xlink:href="#me070ca9571" y="204.115123"/>
     <use style="fill:#1f77b4;stroke:#1f77b4;" x="345.491421" xlink:href="#me070ca9571" y="211.218005"/>
     <use style="fill:#1f77b4;stroke:#1f77b4;" x="347.067414" xlink:href="#me070ca9571" y="209.169624"/>
     <use style="fill:#1f77b4;stroke:#1f77b4;" x="348.643407" xlink:href="#me070ca9571" y="209.662312"/>
     <use style="fill:#1f77b4;stroke:#1f77b4;" x="350.2194" xlink:href="#me070ca9571" y="217.765558"/>
     <use style="fill:#1f77b4;stroke:#1f77b4;" x="351.795393" xlink:href="#me070ca9571" y="207.993356"/>
     <use style="fill:#1f77b4;stroke:#1f77b4;" x="353.371386" xlink:href="#me070ca9571" y="209.3981"/>
     <use style="fill:#1f77b4;stroke:#1f77b4;" x="354.947379" xlink:href="#me070ca9571" y="203.521824"/>
     <use style="fill:#1f77b4;stroke:#1f77b4;" x="356.523372" xlink:href="#me070ca9571" y="231.176693"/>
     <use style="fill:#1f77b4;stroke:#1f77b4;" x="358.099365" xlink:href="#me070ca9571" y="215.779107"/>
     <use style="fill:#1f77b4;stroke:#1f77b4;" x="359.675357" xlink:href="#me070ca9571" y="217.753539"/>
     <use style="fill:#1f77b4;stroke:#1f77b4;" x="361.25135" xlink:href="#me070ca9571" y="206.463427"/>
     <use style="fill:#1f77b4;stroke:#1f77b4;" x="362.827343" xlink:href="#me070ca9571" y="215.307851"/>
     <use style="fill:#1f77b4;stroke:#1f77b4;" x="364.403336" xlink:href="#me070ca9571" y="217.235912"/>
     <use style="fill:#1f77b4;stroke:#1f77b4;" x="365.979329" xlink:href="#me070ca9571" y="218.895384"/>
     <use style="fill:#1f77b4;stroke:#1f77b4;" x="367.555322" xlink:href="#me070ca9571" y="201.623671"/>
     <use style="fill:#1f77b4;stroke:#1f77b4;" x="369.131315" xlink:href="#me070ca9571" y="210.091048"/>
     <use style="fill:#1f77b4;stroke:#1f77b4;" x="370.707308" xlink:href="#me070ca9571" y="217.486109"/>
     <use style="fill:#1f77b4;stroke:#1f77b4;" x="372.283301" xlink:href="#me070ca9571" y="209.712824"/>
     <use style="fill:#1f77b4;stroke:#1f77b4;" x="373.859294" xlink:href="#me070ca9571" y="258.076365"/>
     <use style="fill:#1f77b4;stroke:#1f77b4;" x="375.435287" xlink:href="#me070ca9571" y="208.620879"/>
     <use style="fill:#1f77b4;stroke:#1f77b4;" x="376.233574" xlink:href="#me070ca9571" y="22383.514"/>
    </g>
   </g>
   <g id="line2d_62">
    <path clip-path="url(#p5c2756f994)" d="M 55.50872 67.149201 
L 57.084713 102.960555 
L 58.660706 143.986475 
L 60.236699 177.376277 
" style="fill:none;stroke:#2ca02c;stroke-dasharray:1.5,2.475;stroke-dashoffset:0;stroke-width:1.5;"/>
    <defs>
     <path d="M -3 3 
L 3 -3 
M -3 -3 
L 3 3 
" id="m1757a7e8c9" style="stroke:#2ca02c;"/>
    </defs>
    <g clip-path="url(#p5c2756f994)">
     <use style="fill:#2ca02c;stroke:#2ca02c;" x="55.50872" xlink:href="#m1757a7e8c9" y="67.149201"/>
     <use style="fill:#2ca02c;stroke:#2ca02c;" x="57.084713" xlink:href="#m1757a7e8c9" y="102.960555"/>
     <use style="fill:#2ca02c;stroke:#2ca02c;" x="58.660706" xlink:href="#m1757a7e8c9" y="143.986475"/>
     <use style="fill:#2ca02c;stroke:#2ca02c;" x="60.236699" xlink:href="#m1757a7e8c9" y="177.376277"/>
    </g>
   </g>
   <g id="line2d_63">
    <path clip-path="url(#p5c2756f994)" d="M 55.50872 119.152639 
L 63.679627 311.86825 
L 63.679627 311.86825 
" style="fill:none;stroke:#000000;stroke-dasharray:5.55,2.4;stroke-dashoffset:0;stroke-width:1.5;"/>
   </g>
   <g id="patch_3">
    <path d="M 37.7 273.312 
L 37.7 7.2 
" style="fill:none;stroke:#000000;stroke-linecap:square;stroke-linejoin:miter;stroke-width:0.8;"/>
   </g>
   <g id="patch_4">
    <path d="M 394.82 273.312 
L 394.82 7.2 
" style="fill:none;stroke:#000000;stroke-linecap:square;stroke-linejoin:miter;stroke-width:0.8;"/>
   </g>
   <g id="patch_5">
    <path d="M 37.7 273.312 
L 394.82 273.312 
" style="fill:none;stroke:#000000;stroke-linecap:square;stroke-linejoin:miter;stroke-width:0.8;"/>
   </g>
   <g id="patch_6">
    <path d="M 37.7 7.2 
L 394.82 7.2 
" style="fill:none;stroke:#000000;stroke-linecap:square;stroke-linejoin:miter;stroke-width:0.8;"/>
   </g>
   <g id="legend_1">
    <g id="patch_7">
     <path d="M 286.72 59.25625 
L 387.82 59.25625 
Q 389.82 59.25625 389.82 57.25625 
L 389.82 14.2 
Q 389.82 12.2 387.82 12.2 
L 286.72 12.2 
Q 284.72 12.2 284.72 14.2 
L 284.72 57.25625 
Q 284.72 59.25625 286.72 59.25625 
z
" style="fill:#ffffff;opacity:0.8;"/>
    </g>
    <g id="line2d_64">
     <path d="M 288.72 20.298437 
L 308.72 20.298437 
" style="fill:none;stroke:#1f77b4;stroke-linecap:square;stroke-width:1.5;"/>
    </g>
    <g id="line2d_65">
     <g>
      <use style="fill:#1f77b4;stroke:#1f77b4;" x="298.72" xlink:href="#me070ca9571" y="20.298437"/>
     </g>
    </g>
    <g id="text_13">
     <!-- APD$_n$ - APD$_\infty$ -->
     <defs>
      <path d="M 34.1875 63.1875 
L 20.796875 26.90625 
L 47.609375 26.90625 
z
M 28.609375 72.90625 
L 39.796875 72.90625 
L 67.578125 0 
L 57.328125 0 
L 50.6875 18.703125 
L 17.828125 18.703125 
L 11.1875 0 
L 0.78125 0 
z
" id="DejaVuSans-65"/>
      <path d="M 19.671875 64.796875 
L 19.671875 37.40625 
L 32.078125 37.40625 
Q 38.96875 37.40625 42.71875 40.96875 
Q 46.484375 44.53125 46.484375 51.125 
Q 46.484375 57.671875 42.71875 61.234375 
Q 38.96875 64.796875 32.078125 64.796875 
z
M 9.8125 72.90625 
L 32.078125 72.90625 
Q 44.34375 72.90625 50.609375 67.359375 
Q 56.890625 61.8125 56.890625 51.125 
Q 56.890625 40.328125 50.609375 34.8125 
Q 44.34375 29.296875 32.078125 29.296875 
L 19.671875 29.296875 
L 19.671875 0 
L 9.8125 0 
z
" id="DejaVuSans-80"/>
      <path d="M 19.671875 64.796875 
L 19.671875 8.109375 
L 31.59375 8.109375 
Q 46.6875 8.109375 53.6875 14.9375 
Q 60.6875 21.78125 60.6875 36.53125 
Q 60.6875 51.171875 53.6875 57.984375 
Q 46.6875 64.796875 31.59375 64.796875 
z
M 9.8125 72.90625 
L 30.078125 72.90625 
Q 51.265625 72.90625 61.171875 64.09375 
Q 71.09375 55.28125 71.09375 36.53125 
Q 71.09375 17.671875 61.125 8.828125 
Q 51.171875 0 30.078125 0 
L 9.8125 0 
z
" id="DejaVuSans-68"/>
      <path d="M 55.71875 33.015625 
L 49.3125 0 
L 40.28125 0 
L 46.6875 32.671875 
Q 47.125 34.96875 47.359375 36.71875 
Q 47.609375 38.484375 47.609375 39.5 
Q 47.609375 43.609375 45.015625 45.890625 
Q 42.4375 48.1875 37.796875 48.1875 
Q 30.5625 48.1875 25.34375 43.375 
Q 20.125 38.578125 18.5 30.328125 
L 12.5 0 
L 3.515625 0 
L 14.109375 54.6875 
L 23.09375 54.6875 
L 21.296875 46.09375 
Q 25.046875 50.828125 30.3125 53.40625 
Q 35.59375 56 41.40625 56 
Q 48.640625 56 52.609375 52.09375 
Q 56.59375 48.1875 56.59375 41.109375 
Q 56.59375 39.359375 56.375 37.359375 
Q 56.15625 35.359375 55.71875 33.015625 
z
" id="DejaVuSans-Oblique-110"/>
      <path id="DejaVuSans-32"/>
      <path d="M 4.890625 31.390625 
L 31.203125 31.390625 
L 31.203125 23.390625 
L 4.890625 23.390625 
z
" id="DejaVuSans-45"/>
      <path d="M 45.5625 17.046875 
Q 44.046875 18.796875 41.65625 22.90625 
Q 38.375 17.046875 35.5 14.453125 
Q 31.890625 11.328125 26.265625 11.328125 
Q 19.671875 11.328125 15.328125 16.265625 
Q 10.75 21.4375 10.75 29.984375 
Q 10.75 38.1875 15.328125 43.75 
Q 19.4375 48.6875 26.375 48.6875 
Q 29.9375 48.6875 32.5625 47.21875 
Q 35.640625 45.609375 37.75 42.828125 
Q 39.703125 40.328125 41.65625 36.96875 
Q 44.921875 42.828125 47.796875 45.40625 
Q 51.421875 48.53125 57.03125 48.53125 
Q 63.625 48.53125 67.96875 43.609375 
Q 72.5625 38.421875 72.5625 29.890625 
Q 72.5625 21.6875 67.96875 16.109375 
Q 63.875 11.1875 56.9375 11.1875 
Q 53.375 11.1875 50.734375 12.640625 
Q 48.09375 13.96875 45.5625 17.046875 
z
M 25.734375 17.71875 
Q 33.796875 17.71875 38.625 29.4375 
Q 32.421875 42.234375 25.734375 42.234375 
Q 20.84375 42.234375 18.359375 38.71875 
Q 15.671875 34.96875 15.671875 29.984375 
Q 15.671875 24.515625 18.359375 21.140625 
Q 21.09375 17.71875 25.734375 17.71875 
z
M 57.5625 42.140625 
Q 50.296875 42.140625 44.671875 30.421875 
Q 50.828125 17.625 57.5625 17.625 
Q 62.453125 17.625 64.9375 21.140625 
Q 67.625 24.90625 67.625 29.890625 
Q 67.625 35.359375 64.9375 38.71875 
Q 62.203125 42.140625 57.5625 42.140625 
z
" id="DejaVuSans-8734"/>
     </defs>
     <g transform="translate(316.72 23.798437)scale(0.1 -0.1)">
      <use transform="translate(0 0.09375)" xlink:href="#DejaVuSans-65"/>
      <use transform="translate(68.408203 0.09375)" xlink:href="#DejaVuSans-80"/>
      <use transform="translate(128.710938 0.09375)" xlink:href="#DejaVuSans-68"/>
      <use transform="translate(206.669922 -16.3125)scale(0.7)" xlink:href="#DejaVuSans-Oblique-110"/>
      <use transform="translate(253.769531 0.09375)" xlink:href="#DejaVuSans-32"/>
      <use transform="translate(285.556641 0.09375)" xlink:href="#DejaVuSans-45"/>
      <use transform="translate(321.640625 0.09375)" xlink:href="#DejaVuSans-32"/>
      <use transform="translate(353.427734 0.09375)" xlink:href="#DejaVuSans-65"/>
      <use transform="translate(421.835938 0.09375)" xlink:href="#DejaVuSans-80"/>
      <use transform="translate(482.138672 0.09375)" xlink:href="#DejaVuSans-68"/>
      <use transform="translate(560.097656 -16.3125)scale(0.7)" xlink:href="#DejaVuSans-8734"/>
     </g>
    </g>
    <g id="line2d_66">
     <path d="M 288.72 34.976562 
L 308.72 34.976562 
" style="fill:none;stroke:#2ca02c;stroke-dasharray:1.5,2.475;stroke-dashoffset:0;stroke-width:1.5;"/>
    </g>
    <g id="line2d_67">
     <g>
      <use style="fill:#2ca02c;stroke:#2ca02c;" x="298.72" xlink:href="#m1757a7e8c9" y="34.976562"/>
     </g>
    </g>
    <g id="text_14">
     <!-- linear region -->
     <defs>
      <path d="M 9.421875 75.984375 
L 18.40625 75.984375 
L 18.40625 0 
L 9.421875 0 
z
" id="DejaVuSans-108"/>
      <path d="M 9.421875 54.6875 
L 18.40625 54.6875 
L 18.40625 0 
L 9.421875 0 
z
M 9.421875 75.984375 
L 18.40625 75.984375 
L 18.40625 64.59375 
L 9.421875 64.59375 
z
" id="DejaVuSans-105"/>
      <path d="M 54.890625 33.015625 
L 54.890625 0 
L 45.90625 0 
L 45.90625 32.71875 
Q 45.90625 40.484375 42.875 44.328125 
Q 39.84375 48.1875 33.796875 48.1875 
Q 26.515625 48.1875 22.3125 43.546875 
Q 18.109375 38.921875 18.109375 30.90625 
L 18.109375 0 
L 9.078125 0 
L 9.078125 54.6875 
L 18.109375 54.6875 
L 18.109375 46.1875 
Q 21.34375 51.125 25.703125 53.5625 
Q 30.078125 56 35.796875 56 
Q 45.21875 56 50.046875 50.171875 
Q 54.890625 44.34375 54.890625 33.015625 
z
" id="DejaVuSans-110"/>
      <path d="M 56.203125 29.59375 
L 56.203125 25.203125 
L 14.890625 25.203125 
Q 15.484375 15.921875 20.484375 11.0625 
Q 25.484375 6.203125 34.421875 6.203125 
Q 39.59375 6.203125 44.453125 7.46875 
Q 49.3125 8.734375 54.109375 11.28125 
L 54.109375 2.78125 
Q 49.265625 0.734375 44.1875 -0.34375 
Q 39.109375 -1.421875 33.890625 -1.421875 
Q 20.796875 -1.421875 13.15625 6.1875 
Q 5.515625 13.8125 5.515625 26.8125 
Q 5.515625 40.234375 12.765625 48.109375 
Q 20.015625 56 32.328125 56 
Q 43.359375 56 49.78125 48.890625 
Q 56.203125 41.796875 56.203125 29.59375 
z
M 47.21875 32.234375 
Q 47.125 39.59375 43.09375 43.984375 
Q 39.0625 48.390625 32.421875 48.390625 
Q 24.90625 48.390625 20.390625 44.140625 
Q 15.875 39.890625 15.1875 32.171875 
z
" id="DejaVuSans-101"/>
      <path d="M 34.28125 27.484375 
Q 23.390625 27.484375 19.1875 25 
Q 14.984375 22.515625 14.984375 16.5 
Q 14.984375 11.71875 18.140625 8.90625 
Q 21.296875 6.109375 26.703125 6.109375 
Q 34.1875 6.109375 38.703125 11.40625 
Q 43.21875 16.703125 43.21875 25.484375 
L 43.21875 27.484375 
z
M 52.203125 31.203125 
L 52.203125 0 
L 43.21875 0 
L 43.21875 8.296875 
Q 40.140625 3.328125 35.546875 0.953125 
Q 30.953125 -1.421875 24.3125 -1.421875 
Q 15.921875 -1.421875 10.953125 3.296875 
Q 6 8.015625 6 15.921875 
Q 6 25.140625 12.171875 29.828125 
Q 18.359375 34.515625 30.609375 34.515625 
L 43.21875 34.515625 
L 43.21875 35.40625 
Q 43.21875 41.609375 39.140625 45 
Q 35.0625 48.390625 27.6875 48.390625 
Q 23 48.390625 18.546875 47.265625 
Q 14.109375 46.140625 10.015625 43.890625 
L 10.015625 52.203125 
Q 14.9375 54.109375 19.578125 55.046875 
Q 24.21875 56 28.609375 56 
Q 40.484375 56 46.34375 49.84375 
Q 52.203125 43.703125 52.203125 31.203125 
z
" id="DejaVuSans-97"/>
      <path d="M 41.109375 46.296875 
Q 39.59375 47.171875 37.8125 47.578125 
Q 36.03125 48 33.890625 48 
Q 26.265625 48 22.1875 43.046875 
Q 18.109375 38.09375 18.109375 28.8125 
L 18.109375 0 
L 9.078125 0 
L 9.078125 54.6875 
L 18.109375 54.6875 
L 18.109375 46.1875 
Q 20.953125 51.171875 25.484375 53.578125 
Q 30.03125 56 36.53125 56 
Q 37.453125 56 38.578125 55.875 
Q 39.703125 55.765625 41.0625 55.515625 
z
" id="DejaVuSans-114"/>
      <path d="M 45.40625 27.984375 
Q 45.40625 37.75 41.375 43.109375 
Q 37.359375 48.484375 30.078125 48.484375 
Q 22.859375 48.484375 18.828125 43.109375 
Q 14.796875 37.75 14.796875 27.984375 
Q 14.796875 18.265625 18.828125 12.890625 
Q 22.859375 7.515625 30.078125 7.515625 
Q 37.359375 7.515625 41.375 12.890625 
Q 45.40625 18.265625 45.40625 27.984375 
z
M 54.390625 6.78125 
Q 54.390625 -7.171875 48.1875 -13.984375 
Q 42 -20.796875 29.203125 -20.796875 
Q 24.46875 -20.796875 20.265625 -20.09375 
Q 16.0625 -19.390625 12.109375 -17.921875 
L 12.109375 -9.1875 
Q 16.0625 -11.328125 19.921875 -12.34375 
Q 23.78125 -13.375 27.78125 -13.375 
Q 36.625 -13.375 41.015625 -8.765625 
Q 45.40625 -4.15625 45.40625 5.171875 
L 45.40625 9.625 
Q 42.625 4.78125 38.28125 2.390625 
Q 33.9375 0 27.875 0 
Q 17.828125 0 11.671875 7.65625 
Q 5.515625 15.328125 5.515625 27.984375 
Q 5.515625 40.671875 11.671875 48.328125 
Q 17.828125 56 27.875 56 
Q 33.9375 56 38.28125 53.609375 
Q 42.625 51.21875 45.40625 46.390625 
L 45.40625 54.6875 
L 54.390625 54.6875 
z
" id="DejaVuSans-103"/>
      <path d="M 30.609375 48.390625 
Q 23.390625 48.390625 19.1875 42.75 
Q 14.984375 37.109375 14.984375 27.296875 
Q 14.984375 17.484375 19.15625 11.84375 
Q 23.34375 6.203125 30.609375 6.203125 
Q 37.796875 6.203125 41.984375 11.859375 
Q 46.1875 17.53125 46.1875 27.296875 
Q 46.1875 37.015625 41.984375 42.703125 
Q 37.796875 48.390625 30.609375 48.390625 
z
M 30.609375 56 
Q 42.328125 56 49.015625 48.375 
Q 55.71875 40.765625 55.71875 27.296875 
Q 55.71875 13.875 49.015625 6.21875 
Q 42.328125 -1.421875 30.609375 -1.421875 
Q 18.84375 -1.421875 12.171875 6.21875 
Q 5.515625 13.875 5.515625 27.296875 
Q 5.515625 40.765625 12.171875 48.375 
Q 18.84375 56 30.609375 56 
z
" id="DejaVuSans-111"/>
     </defs>
     <g transform="translate(316.72 38.476562)scale(0.1 -0.1)">
      <use xlink:href="#DejaVuSans-108"/>
      <use x="27.783203" xlink:href="#DejaVuSans-105"/>
      <use x="55.566406" xlink:href="#DejaVuSans-110"/>
      <use x="118.945312" xlink:href="#DejaVuSans-101"/>
      <use x="180.46875" xlink:href="#DejaVuSans-97"/>
      <use x="241.748047" xlink:href="#DejaVuSans-114"/>
      <use x="282.861328" xlink:href="#DejaVuSans-32"/>
      <use x="314.648438" xlink:href="#DejaVuSans-114"/>
      <use x="353.511719" xlink:href="#DejaVuSans-101"/>
      <use x="415.035156" xlink:href="#DejaVuSans-103"/>
      <use x="478.511719" xlink:href="#DejaVuSans-105"/>
      <use x="506.294922" xlink:href="#DejaVuSans-111"/>
      <use x="567.476562" xlink:href="#DejaVuSans-110"/>
     </g>
    </g>
    <g id="line2d_68">
     <path d="M 288.72 49.65625 
L 308.72 49.65625 
" style="fill:none;stroke:#000000;stroke-dasharray:5.55,2.4;stroke-dashoffset:0;stroke-width:1.5;"/>
    </g>
    <g id="line2d_69"/>
    <g id="text_15">
     <!-- $ \exp(-1.949 k)$ -->
     <defs>
      <path d="M 54.890625 54.6875 
L 35.109375 28.078125 
L 55.90625 0 
L 45.3125 0 
L 29.390625 21.484375 
L 13.484375 0 
L 2.875 0 
L 24.125 28.609375 
L 4.6875 54.6875 
L 15.28125 54.6875 
L 29.78125 35.203125 
L 44.28125 54.6875 
z
" id="DejaVuSans-120"/>
      <path d="M 18.109375 8.203125 
L 18.109375 -20.796875 
L 9.078125 -20.796875 
L 9.078125 54.6875 
L 18.109375 54.6875 
L 18.109375 46.390625 
Q 20.953125 51.265625 25.265625 53.625 
Q 29.59375 56 35.59375 56 
Q 45.5625 56 51.78125 48.09375 
Q 58.015625 40.1875 58.015625 27.296875 
Q 58.015625 14.40625 51.78125 6.484375 
Q 45.5625 -1.421875 35.59375 -1.421875 
Q 29.59375 -1.421875 25.265625 0.953125 
Q 20.953125 3.328125 18.109375 8.203125 
z
M 48.6875 27.296875 
Q 48.6875 37.203125 44.609375 42.84375 
Q 40.53125 48.484375 33.40625 48.484375 
Q 26.265625 48.484375 22.1875 42.84375 
Q 18.109375 37.203125 18.109375 27.296875 
Q 18.109375 17.390625 22.1875 11.75 
Q 26.265625 6.109375 33.40625 6.109375 
Q 40.53125 6.109375 44.609375 11.75 
Q 48.6875 17.390625 48.6875 27.296875 
z
" id="DejaVuSans-112"/>
      <path d="M 31 75.875 
Q 24.46875 64.65625 21.28125 53.65625 
Q 18.109375 42.671875 18.109375 31.390625 
Q 18.109375 20.125 21.3125 9.0625 
Q 24.515625 -2 31 -13.1875 
L 23.1875 -13.1875 
Q 15.875 -1.703125 12.234375 9.375 
Q 8.59375 20.453125 8.59375 31.390625 
Q 8.59375 42.28125 12.203125 53.3125 
Q 15.828125 64.359375 23.1875 75.875 
z
" id="DejaVuSans-40"/>
      <path d="M 10.6875 12.40625 
L 21 12.40625 
L 21 0 
L 10.6875 0 
z
" id="DejaVuSans-46"/>
      <path d="M 10.984375 1.515625 
L 10.984375 10.5 
Q 14.703125 8.734375 18.5 7.8125 
Q 22.3125 6.890625 25.984375 6.890625 
Q 35.75 6.890625 40.890625 13.453125 
Q 46.046875 20.015625 46.78125 33.40625 
Q 43.953125 29.203125 39.59375 26.953125 
Q 35.25 24.703125 29.984375 24.703125 
Q 19.046875 24.703125 12.671875 31.3125 
Q 6.296875 37.9375 6.296875 49.421875 
Q 6.296875 60.640625 12.9375 67.421875 
Q 19.578125 74.21875 30.609375 74.21875 
Q 43.265625 74.21875 49.921875 64.515625 
Q 56.59375 54.828125 56.59375 36.375 
Q 56.59375 19.140625 48.40625 8.859375 
Q 40.234375 -1.421875 26.421875 -1.421875 
Q 22.703125 -1.421875 18.890625 -0.6875 
Q 15.09375 0.046875 10.984375 1.515625 
z
M 30.609375 32.421875 
Q 37.25 32.421875 41.125 36.953125 
Q 45.015625 41.5 45.015625 49.421875 
Q 45.015625 57.28125 41.125 61.84375 
Q 37.25 66.40625 30.609375 66.40625 
Q 23.96875 66.40625 20.09375 61.84375 
Q 16.21875 57.28125 16.21875 49.421875 
Q 16.21875 41.5 20.09375 36.953125 
Q 23.96875 32.421875 30.609375 32.421875 
z
" id="DejaVuSans-57"/>
      <path d="M 8.015625 75.875 
L 15.828125 75.875 
Q 23.140625 64.359375 26.78125 53.3125 
Q 30.421875 42.28125 30.421875 31.390625 
Q 30.421875 20.453125 26.78125 9.375 
Q 23.140625 -1.703125 15.828125 -13.1875 
L 8.015625 -13.1875 
Q 14.5 -2 17.703125 9.0625 
Q 20.90625 20.125 20.90625 31.390625 
Q 20.90625 42.671875 17.703125 53.65625 
Q 14.5 64.65625 8.015625 75.875 
z
" id="DejaVuSans-41"/>
     </defs>
     <g transform="translate(316.72 53.15625)scale(0.1 -0.1)">
      <use transform="translate(0 0.015625)" xlink:href="#DejaVuSans-101"/>
      <use transform="translate(61.523438 0.015625)" xlink:href="#DejaVuSans-120"/>
      <use transform="translate(120.703125 0.015625)" xlink:href="#DejaVuSans-112"/>
      <use transform="translate(184.179688 0.015625)" xlink:href="#DejaVuSans-40"/>
      <use transform="translate(223.193359 0.015625)" xlink:href="#DejaVuSans-8722"/>
      <use transform="translate(306.982422 0.015625)" xlink:href="#DejaVuSans-49"/>
      <use transform="translate(370.605469 0.015625)" xlink:href="#DejaVuSans-46"/>
      <use transform="translate(402.392578 0.015625)" xlink:href="#DejaVuSans-57"/>
      <use transform="translate(466.015625 0.015625)" xlink:href="#DejaVuSans-52"/>
      <use transform="translate(529.638672 0.015625)" xlink:href="#DejaVuSans-57"/>
      <use transform="translate(593.261719 0.015625)" xlink:href="#DejaVuSans-Oblique-107"/>
      <use transform="translate(651.171875 0.015625)" xlink:href="#DejaVuSans-41"/>
     </g>
    </g>
   </g>
  </g>
 </g>
 <defs>
  <clipPath id="p5c2756f994">
   <rect height="266.112" width="357.12" x="37.7" y="7.2"/>
  </clipPath>
 </defs>
</svg>
