<?xml version="1.0" encoding="utf-8" standalone="no"?>
<!DOCTYPE svg PUBLIC "-//W3C//DTD SVG 1.1//EN"
  "http://www.w3.org/Graphics/SVG/1.1/DTD/svg11.dtd">
<!-- Created with matplotlib (https://matplotlib.org/) -->
<svg height="310.86825pt" version="1.1" viewBox="0 0 402.02 310.86825" width="402.02pt" xmlns="http://www.w3.org/2000/svg" xmlns:xlink="http://www.w3.org/1999/xlink">
 <defs>
  <style type="text/css">
*{stroke-linecap:butt;stroke-linejoin:round;}
  </style>
 </defs>
 <g id="figure_1">
  <g id="patch_1">
   <path d="M 0 310.86825 
L 402.02 310.86825 
L 402.02 0 
L 0 0 
z
" style="fill:#ffffff;"/>
  </g>
  <g id="axes_1">
   <g id="patch_2">
    <path d="M 37.7 273.312 
L 394.82 273.312 
L 394.82 7.2 
L 37.7 7.2 
z
" style="fill:#ffffff;"/>
   </g>
   <g id="matplotlib.axis_1">
    <g id="xtick_1">
     <g id="line2d_1">
      <defs>
       <path d="M 0 0 
L 0 3.5 
" id="m54a3b46010" style="stroke:#000000;stroke-width:0.8;"/>
      </defs>
      <g>
       <use style="stroke:#000000;stroke-width:0.8;" x="53.932727" xlink:href="#m54a3b46010" y="273.312"/>
      </g>
     </g>
     <g id="text_1">
      <!-- 0 -->
      <defs>
       <path d="M 31.78125 66.40625 
Q 24.171875 66.40625 20.328125 58.90625 
Q 16.5 51.421875 16.5 36.375 
Q 16.5 21.390625 20.328125 13.890625 
Q 24.171875 6.390625 31.78125 6.390625 
Q 39.453125 6.390625 43.28125 13.890625 
Q 47.125 21.390625 47.125 36.375 
Q 47.125 51.421875 43.28125 58.90625 
Q 39.453125 66.40625 31.78125 66.40625 
z
M 31.78125 74.21875 
Q 44.046875 74.21875 50.515625 64.515625 
Q 56.984375 54.828125 56.984375 36.375 
Q 56.984375 17.96875 50.515625 8.265625 
Q 44.046875 -1.421875 31.78125 -1.421875 
Q 19.53125 -1.421875 13.0625 8.265625 
Q 6.59375 17.96875 6.59375 36.375 
Q 6.59375 54.828125 13.0625 64.515625 
Q 19.53125 74.21875 31.78125 74.21875 
z
" id="DejaVuSans-48"/>
      </defs>
      <g transform="translate(50.751477 287.910437)scale(0.1 -0.1)">
       <use xlink:href="#DejaVuSans-48"/>
      </g>
     </g>
    </g>
    <g id="xtick_2">
     <g id="line2d_2">
      <g>
       <use style="stroke:#000000;stroke-width:0.8;" x="107.329856" xlink:href="#m54a3b46010" y="273.312"/>
      </g>
     </g>
     <g id="text_2">
      <!-- 50 -->
      <defs>
       <path d="M 10.796875 72.90625 
L 49.515625 72.90625 
L 49.515625 64.59375 
L 19.828125 64.59375 
L 19.828125 46.734375 
Q 21.96875 47.46875 24.109375 47.828125 
Q 26.265625 48.1875 28.421875 48.1875 
Q 40.625 48.1875 47.75 41.5 
Q 54.890625 34.8125 54.890625 23.390625 
Q 54.890625 11.625 47.5625 5.09375 
Q 40.234375 -1.421875 26.90625 -1.421875 
Q 22.3125 -1.421875 17.546875 -0.640625 
Q 12.796875 0.140625 7.71875 1.703125 
L 7.71875 11.625 
Q 12.109375 9.234375 16.796875 8.0625 
Q 21.484375 6.890625 26.703125 6.890625 
Q 35.15625 6.890625 40.078125 11.328125 
Q 45.015625 15.765625 45.015625 23.390625 
Q 45.015625 31 40.078125 35.4375 
Q 35.15625 39.890625 26.703125 39.890625 
Q 22.75 39.890625 18.8125 39.015625 
Q 14.890625 38.140625 10.796875 36.28125 
z
" id="DejaVuSans-53"/>
      </defs>
      <g transform="translate(100.967356 287.910437)scale(0.1 -0.1)">
       <use xlink:href="#DejaVuSans-53"/>
       <use x="63.623047" xlink:href="#DejaVuSans-48"/>
      </g>
     </g>
    </g>
    <g id="xtick_3">
     <g id="line2d_3">
      <g>
       <use style="stroke:#000000;stroke-width:0.8;" x="160.726986" xlink:href="#m54a3b46010" y="273.312"/>
      </g>
     </g>
     <g id="text_3">
      <!-- 100 -->
      <defs>
       <path d="M 12.40625 8.296875 
L 28.515625 8.296875 
L 28.515625 63.921875 
L 10.984375 60.40625 
L 10.984375 69.390625 
L 28.421875 72.90625 
L 38.28125 72.90625 
L 38.28125 8.296875 
L 54.390625 8.296875 
L 54.390625 0 
L 12.40625 0 
z
" id="DejaVuSans-49"/>
      </defs>
      <g transform="translate(151.183236 287.910437)scale(0.1 -0.1)">
       <use xlink:href="#DejaVuSans-49"/>
       <use x="63.623047" xlink:href="#DejaVuSans-48"/>
       <use x="127.246094" xlink:href="#DejaVuSans-48"/>
      </g>
     </g>
    </g>
    <g id="xtick_4">
     <g id="line2d_4">
      <g>
       <use style="stroke:#000000;stroke-width:0.8;" x="214.124115" xlink:href="#m54a3b46010" y="273.312"/>
      </g>
     </g>
     <g id="text_4">
      <!-- 150 -->
      <g transform="translate(204.580365 287.910437)scale(0.1 -0.1)">
       <use xlink:href="#DejaVuSans-49"/>
       <use x="63.623047" xlink:href="#DejaVuSans-53"/>
       <use x="127.246094" xlink:href="#DejaVuSans-48"/>
      </g>
     </g>
    </g>
    <g id="xtick_5">
     <g id="line2d_5">
      <g>
       <use style="stroke:#000000;stroke-width:0.8;" x="267.521244" xlink:href="#m54a3b46010" y="273.312"/>
      </g>
     </g>
     <g id="text_5">
      <!-- 200 -->
      <defs>
       <path d="M 19.1875 8.296875 
L 53.609375 8.296875 
L 53.609375 0 
L 7.328125 0 
L 7.328125 8.296875 
Q 12.9375 14.109375 22.625 23.890625 
Q 32.328125 33.6875 34.8125 36.53125 
Q 39.546875 41.84375 41.421875 45.53125 
Q 43.3125 49.21875 43.3125 52.78125 
Q 43.3125 58.59375 39.234375 62.25 
Q 35.15625 65.921875 28.609375 65.921875 
Q 23.96875 65.921875 18.8125 64.3125 
Q 13.671875 62.703125 7.8125 59.421875 
L 7.8125 69.390625 
Q 13.765625 71.78125 18.9375 73 
Q 24.125 74.21875 28.421875 74.21875 
Q 39.75 74.21875 46.484375 68.546875 
Q 53.21875 62.890625 53.21875 53.421875 
Q 53.21875 48.921875 51.53125 44.890625 
Q 49.859375 40.875 45.40625 35.40625 
Q 44.1875 33.984375 37.640625 27.21875 
Q 31.109375 20.453125 19.1875 8.296875 
z
" id="DejaVuSans-50"/>
      </defs>
      <g transform="translate(257.977494 287.910437)scale(0.1 -0.1)">
       <use xlink:href="#DejaVuSans-50"/>
       <use x="63.623047" xlink:href="#DejaVuSans-48"/>
       <use x="127.246094" xlink:href="#DejaVuSans-48"/>
      </g>
     </g>
    </g>
    <g id="xtick_6">
     <g id="line2d_6">
      <g>
       <use style="stroke:#000000;stroke-width:0.8;" x="320.918373" xlink:href="#m54a3b46010" y="273.312"/>
      </g>
     </g>
     <g id="text_6">
      <!-- 250 -->
      <g transform="translate(311.374623 287.910437)scale(0.1 -0.1)">
       <use xlink:href="#DejaVuSans-50"/>
       <use x="63.623047" xlink:href="#DejaVuSans-53"/>
       <use x="127.246094" xlink:href="#DejaVuSans-48"/>
      </g>
     </g>
    </g>
    <g id="xtick_7">
     <g id="line2d_7">
      <g>
       <use style="stroke:#000000;stroke-width:0.8;" x="374.315502" xlink:href="#m54a3b46010" y="273.312"/>
      </g>
     </g>
     <g id="text_7">
      <!-- 300 -->
      <defs>
       <path d="M 40.578125 39.3125 
Q 47.65625 37.796875 51.625 33 
Q 55.609375 28.21875 55.609375 21.1875 
Q 55.609375 10.40625 48.1875 4.484375 
Q 40.765625 -1.421875 27.09375 -1.421875 
Q 22.515625 -1.421875 17.65625 -0.515625 
Q 12.796875 0.390625 7.625 2.203125 
L 7.625 11.71875 
Q 11.71875 9.328125 16.59375 8.109375 
Q 21.484375 6.890625 26.8125 6.890625 
Q 36.078125 6.890625 40.9375 10.546875 
Q 45.796875 14.203125 45.796875 21.1875 
Q 45.796875 27.640625 41.28125 31.265625 
Q 36.765625 34.90625 28.71875 34.90625 
L 20.21875 34.90625 
L 20.21875 43.015625 
L 29.109375 43.015625 
Q 36.375 43.015625 40.234375 45.921875 
Q 44.09375 48.828125 44.09375 54.296875 
Q 44.09375 59.90625 40.109375 62.90625 
Q 36.140625 65.921875 28.71875 65.921875 
Q 24.65625 65.921875 20.015625 65.03125 
Q 15.375 64.15625 9.8125 62.3125 
L 9.8125 71.09375 
Q 15.4375 72.65625 20.34375 73.4375 
Q 25.25 74.21875 29.59375 74.21875 
Q 40.828125 74.21875 47.359375 69.109375 
Q 53.90625 64.015625 53.90625 55.328125 
Q 53.90625 49.265625 50.4375 45.09375 
Q 46.96875 40.921875 40.578125 39.3125 
z
" id="DejaVuSans-51"/>
      </defs>
      <g transform="translate(364.771752 287.910437)scale(0.1 -0.1)">
       <use xlink:href="#DejaVuSans-51"/>
       <use x="63.623047" xlink:href="#DejaVuSans-48"/>
       <use x="127.246094" xlink:href="#DejaVuSans-48"/>
      </g>
     </g>
    </g>
    <g id="text_8">
     <!-- $ k $ -->
     <defs>
      <path d="M 18.3125 75.984375 
L 27.296875 75.984375 
L 18.703125 31.6875 
L 49.515625 54.6875 
L 61.1875 54.6875 
L 26.8125 28.515625 
L 51.90625 0 
L 41.015625 0 
L 17.671875 26.703125 
L 12.5 0 
L 3.515625 0 
z
" id="DejaVuSans-Oblique-107"/>
     </defs>
     <g transform="translate(213.36 301.588562)scale(0.1 -0.1)">
      <use transform="translate(0 0.015625)" xlink:href="#DejaVuSans-Oblique-107"/>
     </g>
    </g>
   </g>
   <g id="matplotlib.axis_2">
    <g id="ytick_1">
     <g id="line2d_8">
      <defs>
       <path d="M 0 0 
L -3.5 0 
" id="m0077e8d8c5" style="stroke:#000000;stroke-width:0.8;"/>
      </defs>
      <g>
       <use style="stroke:#000000;stroke-width:0.8;" x="37.7" xlink:href="#m0077e8d8c5" y="262.982649"/>
      </g>
     </g>
     <g id="text_9">
      <!-- $\mathdefault{10^{-5}}$ -->
      <defs>
       <path d="M 10.59375 35.5 
L 73.1875 35.5 
L 73.1875 27.203125 
L 10.59375 27.203125 
z
" id="DejaVuSans-8722"/>
      </defs>
      <g transform="translate(7.2 266.781868)scale(0.1 -0.1)">
       <use transform="translate(0 0.684375)" xlink:href="#DejaVuSans-49"/>
       <use transform="translate(63.623047 0.684375)" xlink:href="#DejaVuSans-48"/>
       <use transform="translate(128.203125 38.965625)scale(0.7)" xlink:href="#DejaVuSans-8722"/>
       <use transform="translate(186.855469 38.965625)scale(0.7)" xlink:href="#DejaVuSans-53"/>
      </g>
     </g>
    </g>
    <g id="ytick_2">
     <g id="line2d_9">
      <g>
       <use style="stroke:#000000;stroke-width:0.8;" x="37.7" xlink:href="#m0077e8d8c5" y="228.696008"/>
      </g>
     </g>
     <g id="text_10">
      <!-- $\mathdefault{10^{-4}}$ -->
      <defs>
       <path d="M 37.796875 64.3125 
L 12.890625 25.390625 
L 37.796875 25.390625 
z
M 35.203125 72.90625 
L 47.609375 72.90625 
L 47.609375 25.390625 
L 58.015625 25.390625 
L 58.015625 17.1875 
L 47.609375 17.1875 
L 47.609375 0 
L 37.796875 0 
L 37.796875 17.1875 
L 4.890625 17.1875 
L 4.890625 26.703125 
z
" id="DejaVuSans-52"/>
      </defs>
      <g transform="translate(7.2 232.495227)scale(0.1 -0.1)">
       <use transform="translate(0 0.684375)" xlink:href="#DejaVuSans-49"/>
       <use transform="translate(63.623047 0.684375)" xlink:href="#DejaVuSans-48"/>
       <use transform="translate(128.203125 38.965625)scale(0.7)" xlink:href="#DejaVuSans-8722"/>
       <use transform="translate(186.855469 38.965625)scale(0.7)" xlink:href="#DejaVuSans-52"/>
      </g>
     </g>
    </g>
    <g id="ytick_3">
     <g id="line2d_10">
      <g>
       <use style="stroke:#000000;stroke-width:0.8;" x="37.7" xlink:href="#m0077e8d8c5" y="194.409368"/>
      </g>
     </g>
     <g id="text_11">
      <!-- $\mathdefault{10^{-3}}$ -->
      <g transform="translate(7.2 198.208586)scale(0.1 -0.1)">
       <use transform="translate(0 0.765625)" xlink:href="#DejaVuSans-49"/>
       <use transform="translate(63.623047 0.765625)" xlink:href="#DejaVuSans-48"/>
       <use transform="translate(128.203125 39.046875)scale(0.7)" xlink:href="#DejaVuSans-8722"/>
       <use transform="translate(186.855469 39.046875)scale(0.7)" xlink:href="#DejaVuSans-51"/>
      </g>
     </g>
    </g>
    <g id="ytick_4">
     <g id="line2d_11">
      <g>
       <use style="stroke:#000000;stroke-width:0.8;" x="37.7" xlink:href="#m0077e8d8c5" y="160.122727"/>
      </g>
     </g>
     <g id="text_12">
      <!-- $\mathdefault{10^{-2}}$ -->
      <g transform="translate(7.2 163.921946)scale(0.1 -0.1)">
       <use transform="translate(0 0.765625)" xlink:href="#DejaVuSans-49"/>
       <use transform="translate(63.623047 0.765625)" xlink:href="#DejaVuSans-48"/>
       <use transform="translate(128.203125 39.046875)scale(0.7)" xlink:href="#DejaVuSans-8722"/>
       <use transform="translate(186.855469 39.046875)scale(0.7)" xlink:href="#DejaVuSans-50"/>
      </g>
     </g>
    </g>
    <g id="ytick_5">
     <g id="line2d_12">
      <g>
       <use style="stroke:#000000;stroke-width:0.8;" x="37.7" xlink:href="#m0077e8d8c5" y="125.836086"/>
      </g>
     </g>
     <g id="text_13">
      <!-- $\mathdefault{10^{-1}}$ -->
      <g transform="translate(7.2 129.635305)scale(0.1 -0.1)">
       <use transform="translate(0 0.684375)" xlink:href="#DejaVuSans-49"/>
       <use transform="translate(63.623047 0.684375)" xlink:href="#DejaVuSans-48"/>
       <use transform="translate(128.203125 38.965625)scale(0.7)" xlink:href="#DejaVuSans-8722"/>
       <use transform="translate(186.855469 38.965625)scale(0.7)" xlink:href="#DejaVuSans-49"/>
      </g>
     </g>
    </g>
    <g id="ytick_6">
     <g id="line2d_13">
      <g>
       <use style="stroke:#000000;stroke-width:0.8;" x="37.7" xlink:href="#m0077e8d8c5" y="91.549445"/>
      </g>
     </g>
     <g id="text_14">
      <!-- $\mathdefault{10^{0}}$ -->
      <g transform="translate(13.1 95.348664)scale(0.1 -0.1)">
       <use transform="translate(0 0.765625)" xlink:href="#DejaVuSans-49"/>
       <use transform="translate(63.623047 0.765625)" xlink:href="#DejaVuSans-48"/>
       <use transform="translate(128.203125 39.046875)scale(0.7)" xlink:href="#DejaVuSans-48"/>
      </g>
     </g>
    </g>
    <g id="ytick_7">
     <g id="line2d_14">
      <g>
       <use style="stroke:#000000;stroke-width:0.8;" x="37.7" xlink:href="#m0077e8d8c5" y="57.262805"/>
      </g>
     </g>
     <g id="text_15">
      <!-- $\mathdefault{10^{1}}$ -->
      <g transform="translate(13.1 61.062023)scale(0.1 -0.1)">
       <use transform="translate(0 0.684375)" xlink:href="#DejaVuSans-49"/>
       <use transform="translate(63.623047 0.684375)" xlink:href="#DejaVuSans-48"/>
       <use transform="translate(128.203125 38.965625)scale(0.7)" xlink:href="#DejaVuSans-49"/>
      </g>
     </g>
    </g>
    <g id="ytick_8">
     <g id="line2d_15">
      <g>
       <use style="stroke:#000000;stroke-width:0.8;" x="37.7" xlink:href="#m0077e8d8c5" y="22.976164"/>
      </g>
     </g>
     <g id="text_16">
      <!-- $\mathdefault{10^{2}}$ -->
      <g transform="translate(13.1 26.775383)scale(0.1 -0.1)">
       <use transform="translate(0 0.765625)" xlink:href="#DejaVuSans-49"/>
       <use transform="translate(63.623047 0.765625)" xlink:href="#DejaVuSans-48"/>
       <use transform="translate(128.203125 39.046875)scale(0.7)" xlink:href="#DejaVuSans-50"/>
      </g>
     </g>
    </g>
    <g id="ytick_9">
     <g id="line2d_16">
      <defs>
       <path d="M 0 0 
L -2 0 
" id="m60d9a299a6" style="stroke:#000000;stroke-width:0.6;"/>
      </defs>
      <g>
       <use style="stroke:#000000;stroke-width:0.6;" x="37.7" xlink:href="#m60d9a299a6" y="273.303956"/>
      </g>
     </g>
    </g>
    <g id="ytick_10">
     <g id="line2d_17">
      <g>
       <use style="stroke:#000000;stroke-width:0.6;" x="37.7" xlink:href="#m60d9a299a6" y="270.589097"/>
      </g>
     </g>
    </g>
    <g id="ytick_11">
     <g id="line2d_18">
      <g>
       <use style="stroke:#000000;stroke-width:0.6;" x="37.7" xlink:href="#m60d9a299a6" y="268.293717"/>
      </g>
     </g>
    </g>
    <g id="ytick_12">
     <g id="line2d_19">
      <g>
       <use style="stroke:#000000;stroke-width:0.6;" x="37.7" xlink:href="#m60d9a299a6" y="266.305368"/>
      </g>
     </g>
    </g>
    <g id="ytick_13">
     <g id="line2d_20">
      <g>
       <use style="stroke:#000000;stroke-width:0.6;" x="37.7" xlink:href="#m60d9a299a6" y="264.55152"/>
      </g>
     </g>
    </g>
    <g id="ytick_14">
     <g id="line2d_21">
      <g>
       <use style="stroke:#000000;stroke-width:0.6;" x="37.7" xlink:href="#m60d9a299a6" y="252.661342"/>
      </g>
     </g>
    </g>
    <g id="ytick_15">
     <g id="line2d_22">
      <g>
       <use style="stroke:#000000;stroke-width:0.6;" x="37.7" xlink:href="#m60d9a299a6" y="246.623764"/>
      </g>
     </g>
    </g>
    <g id="ytick_16">
     <g id="line2d_23">
      <g>
       <use style="stroke:#000000;stroke-width:0.6;" x="37.7" xlink:href="#m60d9a299a6" y="242.340034"/>
      </g>
     </g>
    </g>
    <g id="ytick_17">
     <g id="line2d_24">
      <g>
       <use style="stroke:#000000;stroke-width:0.6;" x="37.7" xlink:href="#m60d9a299a6" y="239.017316"/>
      </g>
     </g>
    </g>
    <g id="ytick_18">
     <g id="line2d_25">
      <g>
       <use style="stroke:#000000;stroke-width:0.6;" x="37.7" xlink:href="#m60d9a299a6" y="236.302457"/>
      </g>
     </g>
    </g>
    <g id="ytick_19">
     <g id="line2d_26">
      <g>
       <use style="stroke:#000000;stroke-width:0.6;" x="37.7" xlink:href="#m60d9a299a6" y="234.007076"/>
      </g>
     </g>
    </g>
    <g id="ytick_20">
     <g id="line2d_27">
      <g>
       <use style="stroke:#000000;stroke-width:0.6;" x="37.7" xlink:href="#m60d9a299a6" y="232.018727"/>
      </g>
     </g>
    </g>
    <g id="ytick_21">
     <g id="line2d_28">
      <g>
       <use style="stroke:#000000;stroke-width:0.6;" x="37.7" xlink:href="#m60d9a299a6" y="230.264879"/>
      </g>
     </g>
    </g>
    <g id="ytick_22">
     <g id="line2d_29">
      <g>
       <use style="stroke:#000000;stroke-width:0.6;" x="37.7" xlink:href="#m60d9a299a6" y="218.374701"/>
      </g>
     </g>
    </g>
    <g id="ytick_23">
     <g id="line2d_30">
      <g>
       <use style="stroke:#000000;stroke-width:0.6;" x="37.7" xlink:href="#m60d9a299a6" y="212.337123"/>
      </g>
     </g>
    </g>
    <g id="ytick_24">
     <g id="line2d_31">
      <g>
       <use style="stroke:#000000;stroke-width:0.6;" x="37.7" xlink:href="#m60d9a299a6" y="208.053394"/>
      </g>
     </g>
    </g>
    <g id="ytick_25">
     <g id="line2d_32">
      <g>
       <use style="stroke:#000000;stroke-width:0.6;" x="37.7" xlink:href="#m60d9a299a6" y="204.730675"/>
      </g>
     </g>
    </g>
    <g id="ytick_26">
     <g id="line2d_33">
      <g>
       <use style="stroke:#000000;stroke-width:0.6;" x="37.7" xlink:href="#m60d9a299a6" y="202.015816"/>
      </g>
     </g>
    </g>
    <g id="ytick_27">
     <g id="line2d_34">
      <g>
       <use style="stroke:#000000;stroke-width:0.6;" x="37.7" xlink:href="#m60d9a299a6" y="199.720435"/>
      </g>
     </g>
    </g>
    <g id="ytick_28">
     <g id="line2d_35">
      <g>
       <use style="stroke:#000000;stroke-width:0.6;" x="37.7" xlink:href="#m60d9a299a6" y="197.732086"/>
      </g>
     </g>
    </g>
    <g id="ytick_29">
     <g id="line2d_36">
      <g>
       <use style="stroke:#000000;stroke-width:0.6;" x="37.7" xlink:href="#m60d9a299a6" y="195.978238"/>
      </g>
     </g>
    </g>
    <g id="ytick_30">
     <g id="line2d_37">
      <g>
       <use style="stroke:#000000;stroke-width:0.6;" x="37.7" xlink:href="#m60d9a299a6" y="184.08806"/>
      </g>
     </g>
    </g>
    <g id="ytick_31">
     <g id="line2d_38">
      <g>
       <use style="stroke:#000000;stroke-width:0.6;" x="37.7" xlink:href="#m60d9a299a6" y="178.050482"/>
      </g>
     </g>
    </g>
    <g id="ytick_32">
     <g id="line2d_39">
      <g>
       <use style="stroke:#000000;stroke-width:0.6;" x="37.7" xlink:href="#m60d9a299a6" y="173.766753"/>
      </g>
     </g>
    </g>
    <g id="ytick_33">
     <g id="line2d_40">
      <g>
       <use style="stroke:#000000;stroke-width:0.6;" x="37.7" xlink:href="#m60d9a299a6" y="170.444034"/>
      </g>
     </g>
    </g>
    <g id="ytick_34">
     <g id="line2d_41">
      <g>
       <use style="stroke:#000000;stroke-width:0.6;" x="37.7" xlink:href="#m60d9a299a6" y="167.729175"/>
      </g>
     </g>
    </g>
    <g id="ytick_35">
     <g id="line2d_42">
      <g>
       <use style="stroke:#000000;stroke-width:0.6;" x="37.7" xlink:href="#m60d9a299a6" y="165.433795"/>
      </g>
     </g>
    </g>
    <g id="ytick_36">
     <g id="line2d_43">
      <g>
       <use style="stroke:#000000;stroke-width:0.6;" x="37.7" xlink:href="#m60d9a299a6" y="163.445446"/>
      </g>
     </g>
    </g>
    <g id="ytick_37">
     <g id="line2d_44">
      <g>
       <use style="stroke:#000000;stroke-width:0.6;" x="37.7" xlink:href="#m60d9a299a6" y="161.691597"/>
      </g>
     </g>
    </g>
    <g id="ytick_38">
     <g id="line2d_45">
      <g>
       <use style="stroke:#000000;stroke-width:0.6;" x="37.7" xlink:href="#m60d9a299a6" y="149.801419"/>
      </g>
     </g>
    </g>
    <g id="ytick_39">
     <g id="line2d_46">
      <g>
       <use style="stroke:#000000;stroke-width:0.6;" x="37.7" xlink:href="#m60d9a299a6" y="143.763842"/>
      </g>
     </g>
    </g>
    <g id="ytick_40">
     <g id="line2d_47">
      <g>
       <use style="stroke:#000000;stroke-width:0.6;" x="37.7" xlink:href="#m60d9a299a6" y="139.480112"/>
      </g>
     </g>
    </g>
    <g id="ytick_41">
     <g id="line2d_48">
      <g>
       <use style="stroke:#000000;stroke-width:0.6;" x="37.7" xlink:href="#m60d9a299a6" y="136.157393"/>
      </g>
     </g>
    </g>
    <g id="ytick_42">
     <g id="line2d_49">
      <g>
       <use style="stroke:#000000;stroke-width:0.6;" x="37.7" xlink:href="#m60d9a299a6" y="133.442534"/>
      </g>
     </g>
    </g>
    <g id="ytick_43">
     <g id="line2d_50">
      <g>
       <use style="stroke:#000000;stroke-width:0.6;" x="37.7" xlink:href="#m60d9a299a6" y="131.147154"/>
      </g>
     </g>
    </g>
    <g id="ytick_44">
     <g id="line2d_51">
      <g>
       <use style="stroke:#000000;stroke-width:0.6;" x="37.7" xlink:href="#m60d9a299a6" y="129.158805"/>
      </g>
     </g>
    </g>
    <g id="ytick_45">
     <g id="line2d_52">
      <g>
       <use style="stroke:#000000;stroke-width:0.6;" x="37.7" xlink:href="#m60d9a299a6" y="127.404957"/>
      </g>
     </g>
    </g>
    <g id="ytick_46">
     <g id="line2d_53">
      <g>
       <use style="stroke:#000000;stroke-width:0.6;" x="37.7" xlink:href="#m60d9a299a6" y="115.514779"/>
      </g>
     </g>
    </g>
    <g id="ytick_47">
     <g id="line2d_54">
      <g>
       <use style="stroke:#000000;stroke-width:0.6;" x="37.7" xlink:href="#m60d9a299a6" y="109.477201"/>
      </g>
     </g>
    </g>
    <g id="ytick_48">
     <g id="line2d_55">
      <g>
       <use style="stroke:#000000;stroke-width:0.6;" x="37.7" xlink:href="#m60d9a299a6" y="105.193471"/>
      </g>
     </g>
    </g>
    <g id="ytick_49">
     <g id="line2d_56">
      <g>
       <use style="stroke:#000000;stroke-width:0.6;" x="37.7" xlink:href="#m60d9a299a6" y="101.870753"/>
      </g>
     </g>
    </g>
    <g id="ytick_50">
     <g id="line2d_57">
      <g>
       <use style="stroke:#000000;stroke-width:0.6;" x="37.7" xlink:href="#m60d9a299a6" y="99.155894"/>
      </g>
     </g>
    </g>
    <g id="ytick_51">
     <g id="line2d_58">
      <g>
       <use style="stroke:#000000;stroke-width:0.6;" x="37.7" xlink:href="#m60d9a299a6" y="96.860513"/>
      </g>
     </g>
    </g>
    <g id="ytick_52">
     <g id="line2d_59">
      <g>
       <use style="stroke:#000000;stroke-width:0.6;" x="37.7" xlink:href="#m60d9a299a6" y="94.872164"/>
      </g>
     </g>
    </g>
    <g id="ytick_53">
     <g id="line2d_60">
      <g>
       <use style="stroke:#000000;stroke-width:0.6;" x="37.7" xlink:href="#m60d9a299a6" y="93.118316"/>
      </g>
     </g>
    </g>
    <g id="ytick_54">
     <g id="line2d_61">
      <g>
       <use style="stroke:#000000;stroke-width:0.6;" x="37.7" xlink:href="#m60d9a299a6" y="81.228138"/>
      </g>
     </g>
    </g>
    <g id="ytick_55">
     <g id="line2d_62">
      <g>
       <use style="stroke:#000000;stroke-width:0.6;" x="37.7" xlink:href="#m60d9a299a6" y="75.19056"/>
      </g>
     </g>
    </g>
    <g id="ytick_56">
     <g id="line2d_63">
      <g>
       <use style="stroke:#000000;stroke-width:0.6;" x="37.7" xlink:href="#m60d9a299a6" y="70.906831"/>
      </g>
     </g>
    </g>
    <g id="ytick_57">
     <g id="line2d_64">
      <g>
       <use style="stroke:#000000;stroke-width:0.6;" x="37.7" xlink:href="#m60d9a299a6" y="67.584112"/>
      </g>
     </g>
    </g>
    <g id="ytick_58">
     <g id="line2d_65">
      <g>
       <use style="stroke:#000000;stroke-width:0.6;" x="37.7" xlink:href="#m60d9a299a6" y="64.869253"/>
      </g>
     </g>
    </g>
    <g id="ytick_59">
     <g id="line2d_66">
      <g>
       <use style="stroke:#000000;stroke-width:0.6;" x="37.7" xlink:href="#m60d9a299a6" y="62.573872"/>
      </g>
     </g>
    </g>
    <g id="ytick_60">
     <g id="line2d_67">
      <g>
       <use style="stroke:#000000;stroke-width:0.6;" x="37.7" xlink:href="#m60d9a299a6" y="60.585523"/>
      </g>
     </g>
    </g>
    <g id="ytick_61">
     <g id="line2d_68">
      <g>
       <use style="stroke:#000000;stroke-width:0.6;" x="37.7" xlink:href="#m60d9a299a6" y="58.831675"/>
      </g>
     </g>
    </g>
    <g id="ytick_62">
     <g id="line2d_69">
      <g>
       <use style="stroke:#000000;stroke-width:0.6;" x="37.7" xlink:href="#m60d9a299a6" y="46.941497"/>
      </g>
     </g>
    </g>
    <g id="ytick_63">
     <g id="line2d_70">
      <g>
       <use style="stroke:#000000;stroke-width:0.6;" x="37.7" xlink:href="#m60d9a299a6" y="40.90392"/>
      </g>
     </g>
    </g>
    <g id="ytick_64">
     <g id="line2d_71">
      <g>
       <use style="stroke:#000000;stroke-width:0.6;" x="37.7" xlink:href="#m60d9a299a6" y="36.62019"/>
      </g>
     </g>
    </g>
    <g id="ytick_65">
     <g id="line2d_72">
      <g>
       <use style="stroke:#000000;stroke-width:0.6;" x="37.7" xlink:href="#m60d9a299a6" y="33.297471"/>
      </g>
     </g>
    </g>
    <g id="ytick_66">
     <g id="line2d_73">
      <g>
       <use style="stroke:#000000;stroke-width:0.6;" x="37.7" xlink:href="#m60d9a299a6" y="30.582612"/>
      </g>
     </g>
    </g>
    <g id="ytick_67">
     <g id="line2d_74">
      <g>
       <use style="stroke:#000000;stroke-width:0.6;" x="37.7" xlink:href="#m60d9a299a6" y="28.287232"/>
      </g>
     </g>
    </g>
    <g id="ytick_68">
     <g id="line2d_75">
      <g>
       <use style="stroke:#000000;stroke-width:0.6;" x="37.7" xlink:href="#m60d9a299a6" y="26.298883"/>
      </g>
     </g>
    </g>
    <g id="ytick_69">
     <g id="line2d_76">
      <g>
       <use style="stroke:#000000;stroke-width:0.6;" x="37.7" xlink:href="#m60d9a299a6" y="24.545034"/>
      </g>
     </g>
    </g>
    <g id="ytick_70">
     <g id="line2d_77">
      <g>
       <use style="stroke:#000000;stroke-width:0.6;" x="37.7" xlink:href="#m60d9a299a6" y="12.654857"/>
      </g>
     </g>
    </g>
   </g>
   <g id="line2d_78">
    <path clip-path="url(#pbd60afcd58)" d="M 53.932727 30.658477 
L 55.00067 19.296 
L 56.068612 36.980958 
L 57.136555 34.370871 
L 58.204498 45.661174 
L 59.27244 50.158988 
L 60.340383 58.67846 
L 61.408325 65.389195 
L 64.612153 87.868053 
L 72.087751 139.395366 
L 73.155694 147.267302 
L 74.223636 153.451804 
L 75.291579 162.055846 
L 76.359522 168.715581 
L 77.427464 173.697017 
L 78.495407 175.805017 
L 80.631292 193.571841 
L 81.699234 202.315544 
L 82.767177 185.152069 
L 83.83512 189.300052 
L 84.903062 197.053759 
L 85.971005 200.192908 
L 87.038947 205.671698 
L 88.10689 184.661667 
L 89.174833 194.297439 
L 90.242775 188.226048 
L 91.310718 199.179409 
L 92.37866 206.250106 
L 93.446603 194.979451 
L 94.514545 195.201382 
L 95.582488 187.362811 
L 96.650431 188.049776 
L 97.718373 184.403776 
L 98.786316 190.163922 
L 99.854258 195.207768 
L 100.922201 203.544812 
L 101.990144 214.563509 
L 103.058086 257.679898 
L 104.126029 218.032168 
L 105.193971 205.270085 
L 106.261914 202.755347 
L 107.329856 194.51398 
L 108.397799 197.420078 
L 109.465742 206.279604 
L 110.533684 237.967661 
L 111.601627 186.080925 
L 112.669569 196.061924 
L 113.737512 190.566216 
L 114.805455 192.983975 
L 115.873397 192.371818 
L 116.94134 203.54387 
L 118.009282 242.750426 
L 119.077225 237.312974 
L 120.145167 197.658578 
L 121.21311 198.5878 
L 122.281053 214.790415 
L 123.348995 210.059103 
L 124.416938 216.386866 
L 125.48488 238.29935 
L 126.552823 225.123848 
L 127.620766 194.772997 
L 128.688708 211.034125 
L 129.756651 211.455655 
L 130.824593 245.658358 
L 131.892536 192.75474 
L 132.960478 216.914412 
L 134.028421 224.866122 
L 135.096364 226.623795 
L 136.164306 218.101988 
L 137.232249 208.195146 
L 138.300191 208.666841 
L 139.368134 228.743631 
L 140.436077 190.953567 
L 141.504019 197.073712 
L 142.571962 184.095176 
L 143.639904 222.805022 
L 144.707847 217.416672 
L 145.775789 225.272054 
L 146.843732 224.396164 
L 147.911675 215.026752 
L 148.979617 185.157496 
L 150.04756 196.288485 
L 151.115502 192.454482 
L 152.183445 213.444721 
L 153.251388 202.403078 
L 154.31933 232.140169 
L 155.387273 206.760412 
L 156.455215 209.110604 
L 157.523158 206.868219 
L 158.5911 202.123594 
L 159.659043 196.34859 
L 160.726986 202.345091 
L 161.794928 212.536604 
L 162.862871 235.078837 
L 163.930813 221.226156 
L 164.998756 210.636941 
L 166.066699 206.160452 
L 167.134641 211.489117 
L 168.202584 203.718255 
L 169.270526 217.096411 
L 170.338469 217.499257 
L 171.406411 211.856842 
L 172.474354 256.462294 
L 173.542297 254.884536 
L 174.610239 229.16626 
L 175.678182 244.128655 
L 176.746124 210.872314 
L 177.814067 250.699289 
L 178.88201 218.205354 
L 179.949952 250.369411 
L 181.017895 221.003014 
L 182.085837 244.547177 
L 183.15378 239.612538 
L 184.221722 205.146825 
L 185.289665 205.214139 
L 186.357608 208.341634 
L 187.42555 202.984035 
L 188.493493 196.860281 
L 189.561435 201.793385 
L 190.629378 223.381958 
L 191.697321 188.790183 
L 192.765263 191.327126 
L 193.833206 198.152326 
L 194.901148 228.839514 
L 195.969091 218.734461 
L 197.037033 223.829531 
L 198.104976 206.449221 
L 199.172919 203.147075 
L 200.240861 210.091313 
L 201.308804 199.767992 
L 202.376746 211.116257 
L 203.444689 202.728127 
L 204.512632 195.843368 
L 205.580574 210.947117 
L 206.648517 230.681107 
L 207.716459 235.639644 
L 208.784402 203.061441 
L 209.852344 202.544742 
L 210.920287 222.452397 
L 211.98823 205.722575 
L 213.056172 199.783625 
L 214.124115 187.632575 
L 215.192057 194.620831 
L 216.26 189.76441 
L 217.327943 194.782292 
L 218.395885 195.319338 
L 219.463828 198.424061 
L 220.53177 194.0765 
L 221.599713 193.79351 
L 222.667656 187.278194 
L 223.735598 209.410859 
L 224.803541 210.540786 
L 225.871483 222.456727 
L 226.939426 248.551332 
L 228.007368 210.072356 
L 229.075311 226.049041 
L 230.143254 214.486323 
L 231.211196 214.188741 
L 232.279139 191.086648 
L 233.347081 197.779753 
L 234.415024 196.404928 
L 235.482967 199.821913 
L 236.550909 213.070138 
L 237.618852 190.44632 
L 238.686794 200.023692 
L 239.754737 200.194379 
L 240.822679 196.811032 
L 241.890622 185.930447 
L 242.958565 200.781449 
L 244.026507 202.638418 
L 245.09445 196.423456 
L 246.162392 204.298828 
L 247.230335 194.892734 
L 249.36622 239.28178 
L 250.434163 189.725375 
L 251.502105 199.836763 
L 252.570048 216.26304 
L 253.63799 197.713381 
L 254.705933 217.991163 
L 255.773876 199.982094 
L 256.841818 215.548032 
L 257.909761 213.716444 
L 258.977703 212.315771 
L 260.045646 196.21431 
L 261.113589 210.532265 
L 262.181531 194.067893 
L 263.249474 205.62379 
L 264.317416 208.374607 
L 265.385359 192.620198 
L 266.453301 195.084817 
L 267.521244 184.156372 
L 268.589187 197.005812 
L 269.657129 193.044312 
L 271.793014 226.941222 
L 272.860957 254.497624 
L 273.9289 225.424341 
L 274.996842 205.739563 
L 276.064785 196.366647 
L 277.132727 216.581398 
L 278.20067 240.96527 
L 279.268612 258.672497 
L 280.336555 193.683833 
L 281.404498 197.330867 
L 282.47244 198.309845 
L 283.540383 217.950389 
L 284.608325 187.946123 
L 285.676268 217.571507 
L 286.744211 193.866323 
L 287.812153 197.427736 
L 288.880096 194.046715 
L 289.948038 230.992481 
L 291.015981 203.072615 
L 292.083923 211.249804 
L 293.151866 215.806912 
L 294.219809 202.730718 
L 295.287751 204.290269 
L 296.355694 233.590301 
L 297.423636 213.519913 
L 298.491579 216.536157 
L 299.559522 196.553722 
L 300.627464 217.069646 
L 301.695407 228.132021 
L 302.763349 194.202541 
L 303.831292 217.209499 
L 304.899234 211.457767 
L 305.967177 203.298434 
L 307.03512 212.487054 
L 308.103062 197.962905 
L 309.171005 210.089902 
L 310.238947 191.181258 
L 311.30689 210.140344 
L 313.442775 219.134274 
L 314.510718 222.583228 
L 315.57866 201.591116 
L 316.646603 197.836226 
L 317.714545 201.656937 
L 318.782488 218.265711 
L 319.850431 230.076338 
L 320.918373 255.751109 
L 321.986316 229.405657 
L 323.054258 250.030844 
L 324.122201 203.678353 
L 325.190144 184.887198 
L 326.258086 196.383858 
L 327.326029 205.284751 
L 328.393971 206.415802 
L 329.461914 200.476321 
L 330.529856 261.216 
L 331.597799 186.931055 
L 332.665742 190.180624 
L 333.733684 195.211814 
L 334.801627 196.381805 
L 335.869569 202.262162 
L 336.937512 200.731668 
L 338.005455 234.845636 
L 339.073397 212.411622 
L 340.14134 217.604417 
L 341.209282 207.313566 
L 342.277225 222.005075 
L 344.41311 200.14008 
L 345.481053 203.179035 
L 346.548995 204.459668 
L 347.616938 214.525009 
L 348.68488 231.635166 
L 349.752823 190.245088 
L 350.820766 194.665859 
L 352.956651 199.377927 
L 354.024593 211.215537 
L 355.092536 194.142743 
L 356.160478 185.36773 
L 357.228421 194.803229 
L 358.296364 185.632728 
L 359.364306 209.09774 
L 360.432249 194.79067 
L 361.500191 215.146502 
L 362.568134 200.631194 
L 363.636077 202.824194 
L 364.704019 207.800496 
L 365.771962 209.878402 
L 366.839904 198.058456 
L 367.907847 204.641855 
L 368.975789 212.339219 
L 370.043732 218.290152 
L 371.111675 208.184301 
L 372.179617 229.57371 
L 373.24756 200.949811 
L 374.315502 220.545151 
L 375.383445 202.677468 
L 376.451388 224.339452 
L 376.454124 311.86825 
L 376.454124 311.86825 
" style="fill:none;stroke:#1f77b4;stroke-linecap:square;stroke-width:1.5;"/>
    <defs>
     <path d="M 0 3 
C 0.795609 3 1.55874 2.683901 2.12132 2.12132 
C 2.683901 1.55874 3 0.795609 3 0 
C 3 -0.795609 2.683901 -1.55874 2.12132 -2.12132 
C 1.55874 -2.683901 0.795609 -3 0 -3 
C -0.795609 -3 -1.55874 -2.683901 -2.12132 -2.12132 
C -2.683901 -1.55874 -3 -0.795609 -3 0 
C -3 0.795609 -2.683901 1.55874 -2.12132 2.12132 
C -1.55874 2.683901 -0.795609 3 0 3 
z
" id="m32f520fd2c" style="stroke:#1f77b4;"/>
    </defs>
    <g clip-path="url(#pbd60afcd58)">
     <use style="fill:#1f77b4;stroke:#1f77b4;" x="53.932727" xlink:href="#m32f520fd2c" y="30.658477"/>
     <use style="fill:#1f77b4;stroke:#1f77b4;" x="55.00067" xlink:href="#m32f520fd2c" y="19.296"/>
     <use style="fill:#1f77b4;stroke:#1f77b4;" x="56.068612" xlink:href="#m32f520fd2c" y="36.980958"/>
     <use style="fill:#1f77b4;stroke:#1f77b4;" x="57.136555" xlink:href="#m32f520fd2c" y="34.370871"/>
     <use style="fill:#1f77b4;stroke:#1f77b4;" x="58.204498" xlink:href="#m32f520fd2c" y="45.661174"/>
     <use style="fill:#1f77b4;stroke:#1f77b4;" x="59.27244" xlink:href="#m32f520fd2c" y="50.158988"/>
     <use style="fill:#1f77b4;stroke:#1f77b4;" x="60.340383" xlink:href="#m32f520fd2c" y="58.67846"/>
     <use style="fill:#1f77b4;stroke:#1f77b4;" x="61.408325" xlink:href="#m32f520fd2c" y="65.389195"/>
     <use style="fill:#1f77b4;stroke:#1f77b4;" x="62.476268" xlink:href="#m32f520fd2c" y="73.142988"/>
     <use style="fill:#1f77b4;stroke:#1f77b4;" x="63.544211" xlink:href="#m32f520fd2c" y="80.346421"/>
     <use style="fill:#1f77b4;stroke:#1f77b4;" x="64.612153" xlink:href="#m32f520fd2c" y="87.868053"/>
     <use style="fill:#1f77b4;stroke:#1f77b4;" x="65.680096" xlink:href="#m32f520fd2c" y="95.181675"/>
     <use style="fill:#1f77b4;stroke:#1f77b4;" x="66.748038" xlink:href="#m32f520fd2c" y="102.626613"/>
     <use style="fill:#1f77b4;stroke:#1f77b4;" x="67.815981" xlink:href="#m32f520fd2c" y="109.987708"/>
     <use style="fill:#1f77b4;stroke:#1f77b4;" x="68.883923" xlink:href="#m32f520fd2c" y="117.382379"/>
     <use style="fill:#1f77b4;stroke:#1f77b4;" x="69.951866" xlink:href="#m32f520fd2c" y="124.645839"/>
     <use style="fill:#1f77b4;stroke:#1f77b4;" x="71.019809" xlink:href="#m32f520fd2c" y="132.1721"/>
     <use style="fill:#1f77b4;stroke:#1f77b4;" x="72.087751" xlink:href="#m32f520fd2c" y="139.395366"/>
     <use style="fill:#1f77b4;stroke:#1f77b4;" x="73.155694" xlink:href="#m32f520fd2c" y="147.267302"/>
     <use style="fill:#1f77b4;stroke:#1f77b4;" x="74.223636" xlink:href="#m32f520fd2c" y="153.451804"/>
     <use style="fill:#1f77b4;stroke:#1f77b4;" x="75.291579" xlink:href="#m32f520fd2c" y="162.055846"/>
     <use style="fill:#1f77b4;stroke:#1f77b4;" x="76.359522" xlink:href="#m32f520fd2c" y="168.715581"/>
     <use style="fill:#1f77b4;stroke:#1f77b4;" x="77.427464" xlink:href="#m32f520fd2c" y="173.697017"/>
     <use style="fill:#1f77b4;stroke:#1f77b4;" x="78.495407" xlink:href="#m32f520fd2c" y="175.805017"/>
     <use style="fill:#1f77b4;stroke:#1f77b4;" x="79.563349" xlink:href="#m32f520fd2c" y="185.024063"/>
     <use style="fill:#1f77b4;stroke:#1f77b4;" x="80.631292" xlink:href="#m32f520fd2c" y="193.571841"/>
     <use style="fill:#1f77b4;stroke:#1f77b4;" x="81.699234" xlink:href="#m32f520fd2c" y="202.315544"/>
     <use style="fill:#1f77b4;stroke:#1f77b4;" x="82.767177" xlink:href="#m32f520fd2c" y="185.152069"/>
     <use style="fill:#1f77b4;stroke:#1f77b4;" x="83.83512" xlink:href="#m32f520fd2c" y="189.300052"/>
     <use style="fill:#1f77b4;stroke:#1f77b4;" x="84.903062" xlink:href="#m32f520fd2c" y="197.053759"/>
     <use style="fill:#1f77b4;stroke:#1f77b4;" x="85.971005" xlink:href="#m32f520fd2c" y="200.192908"/>
     <use style="fill:#1f77b4;stroke:#1f77b4;" x="87.038947" xlink:href="#m32f520fd2c" y="205.671698"/>
     <use style="fill:#1f77b4;stroke:#1f77b4;" x="88.10689" xlink:href="#m32f520fd2c" y="184.661667"/>
     <use style="fill:#1f77b4;stroke:#1f77b4;" x="89.174833" xlink:href="#m32f520fd2c" y="194.297439"/>
     <use style="fill:#1f77b4;stroke:#1f77b4;" x="90.242775" xlink:href="#m32f520fd2c" y="188.226048"/>
     <use style="fill:#1f77b4;stroke:#1f77b4;" x="91.310718" xlink:href="#m32f520fd2c" y="199.179409"/>
     <use style="fill:#1f77b4;stroke:#1f77b4;" x="92.37866" xlink:href="#m32f520fd2c" y="206.250106"/>
     <use style="fill:#1f77b4;stroke:#1f77b4;" x="93.446603" xlink:href="#m32f520fd2c" y="194.979451"/>
     <use style="fill:#1f77b4;stroke:#1f77b4;" x="94.514545" xlink:href="#m32f520fd2c" y="195.201382"/>
     <use style="fill:#1f77b4;stroke:#1f77b4;" x="95.582488" xlink:href="#m32f520fd2c" y="187.362811"/>
     <use style="fill:#1f77b4;stroke:#1f77b4;" x="96.650431" xlink:href="#m32f520fd2c" y="188.049776"/>
     <use style="fill:#1f77b4;stroke:#1f77b4;" x="97.718373" xlink:href="#m32f520fd2c" y="184.403776"/>
     <use style="fill:#1f77b4;stroke:#1f77b4;" x="98.786316" xlink:href="#m32f520fd2c" y="190.163922"/>
     <use style="fill:#1f77b4;stroke:#1f77b4;" x="99.854258" xlink:href="#m32f520fd2c" y="195.207768"/>
     <use style="fill:#1f77b4;stroke:#1f77b4;" x="100.922201" xlink:href="#m32f520fd2c" y="203.544812"/>
     <use style="fill:#1f77b4;stroke:#1f77b4;" x="101.990144" xlink:href="#m32f520fd2c" y="214.563509"/>
     <use style="fill:#1f77b4;stroke:#1f77b4;" x="103.058086" xlink:href="#m32f520fd2c" y="257.679898"/>
     <use style="fill:#1f77b4;stroke:#1f77b4;" x="104.126029" xlink:href="#m32f520fd2c" y="218.032168"/>
     <use style="fill:#1f77b4;stroke:#1f77b4;" x="105.193971" xlink:href="#m32f520fd2c" y="205.270085"/>
     <use style="fill:#1f77b4;stroke:#1f77b4;" x="106.261914" xlink:href="#m32f520fd2c" y="202.755347"/>
     <use style="fill:#1f77b4;stroke:#1f77b4;" x="107.329856" xlink:href="#m32f520fd2c" y="194.51398"/>
     <use style="fill:#1f77b4;stroke:#1f77b4;" x="108.397799" xlink:href="#m32f520fd2c" y="197.420078"/>
     <use style="fill:#1f77b4;stroke:#1f77b4;" x="109.465742" xlink:href="#m32f520fd2c" y="206.279604"/>
     <use style="fill:#1f77b4;stroke:#1f77b4;" x="110.533684" xlink:href="#m32f520fd2c" y="237.967661"/>
     <use style="fill:#1f77b4;stroke:#1f77b4;" x="111.601627" xlink:href="#m32f520fd2c" y="186.080925"/>
     <use style="fill:#1f77b4;stroke:#1f77b4;" x="112.669569" xlink:href="#m32f520fd2c" y="196.061924"/>
     <use style="fill:#1f77b4;stroke:#1f77b4;" x="113.737512" xlink:href="#m32f520fd2c" y="190.566216"/>
     <use style="fill:#1f77b4;stroke:#1f77b4;" x="114.805455" xlink:href="#m32f520fd2c" y="192.983975"/>
     <use style="fill:#1f77b4;stroke:#1f77b4;" x="115.873397" xlink:href="#m32f520fd2c" y="192.371818"/>
     <use style="fill:#1f77b4;stroke:#1f77b4;" x="116.94134" xlink:href="#m32f520fd2c" y="203.54387"/>
     <use style="fill:#1f77b4;stroke:#1f77b4;" x="118.009282" xlink:href="#m32f520fd2c" y="242.750426"/>
     <use style="fill:#1f77b4;stroke:#1f77b4;" x="119.077225" xlink:href="#m32f520fd2c" y="237.312974"/>
     <use style="fill:#1f77b4;stroke:#1f77b4;" x="120.145167" xlink:href="#m32f520fd2c" y="197.658578"/>
     <use style="fill:#1f77b4;stroke:#1f77b4;" x="121.21311" xlink:href="#m32f520fd2c" y="198.5878"/>
     <use style="fill:#1f77b4;stroke:#1f77b4;" x="122.281053" xlink:href="#m32f520fd2c" y="214.790415"/>
     <use style="fill:#1f77b4;stroke:#1f77b4;" x="123.348995" xlink:href="#m32f520fd2c" y="210.059103"/>
     <use style="fill:#1f77b4;stroke:#1f77b4;" x="124.416938" xlink:href="#m32f520fd2c" y="216.386866"/>
     <use style="fill:#1f77b4;stroke:#1f77b4;" x="125.48488" xlink:href="#m32f520fd2c" y="238.29935"/>
     <use style="fill:#1f77b4;stroke:#1f77b4;" x="126.552823" xlink:href="#m32f520fd2c" y="225.123848"/>
     <use style="fill:#1f77b4;stroke:#1f77b4;" x="127.620766" xlink:href="#m32f520fd2c" y="194.772997"/>
     <use style="fill:#1f77b4;stroke:#1f77b4;" x="128.688708" xlink:href="#m32f520fd2c" y="211.034125"/>
     <use style="fill:#1f77b4;stroke:#1f77b4;" x="129.756651" xlink:href="#m32f520fd2c" y="211.455655"/>
     <use style="fill:#1f77b4;stroke:#1f77b4;" x="130.824593" xlink:href="#m32f520fd2c" y="245.658358"/>
     <use style="fill:#1f77b4;stroke:#1f77b4;" x="131.892536" xlink:href="#m32f520fd2c" y="192.75474"/>
     <use style="fill:#1f77b4;stroke:#1f77b4;" x="132.960478" xlink:href="#m32f520fd2c" y="216.914412"/>
     <use style="fill:#1f77b4;stroke:#1f77b4;" x="134.028421" xlink:href="#m32f520fd2c" y="224.866122"/>
     <use style="fill:#1f77b4;stroke:#1f77b4;" x="135.096364" xlink:href="#m32f520fd2c" y="226.623795"/>
     <use style="fill:#1f77b4;stroke:#1f77b4;" x="136.164306" xlink:href="#m32f520fd2c" y="218.101988"/>
     <use style="fill:#1f77b4;stroke:#1f77b4;" x="137.232249" xlink:href="#m32f520fd2c" y="208.195146"/>
     <use style="fill:#1f77b4;stroke:#1f77b4;" x="138.300191" xlink:href="#m32f520fd2c" y="208.666841"/>
     <use style="fill:#1f77b4;stroke:#1f77b4;" x="139.368134" xlink:href="#m32f520fd2c" y="228.743631"/>
     <use style="fill:#1f77b4;stroke:#1f77b4;" x="140.436077" xlink:href="#m32f520fd2c" y="190.953567"/>
     <use style="fill:#1f77b4;stroke:#1f77b4;" x="141.504019" xlink:href="#m32f520fd2c" y="197.073712"/>
     <use style="fill:#1f77b4;stroke:#1f77b4;" x="142.571962" xlink:href="#m32f520fd2c" y="184.095176"/>
     <use style="fill:#1f77b4;stroke:#1f77b4;" x="143.639904" xlink:href="#m32f520fd2c" y="222.805022"/>
     <use style="fill:#1f77b4;stroke:#1f77b4;" x="144.707847" xlink:href="#m32f520fd2c" y="217.416672"/>
     <use style="fill:#1f77b4;stroke:#1f77b4;" x="145.775789" xlink:href="#m32f520fd2c" y="225.272054"/>
     <use style="fill:#1f77b4;stroke:#1f77b4;" x="146.843732" xlink:href="#m32f520fd2c" y="224.396164"/>
     <use style="fill:#1f77b4;stroke:#1f77b4;" x="147.911675" xlink:href="#m32f520fd2c" y="215.026752"/>
     <use style="fill:#1f77b4;stroke:#1f77b4;" x="148.979617" xlink:href="#m32f520fd2c" y="185.157496"/>
     <use style="fill:#1f77b4;stroke:#1f77b4;" x="150.04756" xlink:href="#m32f520fd2c" y="196.288485"/>
     <use style="fill:#1f77b4;stroke:#1f77b4;" x="151.115502" xlink:href="#m32f520fd2c" y="192.454482"/>
     <use style="fill:#1f77b4;stroke:#1f77b4;" x="152.183445" xlink:href="#m32f520fd2c" y="213.444721"/>
     <use style="fill:#1f77b4;stroke:#1f77b4;" x="153.251388" xlink:href="#m32f520fd2c" y="202.403078"/>
     <use style="fill:#1f77b4;stroke:#1f77b4;" x="154.31933" xlink:href="#m32f520fd2c" y="232.140169"/>
     <use style="fill:#1f77b4;stroke:#1f77b4;" x="155.387273" xlink:href="#m32f520fd2c" y="206.760412"/>
     <use style="fill:#1f77b4;stroke:#1f77b4;" x="156.455215" xlink:href="#m32f520fd2c" y="209.110604"/>
     <use style="fill:#1f77b4;stroke:#1f77b4;" x="157.523158" xlink:href="#m32f520fd2c" y="206.868219"/>
     <use style="fill:#1f77b4;stroke:#1f77b4;" x="158.5911" xlink:href="#m32f520fd2c" y="202.123594"/>
     <use style="fill:#1f77b4;stroke:#1f77b4;" x="159.659043" xlink:href="#m32f520fd2c" y="196.34859"/>
     <use style="fill:#1f77b4;stroke:#1f77b4;" x="160.726986" xlink:href="#m32f520fd2c" y="202.345091"/>
     <use style="fill:#1f77b4;stroke:#1f77b4;" x="161.794928" xlink:href="#m32f520fd2c" y="212.536604"/>
     <use style="fill:#1f77b4;stroke:#1f77b4;" x="162.862871" xlink:href="#m32f520fd2c" y="235.078837"/>
     <use style="fill:#1f77b4;stroke:#1f77b4;" x="163.930813" xlink:href="#m32f520fd2c" y="221.226156"/>
     <use style="fill:#1f77b4;stroke:#1f77b4;" x="164.998756" xlink:href="#m32f520fd2c" y="210.636941"/>
     <use style="fill:#1f77b4;stroke:#1f77b4;" x="166.066699" xlink:href="#m32f520fd2c" y="206.160452"/>
     <use style="fill:#1f77b4;stroke:#1f77b4;" x="167.134641" xlink:href="#m32f520fd2c" y="211.489117"/>
     <use style="fill:#1f77b4;stroke:#1f77b4;" x="168.202584" xlink:href="#m32f520fd2c" y="203.718255"/>
     <use style="fill:#1f77b4;stroke:#1f77b4;" x="169.270526" xlink:href="#m32f520fd2c" y="217.096411"/>
     <use style="fill:#1f77b4;stroke:#1f77b4;" x="170.338469" xlink:href="#m32f520fd2c" y="217.499257"/>
     <use style="fill:#1f77b4;stroke:#1f77b4;" x="171.406411" xlink:href="#m32f520fd2c" y="211.856842"/>
     <use style="fill:#1f77b4;stroke:#1f77b4;" x="172.474354" xlink:href="#m32f520fd2c" y="256.462294"/>
     <use style="fill:#1f77b4;stroke:#1f77b4;" x="173.542297" xlink:href="#m32f520fd2c" y="254.884536"/>
     <use style="fill:#1f77b4;stroke:#1f77b4;" x="174.610239" xlink:href="#m32f520fd2c" y="229.16626"/>
     <use style="fill:#1f77b4;stroke:#1f77b4;" x="175.678182" xlink:href="#m32f520fd2c" y="244.128655"/>
     <use style="fill:#1f77b4;stroke:#1f77b4;" x="176.746124" xlink:href="#m32f520fd2c" y="210.872314"/>
     <use style="fill:#1f77b4;stroke:#1f77b4;" x="177.814067" xlink:href="#m32f520fd2c" y="250.699289"/>
     <use style="fill:#1f77b4;stroke:#1f77b4;" x="178.88201" xlink:href="#m32f520fd2c" y="218.205354"/>
     <use style="fill:#1f77b4;stroke:#1f77b4;" x="179.949952" xlink:href="#m32f520fd2c" y="250.369411"/>
     <use style="fill:#1f77b4;stroke:#1f77b4;" x="181.017895" xlink:href="#m32f520fd2c" y="221.003014"/>
     <use style="fill:#1f77b4;stroke:#1f77b4;" x="182.085837" xlink:href="#m32f520fd2c" y="244.547177"/>
     <use style="fill:#1f77b4;stroke:#1f77b4;" x="183.15378" xlink:href="#m32f520fd2c" y="239.612538"/>
     <use style="fill:#1f77b4;stroke:#1f77b4;" x="184.221722" xlink:href="#m32f520fd2c" y="205.146825"/>
     <use style="fill:#1f77b4;stroke:#1f77b4;" x="185.289665" xlink:href="#m32f520fd2c" y="205.214139"/>
     <use style="fill:#1f77b4;stroke:#1f77b4;" x="186.357608" xlink:href="#m32f520fd2c" y="208.341634"/>
     <use style="fill:#1f77b4;stroke:#1f77b4;" x="187.42555" xlink:href="#m32f520fd2c" y="202.984035"/>
     <use style="fill:#1f77b4;stroke:#1f77b4;" x="188.493493" xlink:href="#m32f520fd2c" y="196.860281"/>
     <use style="fill:#1f77b4;stroke:#1f77b4;" x="189.561435" xlink:href="#m32f520fd2c" y="201.793385"/>
     <use style="fill:#1f77b4;stroke:#1f77b4;" x="190.629378" xlink:href="#m32f520fd2c" y="223.381958"/>
     <use style="fill:#1f77b4;stroke:#1f77b4;" x="191.697321" xlink:href="#m32f520fd2c" y="188.790183"/>
     <use style="fill:#1f77b4;stroke:#1f77b4;" x="192.765263" xlink:href="#m32f520fd2c" y="191.327126"/>
     <use style="fill:#1f77b4;stroke:#1f77b4;" x="193.833206" xlink:href="#m32f520fd2c" y="198.152326"/>
     <use style="fill:#1f77b4;stroke:#1f77b4;" x="194.901148" xlink:href="#m32f520fd2c" y="228.839514"/>
     <use style="fill:#1f77b4;stroke:#1f77b4;" x="195.969091" xlink:href="#m32f520fd2c" y="218.734461"/>
     <use style="fill:#1f77b4;stroke:#1f77b4;" x="197.037033" xlink:href="#m32f520fd2c" y="223.829531"/>
     <use style="fill:#1f77b4;stroke:#1f77b4;" x="198.104976" xlink:href="#m32f520fd2c" y="206.449221"/>
     <use style="fill:#1f77b4;stroke:#1f77b4;" x="199.172919" xlink:href="#m32f520fd2c" y="203.147075"/>
     <use style="fill:#1f77b4;stroke:#1f77b4;" x="200.240861" xlink:href="#m32f520fd2c" y="210.091313"/>
     <use style="fill:#1f77b4;stroke:#1f77b4;" x="201.308804" xlink:href="#m32f520fd2c" y="199.767992"/>
     <use style="fill:#1f77b4;stroke:#1f77b4;" x="202.376746" xlink:href="#m32f520fd2c" y="211.116257"/>
     <use style="fill:#1f77b4;stroke:#1f77b4;" x="203.444689" xlink:href="#m32f520fd2c" y="202.728127"/>
     <use style="fill:#1f77b4;stroke:#1f77b4;" x="204.512632" xlink:href="#m32f520fd2c" y="195.843368"/>
     <use style="fill:#1f77b4;stroke:#1f77b4;" x="205.580574" xlink:href="#m32f520fd2c" y="210.947117"/>
     <use style="fill:#1f77b4;stroke:#1f77b4;" x="206.648517" xlink:href="#m32f520fd2c" y="230.681107"/>
     <use style="fill:#1f77b4;stroke:#1f77b4;" x="207.716459" xlink:href="#m32f520fd2c" y="235.639644"/>
     <use style="fill:#1f77b4;stroke:#1f77b4;" x="208.784402" xlink:href="#m32f520fd2c" y="203.061441"/>
     <use style="fill:#1f77b4;stroke:#1f77b4;" x="209.852344" xlink:href="#m32f520fd2c" y="202.544742"/>
     <use style="fill:#1f77b4;stroke:#1f77b4;" x="210.920287" xlink:href="#m32f520fd2c" y="222.452397"/>
     <use style="fill:#1f77b4;stroke:#1f77b4;" x="211.98823" xlink:href="#m32f520fd2c" y="205.722575"/>
     <use style="fill:#1f77b4;stroke:#1f77b4;" x="213.056172" xlink:href="#m32f520fd2c" y="199.783625"/>
     <use style="fill:#1f77b4;stroke:#1f77b4;" x="214.124115" xlink:href="#m32f520fd2c" y="187.632575"/>
     <use style="fill:#1f77b4;stroke:#1f77b4;" x="215.192057" xlink:href="#m32f520fd2c" y="194.620831"/>
     <use style="fill:#1f77b4;stroke:#1f77b4;" x="216.26" xlink:href="#m32f520fd2c" y="189.76441"/>
     <use style="fill:#1f77b4;stroke:#1f77b4;" x="217.327943" xlink:href="#m32f520fd2c" y="194.782292"/>
     <use style="fill:#1f77b4;stroke:#1f77b4;" x="218.395885" xlink:href="#m32f520fd2c" y="195.319338"/>
     <use style="fill:#1f77b4;stroke:#1f77b4;" x="219.463828" xlink:href="#m32f520fd2c" y="198.424061"/>
     <use style="fill:#1f77b4;stroke:#1f77b4;" x="220.53177" xlink:href="#m32f520fd2c" y="194.0765"/>
     <use style="fill:#1f77b4;stroke:#1f77b4;" x="221.599713" xlink:href="#m32f520fd2c" y="193.79351"/>
     <use style="fill:#1f77b4;stroke:#1f77b4;" x="222.667656" xlink:href="#m32f520fd2c" y="187.278194"/>
     <use style="fill:#1f77b4;stroke:#1f77b4;" x="223.735598" xlink:href="#m32f520fd2c" y="209.410859"/>
     <use style="fill:#1f77b4;stroke:#1f77b4;" x="224.803541" xlink:href="#m32f520fd2c" y="210.540786"/>
     <use style="fill:#1f77b4;stroke:#1f77b4;" x="225.871483" xlink:href="#m32f520fd2c" y="222.456727"/>
     <use style="fill:#1f77b4;stroke:#1f77b4;" x="226.939426" xlink:href="#m32f520fd2c" y="248.551332"/>
     <use style="fill:#1f77b4;stroke:#1f77b4;" x="228.007368" xlink:href="#m32f520fd2c" y="210.072356"/>
     <use style="fill:#1f77b4;stroke:#1f77b4;" x="229.075311" xlink:href="#m32f520fd2c" y="226.049041"/>
     <use style="fill:#1f77b4;stroke:#1f77b4;" x="230.143254" xlink:href="#m32f520fd2c" y="214.486323"/>
     <use style="fill:#1f77b4;stroke:#1f77b4;" x="231.211196" xlink:href="#m32f520fd2c" y="214.188741"/>
     <use style="fill:#1f77b4;stroke:#1f77b4;" x="232.279139" xlink:href="#m32f520fd2c" y="191.086648"/>
     <use style="fill:#1f77b4;stroke:#1f77b4;" x="233.347081" xlink:href="#m32f520fd2c" y="197.779753"/>
     <use style="fill:#1f77b4;stroke:#1f77b4;" x="234.415024" xlink:href="#m32f520fd2c" y="196.404928"/>
     <use style="fill:#1f77b4;stroke:#1f77b4;" x="235.482967" xlink:href="#m32f520fd2c" y="199.821913"/>
     <use style="fill:#1f77b4;stroke:#1f77b4;" x="236.550909" xlink:href="#m32f520fd2c" y="213.070138"/>
     <use style="fill:#1f77b4;stroke:#1f77b4;" x="237.618852" xlink:href="#m32f520fd2c" y="190.44632"/>
     <use style="fill:#1f77b4;stroke:#1f77b4;" x="238.686794" xlink:href="#m32f520fd2c" y="200.023692"/>
     <use style="fill:#1f77b4;stroke:#1f77b4;" x="239.754737" xlink:href="#m32f520fd2c" y="200.194379"/>
     <use style="fill:#1f77b4;stroke:#1f77b4;" x="240.822679" xlink:href="#m32f520fd2c" y="196.811032"/>
     <use style="fill:#1f77b4;stroke:#1f77b4;" x="241.890622" xlink:href="#m32f520fd2c" y="185.930447"/>
     <use style="fill:#1f77b4;stroke:#1f77b4;" x="242.958565" xlink:href="#m32f520fd2c" y="200.781449"/>
     <use style="fill:#1f77b4;stroke:#1f77b4;" x="244.026507" xlink:href="#m32f520fd2c" y="202.638418"/>
     <use style="fill:#1f77b4;stroke:#1f77b4;" x="245.09445" xlink:href="#m32f520fd2c" y="196.423456"/>
     <use style="fill:#1f77b4;stroke:#1f77b4;" x="246.162392" xlink:href="#m32f520fd2c" y="204.298828"/>
     <use style="fill:#1f77b4;stroke:#1f77b4;" x="247.230335" xlink:href="#m32f520fd2c" y="194.892734"/>
     <use style="fill:#1f77b4;stroke:#1f77b4;" x="248.298278" xlink:href="#m32f520fd2c" y="216.915684"/>
     <use style="fill:#1f77b4;stroke:#1f77b4;" x="249.36622" xlink:href="#m32f520fd2c" y="239.28178"/>
     <use style="fill:#1f77b4;stroke:#1f77b4;" x="250.434163" xlink:href="#m32f520fd2c" y="189.725375"/>
     <use style="fill:#1f77b4;stroke:#1f77b4;" x="251.502105" xlink:href="#m32f520fd2c" y="199.836763"/>
     <use style="fill:#1f77b4;stroke:#1f77b4;" x="252.570048" xlink:href="#m32f520fd2c" y="216.26304"/>
     <use style="fill:#1f77b4;stroke:#1f77b4;" x="253.63799" xlink:href="#m32f520fd2c" y="197.713381"/>
     <use style="fill:#1f77b4;stroke:#1f77b4;" x="254.705933" xlink:href="#m32f520fd2c" y="217.991163"/>
     <use style="fill:#1f77b4;stroke:#1f77b4;" x="255.773876" xlink:href="#m32f520fd2c" y="199.982094"/>
     <use style="fill:#1f77b4;stroke:#1f77b4;" x="256.841818" xlink:href="#m32f520fd2c" y="215.548032"/>
     <use style="fill:#1f77b4;stroke:#1f77b4;" x="257.909761" xlink:href="#m32f520fd2c" y="213.716444"/>
     <use style="fill:#1f77b4;stroke:#1f77b4;" x="258.977703" xlink:href="#m32f520fd2c" y="212.315771"/>
     <use style="fill:#1f77b4;stroke:#1f77b4;" x="260.045646" xlink:href="#m32f520fd2c" y="196.21431"/>
     <use style="fill:#1f77b4;stroke:#1f77b4;" x="261.113589" xlink:href="#m32f520fd2c" y="210.532265"/>
     <use style="fill:#1f77b4;stroke:#1f77b4;" x="262.181531" xlink:href="#m32f520fd2c" y="194.067893"/>
     <use style="fill:#1f77b4;stroke:#1f77b4;" x="263.249474" xlink:href="#m32f520fd2c" y="205.62379"/>
     <use style="fill:#1f77b4;stroke:#1f77b4;" x="264.317416" xlink:href="#m32f520fd2c" y="208.374607"/>
     <use style="fill:#1f77b4;stroke:#1f77b4;" x="265.385359" xlink:href="#m32f520fd2c" y="192.620198"/>
     <use style="fill:#1f77b4;stroke:#1f77b4;" x="266.453301" xlink:href="#m32f520fd2c" y="195.084817"/>
     <use style="fill:#1f77b4;stroke:#1f77b4;" x="267.521244" xlink:href="#m32f520fd2c" y="184.156372"/>
     <use style="fill:#1f77b4;stroke:#1f77b4;" x="268.589187" xlink:href="#m32f520fd2c" y="197.005812"/>
     <use style="fill:#1f77b4;stroke:#1f77b4;" x="269.657129" xlink:href="#m32f520fd2c" y="193.044312"/>
     <use style="fill:#1f77b4;stroke:#1f77b4;" x="270.725072" xlink:href="#m32f520fd2c" y="210.606321"/>
     <use style="fill:#1f77b4;stroke:#1f77b4;" x="271.793014" xlink:href="#m32f520fd2c" y="226.941222"/>
     <use style="fill:#1f77b4;stroke:#1f77b4;" x="272.860957" xlink:href="#m32f520fd2c" y="254.497624"/>
     <use style="fill:#1f77b4;stroke:#1f77b4;" x="273.9289" xlink:href="#m32f520fd2c" y="225.424341"/>
     <use style="fill:#1f77b4;stroke:#1f77b4;" x="274.996842" xlink:href="#m32f520fd2c" y="205.739563"/>
     <use style="fill:#1f77b4;stroke:#1f77b4;" x="276.064785" xlink:href="#m32f520fd2c" y="196.366647"/>
     <use style="fill:#1f77b4;stroke:#1f77b4;" x="277.132727" xlink:href="#m32f520fd2c" y="216.581398"/>
     <use style="fill:#1f77b4;stroke:#1f77b4;" x="278.20067" xlink:href="#m32f520fd2c" y="240.96527"/>
     <use style="fill:#1f77b4;stroke:#1f77b4;" x="279.268612" xlink:href="#m32f520fd2c" y="258.672497"/>
     <use style="fill:#1f77b4;stroke:#1f77b4;" x="280.336555" xlink:href="#m32f520fd2c" y="193.683833"/>
     <use style="fill:#1f77b4;stroke:#1f77b4;" x="281.404498" xlink:href="#m32f520fd2c" y="197.330867"/>
     <use style="fill:#1f77b4;stroke:#1f77b4;" x="282.47244" xlink:href="#m32f520fd2c" y="198.309845"/>
     <use style="fill:#1f77b4;stroke:#1f77b4;" x="283.540383" xlink:href="#m32f520fd2c" y="217.950389"/>
     <use style="fill:#1f77b4;stroke:#1f77b4;" x="284.608325" xlink:href="#m32f520fd2c" y="187.946123"/>
     <use style="fill:#1f77b4;stroke:#1f77b4;" x="285.676268" xlink:href="#m32f520fd2c" y="217.571507"/>
     <use style="fill:#1f77b4;stroke:#1f77b4;" x="286.744211" xlink:href="#m32f520fd2c" y="193.866323"/>
     <use style="fill:#1f77b4;stroke:#1f77b4;" x="287.812153" xlink:href="#m32f520fd2c" y="197.427736"/>
     <use style="fill:#1f77b4;stroke:#1f77b4;" x="288.880096" xlink:href="#m32f520fd2c" y="194.046715"/>
     <use style="fill:#1f77b4;stroke:#1f77b4;" x="289.948038" xlink:href="#m32f520fd2c" y="230.992481"/>
     <use style="fill:#1f77b4;stroke:#1f77b4;" x="291.015981" xlink:href="#m32f520fd2c" y="203.072615"/>
     <use style="fill:#1f77b4;stroke:#1f77b4;" x="292.083923" xlink:href="#m32f520fd2c" y="211.249804"/>
     <use style="fill:#1f77b4;stroke:#1f77b4;" x="293.151866" xlink:href="#m32f520fd2c" y="215.806912"/>
     <use style="fill:#1f77b4;stroke:#1f77b4;" x="294.219809" xlink:href="#m32f520fd2c" y="202.730718"/>
     <use style="fill:#1f77b4;stroke:#1f77b4;" x="295.287751" xlink:href="#m32f520fd2c" y="204.290269"/>
     <use style="fill:#1f77b4;stroke:#1f77b4;" x="296.355694" xlink:href="#m32f520fd2c" y="233.590301"/>
     <use style="fill:#1f77b4;stroke:#1f77b4;" x="297.423636" xlink:href="#m32f520fd2c" y="213.519913"/>
     <use style="fill:#1f77b4;stroke:#1f77b4;" x="298.491579" xlink:href="#m32f520fd2c" y="216.536157"/>
     <use style="fill:#1f77b4;stroke:#1f77b4;" x="299.559522" xlink:href="#m32f520fd2c" y="196.553722"/>
     <use style="fill:#1f77b4;stroke:#1f77b4;" x="300.627464" xlink:href="#m32f520fd2c" y="217.069646"/>
     <use style="fill:#1f77b4;stroke:#1f77b4;" x="301.695407" xlink:href="#m32f520fd2c" y="228.132021"/>
     <use style="fill:#1f77b4;stroke:#1f77b4;" x="302.763349" xlink:href="#m32f520fd2c" y="194.202541"/>
     <use style="fill:#1f77b4;stroke:#1f77b4;" x="303.831292" xlink:href="#m32f520fd2c" y="217.209499"/>
     <use style="fill:#1f77b4;stroke:#1f77b4;" x="304.899234" xlink:href="#m32f520fd2c" y="211.457767"/>
     <use style="fill:#1f77b4;stroke:#1f77b4;" x="305.967177" xlink:href="#m32f520fd2c" y="203.298434"/>
     <use style="fill:#1f77b4;stroke:#1f77b4;" x="307.03512" xlink:href="#m32f520fd2c" y="212.487054"/>
     <use style="fill:#1f77b4;stroke:#1f77b4;" x="308.103062" xlink:href="#m32f520fd2c" y="197.962905"/>
     <use style="fill:#1f77b4;stroke:#1f77b4;" x="309.171005" xlink:href="#m32f520fd2c" y="210.089902"/>
     <use style="fill:#1f77b4;stroke:#1f77b4;" x="310.238947" xlink:href="#m32f520fd2c" y="191.181258"/>
     <use style="fill:#1f77b4;stroke:#1f77b4;" x="311.30689" xlink:href="#m32f520fd2c" y="210.140344"/>
     <use style="fill:#1f77b4;stroke:#1f77b4;" x="312.374833" xlink:href="#m32f520fd2c" y="214.5309"/>
     <use style="fill:#1f77b4;stroke:#1f77b4;" x="313.442775" xlink:href="#m32f520fd2c" y="219.134274"/>
     <use style="fill:#1f77b4;stroke:#1f77b4;" x="314.510718" xlink:href="#m32f520fd2c" y="222.583228"/>
     <use style="fill:#1f77b4;stroke:#1f77b4;" x="315.57866" xlink:href="#m32f520fd2c" y="201.591116"/>
     <use style="fill:#1f77b4;stroke:#1f77b4;" x="316.646603" xlink:href="#m32f520fd2c" y="197.836226"/>
     <use style="fill:#1f77b4;stroke:#1f77b4;" x="317.714545" xlink:href="#m32f520fd2c" y="201.656937"/>
     <use style="fill:#1f77b4;stroke:#1f77b4;" x="318.782488" xlink:href="#m32f520fd2c" y="218.265711"/>
     <use style="fill:#1f77b4;stroke:#1f77b4;" x="319.850431" xlink:href="#m32f520fd2c" y="230.076338"/>
     <use style="fill:#1f77b4;stroke:#1f77b4;" x="320.918373" xlink:href="#m32f520fd2c" y="255.751109"/>
     <use style="fill:#1f77b4;stroke:#1f77b4;" x="321.986316" xlink:href="#m32f520fd2c" y="229.405657"/>
     <use style="fill:#1f77b4;stroke:#1f77b4;" x="323.054258" xlink:href="#m32f520fd2c" y="250.030844"/>
     <use style="fill:#1f77b4;stroke:#1f77b4;" x="324.122201" xlink:href="#m32f520fd2c" y="203.678353"/>
     <use style="fill:#1f77b4;stroke:#1f77b4;" x="325.190144" xlink:href="#m32f520fd2c" y="184.887198"/>
     <use style="fill:#1f77b4;stroke:#1f77b4;" x="326.258086" xlink:href="#m32f520fd2c" y="196.383858"/>
     <use style="fill:#1f77b4;stroke:#1f77b4;" x="327.326029" xlink:href="#m32f520fd2c" y="205.284751"/>
     <use style="fill:#1f77b4;stroke:#1f77b4;" x="328.393971" xlink:href="#m32f520fd2c" y="206.415802"/>
     <use style="fill:#1f77b4;stroke:#1f77b4;" x="329.461914" xlink:href="#m32f520fd2c" y="200.476321"/>
     <use style="fill:#1f77b4;stroke:#1f77b4;" x="330.529856" xlink:href="#m32f520fd2c" y="261.216"/>
     <use style="fill:#1f77b4;stroke:#1f77b4;" x="331.597799" xlink:href="#m32f520fd2c" y="186.931055"/>
     <use style="fill:#1f77b4;stroke:#1f77b4;" x="332.665742" xlink:href="#m32f520fd2c" y="190.180624"/>
     <use style="fill:#1f77b4;stroke:#1f77b4;" x="333.733684" xlink:href="#m32f520fd2c" y="195.211814"/>
     <use style="fill:#1f77b4;stroke:#1f77b4;" x="334.801627" xlink:href="#m32f520fd2c" y="196.381805"/>
     <use style="fill:#1f77b4;stroke:#1f77b4;" x="335.869569" xlink:href="#m32f520fd2c" y="202.262162"/>
     <use style="fill:#1f77b4;stroke:#1f77b4;" x="336.937512" xlink:href="#m32f520fd2c" y="200.731668"/>
     <use style="fill:#1f77b4;stroke:#1f77b4;" x="338.005455" xlink:href="#m32f520fd2c" y="234.845636"/>
     <use style="fill:#1f77b4;stroke:#1f77b4;" x="339.073397" xlink:href="#m32f520fd2c" y="212.411622"/>
     <use style="fill:#1f77b4;stroke:#1f77b4;" x="340.14134" xlink:href="#m32f520fd2c" y="217.604417"/>
     <use style="fill:#1f77b4;stroke:#1f77b4;" x="341.209282" xlink:href="#m32f520fd2c" y="207.313566"/>
     <use style="fill:#1f77b4;stroke:#1f77b4;" x="342.277225" xlink:href="#m32f520fd2c" y="222.005075"/>
     <use style="fill:#1f77b4;stroke:#1f77b4;" x="343.345167" xlink:href="#m32f520fd2c" y="211.145789"/>
     <use style="fill:#1f77b4;stroke:#1f77b4;" x="344.41311" xlink:href="#m32f520fd2c" y="200.14008"/>
     <use style="fill:#1f77b4;stroke:#1f77b4;" x="345.481053" xlink:href="#m32f520fd2c" y="203.179035"/>
     <use style="fill:#1f77b4;stroke:#1f77b4;" x="346.548995" xlink:href="#m32f520fd2c" y="204.459668"/>
     <use style="fill:#1f77b4;stroke:#1f77b4;" x="347.616938" xlink:href="#m32f520fd2c" y="214.525009"/>
     <use style="fill:#1f77b4;stroke:#1f77b4;" x="348.68488" xlink:href="#m32f520fd2c" y="231.635166"/>
     <use style="fill:#1f77b4;stroke:#1f77b4;" x="349.752823" xlink:href="#m32f520fd2c" y="190.245088"/>
     <use style="fill:#1f77b4;stroke:#1f77b4;" x="350.820766" xlink:href="#m32f520fd2c" y="194.665859"/>
     <use style="fill:#1f77b4;stroke:#1f77b4;" x="351.888708" xlink:href="#m32f520fd2c" y="197.007704"/>
     <use style="fill:#1f77b4;stroke:#1f77b4;" x="352.956651" xlink:href="#m32f520fd2c" y="199.377927"/>
     <use style="fill:#1f77b4;stroke:#1f77b4;" x="354.024593" xlink:href="#m32f520fd2c" y="211.215537"/>
     <use style="fill:#1f77b4;stroke:#1f77b4;" x="355.092536" xlink:href="#m32f520fd2c" y="194.142743"/>
     <use style="fill:#1f77b4;stroke:#1f77b4;" x="356.160478" xlink:href="#m32f520fd2c" y="185.36773"/>
     <use style="fill:#1f77b4;stroke:#1f77b4;" x="357.228421" xlink:href="#m32f520fd2c" y="194.803229"/>
     <use style="fill:#1f77b4;stroke:#1f77b4;" x="358.296364" xlink:href="#m32f520fd2c" y="185.632728"/>
     <use style="fill:#1f77b4;stroke:#1f77b4;" x="359.364306" xlink:href="#m32f520fd2c" y="209.09774"/>
     <use style="fill:#1f77b4;stroke:#1f77b4;" x="360.432249" xlink:href="#m32f520fd2c" y="194.79067"/>
     <use style="fill:#1f77b4;stroke:#1f77b4;" x="361.500191" xlink:href="#m32f520fd2c" y="215.146502"/>
     <use style="fill:#1f77b4;stroke:#1f77b4;" x="362.568134" xlink:href="#m32f520fd2c" y="200.631194"/>
     <use style="fill:#1f77b4;stroke:#1f77b4;" x="363.636077" xlink:href="#m32f520fd2c" y="202.824194"/>
     <use style="fill:#1f77b4;stroke:#1f77b4;" x="364.704019" xlink:href="#m32f520fd2c" y="207.800496"/>
     <use style="fill:#1f77b4;stroke:#1f77b4;" x="365.771962" xlink:href="#m32f520fd2c" y="209.878402"/>
     <use style="fill:#1f77b4;stroke:#1f77b4;" x="366.839904" xlink:href="#m32f520fd2c" y="198.058456"/>
     <use style="fill:#1f77b4;stroke:#1f77b4;" x="367.907847" xlink:href="#m32f520fd2c" y="204.641855"/>
     <use style="fill:#1f77b4;stroke:#1f77b4;" x="368.975789" xlink:href="#m32f520fd2c" y="212.339219"/>
     <use style="fill:#1f77b4;stroke:#1f77b4;" x="370.043732" xlink:href="#m32f520fd2c" y="218.290152"/>
     <use style="fill:#1f77b4;stroke:#1f77b4;" x="371.111675" xlink:href="#m32f520fd2c" y="208.184301"/>
     <use style="fill:#1f77b4;stroke:#1f77b4;" x="372.179617" xlink:href="#m32f520fd2c" y="229.57371"/>
     <use style="fill:#1f77b4;stroke:#1f77b4;" x="373.24756" xlink:href="#m32f520fd2c" y="200.949811"/>
     <use style="fill:#1f77b4;stroke:#1f77b4;" x="374.315502" xlink:href="#m32f520fd2c" y="220.545151"/>
     <use style="fill:#1f77b4;stroke:#1f77b4;" x="375.383445" xlink:href="#m32f520fd2c" y="202.677468"/>
     <use style="fill:#1f77b4;stroke:#1f77b4;" x="376.451388" xlink:href="#m32f520fd2c" y="224.339452"/>
     <use style="fill:#1f77b4;stroke:#1f77b4;" x="377.144274" xlink:href="#m32f520fd2c" y="22383.514"/>
    </g>
   </g>
   <g id="line2d_79">
    <path clip-path="url(#pbd60afcd58)" d="M 60.340383 58.67846 
L 61.408325 65.389195 
L 62.476268 73.142988 
L 63.544211 80.346421 
L 64.612153 87.868053 
L 65.680096 95.181675 
L 66.748038 102.626613 
L 67.815981 109.987708 
L 68.883923 117.382379 
L 69.951866 124.645839 
L 71.019809 132.1721 
L 72.087751 139.395366 
L 73.155694 147.267302 
L 74.223636 153.451804 
" style="fill:none;stroke:#2ca02c;stroke-dasharray:1.5,2.475;stroke-dashoffset:0;stroke-width:1.5;"/>
    <defs>
     <path d="M -3 3 
L 3 -3 
M -3 -3 
L 3 3 
" id="m376de005a3" style="stroke:#2ca02c;"/>
    </defs>
    <g clip-path="url(#pbd60afcd58)">
     <use style="fill:#2ca02c;stroke:#2ca02c;" x="60.340383" xlink:href="#m376de005a3" y="58.67846"/>
     <use style="fill:#2ca02c;stroke:#2ca02c;" x="61.408325" xlink:href="#m376de005a3" y="65.389195"/>
     <use style="fill:#2ca02c;stroke:#2ca02c;" x="62.476268" xlink:href="#m376de005a3" y="73.142988"/>
     <use style="fill:#2ca02c;stroke:#2ca02c;" x="63.544211" xlink:href="#m376de005a3" y="80.346421"/>
     <use style="fill:#2ca02c;stroke:#2ca02c;" x="64.612153" xlink:href="#m376de005a3" y="87.868053"/>
     <use style="fill:#2ca02c;stroke:#2ca02c;" x="65.680096" xlink:href="#m376de005a3" y="95.181675"/>
     <use style="fill:#2ca02c;stroke:#2ca02c;" x="66.748038" xlink:href="#m376de005a3" y="102.626613"/>
     <use style="fill:#2ca02c;stroke:#2ca02c;" x="67.815981" xlink:href="#m376de005a3" y="109.987708"/>
     <use style="fill:#2ca02c;stroke:#2ca02c;" x="68.883923" xlink:href="#m376de005a3" y="117.382379"/>
     <use style="fill:#2ca02c;stroke:#2ca02c;" x="69.951866" xlink:href="#m376de005a3" y="124.645839"/>
     <use style="fill:#2ca02c;stroke:#2ca02c;" x="71.019809" xlink:href="#m376de005a3" y="132.1721"/>
     <use style="fill:#2ca02c;stroke:#2ca02c;" x="72.087751" xlink:href="#m376de005a3" y="139.395366"/>
     <use style="fill:#2ca02c;stroke:#2ca02c;" x="73.155694" xlink:href="#m376de005a3" y="147.267302"/>
     <use style="fill:#2ca02c;stroke:#2ca02c;" x="74.223636" xlink:href="#m376de005a3" y="153.451804"/>
    </g>
   </g>
   <g id="line2d_80">
    <path clip-path="url(#pbd60afcd58)" d="M 55.00067 98.911239 
L 85.893395 311.86825 
L 85.893395 311.86825 
" style="fill:none;stroke:#000000;stroke-dasharray:5.55,2.4;stroke-dashoffset:0;stroke-width:1.5;"/>
   </g>
   <g id="patch_3">
    <path d="M 37.7 273.312 
L 37.7 7.2 
" style="fill:none;stroke:#000000;stroke-linecap:square;stroke-linejoin:miter;stroke-width:0.8;"/>
   </g>
   <g id="patch_4">
    <path d="M 394.82 273.312 
L 394.82 7.2 
" style="fill:none;stroke:#000000;stroke-linecap:square;stroke-linejoin:miter;stroke-width:0.8;"/>
   </g>
   <g id="patch_5">
    <path d="M 37.7 273.312 
L 394.82 273.312 
" style="fill:none;stroke:#000000;stroke-linecap:square;stroke-linejoin:miter;stroke-width:0.8;"/>
   </g>
   <g id="patch_6">
    <path d="M 37.7 7.2 
L 394.82 7.2 
" style="fill:none;stroke:#000000;stroke-linecap:square;stroke-linejoin:miter;stroke-width:0.8;"/>
   </g>
   <g id="legend_1">
    <g id="patch_7">
     <path d="M 286.72 59.25625 
L 387.82 59.25625 
Q 389.82 59.25625 389.82 57.25625 
L 389.82 14.2 
Q 389.82 12.2 387.82 12.2 
L 286.72 12.2 
Q 284.72 12.2 284.72 14.2 
L 284.72 57.25625 
Q 284.72 59.25625 286.72 59.25625 
z
" style="fill:#ffffff;opacity:0.8;"/>
    </g>
    <g id="line2d_81">
     <path d="M 288.72 20.298437 
L 308.72 20.298437 
" style="fill:none;stroke:#1f77b4;stroke-linecap:square;stroke-width:1.5;"/>
    </g>
    <g id="line2d_82">
     <g>
      <use style="fill:#1f77b4;stroke:#1f77b4;" x="298.72" xlink:href="#m32f520fd2c" y="20.298437"/>
     </g>
    </g>
    <g id="text_17">
     <!-- APD$_n$ - APD$_\infty$ -->
     <defs>
      <path d="M 34.1875 63.1875 
L 20.796875 26.90625 
L 47.609375 26.90625 
z
M 28.609375 72.90625 
L 39.796875 72.90625 
L 67.578125 0 
L 57.328125 0 
L 50.6875 18.703125 
L 17.828125 18.703125 
L 11.1875 0 
L 0.78125 0 
z
" id="DejaVuSans-65"/>
      <path d="M 19.671875 64.796875 
L 19.671875 37.40625 
L 32.078125 37.40625 
Q 38.96875 37.40625 42.71875 40.96875 
Q 46.484375 44.53125 46.484375 51.125 
Q 46.484375 57.671875 42.71875 61.234375 
Q 38.96875 64.796875 32.078125 64.796875 
z
M 9.8125 72.90625 
L 32.078125 72.90625 
Q 44.34375 72.90625 50.609375 67.359375 
Q 56.890625 61.8125 56.890625 51.125 
Q 56.890625 40.328125 50.609375 34.8125 
Q 44.34375 29.296875 32.078125 29.296875 
L 19.671875 29.296875 
L 19.671875 0 
L 9.8125 0 
z
" id="DejaVuSans-80"/>
      <path d="M 19.671875 64.796875 
L 19.671875 8.109375 
L 31.59375 8.109375 
Q 46.6875 8.109375 53.6875 14.9375 
Q 60.6875 21.78125 60.6875 36.53125 
Q 60.6875 51.171875 53.6875 57.984375 
Q 46.6875 64.796875 31.59375 64.796875 
z
M 9.8125 72.90625 
L 30.078125 72.90625 
Q 51.265625 72.90625 61.171875 64.09375 
Q 71.09375 55.28125 71.09375 36.53125 
Q 71.09375 17.671875 61.125 8.828125 
Q 51.171875 0 30.078125 0 
L 9.8125 0 
z
" id="DejaVuSans-68"/>
      <path d="M 55.71875 33.015625 
L 49.3125 0 
L 40.28125 0 
L 46.6875 32.671875 
Q 47.125 34.96875 47.359375 36.71875 
Q 47.609375 38.484375 47.609375 39.5 
Q 47.609375 43.609375 45.015625 45.890625 
Q 42.4375 48.1875 37.796875 48.1875 
Q 30.5625 48.1875 25.34375 43.375 
Q 20.125 38.578125 18.5 30.328125 
L 12.5 0 
L 3.515625 0 
L 14.109375 54.6875 
L 23.09375 54.6875 
L 21.296875 46.09375 
Q 25.046875 50.828125 30.3125 53.40625 
Q 35.59375 56 41.40625 56 
Q 48.640625 56 52.609375 52.09375 
Q 56.59375 48.1875 56.59375 41.109375 
Q 56.59375 39.359375 56.375 37.359375 
Q 56.15625 35.359375 55.71875 33.015625 
z
" id="DejaVuSans-Oblique-110"/>
      <path id="DejaVuSans-32"/>
      <path d="M 4.890625 31.390625 
L 31.203125 31.390625 
L 31.203125 23.390625 
L 4.890625 23.390625 
z
" id="DejaVuSans-45"/>
      <path d="M 45.5625 17.046875 
Q 44.046875 18.796875 41.65625 22.90625 
Q 38.375 17.046875 35.5 14.453125 
Q 31.890625 11.328125 26.265625 11.328125 
Q 19.671875 11.328125 15.328125 16.265625 
Q 10.75 21.4375 10.75 29.984375 
Q 10.75 38.1875 15.328125 43.75 
Q 19.4375 48.6875 26.375 48.6875 
Q 29.9375 48.6875 32.5625 47.21875 
Q 35.640625 45.609375 37.75 42.828125 
Q 39.703125 40.328125 41.65625 36.96875 
Q 44.921875 42.828125 47.796875 45.40625 
Q 51.421875 48.53125 57.03125 48.53125 
Q 63.625 48.53125 67.96875 43.609375 
Q 72.5625 38.421875 72.5625 29.890625 
Q 72.5625 21.6875 67.96875 16.109375 
Q 63.875 11.1875 56.9375 11.1875 
Q 53.375 11.1875 50.734375 12.640625 
Q 48.09375 13.96875 45.5625 17.046875 
z
M 25.734375 17.71875 
Q 33.796875 17.71875 38.625 29.4375 
Q 32.421875 42.234375 25.734375 42.234375 
Q 20.84375 42.234375 18.359375 38.71875 
Q 15.671875 34.96875 15.671875 29.984375 
Q 15.671875 24.515625 18.359375 21.140625 
Q 21.09375 17.71875 25.734375 17.71875 
z
M 57.5625 42.140625 
Q 50.296875 42.140625 44.671875 30.421875 
Q 50.828125 17.625 57.5625 17.625 
Q 62.453125 17.625 64.9375 21.140625 
Q 67.625 24.90625 67.625 29.890625 
Q 67.625 35.359375 64.9375 38.71875 
Q 62.203125 42.140625 57.5625 42.140625 
z
" id="DejaVuSans-8734"/>
     </defs>
     <g transform="translate(316.72 23.798437)scale(0.1 -0.1)">
      <use transform="translate(0 0.09375)" xlink:href="#DejaVuSans-65"/>
      <use transform="translate(68.408203 0.09375)" xlink:href="#DejaVuSans-80"/>
      <use transform="translate(128.710938 0.09375)" xlink:href="#DejaVuSans-68"/>
      <use transform="translate(206.669922 -16.3125)scale(0.7)" xlink:href="#DejaVuSans-Oblique-110"/>
      <use transform="translate(253.769531 0.09375)" xlink:href="#DejaVuSans-32"/>
      <use transform="translate(285.556641 0.09375)" xlink:href="#DejaVuSans-45"/>
      <use transform="translate(321.640625 0.09375)" xlink:href="#DejaVuSans-32"/>
      <use transform="translate(353.427734 0.09375)" xlink:href="#DejaVuSans-65"/>
      <use transform="translate(421.835938 0.09375)" xlink:href="#DejaVuSans-80"/>
      <use transform="translate(482.138672 0.09375)" xlink:href="#DejaVuSans-68"/>
      <use transform="translate(560.097656 -16.3125)scale(0.7)" xlink:href="#DejaVuSans-8734"/>
     </g>
    </g>
    <g id="line2d_83">
     <path d="M 288.72 34.976562 
L 308.72 34.976562 
" style="fill:none;stroke:#2ca02c;stroke-dasharray:1.5,2.475;stroke-dashoffset:0;stroke-width:1.5;"/>
    </g>
    <g id="line2d_84">
     <g>
      <use style="fill:#2ca02c;stroke:#2ca02c;" x="298.72" xlink:href="#m376de005a3" y="34.976562"/>
     </g>
    </g>
    <g id="text_18">
     <!-- linear region -->
     <defs>
      <path d="M 9.421875 75.984375 
L 18.40625 75.984375 
L 18.40625 0 
L 9.421875 0 
z
" id="DejaVuSans-108"/>
      <path d="M 9.421875 54.6875 
L 18.40625 54.6875 
L 18.40625 0 
L 9.421875 0 
z
M 9.421875 75.984375 
L 18.40625 75.984375 
L 18.40625 64.59375 
L 9.421875 64.59375 
z
" id="DejaVuSans-105"/>
      <path d="M 54.890625 33.015625 
L 54.890625 0 
L 45.90625 0 
L 45.90625 32.71875 
Q 45.90625 40.484375 42.875 44.328125 
Q 39.84375 48.1875 33.796875 48.1875 
Q 26.515625 48.1875 22.3125 43.546875 
Q 18.109375 38.921875 18.109375 30.90625 
L 18.109375 0 
L 9.078125 0 
L 9.078125 54.6875 
L 18.109375 54.6875 
L 18.109375 46.1875 
Q 21.34375 51.125 25.703125 53.5625 
Q 30.078125 56 35.796875 56 
Q 45.21875 56 50.046875 50.171875 
Q 54.890625 44.34375 54.890625 33.015625 
z
" id="DejaVuSans-110"/>
      <path d="M 56.203125 29.59375 
L 56.203125 25.203125 
L 14.890625 25.203125 
Q 15.484375 15.921875 20.484375 11.0625 
Q 25.484375 6.203125 34.421875 6.203125 
Q 39.59375 6.203125 44.453125 7.46875 
Q 49.3125 8.734375 54.109375 11.28125 
L 54.109375 2.78125 
Q 49.265625 0.734375 44.1875 -0.34375 
Q 39.109375 -1.421875 33.890625 -1.421875 
Q 20.796875 -1.421875 13.15625 6.1875 
Q 5.515625 13.8125 5.515625 26.8125 
Q 5.515625 40.234375 12.765625 48.109375 
Q 20.015625 56 32.328125 56 
Q 43.359375 56 49.78125 48.890625 
Q 56.203125 41.796875 56.203125 29.59375 
z
M 47.21875 32.234375 
Q 47.125 39.59375 43.09375 43.984375 
Q 39.0625 48.390625 32.421875 48.390625 
Q 24.90625 48.390625 20.390625 44.140625 
Q 15.875 39.890625 15.1875 32.171875 
z
" id="DejaVuSans-101"/>
      <path d="M 34.28125 27.484375 
Q 23.390625 27.484375 19.1875 25 
Q 14.984375 22.515625 14.984375 16.5 
Q 14.984375 11.71875 18.140625 8.90625 
Q 21.296875 6.109375 26.703125 6.109375 
Q 34.1875 6.109375 38.703125 11.40625 
Q 43.21875 16.703125 43.21875 25.484375 
L 43.21875 27.484375 
z
M 52.203125 31.203125 
L 52.203125 0 
L 43.21875 0 
L 43.21875 8.296875 
Q 40.140625 3.328125 35.546875 0.953125 
Q 30.953125 -1.421875 24.3125 -1.421875 
Q 15.921875 -1.421875 10.953125 3.296875 
Q 6 8.015625 6 15.921875 
Q 6 25.140625 12.171875 29.828125 
Q 18.359375 34.515625 30.609375 34.515625 
L 43.21875 34.515625 
L 43.21875 35.40625 
Q 43.21875 41.609375 39.140625 45 
Q 35.0625 48.390625 27.6875 48.390625 
Q 23 48.390625 18.546875 47.265625 
Q 14.109375 46.140625 10.015625 43.890625 
L 10.015625 52.203125 
Q 14.9375 54.109375 19.578125 55.046875 
Q 24.21875 56 28.609375 56 
Q 40.484375 56 46.34375 49.84375 
Q 52.203125 43.703125 52.203125 31.203125 
z
" id="DejaVuSans-97"/>
      <path d="M 41.109375 46.296875 
Q 39.59375 47.171875 37.8125 47.578125 
Q 36.03125 48 33.890625 48 
Q 26.265625 48 22.1875 43.046875 
Q 18.109375 38.09375 18.109375 28.8125 
L 18.109375 0 
L 9.078125 0 
L 9.078125 54.6875 
L 18.109375 54.6875 
L 18.109375 46.1875 
Q 20.953125 51.171875 25.484375 53.578125 
Q 30.03125 56 36.53125 56 
Q 37.453125 56 38.578125 55.875 
Q 39.703125 55.765625 41.0625 55.515625 
z
" id="DejaVuSans-114"/>
      <path d="M 45.40625 27.984375 
Q 45.40625 37.75 41.375 43.109375 
Q 37.359375 48.484375 30.078125 48.484375 
Q 22.859375 48.484375 18.828125 43.109375 
Q 14.796875 37.75 14.796875 27.984375 
Q 14.796875 18.265625 18.828125 12.890625 
Q 22.859375 7.515625 30.078125 7.515625 
Q 37.359375 7.515625 41.375 12.890625 
Q 45.40625 18.265625 45.40625 27.984375 
z
M 54.390625 6.78125 
Q 54.390625 -7.171875 48.1875 -13.984375 
Q 42 -20.796875 29.203125 -20.796875 
Q 24.46875 -20.796875 20.265625 -20.09375 
Q 16.0625 -19.390625 12.109375 -17.921875 
L 12.109375 -9.1875 
Q 16.0625 -11.328125 19.921875 -12.34375 
Q 23.78125 -13.375 27.78125 -13.375 
Q 36.625 -13.375 41.015625 -8.765625 
Q 45.40625 -4.15625 45.40625 5.171875 
L 45.40625 9.625 
Q 42.625 4.78125 38.28125 2.390625 
Q 33.9375 0 27.875 0 
Q 17.828125 0 11.671875 7.65625 
Q 5.515625 15.328125 5.515625 27.984375 
Q 5.515625 40.671875 11.671875 48.328125 
Q 17.828125 56 27.875 56 
Q 33.9375 56 38.28125 53.609375 
Q 42.625 51.21875 45.40625 46.390625 
L 45.40625 54.6875 
L 54.390625 54.6875 
z
" id="DejaVuSans-103"/>
      <path d="M 30.609375 48.390625 
Q 23.390625 48.390625 19.1875 42.75 
Q 14.984375 37.109375 14.984375 27.296875 
Q 14.984375 17.484375 19.15625 11.84375 
Q 23.34375 6.203125 30.609375 6.203125 
Q 37.796875 6.203125 41.984375 11.859375 
Q 46.1875 17.53125 46.1875 27.296875 
Q 46.1875 37.015625 41.984375 42.703125 
Q 37.796875 48.390625 30.609375 48.390625 
z
M 30.609375 56 
Q 42.328125 56 49.015625 48.375 
Q 55.71875 40.765625 55.71875 27.296875 
Q 55.71875 13.875 49.015625 6.21875 
Q 42.328125 -1.421875 30.609375 -1.421875 
Q 18.84375 -1.421875 12.171875 6.21875 
Q 5.515625 13.875 5.515625 27.296875 
Q 5.515625 40.765625 12.171875 48.375 
Q 18.84375 56 30.609375 56 
z
" id="DejaVuSans-111"/>
     </defs>
     <g transform="translate(316.72 38.476562)scale(0.1 -0.1)">
      <use xlink:href="#DejaVuSans-108"/>
      <use x="27.783203" xlink:href="#DejaVuSans-105"/>
      <use x="55.566406" xlink:href="#DejaVuSans-110"/>
      <use x="118.945312" xlink:href="#DejaVuSans-101"/>
      <use x="180.46875" xlink:href="#DejaVuSans-97"/>
      <use x="241.748047" xlink:href="#DejaVuSans-114"/>
      <use x="282.861328" xlink:href="#DejaVuSans-32"/>
      <use x="314.648438" xlink:href="#DejaVuSans-114"/>
      <use x="353.511719" xlink:href="#DejaVuSans-101"/>
      <use x="415.035156" xlink:href="#DejaVuSans-103"/>
      <use x="478.511719" xlink:href="#DejaVuSans-105"/>
      <use x="506.294922" xlink:href="#DejaVuSans-111"/>
      <use x="567.476562" xlink:href="#DejaVuSans-110"/>
     </g>
    </g>
    <g id="line2d_85">
     <path d="M 288.72 49.65625 
L 308.72 49.65625 
" style="fill:none;stroke:#000000;stroke-dasharray:5.55,2.4;stroke-dashoffset:0;stroke-width:1.5;"/>
    </g>
    <g id="line2d_86"/>
    <g id="text_19">
     <!-- $ \exp(-0.494 k)$ -->
     <defs>
      <path d="M 54.890625 54.6875 
L 35.109375 28.078125 
L 55.90625 0 
L 45.3125 0 
L 29.390625 21.484375 
L 13.484375 0 
L 2.875 0 
L 24.125 28.609375 
L 4.6875 54.6875 
L 15.28125 54.6875 
L 29.78125 35.203125 
L 44.28125 54.6875 
z
" id="DejaVuSans-120"/>
      <path d="M 18.109375 8.203125 
L 18.109375 -20.796875 
L 9.078125 -20.796875 
L 9.078125 54.6875 
L 18.109375 54.6875 
L 18.109375 46.390625 
Q 20.953125 51.265625 25.265625 53.625 
Q 29.59375 56 35.59375 56 
Q 45.5625 56 51.78125 48.09375 
Q 58.015625 40.1875 58.015625 27.296875 
Q 58.015625 14.40625 51.78125 6.484375 
Q 45.5625 -1.421875 35.59375 -1.421875 
Q 29.59375 -1.421875 25.265625 0.953125 
Q 20.953125 3.328125 18.109375 8.203125 
z
M 48.6875 27.296875 
Q 48.6875 37.203125 44.609375 42.84375 
Q 40.53125 48.484375 33.40625 48.484375 
Q 26.265625 48.484375 22.1875 42.84375 
Q 18.109375 37.203125 18.109375 27.296875 
Q 18.109375 17.390625 22.1875 11.75 
Q 26.265625 6.109375 33.40625 6.109375 
Q 40.53125 6.109375 44.609375 11.75 
Q 48.6875 17.390625 48.6875 27.296875 
z
" id="DejaVuSans-112"/>
      <path d="M 31 75.875 
Q 24.46875 64.65625 21.28125 53.65625 
Q 18.109375 42.671875 18.109375 31.390625 
Q 18.109375 20.125 21.3125 9.0625 
Q 24.515625 -2 31 -13.1875 
L 23.1875 -13.1875 
Q 15.875 -1.703125 12.234375 9.375 
Q 8.59375 20.453125 8.59375 31.390625 
Q 8.59375 42.28125 12.203125 53.3125 
Q 15.828125 64.359375 23.1875 75.875 
z
" id="DejaVuSans-40"/>
      <path d="M 10.6875 12.40625 
L 21 12.40625 
L 21 0 
L 10.6875 0 
z
" id="DejaVuSans-46"/>
      <path d="M 10.984375 1.515625 
L 10.984375 10.5 
Q 14.703125 8.734375 18.5 7.8125 
Q 22.3125 6.890625 25.984375 6.890625 
Q 35.75 6.890625 40.890625 13.453125 
Q 46.046875 20.015625 46.78125 33.40625 
Q 43.953125 29.203125 39.59375 26.953125 
Q 35.25 24.703125 29.984375 24.703125 
Q 19.046875 24.703125 12.671875 31.3125 
Q 6.296875 37.9375 6.296875 49.421875 
Q 6.296875 60.640625 12.9375 67.421875 
Q 19.578125 74.21875 30.609375 74.21875 
Q 43.265625 74.21875 49.921875 64.515625 
Q 56.59375 54.828125 56.59375 36.375 
Q 56.59375 19.140625 48.40625 8.859375 
Q 40.234375 -1.421875 26.421875 -1.421875 
Q 22.703125 -1.421875 18.890625 -0.6875 
Q 15.09375 0.046875 10.984375 1.515625 
z
M 30.609375 32.421875 
Q 37.25 32.421875 41.125 36.953125 
Q 45.015625 41.5 45.015625 49.421875 
Q 45.015625 57.28125 41.125 61.84375 
Q 37.25 66.40625 30.609375 66.40625 
Q 23.96875 66.40625 20.09375 61.84375 
Q 16.21875 57.28125 16.21875 49.421875 
Q 16.21875 41.5 20.09375 36.953125 
Q 23.96875 32.421875 30.609375 32.421875 
z
" id="DejaVuSans-57"/>
      <path d="M 8.015625 75.875 
L 15.828125 75.875 
Q 23.140625 64.359375 26.78125 53.3125 
Q 30.421875 42.28125 30.421875 31.390625 
Q 30.421875 20.453125 26.78125 9.375 
Q 23.140625 -1.703125 15.828125 -13.1875 
L 8.015625 -13.1875 
Q 14.5 -2 17.703125 9.0625 
Q 20.90625 20.125 20.90625 31.390625 
Q 20.90625 42.671875 17.703125 53.65625 
Q 14.5 64.65625 8.015625 75.875 
z
" id="DejaVuSans-41"/>
     </defs>
     <g transform="translate(316.72 53.15625)scale(0.1 -0.1)">
      <use transform="translate(0 0.015625)" xlink:href="#DejaVuSans-101"/>
      <use transform="translate(61.523438 0.015625)" xlink:href="#DejaVuSans-120"/>
      <use transform="translate(120.703125 0.015625)" xlink:href="#DejaVuSans-112"/>
      <use transform="translate(184.179688 0.015625)" xlink:href="#DejaVuSans-40"/>
      <use transform="translate(223.193359 0.015625)" xlink:href="#DejaVuSans-8722"/>
      <use transform="translate(306.982422 0.015625)" xlink:href="#DejaVuSans-48"/>
      <use transform="translate(370.605469 0.015625)" xlink:href="#DejaVuSans-46"/>
      <use transform="translate(402.392578 0.015625)" xlink:href="#DejaVuSans-52"/>
      <use transform="translate(466.015625 0.015625)" xlink:href="#DejaVuSans-57"/>
      <use transform="translate(529.638672 0.015625)" xlink:href="#DejaVuSans-52"/>
      <use transform="translate(593.261719 0.015625)" xlink:href="#DejaVuSans-Oblique-107"/>
      <use transform="translate(651.171875 0.015625)" xlink:href="#DejaVuSans-41"/>
     </g>
    </g>
   </g>
  </g>
 </g>
 <defs>
  <clipPath id="pbd60afcd58">
   <rect height="266.112" width="357.12" x="37.7" y="7.2"/>
  </clipPath>
 </defs>
</svg>
