<?xml version="1.0" encoding="utf-8" standalone="no"?>
<!DOCTYPE svg PUBLIC "-//W3C//DTD SVG 1.1//EN"
  "http://www.w3.org/Graphics/SVG/1.1/DTD/svg11.dtd">
<!-- Created with matplotlib (https://matplotlib.org/) -->
<svg height="310.86825pt" version="1.1" viewBox="0 0 402.02 310.86825" width="402.02pt" xmlns="http://www.w3.org/2000/svg" xmlns:xlink="http://www.w3.org/1999/xlink">
 <defs>
  <style type="text/css">
*{stroke-linecap:butt;stroke-linejoin:round;}
  </style>
 </defs>
 <g id="figure_1">
  <g id="patch_1">
   <path d="M 0 310.86825 
L 402.02 310.86825 
L 402.02 0 
L 0 0 
z
" style="fill:#ffffff;"/>
  </g>
  <g id="axes_1">
   <g id="patch_2">
    <path d="M 37.7 273.312 
L 394.82 273.312 
L 394.82 7.2 
L 37.7 7.2 
z
" style="fill:#ffffff;"/>
   </g>
   <g id="matplotlib.axis_1">
    <g id="xtick_1">
     <g id="line2d_1">
      <defs>
       <path d="M 0 0 
L 0 3.5 
" id="m9225db2e60" style="stroke:#000000;stroke-width:0.8;"/>
      </defs>
      <g>
       <use style="stroke:#000000;stroke-width:0.8;" x="53.932727" xlink:href="#m9225db2e60" y="273.312"/>
      </g>
     </g>
     <g id="text_1">
      <!-- 0 -->
      <defs>
       <path d="M 31.78125 66.40625 
Q 24.171875 66.40625 20.328125 58.90625 
Q 16.5 51.421875 16.5 36.375 
Q 16.5 21.390625 20.328125 13.890625 
Q 24.171875 6.390625 31.78125 6.390625 
Q 39.453125 6.390625 43.28125 13.890625 
Q 47.125 21.390625 47.125 36.375 
Q 47.125 51.421875 43.28125 58.90625 
Q 39.453125 66.40625 31.78125 66.40625 
z
M 31.78125 74.21875 
Q 44.046875 74.21875 50.515625 64.515625 
Q 56.984375 54.828125 56.984375 36.375 
Q 56.984375 17.96875 50.515625 8.265625 
Q 44.046875 -1.421875 31.78125 -1.421875 
Q 19.53125 -1.421875 13.0625 8.265625 
Q 6.59375 17.96875 6.59375 36.375 
Q 6.59375 54.828125 13.0625 64.515625 
Q 19.53125 74.21875 31.78125 74.21875 
z
" id="DejaVuSans-48"/>
      </defs>
      <g transform="translate(50.751477 287.910437)scale(0.1 -0.1)">
       <use xlink:href="#DejaVuSans-48"/>
      </g>
     </g>
    </g>
    <g id="xtick_2">
     <g id="line2d_2">
      <g>
       <use style="stroke:#000000;stroke-width:0.8;" x="111.906753" xlink:href="#m9225db2e60" y="273.312"/>
      </g>
     </g>
     <g id="text_2">
      <!-- 50 -->
      <defs>
       <path d="M 10.796875 72.90625 
L 49.515625 72.90625 
L 49.515625 64.59375 
L 19.828125 64.59375 
L 19.828125 46.734375 
Q 21.96875 47.46875 24.109375 47.828125 
Q 26.265625 48.1875 28.421875 48.1875 
Q 40.625 48.1875 47.75 41.5 
Q 54.890625 34.8125 54.890625 23.390625 
Q 54.890625 11.625 47.5625 5.09375 
Q 40.234375 -1.421875 26.90625 -1.421875 
Q 22.3125 -1.421875 17.546875 -0.640625 
Q 12.796875 0.140625 7.71875 1.703125 
L 7.71875 11.625 
Q 12.109375 9.234375 16.796875 8.0625 
Q 21.484375 6.890625 26.703125 6.890625 
Q 35.15625 6.890625 40.078125 11.328125 
Q 45.015625 15.765625 45.015625 23.390625 
Q 45.015625 31 40.078125 35.4375 
Q 35.15625 39.890625 26.703125 39.890625 
Q 22.75 39.890625 18.8125 39.015625 
Q 14.890625 38.140625 10.796875 36.28125 
z
" id="DejaVuSans-53"/>
      </defs>
      <g transform="translate(105.544253 287.910437)scale(0.1 -0.1)">
       <use xlink:href="#DejaVuSans-53"/>
       <use x="63.623047" xlink:href="#DejaVuSans-48"/>
      </g>
     </g>
    </g>
    <g id="xtick_3">
     <g id="line2d_3">
      <g>
       <use style="stroke:#000000;stroke-width:0.8;" x="169.880779" xlink:href="#m9225db2e60" y="273.312"/>
      </g>
     </g>
     <g id="text_3">
      <!-- 100 -->
      <defs>
       <path d="M 12.40625 8.296875 
L 28.515625 8.296875 
L 28.515625 63.921875 
L 10.984375 60.40625 
L 10.984375 69.390625 
L 28.421875 72.90625 
L 38.28125 72.90625 
L 38.28125 8.296875 
L 54.390625 8.296875 
L 54.390625 0 
L 12.40625 0 
z
" id="DejaVuSans-49"/>
      </defs>
      <g transform="translate(160.337029 287.910437)scale(0.1 -0.1)">
       <use xlink:href="#DejaVuSans-49"/>
       <use x="63.623047" xlink:href="#DejaVuSans-48"/>
       <use x="127.246094" xlink:href="#DejaVuSans-48"/>
      </g>
     </g>
    </g>
    <g id="xtick_4">
     <g id="line2d_4">
      <g>
       <use style="stroke:#000000;stroke-width:0.8;" x="227.854805" xlink:href="#m9225db2e60" y="273.312"/>
      </g>
     </g>
     <g id="text_4">
      <!-- 150 -->
      <g transform="translate(218.311055 287.910437)scale(0.1 -0.1)">
       <use xlink:href="#DejaVuSans-49"/>
       <use x="63.623047" xlink:href="#DejaVuSans-53"/>
       <use x="127.246094" xlink:href="#DejaVuSans-48"/>
      </g>
     </g>
    </g>
    <g id="xtick_5">
     <g id="line2d_5">
      <g>
       <use style="stroke:#000000;stroke-width:0.8;" x="285.828831" xlink:href="#m9225db2e60" y="273.312"/>
      </g>
     </g>
     <g id="text_5">
      <!-- 200 -->
      <defs>
       <path d="M 19.1875 8.296875 
L 53.609375 8.296875 
L 53.609375 0 
L 7.328125 0 
L 7.328125 8.296875 
Q 12.9375 14.109375 22.625 23.890625 
Q 32.328125 33.6875 34.8125 36.53125 
Q 39.546875 41.84375 41.421875 45.53125 
Q 43.3125 49.21875 43.3125 52.78125 
Q 43.3125 58.59375 39.234375 62.25 
Q 35.15625 65.921875 28.609375 65.921875 
Q 23.96875 65.921875 18.8125 64.3125 
Q 13.671875 62.703125 7.8125 59.421875 
L 7.8125 69.390625 
Q 13.765625 71.78125 18.9375 73 
Q 24.125 74.21875 28.421875 74.21875 
Q 39.75 74.21875 46.484375 68.546875 
Q 53.21875 62.890625 53.21875 53.421875 
Q 53.21875 48.921875 51.53125 44.890625 
Q 49.859375 40.875 45.40625 35.40625 
Q 44.1875 33.984375 37.640625 27.21875 
Q 31.109375 20.453125 19.1875 8.296875 
z
" id="DejaVuSans-50"/>
      </defs>
      <g transform="translate(276.285081 287.910437)scale(0.1 -0.1)">
       <use xlink:href="#DejaVuSans-50"/>
       <use x="63.623047" xlink:href="#DejaVuSans-48"/>
       <use x="127.246094" xlink:href="#DejaVuSans-48"/>
      </g>
     </g>
    </g>
    <g id="xtick_6">
     <g id="line2d_6">
      <g>
       <use style="stroke:#000000;stroke-width:0.8;" x="343.802857" xlink:href="#m9225db2e60" y="273.312"/>
      </g>
     </g>
     <g id="text_6">
      <!-- 250 -->
      <g transform="translate(334.259107 287.910437)scale(0.1 -0.1)">
       <use xlink:href="#DejaVuSans-50"/>
       <use x="63.623047" xlink:href="#DejaVuSans-53"/>
       <use x="127.246094" xlink:href="#DejaVuSans-48"/>
      </g>
     </g>
    </g>
    <g id="text_7">
     <!-- $ k $ -->
     <defs>
      <path d="M 18.3125 75.984375 
L 27.296875 75.984375 
L 18.703125 31.6875 
L 49.515625 54.6875 
L 61.1875 54.6875 
L 26.8125 28.515625 
L 51.90625 0 
L 41.015625 0 
L 17.671875 26.703125 
L 12.5 0 
L 3.515625 0 
z
" id="DejaVuSans-Oblique-107"/>
     </defs>
     <g transform="translate(213.36 301.588562)scale(0.1 -0.1)">
      <use transform="translate(0 0.015625)" xlink:href="#DejaVuSans-Oblique-107"/>
     </g>
    </g>
   </g>
   <g id="matplotlib.axis_2">
    <g id="ytick_1">
     <g id="line2d_7">
      <defs>
       <path d="M 0 0 
L -3.5 0 
" id="mbb4973b773" style="stroke:#000000;stroke-width:0.8;"/>
      </defs>
      <g>
       <use style="stroke:#000000;stroke-width:0.8;" x="37.7" xlink:href="#mbb4973b773" y="229.290656"/>
      </g>
     </g>
     <g id="text_8">
      <!-- $\mathdefault{10^{-5}}$ -->
      <defs>
       <path d="M 10.59375 35.5 
L 73.1875 35.5 
L 73.1875 27.203125 
L 10.59375 27.203125 
z
" id="DejaVuSans-8722"/>
      </defs>
      <g transform="translate(7.2 233.089875)scale(0.1 -0.1)">
       <use transform="translate(0 0.684375)" xlink:href="#DejaVuSans-49"/>
       <use transform="translate(63.623047 0.684375)" xlink:href="#DejaVuSans-48"/>
       <use transform="translate(128.203125 38.965625)scale(0.7)" xlink:href="#DejaVuSans-8722"/>
       <use transform="translate(186.855469 38.965625)scale(0.7)" xlink:href="#DejaVuSans-53"/>
      </g>
     </g>
    </g>
    <g id="ytick_2">
     <g id="line2d_8">
      <g>
       <use style="stroke:#000000;stroke-width:0.8;" x="37.7" xlink:href="#mbb4973b773" y="166.700712"/>
      </g>
     </g>
     <g id="text_9">
      <!-- $\mathdefault{10^{-3}}$ -->
      <defs>
       <path d="M 40.578125 39.3125 
Q 47.65625 37.796875 51.625 33 
Q 55.609375 28.21875 55.609375 21.1875 
Q 55.609375 10.40625 48.1875 4.484375 
Q 40.765625 -1.421875 27.09375 -1.421875 
Q 22.515625 -1.421875 17.65625 -0.515625 
Q 12.796875 0.390625 7.625 2.203125 
L 7.625 11.71875 
Q 11.71875 9.328125 16.59375 8.109375 
Q 21.484375 6.890625 26.8125 6.890625 
Q 36.078125 6.890625 40.9375 10.546875 
Q 45.796875 14.203125 45.796875 21.1875 
Q 45.796875 27.640625 41.28125 31.265625 
Q 36.765625 34.90625 28.71875 34.90625 
L 20.21875 34.90625 
L 20.21875 43.015625 
L 29.109375 43.015625 
Q 36.375 43.015625 40.234375 45.921875 
Q 44.09375 48.828125 44.09375 54.296875 
Q 44.09375 59.90625 40.109375 62.90625 
Q 36.140625 65.921875 28.71875 65.921875 
Q 24.65625 65.921875 20.015625 65.03125 
Q 15.375 64.15625 9.8125 62.3125 
L 9.8125 71.09375 
Q 15.4375 72.65625 20.34375 73.4375 
Q 25.25 74.21875 29.59375 74.21875 
Q 40.828125 74.21875 47.359375 69.109375 
Q 53.90625 64.015625 53.90625 55.328125 
Q 53.90625 49.265625 50.4375 45.09375 
Q 46.96875 40.921875 40.578125 39.3125 
z
" id="DejaVuSans-51"/>
      </defs>
      <g transform="translate(7.2 170.49993)scale(0.1 -0.1)">
       <use transform="translate(0 0.765625)" xlink:href="#DejaVuSans-49"/>
       <use transform="translate(63.623047 0.765625)" xlink:href="#DejaVuSans-48"/>
       <use transform="translate(128.203125 39.046875)scale(0.7)" xlink:href="#DejaVuSans-8722"/>
       <use transform="translate(186.855469 39.046875)scale(0.7)" xlink:href="#DejaVuSans-51"/>
      </g>
     </g>
    </g>
    <g id="ytick_3">
     <g id="line2d_9">
      <g>
       <use style="stroke:#000000;stroke-width:0.8;" x="37.7" xlink:href="#mbb4973b773" y="104.110767"/>
      </g>
     </g>
     <g id="text_10">
      <!-- $\mathdefault{10^{-1}}$ -->
      <g transform="translate(7.2 107.909986)scale(0.1 -0.1)">
       <use transform="translate(0 0.684375)" xlink:href="#DejaVuSans-49"/>
       <use transform="translate(63.623047 0.684375)" xlink:href="#DejaVuSans-48"/>
       <use transform="translate(128.203125 38.965625)scale(0.7)" xlink:href="#DejaVuSans-8722"/>
       <use transform="translate(186.855469 38.965625)scale(0.7)" xlink:href="#DejaVuSans-49"/>
      </g>
     </g>
    </g>
    <g id="ytick_4">
     <g id="line2d_10">
      <g>
       <use style="stroke:#000000;stroke-width:0.8;" x="37.7" xlink:href="#mbb4973b773" y="41.520823"/>
      </g>
     </g>
     <g id="text_11">
      <!-- $\mathdefault{10^{1}}$ -->
      <g transform="translate(13.1 45.320041)scale(0.1 -0.1)">
       <use transform="translate(0 0.684375)" xlink:href="#DejaVuSans-49"/>
       <use transform="translate(63.623047 0.684375)" xlink:href="#DejaVuSans-48"/>
       <use transform="translate(128.203125 38.965625)scale(0.7)" xlink:href="#DejaVuSans-49"/>
      </g>
     </g>
    </g>
   </g>
   <g id="line2d_11">
    <path clip-path="url(#pfae1b6edf5)" d="M 53.932727 19.296 
L 55.092208 25.341013 
L 60.88961 78.805298 
L 69.005974 153.73081 
L 70.165455 167.22658 
L 71.324935 167.642111 
L 72.484416 197.615316 
L 73.643896 180.159357 
L 74.803377 186.773224 
L 75.962857 196.280498 
L 77.122338 184.513607 
L 78.281818 183.439965 
L 79.441299 201.295664 
L 80.600779 175.622547 
L 81.76026 186.527583 
L 82.91974 198.881913 
L 84.079221 186.244805 
L 85.238701 185.323436 
L 86.398182 184.599129 
L 87.557662 184.660021 
L 88.717143 204.097099 
L 89.876623 197.448553 
L 91.036104 195.180677 
L 92.195584 179.516912 
L 93.355065 194.762414 
L 94.514545 181.511255 
L 95.674026 201.262657 
L 96.833506 201.093318 
L 97.992987 194.044336 
L 99.152468 171.722499 
L 100.311948 184.722203 
L 101.471429 182.567064 
L 102.630909 169.950952 
L 103.79039 197.683067 
L 104.94987 187.532232 
L 106.109351 203.331916 
L 107.268831 195.640242 
L 108.428312 200.545064 
L 109.587792 174.210822 
L 110.747273 235.922445 
L 111.906753 166.211385 
L 113.066234 199.514315 
L 114.225714 205.411138 
L 115.385195 161.662593 
L 116.544675 176.261812 
L 117.704156 160.793491 
L 118.863636 172.861197 
L 120.023117 180.460937 
L 121.182597 189.987201 
L 122.342078 188.077992 
L 123.501558 195.797881 
L 124.661039 175.553782 
L 125.820519 231.034912 
L 126.98 189.440098 
L 128.139481 199.291426 
L 129.298961 190.87254 
L 130.458442 203.843174 
L 131.617922 173.342627 
L 132.777403 188.672444 
L 133.936883 168.742801 
L 135.096364 199.923901 
L 136.255844 176.177881 
L 137.415325 186.997442 
L 138.574805 168.900935 
L 139.734286 181.234335 
L 140.893766 170.260203 
L 142.053247 195.670569 
L 143.212727 172.629027 
L 144.372208 211.433667 
L 145.531688 175.480297 
L 146.691169 196.039139 
L 147.850649 175.840056 
L 149.01013 208.478101 
L 150.16961 183.320073 
L 151.329091 190.968387 
L 152.488571 193.350212 
L 153.648052 193.556571 
L 155.967013 176.89034 
L 157.126494 196.094795 
L 158.285974 186.949253 
L 159.445455 185.764243 
L 160.604935 188.051746 
L 161.764416 188.896565 
L 162.923896 213.150239 
L 164.083377 176.455679 
L 165.242857 210.23228 
L 166.402338 191.841367 
L 167.561818 179.622542 
L 168.721299 202.523522 
L 169.880779 163.061583 
L 171.04026 171.357311 
L 172.19974 172.44325 
L 173.359221 195.082279 
L 174.518701 177.228223 
L 175.678182 181.154982 
L 176.837662 199.098236 
L 177.997143 175.57178 
L 179.156623 195.273239 
L 180.316104 195.949068 
L 181.475584 188.459926 
L 182.635065 261.216 
L 183.794545 189.14245 
L 184.954026 212.863657 
L 186.113506 185.180942 
L 187.272987 207.766964 
L 188.432468 182.145061 
L 189.591948 181.296334 
L 190.751429 204.366649 
L 191.910909 177.147408 
L 193.07039 190.803134 
L 194.22987 184.497805 
L 195.389351 188.410225 
L 196.548831 172.461752 
L 197.708312 200.870642 
L 198.867792 179.463658 
L 200.027273 186.19048 
L 201.186753 202.419278 
L 202.346234 180.51864 
L 203.505714 188.611718 
L 204.665195 227.38633 
L 205.824675 187.846561 
L 206.984156 199.89268 
L 208.143636 187.013828 
L 209.303117 197.008299 
L 210.462597 179.487813 
L 212.781558 196.905704 
L 213.941039 187.268602 
L 215.100519 192.402334 
L 216.26 182.232258 
L 217.419481 205.928288 
L 218.578961 188.891714 
L 219.738442 181.409753 
L 220.897922 203.977132 
L 222.057403 173.734068 
L 223.216883 193.523174 
L 224.376364 190.161791 
L 225.535844 189.434899 
L 226.695325 183.362207 
L 227.854805 179.74649 
L 229.014286 182.455393 
L 230.173766 182.834778 
L 231.333247 207.309321 
L 232.492727 189.891473 
L 233.652208 199.605316 
L 234.811688 183.423529 
L 235.971169 202.437728 
L 237.130649 181.502246 
L 238.29013 215.77965 
L 239.44961 189.641824 
L 240.609091 198.025664 
L 241.768571 189.177056 
L 242.928052 176.275811 
L 244.087532 208.031587 
L 245.247013 178.570218 
L 246.406494 183.957513 
L 247.565974 182.029408 
L 248.725455 192.770349 
L 249.884935 175.999631 
L 251.044416 201.451594 
L 252.203896 186.28444 
L 253.363377 188.381659 
L 254.522857 189.118651 
L 255.682338 180.407113 
L 256.841818 208.763248 
L 258.001299 182.267234 
L 259.160779 185.164188 
L 260.32026 177.042771 
L 261.47974 203.536072 
L 262.639221 168.907817 
L 263.798701 195.173591 
L 264.958182 176.569285 
L 266.117662 220.54526 
L 267.277143 183.127241 
L 268.436623 204.780479 
L 269.596104 175.776523 
L 270.755584 180.420529 
L 271.915065 216.70727 
L 273.074545 192.988912 
L 274.234026 181.791898 
L 275.393506 179.365295 
L 276.552987 208.690365 
L 277.712468 159.146232 
L 278.871948 167.508316 
L 280.031429 169.462405 
L 281.190909 190.490398 
L 282.35039 183.902673 
L 283.50987 196.520498 
L 284.669351 198.502903 
L 285.828831 191.381065 
L 286.988312 180.913499 
L 288.147792 172.786894 
L 289.307273 193.186724 
L 290.466753 185.742421 
L 291.626234 232.861894 
L 292.785714 184.681946 
L 293.945195 170.617963 
L 295.104675 187.702169 
L 296.264156 177.759776 
L 297.423636 189.19569 
L 298.583117 179.885817 
L 299.742597 217.121059 
L 300.902078 175.067418 
L 302.061558 205.718166 
L 303.221039 181.15448 
L 304.380519 182.721433 
L 305.54 233.415079 
L 306.699481 183.906586 
L 307.858961 191.156129 
L 309.018442 199.752691 
L 310.177922 167.95648 
L 311.337403 204.6858 
L 312.496883 172.095702 
L 313.656364 201.974926 
L 314.815844 177.88328 
L 315.975325 218.099822 
L 317.134805 192.520637 
L 318.294286 200.425669 
L 319.453766 191.739902 
L 320.613247 176.497211 
L 321.772727 192.477885 
L 322.932208 179.371506 
L 324.091688 202.617421 
L 325.251169 168.814915 
L 326.410649 206.434696 
L 327.57013 177.691933 
L 328.72961 181.692615 
L 329.889091 183.557956 
L 331.048571 208.283632 
L 332.208052 176.383611 
L 333.367532 172.090132 
L 334.527013 198.928943 
L 335.686494 184.886481 
L 336.845974 201.592191 
L 338.005455 244.459163 
L 339.164935 187.835825 
L 340.324416 177.571698 
L 341.483896 212.503491 
L 342.643377 183.122493 
L 343.802857 181.141049 
L 344.962338 191.486127 
L 346.121818 191.202481 
L 347.281299 175.59096 
L 348.440779 190.731185 
L 349.60026 181.408417 
L 350.75974 175.946661 
L 351.919221 202.476542 
L 353.078701 178.991336 
L 354.238182 179.325616 
L 355.397662 193.82195 
L 356.557143 177.707449 
L 357.716623 191.050473 
L 358.876104 177.409246 
L 360.035584 198.450556 
L 361.195065 176.012457 
L 362.354545 200.85846 
L 363.514026 186.924786 
L 364.673506 186.222943 
L 365.832987 181.932578 
L 366.992468 181.684269 
L 368.151948 179.699934 
L 369.311429 206.651059 
L 370.470909 170.900065 
L 371.63039 242.341029 
L 372.78987 174.410862 
L 373.949351 252.104546 
L 375.108831 183.775587 
L 376.268312 189.334035 
L 376.272869 311.86825 
L 376.272869 311.86825 
" style="fill:none;stroke:#1f77b4;stroke-linecap:square;stroke-width:1.5;"/>
    <defs>
     <path d="M 0 3 
C 0.795609 3 1.55874 2.683901 2.12132 2.12132 
C 2.683901 1.55874 3 0.795609 3 0 
C 3 -0.795609 2.683901 -1.55874 2.12132 -2.12132 
C 1.55874 -2.683901 0.795609 -3 0 -3 
C -0.795609 -3 -1.55874 -2.683901 -2.12132 -2.12132 
C -2.683901 -1.55874 -3 -0.795609 -3 0 
C -3 0.795609 -2.683901 1.55874 -2.12132 2.12132 
C -1.55874 2.683901 -0.795609 3 0 3 
z
" id="mbd4f0b4c1e" style="stroke:#1f77b4;"/>
    </defs>
    <g clip-path="url(#pfae1b6edf5)">
     <use style="fill:#1f77b4;stroke:#1f77b4;" x="53.932727" xlink:href="#mbd4f0b4c1e" y="19.296"/>
     <use style="fill:#1f77b4;stroke:#1f77b4;" x="55.092208" xlink:href="#mbd4f0b4c1e" y="25.341013"/>
     <use style="fill:#1f77b4;stroke:#1f77b4;" x="56.251688" xlink:href="#mbd4f0b4c1e" y="36.241958"/>
     <use style="fill:#1f77b4;stroke:#1f77b4;" x="57.411169" xlink:href="#mbd4f0b4c1e" y="46.99011"/>
     <use style="fill:#1f77b4;stroke:#1f77b4;" x="58.570649" xlink:href="#mbd4f0b4c1e" y="57.381572"/>
     <use style="fill:#1f77b4;stroke:#1f77b4;" x="59.73013" xlink:href="#mbd4f0b4c1e" y="68.219519"/>
     <use style="fill:#1f77b4;stroke:#1f77b4;" x="60.88961" xlink:href="#mbd4f0b4c1e" y="78.805298"/>
     <use style="fill:#1f77b4;stroke:#1f77b4;" x="62.049091" xlink:href="#mbd4f0b4c1e" y="89.516059"/>
     <use style="fill:#1f77b4;stroke:#1f77b4;" x="63.208571" xlink:href="#mbd4f0b4c1e" y="100.207221"/>
     <use style="fill:#1f77b4;stroke:#1f77b4;" x="64.368052" xlink:href="#mbd4f0b4c1e" y="110.826584"/>
     <use style="fill:#1f77b4;stroke:#1f77b4;" x="65.527532" xlink:href="#mbd4f0b4c1e" y="121.553276"/>
     <use style="fill:#1f77b4;stroke:#1f77b4;" x="66.687013" xlink:href="#mbd4f0b4c1e" y="131.780661"/>
     <use style="fill:#1f77b4;stroke:#1f77b4;" x="67.846494" xlink:href="#mbd4f0b4c1e" y="143.349481"/>
     <use style="fill:#1f77b4;stroke:#1f77b4;" x="69.005974" xlink:href="#mbd4f0b4c1e" y="153.73081"/>
     <use style="fill:#1f77b4;stroke:#1f77b4;" x="70.165455" xlink:href="#mbd4f0b4c1e" y="167.22658"/>
     <use style="fill:#1f77b4;stroke:#1f77b4;" x="71.324935" xlink:href="#mbd4f0b4c1e" y="167.642111"/>
     <use style="fill:#1f77b4;stroke:#1f77b4;" x="72.484416" xlink:href="#mbd4f0b4c1e" y="197.615316"/>
     <use style="fill:#1f77b4;stroke:#1f77b4;" x="73.643896" xlink:href="#mbd4f0b4c1e" y="180.159357"/>
     <use style="fill:#1f77b4;stroke:#1f77b4;" x="74.803377" xlink:href="#mbd4f0b4c1e" y="186.773224"/>
     <use style="fill:#1f77b4;stroke:#1f77b4;" x="75.962857" xlink:href="#mbd4f0b4c1e" y="196.280498"/>
     <use style="fill:#1f77b4;stroke:#1f77b4;" x="77.122338" xlink:href="#mbd4f0b4c1e" y="184.513607"/>
     <use style="fill:#1f77b4;stroke:#1f77b4;" x="78.281818" xlink:href="#mbd4f0b4c1e" y="183.439965"/>
     <use style="fill:#1f77b4;stroke:#1f77b4;" x="79.441299" xlink:href="#mbd4f0b4c1e" y="201.295664"/>
     <use style="fill:#1f77b4;stroke:#1f77b4;" x="80.600779" xlink:href="#mbd4f0b4c1e" y="175.622547"/>
     <use style="fill:#1f77b4;stroke:#1f77b4;" x="81.76026" xlink:href="#mbd4f0b4c1e" y="186.527583"/>
     <use style="fill:#1f77b4;stroke:#1f77b4;" x="82.91974" xlink:href="#mbd4f0b4c1e" y="198.881913"/>
     <use style="fill:#1f77b4;stroke:#1f77b4;" x="84.079221" xlink:href="#mbd4f0b4c1e" y="186.244805"/>
     <use style="fill:#1f77b4;stroke:#1f77b4;" x="85.238701" xlink:href="#mbd4f0b4c1e" y="185.323436"/>
     <use style="fill:#1f77b4;stroke:#1f77b4;" x="86.398182" xlink:href="#mbd4f0b4c1e" y="184.599129"/>
     <use style="fill:#1f77b4;stroke:#1f77b4;" x="87.557662" xlink:href="#mbd4f0b4c1e" y="184.660021"/>
     <use style="fill:#1f77b4;stroke:#1f77b4;" x="88.717143" xlink:href="#mbd4f0b4c1e" y="204.097099"/>
     <use style="fill:#1f77b4;stroke:#1f77b4;" x="89.876623" xlink:href="#mbd4f0b4c1e" y="197.448553"/>
     <use style="fill:#1f77b4;stroke:#1f77b4;" x="91.036104" xlink:href="#mbd4f0b4c1e" y="195.180677"/>
     <use style="fill:#1f77b4;stroke:#1f77b4;" x="92.195584" xlink:href="#mbd4f0b4c1e" y="179.516912"/>
     <use style="fill:#1f77b4;stroke:#1f77b4;" x="93.355065" xlink:href="#mbd4f0b4c1e" y="194.762414"/>
     <use style="fill:#1f77b4;stroke:#1f77b4;" x="94.514545" xlink:href="#mbd4f0b4c1e" y="181.511255"/>
     <use style="fill:#1f77b4;stroke:#1f77b4;" x="95.674026" xlink:href="#mbd4f0b4c1e" y="201.262657"/>
     <use style="fill:#1f77b4;stroke:#1f77b4;" x="96.833506" xlink:href="#mbd4f0b4c1e" y="201.093318"/>
     <use style="fill:#1f77b4;stroke:#1f77b4;" x="97.992987" xlink:href="#mbd4f0b4c1e" y="194.044336"/>
     <use style="fill:#1f77b4;stroke:#1f77b4;" x="99.152468" xlink:href="#mbd4f0b4c1e" y="171.722499"/>
     <use style="fill:#1f77b4;stroke:#1f77b4;" x="100.311948" xlink:href="#mbd4f0b4c1e" y="184.722203"/>
     <use style="fill:#1f77b4;stroke:#1f77b4;" x="101.471429" xlink:href="#mbd4f0b4c1e" y="182.567064"/>
     <use style="fill:#1f77b4;stroke:#1f77b4;" x="102.630909" xlink:href="#mbd4f0b4c1e" y="169.950952"/>
     <use style="fill:#1f77b4;stroke:#1f77b4;" x="103.79039" xlink:href="#mbd4f0b4c1e" y="197.683067"/>
     <use style="fill:#1f77b4;stroke:#1f77b4;" x="104.94987" xlink:href="#mbd4f0b4c1e" y="187.532232"/>
     <use style="fill:#1f77b4;stroke:#1f77b4;" x="106.109351" xlink:href="#mbd4f0b4c1e" y="203.331916"/>
     <use style="fill:#1f77b4;stroke:#1f77b4;" x="107.268831" xlink:href="#mbd4f0b4c1e" y="195.640242"/>
     <use style="fill:#1f77b4;stroke:#1f77b4;" x="108.428312" xlink:href="#mbd4f0b4c1e" y="200.545064"/>
     <use style="fill:#1f77b4;stroke:#1f77b4;" x="109.587792" xlink:href="#mbd4f0b4c1e" y="174.210822"/>
     <use style="fill:#1f77b4;stroke:#1f77b4;" x="110.747273" xlink:href="#mbd4f0b4c1e" y="235.922445"/>
     <use style="fill:#1f77b4;stroke:#1f77b4;" x="111.906753" xlink:href="#mbd4f0b4c1e" y="166.211385"/>
     <use style="fill:#1f77b4;stroke:#1f77b4;" x="113.066234" xlink:href="#mbd4f0b4c1e" y="199.514315"/>
     <use style="fill:#1f77b4;stroke:#1f77b4;" x="114.225714" xlink:href="#mbd4f0b4c1e" y="205.411138"/>
     <use style="fill:#1f77b4;stroke:#1f77b4;" x="115.385195" xlink:href="#mbd4f0b4c1e" y="161.662593"/>
     <use style="fill:#1f77b4;stroke:#1f77b4;" x="116.544675" xlink:href="#mbd4f0b4c1e" y="176.261812"/>
     <use style="fill:#1f77b4;stroke:#1f77b4;" x="117.704156" xlink:href="#mbd4f0b4c1e" y="160.793491"/>
     <use style="fill:#1f77b4;stroke:#1f77b4;" x="118.863636" xlink:href="#mbd4f0b4c1e" y="172.861197"/>
     <use style="fill:#1f77b4;stroke:#1f77b4;" x="120.023117" xlink:href="#mbd4f0b4c1e" y="180.460937"/>
     <use style="fill:#1f77b4;stroke:#1f77b4;" x="121.182597" xlink:href="#mbd4f0b4c1e" y="189.987201"/>
     <use style="fill:#1f77b4;stroke:#1f77b4;" x="122.342078" xlink:href="#mbd4f0b4c1e" y="188.077992"/>
     <use style="fill:#1f77b4;stroke:#1f77b4;" x="123.501558" xlink:href="#mbd4f0b4c1e" y="195.797881"/>
     <use style="fill:#1f77b4;stroke:#1f77b4;" x="124.661039" xlink:href="#mbd4f0b4c1e" y="175.553782"/>
     <use style="fill:#1f77b4;stroke:#1f77b4;" x="125.820519" xlink:href="#mbd4f0b4c1e" y="231.034912"/>
     <use style="fill:#1f77b4;stroke:#1f77b4;" x="126.98" xlink:href="#mbd4f0b4c1e" y="189.440098"/>
     <use style="fill:#1f77b4;stroke:#1f77b4;" x="128.139481" xlink:href="#mbd4f0b4c1e" y="199.291426"/>
     <use style="fill:#1f77b4;stroke:#1f77b4;" x="129.298961" xlink:href="#mbd4f0b4c1e" y="190.87254"/>
     <use style="fill:#1f77b4;stroke:#1f77b4;" x="130.458442" xlink:href="#mbd4f0b4c1e" y="203.843174"/>
     <use style="fill:#1f77b4;stroke:#1f77b4;" x="131.617922" xlink:href="#mbd4f0b4c1e" y="173.342627"/>
     <use style="fill:#1f77b4;stroke:#1f77b4;" x="132.777403" xlink:href="#mbd4f0b4c1e" y="188.672444"/>
     <use style="fill:#1f77b4;stroke:#1f77b4;" x="133.936883" xlink:href="#mbd4f0b4c1e" y="168.742801"/>
     <use style="fill:#1f77b4;stroke:#1f77b4;" x="135.096364" xlink:href="#mbd4f0b4c1e" y="199.923901"/>
     <use style="fill:#1f77b4;stroke:#1f77b4;" x="136.255844" xlink:href="#mbd4f0b4c1e" y="176.177881"/>
     <use style="fill:#1f77b4;stroke:#1f77b4;" x="137.415325" xlink:href="#mbd4f0b4c1e" y="186.997442"/>
     <use style="fill:#1f77b4;stroke:#1f77b4;" x="138.574805" xlink:href="#mbd4f0b4c1e" y="168.900935"/>
     <use style="fill:#1f77b4;stroke:#1f77b4;" x="139.734286" xlink:href="#mbd4f0b4c1e" y="181.234335"/>
     <use style="fill:#1f77b4;stroke:#1f77b4;" x="140.893766" xlink:href="#mbd4f0b4c1e" y="170.260203"/>
     <use style="fill:#1f77b4;stroke:#1f77b4;" x="142.053247" xlink:href="#mbd4f0b4c1e" y="195.670569"/>
     <use style="fill:#1f77b4;stroke:#1f77b4;" x="143.212727" xlink:href="#mbd4f0b4c1e" y="172.629027"/>
     <use style="fill:#1f77b4;stroke:#1f77b4;" x="144.372208" xlink:href="#mbd4f0b4c1e" y="211.433667"/>
     <use style="fill:#1f77b4;stroke:#1f77b4;" x="145.531688" xlink:href="#mbd4f0b4c1e" y="175.480297"/>
     <use style="fill:#1f77b4;stroke:#1f77b4;" x="146.691169" xlink:href="#mbd4f0b4c1e" y="196.039139"/>
     <use style="fill:#1f77b4;stroke:#1f77b4;" x="147.850649" xlink:href="#mbd4f0b4c1e" y="175.840056"/>
     <use style="fill:#1f77b4;stroke:#1f77b4;" x="149.01013" xlink:href="#mbd4f0b4c1e" y="208.478101"/>
     <use style="fill:#1f77b4;stroke:#1f77b4;" x="150.16961" xlink:href="#mbd4f0b4c1e" y="183.320073"/>
     <use style="fill:#1f77b4;stroke:#1f77b4;" x="151.329091" xlink:href="#mbd4f0b4c1e" y="190.968387"/>
     <use style="fill:#1f77b4;stroke:#1f77b4;" x="152.488571" xlink:href="#mbd4f0b4c1e" y="193.350212"/>
     <use style="fill:#1f77b4;stroke:#1f77b4;" x="153.648052" xlink:href="#mbd4f0b4c1e" y="193.556571"/>
     <use style="fill:#1f77b4;stroke:#1f77b4;" x="154.807532" xlink:href="#mbd4f0b4c1e" y="185.197571"/>
     <use style="fill:#1f77b4;stroke:#1f77b4;" x="155.967013" xlink:href="#mbd4f0b4c1e" y="176.89034"/>
     <use style="fill:#1f77b4;stroke:#1f77b4;" x="157.126494" xlink:href="#mbd4f0b4c1e" y="196.094795"/>
     <use style="fill:#1f77b4;stroke:#1f77b4;" x="158.285974" xlink:href="#mbd4f0b4c1e" y="186.949253"/>
     <use style="fill:#1f77b4;stroke:#1f77b4;" x="159.445455" xlink:href="#mbd4f0b4c1e" y="185.764243"/>
     <use style="fill:#1f77b4;stroke:#1f77b4;" x="160.604935" xlink:href="#mbd4f0b4c1e" y="188.051746"/>
     <use style="fill:#1f77b4;stroke:#1f77b4;" x="161.764416" xlink:href="#mbd4f0b4c1e" y="188.896565"/>
     <use style="fill:#1f77b4;stroke:#1f77b4;" x="162.923896" xlink:href="#mbd4f0b4c1e" y="213.150239"/>
     <use style="fill:#1f77b4;stroke:#1f77b4;" x="164.083377" xlink:href="#mbd4f0b4c1e" y="176.455679"/>
     <use style="fill:#1f77b4;stroke:#1f77b4;" x="165.242857" xlink:href="#mbd4f0b4c1e" y="210.23228"/>
     <use style="fill:#1f77b4;stroke:#1f77b4;" x="166.402338" xlink:href="#mbd4f0b4c1e" y="191.841367"/>
     <use style="fill:#1f77b4;stroke:#1f77b4;" x="167.561818" xlink:href="#mbd4f0b4c1e" y="179.622542"/>
     <use style="fill:#1f77b4;stroke:#1f77b4;" x="168.721299" xlink:href="#mbd4f0b4c1e" y="202.523522"/>
     <use style="fill:#1f77b4;stroke:#1f77b4;" x="169.880779" xlink:href="#mbd4f0b4c1e" y="163.061583"/>
     <use style="fill:#1f77b4;stroke:#1f77b4;" x="171.04026" xlink:href="#mbd4f0b4c1e" y="171.357311"/>
     <use style="fill:#1f77b4;stroke:#1f77b4;" x="172.19974" xlink:href="#mbd4f0b4c1e" y="172.44325"/>
     <use style="fill:#1f77b4;stroke:#1f77b4;" x="173.359221" xlink:href="#mbd4f0b4c1e" y="195.082279"/>
     <use style="fill:#1f77b4;stroke:#1f77b4;" x="174.518701" xlink:href="#mbd4f0b4c1e" y="177.228223"/>
     <use style="fill:#1f77b4;stroke:#1f77b4;" x="175.678182" xlink:href="#mbd4f0b4c1e" y="181.154982"/>
     <use style="fill:#1f77b4;stroke:#1f77b4;" x="176.837662" xlink:href="#mbd4f0b4c1e" y="199.098236"/>
     <use style="fill:#1f77b4;stroke:#1f77b4;" x="177.997143" xlink:href="#mbd4f0b4c1e" y="175.57178"/>
     <use style="fill:#1f77b4;stroke:#1f77b4;" x="179.156623" xlink:href="#mbd4f0b4c1e" y="195.273239"/>
     <use style="fill:#1f77b4;stroke:#1f77b4;" x="180.316104" xlink:href="#mbd4f0b4c1e" y="195.949068"/>
     <use style="fill:#1f77b4;stroke:#1f77b4;" x="181.475584" xlink:href="#mbd4f0b4c1e" y="188.459926"/>
     <use style="fill:#1f77b4;stroke:#1f77b4;" x="182.635065" xlink:href="#mbd4f0b4c1e" y="261.216"/>
     <use style="fill:#1f77b4;stroke:#1f77b4;" x="183.794545" xlink:href="#mbd4f0b4c1e" y="189.14245"/>
     <use style="fill:#1f77b4;stroke:#1f77b4;" x="184.954026" xlink:href="#mbd4f0b4c1e" y="212.863657"/>
     <use style="fill:#1f77b4;stroke:#1f77b4;" x="186.113506" xlink:href="#mbd4f0b4c1e" y="185.180942"/>
     <use style="fill:#1f77b4;stroke:#1f77b4;" x="187.272987" xlink:href="#mbd4f0b4c1e" y="207.766964"/>
     <use style="fill:#1f77b4;stroke:#1f77b4;" x="188.432468" xlink:href="#mbd4f0b4c1e" y="182.145061"/>
     <use style="fill:#1f77b4;stroke:#1f77b4;" x="189.591948" xlink:href="#mbd4f0b4c1e" y="181.296334"/>
     <use style="fill:#1f77b4;stroke:#1f77b4;" x="190.751429" xlink:href="#mbd4f0b4c1e" y="204.366649"/>
     <use style="fill:#1f77b4;stroke:#1f77b4;" x="191.910909" xlink:href="#mbd4f0b4c1e" y="177.147408"/>
     <use style="fill:#1f77b4;stroke:#1f77b4;" x="193.07039" xlink:href="#mbd4f0b4c1e" y="190.803134"/>
     <use style="fill:#1f77b4;stroke:#1f77b4;" x="194.22987" xlink:href="#mbd4f0b4c1e" y="184.497805"/>
     <use style="fill:#1f77b4;stroke:#1f77b4;" x="195.389351" xlink:href="#mbd4f0b4c1e" y="188.410225"/>
     <use style="fill:#1f77b4;stroke:#1f77b4;" x="196.548831" xlink:href="#mbd4f0b4c1e" y="172.461752"/>
     <use style="fill:#1f77b4;stroke:#1f77b4;" x="197.708312" xlink:href="#mbd4f0b4c1e" y="200.870642"/>
     <use style="fill:#1f77b4;stroke:#1f77b4;" x="198.867792" xlink:href="#mbd4f0b4c1e" y="179.463658"/>
     <use style="fill:#1f77b4;stroke:#1f77b4;" x="200.027273" xlink:href="#mbd4f0b4c1e" y="186.19048"/>
     <use style="fill:#1f77b4;stroke:#1f77b4;" x="201.186753" xlink:href="#mbd4f0b4c1e" y="202.419278"/>
     <use style="fill:#1f77b4;stroke:#1f77b4;" x="202.346234" xlink:href="#mbd4f0b4c1e" y="180.51864"/>
     <use style="fill:#1f77b4;stroke:#1f77b4;" x="203.505714" xlink:href="#mbd4f0b4c1e" y="188.611718"/>
     <use style="fill:#1f77b4;stroke:#1f77b4;" x="204.665195" xlink:href="#mbd4f0b4c1e" y="227.38633"/>
     <use style="fill:#1f77b4;stroke:#1f77b4;" x="205.824675" xlink:href="#mbd4f0b4c1e" y="187.846561"/>
     <use style="fill:#1f77b4;stroke:#1f77b4;" x="206.984156" xlink:href="#mbd4f0b4c1e" y="199.89268"/>
     <use style="fill:#1f77b4;stroke:#1f77b4;" x="208.143636" xlink:href="#mbd4f0b4c1e" y="187.013828"/>
     <use style="fill:#1f77b4;stroke:#1f77b4;" x="209.303117" xlink:href="#mbd4f0b4c1e" y="197.008299"/>
     <use style="fill:#1f77b4;stroke:#1f77b4;" x="210.462597" xlink:href="#mbd4f0b4c1e" y="179.487813"/>
     <use style="fill:#1f77b4;stroke:#1f77b4;" x="211.622078" xlink:href="#mbd4f0b4c1e" y="187.869876"/>
     <use style="fill:#1f77b4;stroke:#1f77b4;" x="212.781558" xlink:href="#mbd4f0b4c1e" y="196.905704"/>
     <use style="fill:#1f77b4;stroke:#1f77b4;" x="213.941039" xlink:href="#mbd4f0b4c1e" y="187.268602"/>
     <use style="fill:#1f77b4;stroke:#1f77b4;" x="215.100519" xlink:href="#mbd4f0b4c1e" y="192.402334"/>
     <use style="fill:#1f77b4;stroke:#1f77b4;" x="216.26" xlink:href="#mbd4f0b4c1e" y="182.232258"/>
     <use style="fill:#1f77b4;stroke:#1f77b4;" x="217.419481" xlink:href="#mbd4f0b4c1e" y="205.928288"/>
     <use style="fill:#1f77b4;stroke:#1f77b4;" x="218.578961" xlink:href="#mbd4f0b4c1e" y="188.891714"/>
     <use style="fill:#1f77b4;stroke:#1f77b4;" x="219.738442" xlink:href="#mbd4f0b4c1e" y="181.409753"/>
     <use style="fill:#1f77b4;stroke:#1f77b4;" x="220.897922" xlink:href="#mbd4f0b4c1e" y="203.977132"/>
     <use style="fill:#1f77b4;stroke:#1f77b4;" x="222.057403" xlink:href="#mbd4f0b4c1e" y="173.734068"/>
     <use style="fill:#1f77b4;stroke:#1f77b4;" x="223.216883" xlink:href="#mbd4f0b4c1e" y="193.523174"/>
     <use style="fill:#1f77b4;stroke:#1f77b4;" x="224.376364" xlink:href="#mbd4f0b4c1e" y="190.161791"/>
     <use style="fill:#1f77b4;stroke:#1f77b4;" x="225.535844" xlink:href="#mbd4f0b4c1e" y="189.434899"/>
     <use style="fill:#1f77b4;stroke:#1f77b4;" x="226.695325" xlink:href="#mbd4f0b4c1e" y="183.362207"/>
     <use style="fill:#1f77b4;stroke:#1f77b4;" x="227.854805" xlink:href="#mbd4f0b4c1e" y="179.74649"/>
     <use style="fill:#1f77b4;stroke:#1f77b4;" x="229.014286" xlink:href="#mbd4f0b4c1e" y="182.455393"/>
     <use style="fill:#1f77b4;stroke:#1f77b4;" x="230.173766" xlink:href="#mbd4f0b4c1e" y="182.834778"/>
     <use style="fill:#1f77b4;stroke:#1f77b4;" x="231.333247" xlink:href="#mbd4f0b4c1e" y="207.309321"/>
     <use style="fill:#1f77b4;stroke:#1f77b4;" x="232.492727" xlink:href="#mbd4f0b4c1e" y="189.891473"/>
     <use style="fill:#1f77b4;stroke:#1f77b4;" x="233.652208" xlink:href="#mbd4f0b4c1e" y="199.605316"/>
     <use style="fill:#1f77b4;stroke:#1f77b4;" x="234.811688" xlink:href="#mbd4f0b4c1e" y="183.423529"/>
     <use style="fill:#1f77b4;stroke:#1f77b4;" x="235.971169" xlink:href="#mbd4f0b4c1e" y="202.437728"/>
     <use style="fill:#1f77b4;stroke:#1f77b4;" x="237.130649" xlink:href="#mbd4f0b4c1e" y="181.502246"/>
     <use style="fill:#1f77b4;stroke:#1f77b4;" x="238.29013" xlink:href="#mbd4f0b4c1e" y="215.77965"/>
     <use style="fill:#1f77b4;stroke:#1f77b4;" x="239.44961" xlink:href="#mbd4f0b4c1e" y="189.641824"/>
     <use style="fill:#1f77b4;stroke:#1f77b4;" x="240.609091" xlink:href="#mbd4f0b4c1e" y="198.025664"/>
     <use style="fill:#1f77b4;stroke:#1f77b4;" x="241.768571" xlink:href="#mbd4f0b4c1e" y="189.177056"/>
     <use style="fill:#1f77b4;stroke:#1f77b4;" x="242.928052" xlink:href="#mbd4f0b4c1e" y="176.275811"/>
     <use style="fill:#1f77b4;stroke:#1f77b4;" x="244.087532" xlink:href="#mbd4f0b4c1e" y="208.031587"/>
     <use style="fill:#1f77b4;stroke:#1f77b4;" x="245.247013" xlink:href="#mbd4f0b4c1e" y="178.570218"/>
     <use style="fill:#1f77b4;stroke:#1f77b4;" x="246.406494" xlink:href="#mbd4f0b4c1e" y="183.957513"/>
     <use style="fill:#1f77b4;stroke:#1f77b4;" x="247.565974" xlink:href="#mbd4f0b4c1e" y="182.029408"/>
     <use style="fill:#1f77b4;stroke:#1f77b4;" x="248.725455" xlink:href="#mbd4f0b4c1e" y="192.770349"/>
     <use style="fill:#1f77b4;stroke:#1f77b4;" x="249.884935" xlink:href="#mbd4f0b4c1e" y="175.999631"/>
     <use style="fill:#1f77b4;stroke:#1f77b4;" x="251.044416" xlink:href="#mbd4f0b4c1e" y="201.451594"/>
     <use style="fill:#1f77b4;stroke:#1f77b4;" x="252.203896" xlink:href="#mbd4f0b4c1e" y="186.28444"/>
     <use style="fill:#1f77b4;stroke:#1f77b4;" x="253.363377" xlink:href="#mbd4f0b4c1e" y="188.381659"/>
     <use style="fill:#1f77b4;stroke:#1f77b4;" x="254.522857" xlink:href="#mbd4f0b4c1e" y="189.118651"/>
     <use style="fill:#1f77b4;stroke:#1f77b4;" x="255.682338" xlink:href="#mbd4f0b4c1e" y="180.407113"/>
     <use style="fill:#1f77b4;stroke:#1f77b4;" x="256.841818" xlink:href="#mbd4f0b4c1e" y="208.763248"/>
     <use style="fill:#1f77b4;stroke:#1f77b4;" x="258.001299" xlink:href="#mbd4f0b4c1e" y="182.267234"/>
     <use style="fill:#1f77b4;stroke:#1f77b4;" x="259.160779" xlink:href="#mbd4f0b4c1e" y="185.164188"/>
     <use style="fill:#1f77b4;stroke:#1f77b4;" x="260.32026" xlink:href="#mbd4f0b4c1e" y="177.042771"/>
     <use style="fill:#1f77b4;stroke:#1f77b4;" x="261.47974" xlink:href="#mbd4f0b4c1e" y="203.536072"/>
     <use style="fill:#1f77b4;stroke:#1f77b4;" x="262.639221" xlink:href="#mbd4f0b4c1e" y="168.907817"/>
     <use style="fill:#1f77b4;stroke:#1f77b4;" x="263.798701" xlink:href="#mbd4f0b4c1e" y="195.173591"/>
     <use style="fill:#1f77b4;stroke:#1f77b4;" x="264.958182" xlink:href="#mbd4f0b4c1e" y="176.569285"/>
     <use style="fill:#1f77b4;stroke:#1f77b4;" x="266.117662" xlink:href="#mbd4f0b4c1e" y="220.54526"/>
     <use style="fill:#1f77b4;stroke:#1f77b4;" x="267.277143" xlink:href="#mbd4f0b4c1e" y="183.127241"/>
     <use style="fill:#1f77b4;stroke:#1f77b4;" x="268.436623" xlink:href="#mbd4f0b4c1e" y="204.780479"/>
     <use style="fill:#1f77b4;stroke:#1f77b4;" x="269.596104" xlink:href="#mbd4f0b4c1e" y="175.776523"/>
     <use style="fill:#1f77b4;stroke:#1f77b4;" x="270.755584" xlink:href="#mbd4f0b4c1e" y="180.420529"/>
     <use style="fill:#1f77b4;stroke:#1f77b4;" x="271.915065" xlink:href="#mbd4f0b4c1e" y="216.70727"/>
     <use style="fill:#1f77b4;stroke:#1f77b4;" x="273.074545" xlink:href="#mbd4f0b4c1e" y="192.988912"/>
     <use style="fill:#1f77b4;stroke:#1f77b4;" x="274.234026" xlink:href="#mbd4f0b4c1e" y="181.791898"/>
     <use style="fill:#1f77b4;stroke:#1f77b4;" x="275.393506" xlink:href="#mbd4f0b4c1e" y="179.365295"/>
     <use style="fill:#1f77b4;stroke:#1f77b4;" x="276.552987" xlink:href="#mbd4f0b4c1e" y="208.690365"/>
     <use style="fill:#1f77b4;stroke:#1f77b4;" x="277.712468" xlink:href="#mbd4f0b4c1e" y="159.146232"/>
     <use style="fill:#1f77b4;stroke:#1f77b4;" x="278.871948" xlink:href="#mbd4f0b4c1e" y="167.508316"/>
     <use style="fill:#1f77b4;stroke:#1f77b4;" x="280.031429" xlink:href="#mbd4f0b4c1e" y="169.462405"/>
     <use style="fill:#1f77b4;stroke:#1f77b4;" x="281.190909" xlink:href="#mbd4f0b4c1e" y="190.490398"/>
     <use style="fill:#1f77b4;stroke:#1f77b4;" x="282.35039" xlink:href="#mbd4f0b4c1e" y="183.902673"/>
     <use style="fill:#1f77b4;stroke:#1f77b4;" x="283.50987" xlink:href="#mbd4f0b4c1e" y="196.520498"/>
     <use style="fill:#1f77b4;stroke:#1f77b4;" x="284.669351" xlink:href="#mbd4f0b4c1e" y="198.502903"/>
     <use style="fill:#1f77b4;stroke:#1f77b4;" x="285.828831" xlink:href="#mbd4f0b4c1e" y="191.381065"/>
     <use style="fill:#1f77b4;stroke:#1f77b4;" x="286.988312" xlink:href="#mbd4f0b4c1e" y="180.913499"/>
     <use style="fill:#1f77b4;stroke:#1f77b4;" x="288.147792" xlink:href="#mbd4f0b4c1e" y="172.786894"/>
     <use style="fill:#1f77b4;stroke:#1f77b4;" x="289.307273" xlink:href="#mbd4f0b4c1e" y="193.186724"/>
     <use style="fill:#1f77b4;stroke:#1f77b4;" x="290.466753" xlink:href="#mbd4f0b4c1e" y="185.742421"/>
     <use style="fill:#1f77b4;stroke:#1f77b4;" x="291.626234" xlink:href="#mbd4f0b4c1e" y="232.861894"/>
     <use style="fill:#1f77b4;stroke:#1f77b4;" x="292.785714" xlink:href="#mbd4f0b4c1e" y="184.681946"/>
     <use style="fill:#1f77b4;stroke:#1f77b4;" x="293.945195" xlink:href="#mbd4f0b4c1e" y="170.617963"/>
     <use style="fill:#1f77b4;stroke:#1f77b4;" x="295.104675" xlink:href="#mbd4f0b4c1e" y="187.702169"/>
     <use style="fill:#1f77b4;stroke:#1f77b4;" x="296.264156" xlink:href="#mbd4f0b4c1e" y="177.759776"/>
     <use style="fill:#1f77b4;stroke:#1f77b4;" x="297.423636" xlink:href="#mbd4f0b4c1e" y="189.19569"/>
     <use style="fill:#1f77b4;stroke:#1f77b4;" x="298.583117" xlink:href="#mbd4f0b4c1e" y="179.885817"/>
     <use style="fill:#1f77b4;stroke:#1f77b4;" x="299.742597" xlink:href="#mbd4f0b4c1e" y="217.121059"/>
     <use style="fill:#1f77b4;stroke:#1f77b4;" x="300.902078" xlink:href="#mbd4f0b4c1e" y="175.067418"/>
     <use style="fill:#1f77b4;stroke:#1f77b4;" x="302.061558" xlink:href="#mbd4f0b4c1e" y="205.718166"/>
     <use style="fill:#1f77b4;stroke:#1f77b4;" x="303.221039" xlink:href="#mbd4f0b4c1e" y="181.15448"/>
     <use style="fill:#1f77b4;stroke:#1f77b4;" x="304.380519" xlink:href="#mbd4f0b4c1e" y="182.721433"/>
     <use style="fill:#1f77b4;stroke:#1f77b4;" x="305.54" xlink:href="#mbd4f0b4c1e" y="233.415079"/>
     <use style="fill:#1f77b4;stroke:#1f77b4;" x="306.699481" xlink:href="#mbd4f0b4c1e" y="183.906586"/>
     <use style="fill:#1f77b4;stroke:#1f77b4;" x="307.858961" xlink:href="#mbd4f0b4c1e" y="191.156129"/>
     <use style="fill:#1f77b4;stroke:#1f77b4;" x="309.018442" xlink:href="#mbd4f0b4c1e" y="199.752691"/>
     <use style="fill:#1f77b4;stroke:#1f77b4;" x="310.177922" xlink:href="#mbd4f0b4c1e" y="167.95648"/>
     <use style="fill:#1f77b4;stroke:#1f77b4;" x="311.337403" xlink:href="#mbd4f0b4c1e" y="204.6858"/>
     <use style="fill:#1f77b4;stroke:#1f77b4;" x="312.496883" xlink:href="#mbd4f0b4c1e" y="172.095702"/>
     <use style="fill:#1f77b4;stroke:#1f77b4;" x="313.656364" xlink:href="#mbd4f0b4c1e" y="201.974926"/>
     <use style="fill:#1f77b4;stroke:#1f77b4;" x="314.815844" xlink:href="#mbd4f0b4c1e" y="177.88328"/>
     <use style="fill:#1f77b4;stroke:#1f77b4;" x="315.975325" xlink:href="#mbd4f0b4c1e" y="218.099822"/>
     <use style="fill:#1f77b4;stroke:#1f77b4;" x="317.134805" xlink:href="#mbd4f0b4c1e" y="192.520637"/>
     <use style="fill:#1f77b4;stroke:#1f77b4;" x="318.294286" xlink:href="#mbd4f0b4c1e" y="200.425669"/>
     <use style="fill:#1f77b4;stroke:#1f77b4;" x="319.453766" xlink:href="#mbd4f0b4c1e" y="191.739902"/>
     <use style="fill:#1f77b4;stroke:#1f77b4;" x="320.613247" xlink:href="#mbd4f0b4c1e" y="176.497211"/>
     <use style="fill:#1f77b4;stroke:#1f77b4;" x="321.772727" xlink:href="#mbd4f0b4c1e" y="192.477885"/>
     <use style="fill:#1f77b4;stroke:#1f77b4;" x="322.932208" xlink:href="#mbd4f0b4c1e" y="179.371506"/>
     <use style="fill:#1f77b4;stroke:#1f77b4;" x="324.091688" xlink:href="#mbd4f0b4c1e" y="202.617421"/>
     <use style="fill:#1f77b4;stroke:#1f77b4;" x="325.251169" xlink:href="#mbd4f0b4c1e" y="168.814915"/>
     <use style="fill:#1f77b4;stroke:#1f77b4;" x="326.410649" xlink:href="#mbd4f0b4c1e" y="206.434696"/>
     <use style="fill:#1f77b4;stroke:#1f77b4;" x="327.57013" xlink:href="#mbd4f0b4c1e" y="177.691933"/>
     <use style="fill:#1f77b4;stroke:#1f77b4;" x="328.72961" xlink:href="#mbd4f0b4c1e" y="181.692615"/>
     <use style="fill:#1f77b4;stroke:#1f77b4;" x="329.889091" xlink:href="#mbd4f0b4c1e" y="183.557956"/>
     <use style="fill:#1f77b4;stroke:#1f77b4;" x="331.048571" xlink:href="#mbd4f0b4c1e" y="208.283632"/>
     <use style="fill:#1f77b4;stroke:#1f77b4;" x="332.208052" xlink:href="#mbd4f0b4c1e" y="176.383611"/>
     <use style="fill:#1f77b4;stroke:#1f77b4;" x="333.367532" xlink:href="#mbd4f0b4c1e" y="172.090132"/>
     <use style="fill:#1f77b4;stroke:#1f77b4;" x="334.527013" xlink:href="#mbd4f0b4c1e" y="198.928943"/>
     <use style="fill:#1f77b4;stroke:#1f77b4;" x="335.686494" xlink:href="#mbd4f0b4c1e" y="184.886481"/>
     <use style="fill:#1f77b4;stroke:#1f77b4;" x="336.845974" xlink:href="#mbd4f0b4c1e" y="201.592191"/>
     <use style="fill:#1f77b4;stroke:#1f77b4;" x="338.005455" xlink:href="#mbd4f0b4c1e" y="244.459163"/>
     <use style="fill:#1f77b4;stroke:#1f77b4;" x="339.164935" xlink:href="#mbd4f0b4c1e" y="187.835825"/>
     <use style="fill:#1f77b4;stroke:#1f77b4;" x="340.324416" xlink:href="#mbd4f0b4c1e" y="177.571698"/>
     <use style="fill:#1f77b4;stroke:#1f77b4;" x="341.483896" xlink:href="#mbd4f0b4c1e" y="212.503491"/>
     <use style="fill:#1f77b4;stroke:#1f77b4;" x="342.643377" xlink:href="#mbd4f0b4c1e" y="183.122493"/>
     <use style="fill:#1f77b4;stroke:#1f77b4;" x="343.802857" xlink:href="#mbd4f0b4c1e" y="181.141049"/>
     <use style="fill:#1f77b4;stroke:#1f77b4;" x="344.962338" xlink:href="#mbd4f0b4c1e" y="191.486127"/>
     <use style="fill:#1f77b4;stroke:#1f77b4;" x="346.121818" xlink:href="#mbd4f0b4c1e" y="191.202481"/>
     <use style="fill:#1f77b4;stroke:#1f77b4;" x="347.281299" xlink:href="#mbd4f0b4c1e" y="175.59096"/>
     <use style="fill:#1f77b4;stroke:#1f77b4;" x="348.440779" xlink:href="#mbd4f0b4c1e" y="190.731185"/>
     <use style="fill:#1f77b4;stroke:#1f77b4;" x="349.60026" xlink:href="#mbd4f0b4c1e" y="181.408417"/>
     <use style="fill:#1f77b4;stroke:#1f77b4;" x="350.75974" xlink:href="#mbd4f0b4c1e" y="175.946661"/>
     <use style="fill:#1f77b4;stroke:#1f77b4;" x="351.919221" xlink:href="#mbd4f0b4c1e" y="202.476542"/>
     <use style="fill:#1f77b4;stroke:#1f77b4;" x="353.078701" xlink:href="#mbd4f0b4c1e" y="178.991336"/>
     <use style="fill:#1f77b4;stroke:#1f77b4;" x="354.238182" xlink:href="#mbd4f0b4c1e" y="179.325616"/>
     <use style="fill:#1f77b4;stroke:#1f77b4;" x="355.397662" xlink:href="#mbd4f0b4c1e" y="193.82195"/>
     <use style="fill:#1f77b4;stroke:#1f77b4;" x="356.557143" xlink:href="#mbd4f0b4c1e" y="177.707449"/>
     <use style="fill:#1f77b4;stroke:#1f77b4;" x="357.716623" xlink:href="#mbd4f0b4c1e" y="191.050473"/>
     <use style="fill:#1f77b4;stroke:#1f77b4;" x="358.876104" xlink:href="#mbd4f0b4c1e" y="177.409246"/>
     <use style="fill:#1f77b4;stroke:#1f77b4;" x="360.035584" xlink:href="#mbd4f0b4c1e" y="198.450556"/>
     <use style="fill:#1f77b4;stroke:#1f77b4;" x="361.195065" xlink:href="#mbd4f0b4c1e" y="176.012457"/>
     <use style="fill:#1f77b4;stroke:#1f77b4;" x="362.354545" xlink:href="#mbd4f0b4c1e" y="200.85846"/>
     <use style="fill:#1f77b4;stroke:#1f77b4;" x="363.514026" xlink:href="#mbd4f0b4c1e" y="186.924786"/>
     <use style="fill:#1f77b4;stroke:#1f77b4;" x="364.673506" xlink:href="#mbd4f0b4c1e" y="186.222943"/>
     <use style="fill:#1f77b4;stroke:#1f77b4;" x="365.832987" xlink:href="#mbd4f0b4c1e" y="181.932578"/>
     <use style="fill:#1f77b4;stroke:#1f77b4;" x="366.992468" xlink:href="#mbd4f0b4c1e" y="181.684269"/>
     <use style="fill:#1f77b4;stroke:#1f77b4;" x="368.151948" xlink:href="#mbd4f0b4c1e" y="179.699934"/>
     <use style="fill:#1f77b4;stroke:#1f77b4;" x="369.311429" xlink:href="#mbd4f0b4c1e" y="206.651059"/>
     <use style="fill:#1f77b4;stroke:#1f77b4;" x="370.470909" xlink:href="#mbd4f0b4c1e" y="170.900065"/>
     <use style="fill:#1f77b4;stroke:#1f77b4;" x="371.63039" xlink:href="#mbd4f0b4c1e" y="242.341029"/>
     <use style="fill:#1f77b4;stroke:#1f77b4;" x="372.78987" xlink:href="#mbd4f0b4c1e" y="174.410862"/>
     <use style="fill:#1f77b4;stroke:#1f77b4;" x="373.949351" xlink:href="#mbd4f0b4c1e" y="252.104546"/>
     <use style="fill:#1f77b4;stroke:#1f77b4;" x="375.108831" xlink:href="#mbd4f0b4c1e" y="183.775587"/>
     <use style="fill:#1f77b4;stroke:#1f77b4;" x="376.268312" xlink:href="#mbd4f0b4c1e" y="189.334035"/>
     <use style="fill:#1f77b4;stroke:#1f77b4;" x="377.09368" xlink:href="#mbd4f0b4c1e" y="22383.514"/>
    </g>
   </g>
   <g id="line2d_12">
    <path clip-path="url(#pfae1b6edf5)" d="M 55.092208 25.341013 
L 56.251688 36.241958 
L 57.411169 46.99011 
L 58.570649 57.381572 
L 59.73013 68.219519 
L 60.88961 78.805298 
L 62.049091 89.516059 
L 63.208571 100.207221 
L 64.368052 110.826584 
L 65.527532 121.553276 
L 66.687013 131.780661 
L 67.846494 143.349481 
L 69.005974 153.73081 
L 70.165455 167.22658 
" style="fill:none;stroke:#2ca02c;stroke-dasharray:1.5,2.475;stroke-dashoffset:0;stroke-width:1.5;"/>
    <defs>
     <path d="M -3 3 
L 3 -3 
M -3 -3 
L 3 3 
" id="m63e89b609f" style="stroke:#2ca02c;"/>
    </defs>
    <g clip-path="url(#pfae1b6edf5)">
     <use style="fill:#2ca02c;stroke:#2ca02c;" x="55.092208" xlink:href="#m63e89b609f" y="25.341013"/>
     <use style="fill:#2ca02c;stroke:#2ca02c;" x="56.251688" xlink:href="#m63e89b609f" y="36.241958"/>
     <use style="fill:#2ca02c;stroke:#2ca02c;" x="57.411169" xlink:href="#m63e89b609f" y="46.99011"/>
     <use style="fill:#2ca02c;stroke:#2ca02c;" x="58.570649" xlink:href="#m63e89b609f" y="57.381572"/>
     <use style="fill:#2ca02c;stroke:#2ca02c;" x="59.73013" xlink:href="#m63e89b609f" y="68.219519"/>
     <use style="fill:#2ca02c;stroke:#2ca02c;" x="60.88961" xlink:href="#m63e89b609f" y="78.805298"/>
     <use style="fill:#2ca02c;stroke:#2ca02c;" x="62.049091" xlink:href="#m63e89b609f" y="89.516059"/>
     <use style="fill:#2ca02c;stroke:#2ca02c;" x="63.208571" xlink:href="#m63e89b609f" y="100.207221"/>
     <use style="fill:#2ca02c;stroke:#2ca02c;" x="64.368052" xlink:href="#m63e89b609f" y="110.826584"/>
     <use style="fill:#2ca02c;stroke:#2ca02c;" x="65.527532" xlink:href="#m63e89b609f" y="121.553276"/>
     <use style="fill:#2ca02c;stroke:#2ca02c;" x="66.687013" xlink:href="#m63e89b609f" y="131.780661"/>
     <use style="fill:#2ca02c;stroke:#2ca02c;" x="67.846494" xlink:href="#m63e89b609f" y="143.349481"/>
     <use style="fill:#2ca02c;stroke:#2ca02c;" x="69.005974" xlink:href="#m63e89b609f" y="153.73081"/>
     <use style="fill:#2ca02c;stroke:#2ca02c;" x="70.165455" xlink:href="#m63e89b609f" y="167.22658"/>
    </g>
   </g>
   <g id="line2d_13">
    <path clip-path="url(#pfae1b6edf5)" d="M 55.092208 83.581381 
L 79.679275 311.86825 
L 79.679275 311.86825 
" style="fill:none;stroke:#000000;stroke-dasharray:5.55,2.4;stroke-dashoffset:0;stroke-width:1.5;"/>
   </g>
   <g id="patch_3">
    <path d="M 37.7 273.312 
L 37.7 7.2 
" style="fill:none;stroke:#000000;stroke-linecap:square;stroke-linejoin:miter;stroke-width:0.8;"/>
   </g>
   <g id="patch_4">
    <path d="M 394.82 273.312 
L 394.82 7.2 
" style="fill:none;stroke:#000000;stroke-linecap:square;stroke-linejoin:miter;stroke-width:0.8;"/>
   </g>
   <g id="patch_5">
    <path d="M 37.7 273.312 
L 394.82 273.312 
" style="fill:none;stroke:#000000;stroke-linecap:square;stroke-linejoin:miter;stroke-width:0.8;"/>
   </g>
   <g id="patch_6">
    <path d="M 37.7 7.2 
L 394.82 7.2 
" style="fill:none;stroke:#000000;stroke-linecap:square;stroke-linejoin:miter;stroke-width:0.8;"/>
   </g>
   <g id="legend_1">
    <g id="patch_7">
     <path d="M 287.72 59.25625 
L 387.82 59.25625 
Q 389.82 59.25625 389.82 57.25625 
L 389.82 14.2 
Q 389.82 12.2 387.82 12.2 
L 287.72 12.2 
Q 285.72 12.2 285.72 14.2 
L 285.72 57.25625 
Q 285.72 59.25625 287.72 59.25625 
z
" style="fill:#ffffff;opacity:0.8;"/>
    </g>
    <g id="line2d_14">
     <path d="M 289.72 20.298437 
L 309.72 20.298437 
" style="fill:none;stroke:#1f77b4;stroke-linecap:square;stroke-width:1.5;"/>
    </g>
    <g id="line2d_15">
     <g>
      <use style="fill:#1f77b4;stroke:#1f77b4;" x="299.72" xlink:href="#mbd4f0b4c1e" y="20.298437"/>
     </g>
    </g>
    <g id="text_12">
     <!-- APD$_n$ - APD$_\infty$ -->
     <defs>
      <path d="M 34.1875 63.1875 
L 20.796875 26.90625 
L 47.609375 26.90625 
z
M 28.609375 72.90625 
L 39.796875 72.90625 
L 67.578125 0 
L 57.328125 0 
L 50.6875 18.703125 
L 17.828125 18.703125 
L 11.1875 0 
L 0.78125 0 
z
" id="DejaVuSans-65"/>
      <path d="M 19.671875 64.796875 
L 19.671875 37.40625 
L 32.078125 37.40625 
Q 38.96875 37.40625 42.71875 40.96875 
Q 46.484375 44.53125 46.484375 51.125 
Q 46.484375 57.671875 42.71875 61.234375 
Q 38.96875 64.796875 32.078125 64.796875 
z
M 9.8125 72.90625 
L 32.078125 72.90625 
Q 44.34375 72.90625 50.609375 67.359375 
Q 56.890625 61.8125 56.890625 51.125 
Q 56.890625 40.328125 50.609375 34.8125 
Q 44.34375 29.296875 32.078125 29.296875 
L 19.671875 29.296875 
L 19.671875 0 
L 9.8125 0 
z
" id="DejaVuSans-80"/>
      <path d="M 19.671875 64.796875 
L 19.671875 8.109375 
L 31.59375 8.109375 
Q 46.6875 8.109375 53.6875 14.9375 
Q 60.6875 21.78125 60.6875 36.53125 
Q 60.6875 51.171875 53.6875 57.984375 
Q 46.6875 64.796875 31.59375 64.796875 
z
M 9.8125 72.90625 
L 30.078125 72.90625 
Q 51.265625 72.90625 61.171875 64.09375 
Q 71.09375 55.28125 71.09375 36.53125 
Q 71.09375 17.671875 61.125 8.828125 
Q 51.171875 0 30.078125 0 
L 9.8125 0 
z
" id="DejaVuSans-68"/>
      <path d="M 55.71875 33.015625 
L 49.3125 0 
L 40.28125 0 
L 46.6875 32.671875 
Q 47.125 34.96875 47.359375 36.71875 
Q 47.609375 38.484375 47.609375 39.5 
Q 47.609375 43.609375 45.015625 45.890625 
Q 42.4375 48.1875 37.796875 48.1875 
Q 30.5625 48.1875 25.34375 43.375 
Q 20.125 38.578125 18.5 30.328125 
L 12.5 0 
L 3.515625 0 
L 14.109375 54.6875 
L 23.09375 54.6875 
L 21.296875 46.09375 
Q 25.046875 50.828125 30.3125 53.40625 
Q 35.59375 56 41.40625 56 
Q 48.640625 56 52.609375 52.09375 
Q 56.59375 48.1875 56.59375 41.109375 
Q 56.59375 39.359375 56.375 37.359375 
Q 56.15625 35.359375 55.71875 33.015625 
z
" id="DejaVuSans-Oblique-110"/>
      <path id="DejaVuSans-32"/>
      <path d="M 4.890625 31.390625 
L 31.203125 31.390625 
L 31.203125 23.390625 
L 4.890625 23.390625 
z
" id="DejaVuSans-45"/>
      <path d="M 45.5625 17.046875 
Q 44.046875 18.796875 41.65625 22.90625 
Q 38.375 17.046875 35.5 14.453125 
Q 31.890625 11.328125 26.265625 11.328125 
Q 19.671875 11.328125 15.328125 16.265625 
Q 10.75 21.4375 10.75 29.984375 
Q 10.75 38.1875 15.328125 43.75 
Q 19.4375 48.6875 26.375 48.6875 
Q 29.9375 48.6875 32.5625 47.21875 
Q 35.640625 45.609375 37.75 42.828125 
Q 39.703125 40.328125 41.65625 36.96875 
Q 44.921875 42.828125 47.796875 45.40625 
Q 51.421875 48.53125 57.03125 48.53125 
Q 63.625 48.53125 67.96875 43.609375 
Q 72.5625 38.421875 72.5625 29.890625 
Q 72.5625 21.6875 67.96875 16.109375 
Q 63.875 11.1875 56.9375 11.1875 
Q 53.375 11.1875 50.734375 12.640625 
Q 48.09375 13.96875 45.5625 17.046875 
z
M 25.734375 17.71875 
Q 33.796875 17.71875 38.625 29.4375 
Q 32.421875 42.234375 25.734375 42.234375 
Q 20.84375 42.234375 18.359375 38.71875 
Q 15.671875 34.96875 15.671875 29.984375 
Q 15.671875 24.515625 18.359375 21.140625 
Q 21.09375 17.71875 25.734375 17.71875 
z
M 57.5625 42.140625 
Q 50.296875 42.140625 44.671875 30.421875 
Q 50.828125 17.625 57.5625 17.625 
Q 62.453125 17.625 64.9375 21.140625 
Q 67.625 24.90625 67.625 29.890625 
Q 67.625 35.359375 64.9375 38.71875 
Q 62.203125 42.140625 57.5625 42.140625 
z
" id="DejaVuSans-8734"/>
     </defs>
     <g transform="translate(317.72 23.798437)scale(0.1 -0.1)">
      <use transform="translate(0 0.09375)" xlink:href="#DejaVuSans-65"/>
      <use transform="translate(68.408203 0.09375)" xlink:href="#DejaVuSans-80"/>
      <use transform="translate(128.710938 0.09375)" xlink:href="#DejaVuSans-68"/>
      <use transform="translate(206.669922 -16.3125)scale(0.7)" xlink:href="#DejaVuSans-Oblique-110"/>
      <use transform="translate(253.769531 0.09375)" xlink:href="#DejaVuSans-32"/>
      <use transform="translate(285.556641 0.09375)" xlink:href="#DejaVuSans-45"/>
      <use transform="translate(321.640625 0.09375)" xlink:href="#DejaVuSans-32"/>
      <use transform="translate(353.427734 0.09375)" xlink:href="#DejaVuSans-65"/>
      <use transform="translate(421.835938 0.09375)" xlink:href="#DejaVuSans-80"/>
      <use transform="translate(482.138672 0.09375)" xlink:href="#DejaVuSans-68"/>
      <use transform="translate(560.097656 -16.3125)scale(0.7)" xlink:href="#DejaVuSans-8734"/>
     </g>
    </g>
    <g id="line2d_16">
     <path d="M 289.72 34.976562 
L 309.72 34.976562 
" style="fill:none;stroke:#2ca02c;stroke-dasharray:1.5,2.475;stroke-dashoffset:0;stroke-width:1.5;"/>
    </g>
    <g id="line2d_17">
     <g>
      <use style="fill:#2ca02c;stroke:#2ca02c;" x="299.72" xlink:href="#m63e89b609f" y="34.976562"/>
     </g>
    </g>
    <g id="text_13">
     <!-- linear region -->
     <defs>
      <path d="M 9.421875 75.984375 
L 18.40625 75.984375 
L 18.40625 0 
L 9.421875 0 
z
" id="DejaVuSans-108"/>
      <path d="M 9.421875 54.6875 
L 18.40625 54.6875 
L 18.40625 0 
L 9.421875 0 
z
M 9.421875 75.984375 
L 18.40625 75.984375 
L 18.40625 64.59375 
L 9.421875 64.59375 
z
" id="DejaVuSans-105"/>
      <path d="M 54.890625 33.015625 
L 54.890625 0 
L 45.90625 0 
L 45.90625 32.71875 
Q 45.90625 40.484375 42.875 44.328125 
Q 39.84375 48.1875 33.796875 48.1875 
Q 26.515625 48.1875 22.3125 43.546875 
Q 18.109375 38.921875 18.109375 30.90625 
L 18.109375 0 
L 9.078125 0 
L 9.078125 54.6875 
L 18.109375 54.6875 
L 18.109375 46.1875 
Q 21.34375 51.125 25.703125 53.5625 
Q 30.078125 56 35.796875 56 
Q 45.21875 56 50.046875 50.171875 
Q 54.890625 44.34375 54.890625 33.015625 
z
" id="DejaVuSans-110"/>
      <path d="M 56.203125 29.59375 
L 56.203125 25.203125 
L 14.890625 25.203125 
Q 15.484375 15.921875 20.484375 11.0625 
Q 25.484375 6.203125 34.421875 6.203125 
Q 39.59375 6.203125 44.453125 7.46875 
Q 49.3125 8.734375 54.109375 11.28125 
L 54.109375 2.78125 
Q 49.265625 0.734375 44.1875 -0.34375 
Q 39.109375 -1.421875 33.890625 -1.421875 
Q 20.796875 -1.421875 13.15625 6.1875 
Q 5.515625 13.8125 5.515625 26.8125 
Q 5.515625 40.234375 12.765625 48.109375 
Q 20.015625 56 32.328125 56 
Q 43.359375 56 49.78125 48.890625 
Q 56.203125 41.796875 56.203125 29.59375 
z
M 47.21875 32.234375 
Q 47.125 39.59375 43.09375 43.984375 
Q 39.0625 48.390625 32.421875 48.390625 
Q 24.90625 48.390625 20.390625 44.140625 
Q 15.875 39.890625 15.1875 32.171875 
z
" id="DejaVuSans-101"/>
      <path d="M 34.28125 27.484375 
Q 23.390625 27.484375 19.1875 25 
Q 14.984375 22.515625 14.984375 16.5 
Q 14.984375 11.71875 18.140625 8.90625 
Q 21.296875 6.109375 26.703125 6.109375 
Q 34.1875 6.109375 38.703125 11.40625 
Q 43.21875 16.703125 43.21875 25.484375 
L 43.21875 27.484375 
z
M 52.203125 31.203125 
L 52.203125 0 
L 43.21875 0 
L 43.21875 8.296875 
Q 40.140625 3.328125 35.546875 0.953125 
Q 30.953125 -1.421875 24.3125 -1.421875 
Q 15.921875 -1.421875 10.953125 3.296875 
Q 6 8.015625 6 15.921875 
Q 6 25.140625 12.171875 29.828125 
Q 18.359375 34.515625 30.609375 34.515625 
L 43.21875 34.515625 
L 43.21875 35.40625 
Q 43.21875 41.609375 39.140625 45 
Q 35.0625 48.390625 27.6875 48.390625 
Q 23 48.390625 18.546875 47.265625 
Q 14.109375 46.140625 10.015625 43.890625 
L 10.015625 52.203125 
Q 14.9375 54.109375 19.578125 55.046875 
Q 24.21875 56 28.609375 56 
Q 40.484375 56 46.34375 49.84375 
Q 52.203125 43.703125 52.203125 31.203125 
z
" id="DejaVuSans-97"/>
      <path d="M 41.109375 46.296875 
Q 39.59375 47.171875 37.8125 47.578125 
Q 36.03125 48 33.890625 48 
Q 26.265625 48 22.1875 43.046875 
Q 18.109375 38.09375 18.109375 28.8125 
L 18.109375 0 
L 9.078125 0 
L 9.078125 54.6875 
L 18.109375 54.6875 
L 18.109375 46.1875 
Q 20.953125 51.171875 25.484375 53.578125 
Q 30.03125 56 36.53125 56 
Q 37.453125 56 38.578125 55.875 
Q 39.703125 55.765625 41.0625 55.515625 
z
" id="DejaVuSans-114"/>
      <path d="M 45.40625 27.984375 
Q 45.40625 37.75 41.375 43.109375 
Q 37.359375 48.484375 30.078125 48.484375 
Q 22.859375 48.484375 18.828125 43.109375 
Q 14.796875 37.75 14.796875 27.984375 
Q 14.796875 18.265625 18.828125 12.890625 
Q 22.859375 7.515625 30.078125 7.515625 
Q 37.359375 7.515625 41.375 12.890625 
Q 45.40625 18.265625 45.40625 27.984375 
z
M 54.390625 6.78125 
Q 54.390625 -7.171875 48.1875 -13.984375 
Q 42 -20.796875 29.203125 -20.796875 
Q 24.46875 -20.796875 20.265625 -20.09375 
Q 16.0625 -19.390625 12.109375 -17.921875 
L 12.109375 -9.1875 
Q 16.0625 -11.328125 19.921875 -12.34375 
Q 23.78125 -13.375 27.78125 -13.375 
Q 36.625 -13.375 41.015625 -8.765625 
Q 45.40625 -4.15625 45.40625 5.171875 
L 45.40625 9.625 
Q 42.625 4.78125 38.28125 2.390625 
Q 33.9375 0 27.875 0 
Q 17.828125 0 11.671875 7.65625 
Q 5.515625 15.328125 5.515625 27.984375 
Q 5.515625 40.671875 11.671875 48.328125 
Q 17.828125 56 27.875 56 
Q 33.9375 56 38.28125 53.609375 
Q 42.625 51.21875 45.40625 46.390625 
L 45.40625 54.6875 
L 54.390625 54.6875 
z
" id="DejaVuSans-103"/>
      <path d="M 30.609375 48.390625 
Q 23.390625 48.390625 19.1875 42.75 
Q 14.984375 37.109375 14.984375 27.296875 
Q 14.984375 17.484375 19.15625 11.84375 
Q 23.34375 6.203125 30.609375 6.203125 
Q 37.796875 6.203125 41.984375 11.859375 
Q 46.1875 17.53125 46.1875 27.296875 
Q 46.1875 37.015625 41.984375 42.703125 
Q 37.796875 48.390625 30.609375 48.390625 
z
M 30.609375 56 
Q 42.328125 56 49.015625 48.375 
Q 55.71875 40.765625 55.71875 27.296875 
Q 55.71875 13.875 49.015625 6.21875 
Q 42.328125 -1.421875 30.609375 -1.421875 
Q 18.84375 -1.421875 12.171875 6.21875 
Q 5.515625 13.875 5.515625 27.296875 
Q 5.515625 40.765625 12.171875 48.375 
Q 18.84375 56 30.609375 56 
z
" id="DejaVuSans-111"/>
     </defs>
     <g transform="translate(317.72 38.476562)scale(0.1 -0.1)">
      <use xlink:href="#DejaVuSans-108"/>
      <use x="27.783203" xlink:href="#DejaVuSans-105"/>
      <use x="55.566406" xlink:href="#DejaVuSans-110"/>
      <use x="118.945312" xlink:href="#DejaVuSans-101"/>
      <use x="180.46875" xlink:href="#DejaVuSans-97"/>
      <use x="241.748047" xlink:href="#DejaVuSans-114"/>
      <use x="282.861328" xlink:href="#DejaVuSans-32"/>
      <use x="314.648438" xlink:href="#DejaVuSans-114"/>
      <use x="353.511719" xlink:href="#DejaVuSans-101"/>
      <use x="415.035156" xlink:href="#DejaVuSans-103"/>
      <use x="478.511719" xlink:href="#DejaVuSans-105"/>
      <use x="506.294922" xlink:href="#DejaVuSans-111"/>
      <use x="567.476562" xlink:href="#DejaVuSans-110"/>
     </g>
    </g>
    <g id="line2d_18">
     <path d="M 289.72 49.65625 
L 309.72 49.65625 
" style="fill:none;stroke:#000000;stroke-dasharray:5.55,2.4;stroke-dashoffset:0;stroke-width:1.5;"/>
    </g>
    <g id="line2d_19"/>
    <g id="text_14">
     <!-- $ \exp(-0.792 k)$ -->
     <defs>
      <path d="M 54.890625 54.6875 
L 35.109375 28.078125 
L 55.90625 0 
L 45.3125 0 
L 29.390625 21.484375 
L 13.484375 0 
L 2.875 0 
L 24.125 28.609375 
L 4.6875 54.6875 
L 15.28125 54.6875 
L 29.78125 35.203125 
L 44.28125 54.6875 
z
" id="DejaVuSans-120"/>
      <path d="M 18.109375 8.203125 
L 18.109375 -20.796875 
L 9.078125 -20.796875 
L 9.078125 54.6875 
L 18.109375 54.6875 
L 18.109375 46.390625 
Q 20.953125 51.265625 25.265625 53.625 
Q 29.59375 56 35.59375 56 
Q 45.5625 56 51.78125 48.09375 
Q 58.015625 40.1875 58.015625 27.296875 
Q 58.015625 14.40625 51.78125 6.484375 
Q 45.5625 -1.421875 35.59375 -1.421875 
Q 29.59375 -1.421875 25.265625 0.953125 
Q 20.953125 3.328125 18.109375 8.203125 
z
M 48.6875 27.296875 
Q 48.6875 37.203125 44.609375 42.84375 
Q 40.53125 48.484375 33.40625 48.484375 
Q 26.265625 48.484375 22.1875 42.84375 
Q 18.109375 37.203125 18.109375 27.296875 
Q 18.109375 17.390625 22.1875 11.75 
Q 26.265625 6.109375 33.40625 6.109375 
Q 40.53125 6.109375 44.609375 11.75 
Q 48.6875 17.390625 48.6875 27.296875 
z
" id="DejaVuSans-112"/>
      <path d="M 31 75.875 
Q 24.46875 64.65625 21.28125 53.65625 
Q 18.109375 42.671875 18.109375 31.390625 
Q 18.109375 20.125 21.3125 9.0625 
Q 24.515625 -2 31 -13.1875 
L 23.1875 -13.1875 
Q 15.875 -1.703125 12.234375 9.375 
Q 8.59375 20.453125 8.59375 31.390625 
Q 8.59375 42.28125 12.203125 53.3125 
Q 15.828125 64.359375 23.1875 75.875 
z
" id="DejaVuSans-40"/>
      <path d="M 10.6875 12.40625 
L 21 12.40625 
L 21 0 
L 10.6875 0 
z
" id="DejaVuSans-46"/>
      <path d="M 8.203125 72.90625 
L 55.078125 72.90625 
L 55.078125 68.703125 
L 28.609375 0 
L 18.3125 0 
L 43.21875 64.59375 
L 8.203125 64.59375 
z
" id="DejaVuSans-55"/>
      <path d="M 10.984375 1.515625 
L 10.984375 10.5 
Q 14.703125 8.734375 18.5 7.8125 
Q 22.3125 6.890625 25.984375 6.890625 
Q 35.75 6.890625 40.890625 13.453125 
Q 46.046875 20.015625 46.78125 33.40625 
Q 43.953125 29.203125 39.59375 26.953125 
Q 35.25 24.703125 29.984375 24.703125 
Q 19.046875 24.703125 12.671875 31.3125 
Q 6.296875 37.9375 6.296875 49.421875 
Q 6.296875 60.640625 12.9375 67.421875 
Q 19.578125 74.21875 30.609375 74.21875 
Q 43.265625 74.21875 49.921875 64.515625 
Q 56.59375 54.828125 56.59375 36.375 
Q 56.59375 19.140625 48.40625 8.859375 
Q 40.234375 -1.421875 26.421875 -1.421875 
Q 22.703125 -1.421875 18.890625 -0.6875 
Q 15.09375 0.046875 10.984375 1.515625 
z
M 30.609375 32.421875 
Q 37.25 32.421875 41.125 36.953125 
Q 45.015625 41.5 45.015625 49.421875 
Q 45.015625 57.28125 41.125 61.84375 
Q 37.25 66.40625 30.609375 66.40625 
Q 23.96875 66.40625 20.09375 61.84375 
Q 16.21875 57.28125 16.21875 49.421875 
Q 16.21875 41.5 20.09375 36.953125 
Q 23.96875 32.421875 30.609375 32.421875 
z
" id="DejaVuSans-57"/>
      <path d="M 8.015625 75.875 
L 15.828125 75.875 
Q 23.140625 64.359375 26.78125 53.3125 
Q 30.421875 42.28125 30.421875 31.390625 
Q 30.421875 20.453125 26.78125 9.375 
Q 23.140625 -1.703125 15.828125 -13.1875 
L 8.015625 -13.1875 
Q 14.5 -2 17.703125 9.0625 
Q 20.90625 20.125 20.90625 31.390625 
Q 20.90625 42.671875 17.703125 53.65625 
Q 14.5 64.65625 8.015625 75.875 
z
" id="DejaVuSans-41"/>
     </defs>
     <g transform="translate(317.72 53.15625)scale(0.1 -0.1)">
      <use transform="translate(0 0.015625)" xlink:href="#DejaVuSans-101"/>
      <use transform="translate(61.523438 0.015625)" xlink:href="#DejaVuSans-120"/>
      <use transform="translate(120.703125 0.015625)" xlink:href="#DejaVuSans-112"/>
      <use transform="translate(184.179688 0.015625)" xlink:href="#DejaVuSans-40"/>
      <use transform="translate(223.193359 0.015625)" xlink:href="#DejaVuSans-8722"/>
      <use transform="translate(306.982422 0.015625)" xlink:href="#DejaVuSans-48"/>
      <use transform="translate(370.605469 0.015625)" xlink:href="#DejaVuSans-46"/>
      <use transform="translate(394.642578 0.015625)" xlink:href="#DejaVuSans-55"/>
      <use transform="translate(458.265625 0.015625)" xlink:href="#DejaVuSans-57"/>
      <use transform="translate(520.138672 0.015625)" xlink:href="#DejaVuSans-50"/>
      <use transform="translate(583.761719 0.015625)" xlink:href="#DejaVuSans-Oblique-107"/>
      <use transform="translate(641.671875 0.015625)" xlink:href="#DejaVuSans-41"/>
     </g>
    </g>
   </g>
  </g>
 </g>
 <defs>
  <clipPath id="pfae1b6edf5">
   <rect height="266.112" width="357.12" x="37.7" y="7.2"/>
  </clipPath>
 </defs>
</svg>
