<?xml version="1.0" encoding="utf-8" standalone="no"?>
<!DOCTYPE svg PUBLIC "-//W3C//DTD SVG 1.1//EN"
  "http://www.w3.org/Graphics/SVG/1.1/DTD/svg11.dtd">
<!-- Created with matplotlib (https://matplotlib.org/) -->
<svg height="310.86825pt" version="1.1" viewBox="0 0 402.02 310.86825" width="402.02pt" xmlns="http://www.w3.org/2000/svg" xmlns:xlink="http://www.w3.org/1999/xlink">
 <defs>
  <style type="text/css">
*{stroke-linecap:butt;stroke-linejoin:round;}
  </style>
 </defs>
 <g id="figure_1">
  <g id="patch_1">
   <path d="M 0 310.86825 
L 402.02 310.86825 
L 402.02 0 
L 0 0 
z
" style="fill:#ffffff;"/>
  </g>
  <g id="axes_1">
   <g id="patch_2">
    <path d="M 37.7 273.312 
L 394.82 273.312 
L 394.82 7.2 
L 37.7 7.2 
z
" style="fill:#ffffff;"/>
   </g>
   <g id="matplotlib.axis_1">
    <g id="xtick_1">
     <g id="line2d_1">
      <defs>
       <path d="M 0 0 
L 0 3.5 
" id="me99d5bb2e2" style="stroke:#000000;stroke-width:0.8;"/>
      </defs>
      <g>
       <use style="stroke:#000000;stroke-width:0.8;" x="53.932727" xlink:href="#me99d5bb2e2" y="273.312"/>
      </g>
     </g>
     <g id="text_1">
      <!-- 0 -->
      <defs>
       <path d="M 31.78125 66.40625 
Q 24.171875 66.40625 20.328125 58.90625 
Q 16.5 51.421875 16.5 36.375 
Q 16.5 21.390625 20.328125 13.890625 
Q 24.171875 6.390625 31.78125 6.390625 
Q 39.453125 6.390625 43.28125 13.890625 
Q 47.125 21.390625 47.125 36.375 
Q 47.125 51.421875 43.28125 58.90625 
Q 39.453125 66.40625 31.78125 66.40625 
z
M 31.78125 74.21875 
Q 44.046875 74.21875 50.515625 64.515625 
Q 56.984375 54.828125 56.984375 36.375 
Q 56.984375 17.96875 50.515625 8.265625 
Q 44.046875 -1.421875 31.78125 -1.421875 
Q 19.53125 -1.421875 13.0625 8.265625 
Q 6.59375 17.96875 6.59375 36.375 
Q 6.59375 54.828125 13.0625 64.515625 
Q 19.53125 74.21875 31.78125 74.21875 
z
" id="DejaVuSans-48"/>
      </defs>
      <g transform="translate(50.751477 287.910437)scale(0.1 -0.1)">
       <use xlink:href="#DejaVuSans-48"/>
      </g>
     </g>
    </g>
    <g id="xtick_2">
     <g id="line2d_2">
      <g>
       <use style="stroke:#000000;stroke-width:0.8;" x="107.506085" xlink:href="#me99d5bb2e2" y="273.312"/>
      </g>
     </g>
     <g id="text_2">
      <!-- 50 -->
      <defs>
       <path d="M 10.796875 72.90625 
L 49.515625 72.90625 
L 49.515625 64.59375 
L 19.828125 64.59375 
L 19.828125 46.734375 
Q 21.96875 47.46875 24.109375 47.828125 
Q 26.265625 48.1875 28.421875 48.1875 
Q 40.625 48.1875 47.75 41.5 
Q 54.890625 34.8125 54.890625 23.390625 
Q 54.890625 11.625 47.5625 5.09375 
Q 40.234375 -1.421875 26.90625 -1.421875 
Q 22.3125 -1.421875 17.546875 -0.640625 
Q 12.796875 0.140625 7.71875 1.703125 
L 7.71875 11.625 
Q 12.109375 9.234375 16.796875 8.0625 
Q 21.484375 6.890625 26.703125 6.890625 
Q 35.15625 6.890625 40.078125 11.328125 
Q 45.015625 15.765625 45.015625 23.390625 
Q 45.015625 31 40.078125 35.4375 
Q 35.15625 39.890625 26.703125 39.890625 
Q 22.75 39.890625 18.8125 39.015625 
Q 14.890625 38.140625 10.796875 36.28125 
z
" id="DejaVuSans-53"/>
      </defs>
      <g transform="translate(101.143585 287.910437)scale(0.1 -0.1)">
       <use xlink:href="#DejaVuSans-53"/>
       <use x="63.623047" xlink:href="#DejaVuSans-48"/>
      </g>
     </g>
    </g>
    <g id="xtick_3">
     <g id="line2d_3">
      <g>
       <use style="stroke:#000000;stroke-width:0.8;" x="161.079442" xlink:href="#me99d5bb2e2" y="273.312"/>
      </g>
     </g>
     <g id="text_3">
      <!-- 100 -->
      <defs>
       <path d="M 12.40625 8.296875 
L 28.515625 8.296875 
L 28.515625 63.921875 
L 10.984375 60.40625 
L 10.984375 69.390625 
L 28.421875 72.90625 
L 38.28125 72.90625 
L 38.28125 8.296875 
L 54.390625 8.296875 
L 54.390625 0 
L 12.40625 0 
z
" id="DejaVuSans-49"/>
      </defs>
      <g transform="translate(151.535692 287.910437)scale(0.1 -0.1)">
       <use xlink:href="#DejaVuSans-49"/>
       <use x="63.623047" xlink:href="#DejaVuSans-48"/>
       <use x="127.246094" xlink:href="#DejaVuSans-48"/>
      </g>
     </g>
    </g>
    <g id="xtick_4">
     <g id="line2d_4">
      <g>
       <use style="stroke:#000000;stroke-width:0.8;" x="214.652799" xlink:href="#me99d5bb2e2" y="273.312"/>
      </g>
     </g>
     <g id="text_4">
      <!-- 150 -->
      <g transform="translate(205.109049 287.910437)scale(0.1 -0.1)">
       <use xlink:href="#DejaVuSans-49"/>
       <use x="63.623047" xlink:href="#DejaVuSans-53"/>
       <use x="127.246094" xlink:href="#DejaVuSans-48"/>
      </g>
     </g>
    </g>
    <g id="xtick_5">
     <g id="line2d_5">
      <g>
       <use style="stroke:#000000;stroke-width:0.8;" x="268.226157" xlink:href="#me99d5bb2e2" y="273.312"/>
      </g>
     </g>
     <g id="text_5">
      <!-- 200 -->
      <defs>
       <path d="M 19.1875 8.296875 
L 53.609375 8.296875 
L 53.609375 0 
L 7.328125 0 
L 7.328125 8.296875 
Q 12.9375 14.109375 22.625 23.890625 
Q 32.328125 33.6875 34.8125 36.53125 
Q 39.546875 41.84375 41.421875 45.53125 
Q 43.3125 49.21875 43.3125 52.78125 
Q 43.3125 58.59375 39.234375 62.25 
Q 35.15625 65.921875 28.609375 65.921875 
Q 23.96875 65.921875 18.8125 64.3125 
Q 13.671875 62.703125 7.8125 59.421875 
L 7.8125 69.390625 
Q 13.765625 71.78125 18.9375 73 
Q 24.125 74.21875 28.421875 74.21875 
Q 39.75 74.21875 46.484375 68.546875 
Q 53.21875 62.890625 53.21875 53.421875 
Q 53.21875 48.921875 51.53125 44.890625 
Q 49.859375 40.875 45.40625 35.40625 
Q 44.1875 33.984375 37.640625 27.21875 
Q 31.109375 20.453125 19.1875 8.296875 
z
" id="DejaVuSans-50"/>
      </defs>
      <g transform="translate(258.682407 287.910437)scale(0.1 -0.1)">
       <use xlink:href="#DejaVuSans-50"/>
       <use x="63.623047" xlink:href="#DejaVuSans-48"/>
       <use x="127.246094" xlink:href="#DejaVuSans-48"/>
      </g>
     </g>
    </g>
    <g id="xtick_6">
     <g id="line2d_6">
      <g>
       <use style="stroke:#000000;stroke-width:0.8;" x="321.799514" xlink:href="#me99d5bb2e2" y="273.312"/>
      </g>
     </g>
     <g id="text_6">
      <!-- 250 -->
      <g transform="translate(312.255764 287.910437)scale(0.1 -0.1)">
       <use xlink:href="#DejaVuSans-50"/>
       <use x="63.623047" xlink:href="#DejaVuSans-53"/>
       <use x="127.246094" xlink:href="#DejaVuSans-48"/>
      </g>
     </g>
    </g>
    <g id="xtick_7">
     <g id="line2d_7">
      <g>
       <use style="stroke:#000000;stroke-width:0.8;" x="375.372871" xlink:href="#me99d5bb2e2" y="273.312"/>
      </g>
     </g>
     <g id="text_7">
      <!-- 300 -->
      <defs>
       <path d="M 40.578125 39.3125 
Q 47.65625 37.796875 51.625 33 
Q 55.609375 28.21875 55.609375 21.1875 
Q 55.609375 10.40625 48.1875 4.484375 
Q 40.765625 -1.421875 27.09375 -1.421875 
Q 22.515625 -1.421875 17.65625 -0.515625 
Q 12.796875 0.390625 7.625 2.203125 
L 7.625 11.71875 
Q 11.71875 9.328125 16.59375 8.109375 
Q 21.484375 6.890625 26.8125 6.890625 
Q 36.078125 6.890625 40.9375 10.546875 
Q 45.796875 14.203125 45.796875 21.1875 
Q 45.796875 27.640625 41.28125 31.265625 
Q 36.765625 34.90625 28.71875 34.90625 
L 20.21875 34.90625 
L 20.21875 43.015625 
L 29.109375 43.015625 
Q 36.375 43.015625 40.234375 45.921875 
Q 44.09375 48.828125 44.09375 54.296875 
Q 44.09375 59.90625 40.109375 62.90625 
Q 36.140625 65.921875 28.71875 65.921875 
Q 24.65625 65.921875 20.015625 65.03125 
Q 15.375 64.15625 9.8125 62.3125 
L 9.8125 71.09375 
Q 15.4375 72.65625 20.34375 73.4375 
Q 25.25 74.21875 29.59375 74.21875 
Q 40.828125 74.21875 47.359375 69.109375 
Q 53.90625 64.015625 53.90625 55.328125 
Q 53.90625 49.265625 50.4375 45.09375 
Q 46.96875 40.921875 40.578125 39.3125 
z
" id="DejaVuSans-51"/>
      </defs>
      <g transform="translate(365.829121 287.910437)scale(0.1 -0.1)">
       <use xlink:href="#DejaVuSans-51"/>
       <use x="63.623047" xlink:href="#DejaVuSans-48"/>
       <use x="127.246094" xlink:href="#DejaVuSans-48"/>
      </g>
     </g>
    </g>
    <g id="text_8">
     <!-- $ k $ -->
     <defs>
      <path d="M 18.3125 75.984375 
L 27.296875 75.984375 
L 18.703125 31.6875 
L 49.515625 54.6875 
L 61.1875 54.6875 
L 26.8125 28.515625 
L 51.90625 0 
L 41.015625 0 
L 17.671875 26.703125 
L 12.5 0 
L 3.515625 0 
z
" id="DejaVuSans-Oblique-107"/>
     </defs>
     <g transform="translate(213.36 301.588562)scale(0.1 -0.1)">
      <use transform="translate(0 0.015625)" xlink:href="#DejaVuSans-Oblique-107"/>
     </g>
    </g>
   </g>
   <g id="matplotlib.axis_2">
    <g id="ytick_1">
     <g id="line2d_8">
      <defs>
       <path d="M 0 0 
L -3.5 0 
" id="m6c6eca38aa" style="stroke:#000000;stroke-width:0.8;"/>
      </defs>
      <g>
       <use style="stroke:#000000;stroke-width:0.8;" x="37.7" xlink:href="#m6c6eca38aa" y="253.638801"/>
      </g>
     </g>
     <g id="text_9">
      <!-- $\mathdefault{10^{-4}}$ -->
      <defs>
       <path d="M 10.59375 35.5 
L 73.1875 35.5 
L 73.1875 27.203125 
L 10.59375 27.203125 
z
" id="DejaVuSans-8722"/>
       <path d="M 37.796875 64.3125 
L 12.890625 25.390625 
L 37.796875 25.390625 
z
M 35.203125 72.90625 
L 47.609375 72.90625 
L 47.609375 25.390625 
L 58.015625 25.390625 
L 58.015625 17.1875 
L 47.609375 17.1875 
L 47.609375 0 
L 37.796875 0 
L 37.796875 17.1875 
L 4.890625 17.1875 
L 4.890625 26.703125 
z
" id="DejaVuSans-52"/>
      </defs>
      <g transform="translate(7.2 257.43802)scale(0.1 -0.1)">
       <use transform="translate(0 0.684375)" xlink:href="#DejaVuSans-49"/>
       <use transform="translate(63.623047 0.684375)" xlink:href="#DejaVuSans-48"/>
       <use transform="translate(128.203125 38.965625)scale(0.7)" xlink:href="#DejaVuSans-8722"/>
       <use transform="translate(186.855469 38.965625)scale(0.7)" xlink:href="#DejaVuSans-52"/>
      </g>
     </g>
    </g>
    <g id="ytick_2">
     <g id="line2d_9">
      <g>
       <use style="stroke:#000000;stroke-width:0.8;" x="37.7" xlink:href="#m6c6eca38aa" y="215.190939"/>
      </g>
     </g>
     <g id="text_10">
      <!-- $\mathdefault{10^{-3}}$ -->
      <g transform="translate(7.2 218.990158)scale(0.1 -0.1)">
       <use transform="translate(0 0.765625)" xlink:href="#DejaVuSans-49"/>
       <use transform="translate(63.623047 0.765625)" xlink:href="#DejaVuSans-48"/>
       <use transform="translate(128.203125 39.046875)scale(0.7)" xlink:href="#DejaVuSans-8722"/>
       <use transform="translate(186.855469 39.046875)scale(0.7)" xlink:href="#DejaVuSans-51"/>
      </g>
     </g>
    </g>
    <g id="ytick_3">
     <g id="line2d_10">
      <g>
       <use style="stroke:#000000;stroke-width:0.8;" x="37.7" xlink:href="#m6c6eca38aa" y="176.743076"/>
      </g>
     </g>
     <g id="text_11">
      <!-- $\mathdefault{10^{-2}}$ -->
      <g transform="translate(7.2 180.542295)scale(0.1 -0.1)">
       <use transform="translate(0 0.765625)" xlink:href="#DejaVuSans-49"/>
       <use transform="translate(63.623047 0.765625)" xlink:href="#DejaVuSans-48"/>
       <use transform="translate(128.203125 39.046875)scale(0.7)" xlink:href="#DejaVuSans-8722"/>
       <use transform="translate(186.855469 39.046875)scale(0.7)" xlink:href="#DejaVuSans-50"/>
      </g>
     </g>
    </g>
    <g id="ytick_4">
     <g id="line2d_11">
      <g>
       <use style="stroke:#000000;stroke-width:0.8;" x="37.7" xlink:href="#m6c6eca38aa" y="138.295214"/>
      </g>
     </g>
     <g id="text_12">
      <!-- $\mathdefault{10^{-1}}$ -->
      <g transform="translate(7.2 142.094432)scale(0.1 -0.1)">
       <use transform="translate(0 0.684375)" xlink:href="#DejaVuSans-49"/>
       <use transform="translate(63.623047 0.684375)" xlink:href="#DejaVuSans-48"/>
       <use transform="translate(128.203125 38.965625)scale(0.7)" xlink:href="#DejaVuSans-8722"/>
       <use transform="translate(186.855469 38.965625)scale(0.7)" xlink:href="#DejaVuSans-49"/>
      </g>
     </g>
    </g>
    <g id="ytick_5">
     <g id="line2d_12">
      <g>
       <use style="stroke:#000000;stroke-width:0.8;" x="37.7" xlink:href="#m6c6eca38aa" y="99.847351"/>
      </g>
     </g>
     <g id="text_13">
      <!-- $\mathdefault{10^{0}}$ -->
      <g transform="translate(13.1 103.64657)scale(0.1 -0.1)">
       <use transform="translate(0 0.765625)" xlink:href="#DejaVuSans-49"/>
       <use transform="translate(63.623047 0.765625)" xlink:href="#DejaVuSans-48"/>
       <use transform="translate(128.203125 39.046875)scale(0.7)" xlink:href="#DejaVuSans-48"/>
      </g>
     </g>
    </g>
    <g id="ytick_6">
     <g id="line2d_13">
      <g>
       <use style="stroke:#000000;stroke-width:0.8;" x="37.7" xlink:href="#m6c6eca38aa" y="61.399489"/>
      </g>
     </g>
     <g id="text_14">
      <!-- $\mathdefault{10^{1}}$ -->
      <g transform="translate(13.1 65.198707)scale(0.1 -0.1)">
       <use transform="translate(0 0.684375)" xlink:href="#DejaVuSans-49"/>
       <use transform="translate(63.623047 0.684375)" xlink:href="#DejaVuSans-48"/>
       <use transform="translate(128.203125 38.965625)scale(0.7)" xlink:href="#DejaVuSans-49"/>
      </g>
     </g>
    </g>
    <g id="ytick_7">
     <g id="line2d_14">
      <g>
       <use style="stroke:#000000;stroke-width:0.8;" x="37.7" xlink:href="#m6c6eca38aa" y="22.951626"/>
      </g>
     </g>
     <g id="text_15">
      <!-- $\mathdefault{10^{2}}$ -->
      <g transform="translate(13.1 26.750845)scale(0.1 -0.1)">
       <use transform="translate(0 0.765625)" xlink:href="#DejaVuSans-49"/>
       <use transform="translate(63.623047 0.765625)" xlink:href="#DejaVuSans-48"/>
       <use transform="translate(128.203125 39.046875)scale(0.7)" xlink:href="#DejaVuSans-50"/>
      </g>
     </g>
    </g>
    <g id="ytick_8">
     <g id="line2d_15">
      <defs>
       <path d="M 0 0 
L -2 0 
" id="m35f45535ff" style="stroke:#000000;stroke-width:0.6;"/>
      </defs>
      <g>
       <use style="stroke:#000000;stroke-width:0.6;" x="37.7" xlink:href="#m35f45535ff" y="268.938744"/>
      </g>
     </g>
    </g>
    <g id="ytick_9">
     <g id="line2d_16">
      <g>
       <use style="stroke:#000000;stroke-width:0.6;" x="37.7" xlink:href="#m35f45535ff" y="265.212761"/>
      </g>
     </g>
    </g>
    <g id="ytick_10">
     <g id="line2d_17">
      <g>
       <use style="stroke:#000000;stroke-width:0.6;" x="37.7" xlink:href="#m35f45535ff" y="262.168412"/>
      </g>
     </g>
    </g>
    <g id="ytick_11">
     <g id="line2d_18">
      <g>
       <use style="stroke:#000000;stroke-width:0.6;" x="37.7" xlink:href="#m35f45535ff" y="259.594451"/>
      </g>
     </g>
    </g>
    <g id="ytick_12">
     <g id="line2d_19">
      <g>
       <use style="stroke:#000000;stroke-width:0.6;" x="37.7" xlink:href="#m35f45535ff" y="257.364784"/>
      </g>
     </g>
    </g>
    <g id="ytick_13">
     <g id="line2d_20">
      <g>
       <use style="stroke:#000000;stroke-width:0.6;" x="37.7" xlink:href="#m35f45535ff" y="255.398079"/>
      </g>
     </g>
    </g>
    <g id="ytick_14">
     <g id="line2d_21">
      <g>
       <use style="stroke:#000000;stroke-width:0.6;" x="37.7" xlink:href="#m35f45535ff" y="242.064841"/>
      </g>
     </g>
    </g>
    <g id="ytick_15">
     <g id="line2d_22">
      <g>
       <use style="stroke:#000000;stroke-width:0.6;" x="37.7" xlink:href="#m35f45535ff" y="235.294509"/>
      </g>
     </g>
    </g>
    <g id="ytick_16">
     <g id="line2d_23">
      <g>
       <use style="stroke:#000000;stroke-width:0.6;" x="37.7" xlink:href="#m35f45535ff" y="230.490882"/>
      </g>
     </g>
    </g>
    <g id="ytick_17">
     <g id="line2d_24">
      <g>
       <use style="stroke:#000000;stroke-width:0.6;" x="37.7" xlink:href="#m35f45535ff" y="226.764899"/>
      </g>
     </g>
    </g>
    <g id="ytick_18">
     <g id="line2d_25">
      <g>
       <use style="stroke:#000000;stroke-width:0.6;" x="37.7" xlink:href="#m35f45535ff" y="223.720549"/>
      </g>
     </g>
    </g>
    <g id="ytick_19">
     <g id="line2d_26">
      <g>
       <use style="stroke:#000000;stroke-width:0.6;" x="37.7" xlink:href="#m35f45535ff" y="221.146588"/>
      </g>
     </g>
    </g>
    <g id="ytick_20">
     <g id="line2d_27">
      <g>
       <use style="stroke:#000000;stroke-width:0.6;" x="37.7" xlink:href="#m35f45535ff" y="218.916922"/>
      </g>
     </g>
    </g>
    <g id="ytick_21">
     <g id="line2d_28">
      <g>
       <use style="stroke:#000000;stroke-width:0.6;" x="37.7" xlink:href="#m35f45535ff" y="216.950217"/>
      </g>
     </g>
    </g>
    <g id="ytick_22">
     <g id="line2d_29">
      <g>
       <use style="stroke:#000000;stroke-width:0.6;" x="37.7" xlink:href="#m35f45535ff" y="203.616979"/>
      </g>
     </g>
    </g>
    <g id="ytick_23">
     <g id="line2d_30">
      <g>
       <use style="stroke:#000000;stroke-width:0.6;" x="37.7" xlink:href="#m35f45535ff" y="196.846646"/>
      </g>
     </g>
    </g>
    <g id="ytick_24">
     <g id="line2d_31">
      <g>
       <use style="stroke:#000000;stroke-width:0.6;" x="37.7" xlink:href="#m35f45535ff" y="192.043019"/>
      </g>
     </g>
    </g>
    <g id="ytick_25">
     <g id="line2d_32">
      <g>
       <use style="stroke:#000000;stroke-width:0.6;" x="37.7" xlink:href="#m35f45535ff" y="188.317036"/>
      </g>
     </g>
    </g>
    <g id="ytick_26">
     <g id="line2d_33">
      <g>
       <use style="stroke:#000000;stroke-width:0.6;" x="37.7" xlink:href="#m35f45535ff" y="185.272687"/>
      </g>
     </g>
    </g>
    <g id="ytick_27">
     <g id="line2d_34">
      <g>
       <use style="stroke:#000000;stroke-width:0.6;" x="37.7" xlink:href="#m35f45535ff" y="182.698726"/>
      </g>
     </g>
    </g>
    <g id="ytick_28">
     <g id="line2d_35">
      <g>
       <use style="stroke:#000000;stroke-width:0.6;" x="37.7" xlink:href="#m35f45535ff" y="180.469059"/>
      </g>
     </g>
    </g>
    <g id="ytick_29">
     <g id="line2d_36">
      <g>
       <use style="stroke:#000000;stroke-width:0.6;" x="37.7" xlink:href="#m35f45535ff" y="178.502354"/>
      </g>
     </g>
    </g>
    <g id="ytick_30">
     <g id="line2d_37">
      <g>
       <use style="stroke:#000000;stroke-width:0.6;" x="37.7" xlink:href="#m35f45535ff" y="165.169116"/>
      </g>
     </g>
    </g>
    <g id="ytick_31">
     <g id="line2d_38">
      <g>
       <use style="stroke:#000000;stroke-width:0.6;" x="37.7" xlink:href="#m35f45535ff" y="158.398784"/>
      </g>
     </g>
    </g>
    <g id="ytick_32">
     <g id="line2d_39">
      <g>
       <use style="stroke:#000000;stroke-width:0.6;" x="37.7" xlink:href="#m35f45535ff" y="153.595156"/>
      </g>
     </g>
    </g>
    <g id="ytick_33">
     <g id="line2d_40">
      <g>
       <use style="stroke:#000000;stroke-width:0.6;" x="37.7" xlink:href="#m35f45535ff" y="149.869174"/>
      </g>
     </g>
    </g>
    <g id="ytick_34">
     <g id="line2d_41">
      <g>
       <use style="stroke:#000000;stroke-width:0.6;" x="37.7" xlink:href="#m35f45535ff" y="146.824824"/>
      </g>
     </g>
    </g>
    <g id="ytick_35">
     <g id="line2d_42">
      <g>
       <use style="stroke:#000000;stroke-width:0.6;" x="37.7" xlink:href="#m35f45535ff" y="144.250863"/>
      </g>
     </g>
    </g>
    <g id="ytick_36">
     <g id="line2d_43">
      <g>
       <use style="stroke:#000000;stroke-width:0.6;" x="37.7" xlink:href="#m35f45535ff" y="142.021197"/>
      </g>
     </g>
    </g>
    <g id="ytick_37">
     <g id="line2d_44">
      <g>
       <use style="stroke:#000000;stroke-width:0.6;" x="37.7" xlink:href="#m35f45535ff" y="140.054491"/>
      </g>
     </g>
    </g>
    <g id="ytick_38">
     <g id="line2d_45">
      <g>
       <use style="stroke:#000000;stroke-width:0.6;" x="37.7" xlink:href="#m35f45535ff" y="126.721254"/>
      </g>
     </g>
    </g>
    <g id="ytick_39">
     <g id="line2d_46">
      <g>
       <use style="stroke:#000000;stroke-width:0.6;" x="37.7" xlink:href="#m35f45535ff" y="119.950921"/>
      </g>
     </g>
    </g>
    <g id="ytick_40">
     <g id="line2d_47">
      <g>
       <use style="stroke:#000000;stroke-width:0.6;" x="37.7" xlink:href="#m35f45535ff" y="115.147294"/>
      </g>
     </g>
    </g>
    <g id="ytick_41">
     <g id="line2d_48">
      <g>
       <use style="stroke:#000000;stroke-width:0.6;" x="37.7" xlink:href="#m35f45535ff" y="111.421311"/>
      </g>
     </g>
    </g>
    <g id="ytick_42">
     <g id="line2d_49">
      <g>
       <use style="stroke:#000000;stroke-width:0.6;" x="37.7" xlink:href="#m35f45535ff" y="108.376961"/>
      </g>
     </g>
    </g>
    <g id="ytick_43">
     <g id="line2d_50">
      <g>
       <use style="stroke:#000000;stroke-width:0.6;" x="37.7" xlink:href="#m35f45535ff" y="105.803"/>
      </g>
     </g>
    </g>
    <g id="ytick_44">
     <g id="line2d_51">
      <g>
       <use style="stroke:#000000;stroke-width:0.6;" x="37.7" xlink:href="#m35f45535ff" y="103.573334"/>
      </g>
     </g>
    </g>
    <g id="ytick_45">
     <g id="line2d_52">
      <g>
       <use style="stroke:#000000;stroke-width:0.6;" x="37.7" xlink:href="#m35f45535ff" y="101.606629"/>
      </g>
     </g>
    </g>
    <g id="ytick_46">
     <g id="line2d_53">
      <g>
       <use style="stroke:#000000;stroke-width:0.6;" x="37.7" xlink:href="#m35f45535ff" y="88.273391"/>
      </g>
     </g>
    </g>
    <g id="ytick_47">
     <g id="line2d_54">
      <g>
       <use style="stroke:#000000;stroke-width:0.6;" x="37.7" xlink:href="#m35f45535ff" y="81.503059"/>
      </g>
     </g>
    </g>
    <g id="ytick_48">
     <g id="line2d_55">
      <g>
       <use style="stroke:#000000;stroke-width:0.6;" x="37.7" xlink:href="#m35f45535ff" y="76.699431"/>
      </g>
     </g>
    </g>
    <g id="ytick_49">
     <g id="line2d_56">
      <g>
       <use style="stroke:#000000;stroke-width:0.6;" x="37.7" xlink:href="#m35f45535ff" y="72.973449"/>
      </g>
     </g>
    </g>
    <g id="ytick_50">
     <g id="line2d_57">
      <g>
       <use style="stroke:#000000;stroke-width:0.6;" x="37.7" xlink:href="#m35f45535ff" y="69.929099"/>
      </g>
     </g>
    </g>
    <g id="ytick_51">
     <g id="line2d_58">
      <g>
       <use style="stroke:#000000;stroke-width:0.6;" x="37.7" xlink:href="#m35f45535ff" y="67.355138"/>
      </g>
     </g>
    </g>
    <g id="ytick_52">
     <g id="line2d_59">
      <g>
       <use style="stroke:#000000;stroke-width:0.6;" x="37.7" xlink:href="#m35f45535ff" y="65.125471"/>
      </g>
     </g>
    </g>
    <g id="ytick_53">
     <g id="line2d_60">
      <g>
       <use style="stroke:#000000;stroke-width:0.6;" x="37.7" xlink:href="#m35f45535ff" y="63.158766"/>
      </g>
     </g>
    </g>
    <g id="ytick_54">
     <g id="line2d_61">
      <g>
       <use style="stroke:#000000;stroke-width:0.6;" x="37.7" xlink:href="#m35f45535ff" y="49.825529"/>
      </g>
     </g>
    </g>
    <g id="ytick_55">
     <g id="line2d_62">
      <g>
       <use style="stroke:#000000;stroke-width:0.6;" x="37.7" xlink:href="#m35f45535ff" y="43.055196"/>
      </g>
     </g>
    </g>
    <g id="ytick_56">
     <g id="line2d_63">
      <g>
       <use style="stroke:#000000;stroke-width:0.6;" x="37.7" xlink:href="#m35f45535ff" y="38.251569"/>
      </g>
     </g>
    </g>
    <g id="ytick_57">
     <g id="line2d_64">
      <g>
       <use style="stroke:#000000;stroke-width:0.6;" x="37.7" xlink:href="#m35f45535ff" y="34.525586"/>
      </g>
     </g>
    </g>
    <g id="ytick_58">
     <g id="line2d_65">
      <g>
       <use style="stroke:#000000;stroke-width:0.6;" x="37.7" xlink:href="#m35f45535ff" y="31.481236"/>
      </g>
     </g>
    </g>
    <g id="ytick_59">
     <g id="line2d_66">
      <g>
       <use style="stroke:#000000;stroke-width:0.6;" x="37.7" xlink:href="#m35f45535ff" y="28.907275"/>
      </g>
     </g>
    </g>
    <g id="ytick_60">
     <g id="line2d_67">
      <g>
       <use style="stroke:#000000;stroke-width:0.6;" x="37.7" xlink:href="#m35f45535ff" y="26.677609"/>
      </g>
     </g>
    </g>
    <g id="ytick_61">
     <g id="line2d_68">
      <g>
       <use style="stroke:#000000;stroke-width:0.6;" x="37.7" xlink:href="#m35f45535ff" y="24.710904"/>
      </g>
     </g>
    </g>
    <g id="ytick_62">
     <g id="line2d_69">
      <g>
       <use style="stroke:#000000;stroke-width:0.6;" x="37.7" xlink:href="#m35f45535ff" y="11.377666"/>
      </g>
     </g>
    </g>
   </g>
   <g id="line2d_70">
    <path clip-path="url(#p5c83bdfbc5)" d="M 53.932727 31.659066 
L 55.004194 19.296 
L 56.075662 38.965623 
L 57.147129 37.250969 
L 58.218596 49.598573 
L 59.290063 55.468734 
L 60.36153 65.038068 
L 61.432997 73.024833 
L 65.718866 107.530056 
L 71.076202 150.311352 
L 72.147669 160.61419 
L 73.219136 166.824632 
L 74.290603 176.668487 
L 75.36207 179.9182 
L 76.433537 193.189004 
L 77.505005 188.063732 
L 78.576472 217.659735 
L 79.647939 226.080382 
L 80.719406 203.235586 
L 81.790873 225.571999 
L 82.86234 219.391822 
L 83.933807 207.75315 
L 85.005275 208.934163 
L 86.076742 218.251579 
L 87.148209 203.087978 
L 88.219676 211.7158 
L 89.291143 214.465388 
L 90.36261 204.273503 
L 91.434077 210.487071 
L 92.505545 238.05803 
L 93.577012 201.092648 
L 94.648479 248.702331 
L 95.719946 199.994639 
L 96.791413 218.399905 
L 97.86288 201.25764 
L 98.934347 213.469988 
L 100.005815 202.91215 
L 101.077282 245.417334 
L 102.148749 200.175701 
L 103.220216 218.925692 
L 104.291683 206.118198 
L 105.36315 209.85946 
L 106.434617 203.568378 
L 107.506085 216.521979 
L 108.577552 214.013652 
L 109.649019 203.749899 
L 110.720486 212.570944 
L 111.791953 204.316906 
L 112.86342 211.743358 
L 113.934887 227.24765 
L 115.006355 213.785888 
L 116.077822 208.676245 
L 117.149289 214.407762 
L 118.220756 206.817227 
L 119.292223 220.613607 
L 120.36369 212.262062 
L 121.435158 207.645556 
L 122.506625 225.689786 
L 123.578092 202.237996 
L 124.649559 206.399186 
L 125.721026 207.036213 
L 126.792493 205.52616 
L 127.86396 214.014213 
L 128.935428 209.968204 
L 130.006895 209.13356 
L 131.078362 211.777281 
L 132.149829 206.572145 
L 133.221296 206.086508 
L 134.292763 208.832167 
L 135.36423 213.017484 
L 136.435698 206.585198 
L 137.507165 211.775474 
L 138.578632 211.585961 
L 139.650099 202.850586 
L 140.721566 215.974352 
L 141.793033 230.567085 
L 142.8645 200.188042 
L 143.935968 214.860042 
L 145.007435 212.759771 
L 146.078902 211.282012 
L 147.150369 206.452894 
L 148.221836 210.992918 
L 149.293303 207.756856 
L 150.36477 206.283748 
L 151.436238 208.796614 
L 152.507705 208.851786 
L 153.579172 226.830529 
L 154.650639 207.545638 
L 155.722106 220.709434 
L 156.793573 207.628151 
L 157.865041 211.217534 
L 158.936508 209.571634 
L 160.007975 216.405539 
L 161.079442 208.774023 
L 162.150909 212.149941 
L 163.222376 208.804855 
L 164.293843 219.245339 
L 165.365311 202.556372 
L 166.436778 211.813382 
L 167.508245 213.685175 
L 168.579712 200.778458 
L 169.651179 234.794316 
L 170.722646 203.927097 
L 171.794113 208.096443 
L 172.865581 209.068557 
L 173.937048 214.828915 
L 175.008515 203.422778 
L 176.079982 244.943472 
L 177.151449 199.002488 
L 178.222916 257.463806 
L 179.294383 200.146539 
L 180.365851 221.81559 
L 181.437318 229.49874 
L 182.508785 212.206099 
L 183.580252 207.023479 
L 184.651719 231.221268 
L 185.723186 205.592526 
L 186.794653 242.811967 
L 187.866121 198.939843 
L 188.937588 221.022015 
L 190.009055 200.144867 
L 191.080522 206.551698 
L 192.151989 226.404317 
L 193.223456 218.87375 
L 194.294923 207.528078 
L 195.366391 230.928453 
L 196.437858 199.435224 
L 197.509325 217.597942 
L 198.580792 207.248887 
L 199.652259 213.373878 
L 200.723726 203.754942 
L 201.795194 211.451899 
L 202.866661 205.035128 
L 203.938128 207.202872 
L 205.009595 206.674021 
L 206.081062 232.346389 
L 207.152529 199.965946 
L 208.223996 218.424702 
L 209.295464 206.059465 
L 210.366931 213.518175 
L 211.438398 212.369416 
L 212.509865 207.845804 
L 213.581332 209.53918 
L 214.652799 230.315624 
L 215.724266 204.140024 
L 216.795734 205.480358 
L 217.867201 216.851195 
L 218.938668 211.230539 
L 220.010135 227.030729 
L 221.081602 204.654687 
L 222.153069 261.216 
L 223.224536 200.18007 
L 224.296004 220.577476 
L 225.367471 203.798182 
L 226.438938 207.755486 
L 227.510405 212.499458 
L 228.581872 221.095159 
L 229.653339 208.534032 
L 230.724806 227.87725 
L 231.796274 199.878352 
L 232.867741 216.10948 
L 233.939208 211.841907 
L 235.010675 205.679568 
L 236.082142 220.150592 
L 237.153609 205.145773 
L 238.225077 258.371814 
L 239.296544 198.02146 
L 240.368011 218.537285 
L 241.439478 206.539608 
L 242.510945 210.066865 
L 243.582412 209.568026 
L 244.653879 222.114148 
L 245.725347 201.390942 
L 246.796814 213.536571 
L 247.868281 206.4831 
L 248.939748 204.089636 
L 250.011215 217.199815 
L 251.082682 203.621097 
L 252.154149 211.54302 
L 253.225617 210.179181 
L 254.297084 205.756769 
L 255.368551 209.389962 
L 256.440018 210.832985 
L 258.582952 218.633193 
L 259.654419 202.340462 
L 260.725887 206.464822 
L 261.797354 222.056705 
L 262.868821 206.805907 
L 263.940288 211.554191 
L 265.011755 207.810585 
L 266.083222 211.239506 
L 267.154689 215.97277 
L 268.226157 218.432547 
L 269.297624 213.821789 
L 270.369091 229.92848 
L 271.440558 200.015693 
L 272.512025 202.634526 
L 273.583492 193.734206 
L 274.654959 213.927437 
L 275.726427 194.869192 
L 276.797894 243.822823 
L 277.869361 196.49844 
L 278.940828 221.317366 
L 280.012295 207.759048 
L 281.083762 216.52615 
L 282.15523 205.853445 
L 283.226697 237.037176 
L 284.298164 203.955758 
L 285.369631 214.558768 
L 286.441098 201.947206 
L 287.512565 214.510836 
L 288.584032 206.191875 
L 289.6555 232.472599 
L 290.726967 208.495788 
L 291.798434 217.254126 
L 292.869901 201.763939 
L 293.941368 221.302215 
L 295.012835 203.44651 
L 296.084302 207.04032 
L 297.15577 218.005468 
L 298.227237 210.460379 
L 299.298704 207.368742 
L 300.370171 235.452014 
L 301.441638 202.026331 
L 302.513105 212.319477 
L 303.584572 203.879073 
L 304.65604 209.257989 
L 305.727507 205.30982 
L 306.798974 208.148002 
L 307.870441 217.256223 
L 308.941908 202.52964 
L 310.013375 221.27515 
L 311.084842 194.544363 
L 312.15631 240.867238 
L 313.227777 200.534795 
L 314.299244 217.044474 
L 315.370711 241.230903 
L 316.442178 199.659976 
L 317.513645 225.296736 
L 318.585113 206.678272 
L 319.65658 213.546618 
L 320.728047 240.547504 
L 321.799514 206.344263 
L 322.870981 214.219318 
L 323.942448 205.863215 
L 325.013915 206.874611 
L 326.085383 203.475324 
L 327.15685 218.217964 
L 328.228317 204.151338 
L 329.299784 224.160104 
L 330.371251 207.767168 
L 331.442718 209.941233 
L 332.514185 227.693973 
L 333.585653 204.192299 
L 334.65712 260.880625 
L 335.728587 204.303663 
L 336.800054 230.207012 
L 337.871521 202.178388 
L 338.942988 230.447325 
L 340.014455 198.884094 
L 341.085923 230.207994 
L 342.15739 199.891692 
L 343.228857 233.06692 
L 344.300324 202.855203 
L 345.371791 212.233201 
L 346.443258 207.820577 
L 347.514725 206.774236 
L 348.586193 220.01666 
L 349.65766 202.480239 
L 350.729127 228.027306 
L 351.800594 206.838281 
L 352.872061 223.75929 
L 353.943528 200.417861 
L 355.014995 224.603855 
L 356.086463 217.801037 
L 357.15793 223.443266 
L 358.229397 219.82651 
L 359.300864 203.936159 
L 360.372331 220.282987 
L 361.443798 207.771021 
L 362.515266 216.317052 
L 363.586733 203.376961 
L 364.6582 218.434044 
L 365.729667 201.811171 
L 366.801134 220.704542 
L 367.872601 198.819273 
L 368.944068 217.929278 
L 370.015536 202.64537 
L 371.087003 207.623235 
L 372.15847 209.592114 
L 373.229937 209.047935 
L 374.301404 207.599849 
L 375.372871 204.494912 
L 376.444338 208.657825 
L 376.447223 311.86825 
L 376.447223 311.86825 
" style="fill:none;stroke:#1f77b4;stroke-linecap:square;stroke-width:1.5;"/>
    <defs>
     <path d="M 0 3 
C 0.795609 3 1.55874 2.683901 2.12132 2.12132 
C 2.683901 1.55874 3 0.795609 3 0 
C 3 -0.795609 2.683901 -1.55874 2.12132 -2.12132 
C 1.55874 -2.683901 0.795609 -3 0 -3 
C -0.795609 -3 -1.55874 -2.683901 -2.12132 -2.12132 
C -2.683901 -1.55874 -3 -0.795609 -3 0 
C -3 0.795609 -2.683901 1.55874 -2.12132 2.12132 
C -1.55874 2.683901 -0.795609 3 0 3 
z
" id="m25784524bf" style="stroke:#1f77b4;"/>
    </defs>
    <g clip-path="url(#p5c83bdfbc5)">
     <use style="fill:#1f77b4;stroke:#1f77b4;" x="53.932727" xlink:href="#m25784524bf" y="31.659066"/>
     <use style="fill:#1f77b4;stroke:#1f77b4;" x="55.004194" xlink:href="#m25784524bf" y="19.296"/>
     <use style="fill:#1f77b4;stroke:#1f77b4;" x="56.075662" xlink:href="#m25784524bf" y="38.965623"/>
     <use style="fill:#1f77b4;stroke:#1f77b4;" x="57.147129" xlink:href="#m25784524bf" y="37.250969"/>
     <use style="fill:#1f77b4;stroke:#1f77b4;" x="58.218596" xlink:href="#m25784524bf" y="49.598573"/>
     <use style="fill:#1f77b4;stroke:#1f77b4;" x="59.290063" xlink:href="#m25784524bf" y="55.468734"/>
     <use style="fill:#1f77b4;stroke:#1f77b4;" x="60.36153" xlink:href="#m25784524bf" y="65.038068"/>
     <use style="fill:#1f77b4;stroke:#1f77b4;" x="61.432997" xlink:href="#m25784524bf" y="73.024833"/>
     <use style="fill:#1f77b4;stroke:#1f77b4;" x="62.504464" xlink:href="#m25784524bf" y="81.881191"/>
     <use style="fill:#1f77b4;stroke:#1f77b4;" x="63.575932" xlink:href="#m25784524bf" y="90.3121"/>
     <use style="fill:#1f77b4;stroke:#1f77b4;" x="64.647399" xlink:href="#m25784524bf" y="98.952867"/>
     <use style="fill:#1f77b4;stroke:#1f77b4;" x="65.718866" xlink:href="#m25784524bf" y="107.530056"/>
     <use style="fill:#1f77b4;stroke:#1f77b4;" x="66.790333" xlink:href="#m25784524bf" y="116.037479"/>
     <use style="fill:#1f77b4;stroke:#1f77b4;" x="67.8618" xlink:href="#m25784524bf" y="124.742641"/>
     <use style="fill:#1f77b4;stroke:#1f77b4;" x="68.933267" xlink:href="#m25784524bf" y="133.260329"/>
     <use style="fill:#1f77b4;stroke:#1f77b4;" x="70.004734" xlink:href="#m25784524bf" y="142.284493"/>
     <use style="fill:#1f77b4;stroke:#1f77b4;" x="71.076202" xlink:href="#m25784524bf" y="150.311352"/>
     <use style="fill:#1f77b4;stroke:#1f77b4;" x="72.147669" xlink:href="#m25784524bf" y="160.61419"/>
     <use style="fill:#1f77b4;stroke:#1f77b4;" x="73.219136" xlink:href="#m25784524bf" y="166.824632"/>
     <use style="fill:#1f77b4;stroke:#1f77b4;" x="74.290603" xlink:href="#m25784524bf" y="176.668487"/>
     <use style="fill:#1f77b4;stroke:#1f77b4;" x="75.36207" xlink:href="#m25784524bf" y="179.9182"/>
     <use style="fill:#1f77b4;stroke:#1f77b4;" x="76.433537" xlink:href="#m25784524bf" y="193.189004"/>
     <use style="fill:#1f77b4;stroke:#1f77b4;" x="77.505005" xlink:href="#m25784524bf" y="188.063732"/>
     <use style="fill:#1f77b4;stroke:#1f77b4;" x="78.576472" xlink:href="#m25784524bf" y="217.659735"/>
     <use style="fill:#1f77b4;stroke:#1f77b4;" x="79.647939" xlink:href="#m25784524bf" y="226.080382"/>
     <use style="fill:#1f77b4;stroke:#1f77b4;" x="80.719406" xlink:href="#m25784524bf" y="203.235586"/>
     <use style="fill:#1f77b4;stroke:#1f77b4;" x="81.790873" xlink:href="#m25784524bf" y="225.571999"/>
     <use style="fill:#1f77b4;stroke:#1f77b4;" x="82.86234" xlink:href="#m25784524bf" y="219.391822"/>
     <use style="fill:#1f77b4;stroke:#1f77b4;" x="83.933807" xlink:href="#m25784524bf" y="207.75315"/>
     <use style="fill:#1f77b4;stroke:#1f77b4;" x="85.005275" xlink:href="#m25784524bf" y="208.934163"/>
     <use style="fill:#1f77b4;stroke:#1f77b4;" x="86.076742" xlink:href="#m25784524bf" y="218.251579"/>
     <use style="fill:#1f77b4;stroke:#1f77b4;" x="87.148209" xlink:href="#m25784524bf" y="203.087978"/>
     <use style="fill:#1f77b4;stroke:#1f77b4;" x="88.219676" xlink:href="#m25784524bf" y="211.7158"/>
     <use style="fill:#1f77b4;stroke:#1f77b4;" x="89.291143" xlink:href="#m25784524bf" y="214.465388"/>
     <use style="fill:#1f77b4;stroke:#1f77b4;" x="90.36261" xlink:href="#m25784524bf" y="204.273503"/>
     <use style="fill:#1f77b4;stroke:#1f77b4;" x="91.434077" xlink:href="#m25784524bf" y="210.487071"/>
     <use style="fill:#1f77b4;stroke:#1f77b4;" x="92.505545" xlink:href="#m25784524bf" y="238.05803"/>
     <use style="fill:#1f77b4;stroke:#1f77b4;" x="93.577012" xlink:href="#m25784524bf" y="201.092648"/>
     <use style="fill:#1f77b4;stroke:#1f77b4;" x="94.648479" xlink:href="#m25784524bf" y="248.702331"/>
     <use style="fill:#1f77b4;stroke:#1f77b4;" x="95.719946" xlink:href="#m25784524bf" y="199.994639"/>
     <use style="fill:#1f77b4;stroke:#1f77b4;" x="96.791413" xlink:href="#m25784524bf" y="218.399905"/>
     <use style="fill:#1f77b4;stroke:#1f77b4;" x="97.86288" xlink:href="#m25784524bf" y="201.25764"/>
     <use style="fill:#1f77b4;stroke:#1f77b4;" x="98.934347" xlink:href="#m25784524bf" y="213.469988"/>
     <use style="fill:#1f77b4;stroke:#1f77b4;" x="100.005815" xlink:href="#m25784524bf" y="202.91215"/>
     <use style="fill:#1f77b4;stroke:#1f77b4;" x="101.077282" xlink:href="#m25784524bf" y="245.417334"/>
     <use style="fill:#1f77b4;stroke:#1f77b4;" x="102.148749" xlink:href="#m25784524bf" y="200.175701"/>
     <use style="fill:#1f77b4;stroke:#1f77b4;" x="103.220216" xlink:href="#m25784524bf" y="218.925692"/>
     <use style="fill:#1f77b4;stroke:#1f77b4;" x="104.291683" xlink:href="#m25784524bf" y="206.118198"/>
     <use style="fill:#1f77b4;stroke:#1f77b4;" x="105.36315" xlink:href="#m25784524bf" y="209.85946"/>
     <use style="fill:#1f77b4;stroke:#1f77b4;" x="106.434617" xlink:href="#m25784524bf" y="203.568378"/>
     <use style="fill:#1f77b4;stroke:#1f77b4;" x="107.506085" xlink:href="#m25784524bf" y="216.521979"/>
     <use style="fill:#1f77b4;stroke:#1f77b4;" x="108.577552" xlink:href="#m25784524bf" y="214.013652"/>
     <use style="fill:#1f77b4;stroke:#1f77b4;" x="109.649019" xlink:href="#m25784524bf" y="203.749899"/>
     <use style="fill:#1f77b4;stroke:#1f77b4;" x="110.720486" xlink:href="#m25784524bf" y="212.570944"/>
     <use style="fill:#1f77b4;stroke:#1f77b4;" x="111.791953" xlink:href="#m25784524bf" y="204.316906"/>
     <use style="fill:#1f77b4;stroke:#1f77b4;" x="112.86342" xlink:href="#m25784524bf" y="211.743358"/>
     <use style="fill:#1f77b4;stroke:#1f77b4;" x="113.934887" xlink:href="#m25784524bf" y="227.24765"/>
     <use style="fill:#1f77b4;stroke:#1f77b4;" x="115.006355" xlink:href="#m25784524bf" y="213.785888"/>
     <use style="fill:#1f77b4;stroke:#1f77b4;" x="116.077822" xlink:href="#m25784524bf" y="208.676245"/>
     <use style="fill:#1f77b4;stroke:#1f77b4;" x="117.149289" xlink:href="#m25784524bf" y="214.407762"/>
     <use style="fill:#1f77b4;stroke:#1f77b4;" x="118.220756" xlink:href="#m25784524bf" y="206.817227"/>
     <use style="fill:#1f77b4;stroke:#1f77b4;" x="119.292223" xlink:href="#m25784524bf" y="220.613607"/>
     <use style="fill:#1f77b4;stroke:#1f77b4;" x="120.36369" xlink:href="#m25784524bf" y="212.262062"/>
     <use style="fill:#1f77b4;stroke:#1f77b4;" x="121.435158" xlink:href="#m25784524bf" y="207.645556"/>
     <use style="fill:#1f77b4;stroke:#1f77b4;" x="122.506625" xlink:href="#m25784524bf" y="225.689786"/>
     <use style="fill:#1f77b4;stroke:#1f77b4;" x="123.578092" xlink:href="#m25784524bf" y="202.237996"/>
     <use style="fill:#1f77b4;stroke:#1f77b4;" x="124.649559" xlink:href="#m25784524bf" y="206.399186"/>
     <use style="fill:#1f77b4;stroke:#1f77b4;" x="125.721026" xlink:href="#m25784524bf" y="207.036213"/>
     <use style="fill:#1f77b4;stroke:#1f77b4;" x="126.792493" xlink:href="#m25784524bf" y="205.52616"/>
     <use style="fill:#1f77b4;stroke:#1f77b4;" x="127.86396" xlink:href="#m25784524bf" y="214.014213"/>
     <use style="fill:#1f77b4;stroke:#1f77b4;" x="128.935428" xlink:href="#m25784524bf" y="209.968204"/>
     <use style="fill:#1f77b4;stroke:#1f77b4;" x="130.006895" xlink:href="#m25784524bf" y="209.13356"/>
     <use style="fill:#1f77b4;stroke:#1f77b4;" x="131.078362" xlink:href="#m25784524bf" y="211.777281"/>
     <use style="fill:#1f77b4;stroke:#1f77b4;" x="132.149829" xlink:href="#m25784524bf" y="206.572145"/>
     <use style="fill:#1f77b4;stroke:#1f77b4;" x="133.221296" xlink:href="#m25784524bf" y="206.086508"/>
     <use style="fill:#1f77b4;stroke:#1f77b4;" x="134.292763" xlink:href="#m25784524bf" y="208.832167"/>
     <use style="fill:#1f77b4;stroke:#1f77b4;" x="135.36423" xlink:href="#m25784524bf" y="213.017484"/>
     <use style="fill:#1f77b4;stroke:#1f77b4;" x="136.435698" xlink:href="#m25784524bf" y="206.585198"/>
     <use style="fill:#1f77b4;stroke:#1f77b4;" x="137.507165" xlink:href="#m25784524bf" y="211.775474"/>
     <use style="fill:#1f77b4;stroke:#1f77b4;" x="138.578632" xlink:href="#m25784524bf" y="211.585961"/>
     <use style="fill:#1f77b4;stroke:#1f77b4;" x="139.650099" xlink:href="#m25784524bf" y="202.850586"/>
     <use style="fill:#1f77b4;stroke:#1f77b4;" x="140.721566" xlink:href="#m25784524bf" y="215.974352"/>
     <use style="fill:#1f77b4;stroke:#1f77b4;" x="141.793033" xlink:href="#m25784524bf" y="230.567085"/>
     <use style="fill:#1f77b4;stroke:#1f77b4;" x="142.8645" xlink:href="#m25784524bf" y="200.188042"/>
     <use style="fill:#1f77b4;stroke:#1f77b4;" x="143.935968" xlink:href="#m25784524bf" y="214.860042"/>
     <use style="fill:#1f77b4;stroke:#1f77b4;" x="145.007435" xlink:href="#m25784524bf" y="212.759771"/>
     <use style="fill:#1f77b4;stroke:#1f77b4;" x="146.078902" xlink:href="#m25784524bf" y="211.282012"/>
     <use style="fill:#1f77b4;stroke:#1f77b4;" x="147.150369" xlink:href="#m25784524bf" y="206.452894"/>
     <use style="fill:#1f77b4;stroke:#1f77b4;" x="148.221836" xlink:href="#m25784524bf" y="210.992918"/>
     <use style="fill:#1f77b4;stroke:#1f77b4;" x="149.293303" xlink:href="#m25784524bf" y="207.756856"/>
     <use style="fill:#1f77b4;stroke:#1f77b4;" x="150.36477" xlink:href="#m25784524bf" y="206.283748"/>
     <use style="fill:#1f77b4;stroke:#1f77b4;" x="151.436238" xlink:href="#m25784524bf" y="208.796614"/>
     <use style="fill:#1f77b4;stroke:#1f77b4;" x="152.507705" xlink:href="#m25784524bf" y="208.851786"/>
     <use style="fill:#1f77b4;stroke:#1f77b4;" x="153.579172" xlink:href="#m25784524bf" y="226.830529"/>
     <use style="fill:#1f77b4;stroke:#1f77b4;" x="154.650639" xlink:href="#m25784524bf" y="207.545638"/>
     <use style="fill:#1f77b4;stroke:#1f77b4;" x="155.722106" xlink:href="#m25784524bf" y="220.709434"/>
     <use style="fill:#1f77b4;stroke:#1f77b4;" x="156.793573" xlink:href="#m25784524bf" y="207.628151"/>
     <use style="fill:#1f77b4;stroke:#1f77b4;" x="157.865041" xlink:href="#m25784524bf" y="211.217534"/>
     <use style="fill:#1f77b4;stroke:#1f77b4;" x="158.936508" xlink:href="#m25784524bf" y="209.571634"/>
     <use style="fill:#1f77b4;stroke:#1f77b4;" x="160.007975" xlink:href="#m25784524bf" y="216.405539"/>
     <use style="fill:#1f77b4;stroke:#1f77b4;" x="161.079442" xlink:href="#m25784524bf" y="208.774023"/>
     <use style="fill:#1f77b4;stroke:#1f77b4;" x="162.150909" xlink:href="#m25784524bf" y="212.149941"/>
     <use style="fill:#1f77b4;stroke:#1f77b4;" x="163.222376" xlink:href="#m25784524bf" y="208.804855"/>
     <use style="fill:#1f77b4;stroke:#1f77b4;" x="164.293843" xlink:href="#m25784524bf" y="219.245339"/>
     <use style="fill:#1f77b4;stroke:#1f77b4;" x="165.365311" xlink:href="#m25784524bf" y="202.556372"/>
     <use style="fill:#1f77b4;stroke:#1f77b4;" x="166.436778" xlink:href="#m25784524bf" y="211.813382"/>
     <use style="fill:#1f77b4;stroke:#1f77b4;" x="167.508245" xlink:href="#m25784524bf" y="213.685175"/>
     <use style="fill:#1f77b4;stroke:#1f77b4;" x="168.579712" xlink:href="#m25784524bf" y="200.778458"/>
     <use style="fill:#1f77b4;stroke:#1f77b4;" x="169.651179" xlink:href="#m25784524bf" y="234.794316"/>
     <use style="fill:#1f77b4;stroke:#1f77b4;" x="170.722646" xlink:href="#m25784524bf" y="203.927097"/>
     <use style="fill:#1f77b4;stroke:#1f77b4;" x="171.794113" xlink:href="#m25784524bf" y="208.096443"/>
     <use style="fill:#1f77b4;stroke:#1f77b4;" x="172.865581" xlink:href="#m25784524bf" y="209.068557"/>
     <use style="fill:#1f77b4;stroke:#1f77b4;" x="173.937048" xlink:href="#m25784524bf" y="214.828915"/>
     <use style="fill:#1f77b4;stroke:#1f77b4;" x="175.008515" xlink:href="#m25784524bf" y="203.422778"/>
     <use style="fill:#1f77b4;stroke:#1f77b4;" x="176.079982" xlink:href="#m25784524bf" y="244.943472"/>
     <use style="fill:#1f77b4;stroke:#1f77b4;" x="177.151449" xlink:href="#m25784524bf" y="199.002488"/>
     <use style="fill:#1f77b4;stroke:#1f77b4;" x="178.222916" xlink:href="#m25784524bf" y="257.463806"/>
     <use style="fill:#1f77b4;stroke:#1f77b4;" x="179.294383" xlink:href="#m25784524bf" y="200.146539"/>
     <use style="fill:#1f77b4;stroke:#1f77b4;" x="180.365851" xlink:href="#m25784524bf" y="221.81559"/>
     <use style="fill:#1f77b4;stroke:#1f77b4;" x="181.437318" xlink:href="#m25784524bf" y="229.49874"/>
     <use style="fill:#1f77b4;stroke:#1f77b4;" x="182.508785" xlink:href="#m25784524bf" y="212.206099"/>
     <use style="fill:#1f77b4;stroke:#1f77b4;" x="183.580252" xlink:href="#m25784524bf" y="207.023479"/>
     <use style="fill:#1f77b4;stroke:#1f77b4;" x="184.651719" xlink:href="#m25784524bf" y="231.221268"/>
     <use style="fill:#1f77b4;stroke:#1f77b4;" x="185.723186" xlink:href="#m25784524bf" y="205.592526"/>
     <use style="fill:#1f77b4;stroke:#1f77b4;" x="186.794653" xlink:href="#m25784524bf" y="242.811967"/>
     <use style="fill:#1f77b4;stroke:#1f77b4;" x="187.866121" xlink:href="#m25784524bf" y="198.939843"/>
     <use style="fill:#1f77b4;stroke:#1f77b4;" x="188.937588" xlink:href="#m25784524bf" y="221.022015"/>
     <use style="fill:#1f77b4;stroke:#1f77b4;" x="190.009055" xlink:href="#m25784524bf" y="200.144867"/>
     <use style="fill:#1f77b4;stroke:#1f77b4;" x="191.080522" xlink:href="#m25784524bf" y="206.551698"/>
     <use style="fill:#1f77b4;stroke:#1f77b4;" x="192.151989" xlink:href="#m25784524bf" y="226.404317"/>
     <use style="fill:#1f77b4;stroke:#1f77b4;" x="193.223456" xlink:href="#m25784524bf" y="218.87375"/>
     <use style="fill:#1f77b4;stroke:#1f77b4;" x="194.294923" xlink:href="#m25784524bf" y="207.528078"/>
     <use style="fill:#1f77b4;stroke:#1f77b4;" x="195.366391" xlink:href="#m25784524bf" y="230.928453"/>
     <use style="fill:#1f77b4;stroke:#1f77b4;" x="196.437858" xlink:href="#m25784524bf" y="199.435224"/>
     <use style="fill:#1f77b4;stroke:#1f77b4;" x="197.509325" xlink:href="#m25784524bf" y="217.597942"/>
     <use style="fill:#1f77b4;stroke:#1f77b4;" x="198.580792" xlink:href="#m25784524bf" y="207.248887"/>
     <use style="fill:#1f77b4;stroke:#1f77b4;" x="199.652259" xlink:href="#m25784524bf" y="213.373878"/>
     <use style="fill:#1f77b4;stroke:#1f77b4;" x="200.723726" xlink:href="#m25784524bf" y="203.754942"/>
     <use style="fill:#1f77b4;stroke:#1f77b4;" x="201.795194" xlink:href="#m25784524bf" y="211.451899"/>
     <use style="fill:#1f77b4;stroke:#1f77b4;" x="202.866661" xlink:href="#m25784524bf" y="205.035128"/>
     <use style="fill:#1f77b4;stroke:#1f77b4;" x="203.938128" xlink:href="#m25784524bf" y="207.202872"/>
     <use style="fill:#1f77b4;stroke:#1f77b4;" x="205.009595" xlink:href="#m25784524bf" y="206.674021"/>
     <use style="fill:#1f77b4;stroke:#1f77b4;" x="206.081062" xlink:href="#m25784524bf" y="232.346389"/>
     <use style="fill:#1f77b4;stroke:#1f77b4;" x="207.152529" xlink:href="#m25784524bf" y="199.965946"/>
     <use style="fill:#1f77b4;stroke:#1f77b4;" x="208.223996" xlink:href="#m25784524bf" y="218.424702"/>
     <use style="fill:#1f77b4;stroke:#1f77b4;" x="209.295464" xlink:href="#m25784524bf" y="206.059465"/>
     <use style="fill:#1f77b4;stroke:#1f77b4;" x="210.366931" xlink:href="#m25784524bf" y="213.518175"/>
     <use style="fill:#1f77b4;stroke:#1f77b4;" x="211.438398" xlink:href="#m25784524bf" y="212.369416"/>
     <use style="fill:#1f77b4;stroke:#1f77b4;" x="212.509865" xlink:href="#m25784524bf" y="207.845804"/>
     <use style="fill:#1f77b4;stroke:#1f77b4;" x="213.581332" xlink:href="#m25784524bf" y="209.53918"/>
     <use style="fill:#1f77b4;stroke:#1f77b4;" x="214.652799" xlink:href="#m25784524bf" y="230.315624"/>
     <use style="fill:#1f77b4;stroke:#1f77b4;" x="215.724266" xlink:href="#m25784524bf" y="204.140024"/>
     <use style="fill:#1f77b4;stroke:#1f77b4;" x="216.795734" xlink:href="#m25784524bf" y="205.480358"/>
     <use style="fill:#1f77b4;stroke:#1f77b4;" x="217.867201" xlink:href="#m25784524bf" y="216.851195"/>
     <use style="fill:#1f77b4;stroke:#1f77b4;" x="218.938668" xlink:href="#m25784524bf" y="211.230539"/>
     <use style="fill:#1f77b4;stroke:#1f77b4;" x="220.010135" xlink:href="#m25784524bf" y="227.030729"/>
     <use style="fill:#1f77b4;stroke:#1f77b4;" x="221.081602" xlink:href="#m25784524bf" y="204.654687"/>
     <use style="fill:#1f77b4;stroke:#1f77b4;" x="222.153069" xlink:href="#m25784524bf" y="261.216"/>
     <use style="fill:#1f77b4;stroke:#1f77b4;" x="223.224536" xlink:href="#m25784524bf" y="200.18007"/>
     <use style="fill:#1f77b4;stroke:#1f77b4;" x="224.296004" xlink:href="#m25784524bf" y="220.577476"/>
     <use style="fill:#1f77b4;stroke:#1f77b4;" x="225.367471" xlink:href="#m25784524bf" y="203.798182"/>
     <use style="fill:#1f77b4;stroke:#1f77b4;" x="226.438938" xlink:href="#m25784524bf" y="207.755486"/>
     <use style="fill:#1f77b4;stroke:#1f77b4;" x="227.510405" xlink:href="#m25784524bf" y="212.499458"/>
     <use style="fill:#1f77b4;stroke:#1f77b4;" x="228.581872" xlink:href="#m25784524bf" y="221.095159"/>
     <use style="fill:#1f77b4;stroke:#1f77b4;" x="229.653339" xlink:href="#m25784524bf" y="208.534032"/>
     <use style="fill:#1f77b4;stroke:#1f77b4;" x="230.724806" xlink:href="#m25784524bf" y="227.87725"/>
     <use style="fill:#1f77b4;stroke:#1f77b4;" x="231.796274" xlink:href="#m25784524bf" y="199.878352"/>
     <use style="fill:#1f77b4;stroke:#1f77b4;" x="232.867741" xlink:href="#m25784524bf" y="216.10948"/>
     <use style="fill:#1f77b4;stroke:#1f77b4;" x="233.939208" xlink:href="#m25784524bf" y="211.841907"/>
     <use style="fill:#1f77b4;stroke:#1f77b4;" x="235.010675" xlink:href="#m25784524bf" y="205.679568"/>
     <use style="fill:#1f77b4;stroke:#1f77b4;" x="236.082142" xlink:href="#m25784524bf" y="220.150592"/>
     <use style="fill:#1f77b4;stroke:#1f77b4;" x="237.153609" xlink:href="#m25784524bf" y="205.145773"/>
     <use style="fill:#1f77b4;stroke:#1f77b4;" x="238.225077" xlink:href="#m25784524bf" y="258.371814"/>
     <use style="fill:#1f77b4;stroke:#1f77b4;" x="239.296544" xlink:href="#m25784524bf" y="198.02146"/>
     <use style="fill:#1f77b4;stroke:#1f77b4;" x="240.368011" xlink:href="#m25784524bf" y="218.537285"/>
     <use style="fill:#1f77b4;stroke:#1f77b4;" x="241.439478" xlink:href="#m25784524bf" y="206.539608"/>
     <use style="fill:#1f77b4;stroke:#1f77b4;" x="242.510945" xlink:href="#m25784524bf" y="210.066865"/>
     <use style="fill:#1f77b4;stroke:#1f77b4;" x="243.582412" xlink:href="#m25784524bf" y="209.568026"/>
     <use style="fill:#1f77b4;stroke:#1f77b4;" x="244.653879" xlink:href="#m25784524bf" y="222.114148"/>
     <use style="fill:#1f77b4;stroke:#1f77b4;" x="245.725347" xlink:href="#m25784524bf" y="201.390942"/>
     <use style="fill:#1f77b4;stroke:#1f77b4;" x="246.796814" xlink:href="#m25784524bf" y="213.536571"/>
     <use style="fill:#1f77b4;stroke:#1f77b4;" x="247.868281" xlink:href="#m25784524bf" y="206.4831"/>
     <use style="fill:#1f77b4;stroke:#1f77b4;" x="248.939748" xlink:href="#m25784524bf" y="204.089636"/>
     <use style="fill:#1f77b4;stroke:#1f77b4;" x="250.011215" xlink:href="#m25784524bf" y="217.199815"/>
     <use style="fill:#1f77b4;stroke:#1f77b4;" x="251.082682" xlink:href="#m25784524bf" y="203.621097"/>
     <use style="fill:#1f77b4;stroke:#1f77b4;" x="252.154149" xlink:href="#m25784524bf" y="211.54302"/>
     <use style="fill:#1f77b4;stroke:#1f77b4;" x="253.225617" xlink:href="#m25784524bf" y="210.179181"/>
     <use style="fill:#1f77b4;stroke:#1f77b4;" x="254.297084" xlink:href="#m25784524bf" y="205.756769"/>
     <use style="fill:#1f77b4;stroke:#1f77b4;" x="255.368551" xlink:href="#m25784524bf" y="209.389962"/>
     <use style="fill:#1f77b4;stroke:#1f77b4;" x="256.440018" xlink:href="#m25784524bf" y="210.832985"/>
     <use style="fill:#1f77b4;stroke:#1f77b4;" x="257.511485" xlink:href="#m25784524bf" y="214.824254"/>
     <use style="fill:#1f77b4;stroke:#1f77b4;" x="258.582952" xlink:href="#m25784524bf" y="218.633193"/>
     <use style="fill:#1f77b4;stroke:#1f77b4;" x="259.654419" xlink:href="#m25784524bf" y="202.340462"/>
     <use style="fill:#1f77b4;stroke:#1f77b4;" x="260.725887" xlink:href="#m25784524bf" y="206.464822"/>
     <use style="fill:#1f77b4;stroke:#1f77b4;" x="261.797354" xlink:href="#m25784524bf" y="222.056705"/>
     <use style="fill:#1f77b4;stroke:#1f77b4;" x="262.868821" xlink:href="#m25784524bf" y="206.805907"/>
     <use style="fill:#1f77b4;stroke:#1f77b4;" x="263.940288" xlink:href="#m25784524bf" y="211.554191"/>
     <use style="fill:#1f77b4;stroke:#1f77b4;" x="265.011755" xlink:href="#m25784524bf" y="207.810585"/>
     <use style="fill:#1f77b4;stroke:#1f77b4;" x="266.083222" xlink:href="#m25784524bf" y="211.239506"/>
     <use style="fill:#1f77b4;stroke:#1f77b4;" x="267.154689" xlink:href="#m25784524bf" y="215.97277"/>
     <use style="fill:#1f77b4;stroke:#1f77b4;" x="268.226157" xlink:href="#m25784524bf" y="218.432547"/>
     <use style="fill:#1f77b4;stroke:#1f77b4;" x="269.297624" xlink:href="#m25784524bf" y="213.821789"/>
     <use style="fill:#1f77b4;stroke:#1f77b4;" x="270.369091" xlink:href="#m25784524bf" y="229.92848"/>
     <use style="fill:#1f77b4;stroke:#1f77b4;" x="271.440558" xlink:href="#m25784524bf" y="200.015693"/>
     <use style="fill:#1f77b4;stroke:#1f77b4;" x="272.512025" xlink:href="#m25784524bf" y="202.634526"/>
     <use style="fill:#1f77b4;stroke:#1f77b4;" x="273.583492" xlink:href="#m25784524bf" y="193.734206"/>
     <use style="fill:#1f77b4;stroke:#1f77b4;" x="274.654959" xlink:href="#m25784524bf" y="213.927437"/>
     <use style="fill:#1f77b4;stroke:#1f77b4;" x="275.726427" xlink:href="#m25784524bf" y="194.869192"/>
     <use style="fill:#1f77b4;stroke:#1f77b4;" x="276.797894" xlink:href="#m25784524bf" y="243.822823"/>
     <use style="fill:#1f77b4;stroke:#1f77b4;" x="277.869361" xlink:href="#m25784524bf" y="196.49844"/>
     <use style="fill:#1f77b4;stroke:#1f77b4;" x="278.940828" xlink:href="#m25784524bf" y="221.317366"/>
     <use style="fill:#1f77b4;stroke:#1f77b4;" x="280.012295" xlink:href="#m25784524bf" y="207.759048"/>
     <use style="fill:#1f77b4;stroke:#1f77b4;" x="281.083762" xlink:href="#m25784524bf" y="216.52615"/>
     <use style="fill:#1f77b4;stroke:#1f77b4;" x="282.15523" xlink:href="#m25784524bf" y="205.853445"/>
     <use style="fill:#1f77b4;stroke:#1f77b4;" x="283.226697" xlink:href="#m25784524bf" y="237.037176"/>
     <use style="fill:#1f77b4;stroke:#1f77b4;" x="284.298164" xlink:href="#m25784524bf" y="203.955758"/>
     <use style="fill:#1f77b4;stroke:#1f77b4;" x="285.369631" xlink:href="#m25784524bf" y="214.558768"/>
     <use style="fill:#1f77b4;stroke:#1f77b4;" x="286.441098" xlink:href="#m25784524bf" y="201.947206"/>
     <use style="fill:#1f77b4;stroke:#1f77b4;" x="287.512565" xlink:href="#m25784524bf" y="214.510836"/>
     <use style="fill:#1f77b4;stroke:#1f77b4;" x="288.584032" xlink:href="#m25784524bf" y="206.191875"/>
     <use style="fill:#1f77b4;stroke:#1f77b4;" x="289.6555" xlink:href="#m25784524bf" y="232.472599"/>
     <use style="fill:#1f77b4;stroke:#1f77b4;" x="290.726967" xlink:href="#m25784524bf" y="208.495788"/>
     <use style="fill:#1f77b4;stroke:#1f77b4;" x="291.798434" xlink:href="#m25784524bf" y="217.254126"/>
     <use style="fill:#1f77b4;stroke:#1f77b4;" x="292.869901" xlink:href="#m25784524bf" y="201.763939"/>
     <use style="fill:#1f77b4;stroke:#1f77b4;" x="293.941368" xlink:href="#m25784524bf" y="221.302215"/>
     <use style="fill:#1f77b4;stroke:#1f77b4;" x="295.012835" xlink:href="#m25784524bf" y="203.44651"/>
     <use style="fill:#1f77b4;stroke:#1f77b4;" x="296.084302" xlink:href="#m25784524bf" y="207.04032"/>
     <use style="fill:#1f77b4;stroke:#1f77b4;" x="297.15577" xlink:href="#m25784524bf" y="218.005468"/>
     <use style="fill:#1f77b4;stroke:#1f77b4;" x="298.227237" xlink:href="#m25784524bf" y="210.460379"/>
     <use style="fill:#1f77b4;stroke:#1f77b4;" x="299.298704" xlink:href="#m25784524bf" y="207.368742"/>
     <use style="fill:#1f77b4;stroke:#1f77b4;" x="300.370171" xlink:href="#m25784524bf" y="235.452014"/>
     <use style="fill:#1f77b4;stroke:#1f77b4;" x="301.441638" xlink:href="#m25784524bf" y="202.026331"/>
     <use style="fill:#1f77b4;stroke:#1f77b4;" x="302.513105" xlink:href="#m25784524bf" y="212.319477"/>
     <use style="fill:#1f77b4;stroke:#1f77b4;" x="303.584572" xlink:href="#m25784524bf" y="203.879073"/>
     <use style="fill:#1f77b4;stroke:#1f77b4;" x="304.65604" xlink:href="#m25784524bf" y="209.257989"/>
     <use style="fill:#1f77b4;stroke:#1f77b4;" x="305.727507" xlink:href="#m25784524bf" y="205.30982"/>
     <use style="fill:#1f77b4;stroke:#1f77b4;" x="306.798974" xlink:href="#m25784524bf" y="208.148002"/>
     <use style="fill:#1f77b4;stroke:#1f77b4;" x="307.870441" xlink:href="#m25784524bf" y="217.256223"/>
     <use style="fill:#1f77b4;stroke:#1f77b4;" x="308.941908" xlink:href="#m25784524bf" y="202.52964"/>
     <use style="fill:#1f77b4;stroke:#1f77b4;" x="310.013375" xlink:href="#m25784524bf" y="221.27515"/>
     <use style="fill:#1f77b4;stroke:#1f77b4;" x="311.084842" xlink:href="#m25784524bf" y="194.544363"/>
     <use style="fill:#1f77b4;stroke:#1f77b4;" x="312.15631" xlink:href="#m25784524bf" y="240.867238"/>
     <use style="fill:#1f77b4;stroke:#1f77b4;" x="313.227777" xlink:href="#m25784524bf" y="200.534795"/>
     <use style="fill:#1f77b4;stroke:#1f77b4;" x="314.299244" xlink:href="#m25784524bf" y="217.044474"/>
     <use style="fill:#1f77b4;stroke:#1f77b4;" x="315.370711" xlink:href="#m25784524bf" y="241.230903"/>
     <use style="fill:#1f77b4;stroke:#1f77b4;" x="316.442178" xlink:href="#m25784524bf" y="199.659976"/>
     <use style="fill:#1f77b4;stroke:#1f77b4;" x="317.513645" xlink:href="#m25784524bf" y="225.296736"/>
     <use style="fill:#1f77b4;stroke:#1f77b4;" x="318.585113" xlink:href="#m25784524bf" y="206.678272"/>
     <use style="fill:#1f77b4;stroke:#1f77b4;" x="319.65658" xlink:href="#m25784524bf" y="213.546618"/>
     <use style="fill:#1f77b4;stroke:#1f77b4;" x="320.728047" xlink:href="#m25784524bf" y="240.547504"/>
     <use style="fill:#1f77b4;stroke:#1f77b4;" x="321.799514" xlink:href="#m25784524bf" y="206.344263"/>
     <use style="fill:#1f77b4;stroke:#1f77b4;" x="322.870981" xlink:href="#m25784524bf" y="214.219318"/>
     <use style="fill:#1f77b4;stroke:#1f77b4;" x="323.942448" xlink:href="#m25784524bf" y="205.863215"/>
     <use style="fill:#1f77b4;stroke:#1f77b4;" x="325.013915" xlink:href="#m25784524bf" y="206.874611"/>
     <use style="fill:#1f77b4;stroke:#1f77b4;" x="326.085383" xlink:href="#m25784524bf" y="203.475324"/>
     <use style="fill:#1f77b4;stroke:#1f77b4;" x="327.15685" xlink:href="#m25784524bf" y="218.217964"/>
     <use style="fill:#1f77b4;stroke:#1f77b4;" x="328.228317" xlink:href="#m25784524bf" y="204.151338"/>
     <use style="fill:#1f77b4;stroke:#1f77b4;" x="329.299784" xlink:href="#m25784524bf" y="224.160104"/>
     <use style="fill:#1f77b4;stroke:#1f77b4;" x="330.371251" xlink:href="#m25784524bf" y="207.767168"/>
     <use style="fill:#1f77b4;stroke:#1f77b4;" x="331.442718" xlink:href="#m25784524bf" y="209.941233"/>
     <use style="fill:#1f77b4;stroke:#1f77b4;" x="332.514185" xlink:href="#m25784524bf" y="227.693973"/>
     <use style="fill:#1f77b4;stroke:#1f77b4;" x="333.585653" xlink:href="#m25784524bf" y="204.192299"/>
     <use style="fill:#1f77b4;stroke:#1f77b4;" x="334.65712" xlink:href="#m25784524bf" y="260.880625"/>
     <use style="fill:#1f77b4;stroke:#1f77b4;" x="335.728587" xlink:href="#m25784524bf" y="204.303663"/>
     <use style="fill:#1f77b4;stroke:#1f77b4;" x="336.800054" xlink:href="#m25784524bf" y="230.207012"/>
     <use style="fill:#1f77b4;stroke:#1f77b4;" x="337.871521" xlink:href="#m25784524bf" y="202.178388"/>
     <use style="fill:#1f77b4;stroke:#1f77b4;" x="338.942988" xlink:href="#m25784524bf" y="230.447325"/>
     <use style="fill:#1f77b4;stroke:#1f77b4;" x="340.014455" xlink:href="#m25784524bf" y="198.884094"/>
     <use style="fill:#1f77b4;stroke:#1f77b4;" x="341.085923" xlink:href="#m25784524bf" y="230.207994"/>
     <use style="fill:#1f77b4;stroke:#1f77b4;" x="342.15739" xlink:href="#m25784524bf" y="199.891692"/>
     <use style="fill:#1f77b4;stroke:#1f77b4;" x="343.228857" xlink:href="#m25784524bf" y="233.06692"/>
     <use style="fill:#1f77b4;stroke:#1f77b4;" x="344.300324" xlink:href="#m25784524bf" y="202.855203"/>
     <use style="fill:#1f77b4;stroke:#1f77b4;" x="345.371791" xlink:href="#m25784524bf" y="212.233201"/>
     <use style="fill:#1f77b4;stroke:#1f77b4;" x="346.443258" xlink:href="#m25784524bf" y="207.820577"/>
     <use style="fill:#1f77b4;stroke:#1f77b4;" x="347.514725" xlink:href="#m25784524bf" y="206.774236"/>
     <use style="fill:#1f77b4;stroke:#1f77b4;" x="348.586193" xlink:href="#m25784524bf" y="220.01666"/>
     <use style="fill:#1f77b4;stroke:#1f77b4;" x="349.65766" xlink:href="#m25784524bf" y="202.480239"/>
     <use style="fill:#1f77b4;stroke:#1f77b4;" x="350.729127" xlink:href="#m25784524bf" y="228.027306"/>
     <use style="fill:#1f77b4;stroke:#1f77b4;" x="351.800594" xlink:href="#m25784524bf" y="206.838281"/>
     <use style="fill:#1f77b4;stroke:#1f77b4;" x="352.872061" xlink:href="#m25784524bf" y="223.75929"/>
     <use style="fill:#1f77b4;stroke:#1f77b4;" x="353.943528" xlink:href="#m25784524bf" y="200.417861"/>
     <use style="fill:#1f77b4;stroke:#1f77b4;" x="355.014995" xlink:href="#m25784524bf" y="224.603855"/>
     <use style="fill:#1f77b4;stroke:#1f77b4;" x="356.086463" xlink:href="#m25784524bf" y="217.801037"/>
     <use style="fill:#1f77b4;stroke:#1f77b4;" x="357.15793" xlink:href="#m25784524bf" y="223.443266"/>
     <use style="fill:#1f77b4;stroke:#1f77b4;" x="358.229397" xlink:href="#m25784524bf" y="219.82651"/>
     <use style="fill:#1f77b4;stroke:#1f77b4;" x="359.300864" xlink:href="#m25784524bf" y="203.936159"/>
     <use style="fill:#1f77b4;stroke:#1f77b4;" x="360.372331" xlink:href="#m25784524bf" y="220.282987"/>
     <use style="fill:#1f77b4;stroke:#1f77b4;" x="361.443798" xlink:href="#m25784524bf" y="207.771021"/>
     <use style="fill:#1f77b4;stroke:#1f77b4;" x="362.515266" xlink:href="#m25784524bf" y="216.317052"/>
     <use style="fill:#1f77b4;stroke:#1f77b4;" x="363.586733" xlink:href="#m25784524bf" y="203.376961"/>
     <use style="fill:#1f77b4;stroke:#1f77b4;" x="364.6582" xlink:href="#m25784524bf" y="218.434044"/>
     <use style="fill:#1f77b4;stroke:#1f77b4;" x="365.729667" xlink:href="#m25784524bf" y="201.811171"/>
     <use style="fill:#1f77b4;stroke:#1f77b4;" x="366.801134" xlink:href="#m25784524bf" y="220.704542"/>
     <use style="fill:#1f77b4;stroke:#1f77b4;" x="367.872601" xlink:href="#m25784524bf" y="198.819273"/>
     <use style="fill:#1f77b4;stroke:#1f77b4;" x="368.944068" xlink:href="#m25784524bf" y="217.929278"/>
     <use style="fill:#1f77b4;stroke:#1f77b4;" x="370.015536" xlink:href="#m25784524bf" y="202.64537"/>
     <use style="fill:#1f77b4;stroke:#1f77b4;" x="371.087003" xlink:href="#m25784524bf" y="207.623235"/>
     <use style="fill:#1f77b4;stroke:#1f77b4;" x="372.15847" xlink:href="#m25784524bf" y="209.592114"/>
     <use style="fill:#1f77b4;stroke:#1f77b4;" x="373.229937" xlink:href="#m25784524bf" y="209.047935"/>
     <use style="fill:#1f77b4;stroke:#1f77b4;" x="374.301404" xlink:href="#m25784524bf" y="207.599849"/>
     <use style="fill:#1f77b4;stroke:#1f77b4;" x="375.372871" xlink:href="#m25784524bf" y="204.494912"/>
     <use style="fill:#1f77b4;stroke:#1f77b4;" x="376.444338" xlink:href="#m25784524bf" y="208.657825"/>
     <use style="fill:#1f77b4;stroke:#1f77b4;" x="377.064062" xlink:href="#m25784524bf" y="22383.514"/>
    </g>
   </g>
   <g id="line2d_71">
    <path clip-path="url(#p5c83bdfbc5)" d="M 59.290063 55.468734 
L 60.36153 65.038068 
L 61.432997 73.024833 
L 62.504464 81.881191 
L 63.575932 90.3121 
L 64.647399 98.952867 
L 65.718866 107.530056 
L 66.790333 116.037479 
L 67.8618 124.742641 
L 68.933267 133.260329 
L 70.004734 142.284493 
L 71.076202 150.311352 
L 72.147669 160.61419 
" style="fill:none;stroke:#2ca02c;stroke-dasharray:1.5,2.475;stroke-dashoffset:0;stroke-width:1.5;"/>
    <defs>
     <path d="M -3 3 
L 3 -3 
M -3 -3 
L 3 3 
" id="m229f70333b" style="stroke:#2ca02c;"/>
    </defs>
    <g clip-path="url(#p5c83bdfbc5)">
     <use style="fill:#2ca02c;stroke:#2ca02c;" x="59.290063" xlink:href="#m229f70333b" y="55.468734"/>
     <use style="fill:#2ca02c;stroke:#2ca02c;" x="60.36153" xlink:href="#m229f70333b" y="65.038068"/>
     <use style="fill:#2ca02c;stroke:#2ca02c;" x="61.432997" xlink:href="#m229f70333b" y="73.024833"/>
     <use style="fill:#2ca02c;stroke:#2ca02c;" x="62.504464" xlink:href="#m229f70333b" y="81.881191"/>
     <use style="fill:#2ca02c;stroke:#2ca02c;" x="63.575932" xlink:href="#m229f70333b" y="90.3121"/>
     <use style="fill:#2ca02c;stroke:#2ca02c;" x="64.647399" xlink:href="#m229f70333b" y="98.952867"/>
     <use style="fill:#2ca02c;stroke:#2ca02c;" x="65.718866" xlink:href="#m229f70333b" y="107.530056"/>
     <use style="fill:#2ca02c;stroke:#2ca02c;" x="66.790333" xlink:href="#m229f70333b" y="116.037479"/>
     <use style="fill:#2ca02c;stroke:#2ca02c;" x="67.8618" xlink:href="#m229f70333b" y="124.742641"/>
     <use style="fill:#2ca02c;stroke:#2ca02c;" x="68.933267" xlink:href="#m229f70333b" y="133.260329"/>
     <use style="fill:#2ca02c;stroke:#2ca02c;" x="70.004734" xlink:href="#m229f70333b" y="142.284493"/>
     <use style="fill:#2ca02c;stroke:#2ca02c;" x="71.076202" xlink:href="#m229f70333b" y="150.311352"/>
     <use style="fill:#2ca02c;stroke:#2ca02c;" x="72.147669" xlink:href="#m229f70333b" y="160.61419"/>
    </g>
   </g>
   <g id="line2d_72">
    <path clip-path="url(#p5c83bdfbc5)" d="M 55.004194 108.497686 
L 80.194535 311.86825 
L 80.194535 311.86825 
" style="fill:none;stroke:#000000;stroke-dasharray:5.55,2.4;stroke-dashoffset:0;stroke-width:1.5;"/>
   </g>
   <g id="patch_3">
    <path d="M 37.7 273.312 
L 37.7 7.2 
" style="fill:none;stroke:#000000;stroke-linecap:square;stroke-linejoin:miter;stroke-width:0.8;"/>
   </g>
   <g id="patch_4">
    <path d="M 394.82 273.312 
L 394.82 7.2 
" style="fill:none;stroke:#000000;stroke-linecap:square;stroke-linejoin:miter;stroke-width:0.8;"/>
   </g>
   <g id="patch_5">
    <path d="M 37.7 273.312 
L 394.82 273.312 
" style="fill:none;stroke:#000000;stroke-linecap:square;stroke-linejoin:miter;stroke-width:0.8;"/>
   </g>
   <g id="patch_6">
    <path d="M 37.7 7.2 
L 394.82 7.2 
" style="fill:none;stroke:#000000;stroke-linecap:square;stroke-linejoin:miter;stroke-width:0.8;"/>
   </g>
   <g id="legend_1">
    <g id="patch_7">
     <path d="M 286.72 59.25625 
L 387.82 59.25625 
Q 389.82 59.25625 389.82 57.25625 
L 389.82 14.2 
Q 389.82 12.2 387.82 12.2 
L 286.72 12.2 
Q 284.72 12.2 284.72 14.2 
L 284.72 57.25625 
Q 284.72 59.25625 286.72 59.25625 
z
" style="fill:#ffffff;opacity:0.8;"/>
    </g>
    <g id="line2d_73">
     <path d="M 288.72 20.298437 
L 308.72 20.298437 
" style="fill:none;stroke:#1f77b4;stroke-linecap:square;stroke-width:1.5;"/>
    </g>
    <g id="line2d_74">
     <g>
      <use style="fill:#1f77b4;stroke:#1f77b4;" x="298.72" xlink:href="#m25784524bf" y="20.298437"/>
     </g>
    </g>
    <g id="text_16">
     <!-- APD$_n$ - APD$_\infty$ -->
     <defs>
      <path d="M 34.1875 63.1875 
L 20.796875 26.90625 
L 47.609375 26.90625 
z
M 28.609375 72.90625 
L 39.796875 72.90625 
L 67.578125 0 
L 57.328125 0 
L 50.6875 18.703125 
L 17.828125 18.703125 
L 11.1875 0 
L 0.78125 0 
z
" id="DejaVuSans-65"/>
      <path d="M 19.671875 64.796875 
L 19.671875 37.40625 
L 32.078125 37.40625 
Q 38.96875 37.40625 42.71875 40.96875 
Q 46.484375 44.53125 46.484375 51.125 
Q 46.484375 57.671875 42.71875 61.234375 
Q 38.96875 64.796875 32.078125 64.796875 
z
M 9.8125 72.90625 
L 32.078125 72.90625 
Q 44.34375 72.90625 50.609375 67.359375 
Q 56.890625 61.8125 56.890625 51.125 
Q 56.890625 40.328125 50.609375 34.8125 
Q 44.34375 29.296875 32.078125 29.296875 
L 19.671875 29.296875 
L 19.671875 0 
L 9.8125 0 
z
" id="DejaVuSans-80"/>
      <path d="M 19.671875 64.796875 
L 19.671875 8.109375 
L 31.59375 8.109375 
Q 46.6875 8.109375 53.6875 14.9375 
Q 60.6875 21.78125 60.6875 36.53125 
Q 60.6875 51.171875 53.6875 57.984375 
Q 46.6875 64.796875 31.59375 64.796875 
z
M 9.8125 72.90625 
L 30.078125 72.90625 
Q 51.265625 72.90625 61.171875 64.09375 
Q 71.09375 55.28125 71.09375 36.53125 
Q 71.09375 17.671875 61.125 8.828125 
Q 51.171875 0 30.078125 0 
L 9.8125 0 
z
" id="DejaVuSans-68"/>
      <path d="M 55.71875 33.015625 
L 49.3125 0 
L 40.28125 0 
L 46.6875 32.671875 
Q 47.125 34.96875 47.359375 36.71875 
Q 47.609375 38.484375 47.609375 39.5 
Q 47.609375 43.609375 45.015625 45.890625 
Q 42.4375 48.1875 37.796875 48.1875 
Q 30.5625 48.1875 25.34375 43.375 
Q 20.125 38.578125 18.5 30.328125 
L 12.5 0 
L 3.515625 0 
L 14.109375 54.6875 
L 23.09375 54.6875 
L 21.296875 46.09375 
Q 25.046875 50.828125 30.3125 53.40625 
Q 35.59375 56 41.40625 56 
Q 48.640625 56 52.609375 52.09375 
Q 56.59375 48.1875 56.59375 41.109375 
Q 56.59375 39.359375 56.375 37.359375 
Q 56.15625 35.359375 55.71875 33.015625 
z
" id="DejaVuSans-Oblique-110"/>
      <path id="DejaVuSans-32"/>
      <path d="M 4.890625 31.390625 
L 31.203125 31.390625 
L 31.203125 23.390625 
L 4.890625 23.390625 
z
" id="DejaVuSans-45"/>
      <path d="M 45.5625 17.046875 
Q 44.046875 18.796875 41.65625 22.90625 
Q 38.375 17.046875 35.5 14.453125 
Q 31.890625 11.328125 26.265625 11.328125 
Q 19.671875 11.328125 15.328125 16.265625 
Q 10.75 21.4375 10.75 29.984375 
Q 10.75 38.1875 15.328125 43.75 
Q 19.4375 48.6875 26.375 48.6875 
Q 29.9375 48.6875 32.5625 47.21875 
Q 35.640625 45.609375 37.75 42.828125 
Q 39.703125 40.328125 41.65625 36.96875 
Q 44.921875 42.828125 47.796875 45.40625 
Q 51.421875 48.53125 57.03125 48.53125 
Q 63.625 48.53125 67.96875 43.609375 
Q 72.5625 38.421875 72.5625 29.890625 
Q 72.5625 21.6875 67.96875 16.109375 
Q 63.875 11.1875 56.9375 11.1875 
Q 53.375 11.1875 50.734375 12.640625 
Q 48.09375 13.96875 45.5625 17.046875 
z
M 25.734375 17.71875 
Q 33.796875 17.71875 38.625 29.4375 
Q 32.421875 42.234375 25.734375 42.234375 
Q 20.84375 42.234375 18.359375 38.71875 
Q 15.671875 34.96875 15.671875 29.984375 
Q 15.671875 24.515625 18.359375 21.140625 
Q 21.09375 17.71875 25.734375 17.71875 
z
M 57.5625 42.140625 
Q 50.296875 42.140625 44.671875 30.421875 
Q 50.828125 17.625 57.5625 17.625 
Q 62.453125 17.625 64.9375 21.140625 
Q 67.625 24.90625 67.625 29.890625 
Q 67.625 35.359375 64.9375 38.71875 
Q 62.203125 42.140625 57.5625 42.140625 
z
" id="DejaVuSans-8734"/>
     </defs>
     <g transform="translate(316.72 23.798437)scale(0.1 -0.1)">
      <use transform="translate(0 0.09375)" xlink:href="#DejaVuSans-65"/>
      <use transform="translate(68.408203 0.09375)" xlink:href="#DejaVuSans-80"/>
      <use transform="translate(128.710938 0.09375)" xlink:href="#DejaVuSans-68"/>
      <use transform="translate(206.669922 -16.3125)scale(0.7)" xlink:href="#DejaVuSans-Oblique-110"/>
      <use transform="translate(253.769531 0.09375)" xlink:href="#DejaVuSans-32"/>
      <use transform="translate(285.556641 0.09375)" xlink:href="#DejaVuSans-45"/>
      <use transform="translate(321.640625 0.09375)" xlink:href="#DejaVuSans-32"/>
      <use transform="translate(353.427734 0.09375)" xlink:href="#DejaVuSans-65"/>
      <use transform="translate(421.835938 0.09375)" xlink:href="#DejaVuSans-80"/>
      <use transform="translate(482.138672 0.09375)" xlink:href="#DejaVuSans-68"/>
      <use transform="translate(560.097656 -16.3125)scale(0.7)" xlink:href="#DejaVuSans-8734"/>
     </g>
    </g>
    <g id="line2d_75">
     <path d="M 288.72 34.976562 
L 308.72 34.976562 
" style="fill:none;stroke:#2ca02c;stroke-dasharray:1.5,2.475;stroke-dashoffset:0;stroke-width:1.5;"/>
    </g>
    <g id="line2d_76">
     <g>
      <use style="fill:#2ca02c;stroke:#2ca02c;" x="298.72" xlink:href="#m229f70333b" y="34.976562"/>
     </g>
    </g>
    <g id="text_17">
     <!-- linear region -->
     <defs>
      <path d="M 9.421875 75.984375 
L 18.40625 75.984375 
L 18.40625 0 
L 9.421875 0 
z
" id="DejaVuSans-108"/>
      <path d="M 9.421875 54.6875 
L 18.40625 54.6875 
L 18.40625 0 
L 9.421875 0 
z
M 9.421875 75.984375 
L 18.40625 75.984375 
L 18.40625 64.59375 
L 9.421875 64.59375 
z
" id="DejaVuSans-105"/>
      <path d="M 54.890625 33.015625 
L 54.890625 0 
L 45.90625 0 
L 45.90625 32.71875 
Q 45.90625 40.484375 42.875 44.328125 
Q 39.84375 48.1875 33.796875 48.1875 
Q 26.515625 48.1875 22.3125 43.546875 
Q 18.109375 38.921875 18.109375 30.90625 
L 18.109375 0 
L 9.078125 0 
L 9.078125 54.6875 
L 18.109375 54.6875 
L 18.109375 46.1875 
Q 21.34375 51.125 25.703125 53.5625 
Q 30.078125 56 35.796875 56 
Q 45.21875 56 50.046875 50.171875 
Q 54.890625 44.34375 54.890625 33.015625 
z
" id="DejaVuSans-110"/>
      <path d="M 56.203125 29.59375 
L 56.203125 25.203125 
L 14.890625 25.203125 
Q 15.484375 15.921875 20.484375 11.0625 
Q 25.484375 6.203125 34.421875 6.203125 
Q 39.59375 6.203125 44.453125 7.46875 
Q 49.3125 8.734375 54.109375 11.28125 
L 54.109375 2.78125 
Q 49.265625 0.734375 44.1875 -0.34375 
Q 39.109375 -1.421875 33.890625 -1.421875 
Q 20.796875 -1.421875 13.15625 6.1875 
Q 5.515625 13.8125 5.515625 26.8125 
Q 5.515625 40.234375 12.765625 48.109375 
Q 20.015625 56 32.328125 56 
Q 43.359375 56 49.78125 48.890625 
Q 56.203125 41.796875 56.203125 29.59375 
z
M 47.21875 32.234375 
Q 47.125 39.59375 43.09375 43.984375 
Q 39.0625 48.390625 32.421875 48.390625 
Q 24.90625 48.390625 20.390625 44.140625 
Q 15.875 39.890625 15.1875 32.171875 
z
" id="DejaVuSans-101"/>
      <path d="M 34.28125 27.484375 
Q 23.390625 27.484375 19.1875 25 
Q 14.984375 22.515625 14.984375 16.5 
Q 14.984375 11.71875 18.140625 8.90625 
Q 21.296875 6.109375 26.703125 6.109375 
Q 34.1875 6.109375 38.703125 11.40625 
Q 43.21875 16.703125 43.21875 25.484375 
L 43.21875 27.484375 
z
M 52.203125 31.203125 
L 52.203125 0 
L 43.21875 0 
L 43.21875 8.296875 
Q 40.140625 3.328125 35.546875 0.953125 
Q 30.953125 -1.421875 24.3125 -1.421875 
Q 15.921875 -1.421875 10.953125 3.296875 
Q 6 8.015625 6 15.921875 
Q 6 25.140625 12.171875 29.828125 
Q 18.359375 34.515625 30.609375 34.515625 
L 43.21875 34.515625 
L 43.21875 35.40625 
Q 43.21875 41.609375 39.140625 45 
Q 35.0625 48.390625 27.6875 48.390625 
Q 23 48.390625 18.546875 47.265625 
Q 14.109375 46.140625 10.015625 43.890625 
L 10.015625 52.203125 
Q 14.9375 54.109375 19.578125 55.046875 
Q 24.21875 56 28.609375 56 
Q 40.484375 56 46.34375 49.84375 
Q 52.203125 43.703125 52.203125 31.203125 
z
" id="DejaVuSans-97"/>
      <path d="M 41.109375 46.296875 
Q 39.59375 47.171875 37.8125 47.578125 
Q 36.03125 48 33.890625 48 
Q 26.265625 48 22.1875 43.046875 
Q 18.109375 38.09375 18.109375 28.8125 
L 18.109375 0 
L 9.078125 0 
L 9.078125 54.6875 
L 18.109375 54.6875 
L 18.109375 46.1875 
Q 20.953125 51.171875 25.484375 53.578125 
Q 30.03125 56 36.53125 56 
Q 37.453125 56 38.578125 55.875 
Q 39.703125 55.765625 41.0625 55.515625 
z
" id="DejaVuSans-114"/>
      <path d="M 45.40625 27.984375 
Q 45.40625 37.75 41.375 43.109375 
Q 37.359375 48.484375 30.078125 48.484375 
Q 22.859375 48.484375 18.828125 43.109375 
Q 14.796875 37.75 14.796875 27.984375 
Q 14.796875 18.265625 18.828125 12.890625 
Q 22.859375 7.515625 30.078125 7.515625 
Q 37.359375 7.515625 41.375 12.890625 
Q 45.40625 18.265625 45.40625 27.984375 
z
M 54.390625 6.78125 
Q 54.390625 -7.171875 48.1875 -13.984375 
Q 42 -20.796875 29.203125 -20.796875 
Q 24.46875 -20.796875 20.265625 -20.09375 
Q 16.0625 -19.390625 12.109375 -17.921875 
L 12.109375 -9.1875 
Q 16.0625 -11.328125 19.921875 -12.34375 
Q 23.78125 -13.375 27.78125 -13.375 
Q 36.625 -13.375 41.015625 -8.765625 
Q 45.40625 -4.15625 45.40625 5.171875 
L 45.40625 9.625 
Q 42.625 4.78125 38.28125 2.390625 
Q 33.9375 0 27.875 0 
Q 17.828125 0 11.671875 7.65625 
Q 5.515625 15.328125 5.515625 27.984375 
Q 5.515625 40.671875 11.671875 48.328125 
Q 17.828125 56 27.875 56 
Q 33.9375 56 38.28125 53.609375 
Q 42.625 51.21875 45.40625 46.390625 
L 45.40625 54.6875 
L 54.390625 54.6875 
z
" id="DejaVuSans-103"/>
      <path d="M 30.609375 48.390625 
Q 23.390625 48.390625 19.1875 42.75 
Q 14.984375 37.109375 14.984375 27.296875 
Q 14.984375 17.484375 19.15625 11.84375 
Q 23.34375 6.203125 30.609375 6.203125 
Q 37.796875 6.203125 41.984375 11.859375 
Q 46.1875 17.53125 46.1875 27.296875 
Q 46.1875 37.015625 41.984375 42.703125 
Q 37.796875 48.390625 30.609375 48.390625 
z
M 30.609375 56 
Q 42.328125 56 49.015625 48.375 
Q 55.71875 40.765625 55.71875 27.296875 
Q 55.71875 13.875 49.015625 6.21875 
Q 42.328125 -1.421875 30.609375 -1.421875 
Q 18.84375 -1.421875 12.171875 6.21875 
Q 5.515625 13.875 5.515625 27.296875 
Q 5.515625 40.765625 12.171875 48.375 
Q 18.84375 56 30.609375 56 
z
" id="DejaVuSans-111"/>
     </defs>
     <g transform="translate(316.72 38.476562)scale(0.1 -0.1)">
      <use xlink:href="#DejaVuSans-108"/>
      <use x="27.783203" xlink:href="#DejaVuSans-105"/>
      <use x="55.566406" xlink:href="#DejaVuSans-110"/>
      <use x="118.945312" xlink:href="#DejaVuSans-101"/>
      <use x="180.46875" xlink:href="#DejaVuSans-97"/>
      <use x="241.748047" xlink:href="#DejaVuSans-114"/>
      <use x="282.861328" xlink:href="#DejaVuSans-32"/>
      <use x="314.648438" xlink:href="#DejaVuSans-114"/>
      <use x="353.511719" xlink:href="#DejaVuSans-101"/>
      <use x="415.035156" xlink:href="#DejaVuSans-103"/>
      <use x="478.511719" xlink:href="#DejaVuSans-105"/>
      <use x="506.294922" xlink:href="#DejaVuSans-111"/>
      <use x="567.476562" xlink:href="#DejaVuSans-110"/>
     </g>
    </g>
    <g id="line2d_77">
     <path d="M 288.72 49.65625 
L 308.72 49.65625 
" style="fill:none;stroke:#000000;stroke-dasharray:5.55,2.4;stroke-dashoffset:0;stroke-width:1.5;"/>
    </g>
    <g id="line2d_78"/>
    <g id="text_18">
     <!-- $ \exp(-0.518 k)$ -->
     <defs>
      <path d="M 54.890625 54.6875 
L 35.109375 28.078125 
L 55.90625 0 
L 45.3125 0 
L 29.390625 21.484375 
L 13.484375 0 
L 2.875 0 
L 24.125 28.609375 
L 4.6875 54.6875 
L 15.28125 54.6875 
L 29.78125 35.203125 
L 44.28125 54.6875 
z
" id="DejaVuSans-120"/>
      <path d="M 18.109375 8.203125 
L 18.109375 -20.796875 
L 9.078125 -20.796875 
L 9.078125 54.6875 
L 18.109375 54.6875 
L 18.109375 46.390625 
Q 20.953125 51.265625 25.265625 53.625 
Q 29.59375 56 35.59375 56 
Q 45.5625 56 51.78125 48.09375 
Q 58.015625 40.1875 58.015625 27.296875 
Q 58.015625 14.40625 51.78125 6.484375 
Q 45.5625 -1.421875 35.59375 -1.421875 
Q 29.59375 -1.421875 25.265625 0.953125 
Q 20.953125 3.328125 18.109375 8.203125 
z
M 48.6875 27.296875 
Q 48.6875 37.203125 44.609375 42.84375 
Q 40.53125 48.484375 33.40625 48.484375 
Q 26.265625 48.484375 22.1875 42.84375 
Q 18.109375 37.203125 18.109375 27.296875 
Q 18.109375 17.390625 22.1875 11.75 
Q 26.265625 6.109375 33.40625 6.109375 
Q 40.53125 6.109375 44.609375 11.75 
Q 48.6875 17.390625 48.6875 27.296875 
z
" id="DejaVuSans-112"/>
      <path d="M 31 75.875 
Q 24.46875 64.65625 21.28125 53.65625 
Q 18.109375 42.671875 18.109375 31.390625 
Q 18.109375 20.125 21.3125 9.0625 
Q 24.515625 -2 31 -13.1875 
L 23.1875 -13.1875 
Q 15.875 -1.703125 12.234375 9.375 
Q 8.59375 20.453125 8.59375 31.390625 
Q 8.59375 42.28125 12.203125 53.3125 
Q 15.828125 64.359375 23.1875 75.875 
z
" id="DejaVuSans-40"/>
      <path d="M 10.6875 12.40625 
L 21 12.40625 
L 21 0 
L 10.6875 0 
z
" id="DejaVuSans-46"/>
      <path d="M 31.78125 34.625 
Q 24.75 34.625 20.71875 30.859375 
Q 16.703125 27.09375 16.703125 20.515625 
Q 16.703125 13.921875 20.71875 10.15625 
Q 24.75 6.390625 31.78125 6.390625 
Q 38.8125 6.390625 42.859375 10.171875 
Q 46.921875 13.96875 46.921875 20.515625 
Q 46.921875 27.09375 42.890625 30.859375 
Q 38.875 34.625 31.78125 34.625 
z
M 21.921875 38.8125 
Q 15.578125 40.375 12.03125 44.71875 
Q 8.5 49.078125 8.5 55.328125 
Q 8.5 64.0625 14.71875 69.140625 
Q 20.953125 74.21875 31.78125 74.21875 
Q 42.671875 74.21875 48.875 69.140625 
Q 55.078125 64.0625 55.078125 55.328125 
Q 55.078125 49.078125 51.53125 44.71875 
Q 48 40.375 41.703125 38.8125 
Q 48.828125 37.15625 52.796875 32.3125 
Q 56.78125 27.484375 56.78125 20.515625 
Q 56.78125 9.90625 50.3125 4.234375 
Q 43.84375 -1.421875 31.78125 -1.421875 
Q 19.734375 -1.421875 13.25 4.234375 
Q 6.78125 9.90625 6.78125 20.515625 
Q 6.78125 27.484375 10.78125 32.3125 
Q 14.796875 37.15625 21.921875 38.8125 
z
M 18.3125 54.390625 
Q 18.3125 48.734375 21.84375 45.5625 
Q 25.390625 42.390625 31.78125 42.390625 
Q 38.140625 42.390625 41.71875 45.5625 
Q 45.3125 48.734375 45.3125 54.390625 
Q 45.3125 60.0625 41.71875 63.234375 
Q 38.140625 66.40625 31.78125 66.40625 
Q 25.390625 66.40625 21.84375 63.234375 
Q 18.3125 60.0625 18.3125 54.390625 
z
" id="DejaVuSans-56"/>
      <path d="M 8.015625 75.875 
L 15.828125 75.875 
Q 23.140625 64.359375 26.78125 53.3125 
Q 30.421875 42.28125 30.421875 31.390625 
Q 30.421875 20.453125 26.78125 9.375 
Q 23.140625 -1.703125 15.828125 -13.1875 
L 8.015625 -13.1875 
Q 14.5 -2 17.703125 9.0625 
Q 20.90625 20.125 20.90625 31.390625 
Q 20.90625 42.671875 17.703125 53.65625 
Q 14.5 64.65625 8.015625 75.875 
z
" id="DejaVuSans-41"/>
     </defs>
     <g transform="translate(316.72 53.15625)scale(0.1 -0.1)">
      <use transform="translate(0 0.015625)" xlink:href="#DejaVuSans-101"/>
      <use transform="translate(61.523438 0.015625)" xlink:href="#DejaVuSans-120"/>
      <use transform="translate(120.703125 0.015625)" xlink:href="#DejaVuSans-112"/>
      <use transform="translate(184.179688 0.015625)" xlink:href="#DejaVuSans-40"/>
      <use transform="translate(223.193359 0.015625)" xlink:href="#DejaVuSans-8722"/>
      <use transform="translate(306.982422 0.015625)" xlink:href="#DejaVuSans-48"/>
      <use transform="translate(370.605469 0.015625)" xlink:href="#DejaVuSans-46"/>
      <use transform="translate(402.392578 0.015625)" xlink:href="#DejaVuSans-53"/>
      <use transform="translate(466.015625 0.015625)" xlink:href="#DejaVuSans-49"/>
      <use transform="translate(529.638672 0.015625)" xlink:href="#DejaVuSans-56"/>
      <use transform="translate(593.261719 0.015625)" xlink:href="#DejaVuSans-Oblique-107"/>
      <use transform="translate(651.171875 0.015625)" xlink:href="#DejaVuSans-41"/>
     </g>
    </g>
   </g>
  </g>
 </g>
 <defs>
  <clipPath id="p5c83bdfbc5">
   <rect height="266.112" width="357.12" x="37.7" y="7.2"/>
  </clipPath>
 </defs>
</svg>
