<?xml version="1.0" encoding="utf-8" standalone="no"?>
<!DOCTYPE svg PUBLIC "-//W3C//DTD SVG 1.1//EN"
  "http://www.w3.org/Graphics/SVG/1.1/DTD/svg11.dtd">
<!-- Created with matplotlib (https://matplotlib.org/) -->
<svg height="312.120168pt" version="1.1" viewBox="0 0 402.02 312.120168" width="402.02pt" xmlns="http://www.w3.org/2000/svg" xmlns:xlink="http://www.w3.org/1999/xlink">
 <defs>
  <style type="text/css">
*{stroke-linecap:butt;stroke-linejoin:round;}
  </style>
 </defs>
 <g id="figure_1">
  <g id="patch_1">
   <path d="M 0 312.120168 
L 402.02 312.120168 
L 402.02 0 
L 0 0 
z
" style="fill:#ffffff;"/>
  </g>
  <g id="axes_1">
   <g id="patch_2">
    <path d="M 37.7 274.563918 
L 394.82 274.563918 
L 394.82 8.451918 
L 37.7 8.451918 
z
" style="fill:#ffffff;"/>
   </g>
   <g id="matplotlib.axis_1">
    <g id="xtick_1">
     <g id="line2d_1">
      <defs>
       <path d="M 0 0 
L 0 3.5 
" id="m2b42172c3c" style="stroke:#000000;stroke-width:0.8;"/>
      </defs>
      <g>
       <use style="stroke:#000000;stroke-width:0.8;" x="53.932727" xlink:href="#m2b42172c3c" y="274.563918"/>
      </g>
     </g>
     <g id="text_1">
      <!-- 0 -->
      <defs>
       <path d="M 31.78125 66.40625 
Q 24.171875 66.40625 20.328125 58.90625 
Q 16.5 51.421875 16.5 36.375 
Q 16.5 21.390625 20.328125 13.890625 
Q 24.171875 6.390625 31.78125 6.390625 
Q 39.453125 6.390625 43.28125 13.890625 
Q 47.125 21.390625 47.125 36.375 
Q 47.125 51.421875 43.28125 58.90625 
Q 39.453125 66.40625 31.78125 66.40625 
z
M 31.78125 74.21875 
Q 44.046875 74.21875 50.515625 64.515625 
Q 56.984375 54.828125 56.984375 36.375 
Q 56.984375 17.96875 50.515625 8.265625 
Q 44.046875 -1.421875 31.78125 -1.421875 
Q 19.53125 -1.421875 13.0625 8.265625 
Q 6.59375 17.96875 6.59375 36.375 
Q 6.59375 54.828125 13.0625 64.515625 
Q 19.53125 74.21875 31.78125 74.21875 
z
" id="DejaVuSans-48"/>
      </defs>
      <g transform="translate(50.751477 289.162356)scale(0.1 -0.1)">
       <use xlink:href="#DejaVuSans-48"/>
      </g>
     </g>
    </g>
    <g id="xtick_2">
     <g id="line2d_2">
      <g>
       <use style="stroke:#000000;stroke-width:0.8;" x="114.502605" xlink:href="#m2b42172c3c" y="274.563918"/>
      </g>
     </g>
     <g id="text_2">
      <!-- 50 -->
      <defs>
       <path d="M 10.796875 72.90625 
L 49.515625 72.90625 
L 49.515625 64.59375 
L 19.828125 64.59375 
L 19.828125 46.734375 
Q 21.96875 47.46875 24.109375 47.828125 
Q 26.265625 48.1875 28.421875 48.1875 
Q 40.625 48.1875 47.75 41.5 
Q 54.890625 34.8125 54.890625 23.390625 
Q 54.890625 11.625 47.5625 5.09375 
Q 40.234375 -1.421875 26.90625 -1.421875 
Q 22.3125 -1.421875 17.546875 -0.640625 
Q 12.796875 0.140625 7.71875 1.703125 
L 7.71875 11.625 
Q 12.109375 9.234375 16.796875 8.0625 
Q 21.484375 6.890625 26.703125 6.890625 
Q 35.15625 6.890625 40.078125 11.328125 
Q 45.015625 15.765625 45.015625 23.390625 
Q 45.015625 31 40.078125 35.4375 
Q 35.15625 39.890625 26.703125 39.890625 
Q 22.75 39.890625 18.8125 39.015625 
Q 14.890625 38.140625 10.796875 36.28125 
z
" id="DejaVuSans-53"/>
      </defs>
      <g transform="translate(108.140105 289.162356)scale(0.1 -0.1)">
       <use xlink:href="#DejaVuSans-53"/>
       <use x="63.623047" xlink:href="#DejaVuSans-48"/>
      </g>
     </g>
    </g>
    <g id="xtick_3">
     <g id="line2d_3">
      <g>
       <use style="stroke:#000000;stroke-width:0.8;" x="175.072483" xlink:href="#m2b42172c3c" y="274.563918"/>
      </g>
     </g>
     <g id="text_3">
      <!-- 100 -->
      <defs>
       <path d="M 12.40625 8.296875 
L 28.515625 8.296875 
L 28.515625 63.921875 
L 10.984375 60.40625 
L 10.984375 69.390625 
L 28.421875 72.90625 
L 38.28125 72.90625 
L 38.28125 8.296875 
L 54.390625 8.296875 
L 54.390625 0 
L 12.40625 0 
z
" id="DejaVuSans-49"/>
      </defs>
      <g transform="translate(165.528733 289.162356)scale(0.1 -0.1)">
       <use xlink:href="#DejaVuSans-49"/>
       <use x="63.623047" xlink:href="#DejaVuSans-48"/>
       <use x="127.246094" xlink:href="#DejaVuSans-48"/>
      </g>
     </g>
    </g>
    <g id="xtick_4">
     <g id="line2d_4">
      <g>
       <use style="stroke:#000000;stroke-width:0.8;" x="235.642361" xlink:href="#m2b42172c3c" y="274.563918"/>
      </g>
     </g>
     <g id="text_4">
      <!-- 150 -->
      <g transform="translate(226.098611 289.162356)scale(0.1 -0.1)">
       <use xlink:href="#DejaVuSans-49"/>
       <use x="63.623047" xlink:href="#DejaVuSans-53"/>
       <use x="127.246094" xlink:href="#DejaVuSans-48"/>
      </g>
     </g>
    </g>
    <g id="xtick_5">
     <g id="line2d_5">
      <g>
       <use style="stroke:#000000;stroke-width:0.8;" x="296.212239" xlink:href="#m2b42172c3c" y="274.563918"/>
      </g>
     </g>
     <g id="text_5">
      <!-- 200 -->
      <defs>
       <path d="M 19.1875 8.296875 
L 53.609375 8.296875 
L 53.609375 0 
L 7.328125 0 
L 7.328125 8.296875 
Q 12.9375 14.109375 22.625 23.890625 
Q 32.328125 33.6875 34.8125 36.53125 
Q 39.546875 41.84375 41.421875 45.53125 
Q 43.3125 49.21875 43.3125 52.78125 
Q 43.3125 58.59375 39.234375 62.25 
Q 35.15625 65.921875 28.609375 65.921875 
Q 23.96875 65.921875 18.8125 64.3125 
Q 13.671875 62.703125 7.8125 59.421875 
L 7.8125 69.390625 
Q 13.765625 71.78125 18.9375 73 
Q 24.125 74.21875 28.421875 74.21875 
Q 39.75 74.21875 46.484375 68.546875 
Q 53.21875 62.890625 53.21875 53.421875 
Q 53.21875 48.921875 51.53125 44.890625 
Q 49.859375 40.875 45.40625 35.40625 
Q 44.1875 33.984375 37.640625 27.21875 
Q 31.109375 20.453125 19.1875 8.296875 
z
" id="DejaVuSans-50"/>
      </defs>
      <g transform="translate(286.668489 289.162356)scale(0.1 -0.1)">
       <use xlink:href="#DejaVuSans-50"/>
       <use x="63.623047" xlink:href="#DejaVuSans-48"/>
       <use x="127.246094" xlink:href="#DejaVuSans-48"/>
      </g>
     </g>
    </g>
    <g id="xtick_6">
     <g id="line2d_6">
      <g>
       <use style="stroke:#000000;stroke-width:0.8;" x="356.782117" xlink:href="#m2b42172c3c" y="274.563918"/>
      </g>
     </g>
     <g id="text_6">
      <!-- 250 -->
      <g transform="translate(347.238367 289.162356)scale(0.1 -0.1)">
       <use xlink:href="#DejaVuSans-50"/>
       <use x="63.623047" xlink:href="#DejaVuSans-53"/>
       <use x="127.246094" xlink:href="#DejaVuSans-48"/>
      </g>
     </g>
    </g>
    <g id="text_7">
     <!-- $ k $ -->
     <defs>
      <path d="M 18.3125 75.984375 
L 27.296875 75.984375 
L 18.703125 31.6875 
L 49.515625 54.6875 
L 61.1875 54.6875 
L 26.8125 28.515625 
L 51.90625 0 
L 41.015625 0 
L 17.671875 26.703125 
L 12.5 0 
L 3.515625 0 
z
" id="DejaVuSans-Oblique-107"/>
     </defs>
     <g transform="translate(213.36 302.840481)scale(0.1 -0.1)">
      <use transform="translate(0 0.015625)" xlink:href="#DejaVuSans-Oblique-107"/>
     </g>
    </g>
   </g>
   <g id="matplotlib.axis_2">
    <g id="ytick_1">
     <g id="line2d_7">
      <defs>
       <path d="M 0 0 
L -3.5 0 
" id="mdd9d388740" style="stroke:#000000;stroke-width:0.8;"/>
      </defs>
      <g>
       <use style="stroke:#000000;stroke-width:0.8;" x="37.7" xlink:href="#mdd9d388740" y="244.040742"/>
      </g>
     </g>
     <g id="text_8">
      <!-- $\mathdefault{10^{-6}}$ -->
      <defs>
       <path d="M 10.59375 35.5 
L 73.1875 35.5 
L 73.1875 27.203125 
L 10.59375 27.203125 
z
" id="DejaVuSans-8722"/>
       <path d="M 33.015625 40.375 
Q 26.375 40.375 22.484375 35.828125 
Q 18.609375 31.296875 18.609375 23.390625 
Q 18.609375 15.53125 22.484375 10.953125 
Q 26.375 6.390625 33.015625 6.390625 
Q 39.65625 6.390625 43.53125 10.953125 
Q 47.40625 15.53125 47.40625 23.390625 
Q 47.40625 31.296875 43.53125 35.828125 
Q 39.65625 40.375 33.015625 40.375 
z
M 52.59375 71.296875 
L 52.59375 62.3125 
Q 48.875 64.0625 45.09375 64.984375 
Q 41.3125 65.921875 37.59375 65.921875 
Q 27.828125 65.921875 22.671875 59.328125 
Q 17.53125 52.734375 16.796875 39.40625 
Q 19.671875 43.65625 24.015625 45.921875 
Q 28.375 48.1875 33.59375 48.1875 
Q 44.578125 48.1875 50.953125 41.515625 
Q 57.328125 34.859375 57.328125 23.390625 
Q 57.328125 12.15625 50.6875 5.359375 
Q 44.046875 -1.421875 33.015625 -1.421875 
Q 20.359375 -1.421875 13.671875 8.265625 
Q 6.984375 17.96875 6.984375 36.375 
Q 6.984375 53.65625 15.1875 63.9375 
Q 23.390625 74.21875 37.203125 74.21875 
Q 40.921875 74.21875 44.703125 73.484375 
Q 48.484375 72.75 52.59375 71.296875 
z
" id="DejaVuSans-54"/>
      </defs>
      <g transform="translate(7.2 247.839961)scale(0.1 -0.1)">
       <use transform="translate(0 0.765625)" xlink:href="#DejaVuSans-49"/>
       <use transform="translate(63.623047 0.765625)" xlink:href="#DejaVuSans-48"/>
       <use transform="translate(128.203125 39.046875)scale(0.7)" xlink:href="#DejaVuSans-8722"/>
       <use transform="translate(186.855469 39.046875)scale(0.7)" xlink:href="#DejaVuSans-54"/>
      </g>
     </g>
    </g>
    <g id="ytick_2">
     <g id="line2d_8">
      <g>
       <use style="stroke:#000000;stroke-width:0.8;" x="37.7" xlink:href="#mdd9d388740" y="185.780361"/>
      </g>
     </g>
     <g id="text_9">
      <!-- $\mathdefault{10^{-4}}$ -->
      <defs>
       <path d="M 37.796875 64.3125 
L 12.890625 25.390625 
L 37.796875 25.390625 
z
M 35.203125 72.90625 
L 47.609375 72.90625 
L 47.609375 25.390625 
L 58.015625 25.390625 
L 58.015625 17.1875 
L 47.609375 17.1875 
L 47.609375 0 
L 37.796875 0 
L 37.796875 17.1875 
L 4.890625 17.1875 
L 4.890625 26.703125 
z
" id="DejaVuSans-52"/>
      </defs>
      <g transform="translate(7.2 189.57958)scale(0.1 -0.1)">
       <use transform="translate(0 0.684375)" xlink:href="#DejaVuSans-49"/>
       <use transform="translate(63.623047 0.684375)" xlink:href="#DejaVuSans-48"/>
       <use transform="translate(128.203125 38.965625)scale(0.7)" xlink:href="#DejaVuSans-8722"/>
       <use transform="translate(186.855469 38.965625)scale(0.7)" xlink:href="#DejaVuSans-52"/>
      </g>
     </g>
    </g>
    <g id="ytick_3">
     <g id="line2d_9">
      <g>
       <use style="stroke:#000000;stroke-width:0.8;" x="37.7" xlink:href="#mdd9d388740" y="127.51998"/>
      </g>
     </g>
     <g id="text_10">
      <!-- $\mathdefault{10^{-2}}$ -->
      <g transform="translate(7.2 131.319199)scale(0.1 -0.1)">
       <use transform="translate(0 0.765625)" xlink:href="#DejaVuSans-49"/>
       <use transform="translate(63.623047 0.765625)" xlink:href="#DejaVuSans-48"/>
       <use transform="translate(128.203125 39.046875)scale(0.7)" xlink:href="#DejaVuSans-8722"/>
       <use transform="translate(186.855469 39.046875)scale(0.7)" xlink:href="#DejaVuSans-50"/>
      </g>
     </g>
    </g>
    <g id="ytick_4">
     <g id="line2d_10">
      <g>
       <use style="stroke:#000000;stroke-width:0.8;" x="37.7" xlink:href="#mdd9d388740" y="69.2596"/>
      </g>
     </g>
     <g id="text_11">
      <!-- $\mathdefault{10^{0}}$ -->
      <g transform="translate(13.1 73.058818)scale(0.1 -0.1)">
       <use transform="translate(0 0.765625)" xlink:href="#DejaVuSans-49"/>
       <use transform="translate(63.623047 0.765625)" xlink:href="#DejaVuSans-48"/>
       <use transform="translate(128.203125 39.046875)scale(0.7)" xlink:href="#DejaVuSans-48"/>
      </g>
     </g>
    </g>
    <g id="ytick_5">
     <g id="line2d_11">
      <g>
       <use style="stroke:#000000;stroke-width:0.8;" x="37.7" xlink:href="#mdd9d388740" y="10.999219"/>
      </g>
     </g>
     <g id="text_12">
      <!-- $\mathdefault{10^{2}}$ -->
      <g transform="translate(13.1 14.798437)scale(0.1 -0.1)">
       <use transform="translate(0 0.765625)" xlink:href="#DejaVuSans-49"/>
       <use transform="translate(63.623047 0.765625)" xlink:href="#DejaVuSans-48"/>
       <use transform="translate(128.203125 39.046875)scale(0.7)" xlink:href="#DejaVuSans-50"/>
      </g>
     </g>
    </g>
   </g>
   <g id="line2d_12">
    <path clip-path="url(#pf15be60b3d)" d="M 53.932727 20.547918 
L 57.56692 60.349695 
L 59.989715 88.027233 
L 63.623908 131.544602 
L 64.835305 142.487698 
L 66.046703 162.773307 
L 67.2581 152.868283 
L 68.469498 174.412553 
L 69.680896 211.29133 
L 70.892293 171.453114 
L 72.103691 202.653504 
L 73.315088 237.5062 
L 74.526486 157.392825 
L 75.737883 181.521023 
L 76.949281 159.105186 
L 78.160678 162.864781 
L 79.372076 175.972161 
L 80.583474 167.991355 
L 81.794871 151.585733 
L 83.006269 169.341987 
L 84.217666 157.457044 
L 85.429064 176.33162 
L 86.640461 159.121847 
L 87.851859 149.019208 
L 89.063256 175.8715 
L 90.274654 162.376742 
L 91.486052 170.005926 
L 92.697449 166.423073 
L 93.908847 157.411394 
L 95.120244 195.932195 
L 96.331642 174.026821 
L 97.543039 164.563748 
L 98.754437 161.19408 
L 99.965834 164.422252 
L 101.177232 171.51628 
L 102.38863 191.585549 
L 103.600027 179.164429 
L 104.811425 169.040856 
L 106.022822 153.665507 
L 107.23422 183.241756 
L 108.445617 155.542479 
L 109.657015 192.817211 
L 110.868412 159.018615 
L 112.07981 202.764731 
L 113.291208 160.861402 
L 114.502605 146.273972 
L 115.714003 181.999509 
L 116.9254 164.22228 
L 118.136798 156.953146 
L 119.348195 189.106448 
L 120.559593 169.851895 
L 121.770991 190.357549 
L 122.982388 162.752731 
L 124.193786 167.104711 
L 125.405183 179.64529 
L 126.616581 163.275333 
L 127.827978 196.409046 
L 129.039376 163.388201 
L 130.250773 149.279289 
L 131.462171 167.426072 
L 132.673569 173.176643 
L 133.884966 159.857227 
L 135.096364 189.540516 
L 136.307761 175.039388 
L 137.519159 181.800304 
L 139.941954 165.470116 
L 141.153351 189.219507 
L 142.364749 163.926743 
L 143.576147 176.845912 
L 144.787544 148.091639 
L 145.998942 171.231268 
L 147.210339 169.395061 
L 148.421737 171.050783 
L 149.633134 169.824424 
L 150.844532 182.427103 
L 152.055929 167.403801 
L 153.267327 174.096607 
L 154.478725 170.79776 
L 155.690122 165.044974 
L 156.90152 160.514244 
L 158.112917 184.541703 
L 159.324315 159.478119 
L 160.535712 177.191869 
L 161.74711 185.523916 
L 162.958507 158.533925 
L 164.169905 241.063062 
L 165.381303 158.736704 
L 166.5927 178.924669 
L 167.804098 150.196208 
L 169.015495 177.047521 
L 170.226893 173.37395 
L 171.43829 166.394179 
L 172.649688 171.979208 
L 173.861085 154.647729 
L 175.072483 201.594646 
L 176.283881 161.597975 
L 177.495278 167.65835 
L 178.706676 183.579978 
L 179.918073 195.350079 
L 181.129471 182.347715 
L 182.340868 155.780029 
L 183.552266 169.36559 
L 184.763664 166.12199 
L 185.975061 154.519118 
L 187.186459 176.037989 
L 188.397856 190.68407 
L 189.609254 162.883483 
L 190.820651 175.290338 
L 192.032049 160.698399 
L 193.243446 166.987354 
L 194.454844 162.325182 
L 195.666242 173.14876 
L 196.877639 152.420448 
L 198.089037 158.234366 
L 199.300434 170.488827 
L 200.511832 179.373011 
L 201.723229 159.03851 
L 202.934627 170.314495 
L 205.357422 179.151394 
L 206.56882 164.144084 
L 207.780217 162.289527 
L 208.991615 165.584775 
L 210.203012 220.400479 
L 211.41441 164.575272 
L 212.625807 152.513634 
L 213.837205 160.578604 
L 215.048602 167.636751 
L 217.471398 170.479224 
L 218.682795 156.394314 
L 219.894193 185.29713 
L 221.10559 161.200068 
L 222.316988 154.413256 
L 223.528385 187.657952 
L 224.739783 162.699796 
L 225.95118 199.007824 
L 227.162578 200.63853 
L 228.373976 171.848166 
L 229.585373 156.793223 
L 230.796771 183.179302 
L 232.008168 163.36294 
L 233.219566 167.082984 
L 234.430963 164.839491 
L 235.642361 159.909154 
L 236.853758 178.481151 
L 238.065156 158.160216 
L 239.276554 189.815801 
L 240.487951 172.145551 
L 241.699349 187.257026 
L 242.910746 168.652444 
L 244.122144 156.361256 
L 245.333541 195.511368 
L 246.544939 165.151959 
L 247.756336 167.052365 
L 248.967734 156.266055 
L 250.179132 191.722926 
L 251.390529 179.70504 
L 252.601927 162.37273 
L 253.813324 187.30156 
L 255.024722 153.012702 
L 256.236119 169.799588 
L 257.447517 163.318127 
L 258.658915 168.511597 
L 259.870312 152.662927 
L 261.08171 174.595058 
L 263.504505 158.00573 
L 264.715902 168.522535 
L 265.9273 172.78745 
L 267.138697 164.407716 
L 268.350095 167.843562 
L 269.561493 172.698957 
L 270.77289 164.251722 
L 271.984288 175.401189 
L 273.195685 158.309478 
L 274.407083 164.012258 
L 275.61848 196.445703 
L 276.829878 168.740953 
L 278.041275 167.197803 
L 279.252673 168.431151 
L 280.464071 163.399256 
L 281.675468 262.467918 
L 282.886866 168.516526 
L 284.098263 165.089923 
L 285.309661 173.373858 
L 286.521058 174.007889 
L 287.732456 160.562196 
L 288.943853 179.9441 
L 290.155251 174.9733 
L 291.366649 235.016981 
L 292.578046 164.000385 
L 293.789444 156.368528 
L 295.000841 164.715393 
L 296.212239 172.032054 
L 297.423636 218.560061 
L 298.635034 161.614803 
L 299.846431 165.140172 
L 301.057829 177.469354 
L 302.269227 181.093006 
L 303.480624 162.623861 
L 304.692022 197.737824 
L 305.903419 174.929286 
L 307.114817 163.043037 
L 308.326214 173.004706 
L 309.537612 186.208606 
L 310.749009 190.050591 
L 311.960407 150.391739 
L 313.171805 166.084231 
L 314.383202 163.449913 
L 315.5946 172.716094 
L 316.805997 165.019126 
L 318.017395 166.639449 
L 319.228792 166.622377 
L 320.44019 211.991611 
L 321.651588 153.905534 
L 322.862985 169.405038 
L 324.074383 174.998786 
L 325.28578 168.875622 
L 326.497178 167.280976 
L 327.708575 157.747327 
L 328.919973 173.934968 
L 330.13137 184.231828 
L 331.342768 173.083953 
L 332.554166 202.256092 
L 333.765563 164.845002 
L 334.976961 216.557762 
L 336.188358 149.879942 
L 337.399756 175.693481 
L 338.611153 166.567615 
L 339.822551 151.652617 
L 341.033948 183.353943 
L 342.245346 170.110718 
L 343.456744 168.222 
L 344.668141 167.383654 
L 345.879539 201.004099 
L 347.090936 166.289374 
L 348.302334 169.59535 
L 349.513731 160.945568 
L 350.725129 156.066261 
L 351.936526 195.205918 
L 353.147924 187.174809 
L 354.359322 161.616293 
L 355.570719 180.683865 
L 356.782117 175.456515 
L 357.993514 161.917643 
L 359.204912 213.162662 
L 360.416309 161.784275 
L 361.627707 190.145598 
L 362.839104 158.809855 
L 364.050502 167.220473 
L 365.2619 171.851378 
L 366.473297 165.285415 
L 367.684695 160.921848 
L 368.896092 164.606467 
L 370.10749 164.223286 
L 371.318887 204.779492 
L 372.530285 158.904226 
L 373.741682 178.39504 
L 374.95308 177.041266 
L 376.164478 158.405112 
L 376.170931 313.120168 
L 376.170931 313.120168 
" style="fill:none;stroke:#1f77b4;stroke-linecap:square;stroke-width:1.5;"/>
    <defs>
     <path d="M 0 3 
C 0.795609 3 1.55874 2.683901 2.12132 2.12132 
C 2.683901 1.55874 3 0.795609 3 0 
C 3 -0.795609 2.683901 -1.55874 2.12132 -2.12132 
C 1.55874 -2.683901 0.795609 -3 0 -3 
C -0.795609 -3 -1.55874 -2.683901 -2.12132 -2.12132 
C -2.683901 -1.55874 -3 -0.795609 -3 0 
C -3 0.795609 -2.683901 1.55874 -2.12132 2.12132 
C -1.55874 2.683901 -0.795609 3 0 3 
z
" id="mb41fc1d0e6" style="stroke:#1f77b4;"/>
    </defs>
    <g clip-path="url(#pf15be60b3d)">
     <use style="fill:#1f77b4;stroke:#1f77b4;" x="53.932727" xlink:href="#mb41fc1d0e6" y="20.547918"/>
     <use style="fill:#1f77b4;stroke:#1f77b4;" x="55.144125" xlink:href="#mb41fc1d0e6" y="33.480486"/>
     <use style="fill:#1f77b4;stroke:#1f77b4;" x="56.355522" xlink:href="#mb41fc1d0e6" y="45.37595"/>
     <use style="fill:#1f77b4;stroke:#1f77b4;" x="57.56692" xlink:href="#mb41fc1d0e6" y="60.349695"/>
     <use style="fill:#1f77b4;stroke:#1f77b4;" x="58.778318" xlink:href="#mb41fc1d0e6" y="73.756406"/>
     <use style="fill:#1f77b4;stroke:#1f77b4;" x="59.989715" xlink:href="#mb41fc1d0e6" y="88.027233"/>
     <use style="fill:#1f77b4;stroke:#1f77b4;" x="61.201113" xlink:href="#mb41fc1d0e6" y="102.37084"/>
     <use style="fill:#1f77b4;stroke:#1f77b4;" x="62.41251" xlink:href="#mb41fc1d0e6" y="116.343295"/>
     <use style="fill:#1f77b4;stroke:#1f77b4;" x="63.623908" xlink:href="#mb41fc1d0e6" y="131.544602"/>
     <use style="fill:#1f77b4;stroke:#1f77b4;" x="64.835305" xlink:href="#mb41fc1d0e6" y="142.487698"/>
     <use style="fill:#1f77b4;stroke:#1f77b4;" x="66.046703" xlink:href="#mb41fc1d0e6" y="162.773307"/>
     <use style="fill:#1f77b4;stroke:#1f77b4;" x="67.2581" xlink:href="#mb41fc1d0e6" y="152.868283"/>
     <use style="fill:#1f77b4;stroke:#1f77b4;" x="68.469498" xlink:href="#mb41fc1d0e6" y="174.412553"/>
     <use style="fill:#1f77b4;stroke:#1f77b4;" x="69.680896" xlink:href="#mb41fc1d0e6" y="211.29133"/>
     <use style="fill:#1f77b4;stroke:#1f77b4;" x="70.892293" xlink:href="#mb41fc1d0e6" y="171.453114"/>
     <use style="fill:#1f77b4;stroke:#1f77b4;" x="72.103691" xlink:href="#mb41fc1d0e6" y="202.653504"/>
     <use style="fill:#1f77b4;stroke:#1f77b4;" x="73.315088" xlink:href="#mb41fc1d0e6" y="237.5062"/>
     <use style="fill:#1f77b4;stroke:#1f77b4;" x="74.526486" xlink:href="#mb41fc1d0e6" y="157.392825"/>
     <use style="fill:#1f77b4;stroke:#1f77b4;" x="75.737883" xlink:href="#mb41fc1d0e6" y="181.521023"/>
     <use style="fill:#1f77b4;stroke:#1f77b4;" x="76.949281" xlink:href="#mb41fc1d0e6" y="159.105186"/>
     <use style="fill:#1f77b4;stroke:#1f77b4;" x="78.160678" xlink:href="#mb41fc1d0e6" y="162.864781"/>
     <use style="fill:#1f77b4;stroke:#1f77b4;" x="79.372076" xlink:href="#mb41fc1d0e6" y="175.972161"/>
     <use style="fill:#1f77b4;stroke:#1f77b4;" x="80.583474" xlink:href="#mb41fc1d0e6" y="167.991355"/>
     <use style="fill:#1f77b4;stroke:#1f77b4;" x="81.794871" xlink:href="#mb41fc1d0e6" y="151.585733"/>
     <use style="fill:#1f77b4;stroke:#1f77b4;" x="83.006269" xlink:href="#mb41fc1d0e6" y="169.341987"/>
     <use style="fill:#1f77b4;stroke:#1f77b4;" x="84.217666" xlink:href="#mb41fc1d0e6" y="157.457044"/>
     <use style="fill:#1f77b4;stroke:#1f77b4;" x="85.429064" xlink:href="#mb41fc1d0e6" y="176.33162"/>
     <use style="fill:#1f77b4;stroke:#1f77b4;" x="86.640461" xlink:href="#mb41fc1d0e6" y="159.121847"/>
     <use style="fill:#1f77b4;stroke:#1f77b4;" x="87.851859" xlink:href="#mb41fc1d0e6" y="149.019208"/>
     <use style="fill:#1f77b4;stroke:#1f77b4;" x="89.063256" xlink:href="#mb41fc1d0e6" y="175.8715"/>
     <use style="fill:#1f77b4;stroke:#1f77b4;" x="90.274654" xlink:href="#mb41fc1d0e6" y="162.376742"/>
     <use style="fill:#1f77b4;stroke:#1f77b4;" x="91.486052" xlink:href="#mb41fc1d0e6" y="170.005926"/>
     <use style="fill:#1f77b4;stroke:#1f77b4;" x="92.697449" xlink:href="#mb41fc1d0e6" y="166.423073"/>
     <use style="fill:#1f77b4;stroke:#1f77b4;" x="93.908847" xlink:href="#mb41fc1d0e6" y="157.411394"/>
     <use style="fill:#1f77b4;stroke:#1f77b4;" x="95.120244" xlink:href="#mb41fc1d0e6" y="195.932195"/>
     <use style="fill:#1f77b4;stroke:#1f77b4;" x="96.331642" xlink:href="#mb41fc1d0e6" y="174.026821"/>
     <use style="fill:#1f77b4;stroke:#1f77b4;" x="97.543039" xlink:href="#mb41fc1d0e6" y="164.563748"/>
     <use style="fill:#1f77b4;stroke:#1f77b4;" x="98.754437" xlink:href="#mb41fc1d0e6" y="161.19408"/>
     <use style="fill:#1f77b4;stroke:#1f77b4;" x="99.965834" xlink:href="#mb41fc1d0e6" y="164.422252"/>
     <use style="fill:#1f77b4;stroke:#1f77b4;" x="101.177232" xlink:href="#mb41fc1d0e6" y="171.51628"/>
     <use style="fill:#1f77b4;stroke:#1f77b4;" x="102.38863" xlink:href="#mb41fc1d0e6" y="191.585549"/>
     <use style="fill:#1f77b4;stroke:#1f77b4;" x="103.600027" xlink:href="#mb41fc1d0e6" y="179.164429"/>
     <use style="fill:#1f77b4;stroke:#1f77b4;" x="104.811425" xlink:href="#mb41fc1d0e6" y="169.040856"/>
     <use style="fill:#1f77b4;stroke:#1f77b4;" x="106.022822" xlink:href="#mb41fc1d0e6" y="153.665507"/>
     <use style="fill:#1f77b4;stroke:#1f77b4;" x="107.23422" xlink:href="#mb41fc1d0e6" y="183.241756"/>
     <use style="fill:#1f77b4;stroke:#1f77b4;" x="108.445617" xlink:href="#mb41fc1d0e6" y="155.542479"/>
     <use style="fill:#1f77b4;stroke:#1f77b4;" x="109.657015" xlink:href="#mb41fc1d0e6" y="192.817211"/>
     <use style="fill:#1f77b4;stroke:#1f77b4;" x="110.868412" xlink:href="#mb41fc1d0e6" y="159.018615"/>
     <use style="fill:#1f77b4;stroke:#1f77b4;" x="112.07981" xlink:href="#mb41fc1d0e6" y="202.764731"/>
     <use style="fill:#1f77b4;stroke:#1f77b4;" x="113.291208" xlink:href="#mb41fc1d0e6" y="160.861402"/>
     <use style="fill:#1f77b4;stroke:#1f77b4;" x="114.502605" xlink:href="#mb41fc1d0e6" y="146.273972"/>
     <use style="fill:#1f77b4;stroke:#1f77b4;" x="115.714003" xlink:href="#mb41fc1d0e6" y="181.999509"/>
     <use style="fill:#1f77b4;stroke:#1f77b4;" x="116.9254" xlink:href="#mb41fc1d0e6" y="164.22228"/>
     <use style="fill:#1f77b4;stroke:#1f77b4;" x="118.136798" xlink:href="#mb41fc1d0e6" y="156.953146"/>
     <use style="fill:#1f77b4;stroke:#1f77b4;" x="119.348195" xlink:href="#mb41fc1d0e6" y="189.106448"/>
     <use style="fill:#1f77b4;stroke:#1f77b4;" x="120.559593" xlink:href="#mb41fc1d0e6" y="169.851895"/>
     <use style="fill:#1f77b4;stroke:#1f77b4;" x="121.770991" xlink:href="#mb41fc1d0e6" y="190.357549"/>
     <use style="fill:#1f77b4;stroke:#1f77b4;" x="122.982388" xlink:href="#mb41fc1d0e6" y="162.752731"/>
     <use style="fill:#1f77b4;stroke:#1f77b4;" x="124.193786" xlink:href="#mb41fc1d0e6" y="167.104711"/>
     <use style="fill:#1f77b4;stroke:#1f77b4;" x="125.405183" xlink:href="#mb41fc1d0e6" y="179.64529"/>
     <use style="fill:#1f77b4;stroke:#1f77b4;" x="126.616581" xlink:href="#mb41fc1d0e6" y="163.275333"/>
     <use style="fill:#1f77b4;stroke:#1f77b4;" x="127.827978" xlink:href="#mb41fc1d0e6" y="196.409046"/>
     <use style="fill:#1f77b4;stroke:#1f77b4;" x="129.039376" xlink:href="#mb41fc1d0e6" y="163.388201"/>
     <use style="fill:#1f77b4;stroke:#1f77b4;" x="130.250773" xlink:href="#mb41fc1d0e6" y="149.279289"/>
     <use style="fill:#1f77b4;stroke:#1f77b4;" x="131.462171" xlink:href="#mb41fc1d0e6" y="167.426072"/>
     <use style="fill:#1f77b4;stroke:#1f77b4;" x="132.673569" xlink:href="#mb41fc1d0e6" y="173.176643"/>
     <use style="fill:#1f77b4;stroke:#1f77b4;" x="133.884966" xlink:href="#mb41fc1d0e6" y="159.857227"/>
     <use style="fill:#1f77b4;stroke:#1f77b4;" x="135.096364" xlink:href="#mb41fc1d0e6" y="189.540516"/>
     <use style="fill:#1f77b4;stroke:#1f77b4;" x="136.307761" xlink:href="#mb41fc1d0e6" y="175.039388"/>
     <use style="fill:#1f77b4;stroke:#1f77b4;" x="137.519159" xlink:href="#mb41fc1d0e6" y="181.800304"/>
     <use style="fill:#1f77b4;stroke:#1f77b4;" x="138.730556" xlink:href="#mb41fc1d0e6" y="173.59661"/>
     <use style="fill:#1f77b4;stroke:#1f77b4;" x="139.941954" xlink:href="#mb41fc1d0e6" y="165.470116"/>
     <use style="fill:#1f77b4;stroke:#1f77b4;" x="141.153351" xlink:href="#mb41fc1d0e6" y="189.219507"/>
     <use style="fill:#1f77b4;stroke:#1f77b4;" x="142.364749" xlink:href="#mb41fc1d0e6" y="163.926743"/>
     <use style="fill:#1f77b4;stroke:#1f77b4;" x="143.576147" xlink:href="#mb41fc1d0e6" y="176.845912"/>
     <use style="fill:#1f77b4;stroke:#1f77b4;" x="144.787544" xlink:href="#mb41fc1d0e6" y="148.091639"/>
     <use style="fill:#1f77b4;stroke:#1f77b4;" x="145.998942" xlink:href="#mb41fc1d0e6" y="171.231268"/>
     <use style="fill:#1f77b4;stroke:#1f77b4;" x="147.210339" xlink:href="#mb41fc1d0e6" y="169.395061"/>
     <use style="fill:#1f77b4;stroke:#1f77b4;" x="148.421737" xlink:href="#mb41fc1d0e6" y="171.050783"/>
     <use style="fill:#1f77b4;stroke:#1f77b4;" x="149.633134" xlink:href="#mb41fc1d0e6" y="169.824424"/>
     <use style="fill:#1f77b4;stroke:#1f77b4;" x="150.844532" xlink:href="#mb41fc1d0e6" y="182.427103"/>
     <use style="fill:#1f77b4;stroke:#1f77b4;" x="152.055929" xlink:href="#mb41fc1d0e6" y="167.403801"/>
     <use style="fill:#1f77b4;stroke:#1f77b4;" x="153.267327" xlink:href="#mb41fc1d0e6" y="174.096607"/>
     <use style="fill:#1f77b4;stroke:#1f77b4;" x="154.478725" xlink:href="#mb41fc1d0e6" y="170.79776"/>
     <use style="fill:#1f77b4;stroke:#1f77b4;" x="155.690122" xlink:href="#mb41fc1d0e6" y="165.044974"/>
     <use style="fill:#1f77b4;stroke:#1f77b4;" x="156.90152" xlink:href="#mb41fc1d0e6" y="160.514244"/>
     <use style="fill:#1f77b4;stroke:#1f77b4;" x="158.112917" xlink:href="#mb41fc1d0e6" y="184.541703"/>
     <use style="fill:#1f77b4;stroke:#1f77b4;" x="159.324315" xlink:href="#mb41fc1d0e6" y="159.478119"/>
     <use style="fill:#1f77b4;stroke:#1f77b4;" x="160.535712" xlink:href="#mb41fc1d0e6" y="177.191869"/>
     <use style="fill:#1f77b4;stroke:#1f77b4;" x="161.74711" xlink:href="#mb41fc1d0e6" y="185.523916"/>
     <use style="fill:#1f77b4;stroke:#1f77b4;" x="162.958507" xlink:href="#mb41fc1d0e6" y="158.533925"/>
     <use style="fill:#1f77b4;stroke:#1f77b4;" x="164.169905" xlink:href="#mb41fc1d0e6" y="241.063062"/>
     <use style="fill:#1f77b4;stroke:#1f77b4;" x="165.381303" xlink:href="#mb41fc1d0e6" y="158.736704"/>
     <use style="fill:#1f77b4;stroke:#1f77b4;" x="166.5927" xlink:href="#mb41fc1d0e6" y="178.924669"/>
     <use style="fill:#1f77b4;stroke:#1f77b4;" x="167.804098" xlink:href="#mb41fc1d0e6" y="150.196208"/>
     <use style="fill:#1f77b4;stroke:#1f77b4;" x="169.015495" xlink:href="#mb41fc1d0e6" y="177.047521"/>
     <use style="fill:#1f77b4;stroke:#1f77b4;" x="170.226893" xlink:href="#mb41fc1d0e6" y="173.37395"/>
     <use style="fill:#1f77b4;stroke:#1f77b4;" x="171.43829" xlink:href="#mb41fc1d0e6" y="166.394179"/>
     <use style="fill:#1f77b4;stroke:#1f77b4;" x="172.649688" xlink:href="#mb41fc1d0e6" y="171.979208"/>
     <use style="fill:#1f77b4;stroke:#1f77b4;" x="173.861085" xlink:href="#mb41fc1d0e6" y="154.647729"/>
     <use style="fill:#1f77b4;stroke:#1f77b4;" x="175.072483" xlink:href="#mb41fc1d0e6" y="201.594646"/>
     <use style="fill:#1f77b4;stroke:#1f77b4;" x="176.283881" xlink:href="#mb41fc1d0e6" y="161.597975"/>
     <use style="fill:#1f77b4;stroke:#1f77b4;" x="177.495278" xlink:href="#mb41fc1d0e6" y="167.65835"/>
     <use style="fill:#1f77b4;stroke:#1f77b4;" x="178.706676" xlink:href="#mb41fc1d0e6" y="183.579978"/>
     <use style="fill:#1f77b4;stroke:#1f77b4;" x="179.918073" xlink:href="#mb41fc1d0e6" y="195.350079"/>
     <use style="fill:#1f77b4;stroke:#1f77b4;" x="181.129471" xlink:href="#mb41fc1d0e6" y="182.347715"/>
     <use style="fill:#1f77b4;stroke:#1f77b4;" x="182.340868" xlink:href="#mb41fc1d0e6" y="155.780029"/>
     <use style="fill:#1f77b4;stroke:#1f77b4;" x="183.552266" xlink:href="#mb41fc1d0e6" y="169.36559"/>
     <use style="fill:#1f77b4;stroke:#1f77b4;" x="184.763664" xlink:href="#mb41fc1d0e6" y="166.12199"/>
     <use style="fill:#1f77b4;stroke:#1f77b4;" x="185.975061" xlink:href="#mb41fc1d0e6" y="154.519118"/>
     <use style="fill:#1f77b4;stroke:#1f77b4;" x="187.186459" xlink:href="#mb41fc1d0e6" y="176.037989"/>
     <use style="fill:#1f77b4;stroke:#1f77b4;" x="188.397856" xlink:href="#mb41fc1d0e6" y="190.68407"/>
     <use style="fill:#1f77b4;stroke:#1f77b4;" x="189.609254" xlink:href="#mb41fc1d0e6" y="162.883483"/>
     <use style="fill:#1f77b4;stroke:#1f77b4;" x="190.820651" xlink:href="#mb41fc1d0e6" y="175.290338"/>
     <use style="fill:#1f77b4;stroke:#1f77b4;" x="192.032049" xlink:href="#mb41fc1d0e6" y="160.698399"/>
     <use style="fill:#1f77b4;stroke:#1f77b4;" x="193.243446" xlink:href="#mb41fc1d0e6" y="166.987354"/>
     <use style="fill:#1f77b4;stroke:#1f77b4;" x="194.454844" xlink:href="#mb41fc1d0e6" y="162.325182"/>
     <use style="fill:#1f77b4;stroke:#1f77b4;" x="195.666242" xlink:href="#mb41fc1d0e6" y="173.14876"/>
     <use style="fill:#1f77b4;stroke:#1f77b4;" x="196.877639" xlink:href="#mb41fc1d0e6" y="152.420448"/>
     <use style="fill:#1f77b4;stroke:#1f77b4;" x="198.089037" xlink:href="#mb41fc1d0e6" y="158.234366"/>
     <use style="fill:#1f77b4;stroke:#1f77b4;" x="199.300434" xlink:href="#mb41fc1d0e6" y="170.488827"/>
     <use style="fill:#1f77b4;stroke:#1f77b4;" x="200.511832" xlink:href="#mb41fc1d0e6" y="179.373011"/>
     <use style="fill:#1f77b4;stroke:#1f77b4;" x="201.723229" xlink:href="#mb41fc1d0e6" y="159.03851"/>
     <use style="fill:#1f77b4;stroke:#1f77b4;" x="202.934627" xlink:href="#mb41fc1d0e6" y="170.314495"/>
     <use style="fill:#1f77b4;stroke:#1f77b4;" x="204.146024" xlink:href="#mb41fc1d0e6" y="174.812122"/>
     <use style="fill:#1f77b4;stroke:#1f77b4;" x="205.357422" xlink:href="#mb41fc1d0e6" y="179.151394"/>
     <use style="fill:#1f77b4;stroke:#1f77b4;" x="206.56882" xlink:href="#mb41fc1d0e6" y="164.144084"/>
     <use style="fill:#1f77b4;stroke:#1f77b4;" x="207.780217" xlink:href="#mb41fc1d0e6" y="162.289527"/>
     <use style="fill:#1f77b4;stroke:#1f77b4;" x="208.991615" xlink:href="#mb41fc1d0e6" y="165.584775"/>
     <use style="fill:#1f77b4;stroke:#1f77b4;" x="210.203012" xlink:href="#mb41fc1d0e6" y="220.400479"/>
     <use style="fill:#1f77b4;stroke:#1f77b4;" x="211.41441" xlink:href="#mb41fc1d0e6" y="164.575272"/>
     <use style="fill:#1f77b4;stroke:#1f77b4;" x="212.625807" xlink:href="#mb41fc1d0e6" y="152.513634"/>
     <use style="fill:#1f77b4;stroke:#1f77b4;" x="213.837205" xlink:href="#mb41fc1d0e6" y="160.578604"/>
     <use style="fill:#1f77b4;stroke:#1f77b4;" x="215.048602" xlink:href="#mb41fc1d0e6" y="167.636751"/>
     <use style="fill:#1f77b4;stroke:#1f77b4;" x="216.26" xlink:href="#mb41fc1d0e6" y="169.020337"/>
     <use style="fill:#1f77b4;stroke:#1f77b4;" x="217.471398" xlink:href="#mb41fc1d0e6" y="170.479224"/>
     <use style="fill:#1f77b4;stroke:#1f77b4;" x="218.682795" xlink:href="#mb41fc1d0e6" y="156.394314"/>
     <use style="fill:#1f77b4;stroke:#1f77b4;" x="219.894193" xlink:href="#mb41fc1d0e6" y="185.29713"/>
     <use style="fill:#1f77b4;stroke:#1f77b4;" x="221.10559" xlink:href="#mb41fc1d0e6" y="161.200068"/>
     <use style="fill:#1f77b4;stroke:#1f77b4;" x="222.316988" xlink:href="#mb41fc1d0e6" y="154.413256"/>
     <use style="fill:#1f77b4;stroke:#1f77b4;" x="223.528385" xlink:href="#mb41fc1d0e6" y="187.657952"/>
     <use style="fill:#1f77b4;stroke:#1f77b4;" x="224.739783" xlink:href="#mb41fc1d0e6" y="162.699796"/>
     <use style="fill:#1f77b4;stroke:#1f77b4;" x="225.95118" xlink:href="#mb41fc1d0e6" y="199.007824"/>
     <use style="fill:#1f77b4;stroke:#1f77b4;" x="227.162578" xlink:href="#mb41fc1d0e6" y="200.63853"/>
     <use style="fill:#1f77b4;stroke:#1f77b4;" x="228.373976" xlink:href="#mb41fc1d0e6" y="171.848166"/>
     <use style="fill:#1f77b4;stroke:#1f77b4;" x="229.585373" xlink:href="#mb41fc1d0e6" y="156.793223"/>
     <use style="fill:#1f77b4;stroke:#1f77b4;" x="230.796771" xlink:href="#mb41fc1d0e6" y="183.179302"/>
     <use style="fill:#1f77b4;stroke:#1f77b4;" x="232.008168" xlink:href="#mb41fc1d0e6" y="163.36294"/>
     <use style="fill:#1f77b4;stroke:#1f77b4;" x="233.219566" xlink:href="#mb41fc1d0e6" y="167.082984"/>
     <use style="fill:#1f77b4;stroke:#1f77b4;" x="234.430963" xlink:href="#mb41fc1d0e6" y="164.839491"/>
     <use style="fill:#1f77b4;stroke:#1f77b4;" x="235.642361" xlink:href="#mb41fc1d0e6" y="159.909154"/>
     <use style="fill:#1f77b4;stroke:#1f77b4;" x="236.853758" xlink:href="#mb41fc1d0e6" y="178.481151"/>
     <use style="fill:#1f77b4;stroke:#1f77b4;" x="238.065156" xlink:href="#mb41fc1d0e6" y="158.160216"/>
     <use style="fill:#1f77b4;stroke:#1f77b4;" x="239.276554" xlink:href="#mb41fc1d0e6" y="189.815801"/>
     <use style="fill:#1f77b4;stroke:#1f77b4;" x="240.487951" xlink:href="#mb41fc1d0e6" y="172.145551"/>
     <use style="fill:#1f77b4;stroke:#1f77b4;" x="241.699349" xlink:href="#mb41fc1d0e6" y="187.257026"/>
     <use style="fill:#1f77b4;stroke:#1f77b4;" x="242.910746" xlink:href="#mb41fc1d0e6" y="168.652444"/>
     <use style="fill:#1f77b4;stroke:#1f77b4;" x="244.122144" xlink:href="#mb41fc1d0e6" y="156.361256"/>
     <use style="fill:#1f77b4;stroke:#1f77b4;" x="245.333541" xlink:href="#mb41fc1d0e6" y="195.511368"/>
     <use style="fill:#1f77b4;stroke:#1f77b4;" x="246.544939" xlink:href="#mb41fc1d0e6" y="165.151959"/>
     <use style="fill:#1f77b4;stroke:#1f77b4;" x="247.756336" xlink:href="#mb41fc1d0e6" y="167.052365"/>
     <use style="fill:#1f77b4;stroke:#1f77b4;" x="248.967734" xlink:href="#mb41fc1d0e6" y="156.266055"/>
     <use style="fill:#1f77b4;stroke:#1f77b4;" x="250.179132" xlink:href="#mb41fc1d0e6" y="191.722926"/>
     <use style="fill:#1f77b4;stroke:#1f77b4;" x="251.390529" xlink:href="#mb41fc1d0e6" y="179.70504"/>
     <use style="fill:#1f77b4;stroke:#1f77b4;" x="252.601927" xlink:href="#mb41fc1d0e6" y="162.37273"/>
     <use style="fill:#1f77b4;stroke:#1f77b4;" x="253.813324" xlink:href="#mb41fc1d0e6" y="187.30156"/>
     <use style="fill:#1f77b4;stroke:#1f77b4;" x="255.024722" xlink:href="#mb41fc1d0e6" y="153.012702"/>
     <use style="fill:#1f77b4;stroke:#1f77b4;" x="256.236119" xlink:href="#mb41fc1d0e6" y="169.799588"/>
     <use style="fill:#1f77b4;stroke:#1f77b4;" x="257.447517" xlink:href="#mb41fc1d0e6" y="163.318127"/>
     <use style="fill:#1f77b4;stroke:#1f77b4;" x="258.658915" xlink:href="#mb41fc1d0e6" y="168.511597"/>
     <use style="fill:#1f77b4;stroke:#1f77b4;" x="259.870312" xlink:href="#mb41fc1d0e6" y="152.662927"/>
     <use style="fill:#1f77b4;stroke:#1f77b4;" x="261.08171" xlink:href="#mb41fc1d0e6" y="174.595058"/>
     <use style="fill:#1f77b4;stroke:#1f77b4;" x="262.293107" xlink:href="#mb41fc1d0e6" y="166.472459"/>
     <use style="fill:#1f77b4;stroke:#1f77b4;" x="263.504505" xlink:href="#mb41fc1d0e6" y="158.00573"/>
     <use style="fill:#1f77b4;stroke:#1f77b4;" x="264.715902" xlink:href="#mb41fc1d0e6" y="168.522535"/>
     <use style="fill:#1f77b4;stroke:#1f77b4;" x="265.9273" xlink:href="#mb41fc1d0e6" y="172.78745"/>
     <use style="fill:#1f77b4;stroke:#1f77b4;" x="267.138697" xlink:href="#mb41fc1d0e6" y="164.407716"/>
     <use style="fill:#1f77b4;stroke:#1f77b4;" x="268.350095" xlink:href="#mb41fc1d0e6" y="167.843562"/>
     <use style="fill:#1f77b4;stroke:#1f77b4;" x="269.561493" xlink:href="#mb41fc1d0e6" y="172.698957"/>
     <use style="fill:#1f77b4;stroke:#1f77b4;" x="270.77289" xlink:href="#mb41fc1d0e6" y="164.251722"/>
     <use style="fill:#1f77b4;stroke:#1f77b4;" x="271.984288" xlink:href="#mb41fc1d0e6" y="175.401189"/>
     <use style="fill:#1f77b4;stroke:#1f77b4;" x="273.195685" xlink:href="#mb41fc1d0e6" y="158.309478"/>
     <use style="fill:#1f77b4;stroke:#1f77b4;" x="274.407083" xlink:href="#mb41fc1d0e6" y="164.012258"/>
     <use style="fill:#1f77b4;stroke:#1f77b4;" x="275.61848" xlink:href="#mb41fc1d0e6" y="196.445703"/>
     <use style="fill:#1f77b4;stroke:#1f77b4;" x="276.829878" xlink:href="#mb41fc1d0e6" y="168.740953"/>
     <use style="fill:#1f77b4;stroke:#1f77b4;" x="278.041275" xlink:href="#mb41fc1d0e6" y="167.197803"/>
     <use style="fill:#1f77b4;stroke:#1f77b4;" x="279.252673" xlink:href="#mb41fc1d0e6" y="168.431151"/>
     <use style="fill:#1f77b4;stroke:#1f77b4;" x="280.464071" xlink:href="#mb41fc1d0e6" y="163.399256"/>
     <use style="fill:#1f77b4;stroke:#1f77b4;" x="281.675468" xlink:href="#mb41fc1d0e6" y="262.467918"/>
     <use style="fill:#1f77b4;stroke:#1f77b4;" x="282.886866" xlink:href="#mb41fc1d0e6" y="168.516526"/>
     <use style="fill:#1f77b4;stroke:#1f77b4;" x="284.098263" xlink:href="#mb41fc1d0e6" y="165.089923"/>
     <use style="fill:#1f77b4;stroke:#1f77b4;" x="285.309661" xlink:href="#mb41fc1d0e6" y="173.373858"/>
     <use style="fill:#1f77b4;stroke:#1f77b4;" x="286.521058" xlink:href="#mb41fc1d0e6" y="174.007889"/>
     <use style="fill:#1f77b4;stroke:#1f77b4;" x="287.732456" xlink:href="#mb41fc1d0e6" y="160.562196"/>
     <use style="fill:#1f77b4;stroke:#1f77b4;" x="288.943853" xlink:href="#mb41fc1d0e6" y="179.9441"/>
     <use style="fill:#1f77b4;stroke:#1f77b4;" x="290.155251" xlink:href="#mb41fc1d0e6" y="174.9733"/>
     <use style="fill:#1f77b4;stroke:#1f77b4;" x="291.366649" xlink:href="#mb41fc1d0e6" y="235.016981"/>
     <use style="fill:#1f77b4;stroke:#1f77b4;" x="292.578046" xlink:href="#mb41fc1d0e6" y="164.000385"/>
     <use style="fill:#1f77b4;stroke:#1f77b4;" x="293.789444" xlink:href="#mb41fc1d0e6" y="156.368528"/>
     <use style="fill:#1f77b4;stroke:#1f77b4;" x="295.000841" xlink:href="#mb41fc1d0e6" y="164.715393"/>
     <use style="fill:#1f77b4;stroke:#1f77b4;" x="296.212239" xlink:href="#mb41fc1d0e6" y="172.032054"/>
     <use style="fill:#1f77b4;stroke:#1f77b4;" x="297.423636" xlink:href="#mb41fc1d0e6" y="218.560061"/>
     <use style="fill:#1f77b4;stroke:#1f77b4;" x="298.635034" xlink:href="#mb41fc1d0e6" y="161.614803"/>
     <use style="fill:#1f77b4;stroke:#1f77b4;" x="299.846431" xlink:href="#mb41fc1d0e6" y="165.140172"/>
     <use style="fill:#1f77b4;stroke:#1f77b4;" x="301.057829" xlink:href="#mb41fc1d0e6" y="177.469354"/>
     <use style="fill:#1f77b4;stroke:#1f77b4;" x="302.269227" xlink:href="#mb41fc1d0e6" y="181.093006"/>
     <use style="fill:#1f77b4;stroke:#1f77b4;" x="303.480624" xlink:href="#mb41fc1d0e6" y="162.623861"/>
     <use style="fill:#1f77b4;stroke:#1f77b4;" x="304.692022" xlink:href="#mb41fc1d0e6" y="197.737824"/>
     <use style="fill:#1f77b4;stroke:#1f77b4;" x="305.903419" xlink:href="#mb41fc1d0e6" y="174.929286"/>
     <use style="fill:#1f77b4;stroke:#1f77b4;" x="307.114817" xlink:href="#mb41fc1d0e6" y="163.043037"/>
     <use style="fill:#1f77b4;stroke:#1f77b4;" x="308.326214" xlink:href="#mb41fc1d0e6" y="173.004706"/>
     <use style="fill:#1f77b4;stroke:#1f77b4;" x="309.537612" xlink:href="#mb41fc1d0e6" y="186.208606"/>
     <use style="fill:#1f77b4;stroke:#1f77b4;" x="310.749009" xlink:href="#mb41fc1d0e6" y="190.050591"/>
     <use style="fill:#1f77b4;stroke:#1f77b4;" x="311.960407" xlink:href="#mb41fc1d0e6" y="150.391739"/>
     <use style="fill:#1f77b4;stroke:#1f77b4;" x="313.171805" xlink:href="#mb41fc1d0e6" y="166.084231"/>
     <use style="fill:#1f77b4;stroke:#1f77b4;" x="314.383202" xlink:href="#mb41fc1d0e6" y="163.449913"/>
     <use style="fill:#1f77b4;stroke:#1f77b4;" x="315.5946" xlink:href="#mb41fc1d0e6" y="172.716094"/>
     <use style="fill:#1f77b4;stroke:#1f77b4;" x="316.805997" xlink:href="#mb41fc1d0e6" y="165.019126"/>
     <use style="fill:#1f77b4;stroke:#1f77b4;" x="318.017395" xlink:href="#mb41fc1d0e6" y="166.639449"/>
     <use style="fill:#1f77b4;stroke:#1f77b4;" x="319.228792" xlink:href="#mb41fc1d0e6" y="166.622377"/>
     <use style="fill:#1f77b4;stroke:#1f77b4;" x="320.44019" xlink:href="#mb41fc1d0e6" y="211.991611"/>
     <use style="fill:#1f77b4;stroke:#1f77b4;" x="321.651588" xlink:href="#mb41fc1d0e6" y="153.905534"/>
     <use style="fill:#1f77b4;stroke:#1f77b4;" x="322.862985" xlink:href="#mb41fc1d0e6" y="169.405038"/>
     <use style="fill:#1f77b4;stroke:#1f77b4;" x="324.074383" xlink:href="#mb41fc1d0e6" y="174.998786"/>
     <use style="fill:#1f77b4;stroke:#1f77b4;" x="325.28578" xlink:href="#mb41fc1d0e6" y="168.875622"/>
     <use style="fill:#1f77b4;stroke:#1f77b4;" x="326.497178" xlink:href="#mb41fc1d0e6" y="167.280976"/>
     <use style="fill:#1f77b4;stroke:#1f77b4;" x="327.708575" xlink:href="#mb41fc1d0e6" y="157.747327"/>
     <use style="fill:#1f77b4;stroke:#1f77b4;" x="328.919973" xlink:href="#mb41fc1d0e6" y="173.934968"/>
     <use style="fill:#1f77b4;stroke:#1f77b4;" x="330.13137" xlink:href="#mb41fc1d0e6" y="184.231828"/>
     <use style="fill:#1f77b4;stroke:#1f77b4;" x="331.342768" xlink:href="#mb41fc1d0e6" y="173.083953"/>
     <use style="fill:#1f77b4;stroke:#1f77b4;" x="332.554166" xlink:href="#mb41fc1d0e6" y="202.256092"/>
     <use style="fill:#1f77b4;stroke:#1f77b4;" x="333.765563" xlink:href="#mb41fc1d0e6" y="164.845002"/>
     <use style="fill:#1f77b4;stroke:#1f77b4;" x="334.976961" xlink:href="#mb41fc1d0e6" y="216.557762"/>
     <use style="fill:#1f77b4;stroke:#1f77b4;" x="336.188358" xlink:href="#mb41fc1d0e6" y="149.879942"/>
     <use style="fill:#1f77b4;stroke:#1f77b4;" x="337.399756" xlink:href="#mb41fc1d0e6" y="175.693481"/>
     <use style="fill:#1f77b4;stroke:#1f77b4;" x="338.611153" xlink:href="#mb41fc1d0e6" y="166.567615"/>
     <use style="fill:#1f77b4;stroke:#1f77b4;" x="339.822551" xlink:href="#mb41fc1d0e6" y="151.652617"/>
     <use style="fill:#1f77b4;stroke:#1f77b4;" x="341.033948" xlink:href="#mb41fc1d0e6" y="183.353943"/>
     <use style="fill:#1f77b4;stroke:#1f77b4;" x="342.245346" xlink:href="#mb41fc1d0e6" y="170.110718"/>
     <use style="fill:#1f77b4;stroke:#1f77b4;" x="343.456744" xlink:href="#mb41fc1d0e6" y="168.222"/>
     <use style="fill:#1f77b4;stroke:#1f77b4;" x="344.668141" xlink:href="#mb41fc1d0e6" y="167.383654"/>
     <use style="fill:#1f77b4;stroke:#1f77b4;" x="345.879539" xlink:href="#mb41fc1d0e6" y="201.004099"/>
     <use style="fill:#1f77b4;stroke:#1f77b4;" x="347.090936" xlink:href="#mb41fc1d0e6" y="166.289374"/>
     <use style="fill:#1f77b4;stroke:#1f77b4;" x="348.302334" xlink:href="#mb41fc1d0e6" y="169.59535"/>
     <use style="fill:#1f77b4;stroke:#1f77b4;" x="349.513731" xlink:href="#mb41fc1d0e6" y="160.945568"/>
     <use style="fill:#1f77b4;stroke:#1f77b4;" x="350.725129" xlink:href="#mb41fc1d0e6" y="156.066261"/>
     <use style="fill:#1f77b4;stroke:#1f77b4;" x="351.936526" xlink:href="#mb41fc1d0e6" y="195.205918"/>
     <use style="fill:#1f77b4;stroke:#1f77b4;" x="353.147924" xlink:href="#mb41fc1d0e6" y="187.174809"/>
     <use style="fill:#1f77b4;stroke:#1f77b4;" x="354.359322" xlink:href="#mb41fc1d0e6" y="161.616293"/>
     <use style="fill:#1f77b4;stroke:#1f77b4;" x="355.570719" xlink:href="#mb41fc1d0e6" y="180.683865"/>
     <use style="fill:#1f77b4;stroke:#1f77b4;" x="356.782117" xlink:href="#mb41fc1d0e6" y="175.456515"/>
     <use style="fill:#1f77b4;stroke:#1f77b4;" x="357.993514" xlink:href="#mb41fc1d0e6" y="161.917643"/>
     <use style="fill:#1f77b4;stroke:#1f77b4;" x="359.204912" xlink:href="#mb41fc1d0e6" y="213.162662"/>
     <use style="fill:#1f77b4;stroke:#1f77b4;" x="360.416309" xlink:href="#mb41fc1d0e6" y="161.784275"/>
     <use style="fill:#1f77b4;stroke:#1f77b4;" x="361.627707" xlink:href="#mb41fc1d0e6" y="190.145598"/>
     <use style="fill:#1f77b4;stroke:#1f77b4;" x="362.839104" xlink:href="#mb41fc1d0e6" y="158.809855"/>
     <use style="fill:#1f77b4;stroke:#1f77b4;" x="364.050502" xlink:href="#mb41fc1d0e6" y="167.220473"/>
     <use style="fill:#1f77b4;stroke:#1f77b4;" x="365.2619" xlink:href="#mb41fc1d0e6" y="171.851378"/>
     <use style="fill:#1f77b4;stroke:#1f77b4;" x="366.473297" xlink:href="#mb41fc1d0e6" y="165.285415"/>
     <use style="fill:#1f77b4;stroke:#1f77b4;" x="367.684695" xlink:href="#mb41fc1d0e6" y="160.921848"/>
     <use style="fill:#1f77b4;stroke:#1f77b4;" x="368.896092" xlink:href="#mb41fc1d0e6" y="164.606467"/>
     <use style="fill:#1f77b4;stroke:#1f77b4;" x="370.10749" xlink:href="#mb41fc1d0e6" y="164.223286"/>
     <use style="fill:#1f77b4;stroke:#1f77b4;" x="371.318887" xlink:href="#mb41fc1d0e6" y="204.779492"/>
     <use style="fill:#1f77b4;stroke:#1f77b4;" x="372.530285" xlink:href="#mb41fc1d0e6" y="158.904226"/>
     <use style="fill:#1f77b4;stroke:#1f77b4;" x="373.741682" xlink:href="#mb41fc1d0e6" y="178.39504"/>
     <use style="fill:#1f77b4;stroke:#1f77b4;" x="374.95308" xlink:href="#mb41fc1d0e6" y="177.041266"/>
     <use style="fill:#1f77b4;stroke:#1f77b4;" x="376.164478" xlink:href="#mb41fc1d0e6" y="158.405112"/>
     <use style="fill:#1f77b4;stroke:#1f77b4;" x="377.09532" xlink:href="#mb41fc1d0e6" y="22473.652111"/>
    </g>
   </g>
   <g id="line2d_13">
    <path clip-path="url(#pf15be60b3d)" d="M 53.932727 20.547918 
L 55.144125 33.480486 
L 56.355522 45.37595 
L 57.56692 60.349695 
L 58.778318 73.756406 
L 59.989715 88.027233 
L 61.201113 102.37084 
L 62.41251 116.343295 
L 63.623908 131.544602 
L 64.835305 142.487698 
" style="fill:none;stroke:#2ca02c;stroke-dasharray:1.5,2.475;stroke-dashoffset:0;stroke-width:1.5;"/>
    <defs>
     <path d="M -3 3 
L 3 -3 
M -3 -3 
L 3 3 
" id="m3d9ee457e9" style="stroke:#2ca02c;"/>
    </defs>
    <g clip-path="url(#pf15be60b3d)">
     <use style="fill:#2ca02c;stroke:#2ca02c;" x="53.932727" xlink:href="#m3d9ee457e9" y="20.547918"/>
     <use style="fill:#2ca02c;stroke:#2ca02c;" x="55.144125" xlink:href="#m3d9ee457e9" y="33.480486"/>
     <use style="fill:#2ca02c;stroke:#2ca02c;" x="56.355522" xlink:href="#m3d9ee457e9" y="45.37595"/>
     <use style="fill:#2ca02c;stroke:#2ca02c;" x="57.56692" xlink:href="#m3d9ee457e9" y="60.349695"/>
     <use style="fill:#2ca02c;stroke:#2ca02c;" x="58.778318" xlink:href="#m3d9ee457e9" y="73.756406"/>
     <use style="fill:#2ca02c;stroke:#2ca02c;" x="59.989715" xlink:href="#m3d9ee457e9" y="88.027233"/>
     <use style="fill:#2ca02c;stroke:#2ca02c;" x="61.201113" xlink:href="#m3d9ee457e9" y="102.37084"/>
     <use style="fill:#2ca02c;stroke:#2ca02c;" x="62.41251" xlink:href="#m3d9ee457e9" y="116.343295"/>
     <use style="fill:#2ca02c;stroke:#2ca02c;" x="63.623908" xlink:href="#m3d9ee457e9" y="131.544602"/>
     <use style="fill:#2ca02c;stroke:#2ca02c;" x="64.835305" xlink:href="#m3d9ee457e9" y="142.487698"/>
    </g>
   </g>
   <g id="line2d_14">
    <path clip-path="url(#pf15be60b3d)" d="M 55.144125 83.072192 
L 75.319885 313.120168 
L 75.319885 313.120168 
" style="fill:none;stroke:#000000;stroke-dasharray:5.55,2.4;stroke-dashoffset:0;stroke-width:1.5;"/>
   </g>
   <g id="patch_3">
    <path d="M 37.7 274.563918 
L 37.7 8.451918 
" style="fill:none;stroke:#000000;stroke-linecap:square;stroke-linejoin:miter;stroke-width:0.8;"/>
   </g>
   <g id="patch_4">
    <path d="M 394.82 274.563918 
L 394.82 8.451918 
" style="fill:none;stroke:#000000;stroke-linecap:square;stroke-linejoin:miter;stroke-width:0.8;"/>
   </g>
   <g id="patch_5">
    <path d="M 37.7 274.563918 
L 394.82 274.563918 
" style="fill:none;stroke:#000000;stroke-linecap:square;stroke-linejoin:miter;stroke-width:0.8;"/>
   </g>
   <g id="patch_6">
    <path d="M 37.7 8.451918 
L 394.82 8.451918 
" style="fill:none;stroke:#000000;stroke-linecap:square;stroke-linejoin:miter;stroke-width:0.8;"/>
   </g>
   <g id="legend_1">
    <g id="patch_7">
     <path d="M 286.92 60.508168 
L 387.82 60.508168 
Q 389.82 60.508168 389.82 58.508168 
L 389.82 15.451918 
Q 389.82 13.451918 387.82 13.451918 
L 286.92 13.451918 
Q 284.92 13.451918 284.92 15.451918 
L 284.92 58.508168 
Q 284.92 60.508168 286.92 60.508168 
z
" style="fill:#ffffff;opacity:0.8;"/>
    </g>
    <g id="line2d_15">
     <path d="M 288.92 21.550356 
L 308.92 21.550356 
" style="fill:none;stroke:#1f77b4;stroke-linecap:square;stroke-width:1.5;"/>
    </g>
    <g id="line2d_16">
     <g>
      <use style="fill:#1f77b4;stroke:#1f77b4;" x="298.92" xlink:href="#mb41fc1d0e6" y="21.550356"/>
     </g>
    </g>
    <g id="text_13">
     <!-- APD$_n$ - APD$_\infty$ -->
     <defs>
      <path d="M 34.1875 63.1875 
L 20.796875 26.90625 
L 47.609375 26.90625 
z
M 28.609375 72.90625 
L 39.796875 72.90625 
L 67.578125 0 
L 57.328125 0 
L 50.6875 18.703125 
L 17.828125 18.703125 
L 11.1875 0 
L 0.78125 0 
z
" id="DejaVuSans-65"/>
      <path d="M 19.671875 64.796875 
L 19.671875 37.40625 
L 32.078125 37.40625 
Q 38.96875 37.40625 42.71875 40.96875 
Q 46.484375 44.53125 46.484375 51.125 
Q 46.484375 57.671875 42.71875 61.234375 
Q 38.96875 64.796875 32.078125 64.796875 
z
M 9.8125 72.90625 
L 32.078125 72.90625 
Q 44.34375 72.90625 50.609375 67.359375 
Q 56.890625 61.8125 56.890625 51.125 
Q 56.890625 40.328125 50.609375 34.8125 
Q 44.34375 29.296875 32.078125 29.296875 
L 19.671875 29.296875 
L 19.671875 0 
L 9.8125 0 
z
" id="DejaVuSans-80"/>
      <path d="M 19.671875 64.796875 
L 19.671875 8.109375 
L 31.59375 8.109375 
Q 46.6875 8.109375 53.6875 14.9375 
Q 60.6875 21.78125 60.6875 36.53125 
Q 60.6875 51.171875 53.6875 57.984375 
Q 46.6875 64.796875 31.59375 64.796875 
z
M 9.8125 72.90625 
L 30.078125 72.90625 
Q 51.265625 72.90625 61.171875 64.09375 
Q 71.09375 55.28125 71.09375 36.53125 
Q 71.09375 17.671875 61.125 8.828125 
Q 51.171875 0 30.078125 0 
L 9.8125 0 
z
" id="DejaVuSans-68"/>
      <path d="M 55.71875 33.015625 
L 49.3125 0 
L 40.28125 0 
L 46.6875 32.671875 
Q 47.125 34.96875 47.359375 36.71875 
Q 47.609375 38.484375 47.609375 39.5 
Q 47.609375 43.609375 45.015625 45.890625 
Q 42.4375 48.1875 37.796875 48.1875 
Q 30.5625 48.1875 25.34375 43.375 
Q 20.125 38.578125 18.5 30.328125 
L 12.5 0 
L 3.515625 0 
L 14.109375 54.6875 
L 23.09375 54.6875 
L 21.296875 46.09375 
Q 25.046875 50.828125 30.3125 53.40625 
Q 35.59375 56 41.40625 56 
Q 48.640625 56 52.609375 52.09375 
Q 56.59375 48.1875 56.59375 41.109375 
Q 56.59375 39.359375 56.375 37.359375 
Q 56.15625 35.359375 55.71875 33.015625 
z
" id="DejaVuSans-Oblique-110"/>
      <path id="DejaVuSans-32"/>
      <path d="M 4.890625 31.390625 
L 31.203125 31.390625 
L 31.203125 23.390625 
L 4.890625 23.390625 
z
" id="DejaVuSans-45"/>
      <path d="M 45.5625 17.046875 
Q 44.046875 18.796875 41.65625 22.90625 
Q 38.375 17.046875 35.5 14.453125 
Q 31.890625 11.328125 26.265625 11.328125 
Q 19.671875 11.328125 15.328125 16.265625 
Q 10.75 21.4375 10.75 29.984375 
Q 10.75 38.1875 15.328125 43.75 
Q 19.4375 48.6875 26.375 48.6875 
Q 29.9375 48.6875 32.5625 47.21875 
Q 35.640625 45.609375 37.75 42.828125 
Q 39.703125 40.328125 41.65625 36.96875 
Q 44.921875 42.828125 47.796875 45.40625 
Q 51.421875 48.53125 57.03125 48.53125 
Q 63.625 48.53125 67.96875 43.609375 
Q 72.5625 38.421875 72.5625 29.890625 
Q 72.5625 21.6875 67.96875 16.109375 
Q 63.875 11.1875 56.9375 11.1875 
Q 53.375 11.1875 50.734375 12.640625 
Q 48.09375 13.96875 45.5625 17.046875 
z
M 25.734375 17.71875 
Q 33.796875 17.71875 38.625 29.4375 
Q 32.421875 42.234375 25.734375 42.234375 
Q 20.84375 42.234375 18.359375 38.71875 
Q 15.671875 34.96875 15.671875 29.984375 
Q 15.671875 24.515625 18.359375 21.140625 
Q 21.09375 17.71875 25.734375 17.71875 
z
M 57.5625 42.140625 
Q 50.296875 42.140625 44.671875 30.421875 
Q 50.828125 17.625 57.5625 17.625 
Q 62.453125 17.625 64.9375 21.140625 
Q 67.625 24.90625 67.625 29.890625 
Q 67.625 35.359375 64.9375 38.71875 
Q 62.203125 42.140625 57.5625 42.140625 
z
" id="DejaVuSans-8734"/>
     </defs>
     <g transform="translate(316.92 25.050356)scale(0.1 -0.1)">
      <use transform="translate(0 0.09375)" xlink:href="#DejaVuSans-65"/>
      <use transform="translate(68.408203 0.09375)" xlink:href="#DejaVuSans-80"/>
      <use transform="translate(128.710938 0.09375)" xlink:href="#DejaVuSans-68"/>
      <use transform="translate(206.669922 -16.3125)scale(0.7)" xlink:href="#DejaVuSans-Oblique-110"/>
      <use transform="translate(253.769531 0.09375)" xlink:href="#DejaVuSans-32"/>
      <use transform="translate(285.556641 0.09375)" xlink:href="#DejaVuSans-45"/>
      <use transform="translate(321.640625 0.09375)" xlink:href="#DejaVuSans-32"/>
      <use transform="translate(353.427734 0.09375)" xlink:href="#DejaVuSans-65"/>
      <use transform="translate(421.835938 0.09375)" xlink:href="#DejaVuSans-80"/>
      <use transform="translate(482.138672 0.09375)" xlink:href="#DejaVuSans-68"/>
      <use transform="translate(560.097656 -16.3125)scale(0.7)" xlink:href="#DejaVuSans-8734"/>
     </g>
    </g>
    <g id="line2d_17">
     <path d="M 288.92 36.228481 
L 308.92 36.228481 
" style="fill:none;stroke:#2ca02c;stroke-dasharray:1.5,2.475;stroke-dashoffset:0;stroke-width:1.5;"/>
    </g>
    <g id="line2d_18">
     <g>
      <use style="fill:#2ca02c;stroke:#2ca02c;" x="298.92" xlink:href="#m3d9ee457e9" y="36.228481"/>
     </g>
    </g>
    <g id="text_14">
     <!-- linear region -->
     <defs>
      <path d="M 9.421875 75.984375 
L 18.40625 75.984375 
L 18.40625 0 
L 9.421875 0 
z
" id="DejaVuSans-108"/>
      <path d="M 9.421875 54.6875 
L 18.40625 54.6875 
L 18.40625 0 
L 9.421875 0 
z
M 9.421875 75.984375 
L 18.40625 75.984375 
L 18.40625 64.59375 
L 9.421875 64.59375 
z
" id="DejaVuSans-105"/>
      <path d="M 54.890625 33.015625 
L 54.890625 0 
L 45.90625 0 
L 45.90625 32.71875 
Q 45.90625 40.484375 42.875 44.328125 
Q 39.84375 48.1875 33.796875 48.1875 
Q 26.515625 48.1875 22.3125 43.546875 
Q 18.109375 38.921875 18.109375 30.90625 
L 18.109375 0 
L 9.078125 0 
L 9.078125 54.6875 
L 18.109375 54.6875 
L 18.109375 46.1875 
Q 21.34375 51.125 25.703125 53.5625 
Q 30.078125 56 35.796875 56 
Q 45.21875 56 50.046875 50.171875 
Q 54.890625 44.34375 54.890625 33.015625 
z
" id="DejaVuSans-110"/>
      <path d="M 56.203125 29.59375 
L 56.203125 25.203125 
L 14.890625 25.203125 
Q 15.484375 15.921875 20.484375 11.0625 
Q 25.484375 6.203125 34.421875 6.203125 
Q 39.59375 6.203125 44.453125 7.46875 
Q 49.3125 8.734375 54.109375 11.28125 
L 54.109375 2.78125 
Q 49.265625 0.734375 44.1875 -0.34375 
Q 39.109375 -1.421875 33.890625 -1.421875 
Q 20.796875 -1.421875 13.15625 6.1875 
Q 5.515625 13.8125 5.515625 26.8125 
Q 5.515625 40.234375 12.765625 48.109375 
Q 20.015625 56 32.328125 56 
Q 43.359375 56 49.78125 48.890625 
Q 56.203125 41.796875 56.203125 29.59375 
z
M 47.21875 32.234375 
Q 47.125 39.59375 43.09375 43.984375 
Q 39.0625 48.390625 32.421875 48.390625 
Q 24.90625 48.390625 20.390625 44.140625 
Q 15.875 39.890625 15.1875 32.171875 
z
" id="DejaVuSans-101"/>
      <path d="M 34.28125 27.484375 
Q 23.390625 27.484375 19.1875 25 
Q 14.984375 22.515625 14.984375 16.5 
Q 14.984375 11.71875 18.140625 8.90625 
Q 21.296875 6.109375 26.703125 6.109375 
Q 34.1875 6.109375 38.703125 11.40625 
Q 43.21875 16.703125 43.21875 25.484375 
L 43.21875 27.484375 
z
M 52.203125 31.203125 
L 52.203125 0 
L 43.21875 0 
L 43.21875 8.296875 
Q 40.140625 3.328125 35.546875 0.953125 
Q 30.953125 -1.421875 24.3125 -1.421875 
Q 15.921875 -1.421875 10.953125 3.296875 
Q 6 8.015625 6 15.921875 
Q 6 25.140625 12.171875 29.828125 
Q 18.359375 34.515625 30.609375 34.515625 
L 43.21875 34.515625 
L 43.21875 35.40625 
Q 43.21875 41.609375 39.140625 45 
Q 35.0625 48.390625 27.6875 48.390625 
Q 23 48.390625 18.546875 47.265625 
Q 14.109375 46.140625 10.015625 43.890625 
L 10.015625 52.203125 
Q 14.9375 54.109375 19.578125 55.046875 
Q 24.21875 56 28.609375 56 
Q 40.484375 56 46.34375 49.84375 
Q 52.203125 43.703125 52.203125 31.203125 
z
" id="DejaVuSans-97"/>
      <path d="M 41.109375 46.296875 
Q 39.59375 47.171875 37.8125 47.578125 
Q 36.03125 48 33.890625 48 
Q 26.265625 48 22.1875 43.046875 
Q 18.109375 38.09375 18.109375 28.8125 
L 18.109375 0 
L 9.078125 0 
L 9.078125 54.6875 
L 18.109375 54.6875 
L 18.109375 46.1875 
Q 20.953125 51.171875 25.484375 53.578125 
Q 30.03125 56 36.53125 56 
Q 37.453125 56 38.578125 55.875 
Q 39.703125 55.765625 41.0625 55.515625 
z
" id="DejaVuSans-114"/>
      <path d="M 45.40625 27.984375 
Q 45.40625 37.75 41.375 43.109375 
Q 37.359375 48.484375 30.078125 48.484375 
Q 22.859375 48.484375 18.828125 43.109375 
Q 14.796875 37.75 14.796875 27.984375 
Q 14.796875 18.265625 18.828125 12.890625 
Q 22.859375 7.515625 30.078125 7.515625 
Q 37.359375 7.515625 41.375 12.890625 
Q 45.40625 18.265625 45.40625 27.984375 
z
M 54.390625 6.78125 
Q 54.390625 -7.171875 48.1875 -13.984375 
Q 42 -20.796875 29.203125 -20.796875 
Q 24.46875 -20.796875 20.265625 -20.09375 
Q 16.0625 -19.390625 12.109375 -17.921875 
L 12.109375 -9.1875 
Q 16.0625 -11.328125 19.921875 -12.34375 
Q 23.78125 -13.375 27.78125 -13.375 
Q 36.625 -13.375 41.015625 -8.765625 
Q 45.40625 -4.15625 45.40625 5.171875 
L 45.40625 9.625 
Q 42.625 4.78125 38.28125 2.390625 
Q 33.9375 0 27.875 0 
Q 17.828125 0 11.671875 7.65625 
Q 5.515625 15.328125 5.515625 27.984375 
Q 5.515625 40.671875 11.671875 48.328125 
Q 17.828125 56 27.875 56 
Q 33.9375 56 38.28125 53.609375 
Q 42.625 51.21875 45.40625 46.390625 
L 45.40625 54.6875 
L 54.390625 54.6875 
z
" id="DejaVuSans-103"/>
      <path d="M 30.609375 48.390625 
Q 23.390625 48.390625 19.1875 42.75 
Q 14.984375 37.109375 14.984375 27.296875 
Q 14.984375 17.484375 19.15625 11.84375 
Q 23.34375 6.203125 30.609375 6.203125 
Q 37.796875 6.203125 41.984375 11.859375 
Q 46.1875 17.53125 46.1875 27.296875 
Q 46.1875 37.015625 41.984375 42.703125 
Q 37.796875 48.390625 30.609375 48.390625 
z
M 30.609375 56 
Q 42.328125 56 49.015625 48.375 
Q 55.71875 40.765625 55.71875 27.296875 
Q 55.71875 13.875 49.015625 6.21875 
Q 42.328125 -1.421875 30.609375 -1.421875 
Q 18.84375 -1.421875 12.171875 6.21875 
Q 5.515625 13.875 5.515625 27.296875 
Q 5.515625 40.765625 12.171875 48.375 
Q 18.84375 56 30.609375 56 
z
" id="DejaVuSans-111"/>
     </defs>
     <g transform="translate(316.92 39.728481)scale(0.1 -0.1)">
      <use xlink:href="#DejaVuSans-108"/>
      <use x="27.783203" xlink:href="#DejaVuSans-105"/>
      <use x="55.566406" xlink:href="#DejaVuSans-110"/>
      <use x="118.945312" xlink:href="#DejaVuSans-101"/>
      <use x="180.46875" xlink:href="#DejaVuSans-97"/>
      <use x="241.748047" xlink:href="#DejaVuSans-114"/>
      <use x="282.861328" xlink:href="#DejaVuSans-32"/>
      <use x="314.648438" xlink:href="#DejaVuSans-114"/>
      <use x="353.511719" xlink:href="#DejaVuSans-101"/>
      <use x="415.035156" xlink:href="#DejaVuSans-103"/>
      <use x="478.511719" xlink:href="#DejaVuSans-105"/>
      <use x="506.294922" xlink:href="#DejaVuSans-111"/>
      <use x="567.476562" xlink:href="#DejaVuSans-110"/>
     </g>
    </g>
    <g id="line2d_19">
     <path d="M 288.92 50.908168 
L 308.92 50.908168 
" style="fill:none;stroke:#000000;stroke-dasharray:5.55,2.4;stroke-dashoffset:0;stroke-width:1.5;"/>
    </g>
    <g id="line2d_20"/>
    <g id="text_15">
     <!-- $ \exp(-1.092 k)$ -->
     <defs>
      <path d="M 54.890625 54.6875 
L 35.109375 28.078125 
L 55.90625 0 
L 45.3125 0 
L 29.390625 21.484375 
L 13.484375 0 
L 2.875 0 
L 24.125 28.609375 
L 4.6875 54.6875 
L 15.28125 54.6875 
L 29.78125 35.203125 
L 44.28125 54.6875 
z
" id="DejaVuSans-120"/>
      <path d="M 18.109375 8.203125 
L 18.109375 -20.796875 
L 9.078125 -20.796875 
L 9.078125 54.6875 
L 18.109375 54.6875 
L 18.109375 46.390625 
Q 20.953125 51.265625 25.265625 53.625 
Q 29.59375 56 35.59375 56 
Q 45.5625 56 51.78125 48.09375 
Q 58.015625 40.1875 58.015625 27.296875 
Q 58.015625 14.40625 51.78125 6.484375 
Q 45.5625 -1.421875 35.59375 -1.421875 
Q 29.59375 -1.421875 25.265625 0.953125 
Q 20.953125 3.328125 18.109375 8.203125 
z
M 48.6875 27.296875 
Q 48.6875 37.203125 44.609375 42.84375 
Q 40.53125 48.484375 33.40625 48.484375 
Q 26.265625 48.484375 22.1875 42.84375 
Q 18.109375 37.203125 18.109375 27.296875 
Q 18.109375 17.390625 22.1875 11.75 
Q 26.265625 6.109375 33.40625 6.109375 
Q 40.53125 6.109375 44.609375 11.75 
Q 48.6875 17.390625 48.6875 27.296875 
z
" id="DejaVuSans-112"/>
      <path d="M 31 75.875 
Q 24.46875 64.65625 21.28125 53.65625 
Q 18.109375 42.671875 18.109375 31.390625 
Q 18.109375 20.125 21.3125 9.0625 
Q 24.515625 -2 31 -13.1875 
L 23.1875 -13.1875 
Q 15.875 -1.703125 12.234375 9.375 
Q 8.59375 20.453125 8.59375 31.390625 
Q 8.59375 42.28125 12.203125 53.3125 
Q 15.828125 64.359375 23.1875 75.875 
z
" id="DejaVuSans-40"/>
      <path d="M 10.6875 12.40625 
L 21 12.40625 
L 21 0 
L 10.6875 0 
z
" id="DejaVuSans-46"/>
      <path d="M 10.984375 1.515625 
L 10.984375 10.5 
Q 14.703125 8.734375 18.5 7.8125 
Q 22.3125 6.890625 25.984375 6.890625 
Q 35.75 6.890625 40.890625 13.453125 
Q 46.046875 20.015625 46.78125 33.40625 
Q 43.953125 29.203125 39.59375 26.953125 
Q 35.25 24.703125 29.984375 24.703125 
Q 19.046875 24.703125 12.671875 31.3125 
Q 6.296875 37.9375 6.296875 49.421875 
Q 6.296875 60.640625 12.9375 67.421875 
Q 19.578125 74.21875 30.609375 74.21875 
Q 43.265625 74.21875 49.921875 64.515625 
Q 56.59375 54.828125 56.59375 36.375 
Q 56.59375 19.140625 48.40625 8.859375 
Q 40.234375 -1.421875 26.421875 -1.421875 
Q 22.703125 -1.421875 18.890625 -0.6875 
Q 15.09375 0.046875 10.984375 1.515625 
z
M 30.609375 32.421875 
Q 37.25 32.421875 41.125 36.953125 
Q 45.015625 41.5 45.015625 49.421875 
Q 45.015625 57.28125 41.125 61.84375 
Q 37.25 66.40625 30.609375 66.40625 
Q 23.96875 66.40625 20.09375 61.84375 
Q 16.21875 57.28125 16.21875 49.421875 
Q 16.21875 41.5 20.09375 36.953125 
Q 23.96875 32.421875 30.609375 32.421875 
z
" id="DejaVuSans-57"/>
      <path d="M 8.015625 75.875 
L 15.828125 75.875 
Q 23.140625 64.359375 26.78125 53.3125 
Q 30.421875 42.28125 30.421875 31.390625 
Q 30.421875 20.453125 26.78125 9.375 
Q 23.140625 -1.703125 15.828125 -13.1875 
L 8.015625 -13.1875 
Q 14.5 -2 17.703125 9.0625 
Q 20.90625 20.125 20.90625 31.390625 
Q 20.90625 42.671875 17.703125 53.65625 
Q 14.5 64.65625 8.015625 75.875 
z
" id="DejaVuSans-41"/>
     </defs>
     <g transform="translate(316.92 54.408168)scale(0.1 -0.1)">
      <use transform="translate(0 0.015625)" xlink:href="#DejaVuSans-101"/>
      <use transform="translate(61.523438 0.015625)" xlink:href="#DejaVuSans-120"/>
      <use transform="translate(120.703125 0.015625)" xlink:href="#DejaVuSans-112"/>
      <use transform="translate(184.179688 0.015625)" xlink:href="#DejaVuSans-40"/>
      <use transform="translate(223.193359 0.015625)" xlink:href="#DejaVuSans-8722"/>
      <use transform="translate(306.982422 0.015625)" xlink:href="#DejaVuSans-49"/>
      <use transform="translate(370.605469 0.015625)" xlink:href="#DejaVuSans-46"/>
      <use transform="translate(402.392578 0.015625)" xlink:href="#DejaVuSans-48"/>
      <use transform="translate(466.015625 0.015625)" xlink:href="#DejaVuSans-57"/>
      <use transform="translate(527.888672 0.015625)" xlink:href="#DejaVuSans-50"/>
      <use transform="translate(591.511719 0.015625)" xlink:href="#DejaVuSans-Oblique-107"/>
      <use transform="translate(649.421875 0.015625)" xlink:href="#DejaVuSans-41"/>
     </g>
    </g>
   </g>
  </g>
 </g>
 <defs>
  <clipPath id="pf15be60b3d">
   <rect height="266.112" width="357.12" x="37.7" y="8.451918"/>
  </clipPath>
 </defs>
</svg>
