<?xml version="1.0" encoding="utf-8" standalone="no"?>
<!DOCTYPE svg PUBLIC "-//W3C//DTD SVG 1.1//EN"
  "http://www.w3.org/Graphics/SVG/1.1/DTD/svg11.dtd">
<!-- Created with matplotlib (https://matplotlib.org/) -->
<svg height="310.86825pt" version="1.1" viewBox="0 0 404.728881 310.86825" width="404.728881pt" xmlns="http://www.w3.org/2000/svg" xmlns:xlink="http://www.w3.org/1999/xlink">
 <defs>
  <style type="text/css">
*{stroke-linecap:butt;stroke-linejoin:round;}
  </style>
 </defs>
 <g id="figure_1">
  <g id="patch_1">
   <path d="M 0 310.86825 
L 404.728881 310.86825 
L 404.728881 0 
L 0 0 
z
" style="fill:#ffffff;"/>
  </g>
  <g id="axes_1">
   <g id="patch_2">
    <path d="M 31.8 273.312 
L 388.92 273.312 
L 388.92 7.2 
L 31.8 7.2 
z
" style="fill:#ffffff;"/>
   </g>
   <g id="matplotlib.axis_1">
    <g id="xtick_1">
     <g id="line2d_1">
      <defs>
       <path d="M 0 0 
L 0 3.5 
" id="m7d7a1e47ef" style="stroke:#000000;stroke-width:0.8;"/>
      </defs>
      <g>
       <use style="stroke:#000000;stroke-width:0.8;" x="48.032727" xlink:href="#m7d7a1e47ef" y="273.312"/>
      </g>
     </g>
     <g id="text_1">
      <!-- 0 -->
      <defs>
       <path d="M 31.78125 66.40625 
Q 24.171875 66.40625 20.328125 58.90625 
Q 16.5 51.421875 16.5 36.375 
Q 16.5 21.390625 20.328125 13.890625 
Q 24.171875 6.390625 31.78125 6.390625 
Q 39.453125 6.390625 43.28125 13.890625 
Q 47.125 21.390625 47.125 36.375 
Q 47.125 51.421875 43.28125 58.90625 
Q 39.453125 66.40625 31.78125 66.40625 
z
M 31.78125 74.21875 
Q 44.046875 74.21875 50.515625 64.515625 
Q 56.984375 54.828125 56.984375 36.375 
Q 56.984375 17.96875 50.515625 8.265625 
Q 44.046875 -1.421875 31.78125 -1.421875 
Q 19.53125 -1.421875 13.0625 8.265625 
Q 6.59375 17.96875 6.59375 36.375 
Q 6.59375 54.828125 13.0625 64.515625 
Q 19.53125 74.21875 31.78125 74.21875 
z
" id="DejaVuSans-48"/>
      </defs>
      <g transform="translate(44.851477 287.910437)scale(0.1 -0.1)">
       <use xlink:href="#DejaVuSans-48"/>
      </g>
     </g>
    </g>
    <g id="xtick_2">
     <g id="line2d_2">
      <g>
       <use style="stroke:#000000;stroke-width:0.8;" x="90.526778" xlink:href="#m7d7a1e47ef" y="273.312"/>
      </g>
     </g>
     <g id="text_2">
      <!-- 50 -->
      <defs>
       <path d="M 10.796875 72.90625 
L 49.515625 72.90625 
L 49.515625 64.59375 
L 19.828125 64.59375 
L 19.828125 46.734375 
Q 21.96875 47.46875 24.109375 47.828125 
Q 26.265625 48.1875 28.421875 48.1875 
Q 40.625 48.1875 47.75 41.5 
Q 54.890625 34.8125 54.890625 23.390625 
Q 54.890625 11.625 47.5625 5.09375 
Q 40.234375 -1.421875 26.90625 -1.421875 
Q 22.3125 -1.421875 17.546875 -0.640625 
Q 12.796875 0.140625 7.71875 1.703125 
L 7.71875 11.625 
Q 12.109375 9.234375 16.796875 8.0625 
Q 21.484375 6.890625 26.703125 6.890625 
Q 35.15625 6.890625 40.078125 11.328125 
Q 45.015625 15.765625 45.015625 23.390625 
Q 45.015625 31 40.078125 35.4375 
Q 35.15625 39.890625 26.703125 39.890625 
Q 22.75 39.890625 18.8125 39.015625 
Q 14.890625 38.140625 10.796875 36.28125 
z
" id="DejaVuSans-53"/>
      </defs>
      <g transform="translate(84.164278 287.910437)scale(0.1 -0.1)">
       <use xlink:href="#DejaVuSans-53"/>
       <use x="63.623047" xlink:href="#DejaVuSans-48"/>
      </g>
     </g>
    </g>
    <g id="xtick_3">
     <g id="line2d_3">
      <g>
       <use style="stroke:#000000;stroke-width:0.8;" x="133.020828" xlink:href="#m7d7a1e47ef" y="273.312"/>
      </g>
     </g>
     <g id="text_3">
      <!-- 100 -->
      <defs>
       <path d="M 12.40625 8.296875 
L 28.515625 8.296875 
L 28.515625 63.921875 
L 10.984375 60.40625 
L 10.984375 69.390625 
L 28.421875 72.90625 
L 38.28125 72.90625 
L 38.28125 8.296875 
L 54.390625 8.296875 
L 54.390625 0 
L 12.40625 0 
z
" id="DejaVuSans-49"/>
      </defs>
      <g transform="translate(123.477078 287.910437)scale(0.1 -0.1)">
       <use xlink:href="#DejaVuSans-49"/>
       <use x="63.623047" xlink:href="#DejaVuSans-48"/>
       <use x="127.246094" xlink:href="#DejaVuSans-48"/>
      </g>
     </g>
    </g>
    <g id="xtick_4">
     <g id="line2d_4">
      <g>
       <use style="stroke:#000000;stroke-width:0.8;" x="175.514879" xlink:href="#m7d7a1e47ef" y="273.312"/>
      </g>
     </g>
     <g id="text_4">
      <!-- 150 -->
      <g transform="translate(165.971129 287.910437)scale(0.1 -0.1)">
       <use xlink:href="#DejaVuSans-49"/>
       <use x="63.623047" xlink:href="#DejaVuSans-53"/>
       <use x="127.246094" xlink:href="#DejaVuSans-48"/>
      </g>
     </g>
    </g>
    <g id="xtick_5">
     <g id="line2d_5">
      <g>
       <use style="stroke:#000000;stroke-width:0.8;" x="218.008929" xlink:href="#m7d7a1e47ef" y="273.312"/>
      </g>
     </g>
     <g id="text_5">
      <!-- 200 -->
      <defs>
       <path d="M 19.1875 8.296875 
L 53.609375 8.296875 
L 53.609375 0 
L 7.328125 0 
L 7.328125 8.296875 
Q 12.9375 14.109375 22.625 23.890625 
Q 32.328125 33.6875 34.8125 36.53125 
Q 39.546875 41.84375 41.421875 45.53125 
Q 43.3125 49.21875 43.3125 52.78125 
Q 43.3125 58.59375 39.234375 62.25 
Q 35.15625 65.921875 28.609375 65.921875 
Q 23.96875 65.921875 18.8125 64.3125 
Q 13.671875 62.703125 7.8125 59.421875 
L 7.8125 69.390625 
Q 13.765625 71.78125 18.9375 73 
Q 24.125 74.21875 28.421875 74.21875 
Q 39.75 74.21875 46.484375 68.546875 
Q 53.21875 62.890625 53.21875 53.421875 
Q 53.21875 48.921875 51.53125 44.890625 
Q 49.859375 40.875 45.40625 35.40625 
Q 44.1875 33.984375 37.640625 27.21875 
Q 31.109375 20.453125 19.1875 8.296875 
z
" id="DejaVuSans-50"/>
      </defs>
      <g transform="translate(208.465179 287.910437)scale(0.1 -0.1)">
       <use xlink:href="#DejaVuSans-50"/>
       <use x="63.623047" xlink:href="#DejaVuSans-48"/>
       <use x="127.246094" xlink:href="#DejaVuSans-48"/>
      </g>
     </g>
    </g>
    <g id="xtick_6">
     <g id="line2d_6">
      <g>
       <use style="stroke:#000000;stroke-width:0.8;" x="260.50298" xlink:href="#m7d7a1e47ef" y="273.312"/>
      </g>
     </g>
     <g id="text_6">
      <!-- 250 -->
      <g transform="translate(250.95923 287.910437)scale(0.1 -0.1)">
       <use xlink:href="#DejaVuSans-50"/>
       <use x="63.623047" xlink:href="#DejaVuSans-53"/>
       <use x="127.246094" xlink:href="#DejaVuSans-48"/>
      </g>
     </g>
    </g>
    <g id="xtick_7">
     <g id="line2d_7">
      <g>
       <use style="stroke:#000000;stroke-width:0.8;" x="302.99703" xlink:href="#m7d7a1e47ef" y="273.312"/>
      </g>
     </g>
     <g id="text_7">
      <!-- 300 -->
      <defs>
       <path d="M 40.578125 39.3125 
Q 47.65625 37.796875 51.625 33 
Q 55.609375 28.21875 55.609375 21.1875 
Q 55.609375 10.40625 48.1875 4.484375 
Q 40.765625 -1.421875 27.09375 -1.421875 
Q 22.515625 -1.421875 17.65625 -0.515625 
Q 12.796875 0.390625 7.625 2.203125 
L 7.625 11.71875 
Q 11.71875 9.328125 16.59375 8.109375 
Q 21.484375 6.890625 26.8125 6.890625 
Q 36.078125 6.890625 40.9375 10.546875 
Q 45.796875 14.203125 45.796875 21.1875 
Q 45.796875 27.640625 41.28125 31.265625 
Q 36.765625 34.90625 28.71875 34.90625 
L 20.21875 34.90625 
L 20.21875 43.015625 
L 29.109375 43.015625 
Q 36.375 43.015625 40.234375 45.921875 
Q 44.09375 48.828125 44.09375 54.296875 
Q 44.09375 59.90625 40.109375 62.90625 
Q 36.140625 65.921875 28.71875 65.921875 
Q 24.65625 65.921875 20.015625 65.03125 
Q 15.375 64.15625 9.8125 62.3125 
L 9.8125 71.09375 
Q 15.4375 72.65625 20.34375 73.4375 
Q 25.25 74.21875 29.59375 74.21875 
Q 40.828125 74.21875 47.359375 69.109375 
Q 53.90625 64.015625 53.90625 55.328125 
Q 53.90625 49.265625 50.4375 45.09375 
Q 46.96875 40.921875 40.578125 39.3125 
z
" id="DejaVuSans-51"/>
      </defs>
      <g transform="translate(293.45328 287.910437)scale(0.1 -0.1)">
       <use xlink:href="#DejaVuSans-51"/>
       <use x="63.623047" xlink:href="#DejaVuSans-48"/>
       <use x="127.246094" xlink:href="#DejaVuSans-48"/>
      </g>
     </g>
    </g>
    <g id="xtick_8">
     <g id="line2d_8">
      <g>
       <use style="stroke:#000000;stroke-width:0.8;" x="345.49108" xlink:href="#m7d7a1e47ef" y="273.312"/>
      </g>
     </g>
     <g id="text_8">
      <!-- 350 -->
      <g transform="translate(335.94733 287.910437)scale(0.1 -0.1)">
       <use xlink:href="#DejaVuSans-51"/>
       <use x="63.623047" xlink:href="#DejaVuSans-53"/>
       <use x="127.246094" xlink:href="#DejaVuSans-48"/>
      </g>
     </g>
    </g>
    <g id="xtick_9">
     <g id="line2d_9">
      <g>
       <use style="stroke:#000000;stroke-width:0.8;" x="387.985131" xlink:href="#m7d7a1e47ef" y="273.312"/>
      </g>
     </g>
     <g id="text_9">
      <!-- 400 -->
      <defs>
       <path d="M 37.796875 64.3125 
L 12.890625 25.390625 
L 37.796875 25.390625 
z
M 35.203125 72.90625 
L 47.609375 72.90625 
L 47.609375 25.390625 
L 58.015625 25.390625 
L 58.015625 17.1875 
L 47.609375 17.1875 
L 47.609375 0 
L 37.796875 0 
L 37.796875 17.1875 
L 4.890625 17.1875 
L 4.890625 26.703125 
z
" id="DejaVuSans-52"/>
      </defs>
      <g transform="translate(378.441381 287.910437)scale(0.1 -0.1)">
       <use xlink:href="#DejaVuSans-52"/>
       <use x="63.623047" xlink:href="#DejaVuSans-48"/>
       <use x="127.246094" xlink:href="#DejaVuSans-48"/>
      </g>
     </g>
    </g>
    <g id="text_10">
     <!-- $ k $ -->
     <defs>
      <path d="M 18.3125 75.984375 
L 27.296875 75.984375 
L 18.703125 31.6875 
L 49.515625 54.6875 
L 61.1875 54.6875 
L 26.8125 28.515625 
L 51.90625 0 
L 41.015625 0 
L 17.671875 26.703125 
L 12.5 0 
L 3.515625 0 
z
" id="DejaVuSans-Oblique-107"/>
     </defs>
     <g transform="translate(207.46 301.588562)scale(0.1 -0.1)">
      <use transform="translate(0 0.015625)" xlink:href="#DejaVuSans-Oblique-107"/>
     </g>
    </g>
   </g>
   <g id="matplotlib.axis_2">
    <g id="ytick_1">
     <g id="line2d_10">
      <defs>
       <path d="M 0 0 
L -3.5 0 
" id="m1f25316e5e" style="stroke:#000000;stroke-width:0.8;"/>
      </defs>
      <g>
       <use style="stroke:#000000;stroke-width:0.8;" x="31.8" xlink:href="#m1f25316e5e" y="249.482802"/>
      </g>
     </g>
     <g id="text_11">
      <!-- $\mathdefault{10^{0}}$ -->
      <g transform="translate(7.2 253.282021)scale(0.1 -0.1)">
       <use transform="translate(0 0.765625)" xlink:href="#DejaVuSans-49"/>
       <use transform="translate(63.623047 0.765625)" xlink:href="#DejaVuSans-48"/>
       <use transform="translate(128.203125 39.046875)scale(0.7)" xlink:href="#DejaVuSans-48"/>
      </g>
     </g>
    </g>
    <g id="ytick_2">
     <g id="line2d_11">
      <g>
       <use style="stroke:#000000;stroke-width:0.8;" x="31.8" xlink:href="#m1f25316e5e" y="152.115565"/>
      </g>
     </g>
     <g id="text_12">
      <!-- $\mathdefault{10^{1}}$ -->
      <g transform="translate(7.2 155.914784)scale(0.1 -0.1)">
       <use transform="translate(0 0.684375)" xlink:href="#DejaVuSans-49"/>
       <use transform="translate(63.623047 0.684375)" xlink:href="#DejaVuSans-48"/>
       <use transform="translate(128.203125 38.965625)scale(0.7)" xlink:href="#DejaVuSans-49"/>
      </g>
     </g>
    </g>
    <g id="ytick_3">
     <g id="line2d_12">
      <g>
       <use style="stroke:#000000;stroke-width:0.8;" x="31.8" xlink:href="#m1f25316e5e" y="54.748329"/>
      </g>
     </g>
     <g id="text_13">
      <!-- $\mathdefault{10^{2}}$ -->
      <g transform="translate(7.2 58.547547)scale(0.1 -0.1)">
       <use transform="translate(0 0.765625)" xlink:href="#DejaVuSans-49"/>
       <use transform="translate(63.623047 0.765625)" xlink:href="#DejaVuSans-48"/>
       <use transform="translate(128.203125 39.046875)scale(0.7)" xlink:href="#DejaVuSans-50"/>
      </g>
     </g>
    </g>
    <g id="ytick_4">
     <g id="line2d_13">
      <defs>
       <path d="M 0 0 
L -2 0 
" id="m9358218abb" style="stroke:#000000;stroke-width:0.6;"/>
      </defs>
      <g>
       <use style="stroke:#000000;stroke-width:0.6;" x="31.8" xlink:href="#m9358218abb" y="271.083602"/>
      </g>
     </g>
    </g>
    <g id="ytick_5">
     <g id="line2d_14">
      <g>
       <use style="stroke:#000000;stroke-width:0.6;" x="31.8" xlink:href="#m9358218abb" y="264.565178"/>
      </g>
     </g>
    </g>
    <g id="ytick_6">
     <g id="line2d_15">
      <g>
       <use style="stroke:#000000;stroke-width:0.6;" x="31.8" xlink:href="#m9358218abb" y="258.918662"/>
      </g>
     </g>
    </g>
    <g id="ytick_7">
     <g id="line2d_16">
      <g>
       <use style="stroke:#000000;stroke-width:0.6;" x="31.8" xlink:href="#m9358218abb" y="253.938083"/>
      </g>
     </g>
    </g>
    <g id="ytick_8">
     <g id="line2d_17">
      <g>
       <use style="stroke:#000000;stroke-width:0.6;" x="31.8" xlink:href="#m9358218abb" y="220.172343"/>
      </g>
     </g>
    </g>
    <g id="ytick_9">
     <g id="line2d_18">
      <g>
       <use style="stroke:#000000;stroke-width:0.6;" x="31.8" xlink:href="#m9358218abb" y="203.026824"/>
      </g>
     </g>
    </g>
    <g id="ytick_10">
     <g id="line2d_19">
      <g>
       <use style="stroke:#000000;stroke-width:0.6;" x="31.8" xlink:href="#m9358218abb" y="190.861884"/>
      </g>
     </g>
    </g>
    <g id="ytick_11">
     <g id="line2d_20">
      <g>
       <use style="stroke:#000000;stroke-width:0.6;" x="31.8" xlink:href="#m9358218abb" y="181.426024"/>
      </g>
     </g>
    </g>
    <g id="ytick_12">
     <g id="line2d_21">
      <g>
       <use style="stroke:#000000;stroke-width:0.6;" x="31.8" xlink:href="#m9358218abb" y="173.716365"/>
      </g>
     </g>
    </g>
    <g id="ytick_13">
     <g id="line2d_22">
      <g>
       <use style="stroke:#000000;stroke-width:0.6;" x="31.8" xlink:href="#m9358218abb" y="167.197941"/>
      </g>
     </g>
    </g>
    <g id="ytick_14">
     <g id="line2d_23">
      <g>
       <use style="stroke:#000000;stroke-width:0.6;" x="31.8" xlink:href="#m9358218abb" y="161.551426"/>
      </g>
     </g>
    </g>
    <g id="ytick_15">
     <g id="line2d_24">
      <g>
       <use style="stroke:#000000;stroke-width:0.6;" x="31.8" xlink:href="#m9358218abb" y="156.570846"/>
      </g>
     </g>
    </g>
    <g id="ytick_16">
     <g id="line2d_25">
      <g>
       <use style="stroke:#000000;stroke-width:0.6;" x="31.8" xlink:href="#m9358218abb" y="122.805106"/>
      </g>
     </g>
    </g>
    <g id="ytick_17">
     <g id="line2d_26">
      <g>
       <use style="stroke:#000000;stroke-width:0.6;" x="31.8" xlink:href="#m9358218abb" y="105.659587"/>
      </g>
     </g>
    </g>
    <g id="ytick_18">
     <g id="line2d_27">
      <g>
       <use style="stroke:#000000;stroke-width:0.6;" x="31.8" xlink:href="#m9358218abb" y="93.494648"/>
      </g>
     </g>
    </g>
    <g id="ytick_19">
     <g id="line2d_28">
      <g>
       <use style="stroke:#000000;stroke-width:0.6;" x="31.8" xlink:href="#m9358218abb" y="84.058787"/>
      </g>
     </g>
    </g>
    <g id="ytick_20">
     <g id="line2d_29">
      <g>
       <use style="stroke:#000000;stroke-width:0.6;" x="31.8" xlink:href="#m9358218abb" y="76.349128"/>
      </g>
     </g>
    </g>
    <g id="ytick_21">
     <g id="line2d_30">
      <g>
       <use style="stroke:#000000;stroke-width:0.6;" x="31.8" xlink:href="#m9358218abb" y="69.830704"/>
      </g>
     </g>
    </g>
    <g id="ytick_22">
     <g id="line2d_31">
      <g>
       <use style="stroke:#000000;stroke-width:0.6;" x="31.8" xlink:href="#m9358218abb" y="64.184189"/>
      </g>
     </g>
    </g>
    <g id="ytick_23">
     <g id="line2d_32">
      <g>
       <use style="stroke:#000000;stroke-width:0.6;" x="31.8" xlink:href="#m9358218abb" y="59.203609"/>
      </g>
     </g>
    </g>
    <g id="ytick_24">
     <g id="line2d_33">
      <g>
       <use style="stroke:#000000;stroke-width:0.6;" x="31.8" xlink:href="#m9358218abb" y="25.43787"/>
      </g>
     </g>
    </g>
    <g id="ytick_25">
     <g id="line2d_34">
      <g>
       <use style="stroke:#000000;stroke-width:0.6;" x="31.8" xlink:href="#m9358218abb" y="8.29235"/>
      </g>
     </g>
    </g>
   </g>
   <g id="line2d_35">
    <path clip-path="url(#p37b2f05684)" d="M 48.032727 19.296 
L 48.882608 33.645471 
L 49.732489 40.296443 
L 50.58237 31.429831 
L 51.432251 56.609593 
L 52.282132 36.404405 
L 53.132013 38.016258 
L 53.981894 26.06054 
L 54.831775 38.027667 
L 55.681656 33.508075 
L 56.531537 42.53552 
L 57.381418 42.136782 
L 58.231299 30.27948 
L 59.08118 65.683511 
L 59.931061 84.971376 
L 60.780942 27.461915 
L 61.630823 34.93141 
L 62.480704 39.095425 
L 63.330585 67.709309 
L 64.180466 31.157894 
L 65.030347 50.31766 
L 65.880228 28.071137 
L 66.730109 88.555339 
L 67.57999 32.039028 
L 68.429871 51.415424 
L 69.279752 58.073475 
L 70.129634 26.602779 
L 70.979515 106.986417 
L 71.829396 30.079104 
L 72.679277 66.445991 
L 73.529158 31.293525 
L 74.379039 56.36386 
L 75.22892 37.056805 
L 76.078801 35.426037 
L 76.928682 115.084479 
L 77.778563 26.919731 
L 78.628444 106.071021 
L 79.478325 30.302746 
L 80.328206 63.374945 
L 81.178087 28.077793 
L 82.027968 34.637122 
L 82.877849 39.583692 
L 83.72773 64.359268 
L 84.577611 31.586451 
L 85.427492 52.312577 
L 86.277373 54.371847 
L 87.127254 29.823108 
L 87.977135 64.241543 
L 88.827016 33.214799 
L 89.676897 258.596858 
L 90.526778 27.654511 
L 91.376659 35.324458 
L 92.22654 38.004748 
L 93.076421 80.948461 
L 93.926302 33.69392 
L 94.776183 42.202077 
L 95.626064 39.076196 
L 96.475945 35.093061 
L 97.325826 26.317985 
L 98.175707 38.16213 
L 99.025588 33.129094 
L 99.875469 45.93489 
L 100.72535 34.02028 
L 101.575231 45.753286 
L 102.425112 130.756654 
L 103.274993 24.020145 
L 104.124874 213.256358 
L 104.974755 27.831168 
L 105.824636 35.401284 
L 106.674517 37.17412 
L 107.524398 34.171387 
L 108.374279 40.247321 
L 109.22416 57.584672 
L 110.074041 37.078876 
L 110.923922 89.378084 
L 111.773803 25.536812 
L 112.623684 38.132802 
L 113.473565 33.642507 
L 114.323446 40.850946 
L 115.173327 31.172408 
L 116.023208 58.758599 
L 116.873089 34.264118 
L 117.72297 43.984147 
L 118.572851 261.216 
L 119.422732 24.868678 
L 120.272613 158.741524 
L 121.122494 26.054882 
L 121.972375 37.707857 
L 122.822256 33.988535 
L 123.672137 40.165916 
L 124.522018 60.890761 
L 125.371899 207.476952 
L 126.22178 25.164984 
L 127.071661 38.253285 
L 127.921542 34.052958 
L 128.771423 38.219655 
L 129.621304 33.947578 
L 130.471185 38.513643 
L 131.321066 33.549795 
L 132.170947 39.891719 
L 133.020828 32.192965 
L 133.870709 47.167982 
L 134.72059 34.265755 
L 135.570471 38.227603 
L 136.420352 33.180672 
L 137.270233 43.106968 
L 138.120114 40.992369 
L 138.969995 51.890711 
L 139.819876 51.999679 
L 140.669757 27.375446 
L 141.519638 94.12547 
L 142.369519 27.464066 
L 143.2194 35.636826 
L 144.069281 36.905972 
L 144.919162 34.340199 
L 145.769043 40.094568 
L 146.618924 57.35076 
L 147.468805 29.078771 
L 148.318686 77.038807 
L 149.168567 36.746126 
L 150.018448 34.567695 
L 150.868329 36.645817 
L 151.71821 36.057633 
L 152.568091 107.400577 
L 153.417972 29.75261 
L 154.267853 70.14763 
L 155.117734 30.183881 
L 155.967615 68.284161 
L 156.817496 67.194911 
L 157.667377 25.628575 
L 158.517258 126.895697 
L 159.367139 29.001206 
L 160.21702 79.87062 
L 161.066901 34.892641 
L 161.916782 38.126931 
L 162.766663 75.614159 
L 163.616545 26.457379 
L 164.466426 36.566711 
L 165.316307 35.5886 
L 167.016069 36.418377 
L 167.86595 34.540525 
L 168.715831 40.388688 
L 169.565712 51.000317 
L 170.415593 27.894831 
L 171.265474 88.800674 
L 172.115355 32.612213 
L 172.965236 42.858984 
L 173.815117 30.558715 
L 174.664998 59.166967 
L 175.514879 37.192944 
L 176.36476 85.181777 
L 177.214641 25.056368 
L 178.064522 145.688105 
L 178.914403 28.512462 
L 179.764284 85.58824 
L 180.614165 32.492159 
L 181.464046 51.536378 
L 182.313927 81.725533 
L 183.163808 25.589357 
L 184.013689 38.803003 
L 184.86357 32.784968 
L 185.713451 46.112926 
L 186.563332 34.355583 
L 187.413213 41.273333 
L 188.263094 43.024447 
L 189.112975 31.570366 
L 189.962856 147.498518 
L 190.812737 27.378535 
L 191.662618 35.70701 
L 192.512499 37.121287 
L 193.36238 33.876566 
L 194.212261 42.751201 
L 195.062142 39.032214 
L 195.912023 33.94593 
L 196.761904 161.501555 
L 197.611785 25.990351 
L 198.461666 37.682572 
L 199.311547 34.084286 
L 200.161428 39.632879 
L 201.011309 31.950376 
L 201.86119 52.222197 
L 202.711071 53.102521 
L 203.560952 27.286442 
L 204.410833 96.58013 
L 205.260714 31.086965 
L 206.110595 55.524345 
L 206.960476 29.749041 
L 207.810357 71.469104 
L 209.510119 28.193414 
L 210.36 81.852352 
L 211.209881 28.693616 
L 212.059762 81.972457 
L 212.909643 34.230235 
L 213.759524 38.55333 
L 214.609405 32.525266 
L 215.459286 48.50731 
L 216.309167 93.462368 
L 217.159048 27.401227 
L 218.008929 97.0212 
L 218.85881 27.341507 
L 219.708691 35.797818 
L 220.558572 36.65032 
L 221.408453 34.640238 
L 222.258334 39.188265 
L 223.108215 67.732864 
L 223.958096 30.507963 
L 224.807977 62.769987 
L 225.657858 31.942513 
L 226.507739 55.776194 
L 227.35762 97.649799 
L 228.207501 23.444206 
L 229.057382 43.712058 
L 229.907263 29.959692 
L 230.757144 68.163612 
L 231.607025 30.45175 
L 232.456906 32.686156 
L 233.306787 46.395837 
L 234.156668 34.57152 
L 235.006549 38.911262 
L 235.85643 69.846771 
L 236.706311 29.987419 
L 237.556192 68.14199 
L 238.406073 69.983967 
L 239.255954 26.775347 
L 240.105835 105.887853 
L 240.955716 29.922251 
L 241.805597 70.797147 
L 242.655478 51.990545 
L 243.505359 27.450626 
L 244.35524 92.341009 
L 245.205121 27.658974 
L 246.055002 35.180729 
L 246.904883 38.200284 
L 247.754764 78.150228 
L 248.604645 35.172826 
L 249.454526 38.402392 
L 250.304407 63.534543 
L 251.154288 26.544095 
L 252.004169 104.983182 
L 252.85405 27.223731 
L 253.703931 101.379727 
L 254.553812 30.250674 
L 255.403693 68.445515 
L 256.253574 66.379028 
L 257.103455 25.979446 
L 257.953337 115.195628 
L 258.803218 26.814934 
L 259.653099 36.01105 
L 260.50298 36.845589 
L 261.352861 33.991784 
L 262.202742 43.03986 
L 263.052623 37.81527 
L 263.902504 36.170387 
L 264.752385 26.176522 
L 265.602266 38.260213 
L 266.452147 33.085674 
L 267.302028 45.830354 
L 268.151909 34.221506 
L 269.00179 44.282633 
L 269.851671 237.984565 
L 270.701552 24.797419 
L 271.551433 162.690559 
L 272.401314 28.382354 
L 273.251195 87.489538 
L 274.101076 32.377756 
L 274.950957 48.568917 
L 275.800838 89.80131 
L 276.650719 27.218756 
L 277.5006 35.546222 
L 278.350481 37.240551 
L 279.200362 33.776188 
L 280.050243 42.950569 
L 281.750005 34.1971 
L 282.599886 150.86071 
L 283.449767 26.043995 
L 284.299648 37.641745 
L 285.149529 34.088543 
L 285.99941 39.737542 
L 286.849291 31.836521 
L 287.699172 53.472409 
L 288.549053 44.734064 
L 289.398934 29.922535 
L 290.248815 57.607583 
L 291.098696 31.568331 
L 291.948577 140.729443 
L 292.798458 24.297517 
L 293.648339 41.168472 
L 294.49822 31.314411 
L 295.348101 54.76504 
L 296.197982 43.995203 
L 297.047863 36.204065 
L 297.897744 35.396228 
L 298.747625 35.411023 
L 299.597506 38.586961 
L 300.447387 67.968791 
L 301.297268 28.2344 
L 302.147149 76.860641 
L 302.99703 27.525851 
L 303.846911 88.501374 
L 304.696792 26.280974 
L 305.546673 116.332138 
L 306.396554 29.390356 
L 307.246435 76.458555 
L 308.096316 36.966558 
L 308.946197 35.814833 
L 309.796078 103.256926 
L 310.645959 25.780185 
L 311.49584 126.227857 
L 312.345721 29.276732 
L 313.195602 74.961081 
L 314.045483 29.663688 
L 314.895364 70.805394 
L 315.745245 30.018086 
L 316.595126 69.990074 
L 317.445007 55.345702 
L 318.294888 27.403824 
L 319.144769 86.357515 
L 319.99465 26.353062 
L 320.844531 114.449326 
L 321.694412 29.507403 
L 322.544293 74.994352 
L 323.394174 39.151005 
L 324.244055 32.544845 
L 325.093936 41.293421 
L 325.943817 31.735312 
L 326.793698 46.912762 
L 327.643579 28.960306 
L 328.49346 78.299647 
L 329.343341 36.381207 
L 330.193222 34.294534 
L 331.043103 39.042996 
L 331.892984 32.117696 
L 332.742865 52.45463 
L 333.592746 49.297125 
L 334.442627 28.720127 
L 335.292508 69.120546 
L 336.142389 28.355681 
L 336.99227 75.127676 
L 337.842151 27.933886 
L 338.692032 79.734138 
L 339.541913 28.14078 
L 340.391794 26.410866 
L 341.241675 37.479473 
L 342.091556 34.18763 
L 342.941437 39.750382 
L 343.791318 63.825455 
L 344.641199 119.675651 
L 345.49108 24.52367 
L 346.340961 39.380886 
L 347.190842 32.86086 
L 348.040723 42.425559 
L 348.890604 30.607636 
L 349.740485 61.26754 
L 350.590366 33.143915 
L 351.440248 45.476677 
L 352.290129 153.0451 
L 353.14001 25.765054 
L 353.989891 37.480508 
L 354.839772 34.651283 
L 355.689653 37.361081 
L 356.539534 34.59068 
L 357.389415 37.464211 
L 358.239296 34.398399 
L 359.089177 38.00765 
L 359.939058 33.681172 
L 360.788939 40.412061 
L 361.63882 31.499703 
L 362.488701 55.195957 
L 363.338582 39.503232 
L 364.188463 32.647354 
L 365.038344 40.619949 
L 365.888225 32.416907 
L 366.738106 42.347348 
L 367.587987 31.163212 
L 368.437868 51.297715 
L 369.287749 32.608115 
L 370.13763 40.542473 
L 370.987511 33.050177 
L 370.989939 311.86825 
L 370.989939 311.86825 
" style="fill:none;stroke:#1f77b4;stroke-linecap:square;stroke-width:1.5;"/>
    <defs>
     <path d="M 0 3 
C 0.795609 3 1.55874 2.683901 2.12132 2.12132 
C 2.683901 1.55874 3 0.795609 3 0 
C 3 -0.795609 2.683901 -1.55874 2.12132 -2.12132 
C 1.55874 -2.683901 0.795609 -3 0 -3 
C -0.795609 -3 -1.55874 -2.683901 -2.12132 -2.12132 
C -2.683901 -1.55874 -3 -0.795609 -3 0 
C -3 0.795609 -2.683901 1.55874 -2.12132 2.12132 
C -1.55874 2.683901 -0.795609 3 0 3 
z
" id="m61f8b4d684" style="stroke:#1f77b4;"/>
    </defs>
    <g clip-path="url(#p37b2f05684)">
     <use style="fill:#1f77b4;stroke:#1f77b4;" x="48.032727" xlink:href="#m61f8b4d684" y="19.296"/>
     <use style="fill:#1f77b4;stroke:#1f77b4;" x="48.882608" xlink:href="#m61f8b4d684" y="33.645471"/>
     <use style="fill:#1f77b4;stroke:#1f77b4;" x="49.732489" xlink:href="#m61f8b4d684" y="40.296443"/>
     <use style="fill:#1f77b4;stroke:#1f77b4;" x="50.58237" xlink:href="#m61f8b4d684" y="31.429831"/>
     <use style="fill:#1f77b4;stroke:#1f77b4;" x="51.432251" xlink:href="#m61f8b4d684" y="56.609593"/>
     <use style="fill:#1f77b4;stroke:#1f77b4;" x="52.282132" xlink:href="#m61f8b4d684" y="36.404405"/>
     <use style="fill:#1f77b4;stroke:#1f77b4;" x="53.132013" xlink:href="#m61f8b4d684" y="38.016258"/>
     <use style="fill:#1f77b4;stroke:#1f77b4;" x="53.981894" xlink:href="#m61f8b4d684" y="26.06054"/>
     <use style="fill:#1f77b4;stroke:#1f77b4;" x="54.831775" xlink:href="#m61f8b4d684" y="38.027667"/>
     <use style="fill:#1f77b4;stroke:#1f77b4;" x="55.681656" xlink:href="#m61f8b4d684" y="33.508075"/>
     <use style="fill:#1f77b4;stroke:#1f77b4;" x="56.531537" xlink:href="#m61f8b4d684" y="42.53552"/>
     <use style="fill:#1f77b4;stroke:#1f77b4;" x="57.381418" xlink:href="#m61f8b4d684" y="42.136782"/>
     <use style="fill:#1f77b4;stroke:#1f77b4;" x="58.231299" xlink:href="#m61f8b4d684" y="30.27948"/>
     <use style="fill:#1f77b4;stroke:#1f77b4;" x="59.08118" xlink:href="#m61f8b4d684" y="65.683511"/>
     <use style="fill:#1f77b4;stroke:#1f77b4;" x="59.931061" xlink:href="#m61f8b4d684" y="84.971376"/>
     <use style="fill:#1f77b4;stroke:#1f77b4;" x="60.780942" xlink:href="#m61f8b4d684" y="27.461915"/>
     <use style="fill:#1f77b4;stroke:#1f77b4;" x="61.630823" xlink:href="#m61f8b4d684" y="34.93141"/>
     <use style="fill:#1f77b4;stroke:#1f77b4;" x="62.480704" xlink:href="#m61f8b4d684" y="39.095425"/>
     <use style="fill:#1f77b4;stroke:#1f77b4;" x="63.330585" xlink:href="#m61f8b4d684" y="67.709309"/>
     <use style="fill:#1f77b4;stroke:#1f77b4;" x="64.180466" xlink:href="#m61f8b4d684" y="31.157894"/>
     <use style="fill:#1f77b4;stroke:#1f77b4;" x="65.030347" xlink:href="#m61f8b4d684" y="50.31766"/>
     <use style="fill:#1f77b4;stroke:#1f77b4;" x="65.880228" xlink:href="#m61f8b4d684" y="28.071137"/>
     <use style="fill:#1f77b4;stroke:#1f77b4;" x="66.730109" xlink:href="#m61f8b4d684" y="88.555339"/>
     <use style="fill:#1f77b4;stroke:#1f77b4;" x="67.57999" xlink:href="#m61f8b4d684" y="32.039028"/>
     <use style="fill:#1f77b4;stroke:#1f77b4;" x="68.429871" xlink:href="#m61f8b4d684" y="51.415424"/>
     <use style="fill:#1f77b4;stroke:#1f77b4;" x="69.279752" xlink:href="#m61f8b4d684" y="58.073475"/>
     <use style="fill:#1f77b4;stroke:#1f77b4;" x="70.129634" xlink:href="#m61f8b4d684" y="26.602779"/>
     <use style="fill:#1f77b4;stroke:#1f77b4;" x="70.979515" xlink:href="#m61f8b4d684" y="106.986417"/>
     <use style="fill:#1f77b4;stroke:#1f77b4;" x="71.829396" xlink:href="#m61f8b4d684" y="30.079104"/>
     <use style="fill:#1f77b4;stroke:#1f77b4;" x="72.679277" xlink:href="#m61f8b4d684" y="66.445991"/>
     <use style="fill:#1f77b4;stroke:#1f77b4;" x="73.529158" xlink:href="#m61f8b4d684" y="31.293525"/>
     <use style="fill:#1f77b4;stroke:#1f77b4;" x="74.379039" xlink:href="#m61f8b4d684" y="56.36386"/>
     <use style="fill:#1f77b4;stroke:#1f77b4;" x="75.22892" xlink:href="#m61f8b4d684" y="37.056805"/>
     <use style="fill:#1f77b4;stroke:#1f77b4;" x="76.078801" xlink:href="#m61f8b4d684" y="35.426037"/>
     <use style="fill:#1f77b4;stroke:#1f77b4;" x="76.928682" xlink:href="#m61f8b4d684" y="115.084479"/>
     <use style="fill:#1f77b4;stroke:#1f77b4;" x="77.778563" xlink:href="#m61f8b4d684" y="26.919731"/>
     <use style="fill:#1f77b4;stroke:#1f77b4;" x="78.628444" xlink:href="#m61f8b4d684" y="106.071021"/>
     <use style="fill:#1f77b4;stroke:#1f77b4;" x="79.478325" xlink:href="#m61f8b4d684" y="30.302746"/>
     <use style="fill:#1f77b4;stroke:#1f77b4;" x="80.328206" xlink:href="#m61f8b4d684" y="63.374945"/>
     <use style="fill:#1f77b4;stroke:#1f77b4;" x="81.178087" xlink:href="#m61f8b4d684" y="28.077793"/>
     <use style="fill:#1f77b4;stroke:#1f77b4;" x="82.027968" xlink:href="#m61f8b4d684" y="34.637122"/>
     <use style="fill:#1f77b4;stroke:#1f77b4;" x="82.877849" xlink:href="#m61f8b4d684" y="39.583692"/>
     <use style="fill:#1f77b4;stroke:#1f77b4;" x="83.72773" xlink:href="#m61f8b4d684" y="64.359268"/>
     <use style="fill:#1f77b4;stroke:#1f77b4;" x="84.577611" xlink:href="#m61f8b4d684" y="31.586451"/>
     <use style="fill:#1f77b4;stroke:#1f77b4;" x="85.427492" xlink:href="#m61f8b4d684" y="52.312577"/>
     <use style="fill:#1f77b4;stroke:#1f77b4;" x="86.277373" xlink:href="#m61f8b4d684" y="54.371847"/>
     <use style="fill:#1f77b4;stroke:#1f77b4;" x="87.127254" xlink:href="#m61f8b4d684" y="29.823108"/>
     <use style="fill:#1f77b4;stroke:#1f77b4;" x="87.977135" xlink:href="#m61f8b4d684" y="64.241543"/>
     <use style="fill:#1f77b4;stroke:#1f77b4;" x="88.827016" xlink:href="#m61f8b4d684" y="33.214799"/>
     <use style="fill:#1f77b4;stroke:#1f77b4;" x="89.676897" xlink:href="#m61f8b4d684" y="258.596858"/>
     <use style="fill:#1f77b4;stroke:#1f77b4;" x="90.526778" xlink:href="#m61f8b4d684" y="27.654511"/>
     <use style="fill:#1f77b4;stroke:#1f77b4;" x="91.376659" xlink:href="#m61f8b4d684" y="35.324458"/>
     <use style="fill:#1f77b4;stroke:#1f77b4;" x="92.22654" xlink:href="#m61f8b4d684" y="38.004748"/>
     <use style="fill:#1f77b4;stroke:#1f77b4;" x="93.076421" xlink:href="#m61f8b4d684" y="80.948461"/>
     <use style="fill:#1f77b4;stroke:#1f77b4;" x="93.926302" xlink:href="#m61f8b4d684" y="33.69392"/>
     <use style="fill:#1f77b4;stroke:#1f77b4;" x="94.776183" xlink:href="#m61f8b4d684" y="42.202077"/>
     <use style="fill:#1f77b4;stroke:#1f77b4;" x="95.626064" xlink:href="#m61f8b4d684" y="39.076196"/>
     <use style="fill:#1f77b4;stroke:#1f77b4;" x="96.475945" xlink:href="#m61f8b4d684" y="35.093061"/>
     <use style="fill:#1f77b4;stroke:#1f77b4;" x="97.325826" xlink:href="#m61f8b4d684" y="26.317985"/>
     <use style="fill:#1f77b4;stroke:#1f77b4;" x="98.175707" xlink:href="#m61f8b4d684" y="38.16213"/>
     <use style="fill:#1f77b4;stroke:#1f77b4;" x="99.025588" xlink:href="#m61f8b4d684" y="33.129094"/>
     <use style="fill:#1f77b4;stroke:#1f77b4;" x="99.875469" xlink:href="#m61f8b4d684" y="45.93489"/>
     <use style="fill:#1f77b4;stroke:#1f77b4;" x="100.72535" xlink:href="#m61f8b4d684" y="34.02028"/>
     <use style="fill:#1f77b4;stroke:#1f77b4;" x="101.575231" xlink:href="#m61f8b4d684" y="45.753286"/>
     <use style="fill:#1f77b4;stroke:#1f77b4;" x="102.425112" xlink:href="#m61f8b4d684" y="130.756654"/>
     <use style="fill:#1f77b4;stroke:#1f77b4;" x="103.274993" xlink:href="#m61f8b4d684" y="24.020145"/>
     <use style="fill:#1f77b4;stroke:#1f77b4;" x="104.124874" xlink:href="#m61f8b4d684" y="213.256358"/>
     <use style="fill:#1f77b4;stroke:#1f77b4;" x="104.974755" xlink:href="#m61f8b4d684" y="27.831168"/>
     <use style="fill:#1f77b4;stroke:#1f77b4;" x="105.824636" xlink:href="#m61f8b4d684" y="35.401284"/>
     <use style="fill:#1f77b4;stroke:#1f77b4;" x="106.674517" xlink:href="#m61f8b4d684" y="37.17412"/>
     <use style="fill:#1f77b4;stroke:#1f77b4;" x="107.524398" xlink:href="#m61f8b4d684" y="34.171387"/>
     <use style="fill:#1f77b4;stroke:#1f77b4;" x="108.374279" xlink:href="#m61f8b4d684" y="40.247321"/>
     <use style="fill:#1f77b4;stroke:#1f77b4;" x="109.22416" xlink:href="#m61f8b4d684" y="57.584672"/>
     <use style="fill:#1f77b4;stroke:#1f77b4;" x="110.074041" xlink:href="#m61f8b4d684" y="37.078876"/>
     <use style="fill:#1f77b4;stroke:#1f77b4;" x="110.923922" xlink:href="#m61f8b4d684" y="89.378084"/>
     <use style="fill:#1f77b4;stroke:#1f77b4;" x="111.773803" xlink:href="#m61f8b4d684" y="25.536812"/>
     <use style="fill:#1f77b4;stroke:#1f77b4;" x="112.623684" xlink:href="#m61f8b4d684" y="38.132802"/>
     <use style="fill:#1f77b4;stroke:#1f77b4;" x="113.473565" xlink:href="#m61f8b4d684" y="33.642507"/>
     <use style="fill:#1f77b4;stroke:#1f77b4;" x="114.323446" xlink:href="#m61f8b4d684" y="40.850946"/>
     <use style="fill:#1f77b4;stroke:#1f77b4;" x="115.173327" xlink:href="#m61f8b4d684" y="31.172408"/>
     <use style="fill:#1f77b4;stroke:#1f77b4;" x="116.023208" xlink:href="#m61f8b4d684" y="58.758599"/>
     <use style="fill:#1f77b4;stroke:#1f77b4;" x="116.873089" xlink:href="#m61f8b4d684" y="34.264118"/>
     <use style="fill:#1f77b4;stroke:#1f77b4;" x="117.72297" xlink:href="#m61f8b4d684" y="43.984147"/>
     <use style="fill:#1f77b4;stroke:#1f77b4;" x="118.572851" xlink:href="#m61f8b4d684" y="261.216"/>
     <use style="fill:#1f77b4;stroke:#1f77b4;" x="119.422732" xlink:href="#m61f8b4d684" y="24.868678"/>
     <use style="fill:#1f77b4;stroke:#1f77b4;" x="120.272613" xlink:href="#m61f8b4d684" y="158.741524"/>
     <use style="fill:#1f77b4;stroke:#1f77b4;" x="121.122494" xlink:href="#m61f8b4d684" y="26.054882"/>
     <use style="fill:#1f77b4;stroke:#1f77b4;" x="121.972375" xlink:href="#m61f8b4d684" y="37.707857"/>
     <use style="fill:#1f77b4;stroke:#1f77b4;" x="122.822256" xlink:href="#m61f8b4d684" y="33.988535"/>
     <use style="fill:#1f77b4;stroke:#1f77b4;" x="123.672137" xlink:href="#m61f8b4d684" y="40.165916"/>
     <use style="fill:#1f77b4;stroke:#1f77b4;" x="124.522018" xlink:href="#m61f8b4d684" y="60.890761"/>
     <use style="fill:#1f77b4;stroke:#1f77b4;" x="125.371899" xlink:href="#m61f8b4d684" y="207.476952"/>
     <use style="fill:#1f77b4;stroke:#1f77b4;" x="126.22178" xlink:href="#m61f8b4d684" y="25.164984"/>
     <use style="fill:#1f77b4;stroke:#1f77b4;" x="127.071661" xlink:href="#m61f8b4d684" y="38.253285"/>
     <use style="fill:#1f77b4;stroke:#1f77b4;" x="127.921542" xlink:href="#m61f8b4d684" y="34.052958"/>
     <use style="fill:#1f77b4;stroke:#1f77b4;" x="128.771423" xlink:href="#m61f8b4d684" y="38.219655"/>
     <use style="fill:#1f77b4;stroke:#1f77b4;" x="129.621304" xlink:href="#m61f8b4d684" y="33.947578"/>
     <use style="fill:#1f77b4;stroke:#1f77b4;" x="130.471185" xlink:href="#m61f8b4d684" y="38.513643"/>
     <use style="fill:#1f77b4;stroke:#1f77b4;" x="131.321066" xlink:href="#m61f8b4d684" y="33.549795"/>
     <use style="fill:#1f77b4;stroke:#1f77b4;" x="132.170947" xlink:href="#m61f8b4d684" y="39.891719"/>
     <use style="fill:#1f77b4;stroke:#1f77b4;" x="133.020828" xlink:href="#m61f8b4d684" y="32.192965"/>
     <use style="fill:#1f77b4;stroke:#1f77b4;" x="133.870709" xlink:href="#m61f8b4d684" y="47.167982"/>
     <use style="fill:#1f77b4;stroke:#1f77b4;" x="134.72059" xlink:href="#m61f8b4d684" y="34.265755"/>
     <use style="fill:#1f77b4;stroke:#1f77b4;" x="135.570471" xlink:href="#m61f8b4d684" y="38.227603"/>
     <use style="fill:#1f77b4;stroke:#1f77b4;" x="136.420352" xlink:href="#m61f8b4d684" y="33.180672"/>
     <use style="fill:#1f77b4;stroke:#1f77b4;" x="137.270233" xlink:href="#m61f8b4d684" y="43.106968"/>
     <use style="fill:#1f77b4;stroke:#1f77b4;" x="138.120114" xlink:href="#m61f8b4d684" y="40.992369"/>
     <use style="fill:#1f77b4;stroke:#1f77b4;" x="138.969995" xlink:href="#m61f8b4d684" y="51.890711"/>
     <use style="fill:#1f77b4;stroke:#1f77b4;" x="139.819876" xlink:href="#m61f8b4d684" y="51.999679"/>
     <use style="fill:#1f77b4;stroke:#1f77b4;" x="140.669757" xlink:href="#m61f8b4d684" y="27.375446"/>
     <use style="fill:#1f77b4;stroke:#1f77b4;" x="141.519638" xlink:href="#m61f8b4d684" y="94.12547"/>
     <use style="fill:#1f77b4;stroke:#1f77b4;" x="142.369519" xlink:href="#m61f8b4d684" y="27.464066"/>
     <use style="fill:#1f77b4;stroke:#1f77b4;" x="143.2194" xlink:href="#m61f8b4d684" y="35.636826"/>
     <use style="fill:#1f77b4;stroke:#1f77b4;" x="144.069281" xlink:href="#m61f8b4d684" y="36.905972"/>
     <use style="fill:#1f77b4;stroke:#1f77b4;" x="144.919162" xlink:href="#m61f8b4d684" y="34.340199"/>
     <use style="fill:#1f77b4;stroke:#1f77b4;" x="145.769043" xlink:href="#m61f8b4d684" y="40.094568"/>
     <use style="fill:#1f77b4;stroke:#1f77b4;" x="146.618924" xlink:href="#m61f8b4d684" y="57.35076"/>
     <use style="fill:#1f77b4;stroke:#1f77b4;" x="147.468805" xlink:href="#m61f8b4d684" y="29.078771"/>
     <use style="fill:#1f77b4;stroke:#1f77b4;" x="148.318686" xlink:href="#m61f8b4d684" y="77.038807"/>
     <use style="fill:#1f77b4;stroke:#1f77b4;" x="149.168567" xlink:href="#m61f8b4d684" y="36.746126"/>
     <use style="fill:#1f77b4;stroke:#1f77b4;" x="150.018448" xlink:href="#m61f8b4d684" y="34.567695"/>
     <use style="fill:#1f77b4;stroke:#1f77b4;" x="150.868329" xlink:href="#m61f8b4d684" y="36.645817"/>
     <use style="fill:#1f77b4;stroke:#1f77b4;" x="151.71821" xlink:href="#m61f8b4d684" y="36.057633"/>
     <use style="fill:#1f77b4;stroke:#1f77b4;" x="152.568091" xlink:href="#m61f8b4d684" y="107.400577"/>
     <use style="fill:#1f77b4;stroke:#1f77b4;" x="153.417972" xlink:href="#m61f8b4d684" y="29.75261"/>
     <use style="fill:#1f77b4;stroke:#1f77b4;" x="154.267853" xlink:href="#m61f8b4d684" y="70.14763"/>
     <use style="fill:#1f77b4;stroke:#1f77b4;" x="155.117734" xlink:href="#m61f8b4d684" y="30.183881"/>
     <use style="fill:#1f77b4;stroke:#1f77b4;" x="155.967615" xlink:href="#m61f8b4d684" y="68.284161"/>
     <use style="fill:#1f77b4;stroke:#1f77b4;" x="156.817496" xlink:href="#m61f8b4d684" y="67.194911"/>
     <use style="fill:#1f77b4;stroke:#1f77b4;" x="157.667377" xlink:href="#m61f8b4d684" y="25.628575"/>
     <use style="fill:#1f77b4;stroke:#1f77b4;" x="158.517258" xlink:href="#m61f8b4d684" y="126.895697"/>
     <use style="fill:#1f77b4;stroke:#1f77b4;" x="159.367139" xlink:href="#m61f8b4d684" y="29.001206"/>
     <use style="fill:#1f77b4;stroke:#1f77b4;" x="160.21702" xlink:href="#m61f8b4d684" y="79.87062"/>
     <use style="fill:#1f77b4;stroke:#1f77b4;" x="161.066901" xlink:href="#m61f8b4d684" y="34.892641"/>
     <use style="fill:#1f77b4;stroke:#1f77b4;" x="161.916782" xlink:href="#m61f8b4d684" y="38.126931"/>
     <use style="fill:#1f77b4;stroke:#1f77b4;" x="162.766663" xlink:href="#m61f8b4d684" y="75.614159"/>
     <use style="fill:#1f77b4;stroke:#1f77b4;" x="163.616545" xlink:href="#m61f8b4d684" y="26.457379"/>
     <use style="fill:#1f77b4;stroke:#1f77b4;" x="164.466426" xlink:href="#m61f8b4d684" y="36.566711"/>
     <use style="fill:#1f77b4;stroke:#1f77b4;" x="165.316307" xlink:href="#m61f8b4d684" y="35.5886"/>
     <use style="fill:#1f77b4;stroke:#1f77b4;" x="166.166188" xlink:href="#m61f8b4d684" y="35.957032"/>
     <use style="fill:#1f77b4;stroke:#1f77b4;" x="167.016069" xlink:href="#m61f8b4d684" y="36.418377"/>
     <use style="fill:#1f77b4;stroke:#1f77b4;" x="167.86595" xlink:href="#m61f8b4d684" y="34.540525"/>
     <use style="fill:#1f77b4;stroke:#1f77b4;" x="168.715831" xlink:href="#m61f8b4d684" y="40.388688"/>
     <use style="fill:#1f77b4;stroke:#1f77b4;" x="169.565712" xlink:href="#m61f8b4d684" y="51.000317"/>
     <use style="fill:#1f77b4;stroke:#1f77b4;" x="170.415593" xlink:href="#m61f8b4d684" y="27.894831"/>
     <use style="fill:#1f77b4;stroke:#1f77b4;" x="171.265474" xlink:href="#m61f8b4d684" y="88.800674"/>
     <use style="fill:#1f77b4;stroke:#1f77b4;" x="172.115355" xlink:href="#m61f8b4d684" y="32.612213"/>
     <use style="fill:#1f77b4;stroke:#1f77b4;" x="172.965236" xlink:href="#m61f8b4d684" y="42.858984"/>
     <use style="fill:#1f77b4;stroke:#1f77b4;" x="173.815117" xlink:href="#m61f8b4d684" y="30.558715"/>
     <use style="fill:#1f77b4;stroke:#1f77b4;" x="174.664998" xlink:href="#m61f8b4d684" y="59.166967"/>
     <use style="fill:#1f77b4;stroke:#1f77b4;" x="175.514879" xlink:href="#m61f8b4d684" y="37.192944"/>
     <use style="fill:#1f77b4;stroke:#1f77b4;" x="176.36476" xlink:href="#m61f8b4d684" y="85.181777"/>
     <use style="fill:#1f77b4;stroke:#1f77b4;" x="177.214641" xlink:href="#m61f8b4d684" y="25.056368"/>
     <use style="fill:#1f77b4;stroke:#1f77b4;" x="178.064522" xlink:href="#m61f8b4d684" y="145.688105"/>
     <use style="fill:#1f77b4;stroke:#1f77b4;" x="178.914403" xlink:href="#m61f8b4d684" y="28.512462"/>
     <use style="fill:#1f77b4;stroke:#1f77b4;" x="179.764284" xlink:href="#m61f8b4d684" y="85.58824"/>
     <use style="fill:#1f77b4;stroke:#1f77b4;" x="180.614165" xlink:href="#m61f8b4d684" y="32.492159"/>
     <use style="fill:#1f77b4;stroke:#1f77b4;" x="181.464046" xlink:href="#m61f8b4d684" y="51.536378"/>
     <use style="fill:#1f77b4;stroke:#1f77b4;" x="182.313927" xlink:href="#m61f8b4d684" y="81.725533"/>
     <use style="fill:#1f77b4;stroke:#1f77b4;" x="183.163808" xlink:href="#m61f8b4d684" y="25.589357"/>
     <use style="fill:#1f77b4;stroke:#1f77b4;" x="184.013689" xlink:href="#m61f8b4d684" y="38.803003"/>
     <use style="fill:#1f77b4;stroke:#1f77b4;" x="184.86357" xlink:href="#m61f8b4d684" y="32.784968"/>
     <use style="fill:#1f77b4;stroke:#1f77b4;" x="185.713451" xlink:href="#m61f8b4d684" y="46.112926"/>
     <use style="fill:#1f77b4;stroke:#1f77b4;" x="186.563332" xlink:href="#m61f8b4d684" y="34.355583"/>
     <use style="fill:#1f77b4;stroke:#1f77b4;" x="187.413213" xlink:href="#m61f8b4d684" y="41.273333"/>
     <use style="fill:#1f77b4;stroke:#1f77b4;" x="188.263094" xlink:href="#m61f8b4d684" y="43.024447"/>
     <use style="fill:#1f77b4;stroke:#1f77b4;" x="189.112975" xlink:href="#m61f8b4d684" y="31.570366"/>
     <use style="fill:#1f77b4;stroke:#1f77b4;" x="189.962856" xlink:href="#m61f8b4d684" y="147.498518"/>
     <use style="fill:#1f77b4;stroke:#1f77b4;" x="190.812737" xlink:href="#m61f8b4d684" y="27.378535"/>
     <use style="fill:#1f77b4;stroke:#1f77b4;" x="191.662618" xlink:href="#m61f8b4d684" y="35.70701"/>
     <use style="fill:#1f77b4;stroke:#1f77b4;" x="192.512499" xlink:href="#m61f8b4d684" y="37.121287"/>
     <use style="fill:#1f77b4;stroke:#1f77b4;" x="193.36238" xlink:href="#m61f8b4d684" y="33.876566"/>
     <use style="fill:#1f77b4;stroke:#1f77b4;" x="194.212261" xlink:href="#m61f8b4d684" y="42.751201"/>
     <use style="fill:#1f77b4;stroke:#1f77b4;" x="195.062142" xlink:href="#m61f8b4d684" y="39.032214"/>
     <use style="fill:#1f77b4;stroke:#1f77b4;" x="195.912023" xlink:href="#m61f8b4d684" y="33.94593"/>
     <use style="fill:#1f77b4;stroke:#1f77b4;" x="196.761904" xlink:href="#m61f8b4d684" y="161.501555"/>
     <use style="fill:#1f77b4;stroke:#1f77b4;" x="197.611785" xlink:href="#m61f8b4d684" y="25.990351"/>
     <use style="fill:#1f77b4;stroke:#1f77b4;" x="198.461666" xlink:href="#m61f8b4d684" y="37.682572"/>
     <use style="fill:#1f77b4;stroke:#1f77b4;" x="199.311547" xlink:href="#m61f8b4d684" y="34.084286"/>
     <use style="fill:#1f77b4;stroke:#1f77b4;" x="200.161428" xlink:href="#m61f8b4d684" y="39.632879"/>
     <use style="fill:#1f77b4;stroke:#1f77b4;" x="201.011309" xlink:href="#m61f8b4d684" y="31.950376"/>
     <use style="fill:#1f77b4;stroke:#1f77b4;" x="201.86119" xlink:href="#m61f8b4d684" y="52.222197"/>
     <use style="fill:#1f77b4;stroke:#1f77b4;" x="202.711071" xlink:href="#m61f8b4d684" y="53.102521"/>
     <use style="fill:#1f77b4;stroke:#1f77b4;" x="203.560952" xlink:href="#m61f8b4d684" y="27.286442"/>
     <use style="fill:#1f77b4;stroke:#1f77b4;" x="204.410833" xlink:href="#m61f8b4d684" y="96.58013"/>
     <use style="fill:#1f77b4;stroke:#1f77b4;" x="205.260714" xlink:href="#m61f8b4d684" y="31.086965"/>
     <use style="fill:#1f77b4;stroke:#1f77b4;" x="206.110595" xlink:href="#m61f8b4d684" y="55.524345"/>
     <use style="fill:#1f77b4;stroke:#1f77b4;" x="206.960476" xlink:href="#m61f8b4d684" y="29.749041"/>
     <use style="fill:#1f77b4;stroke:#1f77b4;" x="207.810357" xlink:href="#m61f8b4d684" y="71.469104"/>
     <use style="fill:#1f77b4;stroke:#1f77b4;" x="208.660238" xlink:href="#m61f8b4d684" y="48.539432"/>
     <use style="fill:#1f77b4;stroke:#1f77b4;" x="209.510119" xlink:href="#m61f8b4d684" y="28.193414"/>
     <use style="fill:#1f77b4;stroke:#1f77b4;" x="210.36" xlink:href="#m61f8b4d684" y="81.852352"/>
     <use style="fill:#1f77b4;stroke:#1f77b4;" x="211.209881" xlink:href="#m61f8b4d684" y="28.693616"/>
     <use style="fill:#1f77b4;stroke:#1f77b4;" x="212.059762" xlink:href="#m61f8b4d684" y="81.972457"/>
     <use style="fill:#1f77b4;stroke:#1f77b4;" x="212.909643" xlink:href="#m61f8b4d684" y="34.230235"/>
     <use style="fill:#1f77b4;stroke:#1f77b4;" x="213.759524" xlink:href="#m61f8b4d684" y="38.55333"/>
     <use style="fill:#1f77b4;stroke:#1f77b4;" x="214.609405" xlink:href="#m61f8b4d684" y="32.525266"/>
     <use style="fill:#1f77b4;stroke:#1f77b4;" x="215.459286" xlink:href="#m61f8b4d684" y="48.50731"/>
     <use style="fill:#1f77b4;stroke:#1f77b4;" x="216.309167" xlink:href="#m61f8b4d684" y="93.462368"/>
     <use style="fill:#1f77b4;stroke:#1f77b4;" x="217.159048" xlink:href="#m61f8b4d684" y="27.401227"/>
     <use style="fill:#1f77b4;stroke:#1f77b4;" x="218.008929" xlink:href="#m61f8b4d684" y="97.0212"/>
     <use style="fill:#1f77b4;stroke:#1f77b4;" x="218.85881" xlink:href="#m61f8b4d684" y="27.341507"/>
     <use style="fill:#1f77b4;stroke:#1f77b4;" x="219.708691" xlink:href="#m61f8b4d684" y="35.797818"/>
     <use style="fill:#1f77b4;stroke:#1f77b4;" x="220.558572" xlink:href="#m61f8b4d684" y="36.65032"/>
     <use style="fill:#1f77b4;stroke:#1f77b4;" x="221.408453" xlink:href="#m61f8b4d684" y="34.640238"/>
     <use style="fill:#1f77b4;stroke:#1f77b4;" x="222.258334" xlink:href="#m61f8b4d684" y="39.188265"/>
     <use style="fill:#1f77b4;stroke:#1f77b4;" x="223.108215" xlink:href="#m61f8b4d684" y="67.732864"/>
     <use style="fill:#1f77b4;stroke:#1f77b4;" x="223.958096" xlink:href="#m61f8b4d684" y="30.507963"/>
     <use style="fill:#1f77b4;stroke:#1f77b4;" x="224.807977" xlink:href="#m61f8b4d684" y="62.769987"/>
     <use style="fill:#1f77b4;stroke:#1f77b4;" x="225.657858" xlink:href="#m61f8b4d684" y="31.942513"/>
     <use style="fill:#1f77b4;stroke:#1f77b4;" x="226.507739" xlink:href="#m61f8b4d684" y="55.776194"/>
     <use style="fill:#1f77b4;stroke:#1f77b4;" x="227.35762" xlink:href="#m61f8b4d684" y="97.649799"/>
     <use style="fill:#1f77b4;stroke:#1f77b4;" x="228.207501" xlink:href="#m61f8b4d684" y="23.444206"/>
     <use style="fill:#1f77b4;stroke:#1f77b4;" x="229.057382" xlink:href="#m61f8b4d684" y="43.712058"/>
     <use style="fill:#1f77b4;stroke:#1f77b4;" x="229.907263" xlink:href="#m61f8b4d684" y="29.959692"/>
     <use style="fill:#1f77b4;stroke:#1f77b4;" x="230.757144" xlink:href="#m61f8b4d684" y="68.163612"/>
     <use style="fill:#1f77b4;stroke:#1f77b4;" x="231.607025" xlink:href="#m61f8b4d684" y="30.45175"/>
     <use style="fill:#1f77b4;stroke:#1f77b4;" x="232.456906" xlink:href="#m61f8b4d684" y="32.686156"/>
     <use style="fill:#1f77b4;stroke:#1f77b4;" x="233.306787" xlink:href="#m61f8b4d684" y="46.395837"/>
     <use style="fill:#1f77b4;stroke:#1f77b4;" x="234.156668" xlink:href="#m61f8b4d684" y="34.57152"/>
     <use style="fill:#1f77b4;stroke:#1f77b4;" x="235.006549" xlink:href="#m61f8b4d684" y="38.911262"/>
     <use style="fill:#1f77b4;stroke:#1f77b4;" x="235.85643" xlink:href="#m61f8b4d684" y="69.846771"/>
     <use style="fill:#1f77b4;stroke:#1f77b4;" x="236.706311" xlink:href="#m61f8b4d684" y="29.987419"/>
     <use style="fill:#1f77b4;stroke:#1f77b4;" x="237.556192" xlink:href="#m61f8b4d684" y="68.14199"/>
     <use style="fill:#1f77b4;stroke:#1f77b4;" x="238.406073" xlink:href="#m61f8b4d684" y="69.983967"/>
     <use style="fill:#1f77b4;stroke:#1f77b4;" x="239.255954" xlink:href="#m61f8b4d684" y="26.775347"/>
     <use style="fill:#1f77b4;stroke:#1f77b4;" x="240.105835" xlink:href="#m61f8b4d684" y="105.887853"/>
     <use style="fill:#1f77b4;stroke:#1f77b4;" x="240.955716" xlink:href="#m61f8b4d684" y="29.922251"/>
     <use style="fill:#1f77b4;stroke:#1f77b4;" x="241.805597" xlink:href="#m61f8b4d684" y="70.797147"/>
     <use style="fill:#1f77b4;stroke:#1f77b4;" x="242.655478" xlink:href="#m61f8b4d684" y="51.990545"/>
     <use style="fill:#1f77b4;stroke:#1f77b4;" x="243.505359" xlink:href="#m61f8b4d684" y="27.450626"/>
     <use style="fill:#1f77b4;stroke:#1f77b4;" x="244.35524" xlink:href="#m61f8b4d684" y="92.341009"/>
     <use style="fill:#1f77b4;stroke:#1f77b4;" x="245.205121" xlink:href="#m61f8b4d684" y="27.658974"/>
     <use style="fill:#1f77b4;stroke:#1f77b4;" x="246.055002" xlink:href="#m61f8b4d684" y="35.180729"/>
     <use style="fill:#1f77b4;stroke:#1f77b4;" x="246.904883" xlink:href="#m61f8b4d684" y="38.200284"/>
     <use style="fill:#1f77b4;stroke:#1f77b4;" x="247.754764" xlink:href="#m61f8b4d684" y="78.150228"/>
     <use style="fill:#1f77b4;stroke:#1f77b4;" x="248.604645" xlink:href="#m61f8b4d684" y="35.172826"/>
     <use style="fill:#1f77b4;stroke:#1f77b4;" x="249.454526" xlink:href="#m61f8b4d684" y="38.402392"/>
     <use style="fill:#1f77b4;stroke:#1f77b4;" x="250.304407" xlink:href="#m61f8b4d684" y="63.534543"/>
     <use style="fill:#1f77b4;stroke:#1f77b4;" x="251.154288" xlink:href="#m61f8b4d684" y="26.544095"/>
     <use style="fill:#1f77b4;stroke:#1f77b4;" x="252.004169" xlink:href="#m61f8b4d684" y="104.983182"/>
     <use style="fill:#1f77b4;stroke:#1f77b4;" x="252.85405" xlink:href="#m61f8b4d684" y="27.223731"/>
     <use style="fill:#1f77b4;stroke:#1f77b4;" x="253.703931" xlink:href="#m61f8b4d684" y="101.379727"/>
     <use style="fill:#1f77b4;stroke:#1f77b4;" x="254.553812" xlink:href="#m61f8b4d684" y="30.250674"/>
     <use style="fill:#1f77b4;stroke:#1f77b4;" x="255.403693" xlink:href="#m61f8b4d684" y="68.445515"/>
     <use style="fill:#1f77b4;stroke:#1f77b4;" x="256.253574" xlink:href="#m61f8b4d684" y="66.379028"/>
     <use style="fill:#1f77b4;stroke:#1f77b4;" x="257.103455" xlink:href="#m61f8b4d684" y="25.979446"/>
     <use style="fill:#1f77b4;stroke:#1f77b4;" x="257.953337" xlink:href="#m61f8b4d684" y="115.195628"/>
     <use style="fill:#1f77b4;stroke:#1f77b4;" x="258.803218" xlink:href="#m61f8b4d684" y="26.814934"/>
     <use style="fill:#1f77b4;stroke:#1f77b4;" x="259.653099" xlink:href="#m61f8b4d684" y="36.01105"/>
     <use style="fill:#1f77b4;stroke:#1f77b4;" x="260.50298" xlink:href="#m61f8b4d684" y="36.845589"/>
     <use style="fill:#1f77b4;stroke:#1f77b4;" x="261.352861" xlink:href="#m61f8b4d684" y="33.991784"/>
     <use style="fill:#1f77b4;stroke:#1f77b4;" x="262.202742" xlink:href="#m61f8b4d684" y="43.03986"/>
     <use style="fill:#1f77b4;stroke:#1f77b4;" x="263.052623" xlink:href="#m61f8b4d684" y="37.81527"/>
     <use style="fill:#1f77b4;stroke:#1f77b4;" x="263.902504" xlink:href="#m61f8b4d684" y="36.170387"/>
     <use style="fill:#1f77b4;stroke:#1f77b4;" x="264.752385" xlink:href="#m61f8b4d684" y="26.176522"/>
     <use style="fill:#1f77b4;stroke:#1f77b4;" x="265.602266" xlink:href="#m61f8b4d684" y="38.260213"/>
     <use style="fill:#1f77b4;stroke:#1f77b4;" x="266.452147" xlink:href="#m61f8b4d684" y="33.085674"/>
     <use style="fill:#1f77b4;stroke:#1f77b4;" x="267.302028" xlink:href="#m61f8b4d684" y="45.830354"/>
     <use style="fill:#1f77b4;stroke:#1f77b4;" x="268.151909" xlink:href="#m61f8b4d684" y="34.221506"/>
     <use style="fill:#1f77b4;stroke:#1f77b4;" x="269.00179" xlink:href="#m61f8b4d684" y="44.282633"/>
     <use style="fill:#1f77b4;stroke:#1f77b4;" x="269.851671" xlink:href="#m61f8b4d684" y="237.984565"/>
     <use style="fill:#1f77b4;stroke:#1f77b4;" x="270.701552" xlink:href="#m61f8b4d684" y="24.797419"/>
     <use style="fill:#1f77b4;stroke:#1f77b4;" x="271.551433" xlink:href="#m61f8b4d684" y="162.690559"/>
     <use style="fill:#1f77b4;stroke:#1f77b4;" x="272.401314" xlink:href="#m61f8b4d684" y="28.382354"/>
     <use style="fill:#1f77b4;stroke:#1f77b4;" x="273.251195" xlink:href="#m61f8b4d684" y="87.489538"/>
     <use style="fill:#1f77b4;stroke:#1f77b4;" x="274.101076" xlink:href="#m61f8b4d684" y="32.377756"/>
     <use style="fill:#1f77b4;stroke:#1f77b4;" x="274.950957" xlink:href="#m61f8b4d684" y="48.568917"/>
     <use style="fill:#1f77b4;stroke:#1f77b4;" x="275.800838" xlink:href="#m61f8b4d684" y="89.80131"/>
     <use style="fill:#1f77b4;stroke:#1f77b4;" x="276.650719" xlink:href="#m61f8b4d684" y="27.218756"/>
     <use style="fill:#1f77b4;stroke:#1f77b4;" x="277.5006" xlink:href="#m61f8b4d684" y="35.546222"/>
     <use style="fill:#1f77b4;stroke:#1f77b4;" x="278.350481" xlink:href="#m61f8b4d684" y="37.240551"/>
     <use style="fill:#1f77b4;stroke:#1f77b4;" x="279.200362" xlink:href="#m61f8b4d684" y="33.776188"/>
     <use style="fill:#1f77b4;stroke:#1f77b4;" x="280.050243" xlink:href="#m61f8b4d684" y="42.950569"/>
     <use style="fill:#1f77b4;stroke:#1f77b4;" x="280.900124" xlink:href="#m61f8b4d684" y="38.644389"/>
     <use style="fill:#1f77b4;stroke:#1f77b4;" x="281.750005" xlink:href="#m61f8b4d684" y="34.1971"/>
     <use style="fill:#1f77b4;stroke:#1f77b4;" x="282.599886" xlink:href="#m61f8b4d684" y="150.86071"/>
     <use style="fill:#1f77b4;stroke:#1f77b4;" x="283.449767" xlink:href="#m61f8b4d684" y="26.043995"/>
     <use style="fill:#1f77b4;stroke:#1f77b4;" x="284.299648" xlink:href="#m61f8b4d684" y="37.641745"/>
     <use style="fill:#1f77b4;stroke:#1f77b4;" x="285.149529" xlink:href="#m61f8b4d684" y="34.088543"/>
     <use style="fill:#1f77b4;stroke:#1f77b4;" x="285.99941" xlink:href="#m61f8b4d684" y="39.737542"/>
     <use style="fill:#1f77b4;stroke:#1f77b4;" x="286.849291" xlink:href="#m61f8b4d684" y="31.836521"/>
     <use style="fill:#1f77b4;stroke:#1f77b4;" x="287.699172" xlink:href="#m61f8b4d684" y="53.472409"/>
     <use style="fill:#1f77b4;stroke:#1f77b4;" x="288.549053" xlink:href="#m61f8b4d684" y="44.734064"/>
     <use style="fill:#1f77b4;stroke:#1f77b4;" x="289.398934" xlink:href="#m61f8b4d684" y="29.922535"/>
     <use style="fill:#1f77b4;stroke:#1f77b4;" x="290.248815" xlink:href="#m61f8b4d684" y="57.607583"/>
     <use style="fill:#1f77b4;stroke:#1f77b4;" x="291.098696" xlink:href="#m61f8b4d684" y="31.568331"/>
     <use style="fill:#1f77b4;stroke:#1f77b4;" x="291.948577" xlink:href="#m61f8b4d684" y="140.729443"/>
     <use style="fill:#1f77b4;stroke:#1f77b4;" x="292.798458" xlink:href="#m61f8b4d684" y="24.297517"/>
     <use style="fill:#1f77b4;stroke:#1f77b4;" x="293.648339" xlink:href="#m61f8b4d684" y="41.168472"/>
     <use style="fill:#1f77b4;stroke:#1f77b4;" x="294.49822" xlink:href="#m61f8b4d684" y="31.314411"/>
     <use style="fill:#1f77b4;stroke:#1f77b4;" x="295.348101" xlink:href="#m61f8b4d684" y="54.76504"/>
     <use style="fill:#1f77b4;stroke:#1f77b4;" x="296.197982" xlink:href="#m61f8b4d684" y="43.995203"/>
     <use style="fill:#1f77b4;stroke:#1f77b4;" x="297.047863" xlink:href="#m61f8b4d684" y="36.204065"/>
     <use style="fill:#1f77b4;stroke:#1f77b4;" x="297.897744" xlink:href="#m61f8b4d684" y="35.396228"/>
     <use style="fill:#1f77b4;stroke:#1f77b4;" x="298.747625" xlink:href="#m61f8b4d684" y="35.411023"/>
     <use style="fill:#1f77b4;stroke:#1f77b4;" x="299.597506" xlink:href="#m61f8b4d684" y="38.586961"/>
     <use style="fill:#1f77b4;stroke:#1f77b4;" x="300.447387" xlink:href="#m61f8b4d684" y="67.968791"/>
     <use style="fill:#1f77b4;stroke:#1f77b4;" x="301.297268" xlink:href="#m61f8b4d684" y="28.2344"/>
     <use style="fill:#1f77b4;stroke:#1f77b4;" x="302.147149" xlink:href="#m61f8b4d684" y="76.860641"/>
     <use style="fill:#1f77b4;stroke:#1f77b4;" x="302.99703" xlink:href="#m61f8b4d684" y="27.525851"/>
     <use style="fill:#1f77b4;stroke:#1f77b4;" x="303.846911" xlink:href="#m61f8b4d684" y="88.501374"/>
     <use style="fill:#1f77b4;stroke:#1f77b4;" x="304.696792" xlink:href="#m61f8b4d684" y="26.280974"/>
     <use style="fill:#1f77b4;stroke:#1f77b4;" x="305.546673" xlink:href="#m61f8b4d684" y="116.332138"/>
     <use style="fill:#1f77b4;stroke:#1f77b4;" x="306.396554" xlink:href="#m61f8b4d684" y="29.390356"/>
     <use style="fill:#1f77b4;stroke:#1f77b4;" x="307.246435" xlink:href="#m61f8b4d684" y="76.458555"/>
     <use style="fill:#1f77b4;stroke:#1f77b4;" x="308.096316" xlink:href="#m61f8b4d684" y="36.966558"/>
     <use style="fill:#1f77b4;stroke:#1f77b4;" x="308.946197" xlink:href="#m61f8b4d684" y="35.814833"/>
     <use style="fill:#1f77b4;stroke:#1f77b4;" x="309.796078" xlink:href="#m61f8b4d684" y="103.256926"/>
     <use style="fill:#1f77b4;stroke:#1f77b4;" x="310.645959" xlink:href="#m61f8b4d684" y="25.780185"/>
     <use style="fill:#1f77b4;stroke:#1f77b4;" x="311.49584" xlink:href="#m61f8b4d684" y="126.227857"/>
     <use style="fill:#1f77b4;stroke:#1f77b4;" x="312.345721" xlink:href="#m61f8b4d684" y="29.276732"/>
     <use style="fill:#1f77b4;stroke:#1f77b4;" x="313.195602" xlink:href="#m61f8b4d684" y="74.961081"/>
     <use style="fill:#1f77b4;stroke:#1f77b4;" x="314.045483" xlink:href="#m61f8b4d684" y="29.663688"/>
     <use style="fill:#1f77b4;stroke:#1f77b4;" x="314.895364" xlink:href="#m61f8b4d684" y="70.805394"/>
     <use style="fill:#1f77b4;stroke:#1f77b4;" x="315.745245" xlink:href="#m61f8b4d684" y="30.018086"/>
     <use style="fill:#1f77b4;stroke:#1f77b4;" x="316.595126" xlink:href="#m61f8b4d684" y="69.990074"/>
     <use style="fill:#1f77b4;stroke:#1f77b4;" x="317.445007" xlink:href="#m61f8b4d684" y="55.345702"/>
     <use style="fill:#1f77b4;stroke:#1f77b4;" x="318.294888" xlink:href="#m61f8b4d684" y="27.403824"/>
     <use style="fill:#1f77b4;stroke:#1f77b4;" x="319.144769" xlink:href="#m61f8b4d684" y="86.357515"/>
     <use style="fill:#1f77b4;stroke:#1f77b4;" x="319.99465" xlink:href="#m61f8b4d684" y="26.353062"/>
     <use style="fill:#1f77b4;stroke:#1f77b4;" x="320.844531" xlink:href="#m61f8b4d684" y="114.449326"/>
     <use style="fill:#1f77b4;stroke:#1f77b4;" x="321.694412" xlink:href="#m61f8b4d684" y="29.507403"/>
     <use style="fill:#1f77b4;stroke:#1f77b4;" x="322.544293" xlink:href="#m61f8b4d684" y="74.994352"/>
     <use style="fill:#1f77b4;stroke:#1f77b4;" x="323.394174" xlink:href="#m61f8b4d684" y="39.151005"/>
     <use style="fill:#1f77b4;stroke:#1f77b4;" x="324.244055" xlink:href="#m61f8b4d684" y="32.544845"/>
     <use style="fill:#1f77b4;stroke:#1f77b4;" x="325.093936" xlink:href="#m61f8b4d684" y="41.293421"/>
     <use style="fill:#1f77b4;stroke:#1f77b4;" x="325.943817" xlink:href="#m61f8b4d684" y="31.735312"/>
     <use style="fill:#1f77b4;stroke:#1f77b4;" x="326.793698" xlink:href="#m61f8b4d684" y="46.912762"/>
     <use style="fill:#1f77b4;stroke:#1f77b4;" x="327.643579" xlink:href="#m61f8b4d684" y="28.960306"/>
     <use style="fill:#1f77b4;stroke:#1f77b4;" x="328.49346" xlink:href="#m61f8b4d684" y="78.299647"/>
     <use style="fill:#1f77b4;stroke:#1f77b4;" x="329.343341" xlink:href="#m61f8b4d684" y="36.381207"/>
     <use style="fill:#1f77b4;stroke:#1f77b4;" x="330.193222" xlink:href="#m61f8b4d684" y="34.294534"/>
     <use style="fill:#1f77b4;stroke:#1f77b4;" x="331.043103" xlink:href="#m61f8b4d684" y="39.042996"/>
     <use style="fill:#1f77b4;stroke:#1f77b4;" x="331.892984" xlink:href="#m61f8b4d684" y="32.117696"/>
     <use style="fill:#1f77b4;stroke:#1f77b4;" x="332.742865" xlink:href="#m61f8b4d684" y="52.45463"/>
     <use style="fill:#1f77b4;stroke:#1f77b4;" x="333.592746" xlink:href="#m61f8b4d684" y="49.297125"/>
     <use style="fill:#1f77b4;stroke:#1f77b4;" x="334.442627" xlink:href="#m61f8b4d684" y="28.720127"/>
     <use style="fill:#1f77b4;stroke:#1f77b4;" x="335.292508" xlink:href="#m61f8b4d684" y="69.120546"/>
     <use style="fill:#1f77b4;stroke:#1f77b4;" x="336.142389" xlink:href="#m61f8b4d684" y="28.355681"/>
     <use style="fill:#1f77b4;stroke:#1f77b4;" x="336.99227" xlink:href="#m61f8b4d684" y="75.127676"/>
     <use style="fill:#1f77b4;stroke:#1f77b4;" x="337.842151" xlink:href="#m61f8b4d684" y="27.933886"/>
     <use style="fill:#1f77b4;stroke:#1f77b4;" x="338.692032" xlink:href="#m61f8b4d684" y="79.734138"/>
     <use style="fill:#1f77b4;stroke:#1f77b4;" x="339.541913" xlink:href="#m61f8b4d684" y="28.14078"/>
     <use style="fill:#1f77b4;stroke:#1f77b4;" x="340.391794" xlink:href="#m61f8b4d684" y="26.410866"/>
     <use style="fill:#1f77b4;stroke:#1f77b4;" x="341.241675" xlink:href="#m61f8b4d684" y="37.479473"/>
     <use style="fill:#1f77b4;stroke:#1f77b4;" x="342.091556" xlink:href="#m61f8b4d684" y="34.18763"/>
     <use style="fill:#1f77b4;stroke:#1f77b4;" x="342.941437" xlink:href="#m61f8b4d684" y="39.750382"/>
     <use style="fill:#1f77b4;stroke:#1f77b4;" x="343.791318" xlink:href="#m61f8b4d684" y="63.825455"/>
     <use style="fill:#1f77b4;stroke:#1f77b4;" x="344.641199" xlink:href="#m61f8b4d684" y="119.675651"/>
     <use style="fill:#1f77b4;stroke:#1f77b4;" x="345.49108" xlink:href="#m61f8b4d684" y="24.52367"/>
     <use style="fill:#1f77b4;stroke:#1f77b4;" x="346.340961" xlink:href="#m61f8b4d684" y="39.380886"/>
     <use style="fill:#1f77b4;stroke:#1f77b4;" x="347.190842" xlink:href="#m61f8b4d684" y="32.86086"/>
     <use style="fill:#1f77b4;stroke:#1f77b4;" x="348.040723" xlink:href="#m61f8b4d684" y="42.425559"/>
     <use style="fill:#1f77b4;stroke:#1f77b4;" x="348.890604" xlink:href="#m61f8b4d684" y="30.607636"/>
     <use style="fill:#1f77b4;stroke:#1f77b4;" x="349.740485" xlink:href="#m61f8b4d684" y="61.26754"/>
     <use style="fill:#1f77b4;stroke:#1f77b4;" x="350.590366" xlink:href="#m61f8b4d684" y="33.143915"/>
     <use style="fill:#1f77b4;stroke:#1f77b4;" x="351.440248" xlink:href="#m61f8b4d684" y="45.476677"/>
     <use style="fill:#1f77b4;stroke:#1f77b4;" x="352.290129" xlink:href="#m61f8b4d684" y="153.0451"/>
     <use style="fill:#1f77b4;stroke:#1f77b4;" x="353.14001" xlink:href="#m61f8b4d684" y="25.765054"/>
     <use style="fill:#1f77b4;stroke:#1f77b4;" x="353.989891" xlink:href="#m61f8b4d684" y="37.480508"/>
     <use style="fill:#1f77b4;stroke:#1f77b4;" x="354.839772" xlink:href="#m61f8b4d684" y="34.651283"/>
     <use style="fill:#1f77b4;stroke:#1f77b4;" x="355.689653" xlink:href="#m61f8b4d684" y="37.361081"/>
     <use style="fill:#1f77b4;stroke:#1f77b4;" x="356.539534" xlink:href="#m61f8b4d684" y="34.59068"/>
     <use style="fill:#1f77b4;stroke:#1f77b4;" x="357.389415" xlink:href="#m61f8b4d684" y="37.464211"/>
     <use style="fill:#1f77b4;stroke:#1f77b4;" x="358.239296" xlink:href="#m61f8b4d684" y="34.398399"/>
     <use style="fill:#1f77b4;stroke:#1f77b4;" x="359.089177" xlink:href="#m61f8b4d684" y="38.00765"/>
     <use style="fill:#1f77b4;stroke:#1f77b4;" x="359.939058" xlink:href="#m61f8b4d684" y="33.681172"/>
     <use style="fill:#1f77b4;stroke:#1f77b4;" x="360.788939" xlink:href="#m61f8b4d684" y="40.412061"/>
     <use style="fill:#1f77b4;stroke:#1f77b4;" x="361.63882" xlink:href="#m61f8b4d684" y="31.499703"/>
     <use style="fill:#1f77b4;stroke:#1f77b4;" x="362.488701" xlink:href="#m61f8b4d684" y="55.195957"/>
     <use style="fill:#1f77b4;stroke:#1f77b4;" x="363.338582" xlink:href="#m61f8b4d684" y="39.503232"/>
     <use style="fill:#1f77b4;stroke:#1f77b4;" x="364.188463" xlink:href="#m61f8b4d684" y="32.647354"/>
     <use style="fill:#1f77b4;stroke:#1f77b4;" x="365.038344" xlink:href="#m61f8b4d684" y="40.619949"/>
     <use style="fill:#1f77b4;stroke:#1f77b4;" x="365.888225" xlink:href="#m61f8b4d684" y="32.416907"/>
     <use style="fill:#1f77b4;stroke:#1f77b4;" x="366.738106" xlink:href="#m61f8b4d684" y="42.347348"/>
     <use style="fill:#1f77b4;stroke:#1f77b4;" x="367.587987" xlink:href="#m61f8b4d684" y="31.163212"/>
     <use style="fill:#1f77b4;stroke:#1f77b4;" x="368.437868" xlink:href="#m61f8b4d684" y="51.297715"/>
     <use style="fill:#1f77b4;stroke:#1f77b4;" x="369.287749" xlink:href="#m61f8b4d684" y="32.608115"/>
     <use style="fill:#1f77b4;stroke:#1f77b4;" x="370.13763" xlink:href="#m61f8b4d684" y="40.542473"/>
     <use style="fill:#1f77b4;stroke:#1f77b4;" x="370.987511" xlink:href="#m61f8b4d684" y="33.050177"/>
     <use style="fill:#1f77b4;stroke:#1f77b4;" x="371.182167" xlink:href="#m61f8b4d684" y="22383.514"/>
    </g>
   </g>
   <g id="line2d_36">
    <path clip-path="url(#p37b2f05684)" d="M 100.72535 34.02028 
L 102.425112 130.756654 
L 104.124874 213.256358 
" style="fill:none;stroke:#2ca02c;stroke-dasharray:1.5,2.475;stroke-dashoffset:0;stroke-width:1.5;"/>
    <defs>
     <path d="M -3 3 
L 3 -3 
M -3 -3 
L 3 3 
" id="m4b619e520a" style="stroke:#2ca02c;"/>
    </defs>
    <g clip-path="url(#p37b2f05684)">
     <use style="fill:#2ca02c;stroke:#2ca02c;" x="100.72535" xlink:href="#m4b619e520a" y="34.02028"/>
     <use style="fill:#2ca02c;stroke:#2ca02c;" x="102.425112" xlink:href="#m4b619e520a" y="130.756654"/>
     <use style="fill:#2ca02c;stroke:#2ca02c;" x="104.124874" xlink:href="#m4b619e520a" y="213.256358"/>
    </g>
   </g>
   <g id="line2d_37">
    <path clip-path="url(#p37b2f05684)" d="M 48.882608 294.291822 
L 49.215976 311.86825 
L 49.215976 311.86825 
" style="fill:none;stroke:#000000;stroke-dasharray:5.55,2.4;stroke-dashoffset:0;stroke-width:1.5;"/>
   </g>
   <g id="patch_3">
    <path d="M 31.8 273.312 
L 31.8 7.2 
" style="fill:none;stroke:#000000;stroke-linecap:square;stroke-linejoin:miter;stroke-width:0.8;"/>
   </g>
   <g id="patch_4">
    <path d="M 388.92 273.312 
L 388.92 7.2 
" style="fill:none;stroke:#000000;stroke-linecap:square;stroke-linejoin:miter;stroke-width:0.8;"/>
   </g>
   <g id="patch_5">
    <path d="M 31.8 273.312 
L 388.92 273.312 
" style="fill:none;stroke:#000000;stroke-linecap:square;stroke-linejoin:miter;stroke-width:0.8;"/>
   </g>
   <g id="patch_6">
    <path d="M 31.8 7.2 
L 388.92 7.2 
" style="fill:none;stroke:#000000;stroke-linecap:square;stroke-linejoin:miter;stroke-width:0.8;"/>
   </g>
   <g id="legend_1">
    <g id="patch_7">
     <path d="M 162.817031 268.312 
L 257.902969 268.312 
Q 259.902969 268.312 259.902969 266.312 
L 259.902969 223.25575 
Q 259.902969 221.25575 257.902969 221.25575 
L 162.817031 221.25575 
Q 160.817031 221.25575 160.817031 223.25575 
L 160.817031 266.312 
Q 160.817031 268.312 162.817031 268.312 
z
" style="fill:#ffffff;opacity:0.8;"/>
    </g>
    <g id="line2d_38">
     <path d="M 164.817031 229.354187 
L 184.817031 229.354187 
" style="fill:none;stroke:#1f77b4;stroke-linecap:square;stroke-width:1.5;"/>
    </g>
    <g id="line2d_39">
     <g>
      <use style="fill:#1f77b4;stroke:#1f77b4;" x="174.817031" xlink:href="#m61f8b4d684" y="229.354187"/>
     </g>
    </g>
    <g id="text_14">
     <!-- APD$_n$ - APD$_\infty$ -->
     <defs>
      <path d="M 34.1875 63.1875 
L 20.796875 26.90625 
L 47.609375 26.90625 
z
M 28.609375 72.90625 
L 39.796875 72.90625 
L 67.578125 0 
L 57.328125 0 
L 50.6875 18.703125 
L 17.828125 18.703125 
L 11.1875 0 
L 0.78125 0 
z
" id="DejaVuSans-65"/>
      <path d="M 19.671875 64.796875 
L 19.671875 37.40625 
L 32.078125 37.40625 
Q 38.96875 37.40625 42.71875 40.96875 
Q 46.484375 44.53125 46.484375 51.125 
Q 46.484375 57.671875 42.71875 61.234375 
Q 38.96875 64.796875 32.078125 64.796875 
z
M 9.8125 72.90625 
L 32.078125 72.90625 
Q 44.34375 72.90625 50.609375 67.359375 
Q 56.890625 61.8125 56.890625 51.125 
Q 56.890625 40.328125 50.609375 34.8125 
Q 44.34375 29.296875 32.078125 29.296875 
L 19.671875 29.296875 
L 19.671875 0 
L 9.8125 0 
z
" id="DejaVuSans-80"/>
      <path d="M 19.671875 64.796875 
L 19.671875 8.109375 
L 31.59375 8.109375 
Q 46.6875 8.109375 53.6875 14.9375 
Q 60.6875 21.78125 60.6875 36.53125 
Q 60.6875 51.171875 53.6875 57.984375 
Q 46.6875 64.796875 31.59375 64.796875 
z
M 9.8125 72.90625 
L 30.078125 72.90625 
Q 51.265625 72.90625 61.171875 64.09375 
Q 71.09375 55.28125 71.09375 36.53125 
Q 71.09375 17.671875 61.125 8.828125 
Q 51.171875 0 30.078125 0 
L 9.8125 0 
z
" id="DejaVuSans-68"/>
      <path d="M 55.71875 33.015625 
L 49.3125 0 
L 40.28125 0 
L 46.6875 32.671875 
Q 47.125 34.96875 47.359375 36.71875 
Q 47.609375 38.484375 47.609375 39.5 
Q 47.609375 43.609375 45.015625 45.890625 
Q 42.4375 48.1875 37.796875 48.1875 
Q 30.5625 48.1875 25.34375 43.375 
Q 20.125 38.578125 18.5 30.328125 
L 12.5 0 
L 3.515625 0 
L 14.109375 54.6875 
L 23.09375 54.6875 
L 21.296875 46.09375 
Q 25.046875 50.828125 30.3125 53.40625 
Q 35.59375 56 41.40625 56 
Q 48.640625 56 52.609375 52.09375 
Q 56.59375 48.1875 56.59375 41.109375 
Q 56.59375 39.359375 56.375 37.359375 
Q 56.15625 35.359375 55.71875 33.015625 
z
" id="DejaVuSans-Oblique-110"/>
      <path id="DejaVuSans-32"/>
      <path d="M 4.890625 31.390625 
L 31.203125 31.390625 
L 31.203125 23.390625 
L 4.890625 23.390625 
z
" id="DejaVuSans-45"/>
      <path d="M 45.5625 17.046875 
Q 44.046875 18.796875 41.65625 22.90625 
Q 38.375 17.046875 35.5 14.453125 
Q 31.890625 11.328125 26.265625 11.328125 
Q 19.671875 11.328125 15.328125 16.265625 
Q 10.75 21.4375 10.75 29.984375 
Q 10.75 38.1875 15.328125 43.75 
Q 19.4375 48.6875 26.375 48.6875 
Q 29.9375 48.6875 32.5625 47.21875 
Q 35.640625 45.609375 37.75 42.828125 
Q 39.703125 40.328125 41.65625 36.96875 
Q 44.921875 42.828125 47.796875 45.40625 
Q 51.421875 48.53125 57.03125 48.53125 
Q 63.625 48.53125 67.96875 43.609375 
Q 72.5625 38.421875 72.5625 29.890625 
Q 72.5625 21.6875 67.96875 16.109375 
Q 63.875 11.1875 56.9375 11.1875 
Q 53.375 11.1875 50.734375 12.640625 
Q 48.09375 13.96875 45.5625 17.046875 
z
M 25.734375 17.71875 
Q 33.796875 17.71875 38.625 29.4375 
Q 32.421875 42.234375 25.734375 42.234375 
Q 20.84375 42.234375 18.359375 38.71875 
Q 15.671875 34.96875 15.671875 29.984375 
Q 15.671875 24.515625 18.359375 21.140625 
Q 21.09375 17.71875 25.734375 17.71875 
z
M 57.5625 42.140625 
Q 50.296875 42.140625 44.671875 30.421875 
Q 50.828125 17.625 57.5625 17.625 
Q 62.453125 17.625 64.9375 21.140625 
Q 67.625 24.90625 67.625 29.890625 
Q 67.625 35.359375 64.9375 38.71875 
Q 62.203125 42.140625 57.5625 42.140625 
z
" id="DejaVuSans-8734"/>
     </defs>
     <g transform="translate(192.817031 232.854187)scale(0.1 -0.1)">
      <use transform="translate(0 0.09375)" xlink:href="#DejaVuSans-65"/>
      <use transform="translate(68.408203 0.09375)" xlink:href="#DejaVuSans-80"/>
      <use transform="translate(128.710938 0.09375)" xlink:href="#DejaVuSans-68"/>
      <use transform="translate(206.669922 -16.3125)scale(0.7)" xlink:href="#DejaVuSans-Oblique-110"/>
      <use transform="translate(253.769531 0.09375)" xlink:href="#DejaVuSans-32"/>
      <use transform="translate(285.556641 0.09375)" xlink:href="#DejaVuSans-45"/>
      <use transform="translate(321.640625 0.09375)" xlink:href="#DejaVuSans-32"/>
      <use transform="translate(353.427734 0.09375)" xlink:href="#DejaVuSans-65"/>
      <use transform="translate(421.835938 0.09375)" xlink:href="#DejaVuSans-80"/>
      <use transform="translate(482.138672 0.09375)" xlink:href="#DejaVuSans-68"/>
      <use transform="translate(560.097656 -16.3125)scale(0.7)" xlink:href="#DejaVuSans-8734"/>
     </g>
    </g>
    <g id="line2d_40">
     <path d="M 164.817031 244.032312 
L 184.817031 244.032312 
" style="fill:none;stroke:#2ca02c;stroke-dasharray:1.5,2.475;stroke-dashoffset:0;stroke-width:1.5;"/>
    </g>
    <g id="line2d_41">
     <g>
      <use style="fill:#2ca02c;stroke:#2ca02c;" x="174.817031" xlink:href="#m4b619e520a" y="244.032312"/>
     </g>
    </g>
    <g id="text_15">
     <!-- linear region -->
     <defs>
      <path d="M 9.421875 75.984375 
L 18.40625 75.984375 
L 18.40625 0 
L 9.421875 0 
z
" id="DejaVuSans-108"/>
      <path d="M 9.421875 54.6875 
L 18.40625 54.6875 
L 18.40625 0 
L 9.421875 0 
z
M 9.421875 75.984375 
L 18.40625 75.984375 
L 18.40625 64.59375 
L 9.421875 64.59375 
z
" id="DejaVuSans-105"/>
      <path d="M 54.890625 33.015625 
L 54.890625 0 
L 45.90625 0 
L 45.90625 32.71875 
Q 45.90625 40.484375 42.875 44.328125 
Q 39.84375 48.1875 33.796875 48.1875 
Q 26.515625 48.1875 22.3125 43.546875 
Q 18.109375 38.921875 18.109375 30.90625 
L 18.109375 0 
L 9.078125 0 
L 9.078125 54.6875 
L 18.109375 54.6875 
L 18.109375 46.1875 
Q 21.34375 51.125 25.703125 53.5625 
Q 30.078125 56 35.796875 56 
Q 45.21875 56 50.046875 50.171875 
Q 54.890625 44.34375 54.890625 33.015625 
z
" id="DejaVuSans-110"/>
      <path d="M 56.203125 29.59375 
L 56.203125 25.203125 
L 14.890625 25.203125 
Q 15.484375 15.921875 20.484375 11.0625 
Q 25.484375 6.203125 34.421875 6.203125 
Q 39.59375 6.203125 44.453125 7.46875 
Q 49.3125 8.734375 54.109375 11.28125 
L 54.109375 2.78125 
Q 49.265625 0.734375 44.1875 -0.34375 
Q 39.109375 -1.421875 33.890625 -1.421875 
Q 20.796875 -1.421875 13.15625 6.1875 
Q 5.515625 13.8125 5.515625 26.8125 
Q 5.515625 40.234375 12.765625 48.109375 
Q 20.015625 56 32.328125 56 
Q 43.359375 56 49.78125 48.890625 
Q 56.203125 41.796875 56.203125 29.59375 
z
M 47.21875 32.234375 
Q 47.125 39.59375 43.09375 43.984375 
Q 39.0625 48.390625 32.421875 48.390625 
Q 24.90625 48.390625 20.390625 44.140625 
Q 15.875 39.890625 15.1875 32.171875 
z
" id="DejaVuSans-101"/>
      <path d="M 34.28125 27.484375 
Q 23.390625 27.484375 19.1875 25 
Q 14.984375 22.515625 14.984375 16.5 
Q 14.984375 11.71875 18.140625 8.90625 
Q 21.296875 6.109375 26.703125 6.109375 
Q 34.1875 6.109375 38.703125 11.40625 
Q 43.21875 16.703125 43.21875 25.484375 
L 43.21875 27.484375 
z
M 52.203125 31.203125 
L 52.203125 0 
L 43.21875 0 
L 43.21875 8.296875 
Q 40.140625 3.328125 35.546875 0.953125 
Q 30.953125 -1.421875 24.3125 -1.421875 
Q 15.921875 -1.421875 10.953125 3.296875 
Q 6 8.015625 6 15.921875 
Q 6 25.140625 12.171875 29.828125 
Q 18.359375 34.515625 30.609375 34.515625 
L 43.21875 34.515625 
L 43.21875 35.40625 
Q 43.21875 41.609375 39.140625 45 
Q 35.0625 48.390625 27.6875 48.390625 
Q 23 48.390625 18.546875 47.265625 
Q 14.109375 46.140625 10.015625 43.890625 
L 10.015625 52.203125 
Q 14.9375 54.109375 19.578125 55.046875 
Q 24.21875 56 28.609375 56 
Q 40.484375 56 46.34375 49.84375 
Q 52.203125 43.703125 52.203125 31.203125 
z
" id="DejaVuSans-97"/>
      <path d="M 41.109375 46.296875 
Q 39.59375 47.171875 37.8125 47.578125 
Q 36.03125 48 33.890625 48 
Q 26.265625 48 22.1875 43.046875 
Q 18.109375 38.09375 18.109375 28.8125 
L 18.109375 0 
L 9.078125 0 
L 9.078125 54.6875 
L 18.109375 54.6875 
L 18.109375 46.1875 
Q 20.953125 51.171875 25.484375 53.578125 
Q 30.03125 56 36.53125 56 
Q 37.453125 56 38.578125 55.875 
Q 39.703125 55.765625 41.0625 55.515625 
z
" id="DejaVuSans-114"/>
      <path d="M 45.40625 27.984375 
Q 45.40625 37.75 41.375 43.109375 
Q 37.359375 48.484375 30.078125 48.484375 
Q 22.859375 48.484375 18.828125 43.109375 
Q 14.796875 37.75 14.796875 27.984375 
Q 14.796875 18.265625 18.828125 12.890625 
Q 22.859375 7.515625 30.078125 7.515625 
Q 37.359375 7.515625 41.375 12.890625 
Q 45.40625 18.265625 45.40625 27.984375 
z
M 54.390625 6.78125 
Q 54.390625 -7.171875 48.1875 -13.984375 
Q 42 -20.796875 29.203125 -20.796875 
Q 24.46875 -20.796875 20.265625 -20.09375 
Q 16.0625 -19.390625 12.109375 -17.921875 
L 12.109375 -9.1875 
Q 16.0625 -11.328125 19.921875 -12.34375 
Q 23.78125 -13.375 27.78125 -13.375 
Q 36.625 -13.375 41.015625 -8.765625 
Q 45.40625 -4.15625 45.40625 5.171875 
L 45.40625 9.625 
Q 42.625 4.78125 38.28125 2.390625 
Q 33.9375 0 27.875 0 
Q 17.828125 0 11.671875 7.65625 
Q 5.515625 15.328125 5.515625 27.984375 
Q 5.515625 40.671875 11.671875 48.328125 
Q 17.828125 56 27.875 56 
Q 33.9375 56 38.28125 53.609375 
Q 42.625 51.21875 45.40625 46.390625 
L 45.40625 54.6875 
L 54.390625 54.6875 
z
" id="DejaVuSans-103"/>
      <path d="M 30.609375 48.390625 
Q 23.390625 48.390625 19.1875 42.75 
Q 14.984375 37.109375 14.984375 27.296875 
Q 14.984375 17.484375 19.15625 11.84375 
Q 23.34375 6.203125 30.609375 6.203125 
Q 37.796875 6.203125 41.984375 11.859375 
Q 46.1875 17.53125 46.1875 27.296875 
Q 46.1875 37.015625 41.984375 42.703125 
Q 37.796875 48.390625 30.609375 48.390625 
z
M 30.609375 56 
Q 42.328125 56 49.015625 48.375 
Q 55.71875 40.765625 55.71875 27.296875 
Q 55.71875 13.875 49.015625 6.21875 
Q 42.328125 -1.421875 30.609375 -1.421875 
Q 18.84375 -1.421875 12.171875 6.21875 
Q 5.515625 13.875 5.515625 27.296875 
Q 5.515625 40.765625 12.171875 48.375 
Q 18.84375 56 30.609375 56 
z
" id="DejaVuSans-111"/>
     </defs>
     <g transform="translate(192.817031 247.532312)scale(0.1 -0.1)">
      <use xlink:href="#DejaVuSans-108"/>
      <use x="27.783203" xlink:href="#DejaVuSans-105"/>
      <use x="55.566406" xlink:href="#DejaVuSans-110"/>
      <use x="118.945312" xlink:href="#DejaVuSans-101"/>
      <use x="180.46875" xlink:href="#DejaVuSans-97"/>
      <use x="241.748047" xlink:href="#DejaVuSans-114"/>
      <use x="282.861328" xlink:href="#DejaVuSans-32"/>
      <use x="314.648438" xlink:href="#DejaVuSans-114"/>
      <use x="353.511719" xlink:href="#DejaVuSans-101"/>
      <use x="415.035156" xlink:href="#DejaVuSans-103"/>
      <use x="478.511719" xlink:href="#DejaVuSans-105"/>
      <use x="506.294922" xlink:href="#DejaVuSans-111"/>
      <use x="567.476562" xlink:href="#DejaVuSans-110"/>
     </g>
    </g>
    <g id="line2d_42">
     <path d="M 164.817031 258.712 
L 184.817031 258.712 
" style="fill:none;stroke:#000000;stroke-dasharray:5.55,2.4;stroke-dashoffset:0;stroke-width:1.5;"/>
    </g>
    <g id="line2d_43"/>
    <g id="text_16">
     <!-- $ \exp(-1.06 k)$ -->
     <defs>
      <path d="M 54.890625 54.6875 
L 35.109375 28.078125 
L 55.90625 0 
L 45.3125 0 
L 29.390625 21.484375 
L 13.484375 0 
L 2.875 0 
L 24.125 28.609375 
L 4.6875 54.6875 
L 15.28125 54.6875 
L 29.78125 35.203125 
L 44.28125 54.6875 
z
" id="DejaVuSans-120"/>
      <path d="M 18.109375 8.203125 
L 18.109375 -20.796875 
L 9.078125 -20.796875 
L 9.078125 54.6875 
L 18.109375 54.6875 
L 18.109375 46.390625 
Q 20.953125 51.265625 25.265625 53.625 
Q 29.59375 56 35.59375 56 
Q 45.5625 56 51.78125 48.09375 
Q 58.015625 40.1875 58.015625 27.296875 
Q 58.015625 14.40625 51.78125 6.484375 
Q 45.5625 -1.421875 35.59375 -1.421875 
Q 29.59375 -1.421875 25.265625 0.953125 
Q 20.953125 3.328125 18.109375 8.203125 
z
M 48.6875 27.296875 
Q 48.6875 37.203125 44.609375 42.84375 
Q 40.53125 48.484375 33.40625 48.484375 
Q 26.265625 48.484375 22.1875 42.84375 
Q 18.109375 37.203125 18.109375 27.296875 
Q 18.109375 17.390625 22.1875 11.75 
Q 26.265625 6.109375 33.40625 6.109375 
Q 40.53125 6.109375 44.609375 11.75 
Q 48.6875 17.390625 48.6875 27.296875 
z
" id="DejaVuSans-112"/>
      <path d="M 31 75.875 
Q 24.46875 64.65625 21.28125 53.65625 
Q 18.109375 42.671875 18.109375 31.390625 
Q 18.109375 20.125 21.3125 9.0625 
Q 24.515625 -2 31 -13.1875 
L 23.1875 -13.1875 
Q 15.875 -1.703125 12.234375 9.375 
Q 8.59375 20.453125 8.59375 31.390625 
Q 8.59375 42.28125 12.203125 53.3125 
Q 15.828125 64.359375 23.1875 75.875 
z
" id="DejaVuSans-40"/>
      <path d="M 10.59375 35.5 
L 73.1875 35.5 
L 73.1875 27.203125 
L 10.59375 27.203125 
z
" id="DejaVuSans-8722"/>
      <path d="M 10.6875 12.40625 
L 21 12.40625 
L 21 0 
L 10.6875 0 
z
" id="DejaVuSans-46"/>
      <path d="M 33.015625 40.375 
Q 26.375 40.375 22.484375 35.828125 
Q 18.609375 31.296875 18.609375 23.390625 
Q 18.609375 15.53125 22.484375 10.953125 
Q 26.375 6.390625 33.015625 6.390625 
Q 39.65625 6.390625 43.53125 10.953125 
Q 47.40625 15.53125 47.40625 23.390625 
Q 47.40625 31.296875 43.53125 35.828125 
Q 39.65625 40.375 33.015625 40.375 
z
M 52.59375 71.296875 
L 52.59375 62.3125 
Q 48.875 64.0625 45.09375 64.984375 
Q 41.3125 65.921875 37.59375 65.921875 
Q 27.828125 65.921875 22.671875 59.328125 
Q 17.53125 52.734375 16.796875 39.40625 
Q 19.671875 43.65625 24.015625 45.921875 
Q 28.375 48.1875 33.59375 48.1875 
Q 44.578125 48.1875 50.953125 41.515625 
Q 57.328125 34.859375 57.328125 23.390625 
Q 57.328125 12.15625 50.6875 5.359375 
Q 44.046875 -1.421875 33.015625 -1.421875 
Q 20.359375 -1.421875 13.671875 8.265625 
Q 6.984375 17.96875 6.984375 36.375 
Q 6.984375 53.65625 15.1875 63.9375 
Q 23.390625 74.21875 37.203125 74.21875 
Q 40.921875 74.21875 44.703125 73.484375 
Q 48.484375 72.75 52.59375 71.296875 
z
" id="DejaVuSans-54"/>
      <path d="M 8.015625 75.875 
L 15.828125 75.875 
Q 23.140625 64.359375 26.78125 53.3125 
Q 30.421875 42.28125 30.421875 31.390625 
Q 30.421875 20.453125 26.78125 9.375 
Q 23.140625 -1.703125 15.828125 -13.1875 
L 8.015625 -13.1875 
Q 14.5 -2 17.703125 9.0625 
Q 20.90625 20.125 20.90625 31.390625 
Q 20.90625 42.671875 17.703125 53.65625 
Q 14.5 64.65625 8.015625 75.875 
z
" id="DejaVuSans-41"/>
     </defs>
     <g transform="translate(192.817031 262.212)scale(0.1 -0.1)">
      <use transform="translate(0 0.015625)" xlink:href="#DejaVuSans-101"/>
      <use transform="translate(61.523438 0.015625)" xlink:href="#DejaVuSans-120"/>
      <use transform="translate(120.703125 0.015625)" xlink:href="#DejaVuSans-112"/>
      <use transform="translate(184.179688 0.015625)" xlink:href="#DejaVuSans-40"/>
      <use transform="translate(223.193359 0.015625)" xlink:href="#DejaVuSans-8722"/>
      <use transform="translate(306.982422 0.015625)" xlink:href="#DejaVuSans-49"/>
      <use transform="translate(370.605469 0.015625)" xlink:href="#DejaVuSans-46"/>
      <use transform="translate(402.392578 0.015625)" xlink:href="#DejaVuSans-48"/>
      <use transform="translate(466.015625 0.015625)" xlink:href="#DejaVuSans-54"/>
      <use transform="translate(529.638672 0.015625)" xlink:href="#DejaVuSans-Oblique-107"/>
      <use transform="translate(587.548828 0.015625)" xlink:href="#DejaVuSans-41"/>
     </g>
    </g>
   </g>
  </g>
 </g>
 <defs>
  <clipPath id="p37b2f05684">
   <rect height="266.112" width="357.12" x="31.8" y="7.2"/>
  </clipPath>
 </defs>
</svg>
