<?xml version="1.0" encoding="utf-8" standalone="no"?>
<!DOCTYPE svg PUBLIC "-//W3C//DTD SVG 1.1//EN"
  "http://www.w3.org/Graphics/SVG/1.1/DTD/svg11.dtd">
<!-- Created with matplotlib (https://matplotlib.org/) -->
<svg height="310.86825pt" version="1.1" viewBox="0 0 402.02 310.86825" width="402.02pt" xmlns="http://www.w3.org/2000/svg" xmlns:xlink="http://www.w3.org/1999/xlink">
 <defs>
  <style type="text/css">
*{stroke-linecap:butt;stroke-linejoin:round;}
  </style>
 </defs>
 <g id="figure_1">
  <g id="patch_1">
   <path d="M 0 310.86825 
L 402.02 310.86825 
L 402.02 0 
L 0 0 
z
" style="fill:#ffffff;"/>
  </g>
  <g id="axes_1">
   <g id="patch_2">
    <path d="M 37.7 273.312 
L 394.82 273.312 
L 394.82 7.2 
L 37.7 7.2 
z
" style="fill:#ffffff;"/>
   </g>
   <g id="matplotlib.axis_1">
    <g id="xtick_1">
     <g id="line2d_1">
      <defs>
       <path d="M 0 0 
L 0 3.5 
" id="me243a0b086" style="stroke:#000000;stroke-width:0.8;"/>
      </defs>
      <g>
       <use style="stroke:#000000;stroke-width:0.8;" x="53.932727" xlink:href="#me243a0b086" y="273.312"/>
      </g>
     </g>
     <g id="text_1">
      <!-- 0 -->
      <defs>
       <path d="M 31.78125 66.40625 
Q 24.171875 66.40625 20.328125 58.90625 
Q 16.5 51.421875 16.5 36.375 
Q 16.5 21.390625 20.328125 13.890625 
Q 24.171875 6.390625 31.78125 6.390625 
Q 39.453125 6.390625 43.28125 13.890625 
Q 47.125 21.390625 47.125 36.375 
Q 47.125 51.421875 43.28125 58.90625 
Q 39.453125 66.40625 31.78125 66.40625 
z
M 31.78125 74.21875 
Q 44.046875 74.21875 50.515625 64.515625 
Q 56.984375 54.828125 56.984375 36.375 
Q 56.984375 17.96875 50.515625 8.265625 
Q 44.046875 -1.421875 31.78125 -1.421875 
Q 19.53125 -1.421875 13.0625 8.265625 
Q 6.59375 17.96875 6.59375 36.375 
Q 6.59375 54.828125 13.0625 64.515625 
Q 19.53125 74.21875 31.78125 74.21875 
z
" id="DejaVuSans-48"/>
      </defs>
      <g transform="translate(50.751477 287.910437)scale(0.1 -0.1)">
       <use xlink:href="#DejaVuSans-48"/>
      </g>
     </g>
    </g>
    <g id="xtick_2">
     <g id="line2d_2">
      <g>
       <use style="stroke:#000000;stroke-width:0.8;" x="132.924101" xlink:href="#me243a0b086" y="273.312"/>
      </g>
     </g>
     <g id="text_2">
      <!-- 100 -->
      <defs>
       <path d="M 12.40625 8.296875 
L 28.515625 8.296875 
L 28.515625 63.921875 
L 10.984375 60.40625 
L 10.984375 69.390625 
L 28.421875 72.90625 
L 38.28125 72.90625 
L 38.28125 8.296875 
L 54.390625 8.296875 
L 54.390625 0 
L 12.40625 0 
z
" id="DejaVuSans-49"/>
      </defs>
      <g transform="translate(123.380351 287.910437)scale(0.1 -0.1)">
       <use xlink:href="#DejaVuSans-49"/>
       <use x="63.623047" xlink:href="#DejaVuSans-48"/>
       <use x="127.246094" xlink:href="#DejaVuSans-48"/>
      </g>
     </g>
    </g>
    <g id="xtick_3">
     <g id="line2d_3">
      <g>
       <use style="stroke:#000000;stroke-width:0.8;" x="211.915474" xlink:href="#me243a0b086" y="273.312"/>
      </g>
     </g>
     <g id="text_3">
      <!-- 200 -->
      <defs>
       <path d="M 19.1875 8.296875 
L 53.609375 8.296875 
L 53.609375 0 
L 7.328125 0 
L 7.328125 8.296875 
Q 12.9375 14.109375 22.625 23.890625 
Q 32.328125 33.6875 34.8125 36.53125 
Q 39.546875 41.84375 41.421875 45.53125 
Q 43.3125 49.21875 43.3125 52.78125 
Q 43.3125 58.59375 39.234375 62.25 
Q 35.15625 65.921875 28.609375 65.921875 
Q 23.96875 65.921875 18.8125 64.3125 
Q 13.671875 62.703125 7.8125 59.421875 
L 7.8125 69.390625 
Q 13.765625 71.78125 18.9375 73 
Q 24.125 74.21875 28.421875 74.21875 
Q 39.75 74.21875 46.484375 68.546875 
Q 53.21875 62.890625 53.21875 53.421875 
Q 53.21875 48.921875 51.53125 44.890625 
Q 49.859375 40.875 45.40625 35.40625 
Q 44.1875 33.984375 37.640625 27.21875 
Q 31.109375 20.453125 19.1875 8.296875 
z
" id="DejaVuSans-50"/>
      </defs>
      <g transform="translate(202.371724 287.910437)scale(0.1 -0.1)">
       <use xlink:href="#DejaVuSans-50"/>
       <use x="63.623047" xlink:href="#DejaVuSans-48"/>
       <use x="127.246094" xlink:href="#DejaVuSans-48"/>
      </g>
     </g>
    </g>
    <g id="xtick_4">
     <g id="line2d_4">
      <g>
       <use style="stroke:#000000;stroke-width:0.8;" x="290.906848" xlink:href="#me243a0b086" y="273.312"/>
      </g>
     </g>
     <g id="text_4">
      <!-- 300 -->
      <defs>
       <path d="M 40.578125 39.3125 
Q 47.65625 37.796875 51.625 33 
Q 55.609375 28.21875 55.609375 21.1875 
Q 55.609375 10.40625 48.1875 4.484375 
Q 40.765625 -1.421875 27.09375 -1.421875 
Q 22.515625 -1.421875 17.65625 -0.515625 
Q 12.796875 0.390625 7.625 2.203125 
L 7.625 11.71875 
Q 11.71875 9.328125 16.59375 8.109375 
Q 21.484375 6.890625 26.8125 6.890625 
Q 36.078125 6.890625 40.9375 10.546875 
Q 45.796875 14.203125 45.796875 21.1875 
Q 45.796875 27.640625 41.28125 31.265625 
Q 36.765625 34.90625 28.71875 34.90625 
L 20.21875 34.90625 
L 20.21875 43.015625 
L 29.109375 43.015625 
Q 36.375 43.015625 40.234375 45.921875 
Q 44.09375 48.828125 44.09375 54.296875 
Q 44.09375 59.90625 40.109375 62.90625 
Q 36.140625 65.921875 28.71875 65.921875 
Q 24.65625 65.921875 20.015625 65.03125 
Q 15.375 64.15625 9.8125 62.3125 
L 9.8125 71.09375 
Q 15.4375 72.65625 20.34375 73.4375 
Q 25.25 74.21875 29.59375 74.21875 
Q 40.828125 74.21875 47.359375 69.109375 
Q 53.90625 64.015625 53.90625 55.328125 
Q 53.90625 49.265625 50.4375 45.09375 
Q 46.96875 40.921875 40.578125 39.3125 
z
" id="DejaVuSans-51"/>
      </defs>
      <g transform="translate(281.363098 287.910437)scale(0.1 -0.1)">
       <use xlink:href="#DejaVuSans-51"/>
       <use x="63.623047" xlink:href="#DejaVuSans-48"/>
       <use x="127.246094" xlink:href="#DejaVuSans-48"/>
      </g>
     </g>
    </g>
    <g id="xtick_5">
     <g id="line2d_5">
      <g>
       <use style="stroke:#000000;stroke-width:0.8;" x="369.898222" xlink:href="#me243a0b086" y="273.312"/>
      </g>
     </g>
     <g id="text_5">
      <!-- 400 -->
      <defs>
       <path d="M 37.796875 64.3125 
L 12.890625 25.390625 
L 37.796875 25.390625 
z
M 35.203125 72.90625 
L 47.609375 72.90625 
L 47.609375 25.390625 
L 58.015625 25.390625 
L 58.015625 17.1875 
L 47.609375 17.1875 
L 47.609375 0 
L 37.796875 0 
L 37.796875 17.1875 
L 4.890625 17.1875 
L 4.890625 26.703125 
z
" id="DejaVuSans-52"/>
      </defs>
      <g transform="translate(360.354472 287.910437)scale(0.1 -0.1)">
       <use xlink:href="#DejaVuSans-52"/>
       <use x="63.623047" xlink:href="#DejaVuSans-48"/>
       <use x="127.246094" xlink:href="#DejaVuSans-48"/>
      </g>
     </g>
    </g>
    <g id="text_6">
     <!-- $ k $ -->
     <defs>
      <path d="M 18.3125 75.984375 
L 27.296875 75.984375 
L 18.703125 31.6875 
L 49.515625 54.6875 
L 61.1875 54.6875 
L 26.8125 28.515625 
L 51.90625 0 
L 41.015625 0 
L 17.671875 26.703125 
L 12.5 0 
L 3.515625 0 
z
" id="DejaVuSans-Oblique-107"/>
     </defs>
     <g transform="translate(213.36 301.588562)scale(0.1 -0.1)">
      <use transform="translate(0 0.015625)" xlink:href="#DejaVuSans-Oblique-107"/>
     </g>
    </g>
   </g>
   <g id="matplotlib.axis_2">
    <g id="ytick_1">
     <g id="line2d_6">
      <defs>
       <path d="M 0 0 
L -3.5 0 
" id="md86ae64fc6" style="stroke:#000000;stroke-width:0.8;"/>
      </defs>
      <g>
       <use style="stroke:#000000;stroke-width:0.8;" x="37.7" xlink:href="#md86ae64fc6" y="231.700155"/>
      </g>
     </g>
     <g id="text_7">
      <!-- $\mathdefault{10^{-2}}$ -->
      <defs>
       <path d="M 10.59375 35.5 
L 73.1875 35.5 
L 73.1875 27.203125 
L 10.59375 27.203125 
z
" id="DejaVuSans-8722"/>
      </defs>
      <g transform="translate(7.2 235.499374)scale(0.1 -0.1)">
       <use transform="translate(0 0.765625)" xlink:href="#DejaVuSans-49"/>
       <use transform="translate(63.623047 0.765625)" xlink:href="#DejaVuSans-48"/>
       <use transform="translate(128.203125 39.046875)scale(0.7)" xlink:href="#DejaVuSans-8722"/>
       <use transform="translate(186.855469 39.046875)scale(0.7)" xlink:href="#DejaVuSans-50"/>
      </g>
     </g>
    </g>
    <g id="ytick_2">
     <g id="line2d_7">
      <g>
       <use style="stroke:#000000;stroke-width:0.8;" x="37.7" xlink:href="#md86ae64fc6" y="183.337729"/>
      </g>
     </g>
     <g id="text_8">
      <!-- $\mathdefault{10^{-1}}$ -->
      <g transform="translate(7.2 187.136948)scale(0.1 -0.1)">
       <use transform="translate(0 0.684375)" xlink:href="#DejaVuSans-49"/>
       <use transform="translate(63.623047 0.684375)" xlink:href="#DejaVuSans-48"/>
       <use transform="translate(128.203125 38.965625)scale(0.7)" xlink:href="#DejaVuSans-8722"/>
       <use transform="translate(186.855469 38.965625)scale(0.7)" xlink:href="#DejaVuSans-49"/>
      </g>
     </g>
    </g>
    <g id="ytick_3">
     <g id="line2d_8">
      <g>
       <use style="stroke:#000000;stroke-width:0.8;" x="37.7" xlink:href="#md86ae64fc6" y="134.975304"/>
      </g>
     </g>
     <g id="text_9">
      <!-- $\mathdefault{10^{0}}$ -->
      <g transform="translate(13.1 138.774522)scale(0.1 -0.1)">
       <use transform="translate(0 0.765625)" xlink:href="#DejaVuSans-49"/>
       <use transform="translate(63.623047 0.765625)" xlink:href="#DejaVuSans-48"/>
       <use transform="translate(128.203125 39.046875)scale(0.7)" xlink:href="#DejaVuSans-48"/>
      </g>
     </g>
    </g>
    <g id="ytick_4">
     <g id="line2d_9">
      <g>
       <use style="stroke:#000000;stroke-width:0.8;" x="37.7" xlink:href="#md86ae64fc6" y="86.612878"/>
      </g>
     </g>
     <g id="text_10">
      <!-- $\mathdefault{10^{1}}$ -->
      <g transform="translate(13.1 90.412097)scale(0.1 -0.1)">
       <use transform="translate(0 0.684375)" xlink:href="#DejaVuSans-49"/>
       <use transform="translate(63.623047 0.684375)" xlink:href="#DejaVuSans-48"/>
       <use transform="translate(128.203125 38.965625)scale(0.7)" xlink:href="#DejaVuSans-49"/>
      </g>
     </g>
    </g>
    <g id="ytick_5">
     <g id="line2d_10">
      <g>
       <use style="stroke:#000000;stroke-width:0.8;" x="37.7" xlink:href="#md86ae64fc6" y="38.250452"/>
      </g>
     </g>
     <g id="text_11">
      <!-- $\mathdefault{10^{2}}$ -->
      <g transform="translate(13.1 42.049671)scale(0.1 -0.1)">
       <use transform="translate(0 0.765625)" xlink:href="#DejaVuSans-49"/>
       <use transform="translate(63.623047 0.765625)" xlink:href="#DejaVuSans-48"/>
       <use transform="translate(128.203125 39.046875)scale(0.7)" xlink:href="#DejaVuSans-50"/>
      </g>
     </g>
    </g>
    <g id="ytick_6">
     <g id="line2d_11">
      <defs>
       <path d="M 0 0 
L -2 0 
" id="m2b61dc0ae8" style="stroke:#000000;stroke-width:0.6;"/>
      </defs>
      <g>
       <use style="stroke:#000000;stroke-width:0.6;" x="37.7" xlink:href="#m2b61dc0ae8" y="265.50404"/>
      </g>
     </g>
    </g>
    <g id="ytick_7">
     <g id="line2d_12">
      <g>
       <use style="stroke:#000000;stroke-width:0.6;" x="37.7" xlink:href="#m2b61dc0ae8" y="256.98784"/>
      </g>
     </g>
    </g>
    <g id="ytick_8">
     <g id="line2d_13">
      <g>
       <use style="stroke:#000000;stroke-width:0.6;" x="37.7" xlink:href="#m2b61dc0ae8" y="250.945499"/>
      </g>
     </g>
    </g>
    <g id="ytick_9">
     <g id="line2d_14">
      <g>
       <use style="stroke:#000000;stroke-width:0.6;" x="37.7" xlink:href="#m2b61dc0ae8" y="246.258696"/>
      </g>
     </g>
    </g>
    <g id="ytick_10">
     <g id="line2d_15">
      <g>
       <use style="stroke:#000000;stroke-width:0.6;" x="37.7" xlink:href="#m2b61dc0ae8" y="242.429299"/>
      </g>
     </g>
    </g>
    <g id="ytick_11">
     <g id="line2d_16">
      <g>
       <use style="stroke:#000000;stroke-width:0.6;" x="37.7" xlink:href="#m2b61dc0ae8" y="239.19159"/>
      </g>
     </g>
    </g>
    <g id="ytick_12">
     <g id="line2d_17">
      <g>
       <use style="stroke:#000000;stroke-width:0.6;" x="37.7" xlink:href="#m2b61dc0ae8" y="236.386958"/>
      </g>
     </g>
    </g>
    <g id="ytick_13">
     <g id="line2d_18">
      <g>
       <use style="stroke:#000000;stroke-width:0.6;" x="37.7" xlink:href="#m2b61dc0ae8" y="233.913098"/>
      </g>
     </g>
    </g>
    <g id="ytick_14">
     <g id="line2d_19">
      <g>
       <use style="stroke:#000000;stroke-width:0.6;" x="37.7" xlink:href="#m2b61dc0ae8" y="217.141614"/>
      </g>
     </g>
    </g>
    <g id="ytick_15">
     <g id="line2d_20">
      <g>
       <use style="stroke:#000000;stroke-width:0.6;" x="37.7" xlink:href="#m2b61dc0ae8" y="208.625414"/>
      </g>
     </g>
    </g>
    <g id="ytick_16">
     <g id="line2d_21">
      <g>
       <use style="stroke:#000000;stroke-width:0.6;" x="37.7" xlink:href="#m2b61dc0ae8" y="202.583073"/>
      </g>
     </g>
    </g>
    <g id="ytick_17">
     <g id="line2d_22">
      <g>
       <use style="stroke:#000000;stroke-width:0.6;" x="37.7" xlink:href="#m2b61dc0ae8" y="197.89627"/>
      </g>
     </g>
    </g>
    <g id="ytick_18">
     <g id="line2d_23">
      <g>
       <use style="stroke:#000000;stroke-width:0.6;" x="37.7" xlink:href="#m2b61dc0ae8" y="194.066873"/>
      </g>
     </g>
    </g>
    <g id="ytick_19">
     <g id="line2d_24">
      <g>
       <use style="stroke:#000000;stroke-width:0.6;" x="37.7" xlink:href="#m2b61dc0ae8" y="190.829164"/>
      </g>
     </g>
    </g>
    <g id="ytick_20">
     <g id="line2d_25">
      <g>
       <use style="stroke:#000000;stroke-width:0.6;" x="37.7" xlink:href="#m2b61dc0ae8" y="188.024533"/>
      </g>
     </g>
    </g>
    <g id="ytick_21">
     <g id="line2d_26">
      <g>
       <use style="stroke:#000000;stroke-width:0.6;" x="37.7" xlink:href="#m2b61dc0ae8" y="185.550673"/>
      </g>
     </g>
    </g>
    <g id="ytick_22">
     <g id="line2d_27">
      <g>
       <use style="stroke:#000000;stroke-width:0.6;" x="37.7" xlink:href="#m2b61dc0ae8" y="168.779189"/>
      </g>
     </g>
    </g>
    <g id="ytick_23">
     <g id="line2d_28">
      <g>
       <use style="stroke:#000000;stroke-width:0.6;" x="37.7" xlink:href="#m2b61dc0ae8" y="160.262988"/>
      </g>
     </g>
    </g>
    <g id="ytick_24">
     <g id="line2d_29">
      <g>
       <use style="stroke:#000000;stroke-width:0.6;" x="37.7" xlink:href="#m2b61dc0ae8" y="154.220648"/>
      </g>
     </g>
    </g>
    <g id="ytick_25">
     <g id="line2d_30">
      <g>
       <use style="stroke:#000000;stroke-width:0.6;" x="37.7" xlink:href="#m2b61dc0ae8" y="149.533844"/>
      </g>
     </g>
    </g>
    <g id="ytick_26">
     <g id="line2d_31">
      <g>
       <use style="stroke:#000000;stroke-width:0.6;" x="37.7" xlink:href="#m2b61dc0ae8" y="145.704447"/>
      </g>
     </g>
    </g>
    <g id="ytick_27">
     <g id="line2d_32">
      <g>
       <use style="stroke:#000000;stroke-width:0.6;" x="37.7" xlink:href="#m2b61dc0ae8" y="142.466738"/>
      </g>
     </g>
    </g>
    <g id="ytick_28">
     <g id="line2d_33">
      <g>
       <use style="stroke:#000000;stroke-width:0.6;" x="37.7" xlink:href="#m2b61dc0ae8" y="139.662107"/>
      </g>
     </g>
    </g>
    <g id="ytick_29">
     <g id="line2d_34">
      <g>
       <use style="stroke:#000000;stroke-width:0.6;" x="37.7" xlink:href="#m2b61dc0ae8" y="137.188247"/>
      </g>
     </g>
    </g>
    <g id="ytick_30">
     <g id="line2d_35">
      <g>
       <use style="stroke:#000000;stroke-width:0.6;" x="37.7" xlink:href="#m2b61dc0ae8" y="120.416763"/>
      </g>
     </g>
    </g>
    <g id="ytick_31">
     <g id="line2d_36">
      <g>
       <use style="stroke:#000000;stroke-width:0.6;" x="37.7" xlink:href="#m2b61dc0ae8" y="111.900562"/>
      </g>
     </g>
    </g>
    <g id="ytick_32">
     <g id="line2d_37">
      <g>
       <use style="stroke:#000000;stroke-width:0.6;" x="37.7" xlink:href="#m2b61dc0ae8" y="105.858222"/>
      </g>
     </g>
    </g>
    <g id="ytick_33">
     <g id="line2d_38">
      <g>
       <use style="stroke:#000000;stroke-width:0.6;" x="37.7" xlink:href="#m2b61dc0ae8" y="101.171419"/>
      </g>
     </g>
    </g>
    <g id="ytick_34">
     <g id="line2d_39">
      <g>
       <use style="stroke:#000000;stroke-width:0.6;" x="37.7" xlink:href="#m2b61dc0ae8" y="97.342022"/>
      </g>
     </g>
    </g>
    <g id="ytick_35">
     <g id="line2d_40">
      <g>
       <use style="stroke:#000000;stroke-width:0.6;" x="37.7" xlink:href="#m2b61dc0ae8" y="94.104312"/>
      </g>
     </g>
    </g>
    <g id="ytick_36">
     <g id="line2d_41">
      <g>
       <use style="stroke:#000000;stroke-width:0.6;" x="37.7" xlink:href="#m2b61dc0ae8" y="91.299681"/>
      </g>
     </g>
    </g>
    <g id="ytick_37">
     <g id="line2d_42">
      <g>
       <use style="stroke:#000000;stroke-width:0.6;" x="37.7" xlink:href="#m2b61dc0ae8" y="88.825821"/>
      </g>
     </g>
    </g>
    <g id="ytick_38">
     <g id="line2d_43">
      <g>
       <use style="stroke:#000000;stroke-width:0.6;" x="37.7" xlink:href="#m2b61dc0ae8" y="72.054337"/>
      </g>
     </g>
    </g>
    <g id="ytick_39">
     <g id="line2d_44">
      <g>
       <use style="stroke:#000000;stroke-width:0.6;" x="37.7" xlink:href="#m2b61dc0ae8" y="63.538137"/>
      </g>
     </g>
    </g>
    <g id="ytick_40">
     <g id="line2d_45">
      <g>
       <use style="stroke:#000000;stroke-width:0.6;" x="37.7" xlink:href="#m2b61dc0ae8" y="57.495796"/>
      </g>
     </g>
    </g>
    <g id="ytick_41">
     <g id="line2d_46">
      <g>
       <use style="stroke:#000000;stroke-width:0.6;" x="37.7" xlink:href="#m2b61dc0ae8" y="52.808993"/>
      </g>
     </g>
    </g>
    <g id="ytick_42">
     <g id="line2d_47">
      <g>
       <use style="stroke:#000000;stroke-width:0.6;" x="37.7" xlink:href="#m2b61dc0ae8" y="48.979596"/>
      </g>
     </g>
    </g>
    <g id="ytick_43">
     <g id="line2d_48">
      <g>
       <use style="stroke:#000000;stroke-width:0.6;" x="37.7" xlink:href="#m2b61dc0ae8" y="45.741887"/>
      </g>
     </g>
    </g>
    <g id="ytick_44">
     <g id="line2d_49">
      <g>
       <use style="stroke:#000000;stroke-width:0.6;" x="37.7" xlink:href="#m2b61dc0ae8" y="42.937255"/>
      </g>
     </g>
    </g>
    <g id="ytick_45">
     <g id="line2d_50">
      <g>
       <use style="stroke:#000000;stroke-width:0.6;" x="37.7" xlink:href="#m2b61dc0ae8" y="40.463395"/>
      </g>
     </g>
    </g>
    <g id="ytick_46">
     <g id="line2d_51">
      <g>
       <use style="stroke:#000000;stroke-width:0.6;" x="37.7" xlink:href="#m2b61dc0ae8" y="23.691911"/>
      </g>
     </g>
    </g>
    <g id="ytick_47">
     <g id="line2d_52">
      <g>
       <use style="stroke:#000000;stroke-width:0.6;" x="37.7" xlink:href="#m2b61dc0ae8" y="15.175711"/>
      </g>
     </g>
    </g>
    <g id="ytick_48">
     <g id="line2d_53">
      <g>
       <use style="stroke:#000000;stroke-width:0.6;" x="37.7" xlink:href="#m2b61dc0ae8" y="9.133371"/>
      </g>
     </g>
    </g>
   </g>
   <g id="line2d_54">
    <path clip-path="url(#p7b1f37993e)" d="M 53.932727 58.789393 
L 54.722641 30.000733 
L 55.512555 31.317601 
L 56.302468 115.248679 
L 57.092382 20.793341 
L 57.882296 91.70733 
L 58.67221 53.757712 
L 59.462123 47.999443 
L 60.252037 23.062288 
L 61.041951 23.580357 
L 61.831865 122.136142 
L 62.621778 58.557428 
L 63.411692 37.83569 
L 64.201606 43.340881 
L 64.99152 28.034476 
L 65.781433 168.057895 
L 66.571347 60.77328 
L 67.361261 32.046811 
L 68.151175 23.513192 
L 68.941088 88.81544 
L 69.731002 53.756941 
L 70.520916 46.79085 
L 71.310829 22.973516 
L 72.100743 90.819248 
L 72.890657 63.88591 
L 73.680571 29.705112 
L 74.470484 31.108838 
L 75.260398 73.831327 
L 76.050312 79.690797 
L 76.840226 64.878709 
L 77.630139 29.409769 
L 78.420053 32.194153 
L 79.209967 93.871298 
L 80.789794 29.906189 
L 81.579708 30.091261 
L 82.369622 87.40682 
L 83.159536 54.455627 
L 83.949449 43.117442 
L 84.739363 27.371761 
L 85.529277 90.096685 
L 86.31919 98.002509 
L 87.109104 61.836556 
L 87.899018 31.383575 
L 88.688932 24.694829 
L 89.478845 88.62253 
L 90.268759 24.1589 
L 91.058673 78.074506 
L 91.848587 66.68101 
L 92.6385 28.307331 
L 93.428414 49.644456 
L 94.218328 58.239132 
L 95.008242 97.199255 
L 95.798155 60.735919 
L 96.588069 33.485417 
L 97.377983 75.254665 
L 98.167896 25.96386 
L 98.95781 68.892118 
L 99.747724 27.184415 
L 100.537638 64.797956 
L 101.327551 29.416888 
L 102.117465 34.430158 
L 102.907379 98.973107 
L 103.697293 23.849583 
L 104.487206 81.685521 
L 105.27712 52.452925 
L 106.067034 48.204396 
L 106.856948 20.703335 
L 107.646861 87.710324 
L 108.436775 53.461645 
L 109.226689 47.294513 
L 110.016603 22.677072 
L 110.806516 92.205145 
L 111.59643 24.5049 
L 112.386344 52.699069 
L 113.176257 144.464717 
L 113.966171 54.560341 
L 114.756085 50.771663 
L 115.545999 49.765336 
L 116.335912 20.191517 
L 117.125826 104.026281 
L 117.91574 19.296 
L 118.705654 89.640725 
L 119.495567 52.43289 
L 120.285481 53.186505 
L 121.075395 53.340261 
L 121.865309 50.950551 
L 122.655222 61.593132 
L 123.445136 30.972997 
L 124.23505 26.135824 
L 125.024964 84.470853 
L 125.814877 98.306441 
L 126.604791 61.687421 
L 127.394705 31.590576 
L 128.184618 24.330095 
L 128.974532 95.083921 
L 130.55436 29.9299 
L 131.344273 30.210607 
L 132.134187 90.047124 
L 132.924101 55.612048 
L 133.714015 41.511531 
L 134.503928 31.056111 
L 135.293842 99.928221 
L 136.083756 20.327172 
L 136.87367 94.134094 
L 138.453497 30.717979 
L 139.243411 26.326407 
L 140.033324 100.081117 
L 140.823238 55.978553 
L 141.613152 41.067748 
L 142.403066 32.585098 
L 143.192979 112.793843 
L 143.982893 22.406993 
L 144.772807 83.888725 
L 145.562721 64.7312 
L 146.352634 29.23415 
L 147.142548 35.773643 
L 147.932462 140.931037 
L 148.722376 22.847255 
L 149.512289 24.382332 
L 150.302203 66.1034 
L 151.092117 95.555751 
L 151.882031 52.834395 
L 152.671944 52.4697 
L 153.461858 54.391551 
L 154.251772 49.502227 
L 155.041685 63.471301 
L 155.831599 30.162276 
L 156.621513 29.324245 
L 157.411427 89.158521 
L 158.20134 38.78005 
L 158.991254 103.452897 
L 159.781168 72.413746 
L 160.571082 65.753989 
L 161.360995 30.064103 
L 162.150909 83.841561 
L 162.940823 24.531609 
L 163.730737 69.041506 
L 164.52065 28.38011 
L 165.310564 91.808909 
L 166.100478 55.738446 
L 166.890392 39.344537 
L 167.680305 44.495338 
L 168.470219 24.903342 
L 169.260133 91.37725 
L 170.83996 31.981008 
L 171.629874 81.78028 
L 172.419788 25.052769 
L 173.999615 92.408469 
L 174.789529 52.212795 
L 175.579443 54.520344 
L 176.369356 47.292234 
L 177.15927 70.203591 
L 177.949184 27.115816 
L 178.739098 63.529312 
L 179.529011 29.702262 
L 180.318925 33.978328 
L 181.108839 80.689924 
L 181.898752 78.505524 
L 182.688666 25.25603 
L 183.47858 52.031049 
L 184.268494 66.10618 
L 185.058407 73.172534 
L 185.848321 26.28847 
L 186.638235 67.693596 
L 187.428149 27.809279 
L 188.218062 59.597773 
L 189.007976 32.949185 
L 189.79789 21.148824 
L 190.587804 75.046213 
L 191.377717 50.307051 
L 192.167631 53.240607 
L 192.957545 101.504168 
L 193.747459 23.935475 
L 194.537372 124.2217 
L 195.327286 56.733829 
L 196.1172 40.576969 
L 196.907113 31.977156 
L 197.697027 92.343093 
L 198.486941 63.516845 
L 199.276855 30.194186 
L 200.066768 28.117053 
L 200.856682 118.093386 
L 201.646596 57.947147 
L 202.43651 36.611057 
L 203.226423 63.782217 
L 204.016337 29.912079 
L 204.806251 29.885386 
L 205.596165 94.983366 
L 206.386078 19.539496 
L 207.175992 96.933183 
L 208.75582 30.882947 
L 209.545733 25.88916 
L 210.335647 98.323493 
L 211.125561 55.9805 
L 211.915474 40.492402 
L 212.705388 36.652743 
L 213.495302 80.905645 
L 214.285216 76.647828 
L 215.075129 65.605126 
L 215.865043 29.298253 
L 216.654957 31.581092 
L 217.444871 24.045787 
L 218.234784 81.165504 
L 219.024698 98.698658 
L 219.814612 61.745832 
L 220.604526 31.450643 
L 221.394439 24.561743 
L 222.184353 88.533457 
L 222.974267 24.070443 
L 223.76418 78.620155 
L 224.554094 66.513475 
L 225.344008 28.366371 
L 226.133922 48.97264 
L 226.923835 59.226308 
L 227.713749 95.097571 
L 228.503663 61.080069 
L 229.293577 33.006799 
L 230.08349 77.747803 
L 230.873404 25.853087 
L 232.453232 90.702032 
L 233.243145 51.150256 
L 234.033059 58.385236 
L 234.822973 35.419992 
L 235.612887 131.05823 
L 236.4028 57.800382 
L 237.192714 37.385013 
L 237.982628 58.722205 
L 238.772541 33.725772 
L 239.562455 20.60781 
L 240.352369 73.857269 
L 241.142283 48.099328 
L 241.932196 62.024822 
L 242.72211 34.710058 
L 243.512024 261.216 
L 244.301938 23.193458 
L 245.091851 23.021242 
L 245.881765 102.65638 
L 246.671679 60.518169 
L 247.461593 33.387164 
L 248.251506 76.821801 
L 249.04142 68.065668 
L 249.831334 27.699182 
L 250.621248 57.787433 
L 251.411161 37.150689 
L 252.201075 82.306906 
L 252.990989 50.439558 
L 253.780902 58.40667 
L 254.570816 38.495714 
L 255.36073 43.24297 
L 256.150644 27.054236 
L 256.940557 85.245099 
L 257.730471 40.188659 
L 258.520385 89.959725 
L 259.310299 54.481202 
L 260.100212 41.431681 
L 260.890126 33.144435 
L 261.68004 113.171089 
L 262.469954 22.631935 
L 263.259867 24.606632 
L 264.049781 90.145555 
L 264.839695 62.770638 
L 265.629608 31.126563 
L 266.419522 25.851357 
L 267.209436 85.423183 
L 267.99935 64.69069 
L 268.789263 29.800241 
L 269.579177 29.282378 
L 270.369091 47.367418 
L 271.159005 50.292679 
L 271.948918 102.749877 
L 272.738832 55.433206 
L 273.528746 42.955875 
L 274.31866 26.653505 
L 275.108573 116.806933 
L 275.898487 58.503766 
L 276.688401 34.765318 
L 277.478315 128.596512 
L 278.268228 57.65453 
L 279.058142 37.784804 
L 279.848056 55.971544 
L 280.637969 38.553606 
L 281.427883 84.687337 
L 282.217797 52.052093 
L 283.007711 52.139785 
L 283.797624 59.129695 
L 284.587538 32.747467 
L 285.377452 21.26309 
L 286.167366 74.975505 
L 286.957279 49.641141 
L 287.747193 56.169131 
L 289.327021 29.611814 
L 290.116934 115.487967 
L 290.906848 60.053753 
L 291.696762 34.344615 
L 292.486676 71.711328 
L 293.276589 26.634451 
L 294.066503 67.683503 
L 294.856417 28.54668 
L 295.64633 42.196233 
L 296.436244 84.796235 
L 297.226158 24.626008 
L 298.016072 76.077551 
L 298.805985 26.148806 
L 300.385813 90.84123 
L 301.96564 33.785611 
L 302.755554 70.525106 
L 303.545468 27.154184 
L 304.335382 57.735229 
L 305.125295 47.048136 
L 305.915209 51.778938 
L 306.705123 68.325394 
L 307.495036 70.357259 
L 308.28495 27.345082 
L 309.074864 46.564891 
L 309.864778 80.909828 
L 310.654691 63.609445 
L 311.444605 31.515004 
L 312.234519 79.790903 
L 313.024433 25.021839 
L 313.814346 73.193479 
L 314.60426 26.214699 
L 315.394174 69.100254 
L 316.184088 71.578702 
L 316.974001 26.677755 
L 317.763915 62.720322 
L 318.553829 31.846732 
L 319.343743 86.136511 
L 320.133656 64.771814 
L 320.92357 29.251903 
L 321.713484 35.726928 
L 322.503397 143.595035 
L 323.293311 22.808908 
L 324.083225 25.464498 
L 324.873139 69.868024 
L 325.663052 28.560082 
L 326.452966 90.557412 
L 327.24288 54.922728 
L 328.032794 41.781799 
L 328.822707 31.23139 
L 329.612621 111.006269 
L 330.402535 23.367957 
L 331.192449 119.522361 
L 331.982362 22.484737 
L 332.772276 83.040623 
L 333.56219 64.541987 
L 334.352104 29.432725 
L 335.142017 32.977459 
L 336.721845 91.648198 
L 338.301672 31.506665 
L 339.091586 24.484193 
L 339.8815 95.187131 
L 341.461327 30.474328 
L 342.251241 27.139023 
L 343.041155 108.748489 
L 343.831068 57.762917 
L 344.620982 36.279207 
L 345.410896 47.507284 
L 346.20081 99.271533 
L 346.990723 52.422234 
L 347.780637 55.766542 
L 348.570551 39.360681 
L 349.360464 110.969962 
L 350.150378 59.270479 
L 350.940292 35.61716 
L 351.730206 65.650742 
L 352.520119 28.795734 
L 353.310033 47.051898 
L 354.099947 51.536645 
L 354.889861 70.873387 
L 355.679774 70.99386 
L 356.469688 26.746679 
L 357.259602 65.390491 
L 358.049516 28.781886 
L 358.839429 46.585461 
L 359.629343 50.515912 
L 360.419257 104.222412 
L 361.209171 54.441629 
L 361.999084 48.510973 
L 362.788998 64.202929 
L 363.578912 30.007576 
L 364.368825 29.289147 
L 365.158739 132.262945 
L 365.948653 23.277134 
L 366.738567 23.005563 
L 367.52848 104.547619 
L 368.318394 60.149248 
L 369.108308 34.04643 
L 369.898222 73.280118 
L 370.688135 26.411594 
L 371.478049 66.196199 
L 372.267963 28.402353 
L 373.057877 52.378503 
L 373.84779 45.444734 
L 374.637704 84.545804 
L 375.427618 64.260972 
L 376.217532 29.839193 
L 377.007445 29.521813 
L 377.012047 311.86825 
L 377.012047 311.86825 
" style="fill:none;stroke:#1f77b4;stroke-linecap:square;stroke-width:1.5;"/>
    <defs>
     <path d="M 0 3 
C 0.795609 3 1.55874 2.683901 2.12132 2.12132 
C 2.683901 1.55874 3 0.795609 3 0 
C 3 -0.795609 2.683901 -1.55874 2.12132 -2.12132 
C 1.55874 -2.683901 0.795609 -3 0 -3 
C -0.795609 -3 -1.55874 -2.683901 -2.12132 -2.12132 
C -2.683901 -1.55874 -3 -0.795609 -3 0 
C -3 0.795609 -2.683901 1.55874 -2.12132 2.12132 
C -1.55874 2.683901 -0.795609 3 0 3 
z
" id="m1c85417644" style="stroke:#1f77b4;"/>
    </defs>
    <g clip-path="url(#p7b1f37993e)">
     <use style="fill:#1f77b4;stroke:#1f77b4;" x="53.932727" xlink:href="#m1c85417644" y="58.789393"/>
     <use style="fill:#1f77b4;stroke:#1f77b4;" x="54.722641" xlink:href="#m1c85417644" y="30.000733"/>
     <use style="fill:#1f77b4;stroke:#1f77b4;" x="55.512555" xlink:href="#m1c85417644" y="31.317601"/>
     <use style="fill:#1f77b4;stroke:#1f77b4;" x="56.302468" xlink:href="#m1c85417644" y="115.248679"/>
     <use style="fill:#1f77b4;stroke:#1f77b4;" x="57.092382" xlink:href="#m1c85417644" y="20.793341"/>
     <use style="fill:#1f77b4;stroke:#1f77b4;" x="57.882296" xlink:href="#m1c85417644" y="91.70733"/>
     <use style="fill:#1f77b4;stroke:#1f77b4;" x="58.67221" xlink:href="#m1c85417644" y="53.757712"/>
     <use style="fill:#1f77b4;stroke:#1f77b4;" x="59.462123" xlink:href="#m1c85417644" y="47.999443"/>
     <use style="fill:#1f77b4;stroke:#1f77b4;" x="60.252037" xlink:href="#m1c85417644" y="23.062288"/>
     <use style="fill:#1f77b4;stroke:#1f77b4;" x="61.041951" xlink:href="#m1c85417644" y="23.580357"/>
     <use style="fill:#1f77b4;stroke:#1f77b4;" x="61.831865" xlink:href="#m1c85417644" y="122.136142"/>
     <use style="fill:#1f77b4;stroke:#1f77b4;" x="62.621778" xlink:href="#m1c85417644" y="58.557428"/>
     <use style="fill:#1f77b4;stroke:#1f77b4;" x="63.411692" xlink:href="#m1c85417644" y="37.83569"/>
     <use style="fill:#1f77b4;stroke:#1f77b4;" x="64.201606" xlink:href="#m1c85417644" y="43.340881"/>
     <use style="fill:#1f77b4;stroke:#1f77b4;" x="64.99152" xlink:href="#m1c85417644" y="28.034476"/>
     <use style="fill:#1f77b4;stroke:#1f77b4;" x="65.781433" xlink:href="#m1c85417644" y="168.057895"/>
     <use style="fill:#1f77b4;stroke:#1f77b4;" x="66.571347" xlink:href="#m1c85417644" y="60.77328"/>
     <use style="fill:#1f77b4;stroke:#1f77b4;" x="67.361261" xlink:href="#m1c85417644" y="32.046811"/>
     <use style="fill:#1f77b4;stroke:#1f77b4;" x="68.151175" xlink:href="#m1c85417644" y="23.513192"/>
     <use style="fill:#1f77b4;stroke:#1f77b4;" x="68.941088" xlink:href="#m1c85417644" y="88.81544"/>
     <use style="fill:#1f77b4;stroke:#1f77b4;" x="69.731002" xlink:href="#m1c85417644" y="53.756941"/>
     <use style="fill:#1f77b4;stroke:#1f77b4;" x="70.520916" xlink:href="#m1c85417644" y="46.79085"/>
     <use style="fill:#1f77b4;stroke:#1f77b4;" x="71.310829" xlink:href="#m1c85417644" y="22.973516"/>
     <use style="fill:#1f77b4;stroke:#1f77b4;" x="72.100743" xlink:href="#m1c85417644" y="90.819248"/>
     <use style="fill:#1f77b4;stroke:#1f77b4;" x="72.890657" xlink:href="#m1c85417644" y="63.88591"/>
     <use style="fill:#1f77b4;stroke:#1f77b4;" x="73.680571" xlink:href="#m1c85417644" y="29.705112"/>
     <use style="fill:#1f77b4;stroke:#1f77b4;" x="74.470484" xlink:href="#m1c85417644" y="31.108838"/>
     <use style="fill:#1f77b4;stroke:#1f77b4;" x="75.260398" xlink:href="#m1c85417644" y="73.831327"/>
     <use style="fill:#1f77b4;stroke:#1f77b4;" x="76.050312" xlink:href="#m1c85417644" y="79.690797"/>
     <use style="fill:#1f77b4;stroke:#1f77b4;" x="76.840226" xlink:href="#m1c85417644" y="64.878709"/>
     <use style="fill:#1f77b4;stroke:#1f77b4;" x="77.630139" xlink:href="#m1c85417644" y="29.409769"/>
     <use style="fill:#1f77b4;stroke:#1f77b4;" x="78.420053" xlink:href="#m1c85417644" y="32.194153"/>
     <use style="fill:#1f77b4;stroke:#1f77b4;" x="79.209967" xlink:href="#m1c85417644" y="93.871298"/>
     <use style="fill:#1f77b4;stroke:#1f77b4;" x="79.999881" xlink:href="#m1c85417644" y="63.690837"/>
     <use style="fill:#1f77b4;stroke:#1f77b4;" x="80.789794" xlink:href="#m1c85417644" y="29.906189"/>
     <use style="fill:#1f77b4;stroke:#1f77b4;" x="81.579708" xlink:href="#m1c85417644" y="30.091261"/>
     <use style="fill:#1f77b4;stroke:#1f77b4;" x="82.369622" xlink:href="#m1c85417644" y="87.40682"/>
     <use style="fill:#1f77b4;stroke:#1f77b4;" x="83.159536" xlink:href="#m1c85417644" y="54.455627"/>
     <use style="fill:#1f77b4;stroke:#1f77b4;" x="83.949449" xlink:href="#m1c85417644" y="43.117442"/>
     <use style="fill:#1f77b4;stroke:#1f77b4;" x="84.739363" xlink:href="#m1c85417644" y="27.371761"/>
     <use style="fill:#1f77b4;stroke:#1f77b4;" x="85.529277" xlink:href="#m1c85417644" y="90.096685"/>
     <use style="fill:#1f77b4;stroke:#1f77b4;" x="86.31919" xlink:href="#m1c85417644" y="98.002509"/>
     <use style="fill:#1f77b4;stroke:#1f77b4;" x="87.109104" xlink:href="#m1c85417644" y="61.836556"/>
     <use style="fill:#1f77b4;stroke:#1f77b4;" x="87.899018" xlink:href="#m1c85417644" y="31.383575"/>
     <use style="fill:#1f77b4;stroke:#1f77b4;" x="88.688932" xlink:href="#m1c85417644" y="24.694829"/>
     <use style="fill:#1f77b4;stroke:#1f77b4;" x="89.478845" xlink:href="#m1c85417644" y="88.62253"/>
     <use style="fill:#1f77b4;stroke:#1f77b4;" x="90.268759" xlink:href="#m1c85417644" y="24.1589"/>
     <use style="fill:#1f77b4;stroke:#1f77b4;" x="91.058673" xlink:href="#m1c85417644" y="78.074506"/>
     <use style="fill:#1f77b4;stroke:#1f77b4;" x="91.848587" xlink:href="#m1c85417644" y="66.68101"/>
     <use style="fill:#1f77b4;stroke:#1f77b4;" x="92.6385" xlink:href="#m1c85417644" y="28.307331"/>
     <use style="fill:#1f77b4;stroke:#1f77b4;" x="93.428414" xlink:href="#m1c85417644" y="49.644456"/>
     <use style="fill:#1f77b4;stroke:#1f77b4;" x="94.218328" xlink:href="#m1c85417644" y="58.239132"/>
     <use style="fill:#1f77b4;stroke:#1f77b4;" x="95.008242" xlink:href="#m1c85417644" y="97.199255"/>
     <use style="fill:#1f77b4;stroke:#1f77b4;" x="95.798155" xlink:href="#m1c85417644" y="60.735919"/>
     <use style="fill:#1f77b4;stroke:#1f77b4;" x="96.588069" xlink:href="#m1c85417644" y="33.485417"/>
     <use style="fill:#1f77b4;stroke:#1f77b4;" x="97.377983" xlink:href="#m1c85417644" y="75.254665"/>
     <use style="fill:#1f77b4;stroke:#1f77b4;" x="98.167896" xlink:href="#m1c85417644" y="25.96386"/>
     <use style="fill:#1f77b4;stroke:#1f77b4;" x="98.95781" xlink:href="#m1c85417644" y="68.892118"/>
     <use style="fill:#1f77b4;stroke:#1f77b4;" x="99.747724" xlink:href="#m1c85417644" y="27.184415"/>
     <use style="fill:#1f77b4;stroke:#1f77b4;" x="100.537638" xlink:href="#m1c85417644" y="64.797956"/>
     <use style="fill:#1f77b4;stroke:#1f77b4;" x="101.327551" xlink:href="#m1c85417644" y="29.416888"/>
     <use style="fill:#1f77b4;stroke:#1f77b4;" x="102.117465" xlink:href="#m1c85417644" y="34.430158"/>
     <use style="fill:#1f77b4;stroke:#1f77b4;" x="102.907379" xlink:href="#m1c85417644" y="98.973107"/>
     <use style="fill:#1f77b4;stroke:#1f77b4;" x="103.697293" xlink:href="#m1c85417644" y="23.849583"/>
     <use style="fill:#1f77b4;stroke:#1f77b4;" x="104.487206" xlink:href="#m1c85417644" y="81.685521"/>
     <use style="fill:#1f77b4;stroke:#1f77b4;" x="105.27712" xlink:href="#m1c85417644" y="52.452925"/>
     <use style="fill:#1f77b4;stroke:#1f77b4;" x="106.067034" xlink:href="#m1c85417644" y="48.204396"/>
     <use style="fill:#1f77b4;stroke:#1f77b4;" x="106.856948" xlink:href="#m1c85417644" y="20.703335"/>
     <use style="fill:#1f77b4;stroke:#1f77b4;" x="107.646861" xlink:href="#m1c85417644" y="87.710324"/>
     <use style="fill:#1f77b4;stroke:#1f77b4;" x="108.436775" xlink:href="#m1c85417644" y="53.461645"/>
     <use style="fill:#1f77b4;stroke:#1f77b4;" x="109.226689" xlink:href="#m1c85417644" y="47.294513"/>
     <use style="fill:#1f77b4;stroke:#1f77b4;" x="110.016603" xlink:href="#m1c85417644" y="22.677072"/>
     <use style="fill:#1f77b4;stroke:#1f77b4;" x="110.806516" xlink:href="#m1c85417644" y="92.205145"/>
     <use style="fill:#1f77b4;stroke:#1f77b4;" x="111.59643" xlink:href="#m1c85417644" y="24.5049"/>
     <use style="fill:#1f77b4;stroke:#1f77b4;" x="112.386344" xlink:href="#m1c85417644" y="52.699069"/>
     <use style="fill:#1f77b4;stroke:#1f77b4;" x="113.176257" xlink:href="#m1c85417644" y="144.464717"/>
     <use style="fill:#1f77b4;stroke:#1f77b4;" x="113.966171" xlink:href="#m1c85417644" y="54.560341"/>
     <use style="fill:#1f77b4;stroke:#1f77b4;" x="114.756085" xlink:href="#m1c85417644" y="50.771663"/>
     <use style="fill:#1f77b4;stroke:#1f77b4;" x="115.545999" xlink:href="#m1c85417644" y="49.765336"/>
     <use style="fill:#1f77b4;stroke:#1f77b4;" x="116.335912" xlink:href="#m1c85417644" y="20.191517"/>
     <use style="fill:#1f77b4;stroke:#1f77b4;" x="117.125826" xlink:href="#m1c85417644" y="104.026281"/>
     <use style="fill:#1f77b4;stroke:#1f77b4;" x="117.91574" xlink:href="#m1c85417644" y="19.296"/>
     <use style="fill:#1f77b4;stroke:#1f77b4;" x="118.705654" xlink:href="#m1c85417644" y="89.640725"/>
     <use style="fill:#1f77b4;stroke:#1f77b4;" x="119.495567" xlink:href="#m1c85417644" y="52.43289"/>
     <use style="fill:#1f77b4;stroke:#1f77b4;" x="120.285481" xlink:href="#m1c85417644" y="53.186505"/>
     <use style="fill:#1f77b4;stroke:#1f77b4;" x="121.075395" xlink:href="#m1c85417644" y="53.340261"/>
     <use style="fill:#1f77b4;stroke:#1f77b4;" x="121.865309" xlink:href="#m1c85417644" y="50.950551"/>
     <use style="fill:#1f77b4;stroke:#1f77b4;" x="122.655222" xlink:href="#m1c85417644" y="61.593132"/>
     <use style="fill:#1f77b4;stroke:#1f77b4;" x="123.445136" xlink:href="#m1c85417644" y="30.972997"/>
     <use style="fill:#1f77b4;stroke:#1f77b4;" x="124.23505" xlink:href="#m1c85417644" y="26.135824"/>
     <use style="fill:#1f77b4;stroke:#1f77b4;" x="125.024964" xlink:href="#m1c85417644" y="84.470853"/>
     <use style="fill:#1f77b4;stroke:#1f77b4;" x="125.814877" xlink:href="#m1c85417644" y="98.306441"/>
     <use style="fill:#1f77b4;stroke:#1f77b4;" x="126.604791" xlink:href="#m1c85417644" y="61.687421"/>
     <use style="fill:#1f77b4;stroke:#1f77b4;" x="127.394705" xlink:href="#m1c85417644" y="31.590576"/>
     <use style="fill:#1f77b4;stroke:#1f77b4;" x="128.184618" xlink:href="#m1c85417644" y="24.330095"/>
     <use style="fill:#1f77b4;stroke:#1f77b4;" x="128.974532" xlink:href="#m1c85417644" y="95.083921"/>
     <use style="fill:#1f77b4;stroke:#1f77b4;" x="129.764446" xlink:href="#m1c85417644" y="63.471123"/>
     <use style="fill:#1f77b4;stroke:#1f77b4;" x="130.55436" xlink:href="#m1c85417644" y="29.9299"/>
     <use style="fill:#1f77b4;stroke:#1f77b4;" x="131.344273" xlink:href="#m1c85417644" y="30.210607"/>
     <use style="fill:#1f77b4;stroke:#1f77b4;" x="132.134187" xlink:href="#m1c85417644" y="90.047124"/>
     <use style="fill:#1f77b4;stroke:#1f77b4;" x="132.924101" xlink:href="#m1c85417644" y="55.612048"/>
     <use style="fill:#1f77b4;stroke:#1f77b4;" x="133.714015" xlink:href="#m1c85417644" y="41.511531"/>
     <use style="fill:#1f77b4;stroke:#1f77b4;" x="134.503928" xlink:href="#m1c85417644" y="31.056111"/>
     <use style="fill:#1f77b4;stroke:#1f77b4;" x="135.293842" xlink:href="#m1c85417644" y="99.928221"/>
     <use style="fill:#1f77b4;stroke:#1f77b4;" x="136.083756" xlink:href="#m1c85417644" y="20.327172"/>
     <use style="fill:#1f77b4;stroke:#1f77b4;" x="136.87367" xlink:href="#m1c85417644" y="94.134094"/>
     <use style="fill:#1f77b4;stroke:#1f77b4;" x="137.663583" xlink:href="#m1c85417644" y="62.547576"/>
     <use style="fill:#1f77b4;stroke:#1f77b4;" x="138.453497" xlink:href="#m1c85417644" y="30.717979"/>
     <use style="fill:#1f77b4;stroke:#1f77b4;" x="139.243411" xlink:href="#m1c85417644" y="26.326407"/>
     <use style="fill:#1f77b4;stroke:#1f77b4;" x="140.033324" xlink:href="#m1c85417644" y="100.081117"/>
     <use style="fill:#1f77b4;stroke:#1f77b4;" x="140.823238" xlink:href="#m1c85417644" y="55.978553"/>
     <use style="fill:#1f77b4;stroke:#1f77b4;" x="141.613152" xlink:href="#m1c85417644" y="41.067748"/>
     <use style="fill:#1f77b4;stroke:#1f77b4;" x="142.403066" xlink:href="#m1c85417644" y="32.585098"/>
     <use style="fill:#1f77b4;stroke:#1f77b4;" x="143.192979" xlink:href="#m1c85417644" y="112.793843"/>
     <use style="fill:#1f77b4;stroke:#1f77b4;" x="143.982893" xlink:href="#m1c85417644" y="22.406993"/>
     <use style="fill:#1f77b4;stroke:#1f77b4;" x="144.772807" xlink:href="#m1c85417644" y="83.888725"/>
     <use style="fill:#1f77b4;stroke:#1f77b4;" x="145.562721" xlink:href="#m1c85417644" y="64.7312"/>
     <use style="fill:#1f77b4;stroke:#1f77b4;" x="146.352634" xlink:href="#m1c85417644" y="29.23415"/>
     <use style="fill:#1f77b4;stroke:#1f77b4;" x="147.142548" xlink:href="#m1c85417644" y="35.773643"/>
     <use style="fill:#1f77b4;stroke:#1f77b4;" x="147.932462" xlink:href="#m1c85417644" y="140.931037"/>
     <use style="fill:#1f77b4;stroke:#1f77b4;" x="148.722376" xlink:href="#m1c85417644" y="22.847255"/>
     <use style="fill:#1f77b4;stroke:#1f77b4;" x="149.512289" xlink:href="#m1c85417644" y="24.382332"/>
     <use style="fill:#1f77b4;stroke:#1f77b4;" x="150.302203" xlink:href="#m1c85417644" y="66.1034"/>
     <use style="fill:#1f77b4;stroke:#1f77b4;" x="151.092117" xlink:href="#m1c85417644" y="95.555751"/>
     <use style="fill:#1f77b4;stroke:#1f77b4;" x="151.882031" xlink:href="#m1c85417644" y="52.834395"/>
     <use style="fill:#1f77b4;stroke:#1f77b4;" x="152.671944" xlink:href="#m1c85417644" y="52.4697"/>
     <use style="fill:#1f77b4;stroke:#1f77b4;" x="153.461858" xlink:href="#m1c85417644" y="54.391551"/>
     <use style="fill:#1f77b4;stroke:#1f77b4;" x="154.251772" xlink:href="#m1c85417644" y="49.502227"/>
     <use style="fill:#1f77b4;stroke:#1f77b4;" x="155.041685" xlink:href="#m1c85417644" y="63.471301"/>
     <use style="fill:#1f77b4;stroke:#1f77b4;" x="155.831599" xlink:href="#m1c85417644" y="30.162276"/>
     <use style="fill:#1f77b4;stroke:#1f77b4;" x="156.621513" xlink:href="#m1c85417644" y="29.324245"/>
     <use style="fill:#1f77b4;stroke:#1f77b4;" x="157.411427" xlink:href="#m1c85417644" y="89.158521"/>
     <use style="fill:#1f77b4;stroke:#1f77b4;" x="158.20134" xlink:href="#m1c85417644" y="38.78005"/>
     <use style="fill:#1f77b4;stroke:#1f77b4;" x="158.991254" xlink:href="#m1c85417644" y="103.452897"/>
     <use style="fill:#1f77b4;stroke:#1f77b4;" x="159.781168" xlink:href="#m1c85417644" y="72.413746"/>
     <use style="fill:#1f77b4;stroke:#1f77b4;" x="160.571082" xlink:href="#m1c85417644" y="65.753989"/>
     <use style="fill:#1f77b4;stroke:#1f77b4;" x="161.360995" xlink:href="#m1c85417644" y="30.064103"/>
     <use style="fill:#1f77b4;stroke:#1f77b4;" x="162.150909" xlink:href="#m1c85417644" y="83.841561"/>
     <use style="fill:#1f77b4;stroke:#1f77b4;" x="162.940823" xlink:href="#m1c85417644" y="24.531609"/>
     <use style="fill:#1f77b4;stroke:#1f77b4;" x="163.730737" xlink:href="#m1c85417644" y="69.041506"/>
     <use style="fill:#1f77b4;stroke:#1f77b4;" x="164.52065" xlink:href="#m1c85417644" y="28.38011"/>
     <use style="fill:#1f77b4;stroke:#1f77b4;" x="165.310564" xlink:href="#m1c85417644" y="91.808909"/>
     <use style="fill:#1f77b4;stroke:#1f77b4;" x="166.100478" xlink:href="#m1c85417644" y="55.738446"/>
     <use style="fill:#1f77b4;stroke:#1f77b4;" x="166.890392" xlink:href="#m1c85417644" y="39.344537"/>
     <use style="fill:#1f77b4;stroke:#1f77b4;" x="167.680305" xlink:href="#m1c85417644" y="44.495338"/>
     <use style="fill:#1f77b4;stroke:#1f77b4;" x="168.470219" xlink:href="#m1c85417644" y="24.903342"/>
     <use style="fill:#1f77b4;stroke:#1f77b4;" x="169.260133" xlink:href="#m1c85417644" y="91.37725"/>
     <use style="fill:#1f77b4;stroke:#1f77b4;" x="170.050046" xlink:href="#m1c85417644" y="62.524347"/>
     <use style="fill:#1f77b4;stroke:#1f77b4;" x="170.83996" xlink:href="#m1c85417644" y="31.981008"/>
     <use style="fill:#1f77b4;stroke:#1f77b4;" x="171.629874" xlink:href="#m1c85417644" y="81.78028"/>
     <use style="fill:#1f77b4;stroke:#1f77b4;" x="172.419788" xlink:href="#m1c85417644" y="25.052769"/>
     <use style="fill:#1f77b4;stroke:#1f77b4;" x="173.209701" xlink:href="#m1c85417644" y="60.164923"/>
     <use style="fill:#1f77b4;stroke:#1f77b4;" x="173.999615" xlink:href="#m1c85417644" y="92.408469"/>
     <use style="fill:#1f77b4;stroke:#1f77b4;" x="174.789529" xlink:href="#m1c85417644" y="52.212795"/>
     <use style="fill:#1f77b4;stroke:#1f77b4;" x="175.579443" xlink:href="#m1c85417644" y="54.520344"/>
     <use style="fill:#1f77b4;stroke:#1f77b4;" x="176.369356" xlink:href="#m1c85417644" y="47.292234"/>
     <use style="fill:#1f77b4;stroke:#1f77b4;" x="177.15927" xlink:href="#m1c85417644" y="70.203591"/>
     <use style="fill:#1f77b4;stroke:#1f77b4;" x="177.949184" xlink:href="#m1c85417644" y="27.115816"/>
     <use style="fill:#1f77b4;stroke:#1f77b4;" x="178.739098" xlink:href="#m1c85417644" y="63.529312"/>
     <use style="fill:#1f77b4;stroke:#1f77b4;" x="179.529011" xlink:href="#m1c85417644" y="29.702262"/>
     <use style="fill:#1f77b4;stroke:#1f77b4;" x="180.318925" xlink:href="#m1c85417644" y="33.978328"/>
     <use style="fill:#1f77b4;stroke:#1f77b4;" x="181.108839" xlink:href="#m1c85417644" y="80.689924"/>
     <use style="fill:#1f77b4;stroke:#1f77b4;" x="181.898752" xlink:href="#m1c85417644" y="78.505524"/>
     <use style="fill:#1f77b4;stroke:#1f77b4;" x="182.688666" xlink:href="#m1c85417644" y="25.25603"/>
     <use style="fill:#1f77b4;stroke:#1f77b4;" x="183.47858" xlink:href="#m1c85417644" y="52.031049"/>
     <use style="fill:#1f77b4;stroke:#1f77b4;" x="184.268494" xlink:href="#m1c85417644" y="66.10618"/>
     <use style="fill:#1f77b4;stroke:#1f77b4;" x="185.058407" xlink:href="#m1c85417644" y="73.172534"/>
     <use style="fill:#1f77b4;stroke:#1f77b4;" x="185.848321" xlink:href="#m1c85417644" y="26.28847"/>
     <use style="fill:#1f77b4;stroke:#1f77b4;" x="186.638235" xlink:href="#m1c85417644" y="67.693596"/>
     <use style="fill:#1f77b4;stroke:#1f77b4;" x="187.428149" xlink:href="#m1c85417644" y="27.809279"/>
     <use style="fill:#1f77b4;stroke:#1f77b4;" x="188.218062" xlink:href="#m1c85417644" y="59.597773"/>
     <use style="fill:#1f77b4;stroke:#1f77b4;" x="189.007976" xlink:href="#m1c85417644" y="32.949185"/>
     <use style="fill:#1f77b4;stroke:#1f77b4;" x="189.79789" xlink:href="#m1c85417644" y="21.148824"/>
     <use style="fill:#1f77b4;stroke:#1f77b4;" x="190.587804" xlink:href="#m1c85417644" y="75.046213"/>
     <use style="fill:#1f77b4;stroke:#1f77b4;" x="191.377717" xlink:href="#m1c85417644" y="50.307051"/>
     <use style="fill:#1f77b4;stroke:#1f77b4;" x="192.167631" xlink:href="#m1c85417644" y="53.240607"/>
     <use style="fill:#1f77b4;stroke:#1f77b4;" x="192.957545" xlink:href="#m1c85417644" y="101.504168"/>
     <use style="fill:#1f77b4;stroke:#1f77b4;" x="193.747459" xlink:href="#m1c85417644" y="23.935475"/>
     <use style="fill:#1f77b4;stroke:#1f77b4;" x="194.537372" xlink:href="#m1c85417644" y="124.2217"/>
     <use style="fill:#1f77b4;stroke:#1f77b4;" x="195.327286" xlink:href="#m1c85417644" y="56.733829"/>
     <use style="fill:#1f77b4;stroke:#1f77b4;" x="196.1172" xlink:href="#m1c85417644" y="40.576969"/>
     <use style="fill:#1f77b4;stroke:#1f77b4;" x="196.907113" xlink:href="#m1c85417644" y="31.977156"/>
     <use style="fill:#1f77b4;stroke:#1f77b4;" x="197.697027" xlink:href="#m1c85417644" y="92.343093"/>
     <use style="fill:#1f77b4;stroke:#1f77b4;" x="198.486941" xlink:href="#m1c85417644" y="63.516845"/>
     <use style="fill:#1f77b4;stroke:#1f77b4;" x="199.276855" xlink:href="#m1c85417644" y="30.194186"/>
     <use style="fill:#1f77b4;stroke:#1f77b4;" x="200.066768" xlink:href="#m1c85417644" y="28.117053"/>
     <use style="fill:#1f77b4;stroke:#1f77b4;" x="200.856682" xlink:href="#m1c85417644" y="118.093386"/>
     <use style="fill:#1f77b4;stroke:#1f77b4;" x="201.646596" xlink:href="#m1c85417644" y="57.947147"/>
     <use style="fill:#1f77b4;stroke:#1f77b4;" x="202.43651" xlink:href="#m1c85417644" y="36.611057"/>
     <use style="fill:#1f77b4;stroke:#1f77b4;" x="203.226423" xlink:href="#m1c85417644" y="63.782217"/>
     <use style="fill:#1f77b4;stroke:#1f77b4;" x="204.016337" xlink:href="#m1c85417644" y="29.912079"/>
     <use style="fill:#1f77b4;stroke:#1f77b4;" x="204.806251" xlink:href="#m1c85417644" y="29.885386"/>
     <use style="fill:#1f77b4;stroke:#1f77b4;" x="205.596165" xlink:href="#m1c85417644" y="94.983366"/>
     <use style="fill:#1f77b4;stroke:#1f77b4;" x="206.386078" xlink:href="#m1c85417644" y="19.539496"/>
     <use style="fill:#1f77b4;stroke:#1f77b4;" x="207.175992" xlink:href="#m1c85417644" y="96.933183"/>
     <use style="fill:#1f77b4;stroke:#1f77b4;" x="207.965906" xlink:href="#m1c85417644" y="62.286176"/>
     <use style="fill:#1f77b4;stroke:#1f77b4;" x="208.75582" xlink:href="#m1c85417644" y="30.882947"/>
     <use style="fill:#1f77b4;stroke:#1f77b4;" x="209.545733" xlink:href="#m1c85417644" y="25.88916"/>
     <use style="fill:#1f77b4;stroke:#1f77b4;" x="210.335647" xlink:href="#m1c85417644" y="98.323493"/>
     <use style="fill:#1f77b4;stroke:#1f77b4;" x="211.125561" xlink:href="#m1c85417644" y="55.9805"/>
     <use style="fill:#1f77b4;stroke:#1f77b4;" x="211.915474" xlink:href="#m1c85417644" y="40.492402"/>
     <use style="fill:#1f77b4;stroke:#1f77b4;" x="212.705388" xlink:href="#m1c85417644" y="36.652743"/>
     <use style="fill:#1f77b4;stroke:#1f77b4;" x="213.495302" xlink:href="#m1c85417644" y="80.905645"/>
     <use style="fill:#1f77b4;stroke:#1f77b4;" x="214.285216" xlink:href="#m1c85417644" y="76.647828"/>
     <use style="fill:#1f77b4;stroke:#1f77b4;" x="215.075129" xlink:href="#m1c85417644" y="65.605126"/>
     <use style="fill:#1f77b4;stroke:#1f77b4;" x="215.865043" xlink:href="#m1c85417644" y="29.298253"/>
     <use style="fill:#1f77b4;stroke:#1f77b4;" x="216.654957" xlink:href="#m1c85417644" y="31.581092"/>
     <use style="fill:#1f77b4;stroke:#1f77b4;" x="217.444871" xlink:href="#m1c85417644" y="24.045787"/>
     <use style="fill:#1f77b4;stroke:#1f77b4;" x="218.234784" xlink:href="#m1c85417644" y="81.165504"/>
     <use style="fill:#1f77b4;stroke:#1f77b4;" x="219.024698" xlink:href="#m1c85417644" y="98.698658"/>
     <use style="fill:#1f77b4;stroke:#1f77b4;" x="219.814612" xlink:href="#m1c85417644" y="61.745832"/>
     <use style="fill:#1f77b4;stroke:#1f77b4;" x="220.604526" xlink:href="#m1c85417644" y="31.450643"/>
     <use style="fill:#1f77b4;stroke:#1f77b4;" x="221.394439" xlink:href="#m1c85417644" y="24.561743"/>
     <use style="fill:#1f77b4;stroke:#1f77b4;" x="222.184353" xlink:href="#m1c85417644" y="88.533457"/>
     <use style="fill:#1f77b4;stroke:#1f77b4;" x="222.974267" xlink:href="#m1c85417644" y="24.070443"/>
     <use style="fill:#1f77b4;stroke:#1f77b4;" x="223.76418" xlink:href="#m1c85417644" y="78.620155"/>
     <use style="fill:#1f77b4;stroke:#1f77b4;" x="224.554094" xlink:href="#m1c85417644" y="66.513475"/>
     <use style="fill:#1f77b4;stroke:#1f77b4;" x="225.344008" xlink:href="#m1c85417644" y="28.366371"/>
     <use style="fill:#1f77b4;stroke:#1f77b4;" x="226.133922" xlink:href="#m1c85417644" y="48.97264"/>
     <use style="fill:#1f77b4;stroke:#1f77b4;" x="226.923835" xlink:href="#m1c85417644" y="59.226308"/>
     <use style="fill:#1f77b4;stroke:#1f77b4;" x="227.713749" xlink:href="#m1c85417644" y="95.097571"/>
     <use style="fill:#1f77b4;stroke:#1f77b4;" x="228.503663" xlink:href="#m1c85417644" y="61.080069"/>
     <use style="fill:#1f77b4;stroke:#1f77b4;" x="229.293577" xlink:href="#m1c85417644" y="33.006799"/>
     <use style="fill:#1f77b4;stroke:#1f77b4;" x="230.08349" xlink:href="#m1c85417644" y="77.747803"/>
     <use style="fill:#1f77b4;stroke:#1f77b4;" x="230.873404" xlink:href="#m1c85417644" y="25.853087"/>
     <use style="fill:#1f77b4;stroke:#1f77b4;" x="231.663318" xlink:href="#m1c85417644" y="59.022379"/>
     <use style="fill:#1f77b4;stroke:#1f77b4;" x="232.453232" xlink:href="#m1c85417644" y="90.702032"/>
     <use style="fill:#1f77b4;stroke:#1f77b4;" x="233.243145" xlink:href="#m1c85417644" y="51.150256"/>
     <use style="fill:#1f77b4;stroke:#1f77b4;" x="234.033059" xlink:href="#m1c85417644" y="58.385236"/>
     <use style="fill:#1f77b4;stroke:#1f77b4;" x="234.822973" xlink:href="#m1c85417644" y="35.419992"/>
     <use style="fill:#1f77b4;stroke:#1f77b4;" x="235.612887" xlink:href="#m1c85417644" y="131.05823"/>
     <use style="fill:#1f77b4;stroke:#1f77b4;" x="236.4028" xlink:href="#m1c85417644" y="57.800382"/>
     <use style="fill:#1f77b4;stroke:#1f77b4;" x="237.192714" xlink:href="#m1c85417644" y="37.385013"/>
     <use style="fill:#1f77b4;stroke:#1f77b4;" x="237.982628" xlink:href="#m1c85417644" y="58.722205"/>
     <use style="fill:#1f77b4;stroke:#1f77b4;" x="238.772541" xlink:href="#m1c85417644" y="33.725772"/>
     <use style="fill:#1f77b4;stroke:#1f77b4;" x="239.562455" xlink:href="#m1c85417644" y="20.60781"/>
     <use style="fill:#1f77b4;stroke:#1f77b4;" x="240.352369" xlink:href="#m1c85417644" y="73.857269"/>
     <use style="fill:#1f77b4;stroke:#1f77b4;" x="241.142283" xlink:href="#m1c85417644" y="48.099328"/>
     <use style="fill:#1f77b4;stroke:#1f77b4;" x="241.932196" xlink:href="#m1c85417644" y="62.024822"/>
     <use style="fill:#1f77b4;stroke:#1f77b4;" x="242.72211" xlink:href="#m1c85417644" y="34.710058"/>
     <use style="fill:#1f77b4;stroke:#1f77b4;" x="243.512024" xlink:href="#m1c85417644" y="261.216"/>
     <use style="fill:#1f77b4;stroke:#1f77b4;" x="244.301938" xlink:href="#m1c85417644" y="23.193458"/>
     <use style="fill:#1f77b4;stroke:#1f77b4;" x="245.091851" xlink:href="#m1c85417644" y="23.021242"/>
     <use style="fill:#1f77b4;stroke:#1f77b4;" x="245.881765" xlink:href="#m1c85417644" y="102.65638"/>
     <use style="fill:#1f77b4;stroke:#1f77b4;" x="246.671679" xlink:href="#m1c85417644" y="60.518169"/>
     <use style="fill:#1f77b4;stroke:#1f77b4;" x="247.461593" xlink:href="#m1c85417644" y="33.387164"/>
     <use style="fill:#1f77b4;stroke:#1f77b4;" x="248.251506" xlink:href="#m1c85417644" y="76.821801"/>
     <use style="fill:#1f77b4;stroke:#1f77b4;" x="249.04142" xlink:href="#m1c85417644" y="68.065668"/>
     <use style="fill:#1f77b4;stroke:#1f77b4;" x="249.831334" xlink:href="#m1c85417644" y="27.699182"/>
     <use style="fill:#1f77b4;stroke:#1f77b4;" x="250.621248" xlink:href="#m1c85417644" y="57.787433"/>
     <use style="fill:#1f77b4;stroke:#1f77b4;" x="251.411161" xlink:href="#m1c85417644" y="37.150689"/>
     <use style="fill:#1f77b4;stroke:#1f77b4;" x="252.201075" xlink:href="#m1c85417644" y="82.306906"/>
     <use style="fill:#1f77b4;stroke:#1f77b4;" x="252.990989" xlink:href="#m1c85417644" y="50.439558"/>
     <use style="fill:#1f77b4;stroke:#1f77b4;" x="253.780902" xlink:href="#m1c85417644" y="58.40667"/>
     <use style="fill:#1f77b4;stroke:#1f77b4;" x="254.570816" xlink:href="#m1c85417644" y="38.495714"/>
     <use style="fill:#1f77b4;stroke:#1f77b4;" x="255.36073" xlink:href="#m1c85417644" y="43.24297"/>
     <use style="fill:#1f77b4;stroke:#1f77b4;" x="256.150644" xlink:href="#m1c85417644" y="27.054236"/>
     <use style="fill:#1f77b4;stroke:#1f77b4;" x="256.940557" xlink:href="#m1c85417644" y="85.245099"/>
     <use style="fill:#1f77b4;stroke:#1f77b4;" x="257.730471" xlink:href="#m1c85417644" y="40.188659"/>
     <use style="fill:#1f77b4;stroke:#1f77b4;" x="258.520385" xlink:href="#m1c85417644" y="89.959725"/>
     <use style="fill:#1f77b4;stroke:#1f77b4;" x="259.310299" xlink:href="#m1c85417644" y="54.481202"/>
     <use style="fill:#1f77b4;stroke:#1f77b4;" x="260.100212" xlink:href="#m1c85417644" y="41.431681"/>
     <use style="fill:#1f77b4;stroke:#1f77b4;" x="260.890126" xlink:href="#m1c85417644" y="33.144435"/>
     <use style="fill:#1f77b4;stroke:#1f77b4;" x="261.68004" xlink:href="#m1c85417644" y="113.171089"/>
     <use style="fill:#1f77b4;stroke:#1f77b4;" x="262.469954" xlink:href="#m1c85417644" y="22.631935"/>
     <use style="fill:#1f77b4;stroke:#1f77b4;" x="263.259867" xlink:href="#m1c85417644" y="24.606632"/>
     <use style="fill:#1f77b4;stroke:#1f77b4;" x="264.049781" xlink:href="#m1c85417644" y="90.145555"/>
     <use style="fill:#1f77b4;stroke:#1f77b4;" x="264.839695" xlink:href="#m1c85417644" y="62.770638"/>
     <use style="fill:#1f77b4;stroke:#1f77b4;" x="265.629608" xlink:href="#m1c85417644" y="31.126563"/>
     <use style="fill:#1f77b4;stroke:#1f77b4;" x="266.419522" xlink:href="#m1c85417644" y="25.851357"/>
     <use style="fill:#1f77b4;stroke:#1f77b4;" x="267.209436" xlink:href="#m1c85417644" y="85.423183"/>
     <use style="fill:#1f77b4;stroke:#1f77b4;" x="267.99935" xlink:href="#m1c85417644" y="64.69069"/>
     <use style="fill:#1f77b4;stroke:#1f77b4;" x="268.789263" xlink:href="#m1c85417644" y="29.800241"/>
     <use style="fill:#1f77b4;stroke:#1f77b4;" x="269.579177" xlink:href="#m1c85417644" y="29.282378"/>
     <use style="fill:#1f77b4;stroke:#1f77b4;" x="270.369091" xlink:href="#m1c85417644" y="47.367418"/>
     <use style="fill:#1f77b4;stroke:#1f77b4;" x="271.159005" xlink:href="#m1c85417644" y="50.292679"/>
     <use style="fill:#1f77b4;stroke:#1f77b4;" x="271.948918" xlink:href="#m1c85417644" y="102.749877"/>
     <use style="fill:#1f77b4;stroke:#1f77b4;" x="272.738832" xlink:href="#m1c85417644" y="55.433206"/>
     <use style="fill:#1f77b4;stroke:#1f77b4;" x="273.528746" xlink:href="#m1c85417644" y="42.955875"/>
     <use style="fill:#1f77b4;stroke:#1f77b4;" x="274.31866" xlink:href="#m1c85417644" y="26.653505"/>
     <use style="fill:#1f77b4;stroke:#1f77b4;" x="275.108573" xlink:href="#m1c85417644" y="116.806933"/>
     <use style="fill:#1f77b4;stroke:#1f77b4;" x="275.898487" xlink:href="#m1c85417644" y="58.503766"/>
     <use style="fill:#1f77b4;stroke:#1f77b4;" x="276.688401" xlink:href="#m1c85417644" y="34.765318"/>
     <use style="fill:#1f77b4;stroke:#1f77b4;" x="277.478315" xlink:href="#m1c85417644" y="128.596512"/>
     <use style="fill:#1f77b4;stroke:#1f77b4;" x="278.268228" xlink:href="#m1c85417644" y="57.65453"/>
     <use style="fill:#1f77b4;stroke:#1f77b4;" x="279.058142" xlink:href="#m1c85417644" y="37.784804"/>
     <use style="fill:#1f77b4;stroke:#1f77b4;" x="279.848056" xlink:href="#m1c85417644" y="55.971544"/>
     <use style="fill:#1f77b4;stroke:#1f77b4;" x="280.637969" xlink:href="#m1c85417644" y="38.553606"/>
     <use style="fill:#1f77b4;stroke:#1f77b4;" x="281.427883" xlink:href="#m1c85417644" y="84.687337"/>
     <use style="fill:#1f77b4;stroke:#1f77b4;" x="282.217797" xlink:href="#m1c85417644" y="52.052093"/>
     <use style="fill:#1f77b4;stroke:#1f77b4;" x="283.007711" xlink:href="#m1c85417644" y="52.139785"/>
     <use style="fill:#1f77b4;stroke:#1f77b4;" x="283.797624" xlink:href="#m1c85417644" y="59.129695"/>
     <use style="fill:#1f77b4;stroke:#1f77b4;" x="284.587538" xlink:href="#m1c85417644" y="32.747467"/>
     <use style="fill:#1f77b4;stroke:#1f77b4;" x="285.377452" xlink:href="#m1c85417644" y="21.26309"/>
     <use style="fill:#1f77b4;stroke:#1f77b4;" x="286.167366" xlink:href="#m1c85417644" y="74.975505"/>
     <use style="fill:#1f77b4;stroke:#1f77b4;" x="286.957279" xlink:href="#m1c85417644" y="49.641141"/>
     <use style="fill:#1f77b4;stroke:#1f77b4;" x="287.747193" xlink:href="#m1c85417644" y="56.169131"/>
     <use style="fill:#1f77b4;stroke:#1f77b4;" x="288.537107" xlink:href="#m1c85417644" y="42.17705"/>
     <use style="fill:#1f77b4;stroke:#1f77b4;" x="289.327021" xlink:href="#m1c85417644" y="29.611814"/>
     <use style="fill:#1f77b4;stroke:#1f77b4;" x="290.116934" xlink:href="#m1c85417644" y="115.487967"/>
     <use style="fill:#1f77b4;stroke:#1f77b4;" x="290.906848" xlink:href="#m1c85417644" y="60.053753"/>
     <use style="fill:#1f77b4;stroke:#1f77b4;" x="291.696762" xlink:href="#m1c85417644" y="34.344615"/>
     <use style="fill:#1f77b4;stroke:#1f77b4;" x="292.486676" xlink:href="#m1c85417644" y="71.711328"/>
     <use style="fill:#1f77b4;stroke:#1f77b4;" x="293.276589" xlink:href="#m1c85417644" y="26.634451"/>
     <use style="fill:#1f77b4;stroke:#1f77b4;" x="294.066503" xlink:href="#m1c85417644" y="67.683503"/>
     <use style="fill:#1f77b4;stroke:#1f77b4;" x="294.856417" xlink:href="#m1c85417644" y="28.54668"/>
     <use style="fill:#1f77b4;stroke:#1f77b4;" x="295.64633" xlink:href="#m1c85417644" y="42.196233"/>
     <use style="fill:#1f77b4;stroke:#1f77b4;" x="296.436244" xlink:href="#m1c85417644" y="84.796235"/>
     <use style="fill:#1f77b4;stroke:#1f77b4;" x="297.226158" xlink:href="#m1c85417644" y="24.626008"/>
     <use style="fill:#1f77b4;stroke:#1f77b4;" x="298.016072" xlink:href="#m1c85417644" y="76.077551"/>
     <use style="fill:#1f77b4;stroke:#1f77b4;" x="298.805985" xlink:href="#m1c85417644" y="26.148806"/>
     <use style="fill:#1f77b4;stroke:#1f77b4;" x="299.595899" xlink:href="#m1c85417644" y="60.260107"/>
     <use style="fill:#1f77b4;stroke:#1f77b4;" x="300.385813" xlink:href="#m1c85417644" y="90.84123"/>
     <use style="fill:#1f77b4;stroke:#1f77b4;" x="301.175727" xlink:href="#m1c85417644" y="61.014833"/>
     <use style="fill:#1f77b4;stroke:#1f77b4;" x="301.96564" xlink:href="#m1c85417644" y="33.785611"/>
     <use style="fill:#1f77b4;stroke:#1f77b4;" x="302.755554" xlink:href="#m1c85417644" y="70.525106"/>
     <use style="fill:#1f77b4;stroke:#1f77b4;" x="303.545468" xlink:href="#m1c85417644" y="27.154184"/>
     <use style="fill:#1f77b4;stroke:#1f77b4;" x="304.335382" xlink:href="#m1c85417644" y="57.735229"/>
     <use style="fill:#1f77b4;stroke:#1f77b4;" x="305.125295" xlink:href="#m1c85417644" y="47.048136"/>
     <use style="fill:#1f77b4;stroke:#1f77b4;" x="305.915209" xlink:href="#m1c85417644" y="51.778938"/>
     <use style="fill:#1f77b4;stroke:#1f77b4;" x="306.705123" xlink:href="#m1c85417644" y="68.325394"/>
     <use style="fill:#1f77b4;stroke:#1f77b4;" x="307.495036" xlink:href="#m1c85417644" y="70.357259"/>
     <use style="fill:#1f77b4;stroke:#1f77b4;" x="308.28495" xlink:href="#m1c85417644" y="27.345082"/>
     <use style="fill:#1f77b4;stroke:#1f77b4;" x="309.074864" xlink:href="#m1c85417644" y="46.564891"/>
     <use style="fill:#1f77b4;stroke:#1f77b4;" x="309.864778" xlink:href="#m1c85417644" y="80.909828"/>
     <use style="fill:#1f77b4;stroke:#1f77b4;" x="310.654691" xlink:href="#m1c85417644" y="63.609445"/>
     <use style="fill:#1f77b4;stroke:#1f77b4;" x="311.444605" xlink:href="#m1c85417644" y="31.515004"/>
     <use style="fill:#1f77b4;stroke:#1f77b4;" x="312.234519" xlink:href="#m1c85417644" y="79.790903"/>
     <use style="fill:#1f77b4;stroke:#1f77b4;" x="313.024433" xlink:href="#m1c85417644" y="25.021839"/>
     <use style="fill:#1f77b4;stroke:#1f77b4;" x="313.814346" xlink:href="#m1c85417644" y="73.193479"/>
     <use style="fill:#1f77b4;stroke:#1f77b4;" x="314.60426" xlink:href="#m1c85417644" y="26.214699"/>
     <use style="fill:#1f77b4;stroke:#1f77b4;" x="315.394174" xlink:href="#m1c85417644" y="69.100254"/>
     <use style="fill:#1f77b4;stroke:#1f77b4;" x="316.184088" xlink:href="#m1c85417644" y="71.578702"/>
     <use style="fill:#1f77b4;stroke:#1f77b4;" x="316.974001" xlink:href="#m1c85417644" y="26.677755"/>
     <use style="fill:#1f77b4;stroke:#1f77b4;" x="317.763915" xlink:href="#m1c85417644" y="62.720322"/>
     <use style="fill:#1f77b4;stroke:#1f77b4;" x="318.553829" xlink:href="#m1c85417644" y="31.846732"/>
     <use style="fill:#1f77b4;stroke:#1f77b4;" x="319.343743" xlink:href="#m1c85417644" y="86.136511"/>
     <use style="fill:#1f77b4;stroke:#1f77b4;" x="320.133656" xlink:href="#m1c85417644" y="64.771814"/>
     <use style="fill:#1f77b4;stroke:#1f77b4;" x="320.92357" xlink:href="#m1c85417644" y="29.251903"/>
     <use style="fill:#1f77b4;stroke:#1f77b4;" x="321.713484" xlink:href="#m1c85417644" y="35.726928"/>
     <use style="fill:#1f77b4;stroke:#1f77b4;" x="322.503397" xlink:href="#m1c85417644" y="143.595035"/>
     <use style="fill:#1f77b4;stroke:#1f77b4;" x="323.293311" xlink:href="#m1c85417644" y="22.808908"/>
     <use style="fill:#1f77b4;stroke:#1f77b4;" x="324.083225" xlink:href="#m1c85417644" y="25.464498"/>
     <use style="fill:#1f77b4;stroke:#1f77b4;" x="324.873139" xlink:href="#m1c85417644" y="69.868024"/>
     <use style="fill:#1f77b4;stroke:#1f77b4;" x="325.663052" xlink:href="#m1c85417644" y="28.560082"/>
     <use style="fill:#1f77b4;stroke:#1f77b4;" x="326.452966" xlink:href="#m1c85417644" y="90.557412"/>
     <use style="fill:#1f77b4;stroke:#1f77b4;" x="327.24288" xlink:href="#m1c85417644" y="54.922728"/>
     <use style="fill:#1f77b4;stroke:#1f77b4;" x="328.032794" xlink:href="#m1c85417644" y="41.781799"/>
     <use style="fill:#1f77b4;stroke:#1f77b4;" x="328.822707" xlink:href="#m1c85417644" y="31.23139"/>
     <use style="fill:#1f77b4;stroke:#1f77b4;" x="329.612621" xlink:href="#m1c85417644" y="111.006269"/>
     <use style="fill:#1f77b4;stroke:#1f77b4;" x="330.402535" xlink:href="#m1c85417644" y="23.367957"/>
     <use style="fill:#1f77b4;stroke:#1f77b4;" x="331.192449" xlink:href="#m1c85417644" y="119.522361"/>
     <use style="fill:#1f77b4;stroke:#1f77b4;" x="331.982362" xlink:href="#m1c85417644" y="22.484737"/>
     <use style="fill:#1f77b4;stroke:#1f77b4;" x="332.772276" xlink:href="#m1c85417644" y="83.040623"/>
     <use style="fill:#1f77b4;stroke:#1f77b4;" x="333.56219" xlink:href="#m1c85417644" y="64.541987"/>
     <use style="fill:#1f77b4;stroke:#1f77b4;" x="334.352104" xlink:href="#m1c85417644" y="29.432725"/>
     <use style="fill:#1f77b4;stroke:#1f77b4;" x="335.142017" xlink:href="#m1c85417644" y="32.977459"/>
     <use style="fill:#1f77b4;stroke:#1f77b4;" x="335.931931" xlink:href="#m1c85417644" y="64.097812"/>
     <use style="fill:#1f77b4;stroke:#1f77b4;" x="336.721845" xlink:href="#m1c85417644" y="91.648198"/>
     <use style="fill:#1f77b4;stroke:#1f77b4;" x="337.511758" xlink:href="#m1c85417644" y="61.930721"/>
     <use style="fill:#1f77b4;stroke:#1f77b4;" x="338.301672" xlink:href="#m1c85417644" y="31.506665"/>
     <use style="fill:#1f77b4;stroke:#1f77b4;" x="339.091586" xlink:href="#m1c85417644" y="24.484193"/>
     <use style="fill:#1f77b4;stroke:#1f77b4;" x="339.8815" xlink:href="#m1c85417644" y="95.187131"/>
     <use style="fill:#1f77b4;stroke:#1f77b4;" x="340.671413" xlink:href="#m1c85417644" y="62.997421"/>
     <use style="fill:#1f77b4;stroke:#1f77b4;" x="341.461327" xlink:href="#m1c85417644" y="30.474328"/>
     <use style="fill:#1f77b4;stroke:#1f77b4;" x="342.251241" xlink:href="#m1c85417644" y="27.139023"/>
     <use style="fill:#1f77b4;stroke:#1f77b4;" x="343.041155" xlink:href="#m1c85417644" y="108.748489"/>
     <use style="fill:#1f77b4;stroke:#1f77b4;" x="343.831068" xlink:href="#m1c85417644" y="57.762917"/>
     <use style="fill:#1f77b4;stroke:#1f77b4;" x="344.620982" xlink:href="#m1c85417644" y="36.279207"/>
     <use style="fill:#1f77b4;stroke:#1f77b4;" x="345.410896" xlink:href="#m1c85417644" y="47.507284"/>
     <use style="fill:#1f77b4;stroke:#1f77b4;" x="346.20081" xlink:href="#m1c85417644" y="99.271533"/>
     <use style="fill:#1f77b4;stroke:#1f77b4;" x="346.990723" xlink:href="#m1c85417644" y="52.422234"/>
     <use style="fill:#1f77b4;stroke:#1f77b4;" x="347.780637" xlink:href="#m1c85417644" y="55.766542"/>
     <use style="fill:#1f77b4;stroke:#1f77b4;" x="348.570551" xlink:href="#m1c85417644" y="39.360681"/>
     <use style="fill:#1f77b4;stroke:#1f77b4;" x="349.360464" xlink:href="#m1c85417644" y="110.969962"/>
     <use style="fill:#1f77b4;stroke:#1f77b4;" x="350.150378" xlink:href="#m1c85417644" y="59.270479"/>
     <use style="fill:#1f77b4;stroke:#1f77b4;" x="350.940292" xlink:href="#m1c85417644" y="35.61716"/>
     <use style="fill:#1f77b4;stroke:#1f77b4;" x="351.730206" xlink:href="#m1c85417644" y="65.650742"/>
     <use style="fill:#1f77b4;stroke:#1f77b4;" x="352.520119" xlink:href="#m1c85417644" y="28.795734"/>
     <use style="fill:#1f77b4;stroke:#1f77b4;" x="353.310033" xlink:href="#m1c85417644" y="47.051898"/>
     <use style="fill:#1f77b4;stroke:#1f77b4;" x="354.099947" xlink:href="#m1c85417644" y="51.536645"/>
     <use style="fill:#1f77b4;stroke:#1f77b4;" x="354.889861" xlink:href="#m1c85417644" y="70.873387"/>
     <use style="fill:#1f77b4;stroke:#1f77b4;" x="355.679774" xlink:href="#m1c85417644" y="70.99386"/>
     <use style="fill:#1f77b4;stroke:#1f77b4;" x="356.469688" xlink:href="#m1c85417644" y="26.746679"/>
     <use style="fill:#1f77b4;stroke:#1f77b4;" x="357.259602" xlink:href="#m1c85417644" y="65.390491"/>
     <use style="fill:#1f77b4;stroke:#1f77b4;" x="358.049516" xlink:href="#m1c85417644" y="28.781886"/>
     <use style="fill:#1f77b4;stroke:#1f77b4;" x="358.839429" xlink:href="#m1c85417644" y="46.585461"/>
     <use style="fill:#1f77b4;stroke:#1f77b4;" x="359.629343" xlink:href="#m1c85417644" y="50.515912"/>
     <use style="fill:#1f77b4;stroke:#1f77b4;" x="360.419257" xlink:href="#m1c85417644" y="104.222412"/>
     <use style="fill:#1f77b4;stroke:#1f77b4;" x="361.209171" xlink:href="#m1c85417644" y="54.441629"/>
     <use style="fill:#1f77b4;stroke:#1f77b4;" x="361.999084" xlink:href="#m1c85417644" y="48.510973"/>
     <use style="fill:#1f77b4;stroke:#1f77b4;" x="362.788998" xlink:href="#m1c85417644" y="64.202929"/>
     <use style="fill:#1f77b4;stroke:#1f77b4;" x="363.578912" xlink:href="#m1c85417644" y="30.007576"/>
     <use style="fill:#1f77b4;stroke:#1f77b4;" x="364.368825" xlink:href="#m1c85417644" y="29.289147"/>
     <use style="fill:#1f77b4;stroke:#1f77b4;" x="365.158739" xlink:href="#m1c85417644" y="132.262945"/>
     <use style="fill:#1f77b4;stroke:#1f77b4;" x="365.948653" xlink:href="#m1c85417644" y="23.277134"/>
     <use style="fill:#1f77b4;stroke:#1f77b4;" x="366.738567" xlink:href="#m1c85417644" y="23.005563"/>
     <use style="fill:#1f77b4;stroke:#1f77b4;" x="367.52848" xlink:href="#m1c85417644" y="104.547619"/>
     <use style="fill:#1f77b4;stroke:#1f77b4;" x="368.318394" xlink:href="#m1c85417644" y="60.149248"/>
     <use style="fill:#1f77b4;stroke:#1f77b4;" x="369.108308" xlink:href="#m1c85417644" y="34.04643"/>
     <use style="fill:#1f77b4;stroke:#1f77b4;" x="369.898222" xlink:href="#m1c85417644" y="73.280118"/>
     <use style="fill:#1f77b4;stroke:#1f77b4;" x="370.688135" xlink:href="#m1c85417644" y="26.411594"/>
     <use style="fill:#1f77b4;stroke:#1f77b4;" x="371.478049" xlink:href="#m1c85417644" y="66.196199"/>
     <use style="fill:#1f77b4;stroke:#1f77b4;" x="372.267963" xlink:href="#m1c85417644" y="28.402353"/>
     <use style="fill:#1f77b4;stroke:#1f77b4;" x="373.057877" xlink:href="#m1c85417644" y="52.378503"/>
     <use style="fill:#1f77b4;stroke:#1f77b4;" x="373.84779" xlink:href="#m1c85417644" y="45.444734"/>
     <use style="fill:#1f77b4;stroke:#1f77b4;" x="374.637704" xlink:href="#m1c85417644" y="84.545804"/>
     <use style="fill:#1f77b4;stroke:#1f77b4;" x="375.427618" xlink:href="#m1c85417644" y="64.260972"/>
     <use style="fill:#1f77b4;stroke:#1f77b4;" x="376.217532" xlink:href="#m1c85417644" y="29.839193"/>
     <use style="fill:#1f77b4;stroke:#1f77b4;" x="377.007445" xlink:href="#m1c85417644" y="29.521813"/>
     <use style="fill:#1f77b4;stroke:#1f77b4;" x="377.371763" xlink:href="#m1c85417644" y="22383.514"/>
    </g>
   </g>
   <g id="line2d_55">
    <path clip-path="url(#p7b1f37993e)" d="M 252.990989 50.439558 
L 254.570816 38.495714 
L 256.150644 27.054236 
" style="fill:none;stroke:#2ca02c;stroke-dasharray:1.5,2.475;stroke-dashoffset:0;stroke-width:1.5;"/>
    <defs>
     <path d="M -3 3 
L 3 -3 
M -3 -3 
L 3 3 
" id="m09c5cae2bf" style="stroke:#2ca02c;"/>
    </defs>
    <g clip-path="url(#p7b1f37993e)">
     <use style="fill:#2ca02c;stroke:#2ca02c;" x="252.990989" xlink:href="#m09c5cae2bf" y="50.439558"/>
     <use style="fill:#2ca02c;stroke:#2ca02c;" x="254.570816" xlink:href="#m09c5cae2bf" y="38.495714"/>
     <use style="fill:#2ca02c;stroke:#2ca02c;" x="256.150644" xlink:href="#m09c5cae2bf" y="27.054236"/>
    </g>
   </g>
   <g id="line2d_56">
    <path clip-path="url(#p7b1f37993e)" d="M 54.722641 129.128973 
L 72.304723 -1 
L 72.304723 -1 
" style="fill:none;stroke:#000000;stroke-dasharray:5.55,2.4;stroke-dashoffset:0;stroke-width:1.5;"/>
   </g>
   <g id="patch_3">
    <path d="M 37.7 273.312 
L 37.7 7.2 
" style="fill:none;stroke:#000000;stroke-linecap:square;stroke-linejoin:miter;stroke-width:0.8;"/>
   </g>
   <g id="patch_4">
    <path d="M 394.82 273.312 
L 394.82 7.2 
" style="fill:none;stroke:#000000;stroke-linecap:square;stroke-linejoin:miter;stroke-width:0.8;"/>
   </g>
   <g id="patch_5">
    <path d="M 37.7 273.312 
L 394.82 273.312 
" style="fill:none;stroke:#000000;stroke-linecap:square;stroke-linejoin:miter;stroke-width:0.8;"/>
   </g>
   <g id="patch_6">
    <path d="M 37.7 7.2 
L 394.82 7.2 
" style="fill:none;stroke:#000000;stroke-linecap:square;stroke-linejoin:miter;stroke-width:0.8;"/>
   </g>
   <g id="legend_1">
    <g id="patch_7">
     <path d="M 44.7 268.312 
L 139.785937 268.312 
Q 141.785937 268.312 141.785937 266.312 
L 141.785937 223.25575 
Q 141.785937 221.25575 139.785937 221.25575 
L 44.7 221.25575 
Q 42.7 221.25575 42.7 223.25575 
L 42.7 266.312 
Q 42.7 268.312 44.7 268.312 
z
" style="fill:#ffffff;opacity:0.8;"/>
    </g>
    <g id="line2d_57">
     <path d="M 46.7 229.354187 
L 66.7 229.354187 
" style="fill:none;stroke:#1f77b4;stroke-linecap:square;stroke-width:1.5;"/>
    </g>
    <g id="line2d_58">
     <g>
      <use style="fill:#1f77b4;stroke:#1f77b4;" x="56.7" xlink:href="#m1c85417644" y="229.354187"/>
     </g>
    </g>
    <g id="text_12">
     <!-- APD$_n$ - APD$_\infty$ -->
     <defs>
      <path d="M 34.1875 63.1875 
L 20.796875 26.90625 
L 47.609375 26.90625 
z
M 28.609375 72.90625 
L 39.796875 72.90625 
L 67.578125 0 
L 57.328125 0 
L 50.6875 18.703125 
L 17.828125 18.703125 
L 11.1875 0 
L 0.78125 0 
z
" id="DejaVuSans-65"/>
      <path d="M 19.671875 64.796875 
L 19.671875 37.40625 
L 32.078125 37.40625 
Q 38.96875 37.40625 42.71875 40.96875 
Q 46.484375 44.53125 46.484375 51.125 
Q 46.484375 57.671875 42.71875 61.234375 
Q 38.96875 64.796875 32.078125 64.796875 
z
M 9.8125 72.90625 
L 32.078125 72.90625 
Q 44.34375 72.90625 50.609375 67.359375 
Q 56.890625 61.8125 56.890625 51.125 
Q 56.890625 40.328125 50.609375 34.8125 
Q 44.34375 29.296875 32.078125 29.296875 
L 19.671875 29.296875 
L 19.671875 0 
L 9.8125 0 
z
" id="DejaVuSans-80"/>
      <path d="M 19.671875 64.796875 
L 19.671875 8.109375 
L 31.59375 8.109375 
Q 46.6875 8.109375 53.6875 14.9375 
Q 60.6875 21.78125 60.6875 36.53125 
Q 60.6875 51.171875 53.6875 57.984375 
Q 46.6875 64.796875 31.59375 64.796875 
z
M 9.8125 72.90625 
L 30.078125 72.90625 
Q 51.265625 72.90625 61.171875 64.09375 
Q 71.09375 55.28125 71.09375 36.53125 
Q 71.09375 17.671875 61.125 8.828125 
Q 51.171875 0 30.078125 0 
L 9.8125 0 
z
" id="DejaVuSans-68"/>
      <path d="M 55.71875 33.015625 
L 49.3125 0 
L 40.28125 0 
L 46.6875 32.671875 
Q 47.125 34.96875 47.359375 36.71875 
Q 47.609375 38.484375 47.609375 39.5 
Q 47.609375 43.609375 45.015625 45.890625 
Q 42.4375 48.1875 37.796875 48.1875 
Q 30.5625 48.1875 25.34375 43.375 
Q 20.125 38.578125 18.5 30.328125 
L 12.5 0 
L 3.515625 0 
L 14.109375 54.6875 
L 23.09375 54.6875 
L 21.296875 46.09375 
Q 25.046875 50.828125 30.3125 53.40625 
Q 35.59375 56 41.40625 56 
Q 48.640625 56 52.609375 52.09375 
Q 56.59375 48.1875 56.59375 41.109375 
Q 56.59375 39.359375 56.375 37.359375 
Q 56.15625 35.359375 55.71875 33.015625 
z
" id="DejaVuSans-Oblique-110"/>
      <path id="DejaVuSans-32"/>
      <path d="M 4.890625 31.390625 
L 31.203125 31.390625 
L 31.203125 23.390625 
L 4.890625 23.390625 
z
" id="DejaVuSans-45"/>
      <path d="M 45.5625 17.046875 
Q 44.046875 18.796875 41.65625 22.90625 
Q 38.375 17.046875 35.5 14.453125 
Q 31.890625 11.328125 26.265625 11.328125 
Q 19.671875 11.328125 15.328125 16.265625 
Q 10.75 21.4375 10.75 29.984375 
Q 10.75 38.1875 15.328125 43.75 
Q 19.4375 48.6875 26.375 48.6875 
Q 29.9375 48.6875 32.5625 47.21875 
Q 35.640625 45.609375 37.75 42.828125 
Q 39.703125 40.328125 41.65625 36.96875 
Q 44.921875 42.828125 47.796875 45.40625 
Q 51.421875 48.53125 57.03125 48.53125 
Q 63.625 48.53125 67.96875 43.609375 
Q 72.5625 38.421875 72.5625 29.890625 
Q 72.5625 21.6875 67.96875 16.109375 
Q 63.875 11.1875 56.9375 11.1875 
Q 53.375 11.1875 50.734375 12.640625 
Q 48.09375 13.96875 45.5625 17.046875 
z
M 25.734375 17.71875 
Q 33.796875 17.71875 38.625 29.4375 
Q 32.421875 42.234375 25.734375 42.234375 
Q 20.84375 42.234375 18.359375 38.71875 
Q 15.671875 34.96875 15.671875 29.984375 
Q 15.671875 24.515625 18.359375 21.140625 
Q 21.09375 17.71875 25.734375 17.71875 
z
M 57.5625 42.140625 
Q 50.296875 42.140625 44.671875 30.421875 
Q 50.828125 17.625 57.5625 17.625 
Q 62.453125 17.625 64.9375 21.140625 
Q 67.625 24.90625 67.625 29.890625 
Q 67.625 35.359375 64.9375 38.71875 
Q 62.203125 42.140625 57.5625 42.140625 
z
" id="DejaVuSans-8734"/>
     </defs>
     <g transform="translate(74.7 232.854187)scale(0.1 -0.1)">
      <use transform="translate(0 0.09375)" xlink:href="#DejaVuSans-65"/>
      <use transform="translate(68.408203 0.09375)" xlink:href="#DejaVuSans-80"/>
      <use transform="translate(128.710938 0.09375)" xlink:href="#DejaVuSans-68"/>
      <use transform="translate(206.669922 -16.3125)scale(0.7)" xlink:href="#DejaVuSans-Oblique-110"/>
      <use transform="translate(253.769531 0.09375)" xlink:href="#DejaVuSans-32"/>
      <use transform="translate(285.556641 0.09375)" xlink:href="#DejaVuSans-45"/>
      <use transform="translate(321.640625 0.09375)" xlink:href="#DejaVuSans-32"/>
      <use transform="translate(353.427734 0.09375)" xlink:href="#DejaVuSans-65"/>
      <use transform="translate(421.835938 0.09375)" xlink:href="#DejaVuSans-80"/>
      <use transform="translate(482.138672 0.09375)" xlink:href="#DejaVuSans-68"/>
      <use transform="translate(560.097656 -16.3125)scale(0.7)" xlink:href="#DejaVuSans-8734"/>
     </g>
    </g>
    <g id="line2d_59">
     <path d="M 46.7 244.032312 
L 66.7 244.032312 
" style="fill:none;stroke:#2ca02c;stroke-dasharray:1.5,2.475;stroke-dashoffset:0;stroke-width:1.5;"/>
    </g>
    <g id="line2d_60">
     <g>
      <use style="fill:#2ca02c;stroke:#2ca02c;" x="56.7" xlink:href="#m09c5cae2bf" y="244.032312"/>
     </g>
    </g>
    <g id="text_13">
     <!-- linear region -->
     <defs>
      <path d="M 9.421875 75.984375 
L 18.40625 75.984375 
L 18.40625 0 
L 9.421875 0 
z
" id="DejaVuSans-108"/>
      <path d="M 9.421875 54.6875 
L 18.40625 54.6875 
L 18.40625 0 
L 9.421875 0 
z
M 9.421875 75.984375 
L 18.40625 75.984375 
L 18.40625 64.59375 
L 9.421875 64.59375 
z
" id="DejaVuSans-105"/>
      <path d="M 54.890625 33.015625 
L 54.890625 0 
L 45.90625 0 
L 45.90625 32.71875 
Q 45.90625 40.484375 42.875 44.328125 
Q 39.84375 48.1875 33.796875 48.1875 
Q 26.515625 48.1875 22.3125 43.546875 
Q 18.109375 38.921875 18.109375 30.90625 
L 18.109375 0 
L 9.078125 0 
L 9.078125 54.6875 
L 18.109375 54.6875 
L 18.109375 46.1875 
Q 21.34375 51.125 25.703125 53.5625 
Q 30.078125 56 35.796875 56 
Q 45.21875 56 50.046875 50.171875 
Q 54.890625 44.34375 54.890625 33.015625 
z
" id="DejaVuSans-110"/>
      <path d="M 56.203125 29.59375 
L 56.203125 25.203125 
L 14.890625 25.203125 
Q 15.484375 15.921875 20.484375 11.0625 
Q 25.484375 6.203125 34.421875 6.203125 
Q 39.59375 6.203125 44.453125 7.46875 
Q 49.3125 8.734375 54.109375 11.28125 
L 54.109375 2.78125 
Q 49.265625 0.734375 44.1875 -0.34375 
Q 39.109375 -1.421875 33.890625 -1.421875 
Q 20.796875 -1.421875 13.15625 6.1875 
Q 5.515625 13.8125 5.515625 26.8125 
Q 5.515625 40.234375 12.765625 48.109375 
Q 20.015625 56 32.328125 56 
Q 43.359375 56 49.78125 48.890625 
Q 56.203125 41.796875 56.203125 29.59375 
z
M 47.21875 32.234375 
Q 47.125 39.59375 43.09375 43.984375 
Q 39.0625 48.390625 32.421875 48.390625 
Q 24.90625 48.390625 20.390625 44.140625 
Q 15.875 39.890625 15.1875 32.171875 
z
" id="DejaVuSans-101"/>
      <path d="M 34.28125 27.484375 
Q 23.390625 27.484375 19.1875 25 
Q 14.984375 22.515625 14.984375 16.5 
Q 14.984375 11.71875 18.140625 8.90625 
Q 21.296875 6.109375 26.703125 6.109375 
Q 34.1875 6.109375 38.703125 11.40625 
Q 43.21875 16.703125 43.21875 25.484375 
L 43.21875 27.484375 
z
M 52.203125 31.203125 
L 52.203125 0 
L 43.21875 0 
L 43.21875 8.296875 
Q 40.140625 3.328125 35.546875 0.953125 
Q 30.953125 -1.421875 24.3125 -1.421875 
Q 15.921875 -1.421875 10.953125 3.296875 
Q 6 8.015625 6 15.921875 
Q 6 25.140625 12.171875 29.828125 
Q 18.359375 34.515625 30.609375 34.515625 
L 43.21875 34.515625 
L 43.21875 35.40625 
Q 43.21875 41.609375 39.140625 45 
Q 35.0625 48.390625 27.6875 48.390625 
Q 23 48.390625 18.546875 47.265625 
Q 14.109375 46.140625 10.015625 43.890625 
L 10.015625 52.203125 
Q 14.9375 54.109375 19.578125 55.046875 
Q 24.21875 56 28.609375 56 
Q 40.484375 56 46.34375 49.84375 
Q 52.203125 43.703125 52.203125 31.203125 
z
" id="DejaVuSans-97"/>
      <path d="M 41.109375 46.296875 
Q 39.59375 47.171875 37.8125 47.578125 
Q 36.03125 48 33.890625 48 
Q 26.265625 48 22.1875 43.046875 
Q 18.109375 38.09375 18.109375 28.8125 
L 18.109375 0 
L 9.078125 0 
L 9.078125 54.6875 
L 18.109375 54.6875 
L 18.109375 46.1875 
Q 20.953125 51.171875 25.484375 53.578125 
Q 30.03125 56 36.53125 56 
Q 37.453125 56 38.578125 55.875 
Q 39.703125 55.765625 41.0625 55.515625 
z
" id="DejaVuSans-114"/>
      <path d="M 45.40625 27.984375 
Q 45.40625 37.75 41.375 43.109375 
Q 37.359375 48.484375 30.078125 48.484375 
Q 22.859375 48.484375 18.828125 43.109375 
Q 14.796875 37.75 14.796875 27.984375 
Q 14.796875 18.265625 18.828125 12.890625 
Q 22.859375 7.515625 30.078125 7.515625 
Q 37.359375 7.515625 41.375 12.890625 
Q 45.40625 18.265625 45.40625 27.984375 
z
M 54.390625 6.78125 
Q 54.390625 -7.171875 48.1875 -13.984375 
Q 42 -20.796875 29.203125 -20.796875 
Q 24.46875 -20.796875 20.265625 -20.09375 
Q 16.0625 -19.390625 12.109375 -17.921875 
L 12.109375 -9.1875 
Q 16.0625 -11.328125 19.921875 -12.34375 
Q 23.78125 -13.375 27.78125 -13.375 
Q 36.625 -13.375 41.015625 -8.765625 
Q 45.40625 -4.15625 45.40625 5.171875 
L 45.40625 9.625 
Q 42.625 4.78125 38.28125 2.390625 
Q 33.9375 0 27.875 0 
Q 17.828125 0 11.671875 7.65625 
Q 5.515625 15.328125 5.515625 27.984375 
Q 5.515625 40.671875 11.671875 48.328125 
Q 17.828125 56 27.875 56 
Q 33.9375 56 38.28125 53.609375 
Q 42.625 51.21875 45.40625 46.390625 
L 45.40625 54.6875 
L 54.390625 54.6875 
z
" id="DejaVuSans-103"/>
      <path d="M 30.609375 48.390625 
Q 23.390625 48.390625 19.1875 42.75 
Q 14.984375 37.109375 14.984375 27.296875 
Q 14.984375 17.484375 19.15625 11.84375 
Q 23.34375 6.203125 30.609375 6.203125 
Q 37.796875 6.203125 41.984375 11.859375 
Q 46.1875 17.53125 46.1875 27.296875 
Q 46.1875 37.015625 41.984375 42.703125 
Q 37.796875 48.390625 30.609375 48.390625 
z
M 30.609375 56 
Q 42.328125 56 49.015625 48.375 
Q 55.71875 40.765625 55.71875 27.296875 
Q 55.71875 13.875 49.015625 6.21875 
Q 42.328125 -1.421875 30.609375 -1.421875 
Q 18.84375 -1.421875 12.171875 6.21875 
Q 5.515625 13.875 5.515625 27.296875 
Q 5.515625 40.765625 12.171875 48.375 
Q 18.84375 56 30.609375 56 
z
" id="DejaVuSans-111"/>
     </defs>
     <g transform="translate(74.7 247.532312)scale(0.1 -0.1)">
      <use xlink:href="#DejaVuSans-108"/>
      <use x="27.783203" xlink:href="#DejaVuSans-105"/>
      <use x="55.566406" xlink:href="#DejaVuSans-110"/>
      <use x="118.945312" xlink:href="#DejaVuSans-101"/>
      <use x="180.46875" xlink:href="#DejaVuSans-97"/>
      <use x="241.748047" xlink:href="#DejaVuSans-114"/>
      <use x="282.861328" xlink:href="#DejaVuSans-32"/>
      <use x="314.648438" xlink:href="#DejaVuSans-114"/>
      <use x="353.511719" xlink:href="#DejaVuSans-101"/>
      <use x="415.035156" xlink:href="#DejaVuSans-103"/>
      <use x="478.511719" xlink:href="#DejaVuSans-105"/>
      <use x="506.294922" xlink:href="#DejaVuSans-111"/>
      <use x="567.476562" xlink:href="#DejaVuSans-110"/>
     </g>
    </g>
    <g id="line2d_61">
     <path d="M 46.7 258.712 
L 66.7 258.712 
" style="fill:none;stroke:#000000;stroke-dasharray:5.55,2.4;stroke-dashoffset:0;stroke-width:1.5;"/>
    </g>
    <g id="line2d_62"/>
    <g id="text_14">
     <!-- $ \exp(0.278 k)$ -->
     <defs>
      <path d="M 54.890625 54.6875 
L 35.109375 28.078125 
L 55.90625 0 
L 45.3125 0 
L 29.390625 21.484375 
L 13.484375 0 
L 2.875 0 
L 24.125 28.609375 
L 4.6875 54.6875 
L 15.28125 54.6875 
L 29.78125 35.203125 
L 44.28125 54.6875 
z
" id="DejaVuSans-120"/>
      <path d="M 18.109375 8.203125 
L 18.109375 -20.796875 
L 9.078125 -20.796875 
L 9.078125 54.6875 
L 18.109375 54.6875 
L 18.109375 46.390625 
Q 20.953125 51.265625 25.265625 53.625 
Q 29.59375 56 35.59375 56 
Q 45.5625 56 51.78125 48.09375 
Q 58.015625 40.1875 58.015625 27.296875 
Q 58.015625 14.40625 51.78125 6.484375 
Q 45.5625 -1.421875 35.59375 -1.421875 
Q 29.59375 -1.421875 25.265625 0.953125 
Q 20.953125 3.328125 18.109375 8.203125 
z
M 48.6875 27.296875 
Q 48.6875 37.203125 44.609375 42.84375 
Q 40.53125 48.484375 33.40625 48.484375 
Q 26.265625 48.484375 22.1875 42.84375 
Q 18.109375 37.203125 18.109375 27.296875 
Q 18.109375 17.390625 22.1875 11.75 
Q 26.265625 6.109375 33.40625 6.109375 
Q 40.53125 6.109375 44.609375 11.75 
Q 48.6875 17.390625 48.6875 27.296875 
z
" id="DejaVuSans-112"/>
      <path d="M 31 75.875 
Q 24.46875 64.65625 21.28125 53.65625 
Q 18.109375 42.671875 18.109375 31.390625 
Q 18.109375 20.125 21.3125 9.0625 
Q 24.515625 -2 31 -13.1875 
L 23.1875 -13.1875 
Q 15.875 -1.703125 12.234375 9.375 
Q 8.59375 20.453125 8.59375 31.390625 
Q 8.59375 42.28125 12.203125 53.3125 
Q 15.828125 64.359375 23.1875 75.875 
z
" id="DejaVuSans-40"/>
      <path d="M 10.6875 12.40625 
L 21 12.40625 
L 21 0 
L 10.6875 0 
z
" id="DejaVuSans-46"/>
      <path d="M 8.203125 72.90625 
L 55.078125 72.90625 
L 55.078125 68.703125 
L 28.609375 0 
L 18.3125 0 
L 43.21875 64.59375 
L 8.203125 64.59375 
z
" id="DejaVuSans-55"/>
      <path d="M 31.78125 34.625 
Q 24.75 34.625 20.71875 30.859375 
Q 16.703125 27.09375 16.703125 20.515625 
Q 16.703125 13.921875 20.71875 10.15625 
Q 24.75 6.390625 31.78125 6.390625 
Q 38.8125 6.390625 42.859375 10.171875 
Q 46.921875 13.96875 46.921875 20.515625 
Q 46.921875 27.09375 42.890625 30.859375 
Q 38.875 34.625 31.78125 34.625 
z
M 21.921875 38.8125 
Q 15.578125 40.375 12.03125 44.71875 
Q 8.5 49.078125 8.5 55.328125 
Q 8.5 64.0625 14.71875 69.140625 
Q 20.953125 74.21875 31.78125 74.21875 
Q 42.671875 74.21875 48.875 69.140625 
Q 55.078125 64.0625 55.078125 55.328125 
Q 55.078125 49.078125 51.53125 44.71875 
Q 48 40.375 41.703125 38.8125 
Q 48.828125 37.15625 52.796875 32.3125 
Q 56.78125 27.484375 56.78125 20.515625 
Q 56.78125 9.90625 50.3125 4.234375 
Q 43.84375 -1.421875 31.78125 -1.421875 
Q 19.734375 -1.421875 13.25 4.234375 
Q 6.78125 9.90625 6.78125 20.515625 
Q 6.78125 27.484375 10.78125 32.3125 
Q 14.796875 37.15625 21.921875 38.8125 
z
M 18.3125 54.390625 
Q 18.3125 48.734375 21.84375 45.5625 
Q 25.390625 42.390625 31.78125 42.390625 
Q 38.140625 42.390625 41.71875 45.5625 
Q 45.3125 48.734375 45.3125 54.390625 
Q 45.3125 60.0625 41.71875 63.234375 
Q 38.140625 66.40625 31.78125 66.40625 
Q 25.390625 66.40625 21.84375 63.234375 
Q 18.3125 60.0625 18.3125 54.390625 
z
" id="DejaVuSans-56"/>
      <path d="M 8.015625 75.875 
L 15.828125 75.875 
Q 23.140625 64.359375 26.78125 53.3125 
Q 30.421875 42.28125 30.421875 31.390625 
Q 30.421875 20.453125 26.78125 9.375 
Q 23.140625 -1.703125 15.828125 -13.1875 
L 8.015625 -13.1875 
Q 14.5 -2 17.703125 9.0625 
Q 20.90625 20.125 20.90625 31.390625 
Q 20.90625 42.671875 17.703125 53.65625 
Q 14.5 64.65625 8.015625 75.875 
z
" id="DejaVuSans-41"/>
     </defs>
     <g transform="translate(74.7 262.212)scale(0.1 -0.1)">
      <use transform="translate(0 0.015625)" xlink:href="#DejaVuSans-101"/>
      <use transform="translate(61.523438 0.015625)" xlink:href="#DejaVuSans-120"/>
      <use transform="translate(120.703125 0.015625)" xlink:href="#DejaVuSans-112"/>
      <use transform="translate(184.179688 0.015625)" xlink:href="#DejaVuSans-40"/>
      <use transform="translate(223.193359 0.015625)" xlink:href="#DejaVuSans-48"/>
      <use transform="translate(286.816406 0.015625)" xlink:href="#DejaVuSans-46"/>
      <use transform="translate(313.103516 0.015625)" xlink:href="#DejaVuSans-50"/>
      <use transform="translate(376.726562 0.015625)" xlink:href="#DejaVuSans-55"/>
      <use transform="translate(440.349609 0.015625)" xlink:href="#DejaVuSans-56"/>
      <use transform="translate(503.972656 0.015625)" xlink:href="#DejaVuSans-Oblique-107"/>
      <use transform="translate(561.882812 0.015625)" xlink:href="#DejaVuSans-41"/>
     </g>
    </g>
   </g>
  </g>
 </g>
 <defs>
  <clipPath id="p7b1f37993e">
   <rect height="266.112" width="357.12" x="37.7" y="7.2"/>
  </clipPath>
 </defs>
</svg>
