<?xml version="1.0" encoding="utf-8" standalone="no"?>
<!DOCTYPE svg PUBLIC "-//W3C//DTD SVG 1.1//EN"
  "http://www.w3.org/Graphics/SVG/1.1/DTD/svg11.dtd">
<!-- Created with matplotlib (https://matplotlib.org/) -->
<svg height="310.86825pt" version="1.1" viewBox="0 0 402.02 310.86825" width="402.02pt" xmlns="http://www.w3.org/2000/svg" xmlns:xlink="http://www.w3.org/1999/xlink">
 <defs>
  <style type="text/css">
*{stroke-linecap:butt;stroke-linejoin:round;}
  </style>
 </defs>
 <g id="figure_1">
  <g id="patch_1">
   <path d="M 0 310.86825 
L 402.02 310.86825 
L 402.02 0 
L 0 0 
z
" style="fill:#ffffff;"/>
  </g>
  <g id="axes_1">
   <g id="patch_2">
    <path d="M 37.7 273.312 
L 394.82 273.312 
L 394.82 7.2 
L 37.7 7.2 
z
" style="fill:#ffffff;"/>
   </g>
   <g id="matplotlib.axis_1">
    <g id="xtick_1">
     <g id="line2d_1">
      <defs>
       <path d="M 0 0 
L 0 3.5 
" id="mf5eaff327a" style="stroke:#000000;stroke-width:0.8;"/>
      </defs>
      <g>
       <use style="stroke:#000000;stroke-width:0.8;" x="53.932727" xlink:href="#mf5eaff327a" y="273.312"/>
      </g>
     </g>
     <g id="text_1">
      <!-- 0 -->
      <defs>
       <path d="M 31.78125 66.40625 
Q 24.171875 66.40625 20.328125 58.90625 
Q 16.5 51.421875 16.5 36.375 
Q 16.5 21.390625 20.328125 13.890625 
Q 24.171875 6.390625 31.78125 6.390625 
Q 39.453125 6.390625 43.28125 13.890625 
Q 47.125 21.390625 47.125 36.375 
Q 47.125 51.421875 43.28125 58.90625 
Q 39.453125 66.40625 31.78125 66.40625 
z
M 31.78125 74.21875 
Q 44.046875 74.21875 50.515625 64.515625 
Q 56.984375 54.828125 56.984375 36.375 
Q 56.984375 17.96875 50.515625 8.265625 
Q 44.046875 -1.421875 31.78125 -1.421875 
Q 19.53125 -1.421875 13.0625 8.265625 
Q 6.59375 17.96875 6.59375 36.375 
Q 6.59375 54.828125 13.0625 64.515625 
Q 19.53125 74.21875 31.78125 74.21875 
z
" id="DejaVuSans-48"/>
      </defs>
      <g transform="translate(50.751477 287.910437)scale(0.1 -0.1)">
       <use xlink:href="#DejaVuSans-48"/>
      </g>
     </g>
    </g>
    <g id="xtick_2">
     <g id="line2d_2">
      <g>
       <use style="stroke:#000000;stroke-width:0.8;" x="127.885927" xlink:href="#mf5eaff327a" y="273.312"/>
      </g>
     </g>
     <g id="text_2">
      <!-- 100 -->
      <defs>
       <path d="M 12.40625 8.296875 
L 28.515625 8.296875 
L 28.515625 63.921875 
L 10.984375 60.40625 
L 10.984375 69.390625 
L 28.421875 72.90625 
L 38.28125 72.90625 
L 38.28125 8.296875 
L 54.390625 8.296875 
L 54.390625 0 
L 12.40625 0 
z
" id="DejaVuSans-49"/>
      </defs>
      <g transform="translate(118.342177 287.910437)scale(0.1 -0.1)">
       <use xlink:href="#DejaVuSans-49"/>
       <use x="63.623047" xlink:href="#DejaVuSans-48"/>
       <use x="127.246094" xlink:href="#DejaVuSans-48"/>
      </g>
     </g>
    </g>
    <g id="xtick_3">
     <g id="line2d_3">
      <g>
       <use style="stroke:#000000;stroke-width:0.8;" x="201.839126" xlink:href="#mf5eaff327a" y="273.312"/>
      </g>
     </g>
     <g id="text_3">
      <!-- 200 -->
      <defs>
       <path d="M 19.1875 8.296875 
L 53.609375 8.296875 
L 53.609375 0 
L 7.328125 0 
L 7.328125 8.296875 
Q 12.9375 14.109375 22.625 23.890625 
Q 32.328125 33.6875 34.8125 36.53125 
Q 39.546875 41.84375 41.421875 45.53125 
Q 43.3125 49.21875 43.3125 52.78125 
Q 43.3125 58.59375 39.234375 62.25 
Q 35.15625 65.921875 28.609375 65.921875 
Q 23.96875 65.921875 18.8125 64.3125 
Q 13.671875 62.703125 7.8125 59.421875 
L 7.8125 69.390625 
Q 13.765625 71.78125 18.9375 73 
Q 24.125 74.21875 28.421875 74.21875 
Q 39.75 74.21875 46.484375 68.546875 
Q 53.21875 62.890625 53.21875 53.421875 
Q 53.21875 48.921875 51.53125 44.890625 
Q 49.859375 40.875 45.40625 35.40625 
Q 44.1875 33.984375 37.640625 27.21875 
Q 31.109375 20.453125 19.1875 8.296875 
z
" id="DejaVuSans-50"/>
      </defs>
      <g transform="translate(192.295376 287.910437)scale(0.1 -0.1)">
       <use xlink:href="#DejaVuSans-50"/>
       <use x="63.623047" xlink:href="#DejaVuSans-48"/>
       <use x="127.246094" xlink:href="#DejaVuSans-48"/>
      </g>
     </g>
    </g>
    <g id="xtick_4">
     <g id="line2d_4">
      <g>
       <use style="stroke:#000000;stroke-width:0.8;" x="275.792326" xlink:href="#mf5eaff327a" y="273.312"/>
      </g>
     </g>
     <g id="text_4">
      <!-- 300 -->
      <defs>
       <path d="M 40.578125 39.3125 
Q 47.65625 37.796875 51.625 33 
Q 55.609375 28.21875 55.609375 21.1875 
Q 55.609375 10.40625 48.1875 4.484375 
Q 40.765625 -1.421875 27.09375 -1.421875 
Q 22.515625 -1.421875 17.65625 -0.515625 
Q 12.796875 0.390625 7.625 2.203125 
L 7.625 11.71875 
Q 11.71875 9.328125 16.59375 8.109375 
Q 21.484375 6.890625 26.8125 6.890625 
Q 36.078125 6.890625 40.9375 10.546875 
Q 45.796875 14.203125 45.796875 21.1875 
Q 45.796875 27.640625 41.28125 31.265625 
Q 36.765625 34.90625 28.71875 34.90625 
L 20.21875 34.90625 
L 20.21875 43.015625 
L 29.109375 43.015625 
Q 36.375 43.015625 40.234375 45.921875 
Q 44.09375 48.828125 44.09375 54.296875 
Q 44.09375 59.90625 40.109375 62.90625 
Q 36.140625 65.921875 28.71875 65.921875 
Q 24.65625 65.921875 20.015625 65.03125 
Q 15.375 64.15625 9.8125 62.3125 
L 9.8125 71.09375 
Q 15.4375 72.65625 20.34375 73.4375 
Q 25.25 74.21875 29.59375 74.21875 
Q 40.828125 74.21875 47.359375 69.109375 
Q 53.90625 64.015625 53.90625 55.328125 
Q 53.90625 49.265625 50.4375 45.09375 
Q 46.96875 40.921875 40.578125 39.3125 
z
" id="DejaVuSans-51"/>
      </defs>
      <g transform="translate(266.248576 287.910437)scale(0.1 -0.1)">
       <use xlink:href="#DejaVuSans-51"/>
       <use x="63.623047" xlink:href="#DejaVuSans-48"/>
       <use x="127.246094" xlink:href="#DejaVuSans-48"/>
      </g>
     </g>
    </g>
    <g id="xtick_5">
     <g id="line2d_5">
      <g>
       <use style="stroke:#000000;stroke-width:0.8;" x="349.745525" xlink:href="#mf5eaff327a" y="273.312"/>
      </g>
     </g>
     <g id="text_5">
      <!-- 400 -->
      <defs>
       <path d="M 37.796875 64.3125 
L 12.890625 25.390625 
L 37.796875 25.390625 
z
M 35.203125 72.90625 
L 47.609375 72.90625 
L 47.609375 25.390625 
L 58.015625 25.390625 
L 58.015625 17.1875 
L 47.609375 17.1875 
L 47.609375 0 
L 37.796875 0 
L 37.796875 17.1875 
L 4.890625 17.1875 
L 4.890625 26.703125 
z
" id="DejaVuSans-52"/>
      </defs>
      <g transform="translate(340.201775 287.910437)scale(0.1 -0.1)">
       <use xlink:href="#DejaVuSans-52"/>
       <use x="63.623047" xlink:href="#DejaVuSans-48"/>
       <use x="127.246094" xlink:href="#DejaVuSans-48"/>
      </g>
     </g>
    </g>
    <g id="text_6">
     <!-- $ k $ -->
     <defs>
      <path d="M 18.3125 75.984375 
L 27.296875 75.984375 
L 18.703125 31.6875 
L 49.515625 54.6875 
L 61.1875 54.6875 
L 26.8125 28.515625 
L 51.90625 0 
L 41.015625 0 
L 17.671875 26.703125 
L 12.5 0 
L 3.515625 0 
z
" id="DejaVuSans-Oblique-107"/>
     </defs>
     <g transform="translate(213.36 301.588562)scale(0.1 -0.1)">
      <use transform="translate(0 0.015625)" xlink:href="#DejaVuSans-Oblique-107"/>
     </g>
    </g>
   </g>
   <g id="matplotlib.axis_2">
    <g id="ytick_1">
     <g id="line2d_6">
      <defs>
       <path d="M 0 0 
L -3.5 0 
" id="m06c7e8a7d2" style="stroke:#000000;stroke-width:0.8;"/>
      </defs>
      <g>
       <use style="stroke:#000000;stroke-width:0.8;" x="37.7" xlink:href="#m06c7e8a7d2" y="244.918003"/>
      </g>
     </g>
     <g id="text_7">
      <!-- $\mathdefault{10^{-1}}$ -->
      <defs>
       <path d="M 10.59375 35.5 
L 73.1875 35.5 
L 73.1875 27.203125 
L 10.59375 27.203125 
z
" id="DejaVuSans-8722"/>
      </defs>
      <g transform="translate(7.2 248.717222)scale(0.1 -0.1)">
       <use transform="translate(0 0.684375)" xlink:href="#DejaVuSans-49"/>
       <use transform="translate(63.623047 0.684375)" xlink:href="#DejaVuSans-48"/>
       <use transform="translate(128.203125 38.965625)scale(0.7)" xlink:href="#DejaVuSans-8722"/>
       <use transform="translate(186.855469 38.965625)scale(0.7)" xlink:href="#DejaVuSans-49"/>
      </g>
     </g>
    </g>
    <g id="ytick_2">
     <g id="line2d_7">
      <g>
       <use style="stroke:#000000;stroke-width:0.8;" x="37.7" xlink:href="#m06c7e8a7d2" y="178.326797"/>
      </g>
     </g>
     <g id="text_8">
      <!-- $\mathdefault{10^{0}}$ -->
      <g transform="translate(13.1 182.126016)scale(0.1 -0.1)">
       <use transform="translate(0 0.765625)" xlink:href="#DejaVuSans-49"/>
       <use transform="translate(63.623047 0.765625)" xlink:href="#DejaVuSans-48"/>
       <use transform="translate(128.203125 39.046875)scale(0.7)" xlink:href="#DejaVuSans-48"/>
      </g>
     </g>
    </g>
    <g id="ytick_3">
     <g id="line2d_8">
      <g>
       <use style="stroke:#000000;stroke-width:0.8;" x="37.7" xlink:href="#m06c7e8a7d2" y="111.73559"/>
      </g>
     </g>
     <g id="text_9">
      <!-- $\mathdefault{10^{1}}$ -->
      <g transform="translate(13.1 115.534809)scale(0.1 -0.1)">
       <use transform="translate(0 0.684375)" xlink:href="#DejaVuSans-49"/>
       <use transform="translate(63.623047 0.684375)" xlink:href="#DejaVuSans-48"/>
       <use transform="translate(128.203125 38.965625)scale(0.7)" xlink:href="#DejaVuSans-49"/>
      </g>
     </g>
    </g>
    <g id="ytick_4">
     <g id="line2d_9">
      <g>
       <use style="stroke:#000000;stroke-width:0.8;" x="37.7" xlink:href="#m06c7e8a7d2" y="45.144384"/>
      </g>
     </g>
     <g id="text_10">
      <!-- $\mathdefault{10^{2}}$ -->
      <g transform="translate(13.1 48.943603)scale(0.1 -0.1)">
       <use transform="translate(0 0.765625)" xlink:href="#DejaVuSans-49"/>
       <use transform="translate(63.623047 0.765625)" xlink:href="#DejaVuSans-48"/>
       <use transform="translate(128.203125 39.046875)scale(0.7)" xlink:href="#DejaVuSans-50"/>
      </g>
     </g>
    </g>
    <g id="ytick_5">
     <g id="line2d_10">
      <defs>
       <path d="M 0 0 
L -2 0 
" id="m34d0fcad1f" style="stroke:#000000;stroke-width:0.6;"/>
      </defs>
      <g>
       <use style="stroke:#000000;stroke-width:0.6;" x="37.7" xlink:href="#m34d0fcad1f" y="271.417309"/>
      </g>
     </g>
    </g>
    <g id="ytick_6">
     <g id="line2d_11">
      <g>
       <use style="stroke:#000000;stroke-width:0.6;" x="37.7" xlink:href="#m34d0fcad1f" y="264.963954"/>
      </g>
     </g>
    </g>
    <g id="ytick_7">
     <g id="line2d_12">
      <g>
       <use style="stroke:#000000;stroke-width:0.6;" x="37.7" xlink:href="#m34d0fcad1f" y="259.691179"/>
      </g>
     </g>
    </g>
    <g id="ytick_8">
     <g id="line2d_13">
      <g>
       <use style="stroke:#000000;stroke-width:0.6;" x="37.7" xlink:href="#m34d0fcad1f" y="255.233112"/>
      </g>
     </g>
    </g>
    <g id="ytick_9">
     <g id="line2d_14">
      <g>
       <use style="stroke:#000000;stroke-width:0.6;" x="37.7" xlink:href="#m34d0fcad1f" y="251.371358"/>
      </g>
     </g>
    </g>
    <g id="ytick_10">
     <g id="line2d_15">
      <g>
       <use style="stroke:#000000;stroke-width:0.6;" x="37.7" xlink:href="#m34d0fcad1f" y="247.96505"/>
      </g>
     </g>
    </g>
    <g id="ytick_11">
     <g id="line2d_16">
      <g>
       <use style="stroke:#000000;stroke-width:0.6;" x="37.7" xlink:href="#m34d0fcad1f" y="224.872053"/>
      </g>
     </g>
    </g>
    <g id="ytick_12">
     <g id="line2d_17">
      <g>
       <use style="stroke:#000000;stroke-width:0.6;" x="37.7" xlink:href="#m34d0fcad1f" y="213.145923"/>
      </g>
     </g>
    </g>
    <g id="ytick_13">
     <g id="line2d_18">
      <g>
       <use style="stroke:#000000;stroke-width:0.6;" x="37.7" xlink:href="#m34d0fcad1f" y="204.826102"/>
      </g>
     </g>
    </g>
    <g id="ytick_14">
     <g id="line2d_19">
      <g>
       <use style="stroke:#000000;stroke-width:0.6;" x="37.7" xlink:href="#m34d0fcad1f" y="198.372747"/>
      </g>
     </g>
    </g>
    <g id="ytick_15">
     <g id="line2d_20">
      <g>
       <use style="stroke:#000000;stroke-width:0.6;" x="37.7" xlink:href="#m34d0fcad1f" y="193.099973"/>
      </g>
     </g>
    </g>
    <g id="ytick_16">
     <g id="line2d_21">
      <g>
       <use style="stroke:#000000;stroke-width:0.6;" x="37.7" xlink:href="#m34d0fcad1f" y="188.641905"/>
      </g>
     </g>
    </g>
    <g id="ytick_17">
     <g id="line2d_22">
      <g>
       <use style="stroke:#000000;stroke-width:0.6;" x="37.7" xlink:href="#m34d0fcad1f" y="184.780152"/>
      </g>
     </g>
    </g>
    <g id="ytick_18">
     <g id="line2d_23">
      <g>
       <use style="stroke:#000000;stroke-width:0.6;" x="37.7" xlink:href="#m34d0fcad1f" y="181.373843"/>
      </g>
     </g>
    </g>
    <g id="ytick_19">
     <g id="line2d_24">
      <g>
       <use style="stroke:#000000;stroke-width:0.6;" x="37.7" xlink:href="#m34d0fcad1f" y="158.280846"/>
      </g>
     </g>
    </g>
    <g id="ytick_20">
     <g id="line2d_25">
      <g>
       <use style="stroke:#000000;stroke-width:0.6;" x="37.7" xlink:href="#m34d0fcad1f" y="146.554717"/>
      </g>
     </g>
    </g>
    <g id="ytick_21">
     <g id="line2d_26">
      <g>
       <use style="stroke:#000000;stroke-width:0.6;" x="37.7" xlink:href="#m34d0fcad1f" y="138.234896"/>
      </g>
     </g>
    </g>
    <g id="ytick_22">
     <g id="line2d_27">
      <g>
       <use style="stroke:#000000;stroke-width:0.6;" x="37.7" xlink:href="#m34d0fcad1f" y="131.781541"/>
      </g>
     </g>
    </g>
    <g id="ytick_23">
     <g id="line2d_28">
      <g>
       <use style="stroke:#000000;stroke-width:0.6;" x="37.7" xlink:href="#m34d0fcad1f" y="126.508766"/>
      </g>
     </g>
    </g>
    <g id="ytick_24">
     <g id="line2d_29">
      <g>
       <use style="stroke:#000000;stroke-width:0.6;" x="37.7" xlink:href="#m34d0fcad1f" y="122.050699"/>
      </g>
     </g>
    </g>
    <g id="ytick_25">
     <g id="line2d_30">
      <g>
       <use style="stroke:#000000;stroke-width:0.6;" x="37.7" xlink:href="#m34d0fcad1f" y="118.188945"/>
      </g>
     </g>
    </g>
    <g id="ytick_26">
     <g id="line2d_31">
      <g>
       <use style="stroke:#000000;stroke-width:0.6;" x="37.7" xlink:href="#m34d0fcad1f" y="114.782637"/>
      </g>
     </g>
    </g>
    <g id="ytick_27">
     <g id="line2d_32">
      <g>
       <use style="stroke:#000000;stroke-width:0.6;" x="37.7" xlink:href="#m34d0fcad1f" y="91.68964"/>
      </g>
     </g>
    </g>
    <g id="ytick_28">
     <g id="line2d_33">
      <g>
       <use style="stroke:#000000;stroke-width:0.6;" x="37.7" xlink:href="#m34d0fcad1f" y="79.96351"/>
      </g>
     </g>
    </g>
    <g id="ytick_29">
     <g id="line2d_34">
      <g>
       <use style="stroke:#000000;stroke-width:0.6;" x="37.7" xlink:href="#m34d0fcad1f" y="71.643689"/>
      </g>
     </g>
    </g>
    <g id="ytick_30">
     <g id="line2d_35">
      <g>
       <use style="stroke:#000000;stroke-width:0.6;" x="37.7" xlink:href="#m34d0fcad1f" y="65.190335"/>
      </g>
     </g>
    </g>
    <g id="ytick_31">
     <g id="line2d_36">
      <g>
       <use style="stroke:#000000;stroke-width:0.6;" x="37.7" xlink:href="#m34d0fcad1f" y="59.91756"/>
      </g>
     </g>
    </g>
    <g id="ytick_32">
     <g id="line2d_37">
      <g>
       <use style="stroke:#000000;stroke-width:0.6;" x="37.7" xlink:href="#m34d0fcad1f" y="55.459492"/>
      </g>
     </g>
    </g>
    <g id="ytick_33">
     <g id="line2d_38">
      <g>
       <use style="stroke:#000000;stroke-width:0.6;" x="37.7" xlink:href="#m34d0fcad1f" y="51.597739"/>
      </g>
     </g>
    </g>
    <g id="ytick_34">
     <g id="line2d_39">
      <g>
       <use style="stroke:#000000;stroke-width:0.6;" x="37.7" xlink:href="#m34d0fcad1f" y="48.19143"/>
      </g>
     </g>
    </g>
    <g id="ytick_35">
     <g id="line2d_40">
      <g>
       <use style="stroke:#000000;stroke-width:0.6;" x="37.7" xlink:href="#m34d0fcad1f" y="25.098433"/>
      </g>
     </g>
    </g>
    <g id="ytick_36">
     <g id="line2d_41">
      <g>
       <use style="stroke:#000000;stroke-width:0.6;" x="37.7" xlink:href="#m34d0fcad1f" y="13.372304"/>
      </g>
     </g>
    </g>
   </g>
   <g id="line2d_42">
    <path clip-path="url(#p1be88e6714)" d="M 53.932727 72.473034 
L 54.672259 91.608036 
L 55.411791 45.623657 
L 56.151323 42.979505 
L 56.890855 125.731625 
L 57.630387 27.73304 
L 58.369919 29.458699 
L 59.109451 132.564126 
L 59.848983 28.07583 
L 60.588515 27.935007 
L 61.328047 138.166866 
L 62.067579 28.473309 
L 62.807111 203.85137 
L 63.546643 29.325989 
L 64.286175 25.274843 
L 65.025707 114.104047 
L 65.765239 27.02412 
L 66.504771 31.878183 
L 67.983835 138.843778 
L 68.723367 27.861205 
L 69.462899 166.659352 
L 70.202431 28.931978 
L 70.941963 25.797369 
L 71.681495 119.379162 
L 72.421027 27.205103 
L 73.160559 31.566943 
L 73.900091 165.495035 
L 74.639623 29.022632 
L 75.379155 25.730011 
L 76.118687 116.840707 
L 76.858219 27.066756 
L 77.597751 32.24201 
L 78.337283 159.979157 
L 79.076815 30.855771 
L 79.816347 147.1603 
L 80.555879 30.586931 
L 81.295411 23.686862 
L 82.034943 94.554241 
L 82.774475 46.849442 
L 83.514007 179.63373 
L 84.253539 29.292396 
L 84.993071 25.53695 
L 85.732603 54.240383 
L 86.472135 22.751631 
L 87.211667 95.874465 
L 87.951199 24.867065 
L 88.690731 133.103055 
L 89.430263 28.002305 
L 90.169795 28.424772 
L 90.909327 130.1158 
L 91.648859 27.891712 
L 92.388391 28.805761 
L 93.127923 132.197032 
L 93.867455 27.9989 
L 94.606987 28.460211 
L 95.346519 129.453214 
L 96.086051 27.861549 
L 96.825583 28.882222 
L 97.565115 134.308035 
L 98.304647 28.100432 
L 99.044179 28.23907 
L 99.783711 125.272748 
L 100.523243 27.716327 
L 101.262775 29.060525 
L 102.002307 181.884731 
L 102.741839 30.231288 
L 103.481371 122.615693 
L 104.220903 35.558803 
L 104.960435 115.439314 
L 105.699967 26.979973 
L 106.439499 32.842529 
L 107.179031 92.072014 
L 107.918563 142.265562 
L 108.658095 28.025771 
L 109.397627 28.243664 
L 110.137159 149.868158 
L 110.876691 29.11871 
L 111.616223 174.57292 
L 112.355755 30.008581 
L 113.095287 25.176086 
L 113.834819 78.958252 
L 114.574351 64.464335 
L 115.313883 71.611497 
L 116.053415 91.760897 
L 116.792947 103.249423 
L 117.532479 36.675061 
L 118.272011 102.810333 
L 119.011543 35.914188 
L 119.751075 110.567915 
L 120.490607 33.827633 
L 121.230139 113.655301 
L 121.969671 34.604926 
L 122.709203 110.314029 
L 123.448735 34.995418 
L 124.188267 112.072954 
L 124.927799 33.736488 
L 125.667331 118.61495 
L 126.406863 32.786616 
L 127.146395 130.956799 
L 127.885927 31.253991 
L 128.625459 19.821088 
L 129.364991 79.203369 
L 130.104523 92.823239 
L 130.844055 103.553444 
L 131.583587 36.589136 
L 132.323119 103.128792 
L 133.062651 35.836901 
L 133.802183 110.936198 
L 134.541715 33.756115 
L 135.281247 113.60733 
L 136.020779 34.692173 
L 136.760311 109.07664 
L 137.499843 35.542934 
L 138.239375 107.909481 
L 138.978907 34.829946 
L 139.718439 116.0933 
L 140.457971 32.797025 
L 141.197503 112.428107 
L 141.937035 36.14108 
L 142.676567 70.311457 
L 143.416099 91.665391 
L 144.155631 24.868193 
L 144.895163 53.988085 
L 145.634695 120.315348 
L 146.374227 35.124363 
L 147.113759 101.809373 
L 147.853291 41.420298 
L 148.592823 131.365293 
L 149.332355 28.000992 
L 150.071887 28.606087 
L 150.811419 126.531057 
L 151.550951 27.778132 
L 152.290483 28.792424 
L 153.030014 189.697242 
L 153.769546 30.537462 
L 155.24861 139.732476 
L 155.988142 27.878851 
L 156.727674 29.217717 
L 157.467206 26.258713 
L 158.206738 80.84771 
L 158.94627 68.997487 
L 159.685802 91.060729 
L 160.425334 40.938152 
L 161.164866 86.89327 
L 161.904398 42.665443 
L 162.64393 79.80335 
L 163.383462 49.900759 
L 164.122994 31.974312 
L 164.862526 116.759139 
L 165.602058 28.027268 
L 166.34159 90.753452 
L 167.081122 140.239016 
L 167.820654 27.912432 
L 168.560186 28.933524 
L 169.299718 130.558636 
L 170.03925 28.007016 
L 170.778782 28.052553 
L 171.518314 145.689231 
L 172.257846 28.976538 
L 172.997378 179.44818 
L 173.73691 29.945906 
L 174.476442 25.262071 
L 175.215974 77.609026 
L 175.955506 66.547402 
L 176.695038 91.403226 
L 177.43457 45.382698 
L 178.174102 38.67574 
L 178.913634 106.560176 
L 179.653166 34.84028 
L 180.392698 100.849985 
L 181.13223 45.53044 
L 181.871762 131.184794 
L 182.611294 35.686007 
L 183.350826 116.945273 
L 184.090358 27.161659 
L 184.82989 34.769554 
L 185.569422 101.738671 
L 186.308954 25.69002 
L 187.048486 44.947563 
L 187.788018 137.578708 
L 188.52755 28.408143 
L 189.267082 27.827021 
L 190.006614 30.722556 
L 190.746146 141.201864 
L 191.485678 28.793587 
L 192.22521 197.62309 
L 192.964742 29.787633 
L 193.704274 25.624676 
L 194.443806 68.973247 
L 195.183338 80.565189 
L 195.92287 74.199782 
L 196.662402 56.214441 
L 197.401934 21.512108 
L 198.141466 93.15701 
L 198.880998 24.593865 
L 199.62053 57.825228 
L 200.360062 107.088479 
L 201.099594 36.509909 
L 201.839126 102.644321 
L 202.578658 36.811094 
L 203.31819 104.064805 
L 204.057722 35.384975 
L 204.797254 111.465184 
L 205.536786 33.862381 
L 206.276318 123.061221 
L 207.01585 31.919708 
L 208.494914 141.88561 
L 209.234446 113.30712 
L 209.973978 34.002701 
L 210.71351 118.110937 
L 211.453042 32.631149 
L 212.192574 118.865471 
L 212.932106 33.306989 
L 213.671638 122.736509 
L 214.41117 32.213711 
L 215.150702 121.064485 
L 215.890234 32.871566 
L 216.629766 127.798683 
L 217.369298 31.607069 
L 218.10883 113.180348 
L 218.848362 36.283388 
L 219.587894 69.4636 
L 220.327426 91.154895 
L 221.066958 24.914079 
L 221.80649 51.959146 
L 222.546022 129.943705 
L 223.285554 33.751785 
L 224.025086 110.31648 
L 224.764618 36.698856 
L 225.50415 89.950836 
L 226.243682 56.893929 
L 226.983214 94.561725 
L 227.722746 52.836492 
L 228.462278 107.129407 
L 229.20181 41.550002 
L 229.941342 143.24237 
L 230.680874 28.816869 
L 231.420406 261.216 
L 232.159938 29.443254 
L 232.89947 25.045592 
L 233.639002 113.504415 
L 234.378534 26.972991 
L 235.118066 32.171374 
L 236.59713 139.147313 
L 237.336662 27.927567 
L 238.076194 174.384579 
L 238.815726 29.028706 
L 239.555258 25.761116 
L 240.29479 116.694052 
L 241.034322 27.105296 
L 241.773854 31.88229 
L 242.513386 131.173481 
L 243.252918 35.029073 
L 243.99245 115.45266 
L 244.731982 27.029517 
L 245.471514 155.516205 
L 246.211046 28.726405 
L 246.950578 26.476778 
L 247.69011 118.949098 
L 248.429642 27.272282 
L 249.169174 31.041167 
L 249.908706 154.248319 
L 250.648238 32.131388 
L 251.38777 78.637452 
L 252.127302 137.66595 
L 252.866834 36.042257 
L 253.606366 140.807961 
L 254.345898 29.760214 
L 255.824962 133.521778 
L 256.564494 27.629701 
L 257.304026 160.463942 
L 258.043558 28.832286 
L 258.78309 25.951025 
L 259.522622 121.457376 
L 260.262154 27.3489 
L 261.001686 31.016091 
L 261.741218 19.980697 
L 262.48075 173.51627 
L 263.220282 30.042677 
L 263.959814 182.223742 
L 264.699346 29.693719 
L 265.438878 24.488061 
L 266.17841 112.50378 
L 266.917942 26.82021 
L 267.657474 33.366436 
L 269.136538 141.316135 
L 269.87607 27.992584 
L 270.615602 174.707401 
L 271.355134 29.035754 
L 272.094666 25.698739 
L 272.834198 117.046211 
L 273.57373 27.095664 
L 274.313262 32.041307 
L 275.052794 152.653469 
L 275.792326 31.493389 
L 276.531858 130.007873 
L 277.27139 32.184133 
L 278.010922 131.573276 
L 278.750454 31.388189 
L 279.489986 19.64888 
L 280.229517 116.580926 
L 280.969049 34.332894 
L 281.708581 112.423614 
L 282.448113 34.376963 
L 283.187645 116.755519 
L 283.927177 32.847992 
L 284.666709 119.063048 
L 285.406241 33.160034 
L 286.145773 124.71887 
L 286.885305 31.937974 
L 287.624837 118.885595 
L 288.364369 33.584488 
L 289.103901 119.172732 
L 289.843433 32.831895 
L 290.582965 130.195612 
L 291.322497 31.30724 
L 292.062029 19.722655 
L 293.541093 144.424598 
L 294.280625 34.132106 
L 295.020157 126.897054 
L 295.759689 28.524929 
L 296.499221 137.042596 
L 297.238753 33.41763 
L 297.978285 108.866179 
L 298.717817 26.372317 
L 299.457349 36.524772 
L 300.196881 119.494303 
L 300.936413 32.761201 
L 301.675945 120.777655 
L 302.415477 32.963034 
L 303.155009 126.395519 
L 303.894541 31.783721 
L 304.634073 118.230688 
L 305.373605 33.833429 
L 306.113137 116.473619 
L 306.852669 33.395048 
L 307.592201 124.812914 
L 308.331733 31.797294 
L 309.071265 103.58042 
L 309.810797 44.483114 
L 310.550329 139.291022 
L 311.289861 34.517436 
L 312.029393 112.54666 
L 312.768925 26.734613 
L 313.508457 34.020051 
L 314.247989 145.589673 
L 314.987521 30.565783 
L 315.727053 166.616556 
L 316.466585 29.909655 
L 317.206117 24.000032 
L 317.945649 111.339741 
L 318.685181 26.691488 
L 319.424713 34.329253 
L 320.903777 137.280734 
L 321.643309 27.795683 
L 322.382841 164.111018 
L 323.122373 28.90238 
L 323.861905 25.806917 
L 324.601437 120.4037 
L 325.340969 27.272565 
L 326.080501 31.283237 
L 326.820033 150.808572 
L 327.559565 28.748684 
L 328.299097 26.011501 
L 329.038629 124.614574 
L 329.778161 27.6284 
L 330.517693 164.676291 
L 331.257225 28.930925 
L 331.996757 25.932832 
L 332.736289 117.810392 
L 333.475821 27.149241 
L 334.215353 31.77439 
L 334.954885 165.701602 
L 335.694417 30.849519 
L 336.433949 143.284579 
L 337.173481 30.874161 
L 337.913013 24.246275 
L 338.652545 88.660198 
L 339.392077 47.807434 
L 340.131609 37.133517 
L 340.871141 127.594021 
L 341.610673 28.901201 
L 342.350205 110.309466 
L 343.089737 44.250501 
L 343.829269 123.097168 
L 344.568801 39.376572 
L 345.308333 151.360836 
L 346.047865 29.936241 
L 346.787397 129.749686 
L 347.526929 33.731904 
L 348.266461 75.57048 
L 349.005993 92.326487 
L 349.745525 25.564814 
L 350.485057 37.78527 
L 351.224589 115.633776 
L 351.964121 27.155849 
L 352.703653 155.330863 
L 353.443185 28.760212 
L 354.182717 26.362444 
L 354.922249 118.875228 
L 355.661781 27.244162 
L 356.401313 31.251604 
L 357.140845 169.815227 
L 357.880377 30.996293 
L 358.619909 133.675116 
L 359.359441 31.913923 
L 360.098973 133.624573 
L 360.838505 31.261719 
L 361.578037 20.084094 
L 362.317569 115.861731 
L 363.057101 34.470822 
L 363.796633 112.004581 
L 364.536165 34.398176 
L 365.275697 116.968739 
L 366.015229 32.788425 
L 366.754761 118.390153 
L 367.494293 33.390424 
L 368.233825 121.923864 
L 368.973357 32.327401 
L 369.712889 121.332593 
L 370.452421 32.75717 
L 371.191953 129.405734 
L 371.931485 31.442844 
L 372.671017 19.296 
L 373.410549 102.245125 
L 374.150081 46.05682 
L 374.889613 122.927262 
L 375.629145 38.142674 
L 376.368677 131.485543 
L 377.108209 28.474181 
L 377.111349 311.86825 
L 377.111349 311.86825 
" style="fill:none;stroke:#1f77b4;stroke-linecap:square;stroke-width:1.5;"/>
    <defs>
     <path d="M 0 3 
C 0.795609 3 1.55874 2.683901 2.12132 2.12132 
C 2.683901 1.55874 3 0.795609 3 0 
C 3 -0.795609 2.683901 -1.55874 2.12132 -2.12132 
C 1.55874 -2.683901 0.795609 -3 0 -3 
C -0.795609 -3 -1.55874 -2.683901 -2.12132 -2.12132 
C -2.683901 -1.55874 -3 -0.795609 -3 0 
C -3 0.795609 -2.683901 1.55874 -2.12132 2.12132 
C -1.55874 2.683901 -0.795609 3 0 3 
z
" id="mca4fcc9f24" style="stroke:#1f77b4;"/>
    </defs>
    <g clip-path="url(#p1be88e6714)">
     <use style="fill:#1f77b4;stroke:#1f77b4;" x="53.932727" xlink:href="#mca4fcc9f24" y="72.473034"/>
     <use style="fill:#1f77b4;stroke:#1f77b4;" x="54.672259" xlink:href="#mca4fcc9f24" y="91.608036"/>
     <use style="fill:#1f77b4;stroke:#1f77b4;" x="55.411791" xlink:href="#mca4fcc9f24" y="45.623657"/>
     <use style="fill:#1f77b4;stroke:#1f77b4;" x="56.151323" xlink:href="#mca4fcc9f24" y="42.979505"/>
     <use style="fill:#1f77b4;stroke:#1f77b4;" x="56.890855" xlink:href="#mca4fcc9f24" y="125.731625"/>
     <use style="fill:#1f77b4;stroke:#1f77b4;" x="57.630387" xlink:href="#mca4fcc9f24" y="27.73304"/>
     <use style="fill:#1f77b4;stroke:#1f77b4;" x="58.369919" xlink:href="#mca4fcc9f24" y="29.458699"/>
     <use style="fill:#1f77b4;stroke:#1f77b4;" x="59.109451" xlink:href="#mca4fcc9f24" y="132.564126"/>
     <use style="fill:#1f77b4;stroke:#1f77b4;" x="59.848983" xlink:href="#mca4fcc9f24" y="28.07583"/>
     <use style="fill:#1f77b4;stroke:#1f77b4;" x="60.588515" xlink:href="#mca4fcc9f24" y="27.935007"/>
     <use style="fill:#1f77b4;stroke:#1f77b4;" x="61.328047" xlink:href="#mca4fcc9f24" y="138.166866"/>
     <use style="fill:#1f77b4;stroke:#1f77b4;" x="62.067579" xlink:href="#mca4fcc9f24" y="28.473309"/>
     <use style="fill:#1f77b4;stroke:#1f77b4;" x="62.807111" xlink:href="#mca4fcc9f24" y="203.85137"/>
     <use style="fill:#1f77b4;stroke:#1f77b4;" x="63.546643" xlink:href="#mca4fcc9f24" y="29.325989"/>
     <use style="fill:#1f77b4;stroke:#1f77b4;" x="64.286175" xlink:href="#mca4fcc9f24" y="25.274843"/>
     <use style="fill:#1f77b4;stroke:#1f77b4;" x="65.025707" xlink:href="#mca4fcc9f24" y="114.104047"/>
     <use style="fill:#1f77b4;stroke:#1f77b4;" x="65.765239" xlink:href="#mca4fcc9f24" y="27.02412"/>
     <use style="fill:#1f77b4;stroke:#1f77b4;" x="66.504771" xlink:href="#mca4fcc9f24" y="31.878183"/>
     <use style="fill:#1f77b4;stroke:#1f77b4;" x="67.244303" xlink:href="#mca4fcc9f24" y="86.74726"/>
     <use style="fill:#1f77b4;stroke:#1f77b4;" x="67.983835" xlink:href="#mca4fcc9f24" y="138.843778"/>
     <use style="fill:#1f77b4;stroke:#1f77b4;" x="68.723367" xlink:href="#mca4fcc9f24" y="27.861205"/>
     <use style="fill:#1f77b4;stroke:#1f77b4;" x="69.462899" xlink:href="#mca4fcc9f24" y="166.659352"/>
     <use style="fill:#1f77b4;stroke:#1f77b4;" x="70.202431" xlink:href="#mca4fcc9f24" y="28.931978"/>
     <use style="fill:#1f77b4;stroke:#1f77b4;" x="70.941963" xlink:href="#mca4fcc9f24" y="25.797369"/>
     <use style="fill:#1f77b4;stroke:#1f77b4;" x="71.681495" xlink:href="#mca4fcc9f24" y="119.379162"/>
     <use style="fill:#1f77b4;stroke:#1f77b4;" x="72.421027" xlink:href="#mca4fcc9f24" y="27.205103"/>
     <use style="fill:#1f77b4;stroke:#1f77b4;" x="73.160559" xlink:href="#mca4fcc9f24" y="31.566943"/>
     <use style="fill:#1f77b4;stroke:#1f77b4;" x="73.900091" xlink:href="#mca4fcc9f24" y="165.495035"/>
     <use style="fill:#1f77b4;stroke:#1f77b4;" x="74.639623" xlink:href="#mca4fcc9f24" y="29.022632"/>
     <use style="fill:#1f77b4;stroke:#1f77b4;" x="75.379155" xlink:href="#mca4fcc9f24" y="25.730011"/>
     <use style="fill:#1f77b4;stroke:#1f77b4;" x="76.118687" xlink:href="#mca4fcc9f24" y="116.840707"/>
     <use style="fill:#1f77b4;stroke:#1f77b4;" x="76.858219" xlink:href="#mca4fcc9f24" y="27.066756"/>
     <use style="fill:#1f77b4;stroke:#1f77b4;" x="77.597751" xlink:href="#mca4fcc9f24" y="32.24201"/>
     <use style="fill:#1f77b4;stroke:#1f77b4;" x="78.337283" xlink:href="#mca4fcc9f24" y="159.979157"/>
     <use style="fill:#1f77b4;stroke:#1f77b4;" x="79.076815" xlink:href="#mca4fcc9f24" y="30.855771"/>
     <use style="fill:#1f77b4;stroke:#1f77b4;" x="79.816347" xlink:href="#mca4fcc9f24" y="147.1603"/>
     <use style="fill:#1f77b4;stroke:#1f77b4;" x="80.555879" xlink:href="#mca4fcc9f24" y="30.586931"/>
     <use style="fill:#1f77b4;stroke:#1f77b4;" x="81.295411" xlink:href="#mca4fcc9f24" y="23.686862"/>
     <use style="fill:#1f77b4;stroke:#1f77b4;" x="82.034943" xlink:href="#mca4fcc9f24" y="94.554241"/>
     <use style="fill:#1f77b4;stroke:#1f77b4;" x="82.774475" xlink:href="#mca4fcc9f24" y="46.849442"/>
     <use style="fill:#1f77b4;stroke:#1f77b4;" x="83.514007" xlink:href="#mca4fcc9f24" y="179.63373"/>
     <use style="fill:#1f77b4;stroke:#1f77b4;" x="84.253539" xlink:href="#mca4fcc9f24" y="29.292396"/>
     <use style="fill:#1f77b4;stroke:#1f77b4;" x="84.993071" xlink:href="#mca4fcc9f24" y="25.53695"/>
     <use style="fill:#1f77b4;stroke:#1f77b4;" x="85.732603" xlink:href="#mca4fcc9f24" y="54.240383"/>
     <use style="fill:#1f77b4;stroke:#1f77b4;" x="86.472135" xlink:href="#mca4fcc9f24" y="22.751631"/>
     <use style="fill:#1f77b4;stroke:#1f77b4;" x="87.211667" xlink:href="#mca4fcc9f24" y="95.874465"/>
     <use style="fill:#1f77b4;stroke:#1f77b4;" x="87.951199" xlink:href="#mca4fcc9f24" y="24.867065"/>
     <use style="fill:#1f77b4;stroke:#1f77b4;" x="88.690731" xlink:href="#mca4fcc9f24" y="133.103055"/>
     <use style="fill:#1f77b4;stroke:#1f77b4;" x="89.430263" xlink:href="#mca4fcc9f24" y="28.002305"/>
     <use style="fill:#1f77b4;stroke:#1f77b4;" x="90.169795" xlink:href="#mca4fcc9f24" y="28.424772"/>
     <use style="fill:#1f77b4;stroke:#1f77b4;" x="90.909327" xlink:href="#mca4fcc9f24" y="130.1158"/>
     <use style="fill:#1f77b4;stroke:#1f77b4;" x="91.648859" xlink:href="#mca4fcc9f24" y="27.891712"/>
     <use style="fill:#1f77b4;stroke:#1f77b4;" x="92.388391" xlink:href="#mca4fcc9f24" y="28.805761"/>
     <use style="fill:#1f77b4;stroke:#1f77b4;" x="93.127923" xlink:href="#mca4fcc9f24" y="132.197032"/>
     <use style="fill:#1f77b4;stroke:#1f77b4;" x="93.867455" xlink:href="#mca4fcc9f24" y="27.9989"/>
     <use style="fill:#1f77b4;stroke:#1f77b4;" x="94.606987" xlink:href="#mca4fcc9f24" y="28.460211"/>
     <use style="fill:#1f77b4;stroke:#1f77b4;" x="95.346519" xlink:href="#mca4fcc9f24" y="129.453214"/>
     <use style="fill:#1f77b4;stroke:#1f77b4;" x="96.086051" xlink:href="#mca4fcc9f24" y="27.861549"/>
     <use style="fill:#1f77b4;stroke:#1f77b4;" x="96.825583" xlink:href="#mca4fcc9f24" y="28.882222"/>
     <use style="fill:#1f77b4;stroke:#1f77b4;" x="97.565115" xlink:href="#mca4fcc9f24" y="134.308035"/>
     <use style="fill:#1f77b4;stroke:#1f77b4;" x="98.304647" xlink:href="#mca4fcc9f24" y="28.100432"/>
     <use style="fill:#1f77b4;stroke:#1f77b4;" x="99.044179" xlink:href="#mca4fcc9f24" y="28.23907"/>
     <use style="fill:#1f77b4;stroke:#1f77b4;" x="99.783711" xlink:href="#mca4fcc9f24" y="125.272748"/>
     <use style="fill:#1f77b4;stroke:#1f77b4;" x="100.523243" xlink:href="#mca4fcc9f24" y="27.716327"/>
     <use style="fill:#1f77b4;stroke:#1f77b4;" x="101.262775" xlink:href="#mca4fcc9f24" y="29.060525"/>
     <use style="fill:#1f77b4;stroke:#1f77b4;" x="102.002307" xlink:href="#mca4fcc9f24" y="181.884731"/>
     <use style="fill:#1f77b4;stroke:#1f77b4;" x="102.741839" xlink:href="#mca4fcc9f24" y="30.231288"/>
     <use style="fill:#1f77b4;stroke:#1f77b4;" x="103.481371" xlink:href="#mca4fcc9f24" y="122.615693"/>
     <use style="fill:#1f77b4;stroke:#1f77b4;" x="104.220903" xlink:href="#mca4fcc9f24" y="35.558803"/>
     <use style="fill:#1f77b4;stroke:#1f77b4;" x="104.960435" xlink:href="#mca4fcc9f24" y="115.439314"/>
     <use style="fill:#1f77b4;stroke:#1f77b4;" x="105.699967" xlink:href="#mca4fcc9f24" y="26.979973"/>
     <use style="fill:#1f77b4;stroke:#1f77b4;" x="106.439499" xlink:href="#mca4fcc9f24" y="32.842529"/>
     <use style="fill:#1f77b4;stroke:#1f77b4;" x="107.179031" xlink:href="#mca4fcc9f24" y="92.072014"/>
     <use style="fill:#1f77b4;stroke:#1f77b4;" x="107.918563" xlink:href="#mca4fcc9f24" y="142.265562"/>
     <use style="fill:#1f77b4;stroke:#1f77b4;" x="108.658095" xlink:href="#mca4fcc9f24" y="28.025771"/>
     <use style="fill:#1f77b4;stroke:#1f77b4;" x="109.397627" xlink:href="#mca4fcc9f24" y="28.243664"/>
     <use style="fill:#1f77b4;stroke:#1f77b4;" x="110.137159" xlink:href="#mca4fcc9f24" y="149.868158"/>
     <use style="fill:#1f77b4;stroke:#1f77b4;" x="110.876691" xlink:href="#mca4fcc9f24" y="29.11871"/>
     <use style="fill:#1f77b4;stroke:#1f77b4;" x="111.616223" xlink:href="#mca4fcc9f24" y="174.57292"/>
     <use style="fill:#1f77b4;stroke:#1f77b4;" x="112.355755" xlink:href="#mca4fcc9f24" y="30.008581"/>
     <use style="fill:#1f77b4;stroke:#1f77b4;" x="113.095287" xlink:href="#mca4fcc9f24" y="25.176086"/>
     <use style="fill:#1f77b4;stroke:#1f77b4;" x="113.834819" xlink:href="#mca4fcc9f24" y="78.958252"/>
     <use style="fill:#1f77b4;stroke:#1f77b4;" x="114.574351" xlink:href="#mca4fcc9f24" y="64.464335"/>
     <use style="fill:#1f77b4;stroke:#1f77b4;" x="115.313883" xlink:href="#mca4fcc9f24" y="71.611497"/>
     <use style="fill:#1f77b4;stroke:#1f77b4;" x="116.053415" xlink:href="#mca4fcc9f24" y="91.760897"/>
     <use style="fill:#1f77b4;stroke:#1f77b4;" x="116.792947" xlink:href="#mca4fcc9f24" y="103.249423"/>
     <use style="fill:#1f77b4;stroke:#1f77b4;" x="117.532479" xlink:href="#mca4fcc9f24" y="36.675061"/>
     <use style="fill:#1f77b4;stroke:#1f77b4;" x="118.272011" xlink:href="#mca4fcc9f24" y="102.810333"/>
     <use style="fill:#1f77b4;stroke:#1f77b4;" x="119.011543" xlink:href="#mca4fcc9f24" y="35.914188"/>
     <use style="fill:#1f77b4;stroke:#1f77b4;" x="119.751075" xlink:href="#mca4fcc9f24" y="110.567915"/>
     <use style="fill:#1f77b4;stroke:#1f77b4;" x="120.490607" xlink:href="#mca4fcc9f24" y="33.827633"/>
     <use style="fill:#1f77b4;stroke:#1f77b4;" x="121.230139" xlink:href="#mca4fcc9f24" y="113.655301"/>
     <use style="fill:#1f77b4;stroke:#1f77b4;" x="121.969671" xlink:href="#mca4fcc9f24" y="34.604926"/>
     <use style="fill:#1f77b4;stroke:#1f77b4;" x="122.709203" xlink:href="#mca4fcc9f24" y="110.314029"/>
     <use style="fill:#1f77b4;stroke:#1f77b4;" x="123.448735" xlink:href="#mca4fcc9f24" y="34.995418"/>
     <use style="fill:#1f77b4;stroke:#1f77b4;" x="124.188267" xlink:href="#mca4fcc9f24" y="112.072954"/>
     <use style="fill:#1f77b4;stroke:#1f77b4;" x="124.927799" xlink:href="#mca4fcc9f24" y="33.736488"/>
     <use style="fill:#1f77b4;stroke:#1f77b4;" x="125.667331" xlink:href="#mca4fcc9f24" y="118.61495"/>
     <use style="fill:#1f77b4;stroke:#1f77b4;" x="126.406863" xlink:href="#mca4fcc9f24" y="32.786616"/>
     <use style="fill:#1f77b4;stroke:#1f77b4;" x="127.146395" xlink:href="#mca4fcc9f24" y="130.956799"/>
     <use style="fill:#1f77b4;stroke:#1f77b4;" x="127.885927" xlink:href="#mca4fcc9f24" y="31.253991"/>
     <use style="fill:#1f77b4;stroke:#1f77b4;" x="128.625459" xlink:href="#mca4fcc9f24" y="19.821088"/>
     <use style="fill:#1f77b4;stroke:#1f77b4;" x="129.364991" xlink:href="#mca4fcc9f24" y="79.203369"/>
     <use style="fill:#1f77b4;stroke:#1f77b4;" x="130.104523" xlink:href="#mca4fcc9f24" y="92.823239"/>
     <use style="fill:#1f77b4;stroke:#1f77b4;" x="130.844055" xlink:href="#mca4fcc9f24" y="103.553444"/>
     <use style="fill:#1f77b4;stroke:#1f77b4;" x="131.583587" xlink:href="#mca4fcc9f24" y="36.589136"/>
     <use style="fill:#1f77b4;stroke:#1f77b4;" x="132.323119" xlink:href="#mca4fcc9f24" y="103.128792"/>
     <use style="fill:#1f77b4;stroke:#1f77b4;" x="133.062651" xlink:href="#mca4fcc9f24" y="35.836901"/>
     <use style="fill:#1f77b4;stroke:#1f77b4;" x="133.802183" xlink:href="#mca4fcc9f24" y="110.936198"/>
     <use style="fill:#1f77b4;stroke:#1f77b4;" x="134.541715" xlink:href="#mca4fcc9f24" y="33.756115"/>
     <use style="fill:#1f77b4;stroke:#1f77b4;" x="135.281247" xlink:href="#mca4fcc9f24" y="113.60733"/>
     <use style="fill:#1f77b4;stroke:#1f77b4;" x="136.020779" xlink:href="#mca4fcc9f24" y="34.692173"/>
     <use style="fill:#1f77b4;stroke:#1f77b4;" x="136.760311" xlink:href="#mca4fcc9f24" y="109.07664"/>
     <use style="fill:#1f77b4;stroke:#1f77b4;" x="137.499843" xlink:href="#mca4fcc9f24" y="35.542934"/>
     <use style="fill:#1f77b4;stroke:#1f77b4;" x="138.239375" xlink:href="#mca4fcc9f24" y="107.909481"/>
     <use style="fill:#1f77b4;stroke:#1f77b4;" x="138.978907" xlink:href="#mca4fcc9f24" y="34.829946"/>
     <use style="fill:#1f77b4;stroke:#1f77b4;" x="139.718439" xlink:href="#mca4fcc9f24" y="116.0933"/>
     <use style="fill:#1f77b4;stroke:#1f77b4;" x="140.457971" xlink:href="#mca4fcc9f24" y="32.797025"/>
     <use style="fill:#1f77b4;stroke:#1f77b4;" x="141.197503" xlink:href="#mca4fcc9f24" y="112.428107"/>
     <use style="fill:#1f77b4;stroke:#1f77b4;" x="141.937035" xlink:href="#mca4fcc9f24" y="36.14108"/>
     <use style="fill:#1f77b4;stroke:#1f77b4;" x="142.676567" xlink:href="#mca4fcc9f24" y="70.311457"/>
     <use style="fill:#1f77b4;stroke:#1f77b4;" x="143.416099" xlink:href="#mca4fcc9f24" y="91.665391"/>
     <use style="fill:#1f77b4;stroke:#1f77b4;" x="144.155631" xlink:href="#mca4fcc9f24" y="24.868193"/>
     <use style="fill:#1f77b4;stroke:#1f77b4;" x="144.895163" xlink:href="#mca4fcc9f24" y="53.988085"/>
     <use style="fill:#1f77b4;stroke:#1f77b4;" x="145.634695" xlink:href="#mca4fcc9f24" y="120.315348"/>
     <use style="fill:#1f77b4;stroke:#1f77b4;" x="146.374227" xlink:href="#mca4fcc9f24" y="35.124363"/>
     <use style="fill:#1f77b4;stroke:#1f77b4;" x="147.113759" xlink:href="#mca4fcc9f24" y="101.809373"/>
     <use style="fill:#1f77b4;stroke:#1f77b4;" x="147.853291" xlink:href="#mca4fcc9f24" y="41.420298"/>
     <use style="fill:#1f77b4;stroke:#1f77b4;" x="148.592823" xlink:href="#mca4fcc9f24" y="131.365293"/>
     <use style="fill:#1f77b4;stroke:#1f77b4;" x="149.332355" xlink:href="#mca4fcc9f24" y="28.000992"/>
     <use style="fill:#1f77b4;stroke:#1f77b4;" x="150.071887" xlink:href="#mca4fcc9f24" y="28.606087"/>
     <use style="fill:#1f77b4;stroke:#1f77b4;" x="150.811419" xlink:href="#mca4fcc9f24" y="126.531057"/>
     <use style="fill:#1f77b4;stroke:#1f77b4;" x="151.550951" xlink:href="#mca4fcc9f24" y="27.778132"/>
     <use style="fill:#1f77b4;stroke:#1f77b4;" x="152.290483" xlink:href="#mca4fcc9f24" y="28.792424"/>
     <use style="fill:#1f77b4;stroke:#1f77b4;" x="153.030014" xlink:href="#mca4fcc9f24" y="189.697242"/>
     <use style="fill:#1f77b4;stroke:#1f77b4;" x="153.769546" xlink:href="#mca4fcc9f24" y="30.537462"/>
     <use style="fill:#1f77b4;stroke:#1f77b4;" x="154.509078" xlink:href="#mca4fcc9f24" y="86.405719"/>
     <use style="fill:#1f77b4;stroke:#1f77b4;" x="155.24861" xlink:href="#mca4fcc9f24" y="139.732476"/>
     <use style="fill:#1f77b4;stroke:#1f77b4;" x="155.988142" xlink:href="#mca4fcc9f24" y="27.878851"/>
     <use style="fill:#1f77b4;stroke:#1f77b4;" x="156.727674" xlink:href="#mca4fcc9f24" y="29.217717"/>
     <use style="fill:#1f77b4;stroke:#1f77b4;" x="157.467206" xlink:href="#mca4fcc9f24" y="26.258713"/>
     <use style="fill:#1f77b4;stroke:#1f77b4;" x="158.206738" xlink:href="#mca4fcc9f24" y="80.84771"/>
     <use style="fill:#1f77b4;stroke:#1f77b4;" x="158.94627" xlink:href="#mca4fcc9f24" y="68.997487"/>
     <use style="fill:#1f77b4;stroke:#1f77b4;" x="159.685802" xlink:href="#mca4fcc9f24" y="91.060729"/>
     <use style="fill:#1f77b4;stroke:#1f77b4;" x="160.425334" xlink:href="#mca4fcc9f24" y="40.938152"/>
     <use style="fill:#1f77b4;stroke:#1f77b4;" x="161.164866" xlink:href="#mca4fcc9f24" y="86.89327"/>
     <use style="fill:#1f77b4;stroke:#1f77b4;" x="161.904398" xlink:href="#mca4fcc9f24" y="42.665443"/>
     <use style="fill:#1f77b4;stroke:#1f77b4;" x="162.64393" xlink:href="#mca4fcc9f24" y="79.80335"/>
     <use style="fill:#1f77b4;stroke:#1f77b4;" x="163.383462" xlink:href="#mca4fcc9f24" y="49.900759"/>
     <use style="fill:#1f77b4;stroke:#1f77b4;" x="164.122994" xlink:href="#mca4fcc9f24" y="31.974312"/>
     <use style="fill:#1f77b4;stroke:#1f77b4;" x="164.862526" xlink:href="#mca4fcc9f24" y="116.759139"/>
     <use style="fill:#1f77b4;stroke:#1f77b4;" x="165.602058" xlink:href="#mca4fcc9f24" y="28.027268"/>
     <use style="fill:#1f77b4;stroke:#1f77b4;" x="166.34159" xlink:href="#mca4fcc9f24" y="90.753452"/>
     <use style="fill:#1f77b4;stroke:#1f77b4;" x="167.081122" xlink:href="#mca4fcc9f24" y="140.239016"/>
     <use style="fill:#1f77b4;stroke:#1f77b4;" x="167.820654" xlink:href="#mca4fcc9f24" y="27.912432"/>
     <use style="fill:#1f77b4;stroke:#1f77b4;" x="168.560186" xlink:href="#mca4fcc9f24" y="28.933524"/>
     <use style="fill:#1f77b4;stroke:#1f77b4;" x="169.299718" xlink:href="#mca4fcc9f24" y="130.558636"/>
     <use style="fill:#1f77b4;stroke:#1f77b4;" x="170.03925" xlink:href="#mca4fcc9f24" y="28.007016"/>
     <use style="fill:#1f77b4;stroke:#1f77b4;" x="170.778782" xlink:href="#mca4fcc9f24" y="28.052553"/>
     <use style="fill:#1f77b4;stroke:#1f77b4;" x="171.518314" xlink:href="#mca4fcc9f24" y="145.689231"/>
     <use style="fill:#1f77b4;stroke:#1f77b4;" x="172.257846" xlink:href="#mca4fcc9f24" y="28.976538"/>
     <use style="fill:#1f77b4;stroke:#1f77b4;" x="172.997378" xlink:href="#mca4fcc9f24" y="179.44818"/>
     <use style="fill:#1f77b4;stroke:#1f77b4;" x="173.73691" xlink:href="#mca4fcc9f24" y="29.945906"/>
     <use style="fill:#1f77b4;stroke:#1f77b4;" x="174.476442" xlink:href="#mca4fcc9f24" y="25.262071"/>
     <use style="fill:#1f77b4;stroke:#1f77b4;" x="175.215974" xlink:href="#mca4fcc9f24" y="77.609026"/>
     <use style="fill:#1f77b4;stroke:#1f77b4;" x="175.955506" xlink:href="#mca4fcc9f24" y="66.547402"/>
     <use style="fill:#1f77b4;stroke:#1f77b4;" x="176.695038" xlink:href="#mca4fcc9f24" y="91.403226"/>
     <use style="fill:#1f77b4;stroke:#1f77b4;" x="177.43457" xlink:href="#mca4fcc9f24" y="45.382698"/>
     <use style="fill:#1f77b4;stroke:#1f77b4;" x="178.174102" xlink:href="#mca4fcc9f24" y="38.67574"/>
     <use style="fill:#1f77b4;stroke:#1f77b4;" x="178.913634" xlink:href="#mca4fcc9f24" y="106.560176"/>
     <use style="fill:#1f77b4;stroke:#1f77b4;" x="179.653166" xlink:href="#mca4fcc9f24" y="34.84028"/>
     <use style="fill:#1f77b4;stroke:#1f77b4;" x="180.392698" xlink:href="#mca4fcc9f24" y="100.849985"/>
     <use style="fill:#1f77b4;stroke:#1f77b4;" x="181.13223" xlink:href="#mca4fcc9f24" y="45.53044"/>
     <use style="fill:#1f77b4;stroke:#1f77b4;" x="181.871762" xlink:href="#mca4fcc9f24" y="131.184794"/>
     <use style="fill:#1f77b4;stroke:#1f77b4;" x="182.611294" xlink:href="#mca4fcc9f24" y="35.686007"/>
     <use style="fill:#1f77b4;stroke:#1f77b4;" x="183.350826" xlink:href="#mca4fcc9f24" y="116.945273"/>
     <use style="fill:#1f77b4;stroke:#1f77b4;" x="184.090358" xlink:href="#mca4fcc9f24" y="27.161659"/>
     <use style="fill:#1f77b4;stroke:#1f77b4;" x="184.82989" xlink:href="#mca4fcc9f24" y="34.769554"/>
     <use style="fill:#1f77b4;stroke:#1f77b4;" x="185.569422" xlink:href="#mca4fcc9f24" y="101.738671"/>
     <use style="fill:#1f77b4;stroke:#1f77b4;" x="186.308954" xlink:href="#mca4fcc9f24" y="25.69002"/>
     <use style="fill:#1f77b4;stroke:#1f77b4;" x="187.048486" xlink:href="#mca4fcc9f24" y="44.947563"/>
     <use style="fill:#1f77b4;stroke:#1f77b4;" x="187.788018" xlink:href="#mca4fcc9f24" y="137.578708"/>
     <use style="fill:#1f77b4;stroke:#1f77b4;" x="188.52755" xlink:href="#mca4fcc9f24" y="28.408143"/>
     <use style="fill:#1f77b4;stroke:#1f77b4;" x="189.267082" xlink:href="#mca4fcc9f24" y="27.827021"/>
     <use style="fill:#1f77b4;stroke:#1f77b4;" x="190.006614" xlink:href="#mca4fcc9f24" y="30.722556"/>
     <use style="fill:#1f77b4;stroke:#1f77b4;" x="190.746146" xlink:href="#mca4fcc9f24" y="141.201864"/>
     <use style="fill:#1f77b4;stroke:#1f77b4;" x="191.485678" xlink:href="#mca4fcc9f24" y="28.793587"/>
     <use style="fill:#1f77b4;stroke:#1f77b4;" x="192.22521" xlink:href="#mca4fcc9f24" y="197.62309"/>
     <use style="fill:#1f77b4;stroke:#1f77b4;" x="192.964742" xlink:href="#mca4fcc9f24" y="29.787633"/>
     <use style="fill:#1f77b4;stroke:#1f77b4;" x="193.704274" xlink:href="#mca4fcc9f24" y="25.624676"/>
     <use style="fill:#1f77b4;stroke:#1f77b4;" x="194.443806" xlink:href="#mca4fcc9f24" y="68.973247"/>
     <use style="fill:#1f77b4;stroke:#1f77b4;" x="195.183338" xlink:href="#mca4fcc9f24" y="80.565189"/>
     <use style="fill:#1f77b4;stroke:#1f77b4;" x="195.92287" xlink:href="#mca4fcc9f24" y="74.199782"/>
     <use style="fill:#1f77b4;stroke:#1f77b4;" x="196.662402" xlink:href="#mca4fcc9f24" y="56.214441"/>
     <use style="fill:#1f77b4;stroke:#1f77b4;" x="197.401934" xlink:href="#mca4fcc9f24" y="21.512108"/>
     <use style="fill:#1f77b4;stroke:#1f77b4;" x="198.141466" xlink:href="#mca4fcc9f24" y="93.15701"/>
     <use style="fill:#1f77b4;stroke:#1f77b4;" x="198.880998" xlink:href="#mca4fcc9f24" y="24.593865"/>
     <use style="fill:#1f77b4;stroke:#1f77b4;" x="199.62053" xlink:href="#mca4fcc9f24" y="57.825228"/>
     <use style="fill:#1f77b4;stroke:#1f77b4;" x="200.360062" xlink:href="#mca4fcc9f24" y="107.088479"/>
     <use style="fill:#1f77b4;stroke:#1f77b4;" x="201.099594" xlink:href="#mca4fcc9f24" y="36.509909"/>
     <use style="fill:#1f77b4;stroke:#1f77b4;" x="201.839126" xlink:href="#mca4fcc9f24" y="102.644321"/>
     <use style="fill:#1f77b4;stroke:#1f77b4;" x="202.578658" xlink:href="#mca4fcc9f24" y="36.811094"/>
     <use style="fill:#1f77b4;stroke:#1f77b4;" x="203.31819" xlink:href="#mca4fcc9f24" y="104.064805"/>
     <use style="fill:#1f77b4;stroke:#1f77b4;" x="204.057722" xlink:href="#mca4fcc9f24" y="35.384975"/>
     <use style="fill:#1f77b4;stroke:#1f77b4;" x="204.797254" xlink:href="#mca4fcc9f24" y="111.465184"/>
     <use style="fill:#1f77b4;stroke:#1f77b4;" x="205.536786" xlink:href="#mca4fcc9f24" y="33.862381"/>
     <use style="fill:#1f77b4;stroke:#1f77b4;" x="206.276318" xlink:href="#mca4fcc9f24" y="123.061221"/>
     <use style="fill:#1f77b4;stroke:#1f77b4;" x="207.01585" xlink:href="#mca4fcc9f24" y="31.919708"/>
     <use style="fill:#1f77b4;stroke:#1f77b4;" x="207.755382" xlink:href="#mca4fcc9f24" y="90.568382"/>
     <use style="fill:#1f77b4;stroke:#1f77b4;" x="208.494914" xlink:href="#mca4fcc9f24" y="141.88561"/>
     <use style="fill:#1f77b4;stroke:#1f77b4;" x="209.234446" xlink:href="#mca4fcc9f24" y="113.30712"/>
     <use style="fill:#1f77b4;stroke:#1f77b4;" x="209.973978" xlink:href="#mca4fcc9f24" y="34.002701"/>
     <use style="fill:#1f77b4;stroke:#1f77b4;" x="210.71351" xlink:href="#mca4fcc9f24" y="118.110937"/>
     <use style="fill:#1f77b4;stroke:#1f77b4;" x="211.453042" xlink:href="#mca4fcc9f24" y="32.631149"/>
     <use style="fill:#1f77b4;stroke:#1f77b4;" x="212.192574" xlink:href="#mca4fcc9f24" y="118.865471"/>
     <use style="fill:#1f77b4;stroke:#1f77b4;" x="212.932106" xlink:href="#mca4fcc9f24" y="33.306989"/>
     <use style="fill:#1f77b4;stroke:#1f77b4;" x="213.671638" xlink:href="#mca4fcc9f24" y="122.736509"/>
     <use style="fill:#1f77b4;stroke:#1f77b4;" x="214.41117" xlink:href="#mca4fcc9f24" y="32.213711"/>
     <use style="fill:#1f77b4;stroke:#1f77b4;" x="215.150702" xlink:href="#mca4fcc9f24" y="121.064485"/>
     <use style="fill:#1f77b4;stroke:#1f77b4;" x="215.890234" xlink:href="#mca4fcc9f24" y="32.871566"/>
     <use style="fill:#1f77b4;stroke:#1f77b4;" x="216.629766" xlink:href="#mca4fcc9f24" y="127.798683"/>
     <use style="fill:#1f77b4;stroke:#1f77b4;" x="217.369298" xlink:href="#mca4fcc9f24" y="31.607069"/>
     <use style="fill:#1f77b4;stroke:#1f77b4;" x="218.10883" xlink:href="#mca4fcc9f24" y="113.180348"/>
     <use style="fill:#1f77b4;stroke:#1f77b4;" x="218.848362" xlink:href="#mca4fcc9f24" y="36.283388"/>
     <use style="fill:#1f77b4;stroke:#1f77b4;" x="219.587894" xlink:href="#mca4fcc9f24" y="69.4636"/>
     <use style="fill:#1f77b4;stroke:#1f77b4;" x="220.327426" xlink:href="#mca4fcc9f24" y="91.154895"/>
     <use style="fill:#1f77b4;stroke:#1f77b4;" x="221.066958" xlink:href="#mca4fcc9f24" y="24.914079"/>
     <use style="fill:#1f77b4;stroke:#1f77b4;" x="221.80649" xlink:href="#mca4fcc9f24" y="51.959146"/>
     <use style="fill:#1f77b4;stroke:#1f77b4;" x="222.546022" xlink:href="#mca4fcc9f24" y="129.943705"/>
     <use style="fill:#1f77b4;stroke:#1f77b4;" x="223.285554" xlink:href="#mca4fcc9f24" y="33.751785"/>
     <use style="fill:#1f77b4;stroke:#1f77b4;" x="224.025086" xlink:href="#mca4fcc9f24" y="110.31648"/>
     <use style="fill:#1f77b4;stroke:#1f77b4;" x="224.764618" xlink:href="#mca4fcc9f24" y="36.698856"/>
     <use style="fill:#1f77b4;stroke:#1f77b4;" x="225.50415" xlink:href="#mca4fcc9f24" y="89.950836"/>
     <use style="fill:#1f77b4;stroke:#1f77b4;" x="226.243682" xlink:href="#mca4fcc9f24" y="56.893929"/>
     <use style="fill:#1f77b4;stroke:#1f77b4;" x="226.983214" xlink:href="#mca4fcc9f24" y="94.561725"/>
     <use style="fill:#1f77b4;stroke:#1f77b4;" x="227.722746" xlink:href="#mca4fcc9f24" y="52.836492"/>
     <use style="fill:#1f77b4;stroke:#1f77b4;" x="228.462278" xlink:href="#mca4fcc9f24" y="107.129407"/>
     <use style="fill:#1f77b4;stroke:#1f77b4;" x="229.20181" xlink:href="#mca4fcc9f24" y="41.550002"/>
     <use style="fill:#1f77b4;stroke:#1f77b4;" x="229.941342" xlink:href="#mca4fcc9f24" y="143.24237"/>
     <use style="fill:#1f77b4;stroke:#1f77b4;" x="230.680874" xlink:href="#mca4fcc9f24" y="28.816869"/>
     <use style="fill:#1f77b4;stroke:#1f77b4;" x="231.420406" xlink:href="#mca4fcc9f24" y="261.216"/>
     <use style="fill:#1f77b4;stroke:#1f77b4;" x="232.159938" xlink:href="#mca4fcc9f24" y="29.443254"/>
     <use style="fill:#1f77b4;stroke:#1f77b4;" x="232.89947" xlink:href="#mca4fcc9f24" y="25.045592"/>
     <use style="fill:#1f77b4;stroke:#1f77b4;" x="233.639002" xlink:href="#mca4fcc9f24" y="113.504415"/>
     <use style="fill:#1f77b4;stroke:#1f77b4;" x="234.378534" xlink:href="#mca4fcc9f24" y="26.972991"/>
     <use style="fill:#1f77b4;stroke:#1f77b4;" x="235.118066" xlink:href="#mca4fcc9f24" y="32.171374"/>
     <use style="fill:#1f77b4;stroke:#1f77b4;" x="235.857598" xlink:href="#mca4fcc9f24" y="85.274856"/>
     <use style="fill:#1f77b4;stroke:#1f77b4;" x="236.59713" xlink:href="#mca4fcc9f24" y="139.147313"/>
     <use style="fill:#1f77b4;stroke:#1f77b4;" x="237.336662" xlink:href="#mca4fcc9f24" y="27.927567"/>
     <use style="fill:#1f77b4;stroke:#1f77b4;" x="238.076194" xlink:href="#mca4fcc9f24" y="174.384579"/>
     <use style="fill:#1f77b4;stroke:#1f77b4;" x="238.815726" xlink:href="#mca4fcc9f24" y="29.028706"/>
     <use style="fill:#1f77b4;stroke:#1f77b4;" x="239.555258" xlink:href="#mca4fcc9f24" y="25.761116"/>
     <use style="fill:#1f77b4;stroke:#1f77b4;" x="240.29479" xlink:href="#mca4fcc9f24" y="116.694052"/>
     <use style="fill:#1f77b4;stroke:#1f77b4;" x="241.034322" xlink:href="#mca4fcc9f24" y="27.105296"/>
     <use style="fill:#1f77b4;stroke:#1f77b4;" x="241.773854" xlink:href="#mca4fcc9f24" y="31.88229"/>
     <use style="fill:#1f77b4;stroke:#1f77b4;" x="242.513386" xlink:href="#mca4fcc9f24" y="131.173481"/>
     <use style="fill:#1f77b4;stroke:#1f77b4;" x="243.252918" xlink:href="#mca4fcc9f24" y="35.029073"/>
     <use style="fill:#1f77b4;stroke:#1f77b4;" x="243.99245" xlink:href="#mca4fcc9f24" y="115.45266"/>
     <use style="fill:#1f77b4;stroke:#1f77b4;" x="244.731982" xlink:href="#mca4fcc9f24" y="27.029517"/>
     <use style="fill:#1f77b4;stroke:#1f77b4;" x="245.471514" xlink:href="#mca4fcc9f24" y="155.516205"/>
     <use style="fill:#1f77b4;stroke:#1f77b4;" x="246.211046" xlink:href="#mca4fcc9f24" y="28.726405"/>
     <use style="fill:#1f77b4;stroke:#1f77b4;" x="246.950578" xlink:href="#mca4fcc9f24" y="26.476778"/>
     <use style="fill:#1f77b4;stroke:#1f77b4;" x="247.69011" xlink:href="#mca4fcc9f24" y="118.949098"/>
     <use style="fill:#1f77b4;stroke:#1f77b4;" x="248.429642" xlink:href="#mca4fcc9f24" y="27.272282"/>
     <use style="fill:#1f77b4;stroke:#1f77b4;" x="249.169174" xlink:href="#mca4fcc9f24" y="31.041167"/>
     <use style="fill:#1f77b4;stroke:#1f77b4;" x="249.908706" xlink:href="#mca4fcc9f24" y="154.248319"/>
     <use style="fill:#1f77b4;stroke:#1f77b4;" x="250.648238" xlink:href="#mca4fcc9f24" y="32.131388"/>
     <use style="fill:#1f77b4;stroke:#1f77b4;" x="251.38777" xlink:href="#mca4fcc9f24" y="78.637452"/>
     <use style="fill:#1f77b4;stroke:#1f77b4;" x="252.127302" xlink:href="#mca4fcc9f24" y="137.66595"/>
     <use style="fill:#1f77b4;stroke:#1f77b4;" x="252.866834" xlink:href="#mca4fcc9f24" y="36.042257"/>
     <use style="fill:#1f77b4;stroke:#1f77b4;" x="253.606366" xlink:href="#mca4fcc9f24" y="140.807961"/>
     <use style="fill:#1f77b4;stroke:#1f77b4;" x="254.345898" xlink:href="#mca4fcc9f24" y="29.760214"/>
     <use style="fill:#1f77b4;stroke:#1f77b4;" x="255.08543" xlink:href="#mca4fcc9f24" y="82.731962"/>
     <use style="fill:#1f77b4;stroke:#1f77b4;" x="255.824962" xlink:href="#mca4fcc9f24" y="133.521778"/>
     <use style="fill:#1f77b4;stroke:#1f77b4;" x="256.564494" xlink:href="#mca4fcc9f24" y="27.629701"/>
     <use style="fill:#1f77b4;stroke:#1f77b4;" x="257.304026" xlink:href="#mca4fcc9f24" y="160.463942"/>
     <use style="fill:#1f77b4;stroke:#1f77b4;" x="258.043558" xlink:href="#mca4fcc9f24" y="28.832286"/>
     <use style="fill:#1f77b4;stroke:#1f77b4;" x="258.78309" xlink:href="#mca4fcc9f24" y="25.951025"/>
     <use style="fill:#1f77b4;stroke:#1f77b4;" x="259.522622" xlink:href="#mca4fcc9f24" y="121.457376"/>
     <use style="fill:#1f77b4;stroke:#1f77b4;" x="260.262154" xlink:href="#mca4fcc9f24" y="27.3489"/>
     <use style="fill:#1f77b4;stroke:#1f77b4;" x="261.001686" xlink:href="#mca4fcc9f24" y="31.016091"/>
     <use style="fill:#1f77b4;stroke:#1f77b4;" x="261.741218" xlink:href="#mca4fcc9f24" y="19.980697"/>
     <use style="fill:#1f77b4;stroke:#1f77b4;" x="262.48075" xlink:href="#mca4fcc9f24" y="173.51627"/>
     <use style="fill:#1f77b4;stroke:#1f77b4;" x="263.220282" xlink:href="#mca4fcc9f24" y="30.042677"/>
     <use style="fill:#1f77b4;stroke:#1f77b4;" x="263.959814" xlink:href="#mca4fcc9f24" y="182.223742"/>
     <use style="fill:#1f77b4;stroke:#1f77b4;" x="264.699346" xlink:href="#mca4fcc9f24" y="29.693719"/>
     <use style="fill:#1f77b4;stroke:#1f77b4;" x="265.438878" xlink:href="#mca4fcc9f24" y="24.488061"/>
     <use style="fill:#1f77b4;stroke:#1f77b4;" x="266.17841" xlink:href="#mca4fcc9f24" y="112.50378"/>
     <use style="fill:#1f77b4;stroke:#1f77b4;" x="266.917942" xlink:href="#mca4fcc9f24" y="26.82021"/>
     <use style="fill:#1f77b4;stroke:#1f77b4;" x="267.657474" xlink:href="#mca4fcc9f24" y="33.366436"/>
     <use style="fill:#1f77b4;stroke:#1f77b4;" x="268.397006" xlink:href="#mca4fcc9f24" y="85.184806"/>
     <use style="fill:#1f77b4;stroke:#1f77b4;" x="269.136538" xlink:href="#mca4fcc9f24" y="141.316135"/>
     <use style="fill:#1f77b4;stroke:#1f77b4;" x="269.87607" xlink:href="#mca4fcc9f24" y="27.992584"/>
     <use style="fill:#1f77b4;stroke:#1f77b4;" x="270.615602" xlink:href="#mca4fcc9f24" y="174.707401"/>
     <use style="fill:#1f77b4;stroke:#1f77b4;" x="271.355134" xlink:href="#mca4fcc9f24" y="29.035754"/>
     <use style="fill:#1f77b4;stroke:#1f77b4;" x="272.094666" xlink:href="#mca4fcc9f24" y="25.698739"/>
     <use style="fill:#1f77b4;stroke:#1f77b4;" x="272.834198" xlink:href="#mca4fcc9f24" y="117.046211"/>
     <use style="fill:#1f77b4;stroke:#1f77b4;" x="273.57373" xlink:href="#mca4fcc9f24" y="27.095664"/>
     <use style="fill:#1f77b4;stroke:#1f77b4;" x="274.313262" xlink:href="#mca4fcc9f24" y="32.041307"/>
     <use style="fill:#1f77b4;stroke:#1f77b4;" x="275.052794" xlink:href="#mca4fcc9f24" y="152.653469"/>
     <use style="fill:#1f77b4;stroke:#1f77b4;" x="275.792326" xlink:href="#mca4fcc9f24" y="31.493389"/>
     <use style="fill:#1f77b4;stroke:#1f77b4;" x="276.531858" xlink:href="#mca4fcc9f24" y="130.007873"/>
     <use style="fill:#1f77b4;stroke:#1f77b4;" x="277.27139" xlink:href="#mca4fcc9f24" y="32.184133"/>
     <use style="fill:#1f77b4;stroke:#1f77b4;" x="278.010922" xlink:href="#mca4fcc9f24" y="131.573276"/>
     <use style="fill:#1f77b4;stroke:#1f77b4;" x="278.750454" xlink:href="#mca4fcc9f24" y="31.388189"/>
     <use style="fill:#1f77b4;stroke:#1f77b4;" x="279.489986" xlink:href="#mca4fcc9f24" y="19.64888"/>
     <use style="fill:#1f77b4;stroke:#1f77b4;" x="280.229517" xlink:href="#mca4fcc9f24" y="116.580926"/>
     <use style="fill:#1f77b4;stroke:#1f77b4;" x="280.969049" xlink:href="#mca4fcc9f24" y="34.332894"/>
     <use style="fill:#1f77b4;stroke:#1f77b4;" x="281.708581" xlink:href="#mca4fcc9f24" y="112.423614"/>
     <use style="fill:#1f77b4;stroke:#1f77b4;" x="282.448113" xlink:href="#mca4fcc9f24" y="34.376963"/>
     <use style="fill:#1f77b4;stroke:#1f77b4;" x="283.187645" xlink:href="#mca4fcc9f24" y="116.755519"/>
     <use style="fill:#1f77b4;stroke:#1f77b4;" x="283.927177" xlink:href="#mca4fcc9f24" y="32.847992"/>
     <use style="fill:#1f77b4;stroke:#1f77b4;" x="284.666709" xlink:href="#mca4fcc9f24" y="119.063048"/>
     <use style="fill:#1f77b4;stroke:#1f77b4;" x="285.406241" xlink:href="#mca4fcc9f24" y="33.160034"/>
     <use style="fill:#1f77b4;stroke:#1f77b4;" x="286.145773" xlink:href="#mca4fcc9f24" y="124.71887"/>
     <use style="fill:#1f77b4;stroke:#1f77b4;" x="286.885305" xlink:href="#mca4fcc9f24" y="31.937974"/>
     <use style="fill:#1f77b4;stroke:#1f77b4;" x="287.624837" xlink:href="#mca4fcc9f24" y="118.885595"/>
     <use style="fill:#1f77b4;stroke:#1f77b4;" x="288.364369" xlink:href="#mca4fcc9f24" y="33.584488"/>
     <use style="fill:#1f77b4;stroke:#1f77b4;" x="289.103901" xlink:href="#mca4fcc9f24" y="119.172732"/>
     <use style="fill:#1f77b4;stroke:#1f77b4;" x="289.843433" xlink:href="#mca4fcc9f24" y="32.831895"/>
     <use style="fill:#1f77b4;stroke:#1f77b4;" x="290.582965" xlink:href="#mca4fcc9f24" y="130.195612"/>
     <use style="fill:#1f77b4;stroke:#1f77b4;" x="291.322497" xlink:href="#mca4fcc9f24" y="31.30724"/>
     <use style="fill:#1f77b4;stroke:#1f77b4;" x="292.062029" xlink:href="#mca4fcc9f24" y="19.722655"/>
     <use style="fill:#1f77b4;stroke:#1f77b4;" x="292.801561" xlink:href="#mca4fcc9f24" y="81.145821"/>
     <use style="fill:#1f77b4;stroke:#1f77b4;" x="293.541093" xlink:href="#mca4fcc9f24" y="144.424598"/>
     <use style="fill:#1f77b4;stroke:#1f77b4;" x="294.280625" xlink:href="#mca4fcc9f24" y="34.132106"/>
     <use style="fill:#1f77b4;stroke:#1f77b4;" x="295.020157" xlink:href="#mca4fcc9f24" y="126.897054"/>
     <use style="fill:#1f77b4;stroke:#1f77b4;" x="295.759689" xlink:href="#mca4fcc9f24" y="28.524929"/>
     <use style="fill:#1f77b4;stroke:#1f77b4;" x="296.499221" xlink:href="#mca4fcc9f24" y="137.042596"/>
     <use style="fill:#1f77b4;stroke:#1f77b4;" x="297.238753" xlink:href="#mca4fcc9f24" y="33.41763"/>
     <use style="fill:#1f77b4;stroke:#1f77b4;" x="297.978285" xlink:href="#mca4fcc9f24" y="108.866179"/>
     <use style="fill:#1f77b4;stroke:#1f77b4;" x="298.717817" xlink:href="#mca4fcc9f24" y="26.372317"/>
     <use style="fill:#1f77b4;stroke:#1f77b4;" x="299.457349" xlink:href="#mca4fcc9f24" y="36.524772"/>
     <use style="fill:#1f77b4;stroke:#1f77b4;" x="300.196881" xlink:href="#mca4fcc9f24" y="119.494303"/>
     <use style="fill:#1f77b4;stroke:#1f77b4;" x="300.936413" xlink:href="#mca4fcc9f24" y="32.761201"/>
     <use style="fill:#1f77b4;stroke:#1f77b4;" x="301.675945" xlink:href="#mca4fcc9f24" y="120.777655"/>
     <use style="fill:#1f77b4;stroke:#1f77b4;" x="302.415477" xlink:href="#mca4fcc9f24" y="32.963034"/>
     <use style="fill:#1f77b4;stroke:#1f77b4;" x="303.155009" xlink:href="#mca4fcc9f24" y="126.395519"/>
     <use style="fill:#1f77b4;stroke:#1f77b4;" x="303.894541" xlink:href="#mca4fcc9f24" y="31.783721"/>
     <use style="fill:#1f77b4;stroke:#1f77b4;" x="304.634073" xlink:href="#mca4fcc9f24" y="118.230688"/>
     <use style="fill:#1f77b4;stroke:#1f77b4;" x="305.373605" xlink:href="#mca4fcc9f24" y="33.833429"/>
     <use style="fill:#1f77b4;stroke:#1f77b4;" x="306.113137" xlink:href="#mca4fcc9f24" y="116.473619"/>
     <use style="fill:#1f77b4;stroke:#1f77b4;" x="306.852669" xlink:href="#mca4fcc9f24" y="33.395048"/>
     <use style="fill:#1f77b4;stroke:#1f77b4;" x="307.592201" xlink:href="#mca4fcc9f24" y="124.812914"/>
     <use style="fill:#1f77b4;stroke:#1f77b4;" x="308.331733" xlink:href="#mca4fcc9f24" y="31.797294"/>
     <use style="fill:#1f77b4;stroke:#1f77b4;" x="309.071265" xlink:href="#mca4fcc9f24" y="103.58042"/>
     <use style="fill:#1f77b4;stroke:#1f77b4;" x="309.810797" xlink:href="#mca4fcc9f24" y="44.483114"/>
     <use style="fill:#1f77b4;stroke:#1f77b4;" x="310.550329" xlink:href="#mca4fcc9f24" y="139.291022"/>
     <use style="fill:#1f77b4;stroke:#1f77b4;" x="311.289861" xlink:href="#mca4fcc9f24" y="34.517436"/>
     <use style="fill:#1f77b4;stroke:#1f77b4;" x="312.029393" xlink:href="#mca4fcc9f24" y="112.54666"/>
     <use style="fill:#1f77b4;stroke:#1f77b4;" x="312.768925" xlink:href="#mca4fcc9f24" y="26.734613"/>
     <use style="fill:#1f77b4;stroke:#1f77b4;" x="313.508457" xlink:href="#mca4fcc9f24" y="34.020051"/>
     <use style="fill:#1f77b4;stroke:#1f77b4;" x="314.247989" xlink:href="#mca4fcc9f24" y="145.589673"/>
     <use style="fill:#1f77b4;stroke:#1f77b4;" x="314.987521" xlink:href="#mca4fcc9f24" y="30.565783"/>
     <use style="fill:#1f77b4;stroke:#1f77b4;" x="315.727053" xlink:href="#mca4fcc9f24" y="166.616556"/>
     <use style="fill:#1f77b4;stroke:#1f77b4;" x="316.466585" xlink:href="#mca4fcc9f24" y="29.909655"/>
     <use style="fill:#1f77b4;stroke:#1f77b4;" x="317.206117" xlink:href="#mca4fcc9f24" y="24.000032"/>
     <use style="fill:#1f77b4;stroke:#1f77b4;" x="317.945649" xlink:href="#mca4fcc9f24" y="111.339741"/>
     <use style="fill:#1f77b4;stroke:#1f77b4;" x="318.685181" xlink:href="#mca4fcc9f24" y="26.691488"/>
     <use style="fill:#1f77b4;stroke:#1f77b4;" x="319.424713" xlink:href="#mca4fcc9f24" y="34.329253"/>
     <use style="fill:#1f77b4;stroke:#1f77b4;" x="320.164245" xlink:href="#mca4fcc9f24" y="84.078074"/>
     <use style="fill:#1f77b4;stroke:#1f77b4;" x="320.903777" xlink:href="#mca4fcc9f24" y="137.280734"/>
     <use style="fill:#1f77b4;stroke:#1f77b4;" x="321.643309" xlink:href="#mca4fcc9f24" y="27.795683"/>
     <use style="fill:#1f77b4;stroke:#1f77b4;" x="322.382841" xlink:href="#mca4fcc9f24" y="164.111018"/>
     <use style="fill:#1f77b4;stroke:#1f77b4;" x="323.122373" xlink:href="#mca4fcc9f24" y="28.90238"/>
     <use style="fill:#1f77b4;stroke:#1f77b4;" x="323.861905" xlink:href="#mca4fcc9f24" y="25.806917"/>
     <use style="fill:#1f77b4;stroke:#1f77b4;" x="324.601437" xlink:href="#mca4fcc9f24" y="120.4037"/>
     <use style="fill:#1f77b4;stroke:#1f77b4;" x="325.340969" xlink:href="#mca4fcc9f24" y="27.272565"/>
     <use style="fill:#1f77b4;stroke:#1f77b4;" x="326.080501" xlink:href="#mca4fcc9f24" y="31.283237"/>
     <use style="fill:#1f77b4;stroke:#1f77b4;" x="326.820033" xlink:href="#mca4fcc9f24" y="150.808572"/>
     <use style="fill:#1f77b4;stroke:#1f77b4;" x="327.559565" xlink:href="#mca4fcc9f24" y="28.748684"/>
     <use style="fill:#1f77b4;stroke:#1f77b4;" x="328.299097" xlink:href="#mca4fcc9f24" y="26.011501"/>
     <use style="fill:#1f77b4;stroke:#1f77b4;" x="329.038629" xlink:href="#mca4fcc9f24" y="124.614574"/>
     <use style="fill:#1f77b4;stroke:#1f77b4;" x="329.778161" xlink:href="#mca4fcc9f24" y="27.6284"/>
     <use style="fill:#1f77b4;stroke:#1f77b4;" x="330.517693" xlink:href="#mca4fcc9f24" y="164.676291"/>
     <use style="fill:#1f77b4;stroke:#1f77b4;" x="331.257225" xlink:href="#mca4fcc9f24" y="28.930925"/>
     <use style="fill:#1f77b4;stroke:#1f77b4;" x="331.996757" xlink:href="#mca4fcc9f24" y="25.932832"/>
     <use style="fill:#1f77b4;stroke:#1f77b4;" x="332.736289" xlink:href="#mca4fcc9f24" y="117.810392"/>
     <use style="fill:#1f77b4;stroke:#1f77b4;" x="333.475821" xlink:href="#mca4fcc9f24" y="27.149241"/>
     <use style="fill:#1f77b4;stroke:#1f77b4;" x="334.215353" xlink:href="#mca4fcc9f24" y="31.77439"/>
     <use style="fill:#1f77b4;stroke:#1f77b4;" x="334.954885" xlink:href="#mca4fcc9f24" y="165.701602"/>
     <use style="fill:#1f77b4;stroke:#1f77b4;" x="335.694417" xlink:href="#mca4fcc9f24" y="30.849519"/>
     <use style="fill:#1f77b4;stroke:#1f77b4;" x="336.433949" xlink:href="#mca4fcc9f24" y="143.284579"/>
     <use style="fill:#1f77b4;stroke:#1f77b4;" x="337.173481" xlink:href="#mca4fcc9f24" y="30.874161"/>
     <use style="fill:#1f77b4;stroke:#1f77b4;" x="337.913013" xlink:href="#mca4fcc9f24" y="24.246275"/>
     <use style="fill:#1f77b4;stroke:#1f77b4;" x="338.652545" xlink:href="#mca4fcc9f24" y="88.660198"/>
     <use style="fill:#1f77b4;stroke:#1f77b4;" x="339.392077" xlink:href="#mca4fcc9f24" y="47.807434"/>
     <use style="fill:#1f77b4;stroke:#1f77b4;" x="340.131609" xlink:href="#mca4fcc9f24" y="37.133517"/>
     <use style="fill:#1f77b4;stroke:#1f77b4;" x="340.871141" xlink:href="#mca4fcc9f24" y="127.594021"/>
     <use style="fill:#1f77b4;stroke:#1f77b4;" x="341.610673" xlink:href="#mca4fcc9f24" y="28.901201"/>
     <use style="fill:#1f77b4;stroke:#1f77b4;" x="342.350205" xlink:href="#mca4fcc9f24" y="110.309466"/>
     <use style="fill:#1f77b4;stroke:#1f77b4;" x="343.089737" xlink:href="#mca4fcc9f24" y="44.250501"/>
     <use style="fill:#1f77b4;stroke:#1f77b4;" x="343.829269" xlink:href="#mca4fcc9f24" y="123.097168"/>
     <use style="fill:#1f77b4;stroke:#1f77b4;" x="344.568801" xlink:href="#mca4fcc9f24" y="39.376572"/>
     <use style="fill:#1f77b4;stroke:#1f77b4;" x="345.308333" xlink:href="#mca4fcc9f24" y="151.360836"/>
     <use style="fill:#1f77b4;stroke:#1f77b4;" x="346.047865" xlink:href="#mca4fcc9f24" y="29.936241"/>
     <use style="fill:#1f77b4;stroke:#1f77b4;" x="346.787397" xlink:href="#mca4fcc9f24" y="129.749686"/>
     <use style="fill:#1f77b4;stroke:#1f77b4;" x="347.526929" xlink:href="#mca4fcc9f24" y="33.731904"/>
     <use style="fill:#1f77b4;stroke:#1f77b4;" x="348.266461" xlink:href="#mca4fcc9f24" y="75.57048"/>
     <use style="fill:#1f77b4;stroke:#1f77b4;" x="349.005993" xlink:href="#mca4fcc9f24" y="92.326487"/>
     <use style="fill:#1f77b4;stroke:#1f77b4;" x="349.745525" xlink:href="#mca4fcc9f24" y="25.564814"/>
     <use style="fill:#1f77b4;stroke:#1f77b4;" x="350.485057" xlink:href="#mca4fcc9f24" y="37.78527"/>
     <use style="fill:#1f77b4;stroke:#1f77b4;" x="351.224589" xlink:href="#mca4fcc9f24" y="115.633776"/>
     <use style="fill:#1f77b4;stroke:#1f77b4;" x="351.964121" xlink:href="#mca4fcc9f24" y="27.155849"/>
     <use style="fill:#1f77b4;stroke:#1f77b4;" x="352.703653" xlink:href="#mca4fcc9f24" y="155.330863"/>
     <use style="fill:#1f77b4;stroke:#1f77b4;" x="353.443185" xlink:href="#mca4fcc9f24" y="28.760212"/>
     <use style="fill:#1f77b4;stroke:#1f77b4;" x="354.182717" xlink:href="#mca4fcc9f24" y="26.362444"/>
     <use style="fill:#1f77b4;stroke:#1f77b4;" x="354.922249" xlink:href="#mca4fcc9f24" y="118.875228"/>
     <use style="fill:#1f77b4;stroke:#1f77b4;" x="355.661781" xlink:href="#mca4fcc9f24" y="27.244162"/>
     <use style="fill:#1f77b4;stroke:#1f77b4;" x="356.401313" xlink:href="#mca4fcc9f24" y="31.251604"/>
     <use style="fill:#1f77b4;stroke:#1f77b4;" x="357.140845" xlink:href="#mca4fcc9f24" y="169.815227"/>
     <use style="fill:#1f77b4;stroke:#1f77b4;" x="357.880377" xlink:href="#mca4fcc9f24" y="30.996293"/>
     <use style="fill:#1f77b4;stroke:#1f77b4;" x="358.619909" xlink:href="#mca4fcc9f24" y="133.675116"/>
     <use style="fill:#1f77b4;stroke:#1f77b4;" x="359.359441" xlink:href="#mca4fcc9f24" y="31.913923"/>
     <use style="fill:#1f77b4;stroke:#1f77b4;" x="360.098973" xlink:href="#mca4fcc9f24" y="133.624573"/>
     <use style="fill:#1f77b4;stroke:#1f77b4;" x="360.838505" xlink:href="#mca4fcc9f24" y="31.261719"/>
     <use style="fill:#1f77b4;stroke:#1f77b4;" x="361.578037" xlink:href="#mca4fcc9f24" y="20.084094"/>
     <use style="fill:#1f77b4;stroke:#1f77b4;" x="362.317569" xlink:href="#mca4fcc9f24" y="115.861731"/>
     <use style="fill:#1f77b4;stroke:#1f77b4;" x="363.057101" xlink:href="#mca4fcc9f24" y="34.470822"/>
     <use style="fill:#1f77b4;stroke:#1f77b4;" x="363.796633" xlink:href="#mca4fcc9f24" y="112.004581"/>
     <use style="fill:#1f77b4;stroke:#1f77b4;" x="364.536165" xlink:href="#mca4fcc9f24" y="34.398176"/>
     <use style="fill:#1f77b4;stroke:#1f77b4;" x="365.275697" xlink:href="#mca4fcc9f24" y="116.968739"/>
     <use style="fill:#1f77b4;stroke:#1f77b4;" x="366.015229" xlink:href="#mca4fcc9f24" y="32.788425"/>
     <use style="fill:#1f77b4;stroke:#1f77b4;" x="366.754761" xlink:href="#mca4fcc9f24" y="118.390153"/>
     <use style="fill:#1f77b4;stroke:#1f77b4;" x="367.494293" xlink:href="#mca4fcc9f24" y="33.390424"/>
     <use style="fill:#1f77b4;stroke:#1f77b4;" x="368.233825" xlink:href="#mca4fcc9f24" y="121.923864"/>
     <use style="fill:#1f77b4;stroke:#1f77b4;" x="368.973357" xlink:href="#mca4fcc9f24" y="32.327401"/>
     <use style="fill:#1f77b4;stroke:#1f77b4;" x="369.712889" xlink:href="#mca4fcc9f24" y="121.332593"/>
     <use style="fill:#1f77b4;stroke:#1f77b4;" x="370.452421" xlink:href="#mca4fcc9f24" y="32.75717"/>
     <use style="fill:#1f77b4;stroke:#1f77b4;" x="371.191953" xlink:href="#mca4fcc9f24" y="129.405734"/>
     <use style="fill:#1f77b4;stroke:#1f77b4;" x="371.931485" xlink:href="#mca4fcc9f24" y="31.442844"/>
     <use style="fill:#1f77b4;stroke:#1f77b4;" x="372.671017" xlink:href="#mca4fcc9f24" y="19.296"/>
     <use style="fill:#1f77b4;stroke:#1f77b4;" x="373.410549" xlink:href="#mca4fcc9f24" y="102.245125"/>
     <use style="fill:#1f77b4;stroke:#1f77b4;" x="374.150081" xlink:href="#mca4fcc9f24" y="46.05682"/>
     <use style="fill:#1f77b4;stroke:#1f77b4;" x="374.889613" xlink:href="#mca4fcc9f24" y="122.927262"/>
     <use style="fill:#1f77b4;stroke:#1f77b4;" x="375.629145" xlink:href="#mca4fcc9f24" y="38.142674"/>
     <use style="fill:#1f77b4;stroke:#1f77b4;" x="376.368677" xlink:href="#mca4fcc9f24" y="131.485543"/>
     <use style="fill:#1f77b4;stroke:#1f77b4;" x="377.108209" xlink:href="#mca4fcc9f24" y="28.474181"/>
     <use style="fill:#1f77b4;stroke:#1f77b4;" x="377.355916" xlink:href="#mca4fcc9f24" y="22383.514"/>
    </g>
   </g>
   <g id="line2d_43">
    <path clip-path="url(#p1be88e6714)" d="M 141.197503 112.428107 
L 142.676567 70.311457 
L 144.155631 24.868193 
" style="fill:none;stroke:#2ca02c;stroke-dasharray:1.5,2.475;stroke-dashoffset:0;stroke-width:1.5;"/>
    <defs>
     <path d="M -3 3 
L 3 -3 
M -3 -3 
L 3 3 
" id="m2a7ca75b37" style="stroke:#2ca02c;"/>
    </defs>
    <g clip-path="url(#p1be88e6714)">
     <use style="fill:#2ca02c;stroke:#2ca02c;" x="141.197503" xlink:href="#m2a7ca75b37" y="112.428107"/>
     <use style="fill:#2ca02c;stroke:#2ca02c;" x="142.676567" xlink:href="#m2a7ca75b37" y="70.311457"/>
     <use style="fill:#2ca02c;stroke:#2ca02c;" x="144.155631" xlink:href="#m2a7ca75b37" y="24.868193"/>
    </g>
   </g>
   <g id="line2d_44">
    <path clip-path="url(#p1be88e6714)" d="M 54.672259 156.436818 
L 59.991112 -1 
L 59.991112 -1 
" style="fill:none;stroke:#000000;stroke-dasharray:5.55,2.4;stroke-dashoffset:0;stroke-width:1.5;"/>
   </g>
   <g id="patch_3">
    <path d="M 37.7 273.312 
L 37.7 7.2 
" style="fill:none;stroke:#000000;stroke-linecap:square;stroke-linejoin:miter;stroke-width:0.8;"/>
   </g>
   <g id="patch_4">
    <path d="M 394.82 273.312 
L 394.82 7.2 
" style="fill:none;stroke:#000000;stroke-linecap:square;stroke-linejoin:miter;stroke-width:0.8;"/>
   </g>
   <g id="patch_5">
    <path d="M 37.7 273.312 
L 394.82 273.312 
" style="fill:none;stroke:#000000;stroke-linecap:square;stroke-linejoin:miter;stroke-width:0.8;"/>
   </g>
   <g id="patch_6">
    <path d="M 37.7 7.2 
L 394.82 7.2 
" style="fill:none;stroke:#000000;stroke-linecap:square;stroke-linejoin:miter;stroke-width:0.8;"/>
   </g>
   <g id="legend_1">
    <g id="patch_7">
     <path d="M 44.7 268.312 
L 139.785937 268.312 
Q 141.785937 268.312 141.785937 266.312 
L 141.785937 223.25575 
Q 141.785937 221.25575 139.785937 221.25575 
L 44.7 221.25575 
Q 42.7 221.25575 42.7 223.25575 
L 42.7 266.312 
Q 42.7 268.312 44.7 268.312 
z
" style="fill:#ffffff;opacity:0.8;"/>
    </g>
    <g id="line2d_45">
     <path d="M 46.7 229.354187 
L 66.7 229.354187 
" style="fill:none;stroke:#1f77b4;stroke-linecap:square;stroke-width:1.5;"/>
    </g>
    <g id="line2d_46">
     <g>
      <use style="fill:#1f77b4;stroke:#1f77b4;" x="56.7" xlink:href="#mca4fcc9f24" y="229.354187"/>
     </g>
    </g>
    <g id="text_11">
     <!-- APD$_n$ - APD$_\infty$ -->
     <defs>
      <path d="M 34.1875 63.1875 
L 20.796875 26.90625 
L 47.609375 26.90625 
z
M 28.609375 72.90625 
L 39.796875 72.90625 
L 67.578125 0 
L 57.328125 0 
L 50.6875 18.703125 
L 17.828125 18.703125 
L 11.1875 0 
L 0.78125 0 
z
" id="DejaVuSans-65"/>
      <path d="M 19.671875 64.796875 
L 19.671875 37.40625 
L 32.078125 37.40625 
Q 38.96875 37.40625 42.71875 40.96875 
Q 46.484375 44.53125 46.484375 51.125 
Q 46.484375 57.671875 42.71875 61.234375 
Q 38.96875 64.796875 32.078125 64.796875 
z
M 9.8125 72.90625 
L 32.078125 72.90625 
Q 44.34375 72.90625 50.609375 67.359375 
Q 56.890625 61.8125 56.890625 51.125 
Q 56.890625 40.328125 50.609375 34.8125 
Q 44.34375 29.296875 32.078125 29.296875 
L 19.671875 29.296875 
L 19.671875 0 
L 9.8125 0 
z
" id="DejaVuSans-80"/>
      <path d="M 19.671875 64.796875 
L 19.671875 8.109375 
L 31.59375 8.109375 
Q 46.6875 8.109375 53.6875 14.9375 
Q 60.6875 21.78125 60.6875 36.53125 
Q 60.6875 51.171875 53.6875 57.984375 
Q 46.6875 64.796875 31.59375 64.796875 
z
M 9.8125 72.90625 
L 30.078125 72.90625 
Q 51.265625 72.90625 61.171875 64.09375 
Q 71.09375 55.28125 71.09375 36.53125 
Q 71.09375 17.671875 61.125 8.828125 
Q 51.171875 0 30.078125 0 
L 9.8125 0 
z
" id="DejaVuSans-68"/>
      <path d="M 55.71875 33.015625 
L 49.3125 0 
L 40.28125 0 
L 46.6875 32.671875 
Q 47.125 34.96875 47.359375 36.71875 
Q 47.609375 38.484375 47.609375 39.5 
Q 47.609375 43.609375 45.015625 45.890625 
Q 42.4375 48.1875 37.796875 48.1875 
Q 30.5625 48.1875 25.34375 43.375 
Q 20.125 38.578125 18.5 30.328125 
L 12.5 0 
L 3.515625 0 
L 14.109375 54.6875 
L 23.09375 54.6875 
L 21.296875 46.09375 
Q 25.046875 50.828125 30.3125 53.40625 
Q 35.59375 56 41.40625 56 
Q 48.640625 56 52.609375 52.09375 
Q 56.59375 48.1875 56.59375 41.109375 
Q 56.59375 39.359375 56.375 37.359375 
Q 56.15625 35.359375 55.71875 33.015625 
z
" id="DejaVuSans-Oblique-110"/>
      <path id="DejaVuSans-32"/>
      <path d="M 4.890625 31.390625 
L 31.203125 31.390625 
L 31.203125 23.390625 
L 4.890625 23.390625 
z
" id="DejaVuSans-45"/>
      <path d="M 45.5625 17.046875 
Q 44.046875 18.796875 41.65625 22.90625 
Q 38.375 17.046875 35.5 14.453125 
Q 31.890625 11.328125 26.265625 11.328125 
Q 19.671875 11.328125 15.328125 16.265625 
Q 10.75 21.4375 10.75 29.984375 
Q 10.75 38.1875 15.328125 43.75 
Q 19.4375 48.6875 26.375 48.6875 
Q 29.9375 48.6875 32.5625 47.21875 
Q 35.640625 45.609375 37.75 42.828125 
Q 39.703125 40.328125 41.65625 36.96875 
Q 44.921875 42.828125 47.796875 45.40625 
Q 51.421875 48.53125 57.03125 48.53125 
Q 63.625 48.53125 67.96875 43.609375 
Q 72.5625 38.421875 72.5625 29.890625 
Q 72.5625 21.6875 67.96875 16.109375 
Q 63.875 11.1875 56.9375 11.1875 
Q 53.375 11.1875 50.734375 12.640625 
Q 48.09375 13.96875 45.5625 17.046875 
z
M 25.734375 17.71875 
Q 33.796875 17.71875 38.625 29.4375 
Q 32.421875 42.234375 25.734375 42.234375 
Q 20.84375 42.234375 18.359375 38.71875 
Q 15.671875 34.96875 15.671875 29.984375 
Q 15.671875 24.515625 18.359375 21.140625 
Q 21.09375 17.71875 25.734375 17.71875 
z
M 57.5625 42.140625 
Q 50.296875 42.140625 44.671875 30.421875 
Q 50.828125 17.625 57.5625 17.625 
Q 62.453125 17.625 64.9375 21.140625 
Q 67.625 24.90625 67.625 29.890625 
Q 67.625 35.359375 64.9375 38.71875 
Q 62.203125 42.140625 57.5625 42.140625 
z
" id="DejaVuSans-8734"/>
     </defs>
     <g transform="translate(74.7 232.854187)scale(0.1 -0.1)">
      <use transform="translate(0 0.09375)" xlink:href="#DejaVuSans-65"/>
      <use transform="translate(68.408203 0.09375)" xlink:href="#DejaVuSans-80"/>
      <use transform="translate(128.710938 0.09375)" xlink:href="#DejaVuSans-68"/>
      <use transform="translate(206.669922 -16.3125)scale(0.7)" xlink:href="#DejaVuSans-Oblique-110"/>
      <use transform="translate(253.769531 0.09375)" xlink:href="#DejaVuSans-32"/>
      <use transform="translate(285.556641 0.09375)" xlink:href="#DejaVuSans-45"/>
      <use transform="translate(321.640625 0.09375)" xlink:href="#DejaVuSans-32"/>
      <use transform="translate(353.427734 0.09375)" xlink:href="#DejaVuSans-65"/>
      <use transform="translate(421.835938 0.09375)" xlink:href="#DejaVuSans-80"/>
      <use transform="translate(482.138672 0.09375)" xlink:href="#DejaVuSans-68"/>
      <use transform="translate(560.097656 -16.3125)scale(0.7)" xlink:href="#DejaVuSans-8734"/>
     </g>
    </g>
    <g id="line2d_47">
     <path d="M 46.7 244.032312 
L 66.7 244.032312 
" style="fill:none;stroke:#2ca02c;stroke-dasharray:1.5,2.475;stroke-dashoffset:0;stroke-width:1.5;"/>
    </g>
    <g id="line2d_48">
     <g>
      <use style="fill:#2ca02c;stroke:#2ca02c;" x="56.7" xlink:href="#m2a7ca75b37" y="244.032312"/>
     </g>
    </g>
    <g id="text_12">
     <!-- linear region -->
     <defs>
      <path d="M 9.421875 75.984375 
L 18.40625 75.984375 
L 18.40625 0 
L 9.421875 0 
z
" id="DejaVuSans-108"/>
      <path d="M 9.421875 54.6875 
L 18.40625 54.6875 
L 18.40625 0 
L 9.421875 0 
z
M 9.421875 75.984375 
L 18.40625 75.984375 
L 18.40625 64.59375 
L 9.421875 64.59375 
z
" id="DejaVuSans-105"/>
      <path d="M 54.890625 33.015625 
L 54.890625 0 
L 45.90625 0 
L 45.90625 32.71875 
Q 45.90625 40.484375 42.875 44.328125 
Q 39.84375 48.1875 33.796875 48.1875 
Q 26.515625 48.1875 22.3125 43.546875 
Q 18.109375 38.921875 18.109375 30.90625 
L 18.109375 0 
L 9.078125 0 
L 9.078125 54.6875 
L 18.109375 54.6875 
L 18.109375 46.1875 
Q 21.34375 51.125 25.703125 53.5625 
Q 30.078125 56 35.796875 56 
Q 45.21875 56 50.046875 50.171875 
Q 54.890625 44.34375 54.890625 33.015625 
z
" id="DejaVuSans-110"/>
      <path d="M 56.203125 29.59375 
L 56.203125 25.203125 
L 14.890625 25.203125 
Q 15.484375 15.921875 20.484375 11.0625 
Q 25.484375 6.203125 34.421875 6.203125 
Q 39.59375 6.203125 44.453125 7.46875 
Q 49.3125 8.734375 54.109375 11.28125 
L 54.109375 2.78125 
Q 49.265625 0.734375 44.1875 -0.34375 
Q 39.109375 -1.421875 33.890625 -1.421875 
Q 20.796875 -1.421875 13.15625 6.1875 
Q 5.515625 13.8125 5.515625 26.8125 
Q 5.515625 40.234375 12.765625 48.109375 
Q 20.015625 56 32.328125 56 
Q 43.359375 56 49.78125 48.890625 
Q 56.203125 41.796875 56.203125 29.59375 
z
M 47.21875 32.234375 
Q 47.125 39.59375 43.09375 43.984375 
Q 39.0625 48.390625 32.421875 48.390625 
Q 24.90625 48.390625 20.390625 44.140625 
Q 15.875 39.890625 15.1875 32.171875 
z
" id="DejaVuSans-101"/>
      <path d="M 34.28125 27.484375 
Q 23.390625 27.484375 19.1875 25 
Q 14.984375 22.515625 14.984375 16.5 
Q 14.984375 11.71875 18.140625 8.90625 
Q 21.296875 6.109375 26.703125 6.109375 
Q 34.1875 6.109375 38.703125 11.40625 
Q 43.21875 16.703125 43.21875 25.484375 
L 43.21875 27.484375 
z
M 52.203125 31.203125 
L 52.203125 0 
L 43.21875 0 
L 43.21875 8.296875 
Q 40.140625 3.328125 35.546875 0.953125 
Q 30.953125 -1.421875 24.3125 -1.421875 
Q 15.921875 -1.421875 10.953125 3.296875 
Q 6 8.015625 6 15.921875 
Q 6 25.140625 12.171875 29.828125 
Q 18.359375 34.515625 30.609375 34.515625 
L 43.21875 34.515625 
L 43.21875 35.40625 
Q 43.21875 41.609375 39.140625 45 
Q 35.0625 48.390625 27.6875 48.390625 
Q 23 48.390625 18.546875 47.265625 
Q 14.109375 46.140625 10.015625 43.890625 
L 10.015625 52.203125 
Q 14.9375 54.109375 19.578125 55.046875 
Q 24.21875 56 28.609375 56 
Q 40.484375 56 46.34375 49.84375 
Q 52.203125 43.703125 52.203125 31.203125 
z
" id="DejaVuSans-97"/>
      <path d="M 41.109375 46.296875 
Q 39.59375 47.171875 37.8125 47.578125 
Q 36.03125 48 33.890625 48 
Q 26.265625 48 22.1875 43.046875 
Q 18.109375 38.09375 18.109375 28.8125 
L 18.109375 0 
L 9.078125 0 
L 9.078125 54.6875 
L 18.109375 54.6875 
L 18.109375 46.1875 
Q 20.953125 51.171875 25.484375 53.578125 
Q 30.03125 56 36.53125 56 
Q 37.453125 56 38.578125 55.875 
Q 39.703125 55.765625 41.0625 55.515625 
z
" id="DejaVuSans-114"/>
      <path d="M 45.40625 27.984375 
Q 45.40625 37.75 41.375 43.109375 
Q 37.359375 48.484375 30.078125 48.484375 
Q 22.859375 48.484375 18.828125 43.109375 
Q 14.796875 37.75 14.796875 27.984375 
Q 14.796875 18.265625 18.828125 12.890625 
Q 22.859375 7.515625 30.078125 7.515625 
Q 37.359375 7.515625 41.375 12.890625 
Q 45.40625 18.265625 45.40625 27.984375 
z
M 54.390625 6.78125 
Q 54.390625 -7.171875 48.1875 -13.984375 
Q 42 -20.796875 29.203125 -20.796875 
Q 24.46875 -20.796875 20.265625 -20.09375 
Q 16.0625 -19.390625 12.109375 -17.921875 
L 12.109375 -9.1875 
Q 16.0625 -11.328125 19.921875 -12.34375 
Q 23.78125 -13.375 27.78125 -13.375 
Q 36.625 -13.375 41.015625 -8.765625 
Q 45.40625 -4.15625 45.40625 5.171875 
L 45.40625 9.625 
Q 42.625 4.78125 38.28125 2.390625 
Q 33.9375 0 27.875 0 
Q 17.828125 0 11.671875 7.65625 
Q 5.515625 15.328125 5.515625 27.984375 
Q 5.515625 40.671875 11.671875 48.328125 
Q 17.828125 56 27.875 56 
Q 33.9375 56 38.28125 53.609375 
Q 42.625 51.21875 45.40625 46.390625 
L 45.40625 54.6875 
L 54.390625 54.6875 
z
" id="DejaVuSans-103"/>
      <path d="M 30.609375 48.390625 
Q 23.390625 48.390625 19.1875 42.75 
Q 14.984375 37.109375 14.984375 27.296875 
Q 14.984375 17.484375 19.15625 11.84375 
Q 23.34375 6.203125 30.609375 6.203125 
Q 37.796875 6.203125 41.984375 11.859375 
Q 46.1875 17.53125 46.1875 27.296875 
Q 46.1875 37.015625 41.984375 42.703125 
Q 37.796875 48.390625 30.609375 48.390625 
z
M 30.609375 56 
Q 42.328125 56 49.015625 48.375 
Q 55.71875 40.765625 55.71875 27.296875 
Q 55.71875 13.875 49.015625 6.21875 
Q 42.328125 -1.421875 30.609375 -1.421875 
Q 18.84375 -1.421875 12.171875 6.21875 
Q 5.515625 13.875 5.515625 27.296875 
Q 5.515625 40.765625 12.171875 48.375 
Q 18.84375 56 30.609375 56 
z
" id="DejaVuSans-111"/>
     </defs>
     <g transform="translate(74.7 247.532312)scale(0.1 -0.1)">
      <use xlink:href="#DejaVuSans-108"/>
      <use x="27.783203" xlink:href="#DejaVuSans-105"/>
      <use x="55.566406" xlink:href="#DejaVuSans-110"/>
      <use x="118.945312" xlink:href="#DejaVuSans-101"/>
      <use x="180.46875" xlink:href="#DejaVuSans-97"/>
      <use x="241.748047" xlink:href="#DejaVuSans-114"/>
      <use x="282.861328" xlink:href="#DejaVuSans-32"/>
      <use x="314.648438" xlink:href="#DejaVuSans-114"/>
      <use x="353.511719" xlink:href="#DejaVuSans-101"/>
      <use x="415.035156" xlink:href="#DejaVuSans-103"/>
      <use x="478.511719" xlink:href="#DejaVuSans-105"/>
      <use x="506.294922" xlink:href="#DejaVuSans-111"/>
      <use x="567.476562" xlink:href="#DejaVuSans-110"/>
     </g>
    </g>
    <g id="line2d_49">
     <path d="M 46.7 258.712 
L 66.7 258.712 
" style="fill:none;stroke:#000000;stroke-dasharray:5.55,2.4;stroke-dashoffset:0;stroke-width:1.5;"/>
    </g>
    <g id="line2d_50"/>
    <g id="text_13">
     <!-- $ \exp(0.757 k)$ -->
     <defs>
      <path d="M 54.890625 54.6875 
L 35.109375 28.078125 
L 55.90625 0 
L 45.3125 0 
L 29.390625 21.484375 
L 13.484375 0 
L 2.875 0 
L 24.125 28.609375 
L 4.6875 54.6875 
L 15.28125 54.6875 
L 29.78125 35.203125 
L 44.28125 54.6875 
z
" id="DejaVuSans-120"/>
      <path d="M 18.109375 8.203125 
L 18.109375 -20.796875 
L 9.078125 -20.796875 
L 9.078125 54.6875 
L 18.109375 54.6875 
L 18.109375 46.390625 
Q 20.953125 51.265625 25.265625 53.625 
Q 29.59375 56 35.59375 56 
Q 45.5625 56 51.78125 48.09375 
Q 58.015625 40.1875 58.015625 27.296875 
Q 58.015625 14.40625 51.78125 6.484375 
Q 45.5625 -1.421875 35.59375 -1.421875 
Q 29.59375 -1.421875 25.265625 0.953125 
Q 20.953125 3.328125 18.109375 8.203125 
z
M 48.6875 27.296875 
Q 48.6875 37.203125 44.609375 42.84375 
Q 40.53125 48.484375 33.40625 48.484375 
Q 26.265625 48.484375 22.1875 42.84375 
Q 18.109375 37.203125 18.109375 27.296875 
Q 18.109375 17.390625 22.1875 11.75 
Q 26.265625 6.109375 33.40625 6.109375 
Q 40.53125 6.109375 44.609375 11.75 
Q 48.6875 17.390625 48.6875 27.296875 
z
" id="DejaVuSans-112"/>
      <path d="M 31 75.875 
Q 24.46875 64.65625 21.28125 53.65625 
Q 18.109375 42.671875 18.109375 31.390625 
Q 18.109375 20.125 21.3125 9.0625 
Q 24.515625 -2 31 -13.1875 
L 23.1875 -13.1875 
Q 15.875 -1.703125 12.234375 9.375 
Q 8.59375 20.453125 8.59375 31.390625 
Q 8.59375 42.28125 12.203125 53.3125 
Q 15.828125 64.359375 23.1875 75.875 
z
" id="DejaVuSans-40"/>
      <path d="M 10.6875 12.40625 
L 21 12.40625 
L 21 0 
L 10.6875 0 
z
" id="DejaVuSans-46"/>
      <path d="M 8.203125 72.90625 
L 55.078125 72.90625 
L 55.078125 68.703125 
L 28.609375 0 
L 18.3125 0 
L 43.21875 64.59375 
L 8.203125 64.59375 
z
" id="DejaVuSans-55"/>
      <path d="M 10.796875 72.90625 
L 49.515625 72.90625 
L 49.515625 64.59375 
L 19.828125 64.59375 
L 19.828125 46.734375 
Q 21.96875 47.46875 24.109375 47.828125 
Q 26.265625 48.1875 28.421875 48.1875 
Q 40.625 48.1875 47.75 41.5 
Q 54.890625 34.8125 54.890625 23.390625 
Q 54.890625 11.625 47.5625 5.09375 
Q 40.234375 -1.421875 26.90625 -1.421875 
Q 22.3125 -1.421875 17.546875 -0.640625 
Q 12.796875 0.140625 7.71875 1.703125 
L 7.71875 11.625 
Q 12.109375 9.234375 16.796875 8.0625 
Q 21.484375 6.890625 26.703125 6.890625 
Q 35.15625 6.890625 40.078125 11.328125 
Q 45.015625 15.765625 45.015625 23.390625 
Q 45.015625 31 40.078125 35.4375 
Q 35.15625 39.890625 26.703125 39.890625 
Q 22.75 39.890625 18.8125 39.015625 
Q 14.890625 38.140625 10.796875 36.28125 
z
" id="DejaVuSans-53"/>
      <path d="M 8.015625 75.875 
L 15.828125 75.875 
Q 23.140625 64.359375 26.78125 53.3125 
Q 30.421875 42.28125 30.421875 31.390625 
Q 30.421875 20.453125 26.78125 9.375 
Q 23.140625 -1.703125 15.828125 -13.1875 
L 8.015625 -13.1875 
Q 14.5 -2 17.703125 9.0625 
Q 20.90625 20.125 20.90625 31.390625 
Q 20.90625 42.671875 17.703125 53.65625 
Q 14.5 64.65625 8.015625 75.875 
z
" id="DejaVuSans-41"/>
     </defs>
     <g transform="translate(74.7 262.212)scale(0.1 -0.1)">
      <use transform="translate(0 0.015625)" xlink:href="#DejaVuSans-101"/>
      <use transform="translate(61.523438 0.015625)" xlink:href="#DejaVuSans-120"/>
      <use transform="translate(120.703125 0.015625)" xlink:href="#DejaVuSans-112"/>
      <use transform="translate(184.179688 0.015625)" xlink:href="#DejaVuSans-40"/>
      <use transform="translate(223.193359 0.015625)" xlink:href="#DejaVuSans-48"/>
      <use transform="translate(286.816406 0.015625)" xlink:href="#DejaVuSans-46"/>
      <use transform="translate(310.853516 0.015625)" xlink:href="#DejaVuSans-55"/>
      <use transform="translate(374.476562 0.015625)" xlink:href="#DejaVuSans-53"/>
      <use transform="translate(430.849609 0.015625)" xlink:href="#DejaVuSans-55"/>
      <use transform="translate(494.472656 0.015625)" xlink:href="#DejaVuSans-Oblique-107"/>
      <use transform="translate(552.382812 0.015625)" xlink:href="#DejaVuSans-41"/>
     </g>
    </g>
   </g>
  </g>
 </g>
 <defs>
  <clipPath id="p1be88e6714">
   <rect height="266.112" width="357.12" x="37.7" y="7.2"/>
  </clipPath>
 </defs>
</svg>
