<?xml version="1.0" encoding="utf-8" standalone="no"?>
<!DOCTYPE svg PUBLIC "-//W3C//DTD SVG 1.1//EN"
  "http://www.w3.org/Graphics/SVG/1.1/DTD/svg11.dtd">
<!-- Created with matplotlib (https://matplotlib.org/) -->
<svg height="310.86825pt" version="1.1" viewBox="0 0 402.02 310.86825" width="402.02pt" xmlns="http://www.w3.org/2000/svg" xmlns:xlink="http://www.w3.org/1999/xlink">
 <defs>
  <style type="text/css">
*{stroke-linecap:butt;stroke-linejoin:round;}
  </style>
 </defs>
 <g id="figure_1">
  <g id="patch_1">
   <path d="M 0 310.86825 
L 402.02 310.86825 
L 402.02 0 
L 0 0 
z
" style="fill:#ffffff;"/>
  </g>
  <g id="axes_1">
   <g id="patch_2">
    <path d="M 37.7 273.312 
L 394.82 273.312 
L 394.82 7.2 
L 37.7 7.2 
z
" style="fill:#ffffff;"/>
   </g>
   <g id="matplotlib.axis_1">
    <g id="xtick_1">
     <g id="line2d_1">
      <defs>
       <path d="M 0 0 
L 0 3.5 
" id="mb22a0aab61" style="stroke:#000000;stroke-width:0.8;"/>
      </defs>
      <g>
       <use style="stroke:#000000;stroke-width:0.8;" x="53.932727" xlink:href="#mb22a0aab61" y="273.312"/>
      </g>
     </g>
     <g id="text_1">
      <!-- 0 -->
      <defs>
       <path d="M 31.78125 66.40625 
Q 24.171875 66.40625 20.328125 58.90625 
Q 16.5 51.421875 16.5 36.375 
Q 16.5 21.390625 20.328125 13.890625 
Q 24.171875 6.390625 31.78125 6.390625 
Q 39.453125 6.390625 43.28125 13.890625 
Q 47.125 21.390625 47.125 36.375 
Q 47.125 51.421875 43.28125 58.90625 
Q 39.453125 66.40625 31.78125 66.40625 
z
M 31.78125 74.21875 
Q 44.046875 74.21875 50.515625 64.515625 
Q 56.984375 54.828125 56.984375 36.375 
Q 56.984375 17.96875 50.515625 8.265625 
Q 44.046875 -1.421875 31.78125 -1.421875 
Q 19.53125 -1.421875 13.0625 8.265625 
Q 6.59375 17.96875 6.59375 36.375 
Q 6.59375 54.828125 13.0625 64.515625 
Q 19.53125 74.21875 31.78125 74.21875 
z
" id="DejaVuSans-48"/>
      </defs>
      <g transform="translate(50.751477 287.910437)scale(0.1 -0.1)">
       <use xlink:href="#DejaVuSans-48"/>
      </g>
     </g>
    </g>
    <g id="xtick_2">
     <g id="line2d_2">
      <g>
       <use style="stroke:#000000;stroke-width:0.8;" x="105.794476" xlink:href="#mb22a0aab61" y="273.312"/>
      </g>
     </g>
     <g id="text_2">
      <!-- 50 -->
      <defs>
       <path d="M 10.796875 72.90625 
L 49.515625 72.90625 
L 49.515625 64.59375 
L 19.828125 64.59375 
L 19.828125 46.734375 
Q 21.96875 47.46875 24.109375 47.828125 
Q 26.265625 48.1875 28.421875 48.1875 
Q 40.625 48.1875 47.75 41.5 
Q 54.890625 34.8125 54.890625 23.390625 
Q 54.890625 11.625 47.5625 5.09375 
Q 40.234375 -1.421875 26.90625 -1.421875 
Q 22.3125 -1.421875 17.546875 -0.640625 
Q 12.796875 0.140625 7.71875 1.703125 
L 7.71875 11.625 
Q 12.109375 9.234375 16.796875 8.0625 
Q 21.484375 6.890625 26.703125 6.890625 
Q 35.15625 6.890625 40.078125 11.328125 
Q 45.015625 15.765625 45.015625 23.390625 
Q 45.015625 31 40.078125 35.4375 
Q 35.15625 39.890625 26.703125 39.890625 
Q 22.75 39.890625 18.8125 39.015625 
Q 14.890625 38.140625 10.796875 36.28125 
z
" id="DejaVuSans-53"/>
      </defs>
      <g transform="translate(99.431976 287.910437)scale(0.1 -0.1)">
       <use xlink:href="#DejaVuSans-53"/>
       <use x="63.623047" xlink:href="#DejaVuSans-48"/>
      </g>
     </g>
    </g>
    <g id="xtick_3">
     <g id="line2d_3">
      <g>
       <use style="stroke:#000000;stroke-width:0.8;" x="157.656224" xlink:href="#mb22a0aab61" y="273.312"/>
      </g>
     </g>
     <g id="text_3">
      <!-- 100 -->
      <defs>
       <path d="M 12.40625 8.296875 
L 28.515625 8.296875 
L 28.515625 63.921875 
L 10.984375 60.40625 
L 10.984375 69.390625 
L 28.421875 72.90625 
L 38.28125 72.90625 
L 38.28125 8.296875 
L 54.390625 8.296875 
L 54.390625 0 
L 12.40625 0 
z
" id="DejaVuSans-49"/>
      </defs>
      <g transform="translate(148.112474 287.910437)scale(0.1 -0.1)">
       <use xlink:href="#DejaVuSans-49"/>
       <use x="63.623047" xlink:href="#DejaVuSans-48"/>
       <use x="127.246094" xlink:href="#DejaVuSans-48"/>
      </g>
     </g>
    </g>
    <g id="xtick_4">
     <g id="line2d_4">
      <g>
       <use style="stroke:#000000;stroke-width:0.8;" x="209.517973" xlink:href="#mb22a0aab61" y="273.312"/>
      </g>
     </g>
     <g id="text_4">
      <!-- 150 -->
      <g transform="translate(199.974223 287.910437)scale(0.1 -0.1)">
       <use xlink:href="#DejaVuSans-49"/>
       <use x="63.623047" xlink:href="#DejaVuSans-53"/>
       <use x="127.246094" xlink:href="#DejaVuSans-48"/>
      </g>
     </g>
    </g>
    <g id="xtick_5">
     <g id="line2d_5">
      <g>
       <use style="stroke:#000000;stroke-width:0.8;" x="261.379721" xlink:href="#mb22a0aab61" y="273.312"/>
      </g>
     </g>
     <g id="text_5">
      <!-- 200 -->
      <defs>
       <path d="M 19.1875 8.296875 
L 53.609375 8.296875 
L 53.609375 0 
L 7.328125 0 
L 7.328125 8.296875 
Q 12.9375 14.109375 22.625 23.890625 
Q 32.328125 33.6875 34.8125 36.53125 
Q 39.546875 41.84375 41.421875 45.53125 
Q 43.3125 49.21875 43.3125 52.78125 
Q 43.3125 58.59375 39.234375 62.25 
Q 35.15625 65.921875 28.609375 65.921875 
Q 23.96875 65.921875 18.8125 64.3125 
Q 13.671875 62.703125 7.8125 59.421875 
L 7.8125 69.390625 
Q 13.765625 71.78125 18.9375 73 
Q 24.125 74.21875 28.421875 74.21875 
Q 39.75 74.21875 46.484375 68.546875 
Q 53.21875 62.890625 53.21875 53.421875 
Q 53.21875 48.921875 51.53125 44.890625 
Q 49.859375 40.875 45.40625 35.40625 
Q 44.1875 33.984375 37.640625 27.21875 
Q 31.109375 20.453125 19.1875 8.296875 
z
" id="DejaVuSans-50"/>
      </defs>
      <g transform="translate(251.835971 287.910437)scale(0.1 -0.1)">
       <use xlink:href="#DejaVuSans-50"/>
       <use x="63.623047" xlink:href="#DejaVuSans-48"/>
       <use x="127.246094" xlink:href="#DejaVuSans-48"/>
      </g>
     </g>
    </g>
    <g id="xtick_6">
     <g id="line2d_6">
      <g>
       <use style="stroke:#000000;stroke-width:0.8;" x="313.24147" xlink:href="#mb22a0aab61" y="273.312"/>
      </g>
     </g>
     <g id="text_6">
      <!-- 250 -->
      <g transform="translate(303.69772 287.910437)scale(0.1 -0.1)">
       <use xlink:href="#DejaVuSans-50"/>
       <use x="63.623047" xlink:href="#DejaVuSans-53"/>
       <use x="127.246094" xlink:href="#DejaVuSans-48"/>
      </g>
     </g>
    </g>
    <g id="xtick_7">
     <g id="line2d_7">
      <g>
       <use style="stroke:#000000;stroke-width:0.8;" x="365.103218" xlink:href="#mb22a0aab61" y="273.312"/>
      </g>
     </g>
     <g id="text_7">
      <!-- 300 -->
      <defs>
       <path d="M 40.578125 39.3125 
Q 47.65625 37.796875 51.625 33 
Q 55.609375 28.21875 55.609375 21.1875 
Q 55.609375 10.40625 48.1875 4.484375 
Q 40.765625 -1.421875 27.09375 -1.421875 
Q 22.515625 -1.421875 17.65625 -0.515625 
Q 12.796875 0.390625 7.625 2.203125 
L 7.625 11.71875 
Q 11.71875 9.328125 16.59375 8.109375 
Q 21.484375 6.890625 26.8125 6.890625 
Q 36.078125 6.890625 40.9375 10.546875 
Q 45.796875 14.203125 45.796875 21.1875 
Q 45.796875 27.640625 41.28125 31.265625 
Q 36.765625 34.90625 28.71875 34.90625 
L 20.21875 34.90625 
L 20.21875 43.015625 
L 29.109375 43.015625 
Q 36.375 43.015625 40.234375 45.921875 
Q 44.09375 48.828125 44.09375 54.296875 
Q 44.09375 59.90625 40.109375 62.90625 
Q 36.140625 65.921875 28.71875 65.921875 
Q 24.65625 65.921875 20.015625 65.03125 
Q 15.375 64.15625 9.8125 62.3125 
L 9.8125 71.09375 
Q 15.4375 72.65625 20.34375 73.4375 
Q 25.25 74.21875 29.59375 74.21875 
Q 40.828125 74.21875 47.359375 69.109375 
Q 53.90625 64.015625 53.90625 55.328125 
Q 53.90625 49.265625 50.4375 45.09375 
Q 46.96875 40.921875 40.578125 39.3125 
z
" id="DejaVuSans-51"/>
      </defs>
      <g transform="translate(355.559468 287.910437)scale(0.1 -0.1)">
       <use xlink:href="#DejaVuSans-51"/>
       <use x="63.623047" xlink:href="#DejaVuSans-48"/>
       <use x="127.246094" xlink:href="#DejaVuSans-48"/>
      </g>
     </g>
    </g>
    <g id="text_8">
     <!-- $ k $ -->
     <defs>
      <path d="M 18.3125 75.984375 
L 27.296875 75.984375 
L 18.703125 31.6875 
L 49.515625 54.6875 
L 61.1875 54.6875 
L 26.8125 28.515625 
L 51.90625 0 
L 41.015625 0 
L 17.671875 26.703125 
L 12.5 0 
L 3.515625 0 
z
" id="DejaVuSans-Oblique-107"/>
     </defs>
     <g transform="translate(213.36 301.588562)scale(0.1 -0.1)">
      <use transform="translate(0 0.015625)" xlink:href="#DejaVuSans-Oblique-107"/>
     </g>
    </g>
   </g>
   <g id="matplotlib.axis_2">
    <g id="ytick_1">
     <g id="line2d_8">
      <defs>
       <path d="M 0 0 
L -3.5 0 
" id="m3f9ede6b59" style="stroke:#000000;stroke-width:0.8;"/>
      </defs>
      <g>
       <use style="stroke:#000000;stroke-width:0.8;" x="37.7" xlink:href="#m3f9ede6b59" y="223.099488"/>
      </g>
     </g>
     <g id="text_9">
      <!-- $\mathdefault{10^{-5}}$ -->
      <defs>
       <path d="M 10.59375 35.5 
L 73.1875 35.5 
L 73.1875 27.203125 
L 10.59375 27.203125 
z
" id="DejaVuSans-8722"/>
      </defs>
      <g transform="translate(7.2 226.898707)scale(0.1 -0.1)">
       <use transform="translate(0 0.684375)" xlink:href="#DejaVuSans-49"/>
       <use transform="translate(63.623047 0.684375)" xlink:href="#DejaVuSans-48"/>
       <use transform="translate(128.203125 38.965625)scale(0.7)" xlink:href="#DejaVuSans-8722"/>
       <use transform="translate(186.855469 38.965625)scale(0.7)" xlink:href="#DejaVuSans-53"/>
      </g>
     </g>
    </g>
    <g id="ytick_2">
     <g id="line2d_9">
      <g>
       <use style="stroke:#000000;stroke-width:0.8;" x="37.7" xlink:href="#m3f9ede6b59" y="167.349048"/>
      </g>
     </g>
     <g id="text_10">
      <!-- $\mathdefault{10^{-3}}$ -->
      <g transform="translate(7.2 171.148267)scale(0.1 -0.1)">
       <use transform="translate(0 0.765625)" xlink:href="#DejaVuSans-49"/>
       <use transform="translate(63.623047 0.765625)" xlink:href="#DejaVuSans-48"/>
       <use transform="translate(128.203125 39.046875)scale(0.7)" xlink:href="#DejaVuSans-8722"/>
       <use transform="translate(186.855469 39.046875)scale(0.7)" xlink:href="#DejaVuSans-51"/>
      </g>
     </g>
    </g>
    <g id="ytick_3">
     <g id="line2d_10">
      <g>
       <use style="stroke:#000000;stroke-width:0.8;" x="37.7" xlink:href="#m3f9ede6b59" y="111.598608"/>
      </g>
     </g>
     <g id="text_11">
      <!-- $\mathdefault{10^{-1}}$ -->
      <g transform="translate(7.2 115.397827)scale(0.1 -0.1)">
       <use transform="translate(0 0.684375)" xlink:href="#DejaVuSans-49"/>
       <use transform="translate(63.623047 0.684375)" xlink:href="#DejaVuSans-48"/>
       <use transform="translate(128.203125 38.965625)scale(0.7)" xlink:href="#DejaVuSans-8722"/>
       <use transform="translate(186.855469 38.965625)scale(0.7)" xlink:href="#DejaVuSans-49"/>
      </g>
     </g>
    </g>
    <g id="ytick_4">
     <g id="line2d_11">
      <g>
       <use style="stroke:#000000;stroke-width:0.8;" x="37.7" xlink:href="#m3f9ede6b59" y="55.848169"/>
      </g>
     </g>
     <g id="text_12">
      <!-- $\mathdefault{10^{1}}$ -->
      <g transform="translate(13.1 59.647387)scale(0.1 -0.1)">
       <use transform="translate(0 0.684375)" xlink:href="#DejaVuSans-49"/>
       <use transform="translate(63.623047 0.684375)" xlink:href="#DejaVuSans-48"/>
       <use transform="translate(128.203125 38.965625)scale(0.7)" xlink:href="#DejaVuSans-49"/>
      </g>
     </g>
    </g>
   </g>
   <g id="line2d_12">
    <path clip-path="url(#p5d09cc4fee)" d="M 53.932727 33.78767 
L 54.969962 23.154229 
L 56.007197 24.588451 
L 57.044432 38.509125 
L 58.081667 31.505107 
L 59.118902 45.51379 
L 60.156137 19.296 
L 61.193372 43.179471 
L 62.230607 48.868914 
L 65.342312 76.479951 
L 69.491252 115.897802 
L 71.565722 140.557152 
L 72.602957 178.63859 
L 73.640192 159.137262 
L 74.677427 150.734563 
L 75.714662 156.838773 
L 76.751897 153.330435 
L 77.789132 163.71996 
L 78.826367 154.349151 
L 79.863602 163.513195 
L 80.900836 159.37101 
L 81.938071 164.931816 
L 82.975306 158.856097 
L 84.012541 202.259802 
L 85.049776 158.549443 
L 86.087011 193.982132 
L 87.124246 165.92627 
L 88.161481 174.077192 
L 89.198716 164.423335 
L 90.235951 184.897822 
L 91.273186 183.646598 
L 92.310421 166.732014 
L 93.347656 179.919658 
L 94.384891 177.466382 
L 95.422126 195.188802 
L 96.459361 163.951827 
L 97.496596 180.627038 
L 98.533831 159.246978 
L 99.571066 220.21871 
L 100.608301 160.567987 
L 101.645536 181.727972 
L 102.682771 171.735325 
L 103.720006 178.425239 
L 104.757241 164.26194 
L 105.794476 193.682016 
L 106.831711 162.819728 
L 107.868946 261.216 
L 108.906181 168.994879 
L 109.943416 177.024776 
L 110.980651 165.273845 
L 112.017886 202.438663 
L 113.055121 164.011223 
L 114.092356 173.927609 
L 115.12959 165.899222 
L 116.166825 178.206183 
L 117.20406 163.516326 
L 118.241295 190.361716 
L 119.27853 168.941971 
L 120.315765 165.465525 
L 121.353 170.354597 
L 123.42747 179.291395 
L 124.464705 175.877174 
L 125.50194 166.914349 
L 126.539175 177.473229 
L 127.57641 170.967511 
L 128.613645 166.226805 
L 129.65088 173.667376 
L 130.688115 179.746115 
L 131.72535 164.468909 
L 133.79982 175.433902 
L 134.837055 171.46707 
L 135.87429 172.481914 
L 136.911525 168.978508 
L 137.94876 177.749381 
L 138.985995 164.675369 
L 140.02323 181.031382 
L 141.060465 179.143048 
L 142.0977 179.075874 
L 143.134935 173.037821 
L 145.209405 164.339623 
L 146.24664 212.896605 
L 147.283875 169.188765 
L 148.321109 181.952238 
L 149.358344 170.523425 
L 150.395579 173.072398 
L 151.432814 166.480615 
L 152.470049 173.76376 
L 153.507284 169.59871 
L 154.544519 171.178616 
L 155.581754 164.932736 
L 156.618989 168.478585 
L 157.656224 167.415005 
L 158.693459 172.521183 
L 159.730694 174.621598 
L 160.767929 177.476475 
L 161.805164 166.689032 
L 162.842399 178.907425 
L 163.879634 176.263462 
L 164.916869 172.036577 
L 165.954104 200.419168 
L 166.991339 163.400136 
L 168.028574 177.190259 
L 169.065809 171.872709 
L 170.103044 174.267302 
L 171.140279 164.924106 
L 172.177514 181.210664 
L 173.214749 165.376146 
L 174.251984 171.146027 
L 175.289219 175.084757 
L 176.326454 168.117337 
L 177.363689 204.037666 
L 178.400924 171.375813 
L 179.438159 167.126721 
L 180.475394 166.6226 
L 181.512629 168.800912 
L 182.549863 179.118126 
L 183.587098 180.615782 
L 184.624333 164.137419 
L 185.661568 165.588734 
L 186.698803 167.49639 
L 187.736038 169.9085 
L 188.773273 175.036689 
L 189.810508 170.83264 
L 190.847743 164.959568 
L 191.884978 168.853674 
L 192.922213 166.02265 
L 193.959448 176.236741 
L 194.996683 181.270823 
L 196.033918 170.498921 
L 197.071153 169.809901 
L 198.108388 162.76413 
L 199.145623 214.975234 
L 200.182858 163.219161 
L 201.220093 194.439639 
L 202.257328 169.721882 
L 203.294563 167.967023 
L 204.331798 168.047554 
L 205.369033 165.986321 
L 207.443503 171.763499 
L 208.480738 173.717644 
L 209.517973 172.014453 
L 210.555208 165.957855 
L 211.592443 169.171483 
L 212.629678 181.565717 
L 213.666913 167.168479 
L 214.704148 211.410797 
L 215.741383 164.763216 
L 216.778617 192.478518 
L 217.815852 172.596627 
L 218.853087 166.711889 
L 219.890322 182.541631 
L 220.927557 166.95661 
L 221.964792 180.480583 
L 223.002027 171.486683 
L 224.039262 194.264731 
L 225.076497 169.22554 
L 226.113732 172.152382 
L 227.150967 168.003347 
L 228.188202 168.706757 
L 229.225437 178.09439 
L 230.262672 173.215343 
L 231.299907 169.60958 
L 232.337142 172.062384 
L 233.374377 165.708729 
L 234.411612 181.209195 
L 235.448847 169.312167 
L 236.486082 172.203362 
L 237.523317 172.088816 
L 238.560552 173.438185 
L 239.597787 192.274355 
L 240.635022 165.725022 
L 241.672257 170.647913 
L 242.709492 177.68559 
L 243.746727 168.912002 
L 244.783962 170.705558 
L 245.821197 209.674796 
L 246.858432 163.712319 
L 247.895667 168.929654 
L 248.932902 168.101888 
L 249.970137 184.419501 
L 251.007371 163.790509 
L 252.044606 180.053992 
L 253.081841 168.920455 
L 254.119076 177.56148 
L 255.156311 183.678271 
L 256.193546 166.46104 
L 257.230781 169.251015 
L 258.268016 168.727325 
L 259.305251 169.370501 
L 260.342486 171.369748 
L 261.379721 165.253044 
L 262.416956 172.51706 
L 263.454191 165.679322 
L 264.491426 176.530462 
L 265.528661 162.70475 
L 266.565896 178.51034 
L 267.603131 174.37697 
L 268.640366 167.755397 
L 269.677601 165.991857 
L 270.714836 171.88967 
L 271.752071 173.676971 
L 272.789306 167.49157 
L 273.826541 165.539308 
L 274.863776 170.708818 
L 275.901011 181.342867 
L 276.938246 168.306016 
L 277.975481 171.834667 
L 279.012716 165.582715 
L 280.049951 212.88229 
L 281.087186 170.60356 
L 282.124421 178.281671 
L 283.161656 184.185145 
L 284.198891 165.473518 
L 285.236125 175.665998 
L 286.27336 170.10773 
L 287.310595 184.421358 
L 288.34783 165.214559 
L 289.385065 235.563658 
L 290.4223 160.80921 
L 291.459535 230.786231 
L 292.49677 161.568186 
L 293.534005 197.657838 
L 294.57124 165.320963 
L 295.608475 174.595906 
L 296.64571 170.095788 
L 297.682945 173.383155 
L 298.72018 171.486885 
L 299.757415 189.793439 
L 300.79465 162.746801 
L 301.831885 189.883872 
L 302.86912 159.631174 
L 303.906355 191.374595 
L 304.94359 166.513842 
L 305.980825 210.112722 
L 307.01806 176.24978 
L 308.055295 164.984706 
L 309.09253 170.69353 
L 310.129765 165.038732 
L 311.167 172.697403 
L 312.204235 171.426105 
L 313.24147 175.402837 
L 314.278705 165.419078 
L 315.31594 172.273158 
L 316.353175 164.199239 
L 317.39041 209.414634 
L 318.427644 175.277986 
L 319.464879 176.958913 
L 320.502114 191.384824 
L 321.539349 167.278456 
L 322.576584 184.722547 
L 323.613819 165.21905 
L 324.651054 173.265782 
L 325.688289 176.865001 
L 327.762759 166.242653 
L 328.799994 178.831869 
L 329.837229 181.194945 
L 330.874464 163.990635 
L 331.911699 167.538084 
L 332.948934 184.551783 
L 333.986169 167.564684 
L 335.023404 171.649396 
L 336.060639 165.490482 
L 337.097874 181.017095 
L 338.135109 165.588217 
L 339.172344 188.171144 
L 340.209579 173.68199 
L 341.246814 182.929364 
L 342.284049 165.174114 
L 343.321284 186.691023 
L 344.358519 165.133292 
L 345.395754 171.474194 
L 346.432989 167.665351 
L 347.470224 175.862091 
L 348.507459 172.687078 
L 349.544694 178.318242 
L 350.581929 175.400418 
L 351.619164 173.005649 
L 352.656398 164.835098 
L 353.693633 167.380345 
L 354.730868 173.493706 
L 355.768103 172.311003 
L 356.805338 167.128206 
L 357.842573 178.338287 
L 358.879808 163.797285 
L 359.917043 177.484085 
L 360.954278 171.559451 
L 361.991513 181.782298 
L 363.028748 171.481207 
L 364.065983 167.17285 
L 365.103218 182.327629 
L 366.140453 165.355561 
L 367.177688 169.46925 
L 368.214923 168.638606 
L 369.252158 167.404935 
L 370.289393 178.646808 
L 371.326628 167.285712 
L 372.363863 167.681824 
L 373.401098 166.396256 
L 374.438333 193.30284 
L 375.475568 170.647591 
L 376.512803 177.065381 
L 376.517836 311.86825 
L 376.517836 311.86825 
" style="fill:none;stroke:#1f77b4;stroke-linecap:square;stroke-width:1.5;"/>
    <defs>
     <path d="M 0 3 
C 0.795609 3 1.55874 2.683901 2.12132 2.12132 
C 2.683901 1.55874 3 0.795609 3 0 
C 3 -0.795609 2.683901 -1.55874 2.12132 -2.12132 
C 1.55874 -2.683901 0.795609 -3 0 -3 
C -0.795609 -3 -1.55874 -2.683901 -2.12132 -2.12132 
C -2.683901 -1.55874 -3 -0.795609 -3 0 
C -3 0.795609 -2.683901 1.55874 -2.12132 2.12132 
C -1.55874 2.683901 -0.795609 3 0 3 
z
" id="m23e584b290" style="stroke:#1f77b4;"/>
    </defs>
    <g clip-path="url(#p5d09cc4fee)">
     <use style="fill:#1f77b4;stroke:#1f77b4;" x="53.932727" xlink:href="#m23e584b290" y="33.78767"/>
     <use style="fill:#1f77b4;stroke:#1f77b4;" x="54.969962" xlink:href="#m23e584b290" y="23.154229"/>
     <use style="fill:#1f77b4;stroke:#1f77b4;" x="56.007197" xlink:href="#m23e584b290" y="24.588451"/>
     <use style="fill:#1f77b4;stroke:#1f77b4;" x="57.044432" xlink:href="#m23e584b290" y="38.509125"/>
     <use style="fill:#1f77b4;stroke:#1f77b4;" x="58.081667" xlink:href="#m23e584b290" y="31.505107"/>
     <use style="fill:#1f77b4;stroke:#1f77b4;" x="59.118902" xlink:href="#m23e584b290" y="45.51379"/>
     <use style="fill:#1f77b4;stroke:#1f77b4;" x="60.156137" xlink:href="#m23e584b290" y="19.296"/>
     <use style="fill:#1f77b4;stroke:#1f77b4;" x="61.193372" xlink:href="#m23e584b290" y="43.179471"/>
     <use style="fill:#1f77b4;stroke:#1f77b4;" x="62.230607" xlink:href="#m23e584b290" y="48.868914"/>
     <use style="fill:#1f77b4;stroke:#1f77b4;" x="63.267842" xlink:href="#m23e584b290" y="57.922134"/>
     <use style="fill:#1f77b4;stroke:#1f77b4;" x="64.305077" xlink:href="#m23e584b290" y="67.600197"/>
     <use style="fill:#1f77b4;stroke:#1f77b4;" x="65.342312" xlink:href="#m23e584b290" y="76.479951"/>
     <use style="fill:#1f77b4;stroke:#1f77b4;" x="66.379547" xlink:href="#m23e584b290" y="86.277585"/>
     <use style="fill:#1f77b4;stroke:#1f77b4;" x="67.416782" xlink:href="#m23e584b290" y="95.638034"/>
     <use style="fill:#1f77b4;stroke:#1f77b4;" x="68.454017" xlink:href="#m23e584b290" y="105.73611"/>
     <use style="fill:#1f77b4;stroke:#1f77b4;" x="69.491252" xlink:href="#m23e584b290" y="115.897802"/>
     <use style="fill:#1f77b4;stroke:#1f77b4;" x="70.528487" xlink:href="#m23e584b290" y="127.971884"/>
     <use style="fill:#1f77b4;stroke:#1f77b4;" x="71.565722" xlink:href="#m23e584b290" y="140.557152"/>
     <use style="fill:#1f77b4;stroke:#1f77b4;" x="72.602957" xlink:href="#m23e584b290" y="178.63859"/>
     <use style="fill:#1f77b4;stroke:#1f77b4;" x="73.640192" xlink:href="#m23e584b290" y="159.137262"/>
     <use style="fill:#1f77b4;stroke:#1f77b4;" x="74.677427" xlink:href="#m23e584b290" y="150.734563"/>
     <use style="fill:#1f77b4;stroke:#1f77b4;" x="75.714662" xlink:href="#m23e584b290" y="156.838773"/>
     <use style="fill:#1f77b4;stroke:#1f77b4;" x="76.751897" xlink:href="#m23e584b290" y="153.330435"/>
     <use style="fill:#1f77b4;stroke:#1f77b4;" x="77.789132" xlink:href="#m23e584b290" y="163.71996"/>
     <use style="fill:#1f77b4;stroke:#1f77b4;" x="78.826367" xlink:href="#m23e584b290" y="154.349151"/>
     <use style="fill:#1f77b4;stroke:#1f77b4;" x="79.863602" xlink:href="#m23e584b290" y="163.513195"/>
     <use style="fill:#1f77b4;stroke:#1f77b4;" x="80.900836" xlink:href="#m23e584b290" y="159.37101"/>
     <use style="fill:#1f77b4;stroke:#1f77b4;" x="81.938071" xlink:href="#m23e584b290" y="164.931816"/>
     <use style="fill:#1f77b4;stroke:#1f77b4;" x="82.975306" xlink:href="#m23e584b290" y="158.856097"/>
     <use style="fill:#1f77b4;stroke:#1f77b4;" x="84.012541" xlink:href="#m23e584b290" y="202.259802"/>
     <use style="fill:#1f77b4;stroke:#1f77b4;" x="85.049776" xlink:href="#m23e584b290" y="158.549443"/>
     <use style="fill:#1f77b4;stroke:#1f77b4;" x="86.087011" xlink:href="#m23e584b290" y="193.982132"/>
     <use style="fill:#1f77b4;stroke:#1f77b4;" x="87.124246" xlink:href="#m23e584b290" y="165.92627"/>
     <use style="fill:#1f77b4;stroke:#1f77b4;" x="88.161481" xlink:href="#m23e584b290" y="174.077192"/>
     <use style="fill:#1f77b4;stroke:#1f77b4;" x="89.198716" xlink:href="#m23e584b290" y="164.423335"/>
     <use style="fill:#1f77b4;stroke:#1f77b4;" x="90.235951" xlink:href="#m23e584b290" y="184.897822"/>
     <use style="fill:#1f77b4;stroke:#1f77b4;" x="91.273186" xlink:href="#m23e584b290" y="183.646598"/>
     <use style="fill:#1f77b4;stroke:#1f77b4;" x="92.310421" xlink:href="#m23e584b290" y="166.732014"/>
     <use style="fill:#1f77b4;stroke:#1f77b4;" x="93.347656" xlink:href="#m23e584b290" y="179.919658"/>
     <use style="fill:#1f77b4;stroke:#1f77b4;" x="94.384891" xlink:href="#m23e584b290" y="177.466382"/>
     <use style="fill:#1f77b4;stroke:#1f77b4;" x="95.422126" xlink:href="#m23e584b290" y="195.188802"/>
     <use style="fill:#1f77b4;stroke:#1f77b4;" x="96.459361" xlink:href="#m23e584b290" y="163.951827"/>
     <use style="fill:#1f77b4;stroke:#1f77b4;" x="97.496596" xlink:href="#m23e584b290" y="180.627038"/>
     <use style="fill:#1f77b4;stroke:#1f77b4;" x="98.533831" xlink:href="#m23e584b290" y="159.246978"/>
     <use style="fill:#1f77b4;stroke:#1f77b4;" x="99.571066" xlink:href="#m23e584b290" y="220.21871"/>
     <use style="fill:#1f77b4;stroke:#1f77b4;" x="100.608301" xlink:href="#m23e584b290" y="160.567987"/>
     <use style="fill:#1f77b4;stroke:#1f77b4;" x="101.645536" xlink:href="#m23e584b290" y="181.727972"/>
     <use style="fill:#1f77b4;stroke:#1f77b4;" x="102.682771" xlink:href="#m23e584b290" y="171.735325"/>
     <use style="fill:#1f77b4;stroke:#1f77b4;" x="103.720006" xlink:href="#m23e584b290" y="178.425239"/>
     <use style="fill:#1f77b4;stroke:#1f77b4;" x="104.757241" xlink:href="#m23e584b290" y="164.26194"/>
     <use style="fill:#1f77b4;stroke:#1f77b4;" x="105.794476" xlink:href="#m23e584b290" y="193.682016"/>
     <use style="fill:#1f77b4;stroke:#1f77b4;" x="106.831711" xlink:href="#m23e584b290" y="162.819728"/>
     <use style="fill:#1f77b4;stroke:#1f77b4;" x="107.868946" xlink:href="#m23e584b290" y="261.216"/>
     <use style="fill:#1f77b4;stroke:#1f77b4;" x="108.906181" xlink:href="#m23e584b290" y="168.994879"/>
     <use style="fill:#1f77b4;stroke:#1f77b4;" x="109.943416" xlink:href="#m23e584b290" y="177.024776"/>
     <use style="fill:#1f77b4;stroke:#1f77b4;" x="110.980651" xlink:href="#m23e584b290" y="165.273845"/>
     <use style="fill:#1f77b4;stroke:#1f77b4;" x="112.017886" xlink:href="#m23e584b290" y="202.438663"/>
     <use style="fill:#1f77b4;stroke:#1f77b4;" x="113.055121" xlink:href="#m23e584b290" y="164.011223"/>
     <use style="fill:#1f77b4;stroke:#1f77b4;" x="114.092356" xlink:href="#m23e584b290" y="173.927609"/>
     <use style="fill:#1f77b4;stroke:#1f77b4;" x="115.12959" xlink:href="#m23e584b290" y="165.899222"/>
     <use style="fill:#1f77b4;stroke:#1f77b4;" x="116.166825" xlink:href="#m23e584b290" y="178.206183"/>
     <use style="fill:#1f77b4;stroke:#1f77b4;" x="117.20406" xlink:href="#m23e584b290" y="163.516326"/>
     <use style="fill:#1f77b4;stroke:#1f77b4;" x="118.241295" xlink:href="#m23e584b290" y="190.361716"/>
     <use style="fill:#1f77b4;stroke:#1f77b4;" x="119.27853" xlink:href="#m23e584b290" y="168.941971"/>
     <use style="fill:#1f77b4;stroke:#1f77b4;" x="120.315765" xlink:href="#m23e584b290" y="165.465525"/>
     <use style="fill:#1f77b4;stroke:#1f77b4;" x="121.353" xlink:href="#m23e584b290" y="170.354597"/>
     <use style="fill:#1f77b4;stroke:#1f77b4;" x="122.390235" xlink:href="#m23e584b290" y="174.658145"/>
     <use style="fill:#1f77b4;stroke:#1f77b4;" x="123.42747" xlink:href="#m23e584b290" y="179.291395"/>
     <use style="fill:#1f77b4;stroke:#1f77b4;" x="124.464705" xlink:href="#m23e584b290" y="175.877174"/>
     <use style="fill:#1f77b4;stroke:#1f77b4;" x="125.50194" xlink:href="#m23e584b290" y="166.914349"/>
     <use style="fill:#1f77b4;stroke:#1f77b4;" x="126.539175" xlink:href="#m23e584b290" y="177.473229"/>
     <use style="fill:#1f77b4;stroke:#1f77b4;" x="127.57641" xlink:href="#m23e584b290" y="170.967511"/>
     <use style="fill:#1f77b4;stroke:#1f77b4;" x="128.613645" xlink:href="#m23e584b290" y="166.226805"/>
     <use style="fill:#1f77b4;stroke:#1f77b4;" x="129.65088" xlink:href="#m23e584b290" y="173.667376"/>
     <use style="fill:#1f77b4;stroke:#1f77b4;" x="130.688115" xlink:href="#m23e584b290" y="179.746115"/>
     <use style="fill:#1f77b4;stroke:#1f77b4;" x="131.72535" xlink:href="#m23e584b290" y="164.468909"/>
     <use style="fill:#1f77b4;stroke:#1f77b4;" x="132.762585" xlink:href="#m23e584b290" y="170.055085"/>
     <use style="fill:#1f77b4;stroke:#1f77b4;" x="133.79982" xlink:href="#m23e584b290" y="175.433902"/>
     <use style="fill:#1f77b4;stroke:#1f77b4;" x="134.837055" xlink:href="#m23e584b290" y="171.46707"/>
     <use style="fill:#1f77b4;stroke:#1f77b4;" x="135.87429" xlink:href="#m23e584b290" y="172.481914"/>
     <use style="fill:#1f77b4;stroke:#1f77b4;" x="136.911525" xlink:href="#m23e584b290" y="168.978508"/>
     <use style="fill:#1f77b4;stroke:#1f77b4;" x="137.94876" xlink:href="#m23e584b290" y="177.749381"/>
     <use style="fill:#1f77b4;stroke:#1f77b4;" x="138.985995" xlink:href="#m23e584b290" y="164.675369"/>
     <use style="fill:#1f77b4;stroke:#1f77b4;" x="140.02323" xlink:href="#m23e584b290" y="181.031382"/>
     <use style="fill:#1f77b4;stroke:#1f77b4;" x="141.060465" xlink:href="#m23e584b290" y="179.143048"/>
     <use style="fill:#1f77b4;stroke:#1f77b4;" x="142.0977" xlink:href="#m23e584b290" y="179.075874"/>
     <use style="fill:#1f77b4;stroke:#1f77b4;" x="143.134935" xlink:href="#m23e584b290" y="173.037821"/>
     <use style="fill:#1f77b4;stroke:#1f77b4;" x="144.17217" xlink:href="#m23e584b290" y="168.442083"/>
     <use style="fill:#1f77b4;stroke:#1f77b4;" x="145.209405" xlink:href="#m23e584b290" y="164.339623"/>
     <use style="fill:#1f77b4;stroke:#1f77b4;" x="146.24664" xlink:href="#m23e584b290" y="212.896605"/>
     <use style="fill:#1f77b4;stroke:#1f77b4;" x="147.283875" xlink:href="#m23e584b290" y="169.188765"/>
     <use style="fill:#1f77b4;stroke:#1f77b4;" x="148.321109" xlink:href="#m23e584b290" y="181.952238"/>
     <use style="fill:#1f77b4;stroke:#1f77b4;" x="149.358344" xlink:href="#m23e584b290" y="170.523425"/>
     <use style="fill:#1f77b4;stroke:#1f77b4;" x="150.395579" xlink:href="#m23e584b290" y="173.072398"/>
     <use style="fill:#1f77b4;stroke:#1f77b4;" x="151.432814" xlink:href="#m23e584b290" y="166.480615"/>
     <use style="fill:#1f77b4;stroke:#1f77b4;" x="152.470049" xlink:href="#m23e584b290" y="173.76376"/>
     <use style="fill:#1f77b4;stroke:#1f77b4;" x="153.507284" xlink:href="#m23e584b290" y="169.59871"/>
     <use style="fill:#1f77b4;stroke:#1f77b4;" x="154.544519" xlink:href="#m23e584b290" y="171.178616"/>
     <use style="fill:#1f77b4;stroke:#1f77b4;" x="155.581754" xlink:href="#m23e584b290" y="164.932736"/>
     <use style="fill:#1f77b4;stroke:#1f77b4;" x="156.618989" xlink:href="#m23e584b290" y="168.478585"/>
     <use style="fill:#1f77b4;stroke:#1f77b4;" x="157.656224" xlink:href="#m23e584b290" y="167.415005"/>
     <use style="fill:#1f77b4;stroke:#1f77b4;" x="158.693459" xlink:href="#m23e584b290" y="172.521183"/>
     <use style="fill:#1f77b4;stroke:#1f77b4;" x="159.730694" xlink:href="#m23e584b290" y="174.621598"/>
     <use style="fill:#1f77b4;stroke:#1f77b4;" x="160.767929" xlink:href="#m23e584b290" y="177.476475"/>
     <use style="fill:#1f77b4;stroke:#1f77b4;" x="161.805164" xlink:href="#m23e584b290" y="166.689032"/>
     <use style="fill:#1f77b4;stroke:#1f77b4;" x="162.842399" xlink:href="#m23e584b290" y="178.907425"/>
     <use style="fill:#1f77b4;stroke:#1f77b4;" x="163.879634" xlink:href="#m23e584b290" y="176.263462"/>
     <use style="fill:#1f77b4;stroke:#1f77b4;" x="164.916869" xlink:href="#m23e584b290" y="172.036577"/>
     <use style="fill:#1f77b4;stroke:#1f77b4;" x="165.954104" xlink:href="#m23e584b290" y="200.419168"/>
     <use style="fill:#1f77b4;stroke:#1f77b4;" x="166.991339" xlink:href="#m23e584b290" y="163.400136"/>
     <use style="fill:#1f77b4;stroke:#1f77b4;" x="168.028574" xlink:href="#m23e584b290" y="177.190259"/>
     <use style="fill:#1f77b4;stroke:#1f77b4;" x="169.065809" xlink:href="#m23e584b290" y="171.872709"/>
     <use style="fill:#1f77b4;stroke:#1f77b4;" x="170.103044" xlink:href="#m23e584b290" y="174.267302"/>
     <use style="fill:#1f77b4;stroke:#1f77b4;" x="171.140279" xlink:href="#m23e584b290" y="164.924106"/>
     <use style="fill:#1f77b4;stroke:#1f77b4;" x="172.177514" xlink:href="#m23e584b290" y="181.210664"/>
     <use style="fill:#1f77b4;stroke:#1f77b4;" x="173.214749" xlink:href="#m23e584b290" y="165.376146"/>
     <use style="fill:#1f77b4;stroke:#1f77b4;" x="174.251984" xlink:href="#m23e584b290" y="171.146027"/>
     <use style="fill:#1f77b4;stroke:#1f77b4;" x="175.289219" xlink:href="#m23e584b290" y="175.084757"/>
     <use style="fill:#1f77b4;stroke:#1f77b4;" x="176.326454" xlink:href="#m23e584b290" y="168.117337"/>
     <use style="fill:#1f77b4;stroke:#1f77b4;" x="177.363689" xlink:href="#m23e584b290" y="204.037666"/>
     <use style="fill:#1f77b4;stroke:#1f77b4;" x="178.400924" xlink:href="#m23e584b290" y="171.375813"/>
     <use style="fill:#1f77b4;stroke:#1f77b4;" x="179.438159" xlink:href="#m23e584b290" y="167.126721"/>
     <use style="fill:#1f77b4;stroke:#1f77b4;" x="180.475394" xlink:href="#m23e584b290" y="166.6226"/>
     <use style="fill:#1f77b4;stroke:#1f77b4;" x="181.512629" xlink:href="#m23e584b290" y="168.800912"/>
     <use style="fill:#1f77b4;stroke:#1f77b4;" x="182.549863" xlink:href="#m23e584b290" y="179.118126"/>
     <use style="fill:#1f77b4;stroke:#1f77b4;" x="183.587098" xlink:href="#m23e584b290" y="180.615782"/>
     <use style="fill:#1f77b4;stroke:#1f77b4;" x="184.624333" xlink:href="#m23e584b290" y="164.137419"/>
     <use style="fill:#1f77b4;stroke:#1f77b4;" x="185.661568" xlink:href="#m23e584b290" y="165.588734"/>
     <use style="fill:#1f77b4;stroke:#1f77b4;" x="186.698803" xlink:href="#m23e584b290" y="167.49639"/>
     <use style="fill:#1f77b4;stroke:#1f77b4;" x="187.736038" xlink:href="#m23e584b290" y="169.9085"/>
     <use style="fill:#1f77b4;stroke:#1f77b4;" x="188.773273" xlink:href="#m23e584b290" y="175.036689"/>
     <use style="fill:#1f77b4;stroke:#1f77b4;" x="189.810508" xlink:href="#m23e584b290" y="170.83264"/>
     <use style="fill:#1f77b4;stroke:#1f77b4;" x="190.847743" xlink:href="#m23e584b290" y="164.959568"/>
     <use style="fill:#1f77b4;stroke:#1f77b4;" x="191.884978" xlink:href="#m23e584b290" y="168.853674"/>
     <use style="fill:#1f77b4;stroke:#1f77b4;" x="192.922213" xlink:href="#m23e584b290" y="166.02265"/>
     <use style="fill:#1f77b4;stroke:#1f77b4;" x="193.959448" xlink:href="#m23e584b290" y="176.236741"/>
     <use style="fill:#1f77b4;stroke:#1f77b4;" x="194.996683" xlink:href="#m23e584b290" y="181.270823"/>
     <use style="fill:#1f77b4;stroke:#1f77b4;" x="196.033918" xlink:href="#m23e584b290" y="170.498921"/>
     <use style="fill:#1f77b4;stroke:#1f77b4;" x="197.071153" xlink:href="#m23e584b290" y="169.809901"/>
     <use style="fill:#1f77b4;stroke:#1f77b4;" x="198.108388" xlink:href="#m23e584b290" y="162.76413"/>
     <use style="fill:#1f77b4;stroke:#1f77b4;" x="199.145623" xlink:href="#m23e584b290" y="214.975234"/>
     <use style="fill:#1f77b4;stroke:#1f77b4;" x="200.182858" xlink:href="#m23e584b290" y="163.219161"/>
     <use style="fill:#1f77b4;stroke:#1f77b4;" x="201.220093" xlink:href="#m23e584b290" y="194.439639"/>
     <use style="fill:#1f77b4;stroke:#1f77b4;" x="202.257328" xlink:href="#m23e584b290" y="169.721882"/>
     <use style="fill:#1f77b4;stroke:#1f77b4;" x="203.294563" xlink:href="#m23e584b290" y="167.967023"/>
     <use style="fill:#1f77b4;stroke:#1f77b4;" x="204.331798" xlink:href="#m23e584b290" y="168.047554"/>
     <use style="fill:#1f77b4;stroke:#1f77b4;" x="205.369033" xlink:href="#m23e584b290" y="165.986321"/>
     <use style="fill:#1f77b4;stroke:#1f77b4;" x="206.406268" xlink:href="#m23e584b290" y="168.738621"/>
     <use style="fill:#1f77b4;stroke:#1f77b4;" x="207.443503" xlink:href="#m23e584b290" y="171.763499"/>
     <use style="fill:#1f77b4;stroke:#1f77b4;" x="208.480738" xlink:href="#m23e584b290" y="173.717644"/>
     <use style="fill:#1f77b4;stroke:#1f77b4;" x="209.517973" xlink:href="#m23e584b290" y="172.014453"/>
     <use style="fill:#1f77b4;stroke:#1f77b4;" x="210.555208" xlink:href="#m23e584b290" y="165.957855"/>
     <use style="fill:#1f77b4;stroke:#1f77b4;" x="211.592443" xlink:href="#m23e584b290" y="169.171483"/>
     <use style="fill:#1f77b4;stroke:#1f77b4;" x="212.629678" xlink:href="#m23e584b290" y="181.565717"/>
     <use style="fill:#1f77b4;stroke:#1f77b4;" x="213.666913" xlink:href="#m23e584b290" y="167.168479"/>
     <use style="fill:#1f77b4;stroke:#1f77b4;" x="214.704148" xlink:href="#m23e584b290" y="211.410797"/>
     <use style="fill:#1f77b4;stroke:#1f77b4;" x="215.741383" xlink:href="#m23e584b290" y="164.763216"/>
     <use style="fill:#1f77b4;stroke:#1f77b4;" x="216.778617" xlink:href="#m23e584b290" y="192.478518"/>
     <use style="fill:#1f77b4;stroke:#1f77b4;" x="217.815852" xlink:href="#m23e584b290" y="172.596627"/>
     <use style="fill:#1f77b4;stroke:#1f77b4;" x="218.853087" xlink:href="#m23e584b290" y="166.711889"/>
     <use style="fill:#1f77b4;stroke:#1f77b4;" x="219.890322" xlink:href="#m23e584b290" y="182.541631"/>
     <use style="fill:#1f77b4;stroke:#1f77b4;" x="220.927557" xlink:href="#m23e584b290" y="166.95661"/>
     <use style="fill:#1f77b4;stroke:#1f77b4;" x="221.964792" xlink:href="#m23e584b290" y="180.480583"/>
     <use style="fill:#1f77b4;stroke:#1f77b4;" x="223.002027" xlink:href="#m23e584b290" y="171.486683"/>
     <use style="fill:#1f77b4;stroke:#1f77b4;" x="224.039262" xlink:href="#m23e584b290" y="194.264731"/>
     <use style="fill:#1f77b4;stroke:#1f77b4;" x="225.076497" xlink:href="#m23e584b290" y="169.22554"/>
     <use style="fill:#1f77b4;stroke:#1f77b4;" x="226.113732" xlink:href="#m23e584b290" y="172.152382"/>
     <use style="fill:#1f77b4;stroke:#1f77b4;" x="227.150967" xlink:href="#m23e584b290" y="168.003347"/>
     <use style="fill:#1f77b4;stroke:#1f77b4;" x="228.188202" xlink:href="#m23e584b290" y="168.706757"/>
     <use style="fill:#1f77b4;stroke:#1f77b4;" x="229.225437" xlink:href="#m23e584b290" y="178.09439"/>
     <use style="fill:#1f77b4;stroke:#1f77b4;" x="230.262672" xlink:href="#m23e584b290" y="173.215343"/>
     <use style="fill:#1f77b4;stroke:#1f77b4;" x="231.299907" xlink:href="#m23e584b290" y="169.60958"/>
     <use style="fill:#1f77b4;stroke:#1f77b4;" x="232.337142" xlink:href="#m23e584b290" y="172.062384"/>
     <use style="fill:#1f77b4;stroke:#1f77b4;" x="233.374377" xlink:href="#m23e584b290" y="165.708729"/>
     <use style="fill:#1f77b4;stroke:#1f77b4;" x="234.411612" xlink:href="#m23e584b290" y="181.209195"/>
     <use style="fill:#1f77b4;stroke:#1f77b4;" x="235.448847" xlink:href="#m23e584b290" y="169.312167"/>
     <use style="fill:#1f77b4;stroke:#1f77b4;" x="236.486082" xlink:href="#m23e584b290" y="172.203362"/>
     <use style="fill:#1f77b4;stroke:#1f77b4;" x="237.523317" xlink:href="#m23e584b290" y="172.088816"/>
     <use style="fill:#1f77b4;stroke:#1f77b4;" x="238.560552" xlink:href="#m23e584b290" y="173.438185"/>
     <use style="fill:#1f77b4;stroke:#1f77b4;" x="239.597787" xlink:href="#m23e584b290" y="192.274355"/>
     <use style="fill:#1f77b4;stroke:#1f77b4;" x="240.635022" xlink:href="#m23e584b290" y="165.725022"/>
     <use style="fill:#1f77b4;stroke:#1f77b4;" x="241.672257" xlink:href="#m23e584b290" y="170.647913"/>
     <use style="fill:#1f77b4;stroke:#1f77b4;" x="242.709492" xlink:href="#m23e584b290" y="177.68559"/>
     <use style="fill:#1f77b4;stroke:#1f77b4;" x="243.746727" xlink:href="#m23e584b290" y="168.912002"/>
     <use style="fill:#1f77b4;stroke:#1f77b4;" x="244.783962" xlink:href="#m23e584b290" y="170.705558"/>
     <use style="fill:#1f77b4;stroke:#1f77b4;" x="245.821197" xlink:href="#m23e584b290" y="209.674796"/>
     <use style="fill:#1f77b4;stroke:#1f77b4;" x="246.858432" xlink:href="#m23e584b290" y="163.712319"/>
     <use style="fill:#1f77b4;stroke:#1f77b4;" x="247.895667" xlink:href="#m23e584b290" y="168.929654"/>
     <use style="fill:#1f77b4;stroke:#1f77b4;" x="248.932902" xlink:href="#m23e584b290" y="168.101888"/>
     <use style="fill:#1f77b4;stroke:#1f77b4;" x="249.970137" xlink:href="#m23e584b290" y="184.419501"/>
     <use style="fill:#1f77b4;stroke:#1f77b4;" x="251.007371" xlink:href="#m23e584b290" y="163.790509"/>
     <use style="fill:#1f77b4;stroke:#1f77b4;" x="252.044606" xlink:href="#m23e584b290" y="180.053992"/>
     <use style="fill:#1f77b4;stroke:#1f77b4;" x="253.081841" xlink:href="#m23e584b290" y="168.920455"/>
     <use style="fill:#1f77b4;stroke:#1f77b4;" x="254.119076" xlink:href="#m23e584b290" y="177.56148"/>
     <use style="fill:#1f77b4;stroke:#1f77b4;" x="255.156311" xlink:href="#m23e584b290" y="183.678271"/>
     <use style="fill:#1f77b4;stroke:#1f77b4;" x="256.193546" xlink:href="#m23e584b290" y="166.46104"/>
     <use style="fill:#1f77b4;stroke:#1f77b4;" x="257.230781" xlink:href="#m23e584b290" y="169.251015"/>
     <use style="fill:#1f77b4;stroke:#1f77b4;" x="258.268016" xlink:href="#m23e584b290" y="168.727325"/>
     <use style="fill:#1f77b4;stroke:#1f77b4;" x="259.305251" xlink:href="#m23e584b290" y="169.370501"/>
     <use style="fill:#1f77b4;stroke:#1f77b4;" x="260.342486" xlink:href="#m23e584b290" y="171.369748"/>
     <use style="fill:#1f77b4;stroke:#1f77b4;" x="261.379721" xlink:href="#m23e584b290" y="165.253044"/>
     <use style="fill:#1f77b4;stroke:#1f77b4;" x="262.416956" xlink:href="#m23e584b290" y="172.51706"/>
     <use style="fill:#1f77b4;stroke:#1f77b4;" x="263.454191" xlink:href="#m23e584b290" y="165.679322"/>
     <use style="fill:#1f77b4;stroke:#1f77b4;" x="264.491426" xlink:href="#m23e584b290" y="176.530462"/>
     <use style="fill:#1f77b4;stroke:#1f77b4;" x="265.528661" xlink:href="#m23e584b290" y="162.70475"/>
     <use style="fill:#1f77b4;stroke:#1f77b4;" x="266.565896" xlink:href="#m23e584b290" y="178.51034"/>
     <use style="fill:#1f77b4;stroke:#1f77b4;" x="267.603131" xlink:href="#m23e584b290" y="174.37697"/>
     <use style="fill:#1f77b4;stroke:#1f77b4;" x="268.640366" xlink:href="#m23e584b290" y="167.755397"/>
     <use style="fill:#1f77b4;stroke:#1f77b4;" x="269.677601" xlink:href="#m23e584b290" y="165.991857"/>
     <use style="fill:#1f77b4;stroke:#1f77b4;" x="270.714836" xlink:href="#m23e584b290" y="171.88967"/>
     <use style="fill:#1f77b4;stroke:#1f77b4;" x="271.752071" xlink:href="#m23e584b290" y="173.676971"/>
     <use style="fill:#1f77b4;stroke:#1f77b4;" x="272.789306" xlink:href="#m23e584b290" y="167.49157"/>
     <use style="fill:#1f77b4;stroke:#1f77b4;" x="273.826541" xlink:href="#m23e584b290" y="165.539308"/>
     <use style="fill:#1f77b4;stroke:#1f77b4;" x="274.863776" xlink:href="#m23e584b290" y="170.708818"/>
     <use style="fill:#1f77b4;stroke:#1f77b4;" x="275.901011" xlink:href="#m23e584b290" y="181.342867"/>
     <use style="fill:#1f77b4;stroke:#1f77b4;" x="276.938246" xlink:href="#m23e584b290" y="168.306016"/>
     <use style="fill:#1f77b4;stroke:#1f77b4;" x="277.975481" xlink:href="#m23e584b290" y="171.834667"/>
     <use style="fill:#1f77b4;stroke:#1f77b4;" x="279.012716" xlink:href="#m23e584b290" y="165.582715"/>
     <use style="fill:#1f77b4;stroke:#1f77b4;" x="280.049951" xlink:href="#m23e584b290" y="212.88229"/>
     <use style="fill:#1f77b4;stroke:#1f77b4;" x="281.087186" xlink:href="#m23e584b290" y="170.60356"/>
     <use style="fill:#1f77b4;stroke:#1f77b4;" x="282.124421" xlink:href="#m23e584b290" y="178.281671"/>
     <use style="fill:#1f77b4;stroke:#1f77b4;" x="283.161656" xlink:href="#m23e584b290" y="184.185145"/>
     <use style="fill:#1f77b4;stroke:#1f77b4;" x="284.198891" xlink:href="#m23e584b290" y="165.473518"/>
     <use style="fill:#1f77b4;stroke:#1f77b4;" x="285.236125" xlink:href="#m23e584b290" y="175.665998"/>
     <use style="fill:#1f77b4;stroke:#1f77b4;" x="286.27336" xlink:href="#m23e584b290" y="170.10773"/>
     <use style="fill:#1f77b4;stroke:#1f77b4;" x="287.310595" xlink:href="#m23e584b290" y="184.421358"/>
     <use style="fill:#1f77b4;stroke:#1f77b4;" x="288.34783" xlink:href="#m23e584b290" y="165.214559"/>
     <use style="fill:#1f77b4;stroke:#1f77b4;" x="289.385065" xlink:href="#m23e584b290" y="235.563658"/>
     <use style="fill:#1f77b4;stroke:#1f77b4;" x="290.4223" xlink:href="#m23e584b290" y="160.80921"/>
     <use style="fill:#1f77b4;stroke:#1f77b4;" x="291.459535" xlink:href="#m23e584b290" y="230.786231"/>
     <use style="fill:#1f77b4;stroke:#1f77b4;" x="292.49677" xlink:href="#m23e584b290" y="161.568186"/>
     <use style="fill:#1f77b4;stroke:#1f77b4;" x="293.534005" xlink:href="#m23e584b290" y="197.657838"/>
     <use style="fill:#1f77b4;stroke:#1f77b4;" x="294.57124" xlink:href="#m23e584b290" y="165.320963"/>
     <use style="fill:#1f77b4;stroke:#1f77b4;" x="295.608475" xlink:href="#m23e584b290" y="174.595906"/>
     <use style="fill:#1f77b4;stroke:#1f77b4;" x="296.64571" xlink:href="#m23e584b290" y="170.095788"/>
     <use style="fill:#1f77b4;stroke:#1f77b4;" x="297.682945" xlink:href="#m23e584b290" y="173.383155"/>
     <use style="fill:#1f77b4;stroke:#1f77b4;" x="298.72018" xlink:href="#m23e584b290" y="171.486885"/>
     <use style="fill:#1f77b4;stroke:#1f77b4;" x="299.757415" xlink:href="#m23e584b290" y="189.793439"/>
     <use style="fill:#1f77b4;stroke:#1f77b4;" x="300.79465" xlink:href="#m23e584b290" y="162.746801"/>
     <use style="fill:#1f77b4;stroke:#1f77b4;" x="301.831885" xlink:href="#m23e584b290" y="189.883872"/>
     <use style="fill:#1f77b4;stroke:#1f77b4;" x="302.86912" xlink:href="#m23e584b290" y="159.631174"/>
     <use style="fill:#1f77b4;stroke:#1f77b4;" x="303.906355" xlink:href="#m23e584b290" y="191.374595"/>
     <use style="fill:#1f77b4;stroke:#1f77b4;" x="304.94359" xlink:href="#m23e584b290" y="166.513842"/>
     <use style="fill:#1f77b4;stroke:#1f77b4;" x="305.980825" xlink:href="#m23e584b290" y="210.112722"/>
     <use style="fill:#1f77b4;stroke:#1f77b4;" x="307.01806" xlink:href="#m23e584b290" y="176.24978"/>
     <use style="fill:#1f77b4;stroke:#1f77b4;" x="308.055295" xlink:href="#m23e584b290" y="164.984706"/>
     <use style="fill:#1f77b4;stroke:#1f77b4;" x="309.09253" xlink:href="#m23e584b290" y="170.69353"/>
     <use style="fill:#1f77b4;stroke:#1f77b4;" x="310.129765" xlink:href="#m23e584b290" y="165.038732"/>
     <use style="fill:#1f77b4;stroke:#1f77b4;" x="311.167" xlink:href="#m23e584b290" y="172.697403"/>
     <use style="fill:#1f77b4;stroke:#1f77b4;" x="312.204235" xlink:href="#m23e584b290" y="171.426105"/>
     <use style="fill:#1f77b4;stroke:#1f77b4;" x="313.24147" xlink:href="#m23e584b290" y="175.402837"/>
     <use style="fill:#1f77b4;stroke:#1f77b4;" x="314.278705" xlink:href="#m23e584b290" y="165.419078"/>
     <use style="fill:#1f77b4;stroke:#1f77b4;" x="315.31594" xlink:href="#m23e584b290" y="172.273158"/>
     <use style="fill:#1f77b4;stroke:#1f77b4;" x="316.353175" xlink:href="#m23e584b290" y="164.199239"/>
     <use style="fill:#1f77b4;stroke:#1f77b4;" x="317.39041" xlink:href="#m23e584b290" y="209.414634"/>
     <use style="fill:#1f77b4;stroke:#1f77b4;" x="318.427644" xlink:href="#m23e584b290" y="175.277986"/>
     <use style="fill:#1f77b4;stroke:#1f77b4;" x="319.464879" xlink:href="#m23e584b290" y="176.958913"/>
     <use style="fill:#1f77b4;stroke:#1f77b4;" x="320.502114" xlink:href="#m23e584b290" y="191.384824"/>
     <use style="fill:#1f77b4;stroke:#1f77b4;" x="321.539349" xlink:href="#m23e584b290" y="167.278456"/>
     <use style="fill:#1f77b4;stroke:#1f77b4;" x="322.576584" xlink:href="#m23e584b290" y="184.722547"/>
     <use style="fill:#1f77b4;stroke:#1f77b4;" x="323.613819" xlink:href="#m23e584b290" y="165.21905"/>
     <use style="fill:#1f77b4;stroke:#1f77b4;" x="324.651054" xlink:href="#m23e584b290" y="173.265782"/>
     <use style="fill:#1f77b4;stroke:#1f77b4;" x="325.688289" xlink:href="#m23e584b290" y="176.865001"/>
     <use style="fill:#1f77b4;stroke:#1f77b4;" x="326.725524" xlink:href="#m23e584b290" y="171.508377"/>
     <use style="fill:#1f77b4;stroke:#1f77b4;" x="327.762759" xlink:href="#m23e584b290" y="166.242653"/>
     <use style="fill:#1f77b4;stroke:#1f77b4;" x="328.799994" xlink:href="#m23e584b290" y="178.831869"/>
     <use style="fill:#1f77b4;stroke:#1f77b4;" x="329.837229" xlink:href="#m23e584b290" y="181.194945"/>
     <use style="fill:#1f77b4;stroke:#1f77b4;" x="330.874464" xlink:href="#m23e584b290" y="163.990635"/>
     <use style="fill:#1f77b4;stroke:#1f77b4;" x="331.911699" xlink:href="#m23e584b290" y="167.538084"/>
     <use style="fill:#1f77b4;stroke:#1f77b4;" x="332.948934" xlink:href="#m23e584b290" y="184.551783"/>
     <use style="fill:#1f77b4;stroke:#1f77b4;" x="333.986169" xlink:href="#m23e584b290" y="167.564684"/>
     <use style="fill:#1f77b4;stroke:#1f77b4;" x="335.023404" xlink:href="#m23e584b290" y="171.649396"/>
     <use style="fill:#1f77b4;stroke:#1f77b4;" x="336.060639" xlink:href="#m23e584b290" y="165.490482"/>
     <use style="fill:#1f77b4;stroke:#1f77b4;" x="337.097874" xlink:href="#m23e584b290" y="181.017095"/>
     <use style="fill:#1f77b4;stroke:#1f77b4;" x="338.135109" xlink:href="#m23e584b290" y="165.588217"/>
     <use style="fill:#1f77b4;stroke:#1f77b4;" x="339.172344" xlink:href="#m23e584b290" y="188.171144"/>
     <use style="fill:#1f77b4;stroke:#1f77b4;" x="340.209579" xlink:href="#m23e584b290" y="173.68199"/>
     <use style="fill:#1f77b4;stroke:#1f77b4;" x="341.246814" xlink:href="#m23e584b290" y="182.929364"/>
     <use style="fill:#1f77b4;stroke:#1f77b4;" x="342.284049" xlink:href="#m23e584b290" y="165.174114"/>
     <use style="fill:#1f77b4;stroke:#1f77b4;" x="343.321284" xlink:href="#m23e584b290" y="186.691023"/>
     <use style="fill:#1f77b4;stroke:#1f77b4;" x="344.358519" xlink:href="#m23e584b290" y="165.133292"/>
     <use style="fill:#1f77b4;stroke:#1f77b4;" x="345.395754" xlink:href="#m23e584b290" y="171.474194"/>
     <use style="fill:#1f77b4;stroke:#1f77b4;" x="346.432989" xlink:href="#m23e584b290" y="167.665351"/>
     <use style="fill:#1f77b4;stroke:#1f77b4;" x="347.470224" xlink:href="#m23e584b290" y="175.862091"/>
     <use style="fill:#1f77b4;stroke:#1f77b4;" x="348.507459" xlink:href="#m23e584b290" y="172.687078"/>
     <use style="fill:#1f77b4;stroke:#1f77b4;" x="349.544694" xlink:href="#m23e584b290" y="178.318242"/>
     <use style="fill:#1f77b4;stroke:#1f77b4;" x="350.581929" xlink:href="#m23e584b290" y="175.400418"/>
     <use style="fill:#1f77b4;stroke:#1f77b4;" x="351.619164" xlink:href="#m23e584b290" y="173.005649"/>
     <use style="fill:#1f77b4;stroke:#1f77b4;" x="352.656398" xlink:href="#m23e584b290" y="164.835098"/>
     <use style="fill:#1f77b4;stroke:#1f77b4;" x="353.693633" xlink:href="#m23e584b290" y="167.380345"/>
     <use style="fill:#1f77b4;stroke:#1f77b4;" x="354.730868" xlink:href="#m23e584b290" y="173.493706"/>
     <use style="fill:#1f77b4;stroke:#1f77b4;" x="355.768103" xlink:href="#m23e584b290" y="172.311003"/>
     <use style="fill:#1f77b4;stroke:#1f77b4;" x="356.805338" xlink:href="#m23e584b290" y="167.128206"/>
     <use style="fill:#1f77b4;stroke:#1f77b4;" x="357.842573" xlink:href="#m23e584b290" y="178.338287"/>
     <use style="fill:#1f77b4;stroke:#1f77b4;" x="358.879808" xlink:href="#m23e584b290" y="163.797285"/>
     <use style="fill:#1f77b4;stroke:#1f77b4;" x="359.917043" xlink:href="#m23e584b290" y="177.484085"/>
     <use style="fill:#1f77b4;stroke:#1f77b4;" x="360.954278" xlink:href="#m23e584b290" y="171.559451"/>
     <use style="fill:#1f77b4;stroke:#1f77b4;" x="361.991513" xlink:href="#m23e584b290" y="181.782298"/>
     <use style="fill:#1f77b4;stroke:#1f77b4;" x="363.028748" xlink:href="#m23e584b290" y="171.481207"/>
     <use style="fill:#1f77b4;stroke:#1f77b4;" x="364.065983" xlink:href="#m23e584b290" y="167.17285"/>
     <use style="fill:#1f77b4;stroke:#1f77b4;" x="365.103218" xlink:href="#m23e584b290" y="182.327629"/>
     <use style="fill:#1f77b4;stroke:#1f77b4;" x="366.140453" xlink:href="#m23e584b290" y="165.355561"/>
     <use style="fill:#1f77b4;stroke:#1f77b4;" x="367.177688" xlink:href="#m23e584b290" y="169.46925"/>
     <use style="fill:#1f77b4;stroke:#1f77b4;" x="368.214923" xlink:href="#m23e584b290" y="168.638606"/>
     <use style="fill:#1f77b4;stroke:#1f77b4;" x="369.252158" xlink:href="#m23e584b290" y="167.404935"/>
     <use style="fill:#1f77b4;stroke:#1f77b4;" x="370.289393" xlink:href="#m23e584b290" y="178.646808"/>
     <use style="fill:#1f77b4;stroke:#1f77b4;" x="371.326628" xlink:href="#m23e584b290" y="167.285712"/>
     <use style="fill:#1f77b4;stroke:#1f77b4;" x="372.363863" xlink:href="#m23e584b290" y="167.681824"/>
     <use style="fill:#1f77b4;stroke:#1f77b4;" x="373.401098" xlink:href="#m23e584b290" y="166.396256"/>
     <use style="fill:#1f77b4;stroke:#1f77b4;" x="374.438333" xlink:href="#m23e584b290" y="193.30284"/>
     <use style="fill:#1f77b4;stroke:#1f77b4;" x="375.475568" xlink:href="#m23e584b290" y="170.647591"/>
     <use style="fill:#1f77b4;stroke:#1f77b4;" x="376.512803" xlink:href="#m23e584b290" y="177.065381"/>
     <use style="fill:#1f77b4;stroke:#1f77b4;" x="377.341879" xlink:href="#m23e584b290" y="22383.514"/>
    </g>
   </g>
   <g id="line2d_13">
    <path clip-path="url(#p5d09cc4fee)" d="M 62.230607 48.868914 
L 63.267842 57.922134 
L 64.305077 67.600197 
L 65.342312 76.479951 
L 66.379547 86.277585 
L 67.416782 95.638034 
L 68.454017 105.73611 
L 69.491252 115.897802 
" style="fill:none;stroke:#2ca02c;stroke-dasharray:1.5,2.475;stroke-dashoffset:0;stroke-width:1.5;"/>
    <defs>
     <path d="M -3 3 
L 3 -3 
M -3 -3 
L 3 3 
" id="mf97072732e" style="stroke:#2ca02c;"/>
    </defs>
    <g clip-path="url(#p5d09cc4fee)">
     <use style="fill:#2ca02c;stroke:#2ca02c;" x="62.230607" xlink:href="#mf97072732e" y="48.868914"/>
     <use style="fill:#2ca02c;stroke:#2ca02c;" x="63.267842" xlink:href="#mf97072732e" y="57.922134"/>
     <use style="fill:#2ca02c;stroke:#2ca02c;" x="64.305077" xlink:href="#mf97072732e" y="67.600197"/>
     <use style="fill:#2ca02c;stroke:#2ca02c;" x="65.342312" xlink:href="#mf97072732e" y="76.479951"/>
     <use style="fill:#2ca02c;stroke:#2ca02c;" x="66.379547" xlink:href="#mf97072732e" y="86.277585"/>
     <use style="fill:#2ca02c;stroke:#2ca02c;" x="67.416782" xlink:href="#mf97072732e" y="95.638034"/>
     <use style="fill:#2ca02c;stroke:#2ca02c;" x="68.454017" xlink:href="#mf97072732e" y="105.73611"/>
     <use style="fill:#2ca02c;stroke:#2ca02c;" x="69.491252" xlink:href="#mf97072732e" y="115.897802"/>
    </g>
   </g>
   <g id="line2d_14">
    <path clip-path="url(#p5d09cc4fee)" d="M 54.969962 93.273189 
L 78.712285 311.86825 
L 78.712285 311.86825 
" style="fill:none;stroke:#000000;stroke-dasharray:5.55,2.4;stroke-dashoffset:0;stroke-width:1.5;"/>
   </g>
   <g id="patch_3">
    <path d="M 37.7 273.312 
L 37.7 7.2 
" style="fill:none;stroke:#000000;stroke-linecap:square;stroke-linejoin:miter;stroke-width:0.8;"/>
   </g>
   <g id="patch_4">
    <path d="M 394.82 273.312 
L 394.82 7.2 
" style="fill:none;stroke:#000000;stroke-linecap:square;stroke-linejoin:miter;stroke-width:0.8;"/>
   </g>
   <g id="patch_5">
    <path d="M 37.7 273.312 
L 394.82 273.312 
" style="fill:none;stroke:#000000;stroke-linecap:square;stroke-linejoin:miter;stroke-width:0.8;"/>
   </g>
   <g id="patch_6">
    <path d="M 37.7 7.2 
L 394.82 7.2 
" style="fill:none;stroke:#000000;stroke-linecap:square;stroke-linejoin:miter;stroke-width:0.8;"/>
   </g>
   <g id="legend_1">
    <g id="patch_7">
     <path d="M 287.52 59.25625 
L 387.82 59.25625 
Q 389.82 59.25625 389.82 57.25625 
L 389.82 14.2 
Q 389.82 12.2 387.82 12.2 
L 287.52 12.2 
Q 285.52 12.2 285.52 14.2 
L 285.52 57.25625 
Q 285.52 59.25625 287.52 59.25625 
z
" style="fill:#ffffff;opacity:0.8;"/>
    </g>
    <g id="line2d_15">
     <path d="M 289.52 20.298437 
L 309.52 20.298437 
" style="fill:none;stroke:#1f77b4;stroke-linecap:square;stroke-width:1.5;"/>
    </g>
    <g id="line2d_16">
     <g>
      <use style="fill:#1f77b4;stroke:#1f77b4;" x="299.52" xlink:href="#m23e584b290" y="20.298437"/>
     </g>
    </g>
    <g id="text_13">
     <!-- APD$_n$ - APD$_\infty$ -->
     <defs>
      <path d="M 34.1875 63.1875 
L 20.796875 26.90625 
L 47.609375 26.90625 
z
M 28.609375 72.90625 
L 39.796875 72.90625 
L 67.578125 0 
L 57.328125 0 
L 50.6875 18.703125 
L 17.828125 18.703125 
L 11.1875 0 
L 0.78125 0 
z
" id="DejaVuSans-65"/>
      <path d="M 19.671875 64.796875 
L 19.671875 37.40625 
L 32.078125 37.40625 
Q 38.96875 37.40625 42.71875 40.96875 
Q 46.484375 44.53125 46.484375 51.125 
Q 46.484375 57.671875 42.71875 61.234375 
Q 38.96875 64.796875 32.078125 64.796875 
z
M 9.8125 72.90625 
L 32.078125 72.90625 
Q 44.34375 72.90625 50.609375 67.359375 
Q 56.890625 61.8125 56.890625 51.125 
Q 56.890625 40.328125 50.609375 34.8125 
Q 44.34375 29.296875 32.078125 29.296875 
L 19.671875 29.296875 
L 19.671875 0 
L 9.8125 0 
z
" id="DejaVuSans-80"/>
      <path d="M 19.671875 64.796875 
L 19.671875 8.109375 
L 31.59375 8.109375 
Q 46.6875 8.109375 53.6875 14.9375 
Q 60.6875 21.78125 60.6875 36.53125 
Q 60.6875 51.171875 53.6875 57.984375 
Q 46.6875 64.796875 31.59375 64.796875 
z
M 9.8125 72.90625 
L 30.078125 72.90625 
Q 51.265625 72.90625 61.171875 64.09375 
Q 71.09375 55.28125 71.09375 36.53125 
Q 71.09375 17.671875 61.125 8.828125 
Q 51.171875 0 30.078125 0 
L 9.8125 0 
z
" id="DejaVuSans-68"/>
      <path d="M 55.71875 33.015625 
L 49.3125 0 
L 40.28125 0 
L 46.6875 32.671875 
Q 47.125 34.96875 47.359375 36.71875 
Q 47.609375 38.484375 47.609375 39.5 
Q 47.609375 43.609375 45.015625 45.890625 
Q 42.4375 48.1875 37.796875 48.1875 
Q 30.5625 48.1875 25.34375 43.375 
Q 20.125 38.578125 18.5 30.328125 
L 12.5 0 
L 3.515625 0 
L 14.109375 54.6875 
L 23.09375 54.6875 
L 21.296875 46.09375 
Q 25.046875 50.828125 30.3125 53.40625 
Q 35.59375 56 41.40625 56 
Q 48.640625 56 52.609375 52.09375 
Q 56.59375 48.1875 56.59375 41.109375 
Q 56.59375 39.359375 56.375 37.359375 
Q 56.15625 35.359375 55.71875 33.015625 
z
" id="DejaVuSans-Oblique-110"/>
      <path id="DejaVuSans-32"/>
      <path d="M 4.890625 31.390625 
L 31.203125 31.390625 
L 31.203125 23.390625 
L 4.890625 23.390625 
z
" id="DejaVuSans-45"/>
      <path d="M 45.5625 17.046875 
Q 44.046875 18.796875 41.65625 22.90625 
Q 38.375 17.046875 35.5 14.453125 
Q 31.890625 11.328125 26.265625 11.328125 
Q 19.671875 11.328125 15.328125 16.265625 
Q 10.75 21.4375 10.75 29.984375 
Q 10.75 38.1875 15.328125 43.75 
Q 19.4375 48.6875 26.375 48.6875 
Q 29.9375 48.6875 32.5625 47.21875 
Q 35.640625 45.609375 37.75 42.828125 
Q 39.703125 40.328125 41.65625 36.96875 
Q 44.921875 42.828125 47.796875 45.40625 
Q 51.421875 48.53125 57.03125 48.53125 
Q 63.625 48.53125 67.96875 43.609375 
Q 72.5625 38.421875 72.5625 29.890625 
Q 72.5625 21.6875 67.96875 16.109375 
Q 63.875 11.1875 56.9375 11.1875 
Q 53.375 11.1875 50.734375 12.640625 
Q 48.09375 13.96875 45.5625 17.046875 
z
M 25.734375 17.71875 
Q 33.796875 17.71875 38.625 29.4375 
Q 32.421875 42.234375 25.734375 42.234375 
Q 20.84375 42.234375 18.359375 38.71875 
Q 15.671875 34.96875 15.671875 29.984375 
Q 15.671875 24.515625 18.359375 21.140625 
Q 21.09375 17.71875 25.734375 17.71875 
z
M 57.5625 42.140625 
Q 50.296875 42.140625 44.671875 30.421875 
Q 50.828125 17.625 57.5625 17.625 
Q 62.453125 17.625 64.9375 21.140625 
Q 67.625 24.90625 67.625 29.890625 
Q 67.625 35.359375 64.9375 38.71875 
Q 62.203125 42.140625 57.5625 42.140625 
z
" id="DejaVuSans-8734"/>
     </defs>
     <g transform="translate(317.52 23.798437)scale(0.1 -0.1)">
      <use transform="translate(0 0.09375)" xlink:href="#DejaVuSans-65"/>
      <use transform="translate(68.408203 0.09375)" xlink:href="#DejaVuSans-80"/>
      <use transform="translate(128.710938 0.09375)" xlink:href="#DejaVuSans-68"/>
      <use transform="translate(206.669922 -16.3125)scale(0.7)" xlink:href="#DejaVuSans-Oblique-110"/>
      <use transform="translate(253.769531 0.09375)" xlink:href="#DejaVuSans-32"/>
      <use transform="translate(285.556641 0.09375)" xlink:href="#DejaVuSans-45"/>
      <use transform="translate(321.640625 0.09375)" xlink:href="#DejaVuSans-32"/>
      <use transform="translate(353.427734 0.09375)" xlink:href="#DejaVuSans-65"/>
      <use transform="translate(421.835938 0.09375)" xlink:href="#DejaVuSans-80"/>
      <use transform="translate(482.138672 0.09375)" xlink:href="#DejaVuSans-68"/>
      <use transform="translate(560.097656 -16.3125)scale(0.7)" xlink:href="#DejaVuSans-8734"/>
     </g>
    </g>
    <g id="line2d_17">
     <path d="M 289.52 34.976562 
L 309.52 34.976562 
" style="fill:none;stroke:#2ca02c;stroke-dasharray:1.5,2.475;stroke-dashoffset:0;stroke-width:1.5;"/>
    </g>
    <g id="line2d_18">
     <g>
      <use style="fill:#2ca02c;stroke:#2ca02c;" x="299.52" xlink:href="#mf97072732e" y="34.976562"/>
     </g>
    </g>
    <g id="text_14">
     <!-- linear region -->
     <defs>
      <path d="M 9.421875 75.984375 
L 18.40625 75.984375 
L 18.40625 0 
L 9.421875 0 
z
" id="DejaVuSans-108"/>
      <path d="M 9.421875 54.6875 
L 18.40625 54.6875 
L 18.40625 0 
L 9.421875 0 
z
M 9.421875 75.984375 
L 18.40625 75.984375 
L 18.40625 64.59375 
L 9.421875 64.59375 
z
" id="DejaVuSans-105"/>
      <path d="M 54.890625 33.015625 
L 54.890625 0 
L 45.90625 0 
L 45.90625 32.71875 
Q 45.90625 40.484375 42.875 44.328125 
Q 39.84375 48.1875 33.796875 48.1875 
Q 26.515625 48.1875 22.3125 43.546875 
Q 18.109375 38.921875 18.109375 30.90625 
L 18.109375 0 
L 9.078125 0 
L 9.078125 54.6875 
L 18.109375 54.6875 
L 18.109375 46.1875 
Q 21.34375 51.125 25.703125 53.5625 
Q 30.078125 56 35.796875 56 
Q 45.21875 56 50.046875 50.171875 
Q 54.890625 44.34375 54.890625 33.015625 
z
" id="DejaVuSans-110"/>
      <path d="M 56.203125 29.59375 
L 56.203125 25.203125 
L 14.890625 25.203125 
Q 15.484375 15.921875 20.484375 11.0625 
Q 25.484375 6.203125 34.421875 6.203125 
Q 39.59375 6.203125 44.453125 7.46875 
Q 49.3125 8.734375 54.109375 11.28125 
L 54.109375 2.78125 
Q 49.265625 0.734375 44.1875 -0.34375 
Q 39.109375 -1.421875 33.890625 -1.421875 
Q 20.796875 -1.421875 13.15625 6.1875 
Q 5.515625 13.8125 5.515625 26.8125 
Q 5.515625 40.234375 12.765625 48.109375 
Q 20.015625 56 32.328125 56 
Q 43.359375 56 49.78125 48.890625 
Q 56.203125 41.796875 56.203125 29.59375 
z
M 47.21875 32.234375 
Q 47.125 39.59375 43.09375 43.984375 
Q 39.0625 48.390625 32.421875 48.390625 
Q 24.90625 48.390625 20.390625 44.140625 
Q 15.875 39.890625 15.1875 32.171875 
z
" id="DejaVuSans-101"/>
      <path d="M 34.28125 27.484375 
Q 23.390625 27.484375 19.1875 25 
Q 14.984375 22.515625 14.984375 16.5 
Q 14.984375 11.71875 18.140625 8.90625 
Q 21.296875 6.109375 26.703125 6.109375 
Q 34.1875 6.109375 38.703125 11.40625 
Q 43.21875 16.703125 43.21875 25.484375 
L 43.21875 27.484375 
z
M 52.203125 31.203125 
L 52.203125 0 
L 43.21875 0 
L 43.21875 8.296875 
Q 40.140625 3.328125 35.546875 0.953125 
Q 30.953125 -1.421875 24.3125 -1.421875 
Q 15.921875 -1.421875 10.953125 3.296875 
Q 6 8.015625 6 15.921875 
Q 6 25.140625 12.171875 29.828125 
Q 18.359375 34.515625 30.609375 34.515625 
L 43.21875 34.515625 
L 43.21875 35.40625 
Q 43.21875 41.609375 39.140625 45 
Q 35.0625 48.390625 27.6875 48.390625 
Q 23 48.390625 18.546875 47.265625 
Q 14.109375 46.140625 10.015625 43.890625 
L 10.015625 52.203125 
Q 14.9375 54.109375 19.578125 55.046875 
Q 24.21875 56 28.609375 56 
Q 40.484375 56 46.34375 49.84375 
Q 52.203125 43.703125 52.203125 31.203125 
z
" id="DejaVuSans-97"/>
      <path d="M 41.109375 46.296875 
Q 39.59375 47.171875 37.8125 47.578125 
Q 36.03125 48 33.890625 48 
Q 26.265625 48 22.1875 43.046875 
Q 18.109375 38.09375 18.109375 28.8125 
L 18.109375 0 
L 9.078125 0 
L 9.078125 54.6875 
L 18.109375 54.6875 
L 18.109375 46.1875 
Q 20.953125 51.171875 25.484375 53.578125 
Q 30.03125 56 36.53125 56 
Q 37.453125 56 38.578125 55.875 
Q 39.703125 55.765625 41.0625 55.515625 
z
" id="DejaVuSans-114"/>
      <path d="M 45.40625 27.984375 
Q 45.40625 37.75 41.375 43.109375 
Q 37.359375 48.484375 30.078125 48.484375 
Q 22.859375 48.484375 18.828125 43.109375 
Q 14.796875 37.75 14.796875 27.984375 
Q 14.796875 18.265625 18.828125 12.890625 
Q 22.859375 7.515625 30.078125 7.515625 
Q 37.359375 7.515625 41.375 12.890625 
Q 45.40625 18.265625 45.40625 27.984375 
z
M 54.390625 6.78125 
Q 54.390625 -7.171875 48.1875 -13.984375 
Q 42 -20.796875 29.203125 -20.796875 
Q 24.46875 -20.796875 20.265625 -20.09375 
Q 16.0625 -19.390625 12.109375 -17.921875 
L 12.109375 -9.1875 
Q 16.0625 -11.328125 19.921875 -12.34375 
Q 23.78125 -13.375 27.78125 -13.375 
Q 36.625 -13.375 41.015625 -8.765625 
Q 45.40625 -4.15625 45.40625 5.171875 
L 45.40625 9.625 
Q 42.625 4.78125 38.28125 2.390625 
Q 33.9375 0 27.875 0 
Q 17.828125 0 11.671875 7.65625 
Q 5.515625 15.328125 5.515625 27.984375 
Q 5.515625 40.671875 11.671875 48.328125 
Q 17.828125 56 27.875 56 
Q 33.9375 56 38.28125 53.609375 
Q 42.625 51.21875 45.40625 46.390625 
L 45.40625 54.6875 
L 54.390625 54.6875 
z
" id="DejaVuSans-103"/>
      <path d="M 30.609375 48.390625 
Q 23.390625 48.390625 19.1875 42.75 
Q 14.984375 37.109375 14.984375 27.296875 
Q 14.984375 17.484375 19.15625 11.84375 
Q 23.34375 6.203125 30.609375 6.203125 
Q 37.796875 6.203125 41.984375 11.859375 
Q 46.1875 17.53125 46.1875 27.296875 
Q 46.1875 37.015625 41.984375 42.703125 
Q 37.796875 48.390625 30.609375 48.390625 
z
M 30.609375 56 
Q 42.328125 56 49.015625 48.375 
Q 55.71875 40.765625 55.71875 27.296875 
Q 55.71875 13.875 49.015625 6.21875 
Q 42.328125 -1.421875 30.609375 -1.421875 
Q 18.84375 -1.421875 12.171875 6.21875 
Q 5.515625 13.875 5.515625 27.296875 
Q 5.515625 40.765625 12.171875 48.375 
Q 18.84375 56 30.609375 56 
z
" id="DejaVuSans-111"/>
     </defs>
     <g transform="translate(317.52 38.476562)scale(0.1 -0.1)">
      <use xlink:href="#DejaVuSans-108"/>
      <use x="27.783203" xlink:href="#DejaVuSans-105"/>
      <use x="55.566406" xlink:href="#DejaVuSans-110"/>
      <use x="118.945312" xlink:href="#DejaVuSans-101"/>
      <use x="180.46875" xlink:href="#DejaVuSans-97"/>
      <use x="241.748047" xlink:href="#DejaVuSans-114"/>
      <use x="282.861328" xlink:href="#DejaVuSans-32"/>
      <use x="314.648438" xlink:href="#DejaVuSans-114"/>
      <use x="353.511719" xlink:href="#DejaVuSans-101"/>
      <use x="415.035156" xlink:href="#DejaVuSans-103"/>
      <use x="478.511719" xlink:href="#DejaVuSans-105"/>
      <use x="506.294922" xlink:href="#DejaVuSans-111"/>
      <use x="567.476562" xlink:href="#DejaVuSans-110"/>
     </g>
    </g>
    <g id="line2d_19">
     <path d="M 289.52 49.65625 
L 309.52 49.65625 
" style="fill:none;stroke:#000000;stroke-dasharray:5.55,2.4;stroke-dashoffset:0;stroke-width:1.5;"/>
    </g>
    <g id="line2d_20"/>
    <g id="text_15">
     <!-- $ \exp(-0.789 k)$ -->
     <defs>
      <path d="M 54.890625 54.6875 
L 35.109375 28.078125 
L 55.90625 0 
L 45.3125 0 
L 29.390625 21.484375 
L 13.484375 0 
L 2.875 0 
L 24.125 28.609375 
L 4.6875 54.6875 
L 15.28125 54.6875 
L 29.78125 35.203125 
L 44.28125 54.6875 
z
" id="DejaVuSans-120"/>
      <path d="M 18.109375 8.203125 
L 18.109375 -20.796875 
L 9.078125 -20.796875 
L 9.078125 54.6875 
L 18.109375 54.6875 
L 18.109375 46.390625 
Q 20.953125 51.265625 25.265625 53.625 
Q 29.59375 56 35.59375 56 
Q 45.5625 56 51.78125 48.09375 
Q 58.015625 40.1875 58.015625 27.296875 
Q 58.015625 14.40625 51.78125 6.484375 
Q 45.5625 -1.421875 35.59375 -1.421875 
Q 29.59375 -1.421875 25.265625 0.953125 
Q 20.953125 3.328125 18.109375 8.203125 
z
M 48.6875 27.296875 
Q 48.6875 37.203125 44.609375 42.84375 
Q 40.53125 48.484375 33.40625 48.484375 
Q 26.265625 48.484375 22.1875 42.84375 
Q 18.109375 37.203125 18.109375 27.296875 
Q 18.109375 17.390625 22.1875 11.75 
Q 26.265625 6.109375 33.40625 6.109375 
Q 40.53125 6.109375 44.609375 11.75 
Q 48.6875 17.390625 48.6875 27.296875 
z
" id="DejaVuSans-112"/>
      <path d="M 31 75.875 
Q 24.46875 64.65625 21.28125 53.65625 
Q 18.109375 42.671875 18.109375 31.390625 
Q 18.109375 20.125 21.3125 9.0625 
Q 24.515625 -2 31 -13.1875 
L 23.1875 -13.1875 
Q 15.875 -1.703125 12.234375 9.375 
Q 8.59375 20.453125 8.59375 31.390625 
Q 8.59375 42.28125 12.203125 53.3125 
Q 15.828125 64.359375 23.1875 75.875 
z
" id="DejaVuSans-40"/>
      <path d="M 10.6875 12.40625 
L 21 12.40625 
L 21 0 
L 10.6875 0 
z
" id="DejaVuSans-46"/>
      <path d="M 8.203125 72.90625 
L 55.078125 72.90625 
L 55.078125 68.703125 
L 28.609375 0 
L 18.3125 0 
L 43.21875 64.59375 
L 8.203125 64.59375 
z
" id="DejaVuSans-55"/>
      <path d="M 31.78125 34.625 
Q 24.75 34.625 20.71875 30.859375 
Q 16.703125 27.09375 16.703125 20.515625 
Q 16.703125 13.921875 20.71875 10.15625 
Q 24.75 6.390625 31.78125 6.390625 
Q 38.8125 6.390625 42.859375 10.171875 
Q 46.921875 13.96875 46.921875 20.515625 
Q 46.921875 27.09375 42.890625 30.859375 
Q 38.875 34.625 31.78125 34.625 
z
M 21.921875 38.8125 
Q 15.578125 40.375 12.03125 44.71875 
Q 8.5 49.078125 8.5 55.328125 
Q 8.5 64.0625 14.71875 69.140625 
Q 20.953125 74.21875 31.78125 74.21875 
Q 42.671875 74.21875 48.875 69.140625 
Q 55.078125 64.0625 55.078125 55.328125 
Q 55.078125 49.078125 51.53125 44.71875 
Q 48 40.375 41.703125 38.8125 
Q 48.828125 37.15625 52.796875 32.3125 
Q 56.78125 27.484375 56.78125 20.515625 
Q 56.78125 9.90625 50.3125 4.234375 
Q 43.84375 -1.421875 31.78125 -1.421875 
Q 19.734375 -1.421875 13.25 4.234375 
Q 6.78125 9.90625 6.78125 20.515625 
Q 6.78125 27.484375 10.78125 32.3125 
Q 14.796875 37.15625 21.921875 38.8125 
z
M 18.3125 54.390625 
Q 18.3125 48.734375 21.84375 45.5625 
Q 25.390625 42.390625 31.78125 42.390625 
Q 38.140625 42.390625 41.71875 45.5625 
Q 45.3125 48.734375 45.3125 54.390625 
Q 45.3125 60.0625 41.71875 63.234375 
Q 38.140625 66.40625 31.78125 66.40625 
Q 25.390625 66.40625 21.84375 63.234375 
Q 18.3125 60.0625 18.3125 54.390625 
z
" id="DejaVuSans-56"/>
      <path d="M 10.984375 1.515625 
L 10.984375 10.5 
Q 14.703125 8.734375 18.5 7.8125 
Q 22.3125 6.890625 25.984375 6.890625 
Q 35.75 6.890625 40.890625 13.453125 
Q 46.046875 20.015625 46.78125 33.40625 
Q 43.953125 29.203125 39.59375 26.953125 
Q 35.25 24.703125 29.984375 24.703125 
Q 19.046875 24.703125 12.671875 31.3125 
Q 6.296875 37.9375 6.296875 49.421875 
Q 6.296875 60.640625 12.9375 67.421875 
Q 19.578125 74.21875 30.609375 74.21875 
Q 43.265625 74.21875 49.921875 64.515625 
Q 56.59375 54.828125 56.59375 36.375 
Q 56.59375 19.140625 48.40625 8.859375 
Q 40.234375 -1.421875 26.421875 -1.421875 
Q 22.703125 -1.421875 18.890625 -0.6875 
Q 15.09375 0.046875 10.984375 1.515625 
z
M 30.609375 32.421875 
Q 37.25 32.421875 41.125 36.953125 
Q 45.015625 41.5 45.015625 49.421875 
Q 45.015625 57.28125 41.125 61.84375 
Q 37.25 66.40625 30.609375 66.40625 
Q 23.96875 66.40625 20.09375 61.84375 
Q 16.21875 57.28125 16.21875 49.421875 
Q 16.21875 41.5 20.09375 36.953125 
Q 23.96875 32.421875 30.609375 32.421875 
z
" id="DejaVuSans-57"/>
      <path d="M 8.015625 75.875 
L 15.828125 75.875 
Q 23.140625 64.359375 26.78125 53.3125 
Q 30.421875 42.28125 30.421875 31.390625 
Q 30.421875 20.453125 26.78125 9.375 
Q 23.140625 -1.703125 15.828125 -13.1875 
L 8.015625 -13.1875 
Q 14.5 -2 17.703125 9.0625 
Q 20.90625 20.125 20.90625 31.390625 
Q 20.90625 42.671875 17.703125 53.65625 
Q 14.5 64.65625 8.015625 75.875 
z
" id="DejaVuSans-41"/>
     </defs>
     <g transform="translate(317.52 53.15625)scale(0.1 -0.1)">
      <use transform="translate(0 0.015625)" xlink:href="#DejaVuSans-101"/>
      <use transform="translate(61.523438 0.015625)" xlink:href="#DejaVuSans-120"/>
      <use transform="translate(120.703125 0.015625)" xlink:href="#DejaVuSans-112"/>
      <use transform="translate(184.179688 0.015625)" xlink:href="#DejaVuSans-40"/>
      <use transform="translate(223.193359 0.015625)" xlink:href="#DejaVuSans-8722"/>
      <use transform="translate(306.982422 0.015625)" xlink:href="#DejaVuSans-48"/>
      <use transform="translate(370.605469 0.015625)" xlink:href="#DejaVuSans-46"/>
      <use transform="translate(394.642578 0.015625)" xlink:href="#DejaVuSans-55"/>
      <use transform="translate(458.265625 0.015625)" xlink:href="#DejaVuSans-56"/>
      <use transform="translate(521.888672 0.015625)" xlink:href="#DejaVuSans-57"/>
      <use transform="translate(585.511719 0.015625)" xlink:href="#DejaVuSans-Oblique-107"/>
      <use transform="translate(643.421875 0.015625)" xlink:href="#DejaVuSans-41"/>
     </g>
    </g>
   </g>
  </g>
 </g>
 <defs>
  <clipPath id="p5d09cc4fee">
   <rect height="266.112" width="357.12" x="37.7" y="7.2"/>
  </clipPath>
 </defs>
</svg>
