<?xml version="1.0" encoding="utf-8" standalone="no"?>
<!DOCTYPE svg PUBLIC "-//W3C//DTD SVG 1.1//EN"
  "http://www.w3.org/Graphics/SVG/1.1/DTD/svg11.dtd">
<!-- Created with matplotlib (https://matplotlib.org/) -->
<svg height="310.86825pt" version="1.1" viewBox="0 0 402.02 310.86825" width="402.02pt" xmlns="http://www.w3.org/2000/svg" xmlns:xlink="http://www.w3.org/1999/xlink">
 <defs>
  <style type="text/css">
*{stroke-linecap:butt;stroke-linejoin:round;}
  </style>
 </defs>
 <g id="figure_1">
  <g id="patch_1">
   <path d="M 0 310.86825 
L 402.02 310.86825 
L 402.02 0 
L 0 0 
z
" style="fill:#ffffff;"/>
  </g>
  <g id="axes_1">
   <g id="patch_2">
    <path d="M 37.7 273.312 
L 394.82 273.312 
L 394.82 7.2 
L 37.7 7.2 
z
" style="fill:#ffffff;"/>
   </g>
   <g id="matplotlib.axis_1">
    <g id="xtick_1">
     <g id="line2d_1">
      <defs>
       <path d="M 0 0 
L 0 3.5 
" id="macdca26943" style="stroke:#000000;stroke-width:0.8;"/>
      </defs>
      <g>
       <use style="stroke:#000000;stroke-width:0.8;" x="53.932727" xlink:href="#macdca26943" y="273.312"/>
      </g>
     </g>
     <g id="text_1">
      <!-- 0 -->
      <defs>
       <path d="M 31.78125 66.40625 
Q 24.171875 66.40625 20.328125 58.90625 
Q 16.5 51.421875 16.5 36.375 
Q 16.5 21.390625 20.328125 13.890625 
Q 24.171875 6.390625 31.78125 6.390625 
Q 39.453125 6.390625 43.28125 13.890625 
Q 47.125 21.390625 47.125 36.375 
Q 47.125 51.421875 43.28125 58.90625 
Q 39.453125 66.40625 31.78125 66.40625 
z
M 31.78125 74.21875 
Q 44.046875 74.21875 50.515625 64.515625 
Q 56.984375 54.828125 56.984375 36.375 
Q 56.984375 17.96875 50.515625 8.265625 
Q 44.046875 -1.421875 31.78125 -1.421875 
Q 19.53125 -1.421875 13.0625 8.265625 
Q 6.59375 17.96875 6.59375 36.375 
Q 6.59375 54.828125 13.0625 64.515625 
Q 19.53125 74.21875 31.78125 74.21875 
z
" id="DejaVuSans-48"/>
      </defs>
      <g transform="translate(50.751477 287.910437)scale(0.1 -0.1)">
       <use xlink:href="#DejaVuSans-48"/>
      </g>
     </g>
    </g>
    <g id="xtick_2">
     <g id="line2d_2">
      <g>
       <use style="stroke:#000000;stroke-width:0.8;" x="105.960699" xlink:href="#macdca26943" y="273.312"/>
      </g>
     </g>
     <g id="text_2">
      <!-- 50 -->
      <defs>
       <path d="M 10.796875 72.90625 
L 49.515625 72.90625 
L 49.515625 64.59375 
L 19.828125 64.59375 
L 19.828125 46.734375 
Q 21.96875 47.46875 24.109375 47.828125 
Q 26.265625 48.1875 28.421875 48.1875 
Q 40.625 48.1875 47.75 41.5 
Q 54.890625 34.8125 54.890625 23.390625 
Q 54.890625 11.625 47.5625 5.09375 
Q 40.234375 -1.421875 26.90625 -1.421875 
Q 22.3125 -1.421875 17.546875 -0.640625 
Q 12.796875 0.140625 7.71875 1.703125 
L 7.71875 11.625 
Q 12.109375 9.234375 16.796875 8.0625 
Q 21.484375 6.890625 26.703125 6.890625 
Q 35.15625 6.890625 40.078125 11.328125 
Q 45.015625 15.765625 45.015625 23.390625 
Q 45.015625 31 40.078125 35.4375 
Q 35.15625 39.890625 26.703125 39.890625 
Q 22.75 39.890625 18.8125 39.015625 
Q 14.890625 38.140625 10.796875 36.28125 
z
" id="DejaVuSans-53"/>
      </defs>
      <g transform="translate(99.598199 287.910437)scale(0.1 -0.1)">
       <use xlink:href="#DejaVuSans-53"/>
       <use x="63.623047" xlink:href="#DejaVuSans-48"/>
      </g>
     </g>
    </g>
    <g id="xtick_3">
     <g id="line2d_3">
      <g>
       <use style="stroke:#000000;stroke-width:0.8;" x="157.988671" xlink:href="#macdca26943" y="273.312"/>
      </g>
     </g>
     <g id="text_3">
      <!-- 100 -->
      <defs>
       <path d="M 12.40625 8.296875 
L 28.515625 8.296875 
L 28.515625 63.921875 
L 10.984375 60.40625 
L 10.984375 69.390625 
L 28.421875 72.90625 
L 38.28125 72.90625 
L 38.28125 8.296875 
L 54.390625 8.296875 
L 54.390625 0 
L 12.40625 0 
z
" id="DejaVuSans-49"/>
      </defs>
      <g transform="translate(148.444921 287.910437)scale(0.1 -0.1)">
       <use xlink:href="#DejaVuSans-49"/>
       <use x="63.623047" xlink:href="#DejaVuSans-48"/>
       <use x="127.246094" xlink:href="#DejaVuSans-48"/>
      </g>
     </g>
    </g>
    <g id="xtick_4">
     <g id="line2d_4">
      <g>
       <use style="stroke:#000000;stroke-width:0.8;" x="210.016643" xlink:href="#macdca26943" y="273.312"/>
      </g>
     </g>
     <g id="text_4">
      <!-- 150 -->
      <g transform="translate(200.472893 287.910437)scale(0.1 -0.1)">
       <use xlink:href="#DejaVuSans-49"/>
       <use x="63.623047" xlink:href="#DejaVuSans-53"/>
       <use x="127.246094" xlink:href="#DejaVuSans-48"/>
      </g>
     </g>
    </g>
    <g id="xtick_5">
     <g id="line2d_5">
      <g>
       <use style="stroke:#000000;stroke-width:0.8;" x="262.044615" xlink:href="#macdca26943" y="273.312"/>
      </g>
     </g>
     <g id="text_5">
      <!-- 200 -->
      <defs>
       <path d="M 19.1875 8.296875 
L 53.609375 8.296875 
L 53.609375 0 
L 7.328125 0 
L 7.328125 8.296875 
Q 12.9375 14.109375 22.625 23.890625 
Q 32.328125 33.6875 34.8125 36.53125 
Q 39.546875 41.84375 41.421875 45.53125 
Q 43.3125 49.21875 43.3125 52.78125 
Q 43.3125 58.59375 39.234375 62.25 
Q 35.15625 65.921875 28.609375 65.921875 
Q 23.96875 65.921875 18.8125 64.3125 
Q 13.671875 62.703125 7.8125 59.421875 
L 7.8125 69.390625 
Q 13.765625 71.78125 18.9375 73 
Q 24.125 74.21875 28.421875 74.21875 
Q 39.75 74.21875 46.484375 68.546875 
Q 53.21875 62.890625 53.21875 53.421875 
Q 53.21875 48.921875 51.53125 44.890625 
Q 49.859375 40.875 45.40625 35.40625 
Q 44.1875 33.984375 37.640625 27.21875 
Q 31.109375 20.453125 19.1875 8.296875 
z
" id="DejaVuSans-50"/>
      </defs>
      <g transform="translate(252.500865 287.910437)scale(0.1 -0.1)">
       <use xlink:href="#DejaVuSans-50"/>
       <use x="63.623047" xlink:href="#DejaVuSans-48"/>
       <use x="127.246094" xlink:href="#DejaVuSans-48"/>
      </g>
     </g>
    </g>
    <g id="xtick_6">
     <g id="line2d_6">
      <g>
       <use style="stroke:#000000;stroke-width:0.8;" x="314.072587" xlink:href="#macdca26943" y="273.312"/>
      </g>
     </g>
     <g id="text_6">
      <!-- 250 -->
      <g transform="translate(304.528837 287.910437)scale(0.1 -0.1)">
       <use xlink:href="#DejaVuSans-50"/>
       <use x="63.623047" xlink:href="#DejaVuSans-53"/>
       <use x="127.246094" xlink:href="#DejaVuSans-48"/>
      </g>
     </g>
    </g>
    <g id="xtick_7">
     <g id="line2d_7">
      <g>
       <use style="stroke:#000000;stroke-width:0.8;" x="366.100559" xlink:href="#macdca26943" y="273.312"/>
      </g>
     </g>
     <g id="text_7">
      <!-- 300 -->
      <defs>
       <path d="M 40.578125 39.3125 
Q 47.65625 37.796875 51.625 33 
Q 55.609375 28.21875 55.609375 21.1875 
Q 55.609375 10.40625 48.1875 4.484375 
Q 40.765625 -1.421875 27.09375 -1.421875 
Q 22.515625 -1.421875 17.65625 -0.515625 
Q 12.796875 0.390625 7.625 2.203125 
L 7.625 11.71875 
Q 11.71875 9.328125 16.59375 8.109375 
Q 21.484375 6.890625 26.8125 6.890625 
Q 36.078125 6.890625 40.9375 10.546875 
Q 45.796875 14.203125 45.796875 21.1875 
Q 45.796875 27.640625 41.28125 31.265625 
Q 36.765625 34.90625 28.71875 34.90625 
L 20.21875 34.90625 
L 20.21875 43.015625 
L 29.109375 43.015625 
Q 36.375 43.015625 40.234375 45.921875 
Q 44.09375 48.828125 44.09375 54.296875 
Q 44.09375 59.90625 40.109375 62.90625 
Q 36.140625 65.921875 28.71875 65.921875 
Q 24.65625 65.921875 20.015625 65.03125 
Q 15.375 64.15625 9.8125 62.3125 
L 9.8125 71.09375 
Q 15.4375 72.65625 20.34375 73.4375 
Q 25.25 74.21875 29.59375 74.21875 
Q 40.828125 74.21875 47.359375 69.109375 
Q 53.90625 64.015625 53.90625 55.328125 
Q 53.90625 49.265625 50.4375 45.09375 
Q 46.96875 40.921875 40.578125 39.3125 
z
" id="DejaVuSans-51"/>
      </defs>
      <g transform="translate(356.556809 287.910437)scale(0.1 -0.1)">
       <use xlink:href="#DejaVuSans-51"/>
       <use x="63.623047" xlink:href="#DejaVuSans-48"/>
       <use x="127.246094" xlink:href="#DejaVuSans-48"/>
      </g>
     </g>
    </g>
    <g id="text_8">
     <!-- $ k $ -->
     <defs>
      <path d="M 18.3125 75.984375 
L 27.296875 75.984375 
L 18.703125 31.6875 
L 49.515625 54.6875 
L 61.1875 54.6875 
L 26.8125 28.515625 
L 51.90625 0 
L 41.015625 0 
L 17.671875 26.703125 
L 12.5 0 
L 3.515625 0 
z
" id="DejaVuSans-Oblique-107"/>
     </defs>
     <g transform="translate(213.36 301.588562)scale(0.1 -0.1)">
      <use transform="translate(0 0.015625)" xlink:href="#DejaVuSans-Oblique-107"/>
     </g>
    </g>
   </g>
   <g id="matplotlib.axis_2">
    <g id="ytick_1">
     <g id="line2d_8">
      <defs>
       <path d="M 0 0 
L -3.5 0 
" id="m05bbfca77a" style="stroke:#000000;stroke-width:0.8;"/>
      </defs>
      <g>
       <use style="stroke:#000000;stroke-width:0.8;" x="37.7" xlink:href="#m05bbfca77a" y="250.79548"/>
      </g>
     </g>
     <g id="text_9">
      <!-- $\mathdefault{10^{-4}}$ -->
      <defs>
       <path d="M 10.59375 35.5 
L 73.1875 35.5 
L 73.1875 27.203125 
L 10.59375 27.203125 
z
" id="DejaVuSans-8722"/>
       <path d="M 37.796875 64.3125 
L 12.890625 25.390625 
L 37.796875 25.390625 
z
M 35.203125 72.90625 
L 47.609375 72.90625 
L 47.609375 25.390625 
L 58.015625 25.390625 
L 58.015625 17.1875 
L 47.609375 17.1875 
L 47.609375 0 
L 37.796875 0 
L 37.796875 17.1875 
L 4.890625 17.1875 
L 4.890625 26.703125 
z
" id="DejaVuSans-52"/>
      </defs>
      <g transform="translate(7.2 254.594699)scale(0.1 -0.1)">
       <use transform="translate(0 0.684375)" xlink:href="#DejaVuSans-49"/>
       <use transform="translate(63.623047 0.684375)" xlink:href="#DejaVuSans-48"/>
       <use transform="translate(128.203125 38.965625)scale(0.7)" xlink:href="#DejaVuSans-8722"/>
       <use transform="translate(186.855469 38.965625)scale(0.7)" xlink:href="#DejaVuSans-52"/>
      </g>
     </g>
    </g>
    <g id="ytick_2">
     <g id="line2d_9">
      <g>
       <use style="stroke:#000000;stroke-width:0.8;" x="37.7" xlink:href="#m05bbfca77a" y="213.337379"/>
      </g>
     </g>
     <g id="text_10">
      <!-- $\mathdefault{10^{-3}}$ -->
      <g transform="translate(7.2 217.136597)scale(0.1 -0.1)">
       <use transform="translate(0 0.765625)" xlink:href="#DejaVuSans-49"/>
       <use transform="translate(63.623047 0.765625)" xlink:href="#DejaVuSans-48"/>
       <use transform="translate(128.203125 39.046875)scale(0.7)" xlink:href="#DejaVuSans-8722"/>
       <use transform="translate(186.855469 39.046875)scale(0.7)" xlink:href="#DejaVuSans-51"/>
      </g>
     </g>
    </g>
    <g id="ytick_3">
     <g id="line2d_10">
      <g>
       <use style="stroke:#000000;stroke-width:0.8;" x="37.7" xlink:href="#m05bbfca77a" y="175.879277"/>
      </g>
     </g>
     <g id="text_11">
      <!-- $\mathdefault{10^{-2}}$ -->
      <g transform="translate(7.2 179.678496)scale(0.1 -0.1)">
       <use transform="translate(0 0.765625)" xlink:href="#DejaVuSans-49"/>
       <use transform="translate(63.623047 0.765625)" xlink:href="#DejaVuSans-48"/>
       <use transform="translate(128.203125 39.046875)scale(0.7)" xlink:href="#DejaVuSans-8722"/>
       <use transform="translate(186.855469 39.046875)scale(0.7)" xlink:href="#DejaVuSans-50"/>
      </g>
     </g>
    </g>
    <g id="ytick_4">
     <g id="line2d_11">
      <g>
       <use style="stroke:#000000;stroke-width:0.8;" x="37.7" xlink:href="#m05bbfca77a" y="138.421176"/>
      </g>
     </g>
     <g id="text_12">
      <!-- $\mathdefault{10^{-1}}$ -->
      <g transform="translate(7.2 142.220394)scale(0.1 -0.1)">
       <use transform="translate(0 0.684375)" xlink:href="#DejaVuSans-49"/>
       <use transform="translate(63.623047 0.684375)" xlink:href="#DejaVuSans-48"/>
       <use transform="translate(128.203125 38.965625)scale(0.7)" xlink:href="#DejaVuSans-8722"/>
       <use transform="translate(186.855469 38.965625)scale(0.7)" xlink:href="#DejaVuSans-49"/>
      </g>
     </g>
    </g>
    <g id="ytick_5">
     <g id="line2d_12">
      <g>
       <use style="stroke:#000000;stroke-width:0.8;" x="37.7" xlink:href="#m05bbfca77a" y="100.963074"/>
      </g>
     </g>
     <g id="text_13">
      <!-- $\mathdefault{10^{0}}$ -->
      <g transform="translate(13.1 104.762293)scale(0.1 -0.1)">
       <use transform="translate(0 0.765625)" xlink:href="#DejaVuSans-49"/>
       <use transform="translate(63.623047 0.765625)" xlink:href="#DejaVuSans-48"/>
       <use transform="translate(128.203125 39.046875)scale(0.7)" xlink:href="#DejaVuSans-48"/>
      </g>
     </g>
    </g>
    <g id="ytick_6">
     <g id="line2d_13">
      <g>
       <use style="stroke:#000000;stroke-width:0.8;" x="37.7" xlink:href="#m05bbfca77a" y="63.504973"/>
      </g>
     </g>
     <g id="text_14">
      <!-- $\mathdefault{10^{1}}$ -->
      <g transform="translate(13.1 67.304192)scale(0.1 -0.1)">
       <use transform="translate(0 0.684375)" xlink:href="#DejaVuSans-49"/>
       <use transform="translate(63.623047 0.684375)" xlink:href="#DejaVuSans-48"/>
       <use transform="translate(128.203125 38.965625)scale(0.7)" xlink:href="#DejaVuSans-49"/>
      </g>
     </g>
    </g>
    <g id="ytick_7">
     <g id="line2d_14">
      <g>
       <use style="stroke:#000000;stroke-width:0.8;" x="37.7" xlink:href="#m05bbfca77a" y="26.046871"/>
      </g>
     </g>
     <g id="text_15">
      <!-- $\mathdefault{10^{2}}$ -->
      <g transform="translate(13.1 29.84609)scale(0.1 -0.1)">
       <use transform="translate(0 0.765625)" xlink:href="#DejaVuSans-49"/>
       <use transform="translate(63.623047 0.765625)" xlink:href="#DejaVuSans-48"/>
       <use transform="translate(128.203125 39.046875)scale(0.7)" xlink:href="#DejaVuSans-50"/>
      </g>
     </g>
    </g>
    <g id="ytick_8">
     <g id="line2d_15">
      <defs>
       <path d="M 0 0 
L -2 0 
" id="mccf4545bfd" style="stroke:#000000;stroke-width:0.6;"/>
      </defs>
      <g>
       <use style="stroke:#000000;stroke-width:0.6;" x="37.7" xlink:href="#mccf4545bfd" y="270.381525"/>
      </g>
     </g>
    </g>
    <g id="ytick_9">
     <g id="line2d_16">
      <g>
       <use style="stroke:#000000;stroke-width:0.6;" x="37.7" xlink:href="#mccf4545bfd" y="265.701557"/>
      </g>
     </g>
    </g>
    <g id="ytick_10">
     <g id="line2d_17">
      <g>
       <use style="stroke:#000000;stroke-width:0.6;" x="37.7" xlink:href="#mccf4545bfd" y="262.071492"/>
      </g>
     </g>
    </g>
    <g id="ytick_11">
     <g id="line2d_18">
      <g>
       <use style="stroke:#000000;stroke-width:0.6;" x="37.7" xlink:href="#mccf4545bfd" y="259.105513"/>
      </g>
     </g>
    </g>
    <g id="ytick_12">
     <g id="line2d_19">
      <g>
       <use style="stroke:#000000;stroke-width:0.6;" x="37.7" xlink:href="#mccf4545bfd" y="256.597813"/>
      </g>
     </g>
    </g>
    <g id="ytick_13">
     <g id="line2d_20">
      <g>
       <use style="stroke:#000000;stroke-width:0.6;" x="37.7" xlink:href="#mccf4545bfd" y="254.425545"/>
      </g>
     </g>
    </g>
    <g id="ytick_14">
     <g id="line2d_21">
      <g>
       <use style="stroke:#000000;stroke-width:0.6;" x="37.7" xlink:href="#mccf4545bfd" y="252.509469"/>
      </g>
     </g>
    </g>
    <g id="ytick_15">
     <g id="line2d_22">
      <g>
       <use style="stroke:#000000;stroke-width:0.6;" x="37.7" xlink:href="#mccf4545bfd" y="239.519468"/>
      </g>
     </g>
    </g>
    <g id="ytick_16">
     <g id="line2d_23">
      <g>
       <use style="stroke:#000000;stroke-width:0.6;" x="37.7" xlink:href="#mccf4545bfd" y="232.923424"/>
      </g>
     </g>
    </g>
    <g id="ytick_17">
     <g id="line2d_24">
      <g>
       <use style="stroke:#000000;stroke-width:0.6;" x="37.7" xlink:href="#mccf4545bfd" y="228.243456"/>
      </g>
     </g>
    </g>
    <g id="ytick_18">
     <g id="line2d_25">
      <g>
       <use style="stroke:#000000;stroke-width:0.6;" x="37.7" xlink:href="#mccf4545bfd" y="224.613391"/>
      </g>
     </g>
    </g>
    <g id="ytick_19">
     <g id="line2d_26">
      <g>
       <use style="stroke:#000000;stroke-width:0.6;" x="37.7" xlink:href="#mccf4545bfd" y="221.647412"/>
      </g>
     </g>
    </g>
    <g id="ytick_20">
     <g id="line2d_27">
      <g>
       <use style="stroke:#000000;stroke-width:0.6;" x="37.7" xlink:href="#mccf4545bfd" y="219.139712"/>
      </g>
     </g>
    </g>
    <g id="ytick_21">
     <g id="line2d_28">
      <g>
       <use style="stroke:#000000;stroke-width:0.6;" x="37.7" xlink:href="#mccf4545bfd" y="216.967444"/>
      </g>
     </g>
    </g>
    <g id="ytick_22">
     <g id="line2d_29">
      <g>
       <use style="stroke:#000000;stroke-width:0.6;" x="37.7" xlink:href="#mccf4545bfd" y="215.051367"/>
      </g>
     </g>
    </g>
    <g id="ytick_23">
     <g id="line2d_30">
      <g>
       <use style="stroke:#000000;stroke-width:0.6;" x="37.7" xlink:href="#mccf4545bfd" y="202.061366"/>
      </g>
     </g>
    </g>
    <g id="ytick_24">
     <g id="line2d_31">
      <g>
       <use style="stroke:#000000;stroke-width:0.6;" x="37.7" xlink:href="#mccf4545bfd" y="195.465322"/>
      </g>
     </g>
    </g>
    <g id="ytick_25">
     <g id="line2d_32">
      <g>
       <use style="stroke:#000000;stroke-width:0.6;" x="37.7" xlink:href="#mccf4545bfd" y="190.785354"/>
      </g>
     </g>
    </g>
    <g id="ytick_26">
     <g id="line2d_33">
      <g>
       <use style="stroke:#000000;stroke-width:0.6;" x="37.7" xlink:href="#mccf4545bfd" y="187.155289"/>
      </g>
     </g>
    </g>
    <g id="ytick_27">
     <g id="line2d_34">
      <g>
       <use style="stroke:#000000;stroke-width:0.6;" x="37.7" xlink:href="#mccf4545bfd" y="184.18931"/>
      </g>
     </g>
    </g>
    <g id="ytick_28">
     <g id="line2d_35">
      <g>
       <use style="stroke:#000000;stroke-width:0.6;" x="37.7" xlink:href="#mccf4545bfd" y="181.68161"/>
      </g>
     </g>
    </g>
    <g id="ytick_29">
     <g id="line2d_36">
      <g>
       <use style="stroke:#000000;stroke-width:0.6;" x="37.7" xlink:href="#mccf4545bfd" y="179.509342"/>
      </g>
     </g>
    </g>
    <g id="ytick_30">
     <g id="line2d_37">
      <g>
       <use style="stroke:#000000;stroke-width:0.6;" x="37.7" xlink:href="#mccf4545bfd" y="177.593266"/>
      </g>
     </g>
    </g>
    <g id="ytick_31">
     <g id="line2d_38">
      <g>
       <use style="stroke:#000000;stroke-width:0.6;" x="37.7" xlink:href="#mccf4545bfd" y="164.603265"/>
      </g>
     </g>
    </g>
    <g id="ytick_32">
     <g id="line2d_39">
      <g>
       <use style="stroke:#000000;stroke-width:0.6;" x="37.7" xlink:href="#mccf4545bfd" y="158.007221"/>
      </g>
     </g>
    </g>
    <g id="ytick_33">
     <g id="line2d_40">
      <g>
       <use style="stroke:#000000;stroke-width:0.6;" x="37.7" xlink:href="#mccf4545bfd" y="153.327253"/>
      </g>
     </g>
    </g>
    <g id="ytick_34">
     <g id="line2d_41">
      <g>
       <use style="stroke:#000000;stroke-width:0.6;" x="37.7" xlink:href="#mccf4545bfd" y="149.697188"/>
      </g>
     </g>
    </g>
    <g id="ytick_35">
     <g id="line2d_42">
      <g>
       <use style="stroke:#000000;stroke-width:0.6;" x="37.7" xlink:href="#mccf4545bfd" y="146.731209"/>
      </g>
     </g>
    </g>
    <g id="ytick_36">
     <g id="line2d_43">
      <g>
       <use style="stroke:#000000;stroke-width:0.6;" x="37.7" xlink:href="#mccf4545bfd" y="144.223509"/>
      </g>
     </g>
    </g>
    <g id="ytick_37">
     <g id="line2d_44">
      <g>
       <use style="stroke:#000000;stroke-width:0.6;" x="37.7" xlink:href="#mccf4545bfd" y="142.051241"/>
      </g>
     </g>
    </g>
    <g id="ytick_38">
     <g id="line2d_45">
      <g>
       <use style="stroke:#000000;stroke-width:0.6;" x="37.7" xlink:href="#mccf4545bfd" y="140.135164"/>
      </g>
     </g>
    </g>
    <g id="ytick_39">
     <g id="line2d_46">
      <g>
       <use style="stroke:#000000;stroke-width:0.6;" x="37.7" xlink:href="#mccf4545bfd" y="127.145164"/>
      </g>
     </g>
    </g>
    <g id="ytick_40">
     <g id="line2d_47">
      <g>
       <use style="stroke:#000000;stroke-width:0.6;" x="37.7" xlink:href="#mccf4545bfd" y="120.549119"/>
      </g>
     </g>
    </g>
    <g id="ytick_41">
     <g id="line2d_48">
      <g>
       <use style="stroke:#000000;stroke-width:0.6;" x="37.7" xlink:href="#mccf4545bfd" y="115.869151"/>
      </g>
     </g>
    </g>
    <g id="ytick_42">
     <g id="line2d_49">
      <g>
       <use style="stroke:#000000;stroke-width:0.6;" x="37.7" xlink:href="#mccf4545bfd" y="112.239086"/>
      </g>
     </g>
    </g>
    <g id="ytick_43">
     <g id="line2d_50">
      <g>
       <use style="stroke:#000000;stroke-width:0.6;" x="37.7" xlink:href="#mccf4545bfd" y="109.273107"/>
      </g>
     </g>
    </g>
    <g id="ytick_44">
     <g id="line2d_51">
      <g>
       <use style="stroke:#000000;stroke-width:0.6;" x="37.7" xlink:href="#mccf4545bfd" y="106.765408"/>
      </g>
     </g>
    </g>
    <g id="ytick_45">
     <g id="line2d_52">
      <g>
       <use style="stroke:#000000;stroke-width:0.6;" x="37.7" xlink:href="#mccf4545bfd" y="104.593139"/>
      </g>
     </g>
    </g>
    <g id="ytick_46">
     <g id="line2d_53">
      <g>
       <use style="stroke:#000000;stroke-width:0.6;" x="37.7" xlink:href="#mccf4545bfd" y="102.677063"/>
      </g>
     </g>
    </g>
    <g id="ytick_47">
     <g id="line2d_54">
      <g>
       <use style="stroke:#000000;stroke-width:0.6;" x="37.7" xlink:href="#mccf4545bfd" y="89.687062"/>
      </g>
     </g>
    </g>
    <g id="ytick_48">
     <g id="line2d_55">
      <g>
       <use style="stroke:#000000;stroke-width:0.6;" x="37.7" xlink:href="#mccf4545bfd" y="83.091018"/>
      </g>
     </g>
    </g>
    <g id="ytick_49">
     <g id="line2d_56">
      <g>
       <use style="stroke:#000000;stroke-width:0.6;" x="37.7" xlink:href="#mccf4545bfd" y="78.41105"/>
      </g>
     </g>
    </g>
    <g id="ytick_50">
     <g id="line2d_57">
      <g>
       <use style="stroke:#000000;stroke-width:0.6;" x="37.7" xlink:href="#mccf4545bfd" y="74.780985"/>
      </g>
     </g>
    </g>
    <g id="ytick_51">
     <g id="line2d_58">
      <g>
       <use style="stroke:#000000;stroke-width:0.6;" x="37.7" xlink:href="#mccf4545bfd" y="71.815006"/>
      </g>
     </g>
    </g>
    <g id="ytick_52">
     <g id="line2d_59">
      <g>
       <use style="stroke:#000000;stroke-width:0.6;" x="37.7" xlink:href="#mccf4545bfd" y="69.307306"/>
      </g>
     </g>
    </g>
    <g id="ytick_53">
     <g id="line2d_60">
      <g>
       <use style="stroke:#000000;stroke-width:0.6;" x="37.7" xlink:href="#mccf4545bfd" y="67.135038"/>
      </g>
     </g>
    </g>
    <g id="ytick_54">
     <g id="line2d_61">
      <g>
       <use style="stroke:#000000;stroke-width:0.6;" x="37.7" xlink:href="#mccf4545bfd" y="65.218962"/>
      </g>
     </g>
    </g>
    <g id="ytick_55">
     <g id="line2d_62">
      <g>
       <use style="stroke:#000000;stroke-width:0.6;" x="37.7" xlink:href="#mccf4545bfd" y="52.228961"/>
      </g>
     </g>
    </g>
    <g id="ytick_56">
     <g id="line2d_63">
      <g>
       <use style="stroke:#000000;stroke-width:0.6;" x="37.7" xlink:href="#mccf4545bfd" y="45.632916"/>
      </g>
     </g>
    </g>
    <g id="ytick_57">
     <g id="line2d_64">
      <g>
       <use style="stroke:#000000;stroke-width:0.6;" x="37.7" xlink:href="#mccf4545bfd" y="40.952949"/>
      </g>
     </g>
    </g>
    <g id="ytick_58">
     <g id="line2d_65">
      <g>
       <use style="stroke:#000000;stroke-width:0.6;" x="37.7" xlink:href="#mccf4545bfd" y="37.322883"/>
      </g>
     </g>
    </g>
    <g id="ytick_59">
     <g id="line2d_66">
      <g>
       <use style="stroke:#000000;stroke-width:0.6;" x="37.7" xlink:href="#mccf4545bfd" y="34.356904"/>
      </g>
     </g>
    </g>
    <g id="ytick_60">
     <g id="line2d_67">
      <g>
       <use style="stroke:#000000;stroke-width:0.6;" x="37.7" xlink:href="#mccf4545bfd" y="31.849205"/>
      </g>
     </g>
    </g>
    <g id="ytick_61">
     <g id="line2d_68">
      <g>
       <use style="stroke:#000000;stroke-width:0.6;" x="37.7" xlink:href="#mccf4545bfd" y="29.676936"/>
      </g>
     </g>
    </g>
    <g id="ytick_62">
     <g id="line2d_69">
      <g>
       <use style="stroke:#000000;stroke-width:0.6;" x="37.7" xlink:href="#mccf4545bfd" y="27.76086"/>
      </g>
     </g>
    </g>
    <g id="ytick_63">
     <g id="line2d_70">
      <g>
       <use style="stroke:#000000;stroke-width:0.6;" x="37.7" xlink:href="#mccf4545bfd" y="14.770859"/>
      </g>
     </g>
    </g>
    <g id="ytick_64">
     <g id="line2d_71">
      <g>
       <use style="stroke:#000000;stroke-width:0.6;" x="37.7" xlink:href="#mccf4545bfd" y="8.174815"/>
      </g>
     </g>
    </g>
   </g>
   <g id="line2d_72">
    <path clip-path="url(#p82633344d4)" d="M 53.932727 33.711549 
L 54.973287 19.296 
L 56.013846 54.53096 
L 57.054406 52.922028 
L 58.094965 59.018459 
L 59.135524 59.046837 
L 60.176084 64.657952 
L 61.216643 66.109369 
L 62.257203 71.134793 
L 63.297762 73.466438 
L 64.338322 78.047048 
L 65.378881 80.8982 
L 66.419441 85.170635 
L 67.46 88.332216 
L 68.500559 92.39911 
L 69.541119 95.748621 
L 70.581678 99.686181 
L 71.622238 103.150165 
L 74.743916 114.348559 
L 77.865594 125.271983 
L 80.987273 136.454835 
L 84.108951 147.172248 
L 85.14951 151.08584 
L 86.19007 154.373483 
L 87.230629 158.447825 
L 88.271189 161.530938 
L 89.311748 165.838041 
L 90.352308 168.704313 
L 91.392867 173.451687 
L 92.433427 175.384877 
L 93.473986 180.731073 
L 94.514545 182.309752 
L 95.555105 188.118959 
L 96.595664 188.83375 
L 97.636224 196.847607 
L 98.676783 195.541768 
L 99.717343 206.754987 
L 100.757902 201.769576 
L 101.798462 219.600067 
L 102.839021 208.864232 
L 103.87958 232.79727 
L 104.92014 212.295718 
L 105.960699 250.788933 
L 107.001259 214.923556 
L 108.041818 243.510799 
L 109.082378 220.214228 
L 110.122937 235.792228 
L 111.163497 223.983544 
L 112.204056 223.664642 
L 113.244615 227.169239 
L 114.285175 237.698239 
L 115.325734 223.876629 
L 116.366294 232.923608 
L 117.406853 224.939958 
L 118.447413 228.996693 
L 119.487972 223.154999 
L 120.528531 230.525883 
L 121.569091 223.236133 
L 122.60965 234.902243 
L 123.65021 226.204964 
L 124.690769 210.370542 
L 125.731329 224.079209 
L 126.771888 206.005214 
L 127.812448 222.384608 
L 128.853007 209.539222 
L 129.893566 234.227888 
L 130.934126 214.811812 
L 131.974685 256.922028 
L 133.015245 219.646175 
L 134.055804 233.426173 
L 135.096364 221.909218 
L 136.136923 234.196514 
L 137.177483 220.199473 
L 138.218042 233.445514 
L 139.258601 223.622024 
L 140.299161 230.898707 
L 141.33972 225.902244 
L 142.38028 227.852277 
L 143.420839 231.139022 
L 144.461399 221.046988 
L 145.501958 232.407728 
L 146.542517 226.8389 
L 147.583077 226.527914 
L 148.623636 228.798273 
L 149.664196 223.691955 
L 150.704755 229.21932 
L 151.745315 219.986391 
L 152.785874 244.648021 
L 153.826434 220.457566 
L 154.866993 239.735966 
L 155.907552 221.31486 
L 156.948112 228.860641 
L 157.988671 223.80308 
L 159.029231 234.785434 
L 160.06979 226.867398 
L 161.11035 229.673494 
L 162.150909 215.803716 
L 163.191469 248.358138 
L 164.232028 214.450462 
L 165.272587 259.241021 
L 166.313147 216.181262 
L 167.353706 240.929053 
L 168.394266 221.641283 
L 169.434825 231.804616 
L 170.475385 221.519591 
L 171.515944 235.966649 
L 172.556503 221.402722 
L 173.597063 234.730453 
L 174.637622 221.643327 
L 175.678182 244.77805 
L 176.718741 218.115271 
L 177.759301 244.044428 
L 178.79986 221.517462 
L 179.84042 234.99941 
L 180.880979 219.498959 
L 181.921538 243.667907 
L 182.962098 220.272778 
L 184.002657 234.775495 
L 185.043217 221.792942 
L 186.083776 226.217539 
L 187.124336 227.349753 
L 188.164895 223.855558 
L 189.205455 232.340315 
L 190.246014 225.017386 
L 191.286573 230.931572 
L 192.327133 225.605392 
L 193.367692 230.958658 
L 194.408252 225.41664 
L 195.448811 228.185666 
L 196.489371 224.162637 
L 197.52993 228.649442 
L 198.57049 225.856689 
L 199.611049 230.852583 
L 200.651608 224.500752 
L 201.692168 225.39576 
L 202.732727 228.700713 
L 203.773287 221.946721 
L 204.813846 233.792754 
L 205.854406 224.030046 
L 206.894965 233.593203 
L 207.935524 220.53946 
L 208.976084 232.00774 
L 210.016643 225.080484 
L 211.057203 227.966611 
L 212.097762 222.558406 
L 213.138322 229.079633 
L 214.178881 225.319239 
L 215.219441 230.324959 
L 216.26 223.398443 
L 217.300559 226.95595 
L 218.341119 228.995561 
L 219.381678 220.402262 
L 221.462797 235.530776 
L 222.503357 223.80129 
L 223.543916 228.82979 
L 224.584476 223.772666 
L 225.625035 233.024469 
L 226.665594 223.677106 
L 227.706154 229.197404 
L 228.746713 222.674357 
L 229.787273 231.35639 
L 230.827832 223.568692 
L 231.868392 228.449117 
L 232.908951 229.631596 
L 233.94951 229.484875 
L 234.99007 224.898436 
L 236.030629 225.675805 
L 237.071189 225.445918 
L 238.111748 231.774462 
L 239.152308 222.493245 
L 240.192867 235.034128 
L 241.233427 225.873998 
L 242.273986 232.741158 
L 243.314545 223.137084 
L 244.355105 232.551306 
L 245.395664 224.683917 
L 246.436224 228.276131 
L 247.476783 224.449112 
L 248.517343 234.210426 
L 249.557902 220.34606 
L 250.598462 244.82281 
L 251.639021 218.420549 
L 252.67958 234.749805 
L 253.72014 222.107356 
L 254.760699 231.900332 
L 255.801259 225.264582 
L 256.841818 224.669059 
L 257.882378 228.914522 
L 258.922937 230.537023 
L 259.963497 224.258687 
L 261.004056 229.762176 
L 262.044615 222.532217 
L 263.085175 234.592725 
L 264.125734 224.123269 
L 265.166294 224.361211 
L 266.206853 234.720381 
L 267.247413 228.324108 
L 268.287972 227.77307 
L 269.328531 224.794991 
L 270.369091 228.40238 
L 271.40965 221.395517 
L 272.45021 209.045717 
L 273.490769 220.228244 
L 274.531329 208.760564 
L 275.571888 227.890171 
L 276.612448 210.980031 
L 277.653007 234.509498 
L 278.693566 208.289973 
L 279.734126 230.020017 
L 280.774685 210.943266 
L 281.815245 231.784898 
L 282.855804 214.624643 
L 283.896364 252.498278 
L 284.936923 220.879039 
L 287.018042 233.165924 
L 288.058601 225.405187 
L 289.099161 227.55002 
L 290.13972 222.633337 
L 291.18028 238.842892 
L 292.220839 222.340968 
L 293.261399 239.151598 
L 294.301958 224.572894 
L 295.342517 227.273263 
L 296.383077 224.812652 
L 297.423636 229.155289 
L 298.464196 224.718595 
L 299.504755 231.20714 
L 300.545315 228.193668 
L 301.585874 223.192067 
L 302.626434 231.989127 
L 303.666993 221.90186 
L 304.707552 233.154992 
L 305.748112 224.660508 
L 306.788671 222.169533 
L 307.829231 232.870653 
L 308.86979 221.942341 
L 309.91035 231.04964 
L 310.950909 223.656433 
L 311.991469 233.07757 
L 313.032028 221.415262 
L 314.072587 232.150878 
L 315.113147 221.754449 
L 316.153706 226.860589 
L 317.194266 227.285121 
L 318.234825 235.033921 
L 319.275385 223.140179 
L 320.315944 229.15379 
L 321.356503 228.084541 
L 322.397063 231.225309 
L 323.437622 216.312768 
L 324.478182 249.378042 
L 325.518741 218.017119 
L 326.559301 249.022179 
L 327.59986 220.377759 
L 328.64042 233.55517 
L 329.680979 222.886316 
L 330.721538 234.457811 
L 331.762098 221.671522 
L 332.802657 233.930008 
L 333.843217 220.500974 
L 334.883776 230.631525 
L 335.924336 221.793516 
L 336.964895 235.15554 
L 338.005455 222.736534 
L 339.046014 223.80588 
L 340.086573 230.535839 
L 341.127133 218.090779 
L 342.167692 243.18317 
L 343.208252 219.996339 
L 344.248811 232.960856 
L 345.289371 222.961048 
L 346.32993 234.719556 
L 347.37049 223.264637 
L 348.411049 233.981536 
L 349.451608 220.645205 
L 350.492168 252.90258 
L 351.532727 218.829393 
L 352.573287 244.445036 
L 353.613846 210.580363 
L 354.654406 232.141351 
L 355.694965 210.37748 
L 356.735524 249.608169 
L 357.776084 215.000533 
L 358.816643 238.127914 
L 359.857203 219.755469 
L 360.897762 235.035253 
L 361.938322 219.668423 
L 362.978881 243.661051 
L 364.019441 221.133908 
L 365.06 242.54058 
L 366.100559 223.398556 
L 367.141119 234.906275 
L 368.181678 221.449614 
L 369.222238 227.330463 
L 370.262797 227.486355 
L 371.303357 222.245255 
L 372.343916 213.466255 
L 373.384476 230.385165 
L 374.425035 211.451825 
L 375.465594 261.216 
L 376.506154 215.419038 
L 376.508841 311.86825 
L 376.508841 311.86825 
" style="fill:none;stroke:#1f77b4;stroke-linecap:square;stroke-width:1.5;"/>
    <defs>
     <path d="M 0 3 
C 0.795609 3 1.55874 2.683901 2.12132 2.12132 
C 2.683901 1.55874 3 0.795609 3 0 
C 3 -0.795609 2.683901 -1.55874 2.12132 -2.12132 
C 1.55874 -2.683901 0.795609 -3 0 -3 
C -0.795609 -3 -1.55874 -2.683901 -2.12132 -2.12132 
C -2.683901 -1.55874 -3 -0.795609 -3 0 
C -3 0.795609 -2.683901 1.55874 -2.12132 2.12132 
C -1.55874 2.683901 -0.795609 3 0 3 
z
" id="mbde917e79f" style="stroke:#1f77b4;"/>
    </defs>
    <g clip-path="url(#p82633344d4)">
     <use style="fill:#1f77b4;stroke:#1f77b4;" x="53.932727" xlink:href="#mbde917e79f" y="33.711549"/>
     <use style="fill:#1f77b4;stroke:#1f77b4;" x="54.973287" xlink:href="#mbde917e79f" y="19.296"/>
     <use style="fill:#1f77b4;stroke:#1f77b4;" x="56.013846" xlink:href="#mbde917e79f" y="54.53096"/>
     <use style="fill:#1f77b4;stroke:#1f77b4;" x="57.054406" xlink:href="#mbde917e79f" y="52.922028"/>
     <use style="fill:#1f77b4;stroke:#1f77b4;" x="58.094965" xlink:href="#mbde917e79f" y="59.018459"/>
     <use style="fill:#1f77b4;stroke:#1f77b4;" x="59.135524" xlink:href="#mbde917e79f" y="59.046837"/>
     <use style="fill:#1f77b4;stroke:#1f77b4;" x="60.176084" xlink:href="#mbde917e79f" y="64.657952"/>
     <use style="fill:#1f77b4;stroke:#1f77b4;" x="61.216643" xlink:href="#mbde917e79f" y="66.109369"/>
     <use style="fill:#1f77b4;stroke:#1f77b4;" x="62.257203" xlink:href="#mbde917e79f" y="71.134793"/>
     <use style="fill:#1f77b4;stroke:#1f77b4;" x="63.297762" xlink:href="#mbde917e79f" y="73.466438"/>
     <use style="fill:#1f77b4;stroke:#1f77b4;" x="64.338322" xlink:href="#mbde917e79f" y="78.047048"/>
     <use style="fill:#1f77b4;stroke:#1f77b4;" x="65.378881" xlink:href="#mbde917e79f" y="80.8982"/>
     <use style="fill:#1f77b4;stroke:#1f77b4;" x="66.419441" xlink:href="#mbde917e79f" y="85.170635"/>
     <use style="fill:#1f77b4;stroke:#1f77b4;" x="67.46" xlink:href="#mbde917e79f" y="88.332216"/>
     <use style="fill:#1f77b4;stroke:#1f77b4;" x="68.500559" xlink:href="#mbde917e79f" y="92.39911"/>
     <use style="fill:#1f77b4;stroke:#1f77b4;" x="69.541119" xlink:href="#mbde917e79f" y="95.748621"/>
     <use style="fill:#1f77b4;stroke:#1f77b4;" x="70.581678" xlink:href="#mbde917e79f" y="99.686181"/>
     <use style="fill:#1f77b4;stroke:#1f77b4;" x="71.622238" xlink:href="#mbde917e79f" y="103.150165"/>
     <use style="fill:#1f77b4;stroke:#1f77b4;" x="72.662797" xlink:href="#mbde917e79f" y="107.005764"/>
     <use style="fill:#1f77b4;stroke:#1f77b4;" x="73.703357" xlink:href="#mbde917e79f" y="110.537169"/>
     <use style="fill:#1f77b4;stroke:#1f77b4;" x="74.743916" xlink:href="#mbde917e79f" y="114.348559"/>
     <use style="fill:#1f77b4;stroke:#1f77b4;" x="75.784476" xlink:href="#mbde917e79f" y="117.907901"/>
     <use style="fill:#1f77b4;stroke:#1f77b4;" x="76.825035" xlink:href="#mbde917e79f" y="121.701867"/>
     <use style="fill:#1f77b4;stroke:#1f77b4;" x="77.865594" xlink:href="#mbde917e79f" y="125.271983"/>
     <use style="fill:#1f77b4;stroke:#1f77b4;" x="78.906154" xlink:href="#mbde917e79f" y="129.06968"/>
     <use style="fill:#1f77b4;stroke:#1f77b4;" x="79.946713" xlink:href="#mbde917e79f" y="132.623868"/>
     <use style="fill:#1f77b4;stroke:#1f77b4;" x="80.987273" xlink:href="#mbde917e79f" y="136.454835"/>
     <use style="fill:#1f77b4;stroke:#1f77b4;" x="82.027832" xlink:href="#mbde917e79f" y="139.971149"/>
     <use style="fill:#1f77b4;stroke:#1f77b4;" x="83.068392" xlink:href="#mbde917e79f" y="143.842509"/>
     <use style="fill:#1f77b4;stroke:#1f77b4;" x="84.108951" xlink:href="#mbde917e79f" y="147.172248"/>
     <use style="fill:#1f77b4;stroke:#1f77b4;" x="85.14951" xlink:href="#mbde917e79f" y="151.08584"/>
     <use style="fill:#1f77b4;stroke:#1f77b4;" x="86.19007" xlink:href="#mbde917e79f" y="154.373483"/>
     <use style="fill:#1f77b4;stroke:#1f77b4;" x="87.230629" xlink:href="#mbde917e79f" y="158.447825"/>
     <use style="fill:#1f77b4;stroke:#1f77b4;" x="88.271189" xlink:href="#mbde917e79f" y="161.530938"/>
     <use style="fill:#1f77b4;stroke:#1f77b4;" x="89.311748" xlink:href="#mbde917e79f" y="165.838041"/>
     <use style="fill:#1f77b4;stroke:#1f77b4;" x="90.352308" xlink:href="#mbde917e79f" y="168.704313"/>
     <use style="fill:#1f77b4;stroke:#1f77b4;" x="91.392867" xlink:href="#mbde917e79f" y="173.451687"/>
     <use style="fill:#1f77b4;stroke:#1f77b4;" x="92.433427" xlink:href="#mbde917e79f" y="175.384877"/>
     <use style="fill:#1f77b4;stroke:#1f77b4;" x="93.473986" xlink:href="#mbde917e79f" y="180.731073"/>
     <use style="fill:#1f77b4;stroke:#1f77b4;" x="94.514545" xlink:href="#mbde917e79f" y="182.309752"/>
     <use style="fill:#1f77b4;stroke:#1f77b4;" x="95.555105" xlink:href="#mbde917e79f" y="188.118959"/>
     <use style="fill:#1f77b4;stroke:#1f77b4;" x="96.595664" xlink:href="#mbde917e79f" y="188.83375"/>
     <use style="fill:#1f77b4;stroke:#1f77b4;" x="97.636224" xlink:href="#mbde917e79f" y="196.847607"/>
     <use style="fill:#1f77b4;stroke:#1f77b4;" x="98.676783" xlink:href="#mbde917e79f" y="195.541768"/>
     <use style="fill:#1f77b4;stroke:#1f77b4;" x="99.717343" xlink:href="#mbde917e79f" y="206.754987"/>
     <use style="fill:#1f77b4;stroke:#1f77b4;" x="100.757902" xlink:href="#mbde917e79f" y="201.769576"/>
     <use style="fill:#1f77b4;stroke:#1f77b4;" x="101.798462" xlink:href="#mbde917e79f" y="219.600067"/>
     <use style="fill:#1f77b4;stroke:#1f77b4;" x="102.839021" xlink:href="#mbde917e79f" y="208.864232"/>
     <use style="fill:#1f77b4;stroke:#1f77b4;" x="103.87958" xlink:href="#mbde917e79f" y="232.79727"/>
     <use style="fill:#1f77b4;stroke:#1f77b4;" x="104.92014" xlink:href="#mbde917e79f" y="212.295718"/>
     <use style="fill:#1f77b4;stroke:#1f77b4;" x="105.960699" xlink:href="#mbde917e79f" y="250.788933"/>
     <use style="fill:#1f77b4;stroke:#1f77b4;" x="107.001259" xlink:href="#mbde917e79f" y="214.923556"/>
     <use style="fill:#1f77b4;stroke:#1f77b4;" x="108.041818" xlink:href="#mbde917e79f" y="243.510799"/>
     <use style="fill:#1f77b4;stroke:#1f77b4;" x="109.082378" xlink:href="#mbde917e79f" y="220.214228"/>
     <use style="fill:#1f77b4;stroke:#1f77b4;" x="110.122937" xlink:href="#mbde917e79f" y="235.792228"/>
     <use style="fill:#1f77b4;stroke:#1f77b4;" x="111.163497" xlink:href="#mbde917e79f" y="223.983544"/>
     <use style="fill:#1f77b4;stroke:#1f77b4;" x="112.204056" xlink:href="#mbde917e79f" y="223.664642"/>
     <use style="fill:#1f77b4;stroke:#1f77b4;" x="113.244615" xlink:href="#mbde917e79f" y="227.169239"/>
     <use style="fill:#1f77b4;stroke:#1f77b4;" x="114.285175" xlink:href="#mbde917e79f" y="237.698239"/>
     <use style="fill:#1f77b4;stroke:#1f77b4;" x="115.325734" xlink:href="#mbde917e79f" y="223.876629"/>
     <use style="fill:#1f77b4;stroke:#1f77b4;" x="116.366294" xlink:href="#mbde917e79f" y="232.923608"/>
     <use style="fill:#1f77b4;stroke:#1f77b4;" x="117.406853" xlink:href="#mbde917e79f" y="224.939958"/>
     <use style="fill:#1f77b4;stroke:#1f77b4;" x="118.447413" xlink:href="#mbde917e79f" y="228.996693"/>
     <use style="fill:#1f77b4;stroke:#1f77b4;" x="119.487972" xlink:href="#mbde917e79f" y="223.154999"/>
     <use style="fill:#1f77b4;stroke:#1f77b4;" x="120.528531" xlink:href="#mbde917e79f" y="230.525883"/>
     <use style="fill:#1f77b4;stroke:#1f77b4;" x="121.569091" xlink:href="#mbde917e79f" y="223.236133"/>
     <use style="fill:#1f77b4;stroke:#1f77b4;" x="122.60965" xlink:href="#mbde917e79f" y="234.902243"/>
     <use style="fill:#1f77b4;stroke:#1f77b4;" x="123.65021" xlink:href="#mbde917e79f" y="226.204964"/>
     <use style="fill:#1f77b4;stroke:#1f77b4;" x="124.690769" xlink:href="#mbde917e79f" y="210.370542"/>
     <use style="fill:#1f77b4;stroke:#1f77b4;" x="125.731329" xlink:href="#mbde917e79f" y="224.079209"/>
     <use style="fill:#1f77b4;stroke:#1f77b4;" x="126.771888" xlink:href="#mbde917e79f" y="206.005214"/>
     <use style="fill:#1f77b4;stroke:#1f77b4;" x="127.812448" xlink:href="#mbde917e79f" y="222.384608"/>
     <use style="fill:#1f77b4;stroke:#1f77b4;" x="128.853007" xlink:href="#mbde917e79f" y="209.539222"/>
     <use style="fill:#1f77b4;stroke:#1f77b4;" x="129.893566" xlink:href="#mbde917e79f" y="234.227888"/>
     <use style="fill:#1f77b4;stroke:#1f77b4;" x="130.934126" xlink:href="#mbde917e79f" y="214.811812"/>
     <use style="fill:#1f77b4;stroke:#1f77b4;" x="131.974685" xlink:href="#mbde917e79f" y="256.922028"/>
     <use style="fill:#1f77b4;stroke:#1f77b4;" x="133.015245" xlink:href="#mbde917e79f" y="219.646175"/>
     <use style="fill:#1f77b4;stroke:#1f77b4;" x="134.055804" xlink:href="#mbde917e79f" y="233.426173"/>
     <use style="fill:#1f77b4;stroke:#1f77b4;" x="135.096364" xlink:href="#mbde917e79f" y="221.909218"/>
     <use style="fill:#1f77b4;stroke:#1f77b4;" x="136.136923" xlink:href="#mbde917e79f" y="234.196514"/>
     <use style="fill:#1f77b4;stroke:#1f77b4;" x="137.177483" xlink:href="#mbde917e79f" y="220.199473"/>
     <use style="fill:#1f77b4;stroke:#1f77b4;" x="138.218042" xlink:href="#mbde917e79f" y="233.445514"/>
     <use style="fill:#1f77b4;stroke:#1f77b4;" x="139.258601" xlink:href="#mbde917e79f" y="223.622024"/>
     <use style="fill:#1f77b4;stroke:#1f77b4;" x="140.299161" xlink:href="#mbde917e79f" y="230.898707"/>
     <use style="fill:#1f77b4;stroke:#1f77b4;" x="141.33972" xlink:href="#mbde917e79f" y="225.902244"/>
     <use style="fill:#1f77b4;stroke:#1f77b4;" x="142.38028" xlink:href="#mbde917e79f" y="227.852277"/>
     <use style="fill:#1f77b4;stroke:#1f77b4;" x="143.420839" xlink:href="#mbde917e79f" y="231.139022"/>
     <use style="fill:#1f77b4;stroke:#1f77b4;" x="144.461399" xlink:href="#mbde917e79f" y="221.046988"/>
     <use style="fill:#1f77b4;stroke:#1f77b4;" x="145.501958" xlink:href="#mbde917e79f" y="232.407728"/>
     <use style="fill:#1f77b4;stroke:#1f77b4;" x="146.542517" xlink:href="#mbde917e79f" y="226.8389"/>
     <use style="fill:#1f77b4;stroke:#1f77b4;" x="147.583077" xlink:href="#mbde917e79f" y="226.527914"/>
     <use style="fill:#1f77b4;stroke:#1f77b4;" x="148.623636" xlink:href="#mbde917e79f" y="228.798273"/>
     <use style="fill:#1f77b4;stroke:#1f77b4;" x="149.664196" xlink:href="#mbde917e79f" y="223.691955"/>
     <use style="fill:#1f77b4;stroke:#1f77b4;" x="150.704755" xlink:href="#mbde917e79f" y="229.21932"/>
     <use style="fill:#1f77b4;stroke:#1f77b4;" x="151.745315" xlink:href="#mbde917e79f" y="219.986391"/>
     <use style="fill:#1f77b4;stroke:#1f77b4;" x="152.785874" xlink:href="#mbde917e79f" y="244.648021"/>
     <use style="fill:#1f77b4;stroke:#1f77b4;" x="153.826434" xlink:href="#mbde917e79f" y="220.457566"/>
     <use style="fill:#1f77b4;stroke:#1f77b4;" x="154.866993" xlink:href="#mbde917e79f" y="239.735966"/>
     <use style="fill:#1f77b4;stroke:#1f77b4;" x="155.907552" xlink:href="#mbde917e79f" y="221.31486"/>
     <use style="fill:#1f77b4;stroke:#1f77b4;" x="156.948112" xlink:href="#mbde917e79f" y="228.860641"/>
     <use style="fill:#1f77b4;stroke:#1f77b4;" x="157.988671" xlink:href="#mbde917e79f" y="223.80308"/>
     <use style="fill:#1f77b4;stroke:#1f77b4;" x="159.029231" xlink:href="#mbde917e79f" y="234.785434"/>
     <use style="fill:#1f77b4;stroke:#1f77b4;" x="160.06979" xlink:href="#mbde917e79f" y="226.867398"/>
     <use style="fill:#1f77b4;stroke:#1f77b4;" x="161.11035" xlink:href="#mbde917e79f" y="229.673494"/>
     <use style="fill:#1f77b4;stroke:#1f77b4;" x="162.150909" xlink:href="#mbde917e79f" y="215.803716"/>
     <use style="fill:#1f77b4;stroke:#1f77b4;" x="163.191469" xlink:href="#mbde917e79f" y="248.358138"/>
     <use style="fill:#1f77b4;stroke:#1f77b4;" x="164.232028" xlink:href="#mbde917e79f" y="214.450462"/>
     <use style="fill:#1f77b4;stroke:#1f77b4;" x="165.272587" xlink:href="#mbde917e79f" y="259.241021"/>
     <use style="fill:#1f77b4;stroke:#1f77b4;" x="166.313147" xlink:href="#mbde917e79f" y="216.181262"/>
     <use style="fill:#1f77b4;stroke:#1f77b4;" x="167.353706" xlink:href="#mbde917e79f" y="240.929053"/>
     <use style="fill:#1f77b4;stroke:#1f77b4;" x="168.394266" xlink:href="#mbde917e79f" y="221.641283"/>
     <use style="fill:#1f77b4;stroke:#1f77b4;" x="169.434825" xlink:href="#mbde917e79f" y="231.804616"/>
     <use style="fill:#1f77b4;stroke:#1f77b4;" x="170.475385" xlink:href="#mbde917e79f" y="221.519591"/>
     <use style="fill:#1f77b4;stroke:#1f77b4;" x="171.515944" xlink:href="#mbde917e79f" y="235.966649"/>
     <use style="fill:#1f77b4;stroke:#1f77b4;" x="172.556503" xlink:href="#mbde917e79f" y="221.402722"/>
     <use style="fill:#1f77b4;stroke:#1f77b4;" x="173.597063" xlink:href="#mbde917e79f" y="234.730453"/>
     <use style="fill:#1f77b4;stroke:#1f77b4;" x="174.637622" xlink:href="#mbde917e79f" y="221.643327"/>
     <use style="fill:#1f77b4;stroke:#1f77b4;" x="175.678182" xlink:href="#mbde917e79f" y="244.77805"/>
     <use style="fill:#1f77b4;stroke:#1f77b4;" x="176.718741" xlink:href="#mbde917e79f" y="218.115271"/>
     <use style="fill:#1f77b4;stroke:#1f77b4;" x="177.759301" xlink:href="#mbde917e79f" y="244.044428"/>
     <use style="fill:#1f77b4;stroke:#1f77b4;" x="178.79986" xlink:href="#mbde917e79f" y="221.517462"/>
     <use style="fill:#1f77b4;stroke:#1f77b4;" x="179.84042" xlink:href="#mbde917e79f" y="234.99941"/>
     <use style="fill:#1f77b4;stroke:#1f77b4;" x="180.880979" xlink:href="#mbde917e79f" y="219.498959"/>
     <use style="fill:#1f77b4;stroke:#1f77b4;" x="181.921538" xlink:href="#mbde917e79f" y="243.667907"/>
     <use style="fill:#1f77b4;stroke:#1f77b4;" x="182.962098" xlink:href="#mbde917e79f" y="220.272778"/>
     <use style="fill:#1f77b4;stroke:#1f77b4;" x="184.002657" xlink:href="#mbde917e79f" y="234.775495"/>
     <use style="fill:#1f77b4;stroke:#1f77b4;" x="185.043217" xlink:href="#mbde917e79f" y="221.792942"/>
     <use style="fill:#1f77b4;stroke:#1f77b4;" x="186.083776" xlink:href="#mbde917e79f" y="226.217539"/>
     <use style="fill:#1f77b4;stroke:#1f77b4;" x="187.124336" xlink:href="#mbde917e79f" y="227.349753"/>
     <use style="fill:#1f77b4;stroke:#1f77b4;" x="188.164895" xlink:href="#mbde917e79f" y="223.855558"/>
     <use style="fill:#1f77b4;stroke:#1f77b4;" x="189.205455" xlink:href="#mbde917e79f" y="232.340315"/>
     <use style="fill:#1f77b4;stroke:#1f77b4;" x="190.246014" xlink:href="#mbde917e79f" y="225.017386"/>
     <use style="fill:#1f77b4;stroke:#1f77b4;" x="191.286573" xlink:href="#mbde917e79f" y="230.931572"/>
     <use style="fill:#1f77b4;stroke:#1f77b4;" x="192.327133" xlink:href="#mbde917e79f" y="225.605392"/>
     <use style="fill:#1f77b4;stroke:#1f77b4;" x="193.367692" xlink:href="#mbde917e79f" y="230.958658"/>
     <use style="fill:#1f77b4;stroke:#1f77b4;" x="194.408252" xlink:href="#mbde917e79f" y="225.41664"/>
     <use style="fill:#1f77b4;stroke:#1f77b4;" x="195.448811" xlink:href="#mbde917e79f" y="228.185666"/>
     <use style="fill:#1f77b4;stroke:#1f77b4;" x="196.489371" xlink:href="#mbde917e79f" y="224.162637"/>
     <use style="fill:#1f77b4;stroke:#1f77b4;" x="197.52993" xlink:href="#mbde917e79f" y="228.649442"/>
     <use style="fill:#1f77b4;stroke:#1f77b4;" x="198.57049" xlink:href="#mbde917e79f" y="225.856689"/>
     <use style="fill:#1f77b4;stroke:#1f77b4;" x="199.611049" xlink:href="#mbde917e79f" y="230.852583"/>
     <use style="fill:#1f77b4;stroke:#1f77b4;" x="200.651608" xlink:href="#mbde917e79f" y="224.500752"/>
     <use style="fill:#1f77b4;stroke:#1f77b4;" x="201.692168" xlink:href="#mbde917e79f" y="225.39576"/>
     <use style="fill:#1f77b4;stroke:#1f77b4;" x="202.732727" xlink:href="#mbde917e79f" y="228.700713"/>
     <use style="fill:#1f77b4;stroke:#1f77b4;" x="203.773287" xlink:href="#mbde917e79f" y="221.946721"/>
     <use style="fill:#1f77b4;stroke:#1f77b4;" x="204.813846" xlink:href="#mbde917e79f" y="233.792754"/>
     <use style="fill:#1f77b4;stroke:#1f77b4;" x="205.854406" xlink:href="#mbde917e79f" y="224.030046"/>
     <use style="fill:#1f77b4;stroke:#1f77b4;" x="206.894965" xlink:href="#mbde917e79f" y="233.593203"/>
     <use style="fill:#1f77b4;stroke:#1f77b4;" x="207.935524" xlink:href="#mbde917e79f" y="220.53946"/>
     <use style="fill:#1f77b4;stroke:#1f77b4;" x="208.976084" xlink:href="#mbde917e79f" y="232.00774"/>
     <use style="fill:#1f77b4;stroke:#1f77b4;" x="210.016643" xlink:href="#mbde917e79f" y="225.080484"/>
     <use style="fill:#1f77b4;stroke:#1f77b4;" x="211.057203" xlink:href="#mbde917e79f" y="227.966611"/>
     <use style="fill:#1f77b4;stroke:#1f77b4;" x="212.097762" xlink:href="#mbde917e79f" y="222.558406"/>
     <use style="fill:#1f77b4;stroke:#1f77b4;" x="213.138322" xlink:href="#mbde917e79f" y="229.079633"/>
     <use style="fill:#1f77b4;stroke:#1f77b4;" x="214.178881" xlink:href="#mbde917e79f" y="225.319239"/>
     <use style="fill:#1f77b4;stroke:#1f77b4;" x="215.219441" xlink:href="#mbde917e79f" y="230.324959"/>
     <use style="fill:#1f77b4;stroke:#1f77b4;" x="216.26" xlink:href="#mbde917e79f" y="223.398443"/>
     <use style="fill:#1f77b4;stroke:#1f77b4;" x="217.300559" xlink:href="#mbde917e79f" y="226.95595"/>
     <use style="fill:#1f77b4;stroke:#1f77b4;" x="218.341119" xlink:href="#mbde917e79f" y="228.995561"/>
     <use style="fill:#1f77b4;stroke:#1f77b4;" x="219.381678" xlink:href="#mbde917e79f" y="220.402262"/>
     <use style="fill:#1f77b4;stroke:#1f77b4;" x="220.422238" xlink:href="#mbde917e79f" y="227.847902"/>
     <use style="fill:#1f77b4;stroke:#1f77b4;" x="221.462797" xlink:href="#mbde917e79f" y="235.530776"/>
     <use style="fill:#1f77b4;stroke:#1f77b4;" x="222.503357" xlink:href="#mbde917e79f" y="223.80129"/>
     <use style="fill:#1f77b4;stroke:#1f77b4;" x="223.543916" xlink:href="#mbde917e79f" y="228.82979"/>
     <use style="fill:#1f77b4;stroke:#1f77b4;" x="224.584476" xlink:href="#mbde917e79f" y="223.772666"/>
     <use style="fill:#1f77b4;stroke:#1f77b4;" x="225.625035" xlink:href="#mbde917e79f" y="233.024469"/>
     <use style="fill:#1f77b4;stroke:#1f77b4;" x="226.665594" xlink:href="#mbde917e79f" y="223.677106"/>
     <use style="fill:#1f77b4;stroke:#1f77b4;" x="227.706154" xlink:href="#mbde917e79f" y="229.197404"/>
     <use style="fill:#1f77b4;stroke:#1f77b4;" x="228.746713" xlink:href="#mbde917e79f" y="222.674357"/>
     <use style="fill:#1f77b4;stroke:#1f77b4;" x="229.787273" xlink:href="#mbde917e79f" y="231.35639"/>
     <use style="fill:#1f77b4;stroke:#1f77b4;" x="230.827832" xlink:href="#mbde917e79f" y="223.568692"/>
     <use style="fill:#1f77b4;stroke:#1f77b4;" x="231.868392" xlink:href="#mbde917e79f" y="228.449117"/>
     <use style="fill:#1f77b4;stroke:#1f77b4;" x="232.908951" xlink:href="#mbde917e79f" y="229.631596"/>
     <use style="fill:#1f77b4;stroke:#1f77b4;" x="233.94951" xlink:href="#mbde917e79f" y="229.484875"/>
     <use style="fill:#1f77b4;stroke:#1f77b4;" x="234.99007" xlink:href="#mbde917e79f" y="224.898436"/>
     <use style="fill:#1f77b4;stroke:#1f77b4;" x="236.030629" xlink:href="#mbde917e79f" y="225.675805"/>
     <use style="fill:#1f77b4;stroke:#1f77b4;" x="237.071189" xlink:href="#mbde917e79f" y="225.445918"/>
     <use style="fill:#1f77b4;stroke:#1f77b4;" x="238.111748" xlink:href="#mbde917e79f" y="231.774462"/>
     <use style="fill:#1f77b4;stroke:#1f77b4;" x="239.152308" xlink:href="#mbde917e79f" y="222.493245"/>
     <use style="fill:#1f77b4;stroke:#1f77b4;" x="240.192867" xlink:href="#mbde917e79f" y="235.034128"/>
     <use style="fill:#1f77b4;stroke:#1f77b4;" x="241.233427" xlink:href="#mbde917e79f" y="225.873998"/>
     <use style="fill:#1f77b4;stroke:#1f77b4;" x="242.273986" xlink:href="#mbde917e79f" y="232.741158"/>
     <use style="fill:#1f77b4;stroke:#1f77b4;" x="243.314545" xlink:href="#mbde917e79f" y="223.137084"/>
     <use style="fill:#1f77b4;stroke:#1f77b4;" x="244.355105" xlink:href="#mbde917e79f" y="232.551306"/>
     <use style="fill:#1f77b4;stroke:#1f77b4;" x="245.395664" xlink:href="#mbde917e79f" y="224.683917"/>
     <use style="fill:#1f77b4;stroke:#1f77b4;" x="246.436224" xlink:href="#mbde917e79f" y="228.276131"/>
     <use style="fill:#1f77b4;stroke:#1f77b4;" x="247.476783" xlink:href="#mbde917e79f" y="224.449112"/>
     <use style="fill:#1f77b4;stroke:#1f77b4;" x="248.517343" xlink:href="#mbde917e79f" y="234.210426"/>
     <use style="fill:#1f77b4;stroke:#1f77b4;" x="249.557902" xlink:href="#mbde917e79f" y="220.34606"/>
     <use style="fill:#1f77b4;stroke:#1f77b4;" x="250.598462" xlink:href="#mbde917e79f" y="244.82281"/>
     <use style="fill:#1f77b4;stroke:#1f77b4;" x="251.639021" xlink:href="#mbde917e79f" y="218.420549"/>
     <use style="fill:#1f77b4;stroke:#1f77b4;" x="252.67958" xlink:href="#mbde917e79f" y="234.749805"/>
     <use style="fill:#1f77b4;stroke:#1f77b4;" x="253.72014" xlink:href="#mbde917e79f" y="222.107356"/>
     <use style="fill:#1f77b4;stroke:#1f77b4;" x="254.760699" xlink:href="#mbde917e79f" y="231.900332"/>
     <use style="fill:#1f77b4;stroke:#1f77b4;" x="255.801259" xlink:href="#mbde917e79f" y="225.264582"/>
     <use style="fill:#1f77b4;stroke:#1f77b4;" x="256.841818" xlink:href="#mbde917e79f" y="224.669059"/>
     <use style="fill:#1f77b4;stroke:#1f77b4;" x="257.882378" xlink:href="#mbde917e79f" y="228.914522"/>
     <use style="fill:#1f77b4;stroke:#1f77b4;" x="258.922937" xlink:href="#mbde917e79f" y="230.537023"/>
     <use style="fill:#1f77b4;stroke:#1f77b4;" x="259.963497" xlink:href="#mbde917e79f" y="224.258687"/>
     <use style="fill:#1f77b4;stroke:#1f77b4;" x="261.004056" xlink:href="#mbde917e79f" y="229.762176"/>
     <use style="fill:#1f77b4;stroke:#1f77b4;" x="262.044615" xlink:href="#mbde917e79f" y="222.532217"/>
     <use style="fill:#1f77b4;stroke:#1f77b4;" x="263.085175" xlink:href="#mbde917e79f" y="234.592725"/>
     <use style="fill:#1f77b4;stroke:#1f77b4;" x="264.125734" xlink:href="#mbde917e79f" y="224.123269"/>
     <use style="fill:#1f77b4;stroke:#1f77b4;" x="265.166294" xlink:href="#mbde917e79f" y="224.361211"/>
     <use style="fill:#1f77b4;stroke:#1f77b4;" x="266.206853" xlink:href="#mbde917e79f" y="234.720381"/>
     <use style="fill:#1f77b4;stroke:#1f77b4;" x="267.247413" xlink:href="#mbde917e79f" y="228.324108"/>
     <use style="fill:#1f77b4;stroke:#1f77b4;" x="268.287972" xlink:href="#mbde917e79f" y="227.77307"/>
     <use style="fill:#1f77b4;stroke:#1f77b4;" x="269.328531" xlink:href="#mbde917e79f" y="224.794991"/>
     <use style="fill:#1f77b4;stroke:#1f77b4;" x="270.369091" xlink:href="#mbde917e79f" y="228.40238"/>
     <use style="fill:#1f77b4;stroke:#1f77b4;" x="271.40965" xlink:href="#mbde917e79f" y="221.395517"/>
     <use style="fill:#1f77b4;stroke:#1f77b4;" x="272.45021" xlink:href="#mbde917e79f" y="209.045717"/>
     <use style="fill:#1f77b4;stroke:#1f77b4;" x="273.490769" xlink:href="#mbde917e79f" y="220.228244"/>
     <use style="fill:#1f77b4;stroke:#1f77b4;" x="274.531329" xlink:href="#mbde917e79f" y="208.760564"/>
     <use style="fill:#1f77b4;stroke:#1f77b4;" x="275.571888" xlink:href="#mbde917e79f" y="227.890171"/>
     <use style="fill:#1f77b4;stroke:#1f77b4;" x="276.612448" xlink:href="#mbde917e79f" y="210.980031"/>
     <use style="fill:#1f77b4;stroke:#1f77b4;" x="277.653007" xlink:href="#mbde917e79f" y="234.509498"/>
     <use style="fill:#1f77b4;stroke:#1f77b4;" x="278.693566" xlink:href="#mbde917e79f" y="208.289973"/>
     <use style="fill:#1f77b4;stroke:#1f77b4;" x="279.734126" xlink:href="#mbde917e79f" y="230.020017"/>
     <use style="fill:#1f77b4;stroke:#1f77b4;" x="280.774685" xlink:href="#mbde917e79f" y="210.943266"/>
     <use style="fill:#1f77b4;stroke:#1f77b4;" x="281.815245" xlink:href="#mbde917e79f" y="231.784898"/>
     <use style="fill:#1f77b4;stroke:#1f77b4;" x="282.855804" xlink:href="#mbde917e79f" y="214.624643"/>
     <use style="fill:#1f77b4;stroke:#1f77b4;" x="283.896364" xlink:href="#mbde917e79f" y="252.498278"/>
     <use style="fill:#1f77b4;stroke:#1f77b4;" x="284.936923" xlink:href="#mbde917e79f" y="220.879039"/>
     <use style="fill:#1f77b4;stroke:#1f77b4;" x="285.977483" xlink:href="#mbde917e79f" y="227.280093"/>
     <use style="fill:#1f77b4;stroke:#1f77b4;" x="287.018042" xlink:href="#mbde917e79f" y="233.165924"/>
     <use style="fill:#1f77b4;stroke:#1f77b4;" x="288.058601" xlink:href="#mbde917e79f" y="225.405187"/>
     <use style="fill:#1f77b4;stroke:#1f77b4;" x="289.099161" xlink:href="#mbde917e79f" y="227.55002"/>
     <use style="fill:#1f77b4;stroke:#1f77b4;" x="290.13972" xlink:href="#mbde917e79f" y="222.633337"/>
     <use style="fill:#1f77b4;stroke:#1f77b4;" x="291.18028" xlink:href="#mbde917e79f" y="238.842892"/>
     <use style="fill:#1f77b4;stroke:#1f77b4;" x="292.220839" xlink:href="#mbde917e79f" y="222.340968"/>
     <use style="fill:#1f77b4;stroke:#1f77b4;" x="293.261399" xlink:href="#mbde917e79f" y="239.151598"/>
     <use style="fill:#1f77b4;stroke:#1f77b4;" x="294.301958" xlink:href="#mbde917e79f" y="224.572894"/>
     <use style="fill:#1f77b4;stroke:#1f77b4;" x="295.342517" xlink:href="#mbde917e79f" y="227.273263"/>
     <use style="fill:#1f77b4;stroke:#1f77b4;" x="296.383077" xlink:href="#mbde917e79f" y="224.812652"/>
     <use style="fill:#1f77b4;stroke:#1f77b4;" x="297.423636" xlink:href="#mbde917e79f" y="229.155289"/>
     <use style="fill:#1f77b4;stroke:#1f77b4;" x="298.464196" xlink:href="#mbde917e79f" y="224.718595"/>
     <use style="fill:#1f77b4;stroke:#1f77b4;" x="299.504755" xlink:href="#mbde917e79f" y="231.20714"/>
     <use style="fill:#1f77b4;stroke:#1f77b4;" x="300.545315" xlink:href="#mbde917e79f" y="228.193668"/>
     <use style="fill:#1f77b4;stroke:#1f77b4;" x="301.585874" xlink:href="#mbde917e79f" y="223.192067"/>
     <use style="fill:#1f77b4;stroke:#1f77b4;" x="302.626434" xlink:href="#mbde917e79f" y="231.989127"/>
     <use style="fill:#1f77b4;stroke:#1f77b4;" x="303.666993" xlink:href="#mbde917e79f" y="221.90186"/>
     <use style="fill:#1f77b4;stroke:#1f77b4;" x="304.707552" xlink:href="#mbde917e79f" y="233.154992"/>
     <use style="fill:#1f77b4;stroke:#1f77b4;" x="305.748112" xlink:href="#mbde917e79f" y="224.660508"/>
     <use style="fill:#1f77b4;stroke:#1f77b4;" x="306.788671" xlink:href="#mbde917e79f" y="222.169533"/>
     <use style="fill:#1f77b4;stroke:#1f77b4;" x="307.829231" xlink:href="#mbde917e79f" y="232.870653"/>
     <use style="fill:#1f77b4;stroke:#1f77b4;" x="308.86979" xlink:href="#mbde917e79f" y="221.942341"/>
     <use style="fill:#1f77b4;stroke:#1f77b4;" x="309.91035" xlink:href="#mbde917e79f" y="231.04964"/>
     <use style="fill:#1f77b4;stroke:#1f77b4;" x="310.950909" xlink:href="#mbde917e79f" y="223.656433"/>
     <use style="fill:#1f77b4;stroke:#1f77b4;" x="311.991469" xlink:href="#mbde917e79f" y="233.07757"/>
     <use style="fill:#1f77b4;stroke:#1f77b4;" x="313.032028" xlink:href="#mbde917e79f" y="221.415262"/>
     <use style="fill:#1f77b4;stroke:#1f77b4;" x="314.072587" xlink:href="#mbde917e79f" y="232.150878"/>
     <use style="fill:#1f77b4;stroke:#1f77b4;" x="315.113147" xlink:href="#mbde917e79f" y="221.754449"/>
     <use style="fill:#1f77b4;stroke:#1f77b4;" x="316.153706" xlink:href="#mbde917e79f" y="226.860589"/>
     <use style="fill:#1f77b4;stroke:#1f77b4;" x="317.194266" xlink:href="#mbde917e79f" y="227.285121"/>
     <use style="fill:#1f77b4;stroke:#1f77b4;" x="318.234825" xlink:href="#mbde917e79f" y="235.033921"/>
     <use style="fill:#1f77b4;stroke:#1f77b4;" x="319.275385" xlink:href="#mbde917e79f" y="223.140179"/>
     <use style="fill:#1f77b4;stroke:#1f77b4;" x="320.315944" xlink:href="#mbde917e79f" y="229.15379"/>
     <use style="fill:#1f77b4;stroke:#1f77b4;" x="321.356503" xlink:href="#mbde917e79f" y="228.084541"/>
     <use style="fill:#1f77b4;stroke:#1f77b4;" x="322.397063" xlink:href="#mbde917e79f" y="231.225309"/>
     <use style="fill:#1f77b4;stroke:#1f77b4;" x="323.437622" xlink:href="#mbde917e79f" y="216.312768"/>
     <use style="fill:#1f77b4;stroke:#1f77b4;" x="324.478182" xlink:href="#mbde917e79f" y="249.378042"/>
     <use style="fill:#1f77b4;stroke:#1f77b4;" x="325.518741" xlink:href="#mbde917e79f" y="218.017119"/>
     <use style="fill:#1f77b4;stroke:#1f77b4;" x="326.559301" xlink:href="#mbde917e79f" y="249.022179"/>
     <use style="fill:#1f77b4;stroke:#1f77b4;" x="327.59986" xlink:href="#mbde917e79f" y="220.377759"/>
     <use style="fill:#1f77b4;stroke:#1f77b4;" x="328.64042" xlink:href="#mbde917e79f" y="233.55517"/>
     <use style="fill:#1f77b4;stroke:#1f77b4;" x="329.680979" xlink:href="#mbde917e79f" y="222.886316"/>
     <use style="fill:#1f77b4;stroke:#1f77b4;" x="330.721538" xlink:href="#mbde917e79f" y="234.457811"/>
     <use style="fill:#1f77b4;stroke:#1f77b4;" x="331.762098" xlink:href="#mbde917e79f" y="221.671522"/>
     <use style="fill:#1f77b4;stroke:#1f77b4;" x="332.802657" xlink:href="#mbde917e79f" y="233.930008"/>
     <use style="fill:#1f77b4;stroke:#1f77b4;" x="333.843217" xlink:href="#mbde917e79f" y="220.500974"/>
     <use style="fill:#1f77b4;stroke:#1f77b4;" x="334.883776" xlink:href="#mbde917e79f" y="230.631525"/>
     <use style="fill:#1f77b4;stroke:#1f77b4;" x="335.924336" xlink:href="#mbde917e79f" y="221.793516"/>
     <use style="fill:#1f77b4;stroke:#1f77b4;" x="336.964895" xlink:href="#mbde917e79f" y="235.15554"/>
     <use style="fill:#1f77b4;stroke:#1f77b4;" x="338.005455" xlink:href="#mbde917e79f" y="222.736534"/>
     <use style="fill:#1f77b4;stroke:#1f77b4;" x="339.046014" xlink:href="#mbde917e79f" y="223.80588"/>
     <use style="fill:#1f77b4;stroke:#1f77b4;" x="340.086573" xlink:href="#mbde917e79f" y="230.535839"/>
     <use style="fill:#1f77b4;stroke:#1f77b4;" x="341.127133" xlink:href="#mbde917e79f" y="218.090779"/>
     <use style="fill:#1f77b4;stroke:#1f77b4;" x="342.167692" xlink:href="#mbde917e79f" y="243.18317"/>
     <use style="fill:#1f77b4;stroke:#1f77b4;" x="343.208252" xlink:href="#mbde917e79f" y="219.996339"/>
     <use style="fill:#1f77b4;stroke:#1f77b4;" x="344.248811" xlink:href="#mbde917e79f" y="232.960856"/>
     <use style="fill:#1f77b4;stroke:#1f77b4;" x="345.289371" xlink:href="#mbde917e79f" y="222.961048"/>
     <use style="fill:#1f77b4;stroke:#1f77b4;" x="346.32993" xlink:href="#mbde917e79f" y="234.719556"/>
     <use style="fill:#1f77b4;stroke:#1f77b4;" x="347.37049" xlink:href="#mbde917e79f" y="223.264637"/>
     <use style="fill:#1f77b4;stroke:#1f77b4;" x="348.411049" xlink:href="#mbde917e79f" y="233.981536"/>
     <use style="fill:#1f77b4;stroke:#1f77b4;" x="349.451608" xlink:href="#mbde917e79f" y="220.645205"/>
     <use style="fill:#1f77b4;stroke:#1f77b4;" x="350.492168" xlink:href="#mbde917e79f" y="252.90258"/>
     <use style="fill:#1f77b4;stroke:#1f77b4;" x="351.532727" xlink:href="#mbde917e79f" y="218.829393"/>
     <use style="fill:#1f77b4;stroke:#1f77b4;" x="352.573287" xlink:href="#mbde917e79f" y="244.445036"/>
     <use style="fill:#1f77b4;stroke:#1f77b4;" x="353.613846" xlink:href="#mbde917e79f" y="210.580363"/>
     <use style="fill:#1f77b4;stroke:#1f77b4;" x="354.654406" xlink:href="#mbde917e79f" y="232.141351"/>
     <use style="fill:#1f77b4;stroke:#1f77b4;" x="355.694965" xlink:href="#mbde917e79f" y="210.37748"/>
     <use style="fill:#1f77b4;stroke:#1f77b4;" x="356.735524" xlink:href="#mbde917e79f" y="249.608169"/>
     <use style="fill:#1f77b4;stroke:#1f77b4;" x="357.776084" xlink:href="#mbde917e79f" y="215.000533"/>
     <use style="fill:#1f77b4;stroke:#1f77b4;" x="358.816643" xlink:href="#mbde917e79f" y="238.127914"/>
     <use style="fill:#1f77b4;stroke:#1f77b4;" x="359.857203" xlink:href="#mbde917e79f" y="219.755469"/>
     <use style="fill:#1f77b4;stroke:#1f77b4;" x="360.897762" xlink:href="#mbde917e79f" y="235.035253"/>
     <use style="fill:#1f77b4;stroke:#1f77b4;" x="361.938322" xlink:href="#mbde917e79f" y="219.668423"/>
     <use style="fill:#1f77b4;stroke:#1f77b4;" x="362.978881" xlink:href="#mbde917e79f" y="243.661051"/>
     <use style="fill:#1f77b4;stroke:#1f77b4;" x="364.019441" xlink:href="#mbde917e79f" y="221.133908"/>
     <use style="fill:#1f77b4;stroke:#1f77b4;" x="365.06" xlink:href="#mbde917e79f" y="242.54058"/>
     <use style="fill:#1f77b4;stroke:#1f77b4;" x="366.100559" xlink:href="#mbde917e79f" y="223.398556"/>
     <use style="fill:#1f77b4;stroke:#1f77b4;" x="367.141119" xlink:href="#mbde917e79f" y="234.906275"/>
     <use style="fill:#1f77b4;stroke:#1f77b4;" x="368.181678" xlink:href="#mbde917e79f" y="221.449614"/>
     <use style="fill:#1f77b4;stroke:#1f77b4;" x="369.222238" xlink:href="#mbde917e79f" y="227.330463"/>
     <use style="fill:#1f77b4;stroke:#1f77b4;" x="370.262797" xlink:href="#mbde917e79f" y="227.486355"/>
     <use style="fill:#1f77b4;stroke:#1f77b4;" x="371.303357" xlink:href="#mbde917e79f" y="222.245255"/>
     <use style="fill:#1f77b4;stroke:#1f77b4;" x="372.343916" xlink:href="#mbde917e79f" y="213.466255"/>
     <use style="fill:#1f77b4;stroke:#1f77b4;" x="373.384476" xlink:href="#mbde917e79f" y="230.385165"/>
     <use style="fill:#1f77b4;stroke:#1f77b4;" x="374.425035" xlink:href="#mbde917e79f" y="211.451825"/>
     <use style="fill:#1f77b4;stroke:#1f77b4;" x="375.465594" xlink:href="#mbde917e79f" y="261.216"/>
     <use style="fill:#1f77b4;stroke:#1f77b4;" x="376.506154" xlink:href="#mbde917e79f" y="215.419038"/>
     <use style="fill:#1f77b4;stroke:#1f77b4;" x="377.123855" xlink:href="#mbde917e79f" y="22383.514"/>
    </g>
   </g>
   <g id="line2d_73">
    <path clip-path="url(#p82633344d4)" d="M 67.46 88.332216 
L 68.500559 92.39911 
L 69.541119 95.748621 
L 70.581678 99.686181 
L 71.622238 103.150165 
L 72.662797 107.005764 
L 73.703357 110.537169 
L 74.743916 114.348559 
L 75.784476 117.907901 
L 76.825035 121.701867 
L 77.865594 125.271983 
L 78.906154 129.06968 
L 79.946713 132.623868 
L 80.987273 136.454835 
L 82.027832 139.971149 
L 83.068392 143.842509 
L 84.108951 147.172248 
L 85.14951 151.08584 
L 86.19007 154.373483 
L 87.230629 158.447825 
" style="fill:none;stroke:#2ca02c;stroke-dasharray:1.5,2.475;stroke-dashoffset:0;stroke-width:1.5;"/>
    <defs>
     <path d="M -3 3 
L 3 -3 
M -3 -3 
L 3 3 
" id="m625351b13a" style="stroke:#2ca02c;"/>
    </defs>
    <g clip-path="url(#p82633344d4)">
     <use style="fill:#2ca02c;stroke:#2ca02c;" x="67.46" xlink:href="#m625351b13a" y="88.332216"/>
     <use style="fill:#2ca02c;stroke:#2ca02c;" x="68.500559" xlink:href="#m625351b13a" y="92.39911"/>
     <use style="fill:#2ca02c;stroke:#2ca02c;" x="69.541119" xlink:href="#m625351b13a" y="95.748621"/>
     <use style="fill:#2ca02c;stroke:#2ca02c;" x="70.581678" xlink:href="#m625351b13a" y="99.686181"/>
     <use style="fill:#2ca02c;stroke:#2ca02c;" x="71.622238" xlink:href="#m625351b13a" y="103.150165"/>
     <use style="fill:#2ca02c;stroke:#2ca02c;" x="72.662797" xlink:href="#m625351b13a" y="107.005764"/>
     <use style="fill:#2ca02c;stroke:#2ca02c;" x="73.703357" xlink:href="#m625351b13a" y="110.537169"/>
     <use style="fill:#2ca02c;stroke:#2ca02c;" x="74.743916" xlink:href="#m625351b13a" y="114.348559"/>
     <use style="fill:#2ca02c;stroke:#2ca02c;" x="75.784476" xlink:href="#m625351b13a" y="117.907901"/>
     <use style="fill:#2ca02c;stroke:#2ca02c;" x="76.825035" xlink:href="#m625351b13a" y="121.701867"/>
     <use style="fill:#2ca02c;stroke:#2ca02c;" x="77.865594" xlink:href="#m625351b13a" y="125.271983"/>
     <use style="fill:#2ca02c;stroke:#2ca02c;" x="78.906154" xlink:href="#m625351b13a" y="129.06968"/>
     <use style="fill:#2ca02c;stroke:#2ca02c;" x="79.946713" xlink:href="#m625351b13a" y="132.623868"/>
     <use style="fill:#2ca02c;stroke:#2ca02c;" x="80.987273" xlink:href="#m625351b13a" y="136.454835"/>
     <use style="fill:#2ca02c;stroke:#2ca02c;" x="82.027832" xlink:href="#m625351b13a" y="139.971149"/>
     <use style="fill:#2ca02c;stroke:#2ca02c;" x="83.068392" xlink:href="#m625351b13a" y="143.842509"/>
     <use style="fill:#2ca02c;stroke:#2ca02c;" x="84.108951" xlink:href="#m625351b13a" y="147.172248"/>
     <use style="fill:#2ca02c;stroke:#2ca02c;" x="85.14951" xlink:href="#m625351b13a" y="151.08584"/>
     <use style="fill:#2ca02c;stroke:#2ca02c;" x="86.19007" xlink:href="#m625351b13a" y="154.373483"/>
     <use style="fill:#2ca02c;stroke:#2ca02c;" x="87.230629" xlink:href="#m625351b13a" y="158.447825"/>
    </g>
   </g>
   <g id="line2d_74">
    <path clip-path="url(#p82633344d4)" d="M 54.973287 104.637734 
L 113.655086 311.86825 
L 113.655086 311.86825 
" style="fill:none;stroke:#000000;stroke-dasharray:5.55,2.4;stroke-dashoffset:0;stroke-width:1.5;"/>
   </g>
   <g id="patch_3">
    <path d="M 37.7 273.312 
L 37.7 7.2 
" style="fill:none;stroke:#000000;stroke-linecap:square;stroke-linejoin:miter;stroke-width:0.8;"/>
   </g>
   <g id="patch_4">
    <path d="M 394.82 273.312 
L 394.82 7.2 
" style="fill:none;stroke:#000000;stroke-linecap:square;stroke-linejoin:miter;stroke-width:0.8;"/>
   </g>
   <g id="patch_5">
    <path d="M 37.7 273.312 
L 394.82 273.312 
" style="fill:none;stroke:#000000;stroke-linecap:square;stroke-linejoin:miter;stroke-width:0.8;"/>
   </g>
   <g id="patch_6">
    <path d="M 37.7 7.2 
L 394.82 7.2 
" style="fill:none;stroke:#000000;stroke-linecap:square;stroke-linejoin:miter;stroke-width:0.8;"/>
   </g>
   <g id="legend_1">
    <g id="patch_7">
     <path d="M 287.32 59.25625 
L 387.82 59.25625 
Q 389.82 59.25625 389.82 57.25625 
L 389.82 14.2 
Q 389.82 12.2 387.82 12.2 
L 287.32 12.2 
Q 285.32 12.2 285.32 14.2 
L 285.32 57.25625 
Q 285.32 59.25625 287.32 59.25625 
z
" style="fill:#ffffff;opacity:0.8;"/>
    </g>
    <g id="line2d_75">
     <path d="M 289.32 20.298437 
L 309.32 20.298437 
" style="fill:none;stroke:#1f77b4;stroke-linecap:square;stroke-width:1.5;"/>
    </g>
    <g id="line2d_76">
     <g>
      <use style="fill:#1f77b4;stroke:#1f77b4;" x="299.32" xlink:href="#mbde917e79f" y="20.298437"/>
     </g>
    </g>
    <g id="text_16">
     <!-- APD$_n$ - APD$_\infty$ -->
     <defs>
      <path d="M 34.1875 63.1875 
L 20.796875 26.90625 
L 47.609375 26.90625 
z
M 28.609375 72.90625 
L 39.796875 72.90625 
L 67.578125 0 
L 57.328125 0 
L 50.6875 18.703125 
L 17.828125 18.703125 
L 11.1875 0 
L 0.78125 0 
z
" id="DejaVuSans-65"/>
      <path d="M 19.671875 64.796875 
L 19.671875 37.40625 
L 32.078125 37.40625 
Q 38.96875 37.40625 42.71875 40.96875 
Q 46.484375 44.53125 46.484375 51.125 
Q 46.484375 57.671875 42.71875 61.234375 
Q 38.96875 64.796875 32.078125 64.796875 
z
M 9.8125 72.90625 
L 32.078125 72.90625 
Q 44.34375 72.90625 50.609375 67.359375 
Q 56.890625 61.8125 56.890625 51.125 
Q 56.890625 40.328125 50.609375 34.8125 
Q 44.34375 29.296875 32.078125 29.296875 
L 19.671875 29.296875 
L 19.671875 0 
L 9.8125 0 
z
" id="DejaVuSans-80"/>
      <path d="M 19.671875 64.796875 
L 19.671875 8.109375 
L 31.59375 8.109375 
Q 46.6875 8.109375 53.6875 14.9375 
Q 60.6875 21.78125 60.6875 36.53125 
Q 60.6875 51.171875 53.6875 57.984375 
Q 46.6875 64.796875 31.59375 64.796875 
z
M 9.8125 72.90625 
L 30.078125 72.90625 
Q 51.265625 72.90625 61.171875 64.09375 
Q 71.09375 55.28125 71.09375 36.53125 
Q 71.09375 17.671875 61.125 8.828125 
Q 51.171875 0 30.078125 0 
L 9.8125 0 
z
" id="DejaVuSans-68"/>
      <path d="M 55.71875 33.015625 
L 49.3125 0 
L 40.28125 0 
L 46.6875 32.671875 
Q 47.125 34.96875 47.359375 36.71875 
Q 47.609375 38.484375 47.609375 39.5 
Q 47.609375 43.609375 45.015625 45.890625 
Q 42.4375 48.1875 37.796875 48.1875 
Q 30.5625 48.1875 25.34375 43.375 
Q 20.125 38.578125 18.5 30.328125 
L 12.5 0 
L 3.515625 0 
L 14.109375 54.6875 
L 23.09375 54.6875 
L 21.296875 46.09375 
Q 25.046875 50.828125 30.3125 53.40625 
Q 35.59375 56 41.40625 56 
Q 48.640625 56 52.609375 52.09375 
Q 56.59375 48.1875 56.59375 41.109375 
Q 56.59375 39.359375 56.375 37.359375 
Q 56.15625 35.359375 55.71875 33.015625 
z
" id="DejaVuSans-Oblique-110"/>
      <path id="DejaVuSans-32"/>
      <path d="M 4.890625 31.390625 
L 31.203125 31.390625 
L 31.203125 23.390625 
L 4.890625 23.390625 
z
" id="DejaVuSans-45"/>
      <path d="M 45.5625 17.046875 
Q 44.046875 18.796875 41.65625 22.90625 
Q 38.375 17.046875 35.5 14.453125 
Q 31.890625 11.328125 26.265625 11.328125 
Q 19.671875 11.328125 15.328125 16.265625 
Q 10.75 21.4375 10.75 29.984375 
Q 10.75 38.1875 15.328125 43.75 
Q 19.4375 48.6875 26.375 48.6875 
Q 29.9375 48.6875 32.5625 47.21875 
Q 35.640625 45.609375 37.75 42.828125 
Q 39.703125 40.328125 41.65625 36.96875 
Q 44.921875 42.828125 47.796875 45.40625 
Q 51.421875 48.53125 57.03125 48.53125 
Q 63.625 48.53125 67.96875 43.609375 
Q 72.5625 38.421875 72.5625 29.890625 
Q 72.5625 21.6875 67.96875 16.109375 
Q 63.875 11.1875 56.9375 11.1875 
Q 53.375 11.1875 50.734375 12.640625 
Q 48.09375 13.96875 45.5625 17.046875 
z
M 25.734375 17.71875 
Q 33.796875 17.71875 38.625 29.4375 
Q 32.421875 42.234375 25.734375 42.234375 
Q 20.84375 42.234375 18.359375 38.71875 
Q 15.671875 34.96875 15.671875 29.984375 
Q 15.671875 24.515625 18.359375 21.140625 
Q 21.09375 17.71875 25.734375 17.71875 
z
M 57.5625 42.140625 
Q 50.296875 42.140625 44.671875 30.421875 
Q 50.828125 17.625 57.5625 17.625 
Q 62.453125 17.625 64.9375 21.140625 
Q 67.625 24.90625 67.625 29.890625 
Q 67.625 35.359375 64.9375 38.71875 
Q 62.203125 42.140625 57.5625 42.140625 
z
" id="DejaVuSans-8734"/>
     </defs>
     <g transform="translate(317.32 23.798437)scale(0.1 -0.1)">
      <use transform="translate(0 0.09375)" xlink:href="#DejaVuSans-65"/>
      <use transform="translate(68.408203 0.09375)" xlink:href="#DejaVuSans-80"/>
      <use transform="translate(128.710938 0.09375)" xlink:href="#DejaVuSans-68"/>
      <use transform="translate(206.669922 -16.3125)scale(0.7)" xlink:href="#DejaVuSans-Oblique-110"/>
      <use transform="translate(253.769531 0.09375)" xlink:href="#DejaVuSans-32"/>
      <use transform="translate(285.556641 0.09375)" xlink:href="#DejaVuSans-45"/>
      <use transform="translate(321.640625 0.09375)" xlink:href="#DejaVuSans-32"/>
      <use transform="translate(353.427734 0.09375)" xlink:href="#DejaVuSans-65"/>
      <use transform="translate(421.835938 0.09375)" xlink:href="#DejaVuSans-80"/>
      <use transform="translate(482.138672 0.09375)" xlink:href="#DejaVuSans-68"/>
      <use transform="translate(560.097656 -16.3125)scale(0.7)" xlink:href="#DejaVuSans-8734"/>
     </g>
    </g>
    <g id="line2d_77">
     <path d="M 289.32 34.976562 
L 309.32 34.976562 
" style="fill:none;stroke:#2ca02c;stroke-dasharray:1.5,2.475;stroke-dashoffset:0;stroke-width:1.5;"/>
    </g>
    <g id="line2d_78">
     <g>
      <use style="fill:#2ca02c;stroke:#2ca02c;" x="299.32" xlink:href="#m625351b13a" y="34.976562"/>
     </g>
    </g>
    <g id="text_17">
     <!-- linear region -->
     <defs>
      <path d="M 9.421875 75.984375 
L 18.40625 75.984375 
L 18.40625 0 
L 9.421875 0 
z
" id="DejaVuSans-108"/>
      <path d="M 9.421875 54.6875 
L 18.40625 54.6875 
L 18.40625 0 
L 9.421875 0 
z
M 9.421875 75.984375 
L 18.40625 75.984375 
L 18.40625 64.59375 
L 9.421875 64.59375 
z
" id="DejaVuSans-105"/>
      <path d="M 54.890625 33.015625 
L 54.890625 0 
L 45.90625 0 
L 45.90625 32.71875 
Q 45.90625 40.484375 42.875 44.328125 
Q 39.84375 48.1875 33.796875 48.1875 
Q 26.515625 48.1875 22.3125 43.546875 
Q 18.109375 38.921875 18.109375 30.90625 
L 18.109375 0 
L 9.078125 0 
L 9.078125 54.6875 
L 18.109375 54.6875 
L 18.109375 46.1875 
Q 21.34375 51.125 25.703125 53.5625 
Q 30.078125 56 35.796875 56 
Q 45.21875 56 50.046875 50.171875 
Q 54.890625 44.34375 54.890625 33.015625 
z
" id="DejaVuSans-110"/>
      <path d="M 56.203125 29.59375 
L 56.203125 25.203125 
L 14.890625 25.203125 
Q 15.484375 15.921875 20.484375 11.0625 
Q 25.484375 6.203125 34.421875 6.203125 
Q 39.59375 6.203125 44.453125 7.46875 
Q 49.3125 8.734375 54.109375 11.28125 
L 54.109375 2.78125 
Q 49.265625 0.734375 44.1875 -0.34375 
Q 39.109375 -1.421875 33.890625 -1.421875 
Q 20.796875 -1.421875 13.15625 6.1875 
Q 5.515625 13.8125 5.515625 26.8125 
Q 5.515625 40.234375 12.765625 48.109375 
Q 20.015625 56 32.328125 56 
Q 43.359375 56 49.78125 48.890625 
Q 56.203125 41.796875 56.203125 29.59375 
z
M 47.21875 32.234375 
Q 47.125 39.59375 43.09375 43.984375 
Q 39.0625 48.390625 32.421875 48.390625 
Q 24.90625 48.390625 20.390625 44.140625 
Q 15.875 39.890625 15.1875 32.171875 
z
" id="DejaVuSans-101"/>
      <path d="M 34.28125 27.484375 
Q 23.390625 27.484375 19.1875 25 
Q 14.984375 22.515625 14.984375 16.5 
Q 14.984375 11.71875 18.140625 8.90625 
Q 21.296875 6.109375 26.703125 6.109375 
Q 34.1875 6.109375 38.703125 11.40625 
Q 43.21875 16.703125 43.21875 25.484375 
L 43.21875 27.484375 
z
M 52.203125 31.203125 
L 52.203125 0 
L 43.21875 0 
L 43.21875 8.296875 
Q 40.140625 3.328125 35.546875 0.953125 
Q 30.953125 -1.421875 24.3125 -1.421875 
Q 15.921875 -1.421875 10.953125 3.296875 
Q 6 8.015625 6 15.921875 
Q 6 25.140625 12.171875 29.828125 
Q 18.359375 34.515625 30.609375 34.515625 
L 43.21875 34.515625 
L 43.21875 35.40625 
Q 43.21875 41.609375 39.140625 45 
Q 35.0625 48.390625 27.6875 48.390625 
Q 23 48.390625 18.546875 47.265625 
Q 14.109375 46.140625 10.015625 43.890625 
L 10.015625 52.203125 
Q 14.9375 54.109375 19.578125 55.046875 
Q 24.21875 56 28.609375 56 
Q 40.484375 56 46.34375 49.84375 
Q 52.203125 43.703125 52.203125 31.203125 
z
" id="DejaVuSans-97"/>
      <path d="M 41.109375 46.296875 
Q 39.59375 47.171875 37.8125 47.578125 
Q 36.03125 48 33.890625 48 
Q 26.265625 48 22.1875 43.046875 
Q 18.109375 38.09375 18.109375 28.8125 
L 18.109375 0 
L 9.078125 0 
L 9.078125 54.6875 
L 18.109375 54.6875 
L 18.109375 46.1875 
Q 20.953125 51.171875 25.484375 53.578125 
Q 30.03125 56 36.53125 56 
Q 37.453125 56 38.578125 55.875 
Q 39.703125 55.765625 41.0625 55.515625 
z
" id="DejaVuSans-114"/>
      <path d="M 45.40625 27.984375 
Q 45.40625 37.75 41.375 43.109375 
Q 37.359375 48.484375 30.078125 48.484375 
Q 22.859375 48.484375 18.828125 43.109375 
Q 14.796875 37.75 14.796875 27.984375 
Q 14.796875 18.265625 18.828125 12.890625 
Q 22.859375 7.515625 30.078125 7.515625 
Q 37.359375 7.515625 41.375 12.890625 
Q 45.40625 18.265625 45.40625 27.984375 
z
M 54.390625 6.78125 
Q 54.390625 -7.171875 48.1875 -13.984375 
Q 42 -20.796875 29.203125 -20.796875 
Q 24.46875 -20.796875 20.265625 -20.09375 
Q 16.0625 -19.390625 12.109375 -17.921875 
L 12.109375 -9.1875 
Q 16.0625 -11.328125 19.921875 -12.34375 
Q 23.78125 -13.375 27.78125 -13.375 
Q 36.625 -13.375 41.015625 -8.765625 
Q 45.40625 -4.15625 45.40625 5.171875 
L 45.40625 9.625 
Q 42.625 4.78125 38.28125 2.390625 
Q 33.9375 0 27.875 0 
Q 17.828125 0 11.671875 7.65625 
Q 5.515625 15.328125 5.515625 27.984375 
Q 5.515625 40.671875 11.671875 48.328125 
Q 17.828125 56 27.875 56 
Q 33.9375 56 38.28125 53.609375 
Q 42.625 51.21875 45.40625 46.390625 
L 45.40625 54.6875 
L 54.390625 54.6875 
z
" id="DejaVuSans-103"/>
      <path d="M 30.609375 48.390625 
Q 23.390625 48.390625 19.1875 42.75 
Q 14.984375 37.109375 14.984375 27.296875 
Q 14.984375 17.484375 19.15625 11.84375 
Q 23.34375 6.203125 30.609375 6.203125 
Q 37.796875 6.203125 41.984375 11.859375 
Q 46.1875 17.53125 46.1875 27.296875 
Q 46.1875 37.015625 41.984375 42.703125 
Q 37.796875 48.390625 30.609375 48.390625 
z
M 30.609375 56 
Q 42.328125 56 49.015625 48.375 
Q 55.71875 40.765625 55.71875 27.296875 
Q 55.71875 13.875 49.015625 6.21875 
Q 42.328125 -1.421875 30.609375 -1.421875 
Q 18.84375 -1.421875 12.171875 6.21875 
Q 5.515625 13.875 5.515625 27.296875 
Q 5.515625 40.765625 12.171875 48.375 
Q 18.84375 56 30.609375 56 
z
" id="DejaVuSans-111"/>
     </defs>
     <g transform="translate(317.32 38.476562)scale(0.1 -0.1)">
      <use xlink:href="#DejaVuSans-108"/>
      <use x="27.783203" xlink:href="#DejaVuSans-105"/>
      <use x="55.566406" xlink:href="#DejaVuSans-110"/>
      <use x="118.945312" xlink:href="#DejaVuSans-101"/>
      <use x="180.46875" xlink:href="#DejaVuSans-97"/>
      <use x="241.748047" xlink:href="#DejaVuSans-114"/>
      <use x="282.861328" xlink:href="#DejaVuSans-32"/>
      <use x="314.648438" xlink:href="#DejaVuSans-114"/>
      <use x="353.511719" xlink:href="#DejaVuSans-101"/>
      <use x="415.035156" xlink:href="#DejaVuSans-103"/>
      <use x="478.511719" xlink:href="#DejaVuSans-105"/>
      <use x="506.294922" xlink:href="#DejaVuSans-111"/>
      <use x="567.476562" xlink:href="#DejaVuSans-110"/>
     </g>
    </g>
    <g id="line2d_79">
     <path d="M 289.32 49.65625 
L 309.32 49.65625 
" style="fill:none;stroke:#000000;stroke-dasharray:5.55,2.4;stroke-dashoffset:0;stroke-width:1.5;"/>
    </g>
    <g id="line2d_80"/>
    <g id="text_18">
     <!-- $ \exp(-0.226 k)$ -->
     <defs>
      <path d="M 54.890625 54.6875 
L 35.109375 28.078125 
L 55.90625 0 
L 45.3125 0 
L 29.390625 21.484375 
L 13.484375 0 
L 2.875 0 
L 24.125 28.609375 
L 4.6875 54.6875 
L 15.28125 54.6875 
L 29.78125 35.203125 
L 44.28125 54.6875 
z
" id="DejaVuSans-120"/>
      <path d="M 18.109375 8.203125 
L 18.109375 -20.796875 
L 9.078125 -20.796875 
L 9.078125 54.6875 
L 18.109375 54.6875 
L 18.109375 46.390625 
Q 20.953125 51.265625 25.265625 53.625 
Q 29.59375 56 35.59375 56 
Q 45.5625 56 51.78125 48.09375 
Q 58.015625 40.1875 58.015625 27.296875 
Q 58.015625 14.40625 51.78125 6.484375 
Q 45.5625 -1.421875 35.59375 -1.421875 
Q 29.59375 -1.421875 25.265625 0.953125 
Q 20.953125 3.328125 18.109375 8.203125 
z
M 48.6875 27.296875 
Q 48.6875 37.203125 44.609375 42.84375 
Q 40.53125 48.484375 33.40625 48.484375 
Q 26.265625 48.484375 22.1875 42.84375 
Q 18.109375 37.203125 18.109375 27.296875 
Q 18.109375 17.390625 22.1875 11.75 
Q 26.265625 6.109375 33.40625 6.109375 
Q 40.53125 6.109375 44.609375 11.75 
Q 48.6875 17.390625 48.6875 27.296875 
z
" id="DejaVuSans-112"/>
      <path d="M 31 75.875 
Q 24.46875 64.65625 21.28125 53.65625 
Q 18.109375 42.671875 18.109375 31.390625 
Q 18.109375 20.125 21.3125 9.0625 
Q 24.515625 -2 31 -13.1875 
L 23.1875 -13.1875 
Q 15.875 -1.703125 12.234375 9.375 
Q 8.59375 20.453125 8.59375 31.390625 
Q 8.59375 42.28125 12.203125 53.3125 
Q 15.828125 64.359375 23.1875 75.875 
z
" id="DejaVuSans-40"/>
      <path d="M 10.6875 12.40625 
L 21 12.40625 
L 21 0 
L 10.6875 0 
z
" id="DejaVuSans-46"/>
      <path d="M 33.015625 40.375 
Q 26.375 40.375 22.484375 35.828125 
Q 18.609375 31.296875 18.609375 23.390625 
Q 18.609375 15.53125 22.484375 10.953125 
Q 26.375 6.390625 33.015625 6.390625 
Q 39.65625 6.390625 43.53125 10.953125 
Q 47.40625 15.53125 47.40625 23.390625 
Q 47.40625 31.296875 43.53125 35.828125 
Q 39.65625 40.375 33.015625 40.375 
z
M 52.59375 71.296875 
L 52.59375 62.3125 
Q 48.875 64.0625 45.09375 64.984375 
Q 41.3125 65.921875 37.59375 65.921875 
Q 27.828125 65.921875 22.671875 59.328125 
Q 17.53125 52.734375 16.796875 39.40625 
Q 19.671875 43.65625 24.015625 45.921875 
Q 28.375 48.1875 33.59375 48.1875 
Q 44.578125 48.1875 50.953125 41.515625 
Q 57.328125 34.859375 57.328125 23.390625 
Q 57.328125 12.15625 50.6875 5.359375 
Q 44.046875 -1.421875 33.015625 -1.421875 
Q 20.359375 -1.421875 13.671875 8.265625 
Q 6.984375 17.96875 6.984375 36.375 
Q 6.984375 53.65625 15.1875 63.9375 
Q 23.390625 74.21875 37.203125 74.21875 
Q 40.921875 74.21875 44.703125 73.484375 
Q 48.484375 72.75 52.59375 71.296875 
z
" id="DejaVuSans-54"/>
      <path d="M 8.015625 75.875 
L 15.828125 75.875 
Q 23.140625 64.359375 26.78125 53.3125 
Q 30.421875 42.28125 30.421875 31.390625 
Q 30.421875 20.453125 26.78125 9.375 
Q 23.140625 -1.703125 15.828125 -13.1875 
L 8.015625 -13.1875 
Q 14.5 -2 17.703125 9.0625 
Q 20.90625 20.125 20.90625 31.390625 
Q 20.90625 42.671875 17.703125 53.65625 
Q 14.5 64.65625 8.015625 75.875 
z
" id="DejaVuSans-41"/>
     </defs>
     <g transform="translate(317.32 53.15625)scale(0.1 -0.1)">
      <use transform="translate(0 0.015625)" xlink:href="#DejaVuSans-101"/>
      <use transform="translate(61.523438 0.015625)" xlink:href="#DejaVuSans-120"/>
      <use transform="translate(120.703125 0.015625)" xlink:href="#DejaVuSans-112"/>
      <use transform="translate(184.179688 0.015625)" xlink:href="#DejaVuSans-40"/>
      <use transform="translate(223.193359 0.015625)" xlink:href="#DejaVuSans-8722"/>
      <use transform="translate(306.982422 0.015625)" xlink:href="#DejaVuSans-48"/>
      <use transform="translate(370.605469 0.015625)" xlink:href="#DejaVuSans-46"/>
      <use transform="translate(396.892578 0.015625)" xlink:href="#DejaVuSans-50"/>
      <use transform="translate(460.515625 0.015625)" xlink:href="#DejaVuSans-50"/>
      <use transform="translate(524.138672 0.015625)" xlink:href="#DejaVuSans-54"/>
      <use transform="translate(587.761719 0.015625)" xlink:href="#DejaVuSans-Oblique-107"/>
      <use transform="translate(645.671875 0.015625)" xlink:href="#DejaVuSans-41"/>
     </g>
    </g>
   </g>
  </g>
 </g>
 <defs>
  <clipPath id="p82633344d4">
   <rect height="266.112" width="357.12" x="37.7" y="7.2"/>
  </clipPath>
 </defs>
</svg>
