<?xml version="1.0" encoding="utf-8" standalone="no"?>
<!DOCTYPE svg PUBLIC "-//W3C//DTD SVG 1.1//EN"
  "http://www.w3.org/Graphics/SVG/1.1/DTD/svg11.dtd">
<!-- Created with matplotlib (https://matplotlib.org/) -->
<svg height="345.6pt" version="1.1" viewBox="0 0 460.8 345.6" width="460.8pt" xmlns="http://www.w3.org/2000/svg" xmlns:xlink="http://www.w3.org/1999/xlink">
 <defs>
  <style type="text/css">
*{stroke-linecap:butt;stroke-linejoin:round;}
  </style>
 </defs>
 <g id="figure_1">
  <g id="patch_1">
   <path d="M 0 345.6 
L 460.8 345.6 
L 460.8 0 
L 0 0 
z
" style="fill:#ffffff;"/>
  </g>
  <g id="axes_1">
   <g id="patch_2">
    <path d="M 57.6 307.584 
L 414.72 307.584 
L 414.72 41.472 
L 57.6 41.472 
z
" style="fill:#ffffff;"/>
   </g>
   <g id="matplotlib.axis_1">
    <g id="xtick_1">
     <g id="line2d_1">
      <defs>
       <path d="M 0 0 
L 0 3.5 
" id="m1ade6953c6" style="stroke:#000000;stroke-width:0.8;"/>
      </defs>
      <g>
       <use style="stroke:#000000;stroke-width:0.8;" x="61.610984" xlink:href="#m1ade6953c6" y="307.584"/>
      </g>
     </g>
     <g id="text_1">
      <!-- 0 -->
      <defs>
       <path d="M 31.78125 66.40625 
Q 24.171875 66.40625 20.328125 58.90625 
Q 16.5 51.421875 16.5 36.375 
Q 16.5 21.390625 20.328125 13.890625 
Q 24.171875 6.390625 31.78125 6.390625 
Q 39.453125 6.390625 43.28125 13.890625 
Q 47.125 21.390625 47.125 36.375 
Q 47.125 51.421875 43.28125 58.90625 
Q 39.453125 66.40625 31.78125 66.40625 
z
M 31.78125 74.21875 
Q 44.046875 74.21875 50.515625 64.515625 
Q 56.984375 54.828125 56.984375 36.375 
Q 56.984375 17.96875 50.515625 8.265625 
Q 44.046875 -1.421875 31.78125 -1.421875 
Q 19.53125 -1.421875 13.0625 8.265625 
Q 6.59375 17.96875 6.59375 36.375 
Q 6.59375 54.828125 13.0625 64.515625 
Q 19.53125 74.21875 31.78125 74.21875 
z
" id="DejaVuSans-48"/>
      </defs>
      <g transform="translate(58.429734 322.182437)scale(0.1 -0.1)">
       <use xlink:href="#DejaVuSans-48"/>
      </g>
     </g>
    </g>
    <g id="xtick_2">
     <g id="line2d_2">
      <g>
       <use style="stroke:#000000;stroke-width:0.8;" x="112.94893" xlink:href="#m1ade6953c6" y="307.584"/>
      </g>
     </g>
     <g id="text_2">
      <!-- 50 -->
      <defs>
       <path d="M 10.796875 72.90625 
L 49.515625 72.90625 
L 49.515625 64.59375 
L 19.828125 64.59375 
L 19.828125 46.734375 
Q 21.96875 47.46875 24.109375 47.828125 
Q 26.265625 48.1875 28.421875 48.1875 
Q 40.625 48.1875 47.75 41.5 
Q 54.890625 34.8125 54.890625 23.390625 
Q 54.890625 11.625 47.5625 5.09375 
Q 40.234375 -1.421875 26.90625 -1.421875 
Q 22.3125 -1.421875 17.546875 -0.640625 
Q 12.796875 0.140625 7.71875 1.703125 
L 7.71875 11.625 
Q 12.109375 9.234375 16.796875 8.0625 
Q 21.484375 6.890625 26.703125 6.890625 
Q 35.15625 6.890625 40.078125 11.328125 
Q 45.015625 15.765625 45.015625 23.390625 
Q 45.015625 31 40.078125 35.4375 
Q 35.15625 39.890625 26.703125 39.890625 
Q 22.75 39.890625 18.8125 39.015625 
Q 14.890625 38.140625 10.796875 36.28125 
z
" id="DejaVuSans-53"/>
      </defs>
      <g transform="translate(106.58643 322.182437)scale(0.1 -0.1)">
       <use xlink:href="#DejaVuSans-53"/>
       <use x="63.623047" xlink:href="#DejaVuSans-48"/>
      </g>
     </g>
    </g>
    <g id="xtick_3">
     <g id="line2d_3">
      <g>
       <use style="stroke:#000000;stroke-width:0.8;" x="164.286876" xlink:href="#m1ade6953c6" y="307.584"/>
      </g>
     </g>
     <g id="text_3">
      <!-- 100 -->
      <defs>
       <path d="M 12.40625 8.296875 
L 28.515625 8.296875 
L 28.515625 63.921875 
L 10.984375 60.40625 
L 10.984375 69.390625 
L 28.421875 72.90625 
L 38.28125 72.90625 
L 38.28125 8.296875 
L 54.390625 8.296875 
L 54.390625 0 
L 12.40625 0 
z
" id="DejaVuSans-49"/>
      </defs>
      <g transform="translate(154.743126 322.182437)scale(0.1 -0.1)">
       <use xlink:href="#DejaVuSans-49"/>
       <use x="63.623047" xlink:href="#DejaVuSans-48"/>
       <use x="127.246094" xlink:href="#DejaVuSans-48"/>
      </g>
     </g>
    </g>
    <g id="xtick_4">
     <g id="line2d_4">
      <g>
       <use style="stroke:#000000;stroke-width:0.8;" x="215.624822" xlink:href="#m1ade6953c6" y="307.584"/>
      </g>
     </g>
     <g id="text_4">
      <!-- 150 -->
      <g transform="translate(206.081072 322.182437)scale(0.1 -0.1)">
       <use xlink:href="#DejaVuSans-49"/>
       <use x="63.623047" xlink:href="#DejaVuSans-53"/>
       <use x="127.246094" xlink:href="#DejaVuSans-48"/>
      </g>
     </g>
    </g>
    <g id="xtick_5">
     <g id="line2d_5">
      <g>
       <use style="stroke:#000000;stroke-width:0.8;" x="266.962768" xlink:href="#m1ade6953c6" y="307.584"/>
      </g>
     </g>
     <g id="text_5">
      <!-- 200 -->
      <defs>
       <path d="M 19.1875 8.296875 
L 53.609375 8.296875 
L 53.609375 0 
L 7.328125 0 
L 7.328125 8.296875 
Q 12.9375 14.109375 22.625 23.890625 
Q 32.328125 33.6875 34.8125 36.53125 
Q 39.546875 41.84375 41.421875 45.53125 
Q 43.3125 49.21875 43.3125 52.78125 
Q 43.3125 58.59375 39.234375 62.25 
Q 35.15625 65.921875 28.609375 65.921875 
Q 23.96875 65.921875 18.8125 64.3125 
Q 13.671875 62.703125 7.8125 59.421875 
L 7.8125 69.390625 
Q 13.765625 71.78125 18.9375 73 
Q 24.125 74.21875 28.421875 74.21875 
Q 39.75 74.21875 46.484375 68.546875 
Q 53.21875 62.890625 53.21875 53.421875 
Q 53.21875 48.921875 51.53125 44.890625 
Q 49.859375 40.875 45.40625 35.40625 
Q 44.1875 33.984375 37.640625 27.21875 
Q 31.109375 20.453125 19.1875 8.296875 
z
" id="DejaVuSans-50"/>
      </defs>
      <g transform="translate(257.419018 322.182437)scale(0.1 -0.1)">
       <use xlink:href="#DejaVuSans-50"/>
       <use x="63.623047" xlink:href="#DejaVuSans-48"/>
       <use x="127.246094" xlink:href="#DejaVuSans-48"/>
      </g>
     </g>
    </g>
    <g id="xtick_6">
     <g id="line2d_6">
      <g>
       <use style="stroke:#000000;stroke-width:0.8;" x="318.300713" xlink:href="#m1ade6953c6" y="307.584"/>
      </g>
     </g>
     <g id="text_6">
      <!-- 250 -->
      <g transform="translate(308.756963 322.182437)scale(0.1 -0.1)">
       <use xlink:href="#DejaVuSans-50"/>
       <use x="63.623047" xlink:href="#DejaVuSans-53"/>
       <use x="127.246094" xlink:href="#DejaVuSans-48"/>
      </g>
     </g>
    </g>
    <g id="xtick_7">
     <g id="line2d_7">
      <g>
       <use style="stroke:#000000;stroke-width:0.8;" x="369.638659" xlink:href="#m1ade6953c6" y="307.584"/>
      </g>
     </g>
     <g id="text_7">
      <!-- 300 -->
      <defs>
       <path d="M 40.578125 39.3125 
Q 47.65625 37.796875 51.625 33 
Q 55.609375 28.21875 55.609375 21.1875 
Q 55.609375 10.40625 48.1875 4.484375 
Q 40.765625 -1.421875 27.09375 -1.421875 
Q 22.515625 -1.421875 17.65625 -0.515625 
Q 12.796875 0.390625 7.625 2.203125 
L 7.625 11.71875 
Q 11.71875 9.328125 16.59375 8.109375 
Q 21.484375 6.890625 26.8125 6.890625 
Q 36.078125 6.890625 40.9375 10.546875 
Q 45.796875 14.203125 45.796875 21.1875 
Q 45.796875 27.640625 41.28125 31.265625 
Q 36.765625 34.90625 28.71875 34.90625 
L 20.21875 34.90625 
L 20.21875 43.015625 
L 29.109375 43.015625 
Q 36.375 43.015625 40.234375 45.921875 
Q 44.09375 48.828125 44.09375 54.296875 
Q 44.09375 59.90625 40.109375 62.90625 
Q 36.140625 65.921875 28.71875 65.921875 
Q 24.65625 65.921875 20.015625 65.03125 
Q 15.375 64.15625 9.8125 62.3125 
L 9.8125 71.09375 
Q 15.4375 72.65625 20.34375 73.4375 
Q 25.25 74.21875 29.59375 74.21875 
Q 40.828125 74.21875 47.359375 69.109375 
Q 53.90625 64.015625 53.90625 55.328125 
Q 53.90625 49.265625 50.4375 45.09375 
Q 46.96875 40.921875 40.578125 39.3125 
z
" id="DejaVuSans-51"/>
      </defs>
      <g transform="translate(360.094909 322.182437)scale(0.1 -0.1)">
       <use xlink:href="#DejaVuSans-51"/>
       <use x="63.623047" xlink:href="#DejaVuSans-48"/>
       <use x="127.246094" xlink:href="#DejaVuSans-48"/>
      </g>
     </g>
    </g>
   </g>
   <g id="matplotlib.axis_2">
    <g id="ytick_1">
     <g id="line2d_8">
      <defs>
       <path d="M 0 0 
L -3.5 0 
" id="mee4950233b" style="stroke:#000000;stroke-width:0.8;"/>
      </defs>
      <g>
       <use style="stroke:#000000;stroke-width:0.8;" x="57.6" xlink:href="#mee4950233b" y="273.637148"/>
      </g>
     </g>
     <g id="text_8">
      <!-- $\mathdefault{10^{-5}}$ -->
      <defs>
       <path d="M 10.59375 35.5 
L 73.1875 35.5 
L 73.1875 27.203125 
L 10.59375 27.203125 
z
" id="DejaVuSans-8722"/>
      </defs>
      <g transform="translate(27.1 277.436366)scale(0.1 -0.1)">
       <use transform="translate(0 0.684375)" xlink:href="#DejaVuSans-49"/>
       <use transform="translate(63.623047 0.684375)" xlink:href="#DejaVuSans-48"/>
       <use transform="translate(128.203125 38.965625)scale(0.7)" xlink:href="#DejaVuSans-8722"/>
       <use transform="translate(186.855469 38.965625)scale(0.7)" xlink:href="#DejaVuSans-53"/>
      </g>
     </g>
    </g>
    <g id="ytick_2">
     <g id="line2d_9">
      <g>
       <use style="stroke:#000000;stroke-width:0.8;" x="57.6" xlink:href="#mee4950233b" y="223.573631"/>
      </g>
     </g>
     <g id="text_9">
      <!-- $\mathdefault{10^{-3}}$ -->
      <g transform="translate(27.1 227.37285)scale(0.1 -0.1)">
       <use transform="translate(0 0.765625)" xlink:href="#DejaVuSans-49"/>
       <use transform="translate(63.623047 0.765625)" xlink:href="#DejaVuSans-48"/>
       <use transform="translate(128.203125 39.046875)scale(0.7)" xlink:href="#DejaVuSans-8722"/>
       <use transform="translate(186.855469 39.046875)scale(0.7)" xlink:href="#DejaVuSans-51"/>
      </g>
     </g>
    </g>
    <g id="ytick_3">
     <g id="line2d_10">
      <g>
       <use style="stroke:#000000;stroke-width:0.8;" x="57.6" xlink:href="#mee4950233b" y="173.510115"/>
      </g>
     </g>
     <g id="text_10">
      <!-- $\mathdefault{10^{-1}}$ -->
      <g transform="translate(27.1 177.309334)scale(0.1 -0.1)">
       <use transform="translate(0 0.684375)" xlink:href="#DejaVuSans-49"/>
       <use transform="translate(63.623047 0.684375)" xlink:href="#DejaVuSans-48"/>
       <use transform="translate(128.203125 38.965625)scale(0.7)" xlink:href="#DejaVuSans-8722"/>
       <use transform="translate(186.855469 38.965625)scale(0.7)" xlink:href="#DejaVuSans-49"/>
      </g>
     </g>
    </g>
    <g id="ytick_4">
     <g id="line2d_11">
      <g>
       <use style="stroke:#000000;stroke-width:0.8;" x="57.6" xlink:href="#mee4950233b" y="123.446599"/>
      </g>
     </g>
     <g id="text_11">
      <!-- $\mathdefault{10^{1}}$ -->
      <g transform="translate(33 127.245817)scale(0.1 -0.1)">
       <use transform="translate(0 0.684375)" xlink:href="#DejaVuSans-49"/>
       <use transform="translate(63.623047 0.684375)" xlink:href="#DejaVuSans-48"/>
       <use transform="translate(128.203125 38.965625)scale(0.7)" xlink:href="#DejaVuSans-49"/>
      </g>
     </g>
    </g>
    <g id="ytick_5">
     <g id="line2d_12">
      <g>
       <use style="stroke:#000000;stroke-width:0.8;" x="57.6" xlink:href="#mee4950233b" y="73.383082"/>
      </g>
     </g>
     <g id="text_12">
      <!-- $\mathdefault{10^{3}}$ -->
      <g transform="translate(33 77.182301)scale(0.1 -0.1)">
       <use transform="translate(0 0.765625)" xlink:href="#DejaVuSans-49"/>
       <use transform="translate(63.623047 0.765625)" xlink:href="#DejaVuSans-48"/>
       <use transform="translate(128.203125 39.046875)scale(0.7)" xlink:href="#DejaVuSans-51"/>
      </g>
     </g>
    </g>
   </g>
   <g id="line2d_13">
    <path clip-path="url(#p1b795736d1)" d="M 62.637743 89.576862 
L 63.664502 90.406928 
L 64.691261 132.116908 
L 65.71802 90.617705 
L 66.744779 160.373031 
L 67.771538 90.641961 
L 68.798296 194.324998 
L 69.825055 90.645573 
L 70.851814 191.118311 
L 71.878573 90.646293 
L 72.905332 201.0457 
L 73.932091 90.646478 
L 74.95885 210.71231 
L 75.985609 90.646546 
L 77.012368 216.497927 
L 78.039127 90.646543 
L 79.065886 229.559041 
L 80.092645 90.64656 
L 81.119403 220.946195 
L 82.146162 90.646533 
L 83.172921 258.433838 
L 84.19968 90.646542 
L 85.226439 249.625376 
L 86.253198 90.646545 
L 87.279957 234.480289 
L 88.306716 90.646535 
L 89.333475 261.769048 
L 90.360234 90.646538 
L 91.386993 242.705544 
L 92.413752 90.646558 
L 93.44051 228.465514 
L 94.467269 90.646565 
L 95.494028 225.430612 
L 96.520787 90.646533 
L 97.547546 255.849132 
L 98.574305 90.646529 
L 99.601064 236.961823 
L 100.627823 90.646551 
L 101.654582 228.204936 
L 102.681341 90.646552 
L 103.7081 229.419427 
L 104.734859 90.646571 
L 105.761617 222.045229 
L 106.788376 90.646575 
L 107.815135 222.766621 
L 108.841894 90.64658 
L 109.868653 221.428036 
L 110.895412 90.646553 
L 111.922171 232.467187 
L 112.94893 90.646563 
L 113.975689 228.239593 
L 115.002448 90.646579 
L 116.029207 218.561915 
L 117.055966 90.646548 
L 118.082724 235.696915 
L 119.109483 90.646559 
L 120.136242 228.439482 
L 121.163001 90.646557 
L 122.18976 228.080987 
L 123.216519 90.646565 
L 124.243278 245.595106 
L 125.270037 90.646562 
L 126.296796 229.36297 
L 127.323555 90.646562 
L 128.350314 223.498046 
L 129.377073 90.646537 
L 130.403832 244.617402 
L 131.43059 90.646547 
L 132.457349 247.65862 
L 133.484108 90.646548 
L 134.510867 226.958808 
L 135.537626 90.64655 
L 136.564385 239.793861 
L 137.591144 90.646545 
L 138.617903 231.885711 
L 139.644662 90.646558 
L 140.671421 225.091852 
L 141.69818 90.646582 
L 142.724939 216.747422 
L 143.751697 90.646563 
L 144.778456 224.511018 
L 145.805215 90.646583 
L 146.831974 216.429961 
L 147.858733 90.64658 
L 148.885492 221.656584 
L 149.912251 90.646545 
L 150.93901 233.443432 
L 151.965769 90.646558 
L 152.992528 226.960379 
L 154.019287 90.64654 
L 155.046046 240.325598 
L 156.072804 90.646525 
L 157.099563 245.582185 
L 158.126322 90.646541 
L 159.153081 238.901517 
L 160.17984 90.646536 
L 161.206599 229.951501 
L 162.233358 90.646569 
L 163.260117 223.058175 
L 164.286876 90.646537 
L 165.313635 257.614477 
L 166.340394 90.646571 
L 167.367153 248.36048 
L 168.393911 90.64657 
L 169.42067 225.994588 
L 170.447429 90.646601 
L 171.474188 238.426248 
L 172.500947 90.646551 
L 173.527706 233.682099 
L 174.554465 90.646568 
L 175.581224 222.969206 
L 176.607983 90.646549 
L 177.634742 231.969377 
L 178.661501 90.646583 
L 179.68826 221.07371 
L 180.715018 90.646578 
L 181.741777 219.304612 
L 182.768536 90.646549 
L 183.795295 234.264154 
L 184.822054 90.646532 
L 185.848813 251.992207 
L 186.875572 90.646562 
L 187.902331 224.059107 
L 188.92909 90.646539 
L 189.955849 245.090846 
L 190.982608 90.646561 
L 192.009367 227.049723 
L 193.036125 90.646559 
L 194.062884 230.402018 
L 195.089643 90.646575 
L 196.116402 214.305731 
L 197.143161 90.646575 
L 198.16992 224.268524 
L 199.196679 90.646545 
L 200.223438 238.429705 
L 201.250197 90.646565 
L 202.276956 225.782826 
L 203.303715 90.646546 
L 204.330474 229.935223 
L 205.357232 90.646525 
L 206.383991 234.474707 
L 207.41075 90.646608 
L 208.437509 215.007549 
L 209.464268 90.646566 
L 210.491027 227.897552 
L 211.517786 90.646573 
L 212.544545 223.791365 
L 213.571304 90.646613 
L 214.598063 215.879966 
L 215.624822 90.646561 
L 216.651581 232.721613 
L 217.678339 90.646621 
L 218.705098 215.0412 
L 219.731857 90.646575 
L 220.758616 229.053649 
L 221.785375 90.646541 
L 222.812134 239.215628 
L 223.838893 90.64654 
L 224.865652 225.401115 
L 225.892411 90.646542 
L 226.91917 235.47154 
L 227.945929 90.646517 
L 228.972688 233.705968 
L 229.999446 90.646535 
L 231.026205 252.947754 
L 232.052964 90.646542 
L 233.079723 237.688982 
L 234.106482 90.646548 
L 235.133241 226.725692 
L 236.16 90.646527 
L 237.186759 238.270319 
L 238.213518 90.646561 
L 239.240277 223.981442 
L 240.267036 90.646563 
L 241.293795 217.772477 
L 242.320554 90.646521 
L 243.347312 231.246577 
L 244.374071 90.646563 
L 245.40083 225.179562 
L 246.427589 90.646543 
L 247.454348 239.174666 
L 248.481107 90.646534 
L 249.507866 238.312137 
L 250.534625 90.646562 
L 251.561384 226.193811 
L 252.588143 90.646635 
L 253.614902 212.518829 
L 254.641661 90.646536 
L 255.668419 241.03921 
L 256.695178 90.646578 
L 257.721937 221.919953 
L 258.748696 90.646529 
L 259.775455 240.959214 
L 260.802214 90.646615 
L 261.828973 215.739944 
L 262.855732 90.646534 
L 263.882491 232.809442 
L 264.90925 90.646579 
L 265.936009 223.841515 
L 266.962768 90.646624 
L 267.989526 216.321101 
L 269.016285 90.646565 
L 270.043044 227.813336 
L 271.069803 90.646614 
L 272.096562 215.523123 
L 273.123321 90.646562 
L 274.15008 231.064494 
L 275.176839 90.646556 
L 276.203598 219.687749 
L 277.230357 90.6466 
L 278.257116 219.248498 
L 279.283875 90.646566 
L 280.310633 221.279428 
L 281.337392 90.646558 
L 282.364151 221.465166 
L 283.39091 90.646537 
L 284.417669 242.122516 
L 285.444428 90.646551 
L 286.471187 241.103761 
L 287.497946 90.646548 
L 288.524705 235.511254 
L 289.551464 90.646542 
L 290.578223 232.117148 
L 291.604982 90.64655 
L 292.63174 233.948261 
L 293.658499 90.646525 
L 294.685258 234.623074 
L 295.712017 90.646565 
L 296.738776 225.140736 
L 297.765535 90.646554 
L 298.792294 227.628863 
L 299.819053 90.646558 
L 300.845812 227.961203 
L 301.872571 90.646541 
L 302.89933 235.925821 
L 303.926089 90.646572 
L 304.952847 217.606191 
L 305.979606 90.64658 
L 307.006365 221.611857 
L 308.033124 90.646582 
L 309.059883 225.408305 
L 310.086642 90.646539 
L 311.113401 244.841209 
L 312.14016 90.646567 
L 313.166919 224.285654 
L 314.193678 90.64658 
L 315.220437 225.948394 
L 316.247196 90.646551 
L 317.273954 231.524869 
L 318.300713 90.646586 
L 319.327472 220.168862 
L 320.354231 90.646568 
L 321.38099 223.25168 
L 322.407749 90.646529 
L 323.434508 233.803257 
L 324.461267 90.646543 
L 325.488026 233.896121 
L 326.514785 90.646514 
L 327.541544 228.735363 
L 328.568303 90.646575 
L 329.595061 222.96513 
L 330.62182 90.646553 
L 331.648579 224.47376 
L 332.675338 90.646581 
L 333.702097 222.33436 
L 334.728856 90.646589 
L 335.755615 223.338008 
L 336.782374 90.646554 
L 337.809133 236.874098 
L 338.835892 90.646573 
L 339.862651 214.33174 
L 340.88941 90.646513 
L 341.916168 226.922423 
L 342.942927 90.646582 
L 343.969686 219.121761 
L 344.996445 90.646532 
L 346.023204 248.716959 
L 347.049963 90.646563 
L 348.076722 219.985267 
L 349.103481 90.646622 
L 350.13024 213.291231 
L 351.156999 90.64656 
L 352.183758 229.82893 
L 353.210517 90.646532 
L 354.237276 240.920314 
L 355.264034 90.646569 
L 356.290793 220.479678 
L 357.317552 90.64656 
L 358.344311 228.000157 
L 359.37107 90.646556 
L 360.397829 226.530072 
L 361.424588 90.646568 
L 362.451347 223.458345 
L 363.478106 90.646562 
L 364.504865 230.175656 
L 365.531624 90.646539 
L 366.558383 255.57556 
L 367.585141 90.646574 
L 368.6119 224.454247 
L 369.638659 90.646625 
L 370.665418 212.660967 
L 371.692177 90.646559 
L 372.718936 230.916362 
L 373.745695 90.646572 
L 374.772454 224.654518 
L 375.799213 90.646542 
L 376.825972 233.438766 
L 377.852731 90.646556 
L 378.87949 226.430747 
L 379.906248 90.646561 
L 380.933007 228.131899 
L 381.959766 90.646547 
L 382.986525 232.92333 
L 384.013284 90.646551 
L 385.040043 223.477785 
L 386.066802 90.64657 
L 387.093561 222.243353 
L 388.12032 90.646552 
L 389.147079 240.96988 
L 390.173838 90.646582 
L 391.200597 218.3351 
L 392.227355 90.646533 
L 393.254114 243.289102 
L 394.280873 90.646567 
L 395.307632 225.480918 
L 396.334391 90.646529 
L 397.36115 252.107272 
L 398.387909 90.6465 
L 399.414668 222.169971 
L 400.441427 90.646551 
L 401.468186 225.483844 
L 402.494945 90.64654 
L 403.521704 229.535017 
L 404.548462 90.646567 
L 405.575221 226.018496 
L 406.60198 90.646578 
L 407.628739 227.560525 
L 408.655498 90.646539 
L 408.665973 346.6 
L 408.665973 346.6 
" style="fill:none;stroke:#1f77b4;stroke-linecap:square;stroke-width:1.5;"/>
    <defs>
     <path d="M 0 3 
C 0.795609 3 1.55874 2.683901 2.12132 2.12132 
C 2.683901 1.55874 3 0.795609 3 0 
C 3 -0.795609 2.683901 -1.55874 2.12132 -2.12132 
C 1.55874 -2.683901 0.795609 -3 0 -3 
C -0.795609 -3 -1.55874 -2.683901 -2.12132 -2.12132 
C -2.683901 -1.55874 -3 -0.795609 -3 0 
C -3 0.795609 -2.683901 1.55874 -2.12132 2.12132 
C -1.55874 2.683901 -0.795609 3 0 3 
z
" id="ma97ed6d32d" style="stroke:#1f77b4;"/>
    </defs>
    <g clip-path="url(#p1b795736d1)">
     <use style="fill:#1f77b4;stroke:#1f77b4;" x="62.637743" xlink:href="#ma97ed6d32d" y="89.576862"/>
     <use style="fill:#1f77b4;stroke:#1f77b4;" x="63.664502" xlink:href="#ma97ed6d32d" y="90.406928"/>
     <use style="fill:#1f77b4;stroke:#1f77b4;" x="64.691261" xlink:href="#ma97ed6d32d" y="132.116908"/>
     <use style="fill:#1f77b4;stroke:#1f77b4;" x="65.71802" xlink:href="#ma97ed6d32d" y="90.617705"/>
     <use style="fill:#1f77b4;stroke:#1f77b4;" x="66.744779" xlink:href="#ma97ed6d32d" y="160.373031"/>
     <use style="fill:#1f77b4;stroke:#1f77b4;" x="67.771538" xlink:href="#ma97ed6d32d" y="90.641961"/>
     <use style="fill:#1f77b4;stroke:#1f77b4;" x="68.798296" xlink:href="#ma97ed6d32d" y="194.324998"/>
     <use style="fill:#1f77b4;stroke:#1f77b4;" x="69.825055" xlink:href="#ma97ed6d32d" y="90.645573"/>
     <use style="fill:#1f77b4;stroke:#1f77b4;" x="70.851814" xlink:href="#ma97ed6d32d" y="191.118311"/>
     <use style="fill:#1f77b4;stroke:#1f77b4;" x="71.878573" xlink:href="#ma97ed6d32d" y="90.646293"/>
     <use style="fill:#1f77b4;stroke:#1f77b4;" x="72.905332" xlink:href="#ma97ed6d32d" y="201.0457"/>
     <use style="fill:#1f77b4;stroke:#1f77b4;" x="73.932091" xlink:href="#ma97ed6d32d" y="90.646478"/>
     <use style="fill:#1f77b4;stroke:#1f77b4;" x="74.95885" xlink:href="#ma97ed6d32d" y="210.71231"/>
     <use style="fill:#1f77b4;stroke:#1f77b4;" x="75.985609" xlink:href="#ma97ed6d32d" y="90.646546"/>
     <use style="fill:#1f77b4;stroke:#1f77b4;" x="77.012368" xlink:href="#ma97ed6d32d" y="216.497927"/>
     <use style="fill:#1f77b4;stroke:#1f77b4;" x="78.039127" xlink:href="#ma97ed6d32d" y="90.646543"/>
     <use style="fill:#1f77b4;stroke:#1f77b4;" x="79.065886" xlink:href="#ma97ed6d32d" y="229.559041"/>
     <use style="fill:#1f77b4;stroke:#1f77b4;" x="80.092645" xlink:href="#ma97ed6d32d" y="90.64656"/>
     <use style="fill:#1f77b4;stroke:#1f77b4;" x="81.119403" xlink:href="#ma97ed6d32d" y="220.946195"/>
     <use style="fill:#1f77b4;stroke:#1f77b4;" x="82.146162" xlink:href="#ma97ed6d32d" y="90.646533"/>
     <use style="fill:#1f77b4;stroke:#1f77b4;" x="83.172921" xlink:href="#ma97ed6d32d" y="258.433838"/>
     <use style="fill:#1f77b4;stroke:#1f77b4;" x="84.19968" xlink:href="#ma97ed6d32d" y="90.646542"/>
     <use style="fill:#1f77b4;stroke:#1f77b4;" x="85.226439" xlink:href="#ma97ed6d32d" y="249.625376"/>
     <use style="fill:#1f77b4;stroke:#1f77b4;" x="86.253198" xlink:href="#ma97ed6d32d" y="90.646545"/>
     <use style="fill:#1f77b4;stroke:#1f77b4;" x="87.279957" xlink:href="#ma97ed6d32d" y="234.480289"/>
     <use style="fill:#1f77b4;stroke:#1f77b4;" x="88.306716" xlink:href="#ma97ed6d32d" y="90.646535"/>
     <use style="fill:#1f77b4;stroke:#1f77b4;" x="89.333475" xlink:href="#ma97ed6d32d" y="261.769048"/>
     <use style="fill:#1f77b4;stroke:#1f77b4;" x="90.360234" xlink:href="#ma97ed6d32d" y="90.646538"/>
     <use style="fill:#1f77b4;stroke:#1f77b4;" x="91.386993" xlink:href="#ma97ed6d32d" y="242.705544"/>
     <use style="fill:#1f77b4;stroke:#1f77b4;" x="92.413752" xlink:href="#ma97ed6d32d" y="90.646558"/>
     <use style="fill:#1f77b4;stroke:#1f77b4;" x="93.44051" xlink:href="#ma97ed6d32d" y="228.465514"/>
     <use style="fill:#1f77b4;stroke:#1f77b4;" x="94.467269" xlink:href="#ma97ed6d32d" y="90.646565"/>
     <use style="fill:#1f77b4;stroke:#1f77b4;" x="95.494028" xlink:href="#ma97ed6d32d" y="225.430612"/>
     <use style="fill:#1f77b4;stroke:#1f77b4;" x="96.520787" xlink:href="#ma97ed6d32d" y="90.646533"/>
     <use style="fill:#1f77b4;stroke:#1f77b4;" x="97.547546" xlink:href="#ma97ed6d32d" y="255.849132"/>
     <use style="fill:#1f77b4;stroke:#1f77b4;" x="98.574305" xlink:href="#ma97ed6d32d" y="90.646529"/>
     <use style="fill:#1f77b4;stroke:#1f77b4;" x="99.601064" xlink:href="#ma97ed6d32d" y="236.961823"/>
     <use style="fill:#1f77b4;stroke:#1f77b4;" x="100.627823" xlink:href="#ma97ed6d32d" y="90.646551"/>
     <use style="fill:#1f77b4;stroke:#1f77b4;" x="101.654582" xlink:href="#ma97ed6d32d" y="228.204936"/>
     <use style="fill:#1f77b4;stroke:#1f77b4;" x="102.681341" xlink:href="#ma97ed6d32d" y="90.646552"/>
     <use style="fill:#1f77b4;stroke:#1f77b4;" x="103.7081" xlink:href="#ma97ed6d32d" y="229.419427"/>
     <use style="fill:#1f77b4;stroke:#1f77b4;" x="104.734859" xlink:href="#ma97ed6d32d" y="90.646571"/>
     <use style="fill:#1f77b4;stroke:#1f77b4;" x="105.761617" xlink:href="#ma97ed6d32d" y="222.045229"/>
     <use style="fill:#1f77b4;stroke:#1f77b4;" x="106.788376" xlink:href="#ma97ed6d32d" y="90.646575"/>
     <use style="fill:#1f77b4;stroke:#1f77b4;" x="107.815135" xlink:href="#ma97ed6d32d" y="222.766621"/>
     <use style="fill:#1f77b4;stroke:#1f77b4;" x="108.841894" xlink:href="#ma97ed6d32d" y="90.64658"/>
     <use style="fill:#1f77b4;stroke:#1f77b4;" x="109.868653" xlink:href="#ma97ed6d32d" y="221.428036"/>
     <use style="fill:#1f77b4;stroke:#1f77b4;" x="110.895412" xlink:href="#ma97ed6d32d" y="90.646553"/>
     <use style="fill:#1f77b4;stroke:#1f77b4;" x="111.922171" xlink:href="#ma97ed6d32d" y="232.467187"/>
     <use style="fill:#1f77b4;stroke:#1f77b4;" x="112.94893" xlink:href="#ma97ed6d32d" y="90.646563"/>
     <use style="fill:#1f77b4;stroke:#1f77b4;" x="113.975689" xlink:href="#ma97ed6d32d" y="228.239593"/>
     <use style="fill:#1f77b4;stroke:#1f77b4;" x="115.002448" xlink:href="#ma97ed6d32d" y="90.646579"/>
     <use style="fill:#1f77b4;stroke:#1f77b4;" x="116.029207" xlink:href="#ma97ed6d32d" y="218.561915"/>
     <use style="fill:#1f77b4;stroke:#1f77b4;" x="117.055966" xlink:href="#ma97ed6d32d" y="90.646548"/>
     <use style="fill:#1f77b4;stroke:#1f77b4;" x="118.082724" xlink:href="#ma97ed6d32d" y="235.696915"/>
     <use style="fill:#1f77b4;stroke:#1f77b4;" x="119.109483" xlink:href="#ma97ed6d32d" y="90.646559"/>
     <use style="fill:#1f77b4;stroke:#1f77b4;" x="120.136242" xlink:href="#ma97ed6d32d" y="228.439482"/>
     <use style="fill:#1f77b4;stroke:#1f77b4;" x="121.163001" xlink:href="#ma97ed6d32d" y="90.646557"/>
     <use style="fill:#1f77b4;stroke:#1f77b4;" x="122.18976" xlink:href="#ma97ed6d32d" y="228.080987"/>
     <use style="fill:#1f77b4;stroke:#1f77b4;" x="123.216519" xlink:href="#ma97ed6d32d" y="90.646565"/>
     <use style="fill:#1f77b4;stroke:#1f77b4;" x="124.243278" xlink:href="#ma97ed6d32d" y="245.595106"/>
     <use style="fill:#1f77b4;stroke:#1f77b4;" x="125.270037" xlink:href="#ma97ed6d32d" y="90.646562"/>
     <use style="fill:#1f77b4;stroke:#1f77b4;" x="126.296796" xlink:href="#ma97ed6d32d" y="229.36297"/>
     <use style="fill:#1f77b4;stroke:#1f77b4;" x="127.323555" xlink:href="#ma97ed6d32d" y="90.646562"/>
     <use style="fill:#1f77b4;stroke:#1f77b4;" x="128.350314" xlink:href="#ma97ed6d32d" y="223.498046"/>
     <use style="fill:#1f77b4;stroke:#1f77b4;" x="129.377073" xlink:href="#ma97ed6d32d" y="90.646537"/>
     <use style="fill:#1f77b4;stroke:#1f77b4;" x="130.403832" xlink:href="#ma97ed6d32d" y="244.617402"/>
     <use style="fill:#1f77b4;stroke:#1f77b4;" x="131.43059" xlink:href="#ma97ed6d32d" y="90.646547"/>
     <use style="fill:#1f77b4;stroke:#1f77b4;" x="132.457349" xlink:href="#ma97ed6d32d" y="247.65862"/>
     <use style="fill:#1f77b4;stroke:#1f77b4;" x="133.484108" xlink:href="#ma97ed6d32d" y="90.646548"/>
     <use style="fill:#1f77b4;stroke:#1f77b4;" x="134.510867" xlink:href="#ma97ed6d32d" y="226.958808"/>
     <use style="fill:#1f77b4;stroke:#1f77b4;" x="135.537626" xlink:href="#ma97ed6d32d" y="90.64655"/>
     <use style="fill:#1f77b4;stroke:#1f77b4;" x="136.564385" xlink:href="#ma97ed6d32d" y="239.793861"/>
     <use style="fill:#1f77b4;stroke:#1f77b4;" x="137.591144" xlink:href="#ma97ed6d32d" y="90.646545"/>
     <use style="fill:#1f77b4;stroke:#1f77b4;" x="138.617903" xlink:href="#ma97ed6d32d" y="231.885711"/>
     <use style="fill:#1f77b4;stroke:#1f77b4;" x="139.644662" xlink:href="#ma97ed6d32d" y="90.646558"/>
     <use style="fill:#1f77b4;stroke:#1f77b4;" x="140.671421" xlink:href="#ma97ed6d32d" y="225.091852"/>
     <use style="fill:#1f77b4;stroke:#1f77b4;" x="141.69818" xlink:href="#ma97ed6d32d" y="90.646582"/>
     <use style="fill:#1f77b4;stroke:#1f77b4;" x="142.724939" xlink:href="#ma97ed6d32d" y="216.747422"/>
     <use style="fill:#1f77b4;stroke:#1f77b4;" x="143.751697" xlink:href="#ma97ed6d32d" y="90.646563"/>
     <use style="fill:#1f77b4;stroke:#1f77b4;" x="144.778456" xlink:href="#ma97ed6d32d" y="224.511018"/>
     <use style="fill:#1f77b4;stroke:#1f77b4;" x="145.805215" xlink:href="#ma97ed6d32d" y="90.646583"/>
     <use style="fill:#1f77b4;stroke:#1f77b4;" x="146.831974" xlink:href="#ma97ed6d32d" y="216.429961"/>
     <use style="fill:#1f77b4;stroke:#1f77b4;" x="147.858733" xlink:href="#ma97ed6d32d" y="90.64658"/>
     <use style="fill:#1f77b4;stroke:#1f77b4;" x="148.885492" xlink:href="#ma97ed6d32d" y="221.656584"/>
     <use style="fill:#1f77b4;stroke:#1f77b4;" x="149.912251" xlink:href="#ma97ed6d32d" y="90.646545"/>
     <use style="fill:#1f77b4;stroke:#1f77b4;" x="150.93901" xlink:href="#ma97ed6d32d" y="233.443432"/>
     <use style="fill:#1f77b4;stroke:#1f77b4;" x="151.965769" xlink:href="#ma97ed6d32d" y="90.646558"/>
     <use style="fill:#1f77b4;stroke:#1f77b4;" x="152.992528" xlink:href="#ma97ed6d32d" y="226.960379"/>
     <use style="fill:#1f77b4;stroke:#1f77b4;" x="154.019287" xlink:href="#ma97ed6d32d" y="90.64654"/>
     <use style="fill:#1f77b4;stroke:#1f77b4;" x="155.046046" xlink:href="#ma97ed6d32d" y="240.325598"/>
     <use style="fill:#1f77b4;stroke:#1f77b4;" x="156.072804" xlink:href="#ma97ed6d32d" y="90.646525"/>
     <use style="fill:#1f77b4;stroke:#1f77b4;" x="157.099563" xlink:href="#ma97ed6d32d" y="245.582185"/>
     <use style="fill:#1f77b4;stroke:#1f77b4;" x="158.126322" xlink:href="#ma97ed6d32d" y="90.646541"/>
     <use style="fill:#1f77b4;stroke:#1f77b4;" x="159.153081" xlink:href="#ma97ed6d32d" y="238.901517"/>
     <use style="fill:#1f77b4;stroke:#1f77b4;" x="160.17984" xlink:href="#ma97ed6d32d" y="90.646536"/>
     <use style="fill:#1f77b4;stroke:#1f77b4;" x="161.206599" xlink:href="#ma97ed6d32d" y="229.951501"/>
     <use style="fill:#1f77b4;stroke:#1f77b4;" x="162.233358" xlink:href="#ma97ed6d32d" y="90.646569"/>
     <use style="fill:#1f77b4;stroke:#1f77b4;" x="163.260117" xlink:href="#ma97ed6d32d" y="223.058175"/>
     <use style="fill:#1f77b4;stroke:#1f77b4;" x="164.286876" xlink:href="#ma97ed6d32d" y="90.646537"/>
     <use style="fill:#1f77b4;stroke:#1f77b4;" x="165.313635" xlink:href="#ma97ed6d32d" y="257.614477"/>
     <use style="fill:#1f77b4;stroke:#1f77b4;" x="166.340394" xlink:href="#ma97ed6d32d" y="90.646571"/>
     <use style="fill:#1f77b4;stroke:#1f77b4;" x="167.367153" xlink:href="#ma97ed6d32d" y="248.36048"/>
     <use style="fill:#1f77b4;stroke:#1f77b4;" x="168.393911" xlink:href="#ma97ed6d32d" y="90.64657"/>
     <use style="fill:#1f77b4;stroke:#1f77b4;" x="169.42067" xlink:href="#ma97ed6d32d" y="225.994588"/>
     <use style="fill:#1f77b4;stroke:#1f77b4;" x="170.447429" xlink:href="#ma97ed6d32d" y="90.646601"/>
     <use style="fill:#1f77b4;stroke:#1f77b4;" x="171.474188" xlink:href="#ma97ed6d32d" y="238.426248"/>
     <use style="fill:#1f77b4;stroke:#1f77b4;" x="172.500947" xlink:href="#ma97ed6d32d" y="90.646551"/>
     <use style="fill:#1f77b4;stroke:#1f77b4;" x="173.527706" xlink:href="#ma97ed6d32d" y="233.682099"/>
     <use style="fill:#1f77b4;stroke:#1f77b4;" x="174.554465" xlink:href="#ma97ed6d32d" y="90.646568"/>
     <use style="fill:#1f77b4;stroke:#1f77b4;" x="175.581224" xlink:href="#ma97ed6d32d" y="222.969206"/>
     <use style="fill:#1f77b4;stroke:#1f77b4;" x="176.607983" xlink:href="#ma97ed6d32d" y="90.646549"/>
     <use style="fill:#1f77b4;stroke:#1f77b4;" x="177.634742" xlink:href="#ma97ed6d32d" y="231.969377"/>
     <use style="fill:#1f77b4;stroke:#1f77b4;" x="178.661501" xlink:href="#ma97ed6d32d" y="90.646583"/>
     <use style="fill:#1f77b4;stroke:#1f77b4;" x="179.68826" xlink:href="#ma97ed6d32d" y="221.07371"/>
     <use style="fill:#1f77b4;stroke:#1f77b4;" x="180.715018" xlink:href="#ma97ed6d32d" y="90.646578"/>
     <use style="fill:#1f77b4;stroke:#1f77b4;" x="181.741777" xlink:href="#ma97ed6d32d" y="219.304612"/>
     <use style="fill:#1f77b4;stroke:#1f77b4;" x="182.768536" xlink:href="#ma97ed6d32d" y="90.646549"/>
     <use style="fill:#1f77b4;stroke:#1f77b4;" x="183.795295" xlink:href="#ma97ed6d32d" y="234.264154"/>
     <use style="fill:#1f77b4;stroke:#1f77b4;" x="184.822054" xlink:href="#ma97ed6d32d" y="90.646532"/>
     <use style="fill:#1f77b4;stroke:#1f77b4;" x="185.848813" xlink:href="#ma97ed6d32d" y="251.992207"/>
     <use style="fill:#1f77b4;stroke:#1f77b4;" x="186.875572" xlink:href="#ma97ed6d32d" y="90.646562"/>
     <use style="fill:#1f77b4;stroke:#1f77b4;" x="187.902331" xlink:href="#ma97ed6d32d" y="224.059107"/>
     <use style="fill:#1f77b4;stroke:#1f77b4;" x="188.92909" xlink:href="#ma97ed6d32d" y="90.646539"/>
     <use style="fill:#1f77b4;stroke:#1f77b4;" x="189.955849" xlink:href="#ma97ed6d32d" y="245.090846"/>
     <use style="fill:#1f77b4;stroke:#1f77b4;" x="190.982608" xlink:href="#ma97ed6d32d" y="90.646561"/>
     <use style="fill:#1f77b4;stroke:#1f77b4;" x="192.009367" xlink:href="#ma97ed6d32d" y="227.049723"/>
     <use style="fill:#1f77b4;stroke:#1f77b4;" x="193.036125" xlink:href="#ma97ed6d32d" y="90.646559"/>
     <use style="fill:#1f77b4;stroke:#1f77b4;" x="194.062884" xlink:href="#ma97ed6d32d" y="230.402018"/>
     <use style="fill:#1f77b4;stroke:#1f77b4;" x="195.089643" xlink:href="#ma97ed6d32d" y="90.646575"/>
     <use style="fill:#1f77b4;stroke:#1f77b4;" x="196.116402" xlink:href="#ma97ed6d32d" y="214.305731"/>
     <use style="fill:#1f77b4;stroke:#1f77b4;" x="197.143161" xlink:href="#ma97ed6d32d" y="90.646575"/>
     <use style="fill:#1f77b4;stroke:#1f77b4;" x="198.16992" xlink:href="#ma97ed6d32d" y="224.268524"/>
     <use style="fill:#1f77b4;stroke:#1f77b4;" x="199.196679" xlink:href="#ma97ed6d32d" y="90.646545"/>
     <use style="fill:#1f77b4;stroke:#1f77b4;" x="200.223438" xlink:href="#ma97ed6d32d" y="238.429705"/>
     <use style="fill:#1f77b4;stroke:#1f77b4;" x="201.250197" xlink:href="#ma97ed6d32d" y="90.646565"/>
     <use style="fill:#1f77b4;stroke:#1f77b4;" x="202.276956" xlink:href="#ma97ed6d32d" y="225.782826"/>
     <use style="fill:#1f77b4;stroke:#1f77b4;" x="203.303715" xlink:href="#ma97ed6d32d" y="90.646546"/>
     <use style="fill:#1f77b4;stroke:#1f77b4;" x="204.330474" xlink:href="#ma97ed6d32d" y="229.935223"/>
     <use style="fill:#1f77b4;stroke:#1f77b4;" x="205.357232" xlink:href="#ma97ed6d32d" y="90.646525"/>
     <use style="fill:#1f77b4;stroke:#1f77b4;" x="206.383991" xlink:href="#ma97ed6d32d" y="234.474707"/>
     <use style="fill:#1f77b4;stroke:#1f77b4;" x="207.41075" xlink:href="#ma97ed6d32d" y="90.646608"/>
     <use style="fill:#1f77b4;stroke:#1f77b4;" x="208.437509" xlink:href="#ma97ed6d32d" y="215.007549"/>
     <use style="fill:#1f77b4;stroke:#1f77b4;" x="209.464268" xlink:href="#ma97ed6d32d" y="90.646566"/>
     <use style="fill:#1f77b4;stroke:#1f77b4;" x="210.491027" xlink:href="#ma97ed6d32d" y="227.897552"/>
     <use style="fill:#1f77b4;stroke:#1f77b4;" x="211.517786" xlink:href="#ma97ed6d32d" y="90.646573"/>
     <use style="fill:#1f77b4;stroke:#1f77b4;" x="212.544545" xlink:href="#ma97ed6d32d" y="223.791365"/>
     <use style="fill:#1f77b4;stroke:#1f77b4;" x="213.571304" xlink:href="#ma97ed6d32d" y="90.646613"/>
     <use style="fill:#1f77b4;stroke:#1f77b4;" x="214.598063" xlink:href="#ma97ed6d32d" y="215.879966"/>
     <use style="fill:#1f77b4;stroke:#1f77b4;" x="215.624822" xlink:href="#ma97ed6d32d" y="90.646561"/>
     <use style="fill:#1f77b4;stroke:#1f77b4;" x="216.651581" xlink:href="#ma97ed6d32d" y="232.721613"/>
     <use style="fill:#1f77b4;stroke:#1f77b4;" x="217.678339" xlink:href="#ma97ed6d32d" y="90.646621"/>
     <use style="fill:#1f77b4;stroke:#1f77b4;" x="218.705098" xlink:href="#ma97ed6d32d" y="215.0412"/>
     <use style="fill:#1f77b4;stroke:#1f77b4;" x="219.731857" xlink:href="#ma97ed6d32d" y="90.646575"/>
     <use style="fill:#1f77b4;stroke:#1f77b4;" x="220.758616" xlink:href="#ma97ed6d32d" y="229.053649"/>
     <use style="fill:#1f77b4;stroke:#1f77b4;" x="221.785375" xlink:href="#ma97ed6d32d" y="90.646541"/>
     <use style="fill:#1f77b4;stroke:#1f77b4;" x="222.812134" xlink:href="#ma97ed6d32d" y="239.215628"/>
     <use style="fill:#1f77b4;stroke:#1f77b4;" x="223.838893" xlink:href="#ma97ed6d32d" y="90.64654"/>
     <use style="fill:#1f77b4;stroke:#1f77b4;" x="224.865652" xlink:href="#ma97ed6d32d" y="225.401115"/>
     <use style="fill:#1f77b4;stroke:#1f77b4;" x="225.892411" xlink:href="#ma97ed6d32d" y="90.646542"/>
     <use style="fill:#1f77b4;stroke:#1f77b4;" x="226.91917" xlink:href="#ma97ed6d32d" y="235.47154"/>
     <use style="fill:#1f77b4;stroke:#1f77b4;" x="227.945929" xlink:href="#ma97ed6d32d" y="90.646517"/>
     <use style="fill:#1f77b4;stroke:#1f77b4;" x="228.972688" xlink:href="#ma97ed6d32d" y="233.705968"/>
     <use style="fill:#1f77b4;stroke:#1f77b4;" x="229.999446" xlink:href="#ma97ed6d32d" y="90.646535"/>
     <use style="fill:#1f77b4;stroke:#1f77b4;" x="231.026205" xlink:href="#ma97ed6d32d" y="252.947754"/>
     <use style="fill:#1f77b4;stroke:#1f77b4;" x="232.052964" xlink:href="#ma97ed6d32d" y="90.646542"/>
     <use style="fill:#1f77b4;stroke:#1f77b4;" x="233.079723" xlink:href="#ma97ed6d32d" y="237.688982"/>
     <use style="fill:#1f77b4;stroke:#1f77b4;" x="234.106482" xlink:href="#ma97ed6d32d" y="90.646548"/>
     <use style="fill:#1f77b4;stroke:#1f77b4;" x="235.133241" xlink:href="#ma97ed6d32d" y="226.725692"/>
     <use style="fill:#1f77b4;stroke:#1f77b4;" x="236.16" xlink:href="#ma97ed6d32d" y="90.646527"/>
     <use style="fill:#1f77b4;stroke:#1f77b4;" x="237.186759" xlink:href="#ma97ed6d32d" y="238.270319"/>
     <use style="fill:#1f77b4;stroke:#1f77b4;" x="238.213518" xlink:href="#ma97ed6d32d" y="90.646561"/>
     <use style="fill:#1f77b4;stroke:#1f77b4;" x="239.240277" xlink:href="#ma97ed6d32d" y="223.981442"/>
     <use style="fill:#1f77b4;stroke:#1f77b4;" x="240.267036" xlink:href="#ma97ed6d32d" y="90.646563"/>
     <use style="fill:#1f77b4;stroke:#1f77b4;" x="241.293795" xlink:href="#ma97ed6d32d" y="217.772477"/>
     <use style="fill:#1f77b4;stroke:#1f77b4;" x="242.320554" xlink:href="#ma97ed6d32d" y="90.646521"/>
     <use style="fill:#1f77b4;stroke:#1f77b4;" x="243.347312" xlink:href="#ma97ed6d32d" y="231.246577"/>
     <use style="fill:#1f77b4;stroke:#1f77b4;" x="244.374071" xlink:href="#ma97ed6d32d" y="90.646563"/>
     <use style="fill:#1f77b4;stroke:#1f77b4;" x="245.40083" xlink:href="#ma97ed6d32d" y="225.179562"/>
     <use style="fill:#1f77b4;stroke:#1f77b4;" x="246.427589" xlink:href="#ma97ed6d32d" y="90.646543"/>
     <use style="fill:#1f77b4;stroke:#1f77b4;" x="247.454348" xlink:href="#ma97ed6d32d" y="239.174666"/>
     <use style="fill:#1f77b4;stroke:#1f77b4;" x="248.481107" xlink:href="#ma97ed6d32d" y="90.646534"/>
     <use style="fill:#1f77b4;stroke:#1f77b4;" x="249.507866" xlink:href="#ma97ed6d32d" y="238.312137"/>
     <use style="fill:#1f77b4;stroke:#1f77b4;" x="250.534625" xlink:href="#ma97ed6d32d" y="90.646562"/>
     <use style="fill:#1f77b4;stroke:#1f77b4;" x="251.561384" xlink:href="#ma97ed6d32d" y="226.193811"/>
     <use style="fill:#1f77b4;stroke:#1f77b4;" x="252.588143" xlink:href="#ma97ed6d32d" y="90.646635"/>
     <use style="fill:#1f77b4;stroke:#1f77b4;" x="253.614902" xlink:href="#ma97ed6d32d" y="212.518829"/>
     <use style="fill:#1f77b4;stroke:#1f77b4;" x="254.641661" xlink:href="#ma97ed6d32d" y="90.646536"/>
     <use style="fill:#1f77b4;stroke:#1f77b4;" x="255.668419" xlink:href="#ma97ed6d32d" y="241.03921"/>
     <use style="fill:#1f77b4;stroke:#1f77b4;" x="256.695178" xlink:href="#ma97ed6d32d" y="90.646578"/>
     <use style="fill:#1f77b4;stroke:#1f77b4;" x="257.721937" xlink:href="#ma97ed6d32d" y="221.919953"/>
     <use style="fill:#1f77b4;stroke:#1f77b4;" x="258.748696" xlink:href="#ma97ed6d32d" y="90.646529"/>
     <use style="fill:#1f77b4;stroke:#1f77b4;" x="259.775455" xlink:href="#ma97ed6d32d" y="240.959214"/>
     <use style="fill:#1f77b4;stroke:#1f77b4;" x="260.802214" xlink:href="#ma97ed6d32d" y="90.646615"/>
     <use style="fill:#1f77b4;stroke:#1f77b4;" x="261.828973" xlink:href="#ma97ed6d32d" y="215.739944"/>
     <use style="fill:#1f77b4;stroke:#1f77b4;" x="262.855732" xlink:href="#ma97ed6d32d" y="90.646534"/>
     <use style="fill:#1f77b4;stroke:#1f77b4;" x="263.882491" xlink:href="#ma97ed6d32d" y="232.809442"/>
     <use style="fill:#1f77b4;stroke:#1f77b4;" x="264.90925" xlink:href="#ma97ed6d32d" y="90.646579"/>
     <use style="fill:#1f77b4;stroke:#1f77b4;" x="265.936009" xlink:href="#ma97ed6d32d" y="223.841515"/>
     <use style="fill:#1f77b4;stroke:#1f77b4;" x="266.962768" xlink:href="#ma97ed6d32d" y="90.646624"/>
     <use style="fill:#1f77b4;stroke:#1f77b4;" x="267.989526" xlink:href="#ma97ed6d32d" y="216.321101"/>
     <use style="fill:#1f77b4;stroke:#1f77b4;" x="269.016285" xlink:href="#ma97ed6d32d" y="90.646565"/>
     <use style="fill:#1f77b4;stroke:#1f77b4;" x="270.043044" xlink:href="#ma97ed6d32d" y="227.813336"/>
     <use style="fill:#1f77b4;stroke:#1f77b4;" x="271.069803" xlink:href="#ma97ed6d32d" y="90.646614"/>
     <use style="fill:#1f77b4;stroke:#1f77b4;" x="272.096562" xlink:href="#ma97ed6d32d" y="215.523123"/>
     <use style="fill:#1f77b4;stroke:#1f77b4;" x="273.123321" xlink:href="#ma97ed6d32d" y="90.646562"/>
     <use style="fill:#1f77b4;stroke:#1f77b4;" x="274.15008" xlink:href="#ma97ed6d32d" y="231.064494"/>
     <use style="fill:#1f77b4;stroke:#1f77b4;" x="275.176839" xlink:href="#ma97ed6d32d" y="90.646556"/>
     <use style="fill:#1f77b4;stroke:#1f77b4;" x="276.203598" xlink:href="#ma97ed6d32d" y="219.687749"/>
     <use style="fill:#1f77b4;stroke:#1f77b4;" x="277.230357" xlink:href="#ma97ed6d32d" y="90.6466"/>
     <use style="fill:#1f77b4;stroke:#1f77b4;" x="278.257116" xlink:href="#ma97ed6d32d" y="219.248498"/>
     <use style="fill:#1f77b4;stroke:#1f77b4;" x="279.283875" xlink:href="#ma97ed6d32d" y="90.646566"/>
     <use style="fill:#1f77b4;stroke:#1f77b4;" x="280.310633" xlink:href="#ma97ed6d32d" y="221.279428"/>
     <use style="fill:#1f77b4;stroke:#1f77b4;" x="281.337392" xlink:href="#ma97ed6d32d" y="90.646558"/>
     <use style="fill:#1f77b4;stroke:#1f77b4;" x="282.364151" xlink:href="#ma97ed6d32d" y="221.465166"/>
     <use style="fill:#1f77b4;stroke:#1f77b4;" x="283.39091" xlink:href="#ma97ed6d32d" y="90.646537"/>
     <use style="fill:#1f77b4;stroke:#1f77b4;" x="284.417669" xlink:href="#ma97ed6d32d" y="242.122516"/>
     <use style="fill:#1f77b4;stroke:#1f77b4;" x="285.444428" xlink:href="#ma97ed6d32d" y="90.646551"/>
     <use style="fill:#1f77b4;stroke:#1f77b4;" x="286.471187" xlink:href="#ma97ed6d32d" y="241.103761"/>
     <use style="fill:#1f77b4;stroke:#1f77b4;" x="287.497946" xlink:href="#ma97ed6d32d" y="90.646548"/>
     <use style="fill:#1f77b4;stroke:#1f77b4;" x="288.524705" xlink:href="#ma97ed6d32d" y="235.511254"/>
     <use style="fill:#1f77b4;stroke:#1f77b4;" x="289.551464" xlink:href="#ma97ed6d32d" y="90.646542"/>
     <use style="fill:#1f77b4;stroke:#1f77b4;" x="290.578223" xlink:href="#ma97ed6d32d" y="232.117148"/>
     <use style="fill:#1f77b4;stroke:#1f77b4;" x="291.604982" xlink:href="#ma97ed6d32d" y="90.64655"/>
     <use style="fill:#1f77b4;stroke:#1f77b4;" x="292.63174" xlink:href="#ma97ed6d32d" y="233.948261"/>
     <use style="fill:#1f77b4;stroke:#1f77b4;" x="293.658499" xlink:href="#ma97ed6d32d" y="90.646525"/>
     <use style="fill:#1f77b4;stroke:#1f77b4;" x="294.685258" xlink:href="#ma97ed6d32d" y="234.623074"/>
     <use style="fill:#1f77b4;stroke:#1f77b4;" x="295.712017" xlink:href="#ma97ed6d32d" y="90.646565"/>
     <use style="fill:#1f77b4;stroke:#1f77b4;" x="296.738776" xlink:href="#ma97ed6d32d" y="225.140736"/>
     <use style="fill:#1f77b4;stroke:#1f77b4;" x="297.765535" xlink:href="#ma97ed6d32d" y="90.646554"/>
     <use style="fill:#1f77b4;stroke:#1f77b4;" x="298.792294" xlink:href="#ma97ed6d32d" y="227.628863"/>
     <use style="fill:#1f77b4;stroke:#1f77b4;" x="299.819053" xlink:href="#ma97ed6d32d" y="90.646558"/>
     <use style="fill:#1f77b4;stroke:#1f77b4;" x="300.845812" xlink:href="#ma97ed6d32d" y="227.961203"/>
     <use style="fill:#1f77b4;stroke:#1f77b4;" x="301.872571" xlink:href="#ma97ed6d32d" y="90.646541"/>
     <use style="fill:#1f77b4;stroke:#1f77b4;" x="302.89933" xlink:href="#ma97ed6d32d" y="235.925821"/>
     <use style="fill:#1f77b4;stroke:#1f77b4;" x="303.926089" xlink:href="#ma97ed6d32d" y="90.646572"/>
     <use style="fill:#1f77b4;stroke:#1f77b4;" x="304.952847" xlink:href="#ma97ed6d32d" y="217.606191"/>
     <use style="fill:#1f77b4;stroke:#1f77b4;" x="305.979606" xlink:href="#ma97ed6d32d" y="90.64658"/>
     <use style="fill:#1f77b4;stroke:#1f77b4;" x="307.006365" xlink:href="#ma97ed6d32d" y="221.611857"/>
     <use style="fill:#1f77b4;stroke:#1f77b4;" x="308.033124" xlink:href="#ma97ed6d32d" y="90.646582"/>
     <use style="fill:#1f77b4;stroke:#1f77b4;" x="309.059883" xlink:href="#ma97ed6d32d" y="225.408305"/>
     <use style="fill:#1f77b4;stroke:#1f77b4;" x="310.086642" xlink:href="#ma97ed6d32d" y="90.646539"/>
     <use style="fill:#1f77b4;stroke:#1f77b4;" x="311.113401" xlink:href="#ma97ed6d32d" y="244.841209"/>
     <use style="fill:#1f77b4;stroke:#1f77b4;" x="312.14016" xlink:href="#ma97ed6d32d" y="90.646567"/>
     <use style="fill:#1f77b4;stroke:#1f77b4;" x="313.166919" xlink:href="#ma97ed6d32d" y="224.285654"/>
     <use style="fill:#1f77b4;stroke:#1f77b4;" x="314.193678" xlink:href="#ma97ed6d32d" y="90.64658"/>
     <use style="fill:#1f77b4;stroke:#1f77b4;" x="315.220437" xlink:href="#ma97ed6d32d" y="225.948394"/>
     <use style="fill:#1f77b4;stroke:#1f77b4;" x="316.247196" xlink:href="#ma97ed6d32d" y="90.646551"/>
     <use style="fill:#1f77b4;stroke:#1f77b4;" x="317.273954" xlink:href="#ma97ed6d32d" y="231.524869"/>
     <use style="fill:#1f77b4;stroke:#1f77b4;" x="318.300713" xlink:href="#ma97ed6d32d" y="90.646586"/>
     <use style="fill:#1f77b4;stroke:#1f77b4;" x="319.327472" xlink:href="#ma97ed6d32d" y="220.168862"/>
     <use style="fill:#1f77b4;stroke:#1f77b4;" x="320.354231" xlink:href="#ma97ed6d32d" y="90.646568"/>
     <use style="fill:#1f77b4;stroke:#1f77b4;" x="321.38099" xlink:href="#ma97ed6d32d" y="223.25168"/>
     <use style="fill:#1f77b4;stroke:#1f77b4;" x="322.407749" xlink:href="#ma97ed6d32d" y="90.646529"/>
     <use style="fill:#1f77b4;stroke:#1f77b4;" x="323.434508" xlink:href="#ma97ed6d32d" y="233.803257"/>
     <use style="fill:#1f77b4;stroke:#1f77b4;" x="324.461267" xlink:href="#ma97ed6d32d" y="90.646543"/>
     <use style="fill:#1f77b4;stroke:#1f77b4;" x="325.488026" xlink:href="#ma97ed6d32d" y="233.896121"/>
     <use style="fill:#1f77b4;stroke:#1f77b4;" x="326.514785" xlink:href="#ma97ed6d32d" y="90.646514"/>
     <use style="fill:#1f77b4;stroke:#1f77b4;" x="327.541544" xlink:href="#ma97ed6d32d" y="228.735363"/>
     <use style="fill:#1f77b4;stroke:#1f77b4;" x="328.568303" xlink:href="#ma97ed6d32d" y="90.646575"/>
     <use style="fill:#1f77b4;stroke:#1f77b4;" x="329.595061" xlink:href="#ma97ed6d32d" y="222.96513"/>
     <use style="fill:#1f77b4;stroke:#1f77b4;" x="330.62182" xlink:href="#ma97ed6d32d" y="90.646553"/>
     <use style="fill:#1f77b4;stroke:#1f77b4;" x="331.648579" xlink:href="#ma97ed6d32d" y="224.47376"/>
     <use style="fill:#1f77b4;stroke:#1f77b4;" x="332.675338" xlink:href="#ma97ed6d32d" y="90.646581"/>
     <use style="fill:#1f77b4;stroke:#1f77b4;" x="333.702097" xlink:href="#ma97ed6d32d" y="222.33436"/>
     <use style="fill:#1f77b4;stroke:#1f77b4;" x="334.728856" xlink:href="#ma97ed6d32d" y="90.646589"/>
     <use style="fill:#1f77b4;stroke:#1f77b4;" x="335.755615" xlink:href="#ma97ed6d32d" y="223.338008"/>
     <use style="fill:#1f77b4;stroke:#1f77b4;" x="336.782374" xlink:href="#ma97ed6d32d" y="90.646554"/>
     <use style="fill:#1f77b4;stroke:#1f77b4;" x="337.809133" xlink:href="#ma97ed6d32d" y="236.874098"/>
     <use style="fill:#1f77b4;stroke:#1f77b4;" x="338.835892" xlink:href="#ma97ed6d32d" y="90.646573"/>
     <use style="fill:#1f77b4;stroke:#1f77b4;" x="339.862651" xlink:href="#ma97ed6d32d" y="214.33174"/>
     <use style="fill:#1f77b4;stroke:#1f77b4;" x="340.88941" xlink:href="#ma97ed6d32d" y="90.646513"/>
     <use style="fill:#1f77b4;stroke:#1f77b4;" x="341.916168" xlink:href="#ma97ed6d32d" y="226.922423"/>
     <use style="fill:#1f77b4;stroke:#1f77b4;" x="342.942927" xlink:href="#ma97ed6d32d" y="90.646582"/>
     <use style="fill:#1f77b4;stroke:#1f77b4;" x="343.969686" xlink:href="#ma97ed6d32d" y="219.121761"/>
     <use style="fill:#1f77b4;stroke:#1f77b4;" x="344.996445" xlink:href="#ma97ed6d32d" y="90.646532"/>
     <use style="fill:#1f77b4;stroke:#1f77b4;" x="346.023204" xlink:href="#ma97ed6d32d" y="248.716959"/>
     <use style="fill:#1f77b4;stroke:#1f77b4;" x="347.049963" xlink:href="#ma97ed6d32d" y="90.646563"/>
     <use style="fill:#1f77b4;stroke:#1f77b4;" x="348.076722" xlink:href="#ma97ed6d32d" y="219.985267"/>
     <use style="fill:#1f77b4;stroke:#1f77b4;" x="349.103481" xlink:href="#ma97ed6d32d" y="90.646622"/>
     <use style="fill:#1f77b4;stroke:#1f77b4;" x="350.13024" xlink:href="#ma97ed6d32d" y="213.291231"/>
     <use style="fill:#1f77b4;stroke:#1f77b4;" x="351.156999" xlink:href="#ma97ed6d32d" y="90.64656"/>
     <use style="fill:#1f77b4;stroke:#1f77b4;" x="352.183758" xlink:href="#ma97ed6d32d" y="229.82893"/>
     <use style="fill:#1f77b4;stroke:#1f77b4;" x="353.210517" xlink:href="#ma97ed6d32d" y="90.646532"/>
     <use style="fill:#1f77b4;stroke:#1f77b4;" x="354.237276" xlink:href="#ma97ed6d32d" y="240.920314"/>
     <use style="fill:#1f77b4;stroke:#1f77b4;" x="355.264034" xlink:href="#ma97ed6d32d" y="90.646569"/>
     <use style="fill:#1f77b4;stroke:#1f77b4;" x="356.290793" xlink:href="#ma97ed6d32d" y="220.479678"/>
     <use style="fill:#1f77b4;stroke:#1f77b4;" x="357.317552" xlink:href="#ma97ed6d32d" y="90.64656"/>
     <use style="fill:#1f77b4;stroke:#1f77b4;" x="358.344311" xlink:href="#ma97ed6d32d" y="228.000157"/>
     <use style="fill:#1f77b4;stroke:#1f77b4;" x="359.37107" xlink:href="#ma97ed6d32d" y="90.646556"/>
     <use style="fill:#1f77b4;stroke:#1f77b4;" x="360.397829" xlink:href="#ma97ed6d32d" y="226.530072"/>
     <use style="fill:#1f77b4;stroke:#1f77b4;" x="361.424588" xlink:href="#ma97ed6d32d" y="90.646568"/>
     <use style="fill:#1f77b4;stroke:#1f77b4;" x="362.451347" xlink:href="#ma97ed6d32d" y="223.458345"/>
     <use style="fill:#1f77b4;stroke:#1f77b4;" x="363.478106" xlink:href="#ma97ed6d32d" y="90.646562"/>
     <use style="fill:#1f77b4;stroke:#1f77b4;" x="364.504865" xlink:href="#ma97ed6d32d" y="230.175656"/>
     <use style="fill:#1f77b4;stroke:#1f77b4;" x="365.531624" xlink:href="#ma97ed6d32d" y="90.646539"/>
     <use style="fill:#1f77b4;stroke:#1f77b4;" x="366.558383" xlink:href="#ma97ed6d32d" y="255.57556"/>
     <use style="fill:#1f77b4;stroke:#1f77b4;" x="367.585141" xlink:href="#ma97ed6d32d" y="90.646574"/>
     <use style="fill:#1f77b4;stroke:#1f77b4;" x="368.6119" xlink:href="#ma97ed6d32d" y="224.454247"/>
     <use style="fill:#1f77b4;stroke:#1f77b4;" x="369.638659" xlink:href="#ma97ed6d32d" y="90.646625"/>
     <use style="fill:#1f77b4;stroke:#1f77b4;" x="370.665418" xlink:href="#ma97ed6d32d" y="212.660967"/>
     <use style="fill:#1f77b4;stroke:#1f77b4;" x="371.692177" xlink:href="#ma97ed6d32d" y="90.646559"/>
     <use style="fill:#1f77b4;stroke:#1f77b4;" x="372.718936" xlink:href="#ma97ed6d32d" y="230.916362"/>
     <use style="fill:#1f77b4;stroke:#1f77b4;" x="373.745695" xlink:href="#ma97ed6d32d" y="90.646572"/>
     <use style="fill:#1f77b4;stroke:#1f77b4;" x="374.772454" xlink:href="#ma97ed6d32d" y="224.654518"/>
     <use style="fill:#1f77b4;stroke:#1f77b4;" x="375.799213" xlink:href="#ma97ed6d32d" y="90.646542"/>
     <use style="fill:#1f77b4;stroke:#1f77b4;" x="376.825972" xlink:href="#ma97ed6d32d" y="233.438766"/>
     <use style="fill:#1f77b4;stroke:#1f77b4;" x="377.852731" xlink:href="#ma97ed6d32d" y="90.646556"/>
     <use style="fill:#1f77b4;stroke:#1f77b4;" x="378.87949" xlink:href="#ma97ed6d32d" y="226.430747"/>
     <use style="fill:#1f77b4;stroke:#1f77b4;" x="379.906248" xlink:href="#ma97ed6d32d" y="90.646561"/>
     <use style="fill:#1f77b4;stroke:#1f77b4;" x="380.933007" xlink:href="#ma97ed6d32d" y="228.131899"/>
     <use style="fill:#1f77b4;stroke:#1f77b4;" x="381.959766" xlink:href="#ma97ed6d32d" y="90.646547"/>
     <use style="fill:#1f77b4;stroke:#1f77b4;" x="382.986525" xlink:href="#ma97ed6d32d" y="232.92333"/>
     <use style="fill:#1f77b4;stroke:#1f77b4;" x="384.013284" xlink:href="#ma97ed6d32d" y="90.646551"/>
     <use style="fill:#1f77b4;stroke:#1f77b4;" x="385.040043" xlink:href="#ma97ed6d32d" y="223.477785"/>
     <use style="fill:#1f77b4;stroke:#1f77b4;" x="386.066802" xlink:href="#ma97ed6d32d" y="90.64657"/>
     <use style="fill:#1f77b4;stroke:#1f77b4;" x="387.093561" xlink:href="#ma97ed6d32d" y="222.243353"/>
     <use style="fill:#1f77b4;stroke:#1f77b4;" x="388.12032" xlink:href="#ma97ed6d32d" y="90.646552"/>
     <use style="fill:#1f77b4;stroke:#1f77b4;" x="389.147079" xlink:href="#ma97ed6d32d" y="240.96988"/>
     <use style="fill:#1f77b4;stroke:#1f77b4;" x="390.173838" xlink:href="#ma97ed6d32d" y="90.646582"/>
     <use style="fill:#1f77b4;stroke:#1f77b4;" x="391.200597" xlink:href="#ma97ed6d32d" y="218.3351"/>
     <use style="fill:#1f77b4;stroke:#1f77b4;" x="392.227355" xlink:href="#ma97ed6d32d" y="90.646533"/>
     <use style="fill:#1f77b4;stroke:#1f77b4;" x="393.254114" xlink:href="#ma97ed6d32d" y="243.289102"/>
     <use style="fill:#1f77b4;stroke:#1f77b4;" x="394.280873" xlink:href="#ma97ed6d32d" y="90.646567"/>
     <use style="fill:#1f77b4;stroke:#1f77b4;" x="395.307632" xlink:href="#ma97ed6d32d" y="225.480918"/>
     <use style="fill:#1f77b4;stroke:#1f77b4;" x="396.334391" xlink:href="#ma97ed6d32d" y="90.646529"/>
     <use style="fill:#1f77b4;stroke:#1f77b4;" x="397.36115" xlink:href="#ma97ed6d32d" y="252.107272"/>
     <use style="fill:#1f77b4;stroke:#1f77b4;" x="398.387909" xlink:href="#ma97ed6d32d" y="90.6465"/>
     <use style="fill:#1f77b4;stroke:#1f77b4;" x="399.414668" xlink:href="#ma97ed6d32d" y="222.169971"/>
     <use style="fill:#1f77b4;stroke:#1f77b4;" x="400.441427" xlink:href="#ma97ed6d32d" y="90.646551"/>
     <use style="fill:#1f77b4;stroke:#1f77b4;" x="401.468186" xlink:href="#ma97ed6d32d" y="225.483844"/>
     <use style="fill:#1f77b4;stroke:#1f77b4;" x="402.494945" xlink:href="#ma97ed6d32d" y="90.64654"/>
     <use style="fill:#1f77b4;stroke:#1f77b4;" x="403.521704" xlink:href="#ma97ed6d32d" y="229.535017"/>
     <use style="fill:#1f77b4;stroke:#1f77b4;" x="404.548462" xlink:href="#ma97ed6d32d" y="90.646567"/>
     <use style="fill:#1f77b4;stroke:#1f77b4;" x="405.575221" xlink:href="#ma97ed6d32d" y="226.018496"/>
     <use style="fill:#1f77b4;stroke:#1f77b4;" x="406.60198" xlink:href="#ma97ed6d32d" y="90.646578"/>
     <use style="fill:#1f77b4;stroke:#1f77b4;" x="407.628739" xlink:href="#ma97ed6d32d" y="227.560525"/>
     <use style="fill:#1f77b4;stroke:#1f77b4;" x="408.655498" xlink:href="#ma97ed6d32d" y="90.646539"/>
     <use style="fill:#1f77b4;stroke:#1f77b4;" x="409.670142" xlink:href="#ma97ed6d32d" y="24884.2"/>
    </g>
   </g>
   <g id="line2d_14">
    <path clip-path="url(#p1b795736d1)" d="M 62.637743 153.376857 
L 103.13863 346.6 
L 103.13863 346.6 
" style="fill:none;stroke:#000000;stroke-dasharray:5.55,2.4;stroke-dashoffset:0;stroke-width:1.5;"/>
   </g>
   <g id="patch_3">
    <path d="M 57.6 307.584 
L 57.6 41.472 
" style="fill:none;stroke:#000000;stroke-linecap:square;stroke-linejoin:miter;stroke-width:0.8;"/>
   </g>
   <g id="patch_4">
    <path d="M 414.72 307.584 
L 414.72 41.472 
" style="fill:none;stroke:#000000;stroke-linecap:square;stroke-linejoin:miter;stroke-width:0.8;"/>
   </g>
   <g id="patch_5">
    <path d="M 57.6 307.584 
L 414.72 307.584 
" style="fill:none;stroke:#000000;stroke-linecap:square;stroke-linejoin:miter;stroke-width:0.8;"/>
   </g>
   <g id="patch_6">
    <path d="M 57.6 41.472 
L 414.72 41.472 
" style="fill:none;stroke:#000000;stroke-linecap:square;stroke-linejoin:miter;stroke-width:0.8;"/>
   </g>
   <g id="legend_1">
    <g id="patch_7">
     <path d="M 306.62 64.172 
L 407.72 64.172 
Q 409.72 64.172 409.72 62.172 
L 409.72 48.472 
Q 409.72 46.472 407.72 46.472 
L 306.62 46.472 
Q 304.62 46.472 304.62 48.472 
L 304.62 62.172 
Q 304.62 64.172 306.62 64.172 
z
" style="fill:#ffffff;opacity:0.8;stroke:#cccccc;stroke-linejoin:miter;"/>
    </g>
    <g id="line2d_15">
     <path d="M 308.62 54.572 
L 328.62 54.572 
" style="fill:none;stroke:#000000;stroke-dasharray:5.55,2.4;stroke-dashoffset:0;stroke-width:1.5;"/>
    </g>
    <g id="line2d_16"/>
    <g id="text_13">
     <!-- $ \exp(-0.451 k)$ -->
     <defs>
      <path d="M 56.203125 29.59375 
L 56.203125 25.203125 
L 14.890625 25.203125 
Q 15.484375 15.921875 20.484375 11.0625 
Q 25.484375 6.203125 34.421875 6.203125 
Q 39.59375 6.203125 44.453125 7.46875 
Q 49.3125 8.734375 54.109375 11.28125 
L 54.109375 2.78125 
Q 49.265625 0.734375 44.1875 -0.34375 
Q 39.109375 -1.421875 33.890625 -1.421875 
Q 20.796875 -1.421875 13.15625 6.1875 
Q 5.515625 13.8125 5.515625 26.8125 
Q 5.515625 40.234375 12.765625 48.109375 
Q 20.015625 56 32.328125 56 
Q 43.359375 56 49.78125 48.890625 
Q 56.203125 41.796875 56.203125 29.59375 
z
M 47.21875 32.234375 
Q 47.125 39.59375 43.09375 43.984375 
Q 39.0625 48.390625 32.421875 48.390625 
Q 24.90625 48.390625 20.390625 44.140625 
Q 15.875 39.890625 15.1875 32.171875 
z
" id="DejaVuSans-101"/>
      <path d="M 54.890625 54.6875 
L 35.109375 28.078125 
L 55.90625 0 
L 45.3125 0 
L 29.390625 21.484375 
L 13.484375 0 
L 2.875 0 
L 24.125 28.609375 
L 4.6875 54.6875 
L 15.28125 54.6875 
L 29.78125 35.203125 
L 44.28125 54.6875 
z
" id="DejaVuSans-120"/>
      <path d="M 18.109375 8.203125 
L 18.109375 -20.796875 
L 9.078125 -20.796875 
L 9.078125 54.6875 
L 18.109375 54.6875 
L 18.109375 46.390625 
Q 20.953125 51.265625 25.265625 53.625 
Q 29.59375 56 35.59375 56 
Q 45.5625 56 51.78125 48.09375 
Q 58.015625 40.1875 58.015625 27.296875 
Q 58.015625 14.40625 51.78125 6.484375 
Q 45.5625 -1.421875 35.59375 -1.421875 
Q 29.59375 -1.421875 25.265625 0.953125 
Q 20.953125 3.328125 18.109375 8.203125 
z
M 48.6875 27.296875 
Q 48.6875 37.203125 44.609375 42.84375 
Q 40.53125 48.484375 33.40625 48.484375 
Q 26.265625 48.484375 22.1875 42.84375 
Q 18.109375 37.203125 18.109375 27.296875 
Q 18.109375 17.390625 22.1875 11.75 
Q 26.265625 6.109375 33.40625 6.109375 
Q 40.53125 6.109375 44.609375 11.75 
Q 48.6875 17.390625 48.6875 27.296875 
z
" id="DejaVuSans-112"/>
      <path d="M 31 75.875 
Q 24.46875 64.65625 21.28125 53.65625 
Q 18.109375 42.671875 18.109375 31.390625 
Q 18.109375 20.125 21.3125 9.0625 
Q 24.515625 -2 31 -13.1875 
L 23.1875 -13.1875 
Q 15.875 -1.703125 12.234375 9.375 
Q 8.59375 20.453125 8.59375 31.390625 
Q 8.59375 42.28125 12.203125 53.3125 
Q 15.828125 64.359375 23.1875 75.875 
z
" id="DejaVuSans-40"/>
      <path d="M 10.6875 12.40625 
L 21 12.40625 
L 21 0 
L 10.6875 0 
z
" id="DejaVuSans-46"/>
      <path d="M 37.796875 64.3125 
L 12.890625 25.390625 
L 37.796875 25.390625 
z
M 35.203125 72.90625 
L 47.609375 72.90625 
L 47.609375 25.390625 
L 58.015625 25.390625 
L 58.015625 17.1875 
L 47.609375 17.1875 
L 47.609375 0 
L 37.796875 0 
L 37.796875 17.1875 
L 4.890625 17.1875 
L 4.890625 26.703125 
z
" id="DejaVuSans-52"/>
      <path d="M 18.3125 75.984375 
L 27.296875 75.984375 
L 18.703125 31.6875 
L 49.515625 54.6875 
L 61.1875 54.6875 
L 26.8125 28.515625 
L 51.90625 0 
L 41.015625 0 
L 17.671875 26.703125 
L 12.5 0 
L 3.515625 0 
z
" id="DejaVuSans-Oblique-107"/>
      <path d="M 8.015625 75.875 
L 15.828125 75.875 
Q 23.140625 64.359375 26.78125 53.3125 
Q 30.421875 42.28125 30.421875 31.390625 
Q 30.421875 20.453125 26.78125 9.375 
Q 23.140625 -1.703125 15.828125 -13.1875 
L 8.015625 -13.1875 
Q 14.5 -2 17.703125 9.0625 
Q 20.90625 20.125 20.90625 31.390625 
Q 20.90625 42.671875 17.703125 53.65625 
Q 14.5 64.65625 8.015625 75.875 
z
" id="DejaVuSans-41"/>
     </defs>
     <g transform="translate(336.62 58.072)scale(0.1 -0.1)">
      <use transform="translate(0 0.015625)" xlink:href="#DejaVuSans-101"/>
      <use transform="translate(61.523438 0.015625)" xlink:href="#DejaVuSans-120"/>
      <use transform="translate(120.703125 0.015625)" xlink:href="#DejaVuSans-112"/>
      <use transform="translate(184.179688 0.015625)" xlink:href="#DejaVuSans-40"/>
      <use transform="translate(223.193359 0.015625)" xlink:href="#DejaVuSans-8722"/>
      <use transform="translate(306.982422 0.015625)" xlink:href="#DejaVuSans-48"/>
      <use transform="translate(370.605469 0.015625)" xlink:href="#DejaVuSans-46"/>
      <use transform="translate(402.392578 0.015625)" xlink:href="#DejaVuSans-52"/>
      <use transform="translate(466.015625 0.015625)" xlink:href="#DejaVuSans-53"/>
      <use transform="translate(529.638672 0.015625)" xlink:href="#DejaVuSans-49"/>
      <use transform="translate(593.261719 0.015625)" xlink:href="#DejaVuSans-Oblique-107"/>
      <use transform="translate(651.171875 0.015625)" xlink:href="#DejaVuSans-41"/>
     </g>
    </g>
   </g>
  </g>
 </g>
 <defs>
  <clipPath id="p1b795736d1">
   <rect height="266.112" width="357.12" x="57.6" y="41.472"/>
  </clipPath>
 </defs>
</svg>
