<?xml version="1.0" encoding="utf-8" standalone="no"?>
<!DOCTYPE svg PUBLIC "-//W3C//DTD SVG 1.1//EN"
  "http://www.w3.org/Graphics/SVG/1.1/DTD/svg11.dtd">
<!-- Created with matplotlib (https://matplotlib.org/) -->
<svg height="310.86825pt" version="1.1" viewBox="0 0 402.02 310.86825" width="402.02pt" xmlns="http://www.w3.org/2000/svg" xmlns:xlink="http://www.w3.org/1999/xlink">
 <defs>
  <style type="text/css">
*{stroke-linecap:butt;stroke-linejoin:round;}
  </style>
 </defs>
 <g id="figure_1">
  <g id="patch_1">
   <path d="M 0 310.86825 
L 402.02 310.86825 
L 402.02 0 
L 0 0 
z
" style="fill:#ffffff;"/>
  </g>
  <g id="axes_1">
   <g id="patch_2">
    <path d="M 37.7 273.312 
L 394.82 273.312 
L 394.82 7.2 
L 37.7 7.2 
z
" style="fill:#ffffff;"/>
   </g>
   <g id="matplotlib.axis_1">
    <g id="xtick_1">
     <g id="line2d_1">
      <defs>
       <path d="M 0 0 
L 0 3.5 
" id="me7cb0a28e4" style="stroke:#000000;stroke-width:0.8;"/>
      </defs>
      <g>
       <use style="stroke:#000000;stroke-width:0.8;" x="53.932727" xlink:href="#me7cb0a28e4" y="273.312"/>
      </g>
     </g>
     <g id="text_1">
      <!-- 0 -->
      <defs>
       <path d="M 31.78125 66.40625 
Q 24.171875 66.40625 20.328125 58.90625 
Q 16.5 51.421875 16.5 36.375 
Q 16.5 21.390625 20.328125 13.890625 
Q 24.171875 6.390625 31.78125 6.390625 
Q 39.453125 6.390625 43.28125 13.890625 
Q 47.125 21.390625 47.125 36.375 
Q 47.125 51.421875 43.28125 58.90625 
Q 39.453125 66.40625 31.78125 66.40625 
z
M 31.78125 74.21875 
Q 44.046875 74.21875 50.515625 64.515625 
Q 56.984375 54.828125 56.984375 36.375 
Q 56.984375 17.96875 50.515625 8.265625 
Q 44.046875 -1.421875 31.78125 -1.421875 
Q 19.53125 -1.421875 13.0625 8.265625 
Q 6.59375 17.96875 6.59375 36.375 
Q 6.59375 54.828125 13.0625 64.515625 
Q 19.53125 74.21875 31.78125 74.21875 
z
" id="DejaVuSans-48"/>
      </defs>
      <g transform="translate(50.751477 287.910437)scale(0.1 -0.1)">
       <use xlink:href="#DejaVuSans-48"/>
      </g>
     </g>
    </g>
    <g id="xtick_2">
     <g id="line2d_2">
      <g>
       <use style="stroke:#000000;stroke-width:0.8;" x="129.786593" xlink:href="#me7cb0a28e4" y="273.312"/>
      </g>
     </g>
     <g id="text_2">
      <!-- 50 -->
      <defs>
       <path d="M 10.796875 72.90625 
L 49.515625 72.90625 
L 49.515625 64.59375 
L 19.828125 64.59375 
L 19.828125 46.734375 
Q 21.96875 47.46875 24.109375 47.828125 
Q 26.265625 48.1875 28.421875 48.1875 
Q 40.625 48.1875 47.75 41.5 
Q 54.890625 34.8125 54.890625 23.390625 
Q 54.890625 11.625 47.5625 5.09375 
Q 40.234375 -1.421875 26.90625 -1.421875 
Q 22.3125 -1.421875 17.546875 -0.640625 
Q 12.796875 0.140625 7.71875 1.703125 
L 7.71875 11.625 
Q 12.109375 9.234375 16.796875 8.0625 
Q 21.484375 6.890625 26.703125 6.890625 
Q 35.15625 6.890625 40.078125 11.328125 
Q 45.015625 15.765625 45.015625 23.390625 
Q 45.015625 31 40.078125 35.4375 
Q 35.15625 39.890625 26.703125 39.890625 
Q 22.75 39.890625 18.8125 39.015625 
Q 14.890625 38.140625 10.796875 36.28125 
z
" id="DejaVuSans-53"/>
      </defs>
      <g transform="translate(123.424093 287.910437)scale(0.1 -0.1)">
       <use xlink:href="#DejaVuSans-53"/>
       <use x="63.623047" xlink:href="#DejaVuSans-48"/>
      </g>
     </g>
    </g>
    <g id="xtick_3">
     <g id="line2d_3">
      <g>
       <use style="stroke:#000000;stroke-width:0.8;" x="205.640459" xlink:href="#me7cb0a28e4" y="273.312"/>
      </g>
     </g>
     <g id="text_3">
      <!-- 100 -->
      <defs>
       <path d="M 12.40625 8.296875 
L 28.515625 8.296875 
L 28.515625 63.921875 
L 10.984375 60.40625 
L 10.984375 69.390625 
L 28.421875 72.90625 
L 38.28125 72.90625 
L 38.28125 8.296875 
L 54.390625 8.296875 
L 54.390625 0 
L 12.40625 0 
z
" id="DejaVuSans-49"/>
      </defs>
      <g transform="translate(196.096709 287.910437)scale(0.1 -0.1)">
       <use xlink:href="#DejaVuSans-49"/>
       <use x="63.623047" xlink:href="#DejaVuSans-48"/>
       <use x="127.246094" xlink:href="#DejaVuSans-48"/>
      </g>
     </g>
    </g>
    <g id="xtick_4">
     <g id="line2d_4">
      <g>
       <use style="stroke:#000000;stroke-width:0.8;" x="281.494325" xlink:href="#me7cb0a28e4" y="273.312"/>
      </g>
     </g>
     <g id="text_4">
      <!-- 150 -->
      <g transform="translate(271.950575 287.910437)scale(0.1 -0.1)">
       <use xlink:href="#DejaVuSans-49"/>
       <use x="63.623047" xlink:href="#DejaVuSans-53"/>
       <use x="127.246094" xlink:href="#DejaVuSans-48"/>
      </g>
     </g>
    </g>
    <g id="xtick_5">
     <g id="line2d_5">
      <g>
       <use style="stroke:#000000;stroke-width:0.8;" x="357.34819" xlink:href="#me7cb0a28e4" y="273.312"/>
      </g>
     </g>
     <g id="text_5">
      <!-- 200 -->
      <defs>
       <path d="M 19.1875 8.296875 
L 53.609375 8.296875 
L 53.609375 0 
L 7.328125 0 
L 7.328125 8.296875 
Q 12.9375 14.109375 22.625 23.890625 
Q 32.328125 33.6875 34.8125 36.53125 
Q 39.546875 41.84375 41.421875 45.53125 
Q 43.3125 49.21875 43.3125 52.78125 
Q 43.3125 58.59375 39.234375 62.25 
Q 35.15625 65.921875 28.609375 65.921875 
Q 23.96875 65.921875 18.8125 64.3125 
Q 13.671875 62.703125 7.8125 59.421875 
L 7.8125 69.390625 
Q 13.765625 71.78125 18.9375 73 
Q 24.125 74.21875 28.421875 74.21875 
Q 39.75 74.21875 46.484375 68.546875 
Q 53.21875 62.890625 53.21875 53.421875 
Q 53.21875 48.921875 51.53125 44.890625 
Q 49.859375 40.875 45.40625 35.40625 
Q 44.1875 33.984375 37.640625 27.21875 
Q 31.109375 20.453125 19.1875 8.296875 
z
" id="DejaVuSans-50"/>
      </defs>
      <g transform="translate(347.80444 287.910437)scale(0.1 -0.1)">
       <use xlink:href="#DejaVuSans-50"/>
       <use x="63.623047" xlink:href="#DejaVuSans-48"/>
       <use x="127.246094" xlink:href="#DejaVuSans-48"/>
      </g>
     </g>
    </g>
    <g id="text_6">
     <!-- $ k $ -->
     <defs>
      <path d="M 18.3125 75.984375 
L 27.296875 75.984375 
L 18.703125 31.6875 
L 49.515625 54.6875 
L 61.1875 54.6875 
L 26.8125 28.515625 
L 51.90625 0 
L 41.015625 0 
L 17.671875 26.703125 
L 12.5 0 
L 3.515625 0 
z
" id="DejaVuSans-Oblique-107"/>
     </defs>
     <g transform="translate(213.36 301.588562)scale(0.1 -0.1)">
      <use transform="translate(0 0.015625)" xlink:href="#DejaVuSans-Oblique-107"/>
     </g>
    </g>
   </g>
   <g id="matplotlib.axis_2">
    <g id="ytick_1">
     <g id="line2d_6">
      <defs>
       <path d="M 0 0 
L -3.5 0 
" id="mfd721c3787" style="stroke:#000000;stroke-width:0.8;"/>
      </defs>
      <g>
       <use style="stroke:#000000;stroke-width:0.8;" x="37.7" xlink:href="#mfd721c3787" y="241.720515"/>
      </g>
     </g>
     <g id="text_7">
      <!-- $\mathdefault{10^{-5}}$ -->
      <defs>
       <path d="M 10.59375 35.5 
L 73.1875 35.5 
L 73.1875 27.203125 
L 10.59375 27.203125 
z
" id="DejaVuSans-8722"/>
      </defs>
      <g transform="translate(7.2 245.519734)scale(0.1 -0.1)">
       <use transform="translate(0 0.684375)" xlink:href="#DejaVuSans-49"/>
       <use transform="translate(63.623047 0.684375)" xlink:href="#DejaVuSans-48"/>
       <use transform="translate(128.203125 38.965625)scale(0.7)" xlink:href="#DejaVuSans-8722"/>
       <use transform="translate(186.855469 38.965625)scale(0.7)" xlink:href="#DejaVuSans-53"/>
      </g>
     </g>
    </g>
    <g id="ytick_2">
     <g id="line2d_7">
      <g>
       <use style="stroke:#000000;stroke-width:0.8;" x="37.7" xlink:href="#mfd721c3787" y="207.327886"/>
      </g>
     </g>
     <g id="text_8">
      <!-- $\mathdefault{10^{-4}}$ -->
      <defs>
       <path d="M 37.796875 64.3125 
L 12.890625 25.390625 
L 37.796875 25.390625 
z
M 35.203125 72.90625 
L 47.609375 72.90625 
L 47.609375 25.390625 
L 58.015625 25.390625 
L 58.015625 17.1875 
L 47.609375 17.1875 
L 47.609375 0 
L 37.796875 0 
L 37.796875 17.1875 
L 4.890625 17.1875 
L 4.890625 26.703125 
z
" id="DejaVuSans-52"/>
      </defs>
      <g transform="translate(7.2 211.127104)scale(0.1 -0.1)">
       <use transform="translate(0 0.684375)" xlink:href="#DejaVuSans-49"/>
       <use transform="translate(63.623047 0.684375)" xlink:href="#DejaVuSans-48"/>
       <use transform="translate(128.203125 38.965625)scale(0.7)" xlink:href="#DejaVuSans-8722"/>
       <use transform="translate(186.855469 38.965625)scale(0.7)" xlink:href="#DejaVuSans-52"/>
      </g>
     </g>
    </g>
    <g id="ytick_3">
     <g id="line2d_8">
      <g>
       <use style="stroke:#000000;stroke-width:0.8;" x="37.7" xlink:href="#mfd721c3787" y="172.935256"/>
      </g>
     </g>
     <g id="text_9">
      <!-- $\mathdefault{10^{-3}}$ -->
      <defs>
       <path d="M 40.578125 39.3125 
Q 47.65625 37.796875 51.625 33 
Q 55.609375 28.21875 55.609375 21.1875 
Q 55.609375 10.40625 48.1875 4.484375 
Q 40.765625 -1.421875 27.09375 -1.421875 
Q 22.515625 -1.421875 17.65625 -0.515625 
Q 12.796875 0.390625 7.625 2.203125 
L 7.625 11.71875 
Q 11.71875 9.328125 16.59375 8.109375 
Q 21.484375 6.890625 26.8125 6.890625 
Q 36.078125 6.890625 40.9375 10.546875 
Q 45.796875 14.203125 45.796875 21.1875 
Q 45.796875 27.640625 41.28125 31.265625 
Q 36.765625 34.90625 28.71875 34.90625 
L 20.21875 34.90625 
L 20.21875 43.015625 
L 29.109375 43.015625 
Q 36.375 43.015625 40.234375 45.921875 
Q 44.09375 48.828125 44.09375 54.296875 
Q 44.09375 59.90625 40.109375 62.90625 
Q 36.140625 65.921875 28.71875 65.921875 
Q 24.65625 65.921875 20.015625 65.03125 
Q 15.375 64.15625 9.8125 62.3125 
L 9.8125 71.09375 
Q 15.4375 72.65625 20.34375 73.4375 
Q 25.25 74.21875 29.59375 74.21875 
Q 40.828125 74.21875 47.359375 69.109375 
Q 53.90625 64.015625 53.90625 55.328125 
Q 53.90625 49.265625 50.4375 45.09375 
Q 46.96875 40.921875 40.578125 39.3125 
z
" id="DejaVuSans-51"/>
      </defs>
      <g transform="translate(7.2 176.734475)scale(0.1 -0.1)">
       <use transform="translate(0 0.765625)" xlink:href="#DejaVuSans-49"/>
       <use transform="translate(63.623047 0.765625)" xlink:href="#DejaVuSans-48"/>
       <use transform="translate(128.203125 39.046875)scale(0.7)" xlink:href="#DejaVuSans-8722"/>
       <use transform="translate(186.855469 39.046875)scale(0.7)" xlink:href="#DejaVuSans-51"/>
      </g>
     </g>
    </g>
    <g id="ytick_4">
     <g id="line2d_9">
      <g>
       <use style="stroke:#000000;stroke-width:0.8;" x="37.7" xlink:href="#mfd721c3787" y="138.542627"/>
      </g>
     </g>
     <g id="text_10">
      <!-- $\mathdefault{10^{-2}}$ -->
      <g transform="translate(7.2 142.341846)scale(0.1 -0.1)">
       <use transform="translate(0 0.765625)" xlink:href="#DejaVuSans-49"/>
       <use transform="translate(63.623047 0.765625)" xlink:href="#DejaVuSans-48"/>
       <use transform="translate(128.203125 39.046875)scale(0.7)" xlink:href="#DejaVuSans-8722"/>
       <use transform="translate(186.855469 39.046875)scale(0.7)" xlink:href="#DejaVuSans-50"/>
      </g>
     </g>
    </g>
    <g id="ytick_5">
     <g id="line2d_10">
      <g>
       <use style="stroke:#000000;stroke-width:0.8;" x="37.7" xlink:href="#mfd721c3787" y="104.149998"/>
      </g>
     </g>
     <g id="text_11">
      <!-- $\mathdefault{10^{-1}}$ -->
      <g transform="translate(7.2 107.949216)scale(0.1 -0.1)">
       <use transform="translate(0 0.684375)" xlink:href="#DejaVuSans-49"/>
       <use transform="translate(63.623047 0.684375)" xlink:href="#DejaVuSans-48"/>
       <use transform="translate(128.203125 38.965625)scale(0.7)" xlink:href="#DejaVuSans-8722"/>
       <use transform="translate(186.855469 38.965625)scale(0.7)" xlink:href="#DejaVuSans-49"/>
      </g>
     </g>
    </g>
    <g id="ytick_6">
     <g id="line2d_11">
      <g>
       <use style="stroke:#000000;stroke-width:0.8;" x="37.7" xlink:href="#mfd721c3787" y="69.757368"/>
      </g>
     </g>
     <g id="text_12">
      <!-- $\mathdefault{10^{0}}$ -->
      <g transform="translate(13.1 73.556587)scale(0.1 -0.1)">
       <use transform="translate(0 0.765625)" xlink:href="#DejaVuSans-49"/>
       <use transform="translate(63.623047 0.765625)" xlink:href="#DejaVuSans-48"/>
       <use transform="translate(128.203125 39.046875)scale(0.7)" xlink:href="#DejaVuSans-48"/>
      </g>
     </g>
    </g>
    <g id="ytick_7">
     <g id="line2d_12">
      <g>
       <use style="stroke:#000000;stroke-width:0.8;" x="37.7" xlink:href="#mfd721c3787" y="35.364739"/>
      </g>
     </g>
     <g id="text_13">
      <!-- $\mathdefault{10^{1}}$ -->
      <g transform="translate(13.1 39.163958)scale(0.1 -0.1)">
       <use transform="translate(0 0.684375)" xlink:href="#DejaVuSans-49"/>
       <use transform="translate(63.623047 0.684375)" xlink:href="#DejaVuSans-48"/>
       <use transform="translate(128.203125 38.965625)scale(0.7)" xlink:href="#DejaVuSans-49"/>
      </g>
     </g>
    </g>
    <g id="ytick_8">
     <g id="line2d_13">
      <defs>
       <path d="M 0 0 
L -2 0 
" id="mda0563386d" style="stroke:#000000;stroke-width:0.6;"/>
      </defs>
      <g>
       <use style="stroke:#000000;stroke-width:0.6;" x="37.7" xlink:href="#mda0563386d" y="265.759931"/>
      </g>
     </g>
    </g>
    <g id="ytick_9">
     <g id="line2d_14">
      <g>
       <use style="stroke:#000000;stroke-width:0.6;" x="37.7" xlink:href="#mda0563386d" y="259.70369"/>
      </g>
     </g>
    </g>
    <g id="ytick_10">
     <g id="line2d_15">
      <g>
       <use style="stroke:#000000;stroke-width:0.6;" x="37.7" xlink:href="#mda0563386d" y="255.406718"/>
      </g>
     </g>
    </g>
    <g id="ytick_11">
     <g id="line2d_16">
      <g>
       <use style="stroke:#000000;stroke-width:0.6;" x="37.7" xlink:href="#mda0563386d" y="252.073728"/>
      </g>
     </g>
    </g>
    <g id="ytick_12">
     <g id="line2d_17">
      <g>
       <use style="stroke:#000000;stroke-width:0.6;" x="37.7" xlink:href="#mda0563386d" y="249.350477"/>
      </g>
     </g>
    </g>
    <g id="ytick_13">
     <g id="line2d_18">
      <g>
       <use style="stroke:#000000;stroke-width:0.6;" x="37.7" xlink:href="#mda0563386d" y="247.048001"/>
      </g>
     </g>
    </g>
    <g id="ytick_14">
     <g id="line2d_19">
      <g>
       <use style="stroke:#000000;stroke-width:0.6;" x="37.7" xlink:href="#mda0563386d" y="245.053505"/>
      </g>
     </g>
    </g>
    <g id="ytick_15">
     <g id="line2d_20">
      <g>
       <use style="stroke:#000000;stroke-width:0.6;" x="37.7" xlink:href="#mda0563386d" y="243.294235"/>
      </g>
     </g>
    </g>
    <g id="ytick_16">
     <g id="line2d_21">
      <g>
       <use style="stroke:#000000;stroke-width:0.6;" x="37.7" xlink:href="#mda0563386d" y="231.367302"/>
      </g>
     </g>
    </g>
    <g id="ytick_17">
     <g id="line2d_22">
      <g>
       <use style="stroke:#000000;stroke-width:0.6;" x="37.7" xlink:href="#mda0563386d" y="225.311061"/>
      </g>
     </g>
    </g>
    <g id="ytick_18">
     <g id="line2d_23">
      <g>
       <use style="stroke:#000000;stroke-width:0.6;" x="37.7" xlink:href="#mda0563386d" y="221.014089"/>
      </g>
     </g>
    </g>
    <g id="ytick_19">
     <g id="line2d_24">
      <g>
       <use style="stroke:#000000;stroke-width:0.6;" x="37.7" xlink:href="#mda0563386d" y="217.681099"/>
      </g>
     </g>
    </g>
    <g id="ytick_20">
     <g id="line2d_25">
      <g>
       <use style="stroke:#000000;stroke-width:0.6;" x="37.7" xlink:href="#mda0563386d" y="214.957847"/>
      </g>
     </g>
    </g>
    <g id="ytick_21">
     <g id="line2d_26">
      <g>
       <use style="stroke:#000000;stroke-width:0.6;" x="37.7" xlink:href="#mda0563386d" y="212.655371"/>
      </g>
     </g>
    </g>
    <g id="ytick_22">
     <g id="line2d_27">
      <g>
       <use style="stroke:#000000;stroke-width:0.6;" x="37.7" xlink:href="#mda0563386d" y="210.660876"/>
      </g>
     </g>
    </g>
    <g id="ytick_23">
     <g id="line2d_28">
      <g>
       <use style="stroke:#000000;stroke-width:0.6;" x="37.7" xlink:href="#mda0563386d" y="208.901606"/>
      </g>
     </g>
    </g>
    <g id="ytick_24">
     <g id="line2d_29">
      <g>
       <use style="stroke:#000000;stroke-width:0.6;" x="37.7" xlink:href="#mda0563386d" y="196.974673"/>
      </g>
     </g>
    </g>
    <g id="ytick_25">
     <g id="line2d_30">
      <g>
       <use style="stroke:#000000;stroke-width:0.6;" x="37.7" xlink:href="#mda0563386d" y="190.918431"/>
      </g>
     </g>
    </g>
    <g id="ytick_26">
     <g id="line2d_31">
      <g>
       <use style="stroke:#000000;stroke-width:0.6;" x="37.7" xlink:href="#mda0563386d" y="186.62146"/>
      </g>
     </g>
    </g>
    <g id="ytick_27">
     <g id="line2d_32">
      <g>
       <use style="stroke:#000000;stroke-width:0.6;" x="37.7" xlink:href="#mda0563386d" y="183.288469"/>
      </g>
     </g>
    </g>
    <g id="ytick_28">
     <g id="line2d_33">
      <g>
       <use style="stroke:#000000;stroke-width:0.6;" x="37.7" xlink:href="#mda0563386d" y="180.565218"/>
      </g>
     </g>
    </g>
    <g id="ytick_29">
     <g id="line2d_34">
      <g>
       <use style="stroke:#000000;stroke-width:0.6;" x="37.7" xlink:href="#mda0563386d" y="178.262742"/>
      </g>
     </g>
    </g>
    <g id="ytick_30">
     <g id="line2d_35">
      <g>
       <use style="stroke:#000000;stroke-width:0.6;" x="37.7" xlink:href="#mda0563386d" y="176.268246"/>
      </g>
     </g>
    </g>
    <g id="ytick_31">
     <g id="line2d_36">
      <g>
       <use style="stroke:#000000;stroke-width:0.6;" x="37.7" xlink:href="#mda0563386d" y="174.508977"/>
      </g>
     </g>
    </g>
    <g id="ytick_32">
     <g id="line2d_37">
      <g>
       <use style="stroke:#000000;stroke-width:0.6;" x="37.7" xlink:href="#mda0563386d" y="162.582043"/>
      </g>
     </g>
    </g>
    <g id="ytick_33">
     <g id="line2d_38">
      <g>
       <use style="stroke:#000000;stroke-width:0.6;" x="37.7" xlink:href="#mda0563386d" y="156.525802"/>
      </g>
     </g>
    </g>
    <g id="ytick_34">
     <g id="line2d_39">
      <g>
       <use style="stroke:#000000;stroke-width:0.6;" x="37.7" xlink:href="#mda0563386d" y="152.22883"/>
      </g>
     </g>
    </g>
    <g id="ytick_35">
     <g id="line2d_40">
      <g>
       <use style="stroke:#000000;stroke-width:0.6;" x="37.7" xlink:href="#mda0563386d" y="148.89584"/>
      </g>
     </g>
    </g>
    <g id="ytick_36">
     <g id="line2d_41">
      <g>
       <use style="stroke:#000000;stroke-width:0.6;" x="37.7" xlink:href="#mda0563386d" y="146.172589"/>
      </g>
     </g>
    </g>
    <g id="ytick_37">
     <g id="line2d_42">
      <g>
       <use style="stroke:#000000;stroke-width:0.6;" x="37.7" xlink:href="#mda0563386d" y="143.870113"/>
      </g>
     </g>
    </g>
    <g id="ytick_38">
     <g id="line2d_43">
      <g>
       <use style="stroke:#000000;stroke-width:0.6;" x="37.7" xlink:href="#mda0563386d" y="141.875617"/>
      </g>
     </g>
    </g>
    <g id="ytick_39">
     <g id="line2d_44">
      <g>
       <use style="stroke:#000000;stroke-width:0.6;" x="37.7" xlink:href="#mda0563386d" y="140.116347"/>
      </g>
     </g>
    </g>
    <g id="ytick_40">
     <g id="line2d_45">
      <g>
       <use style="stroke:#000000;stroke-width:0.6;" x="37.7" xlink:href="#mda0563386d" y="128.189414"/>
      </g>
     </g>
    </g>
    <g id="ytick_41">
     <g id="line2d_46">
      <g>
       <use style="stroke:#000000;stroke-width:0.6;" x="37.7" xlink:href="#mda0563386d" y="122.133172"/>
      </g>
     </g>
    </g>
    <g id="ytick_42">
     <g id="line2d_47">
      <g>
       <use style="stroke:#000000;stroke-width:0.6;" x="37.7" xlink:href="#mda0563386d" y="117.836201"/>
      </g>
     </g>
    </g>
    <g id="ytick_43">
     <g id="line2d_48">
      <g>
       <use style="stroke:#000000;stroke-width:0.6;" x="37.7" xlink:href="#mda0563386d" y="114.503211"/>
      </g>
     </g>
    </g>
    <g id="ytick_44">
     <g id="line2d_49">
      <g>
       <use style="stroke:#000000;stroke-width:0.6;" x="37.7" xlink:href="#mda0563386d" y="111.779959"/>
      </g>
     </g>
    </g>
    <g id="ytick_45">
     <g id="line2d_50">
      <g>
       <use style="stroke:#000000;stroke-width:0.6;" x="37.7" xlink:href="#mda0563386d" y="109.477483"/>
      </g>
     </g>
    </g>
    <g id="ytick_46">
     <g id="line2d_51">
      <g>
       <use style="stroke:#000000;stroke-width:0.6;" x="37.7" xlink:href="#mda0563386d" y="107.482988"/>
      </g>
     </g>
    </g>
    <g id="ytick_47">
     <g id="line2d_52">
      <g>
       <use style="stroke:#000000;stroke-width:0.6;" x="37.7" xlink:href="#mda0563386d" y="105.723718"/>
      </g>
     </g>
    </g>
    <g id="ytick_48">
     <g id="line2d_53">
      <g>
       <use style="stroke:#000000;stroke-width:0.6;" x="37.7" xlink:href="#mda0563386d" y="93.796785"/>
      </g>
     </g>
    </g>
    <g id="ytick_49">
     <g id="line2d_54">
      <g>
       <use style="stroke:#000000;stroke-width:0.6;" x="37.7" xlink:href="#mda0563386d" y="87.740543"/>
      </g>
     </g>
    </g>
    <g id="ytick_50">
     <g id="line2d_55">
      <g>
       <use style="stroke:#000000;stroke-width:0.6;" x="37.7" xlink:href="#mda0563386d" y="83.443571"/>
      </g>
     </g>
    </g>
    <g id="ytick_51">
     <g id="line2d_56">
      <g>
       <use style="stroke:#000000;stroke-width:0.6;" x="37.7" xlink:href="#mda0563386d" y="80.110581"/>
      </g>
     </g>
    </g>
    <g id="ytick_52">
     <g id="line2d_57">
      <g>
       <use style="stroke:#000000;stroke-width:0.6;" x="37.7" xlink:href="#mda0563386d" y="77.38733"/>
      </g>
     </g>
    </g>
    <g id="ytick_53">
     <g id="line2d_58">
      <g>
       <use style="stroke:#000000;stroke-width:0.6;" x="37.7" xlink:href="#mda0563386d" y="75.084854"/>
      </g>
     </g>
    </g>
    <g id="ytick_54">
     <g id="line2d_59">
      <g>
       <use style="stroke:#000000;stroke-width:0.6;" x="37.7" xlink:href="#mda0563386d" y="73.090358"/>
      </g>
     </g>
    </g>
    <g id="ytick_55">
     <g id="line2d_60">
      <g>
       <use style="stroke:#000000;stroke-width:0.6;" x="37.7" xlink:href="#mda0563386d" y="71.331089"/>
      </g>
     </g>
    </g>
    <g id="ytick_56">
     <g id="line2d_61">
      <g>
       <use style="stroke:#000000;stroke-width:0.6;" x="37.7" xlink:href="#mda0563386d" y="59.404155"/>
      </g>
     </g>
    </g>
    <g id="ytick_57">
     <g id="line2d_62">
      <g>
       <use style="stroke:#000000;stroke-width:0.6;" x="37.7" xlink:href="#mda0563386d" y="53.347914"/>
      </g>
     </g>
    </g>
    <g id="ytick_58">
     <g id="line2d_63">
      <g>
       <use style="stroke:#000000;stroke-width:0.6;" x="37.7" xlink:href="#mda0563386d" y="49.050942"/>
      </g>
     </g>
    </g>
    <g id="ytick_59">
     <g id="line2d_64">
      <g>
       <use style="stroke:#000000;stroke-width:0.6;" x="37.7" xlink:href="#mda0563386d" y="45.717952"/>
      </g>
     </g>
    </g>
    <g id="ytick_60">
     <g id="line2d_65">
      <g>
       <use style="stroke:#000000;stroke-width:0.6;" x="37.7" xlink:href="#mda0563386d" y="42.994701"/>
      </g>
     </g>
    </g>
    <g id="ytick_61">
     <g id="line2d_66">
      <g>
       <use style="stroke:#000000;stroke-width:0.6;" x="37.7" xlink:href="#mda0563386d" y="40.692225"/>
      </g>
     </g>
    </g>
    <g id="ytick_62">
     <g id="line2d_67">
      <g>
       <use style="stroke:#000000;stroke-width:0.6;" x="37.7" xlink:href="#mda0563386d" y="38.697729"/>
      </g>
     </g>
    </g>
    <g id="ytick_63">
     <g id="line2d_68">
      <g>
       <use style="stroke:#000000;stroke-width:0.6;" x="37.7" xlink:href="#mda0563386d" y="36.938459"/>
      </g>
     </g>
    </g>
    <g id="ytick_64">
     <g id="line2d_69">
      <g>
       <use style="stroke:#000000;stroke-width:0.6;" x="37.7" xlink:href="#mda0563386d" y="25.011526"/>
      </g>
     </g>
    </g>
    <g id="ytick_65">
     <g id="line2d_70">
      <g>
       <use style="stroke:#000000;stroke-width:0.6;" x="37.7" xlink:href="#mda0563386d" y="18.955284"/>
      </g>
     </g>
    </g>
    <g id="ytick_66">
     <g id="line2d_71">
      <g>
       <use style="stroke:#000000;stroke-width:0.6;" x="37.7" xlink:href="#mda0563386d" y="14.658313"/>
      </g>
     </g>
    </g>
    <g id="ytick_67">
     <g id="line2d_72">
      <g>
       <use style="stroke:#000000;stroke-width:0.6;" x="37.7" xlink:href="#mda0563386d" y="11.325323"/>
      </g>
     </g>
    </g>
    <g id="ytick_68">
     <g id="line2d_73">
      <g>
       <use style="stroke:#000000;stroke-width:0.6;" x="37.7" xlink:href="#mda0563386d" y="8.602071"/>
      </g>
     </g>
    </g>
   </g>
   <g id="line2d_74">
    <path clip-path="url(#p97bfc4ab2d)" d="M 53.932727 19.296 
L 55.449805 53.922227 
L 56.966882 79.667302 
L 60.001037 136.74958 
L 61.518114 161.385457 
L 63.035191 173.765263 
L 64.552268 242.206699 
L 66.069346 178.347497 
L 67.586423 190.352777 
L 69.1035 240.840642 
L 70.620578 189.372401 
L 72.137655 174.488236 
L 73.654732 203.348215 
L 75.17181 192.788249 
L 76.688887 244.919233 
L 78.205964 184.43027 
L 79.723042 169.412452 
L 81.240119 179.917425 
L 82.757196 178.2351 
L 85.791351 190.360777 
L 87.308428 180.150338 
L 88.825506 186.924483 
L 90.342583 191.823395 
L 91.85966 189.597839 
L 93.376737 187.891922 
L 94.893815 170.161461 
L 96.410892 192.057918 
L 97.927969 208.387441 
L 99.445047 189.086073 
L 100.962124 188.959955 
L 102.479201 177.25039 
L 103.996279 187.511824 
L 105.513356 170.602863 
L 107.030433 173.072678 
L 108.547511 220.125244 
L 110.064588 198.846122 
L 111.581665 179.256178 
L 113.098743 230.474069 
L 114.61582 212.393932 
L 116.132897 173.427903 
L 117.649975 176.050272 
L 119.167052 167.100307 
L 120.684129 241.357502 
L 122.201206 184.107593 
L 123.718284 192.755312 
L 125.235361 199.636236 
L 126.752438 198.750007 
L 128.269516 199.015069 
L 129.786593 176.477389 
L 131.30367 163.836909 
L 132.820748 182.422962 
L 134.337825 186.573205 
L 135.854902 197.309694 
L 137.37198 196.776864 
L 138.889057 164.178174 
L 140.406134 197.201872 
L 141.923212 198.951382 
L 143.440289 181.320698 
L 144.957366 208.325692 
L 146.474444 174.502404 
L 149.508598 216.777794 
L 151.025675 181.924087 
L 152.542753 208.225492 
L 154.05983 170.351882 
L 155.576907 178.716458 
L 157.093985 180.870744 
L 158.611062 199.934115 
L 160.128139 189.004199 
L 161.645217 240.841713 
L 163.162294 185.838694 
L 164.679371 183.826049 
L 166.196449 184.127364 
L 167.713526 181.977841 
L 169.230603 188.900042 
L 170.747681 170.584037 
L 172.264758 261.216 
L 173.781835 200.217733 
L 175.298912 196.587858 
L 176.81599 180.185671 
L 178.333067 215.849245 
L 179.850144 190.787617 
L 181.367222 168.283467 
L 184.401376 178.701297 
L 185.918454 199.289035 
L 187.435531 197.719872 
L 188.952608 191.786474 
L 190.469686 180.946712 
L 191.986763 182.41476 
L 193.50384 251.714232 
L 195.020918 183.447006 
L 196.537995 174.526599 
L 198.055072 210.512353 
L 199.57215 164.224117 
L 201.089227 177.571183 
L 202.606304 193.960725 
L 204.123381 194.902673 
L 205.640459 189.165096 
L 207.157536 196.187486 
L 208.674613 206.750061 
L 210.191691 187.057457 
L 211.708768 168.865268 
L 213.225845 193.938581 
L 214.742923 188.080462 
L 216.26 176.577449 
L 217.777077 191.199082 
L 219.294155 180.205193 
L 220.811232 189.273608 
L 222.328309 185.192245 
L 223.845387 183.123285 
L 225.362464 184.165142 
L 226.879541 198.770644 
L 228.396619 182.210056 
L 229.913696 185.898392 
L 231.430773 181.777589 
L 234.464928 211.047096 
L 235.982005 175.809123 
L 237.499082 181.02996 
L 239.01616 179.880219 
L 240.533237 172.731181 
L 242.050314 199.377974 
L 243.567392 213.380293 
L 245.084469 205.122879 
L 246.601546 206.843878 
L 248.118624 183.572366 
L 249.635701 201.069025 
L 251.152778 188.774927 
L 252.669856 174.457665 
L 254.186933 174.551003 
L 255.70401 204.400224 
L 257.221088 203.187191 
L 258.738165 176.619099 
L 260.255242 205.824935 
L 261.772319 194.955659 
L 263.289397 179.355658 
L 264.806474 197.295872 
L 266.323551 197.567058 
L 267.840629 199.007036 
L 269.357706 208.993802 
L 270.874783 224.322547 
L 272.391861 195.919368 
L 273.908938 183.777442 
L 275.426015 190.009542 
L 276.943093 183.327422 
L 278.46017 188.785531 
L 279.977247 180.522275 
L 281.494325 205.325582 
L 283.011402 170.381967 
L 284.528479 213.171864 
L 286.045556 204.382335 
L 287.562634 231.36269 
L 289.079711 189.262232 
L 290.596788 169.579498 
L 292.113866 180.048518 
L 293.630943 208.72695 
L 295.14802 176.633452 
L 296.665098 200.189976 
L 298.182175 178.112002 
L 299.699252 233.546178 
L 301.21633 180.279404 
L 302.733407 201.759717 
L 304.250484 179.645709 
L 305.767562 190.724125 
L 307.284639 179.904611 
L 308.801716 207.207789 
L 310.318794 186.415448 
L 311.835871 170.752494 
L 313.352948 186.589238 
L 314.870025 199.705228 
L 316.387103 178.404606 
L 317.90418 195.860339 
L 319.421257 188.110413 
L 320.938335 211.678768 
L 322.455412 175.173209 
L 323.972489 193.420048 
L 325.489567 163.931648 
L 328.523721 195.640239 
L 330.040799 187.17284 
L 331.557876 174.2151 
L 333.074953 196.617775 
L 334.592031 188.427261 
L 336.109108 203.504158 
L 337.626185 204.228628 
L 339.143263 213.408614 
L 340.66034 190.372376 
L 342.177417 221.187784 
L 343.694494 179.623004 
L 345.211572 199.570539 
L 346.728649 179.05051 
L 348.245726 177.938115 
L 349.762804 239.656771 
L 351.279881 185.639509 
L 352.796958 188.672964 
L 354.314036 232.772483 
L 355.831113 197.638743 
L 357.34819 173.770492 
L 358.865268 192.459239 
L 360.382345 167.140839 
L 361.899422 200.350595 
L 363.4165 186.185265 
L 364.933577 183.942351 
L 366.450654 176.789223 
L 367.967732 186.840669 
L 369.484809 182.09832 
L 371.001886 173.023006 
L 372.518963 175.223441 
L 374.036041 187.571237 
L 375.553118 182.39561 
L 375.558848 311.86825 
L 375.558848 311.86825 
" style="fill:none;stroke:#1f77b4;stroke-linecap:square;stroke-width:1.5;"/>
    <defs>
     <path d="M 0 3 
C 0.795609 3 1.55874 2.683901 2.12132 2.12132 
C 2.683901 1.55874 3 0.795609 3 0 
C 3 -0.795609 2.683901 -1.55874 2.12132 -2.12132 
C 1.55874 -2.683901 0.795609 -3 0 -3 
C -0.795609 -3 -1.55874 -2.683901 -2.12132 -2.12132 
C -2.683901 -1.55874 -3 -0.795609 -3 0 
C -3 0.795609 -2.683901 1.55874 -2.12132 2.12132 
C -1.55874 2.683901 -0.795609 3 0 3 
z
" id="m6151653d1b" style="stroke:#1f77b4;"/>
    </defs>
    <g clip-path="url(#p97bfc4ab2d)">
     <use style="fill:#1f77b4;stroke:#1f77b4;" x="53.932727" xlink:href="#m6151653d1b" y="19.296"/>
     <use style="fill:#1f77b4;stroke:#1f77b4;" x="55.449805" xlink:href="#m6151653d1b" y="53.922227"/>
     <use style="fill:#1f77b4;stroke:#1f77b4;" x="56.966882" xlink:href="#m6151653d1b" y="79.667302"/>
     <use style="fill:#1f77b4;stroke:#1f77b4;" x="58.483959" xlink:href="#m6151653d1b" y="109.149395"/>
     <use style="fill:#1f77b4;stroke:#1f77b4;" x="60.001037" xlink:href="#m6151653d1b" y="136.74958"/>
     <use style="fill:#1f77b4;stroke:#1f77b4;" x="61.518114" xlink:href="#m6151653d1b" y="161.385457"/>
     <use style="fill:#1f77b4;stroke:#1f77b4;" x="63.035191" xlink:href="#m6151653d1b" y="173.765263"/>
     <use style="fill:#1f77b4;stroke:#1f77b4;" x="64.552268" xlink:href="#m6151653d1b" y="242.206699"/>
     <use style="fill:#1f77b4;stroke:#1f77b4;" x="66.069346" xlink:href="#m6151653d1b" y="178.347497"/>
     <use style="fill:#1f77b4;stroke:#1f77b4;" x="67.586423" xlink:href="#m6151653d1b" y="190.352777"/>
     <use style="fill:#1f77b4;stroke:#1f77b4;" x="69.1035" xlink:href="#m6151653d1b" y="240.840642"/>
     <use style="fill:#1f77b4;stroke:#1f77b4;" x="70.620578" xlink:href="#m6151653d1b" y="189.372401"/>
     <use style="fill:#1f77b4;stroke:#1f77b4;" x="72.137655" xlink:href="#m6151653d1b" y="174.488236"/>
     <use style="fill:#1f77b4;stroke:#1f77b4;" x="73.654732" xlink:href="#m6151653d1b" y="203.348215"/>
     <use style="fill:#1f77b4;stroke:#1f77b4;" x="75.17181" xlink:href="#m6151653d1b" y="192.788249"/>
     <use style="fill:#1f77b4;stroke:#1f77b4;" x="76.688887" xlink:href="#m6151653d1b" y="244.919233"/>
     <use style="fill:#1f77b4;stroke:#1f77b4;" x="78.205964" xlink:href="#m6151653d1b" y="184.43027"/>
     <use style="fill:#1f77b4;stroke:#1f77b4;" x="79.723042" xlink:href="#m6151653d1b" y="169.412452"/>
     <use style="fill:#1f77b4;stroke:#1f77b4;" x="81.240119" xlink:href="#m6151653d1b" y="179.917425"/>
     <use style="fill:#1f77b4;stroke:#1f77b4;" x="82.757196" xlink:href="#m6151653d1b" y="178.2351"/>
     <use style="fill:#1f77b4;stroke:#1f77b4;" x="84.274274" xlink:href="#m6151653d1b" y="184.291794"/>
     <use style="fill:#1f77b4;stroke:#1f77b4;" x="85.791351" xlink:href="#m6151653d1b" y="190.360777"/>
     <use style="fill:#1f77b4;stroke:#1f77b4;" x="87.308428" xlink:href="#m6151653d1b" y="180.150338"/>
     <use style="fill:#1f77b4;stroke:#1f77b4;" x="88.825506" xlink:href="#m6151653d1b" y="186.924483"/>
     <use style="fill:#1f77b4;stroke:#1f77b4;" x="90.342583" xlink:href="#m6151653d1b" y="191.823395"/>
     <use style="fill:#1f77b4;stroke:#1f77b4;" x="91.85966" xlink:href="#m6151653d1b" y="189.597839"/>
     <use style="fill:#1f77b4;stroke:#1f77b4;" x="93.376737" xlink:href="#m6151653d1b" y="187.891922"/>
     <use style="fill:#1f77b4;stroke:#1f77b4;" x="94.893815" xlink:href="#m6151653d1b" y="170.161461"/>
     <use style="fill:#1f77b4;stroke:#1f77b4;" x="96.410892" xlink:href="#m6151653d1b" y="192.057918"/>
     <use style="fill:#1f77b4;stroke:#1f77b4;" x="97.927969" xlink:href="#m6151653d1b" y="208.387441"/>
     <use style="fill:#1f77b4;stroke:#1f77b4;" x="99.445047" xlink:href="#m6151653d1b" y="189.086073"/>
     <use style="fill:#1f77b4;stroke:#1f77b4;" x="100.962124" xlink:href="#m6151653d1b" y="188.959955"/>
     <use style="fill:#1f77b4;stroke:#1f77b4;" x="102.479201" xlink:href="#m6151653d1b" y="177.25039"/>
     <use style="fill:#1f77b4;stroke:#1f77b4;" x="103.996279" xlink:href="#m6151653d1b" y="187.511824"/>
     <use style="fill:#1f77b4;stroke:#1f77b4;" x="105.513356" xlink:href="#m6151653d1b" y="170.602863"/>
     <use style="fill:#1f77b4;stroke:#1f77b4;" x="107.030433" xlink:href="#m6151653d1b" y="173.072678"/>
     <use style="fill:#1f77b4;stroke:#1f77b4;" x="108.547511" xlink:href="#m6151653d1b" y="220.125244"/>
     <use style="fill:#1f77b4;stroke:#1f77b4;" x="110.064588" xlink:href="#m6151653d1b" y="198.846122"/>
     <use style="fill:#1f77b4;stroke:#1f77b4;" x="111.581665" xlink:href="#m6151653d1b" y="179.256178"/>
     <use style="fill:#1f77b4;stroke:#1f77b4;" x="113.098743" xlink:href="#m6151653d1b" y="230.474069"/>
     <use style="fill:#1f77b4;stroke:#1f77b4;" x="114.61582" xlink:href="#m6151653d1b" y="212.393932"/>
     <use style="fill:#1f77b4;stroke:#1f77b4;" x="116.132897" xlink:href="#m6151653d1b" y="173.427903"/>
     <use style="fill:#1f77b4;stroke:#1f77b4;" x="117.649975" xlink:href="#m6151653d1b" y="176.050272"/>
     <use style="fill:#1f77b4;stroke:#1f77b4;" x="119.167052" xlink:href="#m6151653d1b" y="167.100307"/>
     <use style="fill:#1f77b4;stroke:#1f77b4;" x="120.684129" xlink:href="#m6151653d1b" y="241.357502"/>
     <use style="fill:#1f77b4;stroke:#1f77b4;" x="122.201206" xlink:href="#m6151653d1b" y="184.107593"/>
     <use style="fill:#1f77b4;stroke:#1f77b4;" x="123.718284" xlink:href="#m6151653d1b" y="192.755312"/>
     <use style="fill:#1f77b4;stroke:#1f77b4;" x="125.235361" xlink:href="#m6151653d1b" y="199.636236"/>
     <use style="fill:#1f77b4;stroke:#1f77b4;" x="126.752438" xlink:href="#m6151653d1b" y="198.750007"/>
     <use style="fill:#1f77b4;stroke:#1f77b4;" x="128.269516" xlink:href="#m6151653d1b" y="199.015069"/>
     <use style="fill:#1f77b4;stroke:#1f77b4;" x="129.786593" xlink:href="#m6151653d1b" y="176.477389"/>
     <use style="fill:#1f77b4;stroke:#1f77b4;" x="131.30367" xlink:href="#m6151653d1b" y="163.836909"/>
     <use style="fill:#1f77b4;stroke:#1f77b4;" x="132.820748" xlink:href="#m6151653d1b" y="182.422962"/>
     <use style="fill:#1f77b4;stroke:#1f77b4;" x="134.337825" xlink:href="#m6151653d1b" y="186.573205"/>
     <use style="fill:#1f77b4;stroke:#1f77b4;" x="135.854902" xlink:href="#m6151653d1b" y="197.309694"/>
     <use style="fill:#1f77b4;stroke:#1f77b4;" x="137.37198" xlink:href="#m6151653d1b" y="196.776864"/>
     <use style="fill:#1f77b4;stroke:#1f77b4;" x="138.889057" xlink:href="#m6151653d1b" y="164.178174"/>
     <use style="fill:#1f77b4;stroke:#1f77b4;" x="140.406134" xlink:href="#m6151653d1b" y="197.201872"/>
     <use style="fill:#1f77b4;stroke:#1f77b4;" x="141.923212" xlink:href="#m6151653d1b" y="198.951382"/>
     <use style="fill:#1f77b4;stroke:#1f77b4;" x="143.440289" xlink:href="#m6151653d1b" y="181.320698"/>
     <use style="fill:#1f77b4;stroke:#1f77b4;" x="144.957366" xlink:href="#m6151653d1b" y="208.325692"/>
     <use style="fill:#1f77b4;stroke:#1f77b4;" x="146.474444" xlink:href="#m6151653d1b" y="174.502404"/>
     <use style="fill:#1f77b4;stroke:#1f77b4;" x="147.991521" xlink:href="#m6151653d1b" y="195.737623"/>
     <use style="fill:#1f77b4;stroke:#1f77b4;" x="149.508598" xlink:href="#m6151653d1b" y="216.777794"/>
     <use style="fill:#1f77b4;stroke:#1f77b4;" x="151.025675" xlink:href="#m6151653d1b" y="181.924087"/>
     <use style="fill:#1f77b4;stroke:#1f77b4;" x="152.542753" xlink:href="#m6151653d1b" y="208.225492"/>
     <use style="fill:#1f77b4;stroke:#1f77b4;" x="154.05983" xlink:href="#m6151653d1b" y="170.351882"/>
     <use style="fill:#1f77b4;stroke:#1f77b4;" x="155.576907" xlink:href="#m6151653d1b" y="178.716458"/>
     <use style="fill:#1f77b4;stroke:#1f77b4;" x="157.093985" xlink:href="#m6151653d1b" y="180.870744"/>
     <use style="fill:#1f77b4;stroke:#1f77b4;" x="158.611062" xlink:href="#m6151653d1b" y="199.934115"/>
     <use style="fill:#1f77b4;stroke:#1f77b4;" x="160.128139" xlink:href="#m6151653d1b" y="189.004199"/>
     <use style="fill:#1f77b4;stroke:#1f77b4;" x="161.645217" xlink:href="#m6151653d1b" y="240.841713"/>
     <use style="fill:#1f77b4;stroke:#1f77b4;" x="163.162294" xlink:href="#m6151653d1b" y="185.838694"/>
     <use style="fill:#1f77b4;stroke:#1f77b4;" x="164.679371" xlink:href="#m6151653d1b" y="183.826049"/>
     <use style="fill:#1f77b4;stroke:#1f77b4;" x="166.196449" xlink:href="#m6151653d1b" y="184.127364"/>
     <use style="fill:#1f77b4;stroke:#1f77b4;" x="167.713526" xlink:href="#m6151653d1b" y="181.977841"/>
     <use style="fill:#1f77b4;stroke:#1f77b4;" x="169.230603" xlink:href="#m6151653d1b" y="188.900042"/>
     <use style="fill:#1f77b4;stroke:#1f77b4;" x="170.747681" xlink:href="#m6151653d1b" y="170.584037"/>
     <use style="fill:#1f77b4;stroke:#1f77b4;" x="172.264758" xlink:href="#m6151653d1b" y="261.216"/>
     <use style="fill:#1f77b4;stroke:#1f77b4;" x="173.781835" xlink:href="#m6151653d1b" y="200.217733"/>
     <use style="fill:#1f77b4;stroke:#1f77b4;" x="175.298912" xlink:href="#m6151653d1b" y="196.587858"/>
     <use style="fill:#1f77b4;stroke:#1f77b4;" x="176.81599" xlink:href="#m6151653d1b" y="180.185671"/>
     <use style="fill:#1f77b4;stroke:#1f77b4;" x="178.333067" xlink:href="#m6151653d1b" y="215.849245"/>
     <use style="fill:#1f77b4;stroke:#1f77b4;" x="179.850144" xlink:href="#m6151653d1b" y="190.787617"/>
     <use style="fill:#1f77b4;stroke:#1f77b4;" x="181.367222" xlink:href="#m6151653d1b" y="168.283467"/>
     <use style="fill:#1f77b4;stroke:#1f77b4;" x="182.884299" xlink:href="#m6151653d1b" y="173.591545"/>
     <use style="fill:#1f77b4;stroke:#1f77b4;" x="184.401376" xlink:href="#m6151653d1b" y="178.701297"/>
     <use style="fill:#1f77b4;stroke:#1f77b4;" x="185.918454" xlink:href="#m6151653d1b" y="199.289035"/>
     <use style="fill:#1f77b4;stroke:#1f77b4;" x="187.435531" xlink:href="#m6151653d1b" y="197.719872"/>
     <use style="fill:#1f77b4;stroke:#1f77b4;" x="188.952608" xlink:href="#m6151653d1b" y="191.786474"/>
     <use style="fill:#1f77b4;stroke:#1f77b4;" x="190.469686" xlink:href="#m6151653d1b" y="180.946712"/>
     <use style="fill:#1f77b4;stroke:#1f77b4;" x="191.986763" xlink:href="#m6151653d1b" y="182.41476"/>
     <use style="fill:#1f77b4;stroke:#1f77b4;" x="193.50384" xlink:href="#m6151653d1b" y="251.714232"/>
     <use style="fill:#1f77b4;stroke:#1f77b4;" x="195.020918" xlink:href="#m6151653d1b" y="183.447006"/>
     <use style="fill:#1f77b4;stroke:#1f77b4;" x="196.537995" xlink:href="#m6151653d1b" y="174.526599"/>
     <use style="fill:#1f77b4;stroke:#1f77b4;" x="198.055072" xlink:href="#m6151653d1b" y="210.512353"/>
     <use style="fill:#1f77b4;stroke:#1f77b4;" x="199.57215" xlink:href="#m6151653d1b" y="164.224117"/>
     <use style="fill:#1f77b4;stroke:#1f77b4;" x="201.089227" xlink:href="#m6151653d1b" y="177.571183"/>
     <use style="fill:#1f77b4;stroke:#1f77b4;" x="202.606304" xlink:href="#m6151653d1b" y="193.960725"/>
     <use style="fill:#1f77b4;stroke:#1f77b4;" x="204.123381" xlink:href="#m6151653d1b" y="194.902673"/>
     <use style="fill:#1f77b4;stroke:#1f77b4;" x="205.640459" xlink:href="#m6151653d1b" y="189.165096"/>
     <use style="fill:#1f77b4;stroke:#1f77b4;" x="207.157536" xlink:href="#m6151653d1b" y="196.187486"/>
     <use style="fill:#1f77b4;stroke:#1f77b4;" x="208.674613" xlink:href="#m6151653d1b" y="206.750061"/>
     <use style="fill:#1f77b4;stroke:#1f77b4;" x="210.191691" xlink:href="#m6151653d1b" y="187.057457"/>
     <use style="fill:#1f77b4;stroke:#1f77b4;" x="211.708768" xlink:href="#m6151653d1b" y="168.865268"/>
     <use style="fill:#1f77b4;stroke:#1f77b4;" x="213.225845" xlink:href="#m6151653d1b" y="193.938581"/>
     <use style="fill:#1f77b4;stroke:#1f77b4;" x="214.742923" xlink:href="#m6151653d1b" y="188.080462"/>
     <use style="fill:#1f77b4;stroke:#1f77b4;" x="216.26" xlink:href="#m6151653d1b" y="176.577449"/>
     <use style="fill:#1f77b4;stroke:#1f77b4;" x="217.777077" xlink:href="#m6151653d1b" y="191.199082"/>
     <use style="fill:#1f77b4;stroke:#1f77b4;" x="219.294155" xlink:href="#m6151653d1b" y="180.205193"/>
     <use style="fill:#1f77b4;stroke:#1f77b4;" x="220.811232" xlink:href="#m6151653d1b" y="189.273608"/>
     <use style="fill:#1f77b4;stroke:#1f77b4;" x="222.328309" xlink:href="#m6151653d1b" y="185.192245"/>
     <use style="fill:#1f77b4;stroke:#1f77b4;" x="223.845387" xlink:href="#m6151653d1b" y="183.123285"/>
     <use style="fill:#1f77b4;stroke:#1f77b4;" x="225.362464" xlink:href="#m6151653d1b" y="184.165142"/>
     <use style="fill:#1f77b4;stroke:#1f77b4;" x="226.879541" xlink:href="#m6151653d1b" y="198.770644"/>
     <use style="fill:#1f77b4;stroke:#1f77b4;" x="228.396619" xlink:href="#m6151653d1b" y="182.210056"/>
     <use style="fill:#1f77b4;stroke:#1f77b4;" x="229.913696" xlink:href="#m6151653d1b" y="185.898392"/>
     <use style="fill:#1f77b4;stroke:#1f77b4;" x="231.430773" xlink:href="#m6151653d1b" y="181.777589"/>
     <use style="fill:#1f77b4;stroke:#1f77b4;" x="232.94785" xlink:href="#m6151653d1b" y="196.878278"/>
     <use style="fill:#1f77b4;stroke:#1f77b4;" x="234.464928" xlink:href="#m6151653d1b" y="211.047096"/>
     <use style="fill:#1f77b4;stroke:#1f77b4;" x="235.982005" xlink:href="#m6151653d1b" y="175.809123"/>
     <use style="fill:#1f77b4;stroke:#1f77b4;" x="237.499082" xlink:href="#m6151653d1b" y="181.02996"/>
     <use style="fill:#1f77b4;stroke:#1f77b4;" x="239.01616" xlink:href="#m6151653d1b" y="179.880219"/>
     <use style="fill:#1f77b4;stroke:#1f77b4;" x="240.533237" xlink:href="#m6151653d1b" y="172.731181"/>
     <use style="fill:#1f77b4;stroke:#1f77b4;" x="242.050314" xlink:href="#m6151653d1b" y="199.377974"/>
     <use style="fill:#1f77b4;stroke:#1f77b4;" x="243.567392" xlink:href="#m6151653d1b" y="213.380293"/>
     <use style="fill:#1f77b4;stroke:#1f77b4;" x="245.084469" xlink:href="#m6151653d1b" y="205.122879"/>
     <use style="fill:#1f77b4;stroke:#1f77b4;" x="246.601546" xlink:href="#m6151653d1b" y="206.843878"/>
     <use style="fill:#1f77b4;stroke:#1f77b4;" x="248.118624" xlink:href="#m6151653d1b" y="183.572366"/>
     <use style="fill:#1f77b4;stroke:#1f77b4;" x="249.635701" xlink:href="#m6151653d1b" y="201.069025"/>
     <use style="fill:#1f77b4;stroke:#1f77b4;" x="251.152778" xlink:href="#m6151653d1b" y="188.774927"/>
     <use style="fill:#1f77b4;stroke:#1f77b4;" x="252.669856" xlink:href="#m6151653d1b" y="174.457665"/>
     <use style="fill:#1f77b4;stroke:#1f77b4;" x="254.186933" xlink:href="#m6151653d1b" y="174.551003"/>
     <use style="fill:#1f77b4;stroke:#1f77b4;" x="255.70401" xlink:href="#m6151653d1b" y="204.400224"/>
     <use style="fill:#1f77b4;stroke:#1f77b4;" x="257.221088" xlink:href="#m6151653d1b" y="203.187191"/>
     <use style="fill:#1f77b4;stroke:#1f77b4;" x="258.738165" xlink:href="#m6151653d1b" y="176.619099"/>
     <use style="fill:#1f77b4;stroke:#1f77b4;" x="260.255242" xlink:href="#m6151653d1b" y="205.824935"/>
     <use style="fill:#1f77b4;stroke:#1f77b4;" x="261.772319" xlink:href="#m6151653d1b" y="194.955659"/>
     <use style="fill:#1f77b4;stroke:#1f77b4;" x="263.289397" xlink:href="#m6151653d1b" y="179.355658"/>
     <use style="fill:#1f77b4;stroke:#1f77b4;" x="264.806474" xlink:href="#m6151653d1b" y="197.295872"/>
     <use style="fill:#1f77b4;stroke:#1f77b4;" x="266.323551" xlink:href="#m6151653d1b" y="197.567058"/>
     <use style="fill:#1f77b4;stroke:#1f77b4;" x="267.840629" xlink:href="#m6151653d1b" y="199.007036"/>
     <use style="fill:#1f77b4;stroke:#1f77b4;" x="269.357706" xlink:href="#m6151653d1b" y="208.993802"/>
     <use style="fill:#1f77b4;stroke:#1f77b4;" x="270.874783" xlink:href="#m6151653d1b" y="224.322547"/>
     <use style="fill:#1f77b4;stroke:#1f77b4;" x="272.391861" xlink:href="#m6151653d1b" y="195.919368"/>
     <use style="fill:#1f77b4;stroke:#1f77b4;" x="273.908938" xlink:href="#m6151653d1b" y="183.777442"/>
     <use style="fill:#1f77b4;stroke:#1f77b4;" x="275.426015" xlink:href="#m6151653d1b" y="190.009542"/>
     <use style="fill:#1f77b4;stroke:#1f77b4;" x="276.943093" xlink:href="#m6151653d1b" y="183.327422"/>
     <use style="fill:#1f77b4;stroke:#1f77b4;" x="278.46017" xlink:href="#m6151653d1b" y="188.785531"/>
     <use style="fill:#1f77b4;stroke:#1f77b4;" x="279.977247" xlink:href="#m6151653d1b" y="180.522275"/>
     <use style="fill:#1f77b4;stroke:#1f77b4;" x="281.494325" xlink:href="#m6151653d1b" y="205.325582"/>
     <use style="fill:#1f77b4;stroke:#1f77b4;" x="283.011402" xlink:href="#m6151653d1b" y="170.381967"/>
     <use style="fill:#1f77b4;stroke:#1f77b4;" x="284.528479" xlink:href="#m6151653d1b" y="213.171864"/>
     <use style="fill:#1f77b4;stroke:#1f77b4;" x="286.045556" xlink:href="#m6151653d1b" y="204.382335"/>
     <use style="fill:#1f77b4;stroke:#1f77b4;" x="287.562634" xlink:href="#m6151653d1b" y="231.36269"/>
     <use style="fill:#1f77b4;stroke:#1f77b4;" x="289.079711" xlink:href="#m6151653d1b" y="189.262232"/>
     <use style="fill:#1f77b4;stroke:#1f77b4;" x="290.596788" xlink:href="#m6151653d1b" y="169.579498"/>
     <use style="fill:#1f77b4;stroke:#1f77b4;" x="292.113866" xlink:href="#m6151653d1b" y="180.048518"/>
     <use style="fill:#1f77b4;stroke:#1f77b4;" x="293.630943" xlink:href="#m6151653d1b" y="208.72695"/>
     <use style="fill:#1f77b4;stroke:#1f77b4;" x="295.14802" xlink:href="#m6151653d1b" y="176.633452"/>
     <use style="fill:#1f77b4;stroke:#1f77b4;" x="296.665098" xlink:href="#m6151653d1b" y="200.189976"/>
     <use style="fill:#1f77b4;stroke:#1f77b4;" x="298.182175" xlink:href="#m6151653d1b" y="178.112002"/>
     <use style="fill:#1f77b4;stroke:#1f77b4;" x="299.699252" xlink:href="#m6151653d1b" y="233.546178"/>
     <use style="fill:#1f77b4;stroke:#1f77b4;" x="301.21633" xlink:href="#m6151653d1b" y="180.279404"/>
     <use style="fill:#1f77b4;stroke:#1f77b4;" x="302.733407" xlink:href="#m6151653d1b" y="201.759717"/>
     <use style="fill:#1f77b4;stroke:#1f77b4;" x="304.250484" xlink:href="#m6151653d1b" y="179.645709"/>
     <use style="fill:#1f77b4;stroke:#1f77b4;" x="305.767562" xlink:href="#m6151653d1b" y="190.724125"/>
     <use style="fill:#1f77b4;stroke:#1f77b4;" x="307.284639" xlink:href="#m6151653d1b" y="179.904611"/>
     <use style="fill:#1f77b4;stroke:#1f77b4;" x="308.801716" xlink:href="#m6151653d1b" y="207.207789"/>
     <use style="fill:#1f77b4;stroke:#1f77b4;" x="310.318794" xlink:href="#m6151653d1b" y="186.415448"/>
     <use style="fill:#1f77b4;stroke:#1f77b4;" x="311.835871" xlink:href="#m6151653d1b" y="170.752494"/>
     <use style="fill:#1f77b4;stroke:#1f77b4;" x="313.352948" xlink:href="#m6151653d1b" y="186.589238"/>
     <use style="fill:#1f77b4;stroke:#1f77b4;" x="314.870025" xlink:href="#m6151653d1b" y="199.705228"/>
     <use style="fill:#1f77b4;stroke:#1f77b4;" x="316.387103" xlink:href="#m6151653d1b" y="178.404606"/>
     <use style="fill:#1f77b4;stroke:#1f77b4;" x="317.90418" xlink:href="#m6151653d1b" y="195.860339"/>
     <use style="fill:#1f77b4;stroke:#1f77b4;" x="319.421257" xlink:href="#m6151653d1b" y="188.110413"/>
     <use style="fill:#1f77b4;stroke:#1f77b4;" x="320.938335" xlink:href="#m6151653d1b" y="211.678768"/>
     <use style="fill:#1f77b4;stroke:#1f77b4;" x="322.455412" xlink:href="#m6151653d1b" y="175.173209"/>
     <use style="fill:#1f77b4;stroke:#1f77b4;" x="323.972489" xlink:href="#m6151653d1b" y="193.420048"/>
     <use style="fill:#1f77b4;stroke:#1f77b4;" x="325.489567" xlink:href="#m6151653d1b" y="163.931648"/>
     <use style="fill:#1f77b4;stroke:#1f77b4;" x="327.006644" xlink:href="#m6151653d1b" y="179.814423"/>
     <use style="fill:#1f77b4;stroke:#1f77b4;" x="328.523721" xlink:href="#m6151653d1b" y="195.640239"/>
     <use style="fill:#1f77b4;stroke:#1f77b4;" x="330.040799" xlink:href="#m6151653d1b" y="187.17284"/>
     <use style="fill:#1f77b4;stroke:#1f77b4;" x="331.557876" xlink:href="#m6151653d1b" y="174.2151"/>
     <use style="fill:#1f77b4;stroke:#1f77b4;" x="333.074953" xlink:href="#m6151653d1b" y="196.617775"/>
     <use style="fill:#1f77b4;stroke:#1f77b4;" x="334.592031" xlink:href="#m6151653d1b" y="188.427261"/>
     <use style="fill:#1f77b4;stroke:#1f77b4;" x="336.109108" xlink:href="#m6151653d1b" y="203.504158"/>
     <use style="fill:#1f77b4;stroke:#1f77b4;" x="337.626185" xlink:href="#m6151653d1b" y="204.228628"/>
     <use style="fill:#1f77b4;stroke:#1f77b4;" x="339.143263" xlink:href="#m6151653d1b" y="213.408614"/>
     <use style="fill:#1f77b4;stroke:#1f77b4;" x="340.66034" xlink:href="#m6151653d1b" y="190.372376"/>
     <use style="fill:#1f77b4;stroke:#1f77b4;" x="342.177417" xlink:href="#m6151653d1b" y="221.187784"/>
     <use style="fill:#1f77b4;stroke:#1f77b4;" x="343.694494" xlink:href="#m6151653d1b" y="179.623004"/>
     <use style="fill:#1f77b4;stroke:#1f77b4;" x="345.211572" xlink:href="#m6151653d1b" y="199.570539"/>
     <use style="fill:#1f77b4;stroke:#1f77b4;" x="346.728649" xlink:href="#m6151653d1b" y="179.05051"/>
     <use style="fill:#1f77b4;stroke:#1f77b4;" x="348.245726" xlink:href="#m6151653d1b" y="177.938115"/>
     <use style="fill:#1f77b4;stroke:#1f77b4;" x="349.762804" xlink:href="#m6151653d1b" y="239.656771"/>
     <use style="fill:#1f77b4;stroke:#1f77b4;" x="351.279881" xlink:href="#m6151653d1b" y="185.639509"/>
     <use style="fill:#1f77b4;stroke:#1f77b4;" x="352.796958" xlink:href="#m6151653d1b" y="188.672964"/>
     <use style="fill:#1f77b4;stroke:#1f77b4;" x="354.314036" xlink:href="#m6151653d1b" y="232.772483"/>
     <use style="fill:#1f77b4;stroke:#1f77b4;" x="355.831113" xlink:href="#m6151653d1b" y="197.638743"/>
     <use style="fill:#1f77b4;stroke:#1f77b4;" x="357.34819" xlink:href="#m6151653d1b" y="173.770492"/>
     <use style="fill:#1f77b4;stroke:#1f77b4;" x="358.865268" xlink:href="#m6151653d1b" y="192.459239"/>
     <use style="fill:#1f77b4;stroke:#1f77b4;" x="360.382345" xlink:href="#m6151653d1b" y="167.140839"/>
     <use style="fill:#1f77b4;stroke:#1f77b4;" x="361.899422" xlink:href="#m6151653d1b" y="200.350595"/>
     <use style="fill:#1f77b4;stroke:#1f77b4;" x="363.4165" xlink:href="#m6151653d1b" y="186.185265"/>
     <use style="fill:#1f77b4;stroke:#1f77b4;" x="364.933577" xlink:href="#m6151653d1b" y="183.942351"/>
     <use style="fill:#1f77b4;stroke:#1f77b4;" x="366.450654" xlink:href="#m6151653d1b" y="176.789223"/>
     <use style="fill:#1f77b4;stroke:#1f77b4;" x="367.967732" xlink:href="#m6151653d1b" y="186.840669"/>
     <use style="fill:#1f77b4;stroke:#1f77b4;" x="369.484809" xlink:href="#m6151653d1b" y="182.09832"/>
     <use style="fill:#1f77b4;stroke:#1f77b4;" x="371.001886" xlink:href="#m6151653d1b" y="173.023006"/>
     <use style="fill:#1f77b4;stroke:#1f77b4;" x="372.518963" xlink:href="#m6151653d1b" y="175.223441"/>
     <use style="fill:#1f77b4;stroke:#1f77b4;" x="374.036041" xlink:href="#m6151653d1b" y="187.571237"/>
     <use style="fill:#1f77b4;stroke:#1f77b4;" x="375.553118" xlink:href="#m6151653d1b" y="182.39561"/>
     <use style="fill:#1f77b4;stroke:#1f77b4;" x="376.535639" xlink:href="#m6151653d1b" y="22383.514"/>
    </g>
   </g>
   <g id="line2d_75">
    <path clip-path="url(#p97bfc4ab2d)" d="M 55.449805 53.922227 
L 56.966882 79.667302 
L 58.483959 109.149395 
L 60.001037 136.74958 
L 61.518114 161.385457 
" style="fill:none;stroke:#2ca02c;stroke-dasharray:1.5,2.475;stroke-dashoffset:0;stroke-width:1.5;"/>
    <defs>
     <path d="M -3 3 
L 3 -3 
M -3 -3 
L 3 3 
" id="mc71a91ea46" style="stroke:#2ca02c;"/>
    </defs>
    <g clip-path="url(#p97bfc4ab2d)">
     <use style="fill:#2ca02c;stroke:#2ca02c;" x="55.449805" xlink:href="#mc71a91ea46" y="53.922227"/>
     <use style="fill:#2ca02c;stroke:#2ca02c;" x="56.966882" xlink:href="#mc71a91ea46" y="79.667302"/>
     <use style="fill:#2ca02c;stroke:#2ca02c;" x="58.483959" xlink:href="#mc71a91ea46" y="109.149395"/>
     <use style="fill:#2ca02c;stroke:#2ca02c;" x="60.001037" xlink:href="#mc71a91ea46" y="136.74958"/>
     <use style="fill:#2ca02c;stroke:#2ca02c;" x="61.518114" xlink:href="#mc71a91ea46" y="161.385457"/>
    </g>
   </g>
   <g id="line2d_76">
    <path clip-path="url(#p97bfc4ab2d)" d="M 55.449805 96.958242 
L 67.436004 311.86825 
L 67.436004 311.86825 
" style="fill:none;stroke:#000000;stroke-dasharray:5.55,2.4;stroke-dashoffset:0;stroke-width:1.5;"/>
   </g>
   <g id="patch_3">
    <path d="M 37.7 273.312 
L 37.7 7.2 
" style="fill:none;stroke:#000000;stroke-linecap:square;stroke-linejoin:miter;stroke-width:0.8;"/>
   </g>
   <g id="patch_4">
    <path d="M 394.82 273.312 
L 394.82 7.2 
" style="fill:none;stroke:#000000;stroke-linecap:square;stroke-linejoin:miter;stroke-width:0.8;"/>
   </g>
   <g id="patch_5">
    <path d="M 37.7 273.312 
L 394.82 273.312 
" style="fill:none;stroke:#000000;stroke-linecap:square;stroke-linejoin:miter;stroke-width:0.8;"/>
   </g>
   <g id="patch_6">
    <path d="M 37.7 7.2 
L 394.82 7.2 
" style="fill:none;stroke:#000000;stroke-linecap:square;stroke-linejoin:miter;stroke-width:0.8;"/>
   </g>
   <g id="legend_1">
    <g id="patch_7">
     <path d="M 287.02 59.25625 
L 387.82 59.25625 
Q 389.82 59.25625 389.82 57.25625 
L 389.82 14.2 
Q 389.82 12.2 387.82 12.2 
L 287.02 12.2 
Q 285.02 12.2 285.02 14.2 
L 285.02 57.25625 
Q 285.02 59.25625 287.02 59.25625 
z
" style="fill:#ffffff;opacity:0.8;"/>
    </g>
    <g id="line2d_77">
     <path d="M 289.02 20.298437 
L 309.02 20.298437 
" style="fill:none;stroke:#1f77b4;stroke-linecap:square;stroke-width:1.5;"/>
    </g>
    <g id="line2d_78">
     <g>
      <use style="fill:#1f77b4;stroke:#1f77b4;" x="299.02" xlink:href="#m6151653d1b" y="20.298437"/>
     </g>
    </g>
    <g id="text_14">
     <!-- APD$_n$ - APD$_\infty$ -->
     <defs>
      <path d="M 34.1875 63.1875 
L 20.796875 26.90625 
L 47.609375 26.90625 
z
M 28.609375 72.90625 
L 39.796875 72.90625 
L 67.578125 0 
L 57.328125 0 
L 50.6875 18.703125 
L 17.828125 18.703125 
L 11.1875 0 
L 0.78125 0 
z
" id="DejaVuSans-65"/>
      <path d="M 19.671875 64.796875 
L 19.671875 37.40625 
L 32.078125 37.40625 
Q 38.96875 37.40625 42.71875 40.96875 
Q 46.484375 44.53125 46.484375 51.125 
Q 46.484375 57.671875 42.71875 61.234375 
Q 38.96875 64.796875 32.078125 64.796875 
z
M 9.8125 72.90625 
L 32.078125 72.90625 
Q 44.34375 72.90625 50.609375 67.359375 
Q 56.890625 61.8125 56.890625 51.125 
Q 56.890625 40.328125 50.609375 34.8125 
Q 44.34375 29.296875 32.078125 29.296875 
L 19.671875 29.296875 
L 19.671875 0 
L 9.8125 0 
z
" id="DejaVuSans-80"/>
      <path d="M 19.671875 64.796875 
L 19.671875 8.109375 
L 31.59375 8.109375 
Q 46.6875 8.109375 53.6875 14.9375 
Q 60.6875 21.78125 60.6875 36.53125 
Q 60.6875 51.171875 53.6875 57.984375 
Q 46.6875 64.796875 31.59375 64.796875 
z
M 9.8125 72.90625 
L 30.078125 72.90625 
Q 51.265625 72.90625 61.171875 64.09375 
Q 71.09375 55.28125 71.09375 36.53125 
Q 71.09375 17.671875 61.125 8.828125 
Q 51.171875 0 30.078125 0 
L 9.8125 0 
z
" id="DejaVuSans-68"/>
      <path d="M 55.71875 33.015625 
L 49.3125 0 
L 40.28125 0 
L 46.6875 32.671875 
Q 47.125 34.96875 47.359375 36.71875 
Q 47.609375 38.484375 47.609375 39.5 
Q 47.609375 43.609375 45.015625 45.890625 
Q 42.4375 48.1875 37.796875 48.1875 
Q 30.5625 48.1875 25.34375 43.375 
Q 20.125 38.578125 18.5 30.328125 
L 12.5 0 
L 3.515625 0 
L 14.109375 54.6875 
L 23.09375 54.6875 
L 21.296875 46.09375 
Q 25.046875 50.828125 30.3125 53.40625 
Q 35.59375 56 41.40625 56 
Q 48.640625 56 52.609375 52.09375 
Q 56.59375 48.1875 56.59375 41.109375 
Q 56.59375 39.359375 56.375 37.359375 
Q 56.15625 35.359375 55.71875 33.015625 
z
" id="DejaVuSans-Oblique-110"/>
      <path id="DejaVuSans-32"/>
      <path d="M 4.890625 31.390625 
L 31.203125 31.390625 
L 31.203125 23.390625 
L 4.890625 23.390625 
z
" id="DejaVuSans-45"/>
      <path d="M 45.5625 17.046875 
Q 44.046875 18.796875 41.65625 22.90625 
Q 38.375 17.046875 35.5 14.453125 
Q 31.890625 11.328125 26.265625 11.328125 
Q 19.671875 11.328125 15.328125 16.265625 
Q 10.75 21.4375 10.75 29.984375 
Q 10.75 38.1875 15.328125 43.75 
Q 19.4375 48.6875 26.375 48.6875 
Q 29.9375 48.6875 32.5625 47.21875 
Q 35.640625 45.609375 37.75 42.828125 
Q 39.703125 40.328125 41.65625 36.96875 
Q 44.921875 42.828125 47.796875 45.40625 
Q 51.421875 48.53125 57.03125 48.53125 
Q 63.625 48.53125 67.96875 43.609375 
Q 72.5625 38.421875 72.5625 29.890625 
Q 72.5625 21.6875 67.96875 16.109375 
Q 63.875 11.1875 56.9375 11.1875 
Q 53.375 11.1875 50.734375 12.640625 
Q 48.09375 13.96875 45.5625 17.046875 
z
M 25.734375 17.71875 
Q 33.796875 17.71875 38.625 29.4375 
Q 32.421875 42.234375 25.734375 42.234375 
Q 20.84375 42.234375 18.359375 38.71875 
Q 15.671875 34.96875 15.671875 29.984375 
Q 15.671875 24.515625 18.359375 21.140625 
Q 21.09375 17.71875 25.734375 17.71875 
z
M 57.5625 42.140625 
Q 50.296875 42.140625 44.671875 30.421875 
Q 50.828125 17.625 57.5625 17.625 
Q 62.453125 17.625 64.9375 21.140625 
Q 67.625 24.90625 67.625 29.890625 
Q 67.625 35.359375 64.9375 38.71875 
Q 62.203125 42.140625 57.5625 42.140625 
z
" id="DejaVuSans-8734"/>
     </defs>
     <g transform="translate(317.02 23.798437)scale(0.1 -0.1)">
      <use transform="translate(0 0.09375)" xlink:href="#DejaVuSans-65"/>
      <use transform="translate(68.408203 0.09375)" xlink:href="#DejaVuSans-80"/>
      <use transform="translate(128.710938 0.09375)" xlink:href="#DejaVuSans-68"/>
      <use transform="translate(206.669922 -16.3125)scale(0.7)" xlink:href="#DejaVuSans-Oblique-110"/>
      <use transform="translate(253.769531 0.09375)" xlink:href="#DejaVuSans-32"/>
      <use transform="translate(285.556641 0.09375)" xlink:href="#DejaVuSans-45"/>
      <use transform="translate(321.640625 0.09375)" xlink:href="#DejaVuSans-32"/>
      <use transform="translate(353.427734 0.09375)" xlink:href="#DejaVuSans-65"/>
      <use transform="translate(421.835938 0.09375)" xlink:href="#DejaVuSans-80"/>
      <use transform="translate(482.138672 0.09375)" xlink:href="#DejaVuSans-68"/>
      <use transform="translate(560.097656 -16.3125)scale(0.7)" xlink:href="#DejaVuSans-8734"/>
     </g>
    </g>
    <g id="line2d_79">
     <path d="M 289.02 34.976562 
L 309.02 34.976562 
" style="fill:none;stroke:#2ca02c;stroke-dasharray:1.5,2.475;stroke-dashoffset:0;stroke-width:1.5;"/>
    </g>
    <g id="line2d_80">
     <g>
      <use style="fill:#2ca02c;stroke:#2ca02c;" x="299.02" xlink:href="#mc71a91ea46" y="34.976562"/>
     </g>
    </g>
    <g id="text_15">
     <!-- linear region -->
     <defs>
      <path d="M 9.421875 75.984375 
L 18.40625 75.984375 
L 18.40625 0 
L 9.421875 0 
z
" id="DejaVuSans-108"/>
      <path d="M 9.421875 54.6875 
L 18.40625 54.6875 
L 18.40625 0 
L 9.421875 0 
z
M 9.421875 75.984375 
L 18.40625 75.984375 
L 18.40625 64.59375 
L 9.421875 64.59375 
z
" id="DejaVuSans-105"/>
      <path d="M 54.890625 33.015625 
L 54.890625 0 
L 45.90625 0 
L 45.90625 32.71875 
Q 45.90625 40.484375 42.875 44.328125 
Q 39.84375 48.1875 33.796875 48.1875 
Q 26.515625 48.1875 22.3125 43.546875 
Q 18.109375 38.921875 18.109375 30.90625 
L 18.109375 0 
L 9.078125 0 
L 9.078125 54.6875 
L 18.109375 54.6875 
L 18.109375 46.1875 
Q 21.34375 51.125 25.703125 53.5625 
Q 30.078125 56 35.796875 56 
Q 45.21875 56 50.046875 50.171875 
Q 54.890625 44.34375 54.890625 33.015625 
z
" id="DejaVuSans-110"/>
      <path d="M 56.203125 29.59375 
L 56.203125 25.203125 
L 14.890625 25.203125 
Q 15.484375 15.921875 20.484375 11.0625 
Q 25.484375 6.203125 34.421875 6.203125 
Q 39.59375 6.203125 44.453125 7.46875 
Q 49.3125 8.734375 54.109375 11.28125 
L 54.109375 2.78125 
Q 49.265625 0.734375 44.1875 -0.34375 
Q 39.109375 -1.421875 33.890625 -1.421875 
Q 20.796875 -1.421875 13.15625 6.1875 
Q 5.515625 13.8125 5.515625 26.8125 
Q 5.515625 40.234375 12.765625 48.109375 
Q 20.015625 56 32.328125 56 
Q 43.359375 56 49.78125 48.890625 
Q 56.203125 41.796875 56.203125 29.59375 
z
M 47.21875 32.234375 
Q 47.125 39.59375 43.09375 43.984375 
Q 39.0625 48.390625 32.421875 48.390625 
Q 24.90625 48.390625 20.390625 44.140625 
Q 15.875 39.890625 15.1875 32.171875 
z
" id="DejaVuSans-101"/>
      <path d="M 34.28125 27.484375 
Q 23.390625 27.484375 19.1875 25 
Q 14.984375 22.515625 14.984375 16.5 
Q 14.984375 11.71875 18.140625 8.90625 
Q 21.296875 6.109375 26.703125 6.109375 
Q 34.1875 6.109375 38.703125 11.40625 
Q 43.21875 16.703125 43.21875 25.484375 
L 43.21875 27.484375 
z
M 52.203125 31.203125 
L 52.203125 0 
L 43.21875 0 
L 43.21875 8.296875 
Q 40.140625 3.328125 35.546875 0.953125 
Q 30.953125 -1.421875 24.3125 -1.421875 
Q 15.921875 -1.421875 10.953125 3.296875 
Q 6 8.015625 6 15.921875 
Q 6 25.140625 12.171875 29.828125 
Q 18.359375 34.515625 30.609375 34.515625 
L 43.21875 34.515625 
L 43.21875 35.40625 
Q 43.21875 41.609375 39.140625 45 
Q 35.0625 48.390625 27.6875 48.390625 
Q 23 48.390625 18.546875 47.265625 
Q 14.109375 46.140625 10.015625 43.890625 
L 10.015625 52.203125 
Q 14.9375 54.109375 19.578125 55.046875 
Q 24.21875 56 28.609375 56 
Q 40.484375 56 46.34375 49.84375 
Q 52.203125 43.703125 52.203125 31.203125 
z
" id="DejaVuSans-97"/>
      <path d="M 41.109375 46.296875 
Q 39.59375 47.171875 37.8125 47.578125 
Q 36.03125 48 33.890625 48 
Q 26.265625 48 22.1875 43.046875 
Q 18.109375 38.09375 18.109375 28.8125 
L 18.109375 0 
L 9.078125 0 
L 9.078125 54.6875 
L 18.109375 54.6875 
L 18.109375 46.1875 
Q 20.953125 51.171875 25.484375 53.578125 
Q 30.03125 56 36.53125 56 
Q 37.453125 56 38.578125 55.875 
Q 39.703125 55.765625 41.0625 55.515625 
z
" id="DejaVuSans-114"/>
      <path d="M 45.40625 27.984375 
Q 45.40625 37.75 41.375 43.109375 
Q 37.359375 48.484375 30.078125 48.484375 
Q 22.859375 48.484375 18.828125 43.109375 
Q 14.796875 37.75 14.796875 27.984375 
Q 14.796875 18.265625 18.828125 12.890625 
Q 22.859375 7.515625 30.078125 7.515625 
Q 37.359375 7.515625 41.375 12.890625 
Q 45.40625 18.265625 45.40625 27.984375 
z
M 54.390625 6.78125 
Q 54.390625 -7.171875 48.1875 -13.984375 
Q 42 -20.796875 29.203125 -20.796875 
Q 24.46875 -20.796875 20.265625 -20.09375 
Q 16.0625 -19.390625 12.109375 -17.921875 
L 12.109375 -9.1875 
Q 16.0625 -11.328125 19.921875 -12.34375 
Q 23.78125 -13.375 27.78125 -13.375 
Q 36.625 -13.375 41.015625 -8.765625 
Q 45.40625 -4.15625 45.40625 5.171875 
L 45.40625 9.625 
Q 42.625 4.78125 38.28125 2.390625 
Q 33.9375 0 27.875 0 
Q 17.828125 0 11.671875 7.65625 
Q 5.515625 15.328125 5.515625 27.984375 
Q 5.515625 40.671875 11.671875 48.328125 
Q 17.828125 56 27.875 56 
Q 33.9375 56 38.28125 53.609375 
Q 42.625 51.21875 45.40625 46.390625 
L 45.40625 54.6875 
L 54.390625 54.6875 
z
" id="DejaVuSans-103"/>
      <path d="M 30.609375 48.390625 
Q 23.390625 48.390625 19.1875 42.75 
Q 14.984375 37.109375 14.984375 27.296875 
Q 14.984375 17.484375 19.15625 11.84375 
Q 23.34375 6.203125 30.609375 6.203125 
Q 37.796875 6.203125 41.984375 11.859375 
Q 46.1875 17.53125 46.1875 27.296875 
Q 46.1875 37.015625 41.984375 42.703125 
Q 37.796875 48.390625 30.609375 48.390625 
z
M 30.609375 56 
Q 42.328125 56 49.015625 48.375 
Q 55.71875 40.765625 55.71875 27.296875 
Q 55.71875 13.875 49.015625 6.21875 
Q 42.328125 -1.421875 30.609375 -1.421875 
Q 18.84375 -1.421875 12.171875 6.21875 
Q 5.515625 13.875 5.515625 27.296875 
Q 5.515625 40.765625 12.171875 48.375 
Q 18.84375 56 30.609375 56 
z
" id="DejaVuSans-111"/>
     </defs>
     <g transform="translate(317.02 38.476562)scale(0.1 -0.1)">
      <use xlink:href="#DejaVuSans-108"/>
      <use x="27.783203" xlink:href="#DejaVuSans-105"/>
      <use x="55.566406" xlink:href="#DejaVuSans-110"/>
      <use x="118.945312" xlink:href="#DejaVuSans-101"/>
      <use x="180.46875" xlink:href="#DejaVuSans-97"/>
      <use x="241.748047" xlink:href="#DejaVuSans-114"/>
      <use x="282.861328" xlink:href="#DejaVuSans-32"/>
      <use x="314.648438" xlink:href="#DejaVuSans-114"/>
      <use x="353.511719" xlink:href="#DejaVuSans-101"/>
      <use x="415.035156" xlink:href="#DejaVuSans-103"/>
      <use x="478.511719" xlink:href="#DejaVuSans-105"/>
      <use x="506.294922" xlink:href="#DejaVuSans-111"/>
      <use x="567.476562" xlink:href="#DejaVuSans-110"/>
     </g>
    </g>
    <g id="line2d_81">
     <path d="M 289.02 49.65625 
L 309.02 49.65625 
" style="fill:none;stroke:#000000;stroke-dasharray:5.55,2.4;stroke-dashoffset:0;stroke-width:1.5;"/>
    </g>
    <g id="line2d_82"/>
    <g id="text_16">
     <!-- $ \exp(-1.821 k)$ -->
     <defs>
      <path d="M 54.890625 54.6875 
L 35.109375 28.078125 
L 55.90625 0 
L 45.3125 0 
L 29.390625 21.484375 
L 13.484375 0 
L 2.875 0 
L 24.125 28.609375 
L 4.6875 54.6875 
L 15.28125 54.6875 
L 29.78125 35.203125 
L 44.28125 54.6875 
z
" id="DejaVuSans-120"/>
      <path d="M 18.109375 8.203125 
L 18.109375 -20.796875 
L 9.078125 -20.796875 
L 9.078125 54.6875 
L 18.109375 54.6875 
L 18.109375 46.390625 
Q 20.953125 51.265625 25.265625 53.625 
Q 29.59375 56 35.59375 56 
Q 45.5625 56 51.78125 48.09375 
Q 58.015625 40.1875 58.015625 27.296875 
Q 58.015625 14.40625 51.78125 6.484375 
Q 45.5625 -1.421875 35.59375 -1.421875 
Q 29.59375 -1.421875 25.265625 0.953125 
Q 20.953125 3.328125 18.109375 8.203125 
z
M 48.6875 27.296875 
Q 48.6875 37.203125 44.609375 42.84375 
Q 40.53125 48.484375 33.40625 48.484375 
Q 26.265625 48.484375 22.1875 42.84375 
Q 18.109375 37.203125 18.109375 27.296875 
Q 18.109375 17.390625 22.1875 11.75 
Q 26.265625 6.109375 33.40625 6.109375 
Q 40.53125 6.109375 44.609375 11.75 
Q 48.6875 17.390625 48.6875 27.296875 
z
" id="DejaVuSans-112"/>
      <path d="M 31 75.875 
Q 24.46875 64.65625 21.28125 53.65625 
Q 18.109375 42.671875 18.109375 31.390625 
Q 18.109375 20.125 21.3125 9.0625 
Q 24.515625 -2 31 -13.1875 
L 23.1875 -13.1875 
Q 15.875 -1.703125 12.234375 9.375 
Q 8.59375 20.453125 8.59375 31.390625 
Q 8.59375 42.28125 12.203125 53.3125 
Q 15.828125 64.359375 23.1875 75.875 
z
" id="DejaVuSans-40"/>
      <path d="M 10.6875 12.40625 
L 21 12.40625 
L 21 0 
L 10.6875 0 
z
" id="DejaVuSans-46"/>
      <path d="M 31.78125 34.625 
Q 24.75 34.625 20.71875 30.859375 
Q 16.703125 27.09375 16.703125 20.515625 
Q 16.703125 13.921875 20.71875 10.15625 
Q 24.75 6.390625 31.78125 6.390625 
Q 38.8125 6.390625 42.859375 10.171875 
Q 46.921875 13.96875 46.921875 20.515625 
Q 46.921875 27.09375 42.890625 30.859375 
Q 38.875 34.625 31.78125 34.625 
z
M 21.921875 38.8125 
Q 15.578125 40.375 12.03125 44.71875 
Q 8.5 49.078125 8.5 55.328125 
Q 8.5 64.0625 14.71875 69.140625 
Q 20.953125 74.21875 31.78125 74.21875 
Q 42.671875 74.21875 48.875 69.140625 
Q 55.078125 64.0625 55.078125 55.328125 
Q 55.078125 49.078125 51.53125 44.71875 
Q 48 40.375 41.703125 38.8125 
Q 48.828125 37.15625 52.796875 32.3125 
Q 56.78125 27.484375 56.78125 20.515625 
Q 56.78125 9.90625 50.3125 4.234375 
Q 43.84375 -1.421875 31.78125 -1.421875 
Q 19.734375 -1.421875 13.25 4.234375 
Q 6.78125 9.90625 6.78125 20.515625 
Q 6.78125 27.484375 10.78125 32.3125 
Q 14.796875 37.15625 21.921875 38.8125 
z
M 18.3125 54.390625 
Q 18.3125 48.734375 21.84375 45.5625 
Q 25.390625 42.390625 31.78125 42.390625 
Q 38.140625 42.390625 41.71875 45.5625 
Q 45.3125 48.734375 45.3125 54.390625 
Q 45.3125 60.0625 41.71875 63.234375 
Q 38.140625 66.40625 31.78125 66.40625 
Q 25.390625 66.40625 21.84375 63.234375 
Q 18.3125 60.0625 18.3125 54.390625 
z
" id="DejaVuSans-56"/>
      <path d="M 8.015625 75.875 
L 15.828125 75.875 
Q 23.140625 64.359375 26.78125 53.3125 
Q 30.421875 42.28125 30.421875 31.390625 
Q 30.421875 20.453125 26.78125 9.375 
Q 23.140625 -1.703125 15.828125 -13.1875 
L 8.015625 -13.1875 
Q 14.5 -2 17.703125 9.0625 
Q 20.90625 20.125 20.90625 31.390625 
Q 20.90625 42.671875 17.703125 53.65625 
Q 14.5 64.65625 8.015625 75.875 
z
" id="DejaVuSans-41"/>
     </defs>
     <g transform="translate(317.02 53.15625)scale(0.1 -0.1)">
      <use transform="translate(0 0.015625)" xlink:href="#DejaVuSans-101"/>
      <use transform="translate(61.523438 0.015625)" xlink:href="#DejaVuSans-120"/>
      <use transform="translate(120.703125 0.015625)" xlink:href="#DejaVuSans-112"/>
      <use transform="translate(184.179688 0.015625)" xlink:href="#DejaVuSans-40"/>
      <use transform="translate(223.193359 0.015625)" xlink:href="#DejaVuSans-8722"/>
      <use transform="translate(306.982422 0.015625)" xlink:href="#DejaVuSans-49"/>
      <use transform="translate(370.605469 0.015625)" xlink:href="#DejaVuSans-46"/>
      <use transform="translate(399.767578 0.015625)" xlink:href="#DejaVuSans-56"/>
      <use transform="translate(463.390625 0.015625)" xlink:href="#DejaVuSans-50"/>
      <use transform="translate(527.013672 0.015625)" xlink:href="#DejaVuSans-49"/>
      <use transform="translate(590.636719 0.015625)" xlink:href="#DejaVuSans-Oblique-107"/>
      <use transform="translate(648.546875 0.015625)" xlink:href="#DejaVuSans-41"/>
     </g>
    </g>
   </g>
  </g>
 </g>
 <defs>
  <clipPath id="p97bfc4ab2d">
   <rect height="266.112" width="357.12" x="37.7" y="7.2"/>
  </clipPath>
 </defs>
</svg>
