<?xml version="1.0" encoding="utf-8" standalone="no"?>
<!DOCTYPE svg PUBLIC "-//W3C//DTD SVG 1.1//EN"
  "http://www.w3.org/Graphics/SVG/1.1/DTD/svg11.dtd">
<!-- Created with matplotlib (https://matplotlib.org/) -->
<svg height="310.86825pt" version="1.1" viewBox="0 0 402.02 310.86825" width="402.02pt" xmlns="http://www.w3.org/2000/svg" xmlns:xlink="http://www.w3.org/1999/xlink">
 <defs>
  <style type="text/css">
*{stroke-linecap:butt;stroke-linejoin:round;}
  </style>
 </defs>
 <g id="figure_1">
  <g id="patch_1">
   <path d="M 0 310.86825 
L 402.02 310.86825 
L 402.02 0 
L 0 0 
z
" style="fill:#ffffff;"/>
  </g>
  <g id="axes_1">
   <g id="patch_2">
    <path d="M 37.7 273.312 
L 394.82 273.312 
L 394.82 7.2 
L 37.7 7.2 
z
" style="fill:#ffffff;"/>
   </g>
   <g id="matplotlib.axis_1">
    <g id="xtick_1">
     <g id="line2d_1">
      <defs>
       <path d="M 0 0 
L 0 3.5 
" id="m2bae221ae5" style="stroke:#000000;stroke-width:0.8;"/>
      </defs>
      <g>
       <use style="stroke:#000000;stroke-width:0.8;" x="53.932727" xlink:href="#m2bae221ae5" y="273.312"/>
      </g>
     </g>
     <g id="text_1">
      <!-- 0 -->
      <defs>
       <path d="M 31.78125 66.40625 
Q 24.171875 66.40625 20.328125 58.90625 
Q 16.5 51.421875 16.5 36.375 
Q 16.5 21.390625 20.328125 13.890625 
Q 24.171875 6.390625 31.78125 6.390625 
Q 39.453125 6.390625 43.28125 13.890625 
Q 47.125 21.390625 47.125 36.375 
Q 47.125 51.421875 43.28125 58.90625 
Q 39.453125 66.40625 31.78125 66.40625 
z
M 31.78125 74.21875 
Q 44.046875 74.21875 50.515625 64.515625 
Q 56.984375 54.828125 56.984375 36.375 
Q 56.984375 17.96875 50.515625 8.265625 
Q 44.046875 -1.421875 31.78125 -1.421875 
Q 19.53125 -1.421875 13.0625 8.265625 
Q 6.59375 17.96875 6.59375 36.375 
Q 6.59375 54.828125 13.0625 64.515625 
Q 19.53125 74.21875 31.78125 74.21875 
z
" id="DejaVuSans-48"/>
      </defs>
      <g transform="translate(50.751477 287.910437)scale(0.1 -0.1)">
       <use xlink:href="#DejaVuSans-48"/>
      </g>
     </g>
    </g>
    <g id="xtick_2">
     <g id="line2d_2">
      <g>
       <use style="stroke:#000000;stroke-width:0.8;" x="111.292188" xlink:href="#m2bae221ae5" y="273.312"/>
      </g>
     </g>
     <g id="text_2">
      <!-- 50 -->
      <defs>
       <path d="M 10.796875 72.90625 
L 49.515625 72.90625 
L 49.515625 64.59375 
L 19.828125 64.59375 
L 19.828125 46.734375 
Q 21.96875 47.46875 24.109375 47.828125 
Q 26.265625 48.1875 28.421875 48.1875 
Q 40.625 48.1875 47.75 41.5 
Q 54.890625 34.8125 54.890625 23.390625 
Q 54.890625 11.625 47.5625 5.09375 
Q 40.234375 -1.421875 26.90625 -1.421875 
Q 22.3125 -1.421875 17.546875 -0.640625 
Q 12.796875 0.140625 7.71875 1.703125 
L 7.71875 11.625 
Q 12.109375 9.234375 16.796875 8.0625 
Q 21.484375 6.890625 26.703125 6.890625 
Q 35.15625 6.890625 40.078125 11.328125 
Q 45.015625 15.765625 45.015625 23.390625 
Q 45.015625 31 40.078125 35.4375 
Q 35.15625 39.890625 26.703125 39.890625 
Q 22.75 39.890625 18.8125 39.015625 
Q 14.890625 38.140625 10.796875 36.28125 
z
" id="DejaVuSans-53"/>
      </defs>
      <g transform="translate(104.929688 287.910437)scale(0.1 -0.1)">
       <use xlink:href="#DejaVuSans-53"/>
       <use x="63.623047" xlink:href="#DejaVuSans-48"/>
      </g>
     </g>
    </g>
    <g id="xtick_3">
     <g id="line2d_3">
      <g>
       <use style="stroke:#000000;stroke-width:0.8;" x="168.651648" xlink:href="#m2bae221ae5" y="273.312"/>
      </g>
     </g>
     <g id="text_3">
      <!-- 100 -->
      <defs>
       <path d="M 12.40625 8.296875 
L 28.515625 8.296875 
L 28.515625 63.921875 
L 10.984375 60.40625 
L 10.984375 69.390625 
L 28.421875 72.90625 
L 38.28125 72.90625 
L 38.28125 8.296875 
L 54.390625 8.296875 
L 54.390625 0 
L 12.40625 0 
z
" id="DejaVuSans-49"/>
      </defs>
      <g transform="translate(159.107898 287.910437)scale(0.1 -0.1)">
       <use xlink:href="#DejaVuSans-49"/>
       <use x="63.623047" xlink:href="#DejaVuSans-48"/>
       <use x="127.246094" xlink:href="#DejaVuSans-48"/>
      </g>
     </g>
    </g>
    <g id="xtick_4">
     <g id="line2d_4">
      <g>
       <use style="stroke:#000000;stroke-width:0.8;" x="226.011108" xlink:href="#m2bae221ae5" y="273.312"/>
      </g>
     </g>
     <g id="text_4">
      <!-- 150 -->
      <g transform="translate(216.467358 287.910437)scale(0.1 -0.1)">
       <use xlink:href="#DejaVuSans-49"/>
       <use x="63.623047" xlink:href="#DejaVuSans-53"/>
       <use x="127.246094" xlink:href="#DejaVuSans-48"/>
      </g>
     </g>
    </g>
    <g id="xtick_5">
     <g id="line2d_5">
      <g>
       <use style="stroke:#000000;stroke-width:0.8;" x="283.370569" xlink:href="#m2bae221ae5" y="273.312"/>
      </g>
     </g>
     <g id="text_5">
      <!-- 200 -->
      <defs>
       <path d="M 19.1875 8.296875 
L 53.609375 8.296875 
L 53.609375 0 
L 7.328125 0 
L 7.328125 8.296875 
Q 12.9375 14.109375 22.625 23.890625 
Q 32.328125 33.6875 34.8125 36.53125 
Q 39.546875 41.84375 41.421875 45.53125 
Q 43.3125 49.21875 43.3125 52.78125 
Q 43.3125 58.59375 39.234375 62.25 
Q 35.15625 65.921875 28.609375 65.921875 
Q 23.96875 65.921875 18.8125 64.3125 
Q 13.671875 62.703125 7.8125 59.421875 
L 7.8125 69.390625 
Q 13.765625 71.78125 18.9375 73 
Q 24.125 74.21875 28.421875 74.21875 
Q 39.75 74.21875 46.484375 68.546875 
Q 53.21875 62.890625 53.21875 53.421875 
Q 53.21875 48.921875 51.53125 44.890625 
Q 49.859375 40.875 45.40625 35.40625 
Q 44.1875 33.984375 37.640625 27.21875 
Q 31.109375 20.453125 19.1875 8.296875 
z
" id="DejaVuSans-50"/>
      </defs>
      <g transform="translate(273.826819 287.910437)scale(0.1 -0.1)">
       <use xlink:href="#DejaVuSans-50"/>
       <use x="63.623047" xlink:href="#DejaVuSans-48"/>
       <use x="127.246094" xlink:href="#DejaVuSans-48"/>
      </g>
     </g>
    </g>
    <g id="xtick_6">
     <g id="line2d_6">
      <g>
       <use style="stroke:#000000;stroke-width:0.8;" x="340.730029" xlink:href="#m2bae221ae5" y="273.312"/>
      </g>
     </g>
     <g id="text_6">
      <!-- 250 -->
      <g transform="translate(331.186279 287.910437)scale(0.1 -0.1)">
       <use xlink:href="#DejaVuSans-50"/>
       <use x="63.623047" xlink:href="#DejaVuSans-53"/>
       <use x="127.246094" xlink:href="#DejaVuSans-48"/>
      </g>
     </g>
    </g>
    <g id="text_7">
     <!-- $ k $ -->
     <defs>
      <path d="M 18.3125 75.984375 
L 27.296875 75.984375 
L 18.703125 31.6875 
L 49.515625 54.6875 
L 61.1875 54.6875 
L 26.8125 28.515625 
L 51.90625 0 
L 41.015625 0 
L 17.671875 26.703125 
L 12.5 0 
L 3.515625 0 
z
" id="DejaVuSans-Oblique-107"/>
     </defs>
     <g transform="translate(213.36 301.588562)scale(0.1 -0.1)">
      <use transform="translate(0 0.015625)" xlink:href="#DejaVuSans-Oblique-107"/>
     </g>
    </g>
   </g>
   <g id="matplotlib.axis_2">
    <g id="ytick_1">
     <g id="line2d_7">
      <defs>
       <path d="M 0 0 
L -3.5 0 
" id="mb01a51b672" style="stroke:#000000;stroke-width:0.8;"/>
      </defs>
      <g>
       <use style="stroke:#000000;stroke-width:0.8;" x="37.7" xlink:href="#mb01a51b672" y="225.294957"/>
      </g>
     </g>
     <g id="text_8">
      <!-- $\mathdefault{10^{-5}}$ -->
      <defs>
       <path d="M 10.59375 35.5 
L 73.1875 35.5 
L 73.1875 27.203125 
L 10.59375 27.203125 
z
" id="DejaVuSans-8722"/>
      </defs>
      <g transform="translate(7.2 229.094176)scale(0.1 -0.1)">
       <use transform="translate(0 0.684375)" xlink:href="#DejaVuSans-49"/>
       <use transform="translate(63.623047 0.684375)" xlink:href="#DejaVuSans-48"/>
       <use transform="translate(128.203125 38.965625)scale(0.7)" xlink:href="#DejaVuSans-8722"/>
       <use transform="translate(186.855469 38.965625)scale(0.7)" xlink:href="#DejaVuSans-53"/>
      </g>
     </g>
    </g>
    <g id="ytick_2">
     <g id="line2d_8">
      <g>
       <use style="stroke:#000000;stroke-width:0.8;" x="37.7" xlink:href="#mb01a51b672" y="167.58186"/>
      </g>
     </g>
     <g id="text_9">
      <!-- $\mathdefault{10^{-3}}$ -->
      <defs>
       <path d="M 40.578125 39.3125 
Q 47.65625 37.796875 51.625 33 
Q 55.609375 28.21875 55.609375 21.1875 
Q 55.609375 10.40625 48.1875 4.484375 
Q 40.765625 -1.421875 27.09375 -1.421875 
Q 22.515625 -1.421875 17.65625 -0.515625 
Q 12.796875 0.390625 7.625 2.203125 
L 7.625 11.71875 
Q 11.71875 9.328125 16.59375 8.109375 
Q 21.484375 6.890625 26.8125 6.890625 
Q 36.078125 6.890625 40.9375 10.546875 
Q 45.796875 14.203125 45.796875 21.1875 
Q 45.796875 27.640625 41.28125 31.265625 
Q 36.765625 34.90625 28.71875 34.90625 
L 20.21875 34.90625 
L 20.21875 43.015625 
L 29.109375 43.015625 
Q 36.375 43.015625 40.234375 45.921875 
Q 44.09375 48.828125 44.09375 54.296875 
Q 44.09375 59.90625 40.109375 62.90625 
Q 36.140625 65.921875 28.71875 65.921875 
Q 24.65625 65.921875 20.015625 65.03125 
Q 15.375 64.15625 9.8125 62.3125 
L 9.8125 71.09375 
Q 15.4375 72.65625 20.34375 73.4375 
Q 25.25 74.21875 29.59375 74.21875 
Q 40.828125 74.21875 47.359375 69.109375 
Q 53.90625 64.015625 53.90625 55.328125 
Q 53.90625 49.265625 50.4375 45.09375 
Q 46.96875 40.921875 40.578125 39.3125 
z
" id="DejaVuSans-51"/>
      </defs>
      <g transform="translate(7.2 171.381079)scale(0.1 -0.1)">
       <use transform="translate(0 0.765625)" xlink:href="#DejaVuSans-49"/>
       <use transform="translate(63.623047 0.765625)" xlink:href="#DejaVuSans-48"/>
       <use transform="translate(128.203125 39.046875)scale(0.7)" xlink:href="#DejaVuSans-8722"/>
       <use transform="translate(186.855469 39.046875)scale(0.7)" xlink:href="#DejaVuSans-51"/>
      </g>
     </g>
    </g>
    <g id="ytick_3">
     <g id="line2d_9">
      <g>
       <use style="stroke:#000000;stroke-width:0.8;" x="37.7" xlink:href="#mb01a51b672" y="109.868762"/>
      </g>
     </g>
     <g id="text_10">
      <!-- $\mathdefault{10^{-1}}$ -->
      <g transform="translate(7.2 113.667981)scale(0.1 -0.1)">
       <use transform="translate(0 0.684375)" xlink:href="#DejaVuSans-49"/>
       <use transform="translate(63.623047 0.684375)" xlink:href="#DejaVuSans-48"/>
       <use transform="translate(128.203125 38.965625)scale(0.7)" xlink:href="#DejaVuSans-8722"/>
       <use transform="translate(186.855469 38.965625)scale(0.7)" xlink:href="#DejaVuSans-49"/>
      </g>
     </g>
    </g>
    <g id="ytick_4">
     <g id="line2d_10">
      <g>
       <use style="stroke:#000000;stroke-width:0.8;" x="37.7" xlink:href="#mb01a51b672" y="52.155665"/>
      </g>
     </g>
     <g id="text_11">
      <!-- $\mathdefault{10^{1}}$ -->
      <g transform="translate(13.1 55.954884)scale(0.1 -0.1)">
       <use transform="translate(0 0.684375)" xlink:href="#DejaVuSans-49"/>
       <use transform="translate(63.623047 0.684375)" xlink:href="#DejaVuSans-48"/>
       <use transform="translate(128.203125 38.965625)scale(0.7)" xlink:href="#DejaVuSans-49"/>
      </g>
     </g>
    </g>
   </g>
   <g id="line2d_11">
    <path clip-path="url(#pcb6e067c36)" d="M 53.932727 31.634149 
L 55.079916 35.402525 
L 56.227106 19.296 
L 57.374295 44.122411 
L 69.993376 155.688961 
L 72.287755 166.575427 
L 73.434944 180.904145 
L 74.582133 178.103291 
L 75.729322 172.575485 
L 76.876511 208.084664 
L 78.023701 171.568287 
L 79.17089 188.172177 
L 80.318079 189.229491 
L 81.465268 174.403495 
L 82.612457 189.863714 
L 83.759647 179.527438 
L 84.906836 176.182986 
L 86.054025 187.924429 
L 87.201214 195.014329 
L 88.348403 174.548273 
L 89.495593 192.888104 
L 90.642782 198.857088 
L 91.789971 198.968343 
L 92.93716 197.540599 
L 94.08435 201.777165 
L 95.231539 181.803719 
L 96.378728 200.259553 
L 97.525917 182.59161 
L 98.673106 184.766428 
L 99.820296 170.588814 
L 100.967485 197.273626 
L 102.114674 199.136688 
L 103.261863 184.416586 
L 104.409052 196.97897 
L 105.556242 204.133771 
L 106.703431 179.019319 
L 107.85062 199.775981 
L 108.997809 195.230121 
L 110.144998 170.466352 
L 111.292188 185.499955 
L 112.439377 177.297399 
L 113.586566 184.547803 
L 114.733755 177.932405 
L 115.880944 197.138452 
L 117.028134 184.254227 
L 118.175323 183.634806 
L 119.322512 181.480798 
L 120.469701 195.162272 
L 121.61689 174.927643 
L 122.76408 188.466629 
L 123.911269 234.95662 
L 125.058458 195.651564 
L 126.205647 217.48037 
L 127.352836 187.504624 
L 128.500026 180.126647 
L 129.647215 190.556751 
L 130.794404 209.083806 
L 131.941593 177.378418 
L 133.088783 184.101275 
L 134.235972 175.758278 
L 135.383161 185.84855 
L 136.53035 174.679675 
L 138.824729 243.299197 
L 139.971918 188.351424 
L 141.119107 227.873716 
L 142.266296 182.930685 
L 143.413485 215.067722 
L 144.560675 188.37856 
L 145.707864 171.924706 
L 146.855053 179.767906 
L 148.002242 171.809756 
L 149.149431 184.990136 
L 150.296621 201.750741 
L 151.44381 182.552998 
L 152.590999 171.229761 
L 153.738188 180.649085 
L 154.885377 169.817595 
L 156.032567 179.041593 
L 157.179756 184.23086 
L 158.326945 179.854456 
L 159.474134 188.15755 
L 160.621323 177.130521 
L 161.768513 208.880834 
L 162.915702 186.261555 
L 164.062891 173.644882 
L 165.21008 172.143484 
L 166.35727 176.163197 
L 167.504459 185.013879 
L 168.651648 188.365111 
L 169.798837 171.72276 
L 170.946026 184.812452 
L 172.093216 180.407267 
L 173.240405 174.752008 
L 174.387594 173.110161 
L 175.534783 173.351789 
L 176.681972 181.757356 
L 177.829162 187.259169 
L 178.976351 199.310868 
L 180.12354 178.544183 
L 181.270729 188.284478 
L 182.417918 174.450301 
L 183.565108 188.750112 
L 184.712297 207.529216 
L 185.859486 173.387628 
L 187.006675 187.878373 
L 188.153864 177.794087 
L 189.301054 179.937404 
L 190.448243 189.213031 
L 191.595432 175.919011 
L 192.742621 186.896775 
L 193.88981 175.963589 
L 195.037 174.741767 
L 196.184189 185.97843 
L 197.331378 172.685717 
L 198.478567 187.110586 
L 199.625757 176.894848 
L 200.772946 195.576497 
L 201.920135 180.846768 
L 203.067324 184.142235 
L 204.214513 181.460845 
L 206.508892 194.808461 
L 208.80327 172.056369 
L 209.950459 168.140247 
L 211.097649 185.761531 
L 212.244838 180.740565 
L 213.392027 189.754654 
L 214.539216 186.247887 
L 215.686405 175.688617 
L 216.833595 187.582572 
L 217.980784 174.773987 
L 219.127973 181.447455 
L 220.275162 191.642874 
L 221.422351 178.68315 
L 222.569541 188.786647 
L 223.71673 171.509348 
L 224.863919 176.825062 
L 226.011108 169.732368 
L 227.158297 211.875109 
L 228.305487 201.925871 
L 229.452676 188.59324 
L 230.599865 183.235335 
L 231.747054 173.024714 
L 232.894243 178.838926 
L 234.041433 176.177333 
L 235.188622 172.309073 
L 236.335811 170.533647 
L 237.483 178.170908 
L 238.63019 181.959401 
L 239.777379 171.135461 
L 240.924568 184.155555 
L 242.071757 185.245357 
L 243.218946 184.80325 
L 244.366136 182.222181 
L 245.513325 195.332992 
L 246.660514 192.693727 
L 247.807703 190.695963 
L 248.954892 231.106191 
L 250.102082 181.336456 
L 251.249271 189.725392 
L 252.39646 180.112375 
L 253.543649 185.992107 
L 254.690838 173.423128 
L 255.838028 186.202722 
L 256.985217 197.477651 
L 258.132406 179.388637 
L 259.279595 192.777456 
L 260.426784 168.945144 
L 261.573974 168.913015 
L 262.721163 176.156839 
L 263.868352 176.693845 
L 265.015541 203.639605 
L 266.16273 219.218871 
L 267.30992 181.269391 
L 268.457109 178.820972 
L 269.604298 181.958139 
L 270.751487 169.468824 
L 271.898677 186.047761 
L 273.045866 200.215862 
L 274.193055 200.324311 
L 275.340244 201.855269 
L 276.487433 175.978962 
L 277.634623 183.767232 
L 278.781812 204.622865 
L 279.929001 171.143552 
L 281.07619 207.092972 
L 282.223379 212.929956 
L 283.370569 186.293181 
L 284.517758 170.909013 
L 285.664947 177.975921 
L 286.812136 186.388511 
L 289.106515 172.278191 
L 290.253704 200.292525 
L 291.400893 187.334429 
L 292.548082 177.321211 
L 293.695271 181.117619 
L 294.842461 177.202064 
L 295.98965 179.826561 
L 297.136839 169.377808 
L 298.284028 195.500942 
L 299.431217 187.036666 
L 300.578407 190.00287 
L 301.725596 176.414159 
L 302.872785 188.882975 
L 304.019974 171.466226 
L 305.167164 183.239718 
L 306.314353 176.131911 
L 307.461542 187.59983 
L 308.608731 181.294502 
L 309.75592 187.091633 
L 310.90311 207.837875 
L 312.050299 184.276583 
L 313.197488 185.191818 
L 314.344677 172.26043 
L 315.491866 179.117689 
L 316.639056 177.715954 
L 317.786245 185.324649 
L 318.933434 177.977922 
L 321.227812 178.247798 
L 322.375002 189.569668 
L 323.522191 187.111772 
L 324.66938 182.284542 
L 325.816569 178.079122 
L 326.963758 191.082192 
L 328.110948 206.737338 
L 329.258137 182.407684 
L 330.405326 183.381802 
L 331.552515 178.165178 
L 332.699704 180.826454 
L 333.846894 175.827316 
L 334.994083 178.214557 
L 336.141272 189.311506 
L 337.288461 180.531345 
L 338.43565 198.973313 
L 339.58284 222.730823 
L 340.730029 186.520306 
L 341.877218 185.942854 
L 343.024407 182.430688 
L 344.171597 179.431898 
L 345.318786 173.354157 
L 346.465975 180.827714 
L 347.613164 189.74202 
L 348.760353 185.989027 
L 349.907543 194.095197 
L 351.054732 197.467748 
L 352.201921 196.562032 
L 353.34911 226.583068 
L 354.496299 216.649101 
L 355.643489 261.216 
L 356.790678 179.137073 
L 357.937867 181.932838 
L 359.085056 185.362204 
L 360.232245 197.121463 
L 361.379435 177.548929 
L 362.526624 165.36545 
L 363.673813 175.994264 
L 364.821002 170.47393 
L 365.968191 176.791478 
L 367.115381 182.232835 
L 368.26257 183.108958 
L 369.409759 176.909593 
L 370.556948 176.599721 
L 371.704137 188.228458 
L 372.851327 178.002575 
L 373.998516 188.396381 
L 375.145705 183.722381 
L 376.292894 193.088482 
L 376.297635 311.86825 
L 376.297635 311.86825 
" style="fill:none;stroke:#1f77b4;stroke-linecap:square;stroke-width:1.5;"/>
    <defs>
     <path d="M 0 3 
C 0.795609 3 1.55874 2.683901 2.12132 2.12132 
C 2.683901 1.55874 3 0.795609 3 0 
C 3 -0.795609 2.683901 -1.55874 2.12132 -2.12132 
C 1.55874 -2.683901 0.795609 -3 0 -3 
C -0.795609 -3 -1.55874 -2.683901 -2.12132 -2.12132 
C -2.683901 -1.55874 -3 -0.795609 -3 0 
C -3 0.795609 -2.683901 1.55874 -2.12132 2.12132 
C -1.55874 2.683901 -0.795609 3 0 3 
z
" id="m84642fa2f9" style="stroke:#1f77b4;"/>
    </defs>
    <g clip-path="url(#pcb6e067c36)">
     <use style="fill:#1f77b4;stroke:#1f77b4;" x="53.932727" xlink:href="#m84642fa2f9" y="31.634149"/>
     <use style="fill:#1f77b4;stroke:#1f77b4;" x="55.079916" xlink:href="#m84642fa2f9" y="35.402525"/>
     <use style="fill:#1f77b4;stroke:#1f77b4;" x="56.227106" xlink:href="#m84642fa2f9" y="19.296"/>
     <use style="fill:#1f77b4;stroke:#1f77b4;" x="57.374295" xlink:href="#m84642fa2f9" y="44.122411"/>
     <use style="fill:#1f77b4;stroke:#1f77b4;" x="58.521484" xlink:href="#m84642fa2f9" y="54.236435"/>
     <use style="fill:#1f77b4;stroke:#1f77b4;" x="59.668673" xlink:href="#m84642fa2f9" y="63.966781"/>
     <use style="fill:#1f77b4;stroke:#1f77b4;" x="60.815863" xlink:href="#m84642fa2f9" y="74.240298"/>
     <use style="fill:#1f77b4;stroke:#1f77b4;" x="61.963052" xlink:href="#m84642fa2f9" y="84.110754"/>
     <use style="fill:#1f77b4;stroke:#1f77b4;" x="63.110241" xlink:href="#m84642fa2f9" y="94.185939"/>
     <use style="fill:#1f77b4;stroke:#1f77b4;" x="64.25743" xlink:href="#m84642fa2f9" y="104.135491"/>
     <use style="fill:#1f77b4;stroke:#1f77b4;" x="65.404619" xlink:href="#m84642fa2f9" y="114.113035"/>
     <use style="fill:#1f77b4;stroke:#1f77b4;" x="66.551809" xlink:href="#m84642fa2f9" y="124.064263"/>
     <use style="fill:#1f77b4;stroke:#1f77b4;" x="67.698998" xlink:href="#m84642fa2f9" y="134.722844"/>
     <use style="fill:#1f77b4;stroke:#1f77b4;" x="68.846187" xlink:href="#m84642fa2f9" y="144.733324"/>
     <use style="fill:#1f77b4;stroke:#1f77b4;" x="69.993376" xlink:href="#m84642fa2f9" y="155.688961"/>
     <use style="fill:#1f77b4;stroke:#1f77b4;" x="71.140565" xlink:href="#m84642fa2f9" y="161.104635"/>
     <use style="fill:#1f77b4;stroke:#1f77b4;" x="72.287755" xlink:href="#m84642fa2f9" y="166.575427"/>
     <use style="fill:#1f77b4;stroke:#1f77b4;" x="73.434944" xlink:href="#m84642fa2f9" y="180.904145"/>
     <use style="fill:#1f77b4;stroke:#1f77b4;" x="74.582133" xlink:href="#m84642fa2f9" y="178.103291"/>
     <use style="fill:#1f77b4;stroke:#1f77b4;" x="75.729322" xlink:href="#m84642fa2f9" y="172.575485"/>
     <use style="fill:#1f77b4;stroke:#1f77b4;" x="76.876511" xlink:href="#m84642fa2f9" y="208.084664"/>
     <use style="fill:#1f77b4;stroke:#1f77b4;" x="78.023701" xlink:href="#m84642fa2f9" y="171.568287"/>
     <use style="fill:#1f77b4;stroke:#1f77b4;" x="79.17089" xlink:href="#m84642fa2f9" y="188.172177"/>
     <use style="fill:#1f77b4;stroke:#1f77b4;" x="80.318079" xlink:href="#m84642fa2f9" y="189.229491"/>
     <use style="fill:#1f77b4;stroke:#1f77b4;" x="81.465268" xlink:href="#m84642fa2f9" y="174.403495"/>
     <use style="fill:#1f77b4;stroke:#1f77b4;" x="82.612457" xlink:href="#m84642fa2f9" y="189.863714"/>
     <use style="fill:#1f77b4;stroke:#1f77b4;" x="83.759647" xlink:href="#m84642fa2f9" y="179.527438"/>
     <use style="fill:#1f77b4;stroke:#1f77b4;" x="84.906836" xlink:href="#m84642fa2f9" y="176.182986"/>
     <use style="fill:#1f77b4;stroke:#1f77b4;" x="86.054025" xlink:href="#m84642fa2f9" y="187.924429"/>
     <use style="fill:#1f77b4;stroke:#1f77b4;" x="87.201214" xlink:href="#m84642fa2f9" y="195.014329"/>
     <use style="fill:#1f77b4;stroke:#1f77b4;" x="88.348403" xlink:href="#m84642fa2f9" y="174.548273"/>
     <use style="fill:#1f77b4;stroke:#1f77b4;" x="89.495593" xlink:href="#m84642fa2f9" y="192.888104"/>
     <use style="fill:#1f77b4;stroke:#1f77b4;" x="90.642782" xlink:href="#m84642fa2f9" y="198.857088"/>
     <use style="fill:#1f77b4;stroke:#1f77b4;" x="91.789971" xlink:href="#m84642fa2f9" y="198.968343"/>
     <use style="fill:#1f77b4;stroke:#1f77b4;" x="92.93716" xlink:href="#m84642fa2f9" y="197.540599"/>
     <use style="fill:#1f77b4;stroke:#1f77b4;" x="94.08435" xlink:href="#m84642fa2f9" y="201.777165"/>
     <use style="fill:#1f77b4;stroke:#1f77b4;" x="95.231539" xlink:href="#m84642fa2f9" y="181.803719"/>
     <use style="fill:#1f77b4;stroke:#1f77b4;" x="96.378728" xlink:href="#m84642fa2f9" y="200.259553"/>
     <use style="fill:#1f77b4;stroke:#1f77b4;" x="97.525917" xlink:href="#m84642fa2f9" y="182.59161"/>
     <use style="fill:#1f77b4;stroke:#1f77b4;" x="98.673106" xlink:href="#m84642fa2f9" y="184.766428"/>
     <use style="fill:#1f77b4;stroke:#1f77b4;" x="99.820296" xlink:href="#m84642fa2f9" y="170.588814"/>
     <use style="fill:#1f77b4;stroke:#1f77b4;" x="100.967485" xlink:href="#m84642fa2f9" y="197.273626"/>
     <use style="fill:#1f77b4;stroke:#1f77b4;" x="102.114674" xlink:href="#m84642fa2f9" y="199.136688"/>
     <use style="fill:#1f77b4;stroke:#1f77b4;" x="103.261863" xlink:href="#m84642fa2f9" y="184.416586"/>
     <use style="fill:#1f77b4;stroke:#1f77b4;" x="104.409052" xlink:href="#m84642fa2f9" y="196.97897"/>
     <use style="fill:#1f77b4;stroke:#1f77b4;" x="105.556242" xlink:href="#m84642fa2f9" y="204.133771"/>
     <use style="fill:#1f77b4;stroke:#1f77b4;" x="106.703431" xlink:href="#m84642fa2f9" y="179.019319"/>
     <use style="fill:#1f77b4;stroke:#1f77b4;" x="107.85062" xlink:href="#m84642fa2f9" y="199.775981"/>
     <use style="fill:#1f77b4;stroke:#1f77b4;" x="108.997809" xlink:href="#m84642fa2f9" y="195.230121"/>
     <use style="fill:#1f77b4;stroke:#1f77b4;" x="110.144998" xlink:href="#m84642fa2f9" y="170.466352"/>
     <use style="fill:#1f77b4;stroke:#1f77b4;" x="111.292188" xlink:href="#m84642fa2f9" y="185.499955"/>
     <use style="fill:#1f77b4;stroke:#1f77b4;" x="112.439377" xlink:href="#m84642fa2f9" y="177.297399"/>
     <use style="fill:#1f77b4;stroke:#1f77b4;" x="113.586566" xlink:href="#m84642fa2f9" y="184.547803"/>
     <use style="fill:#1f77b4;stroke:#1f77b4;" x="114.733755" xlink:href="#m84642fa2f9" y="177.932405"/>
     <use style="fill:#1f77b4;stroke:#1f77b4;" x="115.880944" xlink:href="#m84642fa2f9" y="197.138452"/>
     <use style="fill:#1f77b4;stroke:#1f77b4;" x="117.028134" xlink:href="#m84642fa2f9" y="184.254227"/>
     <use style="fill:#1f77b4;stroke:#1f77b4;" x="118.175323" xlink:href="#m84642fa2f9" y="183.634806"/>
     <use style="fill:#1f77b4;stroke:#1f77b4;" x="119.322512" xlink:href="#m84642fa2f9" y="181.480798"/>
     <use style="fill:#1f77b4;stroke:#1f77b4;" x="120.469701" xlink:href="#m84642fa2f9" y="195.162272"/>
     <use style="fill:#1f77b4;stroke:#1f77b4;" x="121.61689" xlink:href="#m84642fa2f9" y="174.927643"/>
     <use style="fill:#1f77b4;stroke:#1f77b4;" x="122.76408" xlink:href="#m84642fa2f9" y="188.466629"/>
     <use style="fill:#1f77b4;stroke:#1f77b4;" x="123.911269" xlink:href="#m84642fa2f9" y="234.95662"/>
     <use style="fill:#1f77b4;stroke:#1f77b4;" x="125.058458" xlink:href="#m84642fa2f9" y="195.651564"/>
     <use style="fill:#1f77b4;stroke:#1f77b4;" x="126.205647" xlink:href="#m84642fa2f9" y="217.48037"/>
     <use style="fill:#1f77b4;stroke:#1f77b4;" x="127.352836" xlink:href="#m84642fa2f9" y="187.504624"/>
     <use style="fill:#1f77b4;stroke:#1f77b4;" x="128.500026" xlink:href="#m84642fa2f9" y="180.126647"/>
     <use style="fill:#1f77b4;stroke:#1f77b4;" x="129.647215" xlink:href="#m84642fa2f9" y="190.556751"/>
     <use style="fill:#1f77b4;stroke:#1f77b4;" x="130.794404" xlink:href="#m84642fa2f9" y="209.083806"/>
     <use style="fill:#1f77b4;stroke:#1f77b4;" x="131.941593" xlink:href="#m84642fa2f9" y="177.378418"/>
     <use style="fill:#1f77b4;stroke:#1f77b4;" x="133.088783" xlink:href="#m84642fa2f9" y="184.101275"/>
     <use style="fill:#1f77b4;stroke:#1f77b4;" x="134.235972" xlink:href="#m84642fa2f9" y="175.758278"/>
     <use style="fill:#1f77b4;stroke:#1f77b4;" x="135.383161" xlink:href="#m84642fa2f9" y="185.84855"/>
     <use style="fill:#1f77b4;stroke:#1f77b4;" x="136.53035" xlink:href="#m84642fa2f9" y="174.679675"/>
     <use style="fill:#1f77b4;stroke:#1f77b4;" x="137.677539" xlink:href="#m84642fa2f9" y="208.79728"/>
     <use style="fill:#1f77b4;stroke:#1f77b4;" x="138.824729" xlink:href="#m84642fa2f9" y="243.299197"/>
     <use style="fill:#1f77b4;stroke:#1f77b4;" x="139.971918" xlink:href="#m84642fa2f9" y="188.351424"/>
     <use style="fill:#1f77b4;stroke:#1f77b4;" x="141.119107" xlink:href="#m84642fa2f9" y="227.873716"/>
     <use style="fill:#1f77b4;stroke:#1f77b4;" x="142.266296" xlink:href="#m84642fa2f9" y="182.930685"/>
     <use style="fill:#1f77b4;stroke:#1f77b4;" x="143.413485" xlink:href="#m84642fa2f9" y="215.067722"/>
     <use style="fill:#1f77b4;stroke:#1f77b4;" x="144.560675" xlink:href="#m84642fa2f9" y="188.37856"/>
     <use style="fill:#1f77b4;stroke:#1f77b4;" x="145.707864" xlink:href="#m84642fa2f9" y="171.924706"/>
     <use style="fill:#1f77b4;stroke:#1f77b4;" x="146.855053" xlink:href="#m84642fa2f9" y="179.767906"/>
     <use style="fill:#1f77b4;stroke:#1f77b4;" x="148.002242" xlink:href="#m84642fa2f9" y="171.809756"/>
     <use style="fill:#1f77b4;stroke:#1f77b4;" x="149.149431" xlink:href="#m84642fa2f9" y="184.990136"/>
     <use style="fill:#1f77b4;stroke:#1f77b4;" x="150.296621" xlink:href="#m84642fa2f9" y="201.750741"/>
     <use style="fill:#1f77b4;stroke:#1f77b4;" x="151.44381" xlink:href="#m84642fa2f9" y="182.552998"/>
     <use style="fill:#1f77b4;stroke:#1f77b4;" x="152.590999" xlink:href="#m84642fa2f9" y="171.229761"/>
     <use style="fill:#1f77b4;stroke:#1f77b4;" x="153.738188" xlink:href="#m84642fa2f9" y="180.649085"/>
     <use style="fill:#1f77b4;stroke:#1f77b4;" x="154.885377" xlink:href="#m84642fa2f9" y="169.817595"/>
     <use style="fill:#1f77b4;stroke:#1f77b4;" x="156.032567" xlink:href="#m84642fa2f9" y="179.041593"/>
     <use style="fill:#1f77b4;stroke:#1f77b4;" x="157.179756" xlink:href="#m84642fa2f9" y="184.23086"/>
     <use style="fill:#1f77b4;stroke:#1f77b4;" x="158.326945" xlink:href="#m84642fa2f9" y="179.854456"/>
     <use style="fill:#1f77b4;stroke:#1f77b4;" x="159.474134" xlink:href="#m84642fa2f9" y="188.15755"/>
     <use style="fill:#1f77b4;stroke:#1f77b4;" x="160.621323" xlink:href="#m84642fa2f9" y="177.130521"/>
     <use style="fill:#1f77b4;stroke:#1f77b4;" x="161.768513" xlink:href="#m84642fa2f9" y="208.880834"/>
     <use style="fill:#1f77b4;stroke:#1f77b4;" x="162.915702" xlink:href="#m84642fa2f9" y="186.261555"/>
     <use style="fill:#1f77b4;stroke:#1f77b4;" x="164.062891" xlink:href="#m84642fa2f9" y="173.644882"/>
     <use style="fill:#1f77b4;stroke:#1f77b4;" x="165.21008" xlink:href="#m84642fa2f9" y="172.143484"/>
     <use style="fill:#1f77b4;stroke:#1f77b4;" x="166.35727" xlink:href="#m84642fa2f9" y="176.163197"/>
     <use style="fill:#1f77b4;stroke:#1f77b4;" x="167.504459" xlink:href="#m84642fa2f9" y="185.013879"/>
     <use style="fill:#1f77b4;stroke:#1f77b4;" x="168.651648" xlink:href="#m84642fa2f9" y="188.365111"/>
     <use style="fill:#1f77b4;stroke:#1f77b4;" x="169.798837" xlink:href="#m84642fa2f9" y="171.72276"/>
     <use style="fill:#1f77b4;stroke:#1f77b4;" x="170.946026" xlink:href="#m84642fa2f9" y="184.812452"/>
     <use style="fill:#1f77b4;stroke:#1f77b4;" x="172.093216" xlink:href="#m84642fa2f9" y="180.407267"/>
     <use style="fill:#1f77b4;stroke:#1f77b4;" x="173.240405" xlink:href="#m84642fa2f9" y="174.752008"/>
     <use style="fill:#1f77b4;stroke:#1f77b4;" x="174.387594" xlink:href="#m84642fa2f9" y="173.110161"/>
     <use style="fill:#1f77b4;stroke:#1f77b4;" x="175.534783" xlink:href="#m84642fa2f9" y="173.351789"/>
     <use style="fill:#1f77b4;stroke:#1f77b4;" x="176.681972" xlink:href="#m84642fa2f9" y="181.757356"/>
     <use style="fill:#1f77b4;stroke:#1f77b4;" x="177.829162" xlink:href="#m84642fa2f9" y="187.259169"/>
     <use style="fill:#1f77b4;stroke:#1f77b4;" x="178.976351" xlink:href="#m84642fa2f9" y="199.310868"/>
     <use style="fill:#1f77b4;stroke:#1f77b4;" x="180.12354" xlink:href="#m84642fa2f9" y="178.544183"/>
     <use style="fill:#1f77b4;stroke:#1f77b4;" x="181.270729" xlink:href="#m84642fa2f9" y="188.284478"/>
     <use style="fill:#1f77b4;stroke:#1f77b4;" x="182.417918" xlink:href="#m84642fa2f9" y="174.450301"/>
     <use style="fill:#1f77b4;stroke:#1f77b4;" x="183.565108" xlink:href="#m84642fa2f9" y="188.750112"/>
     <use style="fill:#1f77b4;stroke:#1f77b4;" x="184.712297" xlink:href="#m84642fa2f9" y="207.529216"/>
     <use style="fill:#1f77b4;stroke:#1f77b4;" x="185.859486" xlink:href="#m84642fa2f9" y="173.387628"/>
     <use style="fill:#1f77b4;stroke:#1f77b4;" x="187.006675" xlink:href="#m84642fa2f9" y="187.878373"/>
     <use style="fill:#1f77b4;stroke:#1f77b4;" x="188.153864" xlink:href="#m84642fa2f9" y="177.794087"/>
     <use style="fill:#1f77b4;stroke:#1f77b4;" x="189.301054" xlink:href="#m84642fa2f9" y="179.937404"/>
     <use style="fill:#1f77b4;stroke:#1f77b4;" x="190.448243" xlink:href="#m84642fa2f9" y="189.213031"/>
     <use style="fill:#1f77b4;stroke:#1f77b4;" x="191.595432" xlink:href="#m84642fa2f9" y="175.919011"/>
     <use style="fill:#1f77b4;stroke:#1f77b4;" x="192.742621" xlink:href="#m84642fa2f9" y="186.896775"/>
     <use style="fill:#1f77b4;stroke:#1f77b4;" x="193.88981" xlink:href="#m84642fa2f9" y="175.963589"/>
     <use style="fill:#1f77b4;stroke:#1f77b4;" x="195.037" xlink:href="#m84642fa2f9" y="174.741767"/>
     <use style="fill:#1f77b4;stroke:#1f77b4;" x="196.184189" xlink:href="#m84642fa2f9" y="185.97843"/>
     <use style="fill:#1f77b4;stroke:#1f77b4;" x="197.331378" xlink:href="#m84642fa2f9" y="172.685717"/>
     <use style="fill:#1f77b4;stroke:#1f77b4;" x="198.478567" xlink:href="#m84642fa2f9" y="187.110586"/>
     <use style="fill:#1f77b4;stroke:#1f77b4;" x="199.625757" xlink:href="#m84642fa2f9" y="176.894848"/>
     <use style="fill:#1f77b4;stroke:#1f77b4;" x="200.772946" xlink:href="#m84642fa2f9" y="195.576497"/>
     <use style="fill:#1f77b4;stroke:#1f77b4;" x="201.920135" xlink:href="#m84642fa2f9" y="180.846768"/>
     <use style="fill:#1f77b4;stroke:#1f77b4;" x="203.067324" xlink:href="#m84642fa2f9" y="184.142235"/>
     <use style="fill:#1f77b4;stroke:#1f77b4;" x="204.214513" xlink:href="#m84642fa2f9" y="181.460845"/>
     <use style="fill:#1f77b4;stroke:#1f77b4;" x="205.361703" xlink:href="#m84642fa2f9" y="188.320769"/>
     <use style="fill:#1f77b4;stroke:#1f77b4;" x="206.508892" xlink:href="#m84642fa2f9" y="194.808461"/>
     <use style="fill:#1f77b4;stroke:#1f77b4;" x="207.656081" xlink:href="#m84642fa2f9" y="183.189635"/>
     <use style="fill:#1f77b4;stroke:#1f77b4;" x="208.80327" xlink:href="#m84642fa2f9" y="172.056369"/>
     <use style="fill:#1f77b4;stroke:#1f77b4;" x="209.950459" xlink:href="#m84642fa2f9" y="168.140247"/>
     <use style="fill:#1f77b4;stroke:#1f77b4;" x="211.097649" xlink:href="#m84642fa2f9" y="185.761531"/>
     <use style="fill:#1f77b4;stroke:#1f77b4;" x="212.244838" xlink:href="#m84642fa2f9" y="180.740565"/>
     <use style="fill:#1f77b4;stroke:#1f77b4;" x="213.392027" xlink:href="#m84642fa2f9" y="189.754654"/>
     <use style="fill:#1f77b4;stroke:#1f77b4;" x="214.539216" xlink:href="#m84642fa2f9" y="186.247887"/>
     <use style="fill:#1f77b4;stroke:#1f77b4;" x="215.686405" xlink:href="#m84642fa2f9" y="175.688617"/>
     <use style="fill:#1f77b4;stroke:#1f77b4;" x="216.833595" xlink:href="#m84642fa2f9" y="187.582572"/>
     <use style="fill:#1f77b4;stroke:#1f77b4;" x="217.980784" xlink:href="#m84642fa2f9" y="174.773987"/>
     <use style="fill:#1f77b4;stroke:#1f77b4;" x="219.127973" xlink:href="#m84642fa2f9" y="181.447455"/>
     <use style="fill:#1f77b4;stroke:#1f77b4;" x="220.275162" xlink:href="#m84642fa2f9" y="191.642874"/>
     <use style="fill:#1f77b4;stroke:#1f77b4;" x="221.422351" xlink:href="#m84642fa2f9" y="178.68315"/>
     <use style="fill:#1f77b4;stroke:#1f77b4;" x="222.569541" xlink:href="#m84642fa2f9" y="188.786647"/>
     <use style="fill:#1f77b4;stroke:#1f77b4;" x="223.71673" xlink:href="#m84642fa2f9" y="171.509348"/>
     <use style="fill:#1f77b4;stroke:#1f77b4;" x="224.863919" xlink:href="#m84642fa2f9" y="176.825062"/>
     <use style="fill:#1f77b4;stroke:#1f77b4;" x="226.011108" xlink:href="#m84642fa2f9" y="169.732368"/>
     <use style="fill:#1f77b4;stroke:#1f77b4;" x="227.158297" xlink:href="#m84642fa2f9" y="211.875109"/>
     <use style="fill:#1f77b4;stroke:#1f77b4;" x="228.305487" xlink:href="#m84642fa2f9" y="201.925871"/>
     <use style="fill:#1f77b4;stroke:#1f77b4;" x="229.452676" xlink:href="#m84642fa2f9" y="188.59324"/>
     <use style="fill:#1f77b4;stroke:#1f77b4;" x="230.599865" xlink:href="#m84642fa2f9" y="183.235335"/>
     <use style="fill:#1f77b4;stroke:#1f77b4;" x="231.747054" xlink:href="#m84642fa2f9" y="173.024714"/>
     <use style="fill:#1f77b4;stroke:#1f77b4;" x="232.894243" xlink:href="#m84642fa2f9" y="178.838926"/>
     <use style="fill:#1f77b4;stroke:#1f77b4;" x="234.041433" xlink:href="#m84642fa2f9" y="176.177333"/>
     <use style="fill:#1f77b4;stroke:#1f77b4;" x="235.188622" xlink:href="#m84642fa2f9" y="172.309073"/>
     <use style="fill:#1f77b4;stroke:#1f77b4;" x="236.335811" xlink:href="#m84642fa2f9" y="170.533647"/>
     <use style="fill:#1f77b4;stroke:#1f77b4;" x="237.483" xlink:href="#m84642fa2f9" y="178.170908"/>
     <use style="fill:#1f77b4;stroke:#1f77b4;" x="238.63019" xlink:href="#m84642fa2f9" y="181.959401"/>
     <use style="fill:#1f77b4;stroke:#1f77b4;" x="239.777379" xlink:href="#m84642fa2f9" y="171.135461"/>
     <use style="fill:#1f77b4;stroke:#1f77b4;" x="240.924568" xlink:href="#m84642fa2f9" y="184.155555"/>
     <use style="fill:#1f77b4;stroke:#1f77b4;" x="242.071757" xlink:href="#m84642fa2f9" y="185.245357"/>
     <use style="fill:#1f77b4;stroke:#1f77b4;" x="243.218946" xlink:href="#m84642fa2f9" y="184.80325"/>
     <use style="fill:#1f77b4;stroke:#1f77b4;" x="244.366136" xlink:href="#m84642fa2f9" y="182.222181"/>
     <use style="fill:#1f77b4;stroke:#1f77b4;" x="245.513325" xlink:href="#m84642fa2f9" y="195.332992"/>
     <use style="fill:#1f77b4;stroke:#1f77b4;" x="246.660514" xlink:href="#m84642fa2f9" y="192.693727"/>
     <use style="fill:#1f77b4;stroke:#1f77b4;" x="247.807703" xlink:href="#m84642fa2f9" y="190.695963"/>
     <use style="fill:#1f77b4;stroke:#1f77b4;" x="248.954892" xlink:href="#m84642fa2f9" y="231.106191"/>
     <use style="fill:#1f77b4;stroke:#1f77b4;" x="250.102082" xlink:href="#m84642fa2f9" y="181.336456"/>
     <use style="fill:#1f77b4;stroke:#1f77b4;" x="251.249271" xlink:href="#m84642fa2f9" y="189.725392"/>
     <use style="fill:#1f77b4;stroke:#1f77b4;" x="252.39646" xlink:href="#m84642fa2f9" y="180.112375"/>
     <use style="fill:#1f77b4;stroke:#1f77b4;" x="253.543649" xlink:href="#m84642fa2f9" y="185.992107"/>
     <use style="fill:#1f77b4;stroke:#1f77b4;" x="254.690838" xlink:href="#m84642fa2f9" y="173.423128"/>
     <use style="fill:#1f77b4;stroke:#1f77b4;" x="255.838028" xlink:href="#m84642fa2f9" y="186.202722"/>
     <use style="fill:#1f77b4;stroke:#1f77b4;" x="256.985217" xlink:href="#m84642fa2f9" y="197.477651"/>
     <use style="fill:#1f77b4;stroke:#1f77b4;" x="258.132406" xlink:href="#m84642fa2f9" y="179.388637"/>
     <use style="fill:#1f77b4;stroke:#1f77b4;" x="259.279595" xlink:href="#m84642fa2f9" y="192.777456"/>
     <use style="fill:#1f77b4;stroke:#1f77b4;" x="260.426784" xlink:href="#m84642fa2f9" y="168.945144"/>
     <use style="fill:#1f77b4;stroke:#1f77b4;" x="261.573974" xlink:href="#m84642fa2f9" y="168.913015"/>
     <use style="fill:#1f77b4;stroke:#1f77b4;" x="262.721163" xlink:href="#m84642fa2f9" y="176.156839"/>
     <use style="fill:#1f77b4;stroke:#1f77b4;" x="263.868352" xlink:href="#m84642fa2f9" y="176.693845"/>
     <use style="fill:#1f77b4;stroke:#1f77b4;" x="265.015541" xlink:href="#m84642fa2f9" y="203.639605"/>
     <use style="fill:#1f77b4;stroke:#1f77b4;" x="266.16273" xlink:href="#m84642fa2f9" y="219.218871"/>
     <use style="fill:#1f77b4;stroke:#1f77b4;" x="267.30992" xlink:href="#m84642fa2f9" y="181.269391"/>
     <use style="fill:#1f77b4;stroke:#1f77b4;" x="268.457109" xlink:href="#m84642fa2f9" y="178.820972"/>
     <use style="fill:#1f77b4;stroke:#1f77b4;" x="269.604298" xlink:href="#m84642fa2f9" y="181.958139"/>
     <use style="fill:#1f77b4;stroke:#1f77b4;" x="270.751487" xlink:href="#m84642fa2f9" y="169.468824"/>
     <use style="fill:#1f77b4;stroke:#1f77b4;" x="271.898677" xlink:href="#m84642fa2f9" y="186.047761"/>
     <use style="fill:#1f77b4;stroke:#1f77b4;" x="273.045866" xlink:href="#m84642fa2f9" y="200.215862"/>
     <use style="fill:#1f77b4;stroke:#1f77b4;" x="274.193055" xlink:href="#m84642fa2f9" y="200.324311"/>
     <use style="fill:#1f77b4;stroke:#1f77b4;" x="275.340244" xlink:href="#m84642fa2f9" y="201.855269"/>
     <use style="fill:#1f77b4;stroke:#1f77b4;" x="276.487433" xlink:href="#m84642fa2f9" y="175.978962"/>
     <use style="fill:#1f77b4;stroke:#1f77b4;" x="277.634623" xlink:href="#m84642fa2f9" y="183.767232"/>
     <use style="fill:#1f77b4;stroke:#1f77b4;" x="278.781812" xlink:href="#m84642fa2f9" y="204.622865"/>
     <use style="fill:#1f77b4;stroke:#1f77b4;" x="279.929001" xlink:href="#m84642fa2f9" y="171.143552"/>
     <use style="fill:#1f77b4;stroke:#1f77b4;" x="281.07619" xlink:href="#m84642fa2f9" y="207.092972"/>
     <use style="fill:#1f77b4;stroke:#1f77b4;" x="282.223379" xlink:href="#m84642fa2f9" y="212.929956"/>
     <use style="fill:#1f77b4;stroke:#1f77b4;" x="283.370569" xlink:href="#m84642fa2f9" y="186.293181"/>
     <use style="fill:#1f77b4;stroke:#1f77b4;" x="284.517758" xlink:href="#m84642fa2f9" y="170.909013"/>
     <use style="fill:#1f77b4;stroke:#1f77b4;" x="285.664947" xlink:href="#m84642fa2f9" y="177.975921"/>
     <use style="fill:#1f77b4;stroke:#1f77b4;" x="286.812136" xlink:href="#m84642fa2f9" y="186.388511"/>
     <use style="fill:#1f77b4;stroke:#1f77b4;" x="287.959325" xlink:href="#m84642fa2f9" y="179.058418"/>
     <use style="fill:#1f77b4;stroke:#1f77b4;" x="289.106515" xlink:href="#m84642fa2f9" y="172.278191"/>
     <use style="fill:#1f77b4;stroke:#1f77b4;" x="290.253704" xlink:href="#m84642fa2f9" y="200.292525"/>
     <use style="fill:#1f77b4;stroke:#1f77b4;" x="291.400893" xlink:href="#m84642fa2f9" y="187.334429"/>
     <use style="fill:#1f77b4;stroke:#1f77b4;" x="292.548082" xlink:href="#m84642fa2f9" y="177.321211"/>
     <use style="fill:#1f77b4;stroke:#1f77b4;" x="293.695271" xlink:href="#m84642fa2f9" y="181.117619"/>
     <use style="fill:#1f77b4;stroke:#1f77b4;" x="294.842461" xlink:href="#m84642fa2f9" y="177.202064"/>
     <use style="fill:#1f77b4;stroke:#1f77b4;" x="295.98965" xlink:href="#m84642fa2f9" y="179.826561"/>
     <use style="fill:#1f77b4;stroke:#1f77b4;" x="297.136839" xlink:href="#m84642fa2f9" y="169.377808"/>
     <use style="fill:#1f77b4;stroke:#1f77b4;" x="298.284028" xlink:href="#m84642fa2f9" y="195.500942"/>
     <use style="fill:#1f77b4;stroke:#1f77b4;" x="299.431217" xlink:href="#m84642fa2f9" y="187.036666"/>
     <use style="fill:#1f77b4;stroke:#1f77b4;" x="300.578407" xlink:href="#m84642fa2f9" y="190.00287"/>
     <use style="fill:#1f77b4;stroke:#1f77b4;" x="301.725596" xlink:href="#m84642fa2f9" y="176.414159"/>
     <use style="fill:#1f77b4;stroke:#1f77b4;" x="302.872785" xlink:href="#m84642fa2f9" y="188.882975"/>
     <use style="fill:#1f77b4;stroke:#1f77b4;" x="304.019974" xlink:href="#m84642fa2f9" y="171.466226"/>
     <use style="fill:#1f77b4;stroke:#1f77b4;" x="305.167164" xlink:href="#m84642fa2f9" y="183.239718"/>
     <use style="fill:#1f77b4;stroke:#1f77b4;" x="306.314353" xlink:href="#m84642fa2f9" y="176.131911"/>
     <use style="fill:#1f77b4;stroke:#1f77b4;" x="307.461542" xlink:href="#m84642fa2f9" y="187.59983"/>
     <use style="fill:#1f77b4;stroke:#1f77b4;" x="308.608731" xlink:href="#m84642fa2f9" y="181.294502"/>
     <use style="fill:#1f77b4;stroke:#1f77b4;" x="309.75592" xlink:href="#m84642fa2f9" y="187.091633"/>
     <use style="fill:#1f77b4;stroke:#1f77b4;" x="310.90311" xlink:href="#m84642fa2f9" y="207.837875"/>
     <use style="fill:#1f77b4;stroke:#1f77b4;" x="312.050299" xlink:href="#m84642fa2f9" y="184.276583"/>
     <use style="fill:#1f77b4;stroke:#1f77b4;" x="313.197488" xlink:href="#m84642fa2f9" y="185.191818"/>
     <use style="fill:#1f77b4;stroke:#1f77b4;" x="314.344677" xlink:href="#m84642fa2f9" y="172.26043"/>
     <use style="fill:#1f77b4;stroke:#1f77b4;" x="315.491866" xlink:href="#m84642fa2f9" y="179.117689"/>
     <use style="fill:#1f77b4;stroke:#1f77b4;" x="316.639056" xlink:href="#m84642fa2f9" y="177.715954"/>
     <use style="fill:#1f77b4;stroke:#1f77b4;" x="317.786245" xlink:href="#m84642fa2f9" y="185.324649"/>
     <use style="fill:#1f77b4;stroke:#1f77b4;" x="318.933434" xlink:href="#m84642fa2f9" y="177.977922"/>
     <use style="fill:#1f77b4;stroke:#1f77b4;" x="320.080623" xlink:href="#m84642fa2f9" y="178.118369"/>
     <use style="fill:#1f77b4;stroke:#1f77b4;" x="321.227812" xlink:href="#m84642fa2f9" y="178.247798"/>
     <use style="fill:#1f77b4;stroke:#1f77b4;" x="322.375002" xlink:href="#m84642fa2f9" y="189.569668"/>
     <use style="fill:#1f77b4;stroke:#1f77b4;" x="323.522191" xlink:href="#m84642fa2f9" y="187.111772"/>
     <use style="fill:#1f77b4;stroke:#1f77b4;" x="324.66938" xlink:href="#m84642fa2f9" y="182.284542"/>
     <use style="fill:#1f77b4;stroke:#1f77b4;" x="325.816569" xlink:href="#m84642fa2f9" y="178.079122"/>
     <use style="fill:#1f77b4;stroke:#1f77b4;" x="326.963758" xlink:href="#m84642fa2f9" y="191.082192"/>
     <use style="fill:#1f77b4;stroke:#1f77b4;" x="328.110948" xlink:href="#m84642fa2f9" y="206.737338"/>
     <use style="fill:#1f77b4;stroke:#1f77b4;" x="329.258137" xlink:href="#m84642fa2f9" y="182.407684"/>
     <use style="fill:#1f77b4;stroke:#1f77b4;" x="330.405326" xlink:href="#m84642fa2f9" y="183.381802"/>
     <use style="fill:#1f77b4;stroke:#1f77b4;" x="331.552515" xlink:href="#m84642fa2f9" y="178.165178"/>
     <use style="fill:#1f77b4;stroke:#1f77b4;" x="332.699704" xlink:href="#m84642fa2f9" y="180.826454"/>
     <use style="fill:#1f77b4;stroke:#1f77b4;" x="333.846894" xlink:href="#m84642fa2f9" y="175.827316"/>
     <use style="fill:#1f77b4;stroke:#1f77b4;" x="334.994083" xlink:href="#m84642fa2f9" y="178.214557"/>
     <use style="fill:#1f77b4;stroke:#1f77b4;" x="336.141272" xlink:href="#m84642fa2f9" y="189.311506"/>
     <use style="fill:#1f77b4;stroke:#1f77b4;" x="337.288461" xlink:href="#m84642fa2f9" y="180.531345"/>
     <use style="fill:#1f77b4;stroke:#1f77b4;" x="338.43565" xlink:href="#m84642fa2f9" y="198.973313"/>
     <use style="fill:#1f77b4;stroke:#1f77b4;" x="339.58284" xlink:href="#m84642fa2f9" y="222.730823"/>
     <use style="fill:#1f77b4;stroke:#1f77b4;" x="340.730029" xlink:href="#m84642fa2f9" y="186.520306"/>
     <use style="fill:#1f77b4;stroke:#1f77b4;" x="341.877218" xlink:href="#m84642fa2f9" y="185.942854"/>
     <use style="fill:#1f77b4;stroke:#1f77b4;" x="343.024407" xlink:href="#m84642fa2f9" y="182.430688"/>
     <use style="fill:#1f77b4;stroke:#1f77b4;" x="344.171597" xlink:href="#m84642fa2f9" y="179.431898"/>
     <use style="fill:#1f77b4;stroke:#1f77b4;" x="345.318786" xlink:href="#m84642fa2f9" y="173.354157"/>
     <use style="fill:#1f77b4;stroke:#1f77b4;" x="346.465975" xlink:href="#m84642fa2f9" y="180.827714"/>
     <use style="fill:#1f77b4;stroke:#1f77b4;" x="347.613164" xlink:href="#m84642fa2f9" y="189.74202"/>
     <use style="fill:#1f77b4;stroke:#1f77b4;" x="348.760353" xlink:href="#m84642fa2f9" y="185.989027"/>
     <use style="fill:#1f77b4;stroke:#1f77b4;" x="349.907543" xlink:href="#m84642fa2f9" y="194.095197"/>
     <use style="fill:#1f77b4;stroke:#1f77b4;" x="351.054732" xlink:href="#m84642fa2f9" y="197.467748"/>
     <use style="fill:#1f77b4;stroke:#1f77b4;" x="352.201921" xlink:href="#m84642fa2f9" y="196.562032"/>
     <use style="fill:#1f77b4;stroke:#1f77b4;" x="353.34911" xlink:href="#m84642fa2f9" y="226.583068"/>
     <use style="fill:#1f77b4;stroke:#1f77b4;" x="354.496299" xlink:href="#m84642fa2f9" y="216.649101"/>
     <use style="fill:#1f77b4;stroke:#1f77b4;" x="355.643489" xlink:href="#m84642fa2f9" y="261.216"/>
     <use style="fill:#1f77b4;stroke:#1f77b4;" x="356.790678" xlink:href="#m84642fa2f9" y="179.137073"/>
     <use style="fill:#1f77b4;stroke:#1f77b4;" x="357.937867" xlink:href="#m84642fa2f9" y="181.932838"/>
     <use style="fill:#1f77b4;stroke:#1f77b4;" x="359.085056" xlink:href="#m84642fa2f9" y="185.362204"/>
     <use style="fill:#1f77b4;stroke:#1f77b4;" x="360.232245" xlink:href="#m84642fa2f9" y="197.121463"/>
     <use style="fill:#1f77b4;stroke:#1f77b4;" x="361.379435" xlink:href="#m84642fa2f9" y="177.548929"/>
     <use style="fill:#1f77b4;stroke:#1f77b4;" x="362.526624" xlink:href="#m84642fa2f9" y="165.36545"/>
     <use style="fill:#1f77b4;stroke:#1f77b4;" x="363.673813" xlink:href="#m84642fa2f9" y="175.994264"/>
     <use style="fill:#1f77b4;stroke:#1f77b4;" x="364.821002" xlink:href="#m84642fa2f9" y="170.47393"/>
     <use style="fill:#1f77b4;stroke:#1f77b4;" x="365.968191" xlink:href="#m84642fa2f9" y="176.791478"/>
     <use style="fill:#1f77b4;stroke:#1f77b4;" x="367.115381" xlink:href="#m84642fa2f9" y="182.232835"/>
     <use style="fill:#1f77b4;stroke:#1f77b4;" x="368.26257" xlink:href="#m84642fa2f9" y="183.108958"/>
     <use style="fill:#1f77b4;stroke:#1f77b4;" x="369.409759" xlink:href="#m84642fa2f9" y="176.909593"/>
     <use style="fill:#1f77b4;stroke:#1f77b4;" x="370.556948" xlink:href="#m84642fa2f9" y="176.599721"/>
     <use style="fill:#1f77b4;stroke:#1f77b4;" x="371.704137" xlink:href="#m84642fa2f9" y="188.228458"/>
     <use style="fill:#1f77b4;stroke:#1f77b4;" x="372.851327" xlink:href="#m84642fa2f9" y="178.002575"/>
     <use style="fill:#1f77b4;stroke:#1f77b4;" x="373.998516" xlink:href="#m84642fa2f9" y="188.396381"/>
     <use style="fill:#1f77b4;stroke:#1f77b4;" x="375.145705" xlink:href="#m84642fa2f9" y="183.722381"/>
     <use style="fill:#1f77b4;stroke:#1f77b4;" x="376.292894" xlink:href="#m84642fa2f9" y="193.088482"/>
     <use style="fill:#1f77b4;stroke:#1f77b4;" x="377.178512" xlink:href="#m84642fa2f9" y="22383.514"/>
    </g>
   </g>
   <g id="line2d_12">
    <path clip-path="url(#pcb6e067c36)" d="M 57.374295 44.122411 
L 58.521484 54.236435 
L 59.668673 63.966781 
L 60.815863 74.240298 
L 61.963052 84.110754 
L 63.110241 94.185939 
L 64.25743 104.135491 
L 65.404619 114.113035 
L 66.551809 124.064263 
L 67.698998 134.722844 
L 68.846187 144.733324 
L 69.993376 155.688961 
" style="fill:none;stroke:#2ca02c;stroke-dasharray:1.5,2.475;stroke-dashoffset:0;stroke-width:1.5;"/>
    <defs>
     <path d="M -3 3 
L 3 -3 
M -3 -3 
L 3 3 
" id="mab67ca23b6" style="stroke:#2ca02c;"/>
    </defs>
    <g clip-path="url(#pcb6e067c36)">
     <use style="fill:#2ca02c;stroke:#2ca02c;" x="57.374295" xlink:href="#mab67ca23b6" y="44.122411"/>
     <use style="fill:#2ca02c;stroke:#2ca02c;" x="58.521484" xlink:href="#mab67ca23b6" y="54.236435"/>
     <use style="fill:#2ca02c;stroke:#2ca02c;" x="59.668673" xlink:href="#mab67ca23b6" y="63.966781"/>
     <use style="fill:#2ca02c;stroke:#2ca02c;" x="60.815863" xlink:href="#mab67ca23b6" y="74.240298"/>
     <use style="fill:#2ca02c;stroke:#2ca02c;" x="61.963052" xlink:href="#mab67ca23b6" y="84.110754"/>
     <use style="fill:#2ca02c;stroke:#2ca02c;" x="63.110241" xlink:href="#mab67ca23b6" y="94.185939"/>
     <use style="fill:#2ca02c;stroke:#2ca02c;" x="64.25743" xlink:href="#mab67ca23b6" y="104.135491"/>
     <use style="fill:#2ca02c;stroke:#2ca02c;" x="65.404619" xlink:href="#mab67ca23b6" y="114.113035"/>
     <use style="fill:#2ca02c;stroke:#2ca02c;" x="66.551809" xlink:href="#mab67ca23b6" y="124.064263"/>
     <use style="fill:#2ca02c;stroke:#2ca02c;" x="67.698998" xlink:href="#mab67ca23b6" y="134.722844"/>
     <use style="fill:#2ca02c;stroke:#2ca02c;" x="68.846187" xlink:href="#mab67ca23b6" y="144.733324"/>
     <use style="fill:#2ca02c;stroke:#2ca02c;" x="69.993376" xlink:href="#mab67ca23b6" y="155.688961"/>
    </g>
   </g>
   <g id="line2d_13">
    <path clip-path="url(#pcb6e067c36)" d="M 55.079916 91.103377 
L 80.177031 311.86825 
L 80.177031 311.86825 
" style="fill:none;stroke:#000000;stroke-dasharray:5.55,2.4;stroke-dashoffset:0;stroke-width:1.5;"/>
   </g>
   <g id="patch_3">
    <path d="M 37.7 273.312 
L 37.7 7.2 
" style="fill:none;stroke:#000000;stroke-linecap:square;stroke-linejoin:miter;stroke-width:0.8;"/>
   </g>
   <g id="patch_4">
    <path d="M 394.82 273.312 
L 394.82 7.2 
" style="fill:none;stroke:#000000;stroke-linecap:square;stroke-linejoin:miter;stroke-width:0.8;"/>
   </g>
   <g id="patch_5">
    <path d="M 37.7 273.312 
L 394.82 273.312 
" style="fill:none;stroke:#000000;stroke-linecap:square;stroke-linejoin:miter;stroke-width:0.8;"/>
   </g>
   <g id="patch_6">
    <path d="M 37.7 7.2 
L 394.82 7.2 
" style="fill:none;stroke:#000000;stroke-linecap:square;stroke-linejoin:miter;stroke-width:0.8;"/>
   </g>
   <g id="legend_1">
    <g id="patch_7">
     <path d="M 287.02 59.25625 
L 387.82 59.25625 
Q 389.82 59.25625 389.82 57.25625 
L 389.82 14.2 
Q 389.82 12.2 387.82 12.2 
L 287.02 12.2 
Q 285.02 12.2 285.02 14.2 
L 285.02 57.25625 
Q 285.02 59.25625 287.02 59.25625 
z
" style="fill:#ffffff;opacity:0.8;"/>
    </g>
    <g id="line2d_14">
     <path d="M 289.02 20.298437 
L 309.02 20.298437 
" style="fill:none;stroke:#1f77b4;stroke-linecap:square;stroke-width:1.5;"/>
    </g>
    <g id="line2d_15">
     <g>
      <use style="fill:#1f77b4;stroke:#1f77b4;" x="299.02" xlink:href="#m84642fa2f9" y="20.298437"/>
     </g>
    </g>
    <g id="text_12">
     <!-- APD$_n$ - APD$_\infty$ -->
     <defs>
      <path d="M 34.1875 63.1875 
L 20.796875 26.90625 
L 47.609375 26.90625 
z
M 28.609375 72.90625 
L 39.796875 72.90625 
L 67.578125 0 
L 57.328125 0 
L 50.6875 18.703125 
L 17.828125 18.703125 
L 11.1875 0 
L 0.78125 0 
z
" id="DejaVuSans-65"/>
      <path d="M 19.671875 64.796875 
L 19.671875 37.40625 
L 32.078125 37.40625 
Q 38.96875 37.40625 42.71875 40.96875 
Q 46.484375 44.53125 46.484375 51.125 
Q 46.484375 57.671875 42.71875 61.234375 
Q 38.96875 64.796875 32.078125 64.796875 
z
M 9.8125 72.90625 
L 32.078125 72.90625 
Q 44.34375 72.90625 50.609375 67.359375 
Q 56.890625 61.8125 56.890625 51.125 
Q 56.890625 40.328125 50.609375 34.8125 
Q 44.34375 29.296875 32.078125 29.296875 
L 19.671875 29.296875 
L 19.671875 0 
L 9.8125 0 
z
" id="DejaVuSans-80"/>
      <path d="M 19.671875 64.796875 
L 19.671875 8.109375 
L 31.59375 8.109375 
Q 46.6875 8.109375 53.6875 14.9375 
Q 60.6875 21.78125 60.6875 36.53125 
Q 60.6875 51.171875 53.6875 57.984375 
Q 46.6875 64.796875 31.59375 64.796875 
z
M 9.8125 72.90625 
L 30.078125 72.90625 
Q 51.265625 72.90625 61.171875 64.09375 
Q 71.09375 55.28125 71.09375 36.53125 
Q 71.09375 17.671875 61.125 8.828125 
Q 51.171875 0 30.078125 0 
L 9.8125 0 
z
" id="DejaVuSans-68"/>
      <path d="M 55.71875 33.015625 
L 49.3125 0 
L 40.28125 0 
L 46.6875 32.671875 
Q 47.125 34.96875 47.359375 36.71875 
Q 47.609375 38.484375 47.609375 39.5 
Q 47.609375 43.609375 45.015625 45.890625 
Q 42.4375 48.1875 37.796875 48.1875 
Q 30.5625 48.1875 25.34375 43.375 
Q 20.125 38.578125 18.5 30.328125 
L 12.5 0 
L 3.515625 0 
L 14.109375 54.6875 
L 23.09375 54.6875 
L 21.296875 46.09375 
Q 25.046875 50.828125 30.3125 53.40625 
Q 35.59375 56 41.40625 56 
Q 48.640625 56 52.609375 52.09375 
Q 56.59375 48.1875 56.59375 41.109375 
Q 56.59375 39.359375 56.375 37.359375 
Q 56.15625 35.359375 55.71875 33.015625 
z
" id="DejaVuSans-Oblique-110"/>
      <path id="DejaVuSans-32"/>
      <path d="M 4.890625 31.390625 
L 31.203125 31.390625 
L 31.203125 23.390625 
L 4.890625 23.390625 
z
" id="DejaVuSans-45"/>
      <path d="M 45.5625 17.046875 
Q 44.046875 18.796875 41.65625 22.90625 
Q 38.375 17.046875 35.5 14.453125 
Q 31.890625 11.328125 26.265625 11.328125 
Q 19.671875 11.328125 15.328125 16.265625 
Q 10.75 21.4375 10.75 29.984375 
Q 10.75 38.1875 15.328125 43.75 
Q 19.4375 48.6875 26.375 48.6875 
Q 29.9375 48.6875 32.5625 47.21875 
Q 35.640625 45.609375 37.75 42.828125 
Q 39.703125 40.328125 41.65625 36.96875 
Q 44.921875 42.828125 47.796875 45.40625 
Q 51.421875 48.53125 57.03125 48.53125 
Q 63.625 48.53125 67.96875 43.609375 
Q 72.5625 38.421875 72.5625 29.890625 
Q 72.5625 21.6875 67.96875 16.109375 
Q 63.875 11.1875 56.9375 11.1875 
Q 53.375 11.1875 50.734375 12.640625 
Q 48.09375 13.96875 45.5625 17.046875 
z
M 25.734375 17.71875 
Q 33.796875 17.71875 38.625 29.4375 
Q 32.421875 42.234375 25.734375 42.234375 
Q 20.84375 42.234375 18.359375 38.71875 
Q 15.671875 34.96875 15.671875 29.984375 
Q 15.671875 24.515625 18.359375 21.140625 
Q 21.09375 17.71875 25.734375 17.71875 
z
M 57.5625 42.140625 
Q 50.296875 42.140625 44.671875 30.421875 
Q 50.828125 17.625 57.5625 17.625 
Q 62.453125 17.625 64.9375 21.140625 
Q 67.625 24.90625 67.625 29.890625 
Q 67.625 35.359375 64.9375 38.71875 
Q 62.203125 42.140625 57.5625 42.140625 
z
" id="DejaVuSans-8734"/>
     </defs>
     <g transform="translate(317.02 23.798437)scale(0.1 -0.1)">
      <use transform="translate(0 0.09375)" xlink:href="#DejaVuSans-65"/>
      <use transform="translate(68.408203 0.09375)" xlink:href="#DejaVuSans-80"/>
      <use transform="translate(128.710938 0.09375)" xlink:href="#DejaVuSans-68"/>
      <use transform="translate(206.669922 -16.3125)scale(0.7)" xlink:href="#DejaVuSans-Oblique-110"/>
      <use transform="translate(253.769531 0.09375)" xlink:href="#DejaVuSans-32"/>
      <use transform="translate(285.556641 0.09375)" xlink:href="#DejaVuSans-45"/>
      <use transform="translate(321.640625 0.09375)" xlink:href="#DejaVuSans-32"/>
      <use transform="translate(353.427734 0.09375)" xlink:href="#DejaVuSans-65"/>
      <use transform="translate(421.835938 0.09375)" xlink:href="#DejaVuSans-80"/>
      <use transform="translate(482.138672 0.09375)" xlink:href="#DejaVuSans-68"/>
      <use transform="translate(560.097656 -16.3125)scale(0.7)" xlink:href="#DejaVuSans-8734"/>
     </g>
    </g>
    <g id="line2d_16">
     <path d="M 289.02 34.976562 
L 309.02 34.976562 
" style="fill:none;stroke:#2ca02c;stroke-dasharray:1.5,2.475;stroke-dashoffset:0;stroke-width:1.5;"/>
    </g>
    <g id="line2d_17">
     <g>
      <use style="fill:#2ca02c;stroke:#2ca02c;" x="299.02" xlink:href="#mab67ca23b6" y="34.976562"/>
     </g>
    </g>
    <g id="text_13">
     <!-- linear region -->
     <defs>
      <path d="M 9.421875 75.984375 
L 18.40625 75.984375 
L 18.40625 0 
L 9.421875 0 
z
" id="DejaVuSans-108"/>
      <path d="M 9.421875 54.6875 
L 18.40625 54.6875 
L 18.40625 0 
L 9.421875 0 
z
M 9.421875 75.984375 
L 18.40625 75.984375 
L 18.40625 64.59375 
L 9.421875 64.59375 
z
" id="DejaVuSans-105"/>
      <path d="M 54.890625 33.015625 
L 54.890625 0 
L 45.90625 0 
L 45.90625 32.71875 
Q 45.90625 40.484375 42.875 44.328125 
Q 39.84375 48.1875 33.796875 48.1875 
Q 26.515625 48.1875 22.3125 43.546875 
Q 18.109375 38.921875 18.109375 30.90625 
L 18.109375 0 
L 9.078125 0 
L 9.078125 54.6875 
L 18.109375 54.6875 
L 18.109375 46.1875 
Q 21.34375 51.125 25.703125 53.5625 
Q 30.078125 56 35.796875 56 
Q 45.21875 56 50.046875 50.171875 
Q 54.890625 44.34375 54.890625 33.015625 
z
" id="DejaVuSans-110"/>
      <path d="M 56.203125 29.59375 
L 56.203125 25.203125 
L 14.890625 25.203125 
Q 15.484375 15.921875 20.484375 11.0625 
Q 25.484375 6.203125 34.421875 6.203125 
Q 39.59375 6.203125 44.453125 7.46875 
Q 49.3125 8.734375 54.109375 11.28125 
L 54.109375 2.78125 
Q 49.265625 0.734375 44.1875 -0.34375 
Q 39.109375 -1.421875 33.890625 -1.421875 
Q 20.796875 -1.421875 13.15625 6.1875 
Q 5.515625 13.8125 5.515625 26.8125 
Q 5.515625 40.234375 12.765625 48.109375 
Q 20.015625 56 32.328125 56 
Q 43.359375 56 49.78125 48.890625 
Q 56.203125 41.796875 56.203125 29.59375 
z
M 47.21875 32.234375 
Q 47.125 39.59375 43.09375 43.984375 
Q 39.0625 48.390625 32.421875 48.390625 
Q 24.90625 48.390625 20.390625 44.140625 
Q 15.875 39.890625 15.1875 32.171875 
z
" id="DejaVuSans-101"/>
      <path d="M 34.28125 27.484375 
Q 23.390625 27.484375 19.1875 25 
Q 14.984375 22.515625 14.984375 16.5 
Q 14.984375 11.71875 18.140625 8.90625 
Q 21.296875 6.109375 26.703125 6.109375 
Q 34.1875 6.109375 38.703125 11.40625 
Q 43.21875 16.703125 43.21875 25.484375 
L 43.21875 27.484375 
z
M 52.203125 31.203125 
L 52.203125 0 
L 43.21875 0 
L 43.21875 8.296875 
Q 40.140625 3.328125 35.546875 0.953125 
Q 30.953125 -1.421875 24.3125 -1.421875 
Q 15.921875 -1.421875 10.953125 3.296875 
Q 6 8.015625 6 15.921875 
Q 6 25.140625 12.171875 29.828125 
Q 18.359375 34.515625 30.609375 34.515625 
L 43.21875 34.515625 
L 43.21875 35.40625 
Q 43.21875 41.609375 39.140625 45 
Q 35.0625 48.390625 27.6875 48.390625 
Q 23 48.390625 18.546875 47.265625 
Q 14.109375 46.140625 10.015625 43.890625 
L 10.015625 52.203125 
Q 14.9375 54.109375 19.578125 55.046875 
Q 24.21875 56 28.609375 56 
Q 40.484375 56 46.34375 49.84375 
Q 52.203125 43.703125 52.203125 31.203125 
z
" id="DejaVuSans-97"/>
      <path d="M 41.109375 46.296875 
Q 39.59375 47.171875 37.8125 47.578125 
Q 36.03125 48 33.890625 48 
Q 26.265625 48 22.1875 43.046875 
Q 18.109375 38.09375 18.109375 28.8125 
L 18.109375 0 
L 9.078125 0 
L 9.078125 54.6875 
L 18.109375 54.6875 
L 18.109375 46.1875 
Q 20.953125 51.171875 25.484375 53.578125 
Q 30.03125 56 36.53125 56 
Q 37.453125 56 38.578125 55.875 
Q 39.703125 55.765625 41.0625 55.515625 
z
" id="DejaVuSans-114"/>
      <path d="M 45.40625 27.984375 
Q 45.40625 37.75 41.375 43.109375 
Q 37.359375 48.484375 30.078125 48.484375 
Q 22.859375 48.484375 18.828125 43.109375 
Q 14.796875 37.75 14.796875 27.984375 
Q 14.796875 18.265625 18.828125 12.890625 
Q 22.859375 7.515625 30.078125 7.515625 
Q 37.359375 7.515625 41.375 12.890625 
Q 45.40625 18.265625 45.40625 27.984375 
z
M 54.390625 6.78125 
Q 54.390625 -7.171875 48.1875 -13.984375 
Q 42 -20.796875 29.203125 -20.796875 
Q 24.46875 -20.796875 20.265625 -20.09375 
Q 16.0625 -19.390625 12.109375 -17.921875 
L 12.109375 -9.1875 
Q 16.0625 -11.328125 19.921875 -12.34375 
Q 23.78125 -13.375 27.78125 -13.375 
Q 36.625 -13.375 41.015625 -8.765625 
Q 45.40625 -4.15625 45.40625 5.171875 
L 45.40625 9.625 
Q 42.625 4.78125 38.28125 2.390625 
Q 33.9375 0 27.875 0 
Q 17.828125 0 11.671875 7.65625 
Q 5.515625 15.328125 5.515625 27.984375 
Q 5.515625 40.671875 11.671875 48.328125 
Q 17.828125 56 27.875 56 
Q 33.9375 56 38.28125 53.609375 
Q 42.625 51.21875 45.40625 46.390625 
L 45.40625 54.6875 
L 54.390625 54.6875 
z
" id="DejaVuSans-103"/>
      <path d="M 30.609375 48.390625 
Q 23.390625 48.390625 19.1875 42.75 
Q 14.984375 37.109375 14.984375 27.296875 
Q 14.984375 17.484375 19.15625 11.84375 
Q 23.34375 6.203125 30.609375 6.203125 
Q 37.796875 6.203125 41.984375 11.859375 
Q 46.1875 17.53125 46.1875 27.296875 
Q 46.1875 37.015625 41.984375 42.703125 
Q 37.796875 48.390625 30.609375 48.390625 
z
M 30.609375 56 
Q 42.328125 56 49.015625 48.375 
Q 55.71875 40.765625 55.71875 27.296875 
Q 55.71875 13.875 49.015625 6.21875 
Q 42.328125 -1.421875 30.609375 -1.421875 
Q 18.84375 -1.421875 12.171875 6.21875 
Q 5.515625 13.875 5.515625 27.296875 
Q 5.515625 40.765625 12.171875 48.375 
Q 18.84375 56 30.609375 56 
z
" id="DejaVuSans-111"/>
     </defs>
     <g transform="translate(317.02 38.476562)scale(0.1 -0.1)">
      <use xlink:href="#DejaVuSans-108"/>
      <use x="27.783203" xlink:href="#DejaVuSans-105"/>
      <use x="55.566406" xlink:href="#DejaVuSans-110"/>
      <use x="118.945312" xlink:href="#DejaVuSans-101"/>
      <use x="180.46875" xlink:href="#DejaVuSans-97"/>
      <use x="241.748047" xlink:href="#DejaVuSans-114"/>
      <use x="282.861328" xlink:href="#DejaVuSans-32"/>
      <use x="314.648438" xlink:href="#DejaVuSans-114"/>
      <use x="353.511719" xlink:href="#DejaVuSans-101"/>
      <use x="415.035156" xlink:href="#DejaVuSans-103"/>
      <use x="478.511719" xlink:href="#DejaVuSans-105"/>
      <use x="506.294922" xlink:href="#DejaVuSans-111"/>
      <use x="567.476562" xlink:href="#DejaVuSans-110"/>
     </g>
    </g>
    <g id="line2d_18">
     <path d="M 289.02 49.65625 
L 309.02 49.65625 
" style="fill:none;stroke:#000000;stroke-dasharray:5.55,2.4;stroke-dashoffset:0;stroke-width:1.5;"/>
    </g>
    <g id="line2d_19"/>
    <g id="text_14">
     <!-- $ \exp(-0.805 k)$ -->
     <defs>
      <path d="M 54.890625 54.6875 
L 35.109375 28.078125 
L 55.90625 0 
L 45.3125 0 
L 29.390625 21.484375 
L 13.484375 0 
L 2.875 0 
L 24.125 28.609375 
L 4.6875 54.6875 
L 15.28125 54.6875 
L 29.78125 35.203125 
L 44.28125 54.6875 
z
" id="DejaVuSans-120"/>
      <path d="M 18.109375 8.203125 
L 18.109375 -20.796875 
L 9.078125 -20.796875 
L 9.078125 54.6875 
L 18.109375 54.6875 
L 18.109375 46.390625 
Q 20.953125 51.265625 25.265625 53.625 
Q 29.59375 56 35.59375 56 
Q 45.5625 56 51.78125 48.09375 
Q 58.015625 40.1875 58.015625 27.296875 
Q 58.015625 14.40625 51.78125 6.484375 
Q 45.5625 -1.421875 35.59375 -1.421875 
Q 29.59375 -1.421875 25.265625 0.953125 
Q 20.953125 3.328125 18.109375 8.203125 
z
M 48.6875 27.296875 
Q 48.6875 37.203125 44.609375 42.84375 
Q 40.53125 48.484375 33.40625 48.484375 
Q 26.265625 48.484375 22.1875 42.84375 
Q 18.109375 37.203125 18.109375 27.296875 
Q 18.109375 17.390625 22.1875 11.75 
Q 26.265625 6.109375 33.40625 6.109375 
Q 40.53125 6.109375 44.609375 11.75 
Q 48.6875 17.390625 48.6875 27.296875 
z
" id="DejaVuSans-112"/>
      <path d="M 31 75.875 
Q 24.46875 64.65625 21.28125 53.65625 
Q 18.109375 42.671875 18.109375 31.390625 
Q 18.109375 20.125 21.3125 9.0625 
Q 24.515625 -2 31 -13.1875 
L 23.1875 -13.1875 
Q 15.875 -1.703125 12.234375 9.375 
Q 8.59375 20.453125 8.59375 31.390625 
Q 8.59375 42.28125 12.203125 53.3125 
Q 15.828125 64.359375 23.1875 75.875 
z
" id="DejaVuSans-40"/>
      <path d="M 10.6875 12.40625 
L 21 12.40625 
L 21 0 
L 10.6875 0 
z
" id="DejaVuSans-46"/>
      <path d="M 31.78125 34.625 
Q 24.75 34.625 20.71875 30.859375 
Q 16.703125 27.09375 16.703125 20.515625 
Q 16.703125 13.921875 20.71875 10.15625 
Q 24.75 6.390625 31.78125 6.390625 
Q 38.8125 6.390625 42.859375 10.171875 
Q 46.921875 13.96875 46.921875 20.515625 
Q 46.921875 27.09375 42.890625 30.859375 
Q 38.875 34.625 31.78125 34.625 
z
M 21.921875 38.8125 
Q 15.578125 40.375 12.03125 44.71875 
Q 8.5 49.078125 8.5 55.328125 
Q 8.5 64.0625 14.71875 69.140625 
Q 20.953125 74.21875 31.78125 74.21875 
Q 42.671875 74.21875 48.875 69.140625 
Q 55.078125 64.0625 55.078125 55.328125 
Q 55.078125 49.078125 51.53125 44.71875 
Q 48 40.375 41.703125 38.8125 
Q 48.828125 37.15625 52.796875 32.3125 
Q 56.78125 27.484375 56.78125 20.515625 
Q 56.78125 9.90625 50.3125 4.234375 
Q 43.84375 -1.421875 31.78125 -1.421875 
Q 19.734375 -1.421875 13.25 4.234375 
Q 6.78125 9.90625 6.78125 20.515625 
Q 6.78125 27.484375 10.78125 32.3125 
Q 14.796875 37.15625 21.921875 38.8125 
z
M 18.3125 54.390625 
Q 18.3125 48.734375 21.84375 45.5625 
Q 25.390625 42.390625 31.78125 42.390625 
Q 38.140625 42.390625 41.71875 45.5625 
Q 45.3125 48.734375 45.3125 54.390625 
Q 45.3125 60.0625 41.71875 63.234375 
Q 38.140625 66.40625 31.78125 66.40625 
Q 25.390625 66.40625 21.84375 63.234375 
Q 18.3125 60.0625 18.3125 54.390625 
z
" id="DejaVuSans-56"/>
      <path d="M 8.015625 75.875 
L 15.828125 75.875 
Q 23.140625 64.359375 26.78125 53.3125 
Q 30.421875 42.28125 30.421875 31.390625 
Q 30.421875 20.453125 26.78125 9.375 
Q 23.140625 -1.703125 15.828125 -13.1875 
L 8.015625 -13.1875 
Q 14.5 -2 17.703125 9.0625 
Q 20.90625 20.125 20.90625 31.390625 
Q 20.90625 42.671875 17.703125 53.65625 
Q 14.5 64.65625 8.015625 75.875 
z
" id="DejaVuSans-41"/>
     </defs>
     <g transform="translate(317.02 53.15625)scale(0.1 -0.1)">
      <use transform="translate(0 0.015625)" xlink:href="#DejaVuSans-101"/>
      <use transform="translate(61.523438 0.015625)" xlink:href="#DejaVuSans-120"/>
      <use transform="translate(120.703125 0.015625)" xlink:href="#DejaVuSans-112"/>
      <use transform="translate(184.179688 0.015625)" xlink:href="#DejaVuSans-40"/>
      <use transform="translate(223.193359 0.015625)" xlink:href="#DejaVuSans-8722"/>
      <use transform="translate(306.982422 0.015625)" xlink:href="#DejaVuSans-48"/>
      <use transform="translate(370.605469 0.015625)" xlink:href="#DejaVuSans-46"/>
      <use transform="translate(399.767578 0.015625)" xlink:href="#DejaVuSans-56"/>
      <use transform="translate(463.390625 0.015625)" xlink:href="#DejaVuSans-48"/>
      <use transform="translate(527.013672 0.015625)" xlink:href="#DejaVuSans-53"/>
      <use transform="translate(590.636719 0.015625)" xlink:href="#DejaVuSans-Oblique-107"/>
      <use transform="translate(648.546875 0.015625)" xlink:href="#DejaVuSans-41"/>
     </g>
    </g>
   </g>
  </g>
 </g>
 <defs>
  <clipPath id="pcb6e067c36">
   <rect height="266.112" width="357.12" x="37.7" y="7.2"/>
  </clipPath>
 </defs>
</svg>
