<?xml version="1.0" encoding="utf-8" standalone="no"?>
<!DOCTYPE svg PUBLIC "-//W3C//DTD SVG 1.1//EN"
  "http://www.w3.org/Graphics/SVG/1.1/DTD/svg11.dtd">
<!-- Created with matplotlib (https://matplotlib.org/) -->
<svg height="310.86825pt" version="1.1" viewBox="0 0 407.106058 310.86825" width="407.106058pt" xmlns="http://www.w3.org/2000/svg" xmlns:xlink="http://www.w3.org/1999/xlink">
 <defs>
  <style type="text/css">
*{stroke-linecap:butt;stroke-linejoin:round;}
  </style>
 </defs>
 <g id="figure_1">
  <g id="patch_1">
   <path d="M 0 310.86825 
L 407.106058 310.86825 
L 407.106058 0 
L 0 0 
z
" style="fill:#ffffff;"/>
  </g>
  <g id="axes_1">
   <g id="patch_2">
    <path d="M 37.7 273.312 
L 394.82 273.312 
L 394.82 7.2 
L 37.7 7.2 
z
" style="fill:#ffffff;"/>
   </g>
   <g id="matplotlib.axis_1">
    <g id="xtick_1">
     <g id="line2d_1">
      <defs>
       <path d="M 0 0 
L 0 3.5 
" id="mb0135a6ce9" style="stroke:#000000;stroke-width:0.8;"/>
      </defs>
      <g>
       <use style="stroke:#000000;stroke-width:0.8;" x="53.932727" xlink:href="#mb0135a6ce9" y="273.312"/>
      </g>
     </g>
     <g id="text_1">
      <!-- 0 -->
      <defs>
       <path d="M 31.78125 66.40625 
Q 24.171875 66.40625 20.328125 58.90625 
Q 16.5 51.421875 16.5 36.375 
Q 16.5 21.390625 20.328125 13.890625 
Q 24.171875 6.390625 31.78125 6.390625 
Q 39.453125 6.390625 43.28125 13.890625 
Q 47.125 21.390625 47.125 36.375 
Q 47.125 51.421875 43.28125 58.90625 
Q 39.453125 66.40625 31.78125 66.40625 
z
M 31.78125 74.21875 
Q 44.046875 74.21875 50.515625 64.515625 
Q 56.984375 54.828125 56.984375 36.375 
Q 56.984375 17.96875 50.515625 8.265625 
Q 44.046875 -1.421875 31.78125 -1.421875 
Q 19.53125 -1.421875 13.0625 8.265625 
Q 6.59375 17.96875 6.59375 36.375 
Q 6.59375 54.828125 13.0625 64.515625 
Q 19.53125 74.21875 31.78125 74.21875 
z
" id="DejaVuSans-48"/>
      </defs>
      <g transform="translate(50.751477 287.910437)scale(0.1 -0.1)">
       <use xlink:href="#DejaVuSans-48"/>
      </g>
     </g>
    </g>
    <g id="xtick_2">
     <g id="line2d_2">
      <g>
       <use style="stroke:#000000;stroke-width:0.8;" x="95.986425" xlink:href="#mb0135a6ce9" y="273.312"/>
      </g>
     </g>
     <g id="text_2">
      <!-- 25 -->
      <defs>
       <path d="M 19.1875 8.296875 
L 53.609375 8.296875 
L 53.609375 0 
L 7.328125 0 
L 7.328125 8.296875 
Q 12.9375 14.109375 22.625 23.890625 
Q 32.328125 33.6875 34.8125 36.53125 
Q 39.546875 41.84375 41.421875 45.53125 
Q 43.3125 49.21875 43.3125 52.78125 
Q 43.3125 58.59375 39.234375 62.25 
Q 35.15625 65.921875 28.609375 65.921875 
Q 23.96875 65.921875 18.8125 64.3125 
Q 13.671875 62.703125 7.8125 59.421875 
L 7.8125 69.390625 
Q 13.765625 71.78125 18.9375 73 
Q 24.125 74.21875 28.421875 74.21875 
Q 39.75 74.21875 46.484375 68.546875 
Q 53.21875 62.890625 53.21875 53.421875 
Q 53.21875 48.921875 51.53125 44.890625 
Q 49.859375 40.875 45.40625 35.40625 
Q 44.1875 33.984375 37.640625 27.21875 
Q 31.109375 20.453125 19.1875 8.296875 
z
" id="DejaVuSans-50"/>
       <path d="M 10.796875 72.90625 
L 49.515625 72.90625 
L 49.515625 64.59375 
L 19.828125 64.59375 
L 19.828125 46.734375 
Q 21.96875 47.46875 24.109375 47.828125 
Q 26.265625 48.1875 28.421875 48.1875 
Q 40.625 48.1875 47.75 41.5 
Q 54.890625 34.8125 54.890625 23.390625 
Q 54.890625 11.625 47.5625 5.09375 
Q 40.234375 -1.421875 26.90625 -1.421875 
Q 22.3125 -1.421875 17.546875 -0.640625 
Q 12.796875 0.140625 7.71875 1.703125 
L 7.71875 11.625 
Q 12.109375 9.234375 16.796875 8.0625 
Q 21.484375 6.890625 26.703125 6.890625 
Q 35.15625 6.890625 40.078125 11.328125 
Q 45.015625 15.765625 45.015625 23.390625 
Q 45.015625 31 40.078125 35.4375 
Q 35.15625 39.890625 26.703125 39.890625 
Q 22.75 39.890625 18.8125 39.015625 
Q 14.890625 38.140625 10.796875 36.28125 
z
" id="DejaVuSans-53"/>
      </defs>
      <g transform="translate(89.623925 287.910437)scale(0.1 -0.1)">
       <use xlink:href="#DejaVuSans-50"/>
       <use x="63.623047" xlink:href="#DejaVuSans-53"/>
      </g>
     </g>
    </g>
    <g id="xtick_3">
     <g id="line2d_3">
      <g>
       <use style="stroke:#000000;stroke-width:0.8;" x="138.040122" xlink:href="#mb0135a6ce9" y="273.312"/>
      </g>
     </g>
     <g id="text_3">
      <!-- 50 -->
      <g transform="translate(131.677622 287.910437)scale(0.1 -0.1)">
       <use xlink:href="#DejaVuSans-53"/>
       <use x="63.623047" xlink:href="#DejaVuSans-48"/>
      </g>
     </g>
    </g>
    <g id="xtick_4">
     <g id="line2d_4">
      <g>
       <use style="stroke:#000000;stroke-width:0.8;" x="180.09382" xlink:href="#mb0135a6ce9" y="273.312"/>
      </g>
     </g>
     <g id="text_4">
      <!-- 75 -->
      <defs>
       <path d="M 8.203125 72.90625 
L 55.078125 72.90625 
L 55.078125 68.703125 
L 28.609375 0 
L 18.3125 0 
L 43.21875 64.59375 
L 8.203125 64.59375 
z
" id="DejaVuSans-55"/>
      </defs>
      <g transform="translate(173.73132 287.910437)scale(0.1 -0.1)">
       <use xlink:href="#DejaVuSans-55"/>
       <use x="63.623047" xlink:href="#DejaVuSans-53"/>
      </g>
     </g>
    </g>
    <g id="xtick_5">
     <g id="line2d_5">
      <g>
       <use style="stroke:#000000;stroke-width:0.8;" x="222.147518" xlink:href="#mb0135a6ce9" y="273.312"/>
      </g>
     </g>
     <g id="text_5">
      <!-- 100 -->
      <defs>
       <path d="M 12.40625 8.296875 
L 28.515625 8.296875 
L 28.515625 63.921875 
L 10.984375 60.40625 
L 10.984375 69.390625 
L 28.421875 72.90625 
L 38.28125 72.90625 
L 38.28125 8.296875 
L 54.390625 8.296875 
L 54.390625 0 
L 12.40625 0 
z
" id="DejaVuSans-49"/>
      </defs>
      <g transform="translate(212.603768 287.910437)scale(0.1 -0.1)">
       <use xlink:href="#DejaVuSans-49"/>
       <use x="63.623047" xlink:href="#DejaVuSans-48"/>
       <use x="127.246094" xlink:href="#DejaVuSans-48"/>
      </g>
     </g>
    </g>
    <g id="xtick_6">
     <g id="line2d_6">
      <g>
       <use style="stroke:#000000;stroke-width:0.8;" x="264.201215" xlink:href="#mb0135a6ce9" y="273.312"/>
      </g>
     </g>
     <g id="text_6">
      <!-- 125 -->
      <g transform="translate(254.657465 287.910437)scale(0.1 -0.1)">
       <use xlink:href="#DejaVuSans-49"/>
       <use x="63.623047" xlink:href="#DejaVuSans-50"/>
       <use x="127.246094" xlink:href="#DejaVuSans-53"/>
      </g>
     </g>
    </g>
    <g id="xtick_7">
     <g id="line2d_7">
      <g>
       <use style="stroke:#000000;stroke-width:0.8;" x="306.254913" xlink:href="#mb0135a6ce9" y="273.312"/>
      </g>
     </g>
     <g id="text_7">
      <!-- 150 -->
      <g transform="translate(296.711163 287.910437)scale(0.1 -0.1)">
       <use xlink:href="#DejaVuSans-49"/>
       <use x="63.623047" xlink:href="#DejaVuSans-53"/>
       <use x="127.246094" xlink:href="#DejaVuSans-48"/>
      </g>
     </g>
    </g>
    <g id="xtick_8">
     <g id="line2d_8">
      <g>
       <use style="stroke:#000000;stroke-width:0.8;" x="348.30861" xlink:href="#mb0135a6ce9" y="273.312"/>
      </g>
     </g>
     <g id="text_8">
      <!-- 175 -->
      <g transform="translate(338.76486 287.910437)scale(0.1 -0.1)">
       <use xlink:href="#DejaVuSans-49"/>
       <use x="63.623047" xlink:href="#DejaVuSans-55"/>
       <use x="127.246094" xlink:href="#DejaVuSans-53"/>
      </g>
     </g>
    </g>
    <g id="xtick_9">
     <g id="line2d_9">
      <g>
       <use style="stroke:#000000;stroke-width:0.8;" x="390.362308" xlink:href="#mb0135a6ce9" y="273.312"/>
      </g>
     </g>
     <g id="text_9">
      <!-- 200 -->
      <g transform="translate(380.818558 287.910437)scale(0.1 -0.1)">
       <use xlink:href="#DejaVuSans-50"/>
       <use x="63.623047" xlink:href="#DejaVuSans-48"/>
       <use x="127.246094" xlink:href="#DejaVuSans-48"/>
      </g>
     </g>
    </g>
    <g id="text_10">
     <!-- $ k $ -->
     <defs>
      <path d="M 18.3125 75.984375 
L 27.296875 75.984375 
L 18.703125 31.6875 
L 49.515625 54.6875 
L 61.1875 54.6875 
L 26.8125 28.515625 
L 51.90625 0 
L 41.015625 0 
L 17.671875 26.703125 
L 12.5 0 
L 3.515625 0 
z
" id="DejaVuSans-Oblique-107"/>
     </defs>
     <g transform="translate(213.36 301.588562)scale(0.1 -0.1)">
      <use transform="translate(0 0.015625)" xlink:href="#DejaVuSans-Oblique-107"/>
     </g>
    </g>
   </g>
   <g id="matplotlib.axis_2">
    <g id="ytick_1">
     <g id="line2d_10">
      <defs>
       <path d="M 0 0 
L -3.5 0 
" id="m7684502e40" style="stroke:#000000;stroke-width:0.8;"/>
      </defs>
      <g>
       <use style="stroke:#000000;stroke-width:0.8;" x="37.7" xlink:href="#m7684502e40" y="273.18467"/>
      </g>
     </g>
     <g id="text_11">
      <!-- $\mathdefault{10^{-5}}$ -->
      <defs>
       <path d="M 10.59375 35.5 
L 73.1875 35.5 
L 73.1875 27.203125 
L 10.59375 27.203125 
z
" id="DejaVuSans-8722"/>
      </defs>
      <g transform="translate(7.2 276.983888)scale(0.1 -0.1)">
       <use transform="translate(0 0.684375)" xlink:href="#DejaVuSans-49"/>
       <use transform="translate(63.623047 0.684375)" xlink:href="#DejaVuSans-48"/>
       <use transform="translate(128.203125 38.965625)scale(0.7)" xlink:href="#DejaVuSans-8722"/>
       <use transform="translate(186.855469 38.965625)scale(0.7)" xlink:href="#DejaVuSans-53"/>
      </g>
     </g>
    </g>
    <g id="ytick_2">
     <g id="line2d_11">
      <g>
       <use style="stroke:#000000;stroke-width:0.8;" x="37.7" xlink:href="#m7684502e40" y="233.220336"/>
      </g>
     </g>
     <g id="text_12">
      <!-- $\mathdefault{10^{-4}}$ -->
      <defs>
       <path d="M 37.796875 64.3125 
L 12.890625 25.390625 
L 37.796875 25.390625 
z
M 35.203125 72.90625 
L 47.609375 72.90625 
L 47.609375 25.390625 
L 58.015625 25.390625 
L 58.015625 17.1875 
L 47.609375 17.1875 
L 47.609375 0 
L 37.796875 0 
L 37.796875 17.1875 
L 4.890625 17.1875 
L 4.890625 26.703125 
z
" id="DejaVuSans-52"/>
      </defs>
      <g transform="translate(7.2 237.019555)scale(0.1 -0.1)">
       <use transform="translate(0 0.684375)" xlink:href="#DejaVuSans-49"/>
       <use transform="translate(63.623047 0.684375)" xlink:href="#DejaVuSans-48"/>
       <use transform="translate(128.203125 38.965625)scale(0.7)" xlink:href="#DejaVuSans-8722"/>
       <use transform="translate(186.855469 38.965625)scale(0.7)" xlink:href="#DejaVuSans-52"/>
      </g>
     </g>
    </g>
    <g id="ytick_3">
     <g id="line2d_12">
      <g>
       <use style="stroke:#000000;stroke-width:0.8;" x="37.7" xlink:href="#m7684502e40" y="193.256002"/>
      </g>
     </g>
     <g id="text_13">
      <!-- $\mathdefault{10^{-3}}$ -->
      <defs>
       <path d="M 40.578125 39.3125 
Q 47.65625 37.796875 51.625 33 
Q 55.609375 28.21875 55.609375 21.1875 
Q 55.609375 10.40625 48.1875 4.484375 
Q 40.765625 -1.421875 27.09375 -1.421875 
Q 22.515625 -1.421875 17.65625 -0.515625 
Q 12.796875 0.390625 7.625 2.203125 
L 7.625 11.71875 
Q 11.71875 9.328125 16.59375 8.109375 
Q 21.484375 6.890625 26.8125 6.890625 
Q 36.078125 6.890625 40.9375 10.546875 
Q 45.796875 14.203125 45.796875 21.1875 
Q 45.796875 27.640625 41.28125 31.265625 
Q 36.765625 34.90625 28.71875 34.90625 
L 20.21875 34.90625 
L 20.21875 43.015625 
L 29.109375 43.015625 
Q 36.375 43.015625 40.234375 45.921875 
Q 44.09375 48.828125 44.09375 54.296875 
Q 44.09375 59.90625 40.109375 62.90625 
Q 36.140625 65.921875 28.71875 65.921875 
Q 24.65625 65.921875 20.015625 65.03125 
Q 15.375 64.15625 9.8125 62.3125 
L 9.8125 71.09375 
Q 15.4375 72.65625 20.34375 73.4375 
Q 25.25 74.21875 29.59375 74.21875 
Q 40.828125 74.21875 47.359375 69.109375 
Q 53.90625 64.015625 53.90625 55.328125 
Q 53.90625 49.265625 50.4375 45.09375 
Q 46.96875 40.921875 40.578125 39.3125 
z
" id="DejaVuSans-51"/>
      </defs>
      <g transform="translate(7.2 197.055221)scale(0.1 -0.1)">
       <use transform="translate(0 0.765625)" xlink:href="#DejaVuSans-49"/>
       <use transform="translate(63.623047 0.765625)" xlink:href="#DejaVuSans-48"/>
       <use transform="translate(128.203125 39.046875)scale(0.7)" xlink:href="#DejaVuSans-8722"/>
       <use transform="translate(186.855469 39.046875)scale(0.7)" xlink:href="#DejaVuSans-51"/>
      </g>
     </g>
    </g>
    <g id="ytick_4">
     <g id="line2d_13">
      <g>
       <use style="stroke:#000000;stroke-width:0.8;" x="37.7" xlink:href="#m7684502e40" y="153.291668"/>
      </g>
     </g>
     <g id="text_14">
      <!-- $\mathdefault{10^{-2}}$ -->
      <g transform="translate(7.2 157.090887)scale(0.1 -0.1)">
       <use transform="translate(0 0.765625)" xlink:href="#DejaVuSans-49"/>
       <use transform="translate(63.623047 0.765625)" xlink:href="#DejaVuSans-48"/>
       <use transform="translate(128.203125 39.046875)scale(0.7)" xlink:href="#DejaVuSans-8722"/>
       <use transform="translate(186.855469 39.046875)scale(0.7)" xlink:href="#DejaVuSans-50"/>
      </g>
     </g>
    </g>
    <g id="ytick_5">
     <g id="line2d_14">
      <g>
       <use style="stroke:#000000;stroke-width:0.8;" x="37.7" xlink:href="#m7684502e40" y="113.327334"/>
      </g>
     </g>
     <g id="text_15">
      <!-- $\mathdefault{10^{-1}}$ -->
      <g transform="translate(7.2 117.126553)scale(0.1 -0.1)">
       <use transform="translate(0 0.684375)" xlink:href="#DejaVuSans-49"/>
       <use transform="translate(63.623047 0.684375)" xlink:href="#DejaVuSans-48"/>
       <use transform="translate(128.203125 38.965625)scale(0.7)" xlink:href="#DejaVuSans-8722"/>
       <use transform="translate(186.855469 38.965625)scale(0.7)" xlink:href="#DejaVuSans-49"/>
      </g>
     </g>
    </g>
    <g id="ytick_6">
     <g id="line2d_15">
      <g>
       <use style="stroke:#000000;stroke-width:0.8;" x="37.7" xlink:href="#m7684502e40" y="73.363"/>
      </g>
     </g>
     <g id="text_16">
      <!-- $\mathdefault{10^{0}}$ -->
      <g transform="translate(13.1 77.162219)scale(0.1 -0.1)">
       <use transform="translate(0 0.765625)" xlink:href="#DejaVuSans-49"/>
       <use transform="translate(63.623047 0.765625)" xlink:href="#DejaVuSans-48"/>
       <use transform="translate(128.203125 39.046875)scale(0.7)" xlink:href="#DejaVuSans-48"/>
      </g>
     </g>
    </g>
    <g id="ytick_7">
     <g id="line2d_16">
      <g>
       <use style="stroke:#000000;stroke-width:0.8;" x="37.7" xlink:href="#m7684502e40" y="33.398667"/>
      </g>
     </g>
     <g id="text_17">
      <!-- $\mathdefault{10^{1}}$ -->
      <g transform="translate(13.1 37.197885)scale(0.1 -0.1)">
       <use transform="translate(0 0.684375)" xlink:href="#DejaVuSans-49"/>
       <use transform="translate(63.623047 0.684375)" xlink:href="#DejaVuSans-48"/>
       <use transform="translate(128.203125 38.965625)scale(0.7)" xlink:href="#DejaVuSans-49"/>
      </g>
     </g>
    </g>
    <g id="ytick_8">
     <g id="line2d_17">
      <defs>
       <path d="M 0 0 
L -2 0 
" id="m45519de6af" style="stroke:#000000;stroke-width:0.6;"/>
      </defs>
      <g>
       <use style="stroke:#000000;stroke-width:0.6;" x="37.7" xlink:href="#m45519de6af" y="261.154206"/>
      </g>
     </g>
    </g>
    <g id="ytick_9">
     <g id="line2d_18">
      <g>
       <use style="stroke:#000000;stroke-width:0.6;" x="37.7" xlink:href="#m45519de6af" y="254.116837"/>
      </g>
     </g>
    </g>
    <g id="ytick_10">
     <g id="line2d_19">
      <g>
       <use style="stroke:#000000;stroke-width:0.6;" x="37.7" xlink:href="#m45519de6af" y="249.123743"/>
      </g>
     </g>
    </g>
    <g id="ytick_11">
     <g id="line2d_20">
      <g>
       <use style="stroke:#000000;stroke-width:0.6;" x="37.7" xlink:href="#m45519de6af" y="245.250799"/>
      </g>
     </g>
    </g>
    <g id="ytick_12">
     <g id="line2d_21">
      <g>
       <use style="stroke:#000000;stroke-width:0.6;" x="37.7" xlink:href="#m45519de6af" y="242.086373"/>
      </g>
     </g>
    </g>
    <g id="ytick_13">
     <g id="line2d_22">
      <g>
       <use style="stroke:#000000;stroke-width:0.6;" x="37.7" xlink:href="#m45519de6af" y="239.410889"/>
      </g>
     </g>
    </g>
    <g id="ytick_14">
     <g id="line2d_23">
      <g>
       <use style="stroke:#000000;stroke-width:0.6;" x="37.7" xlink:href="#m45519de6af" y="237.09328"/>
      </g>
     </g>
    </g>
    <g id="ytick_15">
     <g id="line2d_24">
      <g>
       <use style="stroke:#000000;stroke-width:0.6;" x="37.7" xlink:href="#m45519de6af" y="235.049003"/>
      </g>
     </g>
    </g>
    <g id="ytick_16">
     <g id="line2d_25">
      <g>
       <use style="stroke:#000000;stroke-width:0.6;" x="37.7" xlink:href="#m45519de6af" y="221.189873"/>
      </g>
     </g>
    </g>
    <g id="ytick_17">
     <g id="line2d_26">
      <g>
       <use style="stroke:#000000;stroke-width:0.6;" x="37.7" xlink:href="#m45519de6af" y="214.152503"/>
      </g>
     </g>
    </g>
    <g id="ytick_18">
     <g id="line2d_27">
      <g>
       <use style="stroke:#000000;stroke-width:0.6;" x="37.7" xlink:href="#m45519de6af" y="209.159409"/>
      </g>
     </g>
    </g>
    <g id="ytick_19">
     <g id="line2d_28">
      <g>
       <use style="stroke:#000000;stroke-width:0.6;" x="37.7" xlink:href="#m45519de6af" y="205.286465"/>
      </g>
     </g>
    </g>
    <g id="ytick_20">
     <g id="line2d_29">
      <g>
       <use style="stroke:#000000;stroke-width:0.6;" x="37.7" xlink:href="#m45519de6af" y="202.12204"/>
      </g>
     </g>
    </g>
    <g id="ytick_21">
     <g id="line2d_30">
      <g>
       <use style="stroke:#000000;stroke-width:0.6;" x="37.7" xlink:href="#m45519de6af" y="199.446556"/>
      </g>
     </g>
    </g>
    <g id="ytick_22">
     <g id="line2d_31">
      <g>
       <use style="stroke:#000000;stroke-width:0.6;" x="37.7" xlink:href="#m45519de6af" y="197.128946"/>
      </g>
     </g>
    </g>
    <g id="ytick_23">
     <g id="line2d_32">
      <g>
       <use style="stroke:#000000;stroke-width:0.6;" x="37.7" xlink:href="#m45519de6af" y="195.08467"/>
      </g>
     </g>
    </g>
    <g id="ytick_24">
     <g id="line2d_33">
      <g>
       <use style="stroke:#000000;stroke-width:0.6;" x="37.7" xlink:href="#m45519de6af" y="181.225539"/>
      </g>
     </g>
    </g>
    <g id="ytick_25">
     <g id="line2d_34">
      <g>
       <use style="stroke:#000000;stroke-width:0.6;" x="37.7" xlink:href="#m45519de6af" y="174.188169"/>
      </g>
     </g>
    </g>
    <g id="ytick_26">
     <g id="line2d_35">
      <g>
       <use style="stroke:#000000;stroke-width:0.6;" x="37.7" xlink:href="#m45519de6af" y="169.195076"/>
      </g>
     </g>
    </g>
    <g id="ytick_27">
     <g id="line2d_36">
      <g>
       <use style="stroke:#000000;stroke-width:0.6;" x="37.7" xlink:href="#m45519de6af" y="165.322131"/>
      </g>
     </g>
    </g>
    <g id="ytick_28">
     <g id="line2d_37">
      <g>
       <use style="stroke:#000000;stroke-width:0.6;" x="37.7" xlink:href="#m45519de6af" y="162.157706"/>
      </g>
     </g>
    </g>
    <g id="ytick_29">
     <g id="line2d_38">
      <g>
       <use style="stroke:#000000;stroke-width:0.6;" x="37.7" xlink:href="#m45519de6af" y="159.482222"/>
      </g>
     </g>
    </g>
    <g id="ytick_30">
     <g id="line2d_39">
      <g>
       <use style="stroke:#000000;stroke-width:0.6;" x="37.7" xlink:href="#m45519de6af" y="157.164612"/>
      </g>
     </g>
    </g>
    <g id="ytick_31">
     <g id="line2d_40">
      <g>
       <use style="stroke:#000000;stroke-width:0.6;" x="37.7" xlink:href="#m45519de6af" y="155.120336"/>
      </g>
     </g>
    </g>
    <g id="ytick_32">
     <g id="line2d_41">
      <g>
       <use style="stroke:#000000;stroke-width:0.6;" x="37.7" xlink:href="#m45519de6af" y="141.261205"/>
      </g>
     </g>
    </g>
    <g id="ytick_33">
     <g id="line2d_42">
      <g>
       <use style="stroke:#000000;stroke-width:0.6;" x="37.7" xlink:href="#m45519de6af" y="134.223835"/>
      </g>
     </g>
    </g>
    <g id="ytick_34">
     <g id="line2d_43">
      <g>
       <use style="stroke:#000000;stroke-width:0.6;" x="37.7" xlink:href="#m45519de6af" y="129.230742"/>
      </g>
     </g>
    </g>
    <g id="ytick_35">
     <g id="line2d_44">
      <g>
       <use style="stroke:#000000;stroke-width:0.6;" x="37.7" xlink:href="#m45519de6af" y="125.357798"/>
      </g>
     </g>
    </g>
    <g id="ytick_36">
     <g id="line2d_45">
      <g>
       <use style="stroke:#000000;stroke-width:0.6;" x="37.7" xlink:href="#m45519de6af" y="122.193372"/>
      </g>
     </g>
    </g>
    <g id="ytick_37">
     <g id="line2d_46">
      <g>
       <use style="stroke:#000000;stroke-width:0.6;" x="37.7" xlink:href="#m45519de6af" y="119.517888"/>
      </g>
     </g>
    </g>
    <g id="ytick_38">
     <g id="line2d_47">
      <g>
       <use style="stroke:#000000;stroke-width:0.6;" x="37.7" xlink:href="#m45519de6af" y="117.200278"/>
      </g>
     </g>
    </g>
    <g id="ytick_39">
     <g id="line2d_48">
      <g>
       <use style="stroke:#000000;stroke-width:0.6;" x="37.7" xlink:href="#m45519de6af" y="115.156002"/>
      </g>
     </g>
    </g>
    <g id="ytick_40">
     <g id="line2d_49">
      <g>
       <use style="stroke:#000000;stroke-width:0.6;" x="37.7" xlink:href="#m45519de6af" y="101.296871"/>
      </g>
     </g>
    </g>
    <g id="ytick_41">
     <g id="line2d_50">
      <g>
       <use style="stroke:#000000;stroke-width:0.6;" x="37.7" xlink:href="#m45519de6af" y="94.259501"/>
      </g>
     </g>
    </g>
    <g id="ytick_42">
     <g id="line2d_51">
      <g>
       <use style="stroke:#000000;stroke-width:0.6;" x="37.7" xlink:href="#m45519de6af" y="89.266408"/>
      </g>
     </g>
    </g>
    <g id="ytick_43">
     <g id="line2d_52">
      <g>
       <use style="stroke:#000000;stroke-width:0.6;" x="37.7" xlink:href="#m45519de6af" y="85.393464"/>
      </g>
     </g>
    </g>
    <g id="ytick_44">
     <g id="line2d_53">
      <g>
       <use style="stroke:#000000;stroke-width:0.6;" x="37.7" xlink:href="#m45519de6af" y="82.229038"/>
      </g>
     </g>
    </g>
    <g id="ytick_45">
     <g id="line2d_54">
      <g>
       <use style="stroke:#000000;stroke-width:0.6;" x="37.7" xlink:href="#m45519de6af" y="79.553554"/>
      </g>
     </g>
    </g>
    <g id="ytick_46">
     <g id="line2d_55">
      <g>
       <use style="stroke:#000000;stroke-width:0.6;" x="37.7" xlink:href="#m45519de6af" y="77.235945"/>
      </g>
     </g>
    </g>
    <g id="ytick_47">
     <g id="line2d_56">
      <g>
       <use style="stroke:#000000;stroke-width:0.6;" x="37.7" xlink:href="#m45519de6af" y="75.191668"/>
      </g>
     </g>
    </g>
    <g id="ytick_48">
     <g id="line2d_57">
      <g>
       <use style="stroke:#000000;stroke-width:0.6;" x="37.7" xlink:href="#m45519de6af" y="61.332537"/>
      </g>
     </g>
    </g>
    <g id="ytick_49">
     <g id="line2d_58">
      <g>
       <use style="stroke:#000000;stroke-width:0.6;" x="37.7" xlink:href="#m45519de6af" y="54.295167"/>
      </g>
     </g>
    </g>
    <g id="ytick_50">
     <g id="line2d_59">
      <g>
       <use style="stroke:#000000;stroke-width:0.6;" x="37.7" xlink:href="#m45519de6af" y="49.302074"/>
      </g>
     </g>
    </g>
    <g id="ytick_51">
     <g id="line2d_60">
      <g>
       <use style="stroke:#000000;stroke-width:0.6;" x="37.7" xlink:href="#m45519de6af" y="45.42913"/>
      </g>
     </g>
    </g>
    <g id="ytick_52">
     <g id="line2d_61">
      <g>
       <use style="stroke:#000000;stroke-width:0.6;" x="37.7" xlink:href="#m45519de6af" y="42.264704"/>
      </g>
     </g>
    </g>
    <g id="ytick_53">
     <g id="line2d_62">
      <g>
       <use style="stroke:#000000;stroke-width:0.6;" x="37.7" xlink:href="#m45519de6af" y="39.58922"/>
      </g>
     </g>
    </g>
    <g id="ytick_54">
     <g id="line2d_63">
      <g>
       <use style="stroke:#000000;stroke-width:0.6;" x="37.7" xlink:href="#m45519de6af" y="37.271611"/>
      </g>
     </g>
    </g>
    <g id="ytick_55">
     <g id="line2d_64">
      <g>
       <use style="stroke:#000000;stroke-width:0.6;" x="37.7" xlink:href="#m45519de6af" y="35.227334"/>
      </g>
     </g>
    </g>
    <g id="ytick_56">
     <g id="line2d_65">
      <g>
       <use style="stroke:#000000;stroke-width:0.6;" x="37.7" xlink:href="#m45519de6af" y="21.368203"/>
      </g>
     </g>
    </g>
    <g id="ytick_57">
     <g id="line2d_66">
      <g>
       <use style="stroke:#000000;stroke-width:0.6;" x="37.7" xlink:href="#m45519de6af" y="14.330834"/>
      </g>
     </g>
    </g>
    <g id="ytick_58">
     <g id="line2d_67">
      <g>
       <use style="stroke:#000000;stroke-width:0.6;" x="37.7" xlink:href="#m45519de6af" y="9.33774"/>
      </g>
     </g>
    </g>
   </g>
   <g id="line2d_68">
    <path clip-path="url(#p3fd5325121)" d="M 53.932727 19.296 
L 55.614875 68.885484 
L 57.297023 107.455677 
L 60.661319 190.545439 
L 62.343467 203.971939 
L 64.025615 192.351234 
L 65.707763 213.048417 
L 67.389911 195.047369 
L 69.072058 185.933145 
L 70.754206 198.471222 
L 72.436354 193.044754 
L 74.118502 185.176667 
L 75.80065 197.339182 
L 77.482798 207.76831 
L 79.164946 194.721131 
L 80.847094 202.739266 
L 82.529242 202.094914 
L 84.21139 195.339603 
L 85.893537 205.642028 
L 87.575685 195.818013 
L 89.257833 202.667896 
L 90.939981 195.877935 
L 92.622129 184.953678 
L 94.304277 188.686924 
L 95.986425 204.044609 
L 97.668573 194.007145 
L 99.350721 192.110642 
L 101.032869 210.340484 
L 102.715016 197.724438 
L 104.397164 231.274338 
L 106.079312 212.766493 
L 107.76146 204.166302 
L 109.443608 188.607094 
L 111.125756 198.235597 
L 112.807904 195.118181 
L 114.490052 203.356888 
L 116.1722 207.958013 
L 117.854348 226.436205 
L 119.536496 217.471055 
L 121.218643 190.365402 
L 122.900791 215.408938 
L 124.582939 176.1352 
L 126.265087 216.047628 
L 129.629383 189.453073 
L 131.311531 191.483623 
L 132.993679 200.086349 
L 134.675827 202.660552 
L 136.357975 213.096226 
L 138.040122 203.302831 
L 139.72227 211.228486 
L 141.404418 190.279029 
L 143.086566 236.300939 
L 144.768714 227.899206 
L 146.450862 189.808182 
L 148.13301 195.099998 
L 149.815158 207.353868 
L 151.497306 225.039518 
L 153.179454 191.988726 
L 154.861602 194.112082 
L 156.543749 207.142315 
L 158.225897 201.264317 
L 159.908045 196.343352 
L 161.590193 215.269381 
L 163.272341 209.852793 
L 164.954489 197.758157 
L 166.636637 200.709022 
L 168.318785 195.586818 
L 170.000933 233.849978 
L 171.683081 205.740052 
L 173.365228 186.861945 
L 175.047376 184.242443 
L 176.729524 204.693174 
L 178.411672 195.061285 
L 180.09382 208.236851 
L 181.775968 212.492734 
L 183.458116 197.075587 
L 185.140264 196.104805 
L 186.822412 188.009041 
L 188.50456 188.475993 
L 190.186707 185.697305 
L 191.868855 196.665511 
L 193.551003 222.740506 
L 195.233151 207.833671 
L 196.915299 191.801717 
L 198.597447 233.73528 
L 200.279595 191.24723 
L 203.643891 216.872664 
L 205.326039 193.236351 
L 207.008187 230.577778 
L 210.372482 183.176088 
L 212.05463 261.216 
L 213.736778 188.705867 
L 215.418926 219.943959 
L 217.101074 180.54554 
L 218.783222 193.46424 
L 220.46537 213.654261 
L 222.147518 201.388985 
L 223.829666 194.53092 
L 225.511813 194.455013 
L 227.193961 191.73351 
L 228.876109 199.838951 
L 230.558257 207.061346 
L 232.240405 189.369443 
L 233.922553 232.14976 
L 235.604701 197.687341 
L 237.286849 190.780575 
L 238.968997 257.268779 
L 240.651145 190.864585 
L 242.333293 206.361128 
L 244.01544 191.389404 
L 245.697588 217.027985 
L 247.379736 192.653463 
L 249.061884 178.397279 
L 250.744032 200.245793 
L 252.42618 237.003806 
L 254.108328 184.628493 
L 255.790476 186.31234 
L 257.472624 223.904347 
L 259.154772 194.088232 
L 260.836919 220.65335 
L 262.519067 203.553259 
L 264.201215 211.148383 
L 265.883363 189.217806 
L 267.565511 186.08561 
L 269.247659 208.64628 
L 270.929807 234.246331 
L 272.611955 186.880024 
L 274.294103 225.724102 
L 275.976251 184.762321 
L 277.658398 228.078044 
L 279.340546 184.526884 
L 282.704842 203.44399 
L 284.38699 211.14334 
L 286.069138 192.400713 
L 287.751286 215.336117 
L 289.433434 190.092775 
L 291.115582 190.023565 
L 292.79773 210.674889 
L 294.479878 205.012729 
L 296.162025 228.171723 
L 297.844173 205.154855 
L 299.526321 200.071878 
L 301.208469 193.670251 
L 302.890617 196.802052 
L 304.572765 235.340903 
L 306.254913 183.956314 
L 307.937061 195.535227 
L 309.619209 199.067068 
L 311.301357 182.723658 
L 312.983504 202.970089 
L 314.665652 205.696082 
L 316.3478 182.910296 
L 318.029948 215.32936 
L 319.712096 211.053635 
L 321.394244 195.853004 
L 323.076392 191.050129 
L 324.75854 196.200584 
L 326.440688 202.810767 
L 328.122836 184.561981 
L 329.804984 184.473929 
L 331.487131 194.763104 
L 333.169279 189.260607 
L 334.851427 208.216261 
L 336.533575 187.295336 
L 338.215723 220.932576 
L 339.897871 191.907706 
L 341.580019 204.269387 
L 343.262167 186.77751 
L 344.944315 206.73573 
L 346.626463 198.75035 
L 348.30861 185.824757 
L 349.990758 215.250065 
L 351.672906 210.265393 
L 353.355054 189.574612 
L 355.037202 202.726707 
L 356.71935 209.582103 
L 358.401498 205.590496 
L 360.083646 193.550148 
L 361.765794 196.805378 
L 363.447942 203.368199 
L 365.130089 193.439432 
L 366.812237 207.721532 
L 368.494385 197.278207 
L 370.176533 214.76871 
L 371.858681 205.046901 
L 373.540829 207.410863 
L 375.222977 193.898281 
L 375.227957 311.86825 
L 375.227957 311.86825 
" style="fill:none;stroke:#1f77b4;stroke-linecap:square;stroke-width:1.5;"/>
    <defs>
     <path d="M 0 3 
C 0.795609 3 1.55874 2.683901 2.12132 2.12132 
C 2.683901 1.55874 3 0.795609 3 0 
C 3 -0.795609 2.683901 -1.55874 2.12132 -2.12132 
C 1.55874 -2.683901 0.795609 -3 0 -3 
C -0.795609 -3 -1.55874 -2.683901 -2.12132 -2.12132 
C -2.683901 -1.55874 -3 -0.795609 -3 0 
C -3 0.795609 -2.683901 1.55874 -2.12132 2.12132 
C -1.55874 2.683901 -0.795609 3 0 3 
z
" id="m542a58bd01" style="stroke:#1f77b4;"/>
    </defs>
    <g clip-path="url(#p3fd5325121)">
     <use style="fill:#1f77b4;stroke:#1f77b4;" x="53.932727" xlink:href="#m542a58bd01" y="19.296"/>
     <use style="fill:#1f77b4;stroke:#1f77b4;" x="55.614875" xlink:href="#m542a58bd01" y="68.885484"/>
     <use style="fill:#1f77b4;stroke:#1f77b4;" x="57.297023" xlink:href="#m542a58bd01" y="107.455677"/>
     <use style="fill:#1f77b4;stroke:#1f77b4;" x="58.979171" xlink:href="#m542a58bd01" y="149.573271"/>
     <use style="fill:#1f77b4;stroke:#1f77b4;" x="60.661319" xlink:href="#m542a58bd01" y="190.545439"/>
     <use style="fill:#1f77b4;stroke:#1f77b4;" x="62.343467" xlink:href="#m542a58bd01" y="203.971939"/>
     <use style="fill:#1f77b4;stroke:#1f77b4;" x="64.025615" xlink:href="#m542a58bd01" y="192.351234"/>
     <use style="fill:#1f77b4;stroke:#1f77b4;" x="65.707763" xlink:href="#m542a58bd01" y="213.048417"/>
     <use style="fill:#1f77b4;stroke:#1f77b4;" x="67.389911" xlink:href="#m542a58bd01" y="195.047369"/>
     <use style="fill:#1f77b4;stroke:#1f77b4;" x="69.072058" xlink:href="#m542a58bd01" y="185.933145"/>
     <use style="fill:#1f77b4;stroke:#1f77b4;" x="70.754206" xlink:href="#m542a58bd01" y="198.471222"/>
     <use style="fill:#1f77b4;stroke:#1f77b4;" x="72.436354" xlink:href="#m542a58bd01" y="193.044754"/>
     <use style="fill:#1f77b4;stroke:#1f77b4;" x="74.118502" xlink:href="#m542a58bd01" y="185.176667"/>
     <use style="fill:#1f77b4;stroke:#1f77b4;" x="75.80065" xlink:href="#m542a58bd01" y="197.339182"/>
     <use style="fill:#1f77b4;stroke:#1f77b4;" x="77.482798" xlink:href="#m542a58bd01" y="207.76831"/>
     <use style="fill:#1f77b4;stroke:#1f77b4;" x="79.164946" xlink:href="#m542a58bd01" y="194.721131"/>
     <use style="fill:#1f77b4;stroke:#1f77b4;" x="80.847094" xlink:href="#m542a58bd01" y="202.739266"/>
     <use style="fill:#1f77b4;stroke:#1f77b4;" x="82.529242" xlink:href="#m542a58bd01" y="202.094914"/>
     <use style="fill:#1f77b4;stroke:#1f77b4;" x="84.21139" xlink:href="#m542a58bd01" y="195.339603"/>
     <use style="fill:#1f77b4;stroke:#1f77b4;" x="85.893537" xlink:href="#m542a58bd01" y="205.642028"/>
     <use style="fill:#1f77b4;stroke:#1f77b4;" x="87.575685" xlink:href="#m542a58bd01" y="195.818013"/>
     <use style="fill:#1f77b4;stroke:#1f77b4;" x="89.257833" xlink:href="#m542a58bd01" y="202.667896"/>
     <use style="fill:#1f77b4;stroke:#1f77b4;" x="90.939981" xlink:href="#m542a58bd01" y="195.877935"/>
     <use style="fill:#1f77b4;stroke:#1f77b4;" x="92.622129" xlink:href="#m542a58bd01" y="184.953678"/>
     <use style="fill:#1f77b4;stroke:#1f77b4;" x="94.304277" xlink:href="#m542a58bd01" y="188.686924"/>
     <use style="fill:#1f77b4;stroke:#1f77b4;" x="95.986425" xlink:href="#m542a58bd01" y="204.044609"/>
     <use style="fill:#1f77b4;stroke:#1f77b4;" x="97.668573" xlink:href="#m542a58bd01" y="194.007145"/>
     <use style="fill:#1f77b4;stroke:#1f77b4;" x="99.350721" xlink:href="#m542a58bd01" y="192.110642"/>
     <use style="fill:#1f77b4;stroke:#1f77b4;" x="101.032869" xlink:href="#m542a58bd01" y="210.340484"/>
     <use style="fill:#1f77b4;stroke:#1f77b4;" x="102.715016" xlink:href="#m542a58bd01" y="197.724438"/>
     <use style="fill:#1f77b4;stroke:#1f77b4;" x="104.397164" xlink:href="#m542a58bd01" y="231.274338"/>
     <use style="fill:#1f77b4;stroke:#1f77b4;" x="106.079312" xlink:href="#m542a58bd01" y="212.766493"/>
     <use style="fill:#1f77b4;stroke:#1f77b4;" x="107.76146" xlink:href="#m542a58bd01" y="204.166302"/>
     <use style="fill:#1f77b4;stroke:#1f77b4;" x="109.443608" xlink:href="#m542a58bd01" y="188.607094"/>
     <use style="fill:#1f77b4;stroke:#1f77b4;" x="111.125756" xlink:href="#m542a58bd01" y="198.235597"/>
     <use style="fill:#1f77b4;stroke:#1f77b4;" x="112.807904" xlink:href="#m542a58bd01" y="195.118181"/>
     <use style="fill:#1f77b4;stroke:#1f77b4;" x="114.490052" xlink:href="#m542a58bd01" y="203.356888"/>
     <use style="fill:#1f77b4;stroke:#1f77b4;" x="116.1722" xlink:href="#m542a58bd01" y="207.958013"/>
     <use style="fill:#1f77b4;stroke:#1f77b4;" x="117.854348" xlink:href="#m542a58bd01" y="226.436205"/>
     <use style="fill:#1f77b4;stroke:#1f77b4;" x="119.536496" xlink:href="#m542a58bd01" y="217.471055"/>
     <use style="fill:#1f77b4;stroke:#1f77b4;" x="121.218643" xlink:href="#m542a58bd01" y="190.365402"/>
     <use style="fill:#1f77b4;stroke:#1f77b4;" x="122.900791" xlink:href="#m542a58bd01" y="215.408938"/>
     <use style="fill:#1f77b4;stroke:#1f77b4;" x="124.582939" xlink:href="#m542a58bd01" y="176.1352"/>
     <use style="fill:#1f77b4;stroke:#1f77b4;" x="126.265087" xlink:href="#m542a58bd01" y="216.047628"/>
     <use style="fill:#1f77b4;stroke:#1f77b4;" x="127.947235" xlink:href="#m542a58bd01" y="202.382055"/>
     <use style="fill:#1f77b4;stroke:#1f77b4;" x="129.629383" xlink:href="#m542a58bd01" y="189.453073"/>
     <use style="fill:#1f77b4;stroke:#1f77b4;" x="131.311531" xlink:href="#m542a58bd01" y="191.483623"/>
     <use style="fill:#1f77b4;stroke:#1f77b4;" x="132.993679" xlink:href="#m542a58bd01" y="200.086349"/>
     <use style="fill:#1f77b4;stroke:#1f77b4;" x="134.675827" xlink:href="#m542a58bd01" y="202.660552"/>
     <use style="fill:#1f77b4;stroke:#1f77b4;" x="136.357975" xlink:href="#m542a58bd01" y="213.096226"/>
     <use style="fill:#1f77b4;stroke:#1f77b4;" x="138.040122" xlink:href="#m542a58bd01" y="203.302831"/>
     <use style="fill:#1f77b4;stroke:#1f77b4;" x="139.72227" xlink:href="#m542a58bd01" y="211.228486"/>
     <use style="fill:#1f77b4;stroke:#1f77b4;" x="141.404418" xlink:href="#m542a58bd01" y="190.279029"/>
     <use style="fill:#1f77b4;stroke:#1f77b4;" x="143.086566" xlink:href="#m542a58bd01" y="236.300939"/>
     <use style="fill:#1f77b4;stroke:#1f77b4;" x="144.768714" xlink:href="#m542a58bd01" y="227.899206"/>
     <use style="fill:#1f77b4;stroke:#1f77b4;" x="146.450862" xlink:href="#m542a58bd01" y="189.808182"/>
     <use style="fill:#1f77b4;stroke:#1f77b4;" x="148.13301" xlink:href="#m542a58bd01" y="195.099998"/>
     <use style="fill:#1f77b4;stroke:#1f77b4;" x="149.815158" xlink:href="#m542a58bd01" y="207.353868"/>
     <use style="fill:#1f77b4;stroke:#1f77b4;" x="151.497306" xlink:href="#m542a58bd01" y="225.039518"/>
     <use style="fill:#1f77b4;stroke:#1f77b4;" x="153.179454" xlink:href="#m542a58bd01" y="191.988726"/>
     <use style="fill:#1f77b4;stroke:#1f77b4;" x="154.861602" xlink:href="#m542a58bd01" y="194.112082"/>
     <use style="fill:#1f77b4;stroke:#1f77b4;" x="156.543749" xlink:href="#m542a58bd01" y="207.142315"/>
     <use style="fill:#1f77b4;stroke:#1f77b4;" x="158.225897" xlink:href="#m542a58bd01" y="201.264317"/>
     <use style="fill:#1f77b4;stroke:#1f77b4;" x="159.908045" xlink:href="#m542a58bd01" y="196.343352"/>
     <use style="fill:#1f77b4;stroke:#1f77b4;" x="161.590193" xlink:href="#m542a58bd01" y="215.269381"/>
     <use style="fill:#1f77b4;stroke:#1f77b4;" x="163.272341" xlink:href="#m542a58bd01" y="209.852793"/>
     <use style="fill:#1f77b4;stroke:#1f77b4;" x="164.954489" xlink:href="#m542a58bd01" y="197.758157"/>
     <use style="fill:#1f77b4;stroke:#1f77b4;" x="166.636637" xlink:href="#m542a58bd01" y="200.709022"/>
     <use style="fill:#1f77b4;stroke:#1f77b4;" x="168.318785" xlink:href="#m542a58bd01" y="195.586818"/>
     <use style="fill:#1f77b4;stroke:#1f77b4;" x="170.000933" xlink:href="#m542a58bd01" y="233.849978"/>
     <use style="fill:#1f77b4;stroke:#1f77b4;" x="171.683081" xlink:href="#m542a58bd01" y="205.740052"/>
     <use style="fill:#1f77b4;stroke:#1f77b4;" x="173.365228" xlink:href="#m542a58bd01" y="186.861945"/>
     <use style="fill:#1f77b4;stroke:#1f77b4;" x="175.047376" xlink:href="#m542a58bd01" y="184.242443"/>
     <use style="fill:#1f77b4;stroke:#1f77b4;" x="176.729524" xlink:href="#m542a58bd01" y="204.693174"/>
     <use style="fill:#1f77b4;stroke:#1f77b4;" x="178.411672" xlink:href="#m542a58bd01" y="195.061285"/>
     <use style="fill:#1f77b4;stroke:#1f77b4;" x="180.09382" xlink:href="#m542a58bd01" y="208.236851"/>
     <use style="fill:#1f77b4;stroke:#1f77b4;" x="181.775968" xlink:href="#m542a58bd01" y="212.492734"/>
     <use style="fill:#1f77b4;stroke:#1f77b4;" x="183.458116" xlink:href="#m542a58bd01" y="197.075587"/>
     <use style="fill:#1f77b4;stroke:#1f77b4;" x="185.140264" xlink:href="#m542a58bd01" y="196.104805"/>
     <use style="fill:#1f77b4;stroke:#1f77b4;" x="186.822412" xlink:href="#m542a58bd01" y="188.009041"/>
     <use style="fill:#1f77b4;stroke:#1f77b4;" x="188.50456" xlink:href="#m542a58bd01" y="188.475993"/>
     <use style="fill:#1f77b4;stroke:#1f77b4;" x="190.186707" xlink:href="#m542a58bd01" y="185.697305"/>
     <use style="fill:#1f77b4;stroke:#1f77b4;" x="191.868855" xlink:href="#m542a58bd01" y="196.665511"/>
     <use style="fill:#1f77b4;stroke:#1f77b4;" x="193.551003" xlink:href="#m542a58bd01" y="222.740506"/>
     <use style="fill:#1f77b4;stroke:#1f77b4;" x="195.233151" xlink:href="#m542a58bd01" y="207.833671"/>
     <use style="fill:#1f77b4;stroke:#1f77b4;" x="196.915299" xlink:href="#m542a58bd01" y="191.801717"/>
     <use style="fill:#1f77b4;stroke:#1f77b4;" x="198.597447" xlink:href="#m542a58bd01" y="233.73528"/>
     <use style="fill:#1f77b4;stroke:#1f77b4;" x="200.279595" xlink:href="#m542a58bd01" y="191.24723"/>
     <use style="fill:#1f77b4;stroke:#1f77b4;" x="201.961743" xlink:href="#m542a58bd01" y="203.929294"/>
     <use style="fill:#1f77b4;stroke:#1f77b4;" x="203.643891" xlink:href="#m542a58bd01" y="216.872664"/>
     <use style="fill:#1f77b4;stroke:#1f77b4;" x="205.326039" xlink:href="#m542a58bd01" y="193.236351"/>
     <use style="fill:#1f77b4;stroke:#1f77b4;" x="207.008187" xlink:href="#m542a58bd01" y="230.577778"/>
     <use style="fill:#1f77b4;stroke:#1f77b4;" x="208.690334" xlink:href="#m542a58bd01" y="206.440131"/>
     <use style="fill:#1f77b4;stroke:#1f77b4;" x="210.372482" xlink:href="#m542a58bd01" y="183.176088"/>
     <use style="fill:#1f77b4;stroke:#1f77b4;" x="212.05463" xlink:href="#m542a58bd01" y="261.216"/>
     <use style="fill:#1f77b4;stroke:#1f77b4;" x="213.736778" xlink:href="#m542a58bd01" y="188.705867"/>
     <use style="fill:#1f77b4;stroke:#1f77b4;" x="215.418926" xlink:href="#m542a58bd01" y="219.943959"/>
     <use style="fill:#1f77b4;stroke:#1f77b4;" x="217.101074" xlink:href="#m542a58bd01" y="180.54554"/>
     <use style="fill:#1f77b4;stroke:#1f77b4;" x="218.783222" xlink:href="#m542a58bd01" y="193.46424"/>
     <use style="fill:#1f77b4;stroke:#1f77b4;" x="220.46537" xlink:href="#m542a58bd01" y="213.654261"/>
     <use style="fill:#1f77b4;stroke:#1f77b4;" x="222.147518" xlink:href="#m542a58bd01" y="201.388985"/>
     <use style="fill:#1f77b4;stroke:#1f77b4;" x="223.829666" xlink:href="#m542a58bd01" y="194.53092"/>
     <use style="fill:#1f77b4;stroke:#1f77b4;" x="225.511813" xlink:href="#m542a58bd01" y="194.455013"/>
     <use style="fill:#1f77b4;stroke:#1f77b4;" x="227.193961" xlink:href="#m542a58bd01" y="191.73351"/>
     <use style="fill:#1f77b4;stroke:#1f77b4;" x="228.876109" xlink:href="#m542a58bd01" y="199.838951"/>
     <use style="fill:#1f77b4;stroke:#1f77b4;" x="230.558257" xlink:href="#m542a58bd01" y="207.061346"/>
     <use style="fill:#1f77b4;stroke:#1f77b4;" x="232.240405" xlink:href="#m542a58bd01" y="189.369443"/>
     <use style="fill:#1f77b4;stroke:#1f77b4;" x="233.922553" xlink:href="#m542a58bd01" y="232.14976"/>
     <use style="fill:#1f77b4;stroke:#1f77b4;" x="235.604701" xlink:href="#m542a58bd01" y="197.687341"/>
     <use style="fill:#1f77b4;stroke:#1f77b4;" x="237.286849" xlink:href="#m542a58bd01" y="190.780575"/>
     <use style="fill:#1f77b4;stroke:#1f77b4;" x="238.968997" xlink:href="#m542a58bd01" y="257.268779"/>
     <use style="fill:#1f77b4;stroke:#1f77b4;" x="240.651145" xlink:href="#m542a58bd01" y="190.864585"/>
     <use style="fill:#1f77b4;stroke:#1f77b4;" x="242.333293" xlink:href="#m542a58bd01" y="206.361128"/>
     <use style="fill:#1f77b4;stroke:#1f77b4;" x="244.01544" xlink:href="#m542a58bd01" y="191.389404"/>
     <use style="fill:#1f77b4;stroke:#1f77b4;" x="245.697588" xlink:href="#m542a58bd01" y="217.027985"/>
     <use style="fill:#1f77b4;stroke:#1f77b4;" x="247.379736" xlink:href="#m542a58bd01" y="192.653463"/>
     <use style="fill:#1f77b4;stroke:#1f77b4;" x="249.061884" xlink:href="#m542a58bd01" y="178.397279"/>
     <use style="fill:#1f77b4;stroke:#1f77b4;" x="250.744032" xlink:href="#m542a58bd01" y="200.245793"/>
     <use style="fill:#1f77b4;stroke:#1f77b4;" x="252.42618" xlink:href="#m542a58bd01" y="237.003806"/>
     <use style="fill:#1f77b4;stroke:#1f77b4;" x="254.108328" xlink:href="#m542a58bd01" y="184.628493"/>
     <use style="fill:#1f77b4;stroke:#1f77b4;" x="255.790476" xlink:href="#m542a58bd01" y="186.31234"/>
     <use style="fill:#1f77b4;stroke:#1f77b4;" x="257.472624" xlink:href="#m542a58bd01" y="223.904347"/>
     <use style="fill:#1f77b4;stroke:#1f77b4;" x="259.154772" xlink:href="#m542a58bd01" y="194.088232"/>
     <use style="fill:#1f77b4;stroke:#1f77b4;" x="260.836919" xlink:href="#m542a58bd01" y="220.65335"/>
     <use style="fill:#1f77b4;stroke:#1f77b4;" x="262.519067" xlink:href="#m542a58bd01" y="203.553259"/>
     <use style="fill:#1f77b4;stroke:#1f77b4;" x="264.201215" xlink:href="#m542a58bd01" y="211.148383"/>
     <use style="fill:#1f77b4;stroke:#1f77b4;" x="265.883363" xlink:href="#m542a58bd01" y="189.217806"/>
     <use style="fill:#1f77b4;stroke:#1f77b4;" x="267.565511" xlink:href="#m542a58bd01" y="186.08561"/>
     <use style="fill:#1f77b4;stroke:#1f77b4;" x="269.247659" xlink:href="#m542a58bd01" y="208.64628"/>
     <use style="fill:#1f77b4;stroke:#1f77b4;" x="270.929807" xlink:href="#m542a58bd01" y="234.246331"/>
     <use style="fill:#1f77b4;stroke:#1f77b4;" x="272.611955" xlink:href="#m542a58bd01" y="186.880024"/>
     <use style="fill:#1f77b4;stroke:#1f77b4;" x="274.294103" xlink:href="#m542a58bd01" y="225.724102"/>
     <use style="fill:#1f77b4;stroke:#1f77b4;" x="275.976251" xlink:href="#m542a58bd01" y="184.762321"/>
     <use style="fill:#1f77b4;stroke:#1f77b4;" x="277.658398" xlink:href="#m542a58bd01" y="228.078044"/>
     <use style="fill:#1f77b4;stroke:#1f77b4;" x="279.340546" xlink:href="#m542a58bd01" y="184.526884"/>
     <use style="fill:#1f77b4;stroke:#1f77b4;" x="281.022694" xlink:href="#m542a58bd01" y="193.769245"/>
     <use style="fill:#1f77b4;stroke:#1f77b4;" x="282.704842" xlink:href="#m542a58bd01" y="203.44399"/>
     <use style="fill:#1f77b4;stroke:#1f77b4;" x="284.38699" xlink:href="#m542a58bd01" y="211.14334"/>
     <use style="fill:#1f77b4;stroke:#1f77b4;" x="286.069138" xlink:href="#m542a58bd01" y="192.400713"/>
     <use style="fill:#1f77b4;stroke:#1f77b4;" x="287.751286" xlink:href="#m542a58bd01" y="215.336117"/>
     <use style="fill:#1f77b4;stroke:#1f77b4;" x="289.433434" xlink:href="#m542a58bd01" y="190.092775"/>
     <use style="fill:#1f77b4;stroke:#1f77b4;" x="291.115582" xlink:href="#m542a58bd01" y="190.023565"/>
     <use style="fill:#1f77b4;stroke:#1f77b4;" x="292.79773" xlink:href="#m542a58bd01" y="210.674889"/>
     <use style="fill:#1f77b4;stroke:#1f77b4;" x="294.479878" xlink:href="#m542a58bd01" y="205.012729"/>
     <use style="fill:#1f77b4;stroke:#1f77b4;" x="296.162025" xlink:href="#m542a58bd01" y="228.171723"/>
     <use style="fill:#1f77b4;stroke:#1f77b4;" x="297.844173" xlink:href="#m542a58bd01" y="205.154855"/>
     <use style="fill:#1f77b4;stroke:#1f77b4;" x="299.526321" xlink:href="#m542a58bd01" y="200.071878"/>
     <use style="fill:#1f77b4;stroke:#1f77b4;" x="301.208469" xlink:href="#m542a58bd01" y="193.670251"/>
     <use style="fill:#1f77b4;stroke:#1f77b4;" x="302.890617" xlink:href="#m542a58bd01" y="196.802052"/>
     <use style="fill:#1f77b4;stroke:#1f77b4;" x="304.572765" xlink:href="#m542a58bd01" y="235.340903"/>
     <use style="fill:#1f77b4;stroke:#1f77b4;" x="306.254913" xlink:href="#m542a58bd01" y="183.956314"/>
     <use style="fill:#1f77b4;stroke:#1f77b4;" x="307.937061" xlink:href="#m542a58bd01" y="195.535227"/>
     <use style="fill:#1f77b4;stroke:#1f77b4;" x="309.619209" xlink:href="#m542a58bd01" y="199.067068"/>
     <use style="fill:#1f77b4;stroke:#1f77b4;" x="311.301357" xlink:href="#m542a58bd01" y="182.723658"/>
     <use style="fill:#1f77b4;stroke:#1f77b4;" x="312.983504" xlink:href="#m542a58bd01" y="202.970089"/>
     <use style="fill:#1f77b4;stroke:#1f77b4;" x="314.665652" xlink:href="#m542a58bd01" y="205.696082"/>
     <use style="fill:#1f77b4;stroke:#1f77b4;" x="316.3478" xlink:href="#m542a58bd01" y="182.910296"/>
     <use style="fill:#1f77b4;stroke:#1f77b4;" x="318.029948" xlink:href="#m542a58bd01" y="215.32936"/>
     <use style="fill:#1f77b4;stroke:#1f77b4;" x="319.712096" xlink:href="#m542a58bd01" y="211.053635"/>
     <use style="fill:#1f77b4;stroke:#1f77b4;" x="321.394244" xlink:href="#m542a58bd01" y="195.853004"/>
     <use style="fill:#1f77b4;stroke:#1f77b4;" x="323.076392" xlink:href="#m542a58bd01" y="191.050129"/>
     <use style="fill:#1f77b4;stroke:#1f77b4;" x="324.75854" xlink:href="#m542a58bd01" y="196.200584"/>
     <use style="fill:#1f77b4;stroke:#1f77b4;" x="326.440688" xlink:href="#m542a58bd01" y="202.810767"/>
     <use style="fill:#1f77b4;stroke:#1f77b4;" x="328.122836" xlink:href="#m542a58bd01" y="184.561981"/>
     <use style="fill:#1f77b4;stroke:#1f77b4;" x="329.804984" xlink:href="#m542a58bd01" y="184.473929"/>
     <use style="fill:#1f77b4;stroke:#1f77b4;" x="331.487131" xlink:href="#m542a58bd01" y="194.763104"/>
     <use style="fill:#1f77b4;stroke:#1f77b4;" x="333.169279" xlink:href="#m542a58bd01" y="189.260607"/>
     <use style="fill:#1f77b4;stroke:#1f77b4;" x="334.851427" xlink:href="#m542a58bd01" y="208.216261"/>
     <use style="fill:#1f77b4;stroke:#1f77b4;" x="336.533575" xlink:href="#m542a58bd01" y="187.295336"/>
     <use style="fill:#1f77b4;stroke:#1f77b4;" x="338.215723" xlink:href="#m542a58bd01" y="220.932576"/>
     <use style="fill:#1f77b4;stroke:#1f77b4;" x="339.897871" xlink:href="#m542a58bd01" y="191.907706"/>
     <use style="fill:#1f77b4;stroke:#1f77b4;" x="341.580019" xlink:href="#m542a58bd01" y="204.269387"/>
     <use style="fill:#1f77b4;stroke:#1f77b4;" x="343.262167" xlink:href="#m542a58bd01" y="186.77751"/>
     <use style="fill:#1f77b4;stroke:#1f77b4;" x="344.944315" xlink:href="#m542a58bd01" y="206.73573"/>
     <use style="fill:#1f77b4;stroke:#1f77b4;" x="346.626463" xlink:href="#m542a58bd01" y="198.75035"/>
     <use style="fill:#1f77b4;stroke:#1f77b4;" x="348.30861" xlink:href="#m542a58bd01" y="185.824757"/>
     <use style="fill:#1f77b4;stroke:#1f77b4;" x="349.990758" xlink:href="#m542a58bd01" y="215.250065"/>
     <use style="fill:#1f77b4;stroke:#1f77b4;" x="351.672906" xlink:href="#m542a58bd01" y="210.265393"/>
     <use style="fill:#1f77b4;stroke:#1f77b4;" x="353.355054" xlink:href="#m542a58bd01" y="189.574612"/>
     <use style="fill:#1f77b4;stroke:#1f77b4;" x="355.037202" xlink:href="#m542a58bd01" y="202.726707"/>
     <use style="fill:#1f77b4;stroke:#1f77b4;" x="356.71935" xlink:href="#m542a58bd01" y="209.582103"/>
     <use style="fill:#1f77b4;stroke:#1f77b4;" x="358.401498" xlink:href="#m542a58bd01" y="205.590496"/>
     <use style="fill:#1f77b4;stroke:#1f77b4;" x="360.083646" xlink:href="#m542a58bd01" y="193.550148"/>
     <use style="fill:#1f77b4;stroke:#1f77b4;" x="361.765794" xlink:href="#m542a58bd01" y="196.805378"/>
     <use style="fill:#1f77b4;stroke:#1f77b4;" x="363.447942" xlink:href="#m542a58bd01" y="203.368199"/>
     <use style="fill:#1f77b4;stroke:#1f77b4;" x="365.130089" xlink:href="#m542a58bd01" y="193.439432"/>
     <use style="fill:#1f77b4;stroke:#1f77b4;" x="366.812237" xlink:href="#m542a58bd01" y="207.721532"/>
     <use style="fill:#1f77b4;stroke:#1f77b4;" x="368.494385" xlink:href="#m542a58bd01" y="197.278207"/>
     <use style="fill:#1f77b4;stroke:#1f77b4;" x="370.176533" xlink:href="#m542a58bd01" y="214.76871"/>
     <use style="fill:#1f77b4;stroke:#1f77b4;" x="371.858681" xlink:href="#m542a58bd01" y="205.046901"/>
     <use style="fill:#1f77b4;stroke:#1f77b4;" x="373.540829" xlink:href="#m542a58bd01" y="207.410863"/>
     <use style="fill:#1f77b4;stroke:#1f77b4;" x="375.222977" xlink:href="#m542a58bd01" y="193.898281"/>
     <use style="fill:#1f77b4;stroke:#1f77b4;" x="376.159791" xlink:href="#m542a58bd01" y="22383.514"/>
    </g>
   </g>
   <g id="line2d_69">
    <path clip-path="url(#p3fd5325121)" d="M 55.614875 68.885484 
L 57.297023 107.455677 
L 58.979171 149.573271 
L 60.661319 190.545439 
" style="fill:none;stroke:#2ca02c;stroke-dasharray:1.5,2.475;stroke-dashoffset:0;stroke-width:1.5;"/>
    <defs>
     <path d="M -3 3 
L 3 -3 
M -3 -3 
L 3 3 
" id="m462a835123" style="stroke:#2ca02c;"/>
    </defs>
    <g clip-path="url(#p3fd5325121)">
     <use style="fill:#2ca02c;stroke:#2ca02c;" x="55.614875" xlink:href="#m462a835123" y="68.885484"/>
     <use style="fill:#2ca02c;stroke:#2ca02c;" x="57.297023" xlink:href="#m462a835123" y="107.455677"/>
     <use style="fill:#2ca02c;stroke:#2ca02c;" x="58.979171" xlink:href="#m462a835123" y="149.573271"/>
     <use style="fill:#2ca02c;stroke:#2ca02c;" x="60.661319" xlink:href="#m462a835123" y="190.545439"/>
    </g>
   </g>
   <g id="line2d_70">
    <path clip-path="url(#p3fd5325121)" d="M 55.614875 114.072746 
L 63.787888 311.86825 
L 63.787888 311.86825 
" style="fill:none;stroke:#000000;stroke-dasharray:5.55,2.4;stroke-dashoffset:0;stroke-width:1.5;"/>
   </g>
   <g id="patch_3">
    <path d="M 37.7 273.312 
L 37.7 7.2 
" style="fill:none;stroke:#000000;stroke-linecap:square;stroke-linejoin:miter;stroke-width:0.8;"/>
   </g>
   <g id="patch_4">
    <path d="M 394.82 273.312 
L 394.82 7.2 
" style="fill:none;stroke:#000000;stroke-linecap:square;stroke-linejoin:miter;stroke-width:0.8;"/>
   </g>
   <g id="patch_5">
    <path d="M 37.7 273.312 
L 394.82 273.312 
" style="fill:none;stroke:#000000;stroke-linecap:square;stroke-linejoin:miter;stroke-width:0.8;"/>
   </g>
   <g id="patch_6">
    <path d="M 37.7 7.2 
L 394.82 7.2 
" style="fill:none;stroke:#000000;stroke-linecap:square;stroke-linejoin:miter;stroke-width:0.8;"/>
   </g>
   <g id="legend_1">
    <g id="patch_7">
     <path d="M 286.72 59.25625 
L 387.82 59.25625 
Q 389.82 59.25625 389.82 57.25625 
L 389.82 14.2 
Q 389.82 12.2 387.82 12.2 
L 286.72 12.2 
Q 284.72 12.2 284.72 14.2 
L 284.72 57.25625 
Q 284.72 59.25625 286.72 59.25625 
z
" style="fill:#ffffff;opacity:0.8;"/>
    </g>
    <g id="line2d_71">
     <path d="M 288.72 20.298437 
L 308.72 20.298437 
" style="fill:none;stroke:#1f77b4;stroke-linecap:square;stroke-width:1.5;"/>
    </g>
    <g id="line2d_72">
     <g>
      <use style="fill:#1f77b4;stroke:#1f77b4;" x="298.72" xlink:href="#m542a58bd01" y="20.298437"/>
     </g>
    </g>
    <g id="text_18">
     <!-- APD$_n$ - APD$_\infty$ -->
     <defs>
      <path d="M 34.1875 63.1875 
L 20.796875 26.90625 
L 47.609375 26.90625 
z
M 28.609375 72.90625 
L 39.796875 72.90625 
L 67.578125 0 
L 57.328125 0 
L 50.6875 18.703125 
L 17.828125 18.703125 
L 11.1875 0 
L 0.78125 0 
z
" id="DejaVuSans-65"/>
      <path d="M 19.671875 64.796875 
L 19.671875 37.40625 
L 32.078125 37.40625 
Q 38.96875 37.40625 42.71875 40.96875 
Q 46.484375 44.53125 46.484375 51.125 
Q 46.484375 57.671875 42.71875 61.234375 
Q 38.96875 64.796875 32.078125 64.796875 
z
M 9.8125 72.90625 
L 32.078125 72.90625 
Q 44.34375 72.90625 50.609375 67.359375 
Q 56.890625 61.8125 56.890625 51.125 
Q 56.890625 40.328125 50.609375 34.8125 
Q 44.34375 29.296875 32.078125 29.296875 
L 19.671875 29.296875 
L 19.671875 0 
L 9.8125 0 
z
" id="DejaVuSans-80"/>
      <path d="M 19.671875 64.796875 
L 19.671875 8.109375 
L 31.59375 8.109375 
Q 46.6875 8.109375 53.6875 14.9375 
Q 60.6875 21.78125 60.6875 36.53125 
Q 60.6875 51.171875 53.6875 57.984375 
Q 46.6875 64.796875 31.59375 64.796875 
z
M 9.8125 72.90625 
L 30.078125 72.90625 
Q 51.265625 72.90625 61.171875 64.09375 
Q 71.09375 55.28125 71.09375 36.53125 
Q 71.09375 17.671875 61.125 8.828125 
Q 51.171875 0 30.078125 0 
L 9.8125 0 
z
" id="DejaVuSans-68"/>
      <path d="M 55.71875 33.015625 
L 49.3125 0 
L 40.28125 0 
L 46.6875 32.671875 
Q 47.125 34.96875 47.359375 36.71875 
Q 47.609375 38.484375 47.609375 39.5 
Q 47.609375 43.609375 45.015625 45.890625 
Q 42.4375 48.1875 37.796875 48.1875 
Q 30.5625 48.1875 25.34375 43.375 
Q 20.125 38.578125 18.5 30.328125 
L 12.5 0 
L 3.515625 0 
L 14.109375 54.6875 
L 23.09375 54.6875 
L 21.296875 46.09375 
Q 25.046875 50.828125 30.3125 53.40625 
Q 35.59375 56 41.40625 56 
Q 48.640625 56 52.609375 52.09375 
Q 56.59375 48.1875 56.59375 41.109375 
Q 56.59375 39.359375 56.375 37.359375 
Q 56.15625 35.359375 55.71875 33.015625 
z
" id="DejaVuSans-Oblique-110"/>
      <path id="DejaVuSans-32"/>
      <path d="M 4.890625 31.390625 
L 31.203125 31.390625 
L 31.203125 23.390625 
L 4.890625 23.390625 
z
" id="DejaVuSans-45"/>
      <path d="M 45.5625 17.046875 
Q 44.046875 18.796875 41.65625 22.90625 
Q 38.375 17.046875 35.5 14.453125 
Q 31.890625 11.328125 26.265625 11.328125 
Q 19.671875 11.328125 15.328125 16.265625 
Q 10.75 21.4375 10.75 29.984375 
Q 10.75 38.1875 15.328125 43.75 
Q 19.4375 48.6875 26.375 48.6875 
Q 29.9375 48.6875 32.5625 47.21875 
Q 35.640625 45.609375 37.75 42.828125 
Q 39.703125 40.328125 41.65625 36.96875 
Q 44.921875 42.828125 47.796875 45.40625 
Q 51.421875 48.53125 57.03125 48.53125 
Q 63.625 48.53125 67.96875 43.609375 
Q 72.5625 38.421875 72.5625 29.890625 
Q 72.5625 21.6875 67.96875 16.109375 
Q 63.875 11.1875 56.9375 11.1875 
Q 53.375 11.1875 50.734375 12.640625 
Q 48.09375 13.96875 45.5625 17.046875 
z
M 25.734375 17.71875 
Q 33.796875 17.71875 38.625 29.4375 
Q 32.421875 42.234375 25.734375 42.234375 
Q 20.84375 42.234375 18.359375 38.71875 
Q 15.671875 34.96875 15.671875 29.984375 
Q 15.671875 24.515625 18.359375 21.140625 
Q 21.09375 17.71875 25.734375 17.71875 
z
M 57.5625 42.140625 
Q 50.296875 42.140625 44.671875 30.421875 
Q 50.828125 17.625 57.5625 17.625 
Q 62.453125 17.625 64.9375 21.140625 
Q 67.625 24.90625 67.625 29.890625 
Q 67.625 35.359375 64.9375 38.71875 
Q 62.203125 42.140625 57.5625 42.140625 
z
" id="DejaVuSans-8734"/>
     </defs>
     <g transform="translate(316.72 23.798437)scale(0.1 -0.1)">
      <use transform="translate(0 0.09375)" xlink:href="#DejaVuSans-65"/>
      <use transform="translate(68.408203 0.09375)" xlink:href="#DejaVuSans-80"/>
      <use transform="translate(128.710938 0.09375)" xlink:href="#DejaVuSans-68"/>
      <use transform="translate(206.669922 -16.3125)scale(0.7)" xlink:href="#DejaVuSans-Oblique-110"/>
      <use transform="translate(253.769531 0.09375)" xlink:href="#DejaVuSans-32"/>
      <use transform="translate(285.556641 0.09375)" xlink:href="#DejaVuSans-45"/>
      <use transform="translate(321.640625 0.09375)" xlink:href="#DejaVuSans-32"/>
      <use transform="translate(353.427734 0.09375)" xlink:href="#DejaVuSans-65"/>
      <use transform="translate(421.835938 0.09375)" xlink:href="#DejaVuSans-80"/>
      <use transform="translate(482.138672 0.09375)" xlink:href="#DejaVuSans-68"/>
      <use transform="translate(560.097656 -16.3125)scale(0.7)" xlink:href="#DejaVuSans-8734"/>
     </g>
    </g>
    <g id="line2d_73">
     <path d="M 288.72 34.976562 
L 308.72 34.976562 
" style="fill:none;stroke:#2ca02c;stroke-dasharray:1.5,2.475;stroke-dashoffset:0;stroke-width:1.5;"/>
    </g>
    <g id="line2d_74">
     <g>
      <use style="fill:#2ca02c;stroke:#2ca02c;" x="298.72" xlink:href="#m462a835123" y="34.976562"/>
     </g>
    </g>
    <g id="text_19">
     <!-- linear region -->
     <defs>
      <path d="M 9.421875 75.984375 
L 18.40625 75.984375 
L 18.40625 0 
L 9.421875 0 
z
" id="DejaVuSans-108"/>
      <path d="M 9.421875 54.6875 
L 18.40625 54.6875 
L 18.40625 0 
L 9.421875 0 
z
M 9.421875 75.984375 
L 18.40625 75.984375 
L 18.40625 64.59375 
L 9.421875 64.59375 
z
" id="DejaVuSans-105"/>
      <path d="M 54.890625 33.015625 
L 54.890625 0 
L 45.90625 0 
L 45.90625 32.71875 
Q 45.90625 40.484375 42.875 44.328125 
Q 39.84375 48.1875 33.796875 48.1875 
Q 26.515625 48.1875 22.3125 43.546875 
Q 18.109375 38.921875 18.109375 30.90625 
L 18.109375 0 
L 9.078125 0 
L 9.078125 54.6875 
L 18.109375 54.6875 
L 18.109375 46.1875 
Q 21.34375 51.125 25.703125 53.5625 
Q 30.078125 56 35.796875 56 
Q 45.21875 56 50.046875 50.171875 
Q 54.890625 44.34375 54.890625 33.015625 
z
" id="DejaVuSans-110"/>
      <path d="M 56.203125 29.59375 
L 56.203125 25.203125 
L 14.890625 25.203125 
Q 15.484375 15.921875 20.484375 11.0625 
Q 25.484375 6.203125 34.421875 6.203125 
Q 39.59375 6.203125 44.453125 7.46875 
Q 49.3125 8.734375 54.109375 11.28125 
L 54.109375 2.78125 
Q 49.265625 0.734375 44.1875 -0.34375 
Q 39.109375 -1.421875 33.890625 -1.421875 
Q 20.796875 -1.421875 13.15625 6.1875 
Q 5.515625 13.8125 5.515625 26.8125 
Q 5.515625 40.234375 12.765625 48.109375 
Q 20.015625 56 32.328125 56 
Q 43.359375 56 49.78125 48.890625 
Q 56.203125 41.796875 56.203125 29.59375 
z
M 47.21875 32.234375 
Q 47.125 39.59375 43.09375 43.984375 
Q 39.0625 48.390625 32.421875 48.390625 
Q 24.90625 48.390625 20.390625 44.140625 
Q 15.875 39.890625 15.1875 32.171875 
z
" id="DejaVuSans-101"/>
      <path d="M 34.28125 27.484375 
Q 23.390625 27.484375 19.1875 25 
Q 14.984375 22.515625 14.984375 16.5 
Q 14.984375 11.71875 18.140625 8.90625 
Q 21.296875 6.109375 26.703125 6.109375 
Q 34.1875 6.109375 38.703125 11.40625 
Q 43.21875 16.703125 43.21875 25.484375 
L 43.21875 27.484375 
z
M 52.203125 31.203125 
L 52.203125 0 
L 43.21875 0 
L 43.21875 8.296875 
Q 40.140625 3.328125 35.546875 0.953125 
Q 30.953125 -1.421875 24.3125 -1.421875 
Q 15.921875 -1.421875 10.953125 3.296875 
Q 6 8.015625 6 15.921875 
Q 6 25.140625 12.171875 29.828125 
Q 18.359375 34.515625 30.609375 34.515625 
L 43.21875 34.515625 
L 43.21875 35.40625 
Q 43.21875 41.609375 39.140625 45 
Q 35.0625 48.390625 27.6875 48.390625 
Q 23 48.390625 18.546875 47.265625 
Q 14.109375 46.140625 10.015625 43.890625 
L 10.015625 52.203125 
Q 14.9375 54.109375 19.578125 55.046875 
Q 24.21875 56 28.609375 56 
Q 40.484375 56 46.34375 49.84375 
Q 52.203125 43.703125 52.203125 31.203125 
z
" id="DejaVuSans-97"/>
      <path d="M 41.109375 46.296875 
Q 39.59375 47.171875 37.8125 47.578125 
Q 36.03125 48 33.890625 48 
Q 26.265625 48 22.1875 43.046875 
Q 18.109375 38.09375 18.109375 28.8125 
L 18.109375 0 
L 9.078125 0 
L 9.078125 54.6875 
L 18.109375 54.6875 
L 18.109375 46.1875 
Q 20.953125 51.171875 25.484375 53.578125 
Q 30.03125 56 36.53125 56 
Q 37.453125 56 38.578125 55.875 
Q 39.703125 55.765625 41.0625 55.515625 
z
" id="DejaVuSans-114"/>
      <path d="M 45.40625 27.984375 
Q 45.40625 37.75 41.375 43.109375 
Q 37.359375 48.484375 30.078125 48.484375 
Q 22.859375 48.484375 18.828125 43.109375 
Q 14.796875 37.75 14.796875 27.984375 
Q 14.796875 18.265625 18.828125 12.890625 
Q 22.859375 7.515625 30.078125 7.515625 
Q 37.359375 7.515625 41.375 12.890625 
Q 45.40625 18.265625 45.40625 27.984375 
z
M 54.390625 6.78125 
Q 54.390625 -7.171875 48.1875 -13.984375 
Q 42 -20.796875 29.203125 -20.796875 
Q 24.46875 -20.796875 20.265625 -20.09375 
Q 16.0625 -19.390625 12.109375 -17.921875 
L 12.109375 -9.1875 
Q 16.0625 -11.328125 19.921875 -12.34375 
Q 23.78125 -13.375 27.78125 -13.375 
Q 36.625 -13.375 41.015625 -8.765625 
Q 45.40625 -4.15625 45.40625 5.171875 
L 45.40625 9.625 
Q 42.625 4.78125 38.28125 2.390625 
Q 33.9375 0 27.875 0 
Q 17.828125 0 11.671875 7.65625 
Q 5.515625 15.328125 5.515625 27.984375 
Q 5.515625 40.671875 11.671875 48.328125 
Q 17.828125 56 27.875 56 
Q 33.9375 56 38.28125 53.609375 
Q 42.625 51.21875 45.40625 46.390625 
L 45.40625 54.6875 
L 54.390625 54.6875 
z
" id="DejaVuSans-103"/>
      <path d="M 30.609375 48.390625 
Q 23.390625 48.390625 19.1875 42.75 
Q 14.984375 37.109375 14.984375 27.296875 
Q 14.984375 17.484375 19.15625 11.84375 
Q 23.34375 6.203125 30.609375 6.203125 
Q 37.796875 6.203125 41.984375 11.859375 
Q 46.1875 17.53125 46.1875 27.296875 
Q 46.1875 37.015625 41.984375 42.703125 
Q 37.796875 48.390625 30.609375 48.390625 
z
M 30.609375 56 
Q 42.328125 56 49.015625 48.375 
Q 55.71875 40.765625 55.71875 27.296875 
Q 55.71875 13.875 49.015625 6.21875 
Q 42.328125 -1.421875 30.609375 -1.421875 
Q 18.84375 -1.421875 12.171875 6.21875 
Q 5.515625 13.875 5.515625 27.296875 
Q 5.515625 40.765625 12.171875 48.375 
Q 18.84375 56 30.609375 56 
z
" id="DejaVuSans-111"/>
     </defs>
     <g transform="translate(316.72 38.476562)scale(0.1 -0.1)">
      <use xlink:href="#DejaVuSans-108"/>
      <use x="27.783203" xlink:href="#DejaVuSans-105"/>
      <use x="55.566406" xlink:href="#DejaVuSans-110"/>
      <use x="118.945312" xlink:href="#DejaVuSans-101"/>
      <use x="180.46875" xlink:href="#DejaVuSans-97"/>
      <use x="241.748047" xlink:href="#DejaVuSans-114"/>
      <use x="282.861328" xlink:href="#DejaVuSans-32"/>
      <use x="314.648438" xlink:href="#DejaVuSans-114"/>
      <use x="353.511719" xlink:href="#DejaVuSans-101"/>
      <use x="415.035156" xlink:href="#DejaVuSans-103"/>
      <use x="478.511719" xlink:href="#DejaVuSans-105"/>
      <use x="506.294922" xlink:href="#DejaVuSans-111"/>
      <use x="567.476562" xlink:href="#DejaVuSans-110"/>
     </g>
    </g>
    <g id="line2d_75">
     <path d="M 288.72 49.65625 
L 308.72 49.65625 
" style="fill:none;stroke:#000000;stroke-dasharray:5.55,2.4;stroke-dashoffset:0;stroke-width:1.5;"/>
    </g>
    <g id="line2d_76"/>
    <g id="text_20">
     <!-- $ \exp(-2.346 k)$ -->
     <defs>
      <path d="M 54.890625 54.6875 
L 35.109375 28.078125 
L 55.90625 0 
L 45.3125 0 
L 29.390625 21.484375 
L 13.484375 0 
L 2.875 0 
L 24.125 28.609375 
L 4.6875 54.6875 
L 15.28125 54.6875 
L 29.78125 35.203125 
L 44.28125 54.6875 
z
" id="DejaVuSans-120"/>
      <path d="M 18.109375 8.203125 
L 18.109375 -20.796875 
L 9.078125 -20.796875 
L 9.078125 54.6875 
L 18.109375 54.6875 
L 18.109375 46.390625 
Q 20.953125 51.265625 25.265625 53.625 
Q 29.59375 56 35.59375 56 
Q 45.5625 56 51.78125 48.09375 
Q 58.015625 40.1875 58.015625 27.296875 
Q 58.015625 14.40625 51.78125 6.484375 
Q 45.5625 -1.421875 35.59375 -1.421875 
Q 29.59375 -1.421875 25.265625 0.953125 
Q 20.953125 3.328125 18.109375 8.203125 
z
M 48.6875 27.296875 
Q 48.6875 37.203125 44.609375 42.84375 
Q 40.53125 48.484375 33.40625 48.484375 
Q 26.265625 48.484375 22.1875 42.84375 
Q 18.109375 37.203125 18.109375 27.296875 
Q 18.109375 17.390625 22.1875 11.75 
Q 26.265625 6.109375 33.40625 6.109375 
Q 40.53125 6.109375 44.609375 11.75 
Q 48.6875 17.390625 48.6875 27.296875 
z
" id="DejaVuSans-112"/>
      <path d="M 31 75.875 
Q 24.46875 64.65625 21.28125 53.65625 
Q 18.109375 42.671875 18.109375 31.390625 
Q 18.109375 20.125 21.3125 9.0625 
Q 24.515625 -2 31 -13.1875 
L 23.1875 -13.1875 
Q 15.875 -1.703125 12.234375 9.375 
Q 8.59375 20.453125 8.59375 31.390625 
Q 8.59375 42.28125 12.203125 53.3125 
Q 15.828125 64.359375 23.1875 75.875 
z
" id="DejaVuSans-40"/>
      <path d="M 10.6875 12.40625 
L 21 12.40625 
L 21 0 
L 10.6875 0 
z
" id="DejaVuSans-46"/>
      <path d="M 33.015625 40.375 
Q 26.375 40.375 22.484375 35.828125 
Q 18.609375 31.296875 18.609375 23.390625 
Q 18.609375 15.53125 22.484375 10.953125 
Q 26.375 6.390625 33.015625 6.390625 
Q 39.65625 6.390625 43.53125 10.953125 
Q 47.40625 15.53125 47.40625 23.390625 
Q 47.40625 31.296875 43.53125 35.828125 
Q 39.65625 40.375 33.015625 40.375 
z
M 52.59375 71.296875 
L 52.59375 62.3125 
Q 48.875 64.0625 45.09375 64.984375 
Q 41.3125 65.921875 37.59375 65.921875 
Q 27.828125 65.921875 22.671875 59.328125 
Q 17.53125 52.734375 16.796875 39.40625 
Q 19.671875 43.65625 24.015625 45.921875 
Q 28.375 48.1875 33.59375 48.1875 
Q 44.578125 48.1875 50.953125 41.515625 
Q 57.328125 34.859375 57.328125 23.390625 
Q 57.328125 12.15625 50.6875 5.359375 
Q 44.046875 -1.421875 33.015625 -1.421875 
Q 20.359375 -1.421875 13.671875 8.265625 
Q 6.984375 17.96875 6.984375 36.375 
Q 6.984375 53.65625 15.1875 63.9375 
Q 23.390625 74.21875 37.203125 74.21875 
Q 40.921875 74.21875 44.703125 73.484375 
Q 48.484375 72.75 52.59375 71.296875 
z
" id="DejaVuSans-54"/>
      <path d="M 8.015625 75.875 
L 15.828125 75.875 
Q 23.140625 64.359375 26.78125 53.3125 
Q 30.421875 42.28125 30.421875 31.390625 
Q 30.421875 20.453125 26.78125 9.375 
Q 23.140625 -1.703125 15.828125 -13.1875 
L 8.015625 -13.1875 
Q 14.5 -2 17.703125 9.0625 
Q 20.90625 20.125 20.90625 31.390625 
Q 20.90625 42.671875 17.703125 53.65625 
Q 14.5 64.65625 8.015625 75.875 
z
" id="DejaVuSans-41"/>
     </defs>
     <g transform="translate(316.72 53.15625)scale(0.1 -0.1)">
      <use transform="translate(0 0.015625)" xlink:href="#DejaVuSans-101"/>
      <use transform="translate(61.523438 0.015625)" xlink:href="#DejaVuSans-120"/>
      <use transform="translate(120.703125 0.015625)" xlink:href="#DejaVuSans-112"/>
      <use transform="translate(184.179688 0.015625)" xlink:href="#DejaVuSans-40"/>
      <use transform="translate(223.193359 0.015625)" xlink:href="#DejaVuSans-8722"/>
      <use transform="translate(306.982422 0.015625)" xlink:href="#DejaVuSans-50"/>
      <use transform="translate(370.605469 0.015625)" xlink:href="#DejaVuSans-46"/>
      <use transform="translate(402.392578 0.015625)" xlink:href="#DejaVuSans-51"/>
      <use transform="translate(466.015625 0.015625)" xlink:href="#DejaVuSans-52"/>
      <use transform="translate(529.638672 0.015625)" xlink:href="#DejaVuSans-54"/>
      <use transform="translate(593.261719 0.015625)" xlink:href="#DejaVuSans-Oblique-107"/>
      <use transform="translate(651.171875 0.015625)" xlink:href="#DejaVuSans-41"/>
     </g>
    </g>
   </g>
  </g>
 </g>
 <defs>
  <clipPath id="p3fd5325121">
   <rect height="266.112" width="357.12" x="37.7" y="7.2"/>
  </clipPath>
 </defs>
</svg>
