<?xml version="1.0" encoding="utf-8" standalone="no"?>
<!DOCTYPE svg PUBLIC "-//W3C//DTD SVG 1.1//EN"
  "http://www.w3.org/Graphics/SVG/1.1/DTD/svg11.dtd">
<!-- Created with matplotlib (https://matplotlib.org/) -->
<svg height="310.86825pt" version="1.1" viewBox="0 0 402.02 310.86825" width="402.02pt" xmlns="http://www.w3.org/2000/svg" xmlns:xlink="http://www.w3.org/1999/xlink">
 <defs>
  <style type="text/css">
*{stroke-linecap:butt;stroke-linejoin:round;}
  </style>
 </defs>
 <g id="figure_1">
  <g id="patch_1">
   <path d="M 0 310.86825 
L 402.02 310.86825 
L 402.02 0 
L 0 0 
z
" style="fill:#ffffff;"/>
  </g>
  <g id="axes_1">
   <g id="patch_2">
    <path d="M 37.7 273.312 
L 394.82 273.312 
L 394.82 7.2 
L 37.7 7.2 
z
" style="fill:#ffffff;"/>
   </g>
   <g id="matplotlib.axis_1">
    <g id="xtick_1">
     <g id="line2d_1">
      <defs>
       <path d="M 0 0 
L 0 3.5 
" id="m7584520e0d" style="stroke:#000000;stroke-width:0.8;"/>
      </defs>
      <g>
       <use style="stroke:#000000;stroke-width:0.8;" x="53.932727" xlink:href="#m7584520e0d" y="273.312"/>
      </g>
     </g>
     <g id="text_1">
      <!-- 0 -->
      <defs>
       <path d="M 31.78125 66.40625 
Q 24.171875 66.40625 20.328125 58.90625 
Q 16.5 51.421875 16.5 36.375 
Q 16.5 21.390625 20.328125 13.890625 
Q 24.171875 6.390625 31.78125 6.390625 
Q 39.453125 6.390625 43.28125 13.890625 
Q 47.125 21.390625 47.125 36.375 
Q 47.125 51.421875 43.28125 58.90625 
Q 39.453125 66.40625 31.78125 66.40625 
z
M 31.78125 74.21875 
Q 44.046875 74.21875 50.515625 64.515625 
Q 56.984375 54.828125 56.984375 36.375 
Q 56.984375 17.96875 50.515625 8.265625 
Q 44.046875 -1.421875 31.78125 -1.421875 
Q 19.53125 -1.421875 13.0625 8.265625 
Q 6.59375 17.96875 6.59375 36.375 
Q 6.59375 54.828125 13.0625 64.515625 
Q 19.53125 74.21875 31.78125 74.21875 
z
" id="DejaVuSans-48"/>
      </defs>
      <g transform="translate(50.751477 287.910437)scale(0.1 -0.1)">
       <use xlink:href="#DejaVuSans-48"/>
      </g>
     </g>
    </g>
    <g id="xtick_2">
     <g id="line2d_2">
      <g>
       <use style="stroke:#000000;stroke-width:0.8;" x="112.114545" xlink:href="#m7584520e0d" y="273.312"/>
      </g>
     </g>
     <g id="text_2">
      <!-- 50 -->
      <defs>
       <path d="M 10.796875 72.90625 
L 49.515625 72.90625 
L 49.515625 64.59375 
L 19.828125 64.59375 
L 19.828125 46.734375 
Q 21.96875 47.46875 24.109375 47.828125 
Q 26.265625 48.1875 28.421875 48.1875 
Q 40.625 48.1875 47.75 41.5 
Q 54.890625 34.8125 54.890625 23.390625 
Q 54.890625 11.625 47.5625 5.09375 
Q 40.234375 -1.421875 26.90625 -1.421875 
Q 22.3125 -1.421875 17.546875 -0.640625 
Q 12.796875 0.140625 7.71875 1.703125 
L 7.71875 11.625 
Q 12.109375 9.234375 16.796875 8.0625 
Q 21.484375 6.890625 26.703125 6.890625 
Q 35.15625 6.890625 40.078125 11.328125 
Q 45.015625 15.765625 45.015625 23.390625 
Q 45.015625 31 40.078125 35.4375 
Q 35.15625 39.890625 26.703125 39.890625 
Q 22.75 39.890625 18.8125 39.015625 
Q 14.890625 38.140625 10.796875 36.28125 
z
" id="DejaVuSans-53"/>
      </defs>
      <g transform="translate(105.752045 287.910437)scale(0.1 -0.1)">
       <use xlink:href="#DejaVuSans-53"/>
       <use x="63.623047" xlink:href="#DejaVuSans-48"/>
      </g>
     </g>
    </g>
    <g id="xtick_3">
     <g id="line2d_3">
      <g>
       <use style="stroke:#000000;stroke-width:0.8;" x="170.296364" xlink:href="#m7584520e0d" y="273.312"/>
      </g>
     </g>
     <g id="text_3">
      <!-- 100 -->
      <defs>
       <path d="M 12.40625 8.296875 
L 28.515625 8.296875 
L 28.515625 63.921875 
L 10.984375 60.40625 
L 10.984375 69.390625 
L 28.421875 72.90625 
L 38.28125 72.90625 
L 38.28125 8.296875 
L 54.390625 8.296875 
L 54.390625 0 
L 12.40625 0 
z
" id="DejaVuSans-49"/>
      </defs>
      <g transform="translate(160.752614 287.910437)scale(0.1 -0.1)">
       <use xlink:href="#DejaVuSans-49"/>
       <use x="63.623047" xlink:href="#DejaVuSans-48"/>
       <use x="127.246094" xlink:href="#DejaVuSans-48"/>
      </g>
     </g>
    </g>
    <g id="xtick_4">
     <g id="line2d_4">
      <g>
       <use style="stroke:#000000;stroke-width:0.8;" x="228.478182" xlink:href="#m7584520e0d" y="273.312"/>
      </g>
     </g>
     <g id="text_4">
      <!-- 150 -->
      <g transform="translate(218.934432 287.910437)scale(0.1 -0.1)">
       <use xlink:href="#DejaVuSans-49"/>
       <use x="63.623047" xlink:href="#DejaVuSans-53"/>
       <use x="127.246094" xlink:href="#DejaVuSans-48"/>
      </g>
     </g>
    </g>
    <g id="xtick_5">
     <g id="line2d_5">
      <g>
       <use style="stroke:#000000;stroke-width:0.8;" x="286.66" xlink:href="#m7584520e0d" y="273.312"/>
      </g>
     </g>
     <g id="text_5">
      <!-- 200 -->
      <defs>
       <path d="M 19.1875 8.296875 
L 53.609375 8.296875 
L 53.609375 0 
L 7.328125 0 
L 7.328125 8.296875 
Q 12.9375 14.109375 22.625 23.890625 
Q 32.328125 33.6875 34.8125 36.53125 
Q 39.546875 41.84375 41.421875 45.53125 
Q 43.3125 49.21875 43.3125 52.78125 
Q 43.3125 58.59375 39.234375 62.25 
Q 35.15625 65.921875 28.609375 65.921875 
Q 23.96875 65.921875 18.8125 64.3125 
Q 13.671875 62.703125 7.8125 59.421875 
L 7.8125 69.390625 
Q 13.765625 71.78125 18.9375 73 
Q 24.125 74.21875 28.421875 74.21875 
Q 39.75 74.21875 46.484375 68.546875 
Q 53.21875 62.890625 53.21875 53.421875 
Q 53.21875 48.921875 51.53125 44.890625 
Q 49.859375 40.875 45.40625 35.40625 
Q 44.1875 33.984375 37.640625 27.21875 
Q 31.109375 20.453125 19.1875 8.296875 
z
" id="DejaVuSans-50"/>
      </defs>
      <g transform="translate(277.11625 287.910437)scale(0.1 -0.1)">
       <use xlink:href="#DejaVuSans-50"/>
       <use x="63.623047" xlink:href="#DejaVuSans-48"/>
       <use x="127.246094" xlink:href="#DejaVuSans-48"/>
      </g>
     </g>
    </g>
    <g id="xtick_6">
     <g id="line2d_6">
      <g>
       <use style="stroke:#000000;stroke-width:0.8;" x="344.841818" xlink:href="#m7584520e0d" y="273.312"/>
      </g>
     </g>
     <g id="text_6">
      <!-- 250 -->
      <g transform="translate(335.298068 287.910437)scale(0.1 -0.1)">
       <use xlink:href="#DejaVuSans-50"/>
       <use x="63.623047" xlink:href="#DejaVuSans-53"/>
       <use x="127.246094" xlink:href="#DejaVuSans-48"/>
      </g>
     </g>
    </g>
    <g id="text_7">
     <!-- $ k $ -->
     <defs>
      <path d="M 18.3125 75.984375 
L 27.296875 75.984375 
L 18.703125 31.6875 
L 49.515625 54.6875 
L 61.1875 54.6875 
L 26.8125 28.515625 
L 51.90625 0 
L 41.015625 0 
L 17.671875 26.703125 
L 12.5 0 
L 3.515625 0 
z
" id="DejaVuSans-Oblique-107"/>
     </defs>
     <g transform="translate(213.36 301.588562)scale(0.1 -0.1)">
      <use transform="translate(0 0.015625)" xlink:href="#DejaVuSans-Oblique-107"/>
     </g>
    </g>
   </g>
   <g id="matplotlib.axis_2">
    <g id="ytick_1">
     <g id="line2d_7">
      <defs>
       <path d="M 0 0 
L -3.5 0 
" id="mdc31ac802e" style="stroke:#000000;stroke-width:0.8;"/>
      </defs>
      <g>
       <use style="stroke:#000000;stroke-width:0.8;" x="37.7" xlink:href="#mdc31ac802e" y="226.379141"/>
      </g>
     </g>
     <g id="text_8">
      <!-- $\mathdefault{10^{-5}}$ -->
      <defs>
       <path d="M 10.59375 35.5 
L 73.1875 35.5 
L 73.1875 27.203125 
L 10.59375 27.203125 
z
" id="DejaVuSans-8722"/>
      </defs>
      <g transform="translate(7.2 230.17836)scale(0.1 -0.1)">
       <use transform="translate(0 0.684375)" xlink:href="#DejaVuSans-49"/>
       <use transform="translate(63.623047 0.684375)" xlink:href="#DejaVuSans-48"/>
       <use transform="translate(128.203125 38.965625)scale(0.7)" xlink:href="#DejaVuSans-8722"/>
       <use transform="translate(186.855469 38.965625)scale(0.7)" xlink:href="#DejaVuSans-53"/>
      </g>
     </g>
    </g>
    <g id="ytick_2">
     <g id="line2d_8">
      <g>
       <use style="stroke:#000000;stroke-width:0.8;" x="37.7" xlink:href="#mdc31ac802e" y="164.61455"/>
      </g>
     </g>
     <g id="text_9">
      <!-- $\mathdefault{10^{-3}}$ -->
      <defs>
       <path d="M 40.578125 39.3125 
Q 47.65625 37.796875 51.625 33 
Q 55.609375 28.21875 55.609375 21.1875 
Q 55.609375 10.40625 48.1875 4.484375 
Q 40.765625 -1.421875 27.09375 -1.421875 
Q 22.515625 -1.421875 17.65625 -0.515625 
Q 12.796875 0.390625 7.625 2.203125 
L 7.625 11.71875 
Q 11.71875 9.328125 16.59375 8.109375 
Q 21.484375 6.890625 26.8125 6.890625 
Q 36.078125 6.890625 40.9375 10.546875 
Q 45.796875 14.203125 45.796875 21.1875 
Q 45.796875 27.640625 41.28125 31.265625 
Q 36.765625 34.90625 28.71875 34.90625 
L 20.21875 34.90625 
L 20.21875 43.015625 
L 29.109375 43.015625 
Q 36.375 43.015625 40.234375 45.921875 
Q 44.09375 48.828125 44.09375 54.296875 
Q 44.09375 59.90625 40.109375 62.90625 
Q 36.140625 65.921875 28.71875 65.921875 
Q 24.65625 65.921875 20.015625 65.03125 
Q 15.375 64.15625 9.8125 62.3125 
L 9.8125 71.09375 
Q 15.4375 72.65625 20.34375 73.4375 
Q 25.25 74.21875 29.59375 74.21875 
Q 40.828125 74.21875 47.359375 69.109375 
Q 53.90625 64.015625 53.90625 55.328125 
Q 53.90625 49.265625 50.4375 45.09375 
Q 46.96875 40.921875 40.578125 39.3125 
z
" id="DejaVuSans-51"/>
      </defs>
      <g transform="translate(7.2 168.413769)scale(0.1 -0.1)">
       <use transform="translate(0 0.765625)" xlink:href="#DejaVuSans-49"/>
       <use transform="translate(63.623047 0.765625)" xlink:href="#DejaVuSans-48"/>
       <use transform="translate(128.203125 39.046875)scale(0.7)" xlink:href="#DejaVuSans-8722"/>
       <use transform="translate(186.855469 39.046875)scale(0.7)" xlink:href="#DejaVuSans-51"/>
      </g>
     </g>
    </g>
    <g id="ytick_3">
     <g id="line2d_9">
      <g>
       <use style="stroke:#000000;stroke-width:0.8;" x="37.7" xlink:href="#mdc31ac802e" y="102.849959"/>
      </g>
     </g>
     <g id="text_10">
      <!-- $\mathdefault{10^{-1}}$ -->
      <g transform="translate(7.2 106.649178)scale(0.1 -0.1)">
       <use transform="translate(0 0.684375)" xlink:href="#DejaVuSans-49"/>
       <use transform="translate(63.623047 0.684375)" xlink:href="#DejaVuSans-48"/>
       <use transform="translate(128.203125 38.965625)scale(0.7)" xlink:href="#DejaVuSans-8722"/>
       <use transform="translate(186.855469 38.965625)scale(0.7)" xlink:href="#DejaVuSans-49"/>
      </g>
     </g>
    </g>
    <g id="ytick_4">
     <g id="line2d_10">
      <g>
       <use style="stroke:#000000;stroke-width:0.8;" x="37.7" xlink:href="#mdc31ac802e" y="41.085368"/>
      </g>
     </g>
     <g id="text_11">
      <!-- $\mathdefault{10^{1}}$ -->
      <g transform="translate(13.1 44.884587)scale(0.1 -0.1)">
       <use transform="translate(0 0.684375)" xlink:href="#DejaVuSans-49"/>
       <use transform="translate(63.623047 0.684375)" xlink:href="#DejaVuSans-48"/>
       <use transform="translate(128.203125 38.965625)scale(0.7)" xlink:href="#DejaVuSans-49"/>
      </g>
     </g>
    </g>
   </g>
   <g id="line2d_11">
    <path clip-path="url(#p3a181f07ee)" d="M 53.932727 19.296 
L 55.096364 26.3416 
L 65.569091 124.35271 
L 69.06 157.744694 
L 70.223636 172.733625 
L 71.387273 175.617882 
L 72.550909 174.495373 
L 73.714545 206.948318 
L 74.878182 191.538449 
L 76.041818 187.490129 
L 77.205455 194.251038 
L 78.369091 179.656435 
L 79.532727 200.465827 
L 80.696364 195.439664 
L 81.86 203.051317 
L 83.023636 170.97214 
L 84.187273 171.157136 
L 85.350909 177.490066 
L 86.514545 174.160186 
L 87.678182 191.004225 
L 88.841818 193.84192 
L 90.005455 261.216 
L 91.169091 191.907114 
L 92.332727 188.289348 
L 93.496364 187.942434 
L 94.66 204.879234 
L 95.823636 200.608379 
L 96.987273 185.194028 
L 98.150909 210.967965 
L 99.314545 184.791498 
L 100.478182 196.749305 
L 101.641818 172.71916 
L 102.805455 175.989906 
L 103.969091 177.67115 
L 105.132727 241.870595 
L 106.296364 188.266496 
L 107.46 188.234899 
L 108.623636 211.793134 
L 109.787273 190.750457 
L 110.950909 203.535391 
L 112.114545 180.663662 
L 113.278182 197.419477 
L 114.441818 185.860103 
L 115.605455 190.343387 
L 116.769091 185.047066 
L 117.932727 195.686647 
L 119.096364 208.480285 
L 120.26 174.370228 
L 121.423636 181.486482 
L 122.587273 169.240352 
L 123.750909 183.320295 
L 124.914545 188.922098 
L 126.078182 176.265373 
L 127.241818 180.542718 
L 128.405455 172.448274 
L 129.569091 180.73397 
L 130.732727 181.757527 
L 131.896364 210.602956 
L 133.06 185.133136 
L 134.223636 189.201254 
L 135.387273 227.400671 
L 136.550909 191.259931 
L 137.714545 178.711449 
L 138.878182 184.189512 
L 140.041818 194.197712 
L 141.205455 198.052868 
L 142.369091 204.077067 
L 143.532727 194.704688 
L 144.696364 212.620917 
L 145.86 178.520444 
L 147.023636 184.168659 
L 148.187273 191.263513 
L 149.350909 186.701325 
L 150.514545 180.515641 
L 151.678182 175.11935 
L 152.841818 196.645302 
L 154.005455 173.549795 
L 155.169091 178.302803 
L 156.332727 197.596349 
L 157.496364 189.456991 
L 158.66 197.73565 
L 159.823636 186.686683 
L 160.987273 173.173929 
L 162.150909 171.427326 
L 163.314545 178.089887 
L 164.478182 212.683395 
L 165.641818 186.48946 
L 166.805455 218.874983 
L 167.969091 184.686196 
L 169.132727 196.754022 
L 170.296364 181.88006 
L 171.46 236.541836 
L 172.623636 167.873883 
L 173.787273 179.091505 
L 174.950909 217.488878 
L 176.114545 185.440097 
L 177.278182 224.476764 
L 178.441818 193.177715 
L 179.605455 186.192081 
L 180.769091 201.962371 
L 181.932727 180.857359 
L 183.096364 162.469346 
L 184.26 166.82635 
L 185.423636 184.541498 
L 186.587273 192.812026 
L 187.750909 185.859053 
L 188.914545 180.089572 
L 190.078182 188.494172 
L 191.241818 217.700549 
L 192.405455 187.567818 
L 193.569091 181.308742 
L 194.732727 160.868612 
L 195.896364 164.314365 
L 197.06 182.370507 
L 198.223636 183.822794 
L 199.387273 189.320431 
L 200.550909 188.949079 
L 201.714545 185.68672 
L 202.878182 199.318915 
L 204.041818 202.099335 
L 205.205455 183.238941 
L 206.369091 215.658574 
L 207.532727 187.536828 
L 208.696364 220.231317 
L 209.86 189.132227 
L 211.023636 186.513726 
L 212.187273 241.967057 
L 213.350909 259.76594 
L 214.514545 211.537689 
L 215.678182 185.094821 
L 216.841818 166.229254 
L 218.005455 166.390669 
L 219.169091 176.525143 
L 220.332727 184.125723 
L 221.496364 178.49207 
L 222.66 193.856043 
L 223.823636 187.780477 
L 224.987273 194.140673 
L 226.150909 201.620301 
L 227.314545 192.728165 
L 228.478182 189.333173 
L 229.641818 209.445464 
L 230.805455 183.306898 
L 231.969091 180.998463 
L 233.132727 184.048416 
L 234.296364 206.477648 
L 235.46 199.769251 
L 236.623636 185.554764 
L 237.787273 189.33058 
L 238.950909 209.782889 
L 240.114545 213.632582 
L 241.278182 181.012294 
L 242.441818 195.578737 
L 243.605455 214.396453 
L 244.769091 193.69401 
L 245.932727 181.9425 
L 247.096364 179.02797 
L 248.26 186.903302 
L 249.423636 193.201082 
L 250.587273 194.981804 
L 251.750909 191.25408 
L 252.914545 203.073796 
L 254.078182 171.919441 
L 255.241818 171.784379 
L 256.405455 182.754081 
L 257.569091 198.462047 
L 258.732727 191.468845 
L 259.896364 203.017701 
L 261.06 178.292479 
L 262.223636 173.386272 
L 263.387273 190.531998 
L 264.550909 162.949816 
L 265.714545 166.774608 
L 266.878182 175.357483 
L 268.041818 181.394586 
L 269.205455 210.770471 
L 270.369091 192.308574 
L 271.532727 186.64429 
L 272.696364 212.75753 
L 273.86 188.997229 
L 275.023636 189.270779 
L 276.187273 231.978192 
L 278.514545 185.847101 
L 279.678182 181.987257 
L 280.841818 197.697804 
L 282.005455 184.743251 
L 283.169091 159.246263 
L 284.332727 162.848718 
L 285.496364 182.040055 
L 286.66 235.548036 
L 287.823636 187.972923 
L 288.987273 188.957566 
L 290.150909 185.385159 
L 291.314545 176.247627 
L 292.478182 196.381387 
L 293.641818 186.740238 
L 294.805455 188.532937 
L 295.969091 182.295395 
L 297.132727 206.47085 
L 298.296364 197.137086 
L 299.46 195.556795 
L 300.623636 199.189725 
L 301.787273 185.327933 
L 302.950909 181.382797 
L 304.114545 190.131685 
L 305.278182 225.648838 
L 306.441818 201.229855 
L 307.605455 181.690096 
L 308.769091 181.512938 
L 309.932727 171.42407 
L 311.096364 173.972919 
L 312.26 227.438318 
L 313.423636 180.747039 
L 314.587273 196.302426 
L 315.750909 183.545584 
L 316.914545 179.016484 
L 318.078182 183.031944 
L 319.241818 208.53913 
L 320.405455 194.371292 
L 321.569091 187.878619 
L 322.732727 199.898264 
L 323.896364 198.558195 
L 325.06 187.339885 
L 326.223636 191.671715 
L 327.387273 193.808885 
L 329.714545 197.067993 
L 330.878182 194.153298 
L 332.041818 185.855923 
L 333.205455 208.808276 
L 334.369091 204.252939 
L 335.532727 199.165994 
L 336.696364 187.472105 
L 337.86 185.953881 
L 339.023636 206.32114 
L 340.187273 183.158009 
L 341.350909 180.197576 
L 342.514545 187.798951 
L 343.678182 193.298729 
L 344.841818 203.836332 
L 346.005455 185.457261 
L 347.169091 184.938223 
L 348.332727 180.061047 
L 349.496364 184.377532 
L 350.66 191.360357 
L 351.823636 193.900969 
L 352.987273 202.891141 
L 354.150909 178.727807 
L 355.314545 185.876339 
L 356.478182 174.35406 
L 357.641818 204.331204 
L 358.805455 219.478157 
L 359.969091 198.447192 
L 361.132727 181.747318 
L 362.296364 204.124165 
L 363.46 222.603804 
L 364.623636 200.893361 
L 365.787273 172.418687 
L 366.950909 176.631652 
L 368.114545 191.368662 
L 369.278182 186.934705 
L 370.441818 205.060409 
L 371.605455 187.715049 
L 372.769091 204.196818 
L 373.932727 204.314417 
L 375.096364 200.400225 
L 376.26 192.853403 
L 376.264502 311.86825 
L 376.264502 311.86825 
" style="fill:none;stroke:#1f77b4;stroke-linecap:square;stroke-width:1.5;"/>
    <defs>
     <path d="M 0 3 
C 0.795609 3 1.55874 2.683901 2.12132 2.12132 
C 2.683901 1.55874 3 0.795609 3 0 
C 3 -0.795609 2.683901 -1.55874 2.12132 -2.12132 
C 1.55874 -2.683901 0.795609 -3 0 -3 
C -0.795609 -3 -1.55874 -2.683901 -2.12132 -2.12132 
C -2.683901 -1.55874 -3 -0.795609 -3 0 
C -3 0.795609 -2.683901 1.55874 -2.12132 2.12132 
C -1.55874 2.683901 -0.795609 3 0 3 
z
" id="m130c698046" style="stroke:#1f77b4;"/>
    </defs>
    <g clip-path="url(#p3a181f07ee)">
     <use style="fill:#1f77b4;stroke:#1f77b4;" x="53.932727" xlink:href="#m130c698046" y="19.296"/>
     <use style="fill:#1f77b4;stroke:#1f77b4;" x="55.096364" xlink:href="#m130c698046" y="26.3416"/>
     <use style="fill:#1f77b4;stroke:#1f77b4;" x="56.26" xlink:href="#m130c698046" y="37.117886"/>
     <use style="fill:#1f77b4;stroke:#1f77b4;" x="57.423636" xlink:href="#m130c698046" y="48.253077"/>
     <use style="fill:#1f77b4;stroke:#1f77b4;" x="58.587273" xlink:href="#m130c698046" y="58.812695"/>
     <use style="fill:#1f77b4;stroke:#1f77b4;" x="59.750909" xlink:href="#m130c698046" y="69.883342"/>
     <use style="fill:#1f77b4;stroke:#1f77b4;" x="60.914545" xlink:href="#m130c698046" y="80.672528"/>
     <use style="fill:#1f77b4;stroke:#1f77b4;" x="62.078182" xlink:href="#m130c698046" y="91.615754"/>
     <use style="fill:#1f77b4;stroke:#1f77b4;" x="63.241818" xlink:href="#m130c698046" y="102.556656"/>
     <use style="fill:#1f77b4;stroke:#1f77b4;" x="64.405455" xlink:href="#m130c698046" y="113.531918"/>
     <use style="fill:#1f77b4;stroke:#1f77b4;" x="65.569091" xlink:href="#m130c698046" y="124.35271"/>
     <use style="fill:#1f77b4;stroke:#1f77b4;" x="66.732727" xlink:href="#m130c698046" y="135.170865"/>
     <use style="fill:#1f77b4;stroke:#1f77b4;" x="67.896364" xlink:href="#m130c698046" y="145.584615"/>
     <use style="fill:#1f77b4;stroke:#1f77b4;" x="69.06" xlink:href="#m130c698046" y="157.744694"/>
     <use style="fill:#1f77b4;stroke:#1f77b4;" x="70.223636" xlink:href="#m130c698046" y="172.733625"/>
     <use style="fill:#1f77b4;stroke:#1f77b4;" x="71.387273" xlink:href="#m130c698046" y="175.617882"/>
     <use style="fill:#1f77b4;stroke:#1f77b4;" x="72.550909" xlink:href="#m130c698046" y="174.495373"/>
     <use style="fill:#1f77b4;stroke:#1f77b4;" x="73.714545" xlink:href="#m130c698046" y="206.948318"/>
     <use style="fill:#1f77b4;stroke:#1f77b4;" x="74.878182" xlink:href="#m130c698046" y="191.538449"/>
     <use style="fill:#1f77b4;stroke:#1f77b4;" x="76.041818" xlink:href="#m130c698046" y="187.490129"/>
     <use style="fill:#1f77b4;stroke:#1f77b4;" x="77.205455" xlink:href="#m130c698046" y="194.251038"/>
     <use style="fill:#1f77b4;stroke:#1f77b4;" x="78.369091" xlink:href="#m130c698046" y="179.656435"/>
     <use style="fill:#1f77b4;stroke:#1f77b4;" x="79.532727" xlink:href="#m130c698046" y="200.465827"/>
     <use style="fill:#1f77b4;stroke:#1f77b4;" x="80.696364" xlink:href="#m130c698046" y="195.439664"/>
     <use style="fill:#1f77b4;stroke:#1f77b4;" x="81.86" xlink:href="#m130c698046" y="203.051317"/>
     <use style="fill:#1f77b4;stroke:#1f77b4;" x="83.023636" xlink:href="#m130c698046" y="170.97214"/>
     <use style="fill:#1f77b4;stroke:#1f77b4;" x="84.187273" xlink:href="#m130c698046" y="171.157136"/>
     <use style="fill:#1f77b4;stroke:#1f77b4;" x="85.350909" xlink:href="#m130c698046" y="177.490066"/>
     <use style="fill:#1f77b4;stroke:#1f77b4;" x="86.514545" xlink:href="#m130c698046" y="174.160186"/>
     <use style="fill:#1f77b4;stroke:#1f77b4;" x="87.678182" xlink:href="#m130c698046" y="191.004225"/>
     <use style="fill:#1f77b4;stroke:#1f77b4;" x="88.841818" xlink:href="#m130c698046" y="193.84192"/>
     <use style="fill:#1f77b4;stroke:#1f77b4;" x="90.005455" xlink:href="#m130c698046" y="261.216"/>
     <use style="fill:#1f77b4;stroke:#1f77b4;" x="91.169091" xlink:href="#m130c698046" y="191.907114"/>
     <use style="fill:#1f77b4;stroke:#1f77b4;" x="92.332727" xlink:href="#m130c698046" y="188.289348"/>
     <use style="fill:#1f77b4;stroke:#1f77b4;" x="93.496364" xlink:href="#m130c698046" y="187.942434"/>
     <use style="fill:#1f77b4;stroke:#1f77b4;" x="94.66" xlink:href="#m130c698046" y="204.879234"/>
     <use style="fill:#1f77b4;stroke:#1f77b4;" x="95.823636" xlink:href="#m130c698046" y="200.608379"/>
     <use style="fill:#1f77b4;stroke:#1f77b4;" x="96.987273" xlink:href="#m130c698046" y="185.194028"/>
     <use style="fill:#1f77b4;stroke:#1f77b4;" x="98.150909" xlink:href="#m130c698046" y="210.967965"/>
     <use style="fill:#1f77b4;stroke:#1f77b4;" x="99.314545" xlink:href="#m130c698046" y="184.791498"/>
     <use style="fill:#1f77b4;stroke:#1f77b4;" x="100.478182" xlink:href="#m130c698046" y="196.749305"/>
     <use style="fill:#1f77b4;stroke:#1f77b4;" x="101.641818" xlink:href="#m130c698046" y="172.71916"/>
     <use style="fill:#1f77b4;stroke:#1f77b4;" x="102.805455" xlink:href="#m130c698046" y="175.989906"/>
     <use style="fill:#1f77b4;stroke:#1f77b4;" x="103.969091" xlink:href="#m130c698046" y="177.67115"/>
     <use style="fill:#1f77b4;stroke:#1f77b4;" x="105.132727" xlink:href="#m130c698046" y="241.870595"/>
     <use style="fill:#1f77b4;stroke:#1f77b4;" x="106.296364" xlink:href="#m130c698046" y="188.266496"/>
     <use style="fill:#1f77b4;stroke:#1f77b4;" x="107.46" xlink:href="#m130c698046" y="188.234899"/>
     <use style="fill:#1f77b4;stroke:#1f77b4;" x="108.623636" xlink:href="#m130c698046" y="211.793134"/>
     <use style="fill:#1f77b4;stroke:#1f77b4;" x="109.787273" xlink:href="#m130c698046" y="190.750457"/>
     <use style="fill:#1f77b4;stroke:#1f77b4;" x="110.950909" xlink:href="#m130c698046" y="203.535391"/>
     <use style="fill:#1f77b4;stroke:#1f77b4;" x="112.114545" xlink:href="#m130c698046" y="180.663662"/>
     <use style="fill:#1f77b4;stroke:#1f77b4;" x="113.278182" xlink:href="#m130c698046" y="197.419477"/>
     <use style="fill:#1f77b4;stroke:#1f77b4;" x="114.441818" xlink:href="#m130c698046" y="185.860103"/>
     <use style="fill:#1f77b4;stroke:#1f77b4;" x="115.605455" xlink:href="#m130c698046" y="190.343387"/>
     <use style="fill:#1f77b4;stroke:#1f77b4;" x="116.769091" xlink:href="#m130c698046" y="185.047066"/>
     <use style="fill:#1f77b4;stroke:#1f77b4;" x="117.932727" xlink:href="#m130c698046" y="195.686647"/>
     <use style="fill:#1f77b4;stroke:#1f77b4;" x="119.096364" xlink:href="#m130c698046" y="208.480285"/>
     <use style="fill:#1f77b4;stroke:#1f77b4;" x="120.26" xlink:href="#m130c698046" y="174.370228"/>
     <use style="fill:#1f77b4;stroke:#1f77b4;" x="121.423636" xlink:href="#m130c698046" y="181.486482"/>
     <use style="fill:#1f77b4;stroke:#1f77b4;" x="122.587273" xlink:href="#m130c698046" y="169.240352"/>
     <use style="fill:#1f77b4;stroke:#1f77b4;" x="123.750909" xlink:href="#m130c698046" y="183.320295"/>
     <use style="fill:#1f77b4;stroke:#1f77b4;" x="124.914545" xlink:href="#m130c698046" y="188.922098"/>
     <use style="fill:#1f77b4;stroke:#1f77b4;" x="126.078182" xlink:href="#m130c698046" y="176.265373"/>
     <use style="fill:#1f77b4;stroke:#1f77b4;" x="127.241818" xlink:href="#m130c698046" y="180.542718"/>
     <use style="fill:#1f77b4;stroke:#1f77b4;" x="128.405455" xlink:href="#m130c698046" y="172.448274"/>
     <use style="fill:#1f77b4;stroke:#1f77b4;" x="129.569091" xlink:href="#m130c698046" y="180.73397"/>
     <use style="fill:#1f77b4;stroke:#1f77b4;" x="130.732727" xlink:href="#m130c698046" y="181.757527"/>
     <use style="fill:#1f77b4;stroke:#1f77b4;" x="131.896364" xlink:href="#m130c698046" y="210.602956"/>
     <use style="fill:#1f77b4;stroke:#1f77b4;" x="133.06" xlink:href="#m130c698046" y="185.133136"/>
     <use style="fill:#1f77b4;stroke:#1f77b4;" x="134.223636" xlink:href="#m130c698046" y="189.201254"/>
     <use style="fill:#1f77b4;stroke:#1f77b4;" x="135.387273" xlink:href="#m130c698046" y="227.400671"/>
     <use style="fill:#1f77b4;stroke:#1f77b4;" x="136.550909" xlink:href="#m130c698046" y="191.259931"/>
     <use style="fill:#1f77b4;stroke:#1f77b4;" x="137.714545" xlink:href="#m130c698046" y="178.711449"/>
     <use style="fill:#1f77b4;stroke:#1f77b4;" x="138.878182" xlink:href="#m130c698046" y="184.189512"/>
     <use style="fill:#1f77b4;stroke:#1f77b4;" x="140.041818" xlink:href="#m130c698046" y="194.197712"/>
     <use style="fill:#1f77b4;stroke:#1f77b4;" x="141.205455" xlink:href="#m130c698046" y="198.052868"/>
     <use style="fill:#1f77b4;stroke:#1f77b4;" x="142.369091" xlink:href="#m130c698046" y="204.077067"/>
     <use style="fill:#1f77b4;stroke:#1f77b4;" x="143.532727" xlink:href="#m130c698046" y="194.704688"/>
     <use style="fill:#1f77b4;stroke:#1f77b4;" x="144.696364" xlink:href="#m130c698046" y="212.620917"/>
     <use style="fill:#1f77b4;stroke:#1f77b4;" x="145.86" xlink:href="#m130c698046" y="178.520444"/>
     <use style="fill:#1f77b4;stroke:#1f77b4;" x="147.023636" xlink:href="#m130c698046" y="184.168659"/>
     <use style="fill:#1f77b4;stroke:#1f77b4;" x="148.187273" xlink:href="#m130c698046" y="191.263513"/>
     <use style="fill:#1f77b4;stroke:#1f77b4;" x="149.350909" xlink:href="#m130c698046" y="186.701325"/>
     <use style="fill:#1f77b4;stroke:#1f77b4;" x="150.514545" xlink:href="#m130c698046" y="180.515641"/>
     <use style="fill:#1f77b4;stroke:#1f77b4;" x="151.678182" xlink:href="#m130c698046" y="175.11935"/>
     <use style="fill:#1f77b4;stroke:#1f77b4;" x="152.841818" xlink:href="#m130c698046" y="196.645302"/>
     <use style="fill:#1f77b4;stroke:#1f77b4;" x="154.005455" xlink:href="#m130c698046" y="173.549795"/>
     <use style="fill:#1f77b4;stroke:#1f77b4;" x="155.169091" xlink:href="#m130c698046" y="178.302803"/>
     <use style="fill:#1f77b4;stroke:#1f77b4;" x="156.332727" xlink:href="#m130c698046" y="197.596349"/>
     <use style="fill:#1f77b4;stroke:#1f77b4;" x="157.496364" xlink:href="#m130c698046" y="189.456991"/>
     <use style="fill:#1f77b4;stroke:#1f77b4;" x="158.66" xlink:href="#m130c698046" y="197.73565"/>
     <use style="fill:#1f77b4;stroke:#1f77b4;" x="159.823636" xlink:href="#m130c698046" y="186.686683"/>
     <use style="fill:#1f77b4;stroke:#1f77b4;" x="160.987273" xlink:href="#m130c698046" y="173.173929"/>
     <use style="fill:#1f77b4;stroke:#1f77b4;" x="162.150909" xlink:href="#m130c698046" y="171.427326"/>
     <use style="fill:#1f77b4;stroke:#1f77b4;" x="163.314545" xlink:href="#m130c698046" y="178.089887"/>
     <use style="fill:#1f77b4;stroke:#1f77b4;" x="164.478182" xlink:href="#m130c698046" y="212.683395"/>
     <use style="fill:#1f77b4;stroke:#1f77b4;" x="165.641818" xlink:href="#m130c698046" y="186.48946"/>
     <use style="fill:#1f77b4;stroke:#1f77b4;" x="166.805455" xlink:href="#m130c698046" y="218.874983"/>
     <use style="fill:#1f77b4;stroke:#1f77b4;" x="167.969091" xlink:href="#m130c698046" y="184.686196"/>
     <use style="fill:#1f77b4;stroke:#1f77b4;" x="169.132727" xlink:href="#m130c698046" y="196.754022"/>
     <use style="fill:#1f77b4;stroke:#1f77b4;" x="170.296364" xlink:href="#m130c698046" y="181.88006"/>
     <use style="fill:#1f77b4;stroke:#1f77b4;" x="171.46" xlink:href="#m130c698046" y="236.541836"/>
     <use style="fill:#1f77b4;stroke:#1f77b4;" x="172.623636" xlink:href="#m130c698046" y="167.873883"/>
     <use style="fill:#1f77b4;stroke:#1f77b4;" x="173.787273" xlink:href="#m130c698046" y="179.091505"/>
     <use style="fill:#1f77b4;stroke:#1f77b4;" x="174.950909" xlink:href="#m130c698046" y="217.488878"/>
     <use style="fill:#1f77b4;stroke:#1f77b4;" x="176.114545" xlink:href="#m130c698046" y="185.440097"/>
     <use style="fill:#1f77b4;stroke:#1f77b4;" x="177.278182" xlink:href="#m130c698046" y="224.476764"/>
     <use style="fill:#1f77b4;stroke:#1f77b4;" x="178.441818" xlink:href="#m130c698046" y="193.177715"/>
     <use style="fill:#1f77b4;stroke:#1f77b4;" x="179.605455" xlink:href="#m130c698046" y="186.192081"/>
     <use style="fill:#1f77b4;stroke:#1f77b4;" x="180.769091" xlink:href="#m130c698046" y="201.962371"/>
     <use style="fill:#1f77b4;stroke:#1f77b4;" x="181.932727" xlink:href="#m130c698046" y="180.857359"/>
     <use style="fill:#1f77b4;stroke:#1f77b4;" x="183.096364" xlink:href="#m130c698046" y="162.469346"/>
     <use style="fill:#1f77b4;stroke:#1f77b4;" x="184.26" xlink:href="#m130c698046" y="166.82635"/>
     <use style="fill:#1f77b4;stroke:#1f77b4;" x="185.423636" xlink:href="#m130c698046" y="184.541498"/>
     <use style="fill:#1f77b4;stroke:#1f77b4;" x="186.587273" xlink:href="#m130c698046" y="192.812026"/>
     <use style="fill:#1f77b4;stroke:#1f77b4;" x="187.750909" xlink:href="#m130c698046" y="185.859053"/>
     <use style="fill:#1f77b4;stroke:#1f77b4;" x="188.914545" xlink:href="#m130c698046" y="180.089572"/>
     <use style="fill:#1f77b4;stroke:#1f77b4;" x="190.078182" xlink:href="#m130c698046" y="188.494172"/>
     <use style="fill:#1f77b4;stroke:#1f77b4;" x="191.241818" xlink:href="#m130c698046" y="217.700549"/>
     <use style="fill:#1f77b4;stroke:#1f77b4;" x="192.405455" xlink:href="#m130c698046" y="187.567818"/>
     <use style="fill:#1f77b4;stroke:#1f77b4;" x="193.569091" xlink:href="#m130c698046" y="181.308742"/>
     <use style="fill:#1f77b4;stroke:#1f77b4;" x="194.732727" xlink:href="#m130c698046" y="160.868612"/>
     <use style="fill:#1f77b4;stroke:#1f77b4;" x="195.896364" xlink:href="#m130c698046" y="164.314365"/>
     <use style="fill:#1f77b4;stroke:#1f77b4;" x="197.06" xlink:href="#m130c698046" y="182.370507"/>
     <use style="fill:#1f77b4;stroke:#1f77b4;" x="198.223636" xlink:href="#m130c698046" y="183.822794"/>
     <use style="fill:#1f77b4;stroke:#1f77b4;" x="199.387273" xlink:href="#m130c698046" y="189.320431"/>
     <use style="fill:#1f77b4;stroke:#1f77b4;" x="200.550909" xlink:href="#m130c698046" y="188.949079"/>
     <use style="fill:#1f77b4;stroke:#1f77b4;" x="201.714545" xlink:href="#m130c698046" y="185.68672"/>
     <use style="fill:#1f77b4;stroke:#1f77b4;" x="202.878182" xlink:href="#m130c698046" y="199.318915"/>
     <use style="fill:#1f77b4;stroke:#1f77b4;" x="204.041818" xlink:href="#m130c698046" y="202.099335"/>
     <use style="fill:#1f77b4;stroke:#1f77b4;" x="205.205455" xlink:href="#m130c698046" y="183.238941"/>
     <use style="fill:#1f77b4;stroke:#1f77b4;" x="206.369091" xlink:href="#m130c698046" y="215.658574"/>
     <use style="fill:#1f77b4;stroke:#1f77b4;" x="207.532727" xlink:href="#m130c698046" y="187.536828"/>
     <use style="fill:#1f77b4;stroke:#1f77b4;" x="208.696364" xlink:href="#m130c698046" y="220.231317"/>
     <use style="fill:#1f77b4;stroke:#1f77b4;" x="209.86" xlink:href="#m130c698046" y="189.132227"/>
     <use style="fill:#1f77b4;stroke:#1f77b4;" x="211.023636" xlink:href="#m130c698046" y="186.513726"/>
     <use style="fill:#1f77b4;stroke:#1f77b4;" x="212.187273" xlink:href="#m130c698046" y="241.967057"/>
     <use style="fill:#1f77b4;stroke:#1f77b4;" x="213.350909" xlink:href="#m130c698046" y="259.76594"/>
     <use style="fill:#1f77b4;stroke:#1f77b4;" x="214.514545" xlink:href="#m130c698046" y="211.537689"/>
     <use style="fill:#1f77b4;stroke:#1f77b4;" x="215.678182" xlink:href="#m130c698046" y="185.094821"/>
     <use style="fill:#1f77b4;stroke:#1f77b4;" x="216.841818" xlink:href="#m130c698046" y="166.229254"/>
     <use style="fill:#1f77b4;stroke:#1f77b4;" x="218.005455" xlink:href="#m130c698046" y="166.390669"/>
     <use style="fill:#1f77b4;stroke:#1f77b4;" x="219.169091" xlink:href="#m130c698046" y="176.525143"/>
     <use style="fill:#1f77b4;stroke:#1f77b4;" x="220.332727" xlink:href="#m130c698046" y="184.125723"/>
     <use style="fill:#1f77b4;stroke:#1f77b4;" x="221.496364" xlink:href="#m130c698046" y="178.49207"/>
     <use style="fill:#1f77b4;stroke:#1f77b4;" x="222.66" xlink:href="#m130c698046" y="193.856043"/>
     <use style="fill:#1f77b4;stroke:#1f77b4;" x="223.823636" xlink:href="#m130c698046" y="187.780477"/>
     <use style="fill:#1f77b4;stroke:#1f77b4;" x="224.987273" xlink:href="#m130c698046" y="194.140673"/>
     <use style="fill:#1f77b4;stroke:#1f77b4;" x="226.150909" xlink:href="#m130c698046" y="201.620301"/>
     <use style="fill:#1f77b4;stroke:#1f77b4;" x="227.314545" xlink:href="#m130c698046" y="192.728165"/>
     <use style="fill:#1f77b4;stroke:#1f77b4;" x="228.478182" xlink:href="#m130c698046" y="189.333173"/>
     <use style="fill:#1f77b4;stroke:#1f77b4;" x="229.641818" xlink:href="#m130c698046" y="209.445464"/>
     <use style="fill:#1f77b4;stroke:#1f77b4;" x="230.805455" xlink:href="#m130c698046" y="183.306898"/>
     <use style="fill:#1f77b4;stroke:#1f77b4;" x="231.969091" xlink:href="#m130c698046" y="180.998463"/>
     <use style="fill:#1f77b4;stroke:#1f77b4;" x="233.132727" xlink:href="#m130c698046" y="184.048416"/>
     <use style="fill:#1f77b4;stroke:#1f77b4;" x="234.296364" xlink:href="#m130c698046" y="206.477648"/>
     <use style="fill:#1f77b4;stroke:#1f77b4;" x="235.46" xlink:href="#m130c698046" y="199.769251"/>
     <use style="fill:#1f77b4;stroke:#1f77b4;" x="236.623636" xlink:href="#m130c698046" y="185.554764"/>
     <use style="fill:#1f77b4;stroke:#1f77b4;" x="237.787273" xlink:href="#m130c698046" y="189.33058"/>
     <use style="fill:#1f77b4;stroke:#1f77b4;" x="238.950909" xlink:href="#m130c698046" y="209.782889"/>
     <use style="fill:#1f77b4;stroke:#1f77b4;" x="240.114545" xlink:href="#m130c698046" y="213.632582"/>
     <use style="fill:#1f77b4;stroke:#1f77b4;" x="241.278182" xlink:href="#m130c698046" y="181.012294"/>
     <use style="fill:#1f77b4;stroke:#1f77b4;" x="242.441818" xlink:href="#m130c698046" y="195.578737"/>
     <use style="fill:#1f77b4;stroke:#1f77b4;" x="243.605455" xlink:href="#m130c698046" y="214.396453"/>
     <use style="fill:#1f77b4;stroke:#1f77b4;" x="244.769091" xlink:href="#m130c698046" y="193.69401"/>
     <use style="fill:#1f77b4;stroke:#1f77b4;" x="245.932727" xlink:href="#m130c698046" y="181.9425"/>
     <use style="fill:#1f77b4;stroke:#1f77b4;" x="247.096364" xlink:href="#m130c698046" y="179.02797"/>
     <use style="fill:#1f77b4;stroke:#1f77b4;" x="248.26" xlink:href="#m130c698046" y="186.903302"/>
     <use style="fill:#1f77b4;stroke:#1f77b4;" x="249.423636" xlink:href="#m130c698046" y="193.201082"/>
     <use style="fill:#1f77b4;stroke:#1f77b4;" x="250.587273" xlink:href="#m130c698046" y="194.981804"/>
     <use style="fill:#1f77b4;stroke:#1f77b4;" x="251.750909" xlink:href="#m130c698046" y="191.25408"/>
     <use style="fill:#1f77b4;stroke:#1f77b4;" x="252.914545" xlink:href="#m130c698046" y="203.073796"/>
     <use style="fill:#1f77b4;stroke:#1f77b4;" x="254.078182" xlink:href="#m130c698046" y="171.919441"/>
     <use style="fill:#1f77b4;stroke:#1f77b4;" x="255.241818" xlink:href="#m130c698046" y="171.784379"/>
     <use style="fill:#1f77b4;stroke:#1f77b4;" x="256.405455" xlink:href="#m130c698046" y="182.754081"/>
     <use style="fill:#1f77b4;stroke:#1f77b4;" x="257.569091" xlink:href="#m130c698046" y="198.462047"/>
     <use style="fill:#1f77b4;stroke:#1f77b4;" x="258.732727" xlink:href="#m130c698046" y="191.468845"/>
     <use style="fill:#1f77b4;stroke:#1f77b4;" x="259.896364" xlink:href="#m130c698046" y="203.017701"/>
     <use style="fill:#1f77b4;stroke:#1f77b4;" x="261.06" xlink:href="#m130c698046" y="178.292479"/>
     <use style="fill:#1f77b4;stroke:#1f77b4;" x="262.223636" xlink:href="#m130c698046" y="173.386272"/>
     <use style="fill:#1f77b4;stroke:#1f77b4;" x="263.387273" xlink:href="#m130c698046" y="190.531998"/>
     <use style="fill:#1f77b4;stroke:#1f77b4;" x="264.550909" xlink:href="#m130c698046" y="162.949816"/>
     <use style="fill:#1f77b4;stroke:#1f77b4;" x="265.714545" xlink:href="#m130c698046" y="166.774608"/>
     <use style="fill:#1f77b4;stroke:#1f77b4;" x="266.878182" xlink:href="#m130c698046" y="175.357483"/>
     <use style="fill:#1f77b4;stroke:#1f77b4;" x="268.041818" xlink:href="#m130c698046" y="181.394586"/>
     <use style="fill:#1f77b4;stroke:#1f77b4;" x="269.205455" xlink:href="#m130c698046" y="210.770471"/>
     <use style="fill:#1f77b4;stroke:#1f77b4;" x="270.369091" xlink:href="#m130c698046" y="192.308574"/>
     <use style="fill:#1f77b4;stroke:#1f77b4;" x="271.532727" xlink:href="#m130c698046" y="186.64429"/>
     <use style="fill:#1f77b4;stroke:#1f77b4;" x="272.696364" xlink:href="#m130c698046" y="212.75753"/>
     <use style="fill:#1f77b4;stroke:#1f77b4;" x="273.86" xlink:href="#m130c698046" y="188.997229"/>
     <use style="fill:#1f77b4;stroke:#1f77b4;" x="275.023636" xlink:href="#m130c698046" y="189.270779"/>
     <use style="fill:#1f77b4;stroke:#1f77b4;" x="276.187273" xlink:href="#m130c698046" y="231.978192"/>
     <use style="fill:#1f77b4;stroke:#1f77b4;" x="277.350909" xlink:href="#m130c698046" y="208.182718"/>
     <use style="fill:#1f77b4;stroke:#1f77b4;" x="278.514545" xlink:href="#m130c698046" y="185.847101"/>
     <use style="fill:#1f77b4;stroke:#1f77b4;" x="279.678182" xlink:href="#m130c698046" y="181.987257"/>
     <use style="fill:#1f77b4;stroke:#1f77b4;" x="280.841818" xlink:href="#m130c698046" y="197.697804"/>
     <use style="fill:#1f77b4;stroke:#1f77b4;" x="282.005455" xlink:href="#m130c698046" y="184.743251"/>
     <use style="fill:#1f77b4;stroke:#1f77b4;" x="283.169091" xlink:href="#m130c698046" y="159.246263"/>
     <use style="fill:#1f77b4;stroke:#1f77b4;" x="284.332727" xlink:href="#m130c698046" y="162.848718"/>
     <use style="fill:#1f77b4;stroke:#1f77b4;" x="285.496364" xlink:href="#m130c698046" y="182.040055"/>
     <use style="fill:#1f77b4;stroke:#1f77b4;" x="286.66" xlink:href="#m130c698046" y="235.548036"/>
     <use style="fill:#1f77b4;stroke:#1f77b4;" x="287.823636" xlink:href="#m130c698046" y="187.972923"/>
     <use style="fill:#1f77b4;stroke:#1f77b4;" x="288.987273" xlink:href="#m130c698046" y="188.957566"/>
     <use style="fill:#1f77b4;stroke:#1f77b4;" x="290.150909" xlink:href="#m130c698046" y="185.385159"/>
     <use style="fill:#1f77b4;stroke:#1f77b4;" x="291.314545" xlink:href="#m130c698046" y="176.247627"/>
     <use style="fill:#1f77b4;stroke:#1f77b4;" x="292.478182" xlink:href="#m130c698046" y="196.381387"/>
     <use style="fill:#1f77b4;stroke:#1f77b4;" x="293.641818" xlink:href="#m130c698046" y="186.740238"/>
     <use style="fill:#1f77b4;stroke:#1f77b4;" x="294.805455" xlink:href="#m130c698046" y="188.532937"/>
     <use style="fill:#1f77b4;stroke:#1f77b4;" x="295.969091" xlink:href="#m130c698046" y="182.295395"/>
     <use style="fill:#1f77b4;stroke:#1f77b4;" x="297.132727" xlink:href="#m130c698046" y="206.47085"/>
     <use style="fill:#1f77b4;stroke:#1f77b4;" x="298.296364" xlink:href="#m130c698046" y="197.137086"/>
     <use style="fill:#1f77b4;stroke:#1f77b4;" x="299.46" xlink:href="#m130c698046" y="195.556795"/>
     <use style="fill:#1f77b4;stroke:#1f77b4;" x="300.623636" xlink:href="#m130c698046" y="199.189725"/>
     <use style="fill:#1f77b4;stroke:#1f77b4;" x="301.787273" xlink:href="#m130c698046" y="185.327933"/>
     <use style="fill:#1f77b4;stroke:#1f77b4;" x="302.950909" xlink:href="#m130c698046" y="181.382797"/>
     <use style="fill:#1f77b4;stroke:#1f77b4;" x="304.114545" xlink:href="#m130c698046" y="190.131685"/>
     <use style="fill:#1f77b4;stroke:#1f77b4;" x="305.278182" xlink:href="#m130c698046" y="225.648838"/>
     <use style="fill:#1f77b4;stroke:#1f77b4;" x="306.441818" xlink:href="#m130c698046" y="201.229855"/>
     <use style="fill:#1f77b4;stroke:#1f77b4;" x="307.605455" xlink:href="#m130c698046" y="181.690096"/>
     <use style="fill:#1f77b4;stroke:#1f77b4;" x="308.769091" xlink:href="#m130c698046" y="181.512938"/>
     <use style="fill:#1f77b4;stroke:#1f77b4;" x="309.932727" xlink:href="#m130c698046" y="171.42407"/>
     <use style="fill:#1f77b4;stroke:#1f77b4;" x="311.096364" xlink:href="#m130c698046" y="173.972919"/>
     <use style="fill:#1f77b4;stroke:#1f77b4;" x="312.26" xlink:href="#m130c698046" y="227.438318"/>
     <use style="fill:#1f77b4;stroke:#1f77b4;" x="313.423636" xlink:href="#m130c698046" y="180.747039"/>
     <use style="fill:#1f77b4;stroke:#1f77b4;" x="314.587273" xlink:href="#m130c698046" y="196.302426"/>
     <use style="fill:#1f77b4;stroke:#1f77b4;" x="315.750909" xlink:href="#m130c698046" y="183.545584"/>
     <use style="fill:#1f77b4;stroke:#1f77b4;" x="316.914545" xlink:href="#m130c698046" y="179.016484"/>
     <use style="fill:#1f77b4;stroke:#1f77b4;" x="318.078182" xlink:href="#m130c698046" y="183.031944"/>
     <use style="fill:#1f77b4;stroke:#1f77b4;" x="319.241818" xlink:href="#m130c698046" y="208.53913"/>
     <use style="fill:#1f77b4;stroke:#1f77b4;" x="320.405455" xlink:href="#m130c698046" y="194.371292"/>
     <use style="fill:#1f77b4;stroke:#1f77b4;" x="321.569091" xlink:href="#m130c698046" y="187.878619"/>
     <use style="fill:#1f77b4;stroke:#1f77b4;" x="322.732727" xlink:href="#m130c698046" y="199.898264"/>
     <use style="fill:#1f77b4;stroke:#1f77b4;" x="323.896364" xlink:href="#m130c698046" y="198.558195"/>
     <use style="fill:#1f77b4;stroke:#1f77b4;" x="325.06" xlink:href="#m130c698046" y="187.339885"/>
     <use style="fill:#1f77b4;stroke:#1f77b4;" x="326.223636" xlink:href="#m130c698046" y="191.671715"/>
     <use style="fill:#1f77b4;stroke:#1f77b4;" x="327.387273" xlink:href="#m130c698046" y="193.808885"/>
     <use style="fill:#1f77b4;stroke:#1f77b4;" x="328.550909" xlink:href="#m130c698046" y="195.393643"/>
     <use style="fill:#1f77b4;stroke:#1f77b4;" x="329.714545" xlink:href="#m130c698046" y="197.067993"/>
     <use style="fill:#1f77b4;stroke:#1f77b4;" x="330.878182" xlink:href="#m130c698046" y="194.153298"/>
     <use style="fill:#1f77b4;stroke:#1f77b4;" x="332.041818" xlink:href="#m130c698046" y="185.855923"/>
     <use style="fill:#1f77b4;stroke:#1f77b4;" x="333.205455" xlink:href="#m130c698046" y="208.808276"/>
     <use style="fill:#1f77b4;stroke:#1f77b4;" x="334.369091" xlink:href="#m130c698046" y="204.252939"/>
     <use style="fill:#1f77b4;stroke:#1f77b4;" x="335.532727" xlink:href="#m130c698046" y="199.165994"/>
     <use style="fill:#1f77b4;stroke:#1f77b4;" x="336.696364" xlink:href="#m130c698046" y="187.472105"/>
     <use style="fill:#1f77b4;stroke:#1f77b4;" x="337.86" xlink:href="#m130c698046" y="185.953881"/>
     <use style="fill:#1f77b4;stroke:#1f77b4;" x="339.023636" xlink:href="#m130c698046" y="206.32114"/>
     <use style="fill:#1f77b4;stroke:#1f77b4;" x="340.187273" xlink:href="#m130c698046" y="183.158009"/>
     <use style="fill:#1f77b4;stroke:#1f77b4;" x="341.350909" xlink:href="#m130c698046" y="180.197576"/>
     <use style="fill:#1f77b4;stroke:#1f77b4;" x="342.514545" xlink:href="#m130c698046" y="187.798951"/>
     <use style="fill:#1f77b4;stroke:#1f77b4;" x="343.678182" xlink:href="#m130c698046" y="193.298729"/>
     <use style="fill:#1f77b4;stroke:#1f77b4;" x="344.841818" xlink:href="#m130c698046" y="203.836332"/>
     <use style="fill:#1f77b4;stroke:#1f77b4;" x="346.005455" xlink:href="#m130c698046" y="185.457261"/>
     <use style="fill:#1f77b4;stroke:#1f77b4;" x="347.169091" xlink:href="#m130c698046" y="184.938223"/>
     <use style="fill:#1f77b4;stroke:#1f77b4;" x="348.332727" xlink:href="#m130c698046" y="180.061047"/>
     <use style="fill:#1f77b4;stroke:#1f77b4;" x="349.496364" xlink:href="#m130c698046" y="184.377532"/>
     <use style="fill:#1f77b4;stroke:#1f77b4;" x="350.66" xlink:href="#m130c698046" y="191.360357"/>
     <use style="fill:#1f77b4;stroke:#1f77b4;" x="351.823636" xlink:href="#m130c698046" y="193.900969"/>
     <use style="fill:#1f77b4;stroke:#1f77b4;" x="352.987273" xlink:href="#m130c698046" y="202.891141"/>
     <use style="fill:#1f77b4;stroke:#1f77b4;" x="354.150909" xlink:href="#m130c698046" y="178.727807"/>
     <use style="fill:#1f77b4;stroke:#1f77b4;" x="355.314545" xlink:href="#m130c698046" y="185.876339"/>
     <use style="fill:#1f77b4;stroke:#1f77b4;" x="356.478182" xlink:href="#m130c698046" y="174.35406"/>
     <use style="fill:#1f77b4;stroke:#1f77b4;" x="357.641818" xlink:href="#m130c698046" y="204.331204"/>
     <use style="fill:#1f77b4;stroke:#1f77b4;" x="358.805455" xlink:href="#m130c698046" y="219.478157"/>
     <use style="fill:#1f77b4;stroke:#1f77b4;" x="359.969091" xlink:href="#m130c698046" y="198.447192"/>
     <use style="fill:#1f77b4;stroke:#1f77b4;" x="361.132727" xlink:href="#m130c698046" y="181.747318"/>
     <use style="fill:#1f77b4;stroke:#1f77b4;" x="362.296364" xlink:href="#m130c698046" y="204.124165"/>
     <use style="fill:#1f77b4;stroke:#1f77b4;" x="363.46" xlink:href="#m130c698046" y="222.603804"/>
     <use style="fill:#1f77b4;stroke:#1f77b4;" x="364.623636" xlink:href="#m130c698046" y="200.893361"/>
     <use style="fill:#1f77b4;stroke:#1f77b4;" x="365.787273" xlink:href="#m130c698046" y="172.418687"/>
     <use style="fill:#1f77b4;stroke:#1f77b4;" x="366.950909" xlink:href="#m130c698046" y="176.631652"/>
     <use style="fill:#1f77b4;stroke:#1f77b4;" x="368.114545" xlink:href="#m130c698046" y="191.368662"/>
     <use style="fill:#1f77b4;stroke:#1f77b4;" x="369.278182" xlink:href="#m130c698046" y="186.934705"/>
     <use style="fill:#1f77b4;stroke:#1f77b4;" x="370.441818" xlink:href="#m130c698046" y="205.060409"/>
     <use style="fill:#1f77b4;stroke:#1f77b4;" x="371.605455" xlink:href="#m130c698046" y="187.715049"/>
     <use style="fill:#1f77b4;stroke:#1f77b4;" x="372.769091" xlink:href="#m130c698046" y="204.196818"/>
     <use style="fill:#1f77b4;stroke:#1f77b4;" x="373.932727" xlink:href="#m130c698046" y="204.314417"/>
     <use style="fill:#1f77b4;stroke:#1f77b4;" x="375.096364" xlink:href="#m130c698046" y="200.400225"/>
     <use style="fill:#1f77b4;stroke:#1f77b4;" x="376.26" xlink:href="#m130c698046" y="192.853403"/>
     <use style="fill:#1f77b4;stroke:#1f77b4;" x="377.099424" xlink:href="#m130c698046" y="22383.514"/>
    </g>
   </g>
   <g id="line2d_12">
    <path clip-path="url(#p3a181f07ee)" d="M 55.096364 26.3416 
L 56.26 37.117886 
L 57.423636 48.253077 
L 58.587273 58.812695 
L 59.750909 69.883342 
L 60.914545 80.672528 
L 62.078182 91.615754 
L 63.241818 102.556656 
L 64.405455 113.531918 
L 65.569091 124.35271 
L 66.732727 135.170865 
L 67.896364 145.584615 
L 69.06 157.744694 
" style="fill:none;stroke:#2ca02c;stroke-dasharray:1.5,2.475;stroke-dashoffset:0;stroke-width:1.5;"/>
    <defs>
     <path d="M -3 3 
L 3 -3 
M -3 -3 
L 3 3 
" id="m659816981e" style="stroke:#2ca02c;"/>
    </defs>
    <g clip-path="url(#p3a181f07ee)">
     <use style="fill:#2ca02c;stroke:#2ca02c;" x="55.096364" xlink:href="#m659816981e" y="26.3416"/>
     <use style="fill:#2ca02c;stroke:#2ca02c;" x="56.26" xlink:href="#m659816981e" y="37.117886"/>
     <use style="fill:#2ca02c;stroke:#2ca02c;" x="57.423636" xlink:href="#m659816981e" y="48.253077"/>
     <use style="fill:#2ca02c;stroke:#2ca02c;" x="58.587273" xlink:href="#m659816981e" y="58.812695"/>
     <use style="fill:#2ca02c;stroke:#2ca02c;" x="59.750909" xlink:href="#m659816981e" y="69.883342"/>
     <use style="fill:#2ca02c;stroke:#2ca02c;" x="60.914545" xlink:href="#m659816981e" y="80.672528"/>
     <use style="fill:#2ca02c;stroke:#2ca02c;" x="62.078182" xlink:href="#m659816981e" y="91.615754"/>
     <use style="fill:#2ca02c;stroke:#2ca02c;" x="63.241818" xlink:href="#m659816981e" y="102.556656"/>
     <use style="fill:#2ca02c;stroke:#2ca02c;" x="64.405455" xlink:href="#m659816981e" y="113.531918"/>
     <use style="fill:#2ca02c;stroke:#2ca02c;" x="65.569091" xlink:href="#m659816981e" y="124.35271"/>
     <use style="fill:#2ca02c;stroke:#2ca02c;" x="66.732727" xlink:href="#m659816981e" y="135.170865"/>
     <use style="fill:#2ca02c;stroke:#2ca02c;" x="67.896364" xlink:href="#m659816981e" y="145.584615"/>
     <use style="fill:#2ca02c;stroke:#2ca02c;" x="69.06" xlink:href="#m659816981e" y="157.744694"/>
    </g>
   </g>
   <g id="line2d_13">
    <path clip-path="url(#p3a181f07ee)" d="M 55.096364 82.869997 
L 79.537984 311.86825 
L 79.537984 311.86825 
" style="fill:none;stroke:#000000;stroke-dasharray:5.55,2.4;stroke-dashoffset:0;stroke-width:1.5;"/>
   </g>
   <g id="patch_3">
    <path d="M 37.7 273.312 
L 37.7 7.2 
" style="fill:none;stroke:#000000;stroke-linecap:square;stroke-linejoin:miter;stroke-width:0.8;"/>
   </g>
   <g id="patch_4">
    <path d="M 394.82 273.312 
L 394.82 7.2 
" style="fill:none;stroke:#000000;stroke-linecap:square;stroke-linejoin:miter;stroke-width:0.8;"/>
   </g>
   <g id="patch_5">
    <path d="M 37.7 273.312 
L 394.82 273.312 
" style="fill:none;stroke:#000000;stroke-linecap:square;stroke-linejoin:miter;stroke-width:0.8;"/>
   </g>
   <g id="patch_6">
    <path d="M 37.7 7.2 
L 394.82 7.2 
" style="fill:none;stroke:#000000;stroke-linecap:square;stroke-linejoin:miter;stroke-width:0.8;"/>
   </g>
   <g id="legend_1">
    <g id="patch_7">
     <path d="M 287.02 59.25625 
L 387.82 59.25625 
Q 389.82 59.25625 389.82 57.25625 
L 389.82 14.2 
Q 389.82 12.2 387.82 12.2 
L 287.02 12.2 
Q 285.02 12.2 285.02 14.2 
L 285.02 57.25625 
Q 285.02 59.25625 287.02 59.25625 
z
" style="fill:#ffffff;opacity:0.8;"/>
    </g>
    <g id="line2d_14">
     <path d="M 289.02 20.298437 
L 309.02 20.298437 
" style="fill:none;stroke:#1f77b4;stroke-linecap:square;stroke-width:1.5;"/>
    </g>
    <g id="line2d_15">
     <g>
      <use style="fill:#1f77b4;stroke:#1f77b4;" x="299.02" xlink:href="#m130c698046" y="20.298437"/>
     </g>
    </g>
    <g id="text_12">
     <!-- APD$_n$ - APD$_\infty$ -->
     <defs>
      <path d="M 34.1875 63.1875 
L 20.796875 26.90625 
L 47.609375 26.90625 
z
M 28.609375 72.90625 
L 39.796875 72.90625 
L 67.578125 0 
L 57.328125 0 
L 50.6875 18.703125 
L 17.828125 18.703125 
L 11.1875 0 
L 0.78125 0 
z
" id="DejaVuSans-65"/>
      <path d="M 19.671875 64.796875 
L 19.671875 37.40625 
L 32.078125 37.40625 
Q 38.96875 37.40625 42.71875 40.96875 
Q 46.484375 44.53125 46.484375 51.125 
Q 46.484375 57.671875 42.71875 61.234375 
Q 38.96875 64.796875 32.078125 64.796875 
z
M 9.8125 72.90625 
L 32.078125 72.90625 
Q 44.34375 72.90625 50.609375 67.359375 
Q 56.890625 61.8125 56.890625 51.125 
Q 56.890625 40.328125 50.609375 34.8125 
Q 44.34375 29.296875 32.078125 29.296875 
L 19.671875 29.296875 
L 19.671875 0 
L 9.8125 0 
z
" id="DejaVuSans-80"/>
      <path d="M 19.671875 64.796875 
L 19.671875 8.109375 
L 31.59375 8.109375 
Q 46.6875 8.109375 53.6875 14.9375 
Q 60.6875 21.78125 60.6875 36.53125 
Q 60.6875 51.171875 53.6875 57.984375 
Q 46.6875 64.796875 31.59375 64.796875 
z
M 9.8125 72.90625 
L 30.078125 72.90625 
Q 51.265625 72.90625 61.171875 64.09375 
Q 71.09375 55.28125 71.09375 36.53125 
Q 71.09375 17.671875 61.125 8.828125 
Q 51.171875 0 30.078125 0 
L 9.8125 0 
z
" id="DejaVuSans-68"/>
      <path d="M 55.71875 33.015625 
L 49.3125 0 
L 40.28125 0 
L 46.6875 32.671875 
Q 47.125 34.96875 47.359375 36.71875 
Q 47.609375 38.484375 47.609375 39.5 
Q 47.609375 43.609375 45.015625 45.890625 
Q 42.4375 48.1875 37.796875 48.1875 
Q 30.5625 48.1875 25.34375 43.375 
Q 20.125 38.578125 18.5 30.328125 
L 12.5 0 
L 3.515625 0 
L 14.109375 54.6875 
L 23.09375 54.6875 
L 21.296875 46.09375 
Q 25.046875 50.828125 30.3125 53.40625 
Q 35.59375 56 41.40625 56 
Q 48.640625 56 52.609375 52.09375 
Q 56.59375 48.1875 56.59375 41.109375 
Q 56.59375 39.359375 56.375 37.359375 
Q 56.15625 35.359375 55.71875 33.015625 
z
" id="DejaVuSans-Oblique-110"/>
      <path id="DejaVuSans-32"/>
      <path d="M 4.890625 31.390625 
L 31.203125 31.390625 
L 31.203125 23.390625 
L 4.890625 23.390625 
z
" id="DejaVuSans-45"/>
      <path d="M 45.5625 17.046875 
Q 44.046875 18.796875 41.65625 22.90625 
Q 38.375 17.046875 35.5 14.453125 
Q 31.890625 11.328125 26.265625 11.328125 
Q 19.671875 11.328125 15.328125 16.265625 
Q 10.75 21.4375 10.75 29.984375 
Q 10.75 38.1875 15.328125 43.75 
Q 19.4375 48.6875 26.375 48.6875 
Q 29.9375 48.6875 32.5625 47.21875 
Q 35.640625 45.609375 37.75 42.828125 
Q 39.703125 40.328125 41.65625 36.96875 
Q 44.921875 42.828125 47.796875 45.40625 
Q 51.421875 48.53125 57.03125 48.53125 
Q 63.625 48.53125 67.96875 43.609375 
Q 72.5625 38.421875 72.5625 29.890625 
Q 72.5625 21.6875 67.96875 16.109375 
Q 63.875 11.1875 56.9375 11.1875 
Q 53.375 11.1875 50.734375 12.640625 
Q 48.09375 13.96875 45.5625 17.046875 
z
M 25.734375 17.71875 
Q 33.796875 17.71875 38.625 29.4375 
Q 32.421875 42.234375 25.734375 42.234375 
Q 20.84375 42.234375 18.359375 38.71875 
Q 15.671875 34.96875 15.671875 29.984375 
Q 15.671875 24.515625 18.359375 21.140625 
Q 21.09375 17.71875 25.734375 17.71875 
z
M 57.5625 42.140625 
Q 50.296875 42.140625 44.671875 30.421875 
Q 50.828125 17.625 57.5625 17.625 
Q 62.453125 17.625 64.9375 21.140625 
Q 67.625 24.90625 67.625 29.890625 
Q 67.625 35.359375 64.9375 38.71875 
Q 62.203125 42.140625 57.5625 42.140625 
z
" id="DejaVuSans-8734"/>
     </defs>
     <g transform="translate(317.02 23.798437)scale(0.1 -0.1)">
      <use transform="translate(0 0.09375)" xlink:href="#DejaVuSans-65"/>
      <use transform="translate(68.408203 0.09375)" xlink:href="#DejaVuSans-80"/>
      <use transform="translate(128.710938 0.09375)" xlink:href="#DejaVuSans-68"/>
      <use transform="translate(206.669922 -16.3125)scale(0.7)" xlink:href="#DejaVuSans-Oblique-110"/>
      <use transform="translate(253.769531 0.09375)" xlink:href="#DejaVuSans-32"/>
      <use transform="translate(285.556641 0.09375)" xlink:href="#DejaVuSans-45"/>
      <use transform="translate(321.640625 0.09375)" xlink:href="#DejaVuSans-32"/>
      <use transform="translate(353.427734 0.09375)" xlink:href="#DejaVuSans-65"/>
      <use transform="translate(421.835938 0.09375)" xlink:href="#DejaVuSans-80"/>
      <use transform="translate(482.138672 0.09375)" xlink:href="#DejaVuSans-68"/>
      <use transform="translate(560.097656 -16.3125)scale(0.7)" xlink:href="#DejaVuSans-8734"/>
     </g>
    </g>
    <g id="line2d_16">
     <path d="M 289.02 34.976562 
L 309.02 34.976562 
" style="fill:none;stroke:#2ca02c;stroke-dasharray:1.5,2.475;stroke-dashoffset:0;stroke-width:1.5;"/>
    </g>
    <g id="line2d_17">
     <g>
      <use style="fill:#2ca02c;stroke:#2ca02c;" x="299.02" xlink:href="#m659816981e" y="34.976562"/>
     </g>
    </g>
    <g id="text_13">
     <!-- linear region -->
     <defs>
      <path d="M 9.421875 75.984375 
L 18.40625 75.984375 
L 18.40625 0 
L 9.421875 0 
z
" id="DejaVuSans-108"/>
      <path d="M 9.421875 54.6875 
L 18.40625 54.6875 
L 18.40625 0 
L 9.421875 0 
z
M 9.421875 75.984375 
L 18.40625 75.984375 
L 18.40625 64.59375 
L 9.421875 64.59375 
z
" id="DejaVuSans-105"/>
      <path d="M 54.890625 33.015625 
L 54.890625 0 
L 45.90625 0 
L 45.90625 32.71875 
Q 45.90625 40.484375 42.875 44.328125 
Q 39.84375 48.1875 33.796875 48.1875 
Q 26.515625 48.1875 22.3125 43.546875 
Q 18.109375 38.921875 18.109375 30.90625 
L 18.109375 0 
L 9.078125 0 
L 9.078125 54.6875 
L 18.109375 54.6875 
L 18.109375 46.1875 
Q 21.34375 51.125 25.703125 53.5625 
Q 30.078125 56 35.796875 56 
Q 45.21875 56 50.046875 50.171875 
Q 54.890625 44.34375 54.890625 33.015625 
z
" id="DejaVuSans-110"/>
      <path d="M 56.203125 29.59375 
L 56.203125 25.203125 
L 14.890625 25.203125 
Q 15.484375 15.921875 20.484375 11.0625 
Q 25.484375 6.203125 34.421875 6.203125 
Q 39.59375 6.203125 44.453125 7.46875 
Q 49.3125 8.734375 54.109375 11.28125 
L 54.109375 2.78125 
Q 49.265625 0.734375 44.1875 -0.34375 
Q 39.109375 -1.421875 33.890625 -1.421875 
Q 20.796875 -1.421875 13.15625 6.1875 
Q 5.515625 13.8125 5.515625 26.8125 
Q 5.515625 40.234375 12.765625 48.109375 
Q 20.015625 56 32.328125 56 
Q 43.359375 56 49.78125 48.890625 
Q 56.203125 41.796875 56.203125 29.59375 
z
M 47.21875 32.234375 
Q 47.125 39.59375 43.09375 43.984375 
Q 39.0625 48.390625 32.421875 48.390625 
Q 24.90625 48.390625 20.390625 44.140625 
Q 15.875 39.890625 15.1875 32.171875 
z
" id="DejaVuSans-101"/>
      <path d="M 34.28125 27.484375 
Q 23.390625 27.484375 19.1875 25 
Q 14.984375 22.515625 14.984375 16.5 
Q 14.984375 11.71875 18.140625 8.90625 
Q 21.296875 6.109375 26.703125 6.109375 
Q 34.1875 6.109375 38.703125 11.40625 
Q 43.21875 16.703125 43.21875 25.484375 
L 43.21875 27.484375 
z
M 52.203125 31.203125 
L 52.203125 0 
L 43.21875 0 
L 43.21875 8.296875 
Q 40.140625 3.328125 35.546875 0.953125 
Q 30.953125 -1.421875 24.3125 -1.421875 
Q 15.921875 -1.421875 10.953125 3.296875 
Q 6 8.015625 6 15.921875 
Q 6 25.140625 12.171875 29.828125 
Q 18.359375 34.515625 30.609375 34.515625 
L 43.21875 34.515625 
L 43.21875 35.40625 
Q 43.21875 41.609375 39.140625 45 
Q 35.0625 48.390625 27.6875 48.390625 
Q 23 48.390625 18.546875 47.265625 
Q 14.109375 46.140625 10.015625 43.890625 
L 10.015625 52.203125 
Q 14.9375 54.109375 19.578125 55.046875 
Q 24.21875 56 28.609375 56 
Q 40.484375 56 46.34375 49.84375 
Q 52.203125 43.703125 52.203125 31.203125 
z
" id="DejaVuSans-97"/>
      <path d="M 41.109375 46.296875 
Q 39.59375 47.171875 37.8125 47.578125 
Q 36.03125 48 33.890625 48 
Q 26.265625 48 22.1875 43.046875 
Q 18.109375 38.09375 18.109375 28.8125 
L 18.109375 0 
L 9.078125 0 
L 9.078125 54.6875 
L 18.109375 54.6875 
L 18.109375 46.1875 
Q 20.953125 51.171875 25.484375 53.578125 
Q 30.03125 56 36.53125 56 
Q 37.453125 56 38.578125 55.875 
Q 39.703125 55.765625 41.0625 55.515625 
z
" id="DejaVuSans-114"/>
      <path d="M 45.40625 27.984375 
Q 45.40625 37.75 41.375 43.109375 
Q 37.359375 48.484375 30.078125 48.484375 
Q 22.859375 48.484375 18.828125 43.109375 
Q 14.796875 37.75 14.796875 27.984375 
Q 14.796875 18.265625 18.828125 12.890625 
Q 22.859375 7.515625 30.078125 7.515625 
Q 37.359375 7.515625 41.375 12.890625 
Q 45.40625 18.265625 45.40625 27.984375 
z
M 54.390625 6.78125 
Q 54.390625 -7.171875 48.1875 -13.984375 
Q 42 -20.796875 29.203125 -20.796875 
Q 24.46875 -20.796875 20.265625 -20.09375 
Q 16.0625 -19.390625 12.109375 -17.921875 
L 12.109375 -9.1875 
Q 16.0625 -11.328125 19.921875 -12.34375 
Q 23.78125 -13.375 27.78125 -13.375 
Q 36.625 -13.375 41.015625 -8.765625 
Q 45.40625 -4.15625 45.40625 5.171875 
L 45.40625 9.625 
Q 42.625 4.78125 38.28125 2.390625 
Q 33.9375 0 27.875 0 
Q 17.828125 0 11.671875 7.65625 
Q 5.515625 15.328125 5.515625 27.984375 
Q 5.515625 40.671875 11.671875 48.328125 
Q 17.828125 56 27.875 56 
Q 33.9375 56 38.28125 53.609375 
Q 42.625 51.21875 45.40625 46.390625 
L 45.40625 54.6875 
L 54.390625 54.6875 
z
" id="DejaVuSans-103"/>
      <path d="M 30.609375 48.390625 
Q 23.390625 48.390625 19.1875 42.75 
Q 14.984375 37.109375 14.984375 27.296875 
Q 14.984375 17.484375 19.15625 11.84375 
Q 23.34375 6.203125 30.609375 6.203125 
Q 37.796875 6.203125 41.984375 11.859375 
Q 46.1875 17.53125 46.1875 27.296875 
Q 46.1875 37.015625 41.984375 42.703125 
Q 37.796875 48.390625 30.609375 48.390625 
z
M 30.609375 56 
Q 42.328125 56 49.015625 48.375 
Q 55.71875 40.765625 55.71875 27.296875 
Q 55.71875 13.875 49.015625 6.21875 
Q 42.328125 -1.421875 30.609375 -1.421875 
Q 18.84375 -1.421875 12.171875 6.21875 
Q 5.515625 13.875 5.515625 27.296875 
Q 5.515625 40.765625 12.171875 48.375 
Q 18.84375 56 30.609375 56 
z
" id="DejaVuSans-111"/>
     </defs>
     <g transform="translate(317.02 38.476562)scale(0.1 -0.1)">
      <use xlink:href="#DejaVuSans-108"/>
      <use x="27.783203" xlink:href="#DejaVuSans-105"/>
      <use x="55.566406" xlink:href="#DejaVuSans-110"/>
      <use x="118.945312" xlink:href="#DejaVuSans-101"/>
      <use x="180.46875" xlink:href="#DejaVuSans-97"/>
      <use x="241.748047" xlink:href="#DejaVuSans-114"/>
      <use x="282.861328" xlink:href="#DejaVuSans-32"/>
      <use x="314.648438" xlink:href="#DejaVuSans-114"/>
      <use x="353.511719" xlink:href="#DejaVuSans-101"/>
      <use x="415.035156" xlink:href="#DejaVuSans-103"/>
      <use x="478.511719" xlink:href="#DejaVuSans-105"/>
      <use x="506.294922" xlink:href="#DejaVuSans-111"/>
      <use x="567.476562" xlink:href="#DejaVuSans-110"/>
     </g>
    </g>
    <g id="line2d_18">
     <path d="M 289.02 49.65625 
L 309.02 49.65625 
" style="fill:none;stroke:#000000;stroke-dasharray:5.55,2.4;stroke-dashoffset:0;stroke-width:1.5;"/>
    </g>
    <g id="line2d_19"/>
    <g id="text_14">
     <!-- $ \exp(-0.813 k)$ -->
     <defs>
      <path d="M 54.890625 54.6875 
L 35.109375 28.078125 
L 55.90625 0 
L 45.3125 0 
L 29.390625 21.484375 
L 13.484375 0 
L 2.875 0 
L 24.125 28.609375 
L 4.6875 54.6875 
L 15.28125 54.6875 
L 29.78125 35.203125 
L 44.28125 54.6875 
z
" id="DejaVuSans-120"/>
      <path d="M 18.109375 8.203125 
L 18.109375 -20.796875 
L 9.078125 -20.796875 
L 9.078125 54.6875 
L 18.109375 54.6875 
L 18.109375 46.390625 
Q 20.953125 51.265625 25.265625 53.625 
Q 29.59375 56 35.59375 56 
Q 45.5625 56 51.78125 48.09375 
Q 58.015625 40.1875 58.015625 27.296875 
Q 58.015625 14.40625 51.78125 6.484375 
Q 45.5625 -1.421875 35.59375 -1.421875 
Q 29.59375 -1.421875 25.265625 0.953125 
Q 20.953125 3.328125 18.109375 8.203125 
z
M 48.6875 27.296875 
Q 48.6875 37.203125 44.609375 42.84375 
Q 40.53125 48.484375 33.40625 48.484375 
Q 26.265625 48.484375 22.1875 42.84375 
Q 18.109375 37.203125 18.109375 27.296875 
Q 18.109375 17.390625 22.1875 11.75 
Q 26.265625 6.109375 33.40625 6.109375 
Q 40.53125 6.109375 44.609375 11.75 
Q 48.6875 17.390625 48.6875 27.296875 
z
" id="DejaVuSans-112"/>
      <path d="M 31 75.875 
Q 24.46875 64.65625 21.28125 53.65625 
Q 18.109375 42.671875 18.109375 31.390625 
Q 18.109375 20.125 21.3125 9.0625 
Q 24.515625 -2 31 -13.1875 
L 23.1875 -13.1875 
Q 15.875 -1.703125 12.234375 9.375 
Q 8.59375 20.453125 8.59375 31.390625 
Q 8.59375 42.28125 12.203125 53.3125 
Q 15.828125 64.359375 23.1875 75.875 
z
" id="DejaVuSans-40"/>
      <path d="M 10.6875 12.40625 
L 21 12.40625 
L 21 0 
L 10.6875 0 
z
" id="DejaVuSans-46"/>
      <path d="M 31.78125 34.625 
Q 24.75 34.625 20.71875 30.859375 
Q 16.703125 27.09375 16.703125 20.515625 
Q 16.703125 13.921875 20.71875 10.15625 
Q 24.75 6.390625 31.78125 6.390625 
Q 38.8125 6.390625 42.859375 10.171875 
Q 46.921875 13.96875 46.921875 20.515625 
Q 46.921875 27.09375 42.890625 30.859375 
Q 38.875 34.625 31.78125 34.625 
z
M 21.921875 38.8125 
Q 15.578125 40.375 12.03125 44.71875 
Q 8.5 49.078125 8.5 55.328125 
Q 8.5 64.0625 14.71875 69.140625 
Q 20.953125 74.21875 31.78125 74.21875 
Q 42.671875 74.21875 48.875 69.140625 
Q 55.078125 64.0625 55.078125 55.328125 
Q 55.078125 49.078125 51.53125 44.71875 
Q 48 40.375 41.703125 38.8125 
Q 48.828125 37.15625 52.796875 32.3125 
Q 56.78125 27.484375 56.78125 20.515625 
Q 56.78125 9.90625 50.3125 4.234375 
Q 43.84375 -1.421875 31.78125 -1.421875 
Q 19.734375 -1.421875 13.25 4.234375 
Q 6.78125 9.90625 6.78125 20.515625 
Q 6.78125 27.484375 10.78125 32.3125 
Q 14.796875 37.15625 21.921875 38.8125 
z
M 18.3125 54.390625 
Q 18.3125 48.734375 21.84375 45.5625 
Q 25.390625 42.390625 31.78125 42.390625 
Q 38.140625 42.390625 41.71875 45.5625 
Q 45.3125 48.734375 45.3125 54.390625 
Q 45.3125 60.0625 41.71875 63.234375 
Q 38.140625 66.40625 31.78125 66.40625 
Q 25.390625 66.40625 21.84375 63.234375 
Q 18.3125 60.0625 18.3125 54.390625 
z
" id="DejaVuSans-56"/>
      <path d="M 8.015625 75.875 
L 15.828125 75.875 
Q 23.140625 64.359375 26.78125 53.3125 
Q 30.421875 42.28125 30.421875 31.390625 
Q 30.421875 20.453125 26.78125 9.375 
Q 23.140625 -1.703125 15.828125 -13.1875 
L 8.015625 -13.1875 
Q 14.5 -2 17.703125 9.0625 
Q 20.90625 20.125 20.90625 31.390625 
Q 20.90625 42.671875 17.703125 53.65625 
Q 14.5 64.65625 8.015625 75.875 
z
" id="DejaVuSans-41"/>
     </defs>
     <g transform="translate(317.02 53.15625)scale(0.1 -0.1)">
      <use transform="translate(0 0.015625)" xlink:href="#DejaVuSans-101"/>
      <use transform="translate(61.523438 0.015625)" xlink:href="#DejaVuSans-120"/>
      <use transform="translate(120.703125 0.015625)" xlink:href="#DejaVuSans-112"/>
      <use transform="translate(184.179688 0.015625)" xlink:href="#DejaVuSans-40"/>
      <use transform="translate(223.193359 0.015625)" xlink:href="#DejaVuSans-8722"/>
      <use transform="translate(306.982422 0.015625)" xlink:href="#DejaVuSans-48"/>
      <use transform="translate(370.605469 0.015625)" xlink:href="#DejaVuSans-46"/>
      <use transform="translate(399.767578 0.015625)" xlink:href="#DejaVuSans-56"/>
      <use transform="translate(463.390625 0.015625)" xlink:href="#DejaVuSans-49"/>
      <use transform="translate(527.013672 0.015625)" xlink:href="#DejaVuSans-51"/>
      <use transform="translate(590.636719 0.015625)" xlink:href="#DejaVuSans-Oblique-107"/>
      <use transform="translate(648.546875 0.015625)" xlink:href="#DejaVuSans-41"/>
     </g>
    </g>
   </g>
  </g>
 </g>
 <defs>
  <clipPath id="p3a181f07ee">
   <rect height="266.112" width="357.12" x="37.7" y="7.2"/>
  </clipPath>
 </defs>
</svg>
