<?xml version="1.0" encoding="utf-8" standalone="no"?>
<!DOCTYPE svg PUBLIC "-//W3C//DTD SVG 1.1//EN"
  "http://www.w3.org/Graphics/SVG/1.1/DTD/svg11.dtd">
<!-- Created with matplotlib (https://matplotlib.org/) -->
<svg height="310.86825pt" version="1.1" viewBox="0 0 408.858295 310.86825" width="408.858295pt" xmlns="http://www.w3.org/2000/svg" xmlns:xlink="http://www.w3.org/1999/xlink">
 <defs>
  <style type="text/css">
*{stroke-linecap:butt;stroke-linejoin:round;}
  </style>
 </defs>
 <g id="figure_1">
  <g id="patch_1">
   <path d="M 0 310.86825 
L 408.858295 310.86825 
L 408.858295 0 
L 0 0 
z
" style="fill:#ffffff;"/>
  </g>
  <g id="axes_1">
   <g id="patch_2">
    <path d="M 37.7 273.312 
L 394.82 273.312 
L 394.82 7.2 
L 37.7 7.2 
z
" style="fill:#ffffff;"/>
   </g>
   <g id="matplotlib.axis_1">
    <g id="xtick_1">
     <g id="line2d_1">
      <defs>
       <path d="M 0 0 
L 0 3.5 
" id="m21757c4985" style="stroke:#000000;stroke-width:0.8;"/>
      </defs>
      <g>
       <use style="stroke:#000000;stroke-width:0.8;" x="53.932727" xlink:href="#m21757c4985" y="273.312"/>
      </g>
     </g>
     <g id="text_1">
      <!-- 0 -->
      <defs>
       <path d="M 31.78125 66.40625 
Q 24.171875 66.40625 20.328125 58.90625 
Q 16.5 51.421875 16.5 36.375 
Q 16.5 21.390625 20.328125 13.890625 
Q 24.171875 6.390625 31.78125 6.390625 
Q 39.453125 6.390625 43.28125 13.890625 
Q 47.125 21.390625 47.125 36.375 
Q 47.125 51.421875 43.28125 58.90625 
Q 39.453125 66.40625 31.78125 66.40625 
z
M 31.78125 74.21875 
Q 44.046875 74.21875 50.515625 64.515625 
Q 56.984375 54.828125 56.984375 36.375 
Q 56.984375 17.96875 50.515625 8.265625 
Q 44.046875 -1.421875 31.78125 -1.421875 
Q 19.53125 -1.421875 13.0625 8.265625 
Q 6.59375 17.96875 6.59375 36.375 
Q 6.59375 54.828125 13.0625 64.515625 
Q 19.53125 74.21875 31.78125 74.21875 
z
" id="DejaVuSans-48"/>
      </defs>
      <g transform="translate(50.751477 287.910437)scale(0.1 -0.1)">
       <use xlink:href="#DejaVuSans-48"/>
      </g>
     </g>
    </g>
    <g id="xtick_2">
     <g id="line2d_2">
      <g>
       <use style="stroke:#000000;stroke-width:0.8;" x="110.296364" xlink:href="#m21757c4985" y="273.312"/>
      </g>
     </g>
     <g id="text_2">
      <!-- 50 -->
      <defs>
       <path d="M 10.796875 72.90625 
L 49.515625 72.90625 
L 49.515625 64.59375 
L 19.828125 64.59375 
L 19.828125 46.734375 
Q 21.96875 47.46875 24.109375 47.828125 
Q 26.265625 48.1875 28.421875 48.1875 
Q 40.625 48.1875 47.75 41.5 
Q 54.890625 34.8125 54.890625 23.390625 
Q 54.890625 11.625 47.5625 5.09375 
Q 40.234375 -1.421875 26.90625 -1.421875 
Q 22.3125 -1.421875 17.546875 -0.640625 
Q 12.796875 0.140625 7.71875 1.703125 
L 7.71875 11.625 
Q 12.109375 9.234375 16.796875 8.0625 
Q 21.484375 6.890625 26.703125 6.890625 
Q 35.15625 6.890625 40.078125 11.328125 
Q 45.015625 15.765625 45.015625 23.390625 
Q 45.015625 31 40.078125 35.4375 
Q 35.15625 39.890625 26.703125 39.890625 
Q 22.75 39.890625 18.8125 39.015625 
Q 14.890625 38.140625 10.796875 36.28125 
z
" id="DejaVuSans-53"/>
      </defs>
      <g transform="translate(103.933864 287.910437)scale(0.1 -0.1)">
       <use xlink:href="#DejaVuSans-53"/>
       <use x="63.623047" xlink:href="#DejaVuSans-48"/>
      </g>
     </g>
    </g>
    <g id="xtick_3">
     <g id="line2d_3">
      <g>
       <use style="stroke:#000000;stroke-width:0.8;" x="166.66" xlink:href="#m21757c4985" y="273.312"/>
      </g>
     </g>
     <g id="text_3">
      <!-- 100 -->
      <defs>
       <path d="M 12.40625 8.296875 
L 28.515625 8.296875 
L 28.515625 63.921875 
L 10.984375 60.40625 
L 10.984375 69.390625 
L 28.421875 72.90625 
L 38.28125 72.90625 
L 38.28125 8.296875 
L 54.390625 8.296875 
L 54.390625 0 
L 12.40625 0 
z
" id="DejaVuSans-49"/>
      </defs>
      <g transform="translate(157.11625 287.910437)scale(0.1 -0.1)">
       <use xlink:href="#DejaVuSans-49"/>
       <use x="63.623047" xlink:href="#DejaVuSans-48"/>
       <use x="127.246094" xlink:href="#DejaVuSans-48"/>
      </g>
     </g>
    </g>
    <g id="xtick_4">
     <g id="line2d_4">
      <g>
       <use style="stroke:#000000;stroke-width:0.8;" x="223.023636" xlink:href="#m21757c4985" y="273.312"/>
      </g>
     </g>
     <g id="text_4">
      <!-- 150 -->
      <g transform="translate(213.479886 287.910437)scale(0.1 -0.1)">
       <use xlink:href="#DejaVuSans-49"/>
       <use x="63.623047" xlink:href="#DejaVuSans-53"/>
       <use x="127.246094" xlink:href="#DejaVuSans-48"/>
      </g>
     </g>
    </g>
    <g id="xtick_5">
     <g id="line2d_5">
      <g>
       <use style="stroke:#000000;stroke-width:0.8;" x="279.387273" xlink:href="#m21757c4985" y="273.312"/>
      </g>
     </g>
     <g id="text_5">
      <!-- 200 -->
      <defs>
       <path d="M 19.1875 8.296875 
L 53.609375 8.296875 
L 53.609375 0 
L 7.328125 0 
L 7.328125 8.296875 
Q 12.9375 14.109375 22.625 23.890625 
Q 32.328125 33.6875 34.8125 36.53125 
Q 39.546875 41.84375 41.421875 45.53125 
Q 43.3125 49.21875 43.3125 52.78125 
Q 43.3125 58.59375 39.234375 62.25 
Q 35.15625 65.921875 28.609375 65.921875 
Q 23.96875 65.921875 18.8125 64.3125 
Q 13.671875 62.703125 7.8125 59.421875 
L 7.8125 69.390625 
Q 13.765625 71.78125 18.9375 73 
Q 24.125 74.21875 28.421875 74.21875 
Q 39.75 74.21875 46.484375 68.546875 
Q 53.21875 62.890625 53.21875 53.421875 
Q 53.21875 48.921875 51.53125 44.890625 
Q 49.859375 40.875 45.40625 35.40625 
Q 44.1875 33.984375 37.640625 27.21875 
Q 31.109375 20.453125 19.1875 8.296875 
z
" id="DejaVuSans-50"/>
      </defs>
      <g transform="translate(269.843523 287.910437)scale(0.1 -0.1)">
       <use xlink:href="#DejaVuSans-50"/>
       <use x="63.623047" xlink:href="#DejaVuSans-48"/>
       <use x="127.246094" xlink:href="#DejaVuSans-48"/>
      </g>
     </g>
    </g>
    <g id="xtick_6">
     <g id="line2d_6">
      <g>
       <use style="stroke:#000000;stroke-width:0.8;" x="335.750909" xlink:href="#m21757c4985" y="273.312"/>
      </g>
     </g>
     <g id="text_6">
      <!-- 250 -->
      <g transform="translate(326.207159 287.910437)scale(0.1 -0.1)">
       <use xlink:href="#DejaVuSans-50"/>
       <use x="63.623047" xlink:href="#DejaVuSans-53"/>
       <use x="127.246094" xlink:href="#DejaVuSans-48"/>
      </g>
     </g>
    </g>
    <g id="xtick_7">
     <g id="line2d_7">
      <g>
       <use style="stroke:#000000;stroke-width:0.8;" x="392.114545" xlink:href="#m21757c4985" y="273.312"/>
      </g>
     </g>
     <g id="text_7">
      <!-- 300 -->
      <defs>
       <path d="M 40.578125 39.3125 
Q 47.65625 37.796875 51.625 33 
Q 55.609375 28.21875 55.609375 21.1875 
Q 55.609375 10.40625 48.1875 4.484375 
Q 40.765625 -1.421875 27.09375 -1.421875 
Q 22.515625 -1.421875 17.65625 -0.515625 
Q 12.796875 0.390625 7.625 2.203125 
L 7.625 11.71875 
Q 11.71875 9.328125 16.59375 8.109375 
Q 21.484375 6.890625 26.8125 6.890625 
Q 36.078125 6.890625 40.9375 10.546875 
Q 45.796875 14.203125 45.796875 21.1875 
Q 45.796875 27.640625 41.28125 31.265625 
Q 36.765625 34.90625 28.71875 34.90625 
L 20.21875 34.90625 
L 20.21875 43.015625 
L 29.109375 43.015625 
Q 36.375 43.015625 40.234375 45.921875 
Q 44.09375 48.828125 44.09375 54.296875 
Q 44.09375 59.90625 40.109375 62.90625 
Q 36.140625 65.921875 28.71875 65.921875 
Q 24.65625 65.921875 20.015625 65.03125 
Q 15.375 64.15625 9.8125 62.3125 
L 9.8125 71.09375 
Q 15.4375 72.65625 20.34375 73.4375 
Q 25.25 74.21875 29.59375 74.21875 
Q 40.828125 74.21875 47.359375 69.109375 
Q 53.90625 64.015625 53.90625 55.328125 
Q 53.90625 49.265625 50.4375 45.09375 
Q 46.96875 40.921875 40.578125 39.3125 
z
" id="DejaVuSans-51"/>
      </defs>
      <g transform="translate(382.570795 287.910437)scale(0.1 -0.1)">
       <use xlink:href="#DejaVuSans-51"/>
       <use x="63.623047" xlink:href="#DejaVuSans-48"/>
       <use x="127.246094" xlink:href="#DejaVuSans-48"/>
      </g>
     </g>
    </g>
    <g id="text_8">
     <!-- $ k $ -->
     <defs>
      <path d="M 18.3125 75.984375 
L 27.296875 75.984375 
L 18.703125 31.6875 
L 49.515625 54.6875 
L 61.1875 54.6875 
L 26.8125 28.515625 
L 51.90625 0 
L 41.015625 0 
L 17.671875 26.703125 
L 12.5 0 
L 3.515625 0 
z
" id="DejaVuSans-Oblique-107"/>
     </defs>
     <g transform="translate(213.36 301.588562)scale(0.1 -0.1)">
      <use transform="translate(0 0.015625)" xlink:href="#DejaVuSans-Oblique-107"/>
     </g>
    </g>
   </g>
   <g id="matplotlib.axis_2">
    <g id="ytick_1">
     <g id="line2d_8">
      <defs>
       <path d="M 0 0 
L -3.5 0 
" id="m22fef1742d" style="stroke:#000000;stroke-width:0.8;"/>
      </defs>
      <g>
       <use style="stroke:#000000;stroke-width:0.8;" x="37.7" xlink:href="#m22fef1742d" y="230.566477"/>
      </g>
     </g>
     <g id="text_9">
      <!-- $\mathdefault{10^{-6}}$ -->
      <defs>
       <path d="M 10.59375 35.5 
L 73.1875 35.5 
L 73.1875 27.203125 
L 10.59375 27.203125 
z
" id="DejaVuSans-8722"/>
       <path d="M 33.015625 40.375 
Q 26.375 40.375 22.484375 35.828125 
Q 18.609375 31.296875 18.609375 23.390625 
Q 18.609375 15.53125 22.484375 10.953125 
Q 26.375 6.390625 33.015625 6.390625 
Q 39.65625 6.390625 43.53125 10.953125 
Q 47.40625 15.53125 47.40625 23.390625 
Q 47.40625 31.296875 43.53125 35.828125 
Q 39.65625 40.375 33.015625 40.375 
z
M 52.59375 71.296875 
L 52.59375 62.3125 
Q 48.875 64.0625 45.09375 64.984375 
Q 41.3125 65.921875 37.59375 65.921875 
Q 27.828125 65.921875 22.671875 59.328125 
Q 17.53125 52.734375 16.796875 39.40625 
Q 19.671875 43.65625 24.015625 45.921875 
Q 28.375 48.1875 33.59375 48.1875 
Q 44.578125 48.1875 50.953125 41.515625 
Q 57.328125 34.859375 57.328125 23.390625 
Q 57.328125 12.15625 50.6875 5.359375 
Q 44.046875 -1.421875 33.015625 -1.421875 
Q 20.359375 -1.421875 13.671875 8.265625 
Q 6.984375 17.96875 6.984375 36.375 
Q 6.984375 53.65625 15.1875 63.9375 
Q 23.390625 74.21875 37.203125 74.21875 
Q 40.921875 74.21875 44.703125 73.484375 
Q 48.484375 72.75 52.59375 71.296875 
z
" id="DejaVuSans-54"/>
      </defs>
      <g transform="translate(7.2 234.365695)scale(0.1 -0.1)">
       <use transform="translate(0 0.765625)" xlink:href="#DejaVuSans-49"/>
       <use transform="translate(63.623047 0.765625)" xlink:href="#DejaVuSans-48"/>
       <use transform="translate(128.203125 39.046875)scale(0.7)" xlink:href="#DejaVuSans-8722"/>
       <use transform="translate(186.855469 39.046875)scale(0.7)" xlink:href="#DejaVuSans-54"/>
      </g>
     </g>
    </g>
    <g id="ytick_2">
     <g id="line2d_9">
      <g>
       <use style="stroke:#000000;stroke-width:0.8;" x="37.7" xlink:href="#m22fef1742d" y="175.924408"/>
      </g>
     </g>
     <g id="text_10">
      <!-- $\mathdefault{10^{-4}}$ -->
      <defs>
       <path d="M 37.796875 64.3125 
L 12.890625 25.390625 
L 37.796875 25.390625 
z
M 35.203125 72.90625 
L 47.609375 72.90625 
L 47.609375 25.390625 
L 58.015625 25.390625 
L 58.015625 17.1875 
L 47.609375 17.1875 
L 47.609375 0 
L 37.796875 0 
L 37.796875 17.1875 
L 4.890625 17.1875 
L 4.890625 26.703125 
z
" id="DejaVuSans-52"/>
      </defs>
      <g transform="translate(7.2 179.723627)scale(0.1 -0.1)">
       <use transform="translate(0 0.684375)" xlink:href="#DejaVuSans-49"/>
       <use transform="translate(63.623047 0.684375)" xlink:href="#DejaVuSans-48"/>
       <use transform="translate(128.203125 38.965625)scale(0.7)" xlink:href="#DejaVuSans-8722"/>
       <use transform="translate(186.855469 38.965625)scale(0.7)" xlink:href="#DejaVuSans-52"/>
      </g>
     </g>
    </g>
    <g id="ytick_3">
     <g id="line2d_10">
      <g>
       <use style="stroke:#000000;stroke-width:0.8;" x="37.7" xlink:href="#m22fef1742d" y="121.28234"/>
      </g>
     </g>
     <g id="text_11">
      <!-- $\mathdefault{10^{-2}}$ -->
      <g transform="translate(7.2 125.081559)scale(0.1 -0.1)">
       <use transform="translate(0 0.765625)" xlink:href="#DejaVuSans-49"/>
       <use transform="translate(63.623047 0.765625)" xlink:href="#DejaVuSans-48"/>
       <use transform="translate(128.203125 39.046875)scale(0.7)" xlink:href="#DejaVuSans-8722"/>
       <use transform="translate(186.855469 39.046875)scale(0.7)" xlink:href="#DejaVuSans-50"/>
      </g>
     </g>
    </g>
    <g id="ytick_4">
     <g id="line2d_11">
      <g>
       <use style="stroke:#000000;stroke-width:0.8;" x="37.7" xlink:href="#m22fef1742d" y="66.640272"/>
      </g>
     </g>
     <g id="text_12">
      <!-- $\mathdefault{10^{0}}$ -->
      <g transform="translate(13.1 70.439491)scale(0.1 -0.1)">
       <use transform="translate(0 0.765625)" xlink:href="#DejaVuSans-49"/>
       <use transform="translate(63.623047 0.765625)" xlink:href="#DejaVuSans-48"/>
       <use transform="translate(128.203125 39.046875)scale(0.7)" xlink:href="#DejaVuSans-48"/>
      </g>
     </g>
    </g>
    <g id="ytick_5">
     <g id="line2d_12">
      <g>
       <use style="stroke:#000000;stroke-width:0.8;" x="37.7" xlink:href="#m22fef1742d" y="11.998204"/>
      </g>
     </g>
     <g id="text_13">
      <!-- $\mathdefault{10^{2}}$ -->
      <g transform="translate(13.1 15.797423)scale(0.1 -0.1)">
       <use transform="translate(0 0.765625)" xlink:href="#DejaVuSans-49"/>
       <use transform="translate(63.623047 0.765625)" xlink:href="#DejaVuSans-48"/>
       <use transform="translate(128.203125 39.046875)scale(0.7)" xlink:href="#DejaVuSans-50"/>
      </g>
     </g>
    </g>
   </g>
   <g id="line2d_13">
    <path clip-path="url(#p781654b181)" d="M 53.932727 19.296 
L 55.06 20.33957 
L 56.187273 30.824013 
L 58.441818 48.267431 
L 62.950909 84.947881 
L 68.587273 130.456429 
L 69.714545 140.752827 
L 70.841818 148.938657 
L 71.969091 148.207723 
L 73.096364 160.510001 
L 74.223636 175.867194 
L 75.350909 171.666515 
L 76.478182 161.337619 
L 77.605455 169.856571 
L 78.732727 180.475785 
L 79.86 173.893334 
L 80.987273 165.902693 
L 82.114545 216.713944 
L 83.241818 163.843512 
L 84.369091 150.745339 
L 85.496364 173.595284 
L 86.623636 154.82294 
L 87.750909 156.026039 
L 88.878182 177.290588 
L 90.005455 160.444585 
L 91.132727 179.890972 
L 92.26 163.39121 
L 93.387273 158.249889 
L 94.514545 162.381285 
L 95.641818 170.378851 
L 96.769091 161.811973 
L 97.896364 168.275466 
L 99.023636 159.900642 
L 100.150909 173.892623 
L 101.278182 159.790224 
L 102.405455 154.106178 
L 103.532727 164.732711 
L 104.66 186.790814 
L 105.787273 154.237945 
L 106.914545 170.355811 
L 108.041818 205.596805 
L 109.169091 167.195335 
L 110.296364 156.0907 
L 111.423636 175.83797 
L 112.550909 162.045197 
L 113.678182 176.635311 
L 114.805455 156.964495 
L 115.932727 156.078019 
L 117.06 165.141564 
L 118.187273 176.176567 
L 119.314545 162.803411 
L 120.441818 181.440973 
L 121.569091 157.901193 
L 122.696364 147.331042 
L 123.823636 150.206974 
L 124.950909 193.006869 
L 126.078182 159.262055 
L 127.205455 158.511561 
L 128.332727 158.750065 
L 129.46 163.551707 
L 130.587273 156.727413 
L 131.714545 181.904968 
L 132.841818 200.399607 
L 133.969091 155.074336 
L 135.096364 154.603958 
L 136.223636 152.135385 
L 137.350909 167.379004 
L 138.478182 162.60367 
L 139.605455 150.549776 
L 140.732727 150.365799 
L 141.86 154.350498 
L 142.987273 162.870793 
L 144.114545 151.349803 
L 145.241818 158.868139 
L 146.369091 155.153564 
L 147.496364 162.810462 
L 148.623636 178.443259 
L 149.750909 157.520471 
L 150.878182 167.946511 
L 152.005455 149.820792 
L 153.132727 180.808869 
L 154.26 174.11221 
L 155.387273 159.995463 
L 156.514545 175.802092 
L 157.641818 141.111734 
L 158.769091 152.577379 
L 159.896364 168.148713 
L 161.023636 176.306753 
L 162.150909 171.896011 
L 163.278182 164.557789 
L 164.405455 184.030802 
L 165.532727 211.082004 
L 166.66 160.440997 
L 167.787273 228.601925 
L 168.914545 177.699946 
L 170.041818 166.15823 
L 171.169091 159.055674 
L 172.296364 173.048757 
L 173.423636 160.449447 
L 174.550909 166.627603 
L 175.678182 183.941029 
L 176.805455 164.583456 
L 177.932727 151.885303 
L 179.06 189.567521 
L 180.187273 169.28998 
L 181.314545 171.884167 
L 182.441818 205.445285 
L 183.569091 183.056392 
L 184.696364 156.628408 
L 185.823636 175.283807 
L 186.950909 166.965262 
L 188.078182 165.2391 
L 189.205455 152.795382 
L 190.332727 184.923228 
L 191.46 176.464815 
L 192.587273 174.672575 
L 193.714545 149.807975 
L 194.841818 150.433943 
L 195.969091 157.839213 
L 197.096364 159.05589 
L 198.223636 162.998965 
L 199.350909 175.787338 
L 200.478182 154.502139 
L 201.605455 156.158089 
L 202.732727 168.423644 
L 203.86 158.418035 
L 204.987273 153.500496 
L 206.114545 195.079032 
L 207.241818 177.237597 
L 208.369091 164.415843 
L 209.496364 161.645314 
L 210.623636 175.631548 
L 211.750909 169.988904 
L 212.878182 159.721328 
L 214.005455 169.995827 
L 215.132727 155.619116 
L 216.26 155.324544 
L 217.387273 178.179143 
L 218.514545 159.003398 
L 219.641818 158.20515 
L 220.769091 160.504976 
L 221.896364 175.575791 
L 223.023636 168.057561 
L 224.150909 155.555469 
L 225.278182 169.064978 
L 226.405455 209.611751 
L 227.532727 194.94262 
L 228.66 168.146061 
L 229.787273 161.774826 
L 230.914545 171.863571 
L 232.041818 261.216 
L 233.169091 174.382814 
L 234.296364 157.668293 
L 235.423636 153.366091 
L 236.550909 152.762872 
L 237.678182 157.171466 
L 238.805455 165.186146 
L 239.932727 143.681656 
L 241.06 147.740245 
L 242.187273 150.640068 
L 243.314545 157.020024 
L 244.441818 177.761081 
L 245.569091 166.783418 
L 246.696364 170.524309 
L 247.823636 167.84151 
L 248.950909 160.630768 
L 250.078182 162.876789 
L 251.205455 163.210151 
L 252.332727 170.835343 
L 253.46 155.424188 
L 254.587273 174.147893 
L 255.714545 168.356513 
L 256.841818 179.524469 
L 257.969091 188.703246 
L 259.096364 161.095343 
L 260.223636 161.043205 
L 261.350909 171.640037 
L 262.478182 183.313736 
L 263.605455 160.084439 
L 264.732727 173.709195 
L 265.86 166.980204 
L 266.987273 165.52638 
L 268.114545 171.386247 
L 269.241818 161.391865 
L 270.369091 229.853717 
L 271.496364 163.520161 
L 272.623636 162.696638 
L 273.750909 165.101867 
L 274.878182 168.923592 
L 276.005455 154.577198 
L 277.132727 165.30399 
L 278.26 158.9848 
L 279.387273 161.044384 
L 280.514545 144.474478 
L 281.641818 155.217372 
L 282.769091 183.61473 
L 283.896364 178.979232 
L 285.023636 172.226471 
L 286.150909 154.284543 
L 287.278182 156.467237 
L 288.405455 178.44219 
L 289.532727 157.777845 
L 290.66 167.731121 
L 291.787273 168.806547 
L 292.914545 156.647079 
L 294.041818 154.114577 
L 295.169091 164.123902 
L 296.296364 155.950039 
L 297.423636 154.917066 
L 298.550909 168.947881 
L 299.678182 165.473986 
L 300.805455 165.726789 
L 301.932727 167.030825 
L 303.06 155.807815 
L 304.187273 158.88163 
L 305.314545 168.121246 
L 306.441818 161.325229 
L 307.569091 213.40128 
L 308.696364 179.075415 
L 309.823636 185.470138 
L 310.950909 178.218162 
L 312.078182 162.483805 
L 313.205455 166.191904 
L 314.332727 165.420077 
L 315.46 173.536793 
L 316.587273 158.676103 
L 317.714545 155.179146 
L 318.841818 162.914979 
L 319.969091 160.861985 
L 321.096364 152.399571 
L 322.223636 180.022218 
L 323.350909 165.585803 
L 324.478182 152.644126 
L 325.605455 158.884137 
L 326.732727 169.15163 
L 327.86 185.073446 
L 328.987273 159.680296 
L 330.114545 161.490442 
L 331.241818 161.157074 
L 332.369091 170.10007 
L 333.496364 156.43639 
L 334.623636 146.53745 
L 335.750909 151.681329 
L 336.878182 168.677095 
L 338.005455 166.97813 
L 339.132727 158.643648 
L 340.26 176.402154 
L 341.387273 156.38492 
L 342.514545 203.430958 
L 343.641818 157.55894 
L 344.769091 161.620607 
L 345.896364 170.922433 
L 347.023636 164.846862 
L 348.150909 166.465958 
L 349.278182 163.026602 
L 350.405455 158.685524 
L 351.532727 156.499694 
L 352.66 159.387629 
L 353.787273 159.56741 
L 354.914545 152.780061 
L 356.041818 163.937376 
L 357.169091 202.206011 
L 358.296364 197.930997 
L 359.423636 180.717959 
L 360.550909 219.319881 
L 361.678182 175.348005 
L 362.805455 172.311877 
L 363.932727 158.860488 
L 365.06 154.91275 
L 366.187273 160.026391 
L 367.314545 178.018598 
L 368.441818 168.523468 
L 370.696364 155.993222 
L 371.823636 181.425627 
L 372.950909 178.744337 
L 374.078182 164.534599 
L 375.205455 154.773536 
L 376.332727 154.465578 
L 376.339243 311.86825 
L 376.339243 311.86825 
" style="fill:none;stroke:#1f77b4;stroke-linecap:square;stroke-width:1.5;"/>
    <defs>
     <path d="M 0 3 
C 0.795609 3 1.55874 2.683901 2.12132 2.12132 
C 2.683901 1.55874 3 0.795609 3 0 
C 3 -0.795609 2.683901 -1.55874 2.12132 -2.12132 
C 1.55874 -2.683901 0.795609 -3 0 -3 
C -0.795609 -3 -1.55874 -2.683901 -2.12132 -2.12132 
C -2.683901 -1.55874 -3 -0.795609 -3 0 
C -3 0.795609 -2.683901 1.55874 -2.12132 2.12132 
C -1.55874 2.683901 -0.795609 3 0 3 
z
" id="mbb18fe8ab2" style="stroke:#1f77b4;"/>
    </defs>
    <g clip-path="url(#p781654b181)">
     <use style="fill:#1f77b4;stroke:#1f77b4;" x="53.932727" xlink:href="#mbb18fe8ab2" y="19.296"/>
     <use style="fill:#1f77b4;stroke:#1f77b4;" x="55.06" xlink:href="#mbb18fe8ab2" y="20.33957"/>
     <use style="fill:#1f77b4;stroke:#1f77b4;" x="56.187273" xlink:href="#mbb18fe8ab2" y="30.824013"/>
     <use style="fill:#1f77b4;stroke:#1f77b4;" x="57.314545" xlink:href="#mbb18fe8ab2" y="39.421561"/>
     <use style="fill:#1f77b4;stroke:#1f77b4;" x="58.441818" xlink:href="#mbb18fe8ab2" y="48.267431"/>
     <use style="fill:#1f77b4;stroke:#1f77b4;" x="59.569091" xlink:href="#mbb18fe8ab2" y="57.610286"/>
     <use style="fill:#1f77b4;stroke:#1f77b4;" x="60.696364" xlink:href="#mbb18fe8ab2" y="66.611784"/>
     <use style="fill:#1f77b4;stroke:#1f77b4;" x="61.823636" xlink:href="#mbb18fe8ab2" y="75.837663"/>
     <use style="fill:#1f77b4;stroke:#1f77b4;" x="62.950909" xlink:href="#mbb18fe8ab2" y="84.947881"/>
     <use style="fill:#1f77b4;stroke:#1f77b4;" x="64.078182" xlink:href="#mbb18fe8ab2" y="94.014586"/>
     <use style="fill:#1f77b4;stroke:#1f77b4;" x="65.205455" xlink:href="#mbb18fe8ab2" y="103.127212"/>
     <use style="fill:#1f77b4;stroke:#1f77b4;" x="66.332727" xlink:href="#mbb18fe8ab2" y="111.907305"/>
     <use style="fill:#1f77b4;stroke:#1f77b4;" x="67.46" xlink:href="#mbb18fe8ab2" y="121.289611"/>
     <use style="fill:#1f77b4;stroke:#1f77b4;" x="68.587273" xlink:href="#mbb18fe8ab2" y="130.456429"/>
     <use style="fill:#1f77b4;stroke:#1f77b4;" x="69.714545" xlink:href="#mbb18fe8ab2" y="140.752827"/>
     <use style="fill:#1f77b4;stroke:#1f77b4;" x="70.841818" xlink:href="#mbb18fe8ab2" y="148.938657"/>
     <use style="fill:#1f77b4;stroke:#1f77b4;" x="71.969091" xlink:href="#mbb18fe8ab2" y="148.207723"/>
     <use style="fill:#1f77b4;stroke:#1f77b4;" x="73.096364" xlink:href="#mbb18fe8ab2" y="160.510001"/>
     <use style="fill:#1f77b4;stroke:#1f77b4;" x="74.223636" xlink:href="#mbb18fe8ab2" y="175.867194"/>
     <use style="fill:#1f77b4;stroke:#1f77b4;" x="75.350909" xlink:href="#mbb18fe8ab2" y="171.666515"/>
     <use style="fill:#1f77b4;stroke:#1f77b4;" x="76.478182" xlink:href="#mbb18fe8ab2" y="161.337619"/>
     <use style="fill:#1f77b4;stroke:#1f77b4;" x="77.605455" xlink:href="#mbb18fe8ab2" y="169.856571"/>
     <use style="fill:#1f77b4;stroke:#1f77b4;" x="78.732727" xlink:href="#mbb18fe8ab2" y="180.475785"/>
     <use style="fill:#1f77b4;stroke:#1f77b4;" x="79.86" xlink:href="#mbb18fe8ab2" y="173.893334"/>
     <use style="fill:#1f77b4;stroke:#1f77b4;" x="80.987273" xlink:href="#mbb18fe8ab2" y="165.902693"/>
     <use style="fill:#1f77b4;stroke:#1f77b4;" x="82.114545" xlink:href="#mbb18fe8ab2" y="216.713944"/>
     <use style="fill:#1f77b4;stroke:#1f77b4;" x="83.241818" xlink:href="#mbb18fe8ab2" y="163.843512"/>
     <use style="fill:#1f77b4;stroke:#1f77b4;" x="84.369091" xlink:href="#mbb18fe8ab2" y="150.745339"/>
     <use style="fill:#1f77b4;stroke:#1f77b4;" x="85.496364" xlink:href="#mbb18fe8ab2" y="173.595284"/>
     <use style="fill:#1f77b4;stroke:#1f77b4;" x="86.623636" xlink:href="#mbb18fe8ab2" y="154.82294"/>
     <use style="fill:#1f77b4;stroke:#1f77b4;" x="87.750909" xlink:href="#mbb18fe8ab2" y="156.026039"/>
     <use style="fill:#1f77b4;stroke:#1f77b4;" x="88.878182" xlink:href="#mbb18fe8ab2" y="177.290588"/>
     <use style="fill:#1f77b4;stroke:#1f77b4;" x="90.005455" xlink:href="#mbb18fe8ab2" y="160.444585"/>
     <use style="fill:#1f77b4;stroke:#1f77b4;" x="91.132727" xlink:href="#mbb18fe8ab2" y="179.890972"/>
     <use style="fill:#1f77b4;stroke:#1f77b4;" x="92.26" xlink:href="#mbb18fe8ab2" y="163.39121"/>
     <use style="fill:#1f77b4;stroke:#1f77b4;" x="93.387273" xlink:href="#mbb18fe8ab2" y="158.249889"/>
     <use style="fill:#1f77b4;stroke:#1f77b4;" x="94.514545" xlink:href="#mbb18fe8ab2" y="162.381285"/>
     <use style="fill:#1f77b4;stroke:#1f77b4;" x="95.641818" xlink:href="#mbb18fe8ab2" y="170.378851"/>
     <use style="fill:#1f77b4;stroke:#1f77b4;" x="96.769091" xlink:href="#mbb18fe8ab2" y="161.811973"/>
     <use style="fill:#1f77b4;stroke:#1f77b4;" x="97.896364" xlink:href="#mbb18fe8ab2" y="168.275466"/>
     <use style="fill:#1f77b4;stroke:#1f77b4;" x="99.023636" xlink:href="#mbb18fe8ab2" y="159.900642"/>
     <use style="fill:#1f77b4;stroke:#1f77b4;" x="100.150909" xlink:href="#mbb18fe8ab2" y="173.892623"/>
     <use style="fill:#1f77b4;stroke:#1f77b4;" x="101.278182" xlink:href="#mbb18fe8ab2" y="159.790224"/>
     <use style="fill:#1f77b4;stroke:#1f77b4;" x="102.405455" xlink:href="#mbb18fe8ab2" y="154.106178"/>
     <use style="fill:#1f77b4;stroke:#1f77b4;" x="103.532727" xlink:href="#mbb18fe8ab2" y="164.732711"/>
     <use style="fill:#1f77b4;stroke:#1f77b4;" x="104.66" xlink:href="#mbb18fe8ab2" y="186.790814"/>
     <use style="fill:#1f77b4;stroke:#1f77b4;" x="105.787273" xlink:href="#mbb18fe8ab2" y="154.237945"/>
     <use style="fill:#1f77b4;stroke:#1f77b4;" x="106.914545" xlink:href="#mbb18fe8ab2" y="170.355811"/>
     <use style="fill:#1f77b4;stroke:#1f77b4;" x="108.041818" xlink:href="#mbb18fe8ab2" y="205.596805"/>
     <use style="fill:#1f77b4;stroke:#1f77b4;" x="109.169091" xlink:href="#mbb18fe8ab2" y="167.195335"/>
     <use style="fill:#1f77b4;stroke:#1f77b4;" x="110.296364" xlink:href="#mbb18fe8ab2" y="156.0907"/>
     <use style="fill:#1f77b4;stroke:#1f77b4;" x="111.423636" xlink:href="#mbb18fe8ab2" y="175.83797"/>
     <use style="fill:#1f77b4;stroke:#1f77b4;" x="112.550909" xlink:href="#mbb18fe8ab2" y="162.045197"/>
     <use style="fill:#1f77b4;stroke:#1f77b4;" x="113.678182" xlink:href="#mbb18fe8ab2" y="176.635311"/>
     <use style="fill:#1f77b4;stroke:#1f77b4;" x="114.805455" xlink:href="#mbb18fe8ab2" y="156.964495"/>
     <use style="fill:#1f77b4;stroke:#1f77b4;" x="115.932727" xlink:href="#mbb18fe8ab2" y="156.078019"/>
     <use style="fill:#1f77b4;stroke:#1f77b4;" x="117.06" xlink:href="#mbb18fe8ab2" y="165.141564"/>
     <use style="fill:#1f77b4;stroke:#1f77b4;" x="118.187273" xlink:href="#mbb18fe8ab2" y="176.176567"/>
     <use style="fill:#1f77b4;stroke:#1f77b4;" x="119.314545" xlink:href="#mbb18fe8ab2" y="162.803411"/>
     <use style="fill:#1f77b4;stroke:#1f77b4;" x="120.441818" xlink:href="#mbb18fe8ab2" y="181.440973"/>
     <use style="fill:#1f77b4;stroke:#1f77b4;" x="121.569091" xlink:href="#mbb18fe8ab2" y="157.901193"/>
     <use style="fill:#1f77b4;stroke:#1f77b4;" x="122.696364" xlink:href="#mbb18fe8ab2" y="147.331042"/>
     <use style="fill:#1f77b4;stroke:#1f77b4;" x="123.823636" xlink:href="#mbb18fe8ab2" y="150.206974"/>
     <use style="fill:#1f77b4;stroke:#1f77b4;" x="124.950909" xlink:href="#mbb18fe8ab2" y="193.006869"/>
     <use style="fill:#1f77b4;stroke:#1f77b4;" x="126.078182" xlink:href="#mbb18fe8ab2" y="159.262055"/>
     <use style="fill:#1f77b4;stroke:#1f77b4;" x="127.205455" xlink:href="#mbb18fe8ab2" y="158.511561"/>
     <use style="fill:#1f77b4;stroke:#1f77b4;" x="128.332727" xlink:href="#mbb18fe8ab2" y="158.750065"/>
     <use style="fill:#1f77b4;stroke:#1f77b4;" x="129.46" xlink:href="#mbb18fe8ab2" y="163.551707"/>
     <use style="fill:#1f77b4;stroke:#1f77b4;" x="130.587273" xlink:href="#mbb18fe8ab2" y="156.727413"/>
     <use style="fill:#1f77b4;stroke:#1f77b4;" x="131.714545" xlink:href="#mbb18fe8ab2" y="181.904968"/>
     <use style="fill:#1f77b4;stroke:#1f77b4;" x="132.841818" xlink:href="#mbb18fe8ab2" y="200.399607"/>
     <use style="fill:#1f77b4;stroke:#1f77b4;" x="133.969091" xlink:href="#mbb18fe8ab2" y="155.074336"/>
     <use style="fill:#1f77b4;stroke:#1f77b4;" x="135.096364" xlink:href="#mbb18fe8ab2" y="154.603958"/>
     <use style="fill:#1f77b4;stroke:#1f77b4;" x="136.223636" xlink:href="#mbb18fe8ab2" y="152.135385"/>
     <use style="fill:#1f77b4;stroke:#1f77b4;" x="137.350909" xlink:href="#mbb18fe8ab2" y="167.379004"/>
     <use style="fill:#1f77b4;stroke:#1f77b4;" x="138.478182" xlink:href="#mbb18fe8ab2" y="162.60367"/>
     <use style="fill:#1f77b4;stroke:#1f77b4;" x="139.605455" xlink:href="#mbb18fe8ab2" y="150.549776"/>
     <use style="fill:#1f77b4;stroke:#1f77b4;" x="140.732727" xlink:href="#mbb18fe8ab2" y="150.365799"/>
     <use style="fill:#1f77b4;stroke:#1f77b4;" x="141.86" xlink:href="#mbb18fe8ab2" y="154.350498"/>
     <use style="fill:#1f77b4;stroke:#1f77b4;" x="142.987273" xlink:href="#mbb18fe8ab2" y="162.870793"/>
     <use style="fill:#1f77b4;stroke:#1f77b4;" x="144.114545" xlink:href="#mbb18fe8ab2" y="151.349803"/>
     <use style="fill:#1f77b4;stroke:#1f77b4;" x="145.241818" xlink:href="#mbb18fe8ab2" y="158.868139"/>
     <use style="fill:#1f77b4;stroke:#1f77b4;" x="146.369091" xlink:href="#mbb18fe8ab2" y="155.153564"/>
     <use style="fill:#1f77b4;stroke:#1f77b4;" x="147.496364" xlink:href="#mbb18fe8ab2" y="162.810462"/>
     <use style="fill:#1f77b4;stroke:#1f77b4;" x="148.623636" xlink:href="#mbb18fe8ab2" y="178.443259"/>
     <use style="fill:#1f77b4;stroke:#1f77b4;" x="149.750909" xlink:href="#mbb18fe8ab2" y="157.520471"/>
     <use style="fill:#1f77b4;stroke:#1f77b4;" x="150.878182" xlink:href="#mbb18fe8ab2" y="167.946511"/>
     <use style="fill:#1f77b4;stroke:#1f77b4;" x="152.005455" xlink:href="#mbb18fe8ab2" y="149.820792"/>
     <use style="fill:#1f77b4;stroke:#1f77b4;" x="153.132727" xlink:href="#mbb18fe8ab2" y="180.808869"/>
     <use style="fill:#1f77b4;stroke:#1f77b4;" x="154.26" xlink:href="#mbb18fe8ab2" y="174.11221"/>
     <use style="fill:#1f77b4;stroke:#1f77b4;" x="155.387273" xlink:href="#mbb18fe8ab2" y="159.995463"/>
     <use style="fill:#1f77b4;stroke:#1f77b4;" x="156.514545" xlink:href="#mbb18fe8ab2" y="175.802092"/>
     <use style="fill:#1f77b4;stroke:#1f77b4;" x="157.641818" xlink:href="#mbb18fe8ab2" y="141.111734"/>
     <use style="fill:#1f77b4;stroke:#1f77b4;" x="158.769091" xlink:href="#mbb18fe8ab2" y="152.577379"/>
     <use style="fill:#1f77b4;stroke:#1f77b4;" x="159.896364" xlink:href="#mbb18fe8ab2" y="168.148713"/>
     <use style="fill:#1f77b4;stroke:#1f77b4;" x="161.023636" xlink:href="#mbb18fe8ab2" y="176.306753"/>
     <use style="fill:#1f77b4;stroke:#1f77b4;" x="162.150909" xlink:href="#mbb18fe8ab2" y="171.896011"/>
     <use style="fill:#1f77b4;stroke:#1f77b4;" x="163.278182" xlink:href="#mbb18fe8ab2" y="164.557789"/>
     <use style="fill:#1f77b4;stroke:#1f77b4;" x="164.405455" xlink:href="#mbb18fe8ab2" y="184.030802"/>
     <use style="fill:#1f77b4;stroke:#1f77b4;" x="165.532727" xlink:href="#mbb18fe8ab2" y="211.082004"/>
     <use style="fill:#1f77b4;stroke:#1f77b4;" x="166.66" xlink:href="#mbb18fe8ab2" y="160.440997"/>
     <use style="fill:#1f77b4;stroke:#1f77b4;" x="167.787273" xlink:href="#mbb18fe8ab2" y="228.601925"/>
     <use style="fill:#1f77b4;stroke:#1f77b4;" x="168.914545" xlink:href="#mbb18fe8ab2" y="177.699946"/>
     <use style="fill:#1f77b4;stroke:#1f77b4;" x="170.041818" xlink:href="#mbb18fe8ab2" y="166.15823"/>
     <use style="fill:#1f77b4;stroke:#1f77b4;" x="171.169091" xlink:href="#mbb18fe8ab2" y="159.055674"/>
     <use style="fill:#1f77b4;stroke:#1f77b4;" x="172.296364" xlink:href="#mbb18fe8ab2" y="173.048757"/>
     <use style="fill:#1f77b4;stroke:#1f77b4;" x="173.423636" xlink:href="#mbb18fe8ab2" y="160.449447"/>
     <use style="fill:#1f77b4;stroke:#1f77b4;" x="174.550909" xlink:href="#mbb18fe8ab2" y="166.627603"/>
     <use style="fill:#1f77b4;stroke:#1f77b4;" x="175.678182" xlink:href="#mbb18fe8ab2" y="183.941029"/>
     <use style="fill:#1f77b4;stroke:#1f77b4;" x="176.805455" xlink:href="#mbb18fe8ab2" y="164.583456"/>
     <use style="fill:#1f77b4;stroke:#1f77b4;" x="177.932727" xlink:href="#mbb18fe8ab2" y="151.885303"/>
     <use style="fill:#1f77b4;stroke:#1f77b4;" x="179.06" xlink:href="#mbb18fe8ab2" y="189.567521"/>
     <use style="fill:#1f77b4;stroke:#1f77b4;" x="180.187273" xlink:href="#mbb18fe8ab2" y="169.28998"/>
     <use style="fill:#1f77b4;stroke:#1f77b4;" x="181.314545" xlink:href="#mbb18fe8ab2" y="171.884167"/>
     <use style="fill:#1f77b4;stroke:#1f77b4;" x="182.441818" xlink:href="#mbb18fe8ab2" y="205.445285"/>
     <use style="fill:#1f77b4;stroke:#1f77b4;" x="183.569091" xlink:href="#mbb18fe8ab2" y="183.056392"/>
     <use style="fill:#1f77b4;stroke:#1f77b4;" x="184.696364" xlink:href="#mbb18fe8ab2" y="156.628408"/>
     <use style="fill:#1f77b4;stroke:#1f77b4;" x="185.823636" xlink:href="#mbb18fe8ab2" y="175.283807"/>
     <use style="fill:#1f77b4;stroke:#1f77b4;" x="186.950909" xlink:href="#mbb18fe8ab2" y="166.965262"/>
     <use style="fill:#1f77b4;stroke:#1f77b4;" x="188.078182" xlink:href="#mbb18fe8ab2" y="165.2391"/>
     <use style="fill:#1f77b4;stroke:#1f77b4;" x="189.205455" xlink:href="#mbb18fe8ab2" y="152.795382"/>
     <use style="fill:#1f77b4;stroke:#1f77b4;" x="190.332727" xlink:href="#mbb18fe8ab2" y="184.923228"/>
     <use style="fill:#1f77b4;stroke:#1f77b4;" x="191.46" xlink:href="#mbb18fe8ab2" y="176.464815"/>
     <use style="fill:#1f77b4;stroke:#1f77b4;" x="192.587273" xlink:href="#mbb18fe8ab2" y="174.672575"/>
     <use style="fill:#1f77b4;stroke:#1f77b4;" x="193.714545" xlink:href="#mbb18fe8ab2" y="149.807975"/>
     <use style="fill:#1f77b4;stroke:#1f77b4;" x="194.841818" xlink:href="#mbb18fe8ab2" y="150.433943"/>
     <use style="fill:#1f77b4;stroke:#1f77b4;" x="195.969091" xlink:href="#mbb18fe8ab2" y="157.839213"/>
     <use style="fill:#1f77b4;stroke:#1f77b4;" x="197.096364" xlink:href="#mbb18fe8ab2" y="159.05589"/>
     <use style="fill:#1f77b4;stroke:#1f77b4;" x="198.223636" xlink:href="#mbb18fe8ab2" y="162.998965"/>
     <use style="fill:#1f77b4;stroke:#1f77b4;" x="199.350909" xlink:href="#mbb18fe8ab2" y="175.787338"/>
     <use style="fill:#1f77b4;stroke:#1f77b4;" x="200.478182" xlink:href="#mbb18fe8ab2" y="154.502139"/>
     <use style="fill:#1f77b4;stroke:#1f77b4;" x="201.605455" xlink:href="#mbb18fe8ab2" y="156.158089"/>
     <use style="fill:#1f77b4;stroke:#1f77b4;" x="202.732727" xlink:href="#mbb18fe8ab2" y="168.423644"/>
     <use style="fill:#1f77b4;stroke:#1f77b4;" x="203.86" xlink:href="#mbb18fe8ab2" y="158.418035"/>
     <use style="fill:#1f77b4;stroke:#1f77b4;" x="204.987273" xlink:href="#mbb18fe8ab2" y="153.500496"/>
     <use style="fill:#1f77b4;stroke:#1f77b4;" x="206.114545" xlink:href="#mbb18fe8ab2" y="195.079032"/>
     <use style="fill:#1f77b4;stroke:#1f77b4;" x="207.241818" xlink:href="#mbb18fe8ab2" y="177.237597"/>
     <use style="fill:#1f77b4;stroke:#1f77b4;" x="208.369091" xlink:href="#mbb18fe8ab2" y="164.415843"/>
     <use style="fill:#1f77b4;stroke:#1f77b4;" x="209.496364" xlink:href="#mbb18fe8ab2" y="161.645314"/>
     <use style="fill:#1f77b4;stroke:#1f77b4;" x="210.623636" xlink:href="#mbb18fe8ab2" y="175.631548"/>
     <use style="fill:#1f77b4;stroke:#1f77b4;" x="211.750909" xlink:href="#mbb18fe8ab2" y="169.988904"/>
     <use style="fill:#1f77b4;stroke:#1f77b4;" x="212.878182" xlink:href="#mbb18fe8ab2" y="159.721328"/>
     <use style="fill:#1f77b4;stroke:#1f77b4;" x="214.005455" xlink:href="#mbb18fe8ab2" y="169.995827"/>
     <use style="fill:#1f77b4;stroke:#1f77b4;" x="215.132727" xlink:href="#mbb18fe8ab2" y="155.619116"/>
     <use style="fill:#1f77b4;stroke:#1f77b4;" x="216.26" xlink:href="#mbb18fe8ab2" y="155.324544"/>
     <use style="fill:#1f77b4;stroke:#1f77b4;" x="217.387273" xlink:href="#mbb18fe8ab2" y="178.179143"/>
     <use style="fill:#1f77b4;stroke:#1f77b4;" x="218.514545" xlink:href="#mbb18fe8ab2" y="159.003398"/>
     <use style="fill:#1f77b4;stroke:#1f77b4;" x="219.641818" xlink:href="#mbb18fe8ab2" y="158.20515"/>
     <use style="fill:#1f77b4;stroke:#1f77b4;" x="220.769091" xlink:href="#mbb18fe8ab2" y="160.504976"/>
     <use style="fill:#1f77b4;stroke:#1f77b4;" x="221.896364" xlink:href="#mbb18fe8ab2" y="175.575791"/>
     <use style="fill:#1f77b4;stroke:#1f77b4;" x="223.023636" xlink:href="#mbb18fe8ab2" y="168.057561"/>
     <use style="fill:#1f77b4;stroke:#1f77b4;" x="224.150909" xlink:href="#mbb18fe8ab2" y="155.555469"/>
     <use style="fill:#1f77b4;stroke:#1f77b4;" x="225.278182" xlink:href="#mbb18fe8ab2" y="169.064978"/>
     <use style="fill:#1f77b4;stroke:#1f77b4;" x="226.405455" xlink:href="#mbb18fe8ab2" y="209.611751"/>
     <use style="fill:#1f77b4;stroke:#1f77b4;" x="227.532727" xlink:href="#mbb18fe8ab2" y="194.94262"/>
     <use style="fill:#1f77b4;stroke:#1f77b4;" x="228.66" xlink:href="#mbb18fe8ab2" y="168.146061"/>
     <use style="fill:#1f77b4;stroke:#1f77b4;" x="229.787273" xlink:href="#mbb18fe8ab2" y="161.774826"/>
     <use style="fill:#1f77b4;stroke:#1f77b4;" x="230.914545" xlink:href="#mbb18fe8ab2" y="171.863571"/>
     <use style="fill:#1f77b4;stroke:#1f77b4;" x="232.041818" xlink:href="#mbb18fe8ab2" y="261.216"/>
     <use style="fill:#1f77b4;stroke:#1f77b4;" x="233.169091" xlink:href="#mbb18fe8ab2" y="174.382814"/>
     <use style="fill:#1f77b4;stroke:#1f77b4;" x="234.296364" xlink:href="#mbb18fe8ab2" y="157.668293"/>
     <use style="fill:#1f77b4;stroke:#1f77b4;" x="235.423636" xlink:href="#mbb18fe8ab2" y="153.366091"/>
     <use style="fill:#1f77b4;stroke:#1f77b4;" x="236.550909" xlink:href="#mbb18fe8ab2" y="152.762872"/>
     <use style="fill:#1f77b4;stroke:#1f77b4;" x="237.678182" xlink:href="#mbb18fe8ab2" y="157.171466"/>
     <use style="fill:#1f77b4;stroke:#1f77b4;" x="238.805455" xlink:href="#mbb18fe8ab2" y="165.186146"/>
     <use style="fill:#1f77b4;stroke:#1f77b4;" x="239.932727" xlink:href="#mbb18fe8ab2" y="143.681656"/>
     <use style="fill:#1f77b4;stroke:#1f77b4;" x="241.06" xlink:href="#mbb18fe8ab2" y="147.740245"/>
     <use style="fill:#1f77b4;stroke:#1f77b4;" x="242.187273" xlink:href="#mbb18fe8ab2" y="150.640068"/>
     <use style="fill:#1f77b4;stroke:#1f77b4;" x="243.314545" xlink:href="#mbb18fe8ab2" y="157.020024"/>
     <use style="fill:#1f77b4;stroke:#1f77b4;" x="244.441818" xlink:href="#mbb18fe8ab2" y="177.761081"/>
     <use style="fill:#1f77b4;stroke:#1f77b4;" x="245.569091" xlink:href="#mbb18fe8ab2" y="166.783418"/>
     <use style="fill:#1f77b4;stroke:#1f77b4;" x="246.696364" xlink:href="#mbb18fe8ab2" y="170.524309"/>
     <use style="fill:#1f77b4;stroke:#1f77b4;" x="247.823636" xlink:href="#mbb18fe8ab2" y="167.84151"/>
     <use style="fill:#1f77b4;stroke:#1f77b4;" x="248.950909" xlink:href="#mbb18fe8ab2" y="160.630768"/>
     <use style="fill:#1f77b4;stroke:#1f77b4;" x="250.078182" xlink:href="#mbb18fe8ab2" y="162.876789"/>
     <use style="fill:#1f77b4;stroke:#1f77b4;" x="251.205455" xlink:href="#mbb18fe8ab2" y="163.210151"/>
     <use style="fill:#1f77b4;stroke:#1f77b4;" x="252.332727" xlink:href="#mbb18fe8ab2" y="170.835343"/>
     <use style="fill:#1f77b4;stroke:#1f77b4;" x="253.46" xlink:href="#mbb18fe8ab2" y="155.424188"/>
     <use style="fill:#1f77b4;stroke:#1f77b4;" x="254.587273" xlink:href="#mbb18fe8ab2" y="174.147893"/>
     <use style="fill:#1f77b4;stroke:#1f77b4;" x="255.714545" xlink:href="#mbb18fe8ab2" y="168.356513"/>
     <use style="fill:#1f77b4;stroke:#1f77b4;" x="256.841818" xlink:href="#mbb18fe8ab2" y="179.524469"/>
     <use style="fill:#1f77b4;stroke:#1f77b4;" x="257.969091" xlink:href="#mbb18fe8ab2" y="188.703246"/>
     <use style="fill:#1f77b4;stroke:#1f77b4;" x="259.096364" xlink:href="#mbb18fe8ab2" y="161.095343"/>
     <use style="fill:#1f77b4;stroke:#1f77b4;" x="260.223636" xlink:href="#mbb18fe8ab2" y="161.043205"/>
     <use style="fill:#1f77b4;stroke:#1f77b4;" x="261.350909" xlink:href="#mbb18fe8ab2" y="171.640037"/>
     <use style="fill:#1f77b4;stroke:#1f77b4;" x="262.478182" xlink:href="#mbb18fe8ab2" y="183.313736"/>
     <use style="fill:#1f77b4;stroke:#1f77b4;" x="263.605455" xlink:href="#mbb18fe8ab2" y="160.084439"/>
     <use style="fill:#1f77b4;stroke:#1f77b4;" x="264.732727" xlink:href="#mbb18fe8ab2" y="173.709195"/>
     <use style="fill:#1f77b4;stroke:#1f77b4;" x="265.86" xlink:href="#mbb18fe8ab2" y="166.980204"/>
     <use style="fill:#1f77b4;stroke:#1f77b4;" x="266.987273" xlink:href="#mbb18fe8ab2" y="165.52638"/>
     <use style="fill:#1f77b4;stroke:#1f77b4;" x="268.114545" xlink:href="#mbb18fe8ab2" y="171.386247"/>
     <use style="fill:#1f77b4;stroke:#1f77b4;" x="269.241818" xlink:href="#mbb18fe8ab2" y="161.391865"/>
     <use style="fill:#1f77b4;stroke:#1f77b4;" x="270.369091" xlink:href="#mbb18fe8ab2" y="229.853717"/>
     <use style="fill:#1f77b4;stroke:#1f77b4;" x="271.496364" xlink:href="#mbb18fe8ab2" y="163.520161"/>
     <use style="fill:#1f77b4;stroke:#1f77b4;" x="272.623636" xlink:href="#mbb18fe8ab2" y="162.696638"/>
     <use style="fill:#1f77b4;stroke:#1f77b4;" x="273.750909" xlink:href="#mbb18fe8ab2" y="165.101867"/>
     <use style="fill:#1f77b4;stroke:#1f77b4;" x="274.878182" xlink:href="#mbb18fe8ab2" y="168.923592"/>
     <use style="fill:#1f77b4;stroke:#1f77b4;" x="276.005455" xlink:href="#mbb18fe8ab2" y="154.577198"/>
     <use style="fill:#1f77b4;stroke:#1f77b4;" x="277.132727" xlink:href="#mbb18fe8ab2" y="165.30399"/>
     <use style="fill:#1f77b4;stroke:#1f77b4;" x="278.26" xlink:href="#mbb18fe8ab2" y="158.9848"/>
     <use style="fill:#1f77b4;stroke:#1f77b4;" x="279.387273" xlink:href="#mbb18fe8ab2" y="161.044384"/>
     <use style="fill:#1f77b4;stroke:#1f77b4;" x="280.514545" xlink:href="#mbb18fe8ab2" y="144.474478"/>
     <use style="fill:#1f77b4;stroke:#1f77b4;" x="281.641818" xlink:href="#mbb18fe8ab2" y="155.217372"/>
     <use style="fill:#1f77b4;stroke:#1f77b4;" x="282.769091" xlink:href="#mbb18fe8ab2" y="183.61473"/>
     <use style="fill:#1f77b4;stroke:#1f77b4;" x="283.896364" xlink:href="#mbb18fe8ab2" y="178.979232"/>
     <use style="fill:#1f77b4;stroke:#1f77b4;" x="285.023636" xlink:href="#mbb18fe8ab2" y="172.226471"/>
     <use style="fill:#1f77b4;stroke:#1f77b4;" x="286.150909" xlink:href="#mbb18fe8ab2" y="154.284543"/>
     <use style="fill:#1f77b4;stroke:#1f77b4;" x="287.278182" xlink:href="#mbb18fe8ab2" y="156.467237"/>
     <use style="fill:#1f77b4;stroke:#1f77b4;" x="288.405455" xlink:href="#mbb18fe8ab2" y="178.44219"/>
     <use style="fill:#1f77b4;stroke:#1f77b4;" x="289.532727" xlink:href="#mbb18fe8ab2" y="157.777845"/>
     <use style="fill:#1f77b4;stroke:#1f77b4;" x="290.66" xlink:href="#mbb18fe8ab2" y="167.731121"/>
     <use style="fill:#1f77b4;stroke:#1f77b4;" x="291.787273" xlink:href="#mbb18fe8ab2" y="168.806547"/>
     <use style="fill:#1f77b4;stroke:#1f77b4;" x="292.914545" xlink:href="#mbb18fe8ab2" y="156.647079"/>
     <use style="fill:#1f77b4;stroke:#1f77b4;" x="294.041818" xlink:href="#mbb18fe8ab2" y="154.114577"/>
     <use style="fill:#1f77b4;stroke:#1f77b4;" x="295.169091" xlink:href="#mbb18fe8ab2" y="164.123902"/>
     <use style="fill:#1f77b4;stroke:#1f77b4;" x="296.296364" xlink:href="#mbb18fe8ab2" y="155.950039"/>
     <use style="fill:#1f77b4;stroke:#1f77b4;" x="297.423636" xlink:href="#mbb18fe8ab2" y="154.917066"/>
     <use style="fill:#1f77b4;stroke:#1f77b4;" x="298.550909" xlink:href="#mbb18fe8ab2" y="168.947881"/>
     <use style="fill:#1f77b4;stroke:#1f77b4;" x="299.678182" xlink:href="#mbb18fe8ab2" y="165.473986"/>
     <use style="fill:#1f77b4;stroke:#1f77b4;" x="300.805455" xlink:href="#mbb18fe8ab2" y="165.726789"/>
     <use style="fill:#1f77b4;stroke:#1f77b4;" x="301.932727" xlink:href="#mbb18fe8ab2" y="167.030825"/>
     <use style="fill:#1f77b4;stroke:#1f77b4;" x="303.06" xlink:href="#mbb18fe8ab2" y="155.807815"/>
     <use style="fill:#1f77b4;stroke:#1f77b4;" x="304.187273" xlink:href="#mbb18fe8ab2" y="158.88163"/>
     <use style="fill:#1f77b4;stroke:#1f77b4;" x="305.314545" xlink:href="#mbb18fe8ab2" y="168.121246"/>
     <use style="fill:#1f77b4;stroke:#1f77b4;" x="306.441818" xlink:href="#mbb18fe8ab2" y="161.325229"/>
     <use style="fill:#1f77b4;stroke:#1f77b4;" x="307.569091" xlink:href="#mbb18fe8ab2" y="213.40128"/>
     <use style="fill:#1f77b4;stroke:#1f77b4;" x="308.696364" xlink:href="#mbb18fe8ab2" y="179.075415"/>
     <use style="fill:#1f77b4;stroke:#1f77b4;" x="309.823636" xlink:href="#mbb18fe8ab2" y="185.470138"/>
     <use style="fill:#1f77b4;stroke:#1f77b4;" x="310.950909" xlink:href="#mbb18fe8ab2" y="178.218162"/>
     <use style="fill:#1f77b4;stroke:#1f77b4;" x="312.078182" xlink:href="#mbb18fe8ab2" y="162.483805"/>
     <use style="fill:#1f77b4;stroke:#1f77b4;" x="313.205455" xlink:href="#mbb18fe8ab2" y="166.191904"/>
     <use style="fill:#1f77b4;stroke:#1f77b4;" x="314.332727" xlink:href="#mbb18fe8ab2" y="165.420077"/>
     <use style="fill:#1f77b4;stroke:#1f77b4;" x="315.46" xlink:href="#mbb18fe8ab2" y="173.536793"/>
     <use style="fill:#1f77b4;stroke:#1f77b4;" x="316.587273" xlink:href="#mbb18fe8ab2" y="158.676103"/>
     <use style="fill:#1f77b4;stroke:#1f77b4;" x="317.714545" xlink:href="#mbb18fe8ab2" y="155.179146"/>
     <use style="fill:#1f77b4;stroke:#1f77b4;" x="318.841818" xlink:href="#mbb18fe8ab2" y="162.914979"/>
     <use style="fill:#1f77b4;stroke:#1f77b4;" x="319.969091" xlink:href="#mbb18fe8ab2" y="160.861985"/>
     <use style="fill:#1f77b4;stroke:#1f77b4;" x="321.096364" xlink:href="#mbb18fe8ab2" y="152.399571"/>
     <use style="fill:#1f77b4;stroke:#1f77b4;" x="322.223636" xlink:href="#mbb18fe8ab2" y="180.022218"/>
     <use style="fill:#1f77b4;stroke:#1f77b4;" x="323.350909" xlink:href="#mbb18fe8ab2" y="165.585803"/>
     <use style="fill:#1f77b4;stroke:#1f77b4;" x="324.478182" xlink:href="#mbb18fe8ab2" y="152.644126"/>
     <use style="fill:#1f77b4;stroke:#1f77b4;" x="325.605455" xlink:href="#mbb18fe8ab2" y="158.884137"/>
     <use style="fill:#1f77b4;stroke:#1f77b4;" x="326.732727" xlink:href="#mbb18fe8ab2" y="169.15163"/>
     <use style="fill:#1f77b4;stroke:#1f77b4;" x="327.86" xlink:href="#mbb18fe8ab2" y="185.073446"/>
     <use style="fill:#1f77b4;stroke:#1f77b4;" x="328.987273" xlink:href="#mbb18fe8ab2" y="159.680296"/>
     <use style="fill:#1f77b4;stroke:#1f77b4;" x="330.114545" xlink:href="#mbb18fe8ab2" y="161.490442"/>
     <use style="fill:#1f77b4;stroke:#1f77b4;" x="331.241818" xlink:href="#mbb18fe8ab2" y="161.157074"/>
     <use style="fill:#1f77b4;stroke:#1f77b4;" x="332.369091" xlink:href="#mbb18fe8ab2" y="170.10007"/>
     <use style="fill:#1f77b4;stroke:#1f77b4;" x="333.496364" xlink:href="#mbb18fe8ab2" y="156.43639"/>
     <use style="fill:#1f77b4;stroke:#1f77b4;" x="334.623636" xlink:href="#mbb18fe8ab2" y="146.53745"/>
     <use style="fill:#1f77b4;stroke:#1f77b4;" x="335.750909" xlink:href="#mbb18fe8ab2" y="151.681329"/>
     <use style="fill:#1f77b4;stroke:#1f77b4;" x="336.878182" xlink:href="#mbb18fe8ab2" y="168.677095"/>
     <use style="fill:#1f77b4;stroke:#1f77b4;" x="338.005455" xlink:href="#mbb18fe8ab2" y="166.97813"/>
     <use style="fill:#1f77b4;stroke:#1f77b4;" x="339.132727" xlink:href="#mbb18fe8ab2" y="158.643648"/>
     <use style="fill:#1f77b4;stroke:#1f77b4;" x="340.26" xlink:href="#mbb18fe8ab2" y="176.402154"/>
     <use style="fill:#1f77b4;stroke:#1f77b4;" x="341.387273" xlink:href="#mbb18fe8ab2" y="156.38492"/>
     <use style="fill:#1f77b4;stroke:#1f77b4;" x="342.514545" xlink:href="#mbb18fe8ab2" y="203.430958"/>
     <use style="fill:#1f77b4;stroke:#1f77b4;" x="343.641818" xlink:href="#mbb18fe8ab2" y="157.55894"/>
     <use style="fill:#1f77b4;stroke:#1f77b4;" x="344.769091" xlink:href="#mbb18fe8ab2" y="161.620607"/>
     <use style="fill:#1f77b4;stroke:#1f77b4;" x="345.896364" xlink:href="#mbb18fe8ab2" y="170.922433"/>
     <use style="fill:#1f77b4;stroke:#1f77b4;" x="347.023636" xlink:href="#mbb18fe8ab2" y="164.846862"/>
     <use style="fill:#1f77b4;stroke:#1f77b4;" x="348.150909" xlink:href="#mbb18fe8ab2" y="166.465958"/>
     <use style="fill:#1f77b4;stroke:#1f77b4;" x="349.278182" xlink:href="#mbb18fe8ab2" y="163.026602"/>
     <use style="fill:#1f77b4;stroke:#1f77b4;" x="350.405455" xlink:href="#mbb18fe8ab2" y="158.685524"/>
     <use style="fill:#1f77b4;stroke:#1f77b4;" x="351.532727" xlink:href="#mbb18fe8ab2" y="156.499694"/>
     <use style="fill:#1f77b4;stroke:#1f77b4;" x="352.66" xlink:href="#mbb18fe8ab2" y="159.387629"/>
     <use style="fill:#1f77b4;stroke:#1f77b4;" x="353.787273" xlink:href="#mbb18fe8ab2" y="159.56741"/>
     <use style="fill:#1f77b4;stroke:#1f77b4;" x="354.914545" xlink:href="#mbb18fe8ab2" y="152.780061"/>
     <use style="fill:#1f77b4;stroke:#1f77b4;" x="356.041818" xlink:href="#mbb18fe8ab2" y="163.937376"/>
     <use style="fill:#1f77b4;stroke:#1f77b4;" x="357.169091" xlink:href="#mbb18fe8ab2" y="202.206011"/>
     <use style="fill:#1f77b4;stroke:#1f77b4;" x="358.296364" xlink:href="#mbb18fe8ab2" y="197.930997"/>
     <use style="fill:#1f77b4;stroke:#1f77b4;" x="359.423636" xlink:href="#mbb18fe8ab2" y="180.717959"/>
     <use style="fill:#1f77b4;stroke:#1f77b4;" x="360.550909" xlink:href="#mbb18fe8ab2" y="219.319881"/>
     <use style="fill:#1f77b4;stroke:#1f77b4;" x="361.678182" xlink:href="#mbb18fe8ab2" y="175.348005"/>
     <use style="fill:#1f77b4;stroke:#1f77b4;" x="362.805455" xlink:href="#mbb18fe8ab2" y="172.311877"/>
     <use style="fill:#1f77b4;stroke:#1f77b4;" x="363.932727" xlink:href="#mbb18fe8ab2" y="158.860488"/>
     <use style="fill:#1f77b4;stroke:#1f77b4;" x="365.06" xlink:href="#mbb18fe8ab2" y="154.91275"/>
     <use style="fill:#1f77b4;stroke:#1f77b4;" x="366.187273" xlink:href="#mbb18fe8ab2" y="160.026391"/>
     <use style="fill:#1f77b4;stroke:#1f77b4;" x="367.314545" xlink:href="#mbb18fe8ab2" y="178.018598"/>
     <use style="fill:#1f77b4;stroke:#1f77b4;" x="368.441818" xlink:href="#mbb18fe8ab2" y="168.523468"/>
     <use style="fill:#1f77b4;stroke:#1f77b4;" x="369.569091" xlink:href="#mbb18fe8ab2" y="162.157489"/>
     <use style="fill:#1f77b4;stroke:#1f77b4;" x="370.696364" xlink:href="#mbb18fe8ab2" y="155.993222"/>
     <use style="fill:#1f77b4;stroke:#1f77b4;" x="371.823636" xlink:href="#mbb18fe8ab2" y="181.425627"/>
     <use style="fill:#1f77b4;stroke:#1f77b4;" x="372.950909" xlink:href="#mbb18fe8ab2" y="178.744337"/>
     <use style="fill:#1f77b4;stroke:#1f77b4;" x="374.078182" xlink:href="#mbb18fe8ab2" y="164.534599"/>
     <use style="fill:#1f77b4;stroke:#1f77b4;" x="375.205455" xlink:href="#mbb18fe8ab2" y="154.773536"/>
     <use style="fill:#1f77b4;stroke:#1f77b4;" x="376.332727" xlink:href="#mbb18fe8ab2" y="154.465578"/>
     <use style="fill:#1f77b4;stroke:#1f77b4;" x="377.252861" xlink:href="#mbb18fe8ab2" y="22383.514"/>
    </g>
   </g>
   <g id="line2d_14">
    <path clip-path="url(#p781654b181)" d="M 55.06 20.33957 
L 56.187273 30.824013 
L 57.314545 39.421561 
L 58.441818 48.267431 
L 59.569091 57.610286 
L 60.696364 66.611784 
L 61.823636 75.837663 
L 62.950909 84.947881 
L 64.078182 94.014586 
L 65.205455 103.127212 
L 66.332727 111.907305 
L 67.46 121.289611 
L 68.587273 130.456429 
L 69.714545 140.752827 
" style="fill:none;stroke:#2ca02c;stroke-dasharray:1.5,2.475;stroke-dashoffset:0;stroke-width:1.5;"/>
    <defs>
     <path d="M -3 3 
L 3 -3 
M -3 -3 
L 3 3 
" id="md78d5da0f4" style="stroke:#2ca02c;"/>
    </defs>
    <g clip-path="url(#p781654b181)">
     <use style="fill:#2ca02c;stroke:#2ca02c;" x="55.06" xlink:href="#md78d5da0f4" y="20.33957"/>
     <use style="fill:#2ca02c;stroke:#2ca02c;" x="56.187273" xlink:href="#md78d5da0f4" y="30.824013"/>
     <use style="fill:#2ca02c;stroke:#2ca02c;" x="57.314545" xlink:href="#md78d5da0f4" y="39.421561"/>
     <use style="fill:#2ca02c;stroke:#2ca02c;" x="58.441818" xlink:href="#md78d5da0f4" y="48.267431"/>
     <use style="fill:#2ca02c;stroke:#2ca02c;" x="59.569091" xlink:href="#md78d5da0f4" y="57.610286"/>
     <use style="fill:#2ca02c;stroke:#2ca02c;" x="60.696364" xlink:href="#md78d5da0f4" y="66.611784"/>
     <use style="fill:#2ca02c;stroke:#2ca02c;" x="61.823636" xlink:href="#md78d5da0f4" y="75.837663"/>
     <use style="fill:#2ca02c;stroke:#2ca02c;" x="62.950909" xlink:href="#md78d5da0f4" y="84.947881"/>
     <use style="fill:#2ca02c;stroke:#2ca02c;" x="64.078182" xlink:href="#md78d5da0f4" y="94.014586"/>
     <use style="fill:#2ca02c;stroke:#2ca02c;" x="65.205455" xlink:href="#md78d5da0f4" y="103.127212"/>
     <use style="fill:#2ca02c;stroke:#2ca02c;" x="66.332727" xlink:href="#md78d5da0f4" y="111.907305"/>
     <use style="fill:#2ca02c;stroke:#2ca02c;" x="67.46" xlink:href="#md78d5da0f4" y="121.289611"/>
     <use style="fill:#2ca02c;stroke:#2ca02c;" x="68.587273" xlink:href="#md78d5da0f4" y="130.456429"/>
     <use style="fill:#2ca02c;stroke:#2ca02c;" x="69.714545" xlink:href="#md78d5da0f4" y="140.752827"/>
    </g>
   </g>
   <g id="line2d_15">
    <path clip-path="url(#p781654b181)" d="M 55.06 75.788676 
L 84.14989 311.86825 
L 84.14989 311.86825 
" style="fill:none;stroke:#000000;stroke-dasharray:5.55,2.4;stroke-dashoffset:0;stroke-width:1.5;"/>
   </g>
   <g id="patch_3">
    <path d="M 37.7 273.312 
L 37.7 7.2 
" style="fill:none;stroke:#000000;stroke-linecap:square;stroke-linejoin:miter;stroke-width:0.8;"/>
   </g>
   <g id="patch_4">
    <path d="M 394.82 273.312 
L 394.82 7.2 
" style="fill:none;stroke:#000000;stroke-linecap:square;stroke-linejoin:miter;stroke-width:0.8;"/>
   </g>
   <g id="patch_5">
    <path d="M 37.7 273.312 
L 394.82 273.312 
" style="fill:none;stroke:#000000;stroke-linecap:square;stroke-linejoin:miter;stroke-width:0.8;"/>
   </g>
   <g id="patch_6">
    <path d="M 37.7 7.2 
L 394.82 7.2 
" style="fill:none;stroke:#000000;stroke-linecap:square;stroke-linejoin:miter;stroke-width:0.8;"/>
   </g>
   <g id="legend_1">
    <g id="patch_7">
     <path d="M 287.72 59.25625 
L 387.82 59.25625 
Q 389.82 59.25625 389.82 57.25625 
L 389.82 14.2 
Q 389.82 12.2 387.82 12.2 
L 287.72 12.2 
Q 285.72 12.2 285.72 14.2 
L 285.72 57.25625 
Q 285.72 59.25625 287.72 59.25625 
z
" style="fill:#ffffff;opacity:0.8;"/>
    </g>
    <g id="line2d_16">
     <path d="M 289.72 20.298437 
L 309.72 20.298437 
" style="fill:none;stroke:#1f77b4;stroke-linecap:square;stroke-width:1.5;"/>
    </g>
    <g id="line2d_17">
     <g>
      <use style="fill:#1f77b4;stroke:#1f77b4;" x="299.72" xlink:href="#mbb18fe8ab2" y="20.298437"/>
     </g>
    </g>
    <g id="text_14">
     <!-- APD$_n$ - APD$_\infty$ -->
     <defs>
      <path d="M 34.1875 63.1875 
L 20.796875 26.90625 
L 47.609375 26.90625 
z
M 28.609375 72.90625 
L 39.796875 72.90625 
L 67.578125 0 
L 57.328125 0 
L 50.6875 18.703125 
L 17.828125 18.703125 
L 11.1875 0 
L 0.78125 0 
z
" id="DejaVuSans-65"/>
      <path d="M 19.671875 64.796875 
L 19.671875 37.40625 
L 32.078125 37.40625 
Q 38.96875 37.40625 42.71875 40.96875 
Q 46.484375 44.53125 46.484375 51.125 
Q 46.484375 57.671875 42.71875 61.234375 
Q 38.96875 64.796875 32.078125 64.796875 
z
M 9.8125 72.90625 
L 32.078125 72.90625 
Q 44.34375 72.90625 50.609375 67.359375 
Q 56.890625 61.8125 56.890625 51.125 
Q 56.890625 40.328125 50.609375 34.8125 
Q 44.34375 29.296875 32.078125 29.296875 
L 19.671875 29.296875 
L 19.671875 0 
L 9.8125 0 
z
" id="DejaVuSans-80"/>
      <path d="M 19.671875 64.796875 
L 19.671875 8.109375 
L 31.59375 8.109375 
Q 46.6875 8.109375 53.6875 14.9375 
Q 60.6875 21.78125 60.6875 36.53125 
Q 60.6875 51.171875 53.6875 57.984375 
Q 46.6875 64.796875 31.59375 64.796875 
z
M 9.8125 72.90625 
L 30.078125 72.90625 
Q 51.265625 72.90625 61.171875 64.09375 
Q 71.09375 55.28125 71.09375 36.53125 
Q 71.09375 17.671875 61.125 8.828125 
Q 51.171875 0 30.078125 0 
L 9.8125 0 
z
" id="DejaVuSans-68"/>
      <path d="M 55.71875 33.015625 
L 49.3125 0 
L 40.28125 0 
L 46.6875 32.671875 
Q 47.125 34.96875 47.359375 36.71875 
Q 47.609375 38.484375 47.609375 39.5 
Q 47.609375 43.609375 45.015625 45.890625 
Q 42.4375 48.1875 37.796875 48.1875 
Q 30.5625 48.1875 25.34375 43.375 
Q 20.125 38.578125 18.5 30.328125 
L 12.5 0 
L 3.515625 0 
L 14.109375 54.6875 
L 23.09375 54.6875 
L 21.296875 46.09375 
Q 25.046875 50.828125 30.3125 53.40625 
Q 35.59375 56 41.40625 56 
Q 48.640625 56 52.609375 52.09375 
Q 56.59375 48.1875 56.59375 41.109375 
Q 56.59375 39.359375 56.375 37.359375 
Q 56.15625 35.359375 55.71875 33.015625 
z
" id="DejaVuSans-Oblique-110"/>
      <path id="DejaVuSans-32"/>
      <path d="M 4.890625 31.390625 
L 31.203125 31.390625 
L 31.203125 23.390625 
L 4.890625 23.390625 
z
" id="DejaVuSans-45"/>
      <path d="M 45.5625 17.046875 
Q 44.046875 18.796875 41.65625 22.90625 
Q 38.375 17.046875 35.5 14.453125 
Q 31.890625 11.328125 26.265625 11.328125 
Q 19.671875 11.328125 15.328125 16.265625 
Q 10.75 21.4375 10.75 29.984375 
Q 10.75 38.1875 15.328125 43.75 
Q 19.4375 48.6875 26.375 48.6875 
Q 29.9375 48.6875 32.5625 47.21875 
Q 35.640625 45.609375 37.75 42.828125 
Q 39.703125 40.328125 41.65625 36.96875 
Q 44.921875 42.828125 47.796875 45.40625 
Q 51.421875 48.53125 57.03125 48.53125 
Q 63.625 48.53125 67.96875 43.609375 
Q 72.5625 38.421875 72.5625 29.890625 
Q 72.5625 21.6875 67.96875 16.109375 
Q 63.875 11.1875 56.9375 11.1875 
Q 53.375 11.1875 50.734375 12.640625 
Q 48.09375 13.96875 45.5625 17.046875 
z
M 25.734375 17.71875 
Q 33.796875 17.71875 38.625 29.4375 
Q 32.421875 42.234375 25.734375 42.234375 
Q 20.84375 42.234375 18.359375 38.71875 
Q 15.671875 34.96875 15.671875 29.984375 
Q 15.671875 24.515625 18.359375 21.140625 
Q 21.09375 17.71875 25.734375 17.71875 
z
M 57.5625 42.140625 
Q 50.296875 42.140625 44.671875 30.421875 
Q 50.828125 17.625 57.5625 17.625 
Q 62.453125 17.625 64.9375 21.140625 
Q 67.625 24.90625 67.625 29.890625 
Q 67.625 35.359375 64.9375 38.71875 
Q 62.203125 42.140625 57.5625 42.140625 
z
" id="DejaVuSans-8734"/>
     </defs>
     <g transform="translate(317.72 23.798437)scale(0.1 -0.1)">
      <use transform="translate(0 0.09375)" xlink:href="#DejaVuSans-65"/>
      <use transform="translate(68.408203 0.09375)" xlink:href="#DejaVuSans-80"/>
      <use transform="translate(128.710938 0.09375)" xlink:href="#DejaVuSans-68"/>
      <use transform="translate(206.669922 -16.3125)scale(0.7)" xlink:href="#DejaVuSans-Oblique-110"/>
      <use transform="translate(253.769531 0.09375)" xlink:href="#DejaVuSans-32"/>
      <use transform="translate(285.556641 0.09375)" xlink:href="#DejaVuSans-45"/>
      <use transform="translate(321.640625 0.09375)" xlink:href="#DejaVuSans-32"/>
      <use transform="translate(353.427734 0.09375)" xlink:href="#DejaVuSans-65"/>
      <use transform="translate(421.835938 0.09375)" xlink:href="#DejaVuSans-80"/>
      <use transform="translate(482.138672 0.09375)" xlink:href="#DejaVuSans-68"/>
      <use transform="translate(560.097656 -16.3125)scale(0.7)" xlink:href="#DejaVuSans-8734"/>
     </g>
    </g>
    <g id="line2d_18">
     <path d="M 289.72 34.976562 
L 309.72 34.976562 
" style="fill:none;stroke:#2ca02c;stroke-dasharray:1.5,2.475;stroke-dashoffset:0;stroke-width:1.5;"/>
    </g>
    <g id="line2d_19">
     <g>
      <use style="fill:#2ca02c;stroke:#2ca02c;" x="299.72" xlink:href="#md78d5da0f4" y="34.976562"/>
     </g>
    </g>
    <g id="text_15">
     <!-- linear region -->
     <defs>
      <path d="M 9.421875 75.984375 
L 18.40625 75.984375 
L 18.40625 0 
L 9.421875 0 
z
" id="DejaVuSans-108"/>
      <path d="M 9.421875 54.6875 
L 18.40625 54.6875 
L 18.40625 0 
L 9.421875 0 
z
M 9.421875 75.984375 
L 18.40625 75.984375 
L 18.40625 64.59375 
L 9.421875 64.59375 
z
" id="DejaVuSans-105"/>
      <path d="M 54.890625 33.015625 
L 54.890625 0 
L 45.90625 0 
L 45.90625 32.71875 
Q 45.90625 40.484375 42.875 44.328125 
Q 39.84375 48.1875 33.796875 48.1875 
Q 26.515625 48.1875 22.3125 43.546875 
Q 18.109375 38.921875 18.109375 30.90625 
L 18.109375 0 
L 9.078125 0 
L 9.078125 54.6875 
L 18.109375 54.6875 
L 18.109375 46.1875 
Q 21.34375 51.125 25.703125 53.5625 
Q 30.078125 56 35.796875 56 
Q 45.21875 56 50.046875 50.171875 
Q 54.890625 44.34375 54.890625 33.015625 
z
" id="DejaVuSans-110"/>
      <path d="M 56.203125 29.59375 
L 56.203125 25.203125 
L 14.890625 25.203125 
Q 15.484375 15.921875 20.484375 11.0625 
Q 25.484375 6.203125 34.421875 6.203125 
Q 39.59375 6.203125 44.453125 7.46875 
Q 49.3125 8.734375 54.109375 11.28125 
L 54.109375 2.78125 
Q 49.265625 0.734375 44.1875 -0.34375 
Q 39.109375 -1.421875 33.890625 -1.421875 
Q 20.796875 -1.421875 13.15625 6.1875 
Q 5.515625 13.8125 5.515625 26.8125 
Q 5.515625 40.234375 12.765625 48.109375 
Q 20.015625 56 32.328125 56 
Q 43.359375 56 49.78125 48.890625 
Q 56.203125 41.796875 56.203125 29.59375 
z
M 47.21875 32.234375 
Q 47.125 39.59375 43.09375 43.984375 
Q 39.0625 48.390625 32.421875 48.390625 
Q 24.90625 48.390625 20.390625 44.140625 
Q 15.875 39.890625 15.1875 32.171875 
z
" id="DejaVuSans-101"/>
      <path d="M 34.28125 27.484375 
Q 23.390625 27.484375 19.1875 25 
Q 14.984375 22.515625 14.984375 16.5 
Q 14.984375 11.71875 18.140625 8.90625 
Q 21.296875 6.109375 26.703125 6.109375 
Q 34.1875 6.109375 38.703125 11.40625 
Q 43.21875 16.703125 43.21875 25.484375 
L 43.21875 27.484375 
z
M 52.203125 31.203125 
L 52.203125 0 
L 43.21875 0 
L 43.21875 8.296875 
Q 40.140625 3.328125 35.546875 0.953125 
Q 30.953125 -1.421875 24.3125 -1.421875 
Q 15.921875 -1.421875 10.953125 3.296875 
Q 6 8.015625 6 15.921875 
Q 6 25.140625 12.171875 29.828125 
Q 18.359375 34.515625 30.609375 34.515625 
L 43.21875 34.515625 
L 43.21875 35.40625 
Q 43.21875 41.609375 39.140625 45 
Q 35.0625 48.390625 27.6875 48.390625 
Q 23 48.390625 18.546875 47.265625 
Q 14.109375 46.140625 10.015625 43.890625 
L 10.015625 52.203125 
Q 14.9375 54.109375 19.578125 55.046875 
Q 24.21875 56 28.609375 56 
Q 40.484375 56 46.34375 49.84375 
Q 52.203125 43.703125 52.203125 31.203125 
z
" id="DejaVuSans-97"/>
      <path d="M 41.109375 46.296875 
Q 39.59375 47.171875 37.8125 47.578125 
Q 36.03125 48 33.890625 48 
Q 26.265625 48 22.1875 43.046875 
Q 18.109375 38.09375 18.109375 28.8125 
L 18.109375 0 
L 9.078125 0 
L 9.078125 54.6875 
L 18.109375 54.6875 
L 18.109375 46.1875 
Q 20.953125 51.171875 25.484375 53.578125 
Q 30.03125 56 36.53125 56 
Q 37.453125 56 38.578125 55.875 
Q 39.703125 55.765625 41.0625 55.515625 
z
" id="DejaVuSans-114"/>
      <path d="M 45.40625 27.984375 
Q 45.40625 37.75 41.375 43.109375 
Q 37.359375 48.484375 30.078125 48.484375 
Q 22.859375 48.484375 18.828125 43.109375 
Q 14.796875 37.75 14.796875 27.984375 
Q 14.796875 18.265625 18.828125 12.890625 
Q 22.859375 7.515625 30.078125 7.515625 
Q 37.359375 7.515625 41.375 12.890625 
Q 45.40625 18.265625 45.40625 27.984375 
z
M 54.390625 6.78125 
Q 54.390625 -7.171875 48.1875 -13.984375 
Q 42 -20.796875 29.203125 -20.796875 
Q 24.46875 -20.796875 20.265625 -20.09375 
Q 16.0625 -19.390625 12.109375 -17.921875 
L 12.109375 -9.1875 
Q 16.0625 -11.328125 19.921875 -12.34375 
Q 23.78125 -13.375 27.78125 -13.375 
Q 36.625 -13.375 41.015625 -8.765625 
Q 45.40625 -4.15625 45.40625 5.171875 
L 45.40625 9.625 
Q 42.625 4.78125 38.28125 2.390625 
Q 33.9375 0 27.875 0 
Q 17.828125 0 11.671875 7.65625 
Q 5.515625 15.328125 5.515625 27.984375 
Q 5.515625 40.671875 11.671875 48.328125 
Q 17.828125 56 27.875 56 
Q 33.9375 56 38.28125 53.609375 
Q 42.625 51.21875 45.40625 46.390625 
L 45.40625 54.6875 
L 54.390625 54.6875 
z
" id="DejaVuSans-103"/>
      <path d="M 30.609375 48.390625 
Q 23.390625 48.390625 19.1875 42.75 
Q 14.984375 37.109375 14.984375 27.296875 
Q 14.984375 17.484375 19.15625 11.84375 
Q 23.34375 6.203125 30.609375 6.203125 
Q 37.796875 6.203125 41.984375 11.859375 
Q 46.1875 17.53125 46.1875 27.296875 
Q 46.1875 37.015625 41.984375 42.703125 
Q 37.796875 48.390625 30.609375 48.390625 
z
M 30.609375 56 
Q 42.328125 56 49.015625 48.375 
Q 55.71875 40.765625 55.71875 27.296875 
Q 55.71875 13.875 49.015625 6.21875 
Q 42.328125 -1.421875 30.609375 -1.421875 
Q 18.84375 -1.421875 12.171875 6.21875 
Q 5.515625 13.875 5.515625 27.296875 
Q 5.515625 40.765625 12.171875 48.375 
Q 18.84375 56 30.609375 56 
z
" id="DejaVuSans-111"/>
     </defs>
     <g transform="translate(317.72 38.476562)scale(0.1 -0.1)">
      <use xlink:href="#DejaVuSans-108"/>
      <use x="27.783203" xlink:href="#DejaVuSans-105"/>
      <use x="55.566406" xlink:href="#DejaVuSans-110"/>
      <use x="118.945312" xlink:href="#DejaVuSans-101"/>
      <use x="180.46875" xlink:href="#DejaVuSans-97"/>
      <use x="241.748047" xlink:href="#DejaVuSans-114"/>
      <use x="282.861328" xlink:href="#DejaVuSans-32"/>
      <use x="314.648438" xlink:href="#DejaVuSans-114"/>
      <use x="353.511719" xlink:href="#DejaVuSans-101"/>
      <use x="415.035156" xlink:href="#DejaVuSans-103"/>
      <use x="478.511719" xlink:href="#DejaVuSans-105"/>
      <use x="506.294922" xlink:href="#DejaVuSans-111"/>
      <use x="567.476562" xlink:href="#DejaVuSans-110"/>
     </g>
    </g>
    <g id="line2d_20">
     <path d="M 289.72 49.65625 
L 309.72 49.65625 
" style="fill:none;stroke:#000000;stroke-dasharray:5.55,2.4;stroke-dashoffset:0;stroke-width:1.5;"/>
    </g>
    <g id="line2d_21"/>
    <g id="text_16">
     <!-- $ \exp(-0.771 k)$ -->
     <defs>
      <path d="M 54.890625 54.6875 
L 35.109375 28.078125 
L 55.90625 0 
L 45.3125 0 
L 29.390625 21.484375 
L 13.484375 0 
L 2.875 0 
L 24.125 28.609375 
L 4.6875 54.6875 
L 15.28125 54.6875 
L 29.78125 35.203125 
L 44.28125 54.6875 
z
" id="DejaVuSans-120"/>
      <path d="M 18.109375 8.203125 
L 18.109375 -20.796875 
L 9.078125 -20.796875 
L 9.078125 54.6875 
L 18.109375 54.6875 
L 18.109375 46.390625 
Q 20.953125 51.265625 25.265625 53.625 
Q 29.59375 56 35.59375 56 
Q 45.5625 56 51.78125 48.09375 
Q 58.015625 40.1875 58.015625 27.296875 
Q 58.015625 14.40625 51.78125 6.484375 
Q 45.5625 -1.421875 35.59375 -1.421875 
Q 29.59375 -1.421875 25.265625 0.953125 
Q 20.953125 3.328125 18.109375 8.203125 
z
M 48.6875 27.296875 
Q 48.6875 37.203125 44.609375 42.84375 
Q 40.53125 48.484375 33.40625 48.484375 
Q 26.265625 48.484375 22.1875 42.84375 
Q 18.109375 37.203125 18.109375 27.296875 
Q 18.109375 17.390625 22.1875 11.75 
Q 26.265625 6.109375 33.40625 6.109375 
Q 40.53125 6.109375 44.609375 11.75 
Q 48.6875 17.390625 48.6875 27.296875 
z
" id="DejaVuSans-112"/>
      <path d="M 31 75.875 
Q 24.46875 64.65625 21.28125 53.65625 
Q 18.109375 42.671875 18.109375 31.390625 
Q 18.109375 20.125 21.3125 9.0625 
Q 24.515625 -2 31 -13.1875 
L 23.1875 -13.1875 
Q 15.875 -1.703125 12.234375 9.375 
Q 8.59375 20.453125 8.59375 31.390625 
Q 8.59375 42.28125 12.203125 53.3125 
Q 15.828125 64.359375 23.1875 75.875 
z
" id="DejaVuSans-40"/>
      <path d="M 10.6875 12.40625 
L 21 12.40625 
L 21 0 
L 10.6875 0 
z
" id="DejaVuSans-46"/>
      <path d="M 8.203125 72.90625 
L 55.078125 72.90625 
L 55.078125 68.703125 
L 28.609375 0 
L 18.3125 0 
L 43.21875 64.59375 
L 8.203125 64.59375 
z
" id="DejaVuSans-55"/>
      <path d="M 8.015625 75.875 
L 15.828125 75.875 
Q 23.140625 64.359375 26.78125 53.3125 
Q 30.421875 42.28125 30.421875 31.390625 
Q 30.421875 20.453125 26.78125 9.375 
Q 23.140625 -1.703125 15.828125 -13.1875 
L 8.015625 -13.1875 
Q 14.5 -2 17.703125 9.0625 
Q 20.90625 20.125 20.90625 31.390625 
Q 20.90625 42.671875 17.703125 53.65625 
Q 14.5 64.65625 8.015625 75.875 
z
" id="DejaVuSans-41"/>
     </defs>
     <g transform="translate(317.72 53.15625)scale(0.1 -0.1)">
      <use transform="translate(0 0.015625)" xlink:href="#DejaVuSans-101"/>
      <use transform="translate(61.523438 0.015625)" xlink:href="#DejaVuSans-120"/>
      <use transform="translate(120.703125 0.015625)" xlink:href="#DejaVuSans-112"/>
      <use transform="translate(184.179688 0.015625)" xlink:href="#DejaVuSans-40"/>
      <use transform="translate(223.193359 0.015625)" xlink:href="#DejaVuSans-8722"/>
      <use transform="translate(306.982422 0.015625)" xlink:href="#DejaVuSans-48"/>
      <use transform="translate(370.605469 0.015625)" xlink:href="#DejaVuSans-46"/>
      <use transform="translate(394.642578 0.015625)" xlink:href="#DejaVuSans-55"/>
      <use transform="translate(456.515625 0.015625)" xlink:href="#DejaVuSans-55"/>
      <use transform="translate(520.138672 0.015625)" xlink:href="#DejaVuSans-49"/>
      <use transform="translate(583.761719 0.015625)" xlink:href="#DejaVuSans-Oblique-107"/>
      <use transform="translate(641.671875 0.015625)" xlink:href="#DejaVuSans-41"/>
     </g>
    </g>
   </g>
  </g>
 </g>
 <defs>
  <clipPath id="p781654b181">
   <rect height="266.112" width="357.12" x="37.7" y="7.2"/>
  </clipPath>
 </defs>
</svg>
