<?xml version="1.0" encoding="utf-8" standalone="no"?>
<!DOCTYPE svg PUBLIC "-//W3C//DTD SVG 1.1//EN"
  "http://www.w3.org/Graphics/SVG/1.1/DTD/svg11.dtd">
<!-- Created with matplotlib (https://matplotlib.org/) -->
<svg height="310.86825pt" version="1.1" viewBox="0 0 402.02 310.86825" width="402.02pt" xmlns="http://www.w3.org/2000/svg" xmlns:xlink="http://www.w3.org/1999/xlink">
 <defs>
  <style type="text/css">
*{stroke-linecap:butt;stroke-linejoin:round;}
  </style>
 </defs>
 <g id="figure_1">
  <g id="patch_1">
   <path d="M 0 310.86825 
L 402.02 310.86825 
L 402.02 0 
L 0 0 
z
" style="fill:#ffffff;"/>
  </g>
  <g id="axes_1">
   <g id="patch_2">
    <path d="M 37.7 273.312 
L 394.82 273.312 
L 394.82 7.2 
L 37.7 7.2 
z
" style="fill:#ffffff;"/>
   </g>
   <g id="matplotlib.axis_1">
    <g id="xtick_1">
     <g id="line2d_1">
      <defs>
       <path d="M 0 0 
L 0 3.5 
" id="mdd26465412" style="stroke:#000000;stroke-width:0.8;"/>
      </defs>
      <g>
       <use style="stroke:#000000;stroke-width:0.8;" x="53.932727" xlink:href="#mdd26465412" y="273.312"/>
      </g>
     </g>
     <g id="text_1">
      <!-- 0 -->
      <defs>
       <path d="M 31.78125 66.40625 
Q 24.171875 66.40625 20.328125 58.90625 
Q 16.5 51.421875 16.5 36.375 
Q 16.5 21.390625 20.328125 13.890625 
Q 24.171875 6.390625 31.78125 6.390625 
Q 39.453125 6.390625 43.28125 13.890625 
Q 47.125 21.390625 47.125 36.375 
Q 47.125 51.421875 43.28125 58.90625 
Q 39.453125 66.40625 31.78125 66.40625 
z
M 31.78125 74.21875 
Q 44.046875 74.21875 50.515625 64.515625 
Q 56.984375 54.828125 56.984375 36.375 
Q 56.984375 17.96875 50.515625 8.265625 
Q 44.046875 -1.421875 31.78125 -1.421875 
Q 19.53125 -1.421875 13.0625 8.265625 
Q 6.59375 17.96875 6.59375 36.375 
Q 6.59375 54.828125 13.0625 64.515625 
Q 19.53125 74.21875 31.78125 74.21875 
z
" id="DejaVuSans-48"/>
      </defs>
      <g transform="translate(50.751477 287.910437)scale(0.1 -0.1)">
       <use xlink:href="#DejaVuSans-48"/>
      </g>
     </g>
    </g>
    <g id="xtick_2">
     <g id="line2d_2">
      <g>
       <use style="stroke:#000000;stroke-width:0.8;" x="97.335741" xlink:href="#mdd26465412" y="273.312"/>
      </g>
     </g>
     <g id="text_2">
      <!-- 25 -->
      <defs>
       <path d="M 19.1875 8.296875 
L 53.609375 8.296875 
L 53.609375 0 
L 7.328125 0 
L 7.328125 8.296875 
Q 12.9375 14.109375 22.625 23.890625 
Q 32.328125 33.6875 34.8125 36.53125 
Q 39.546875 41.84375 41.421875 45.53125 
Q 43.3125 49.21875 43.3125 52.78125 
Q 43.3125 58.59375 39.234375 62.25 
Q 35.15625 65.921875 28.609375 65.921875 
Q 23.96875 65.921875 18.8125 64.3125 
Q 13.671875 62.703125 7.8125 59.421875 
L 7.8125 69.390625 
Q 13.765625 71.78125 18.9375 73 
Q 24.125 74.21875 28.421875 74.21875 
Q 39.75 74.21875 46.484375 68.546875 
Q 53.21875 62.890625 53.21875 53.421875 
Q 53.21875 48.921875 51.53125 44.890625 
Q 49.859375 40.875 45.40625 35.40625 
Q 44.1875 33.984375 37.640625 27.21875 
Q 31.109375 20.453125 19.1875 8.296875 
z
" id="DejaVuSans-50"/>
       <path d="M 10.796875 72.90625 
L 49.515625 72.90625 
L 49.515625 64.59375 
L 19.828125 64.59375 
L 19.828125 46.734375 
Q 21.96875 47.46875 24.109375 47.828125 
Q 26.265625 48.1875 28.421875 48.1875 
Q 40.625 48.1875 47.75 41.5 
Q 54.890625 34.8125 54.890625 23.390625 
Q 54.890625 11.625 47.5625 5.09375 
Q 40.234375 -1.421875 26.90625 -1.421875 
Q 22.3125 -1.421875 17.546875 -0.640625 
Q 12.796875 0.140625 7.71875 1.703125 
L 7.71875 11.625 
Q 12.109375 9.234375 16.796875 8.0625 
Q 21.484375 6.890625 26.703125 6.890625 
Q 35.15625 6.890625 40.078125 11.328125 
Q 45.015625 15.765625 45.015625 23.390625 
Q 45.015625 31 40.078125 35.4375 
Q 35.15625 39.890625 26.703125 39.890625 
Q 22.75 39.890625 18.8125 39.015625 
Q 14.890625 38.140625 10.796875 36.28125 
z
" id="DejaVuSans-53"/>
      </defs>
      <g transform="translate(90.973241 287.910437)scale(0.1 -0.1)">
       <use xlink:href="#DejaVuSans-50"/>
       <use x="63.623047" xlink:href="#DejaVuSans-53"/>
      </g>
     </g>
    </g>
    <g id="xtick_3">
     <g id="line2d_3">
      <g>
       <use style="stroke:#000000;stroke-width:0.8;" x="140.738755" xlink:href="#mdd26465412" y="273.312"/>
      </g>
     </g>
     <g id="text_3">
      <!-- 50 -->
      <g transform="translate(134.376255 287.910437)scale(0.1 -0.1)">
       <use xlink:href="#DejaVuSans-53"/>
       <use x="63.623047" xlink:href="#DejaVuSans-48"/>
      </g>
     </g>
    </g>
    <g id="xtick_4">
     <g id="line2d_4">
      <g>
       <use style="stroke:#000000;stroke-width:0.8;" x="184.14177" xlink:href="#mdd26465412" y="273.312"/>
      </g>
     </g>
     <g id="text_4">
      <!-- 75 -->
      <defs>
       <path d="M 8.203125 72.90625 
L 55.078125 72.90625 
L 55.078125 68.703125 
L 28.609375 0 
L 18.3125 0 
L 43.21875 64.59375 
L 8.203125 64.59375 
z
" id="DejaVuSans-55"/>
      </defs>
      <g transform="translate(177.77927 287.910437)scale(0.1 -0.1)">
       <use xlink:href="#DejaVuSans-55"/>
       <use x="63.623047" xlink:href="#DejaVuSans-53"/>
      </g>
     </g>
    </g>
    <g id="xtick_5">
     <g id="line2d_5">
      <g>
       <use style="stroke:#000000;stroke-width:0.8;" x="227.544784" xlink:href="#mdd26465412" y="273.312"/>
      </g>
     </g>
     <g id="text_5">
      <!-- 100 -->
      <defs>
       <path d="M 12.40625 8.296875 
L 28.515625 8.296875 
L 28.515625 63.921875 
L 10.984375 60.40625 
L 10.984375 69.390625 
L 28.421875 72.90625 
L 38.28125 72.90625 
L 38.28125 8.296875 
L 54.390625 8.296875 
L 54.390625 0 
L 12.40625 0 
z
" id="DejaVuSans-49"/>
      </defs>
      <g transform="translate(218.001034 287.910437)scale(0.1 -0.1)">
       <use xlink:href="#DejaVuSans-49"/>
       <use x="63.623047" xlink:href="#DejaVuSans-48"/>
       <use x="127.246094" xlink:href="#DejaVuSans-48"/>
      </g>
     </g>
    </g>
    <g id="xtick_6">
     <g id="line2d_6">
      <g>
       <use style="stroke:#000000;stroke-width:0.8;" x="270.947798" xlink:href="#mdd26465412" y="273.312"/>
      </g>
     </g>
     <g id="text_6">
      <!-- 125 -->
      <g transform="translate(261.404048 287.910437)scale(0.1 -0.1)">
       <use xlink:href="#DejaVuSans-49"/>
       <use x="63.623047" xlink:href="#DejaVuSans-50"/>
       <use x="127.246094" xlink:href="#DejaVuSans-53"/>
      </g>
     </g>
    </g>
    <g id="xtick_7">
     <g id="line2d_7">
      <g>
       <use style="stroke:#000000;stroke-width:0.8;" x="314.350812" xlink:href="#mdd26465412" y="273.312"/>
      </g>
     </g>
     <g id="text_7">
      <!-- 150 -->
      <g transform="translate(304.807062 287.910437)scale(0.1 -0.1)">
       <use xlink:href="#DejaVuSans-49"/>
       <use x="63.623047" xlink:href="#DejaVuSans-53"/>
       <use x="127.246094" xlink:href="#DejaVuSans-48"/>
      </g>
     </g>
    </g>
    <g id="xtick_8">
     <g id="line2d_8">
      <g>
       <use style="stroke:#000000;stroke-width:0.8;" x="357.753826" xlink:href="#mdd26465412" y="273.312"/>
      </g>
     </g>
     <g id="text_8">
      <!-- 175 -->
      <g transform="translate(348.210076 287.910437)scale(0.1 -0.1)">
       <use xlink:href="#DejaVuSans-49"/>
       <use x="63.623047" xlink:href="#DejaVuSans-55"/>
       <use x="127.246094" xlink:href="#DejaVuSans-53"/>
      </g>
     </g>
    </g>
    <g id="text_9">
     <!-- $ k $ -->
     <defs>
      <path d="M 18.3125 75.984375 
L 27.296875 75.984375 
L 18.703125 31.6875 
L 49.515625 54.6875 
L 61.1875 54.6875 
L 26.8125 28.515625 
L 51.90625 0 
L 41.015625 0 
L 17.671875 26.703125 
L 12.5 0 
L 3.515625 0 
z
" id="DejaVuSans-Oblique-107"/>
     </defs>
     <g transform="translate(213.36 301.588562)scale(0.1 -0.1)">
      <use transform="translate(0 0.015625)" xlink:href="#DejaVuSans-Oblique-107"/>
     </g>
    </g>
   </g>
   <g id="matplotlib.axis_2">
    <g id="ytick_1">
     <g id="line2d_9">
      <defs>
       <path d="M 0 0 
L -3.5 0 
" id="mecc99b69a7" style="stroke:#000000;stroke-width:0.8;"/>
      </defs>
      <g>
       <use style="stroke:#000000;stroke-width:0.8;" x="37.7" xlink:href="#mecc99b69a7" y="239.133388"/>
      </g>
     </g>
     <g id="text_10">
      <!-- $\mathdefault{10^{-5}}$ -->
      <defs>
       <path d="M 10.59375 35.5 
L 73.1875 35.5 
L 73.1875 27.203125 
L 10.59375 27.203125 
z
" id="DejaVuSans-8722"/>
      </defs>
      <g transform="translate(7.2 242.932607)scale(0.1 -0.1)">
       <use transform="translate(0 0.684375)" xlink:href="#DejaVuSans-49"/>
       <use transform="translate(63.623047 0.684375)" xlink:href="#DejaVuSans-48"/>
       <use transform="translate(128.203125 38.965625)scale(0.7)" xlink:href="#DejaVuSans-8722"/>
       <use transform="translate(186.855469 38.965625)scale(0.7)" xlink:href="#DejaVuSans-53"/>
      </g>
     </g>
    </g>
    <g id="ytick_2">
     <g id="line2d_10">
      <g>
       <use style="stroke:#000000;stroke-width:0.8;" x="37.7" xlink:href="#mecc99b69a7" y="204.340167"/>
      </g>
     </g>
     <g id="text_11">
      <!-- $\mathdefault{10^{-4}}$ -->
      <defs>
       <path d="M 37.796875 64.3125 
L 12.890625 25.390625 
L 37.796875 25.390625 
z
M 35.203125 72.90625 
L 47.609375 72.90625 
L 47.609375 25.390625 
L 58.015625 25.390625 
L 58.015625 17.1875 
L 47.609375 17.1875 
L 47.609375 0 
L 37.796875 0 
L 37.796875 17.1875 
L 4.890625 17.1875 
L 4.890625 26.703125 
z
" id="DejaVuSans-52"/>
      </defs>
      <g transform="translate(7.2 208.139385)scale(0.1 -0.1)">
       <use transform="translate(0 0.684375)" xlink:href="#DejaVuSans-49"/>
       <use transform="translate(63.623047 0.684375)" xlink:href="#DejaVuSans-48"/>
       <use transform="translate(128.203125 38.965625)scale(0.7)" xlink:href="#DejaVuSans-8722"/>
       <use transform="translate(186.855469 38.965625)scale(0.7)" xlink:href="#DejaVuSans-52"/>
      </g>
     </g>
    </g>
    <g id="ytick_3">
     <g id="line2d_11">
      <g>
       <use style="stroke:#000000;stroke-width:0.8;" x="37.7" xlink:href="#mecc99b69a7" y="169.546945"/>
      </g>
     </g>
     <g id="text_12">
      <!-- $\mathdefault{10^{-3}}$ -->
      <defs>
       <path d="M 40.578125 39.3125 
Q 47.65625 37.796875 51.625 33 
Q 55.609375 28.21875 55.609375 21.1875 
Q 55.609375 10.40625 48.1875 4.484375 
Q 40.765625 -1.421875 27.09375 -1.421875 
Q 22.515625 -1.421875 17.65625 -0.515625 
Q 12.796875 0.390625 7.625 2.203125 
L 7.625 11.71875 
Q 11.71875 9.328125 16.59375 8.109375 
Q 21.484375 6.890625 26.8125 6.890625 
Q 36.078125 6.890625 40.9375 10.546875 
Q 45.796875 14.203125 45.796875 21.1875 
Q 45.796875 27.640625 41.28125 31.265625 
Q 36.765625 34.90625 28.71875 34.90625 
L 20.21875 34.90625 
L 20.21875 43.015625 
L 29.109375 43.015625 
Q 36.375 43.015625 40.234375 45.921875 
Q 44.09375 48.828125 44.09375 54.296875 
Q 44.09375 59.90625 40.109375 62.90625 
Q 36.140625 65.921875 28.71875 65.921875 
Q 24.65625 65.921875 20.015625 65.03125 
Q 15.375 64.15625 9.8125 62.3125 
L 9.8125 71.09375 
Q 15.4375 72.65625 20.34375 73.4375 
Q 25.25 74.21875 29.59375 74.21875 
Q 40.828125 74.21875 47.359375 69.109375 
Q 53.90625 64.015625 53.90625 55.328125 
Q 53.90625 49.265625 50.4375 45.09375 
Q 46.96875 40.921875 40.578125 39.3125 
z
" id="DejaVuSans-51"/>
      </defs>
      <g transform="translate(7.2 173.346164)scale(0.1 -0.1)">
       <use transform="translate(0 0.765625)" xlink:href="#DejaVuSans-49"/>
       <use transform="translate(63.623047 0.765625)" xlink:href="#DejaVuSans-48"/>
       <use transform="translate(128.203125 39.046875)scale(0.7)" xlink:href="#DejaVuSans-8722"/>
       <use transform="translate(186.855469 39.046875)scale(0.7)" xlink:href="#DejaVuSans-51"/>
      </g>
     </g>
    </g>
    <g id="ytick_4">
     <g id="line2d_12">
      <g>
       <use style="stroke:#000000;stroke-width:0.8;" x="37.7" xlink:href="#mecc99b69a7" y="134.753724"/>
      </g>
     </g>
     <g id="text_13">
      <!-- $\mathdefault{10^{-2}}$ -->
      <g transform="translate(7.2 138.552943)scale(0.1 -0.1)">
       <use transform="translate(0 0.765625)" xlink:href="#DejaVuSans-49"/>
       <use transform="translate(63.623047 0.765625)" xlink:href="#DejaVuSans-48"/>
       <use transform="translate(128.203125 39.046875)scale(0.7)" xlink:href="#DejaVuSans-8722"/>
       <use transform="translate(186.855469 39.046875)scale(0.7)" xlink:href="#DejaVuSans-50"/>
      </g>
     </g>
    </g>
    <g id="ytick_5">
     <g id="line2d_13">
      <g>
       <use style="stroke:#000000;stroke-width:0.8;" x="37.7" xlink:href="#mecc99b69a7" y="99.960503"/>
      </g>
     </g>
     <g id="text_14">
      <!-- $\mathdefault{10^{-1}}$ -->
      <g transform="translate(7.2 103.759721)scale(0.1 -0.1)">
       <use transform="translate(0 0.684375)" xlink:href="#DejaVuSans-49"/>
       <use transform="translate(63.623047 0.684375)" xlink:href="#DejaVuSans-48"/>
       <use transform="translate(128.203125 38.965625)scale(0.7)" xlink:href="#DejaVuSans-8722"/>
       <use transform="translate(186.855469 38.965625)scale(0.7)" xlink:href="#DejaVuSans-49"/>
      </g>
     </g>
    </g>
    <g id="ytick_6">
     <g id="line2d_14">
      <g>
       <use style="stroke:#000000;stroke-width:0.8;" x="37.7" xlink:href="#mecc99b69a7" y="65.167281"/>
      </g>
     </g>
     <g id="text_15">
      <!-- $\mathdefault{10^{0}}$ -->
      <g transform="translate(13.1 68.9665)scale(0.1 -0.1)">
       <use transform="translate(0 0.765625)" xlink:href="#DejaVuSans-49"/>
       <use transform="translate(63.623047 0.765625)" xlink:href="#DejaVuSans-48"/>
       <use transform="translate(128.203125 39.046875)scale(0.7)" xlink:href="#DejaVuSans-48"/>
      </g>
     </g>
    </g>
    <g id="ytick_7">
     <g id="line2d_15">
      <g>
       <use style="stroke:#000000;stroke-width:0.8;" x="37.7" xlink:href="#mecc99b69a7" y="30.37406"/>
      </g>
     </g>
     <g id="text_16">
      <!-- $\mathdefault{10^{1}}$ -->
      <g transform="translate(13.1 34.173279)scale(0.1 -0.1)">
       <use transform="translate(0 0.684375)" xlink:href="#DejaVuSans-49"/>
       <use transform="translate(63.623047 0.684375)" xlink:href="#DejaVuSans-48"/>
       <use transform="translate(128.203125 38.965625)scale(0.7)" xlink:href="#DejaVuSans-49"/>
      </g>
     </g>
    </g>
    <g id="ytick_8">
     <g id="line2d_16">
      <defs>
       <path d="M 0 0 
L -2 0 
" id="mb8a2c7ad92" style="stroke:#000000;stroke-width:0.6;"/>
      </defs>
      <g>
       <use style="stroke:#000000;stroke-width:0.6;" x="37.7" xlink:href="#mb8a2c7ad92" y="263.452806"/>
      </g>
     </g>
    </g>
    <g id="ytick_9">
     <g id="line2d_17">
      <g>
       <use style="stroke:#000000;stroke-width:0.6;" x="37.7" xlink:href="#mb8a2c7ad92" y="257.326024"/>
      </g>
     </g>
    </g>
    <g id="ytick_10">
     <g id="line2d_18">
      <g>
       <use style="stroke:#000000;stroke-width:0.6;" x="37.7" xlink:href="#mb8a2c7ad92" y="252.979003"/>
      </g>
     </g>
    </g>
    <g id="ytick_11">
     <g id="line2d_19">
      <g>
       <use style="stroke:#000000;stroke-width:0.6;" x="37.7" xlink:href="#mb8a2c7ad92" y="249.607191"/>
      </g>
     </g>
    </g>
    <g id="ytick_12">
     <g id="line2d_20">
      <g>
       <use style="stroke:#000000;stroke-width:0.6;" x="37.7" xlink:href="#mb8a2c7ad92" y="246.852221"/>
      </g>
     </g>
    </g>
    <g id="ytick_13">
     <g id="line2d_21">
      <g>
       <use style="stroke:#000000;stroke-width:0.6;" x="37.7" xlink:href="#mb8a2c7ad92" y="244.522926"/>
      </g>
     </g>
    </g>
    <g id="ytick_14">
     <g id="line2d_22">
      <g>
       <use style="stroke:#000000;stroke-width:0.6;" x="37.7" xlink:href="#mb8a2c7ad92" y="242.505199"/>
      </g>
     </g>
    </g>
    <g id="ytick_15">
     <g id="line2d_23">
      <g>
       <use style="stroke:#000000;stroke-width:0.6;" x="37.7" xlink:href="#mb8a2c7ad92" y="240.725438"/>
      </g>
     </g>
    </g>
    <g id="ytick_16">
     <g id="line2d_24">
      <g>
       <use style="stroke:#000000;stroke-width:0.6;" x="37.7" xlink:href="#mb8a2c7ad92" y="228.659585"/>
      </g>
     </g>
    </g>
    <g id="ytick_17">
     <g id="line2d_25">
      <g>
       <use style="stroke:#000000;stroke-width:0.6;" x="37.7" xlink:href="#mb8a2c7ad92" y="222.532803"/>
      </g>
     </g>
    </g>
    <g id="ytick_18">
     <g id="line2d_26">
      <g>
       <use style="stroke:#000000;stroke-width:0.6;" x="37.7" xlink:href="#mb8a2c7ad92" y="218.185781"/>
      </g>
     </g>
    </g>
    <g id="ytick_19">
     <g id="line2d_27">
      <g>
       <use style="stroke:#000000;stroke-width:0.6;" x="37.7" xlink:href="#mb8a2c7ad92" y="214.81397"/>
      </g>
     </g>
    </g>
    <g id="ytick_20">
     <g id="line2d_28">
      <g>
       <use style="stroke:#000000;stroke-width:0.6;" x="37.7" xlink:href="#mb8a2c7ad92" y="212.058999"/>
      </g>
     </g>
    </g>
    <g id="ytick_21">
     <g id="line2d_29">
      <g>
       <use style="stroke:#000000;stroke-width:0.6;" x="37.7" xlink:href="#mb8a2c7ad92" y="209.729705"/>
      </g>
     </g>
    </g>
    <g id="ytick_22">
     <g id="line2d_30">
      <g>
       <use style="stroke:#000000;stroke-width:0.6;" x="37.7" xlink:href="#mb8a2c7ad92" y="207.711978"/>
      </g>
     </g>
    </g>
    <g id="ytick_23">
     <g id="line2d_31">
      <g>
       <use style="stroke:#000000;stroke-width:0.6;" x="37.7" xlink:href="#mb8a2c7ad92" y="205.932217"/>
      </g>
     </g>
    </g>
    <g id="ytick_24">
     <g id="line2d_32">
      <g>
       <use style="stroke:#000000;stroke-width:0.6;" x="37.7" xlink:href="#mb8a2c7ad92" y="193.866363"/>
      </g>
     </g>
    </g>
    <g id="ytick_25">
     <g id="line2d_33">
      <g>
       <use style="stroke:#000000;stroke-width:0.6;" x="37.7" xlink:href="#mb8a2c7ad92" y="187.739581"/>
      </g>
     </g>
    </g>
    <g id="ytick_26">
     <g id="line2d_34">
      <g>
       <use style="stroke:#000000;stroke-width:0.6;" x="37.7" xlink:href="#mb8a2c7ad92" y="183.39256"/>
      </g>
     </g>
    </g>
    <g id="ytick_27">
     <g id="line2d_35">
      <g>
       <use style="stroke:#000000;stroke-width:0.6;" x="37.7" xlink:href="#mb8a2c7ad92" y="180.020749"/>
      </g>
     </g>
    </g>
    <g id="ytick_28">
     <g id="line2d_36">
      <g>
       <use style="stroke:#000000;stroke-width:0.6;" x="37.7" xlink:href="#mb8a2c7ad92" y="177.265778"/>
      </g>
     </g>
    </g>
    <g id="ytick_29">
     <g id="line2d_37">
      <g>
       <use style="stroke:#000000;stroke-width:0.6;" x="37.7" xlink:href="#mb8a2c7ad92" y="174.936483"/>
      </g>
     </g>
    </g>
    <g id="ytick_30">
     <g id="line2d_38">
      <g>
       <use style="stroke:#000000;stroke-width:0.6;" x="37.7" xlink:href="#mb8a2c7ad92" y="172.918757"/>
      </g>
     </g>
    </g>
    <g id="ytick_31">
     <g id="line2d_39">
      <g>
       <use style="stroke:#000000;stroke-width:0.6;" x="37.7" xlink:href="#mb8a2c7ad92" y="171.138996"/>
      </g>
     </g>
    </g>
    <g id="ytick_32">
     <g id="line2d_40">
      <g>
       <use style="stroke:#000000;stroke-width:0.6;" x="37.7" xlink:href="#mb8a2c7ad92" y="159.073142"/>
      </g>
     </g>
    </g>
    <g id="ytick_33">
     <g id="line2d_41">
      <g>
       <use style="stroke:#000000;stroke-width:0.6;" x="37.7" xlink:href="#mb8a2c7ad92" y="152.94636"/>
      </g>
     </g>
    </g>
    <g id="ytick_34">
     <g id="line2d_42">
      <g>
       <use style="stroke:#000000;stroke-width:0.6;" x="37.7" xlink:href="#mb8a2c7ad92" y="148.599339"/>
      </g>
     </g>
    </g>
    <g id="ytick_35">
     <g id="line2d_43">
      <g>
       <use style="stroke:#000000;stroke-width:0.6;" x="37.7" xlink:href="#mb8a2c7ad92" y="145.227527"/>
      </g>
     </g>
    </g>
    <g id="ytick_36">
     <g id="line2d_44">
      <g>
       <use style="stroke:#000000;stroke-width:0.6;" x="37.7" xlink:href="#mb8a2c7ad92" y="142.472557"/>
      </g>
     </g>
    </g>
    <g id="ytick_37">
     <g id="line2d_45">
      <g>
       <use style="stroke:#000000;stroke-width:0.6;" x="37.7" xlink:href="#mb8a2c7ad92" y="140.143262"/>
      </g>
     </g>
    </g>
    <g id="ytick_38">
     <g id="line2d_46">
      <g>
       <use style="stroke:#000000;stroke-width:0.6;" x="37.7" xlink:href="#mb8a2c7ad92" y="138.125535"/>
      </g>
     </g>
    </g>
    <g id="ytick_39">
     <g id="line2d_47">
      <g>
       <use style="stroke:#000000;stroke-width:0.6;" x="37.7" xlink:href="#mb8a2c7ad92" y="136.345774"/>
      </g>
     </g>
    </g>
    <g id="ytick_40">
     <g id="line2d_48">
      <g>
       <use style="stroke:#000000;stroke-width:0.6;" x="37.7" xlink:href="#mb8a2c7ad92" y="124.279921"/>
      </g>
     </g>
    </g>
    <g id="ytick_41">
     <g id="line2d_49">
      <g>
       <use style="stroke:#000000;stroke-width:0.6;" x="37.7" xlink:href="#mb8a2c7ad92" y="118.153138"/>
      </g>
     </g>
    </g>
    <g id="ytick_42">
     <g id="line2d_50">
      <g>
       <use style="stroke:#000000;stroke-width:0.6;" x="37.7" xlink:href="#mb8a2c7ad92" y="113.806117"/>
      </g>
     </g>
    </g>
    <g id="ytick_43">
     <g id="line2d_51">
      <g>
       <use style="stroke:#000000;stroke-width:0.6;" x="37.7" xlink:href="#mb8a2c7ad92" y="110.434306"/>
      </g>
     </g>
    </g>
    <g id="ytick_44">
     <g id="line2d_52">
      <g>
       <use style="stroke:#000000;stroke-width:0.6;" x="37.7" xlink:href="#mb8a2c7ad92" y="107.679335"/>
      </g>
     </g>
    </g>
    <g id="ytick_45">
     <g id="line2d_53">
      <g>
       <use style="stroke:#000000;stroke-width:0.6;" x="37.7" xlink:href="#mb8a2c7ad92" y="105.350041"/>
      </g>
     </g>
    </g>
    <g id="ytick_46">
     <g id="line2d_54">
      <g>
       <use style="stroke:#000000;stroke-width:0.6;" x="37.7" xlink:href="#mb8a2c7ad92" y="103.332314"/>
      </g>
     </g>
    </g>
    <g id="ytick_47">
     <g id="line2d_55">
      <g>
       <use style="stroke:#000000;stroke-width:0.6;" x="37.7" xlink:href="#mb8a2c7ad92" y="101.552553"/>
      </g>
     </g>
    </g>
    <g id="ytick_48">
     <g id="line2d_56">
      <g>
       <use style="stroke:#000000;stroke-width:0.6;" x="37.7" xlink:href="#mb8a2c7ad92" y="89.486699"/>
      </g>
     </g>
    </g>
    <g id="ytick_49">
     <g id="line2d_57">
      <g>
       <use style="stroke:#000000;stroke-width:0.6;" x="37.7" xlink:href="#mb8a2c7ad92" y="83.359917"/>
      </g>
     </g>
    </g>
    <g id="ytick_50">
     <g id="line2d_58">
      <g>
       <use style="stroke:#000000;stroke-width:0.6;" x="37.7" xlink:href="#mb8a2c7ad92" y="79.012896"/>
      </g>
     </g>
    </g>
    <g id="ytick_51">
     <g id="line2d_59">
      <g>
       <use style="stroke:#000000;stroke-width:0.6;" x="37.7" xlink:href="#mb8a2c7ad92" y="75.641084"/>
      </g>
     </g>
    </g>
    <g id="ytick_52">
     <g id="line2d_60">
      <g>
       <use style="stroke:#000000;stroke-width:0.6;" x="37.7" xlink:href="#mb8a2c7ad92" y="72.886114"/>
      </g>
     </g>
    </g>
    <g id="ytick_53">
     <g id="line2d_61">
      <g>
       <use style="stroke:#000000;stroke-width:0.6;" x="37.7" xlink:href="#mb8a2c7ad92" y="70.556819"/>
      </g>
     </g>
    </g>
    <g id="ytick_54">
     <g id="line2d_62">
      <g>
       <use style="stroke:#000000;stroke-width:0.6;" x="37.7" xlink:href="#mb8a2c7ad92" y="68.539093"/>
      </g>
     </g>
    </g>
    <g id="ytick_55">
     <g id="line2d_63">
      <g>
       <use style="stroke:#000000;stroke-width:0.6;" x="37.7" xlink:href="#mb8a2c7ad92" y="66.759332"/>
      </g>
     </g>
    </g>
    <g id="ytick_56">
     <g id="line2d_64">
      <g>
       <use style="stroke:#000000;stroke-width:0.6;" x="37.7" xlink:href="#mb8a2c7ad92" y="54.693478"/>
      </g>
     </g>
    </g>
    <g id="ytick_57">
     <g id="line2d_65">
      <g>
       <use style="stroke:#000000;stroke-width:0.6;" x="37.7" xlink:href="#mb8a2c7ad92" y="48.566696"/>
      </g>
     </g>
    </g>
    <g id="ytick_58">
     <g id="line2d_66">
      <g>
       <use style="stroke:#000000;stroke-width:0.6;" x="37.7" xlink:href="#mb8a2c7ad92" y="44.219675"/>
      </g>
     </g>
    </g>
    <g id="ytick_59">
     <g id="line2d_67">
      <g>
       <use style="stroke:#000000;stroke-width:0.6;" x="37.7" xlink:href="#mb8a2c7ad92" y="40.847863"/>
      </g>
     </g>
    </g>
    <g id="ytick_60">
     <g id="line2d_68">
      <g>
       <use style="stroke:#000000;stroke-width:0.6;" x="37.7" xlink:href="#mb8a2c7ad92" y="38.092893"/>
      </g>
     </g>
    </g>
    <g id="ytick_61">
     <g id="line2d_69">
      <g>
       <use style="stroke:#000000;stroke-width:0.6;" x="37.7" xlink:href="#mb8a2c7ad92" y="35.763598"/>
      </g>
     </g>
    </g>
    <g id="ytick_62">
     <g id="line2d_70">
      <g>
       <use style="stroke:#000000;stroke-width:0.6;" x="37.7" xlink:href="#mb8a2c7ad92" y="33.745871"/>
      </g>
     </g>
    </g>
    <g id="ytick_63">
     <g id="line2d_71">
      <g>
       <use style="stroke:#000000;stroke-width:0.6;" x="37.7" xlink:href="#mb8a2c7ad92" y="31.96611"/>
      </g>
     </g>
    </g>
    <g id="ytick_64">
     <g id="line2d_72">
      <g>
       <use style="stroke:#000000;stroke-width:0.6;" x="37.7" xlink:href="#mb8a2c7ad92" y="19.900257"/>
      </g>
     </g>
    </g>
    <g id="ytick_65">
     <g id="line2d_73">
      <g>
       <use style="stroke:#000000;stroke-width:0.6;" x="37.7" xlink:href="#mb8a2c7ad92" y="13.773474"/>
      </g>
     </g>
    </g>
    <g id="ytick_66">
     <g id="line2d_74">
      <g>
       <use style="stroke:#000000;stroke-width:0.6;" x="37.7" xlink:href="#mb8a2c7ad92" y="9.426453"/>
      </g>
     </g>
    </g>
   </g>
   <g id="line2d_75">
    <path clip-path="url(#pe61d75ec7b)" d="M 53.932727 19.296 
L 55.668848 64.966047 
L 59.141089 139.86548 
L 60.87721 179.798642 
L 62.61333 176.688834 
L 64.349451 163.359278 
L 66.085571 174.642077 
L 67.821692 164.940596 
L 69.557812 164.173336 
L 71.293933 173.893685 
L 73.030053 179.722817 
L 74.766174 179.64431 
L 76.502295 159.865604 
L 78.238415 169.462084 
L 79.974536 183.635157 
L 81.710656 166.559735 
L 83.446777 166.076205 
L 85.182897 186.312026 
L 86.919018 174.142446 
L 88.655139 180.819085 
L 90.391259 174.734677 
L 92.12738 195.175432 
L 93.8635 172.021638 
L 95.599621 175.325483 
L 97.335741 188.387743 
L 99.071862 183.410562 
L 100.807982 167.994949 
L 102.544103 207.362049 
L 104.280224 154.030707 
L 106.016344 190.735615 
L 107.752465 177.254856 
L 109.488585 171.743115 
L 111.224706 174.623004 
L 112.960826 163.948994 
L 114.696947 157.393175 
L 116.433068 201.973402 
L 118.169188 164.103784 
L 119.905309 158.118768 
L 121.641429 164.17195 
L 123.37755 180.132782 
L 125.11367 162.744995 
L 126.849791 162.531713 
L 128.585912 168.029564 
L 130.322032 155.594351 
L 132.058153 189.781172 
L 133.794273 166.26576 
L 135.530394 179.090506 
L 137.266514 170.430698 
L 139.002635 182.451219 
L 140.738755 164.109707 
L 142.474876 165.919315 
L 145.947117 184.191598 
L 147.683238 174.17385 
L 149.419358 176.131179 
L 151.155479 172.570804 
L 152.891599 171.471597 
L 154.62772 175.081507 
L 156.363841 172.228752 
L 158.099961 192.330743 
L 159.836082 158.907318 
L 161.572202 161.091644 
L 163.308323 164.85814 
L 165.044443 167.025947 
L 166.780564 175.335414 
L 168.516684 170.821787 
L 170.252805 175.172793 
L 171.988926 173.680651 
L 173.725046 172.888984 
L 175.461167 159.011687 
L 177.197287 172.579959 
L 178.933408 168.870543 
L 180.669528 193.829435 
L 182.405649 164.886489 
L 184.14177 185.13985 
L 185.87789 171.465363 
L 187.614011 154.96696 
L 191.086252 185.951516 
L 192.822372 171.219689 
L 194.558493 168.402009 
L 196.294614 166.729343 
L 198.030734 185.740272 
L 199.766855 190.192672 
L 201.502975 184.268209 
L 203.239096 172.837763 
L 204.975216 185.812606 
L 206.711337 167.360548 
L 208.447457 174.772492 
L 210.183578 192.066924 
L 211.919699 158.461885 
L 213.655819 177.438518 
L 215.39194 169.046624 
L 217.12806 173.292435 
L 218.864181 182.697566 
L 220.600301 175.568114 
L 222.336422 172.011202 
L 224.072543 187.9042 
L 225.808663 166.333189 
L 227.544784 181.300972 
L 229.280904 165.106908 
L 231.017025 172.508157 
L 232.753145 185.497037 
L 234.489266 170.589399 
L 236.225386 158.007512 
L 237.961507 177.607807 
L 239.697628 207.849171 
L 241.433748 161.576828 
L 243.169869 182.062446 
L 244.905989 165.133289 
L 246.64211 195.488142 
L 248.37823 175.399082 
L 250.114351 209.296627 
L 251.850472 181.357161 
L 253.586592 174.269826 
L 255.322713 177.683992 
L 257.058833 162.072114 
L 258.794954 211.44271 
L 262.267195 176.976914 
L 264.003316 181.692795 
L 265.739436 173.367025 
L 267.475557 168.654167 
L 269.211677 164.323334 
L 270.947798 177.372155 
L 272.683918 169.416349 
L 274.420039 173.889695 
L 276.156159 163.597042 
L 277.89228 174.06662 
L 279.628401 169.432947 
L 281.364521 168.604343 
L 283.100642 165.186819 
L 284.836762 206.587607 
L 286.572883 158.689703 
L 288.309003 191.110497 
L 290.045124 175.347207 
L 291.781245 171.688471 
L 293.517365 186.140229 
L 295.253486 168.026124 
L 296.989606 184.59301 
L 300.461847 173.073607 
L 302.197968 179.325971 
L 303.934088 187.334707 
L 305.670209 183.594193 
L 307.40633 168.020035 
L 309.14245 197.798818 
L 310.878571 163.147007 
L 312.614691 180.359631 
L 314.350812 166.269253 
L 316.086932 261.216 
L 317.823053 178.800522 
L 319.559174 174.017755 
L 321.295294 173.78806 
L 323.031415 182.953536 
L 324.767535 171.430665 
L 326.503656 169.555162 
L 328.239776 171.151995 
L 329.975897 169.358937 
L 331.712018 169.31009 
L 333.448138 168.549606 
L 335.184259 166.646964 
L 336.920379 186.468739 
L 338.6565 155.382241 
L 340.39262 172.221993 
L 342.128741 178.684351 
L 343.864861 164.155149 
L 345.600982 175.427105 
L 347.337103 165.15283 
L 349.073223 162.150048 
L 350.809344 167.638727 
L 352.545464 154.964159 
L 354.281585 187.944617 
L 356.017705 161.542602 
L 357.753826 181.45284 
L 359.489947 170.169666 
L 361.226067 187.998479 
L 362.962188 165.631257 
L 364.698308 181.428719 
L 366.434429 175.70008 
L 368.170549 174.527665 
L 369.90667 161.596617 
L 371.64279 175.071343 
L 373.378911 185.132953 
L 375.115032 171.308246 
L 375.122067 311.86825 
L 375.122067 311.86825 
" style="fill:none;stroke:#1f77b4;stroke-linecap:square;stroke-width:1.5;"/>
    <defs>
     <path d="M 0 3 
C 0.795609 3 1.55874 2.683901 2.12132 2.12132 
C 2.683901 1.55874 3 0.795609 3 0 
C 3 -0.795609 2.683901 -1.55874 2.12132 -2.12132 
C 1.55874 -2.683901 0.795609 -3 0 -3 
C -0.795609 -3 -1.55874 -2.683901 -2.12132 -2.12132 
C -2.683901 -1.55874 -3 -0.795609 -3 0 
C -3 0.795609 -2.683901 1.55874 -2.12132 2.12132 
C -1.55874 2.683901 -0.795609 3 0 3 
z
" id="m86b9b450c9" style="stroke:#1f77b4;"/>
    </defs>
    <g clip-path="url(#pe61d75ec7b)">
     <use style="fill:#1f77b4;stroke:#1f77b4;" x="53.932727" xlink:href="#m86b9b450c9" y="19.296"/>
     <use style="fill:#1f77b4;stroke:#1f77b4;" x="55.668848" xlink:href="#m86b9b450c9" y="64.966047"/>
     <use style="fill:#1f77b4;stroke:#1f77b4;" x="57.404968" xlink:href="#m86b9b450c9" y="101.5962"/>
     <use style="fill:#1f77b4;stroke:#1f77b4;" x="59.141089" xlink:href="#m86b9b450c9" y="139.86548"/>
     <use style="fill:#1f77b4;stroke:#1f77b4;" x="60.87721" xlink:href="#m86b9b450c9" y="179.798642"/>
     <use style="fill:#1f77b4;stroke:#1f77b4;" x="62.61333" xlink:href="#m86b9b450c9" y="176.688834"/>
     <use style="fill:#1f77b4;stroke:#1f77b4;" x="64.349451" xlink:href="#m86b9b450c9" y="163.359278"/>
     <use style="fill:#1f77b4;stroke:#1f77b4;" x="66.085571" xlink:href="#m86b9b450c9" y="174.642077"/>
     <use style="fill:#1f77b4;stroke:#1f77b4;" x="67.821692" xlink:href="#m86b9b450c9" y="164.940596"/>
     <use style="fill:#1f77b4;stroke:#1f77b4;" x="69.557812" xlink:href="#m86b9b450c9" y="164.173336"/>
     <use style="fill:#1f77b4;stroke:#1f77b4;" x="71.293933" xlink:href="#m86b9b450c9" y="173.893685"/>
     <use style="fill:#1f77b4;stroke:#1f77b4;" x="73.030053" xlink:href="#m86b9b450c9" y="179.722817"/>
     <use style="fill:#1f77b4;stroke:#1f77b4;" x="74.766174" xlink:href="#m86b9b450c9" y="179.64431"/>
     <use style="fill:#1f77b4;stroke:#1f77b4;" x="76.502295" xlink:href="#m86b9b450c9" y="159.865604"/>
     <use style="fill:#1f77b4;stroke:#1f77b4;" x="78.238415" xlink:href="#m86b9b450c9" y="169.462084"/>
     <use style="fill:#1f77b4;stroke:#1f77b4;" x="79.974536" xlink:href="#m86b9b450c9" y="183.635157"/>
     <use style="fill:#1f77b4;stroke:#1f77b4;" x="81.710656" xlink:href="#m86b9b450c9" y="166.559735"/>
     <use style="fill:#1f77b4;stroke:#1f77b4;" x="83.446777" xlink:href="#m86b9b450c9" y="166.076205"/>
     <use style="fill:#1f77b4;stroke:#1f77b4;" x="85.182897" xlink:href="#m86b9b450c9" y="186.312026"/>
     <use style="fill:#1f77b4;stroke:#1f77b4;" x="86.919018" xlink:href="#m86b9b450c9" y="174.142446"/>
     <use style="fill:#1f77b4;stroke:#1f77b4;" x="88.655139" xlink:href="#m86b9b450c9" y="180.819085"/>
     <use style="fill:#1f77b4;stroke:#1f77b4;" x="90.391259" xlink:href="#m86b9b450c9" y="174.734677"/>
     <use style="fill:#1f77b4;stroke:#1f77b4;" x="92.12738" xlink:href="#m86b9b450c9" y="195.175432"/>
     <use style="fill:#1f77b4;stroke:#1f77b4;" x="93.8635" xlink:href="#m86b9b450c9" y="172.021638"/>
     <use style="fill:#1f77b4;stroke:#1f77b4;" x="95.599621" xlink:href="#m86b9b450c9" y="175.325483"/>
     <use style="fill:#1f77b4;stroke:#1f77b4;" x="97.335741" xlink:href="#m86b9b450c9" y="188.387743"/>
     <use style="fill:#1f77b4;stroke:#1f77b4;" x="99.071862" xlink:href="#m86b9b450c9" y="183.410562"/>
     <use style="fill:#1f77b4;stroke:#1f77b4;" x="100.807982" xlink:href="#m86b9b450c9" y="167.994949"/>
     <use style="fill:#1f77b4;stroke:#1f77b4;" x="102.544103" xlink:href="#m86b9b450c9" y="207.362049"/>
     <use style="fill:#1f77b4;stroke:#1f77b4;" x="104.280224" xlink:href="#m86b9b450c9" y="154.030707"/>
     <use style="fill:#1f77b4;stroke:#1f77b4;" x="106.016344" xlink:href="#m86b9b450c9" y="190.735615"/>
     <use style="fill:#1f77b4;stroke:#1f77b4;" x="107.752465" xlink:href="#m86b9b450c9" y="177.254856"/>
     <use style="fill:#1f77b4;stroke:#1f77b4;" x="109.488585" xlink:href="#m86b9b450c9" y="171.743115"/>
     <use style="fill:#1f77b4;stroke:#1f77b4;" x="111.224706" xlink:href="#m86b9b450c9" y="174.623004"/>
     <use style="fill:#1f77b4;stroke:#1f77b4;" x="112.960826" xlink:href="#m86b9b450c9" y="163.948994"/>
     <use style="fill:#1f77b4;stroke:#1f77b4;" x="114.696947" xlink:href="#m86b9b450c9" y="157.393175"/>
     <use style="fill:#1f77b4;stroke:#1f77b4;" x="116.433068" xlink:href="#m86b9b450c9" y="201.973402"/>
     <use style="fill:#1f77b4;stroke:#1f77b4;" x="118.169188" xlink:href="#m86b9b450c9" y="164.103784"/>
     <use style="fill:#1f77b4;stroke:#1f77b4;" x="119.905309" xlink:href="#m86b9b450c9" y="158.118768"/>
     <use style="fill:#1f77b4;stroke:#1f77b4;" x="121.641429" xlink:href="#m86b9b450c9" y="164.17195"/>
     <use style="fill:#1f77b4;stroke:#1f77b4;" x="123.37755" xlink:href="#m86b9b450c9" y="180.132782"/>
     <use style="fill:#1f77b4;stroke:#1f77b4;" x="125.11367" xlink:href="#m86b9b450c9" y="162.744995"/>
     <use style="fill:#1f77b4;stroke:#1f77b4;" x="126.849791" xlink:href="#m86b9b450c9" y="162.531713"/>
     <use style="fill:#1f77b4;stroke:#1f77b4;" x="128.585912" xlink:href="#m86b9b450c9" y="168.029564"/>
     <use style="fill:#1f77b4;stroke:#1f77b4;" x="130.322032" xlink:href="#m86b9b450c9" y="155.594351"/>
     <use style="fill:#1f77b4;stroke:#1f77b4;" x="132.058153" xlink:href="#m86b9b450c9" y="189.781172"/>
     <use style="fill:#1f77b4;stroke:#1f77b4;" x="133.794273" xlink:href="#m86b9b450c9" y="166.26576"/>
     <use style="fill:#1f77b4;stroke:#1f77b4;" x="135.530394" xlink:href="#m86b9b450c9" y="179.090506"/>
     <use style="fill:#1f77b4;stroke:#1f77b4;" x="137.266514" xlink:href="#m86b9b450c9" y="170.430698"/>
     <use style="fill:#1f77b4;stroke:#1f77b4;" x="139.002635" xlink:href="#m86b9b450c9" y="182.451219"/>
     <use style="fill:#1f77b4;stroke:#1f77b4;" x="140.738755" xlink:href="#m86b9b450c9" y="164.109707"/>
     <use style="fill:#1f77b4;stroke:#1f77b4;" x="142.474876" xlink:href="#m86b9b450c9" y="165.919315"/>
     <use style="fill:#1f77b4;stroke:#1f77b4;" x="144.210997" xlink:href="#m86b9b450c9" y="175.324983"/>
     <use style="fill:#1f77b4;stroke:#1f77b4;" x="145.947117" xlink:href="#m86b9b450c9" y="184.191598"/>
     <use style="fill:#1f77b4;stroke:#1f77b4;" x="147.683238" xlink:href="#m86b9b450c9" y="174.17385"/>
     <use style="fill:#1f77b4;stroke:#1f77b4;" x="149.419358" xlink:href="#m86b9b450c9" y="176.131179"/>
     <use style="fill:#1f77b4;stroke:#1f77b4;" x="151.155479" xlink:href="#m86b9b450c9" y="172.570804"/>
     <use style="fill:#1f77b4;stroke:#1f77b4;" x="152.891599" xlink:href="#m86b9b450c9" y="171.471597"/>
     <use style="fill:#1f77b4;stroke:#1f77b4;" x="154.62772" xlink:href="#m86b9b450c9" y="175.081507"/>
     <use style="fill:#1f77b4;stroke:#1f77b4;" x="156.363841" xlink:href="#m86b9b450c9" y="172.228752"/>
     <use style="fill:#1f77b4;stroke:#1f77b4;" x="158.099961" xlink:href="#m86b9b450c9" y="192.330743"/>
     <use style="fill:#1f77b4;stroke:#1f77b4;" x="159.836082" xlink:href="#m86b9b450c9" y="158.907318"/>
     <use style="fill:#1f77b4;stroke:#1f77b4;" x="161.572202" xlink:href="#m86b9b450c9" y="161.091644"/>
     <use style="fill:#1f77b4;stroke:#1f77b4;" x="163.308323" xlink:href="#m86b9b450c9" y="164.85814"/>
     <use style="fill:#1f77b4;stroke:#1f77b4;" x="165.044443" xlink:href="#m86b9b450c9" y="167.025947"/>
     <use style="fill:#1f77b4;stroke:#1f77b4;" x="166.780564" xlink:href="#m86b9b450c9" y="175.335414"/>
     <use style="fill:#1f77b4;stroke:#1f77b4;" x="168.516684" xlink:href="#m86b9b450c9" y="170.821787"/>
     <use style="fill:#1f77b4;stroke:#1f77b4;" x="170.252805" xlink:href="#m86b9b450c9" y="175.172793"/>
     <use style="fill:#1f77b4;stroke:#1f77b4;" x="171.988926" xlink:href="#m86b9b450c9" y="173.680651"/>
     <use style="fill:#1f77b4;stroke:#1f77b4;" x="173.725046" xlink:href="#m86b9b450c9" y="172.888984"/>
     <use style="fill:#1f77b4;stroke:#1f77b4;" x="175.461167" xlink:href="#m86b9b450c9" y="159.011687"/>
     <use style="fill:#1f77b4;stroke:#1f77b4;" x="177.197287" xlink:href="#m86b9b450c9" y="172.579959"/>
     <use style="fill:#1f77b4;stroke:#1f77b4;" x="178.933408" xlink:href="#m86b9b450c9" y="168.870543"/>
     <use style="fill:#1f77b4;stroke:#1f77b4;" x="180.669528" xlink:href="#m86b9b450c9" y="193.829435"/>
     <use style="fill:#1f77b4;stroke:#1f77b4;" x="182.405649" xlink:href="#m86b9b450c9" y="164.886489"/>
     <use style="fill:#1f77b4;stroke:#1f77b4;" x="184.14177" xlink:href="#m86b9b450c9" y="185.13985"/>
     <use style="fill:#1f77b4;stroke:#1f77b4;" x="185.87789" xlink:href="#m86b9b450c9" y="171.465363"/>
     <use style="fill:#1f77b4;stroke:#1f77b4;" x="187.614011" xlink:href="#m86b9b450c9" y="154.96696"/>
     <use style="fill:#1f77b4;stroke:#1f77b4;" x="189.350131" xlink:href="#m86b9b450c9" y="170.08924"/>
     <use style="fill:#1f77b4;stroke:#1f77b4;" x="191.086252" xlink:href="#m86b9b450c9" y="185.951516"/>
     <use style="fill:#1f77b4;stroke:#1f77b4;" x="192.822372" xlink:href="#m86b9b450c9" y="171.219689"/>
     <use style="fill:#1f77b4;stroke:#1f77b4;" x="194.558493" xlink:href="#m86b9b450c9" y="168.402009"/>
     <use style="fill:#1f77b4;stroke:#1f77b4;" x="196.294614" xlink:href="#m86b9b450c9" y="166.729343"/>
     <use style="fill:#1f77b4;stroke:#1f77b4;" x="198.030734" xlink:href="#m86b9b450c9" y="185.740272"/>
     <use style="fill:#1f77b4;stroke:#1f77b4;" x="199.766855" xlink:href="#m86b9b450c9" y="190.192672"/>
     <use style="fill:#1f77b4;stroke:#1f77b4;" x="201.502975" xlink:href="#m86b9b450c9" y="184.268209"/>
     <use style="fill:#1f77b4;stroke:#1f77b4;" x="203.239096" xlink:href="#m86b9b450c9" y="172.837763"/>
     <use style="fill:#1f77b4;stroke:#1f77b4;" x="204.975216" xlink:href="#m86b9b450c9" y="185.812606"/>
     <use style="fill:#1f77b4;stroke:#1f77b4;" x="206.711337" xlink:href="#m86b9b450c9" y="167.360548"/>
     <use style="fill:#1f77b4;stroke:#1f77b4;" x="208.447457" xlink:href="#m86b9b450c9" y="174.772492"/>
     <use style="fill:#1f77b4;stroke:#1f77b4;" x="210.183578" xlink:href="#m86b9b450c9" y="192.066924"/>
     <use style="fill:#1f77b4;stroke:#1f77b4;" x="211.919699" xlink:href="#m86b9b450c9" y="158.461885"/>
     <use style="fill:#1f77b4;stroke:#1f77b4;" x="213.655819" xlink:href="#m86b9b450c9" y="177.438518"/>
     <use style="fill:#1f77b4;stroke:#1f77b4;" x="215.39194" xlink:href="#m86b9b450c9" y="169.046624"/>
     <use style="fill:#1f77b4;stroke:#1f77b4;" x="217.12806" xlink:href="#m86b9b450c9" y="173.292435"/>
     <use style="fill:#1f77b4;stroke:#1f77b4;" x="218.864181" xlink:href="#m86b9b450c9" y="182.697566"/>
     <use style="fill:#1f77b4;stroke:#1f77b4;" x="220.600301" xlink:href="#m86b9b450c9" y="175.568114"/>
     <use style="fill:#1f77b4;stroke:#1f77b4;" x="222.336422" xlink:href="#m86b9b450c9" y="172.011202"/>
     <use style="fill:#1f77b4;stroke:#1f77b4;" x="224.072543" xlink:href="#m86b9b450c9" y="187.9042"/>
     <use style="fill:#1f77b4;stroke:#1f77b4;" x="225.808663" xlink:href="#m86b9b450c9" y="166.333189"/>
     <use style="fill:#1f77b4;stroke:#1f77b4;" x="227.544784" xlink:href="#m86b9b450c9" y="181.300972"/>
     <use style="fill:#1f77b4;stroke:#1f77b4;" x="229.280904" xlink:href="#m86b9b450c9" y="165.106908"/>
     <use style="fill:#1f77b4;stroke:#1f77b4;" x="231.017025" xlink:href="#m86b9b450c9" y="172.508157"/>
     <use style="fill:#1f77b4;stroke:#1f77b4;" x="232.753145" xlink:href="#m86b9b450c9" y="185.497037"/>
     <use style="fill:#1f77b4;stroke:#1f77b4;" x="234.489266" xlink:href="#m86b9b450c9" y="170.589399"/>
     <use style="fill:#1f77b4;stroke:#1f77b4;" x="236.225386" xlink:href="#m86b9b450c9" y="158.007512"/>
     <use style="fill:#1f77b4;stroke:#1f77b4;" x="237.961507" xlink:href="#m86b9b450c9" y="177.607807"/>
     <use style="fill:#1f77b4;stroke:#1f77b4;" x="239.697628" xlink:href="#m86b9b450c9" y="207.849171"/>
     <use style="fill:#1f77b4;stroke:#1f77b4;" x="241.433748" xlink:href="#m86b9b450c9" y="161.576828"/>
     <use style="fill:#1f77b4;stroke:#1f77b4;" x="243.169869" xlink:href="#m86b9b450c9" y="182.062446"/>
     <use style="fill:#1f77b4;stroke:#1f77b4;" x="244.905989" xlink:href="#m86b9b450c9" y="165.133289"/>
     <use style="fill:#1f77b4;stroke:#1f77b4;" x="246.64211" xlink:href="#m86b9b450c9" y="195.488142"/>
     <use style="fill:#1f77b4;stroke:#1f77b4;" x="248.37823" xlink:href="#m86b9b450c9" y="175.399082"/>
     <use style="fill:#1f77b4;stroke:#1f77b4;" x="250.114351" xlink:href="#m86b9b450c9" y="209.296627"/>
     <use style="fill:#1f77b4;stroke:#1f77b4;" x="251.850472" xlink:href="#m86b9b450c9" y="181.357161"/>
     <use style="fill:#1f77b4;stroke:#1f77b4;" x="253.586592" xlink:href="#m86b9b450c9" y="174.269826"/>
     <use style="fill:#1f77b4;stroke:#1f77b4;" x="255.322713" xlink:href="#m86b9b450c9" y="177.683992"/>
     <use style="fill:#1f77b4;stroke:#1f77b4;" x="257.058833" xlink:href="#m86b9b450c9" y="162.072114"/>
     <use style="fill:#1f77b4;stroke:#1f77b4;" x="258.794954" xlink:href="#m86b9b450c9" y="211.44271"/>
     <use style="fill:#1f77b4;stroke:#1f77b4;" x="260.531074" xlink:href="#m86b9b450c9" y="194.615115"/>
     <use style="fill:#1f77b4;stroke:#1f77b4;" x="262.267195" xlink:href="#m86b9b450c9" y="176.976914"/>
     <use style="fill:#1f77b4;stroke:#1f77b4;" x="264.003316" xlink:href="#m86b9b450c9" y="181.692795"/>
     <use style="fill:#1f77b4;stroke:#1f77b4;" x="265.739436" xlink:href="#m86b9b450c9" y="173.367025"/>
     <use style="fill:#1f77b4;stroke:#1f77b4;" x="267.475557" xlink:href="#m86b9b450c9" y="168.654167"/>
     <use style="fill:#1f77b4;stroke:#1f77b4;" x="269.211677" xlink:href="#m86b9b450c9" y="164.323334"/>
     <use style="fill:#1f77b4;stroke:#1f77b4;" x="270.947798" xlink:href="#m86b9b450c9" y="177.372155"/>
     <use style="fill:#1f77b4;stroke:#1f77b4;" x="272.683918" xlink:href="#m86b9b450c9" y="169.416349"/>
     <use style="fill:#1f77b4;stroke:#1f77b4;" x="274.420039" xlink:href="#m86b9b450c9" y="173.889695"/>
     <use style="fill:#1f77b4;stroke:#1f77b4;" x="276.156159" xlink:href="#m86b9b450c9" y="163.597042"/>
     <use style="fill:#1f77b4;stroke:#1f77b4;" x="277.89228" xlink:href="#m86b9b450c9" y="174.06662"/>
     <use style="fill:#1f77b4;stroke:#1f77b4;" x="279.628401" xlink:href="#m86b9b450c9" y="169.432947"/>
     <use style="fill:#1f77b4;stroke:#1f77b4;" x="281.364521" xlink:href="#m86b9b450c9" y="168.604343"/>
     <use style="fill:#1f77b4;stroke:#1f77b4;" x="283.100642" xlink:href="#m86b9b450c9" y="165.186819"/>
     <use style="fill:#1f77b4;stroke:#1f77b4;" x="284.836762" xlink:href="#m86b9b450c9" y="206.587607"/>
     <use style="fill:#1f77b4;stroke:#1f77b4;" x="286.572883" xlink:href="#m86b9b450c9" y="158.689703"/>
     <use style="fill:#1f77b4;stroke:#1f77b4;" x="288.309003" xlink:href="#m86b9b450c9" y="191.110497"/>
     <use style="fill:#1f77b4;stroke:#1f77b4;" x="290.045124" xlink:href="#m86b9b450c9" y="175.347207"/>
     <use style="fill:#1f77b4;stroke:#1f77b4;" x="291.781245" xlink:href="#m86b9b450c9" y="171.688471"/>
     <use style="fill:#1f77b4;stroke:#1f77b4;" x="293.517365" xlink:href="#m86b9b450c9" y="186.140229"/>
     <use style="fill:#1f77b4;stroke:#1f77b4;" x="295.253486" xlink:href="#m86b9b450c9" y="168.026124"/>
     <use style="fill:#1f77b4;stroke:#1f77b4;" x="296.989606" xlink:href="#m86b9b450c9" y="184.59301"/>
     <use style="fill:#1f77b4;stroke:#1f77b4;" x="298.725727" xlink:href="#m86b9b450c9" y="178.745099"/>
     <use style="fill:#1f77b4;stroke:#1f77b4;" x="300.461847" xlink:href="#m86b9b450c9" y="173.073607"/>
     <use style="fill:#1f77b4;stroke:#1f77b4;" x="302.197968" xlink:href="#m86b9b450c9" y="179.325971"/>
     <use style="fill:#1f77b4;stroke:#1f77b4;" x="303.934088" xlink:href="#m86b9b450c9" y="187.334707"/>
     <use style="fill:#1f77b4;stroke:#1f77b4;" x="305.670209" xlink:href="#m86b9b450c9" y="183.594193"/>
     <use style="fill:#1f77b4;stroke:#1f77b4;" x="307.40633" xlink:href="#m86b9b450c9" y="168.020035"/>
     <use style="fill:#1f77b4;stroke:#1f77b4;" x="309.14245" xlink:href="#m86b9b450c9" y="197.798818"/>
     <use style="fill:#1f77b4;stroke:#1f77b4;" x="310.878571" xlink:href="#m86b9b450c9" y="163.147007"/>
     <use style="fill:#1f77b4;stroke:#1f77b4;" x="312.614691" xlink:href="#m86b9b450c9" y="180.359631"/>
     <use style="fill:#1f77b4;stroke:#1f77b4;" x="314.350812" xlink:href="#m86b9b450c9" y="166.269253"/>
     <use style="fill:#1f77b4;stroke:#1f77b4;" x="316.086932" xlink:href="#m86b9b450c9" y="261.216"/>
     <use style="fill:#1f77b4;stroke:#1f77b4;" x="317.823053" xlink:href="#m86b9b450c9" y="178.800522"/>
     <use style="fill:#1f77b4;stroke:#1f77b4;" x="319.559174" xlink:href="#m86b9b450c9" y="174.017755"/>
     <use style="fill:#1f77b4;stroke:#1f77b4;" x="321.295294" xlink:href="#m86b9b450c9" y="173.78806"/>
     <use style="fill:#1f77b4;stroke:#1f77b4;" x="323.031415" xlink:href="#m86b9b450c9" y="182.953536"/>
     <use style="fill:#1f77b4;stroke:#1f77b4;" x="324.767535" xlink:href="#m86b9b450c9" y="171.430665"/>
     <use style="fill:#1f77b4;stroke:#1f77b4;" x="326.503656" xlink:href="#m86b9b450c9" y="169.555162"/>
     <use style="fill:#1f77b4;stroke:#1f77b4;" x="328.239776" xlink:href="#m86b9b450c9" y="171.151995"/>
     <use style="fill:#1f77b4;stroke:#1f77b4;" x="329.975897" xlink:href="#m86b9b450c9" y="169.358937"/>
     <use style="fill:#1f77b4;stroke:#1f77b4;" x="331.712018" xlink:href="#m86b9b450c9" y="169.31009"/>
     <use style="fill:#1f77b4;stroke:#1f77b4;" x="333.448138" xlink:href="#m86b9b450c9" y="168.549606"/>
     <use style="fill:#1f77b4;stroke:#1f77b4;" x="335.184259" xlink:href="#m86b9b450c9" y="166.646964"/>
     <use style="fill:#1f77b4;stroke:#1f77b4;" x="336.920379" xlink:href="#m86b9b450c9" y="186.468739"/>
     <use style="fill:#1f77b4;stroke:#1f77b4;" x="338.6565" xlink:href="#m86b9b450c9" y="155.382241"/>
     <use style="fill:#1f77b4;stroke:#1f77b4;" x="340.39262" xlink:href="#m86b9b450c9" y="172.221993"/>
     <use style="fill:#1f77b4;stroke:#1f77b4;" x="342.128741" xlink:href="#m86b9b450c9" y="178.684351"/>
     <use style="fill:#1f77b4;stroke:#1f77b4;" x="343.864861" xlink:href="#m86b9b450c9" y="164.155149"/>
     <use style="fill:#1f77b4;stroke:#1f77b4;" x="345.600982" xlink:href="#m86b9b450c9" y="175.427105"/>
     <use style="fill:#1f77b4;stroke:#1f77b4;" x="347.337103" xlink:href="#m86b9b450c9" y="165.15283"/>
     <use style="fill:#1f77b4;stroke:#1f77b4;" x="349.073223" xlink:href="#m86b9b450c9" y="162.150048"/>
     <use style="fill:#1f77b4;stroke:#1f77b4;" x="350.809344" xlink:href="#m86b9b450c9" y="167.638727"/>
     <use style="fill:#1f77b4;stroke:#1f77b4;" x="352.545464" xlink:href="#m86b9b450c9" y="154.964159"/>
     <use style="fill:#1f77b4;stroke:#1f77b4;" x="354.281585" xlink:href="#m86b9b450c9" y="187.944617"/>
     <use style="fill:#1f77b4;stroke:#1f77b4;" x="356.017705" xlink:href="#m86b9b450c9" y="161.542602"/>
     <use style="fill:#1f77b4;stroke:#1f77b4;" x="357.753826" xlink:href="#m86b9b450c9" y="181.45284"/>
     <use style="fill:#1f77b4;stroke:#1f77b4;" x="359.489947" xlink:href="#m86b9b450c9" y="170.169666"/>
     <use style="fill:#1f77b4;stroke:#1f77b4;" x="361.226067" xlink:href="#m86b9b450c9" y="187.998479"/>
     <use style="fill:#1f77b4;stroke:#1f77b4;" x="362.962188" xlink:href="#m86b9b450c9" y="165.631257"/>
     <use style="fill:#1f77b4;stroke:#1f77b4;" x="364.698308" xlink:href="#m86b9b450c9" y="181.428719"/>
     <use style="fill:#1f77b4;stroke:#1f77b4;" x="366.434429" xlink:href="#m86b9b450c9" y="175.70008"/>
     <use style="fill:#1f77b4;stroke:#1f77b4;" x="368.170549" xlink:href="#m86b9b450c9" y="174.527665"/>
     <use style="fill:#1f77b4;stroke:#1f77b4;" x="369.90667" xlink:href="#m86b9b450c9" y="161.596617"/>
     <use style="fill:#1f77b4;stroke:#1f77b4;" x="371.64279" xlink:href="#m86b9b450c9" y="175.071343"/>
     <use style="fill:#1f77b4;stroke:#1f77b4;" x="373.378911" xlink:href="#m86b9b450c9" y="185.132953"/>
     <use style="fill:#1f77b4;stroke:#1f77b4;" x="375.115032" xlink:href="#m86b9b450c9" y="171.308246"/>
     <use style="fill:#1f77b4;stroke:#1f77b4;" x="376.226773" xlink:href="#m86b9b450c9" y="22383.514"/>
    </g>
   </g>
   <g id="line2d_76">
    <path clip-path="url(#pe61d75ec7b)" d="M 53.932727 19.296 
L 55.668848 64.966047 
L 57.404968 101.5962 
L 59.141089 139.86548 
L 60.87721 179.798642 
" style="fill:none;stroke:#2ca02c;stroke-dasharray:1.5,2.475;stroke-dashoffset:0;stroke-width:1.5;"/>
    <defs>
     <path d="M -3 3 
L 3 -3 
M -3 -3 
L 3 3 
" id="mba852b1d6e" style="stroke:#2ca02c;"/>
    </defs>
    <g clip-path="url(#pe61d75ec7b)">
     <use style="fill:#2ca02c;stroke:#2ca02c;" x="53.932727" xlink:href="#mba852b1d6e" y="19.296"/>
     <use style="fill:#2ca02c;stroke:#2ca02c;" x="55.668848" xlink:href="#mba852b1d6e" y="64.966047"/>
     <use style="fill:#2ca02c;stroke:#2ca02c;" x="57.404968" xlink:href="#mba852b1d6e" y="101.5962"/>
     <use style="fill:#2ca02c;stroke:#2ca02c;" x="59.141089" xlink:href="#mba852b1d6e" y="139.86548"/>
     <use style="fill:#2ca02c;stroke:#2ca02c;" x="60.87721" xlink:href="#mba852b1d6e" y="179.798642"/>
    </g>
   </g>
   <g id="line2d_77">
    <path clip-path="url(#pe61d75ec7b)" d="M 55.668848 104.757753 
L 64.751053 311.86825 
L 64.751053 311.86825 
" style="fill:none;stroke:#000000;stroke-dasharray:5.55,2.4;stroke-dashoffset:0;stroke-width:1.5;"/>
   </g>
   <g id="patch_3">
    <path d="M 37.7 273.312 
L 37.7 7.2 
" style="fill:none;stroke:#000000;stroke-linecap:square;stroke-linejoin:miter;stroke-width:0.8;"/>
   </g>
   <g id="patch_4">
    <path d="M 394.82 273.312 
L 394.82 7.2 
" style="fill:none;stroke:#000000;stroke-linecap:square;stroke-linejoin:miter;stroke-width:0.8;"/>
   </g>
   <g id="patch_5">
    <path d="M 37.7 273.312 
L 394.82 273.312 
" style="fill:none;stroke:#000000;stroke-linecap:square;stroke-linejoin:miter;stroke-width:0.8;"/>
   </g>
   <g id="patch_6">
    <path d="M 37.7 7.2 
L 394.82 7.2 
" style="fill:none;stroke:#000000;stroke-linecap:square;stroke-linejoin:miter;stroke-width:0.8;"/>
   </g>
   <g id="legend_1">
    <g id="patch_7">
     <path d="M 292.734063 59.25625 
L 387.82 59.25625 
Q 389.82 59.25625 389.82 57.25625 
L 389.82 14.2 
Q 389.82 12.2 387.82 12.2 
L 292.734063 12.2 
Q 290.734063 12.2 290.734063 14.2 
L 290.734063 57.25625 
Q 290.734063 59.25625 292.734063 59.25625 
z
" style="fill:#ffffff;opacity:0.8;"/>
    </g>
    <g id="line2d_78">
     <path d="M 294.734063 20.298437 
L 314.734063 20.298437 
" style="fill:none;stroke:#1f77b4;stroke-linecap:square;stroke-width:1.5;"/>
    </g>
    <g id="line2d_79">
     <g>
      <use style="fill:#1f77b4;stroke:#1f77b4;" x="304.734063" xlink:href="#m86b9b450c9" y="20.298437"/>
     </g>
    </g>
    <g id="text_17">
     <!-- APD$_n$ - APD$_\infty$ -->
     <defs>
      <path d="M 34.1875 63.1875 
L 20.796875 26.90625 
L 47.609375 26.90625 
z
M 28.609375 72.90625 
L 39.796875 72.90625 
L 67.578125 0 
L 57.328125 0 
L 50.6875 18.703125 
L 17.828125 18.703125 
L 11.1875 0 
L 0.78125 0 
z
" id="DejaVuSans-65"/>
      <path d="M 19.671875 64.796875 
L 19.671875 37.40625 
L 32.078125 37.40625 
Q 38.96875 37.40625 42.71875 40.96875 
Q 46.484375 44.53125 46.484375 51.125 
Q 46.484375 57.671875 42.71875 61.234375 
Q 38.96875 64.796875 32.078125 64.796875 
z
M 9.8125 72.90625 
L 32.078125 72.90625 
Q 44.34375 72.90625 50.609375 67.359375 
Q 56.890625 61.8125 56.890625 51.125 
Q 56.890625 40.328125 50.609375 34.8125 
Q 44.34375 29.296875 32.078125 29.296875 
L 19.671875 29.296875 
L 19.671875 0 
L 9.8125 0 
z
" id="DejaVuSans-80"/>
      <path d="M 19.671875 64.796875 
L 19.671875 8.109375 
L 31.59375 8.109375 
Q 46.6875 8.109375 53.6875 14.9375 
Q 60.6875 21.78125 60.6875 36.53125 
Q 60.6875 51.171875 53.6875 57.984375 
Q 46.6875 64.796875 31.59375 64.796875 
z
M 9.8125 72.90625 
L 30.078125 72.90625 
Q 51.265625 72.90625 61.171875 64.09375 
Q 71.09375 55.28125 71.09375 36.53125 
Q 71.09375 17.671875 61.125 8.828125 
Q 51.171875 0 30.078125 0 
L 9.8125 0 
z
" id="DejaVuSans-68"/>
      <path d="M 55.71875 33.015625 
L 49.3125 0 
L 40.28125 0 
L 46.6875 32.671875 
Q 47.125 34.96875 47.359375 36.71875 
Q 47.609375 38.484375 47.609375 39.5 
Q 47.609375 43.609375 45.015625 45.890625 
Q 42.4375 48.1875 37.796875 48.1875 
Q 30.5625 48.1875 25.34375 43.375 
Q 20.125 38.578125 18.5 30.328125 
L 12.5 0 
L 3.515625 0 
L 14.109375 54.6875 
L 23.09375 54.6875 
L 21.296875 46.09375 
Q 25.046875 50.828125 30.3125 53.40625 
Q 35.59375 56 41.40625 56 
Q 48.640625 56 52.609375 52.09375 
Q 56.59375 48.1875 56.59375 41.109375 
Q 56.59375 39.359375 56.375 37.359375 
Q 56.15625 35.359375 55.71875 33.015625 
z
" id="DejaVuSans-Oblique-110"/>
      <path id="DejaVuSans-32"/>
      <path d="M 4.890625 31.390625 
L 31.203125 31.390625 
L 31.203125 23.390625 
L 4.890625 23.390625 
z
" id="DejaVuSans-45"/>
      <path d="M 45.5625 17.046875 
Q 44.046875 18.796875 41.65625 22.90625 
Q 38.375 17.046875 35.5 14.453125 
Q 31.890625 11.328125 26.265625 11.328125 
Q 19.671875 11.328125 15.328125 16.265625 
Q 10.75 21.4375 10.75 29.984375 
Q 10.75 38.1875 15.328125 43.75 
Q 19.4375 48.6875 26.375 48.6875 
Q 29.9375 48.6875 32.5625 47.21875 
Q 35.640625 45.609375 37.75 42.828125 
Q 39.703125 40.328125 41.65625 36.96875 
Q 44.921875 42.828125 47.796875 45.40625 
Q 51.421875 48.53125 57.03125 48.53125 
Q 63.625 48.53125 67.96875 43.609375 
Q 72.5625 38.421875 72.5625 29.890625 
Q 72.5625 21.6875 67.96875 16.109375 
Q 63.875 11.1875 56.9375 11.1875 
Q 53.375 11.1875 50.734375 12.640625 
Q 48.09375 13.96875 45.5625 17.046875 
z
M 25.734375 17.71875 
Q 33.796875 17.71875 38.625 29.4375 
Q 32.421875 42.234375 25.734375 42.234375 
Q 20.84375 42.234375 18.359375 38.71875 
Q 15.671875 34.96875 15.671875 29.984375 
Q 15.671875 24.515625 18.359375 21.140625 
Q 21.09375 17.71875 25.734375 17.71875 
z
M 57.5625 42.140625 
Q 50.296875 42.140625 44.671875 30.421875 
Q 50.828125 17.625 57.5625 17.625 
Q 62.453125 17.625 64.9375 21.140625 
Q 67.625 24.90625 67.625 29.890625 
Q 67.625 35.359375 64.9375 38.71875 
Q 62.203125 42.140625 57.5625 42.140625 
z
" id="DejaVuSans-8734"/>
     </defs>
     <g transform="translate(322.734063 23.798437)scale(0.1 -0.1)">
      <use transform="translate(0 0.09375)" xlink:href="#DejaVuSans-65"/>
      <use transform="translate(68.408203 0.09375)" xlink:href="#DejaVuSans-80"/>
      <use transform="translate(128.710938 0.09375)" xlink:href="#DejaVuSans-68"/>
      <use transform="translate(206.669922 -16.3125)scale(0.7)" xlink:href="#DejaVuSans-Oblique-110"/>
      <use transform="translate(253.769531 0.09375)" xlink:href="#DejaVuSans-32"/>
      <use transform="translate(285.556641 0.09375)" xlink:href="#DejaVuSans-45"/>
      <use transform="translate(321.640625 0.09375)" xlink:href="#DejaVuSans-32"/>
      <use transform="translate(353.427734 0.09375)" xlink:href="#DejaVuSans-65"/>
      <use transform="translate(421.835938 0.09375)" xlink:href="#DejaVuSans-80"/>
      <use transform="translate(482.138672 0.09375)" xlink:href="#DejaVuSans-68"/>
      <use transform="translate(560.097656 -16.3125)scale(0.7)" xlink:href="#DejaVuSans-8734"/>
     </g>
    </g>
    <g id="line2d_80">
     <path d="M 294.734063 34.976562 
L 314.734063 34.976562 
" style="fill:none;stroke:#2ca02c;stroke-dasharray:1.5,2.475;stroke-dashoffset:0;stroke-width:1.5;"/>
    </g>
    <g id="line2d_81">
     <g>
      <use style="fill:#2ca02c;stroke:#2ca02c;" x="304.734063" xlink:href="#mba852b1d6e" y="34.976562"/>
     </g>
    </g>
    <g id="text_18">
     <!-- linear region -->
     <defs>
      <path d="M 9.421875 75.984375 
L 18.40625 75.984375 
L 18.40625 0 
L 9.421875 0 
z
" id="DejaVuSans-108"/>
      <path d="M 9.421875 54.6875 
L 18.40625 54.6875 
L 18.40625 0 
L 9.421875 0 
z
M 9.421875 75.984375 
L 18.40625 75.984375 
L 18.40625 64.59375 
L 9.421875 64.59375 
z
" id="DejaVuSans-105"/>
      <path d="M 54.890625 33.015625 
L 54.890625 0 
L 45.90625 0 
L 45.90625 32.71875 
Q 45.90625 40.484375 42.875 44.328125 
Q 39.84375 48.1875 33.796875 48.1875 
Q 26.515625 48.1875 22.3125 43.546875 
Q 18.109375 38.921875 18.109375 30.90625 
L 18.109375 0 
L 9.078125 0 
L 9.078125 54.6875 
L 18.109375 54.6875 
L 18.109375 46.1875 
Q 21.34375 51.125 25.703125 53.5625 
Q 30.078125 56 35.796875 56 
Q 45.21875 56 50.046875 50.171875 
Q 54.890625 44.34375 54.890625 33.015625 
z
" id="DejaVuSans-110"/>
      <path d="M 56.203125 29.59375 
L 56.203125 25.203125 
L 14.890625 25.203125 
Q 15.484375 15.921875 20.484375 11.0625 
Q 25.484375 6.203125 34.421875 6.203125 
Q 39.59375 6.203125 44.453125 7.46875 
Q 49.3125 8.734375 54.109375 11.28125 
L 54.109375 2.78125 
Q 49.265625 0.734375 44.1875 -0.34375 
Q 39.109375 -1.421875 33.890625 -1.421875 
Q 20.796875 -1.421875 13.15625 6.1875 
Q 5.515625 13.8125 5.515625 26.8125 
Q 5.515625 40.234375 12.765625 48.109375 
Q 20.015625 56 32.328125 56 
Q 43.359375 56 49.78125 48.890625 
Q 56.203125 41.796875 56.203125 29.59375 
z
M 47.21875 32.234375 
Q 47.125 39.59375 43.09375 43.984375 
Q 39.0625 48.390625 32.421875 48.390625 
Q 24.90625 48.390625 20.390625 44.140625 
Q 15.875 39.890625 15.1875 32.171875 
z
" id="DejaVuSans-101"/>
      <path d="M 34.28125 27.484375 
Q 23.390625 27.484375 19.1875 25 
Q 14.984375 22.515625 14.984375 16.5 
Q 14.984375 11.71875 18.140625 8.90625 
Q 21.296875 6.109375 26.703125 6.109375 
Q 34.1875 6.109375 38.703125 11.40625 
Q 43.21875 16.703125 43.21875 25.484375 
L 43.21875 27.484375 
z
M 52.203125 31.203125 
L 52.203125 0 
L 43.21875 0 
L 43.21875 8.296875 
Q 40.140625 3.328125 35.546875 0.953125 
Q 30.953125 -1.421875 24.3125 -1.421875 
Q 15.921875 -1.421875 10.953125 3.296875 
Q 6 8.015625 6 15.921875 
Q 6 25.140625 12.171875 29.828125 
Q 18.359375 34.515625 30.609375 34.515625 
L 43.21875 34.515625 
L 43.21875 35.40625 
Q 43.21875 41.609375 39.140625 45 
Q 35.0625 48.390625 27.6875 48.390625 
Q 23 48.390625 18.546875 47.265625 
Q 14.109375 46.140625 10.015625 43.890625 
L 10.015625 52.203125 
Q 14.9375 54.109375 19.578125 55.046875 
Q 24.21875 56 28.609375 56 
Q 40.484375 56 46.34375 49.84375 
Q 52.203125 43.703125 52.203125 31.203125 
z
" id="DejaVuSans-97"/>
      <path d="M 41.109375 46.296875 
Q 39.59375 47.171875 37.8125 47.578125 
Q 36.03125 48 33.890625 48 
Q 26.265625 48 22.1875 43.046875 
Q 18.109375 38.09375 18.109375 28.8125 
L 18.109375 0 
L 9.078125 0 
L 9.078125 54.6875 
L 18.109375 54.6875 
L 18.109375 46.1875 
Q 20.953125 51.171875 25.484375 53.578125 
Q 30.03125 56 36.53125 56 
Q 37.453125 56 38.578125 55.875 
Q 39.703125 55.765625 41.0625 55.515625 
z
" id="DejaVuSans-114"/>
      <path d="M 45.40625 27.984375 
Q 45.40625 37.75 41.375 43.109375 
Q 37.359375 48.484375 30.078125 48.484375 
Q 22.859375 48.484375 18.828125 43.109375 
Q 14.796875 37.75 14.796875 27.984375 
Q 14.796875 18.265625 18.828125 12.890625 
Q 22.859375 7.515625 30.078125 7.515625 
Q 37.359375 7.515625 41.375 12.890625 
Q 45.40625 18.265625 45.40625 27.984375 
z
M 54.390625 6.78125 
Q 54.390625 -7.171875 48.1875 -13.984375 
Q 42 -20.796875 29.203125 -20.796875 
Q 24.46875 -20.796875 20.265625 -20.09375 
Q 16.0625 -19.390625 12.109375 -17.921875 
L 12.109375 -9.1875 
Q 16.0625 -11.328125 19.921875 -12.34375 
Q 23.78125 -13.375 27.78125 -13.375 
Q 36.625 -13.375 41.015625 -8.765625 
Q 45.40625 -4.15625 45.40625 5.171875 
L 45.40625 9.625 
Q 42.625 4.78125 38.28125 2.390625 
Q 33.9375 0 27.875 0 
Q 17.828125 0 11.671875 7.65625 
Q 5.515625 15.328125 5.515625 27.984375 
Q 5.515625 40.671875 11.671875 48.328125 
Q 17.828125 56 27.875 56 
Q 33.9375 56 38.28125 53.609375 
Q 42.625 51.21875 45.40625 46.390625 
L 45.40625 54.6875 
L 54.390625 54.6875 
z
" id="DejaVuSans-103"/>
      <path d="M 30.609375 48.390625 
Q 23.390625 48.390625 19.1875 42.75 
Q 14.984375 37.109375 14.984375 27.296875 
Q 14.984375 17.484375 19.15625 11.84375 
Q 23.34375 6.203125 30.609375 6.203125 
Q 37.796875 6.203125 41.984375 11.859375 
Q 46.1875 17.53125 46.1875 27.296875 
Q 46.1875 37.015625 41.984375 42.703125 
Q 37.796875 48.390625 30.609375 48.390625 
z
M 30.609375 56 
Q 42.328125 56 49.015625 48.375 
Q 55.71875 40.765625 55.71875 27.296875 
Q 55.71875 13.875 49.015625 6.21875 
Q 42.328125 -1.421875 30.609375 -1.421875 
Q 18.84375 -1.421875 12.171875 6.21875 
Q 5.515625 13.875 5.515625 27.296875 
Q 5.515625 40.765625 12.171875 48.375 
Q 18.84375 56 30.609375 56 
z
" id="DejaVuSans-111"/>
     </defs>
     <g transform="translate(322.734063 38.476562)scale(0.1 -0.1)">
      <use xlink:href="#DejaVuSans-108"/>
      <use x="27.783203" xlink:href="#DejaVuSans-105"/>
      <use x="55.566406" xlink:href="#DejaVuSans-110"/>
      <use x="118.945312" xlink:href="#DejaVuSans-101"/>
      <use x="180.46875" xlink:href="#DejaVuSans-97"/>
      <use x="241.748047" xlink:href="#DejaVuSans-114"/>
      <use x="282.861328" xlink:href="#DejaVuSans-32"/>
      <use x="314.648438" xlink:href="#DejaVuSans-114"/>
      <use x="353.511719" xlink:href="#DejaVuSans-101"/>
      <use x="415.035156" xlink:href="#DejaVuSans-103"/>
      <use x="478.511719" xlink:href="#DejaVuSans-105"/>
      <use x="506.294922" xlink:href="#DejaVuSans-111"/>
      <use x="567.476562" xlink:href="#DejaVuSans-110"/>
     </g>
    </g>
    <g id="line2d_82">
     <path d="M 294.734063 49.65625 
L 314.734063 49.65625 
" style="fill:none;stroke:#000000;stroke-dasharray:5.55,2.4;stroke-dashoffset:0;stroke-width:1.5;"/>
    </g>
    <g id="line2d_83"/>
    <g id="text_19">
     <!-- $ \exp(-2.62 k)$ -->
     <defs>
      <path d="M 54.890625 54.6875 
L 35.109375 28.078125 
L 55.90625 0 
L 45.3125 0 
L 29.390625 21.484375 
L 13.484375 0 
L 2.875 0 
L 24.125 28.609375 
L 4.6875 54.6875 
L 15.28125 54.6875 
L 29.78125 35.203125 
L 44.28125 54.6875 
z
" id="DejaVuSans-120"/>
      <path d="M 18.109375 8.203125 
L 18.109375 -20.796875 
L 9.078125 -20.796875 
L 9.078125 54.6875 
L 18.109375 54.6875 
L 18.109375 46.390625 
Q 20.953125 51.265625 25.265625 53.625 
Q 29.59375 56 35.59375 56 
Q 45.5625 56 51.78125 48.09375 
Q 58.015625 40.1875 58.015625 27.296875 
Q 58.015625 14.40625 51.78125 6.484375 
Q 45.5625 -1.421875 35.59375 -1.421875 
Q 29.59375 -1.421875 25.265625 0.953125 
Q 20.953125 3.328125 18.109375 8.203125 
z
M 48.6875 27.296875 
Q 48.6875 37.203125 44.609375 42.84375 
Q 40.53125 48.484375 33.40625 48.484375 
Q 26.265625 48.484375 22.1875 42.84375 
Q 18.109375 37.203125 18.109375 27.296875 
Q 18.109375 17.390625 22.1875 11.75 
Q 26.265625 6.109375 33.40625 6.109375 
Q 40.53125 6.109375 44.609375 11.75 
Q 48.6875 17.390625 48.6875 27.296875 
z
" id="DejaVuSans-112"/>
      <path d="M 31 75.875 
Q 24.46875 64.65625 21.28125 53.65625 
Q 18.109375 42.671875 18.109375 31.390625 
Q 18.109375 20.125 21.3125 9.0625 
Q 24.515625 -2 31 -13.1875 
L 23.1875 -13.1875 
Q 15.875 -1.703125 12.234375 9.375 
Q 8.59375 20.453125 8.59375 31.390625 
Q 8.59375 42.28125 12.203125 53.3125 
Q 15.828125 64.359375 23.1875 75.875 
z
" id="DejaVuSans-40"/>
      <path d="M 10.6875 12.40625 
L 21 12.40625 
L 21 0 
L 10.6875 0 
z
" id="DejaVuSans-46"/>
      <path d="M 33.015625 40.375 
Q 26.375 40.375 22.484375 35.828125 
Q 18.609375 31.296875 18.609375 23.390625 
Q 18.609375 15.53125 22.484375 10.953125 
Q 26.375 6.390625 33.015625 6.390625 
Q 39.65625 6.390625 43.53125 10.953125 
Q 47.40625 15.53125 47.40625 23.390625 
Q 47.40625 31.296875 43.53125 35.828125 
Q 39.65625 40.375 33.015625 40.375 
z
M 52.59375 71.296875 
L 52.59375 62.3125 
Q 48.875 64.0625 45.09375 64.984375 
Q 41.3125 65.921875 37.59375 65.921875 
Q 27.828125 65.921875 22.671875 59.328125 
Q 17.53125 52.734375 16.796875 39.40625 
Q 19.671875 43.65625 24.015625 45.921875 
Q 28.375 48.1875 33.59375 48.1875 
Q 44.578125 48.1875 50.953125 41.515625 
Q 57.328125 34.859375 57.328125 23.390625 
Q 57.328125 12.15625 50.6875 5.359375 
Q 44.046875 -1.421875 33.015625 -1.421875 
Q 20.359375 -1.421875 13.671875 8.265625 
Q 6.984375 17.96875 6.984375 36.375 
Q 6.984375 53.65625 15.1875 63.9375 
Q 23.390625 74.21875 37.203125 74.21875 
Q 40.921875 74.21875 44.703125 73.484375 
Q 48.484375 72.75 52.59375 71.296875 
z
" id="DejaVuSans-54"/>
      <path d="M 8.015625 75.875 
L 15.828125 75.875 
Q 23.140625 64.359375 26.78125 53.3125 
Q 30.421875 42.28125 30.421875 31.390625 
Q 30.421875 20.453125 26.78125 9.375 
Q 23.140625 -1.703125 15.828125 -13.1875 
L 8.015625 -13.1875 
Q 14.5 -2 17.703125 9.0625 
Q 20.90625 20.125 20.90625 31.390625 
Q 20.90625 42.671875 17.703125 53.65625 
Q 14.5 64.65625 8.015625 75.875 
z
" id="DejaVuSans-41"/>
     </defs>
     <g transform="translate(322.734063 53.15625)scale(0.1 -0.1)">
      <use transform="translate(0 0.015625)" xlink:href="#DejaVuSans-101"/>
      <use transform="translate(61.523438 0.015625)" xlink:href="#DejaVuSans-120"/>
      <use transform="translate(120.703125 0.015625)" xlink:href="#DejaVuSans-112"/>
      <use transform="translate(184.179688 0.015625)" xlink:href="#DejaVuSans-40"/>
      <use transform="translate(223.193359 0.015625)" xlink:href="#DejaVuSans-8722"/>
      <use transform="translate(306.982422 0.015625)" xlink:href="#DejaVuSans-50"/>
      <use transform="translate(370.605469 0.015625)" xlink:href="#DejaVuSans-46"/>
      <use transform="translate(402.392578 0.015625)" xlink:href="#DejaVuSans-54"/>
      <use transform="translate(466.015625 0.015625)" xlink:href="#DejaVuSans-50"/>
      <use transform="translate(529.638672 0.015625)" xlink:href="#DejaVuSans-Oblique-107"/>
      <use transform="translate(587.548828 0.015625)" xlink:href="#DejaVuSans-41"/>
     </g>
    </g>
   </g>
  </g>
 </g>
 <defs>
  <clipPath id="pe61d75ec7b">
   <rect height="266.112" width="357.12" x="37.7" y="7.2"/>
  </clipPath>
 </defs>
</svg>
