<?xml version="1.0" encoding="utf-8" standalone="no"?>
<!DOCTYPE svg PUBLIC "-//W3C//DTD SVG 1.1//EN"
  "http://www.w3.org/Graphics/SVG/1.1/DTD/svg11.dtd">
<!-- Created with matplotlib (https://matplotlib.org/) -->
<svg height="310.86825pt" version="1.1" viewBox="0 0 402.02 310.86825" width="402.02pt" xmlns="http://www.w3.org/2000/svg" xmlns:xlink="http://www.w3.org/1999/xlink">
 <defs>
  <style type="text/css">
*{stroke-linecap:butt;stroke-linejoin:round;}
  </style>
 </defs>
 <g id="figure_1">
  <g id="patch_1">
   <path d="M 0 310.86825 
L 402.02 310.86825 
L 402.02 0 
L 0 0 
z
" style="fill:#ffffff;"/>
  </g>
  <g id="axes_1">
   <g id="patch_2">
    <path d="M 37.7 273.312 
L 394.82 273.312 
L 394.82 7.2 
L 37.7 7.2 
z
" style="fill:#ffffff;"/>
   </g>
   <g id="matplotlib.axis_1">
    <g id="xtick_1">
     <g id="line2d_1">
      <defs>
       <path d="M 0 0 
L 0 3.5 
" id="mbf0c3f7abd" style="stroke:#000000;stroke-width:0.8;"/>
      </defs>
      <g>
       <use style="stroke:#000000;stroke-width:0.8;" x="53.932727" xlink:href="#mbf0c3f7abd" y="273.312"/>
      </g>
     </g>
     <g id="text_1">
      <!-- 0 -->
      <defs>
       <path d="M 31.78125 66.40625 
Q 24.171875 66.40625 20.328125 58.90625 
Q 16.5 51.421875 16.5 36.375 
Q 16.5 21.390625 20.328125 13.890625 
Q 24.171875 6.390625 31.78125 6.390625 
Q 39.453125 6.390625 43.28125 13.890625 
Q 47.125 21.390625 47.125 36.375 
Q 47.125 51.421875 43.28125 58.90625 
Q 39.453125 66.40625 31.78125 66.40625 
z
M 31.78125 74.21875 
Q 44.046875 74.21875 50.515625 64.515625 
Q 56.984375 54.828125 56.984375 36.375 
Q 56.984375 17.96875 50.515625 8.265625 
Q 44.046875 -1.421875 31.78125 -1.421875 
Q 19.53125 -1.421875 13.0625 8.265625 
Q 6.59375 17.96875 6.59375 36.375 
Q 6.59375 54.828125 13.0625 64.515625 
Q 19.53125 74.21875 31.78125 74.21875 
z
" id="DejaVuSans-48"/>
      </defs>
      <g transform="translate(50.751477 287.910437)scale(0.1 -0.1)">
       <use xlink:href="#DejaVuSans-48"/>
      </g>
     </g>
    </g>
    <g id="xtick_2">
     <g id="line2d_2">
      <g>
       <use style="stroke:#000000;stroke-width:0.8;" x="131.787534" xlink:href="#mbf0c3f7abd" y="273.312"/>
      </g>
     </g>
     <g id="text_2">
      <!-- 100 -->
      <defs>
       <path d="M 12.40625 8.296875 
L 28.515625 8.296875 
L 28.515625 63.921875 
L 10.984375 60.40625 
L 10.984375 69.390625 
L 28.421875 72.90625 
L 38.28125 72.90625 
L 38.28125 8.296875 
L 54.390625 8.296875 
L 54.390625 0 
L 12.40625 0 
z
" id="DejaVuSans-49"/>
      </defs>
      <g transform="translate(122.243784 287.910437)scale(0.1 -0.1)">
       <use xlink:href="#DejaVuSans-49"/>
       <use x="63.623047" xlink:href="#DejaVuSans-48"/>
       <use x="127.246094" xlink:href="#DejaVuSans-48"/>
      </g>
     </g>
    </g>
    <g id="xtick_3">
     <g id="line2d_3">
      <g>
       <use style="stroke:#000000;stroke-width:0.8;" x="209.642341" xlink:href="#mbf0c3f7abd" y="273.312"/>
      </g>
     </g>
     <g id="text_3">
      <!-- 200 -->
      <defs>
       <path d="M 19.1875 8.296875 
L 53.609375 8.296875 
L 53.609375 0 
L 7.328125 0 
L 7.328125 8.296875 
Q 12.9375 14.109375 22.625 23.890625 
Q 32.328125 33.6875 34.8125 36.53125 
Q 39.546875 41.84375 41.421875 45.53125 
Q 43.3125 49.21875 43.3125 52.78125 
Q 43.3125 58.59375 39.234375 62.25 
Q 35.15625 65.921875 28.609375 65.921875 
Q 23.96875 65.921875 18.8125 64.3125 
Q 13.671875 62.703125 7.8125 59.421875 
L 7.8125 69.390625 
Q 13.765625 71.78125 18.9375 73 
Q 24.125 74.21875 28.421875 74.21875 
Q 39.75 74.21875 46.484375 68.546875 
Q 53.21875 62.890625 53.21875 53.421875 
Q 53.21875 48.921875 51.53125 44.890625 
Q 49.859375 40.875 45.40625 35.40625 
Q 44.1875 33.984375 37.640625 27.21875 
Q 31.109375 20.453125 19.1875 8.296875 
z
" id="DejaVuSans-50"/>
      </defs>
      <g transform="translate(200.098591 287.910437)scale(0.1 -0.1)">
       <use xlink:href="#DejaVuSans-50"/>
       <use x="63.623047" xlink:href="#DejaVuSans-48"/>
       <use x="127.246094" xlink:href="#DejaVuSans-48"/>
      </g>
     </g>
    </g>
    <g id="xtick_4">
     <g id="line2d_4">
      <g>
       <use style="stroke:#000000;stroke-width:0.8;" x="287.497148" xlink:href="#mbf0c3f7abd" y="273.312"/>
      </g>
     </g>
     <g id="text_4">
      <!-- 300 -->
      <defs>
       <path d="M 40.578125 39.3125 
Q 47.65625 37.796875 51.625 33 
Q 55.609375 28.21875 55.609375 21.1875 
Q 55.609375 10.40625 48.1875 4.484375 
Q 40.765625 -1.421875 27.09375 -1.421875 
Q 22.515625 -1.421875 17.65625 -0.515625 
Q 12.796875 0.390625 7.625 2.203125 
L 7.625 11.71875 
Q 11.71875 9.328125 16.59375 8.109375 
Q 21.484375 6.890625 26.8125 6.890625 
Q 36.078125 6.890625 40.9375 10.546875 
Q 45.796875 14.203125 45.796875 21.1875 
Q 45.796875 27.640625 41.28125 31.265625 
Q 36.765625 34.90625 28.71875 34.90625 
L 20.21875 34.90625 
L 20.21875 43.015625 
L 29.109375 43.015625 
Q 36.375 43.015625 40.234375 45.921875 
Q 44.09375 48.828125 44.09375 54.296875 
Q 44.09375 59.90625 40.109375 62.90625 
Q 36.140625 65.921875 28.71875 65.921875 
Q 24.65625 65.921875 20.015625 65.03125 
Q 15.375 64.15625 9.8125 62.3125 
L 9.8125 71.09375 
Q 15.4375 72.65625 20.34375 73.4375 
Q 25.25 74.21875 29.59375 74.21875 
Q 40.828125 74.21875 47.359375 69.109375 
Q 53.90625 64.015625 53.90625 55.328125 
Q 53.90625 49.265625 50.4375 45.09375 
Q 46.96875 40.921875 40.578125 39.3125 
z
" id="DejaVuSans-51"/>
      </defs>
      <g transform="translate(277.953398 287.910437)scale(0.1 -0.1)">
       <use xlink:href="#DejaVuSans-51"/>
       <use x="63.623047" xlink:href="#DejaVuSans-48"/>
       <use x="127.246094" xlink:href="#DejaVuSans-48"/>
      </g>
     </g>
    </g>
    <g id="xtick_5">
     <g id="line2d_5">
      <g>
       <use style="stroke:#000000;stroke-width:0.8;" x="365.351956" xlink:href="#mbf0c3f7abd" y="273.312"/>
      </g>
     </g>
     <g id="text_5">
      <!-- 400 -->
      <defs>
       <path d="M 37.796875 64.3125 
L 12.890625 25.390625 
L 37.796875 25.390625 
z
M 35.203125 72.90625 
L 47.609375 72.90625 
L 47.609375 25.390625 
L 58.015625 25.390625 
L 58.015625 17.1875 
L 47.609375 17.1875 
L 47.609375 0 
L 37.796875 0 
L 37.796875 17.1875 
L 4.890625 17.1875 
L 4.890625 26.703125 
z
" id="DejaVuSans-52"/>
      </defs>
      <g transform="translate(355.808206 287.910437)scale(0.1 -0.1)">
       <use xlink:href="#DejaVuSans-52"/>
       <use x="63.623047" xlink:href="#DejaVuSans-48"/>
       <use x="127.246094" xlink:href="#DejaVuSans-48"/>
      </g>
     </g>
    </g>
    <g id="text_6">
     <!-- $ k $ -->
     <defs>
      <path d="M 18.3125 75.984375 
L 27.296875 75.984375 
L 18.703125 31.6875 
L 49.515625 54.6875 
L 61.1875 54.6875 
L 26.8125 28.515625 
L 51.90625 0 
L 41.015625 0 
L 17.671875 26.703125 
L 12.5 0 
L 3.515625 0 
z
" id="DejaVuSans-Oblique-107"/>
     </defs>
     <g transform="translate(213.36 301.588562)scale(0.1 -0.1)">
      <use transform="translate(0 0.015625)" xlink:href="#DejaVuSans-Oblique-107"/>
     </g>
    </g>
   </g>
   <g id="matplotlib.axis_2">
    <g id="ytick_1">
     <g id="line2d_6">
      <defs>
       <path d="M 0 0 
L -3.5 0 
" id="m3a4689bb88" style="stroke:#000000;stroke-width:0.8;"/>
      </defs>
      <g>
       <use style="stroke:#000000;stroke-width:0.8;" x="37.7" xlink:href="#m3a4689bb88" y="250.824587"/>
      </g>
     </g>
     <g id="text_7">
      <!-- $\mathdefault{10^{-1}}$ -->
      <defs>
       <path d="M 10.59375 35.5 
L 73.1875 35.5 
L 73.1875 27.203125 
L 10.59375 27.203125 
z
" id="DejaVuSans-8722"/>
      </defs>
      <g transform="translate(7.2 254.623806)scale(0.1 -0.1)">
       <use transform="translate(0 0.684375)" xlink:href="#DejaVuSans-49"/>
       <use transform="translate(63.623047 0.684375)" xlink:href="#DejaVuSans-48"/>
       <use transform="translate(128.203125 38.965625)scale(0.7)" xlink:href="#DejaVuSans-8722"/>
       <use transform="translate(186.855469 38.965625)scale(0.7)" xlink:href="#DejaVuSans-49"/>
      </g>
     </g>
    </g>
    <g id="ytick_2">
     <g id="line2d_7">
      <g>
       <use style="stroke:#000000;stroke-width:0.8;" x="37.7" xlink:href="#m3a4689bb88" y="181.560179"/>
      </g>
     </g>
     <g id="text_8">
      <!-- $\mathdefault{10^{0}}$ -->
      <g transform="translate(13.1 185.359398)scale(0.1 -0.1)">
       <use transform="translate(0 0.765625)" xlink:href="#DejaVuSans-49"/>
       <use transform="translate(63.623047 0.765625)" xlink:href="#DejaVuSans-48"/>
       <use transform="translate(128.203125 39.046875)scale(0.7)" xlink:href="#DejaVuSans-48"/>
      </g>
     </g>
    </g>
    <g id="ytick_3">
     <g id="line2d_8">
      <g>
       <use style="stroke:#000000;stroke-width:0.8;" x="37.7" xlink:href="#m3a4689bb88" y="112.295772"/>
      </g>
     </g>
     <g id="text_9">
      <!-- $\mathdefault{10^{1}}$ -->
      <g transform="translate(13.1 116.094991)scale(0.1 -0.1)">
       <use transform="translate(0 0.684375)" xlink:href="#DejaVuSans-49"/>
       <use transform="translate(63.623047 0.684375)" xlink:href="#DejaVuSans-48"/>
       <use transform="translate(128.203125 38.965625)scale(0.7)" xlink:href="#DejaVuSans-49"/>
      </g>
     </g>
    </g>
    <g id="ytick_4">
     <g id="line2d_9">
      <g>
       <use style="stroke:#000000;stroke-width:0.8;" x="37.7" xlink:href="#m3a4689bb88" y="43.031365"/>
      </g>
     </g>
     <g id="text_10">
      <!-- $\mathdefault{10^{2}}$ -->
      <g transform="translate(13.1 46.830584)scale(0.1 -0.1)">
       <use transform="translate(0 0.765625)" xlink:href="#DejaVuSans-49"/>
       <use transform="translate(63.623047 0.765625)" xlink:href="#DejaVuSans-48"/>
       <use transform="translate(128.203125 39.046875)scale(0.7)" xlink:href="#DejaVuSans-50"/>
      </g>
     </g>
    </g>
    <g id="ytick_5">
     <g id="line2d_10">
      <defs>
       <path d="M 0 0 
L -2 0 
" id="mb0c5888873" style="stroke:#000000;stroke-width:0.6;"/>
      </defs>
      <g>
       <use style="stroke:#000000;stroke-width:0.6;" x="37.7" xlink:href="#mb0c5888873" y="271.675251"/>
      </g>
     </g>
    </g>
    <g id="ytick_6">
     <g id="line2d_11">
      <g>
       <use style="stroke:#000000;stroke-width:0.6;" x="37.7" xlink:href="#mb0c5888873" y="266.190809"/>
      </g>
     </g>
    </g>
    <g id="ytick_7">
     <g id="line2d_12">
      <g>
       <use style="stroke:#000000;stroke-width:0.6;" x="37.7" xlink:href="#mb0c5888873" y="261.553779"/>
      </g>
     </g>
    </g>
    <g id="ytick_8">
     <g id="line2d_13">
      <g>
       <use style="stroke:#000000;stroke-width:0.6;" x="37.7" xlink:href="#mb0c5888873" y="257.537001"/>
      </g>
     </g>
    </g>
    <g id="ytick_9">
     <g id="line2d_14">
      <g>
       <use style="stroke:#000000;stroke-width:0.6;" x="37.7" xlink:href="#mb0c5888873" y="253.993952"/>
      </g>
     </g>
    </g>
    <g id="ytick_10">
     <g id="line2d_15">
      <g>
       <use style="stroke:#000000;stroke-width:0.6;" x="37.7" xlink:href="#mb0c5888873" y="229.973923"/>
      </g>
     </g>
    </g>
    <g id="ytick_11">
     <g id="line2d_16">
      <g>
       <use style="stroke:#000000;stroke-width:0.6;" x="37.7" xlink:href="#mb0c5888873" y="217.777066"/>
      </g>
     </g>
    </g>
    <g id="ytick_12">
     <g id="line2d_17">
      <g>
       <use style="stroke:#000000;stroke-width:0.6;" x="37.7" xlink:href="#mb0c5888873" y="209.123258"/>
      </g>
     </g>
    </g>
    <g id="ytick_13">
     <g id="line2d_18">
      <g>
       <use style="stroke:#000000;stroke-width:0.6;" x="37.7" xlink:href="#mb0c5888873" y="202.410844"/>
      </g>
     </g>
    </g>
    <g id="ytick_14">
     <g id="line2d_19">
      <g>
       <use style="stroke:#000000;stroke-width:0.6;" x="37.7" xlink:href="#mb0c5888873" y="196.926402"/>
      </g>
     </g>
    </g>
    <g id="ytick_15">
     <g id="line2d_20">
      <g>
       <use style="stroke:#000000;stroke-width:0.6;" x="37.7" xlink:href="#mb0c5888873" y="192.289372"/>
      </g>
     </g>
    </g>
    <g id="ytick_16">
     <g id="line2d_21">
      <g>
       <use style="stroke:#000000;stroke-width:0.6;" x="37.7" xlink:href="#mb0c5888873" y="188.272594"/>
      </g>
     </g>
    </g>
    <g id="ytick_17">
     <g id="line2d_22">
      <g>
       <use style="stroke:#000000;stroke-width:0.6;" x="37.7" xlink:href="#mb0c5888873" y="184.729545"/>
      </g>
     </g>
    </g>
    <g id="ytick_18">
     <g id="line2d_23">
      <g>
       <use style="stroke:#000000;stroke-width:0.6;" x="37.7" xlink:href="#mb0c5888873" y="160.709515"/>
      </g>
     </g>
    </g>
    <g id="ytick_19">
     <g id="line2d_24">
      <g>
       <use style="stroke:#000000;stroke-width:0.6;" x="37.7" xlink:href="#mb0c5888873" y="148.512659"/>
      </g>
     </g>
    </g>
    <g id="ytick_20">
     <g id="line2d_25">
      <g>
       <use style="stroke:#000000;stroke-width:0.6;" x="37.7" xlink:href="#mb0c5888873" y="139.858851"/>
      </g>
     </g>
    </g>
    <g id="ytick_21">
     <g id="line2d_26">
      <g>
       <use style="stroke:#000000;stroke-width:0.6;" x="37.7" xlink:href="#mb0c5888873" y="133.146436"/>
      </g>
     </g>
    </g>
    <g id="ytick_22">
     <g id="line2d_27">
      <g>
       <use style="stroke:#000000;stroke-width:0.6;" x="37.7" xlink:href="#mb0c5888873" y="127.661994"/>
      </g>
     </g>
    </g>
    <g id="ytick_23">
     <g id="line2d_28">
      <g>
       <use style="stroke:#000000;stroke-width:0.6;" x="37.7" xlink:href="#mb0c5888873" y="123.024965"/>
      </g>
     </g>
    </g>
    <g id="ytick_24">
     <g id="line2d_29">
      <g>
       <use style="stroke:#000000;stroke-width:0.6;" x="37.7" xlink:href="#mb0c5888873" y="119.008187"/>
      </g>
     </g>
    </g>
    <g id="ytick_25">
     <g id="line2d_30">
      <g>
       <use style="stroke:#000000;stroke-width:0.6;" x="37.7" xlink:href="#mb0c5888873" y="115.465138"/>
      </g>
     </g>
    </g>
    <g id="ytick_26">
     <g id="line2d_31">
      <g>
       <use style="stroke:#000000;stroke-width:0.6;" x="37.7" xlink:href="#mb0c5888873" y="91.445108"/>
      </g>
     </g>
    </g>
    <g id="ytick_27">
     <g id="line2d_32">
      <g>
       <use style="stroke:#000000;stroke-width:0.6;" x="37.7" xlink:href="#mb0c5888873" y="79.248251"/>
      </g>
     </g>
    </g>
    <g id="ytick_28">
     <g id="line2d_33">
      <g>
       <use style="stroke:#000000;stroke-width:0.6;" x="37.7" xlink:href="#mb0c5888873" y="70.594444"/>
      </g>
     </g>
    </g>
    <g id="ytick_29">
     <g id="line2d_34">
      <g>
       <use style="stroke:#000000;stroke-width:0.6;" x="37.7" xlink:href="#mb0c5888873" y="63.882029"/>
      </g>
     </g>
    </g>
    <g id="ytick_30">
     <g id="line2d_35">
      <g>
       <use style="stroke:#000000;stroke-width:0.6;" x="37.7" xlink:href="#mb0c5888873" y="58.397587"/>
      </g>
     </g>
    </g>
    <g id="ytick_31">
     <g id="line2d_36">
      <g>
       <use style="stroke:#000000;stroke-width:0.6;" x="37.7" xlink:href="#mb0c5888873" y="53.760557"/>
      </g>
     </g>
    </g>
    <g id="ytick_32">
     <g id="line2d_37">
      <g>
       <use style="stroke:#000000;stroke-width:0.6;" x="37.7" xlink:href="#mb0c5888873" y="49.743779"/>
      </g>
     </g>
    </g>
    <g id="ytick_33">
     <g id="line2d_38">
      <g>
       <use style="stroke:#000000;stroke-width:0.6;" x="37.7" xlink:href="#mb0c5888873" y="46.20073"/>
      </g>
     </g>
    </g>
    <g id="ytick_34">
     <g id="line2d_39">
      <g>
       <use style="stroke:#000000;stroke-width:0.6;" x="37.7" xlink:href="#mb0c5888873" y="22.180701"/>
      </g>
     </g>
    </g>
    <g id="ytick_35">
     <g id="line2d_40">
      <g>
       <use style="stroke:#000000;stroke-width:0.6;" x="37.7" xlink:href="#mb0c5888873" y="9.983844"/>
      </g>
     </g>
    </g>
   </g>
   <g id="line2d_41">
    <path clip-path="url(#pd5a734249c)" d="M 53.932727 19.296 
L 54.711275 25.499553 
L 55.489823 119.672337 
L 56.268371 28.412334 
L 57.825468 96.777229 
L 58.604016 25.525675 
L 59.382564 117.63577 
L 60.161112 28.565273 
L 60.93966 56.465317 
L 61.718208 23.967135 
L 62.496756 121.994031 
L 63.275304 27.352514 
L 64.053852 76.689043 
L 64.8324 38.39779 
L 65.610948 27.771192 
L 66.389496 52.916745 
L 67.168044 24.832254 
L 67.946593 161.965714 
L 68.725141 28.523171 
L 69.503689 50.811113 
L 70.282237 24.912913 
L 71.060785 164.105046 
L 71.839333 28.139384 
L 72.617881 60.300161 
L 73.396429 23.782824 
L 74.174977 114.414905 
L 74.953525 27.244146 
L 75.732073 78.163784 
L 76.510621 36.233709 
L 77.289169 28.878197 
L 78.067717 42.211014 
L 78.846266 26.773068 
L 79.624814 72.726666 
L 80.403362 23.381681 
L 81.18191 102.120884 
L 81.960458 27.007618 
L 82.739006 81.385591 
L 83.517554 33.551203 
L 84.296102 31.061906 
L 85.07465 33.337292 
L 85.853198 32.425463 
L 86.631746 31.128697 
L 87.410294 39.590305 
L 88.188842 26.460933 
L 88.96739 94.446056 
L 89.745939 29.505067 
L 90.524487 49.133168 
L 91.303035 24.660564 
L 92.081583 156.039443 
L 92.860131 27.620911 
L 93.638679 70.894158 
L 94.417227 63.782155 
L 95.195775 23.285694 
L 95.974323 100.498501 
L 96.752871 26.93862 
L 97.531419 82.460373 
L 98.309967 32.904276 
L 99.088515 32.01247 
L 99.867063 31.565588 
L 100.645612 37.132605 
L 101.42416 27.443466 
L 102.202708 76.802809 
L 102.981256 36.949764 
L 103.759804 29.276336 
L 104.538352 36.739267 
L 105.3169 30.677289 
L 106.095448 32.572857 
L 106.873996 39.238624 
L 107.652544 26.241702 
L 108.431092 101.193207 
L 109.20964 28.951937 
L 109.988188 55.830241 
L 110.766736 63.560014 
L 111.545284 24.727027 
L 112.323833 176.144832 
L 113.102381 27.916026 
L 113.880929 62.985461 
L 114.659477 23.64838 
L 115.438025 111.216259 
L 116.216573 27.20004 
L 116.995121 78.905549 
L 117.773669 35.325145 
L 118.552217 29.564788 
L 119.330765 37.804778 
L 120.109313 28.559568 
L 120.887861 46.777613 
L 121.666409 25.657142 
L 122.444957 102.528181 
L 123.223506 33.899982 
L 124.002054 28.39601 
L 124.780602 70.000965 
L 125.55915 61.27613 
L 126.337698 24.641668 
L 127.116246 120.633913 
L 127.894794 22.927307 
L 128.673342 92.222644 
L 129.45189 26.758972 
L 130.230438 84.567783 
L 131.008986 32.437153 
L 131.787534 32.072487 
L 132.566082 32.199469 
L 133.34463 33.464167 
L 134.123179 30.454244 
L 134.901727 40.46144 
L 135.680275 26.431178 
L 136.458823 92.829188 
L 137.237371 29.870018 
L 138.015919 45.57014 
L 138.794467 25.037375 
L 139.573015 152.588753 
L 140.351563 27.896753 
L 141.130111 68.962937 
L 141.908659 70.813116 
L 142.687207 23.371378 
L 143.465755 99.622446 
L 144.244303 27.013989 
L 145.022852 77.377472 
L 146.579948 21.5683 
L 147.358496 25.072539 
L 148.137044 155.038111 
L 148.915592 27.96878 
L 149.69414 66.739156 
L 150.472688 95.214917 
L 151.251236 22.509357 
L 152.029784 93.098317 
L 152.808332 26.833164 
L 153.58688 85.032151 
L 154.365428 31.600834 
L 155.143976 35.762927 
L 155.922525 27.999545 
L 156.701073 69.05486 
L 157.479621 67.229765 
L 158.258169 23.778232 
L 159.036717 113.329588 
L 159.815265 28.808957 
L 160.593813 40.987979 
L 161.372361 29.428992 
L 162.150909 34.790537 
L 162.929457 36.251018 
L 163.708005 27.056886 
L 164.486553 85.584056 
L 165.265101 30.798842 
L 166.043649 41.154014 
L 166.822198 25.762373 
L 167.600746 111.871527 
L 168.379294 28.478033 
L 169.157842 62.00495 
L 169.93639 115.612007 
L 170.714938 22.191357 
L 171.493486 86.779141 
L 172.272034 26.610481 
L 173.050582 88.777572 
L 173.82913 30.749934 
L 174.607678 38.810977 
L 175.386226 26.755622 
L 176.164774 87.448504 
L 176.943322 30.571167 
L 177.721871 41.787439 
L 178.500419 25.678248 
L 179.278967 114.827133 
L 180.057515 28.3953 
L 180.836063 62.815662 
L 181.614611 135.650572 
L 182.393159 22.255361 
L 183.171707 87.037248 
L 183.950255 26.611601 
L 184.728803 88.667048 
L 185.507351 30.791578 
L 186.285899 38.501092 
L 187.064447 26.880377 
L 187.842995 85.02461 
L 188.621543 31.178347 
L 189.400092 38.613673 
L 190.17864 26.565306 
L 190.957188 92.686348 
L 191.735736 29.630509 
L 192.514284 48.369465 
L 193.292832 24.736065 
L 194.07138 166.098914 
L 194.849928 27.685257 
L 195.628476 69.469893 
L 196.407024 74.970445 
L 197.185572 22.773682 
L 197.96412 100.168775 
L 198.742668 27.053349 
L 199.521216 81.624703 
L 200.299765 32.950596 
L 201.078313 32.740864 
L 201.856861 30.155533 
L 202.635409 47.137354 
L 203.413957 24.906206 
L 204.192505 261.216 
L 204.971053 27.764297 
L 205.749601 69.147556 
L 206.528149 74.32141 
L 207.306697 22.888834 
L 208.085245 95.533596 
L 208.863793 26.846552 
L 209.642341 84.447025 
L 210.420889 31.906747 
L 211.199438 34.474248 
L 211.977986 28.894877 
L 212.756534 57.669457 
L 213.535082 69.2211 
L 214.31363 27.651481 
L 215.092178 43.794866 
L 215.870726 30.754172 
L 216.649274 30.088597 
L 217.427822 54.783751 
L 218.20637 65.614351 
L 218.984918 21.975167 
L 219.763466 82.282709 
L 220.542014 26.413619 
L 221.320562 92.03131 
L 222.099111 30.355573 
L 222.877659 39.986254 
L 223.656207 26.504187 
L 224.434755 91.13138 
L 225.213303 30.081632 
L 225.991851 43.910629 
L 226.770399 25.327214 
L 227.548947 130.644036 
L 228.327495 28.094246 
L 229.106043 66.281551 
L 229.884591 95.967679 
L 230.663139 22.714446 
L 231.441687 89.63036 
L 232.220235 26.662012 
L 232.998784 86.497209 
L 233.777332 31.654112 
L 234.55588 33.997295 
L 235.334428 29.715658 
L 236.112976 46.001836 
L 236.891524 25.119006 
L 237.670072 148.081575 
L 238.44862 27.938322 
L 239.227168 67.85489 
L 240.005716 81.016071 
L 240.784264 22.922392 
L 241.562812 92.416898 
L 242.34136 26.742313 
L 243.119908 84.872092 
L 243.898457 32.265836 
L 244.677005 32.453631 
L 245.455553 31.531769 
L 246.234101 35.417607 
L 247.012649 28.726302 
L 248.569745 80.620237 
L 249.348293 25.085277 
L 250.126841 152.50086 
L 250.905389 27.927377 
L 251.683937 67.326278 
L 252.462485 88.101353 
L 253.241033 22.642167 
L 254.019581 91.960114 
L 254.798129 26.756481 
L 255.576678 86.023807 
L 256.355226 31.410361 
L 257.133774 35.99783 
L 257.912322 27.965111 
L 258.69087 68.680235 
L 259.469418 70.832824 
L 260.247966 23.514757 
L 261.026514 103.607766 
L 261.805062 27.286066 
L 262.58361 69.509854 
L 263.362158 23.45061 
L 264.140706 104.676692 
L 264.919254 27.06884 
L 265.697802 80.691345 
L 266.476351 33.892439 
L 267.254899 30.81014 
L 268.033447 33.69548 
L 268.811995 32.144457 
L 269.590543 31.3578 
L 270.369091 39.21851 
L 271.147639 26.521398 
L 271.926187 93.557456 
L 272.704735 29.57157 
L 273.483283 48.665564 
L 274.261831 24.701709 
L 275.040379 160.864293 
L 275.818927 27.656932 
L 276.597475 70.051788 
L 277.376024 70.274065 
L 278.154572 22.925197 
L 278.93312 101.251948 
L 279.711668 27.048253 
L 280.490216 81.597805 
L 281.268764 33.001146 
L 282.047312 32.575842 
L 282.82586 30.369565 
L 283.604408 45.758405 
L 284.382956 25.053457 
L 285.161504 163.221975 
L 285.940052 27.849667 
L 286.7186 68.776359 
L 287.497148 74.408843 
L 288.275697 23.058498 
L 289.054245 94.545415 
L 289.832793 26.79889 
L 290.611341 83.854147 
L 291.389889 32.696945 
L 292.168437 31.678804 
L 292.946985 32.864856 
L 293.725533 32.241695 
L 294.504081 32.086973 
L 295.282629 33.941697 
L 296.061177 29.921687 
L 296.839725 44.565826 
L 297.618273 25.386772 
L 298.396821 128.400288 
L 299.17537 28.157335 
L 299.953918 64.81501 
L 300.732466 127.059338 
L 301.511014 22.342706 
L 302.289562 90.385228 
L 303.06811 26.750005 
L 303.846658 86.441905 
L 304.625206 31.214153 
L 305.403754 37.074099 
L 306.182302 27.378968 
L 306.96085 77.506063 
L 307.739398 35.857755 
L 308.517946 30.071305 
L 309.296494 33.913851 
L 310.075043 34.693583 
L 310.853591 28.125301 
L 311.632139 71.639119 
L 312.410687 52.388178 
L 313.189235 25.457198 
L 313.967783 84.735558 
L 314.746331 23.450919 
L 315.524879 100.935378 
L 316.303427 27.088651 
L 317.081975 75.886134 
L 317.860523 55.150865 
L 318.639071 62.614627 
L 319.417619 21.778635 
L 320.196167 81.375116 
L 320.974716 26.373518 
L 321.753264 93.352269 
L 322.531812 30.1 
L 323.31036 42.134635 
L 324.088908 25.863952 
L 324.867456 108.303728 
L 325.646004 28.685758 
L 326.424552 58.036043 
L 327.2031 80.190996 
L 327.981648 25.130269 
L 328.760196 142.837425 
L 329.538744 28.267186 
L 330.317292 58.690933 
L 331.09584 23.880486 
L 331.874388 116.748861 
L 332.652937 27.271989 
L 333.431485 77.656447 
L 334.210033 36.988259 
L 334.988581 28.389485 
L 335.767129 46.706792 
L 336.545677 25.699629 
L 337.324225 99.624071 
L 338.102773 37.184053 
L 338.881321 22.175239 
L 339.659869 25.024947 
L 340.438417 163.583704 
L 341.216965 27.934642 
L 341.995513 67.267518 
L 342.774061 89.235459 
L 343.55261 22.606382 
L 344.331158 92.479693 
L 345.109706 26.785524 
L 345.888254 85.66414 
L 346.666802 31.470427 
L 347.44535 35.962706 
L 348.223898 27.945463 
L 349.002446 69.290582 
L 349.780994 66.150413 
L 350.559542 23.78366 
L 351.33809 113.040663 
L 352.116638 28.127778 
L 352.895186 50.344073 
L 353.673734 25.524379 
L 354.452283 99.271163 
L 355.230831 22.906476 
L 356.009379 96.379221 
L 356.787927 26.904109 
L 357.566475 83.623064 
L 358.345023 32.200478 
L 359.123571 33.813604 
L 359.902119 29.371207 
L 360.680667 53.059871 
L 361.459215 57.76728 
L 362.237763 24.665953 
L 363.016311 156.399655 
L 363.794859 27.705201 
L 364.573407 68.21616 
L 365.351956 87.985506 
L 366.130504 28.330547 
L 366.909052 58.621519 
L 367.6876 83.93797 
L 368.466148 25.469181 
L 369.244696 110.962097 
L 370.023244 22.771899 
L 370.801792 97.87235 
L 371.58034 26.990004 
L 372.358888 82.586695 
L 373.137436 32.516743 
L 373.915984 33.474278 
L 374.694532 29.515139 
L 375.47308 52.761214 
L 376.251629 59.019027 
L 377.030177 24.853803 
L 377.033395 311.86825 
L 377.033395 311.86825 
" style="fill:none;stroke:#1f77b4;stroke-linecap:square;stroke-width:1.5;"/>
    <defs>
     <path d="M 0 3 
C 0.795609 3 1.55874 2.683901 2.12132 2.12132 
C 2.683901 1.55874 3 0.795609 3 0 
C 3 -0.795609 2.683901 -1.55874 2.12132 -2.12132 
C 1.55874 -2.683901 0.795609 -3 0 -3 
C -0.795609 -3 -1.55874 -2.683901 -2.12132 -2.12132 
C -2.683901 -1.55874 -3 -0.795609 -3 0 
C -3 0.795609 -2.683901 1.55874 -2.12132 2.12132 
C -1.55874 2.683901 -0.795609 3 0 3 
z
" id="m383668f792" style="stroke:#1f77b4;"/>
    </defs>
    <g clip-path="url(#pd5a734249c)">
     <use style="fill:#1f77b4;stroke:#1f77b4;" x="53.932727" xlink:href="#m383668f792" y="19.296"/>
     <use style="fill:#1f77b4;stroke:#1f77b4;" x="54.711275" xlink:href="#m383668f792" y="25.499553"/>
     <use style="fill:#1f77b4;stroke:#1f77b4;" x="55.489823" xlink:href="#m383668f792" y="119.672337"/>
     <use style="fill:#1f77b4;stroke:#1f77b4;" x="56.268371" xlink:href="#m383668f792" y="28.412334"/>
     <use style="fill:#1f77b4;stroke:#1f77b4;" x="57.04692" xlink:href="#m383668f792" y="60.363368"/>
     <use style="fill:#1f77b4;stroke:#1f77b4;" x="57.825468" xlink:href="#m383668f792" y="96.777229"/>
     <use style="fill:#1f77b4;stroke:#1f77b4;" x="58.604016" xlink:href="#m383668f792" y="25.525675"/>
     <use style="fill:#1f77b4;stroke:#1f77b4;" x="59.382564" xlink:href="#m383668f792" y="117.63577"/>
     <use style="fill:#1f77b4;stroke:#1f77b4;" x="60.161112" xlink:href="#m383668f792" y="28.565273"/>
     <use style="fill:#1f77b4;stroke:#1f77b4;" x="60.93966" xlink:href="#m383668f792" y="56.465317"/>
     <use style="fill:#1f77b4;stroke:#1f77b4;" x="61.718208" xlink:href="#m383668f792" y="23.967135"/>
     <use style="fill:#1f77b4;stroke:#1f77b4;" x="62.496756" xlink:href="#m383668f792" y="121.994031"/>
     <use style="fill:#1f77b4;stroke:#1f77b4;" x="63.275304" xlink:href="#m383668f792" y="27.352514"/>
     <use style="fill:#1f77b4;stroke:#1f77b4;" x="64.053852" xlink:href="#m383668f792" y="76.689043"/>
     <use style="fill:#1f77b4;stroke:#1f77b4;" x="64.8324" xlink:href="#m383668f792" y="38.39779"/>
     <use style="fill:#1f77b4;stroke:#1f77b4;" x="65.610948" xlink:href="#m383668f792" y="27.771192"/>
     <use style="fill:#1f77b4;stroke:#1f77b4;" x="66.389496" xlink:href="#m383668f792" y="52.916745"/>
     <use style="fill:#1f77b4;stroke:#1f77b4;" x="67.168044" xlink:href="#m383668f792" y="24.832254"/>
     <use style="fill:#1f77b4;stroke:#1f77b4;" x="67.946593" xlink:href="#m383668f792" y="161.965714"/>
     <use style="fill:#1f77b4;stroke:#1f77b4;" x="68.725141" xlink:href="#m383668f792" y="28.523171"/>
     <use style="fill:#1f77b4;stroke:#1f77b4;" x="69.503689" xlink:href="#m383668f792" y="50.811113"/>
     <use style="fill:#1f77b4;stroke:#1f77b4;" x="70.282237" xlink:href="#m383668f792" y="24.912913"/>
     <use style="fill:#1f77b4;stroke:#1f77b4;" x="71.060785" xlink:href="#m383668f792" y="164.105046"/>
     <use style="fill:#1f77b4;stroke:#1f77b4;" x="71.839333" xlink:href="#m383668f792" y="28.139384"/>
     <use style="fill:#1f77b4;stroke:#1f77b4;" x="72.617881" xlink:href="#m383668f792" y="60.300161"/>
     <use style="fill:#1f77b4;stroke:#1f77b4;" x="73.396429" xlink:href="#m383668f792" y="23.782824"/>
     <use style="fill:#1f77b4;stroke:#1f77b4;" x="74.174977" xlink:href="#m383668f792" y="114.414905"/>
     <use style="fill:#1f77b4;stroke:#1f77b4;" x="74.953525" xlink:href="#m383668f792" y="27.244146"/>
     <use style="fill:#1f77b4;stroke:#1f77b4;" x="75.732073" xlink:href="#m383668f792" y="78.163784"/>
     <use style="fill:#1f77b4;stroke:#1f77b4;" x="76.510621" xlink:href="#m383668f792" y="36.233709"/>
     <use style="fill:#1f77b4;stroke:#1f77b4;" x="77.289169" xlink:href="#m383668f792" y="28.878197"/>
     <use style="fill:#1f77b4;stroke:#1f77b4;" x="78.067717" xlink:href="#m383668f792" y="42.211014"/>
     <use style="fill:#1f77b4;stroke:#1f77b4;" x="78.846266" xlink:href="#m383668f792" y="26.773068"/>
     <use style="fill:#1f77b4;stroke:#1f77b4;" x="79.624814" xlink:href="#m383668f792" y="72.726666"/>
     <use style="fill:#1f77b4;stroke:#1f77b4;" x="80.403362" xlink:href="#m383668f792" y="23.381681"/>
     <use style="fill:#1f77b4;stroke:#1f77b4;" x="81.18191" xlink:href="#m383668f792" y="102.120884"/>
     <use style="fill:#1f77b4;stroke:#1f77b4;" x="81.960458" xlink:href="#m383668f792" y="27.007618"/>
     <use style="fill:#1f77b4;stroke:#1f77b4;" x="82.739006" xlink:href="#m383668f792" y="81.385591"/>
     <use style="fill:#1f77b4;stroke:#1f77b4;" x="83.517554" xlink:href="#m383668f792" y="33.551203"/>
     <use style="fill:#1f77b4;stroke:#1f77b4;" x="84.296102" xlink:href="#m383668f792" y="31.061906"/>
     <use style="fill:#1f77b4;stroke:#1f77b4;" x="85.07465" xlink:href="#m383668f792" y="33.337292"/>
     <use style="fill:#1f77b4;stroke:#1f77b4;" x="85.853198" xlink:href="#m383668f792" y="32.425463"/>
     <use style="fill:#1f77b4;stroke:#1f77b4;" x="86.631746" xlink:href="#m383668f792" y="31.128697"/>
     <use style="fill:#1f77b4;stroke:#1f77b4;" x="87.410294" xlink:href="#m383668f792" y="39.590305"/>
     <use style="fill:#1f77b4;stroke:#1f77b4;" x="88.188842" xlink:href="#m383668f792" y="26.460933"/>
     <use style="fill:#1f77b4;stroke:#1f77b4;" x="88.96739" xlink:href="#m383668f792" y="94.446056"/>
     <use style="fill:#1f77b4;stroke:#1f77b4;" x="89.745939" xlink:href="#m383668f792" y="29.505067"/>
     <use style="fill:#1f77b4;stroke:#1f77b4;" x="90.524487" xlink:href="#m383668f792" y="49.133168"/>
     <use style="fill:#1f77b4;stroke:#1f77b4;" x="91.303035" xlink:href="#m383668f792" y="24.660564"/>
     <use style="fill:#1f77b4;stroke:#1f77b4;" x="92.081583" xlink:href="#m383668f792" y="156.039443"/>
     <use style="fill:#1f77b4;stroke:#1f77b4;" x="92.860131" xlink:href="#m383668f792" y="27.620911"/>
     <use style="fill:#1f77b4;stroke:#1f77b4;" x="93.638679" xlink:href="#m383668f792" y="70.894158"/>
     <use style="fill:#1f77b4;stroke:#1f77b4;" x="94.417227" xlink:href="#m383668f792" y="63.782155"/>
     <use style="fill:#1f77b4;stroke:#1f77b4;" x="95.195775" xlink:href="#m383668f792" y="23.285694"/>
     <use style="fill:#1f77b4;stroke:#1f77b4;" x="95.974323" xlink:href="#m383668f792" y="100.498501"/>
     <use style="fill:#1f77b4;stroke:#1f77b4;" x="96.752871" xlink:href="#m383668f792" y="26.93862"/>
     <use style="fill:#1f77b4;stroke:#1f77b4;" x="97.531419" xlink:href="#m383668f792" y="82.460373"/>
     <use style="fill:#1f77b4;stroke:#1f77b4;" x="98.309967" xlink:href="#m383668f792" y="32.904276"/>
     <use style="fill:#1f77b4;stroke:#1f77b4;" x="99.088515" xlink:href="#m383668f792" y="32.01247"/>
     <use style="fill:#1f77b4;stroke:#1f77b4;" x="99.867063" xlink:href="#m383668f792" y="31.565588"/>
     <use style="fill:#1f77b4;stroke:#1f77b4;" x="100.645612" xlink:href="#m383668f792" y="37.132605"/>
     <use style="fill:#1f77b4;stroke:#1f77b4;" x="101.42416" xlink:href="#m383668f792" y="27.443466"/>
     <use style="fill:#1f77b4;stroke:#1f77b4;" x="102.202708" xlink:href="#m383668f792" y="76.802809"/>
     <use style="fill:#1f77b4;stroke:#1f77b4;" x="102.981256" xlink:href="#m383668f792" y="36.949764"/>
     <use style="fill:#1f77b4;stroke:#1f77b4;" x="103.759804" xlink:href="#m383668f792" y="29.276336"/>
     <use style="fill:#1f77b4;stroke:#1f77b4;" x="104.538352" xlink:href="#m383668f792" y="36.739267"/>
     <use style="fill:#1f77b4;stroke:#1f77b4;" x="105.3169" xlink:href="#m383668f792" y="30.677289"/>
     <use style="fill:#1f77b4;stroke:#1f77b4;" x="106.095448" xlink:href="#m383668f792" y="32.572857"/>
     <use style="fill:#1f77b4;stroke:#1f77b4;" x="106.873996" xlink:href="#m383668f792" y="39.238624"/>
     <use style="fill:#1f77b4;stroke:#1f77b4;" x="107.652544" xlink:href="#m383668f792" y="26.241702"/>
     <use style="fill:#1f77b4;stroke:#1f77b4;" x="108.431092" xlink:href="#m383668f792" y="101.193207"/>
     <use style="fill:#1f77b4;stroke:#1f77b4;" x="109.20964" xlink:href="#m383668f792" y="28.951937"/>
     <use style="fill:#1f77b4;stroke:#1f77b4;" x="109.988188" xlink:href="#m383668f792" y="55.830241"/>
     <use style="fill:#1f77b4;stroke:#1f77b4;" x="110.766736" xlink:href="#m383668f792" y="63.560014"/>
     <use style="fill:#1f77b4;stroke:#1f77b4;" x="111.545284" xlink:href="#m383668f792" y="24.727027"/>
     <use style="fill:#1f77b4;stroke:#1f77b4;" x="112.323833" xlink:href="#m383668f792" y="176.144832"/>
     <use style="fill:#1f77b4;stroke:#1f77b4;" x="113.102381" xlink:href="#m383668f792" y="27.916026"/>
     <use style="fill:#1f77b4;stroke:#1f77b4;" x="113.880929" xlink:href="#m383668f792" y="62.985461"/>
     <use style="fill:#1f77b4;stroke:#1f77b4;" x="114.659477" xlink:href="#m383668f792" y="23.64838"/>
     <use style="fill:#1f77b4;stroke:#1f77b4;" x="115.438025" xlink:href="#m383668f792" y="111.216259"/>
     <use style="fill:#1f77b4;stroke:#1f77b4;" x="116.216573" xlink:href="#m383668f792" y="27.20004"/>
     <use style="fill:#1f77b4;stroke:#1f77b4;" x="116.995121" xlink:href="#m383668f792" y="78.905549"/>
     <use style="fill:#1f77b4;stroke:#1f77b4;" x="117.773669" xlink:href="#m383668f792" y="35.325145"/>
     <use style="fill:#1f77b4;stroke:#1f77b4;" x="118.552217" xlink:href="#m383668f792" y="29.564788"/>
     <use style="fill:#1f77b4;stroke:#1f77b4;" x="119.330765" xlink:href="#m383668f792" y="37.804778"/>
     <use style="fill:#1f77b4;stroke:#1f77b4;" x="120.109313" xlink:href="#m383668f792" y="28.559568"/>
     <use style="fill:#1f77b4;stroke:#1f77b4;" x="120.887861" xlink:href="#m383668f792" y="46.777613"/>
     <use style="fill:#1f77b4;stroke:#1f77b4;" x="121.666409" xlink:href="#m383668f792" y="25.657142"/>
     <use style="fill:#1f77b4;stroke:#1f77b4;" x="122.444957" xlink:href="#m383668f792" y="102.528181"/>
     <use style="fill:#1f77b4;stroke:#1f77b4;" x="123.223506" xlink:href="#m383668f792" y="33.899982"/>
     <use style="fill:#1f77b4;stroke:#1f77b4;" x="124.002054" xlink:href="#m383668f792" y="28.39601"/>
     <use style="fill:#1f77b4;stroke:#1f77b4;" x="124.780602" xlink:href="#m383668f792" y="70.000965"/>
     <use style="fill:#1f77b4;stroke:#1f77b4;" x="125.55915" xlink:href="#m383668f792" y="61.27613"/>
     <use style="fill:#1f77b4;stroke:#1f77b4;" x="126.337698" xlink:href="#m383668f792" y="24.641668"/>
     <use style="fill:#1f77b4;stroke:#1f77b4;" x="127.116246" xlink:href="#m383668f792" y="120.633913"/>
     <use style="fill:#1f77b4;stroke:#1f77b4;" x="127.894794" xlink:href="#m383668f792" y="22.927307"/>
     <use style="fill:#1f77b4;stroke:#1f77b4;" x="128.673342" xlink:href="#m383668f792" y="92.222644"/>
     <use style="fill:#1f77b4;stroke:#1f77b4;" x="129.45189" xlink:href="#m383668f792" y="26.758972"/>
     <use style="fill:#1f77b4;stroke:#1f77b4;" x="130.230438" xlink:href="#m383668f792" y="84.567783"/>
     <use style="fill:#1f77b4;stroke:#1f77b4;" x="131.008986" xlink:href="#m383668f792" y="32.437153"/>
     <use style="fill:#1f77b4;stroke:#1f77b4;" x="131.787534" xlink:href="#m383668f792" y="32.072487"/>
     <use style="fill:#1f77b4;stroke:#1f77b4;" x="132.566082" xlink:href="#m383668f792" y="32.199469"/>
     <use style="fill:#1f77b4;stroke:#1f77b4;" x="133.34463" xlink:href="#m383668f792" y="33.464167"/>
     <use style="fill:#1f77b4;stroke:#1f77b4;" x="134.123179" xlink:href="#m383668f792" y="30.454244"/>
     <use style="fill:#1f77b4;stroke:#1f77b4;" x="134.901727" xlink:href="#m383668f792" y="40.46144"/>
     <use style="fill:#1f77b4;stroke:#1f77b4;" x="135.680275" xlink:href="#m383668f792" y="26.431178"/>
     <use style="fill:#1f77b4;stroke:#1f77b4;" x="136.458823" xlink:href="#m383668f792" y="92.829188"/>
     <use style="fill:#1f77b4;stroke:#1f77b4;" x="137.237371" xlink:href="#m383668f792" y="29.870018"/>
     <use style="fill:#1f77b4;stroke:#1f77b4;" x="138.015919" xlink:href="#m383668f792" y="45.57014"/>
     <use style="fill:#1f77b4;stroke:#1f77b4;" x="138.794467" xlink:href="#m383668f792" y="25.037375"/>
     <use style="fill:#1f77b4;stroke:#1f77b4;" x="139.573015" xlink:href="#m383668f792" y="152.588753"/>
     <use style="fill:#1f77b4;stroke:#1f77b4;" x="140.351563" xlink:href="#m383668f792" y="27.896753"/>
     <use style="fill:#1f77b4;stroke:#1f77b4;" x="141.130111" xlink:href="#m383668f792" y="68.962937"/>
     <use style="fill:#1f77b4;stroke:#1f77b4;" x="141.908659" xlink:href="#m383668f792" y="70.813116"/>
     <use style="fill:#1f77b4;stroke:#1f77b4;" x="142.687207" xlink:href="#m383668f792" y="23.371378"/>
     <use style="fill:#1f77b4;stroke:#1f77b4;" x="143.465755" xlink:href="#m383668f792" y="99.622446"/>
     <use style="fill:#1f77b4;stroke:#1f77b4;" x="144.244303" xlink:href="#m383668f792" y="27.013989"/>
     <use style="fill:#1f77b4;stroke:#1f77b4;" x="145.022852" xlink:href="#m383668f792" y="77.377472"/>
     <use style="fill:#1f77b4;stroke:#1f77b4;" x="145.8014" xlink:href="#m383668f792" y="48.297629"/>
     <use style="fill:#1f77b4;stroke:#1f77b4;" x="146.579948" xlink:href="#m383668f792" y="21.5683"/>
     <use style="fill:#1f77b4;stroke:#1f77b4;" x="147.358496" xlink:href="#m383668f792" y="25.072539"/>
     <use style="fill:#1f77b4;stroke:#1f77b4;" x="148.137044" xlink:href="#m383668f792" y="155.038111"/>
     <use style="fill:#1f77b4;stroke:#1f77b4;" x="148.915592" xlink:href="#m383668f792" y="27.96878"/>
     <use style="fill:#1f77b4;stroke:#1f77b4;" x="149.69414" xlink:href="#m383668f792" y="66.739156"/>
     <use style="fill:#1f77b4;stroke:#1f77b4;" x="150.472688" xlink:href="#m383668f792" y="95.214917"/>
     <use style="fill:#1f77b4;stroke:#1f77b4;" x="151.251236" xlink:href="#m383668f792" y="22.509357"/>
     <use style="fill:#1f77b4;stroke:#1f77b4;" x="152.029784" xlink:href="#m383668f792" y="93.098317"/>
     <use style="fill:#1f77b4;stroke:#1f77b4;" x="152.808332" xlink:href="#m383668f792" y="26.833164"/>
     <use style="fill:#1f77b4;stroke:#1f77b4;" x="153.58688" xlink:href="#m383668f792" y="85.032151"/>
     <use style="fill:#1f77b4;stroke:#1f77b4;" x="154.365428" xlink:href="#m383668f792" y="31.600834"/>
     <use style="fill:#1f77b4;stroke:#1f77b4;" x="155.143976" xlink:href="#m383668f792" y="35.762927"/>
     <use style="fill:#1f77b4;stroke:#1f77b4;" x="155.922525" xlink:href="#m383668f792" y="27.999545"/>
     <use style="fill:#1f77b4;stroke:#1f77b4;" x="156.701073" xlink:href="#m383668f792" y="69.05486"/>
     <use style="fill:#1f77b4;stroke:#1f77b4;" x="157.479621" xlink:href="#m383668f792" y="67.229765"/>
     <use style="fill:#1f77b4;stroke:#1f77b4;" x="158.258169" xlink:href="#m383668f792" y="23.778232"/>
     <use style="fill:#1f77b4;stroke:#1f77b4;" x="159.036717" xlink:href="#m383668f792" y="113.329588"/>
     <use style="fill:#1f77b4;stroke:#1f77b4;" x="159.815265" xlink:href="#m383668f792" y="28.808957"/>
     <use style="fill:#1f77b4;stroke:#1f77b4;" x="160.593813" xlink:href="#m383668f792" y="40.987979"/>
     <use style="fill:#1f77b4;stroke:#1f77b4;" x="161.372361" xlink:href="#m383668f792" y="29.428992"/>
     <use style="fill:#1f77b4;stroke:#1f77b4;" x="162.150909" xlink:href="#m383668f792" y="34.790537"/>
     <use style="fill:#1f77b4;stroke:#1f77b4;" x="162.929457" xlink:href="#m383668f792" y="36.251018"/>
     <use style="fill:#1f77b4;stroke:#1f77b4;" x="163.708005" xlink:href="#m383668f792" y="27.056886"/>
     <use style="fill:#1f77b4;stroke:#1f77b4;" x="164.486553" xlink:href="#m383668f792" y="85.584056"/>
     <use style="fill:#1f77b4;stroke:#1f77b4;" x="165.265101" xlink:href="#m383668f792" y="30.798842"/>
     <use style="fill:#1f77b4;stroke:#1f77b4;" x="166.043649" xlink:href="#m383668f792" y="41.154014"/>
     <use style="fill:#1f77b4;stroke:#1f77b4;" x="166.822198" xlink:href="#m383668f792" y="25.762373"/>
     <use style="fill:#1f77b4;stroke:#1f77b4;" x="167.600746" xlink:href="#m383668f792" y="111.871527"/>
     <use style="fill:#1f77b4;stroke:#1f77b4;" x="168.379294" xlink:href="#m383668f792" y="28.478033"/>
     <use style="fill:#1f77b4;stroke:#1f77b4;" x="169.157842" xlink:href="#m383668f792" y="62.00495"/>
     <use style="fill:#1f77b4;stroke:#1f77b4;" x="169.93639" xlink:href="#m383668f792" y="115.612007"/>
     <use style="fill:#1f77b4;stroke:#1f77b4;" x="170.714938" xlink:href="#m383668f792" y="22.191357"/>
     <use style="fill:#1f77b4;stroke:#1f77b4;" x="171.493486" xlink:href="#m383668f792" y="86.779141"/>
     <use style="fill:#1f77b4;stroke:#1f77b4;" x="172.272034" xlink:href="#m383668f792" y="26.610481"/>
     <use style="fill:#1f77b4;stroke:#1f77b4;" x="173.050582" xlink:href="#m383668f792" y="88.777572"/>
     <use style="fill:#1f77b4;stroke:#1f77b4;" x="173.82913" xlink:href="#m383668f792" y="30.749934"/>
     <use style="fill:#1f77b4;stroke:#1f77b4;" x="174.607678" xlink:href="#m383668f792" y="38.810977"/>
     <use style="fill:#1f77b4;stroke:#1f77b4;" x="175.386226" xlink:href="#m383668f792" y="26.755622"/>
     <use style="fill:#1f77b4;stroke:#1f77b4;" x="176.164774" xlink:href="#m383668f792" y="87.448504"/>
     <use style="fill:#1f77b4;stroke:#1f77b4;" x="176.943322" xlink:href="#m383668f792" y="30.571167"/>
     <use style="fill:#1f77b4;stroke:#1f77b4;" x="177.721871" xlink:href="#m383668f792" y="41.787439"/>
     <use style="fill:#1f77b4;stroke:#1f77b4;" x="178.500419" xlink:href="#m383668f792" y="25.678248"/>
     <use style="fill:#1f77b4;stroke:#1f77b4;" x="179.278967" xlink:href="#m383668f792" y="114.827133"/>
     <use style="fill:#1f77b4;stroke:#1f77b4;" x="180.057515" xlink:href="#m383668f792" y="28.3953"/>
     <use style="fill:#1f77b4;stroke:#1f77b4;" x="180.836063" xlink:href="#m383668f792" y="62.815662"/>
     <use style="fill:#1f77b4;stroke:#1f77b4;" x="181.614611" xlink:href="#m383668f792" y="135.650572"/>
     <use style="fill:#1f77b4;stroke:#1f77b4;" x="182.393159" xlink:href="#m383668f792" y="22.255361"/>
     <use style="fill:#1f77b4;stroke:#1f77b4;" x="183.171707" xlink:href="#m383668f792" y="87.037248"/>
     <use style="fill:#1f77b4;stroke:#1f77b4;" x="183.950255" xlink:href="#m383668f792" y="26.611601"/>
     <use style="fill:#1f77b4;stroke:#1f77b4;" x="184.728803" xlink:href="#m383668f792" y="88.667048"/>
     <use style="fill:#1f77b4;stroke:#1f77b4;" x="185.507351" xlink:href="#m383668f792" y="30.791578"/>
     <use style="fill:#1f77b4;stroke:#1f77b4;" x="186.285899" xlink:href="#m383668f792" y="38.501092"/>
     <use style="fill:#1f77b4;stroke:#1f77b4;" x="187.064447" xlink:href="#m383668f792" y="26.880377"/>
     <use style="fill:#1f77b4;stroke:#1f77b4;" x="187.842995" xlink:href="#m383668f792" y="85.02461"/>
     <use style="fill:#1f77b4;stroke:#1f77b4;" x="188.621543" xlink:href="#m383668f792" y="31.178347"/>
     <use style="fill:#1f77b4;stroke:#1f77b4;" x="189.400092" xlink:href="#m383668f792" y="38.613673"/>
     <use style="fill:#1f77b4;stroke:#1f77b4;" x="190.17864" xlink:href="#m383668f792" y="26.565306"/>
     <use style="fill:#1f77b4;stroke:#1f77b4;" x="190.957188" xlink:href="#m383668f792" y="92.686348"/>
     <use style="fill:#1f77b4;stroke:#1f77b4;" x="191.735736" xlink:href="#m383668f792" y="29.630509"/>
     <use style="fill:#1f77b4;stroke:#1f77b4;" x="192.514284" xlink:href="#m383668f792" y="48.369465"/>
     <use style="fill:#1f77b4;stroke:#1f77b4;" x="193.292832" xlink:href="#m383668f792" y="24.736065"/>
     <use style="fill:#1f77b4;stroke:#1f77b4;" x="194.07138" xlink:href="#m383668f792" y="166.098914"/>
     <use style="fill:#1f77b4;stroke:#1f77b4;" x="194.849928" xlink:href="#m383668f792" y="27.685257"/>
     <use style="fill:#1f77b4;stroke:#1f77b4;" x="195.628476" xlink:href="#m383668f792" y="69.469893"/>
     <use style="fill:#1f77b4;stroke:#1f77b4;" x="196.407024" xlink:href="#m383668f792" y="74.970445"/>
     <use style="fill:#1f77b4;stroke:#1f77b4;" x="197.185572" xlink:href="#m383668f792" y="22.773682"/>
     <use style="fill:#1f77b4;stroke:#1f77b4;" x="197.96412" xlink:href="#m383668f792" y="100.168775"/>
     <use style="fill:#1f77b4;stroke:#1f77b4;" x="198.742668" xlink:href="#m383668f792" y="27.053349"/>
     <use style="fill:#1f77b4;stroke:#1f77b4;" x="199.521216" xlink:href="#m383668f792" y="81.624703"/>
     <use style="fill:#1f77b4;stroke:#1f77b4;" x="200.299765" xlink:href="#m383668f792" y="32.950596"/>
     <use style="fill:#1f77b4;stroke:#1f77b4;" x="201.078313" xlink:href="#m383668f792" y="32.740864"/>
     <use style="fill:#1f77b4;stroke:#1f77b4;" x="201.856861" xlink:href="#m383668f792" y="30.155533"/>
     <use style="fill:#1f77b4;stroke:#1f77b4;" x="202.635409" xlink:href="#m383668f792" y="47.137354"/>
     <use style="fill:#1f77b4;stroke:#1f77b4;" x="203.413957" xlink:href="#m383668f792" y="24.906206"/>
     <use style="fill:#1f77b4;stroke:#1f77b4;" x="204.192505" xlink:href="#m383668f792" y="261.216"/>
     <use style="fill:#1f77b4;stroke:#1f77b4;" x="204.971053" xlink:href="#m383668f792" y="27.764297"/>
     <use style="fill:#1f77b4;stroke:#1f77b4;" x="205.749601" xlink:href="#m383668f792" y="69.147556"/>
     <use style="fill:#1f77b4;stroke:#1f77b4;" x="206.528149" xlink:href="#m383668f792" y="74.32141"/>
     <use style="fill:#1f77b4;stroke:#1f77b4;" x="207.306697" xlink:href="#m383668f792" y="22.888834"/>
     <use style="fill:#1f77b4;stroke:#1f77b4;" x="208.085245" xlink:href="#m383668f792" y="95.533596"/>
     <use style="fill:#1f77b4;stroke:#1f77b4;" x="208.863793" xlink:href="#m383668f792" y="26.846552"/>
     <use style="fill:#1f77b4;stroke:#1f77b4;" x="209.642341" xlink:href="#m383668f792" y="84.447025"/>
     <use style="fill:#1f77b4;stroke:#1f77b4;" x="210.420889" xlink:href="#m383668f792" y="31.906747"/>
     <use style="fill:#1f77b4;stroke:#1f77b4;" x="211.199438" xlink:href="#m383668f792" y="34.474248"/>
     <use style="fill:#1f77b4;stroke:#1f77b4;" x="211.977986" xlink:href="#m383668f792" y="28.894877"/>
     <use style="fill:#1f77b4;stroke:#1f77b4;" x="212.756534" xlink:href="#m383668f792" y="57.669457"/>
     <use style="fill:#1f77b4;stroke:#1f77b4;" x="213.535082" xlink:href="#m383668f792" y="69.2211"/>
     <use style="fill:#1f77b4;stroke:#1f77b4;" x="214.31363" xlink:href="#m383668f792" y="27.651481"/>
     <use style="fill:#1f77b4;stroke:#1f77b4;" x="215.092178" xlink:href="#m383668f792" y="43.794866"/>
     <use style="fill:#1f77b4;stroke:#1f77b4;" x="215.870726" xlink:href="#m383668f792" y="30.754172"/>
     <use style="fill:#1f77b4;stroke:#1f77b4;" x="216.649274" xlink:href="#m383668f792" y="30.088597"/>
     <use style="fill:#1f77b4;stroke:#1f77b4;" x="217.427822" xlink:href="#m383668f792" y="54.783751"/>
     <use style="fill:#1f77b4;stroke:#1f77b4;" x="218.20637" xlink:href="#m383668f792" y="65.614351"/>
     <use style="fill:#1f77b4;stroke:#1f77b4;" x="218.984918" xlink:href="#m383668f792" y="21.975167"/>
     <use style="fill:#1f77b4;stroke:#1f77b4;" x="219.763466" xlink:href="#m383668f792" y="82.282709"/>
     <use style="fill:#1f77b4;stroke:#1f77b4;" x="220.542014" xlink:href="#m383668f792" y="26.413619"/>
     <use style="fill:#1f77b4;stroke:#1f77b4;" x="221.320562" xlink:href="#m383668f792" y="92.03131"/>
     <use style="fill:#1f77b4;stroke:#1f77b4;" x="222.099111" xlink:href="#m383668f792" y="30.355573"/>
     <use style="fill:#1f77b4;stroke:#1f77b4;" x="222.877659" xlink:href="#m383668f792" y="39.986254"/>
     <use style="fill:#1f77b4;stroke:#1f77b4;" x="223.656207" xlink:href="#m383668f792" y="26.504187"/>
     <use style="fill:#1f77b4;stroke:#1f77b4;" x="224.434755" xlink:href="#m383668f792" y="91.13138"/>
     <use style="fill:#1f77b4;stroke:#1f77b4;" x="225.213303" xlink:href="#m383668f792" y="30.081632"/>
     <use style="fill:#1f77b4;stroke:#1f77b4;" x="225.991851" xlink:href="#m383668f792" y="43.910629"/>
     <use style="fill:#1f77b4;stroke:#1f77b4;" x="226.770399" xlink:href="#m383668f792" y="25.327214"/>
     <use style="fill:#1f77b4;stroke:#1f77b4;" x="227.548947" xlink:href="#m383668f792" y="130.644036"/>
     <use style="fill:#1f77b4;stroke:#1f77b4;" x="228.327495" xlink:href="#m383668f792" y="28.094246"/>
     <use style="fill:#1f77b4;stroke:#1f77b4;" x="229.106043" xlink:href="#m383668f792" y="66.281551"/>
     <use style="fill:#1f77b4;stroke:#1f77b4;" x="229.884591" xlink:href="#m383668f792" y="95.967679"/>
     <use style="fill:#1f77b4;stroke:#1f77b4;" x="230.663139" xlink:href="#m383668f792" y="22.714446"/>
     <use style="fill:#1f77b4;stroke:#1f77b4;" x="231.441687" xlink:href="#m383668f792" y="89.63036"/>
     <use style="fill:#1f77b4;stroke:#1f77b4;" x="232.220235" xlink:href="#m383668f792" y="26.662012"/>
     <use style="fill:#1f77b4;stroke:#1f77b4;" x="232.998784" xlink:href="#m383668f792" y="86.497209"/>
     <use style="fill:#1f77b4;stroke:#1f77b4;" x="233.777332" xlink:href="#m383668f792" y="31.654112"/>
     <use style="fill:#1f77b4;stroke:#1f77b4;" x="234.55588" xlink:href="#m383668f792" y="33.997295"/>
     <use style="fill:#1f77b4;stroke:#1f77b4;" x="235.334428" xlink:href="#m383668f792" y="29.715658"/>
     <use style="fill:#1f77b4;stroke:#1f77b4;" x="236.112976" xlink:href="#m383668f792" y="46.001836"/>
     <use style="fill:#1f77b4;stroke:#1f77b4;" x="236.891524" xlink:href="#m383668f792" y="25.119006"/>
     <use style="fill:#1f77b4;stroke:#1f77b4;" x="237.670072" xlink:href="#m383668f792" y="148.081575"/>
     <use style="fill:#1f77b4;stroke:#1f77b4;" x="238.44862" xlink:href="#m383668f792" y="27.938322"/>
     <use style="fill:#1f77b4;stroke:#1f77b4;" x="239.227168" xlink:href="#m383668f792" y="67.85489"/>
     <use style="fill:#1f77b4;stroke:#1f77b4;" x="240.005716" xlink:href="#m383668f792" y="81.016071"/>
     <use style="fill:#1f77b4;stroke:#1f77b4;" x="240.784264" xlink:href="#m383668f792" y="22.922392"/>
     <use style="fill:#1f77b4;stroke:#1f77b4;" x="241.562812" xlink:href="#m383668f792" y="92.416898"/>
     <use style="fill:#1f77b4;stroke:#1f77b4;" x="242.34136" xlink:href="#m383668f792" y="26.742313"/>
     <use style="fill:#1f77b4;stroke:#1f77b4;" x="243.119908" xlink:href="#m383668f792" y="84.872092"/>
     <use style="fill:#1f77b4;stroke:#1f77b4;" x="243.898457" xlink:href="#m383668f792" y="32.265836"/>
     <use style="fill:#1f77b4;stroke:#1f77b4;" x="244.677005" xlink:href="#m383668f792" y="32.453631"/>
     <use style="fill:#1f77b4;stroke:#1f77b4;" x="245.455553" xlink:href="#m383668f792" y="31.531769"/>
     <use style="fill:#1f77b4;stroke:#1f77b4;" x="246.234101" xlink:href="#m383668f792" y="35.417607"/>
     <use style="fill:#1f77b4;stroke:#1f77b4;" x="247.012649" xlink:href="#m383668f792" y="28.726302"/>
     <use style="fill:#1f77b4;stroke:#1f77b4;" x="247.791197" xlink:href="#m383668f792" y="56.433983"/>
     <use style="fill:#1f77b4;stroke:#1f77b4;" x="248.569745" xlink:href="#m383668f792" y="80.620237"/>
     <use style="fill:#1f77b4;stroke:#1f77b4;" x="249.348293" xlink:href="#m383668f792" y="25.085277"/>
     <use style="fill:#1f77b4;stroke:#1f77b4;" x="250.126841" xlink:href="#m383668f792" y="152.50086"/>
     <use style="fill:#1f77b4;stroke:#1f77b4;" x="250.905389" xlink:href="#m383668f792" y="27.927377"/>
     <use style="fill:#1f77b4;stroke:#1f77b4;" x="251.683937" xlink:href="#m383668f792" y="67.326278"/>
     <use style="fill:#1f77b4;stroke:#1f77b4;" x="252.462485" xlink:href="#m383668f792" y="88.101353"/>
     <use style="fill:#1f77b4;stroke:#1f77b4;" x="253.241033" xlink:href="#m383668f792" y="22.642167"/>
     <use style="fill:#1f77b4;stroke:#1f77b4;" x="254.019581" xlink:href="#m383668f792" y="91.960114"/>
     <use style="fill:#1f77b4;stroke:#1f77b4;" x="254.798129" xlink:href="#m383668f792" y="26.756481"/>
     <use style="fill:#1f77b4;stroke:#1f77b4;" x="255.576678" xlink:href="#m383668f792" y="86.023807"/>
     <use style="fill:#1f77b4;stroke:#1f77b4;" x="256.355226" xlink:href="#m383668f792" y="31.410361"/>
     <use style="fill:#1f77b4;stroke:#1f77b4;" x="257.133774" xlink:href="#m383668f792" y="35.99783"/>
     <use style="fill:#1f77b4;stroke:#1f77b4;" x="257.912322" xlink:href="#m383668f792" y="27.965111"/>
     <use style="fill:#1f77b4;stroke:#1f77b4;" x="258.69087" xlink:href="#m383668f792" y="68.680235"/>
     <use style="fill:#1f77b4;stroke:#1f77b4;" x="259.469418" xlink:href="#m383668f792" y="70.832824"/>
     <use style="fill:#1f77b4;stroke:#1f77b4;" x="260.247966" xlink:href="#m383668f792" y="23.514757"/>
     <use style="fill:#1f77b4;stroke:#1f77b4;" x="261.026514" xlink:href="#m383668f792" y="103.607766"/>
     <use style="fill:#1f77b4;stroke:#1f77b4;" x="261.805062" xlink:href="#m383668f792" y="27.286066"/>
     <use style="fill:#1f77b4;stroke:#1f77b4;" x="262.58361" xlink:href="#m383668f792" y="69.509854"/>
     <use style="fill:#1f77b4;stroke:#1f77b4;" x="263.362158" xlink:href="#m383668f792" y="23.45061"/>
     <use style="fill:#1f77b4;stroke:#1f77b4;" x="264.140706" xlink:href="#m383668f792" y="104.676692"/>
     <use style="fill:#1f77b4;stroke:#1f77b4;" x="264.919254" xlink:href="#m383668f792" y="27.06884"/>
     <use style="fill:#1f77b4;stroke:#1f77b4;" x="265.697802" xlink:href="#m383668f792" y="80.691345"/>
     <use style="fill:#1f77b4;stroke:#1f77b4;" x="266.476351" xlink:href="#m383668f792" y="33.892439"/>
     <use style="fill:#1f77b4;stroke:#1f77b4;" x="267.254899" xlink:href="#m383668f792" y="30.81014"/>
     <use style="fill:#1f77b4;stroke:#1f77b4;" x="268.033447" xlink:href="#m383668f792" y="33.69548"/>
     <use style="fill:#1f77b4;stroke:#1f77b4;" x="268.811995" xlink:href="#m383668f792" y="32.144457"/>
     <use style="fill:#1f77b4;stroke:#1f77b4;" x="269.590543" xlink:href="#m383668f792" y="31.3578"/>
     <use style="fill:#1f77b4;stroke:#1f77b4;" x="270.369091" xlink:href="#m383668f792" y="39.21851"/>
     <use style="fill:#1f77b4;stroke:#1f77b4;" x="271.147639" xlink:href="#m383668f792" y="26.521398"/>
     <use style="fill:#1f77b4;stroke:#1f77b4;" x="271.926187" xlink:href="#m383668f792" y="93.557456"/>
     <use style="fill:#1f77b4;stroke:#1f77b4;" x="272.704735" xlink:href="#m383668f792" y="29.57157"/>
     <use style="fill:#1f77b4;stroke:#1f77b4;" x="273.483283" xlink:href="#m383668f792" y="48.665564"/>
     <use style="fill:#1f77b4;stroke:#1f77b4;" x="274.261831" xlink:href="#m383668f792" y="24.701709"/>
     <use style="fill:#1f77b4;stroke:#1f77b4;" x="275.040379" xlink:href="#m383668f792" y="160.864293"/>
     <use style="fill:#1f77b4;stroke:#1f77b4;" x="275.818927" xlink:href="#m383668f792" y="27.656932"/>
     <use style="fill:#1f77b4;stroke:#1f77b4;" x="276.597475" xlink:href="#m383668f792" y="70.051788"/>
     <use style="fill:#1f77b4;stroke:#1f77b4;" x="277.376024" xlink:href="#m383668f792" y="70.274065"/>
     <use style="fill:#1f77b4;stroke:#1f77b4;" x="278.154572" xlink:href="#m383668f792" y="22.925197"/>
     <use style="fill:#1f77b4;stroke:#1f77b4;" x="278.93312" xlink:href="#m383668f792" y="101.251948"/>
     <use style="fill:#1f77b4;stroke:#1f77b4;" x="279.711668" xlink:href="#m383668f792" y="27.048253"/>
     <use style="fill:#1f77b4;stroke:#1f77b4;" x="280.490216" xlink:href="#m383668f792" y="81.597805"/>
     <use style="fill:#1f77b4;stroke:#1f77b4;" x="281.268764" xlink:href="#m383668f792" y="33.001146"/>
     <use style="fill:#1f77b4;stroke:#1f77b4;" x="282.047312" xlink:href="#m383668f792" y="32.575842"/>
     <use style="fill:#1f77b4;stroke:#1f77b4;" x="282.82586" xlink:href="#m383668f792" y="30.369565"/>
     <use style="fill:#1f77b4;stroke:#1f77b4;" x="283.604408" xlink:href="#m383668f792" y="45.758405"/>
     <use style="fill:#1f77b4;stroke:#1f77b4;" x="284.382956" xlink:href="#m383668f792" y="25.053457"/>
     <use style="fill:#1f77b4;stroke:#1f77b4;" x="285.161504" xlink:href="#m383668f792" y="163.221975"/>
     <use style="fill:#1f77b4;stroke:#1f77b4;" x="285.940052" xlink:href="#m383668f792" y="27.849667"/>
     <use style="fill:#1f77b4;stroke:#1f77b4;" x="286.7186" xlink:href="#m383668f792" y="68.776359"/>
     <use style="fill:#1f77b4;stroke:#1f77b4;" x="287.497148" xlink:href="#m383668f792" y="74.408843"/>
     <use style="fill:#1f77b4;stroke:#1f77b4;" x="288.275697" xlink:href="#m383668f792" y="23.058498"/>
     <use style="fill:#1f77b4;stroke:#1f77b4;" x="289.054245" xlink:href="#m383668f792" y="94.545415"/>
     <use style="fill:#1f77b4;stroke:#1f77b4;" x="289.832793" xlink:href="#m383668f792" y="26.79889"/>
     <use style="fill:#1f77b4;stroke:#1f77b4;" x="290.611341" xlink:href="#m383668f792" y="83.854147"/>
     <use style="fill:#1f77b4;stroke:#1f77b4;" x="291.389889" xlink:href="#m383668f792" y="32.696945"/>
     <use style="fill:#1f77b4;stroke:#1f77b4;" x="292.168437" xlink:href="#m383668f792" y="31.678804"/>
     <use style="fill:#1f77b4;stroke:#1f77b4;" x="292.946985" xlink:href="#m383668f792" y="32.864856"/>
     <use style="fill:#1f77b4;stroke:#1f77b4;" x="293.725533" xlink:href="#m383668f792" y="32.241695"/>
     <use style="fill:#1f77b4;stroke:#1f77b4;" x="294.504081" xlink:href="#m383668f792" y="32.086973"/>
     <use style="fill:#1f77b4;stroke:#1f77b4;" x="295.282629" xlink:href="#m383668f792" y="33.941697"/>
     <use style="fill:#1f77b4;stroke:#1f77b4;" x="296.061177" xlink:href="#m383668f792" y="29.921687"/>
     <use style="fill:#1f77b4;stroke:#1f77b4;" x="296.839725" xlink:href="#m383668f792" y="44.565826"/>
     <use style="fill:#1f77b4;stroke:#1f77b4;" x="297.618273" xlink:href="#m383668f792" y="25.386772"/>
     <use style="fill:#1f77b4;stroke:#1f77b4;" x="298.396821" xlink:href="#m383668f792" y="128.400288"/>
     <use style="fill:#1f77b4;stroke:#1f77b4;" x="299.17537" xlink:href="#m383668f792" y="28.157335"/>
     <use style="fill:#1f77b4;stroke:#1f77b4;" x="299.953918" xlink:href="#m383668f792" y="64.81501"/>
     <use style="fill:#1f77b4;stroke:#1f77b4;" x="300.732466" xlink:href="#m383668f792" y="127.059338"/>
     <use style="fill:#1f77b4;stroke:#1f77b4;" x="301.511014" xlink:href="#m383668f792" y="22.342706"/>
     <use style="fill:#1f77b4;stroke:#1f77b4;" x="302.289562" xlink:href="#m383668f792" y="90.385228"/>
     <use style="fill:#1f77b4;stroke:#1f77b4;" x="303.06811" xlink:href="#m383668f792" y="26.750005"/>
     <use style="fill:#1f77b4;stroke:#1f77b4;" x="303.846658" xlink:href="#m383668f792" y="86.441905"/>
     <use style="fill:#1f77b4;stroke:#1f77b4;" x="304.625206" xlink:href="#m383668f792" y="31.214153"/>
     <use style="fill:#1f77b4;stroke:#1f77b4;" x="305.403754" xlink:href="#m383668f792" y="37.074099"/>
     <use style="fill:#1f77b4;stroke:#1f77b4;" x="306.182302" xlink:href="#m383668f792" y="27.378968"/>
     <use style="fill:#1f77b4;stroke:#1f77b4;" x="306.96085" xlink:href="#m383668f792" y="77.506063"/>
     <use style="fill:#1f77b4;stroke:#1f77b4;" x="307.739398" xlink:href="#m383668f792" y="35.857755"/>
     <use style="fill:#1f77b4;stroke:#1f77b4;" x="308.517946" xlink:href="#m383668f792" y="30.071305"/>
     <use style="fill:#1f77b4;stroke:#1f77b4;" x="309.296494" xlink:href="#m383668f792" y="33.913851"/>
     <use style="fill:#1f77b4;stroke:#1f77b4;" x="310.075043" xlink:href="#m383668f792" y="34.693583"/>
     <use style="fill:#1f77b4;stroke:#1f77b4;" x="310.853591" xlink:href="#m383668f792" y="28.125301"/>
     <use style="fill:#1f77b4;stroke:#1f77b4;" x="311.632139" xlink:href="#m383668f792" y="71.639119"/>
     <use style="fill:#1f77b4;stroke:#1f77b4;" x="312.410687" xlink:href="#m383668f792" y="52.388178"/>
     <use style="fill:#1f77b4;stroke:#1f77b4;" x="313.189235" xlink:href="#m383668f792" y="25.457198"/>
     <use style="fill:#1f77b4;stroke:#1f77b4;" x="313.967783" xlink:href="#m383668f792" y="84.735558"/>
     <use style="fill:#1f77b4;stroke:#1f77b4;" x="314.746331" xlink:href="#m383668f792" y="23.450919"/>
     <use style="fill:#1f77b4;stroke:#1f77b4;" x="315.524879" xlink:href="#m383668f792" y="100.935378"/>
     <use style="fill:#1f77b4;stroke:#1f77b4;" x="316.303427" xlink:href="#m383668f792" y="27.088651"/>
     <use style="fill:#1f77b4;stroke:#1f77b4;" x="317.081975" xlink:href="#m383668f792" y="75.886134"/>
     <use style="fill:#1f77b4;stroke:#1f77b4;" x="317.860523" xlink:href="#m383668f792" y="55.150865"/>
     <use style="fill:#1f77b4;stroke:#1f77b4;" x="318.639071" xlink:href="#m383668f792" y="62.614627"/>
     <use style="fill:#1f77b4;stroke:#1f77b4;" x="319.417619" xlink:href="#m383668f792" y="21.778635"/>
     <use style="fill:#1f77b4;stroke:#1f77b4;" x="320.196167" xlink:href="#m383668f792" y="81.375116"/>
     <use style="fill:#1f77b4;stroke:#1f77b4;" x="320.974716" xlink:href="#m383668f792" y="26.373518"/>
     <use style="fill:#1f77b4;stroke:#1f77b4;" x="321.753264" xlink:href="#m383668f792" y="93.352269"/>
     <use style="fill:#1f77b4;stroke:#1f77b4;" x="322.531812" xlink:href="#m383668f792" y="30.1"/>
     <use style="fill:#1f77b4;stroke:#1f77b4;" x="323.31036" xlink:href="#m383668f792" y="42.134635"/>
     <use style="fill:#1f77b4;stroke:#1f77b4;" x="324.088908" xlink:href="#m383668f792" y="25.863952"/>
     <use style="fill:#1f77b4;stroke:#1f77b4;" x="324.867456" xlink:href="#m383668f792" y="108.303728"/>
     <use style="fill:#1f77b4;stroke:#1f77b4;" x="325.646004" xlink:href="#m383668f792" y="28.685758"/>
     <use style="fill:#1f77b4;stroke:#1f77b4;" x="326.424552" xlink:href="#m383668f792" y="58.036043"/>
     <use style="fill:#1f77b4;stroke:#1f77b4;" x="327.2031" xlink:href="#m383668f792" y="80.190996"/>
     <use style="fill:#1f77b4;stroke:#1f77b4;" x="327.981648" xlink:href="#m383668f792" y="25.130269"/>
     <use style="fill:#1f77b4;stroke:#1f77b4;" x="328.760196" xlink:href="#m383668f792" y="142.837425"/>
     <use style="fill:#1f77b4;stroke:#1f77b4;" x="329.538744" xlink:href="#m383668f792" y="28.267186"/>
     <use style="fill:#1f77b4;stroke:#1f77b4;" x="330.317292" xlink:href="#m383668f792" y="58.690933"/>
     <use style="fill:#1f77b4;stroke:#1f77b4;" x="331.09584" xlink:href="#m383668f792" y="23.880486"/>
     <use style="fill:#1f77b4;stroke:#1f77b4;" x="331.874388" xlink:href="#m383668f792" y="116.748861"/>
     <use style="fill:#1f77b4;stroke:#1f77b4;" x="332.652937" xlink:href="#m383668f792" y="27.271989"/>
     <use style="fill:#1f77b4;stroke:#1f77b4;" x="333.431485" xlink:href="#m383668f792" y="77.656447"/>
     <use style="fill:#1f77b4;stroke:#1f77b4;" x="334.210033" xlink:href="#m383668f792" y="36.988259"/>
     <use style="fill:#1f77b4;stroke:#1f77b4;" x="334.988581" xlink:href="#m383668f792" y="28.389485"/>
     <use style="fill:#1f77b4;stroke:#1f77b4;" x="335.767129" xlink:href="#m383668f792" y="46.706792"/>
     <use style="fill:#1f77b4;stroke:#1f77b4;" x="336.545677" xlink:href="#m383668f792" y="25.699629"/>
     <use style="fill:#1f77b4;stroke:#1f77b4;" x="337.324225" xlink:href="#m383668f792" y="99.624071"/>
     <use style="fill:#1f77b4;stroke:#1f77b4;" x="338.102773" xlink:href="#m383668f792" y="37.184053"/>
     <use style="fill:#1f77b4;stroke:#1f77b4;" x="338.881321" xlink:href="#m383668f792" y="22.175239"/>
     <use style="fill:#1f77b4;stroke:#1f77b4;" x="339.659869" xlink:href="#m383668f792" y="25.024947"/>
     <use style="fill:#1f77b4;stroke:#1f77b4;" x="340.438417" xlink:href="#m383668f792" y="163.583704"/>
     <use style="fill:#1f77b4;stroke:#1f77b4;" x="341.216965" xlink:href="#m383668f792" y="27.934642"/>
     <use style="fill:#1f77b4;stroke:#1f77b4;" x="341.995513" xlink:href="#m383668f792" y="67.267518"/>
     <use style="fill:#1f77b4;stroke:#1f77b4;" x="342.774061" xlink:href="#m383668f792" y="89.235459"/>
     <use style="fill:#1f77b4;stroke:#1f77b4;" x="343.55261" xlink:href="#m383668f792" y="22.606382"/>
     <use style="fill:#1f77b4;stroke:#1f77b4;" x="344.331158" xlink:href="#m383668f792" y="92.479693"/>
     <use style="fill:#1f77b4;stroke:#1f77b4;" x="345.109706" xlink:href="#m383668f792" y="26.785524"/>
     <use style="fill:#1f77b4;stroke:#1f77b4;" x="345.888254" xlink:href="#m383668f792" y="85.66414"/>
     <use style="fill:#1f77b4;stroke:#1f77b4;" x="346.666802" xlink:href="#m383668f792" y="31.470427"/>
     <use style="fill:#1f77b4;stroke:#1f77b4;" x="347.44535" xlink:href="#m383668f792" y="35.962706"/>
     <use style="fill:#1f77b4;stroke:#1f77b4;" x="348.223898" xlink:href="#m383668f792" y="27.945463"/>
     <use style="fill:#1f77b4;stroke:#1f77b4;" x="349.002446" xlink:href="#m383668f792" y="69.290582"/>
     <use style="fill:#1f77b4;stroke:#1f77b4;" x="349.780994" xlink:href="#m383668f792" y="66.150413"/>
     <use style="fill:#1f77b4;stroke:#1f77b4;" x="350.559542" xlink:href="#m383668f792" y="23.78366"/>
     <use style="fill:#1f77b4;stroke:#1f77b4;" x="351.33809" xlink:href="#m383668f792" y="113.040663"/>
     <use style="fill:#1f77b4;stroke:#1f77b4;" x="352.116638" xlink:href="#m383668f792" y="28.127778"/>
     <use style="fill:#1f77b4;stroke:#1f77b4;" x="352.895186" xlink:href="#m383668f792" y="50.344073"/>
     <use style="fill:#1f77b4;stroke:#1f77b4;" x="353.673734" xlink:href="#m383668f792" y="25.524379"/>
     <use style="fill:#1f77b4;stroke:#1f77b4;" x="354.452283" xlink:href="#m383668f792" y="99.271163"/>
     <use style="fill:#1f77b4;stroke:#1f77b4;" x="355.230831" xlink:href="#m383668f792" y="22.906476"/>
     <use style="fill:#1f77b4;stroke:#1f77b4;" x="356.009379" xlink:href="#m383668f792" y="96.379221"/>
     <use style="fill:#1f77b4;stroke:#1f77b4;" x="356.787927" xlink:href="#m383668f792" y="26.904109"/>
     <use style="fill:#1f77b4;stroke:#1f77b4;" x="357.566475" xlink:href="#m383668f792" y="83.623064"/>
     <use style="fill:#1f77b4;stroke:#1f77b4;" x="358.345023" xlink:href="#m383668f792" y="32.200478"/>
     <use style="fill:#1f77b4;stroke:#1f77b4;" x="359.123571" xlink:href="#m383668f792" y="33.813604"/>
     <use style="fill:#1f77b4;stroke:#1f77b4;" x="359.902119" xlink:href="#m383668f792" y="29.371207"/>
     <use style="fill:#1f77b4;stroke:#1f77b4;" x="360.680667" xlink:href="#m383668f792" y="53.059871"/>
     <use style="fill:#1f77b4;stroke:#1f77b4;" x="361.459215" xlink:href="#m383668f792" y="57.76728"/>
     <use style="fill:#1f77b4;stroke:#1f77b4;" x="362.237763" xlink:href="#m383668f792" y="24.665953"/>
     <use style="fill:#1f77b4;stroke:#1f77b4;" x="363.016311" xlink:href="#m383668f792" y="156.399655"/>
     <use style="fill:#1f77b4;stroke:#1f77b4;" x="363.794859" xlink:href="#m383668f792" y="27.705201"/>
     <use style="fill:#1f77b4;stroke:#1f77b4;" x="364.573407" xlink:href="#m383668f792" y="68.21616"/>
     <use style="fill:#1f77b4;stroke:#1f77b4;" x="365.351956" xlink:href="#m383668f792" y="87.985506"/>
     <use style="fill:#1f77b4;stroke:#1f77b4;" x="366.130504" xlink:href="#m383668f792" y="28.330547"/>
     <use style="fill:#1f77b4;stroke:#1f77b4;" x="366.909052" xlink:href="#m383668f792" y="58.621519"/>
     <use style="fill:#1f77b4;stroke:#1f77b4;" x="367.6876" xlink:href="#m383668f792" y="83.93797"/>
     <use style="fill:#1f77b4;stroke:#1f77b4;" x="368.466148" xlink:href="#m383668f792" y="25.469181"/>
     <use style="fill:#1f77b4;stroke:#1f77b4;" x="369.244696" xlink:href="#m383668f792" y="110.962097"/>
     <use style="fill:#1f77b4;stroke:#1f77b4;" x="370.023244" xlink:href="#m383668f792" y="22.771899"/>
     <use style="fill:#1f77b4;stroke:#1f77b4;" x="370.801792" xlink:href="#m383668f792" y="97.87235"/>
     <use style="fill:#1f77b4;stroke:#1f77b4;" x="371.58034" xlink:href="#m383668f792" y="26.990004"/>
     <use style="fill:#1f77b4;stroke:#1f77b4;" x="372.358888" xlink:href="#m383668f792" y="82.586695"/>
     <use style="fill:#1f77b4;stroke:#1f77b4;" x="373.137436" xlink:href="#m383668f792" y="32.516743"/>
     <use style="fill:#1f77b4;stroke:#1f77b4;" x="373.915984" xlink:href="#m383668f792" y="33.474278"/>
     <use style="fill:#1f77b4;stroke:#1f77b4;" x="374.694532" xlink:href="#m383668f792" y="29.515139"/>
     <use style="fill:#1f77b4;stroke:#1f77b4;" x="375.47308" xlink:href="#m383668f792" y="52.761214"/>
     <use style="fill:#1f77b4;stroke:#1f77b4;" x="376.251629" xlink:href="#m383668f792" y="59.019027"/>
     <use style="fill:#1f77b4;stroke:#1f77b4;" x="377.030177" xlink:href="#m383668f792" y="24.853803"/>
     <use style="fill:#1f77b4;stroke:#1f77b4;" x="377.280926" xlink:href="#m383668f792" y="22383.514"/>
    </g>
   </g>
   <g id="line2d_42">
    <path clip-path="url(#pd5a734249c)" d="M 92.860131 27.620911 
L 94.417227 63.782155 
L 95.974323 100.498501 
" style="fill:none;stroke:#2ca02c;stroke-dasharray:1.5,2.475;stroke-dashoffset:0;stroke-width:1.5;"/>
    <defs>
     <path d="M -3 3 
L 3 -3 
M -3 -3 
L 3 3 
" id="m252685a31d" style="stroke:#2ca02c;"/>
    </defs>
    <g clip-path="url(#pd5a734249c)">
     <use style="fill:#2ca02c;stroke:#2ca02c;" x="92.860131" xlink:href="#m252685a31d" y="27.620911"/>
     <use style="fill:#2ca02c;stroke:#2ca02c;" x="94.417227" xlink:href="#m252685a31d" y="63.782155"/>
     <use style="fill:#2ca02c;stroke:#2ca02c;" x="95.974323" xlink:href="#m252685a31d" y="100.498501"/>
    </g>
   </g>
   <g id="line2d_43">
    <path clip-path="url(#pd5a734249c)" d="M 54.711275 199.779577 
L 59.501029 311.86825 
L 59.501029 311.86825 
" style="fill:none;stroke:#000000;stroke-dasharray:5.55,2.4;stroke-dashoffset:0;stroke-width:1.5;"/>
   </g>
   <g id="patch_3">
    <path d="M 37.7 273.312 
L 37.7 7.2 
" style="fill:none;stroke:#000000;stroke-linecap:square;stroke-linejoin:miter;stroke-width:0.8;"/>
   </g>
   <g id="patch_4">
    <path d="M 394.82 273.312 
L 394.82 7.2 
" style="fill:none;stroke:#000000;stroke-linecap:square;stroke-linejoin:miter;stroke-width:0.8;"/>
   </g>
   <g id="patch_5">
    <path d="M 37.7 273.312 
L 394.82 273.312 
" style="fill:none;stroke:#000000;stroke-linecap:square;stroke-linejoin:miter;stroke-width:0.8;"/>
   </g>
   <g id="patch_6">
    <path d="M 37.7 7.2 
L 394.82 7.2 
" style="fill:none;stroke:#000000;stroke-linecap:square;stroke-linejoin:miter;stroke-width:0.8;"/>
   </g>
   <g id="legend_1">
    <g id="patch_7">
     <path d="M 286.72 268.312 
L 387.82 268.312 
Q 389.82 268.312 389.82 266.312 
L 389.82 223.25575 
Q 389.82 221.25575 387.82 221.25575 
L 286.72 221.25575 
Q 284.72 221.25575 284.72 223.25575 
L 284.72 266.312 
Q 284.72 268.312 286.72 268.312 
z
" style="fill:#ffffff;opacity:0.8;"/>
    </g>
    <g id="line2d_44">
     <path d="M 288.72 229.354187 
L 308.72 229.354187 
" style="fill:none;stroke:#1f77b4;stroke-linecap:square;stroke-width:1.5;"/>
    </g>
    <g id="line2d_45">
     <g>
      <use style="fill:#1f77b4;stroke:#1f77b4;" x="298.72" xlink:href="#m383668f792" y="229.354187"/>
     </g>
    </g>
    <g id="text_11">
     <!-- APD$_n$ - APD$_\infty$ -->
     <defs>
      <path d="M 34.1875 63.1875 
L 20.796875 26.90625 
L 47.609375 26.90625 
z
M 28.609375 72.90625 
L 39.796875 72.90625 
L 67.578125 0 
L 57.328125 0 
L 50.6875 18.703125 
L 17.828125 18.703125 
L 11.1875 0 
L 0.78125 0 
z
" id="DejaVuSans-65"/>
      <path d="M 19.671875 64.796875 
L 19.671875 37.40625 
L 32.078125 37.40625 
Q 38.96875 37.40625 42.71875 40.96875 
Q 46.484375 44.53125 46.484375 51.125 
Q 46.484375 57.671875 42.71875 61.234375 
Q 38.96875 64.796875 32.078125 64.796875 
z
M 9.8125 72.90625 
L 32.078125 72.90625 
Q 44.34375 72.90625 50.609375 67.359375 
Q 56.890625 61.8125 56.890625 51.125 
Q 56.890625 40.328125 50.609375 34.8125 
Q 44.34375 29.296875 32.078125 29.296875 
L 19.671875 29.296875 
L 19.671875 0 
L 9.8125 0 
z
" id="DejaVuSans-80"/>
      <path d="M 19.671875 64.796875 
L 19.671875 8.109375 
L 31.59375 8.109375 
Q 46.6875 8.109375 53.6875 14.9375 
Q 60.6875 21.78125 60.6875 36.53125 
Q 60.6875 51.171875 53.6875 57.984375 
Q 46.6875 64.796875 31.59375 64.796875 
z
M 9.8125 72.90625 
L 30.078125 72.90625 
Q 51.265625 72.90625 61.171875 64.09375 
Q 71.09375 55.28125 71.09375 36.53125 
Q 71.09375 17.671875 61.125 8.828125 
Q 51.171875 0 30.078125 0 
L 9.8125 0 
z
" id="DejaVuSans-68"/>
      <path d="M 55.71875 33.015625 
L 49.3125 0 
L 40.28125 0 
L 46.6875 32.671875 
Q 47.125 34.96875 47.359375 36.71875 
Q 47.609375 38.484375 47.609375 39.5 
Q 47.609375 43.609375 45.015625 45.890625 
Q 42.4375 48.1875 37.796875 48.1875 
Q 30.5625 48.1875 25.34375 43.375 
Q 20.125 38.578125 18.5 30.328125 
L 12.5 0 
L 3.515625 0 
L 14.109375 54.6875 
L 23.09375 54.6875 
L 21.296875 46.09375 
Q 25.046875 50.828125 30.3125 53.40625 
Q 35.59375 56 41.40625 56 
Q 48.640625 56 52.609375 52.09375 
Q 56.59375 48.1875 56.59375 41.109375 
Q 56.59375 39.359375 56.375 37.359375 
Q 56.15625 35.359375 55.71875 33.015625 
z
" id="DejaVuSans-Oblique-110"/>
      <path id="DejaVuSans-32"/>
      <path d="M 4.890625 31.390625 
L 31.203125 31.390625 
L 31.203125 23.390625 
L 4.890625 23.390625 
z
" id="DejaVuSans-45"/>
      <path d="M 45.5625 17.046875 
Q 44.046875 18.796875 41.65625 22.90625 
Q 38.375 17.046875 35.5 14.453125 
Q 31.890625 11.328125 26.265625 11.328125 
Q 19.671875 11.328125 15.328125 16.265625 
Q 10.75 21.4375 10.75 29.984375 
Q 10.75 38.1875 15.328125 43.75 
Q 19.4375 48.6875 26.375 48.6875 
Q 29.9375 48.6875 32.5625 47.21875 
Q 35.640625 45.609375 37.75 42.828125 
Q 39.703125 40.328125 41.65625 36.96875 
Q 44.921875 42.828125 47.796875 45.40625 
Q 51.421875 48.53125 57.03125 48.53125 
Q 63.625 48.53125 67.96875 43.609375 
Q 72.5625 38.421875 72.5625 29.890625 
Q 72.5625 21.6875 67.96875 16.109375 
Q 63.875 11.1875 56.9375 11.1875 
Q 53.375 11.1875 50.734375 12.640625 
Q 48.09375 13.96875 45.5625 17.046875 
z
M 25.734375 17.71875 
Q 33.796875 17.71875 38.625 29.4375 
Q 32.421875 42.234375 25.734375 42.234375 
Q 20.84375 42.234375 18.359375 38.71875 
Q 15.671875 34.96875 15.671875 29.984375 
Q 15.671875 24.515625 18.359375 21.140625 
Q 21.09375 17.71875 25.734375 17.71875 
z
M 57.5625 42.140625 
Q 50.296875 42.140625 44.671875 30.421875 
Q 50.828125 17.625 57.5625 17.625 
Q 62.453125 17.625 64.9375 21.140625 
Q 67.625 24.90625 67.625 29.890625 
Q 67.625 35.359375 64.9375 38.71875 
Q 62.203125 42.140625 57.5625 42.140625 
z
" id="DejaVuSans-8734"/>
     </defs>
     <g transform="translate(316.72 232.854187)scale(0.1 -0.1)">
      <use transform="translate(0 0.09375)" xlink:href="#DejaVuSans-65"/>
      <use transform="translate(68.408203 0.09375)" xlink:href="#DejaVuSans-80"/>
      <use transform="translate(128.710938 0.09375)" xlink:href="#DejaVuSans-68"/>
      <use transform="translate(206.669922 -16.3125)scale(0.7)" xlink:href="#DejaVuSans-Oblique-110"/>
      <use transform="translate(253.769531 0.09375)" xlink:href="#DejaVuSans-32"/>
      <use transform="translate(285.556641 0.09375)" xlink:href="#DejaVuSans-45"/>
      <use transform="translate(321.640625 0.09375)" xlink:href="#DejaVuSans-32"/>
      <use transform="translate(353.427734 0.09375)" xlink:href="#DejaVuSans-65"/>
      <use transform="translate(421.835938 0.09375)" xlink:href="#DejaVuSans-80"/>
      <use transform="translate(482.138672 0.09375)" xlink:href="#DejaVuSans-68"/>
      <use transform="translate(560.097656 -16.3125)scale(0.7)" xlink:href="#DejaVuSans-8734"/>
     </g>
    </g>
    <g id="line2d_46">
     <path d="M 288.72 244.032312 
L 308.72 244.032312 
" style="fill:none;stroke:#2ca02c;stroke-dasharray:1.5,2.475;stroke-dashoffset:0;stroke-width:1.5;"/>
    </g>
    <g id="line2d_47">
     <g>
      <use style="fill:#2ca02c;stroke:#2ca02c;" x="298.72" xlink:href="#m252685a31d" y="244.032312"/>
     </g>
    </g>
    <g id="text_12">
     <!-- linear region -->
     <defs>
      <path d="M 9.421875 75.984375 
L 18.40625 75.984375 
L 18.40625 0 
L 9.421875 0 
z
" id="DejaVuSans-108"/>
      <path d="M 9.421875 54.6875 
L 18.40625 54.6875 
L 18.40625 0 
L 9.421875 0 
z
M 9.421875 75.984375 
L 18.40625 75.984375 
L 18.40625 64.59375 
L 9.421875 64.59375 
z
" id="DejaVuSans-105"/>
      <path d="M 54.890625 33.015625 
L 54.890625 0 
L 45.90625 0 
L 45.90625 32.71875 
Q 45.90625 40.484375 42.875 44.328125 
Q 39.84375 48.1875 33.796875 48.1875 
Q 26.515625 48.1875 22.3125 43.546875 
Q 18.109375 38.921875 18.109375 30.90625 
L 18.109375 0 
L 9.078125 0 
L 9.078125 54.6875 
L 18.109375 54.6875 
L 18.109375 46.1875 
Q 21.34375 51.125 25.703125 53.5625 
Q 30.078125 56 35.796875 56 
Q 45.21875 56 50.046875 50.171875 
Q 54.890625 44.34375 54.890625 33.015625 
z
" id="DejaVuSans-110"/>
      <path d="M 56.203125 29.59375 
L 56.203125 25.203125 
L 14.890625 25.203125 
Q 15.484375 15.921875 20.484375 11.0625 
Q 25.484375 6.203125 34.421875 6.203125 
Q 39.59375 6.203125 44.453125 7.46875 
Q 49.3125 8.734375 54.109375 11.28125 
L 54.109375 2.78125 
Q 49.265625 0.734375 44.1875 -0.34375 
Q 39.109375 -1.421875 33.890625 -1.421875 
Q 20.796875 -1.421875 13.15625 6.1875 
Q 5.515625 13.8125 5.515625 26.8125 
Q 5.515625 40.234375 12.765625 48.109375 
Q 20.015625 56 32.328125 56 
Q 43.359375 56 49.78125 48.890625 
Q 56.203125 41.796875 56.203125 29.59375 
z
M 47.21875 32.234375 
Q 47.125 39.59375 43.09375 43.984375 
Q 39.0625 48.390625 32.421875 48.390625 
Q 24.90625 48.390625 20.390625 44.140625 
Q 15.875 39.890625 15.1875 32.171875 
z
" id="DejaVuSans-101"/>
      <path d="M 34.28125 27.484375 
Q 23.390625 27.484375 19.1875 25 
Q 14.984375 22.515625 14.984375 16.5 
Q 14.984375 11.71875 18.140625 8.90625 
Q 21.296875 6.109375 26.703125 6.109375 
Q 34.1875 6.109375 38.703125 11.40625 
Q 43.21875 16.703125 43.21875 25.484375 
L 43.21875 27.484375 
z
M 52.203125 31.203125 
L 52.203125 0 
L 43.21875 0 
L 43.21875 8.296875 
Q 40.140625 3.328125 35.546875 0.953125 
Q 30.953125 -1.421875 24.3125 -1.421875 
Q 15.921875 -1.421875 10.953125 3.296875 
Q 6 8.015625 6 15.921875 
Q 6 25.140625 12.171875 29.828125 
Q 18.359375 34.515625 30.609375 34.515625 
L 43.21875 34.515625 
L 43.21875 35.40625 
Q 43.21875 41.609375 39.140625 45 
Q 35.0625 48.390625 27.6875 48.390625 
Q 23 48.390625 18.546875 47.265625 
Q 14.109375 46.140625 10.015625 43.890625 
L 10.015625 52.203125 
Q 14.9375 54.109375 19.578125 55.046875 
Q 24.21875 56 28.609375 56 
Q 40.484375 56 46.34375 49.84375 
Q 52.203125 43.703125 52.203125 31.203125 
z
" id="DejaVuSans-97"/>
      <path d="M 41.109375 46.296875 
Q 39.59375 47.171875 37.8125 47.578125 
Q 36.03125 48 33.890625 48 
Q 26.265625 48 22.1875 43.046875 
Q 18.109375 38.09375 18.109375 28.8125 
L 18.109375 0 
L 9.078125 0 
L 9.078125 54.6875 
L 18.109375 54.6875 
L 18.109375 46.1875 
Q 20.953125 51.171875 25.484375 53.578125 
Q 30.03125 56 36.53125 56 
Q 37.453125 56 38.578125 55.875 
Q 39.703125 55.765625 41.0625 55.515625 
z
" id="DejaVuSans-114"/>
      <path d="M 45.40625 27.984375 
Q 45.40625 37.75 41.375 43.109375 
Q 37.359375 48.484375 30.078125 48.484375 
Q 22.859375 48.484375 18.828125 43.109375 
Q 14.796875 37.75 14.796875 27.984375 
Q 14.796875 18.265625 18.828125 12.890625 
Q 22.859375 7.515625 30.078125 7.515625 
Q 37.359375 7.515625 41.375 12.890625 
Q 45.40625 18.265625 45.40625 27.984375 
z
M 54.390625 6.78125 
Q 54.390625 -7.171875 48.1875 -13.984375 
Q 42 -20.796875 29.203125 -20.796875 
Q 24.46875 -20.796875 20.265625 -20.09375 
Q 16.0625 -19.390625 12.109375 -17.921875 
L 12.109375 -9.1875 
Q 16.0625 -11.328125 19.921875 -12.34375 
Q 23.78125 -13.375 27.78125 -13.375 
Q 36.625 -13.375 41.015625 -8.765625 
Q 45.40625 -4.15625 45.40625 5.171875 
L 45.40625 9.625 
Q 42.625 4.78125 38.28125 2.390625 
Q 33.9375 0 27.875 0 
Q 17.828125 0 11.671875 7.65625 
Q 5.515625 15.328125 5.515625 27.984375 
Q 5.515625 40.671875 11.671875 48.328125 
Q 17.828125 56 27.875 56 
Q 33.9375 56 38.28125 53.609375 
Q 42.625 51.21875 45.40625 46.390625 
L 45.40625 54.6875 
L 54.390625 54.6875 
z
" id="DejaVuSans-103"/>
      <path d="M 30.609375 48.390625 
Q 23.390625 48.390625 19.1875 42.75 
Q 14.984375 37.109375 14.984375 27.296875 
Q 14.984375 17.484375 19.15625 11.84375 
Q 23.34375 6.203125 30.609375 6.203125 
Q 37.796875 6.203125 41.984375 11.859375 
Q 46.1875 17.53125 46.1875 27.296875 
Q 46.1875 37.015625 41.984375 42.703125 
Q 37.796875 48.390625 30.609375 48.390625 
z
M 30.609375 56 
Q 42.328125 56 49.015625 48.375 
Q 55.71875 40.765625 55.71875 27.296875 
Q 55.71875 13.875 49.015625 6.21875 
Q 42.328125 -1.421875 30.609375 -1.421875 
Q 18.84375 -1.421875 12.171875 6.21875 
Q 5.515625 13.875 5.515625 27.296875 
Q 5.515625 40.765625 12.171875 48.375 
Q 18.84375 56 30.609375 56 
z
" id="DejaVuSans-111"/>
     </defs>
     <g transform="translate(316.72 247.532312)scale(0.1 -0.1)">
      <use xlink:href="#DejaVuSans-108"/>
      <use x="27.783203" xlink:href="#DejaVuSans-105"/>
      <use x="55.566406" xlink:href="#DejaVuSans-110"/>
      <use x="118.945312" xlink:href="#DejaVuSans-101"/>
      <use x="180.46875" xlink:href="#DejaVuSans-97"/>
      <use x="241.748047" xlink:href="#DejaVuSans-114"/>
      <use x="282.861328" xlink:href="#DejaVuSans-32"/>
      <use x="314.648438" xlink:href="#DejaVuSans-114"/>
      <use x="353.511719" xlink:href="#DejaVuSans-101"/>
      <use x="415.035156" xlink:href="#DejaVuSans-103"/>
      <use x="478.511719" xlink:href="#DejaVuSans-105"/>
      <use x="506.294922" xlink:href="#DejaVuSans-111"/>
      <use x="567.476562" xlink:href="#DejaVuSans-110"/>
     </g>
    </g>
    <g id="line2d_48">
     <path d="M 288.72 258.712 
L 308.72 258.712 
" style="fill:none;stroke:#000000;stroke-dasharray:5.55,2.4;stroke-dashoffset:0;stroke-width:1.5;"/>
    </g>
    <g id="line2d_49"/>
    <g id="text_13">
     <!-- $ \exp(-0.606 k)$ -->
     <defs>
      <path d="M 54.890625 54.6875 
L 35.109375 28.078125 
L 55.90625 0 
L 45.3125 0 
L 29.390625 21.484375 
L 13.484375 0 
L 2.875 0 
L 24.125 28.609375 
L 4.6875 54.6875 
L 15.28125 54.6875 
L 29.78125 35.203125 
L 44.28125 54.6875 
z
" id="DejaVuSans-120"/>
      <path d="M 18.109375 8.203125 
L 18.109375 -20.796875 
L 9.078125 -20.796875 
L 9.078125 54.6875 
L 18.109375 54.6875 
L 18.109375 46.390625 
Q 20.953125 51.265625 25.265625 53.625 
Q 29.59375 56 35.59375 56 
Q 45.5625 56 51.78125 48.09375 
Q 58.015625 40.1875 58.015625 27.296875 
Q 58.015625 14.40625 51.78125 6.484375 
Q 45.5625 -1.421875 35.59375 -1.421875 
Q 29.59375 -1.421875 25.265625 0.953125 
Q 20.953125 3.328125 18.109375 8.203125 
z
M 48.6875 27.296875 
Q 48.6875 37.203125 44.609375 42.84375 
Q 40.53125 48.484375 33.40625 48.484375 
Q 26.265625 48.484375 22.1875 42.84375 
Q 18.109375 37.203125 18.109375 27.296875 
Q 18.109375 17.390625 22.1875 11.75 
Q 26.265625 6.109375 33.40625 6.109375 
Q 40.53125 6.109375 44.609375 11.75 
Q 48.6875 17.390625 48.6875 27.296875 
z
" id="DejaVuSans-112"/>
      <path d="M 31 75.875 
Q 24.46875 64.65625 21.28125 53.65625 
Q 18.109375 42.671875 18.109375 31.390625 
Q 18.109375 20.125 21.3125 9.0625 
Q 24.515625 -2 31 -13.1875 
L 23.1875 -13.1875 
Q 15.875 -1.703125 12.234375 9.375 
Q 8.59375 20.453125 8.59375 31.390625 
Q 8.59375 42.28125 12.203125 53.3125 
Q 15.828125 64.359375 23.1875 75.875 
z
" id="DejaVuSans-40"/>
      <path d="M 10.6875 12.40625 
L 21 12.40625 
L 21 0 
L 10.6875 0 
z
" id="DejaVuSans-46"/>
      <path d="M 33.015625 40.375 
Q 26.375 40.375 22.484375 35.828125 
Q 18.609375 31.296875 18.609375 23.390625 
Q 18.609375 15.53125 22.484375 10.953125 
Q 26.375 6.390625 33.015625 6.390625 
Q 39.65625 6.390625 43.53125 10.953125 
Q 47.40625 15.53125 47.40625 23.390625 
Q 47.40625 31.296875 43.53125 35.828125 
Q 39.65625 40.375 33.015625 40.375 
z
M 52.59375 71.296875 
L 52.59375 62.3125 
Q 48.875 64.0625 45.09375 64.984375 
Q 41.3125 65.921875 37.59375 65.921875 
Q 27.828125 65.921875 22.671875 59.328125 
Q 17.53125 52.734375 16.796875 39.40625 
Q 19.671875 43.65625 24.015625 45.921875 
Q 28.375 48.1875 33.59375 48.1875 
Q 44.578125 48.1875 50.953125 41.515625 
Q 57.328125 34.859375 57.328125 23.390625 
Q 57.328125 12.15625 50.6875 5.359375 
Q 44.046875 -1.421875 33.015625 -1.421875 
Q 20.359375 -1.421875 13.671875 8.265625 
Q 6.984375 17.96875 6.984375 36.375 
Q 6.984375 53.65625 15.1875 63.9375 
Q 23.390625 74.21875 37.203125 74.21875 
Q 40.921875 74.21875 44.703125 73.484375 
Q 48.484375 72.75 52.59375 71.296875 
z
" id="DejaVuSans-54"/>
      <path d="M 8.015625 75.875 
L 15.828125 75.875 
Q 23.140625 64.359375 26.78125 53.3125 
Q 30.421875 42.28125 30.421875 31.390625 
Q 30.421875 20.453125 26.78125 9.375 
Q 23.140625 -1.703125 15.828125 -13.1875 
L 8.015625 -13.1875 
Q 14.5 -2 17.703125 9.0625 
Q 20.90625 20.125 20.90625 31.390625 
Q 20.90625 42.671875 17.703125 53.65625 
Q 14.5 64.65625 8.015625 75.875 
z
" id="DejaVuSans-41"/>
     </defs>
     <g transform="translate(316.72 262.212)scale(0.1 -0.1)">
      <use transform="translate(0 0.015625)" xlink:href="#DejaVuSans-101"/>
      <use transform="translate(61.523438 0.015625)" xlink:href="#DejaVuSans-120"/>
      <use transform="translate(120.703125 0.015625)" xlink:href="#DejaVuSans-112"/>
      <use transform="translate(184.179688 0.015625)" xlink:href="#DejaVuSans-40"/>
      <use transform="translate(223.193359 0.015625)" xlink:href="#DejaVuSans-8722"/>
      <use transform="translate(306.982422 0.015625)" xlink:href="#DejaVuSans-48"/>
      <use transform="translate(370.605469 0.015625)" xlink:href="#DejaVuSans-46"/>
      <use transform="translate(402.392578 0.015625)" xlink:href="#DejaVuSans-54"/>
      <use transform="translate(466.015625 0.015625)" xlink:href="#DejaVuSans-48"/>
      <use transform="translate(529.638672 0.015625)" xlink:href="#DejaVuSans-54"/>
      <use transform="translate(593.261719 0.015625)" xlink:href="#DejaVuSans-Oblique-107"/>
      <use transform="translate(651.171875 0.015625)" xlink:href="#DejaVuSans-41"/>
     </g>
    </g>
   </g>
  </g>
 </g>
 <defs>
  <clipPath id="pd5a734249c">
   <rect height="266.112" width="357.12" x="37.7" y="7.2"/>
  </clipPath>
 </defs>
</svg>
