<?xml version="1.0" encoding="utf-8" standalone="no"?>
<!DOCTYPE svg PUBLIC "-//W3C//DTD SVG 1.1//EN"
  "http://www.w3.org/Graphics/SVG/1.1/DTD/svg11.dtd">
<!-- Created with matplotlib (https://matplotlib.org/) -->
<svg height="310.86825pt" version="1.1" viewBox="0 0 402.02 310.86825" width="402.02pt" xmlns="http://www.w3.org/2000/svg" xmlns:xlink="http://www.w3.org/1999/xlink">
 <defs>
  <style type="text/css">
*{stroke-linecap:butt;stroke-linejoin:round;}
  </style>
 </defs>
 <g id="figure_1">
  <g id="patch_1">
   <path d="M 0 310.86825 
L 402.02 310.86825 
L 402.02 0 
L 0 0 
z
" style="fill:#ffffff;"/>
  </g>
  <g id="axes_1">
   <g id="patch_2">
    <path d="M 37.7 273.312 
L 394.82 273.312 
L 394.82 7.2 
L 37.7 7.2 
z
" style="fill:#ffffff;"/>
   </g>
   <g id="matplotlib.axis_1">
    <g id="xtick_1">
     <g id="line2d_1">
      <defs>
       <path d="M 0 0 
L 0 3.5 
" id="m7f70d8bf6c" style="stroke:#000000;stroke-width:0.8;"/>
      </defs>
      <g>
       <use style="stroke:#000000;stroke-width:0.8;" x="53.932727" xlink:href="#m7f70d8bf6c" y="273.312"/>
      </g>
     </g>
     <g id="text_1">
      <!-- 0 -->
      <defs>
       <path d="M 31.78125 66.40625 
Q 24.171875 66.40625 20.328125 58.90625 
Q 16.5 51.421875 16.5 36.375 
Q 16.5 21.390625 20.328125 13.890625 
Q 24.171875 6.390625 31.78125 6.390625 
Q 39.453125 6.390625 43.28125 13.890625 
Q 47.125 21.390625 47.125 36.375 
Q 47.125 51.421875 43.28125 58.90625 
Q 39.453125 66.40625 31.78125 66.40625 
z
M 31.78125 74.21875 
Q 44.046875 74.21875 50.515625 64.515625 
Q 56.984375 54.828125 56.984375 36.375 
Q 56.984375 17.96875 50.515625 8.265625 
Q 44.046875 -1.421875 31.78125 -1.421875 
Q 19.53125 -1.421875 13.0625 8.265625 
Q 6.59375 17.96875 6.59375 36.375 
Q 6.59375 54.828125 13.0625 64.515625 
Q 19.53125 74.21875 31.78125 74.21875 
z
" id="DejaVuSans-48"/>
      </defs>
      <g transform="translate(50.751477 287.910437)scale(0.1 -0.1)">
       <use xlink:href="#DejaVuSans-48"/>
      </g>
     </g>
    </g>
    <g id="xtick_2">
     <g id="line2d_2">
      <g>
       <use style="stroke:#000000;stroke-width:0.8;" x="106.296364" xlink:href="#m7f70d8bf6c" y="273.312"/>
      </g>
     </g>
     <g id="text_2">
      <!-- 50 -->
      <defs>
       <path d="M 10.796875 72.90625 
L 49.515625 72.90625 
L 49.515625 64.59375 
L 19.828125 64.59375 
L 19.828125 46.734375 
Q 21.96875 47.46875 24.109375 47.828125 
Q 26.265625 48.1875 28.421875 48.1875 
Q 40.625 48.1875 47.75 41.5 
Q 54.890625 34.8125 54.890625 23.390625 
Q 54.890625 11.625 47.5625 5.09375 
Q 40.234375 -1.421875 26.90625 -1.421875 
Q 22.3125 -1.421875 17.546875 -0.640625 
Q 12.796875 0.140625 7.71875 1.703125 
L 7.71875 11.625 
Q 12.109375 9.234375 16.796875 8.0625 
Q 21.484375 6.890625 26.703125 6.890625 
Q 35.15625 6.890625 40.078125 11.328125 
Q 45.015625 15.765625 45.015625 23.390625 
Q 45.015625 31 40.078125 35.4375 
Q 35.15625 39.890625 26.703125 39.890625 
Q 22.75 39.890625 18.8125 39.015625 
Q 14.890625 38.140625 10.796875 36.28125 
z
" id="DejaVuSans-53"/>
      </defs>
      <g transform="translate(99.933864 287.910437)scale(0.1 -0.1)">
       <use xlink:href="#DejaVuSans-53"/>
       <use x="63.623047" xlink:href="#DejaVuSans-48"/>
      </g>
     </g>
    </g>
    <g id="xtick_3">
     <g id="line2d_3">
      <g>
       <use style="stroke:#000000;stroke-width:0.8;" x="158.66" xlink:href="#m7f70d8bf6c" y="273.312"/>
      </g>
     </g>
     <g id="text_3">
      <!-- 100 -->
      <defs>
       <path d="M 12.40625 8.296875 
L 28.515625 8.296875 
L 28.515625 63.921875 
L 10.984375 60.40625 
L 10.984375 69.390625 
L 28.421875 72.90625 
L 38.28125 72.90625 
L 38.28125 8.296875 
L 54.390625 8.296875 
L 54.390625 0 
L 12.40625 0 
z
" id="DejaVuSans-49"/>
      </defs>
      <g transform="translate(149.11625 287.910437)scale(0.1 -0.1)">
       <use xlink:href="#DejaVuSans-49"/>
       <use x="63.623047" xlink:href="#DejaVuSans-48"/>
       <use x="127.246094" xlink:href="#DejaVuSans-48"/>
      </g>
     </g>
    </g>
    <g id="xtick_4">
     <g id="line2d_4">
      <g>
       <use style="stroke:#000000;stroke-width:0.8;" x="211.023636" xlink:href="#m7f70d8bf6c" y="273.312"/>
      </g>
     </g>
     <g id="text_4">
      <!-- 150 -->
      <g transform="translate(201.479886 287.910437)scale(0.1 -0.1)">
       <use xlink:href="#DejaVuSans-49"/>
       <use x="63.623047" xlink:href="#DejaVuSans-53"/>
       <use x="127.246094" xlink:href="#DejaVuSans-48"/>
      </g>
     </g>
    </g>
    <g id="xtick_5">
     <g id="line2d_5">
      <g>
       <use style="stroke:#000000;stroke-width:0.8;" x="263.387273" xlink:href="#m7f70d8bf6c" y="273.312"/>
      </g>
     </g>
     <g id="text_5">
      <!-- 200 -->
      <defs>
       <path d="M 19.1875 8.296875 
L 53.609375 8.296875 
L 53.609375 0 
L 7.328125 0 
L 7.328125 8.296875 
Q 12.9375 14.109375 22.625 23.890625 
Q 32.328125 33.6875 34.8125 36.53125 
Q 39.546875 41.84375 41.421875 45.53125 
Q 43.3125 49.21875 43.3125 52.78125 
Q 43.3125 58.59375 39.234375 62.25 
Q 35.15625 65.921875 28.609375 65.921875 
Q 23.96875 65.921875 18.8125 64.3125 
Q 13.671875 62.703125 7.8125 59.421875 
L 7.8125 69.390625 
Q 13.765625 71.78125 18.9375 73 
Q 24.125 74.21875 28.421875 74.21875 
Q 39.75 74.21875 46.484375 68.546875 
Q 53.21875 62.890625 53.21875 53.421875 
Q 53.21875 48.921875 51.53125 44.890625 
Q 49.859375 40.875 45.40625 35.40625 
Q 44.1875 33.984375 37.640625 27.21875 
Q 31.109375 20.453125 19.1875 8.296875 
z
" id="DejaVuSans-50"/>
      </defs>
      <g transform="translate(253.843523 287.910437)scale(0.1 -0.1)">
       <use xlink:href="#DejaVuSans-50"/>
       <use x="63.623047" xlink:href="#DejaVuSans-48"/>
       <use x="127.246094" xlink:href="#DejaVuSans-48"/>
      </g>
     </g>
    </g>
    <g id="xtick_6">
     <g id="line2d_6">
      <g>
       <use style="stroke:#000000;stroke-width:0.8;" x="315.750909" xlink:href="#m7f70d8bf6c" y="273.312"/>
      </g>
     </g>
     <g id="text_6">
      <!-- 250 -->
      <g transform="translate(306.207159 287.910437)scale(0.1 -0.1)">
       <use xlink:href="#DejaVuSans-50"/>
       <use x="63.623047" xlink:href="#DejaVuSans-53"/>
       <use x="127.246094" xlink:href="#DejaVuSans-48"/>
      </g>
     </g>
    </g>
    <g id="xtick_7">
     <g id="line2d_7">
      <g>
       <use style="stroke:#000000;stroke-width:0.8;" x="368.114545" xlink:href="#m7f70d8bf6c" y="273.312"/>
      </g>
     </g>
     <g id="text_7">
      <!-- 300 -->
      <defs>
       <path d="M 40.578125 39.3125 
Q 47.65625 37.796875 51.625 33 
Q 55.609375 28.21875 55.609375 21.1875 
Q 55.609375 10.40625 48.1875 4.484375 
Q 40.765625 -1.421875 27.09375 -1.421875 
Q 22.515625 -1.421875 17.65625 -0.515625 
Q 12.796875 0.390625 7.625 2.203125 
L 7.625 11.71875 
Q 11.71875 9.328125 16.59375 8.109375 
Q 21.484375 6.890625 26.8125 6.890625 
Q 36.078125 6.890625 40.9375 10.546875 
Q 45.796875 14.203125 45.796875 21.1875 
Q 45.796875 27.640625 41.28125 31.265625 
Q 36.765625 34.90625 28.71875 34.90625 
L 20.21875 34.90625 
L 20.21875 43.015625 
L 29.109375 43.015625 
Q 36.375 43.015625 40.234375 45.921875 
Q 44.09375 48.828125 44.09375 54.296875 
Q 44.09375 59.90625 40.109375 62.90625 
Q 36.140625 65.921875 28.71875 65.921875 
Q 24.65625 65.921875 20.015625 65.03125 
Q 15.375 64.15625 9.8125 62.3125 
L 9.8125 71.09375 
Q 15.4375 72.65625 20.34375 73.4375 
Q 25.25 74.21875 29.59375 74.21875 
Q 40.828125 74.21875 47.359375 69.109375 
Q 53.90625 64.015625 53.90625 55.328125 
Q 53.90625 49.265625 50.4375 45.09375 
Q 46.96875 40.921875 40.578125 39.3125 
z
" id="DejaVuSans-51"/>
      </defs>
      <g transform="translate(358.570795 287.910437)scale(0.1 -0.1)">
       <use xlink:href="#DejaVuSans-51"/>
       <use x="63.623047" xlink:href="#DejaVuSans-48"/>
       <use x="127.246094" xlink:href="#DejaVuSans-48"/>
      </g>
     </g>
    </g>
    <g id="text_8">
     <!-- $ k $ -->
     <defs>
      <path d="M 18.3125 75.984375 
L 27.296875 75.984375 
L 18.703125 31.6875 
L 49.515625 54.6875 
L 61.1875 54.6875 
L 26.8125 28.515625 
L 51.90625 0 
L 41.015625 0 
L 17.671875 26.703125 
L 12.5 0 
L 3.515625 0 
z
" id="DejaVuSans-Oblique-107"/>
     </defs>
     <g transform="translate(213.36 301.588562)scale(0.1 -0.1)">
      <use transform="translate(0 0.015625)" xlink:href="#DejaVuSans-Oblique-107"/>
     </g>
    </g>
   </g>
   <g id="matplotlib.axis_2">
    <g id="ytick_1">
     <g id="line2d_8">
      <defs>
       <path d="M 0 0 
L -3.5 0 
" id="m8c95cd7068" style="stroke:#000000;stroke-width:0.8;"/>
      </defs>
      <g>
       <use style="stroke:#000000;stroke-width:0.8;" x="37.7" xlink:href="#m8c95cd7068" y="220.898667"/>
      </g>
     </g>
     <g id="text_9">
      <!-- $\mathdefault{10^{-5}}$ -->
      <defs>
       <path d="M 10.59375 35.5 
L 73.1875 35.5 
L 73.1875 27.203125 
L 10.59375 27.203125 
z
" id="DejaVuSans-8722"/>
      </defs>
      <g transform="translate(7.2 224.697886)scale(0.1 -0.1)">
       <use transform="translate(0 0.684375)" xlink:href="#DejaVuSans-49"/>
       <use transform="translate(63.623047 0.684375)" xlink:href="#DejaVuSans-48"/>
       <use transform="translate(128.203125 38.965625)scale(0.7)" xlink:href="#DejaVuSans-8722"/>
       <use transform="translate(186.855469 38.965625)scale(0.7)" xlink:href="#DejaVuSans-53"/>
      </g>
     </g>
    </g>
    <g id="ytick_2">
     <g id="line2d_9">
      <g>
       <use style="stroke:#000000;stroke-width:0.8;" x="37.7" xlink:href="#m8c95cd7068" y="164.599892"/>
      </g>
     </g>
     <g id="text_10">
      <!-- $\mathdefault{10^{-3}}$ -->
      <g transform="translate(7.2 168.399111)scale(0.1 -0.1)">
       <use transform="translate(0 0.765625)" xlink:href="#DejaVuSans-49"/>
       <use transform="translate(63.623047 0.765625)" xlink:href="#DejaVuSans-48"/>
       <use transform="translate(128.203125 39.046875)scale(0.7)" xlink:href="#DejaVuSans-8722"/>
       <use transform="translate(186.855469 39.046875)scale(0.7)" xlink:href="#DejaVuSans-51"/>
      </g>
     </g>
    </g>
    <g id="ytick_3">
     <g id="line2d_10">
      <g>
       <use style="stroke:#000000;stroke-width:0.8;" x="37.7" xlink:href="#m8c95cd7068" y="108.301116"/>
      </g>
     </g>
     <g id="text_11">
      <!-- $\mathdefault{10^{-1}}$ -->
      <g transform="translate(7.2 112.100335)scale(0.1 -0.1)">
       <use transform="translate(0 0.684375)" xlink:href="#DejaVuSans-49"/>
       <use transform="translate(63.623047 0.684375)" xlink:href="#DejaVuSans-48"/>
       <use transform="translate(128.203125 38.965625)scale(0.7)" xlink:href="#DejaVuSans-8722"/>
       <use transform="translate(186.855469 38.965625)scale(0.7)" xlink:href="#DejaVuSans-49"/>
      </g>
     </g>
    </g>
    <g id="ytick_4">
     <g id="line2d_11">
      <g>
       <use style="stroke:#000000;stroke-width:0.8;" x="37.7" xlink:href="#m8c95cd7068" y="52.002341"/>
      </g>
     </g>
     <g id="text_12">
      <!-- $\mathdefault{10^{1}}$ -->
      <g transform="translate(13.1 55.80156)scale(0.1 -0.1)">
       <use transform="translate(0 0.684375)" xlink:href="#DejaVuSans-49"/>
       <use transform="translate(63.623047 0.684375)" xlink:href="#DejaVuSans-48"/>
       <use transform="translate(128.203125 38.965625)scale(0.7)" xlink:href="#DejaVuSans-49"/>
      </g>
     </g>
    </g>
   </g>
   <g id="line2d_12">
    <path clip-path="url(#p0574abdb25)" d="M 53.932727 29.75006 
L 54.98 19.296 
L 56.027273 34.263999 
L 57.074545 27.074486 
L 58.121818 38.111736 
L 59.169091 36.631415 
L 60.216364 44.441428 
L 61.263636 46.881129 
L 62.310909 52.979244 
L 63.358182 56.939668 
L 64.405455 62.329768 
L 65.452727 66.802965 
L 67.547273 76.566861 
L 72.783636 100.830941 
L 80.114545 133.948778 
L 81.161818 138.397634 
L 82.209091 139.773257 
L 83.256364 144.905064 
L 85.350909 157.12698 
L 86.398182 172.661168 
L 87.445455 169.040159 
L 88.492727 188.700076 
L 89.54 222.916361 
L 90.587273 182.196471 
L 91.634545 168.038887 
L 92.681818 174.334018 
L 93.729091 185.798306 
L 94.776364 158.121764 
L 95.823636 162.035583 
L 96.870909 166.528378 
L 97.918182 165.431072 
L 98.965455 189.417318 
L 100.012727 171.988048 
L 101.06 171.398623 
L 102.107273 183.828431 
L 103.154545 261.216 
L 104.201818 182.047159 
L 105.249091 164.587516 
L 106.296364 169.021223 
L 107.343636 154.587944 
L 108.390909 161.087237 
L 109.438182 160.877205 
L 110.485455 166.156952 
L 111.532727 163.756311 
L 112.58 165.027115 
L 113.627273 193.527302 
L 114.674545 178.156238 
L 115.721818 170.930966 
L 116.769091 177.088797 
L 117.816364 172.18907 
L 118.863636 173.956221 
L 119.910909 186.571065 
L 120.958182 168.276218 
L 122.005455 162.11757 
L 123.052727 179.471649 
L 125.147273 174.309471 
L 126.194545 196.978877 
L 127.241818 179.73394 
L 128.289091 184.503443 
L 129.336364 181.355095 
L 130.383636 158.4237 
L 131.430909 166.066327 
L 132.478182 158.624664 
L 133.525455 174.175912 
L 134.572727 167.152508 
L 135.62 174.548715 
L 136.667273 199.930238 
L 137.714545 163.335599 
L 138.761818 162.827485 
L 139.809091 169.059131 
L 140.856364 169.631587 
L 141.903636 158.490158 
L 142.950909 159.756784 
L 143.998182 162.277262 
L 145.045455 166.848345 
L 146.092727 166.249849 
L 147.14 166.017979 
L 148.187273 167.42715 
L 149.234545 175.323227 
L 150.281818 164.206825 
L 151.329091 171.55363 
L 152.376364 158.462811 
L 153.423636 164.205646 
L 154.470909 155.516169 
L 155.518182 159.36997 
L 156.565455 169.972792 
L 157.612727 187.66176 
L 158.66 183.489027 
L 159.707273 197.913644 
L 160.754545 180.930508 
L 161.801818 183.150059 
L 162.849091 183.509705 
L 163.896364 198.528709 
L 164.943636 182.980933 
L 165.990909 182.22591 
L 167.038182 204.068539 
L 168.085455 168.654051 
L 169.132727 188.26402 
L 170.18 202.650859 
L 171.227273 187.223168 
L 172.274545 179.001676 
L 173.321818 185.376087 
L 174.369091 186.165734 
L 175.416364 189.424226 
L 176.463636 195.980248 
L 177.510909 180.775479 
L 178.558182 163.766122 
L 179.605455 175.383507 
L 180.652727 177.090342 
L 181.7 215.129617 
L 182.747273 179.08032 
L 183.794545 170.890001 
L 184.841818 186.499854 
L 185.889091 185.319001 
L 186.936364 216.72079 
L 187.983636 169.056961 
L 189.030909 181.714829 
L 190.078182 208.169611 
L 191.125455 163.584738 
L 192.172727 200.892753 
L 193.22 163.333783 
L 194.267273 163.81474 
L 195.314545 195.676099 
L 196.361818 196.79032 
L 197.409091 166.986958 
L 198.456364 190.208979 
L 199.503636 158.465471 
L 200.550909 164.564223 
L 202.645455 182.255652 
L 203.692727 178.333979 
L 204.74 163.062679 
L 205.787273 222.87703 
L 206.834545 157.038397 
L 207.881818 162.587851 
L 208.929091 157.304963 
L 209.976364 160.377446 
L 211.023636 167.759349 
L 212.070909 166.718133 
L 213.118182 174.251429 
L 214.165455 170.444316 
L 215.212727 172.766349 
L 216.26 190.961618 
L 217.307273 198.099111 
L 218.354545 188.800882 
L 219.401818 194.141997 
L 220.449091 185.74285 
L 221.496364 183.028777 
L 222.543636 197.382468 
L 223.590909 171.639091 
L 224.638182 160.003528 
L 225.685455 179.286111 
L 227.78 189.67762 
L 228.827273 164.911107 
L 229.874545 171.997039 
L 230.921818 158.661122 
L 231.969091 163.655082 
L 233.016364 167.521002 
L 234.063636 179.241779 
L 235.110909 184.715474 
L 236.158182 174.05902 
L 238.252727 160.888048 
L 239.3 167.313206 
L 240.347273 167.02421 
L 241.394545 170.493943 
L 242.441818 176.046577 
L 243.489091 213.554287 
L 244.536364 174.619047 
L 245.583636 177.358505 
L 246.630909 175.816237 
L 247.678182 187.990113 
L 248.725455 183.765439 
L 249.772727 159.681433 
L 250.82 159.002128 
L 251.867273 161.584694 
L 252.914545 175.121538 
L 253.961818 176.556274 
L 255.009091 196.545501 
L 256.056364 173.646407 
L 257.103636 174.164616 
L 258.150909 185.848793 
L 259.198182 182.656537 
L 260.245455 195.766146 
L 261.292727 177.978719 
L 262.34 180.644983 
L 263.387273 183.958524 
L 264.434545 186.176685 
L 265.481818 180.659065 
L 266.529091 180.923445 
L 267.576364 166.898559 
L 268.623636 167.790066 
L 269.670909 162.178716 
L 270.718182 192.776758 
L 271.765455 173.706041 
L 272.812727 170.516759 
L 273.86 165.53516 
L 274.907273 175.669034 
L 275.954545 174.185946 
L 277.001818 173.435871 
L 278.049091 192.553368 
L 279.096364 195.579202 
L 280.143636 200.728396 
L 281.190909 194.449059 
L 282.238182 169.539809 
L 283.285455 157.787596 
L 284.332727 175.845472 
L 285.38 168.922564 
L 286.427273 171.874845 
L 287.474545 172.039622 
L 288.521818 195.94786 
L 289.569091 168.178368 
L 290.616364 172.378492 
L 291.663636 173.49705 
L 292.710909 165.184116 
L 293.758182 168.663874 
L 294.805455 163.498997 
L 295.852727 169.554497 
L 296.9 172.910222 
L 297.947273 174.637604 
L 298.994545 171.177476 
L 300.041818 173.913424 
L 301.089091 182.293238 
L 302.136364 169.066136 
L 303.183636 211.386435 
L 304.230909 173.38048 
L 305.278182 169.026087 
L 306.325455 165.60795 
L 307.372727 164.198911 
L 308.42 216.020586 
L 309.467273 157.269492 
L 310.514545 175.009771 
L 311.561818 206.551327 
L 312.609091 179.284148 
L 313.656364 170.600382 
L 314.703636 169.149389 
L 315.750909 172.779866 
L 316.798182 184.241556 
L 317.845455 163.120207 
L 318.892727 164.061932 
L 319.94 169.481906 
L 320.987273 169.757979 
L 322.034545 164.87722 
L 323.081818 171.638553 
L 324.129091 164.983035 
L 325.176364 183.873088 
L 326.223636 205.625142 
L 327.270909 171.952394 
L 328.318182 167.470184 
L 329.365455 174.290989 
L 330.412727 186.322043 
L 331.46 193.922134 
L 332.507273 176.658091 
L 333.554545 173.298253 
L 334.601818 164.77808 
L 335.649091 190.635485 
L 336.696364 176.662373 
L 337.743636 189.267806 
L 338.790909 178.067732 
L 339.838182 176.161344 
L 340.885455 205.643384 
L 341.932727 185.082161 
L 342.98 154.01832 
L 344.027273 172.759076 
L 345.074545 157.136101 
L 346.121818 160.71572 
L 347.169091 157.264592 
L 348.216364 161.778003 
L 349.263636 159.667369 
L 350.310909 181.357258 
L 351.358182 177.486765 
L 352.405455 178.254667 
L 353.452727 189.330778 
L 354.5 177.130524 
L 355.547273 184.558579 
L 356.594545 171.874533 
L 357.641818 203.091089 
L 358.689091 172.923706 
L 359.736364 195.528341 
L 360.783636 172.893024 
L 361.830909 176.858789 
L 362.878182 161.081665 
L 363.925455 173.386076 
L 364.972727 168.916748 
L 366.02 168.132039 
L 367.067273 171.00873 
L 368.114545 225.335987 
L 369.161818 158.059332 
L 370.209091 176.451798 
L 371.256364 183.180951 
L 372.303636 176.499433 
L 373.350909 156.045422 
L 374.398182 168.815135 
L 375.445455 177.275925 
L 376.492727 194.740227 
L 376.497103 311.86825 
L 376.497103 311.86825 
" style="fill:none;stroke:#1f77b4;stroke-linecap:square;stroke-width:1.5;"/>
    <defs>
     <path d="M 0 3 
C 0.795609 3 1.55874 2.683901 2.12132 2.12132 
C 2.683901 1.55874 3 0.795609 3 0 
C 3 -0.795609 2.683901 -1.55874 2.12132 -2.12132 
C 1.55874 -2.683901 0.795609 -3 0 -3 
C -0.795609 -3 -1.55874 -2.683901 -2.12132 -2.12132 
C -2.683901 -1.55874 -3 -0.795609 -3 0 
C -3 0.795609 -2.683901 1.55874 -2.12132 2.12132 
C -1.55874 2.683901 -0.795609 3 0 3 
z
" id="m5b255a0b91" style="stroke:#1f77b4;"/>
    </defs>
    <g clip-path="url(#p0574abdb25)">
     <use style="fill:#1f77b4;stroke:#1f77b4;" x="53.932727" xlink:href="#m5b255a0b91" y="29.75006"/>
     <use style="fill:#1f77b4;stroke:#1f77b4;" x="54.98" xlink:href="#m5b255a0b91" y="19.296"/>
     <use style="fill:#1f77b4;stroke:#1f77b4;" x="56.027273" xlink:href="#m5b255a0b91" y="34.263999"/>
     <use style="fill:#1f77b4;stroke:#1f77b4;" x="57.074545" xlink:href="#m5b255a0b91" y="27.074486"/>
     <use style="fill:#1f77b4;stroke:#1f77b4;" x="58.121818" xlink:href="#m5b255a0b91" y="38.111736"/>
     <use style="fill:#1f77b4;stroke:#1f77b4;" x="59.169091" xlink:href="#m5b255a0b91" y="36.631415"/>
     <use style="fill:#1f77b4;stroke:#1f77b4;" x="60.216364" xlink:href="#m5b255a0b91" y="44.441428"/>
     <use style="fill:#1f77b4;stroke:#1f77b4;" x="61.263636" xlink:href="#m5b255a0b91" y="46.881129"/>
     <use style="fill:#1f77b4;stroke:#1f77b4;" x="62.310909" xlink:href="#m5b255a0b91" y="52.979244"/>
     <use style="fill:#1f77b4;stroke:#1f77b4;" x="63.358182" xlink:href="#m5b255a0b91" y="56.939668"/>
     <use style="fill:#1f77b4;stroke:#1f77b4;" x="64.405455" xlink:href="#m5b255a0b91" y="62.329768"/>
     <use style="fill:#1f77b4;stroke:#1f77b4;" x="65.452727" xlink:href="#m5b255a0b91" y="66.802965"/>
     <use style="fill:#1f77b4;stroke:#1f77b4;" x="66.5" xlink:href="#m5b255a0b91" y="71.897873"/>
     <use style="fill:#1f77b4;stroke:#1f77b4;" x="67.547273" xlink:href="#m5b255a0b91" y="76.566861"/>
     <use style="fill:#1f77b4;stroke:#1f77b4;" x="68.594545" xlink:href="#m5b255a0b91" y="81.525701"/>
     <use style="fill:#1f77b4;stroke:#1f77b4;" x="69.641818" xlink:href="#m5b255a0b91" y="86.291631"/>
     <use style="fill:#1f77b4;stroke:#1f77b4;" x="70.689091" xlink:href="#m5b255a0b91" y="91.177863"/>
     <use style="fill:#1f77b4;stroke:#1f77b4;" x="71.736364" xlink:href="#m5b255a0b91" y="95.974413"/>
     <use style="fill:#1f77b4;stroke:#1f77b4;" x="72.783636" xlink:href="#m5b255a0b91" y="100.830941"/>
     <use style="fill:#1f77b4;stroke:#1f77b4;" x="73.830909" xlink:href="#m5b255a0b91" y="105.630419"/>
     <use style="fill:#1f77b4;stroke:#1f77b4;" x="74.878182" xlink:href="#m5b255a0b91" y="110.519957"/>
     <use style="fill:#1f77b4;stroke:#1f77b4;" x="75.925455" xlink:href="#m5b255a0b91" y="115.317571"/>
     <use style="fill:#1f77b4;stroke:#1f77b4;" x="76.972727" xlink:href="#m5b255a0b91" y="120.167371"/>
     <use style="fill:#1f77b4;stroke:#1f77b4;" x="78.02" xlink:href="#m5b255a0b91" y="124.765007"/>
     <use style="fill:#1f77b4;stroke:#1f77b4;" x="79.067273" xlink:href="#m5b255a0b91" y="129.509256"/>
     <use style="fill:#1f77b4;stroke:#1f77b4;" x="80.114545" xlink:href="#m5b255a0b91" y="133.948778"/>
     <use style="fill:#1f77b4;stroke:#1f77b4;" x="81.161818" xlink:href="#m5b255a0b91" y="138.397634"/>
     <use style="fill:#1f77b4;stroke:#1f77b4;" x="82.209091" xlink:href="#m5b255a0b91" y="139.773257"/>
     <use style="fill:#1f77b4;stroke:#1f77b4;" x="83.256364" xlink:href="#m5b255a0b91" y="144.905064"/>
     <use style="fill:#1f77b4;stroke:#1f77b4;" x="84.303636" xlink:href="#m5b255a0b91" y="150.978844"/>
     <use style="fill:#1f77b4;stroke:#1f77b4;" x="85.350909" xlink:href="#m5b255a0b91" y="157.12698"/>
     <use style="fill:#1f77b4;stroke:#1f77b4;" x="86.398182" xlink:href="#m5b255a0b91" y="172.661168"/>
     <use style="fill:#1f77b4;stroke:#1f77b4;" x="87.445455" xlink:href="#m5b255a0b91" y="169.040159"/>
     <use style="fill:#1f77b4;stroke:#1f77b4;" x="88.492727" xlink:href="#m5b255a0b91" y="188.700076"/>
     <use style="fill:#1f77b4;stroke:#1f77b4;" x="89.54" xlink:href="#m5b255a0b91" y="222.916361"/>
     <use style="fill:#1f77b4;stroke:#1f77b4;" x="90.587273" xlink:href="#m5b255a0b91" y="182.196471"/>
     <use style="fill:#1f77b4;stroke:#1f77b4;" x="91.634545" xlink:href="#m5b255a0b91" y="168.038887"/>
     <use style="fill:#1f77b4;stroke:#1f77b4;" x="92.681818" xlink:href="#m5b255a0b91" y="174.334018"/>
     <use style="fill:#1f77b4;stroke:#1f77b4;" x="93.729091" xlink:href="#m5b255a0b91" y="185.798306"/>
     <use style="fill:#1f77b4;stroke:#1f77b4;" x="94.776364" xlink:href="#m5b255a0b91" y="158.121764"/>
     <use style="fill:#1f77b4;stroke:#1f77b4;" x="95.823636" xlink:href="#m5b255a0b91" y="162.035583"/>
     <use style="fill:#1f77b4;stroke:#1f77b4;" x="96.870909" xlink:href="#m5b255a0b91" y="166.528378"/>
     <use style="fill:#1f77b4;stroke:#1f77b4;" x="97.918182" xlink:href="#m5b255a0b91" y="165.431072"/>
     <use style="fill:#1f77b4;stroke:#1f77b4;" x="98.965455" xlink:href="#m5b255a0b91" y="189.417318"/>
     <use style="fill:#1f77b4;stroke:#1f77b4;" x="100.012727" xlink:href="#m5b255a0b91" y="171.988048"/>
     <use style="fill:#1f77b4;stroke:#1f77b4;" x="101.06" xlink:href="#m5b255a0b91" y="171.398623"/>
     <use style="fill:#1f77b4;stroke:#1f77b4;" x="102.107273" xlink:href="#m5b255a0b91" y="183.828431"/>
     <use style="fill:#1f77b4;stroke:#1f77b4;" x="103.154545" xlink:href="#m5b255a0b91" y="261.216"/>
     <use style="fill:#1f77b4;stroke:#1f77b4;" x="104.201818" xlink:href="#m5b255a0b91" y="182.047159"/>
     <use style="fill:#1f77b4;stroke:#1f77b4;" x="105.249091" xlink:href="#m5b255a0b91" y="164.587516"/>
     <use style="fill:#1f77b4;stroke:#1f77b4;" x="106.296364" xlink:href="#m5b255a0b91" y="169.021223"/>
     <use style="fill:#1f77b4;stroke:#1f77b4;" x="107.343636" xlink:href="#m5b255a0b91" y="154.587944"/>
     <use style="fill:#1f77b4;stroke:#1f77b4;" x="108.390909" xlink:href="#m5b255a0b91" y="161.087237"/>
     <use style="fill:#1f77b4;stroke:#1f77b4;" x="109.438182" xlink:href="#m5b255a0b91" y="160.877205"/>
     <use style="fill:#1f77b4;stroke:#1f77b4;" x="110.485455" xlink:href="#m5b255a0b91" y="166.156952"/>
     <use style="fill:#1f77b4;stroke:#1f77b4;" x="111.532727" xlink:href="#m5b255a0b91" y="163.756311"/>
     <use style="fill:#1f77b4;stroke:#1f77b4;" x="112.58" xlink:href="#m5b255a0b91" y="165.027115"/>
     <use style="fill:#1f77b4;stroke:#1f77b4;" x="113.627273" xlink:href="#m5b255a0b91" y="193.527302"/>
     <use style="fill:#1f77b4;stroke:#1f77b4;" x="114.674545" xlink:href="#m5b255a0b91" y="178.156238"/>
     <use style="fill:#1f77b4;stroke:#1f77b4;" x="115.721818" xlink:href="#m5b255a0b91" y="170.930966"/>
     <use style="fill:#1f77b4;stroke:#1f77b4;" x="116.769091" xlink:href="#m5b255a0b91" y="177.088797"/>
     <use style="fill:#1f77b4;stroke:#1f77b4;" x="117.816364" xlink:href="#m5b255a0b91" y="172.18907"/>
     <use style="fill:#1f77b4;stroke:#1f77b4;" x="118.863636" xlink:href="#m5b255a0b91" y="173.956221"/>
     <use style="fill:#1f77b4;stroke:#1f77b4;" x="119.910909" xlink:href="#m5b255a0b91" y="186.571065"/>
     <use style="fill:#1f77b4;stroke:#1f77b4;" x="120.958182" xlink:href="#m5b255a0b91" y="168.276218"/>
     <use style="fill:#1f77b4;stroke:#1f77b4;" x="122.005455" xlink:href="#m5b255a0b91" y="162.11757"/>
     <use style="fill:#1f77b4;stroke:#1f77b4;" x="123.052727" xlink:href="#m5b255a0b91" y="179.471649"/>
     <use style="fill:#1f77b4;stroke:#1f77b4;" x="124.1" xlink:href="#m5b255a0b91" y="176.894554"/>
     <use style="fill:#1f77b4;stroke:#1f77b4;" x="125.147273" xlink:href="#m5b255a0b91" y="174.309471"/>
     <use style="fill:#1f77b4;stroke:#1f77b4;" x="126.194545" xlink:href="#m5b255a0b91" y="196.978877"/>
     <use style="fill:#1f77b4;stroke:#1f77b4;" x="127.241818" xlink:href="#m5b255a0b91" y="179.73394"/>
     <use style="fill:#1f77b4;stroke:#1f77b4;" x="128.289091" xlink:href="#m5b255a0b91" y="184.503443"/>
     <use style="fill:#1f77b4;stroke:#1f77b4;" x="129.336364" xlink:href="#m5b255a0b91" y="181.355095"/>
     <use style="fill:#1f77b4;stroke:#1f77b4;" x="130.383636" xlink:href="#m5b255a0b91" y="158.4237"/>
     <use style="fill:#1f77b4;stroke:#1f77b4;" x="131.430909" xlink:href="#m5b255a0b91" y="166.066327"/>
     <use style="fill:#1f77b4;stroke:#1f77b4;" x="132.478182" xlink:href="#m5b255a0b91" y="158.624664"/>
     <use style="fill:#1f77b4;stroke:#1f77b4;" x="133.525455" xlink:href="#m5b255a0b91" y="174.175912"/>
     <use style="fill:#1f77b4;stroke:#1f77b4;" x="134.572727" xlink:href="#m5b255a0b91" y="167.152508"/>
     <use style="fill:#1f77b4;stroke:#1f77b4;" x="135.62" xlink:href="#m5b255a0b91" y="174.548715"/>
     <use style="fill:#1f77b4;stroke:#1f77b4;" x="136.667273" xlink:href="#m5b255a0b91" y="199.930238"/>
     <use style="fill:#1f77b4;stroke:#1f77b4;" x="137.714545" xlink:href="#m5b255a0b91" y="163.335599"/>
     <use style="fill:#1f77b4;stroke:#1f77b4;" x="138.761818" xlink:href="#m5b255a0b91" y="162.827485"/>
     <use style="fill:#1f77b4;stroke:#1f77b4;" x="139.809091" xlink:href="#m5b255a0b91" y="169.059131"/>
     <use style="fill:#1f77b4;stroke:#1f77b4;" x="140.856364" xlink:href="#m5b255a0b91" y="169.631587"/>
     <use style="fill:#1f77b4;stroke:#1f77b4;" x="141.903636" xlink:href="#m5b255a0b91" y="158.490158"/>
     <use style="fill:#1f77b4;stroke:#1f77b4;" x="142.950909" xlink:href="#m5b255a0b91" y="159.756784"/>
     <use style="fill:#1f77b4;stroke:#1f77b4;" x="143.998182" xlink:href="#m5b255a0b91" y="162.277262"/>
     <use style="fill:#1f77b4;stroke:#1f77b4;" x="145.045455" xlink:href="#m5b255a0b91" y="166.848345"/>
     <use style="fill:#1f77b4;stroke:#1f77b4;" x="146.092727" xlink:href="#m5b255a0b91" y="166.249849"/>
     <use style="fill:#1f77b4;stroke:#1f77b4;" x="147.14" xlink:href="#m5b255a0b91" y="166.017979"/>
     <use style="fill:#1f77b4;stroke:#1f77b4;" x="148.187273" xlink:href="#m5b255a0b91" y="167.42715"/>
     <use style="fill:#1f77b4;stroke:#1f77b4;" x="149.234545" xlink:href="#m5b255a0b91" y="175.323227"/>
     <use style="fill:#1f77b4;stroke:#1f77b4;" x="150.281818" xlink:href="#m5b255a0b91" y="164.206825"/>
     <use style="fill:#1f77b4;stroke:#1f77b4;" x="151.329091" xlink:href="#m5b255a0b91" y="171.55363"/>
     <use style="fill:#1f77b4;stroke:#1f77b4;" x="152.376364" xlink:href="#m5b255a0b91" y="158.462811"/>
     <use style="fill:#1f77b4;stroke:#1f77b4;" x="153.423636" xlink:href="#m5b255a0b91" y="164.205646"/>
     <use style="fill:#1f77b4;stroke:#1f77b4;" x="154.470909" xlink:href="#m5b255a0b91" y="155.516169"/>
     <use style="fill:#1f77b4;stroke:#1f77b4;" x="155.518182" xlink:href="#m5b255a0b91" y="159.36997"/>
     <use style="fill:#1f77b4;stroke:#1f77b4;" x="156.565455" xlink:href="#m5b255a0b91" y="169.972792"/>
     <use style="fill:#1f77b4;stroke:#1f77b4;" x="157.612727" xlink:href="#m5b255a0b91" y="187.66176"/>
     <use style="fill:#1f77b4;stroke:#1f77b4;" x="158.66" xlink:href="#m5b255a0b91" y="183.489027"/>
     <use style="fill:#1f77b4;stroke:#1f77b4;" x="159.707273" xlink:href="#m5b255a0b91" y="197.913644"/>
     <use style="fill:#1f77b4;stroke:#1f77b4;" x="160.754545" xlink:href="#m5b255a0b91" y="180.930508"/>
     <use style="fill:#1f77b4;stroke:#1f77b4;" x="161.801818" xlink:href="#m5b255a0b91" y="183.150059"/>
     <use style="fill:#1f77b4;stroke:#1f77b4;" x="162.849091" xlink:href="#m5b255a0b91" y="183.509705"/>
     <use style="fill:#1f77b4;stroke:#1f77b4;" x="163.896364" xlink:href="#m5b255a0b91" y="198.528709"/>
     <use style="fill:#1f77b4;stroke:#1f77b4;" x="164.943636" xlink:href="#m5b255a0b91" y="182.980933"/>
     <use style="fill:#1f77b4;stroke:#1f77b4;" x="165.990909" xlink:href="#m5b255a0b91" y="182.22591"/>
     <use style="fill:#1f77b4;stroke:#1f77b4;" x="167.038182" xlink:href="#m5b255a0b91" y="204.068539"/>
     <use style="fill:#1f77b4;stroke:#1f77b4;" x="168.085455" xlink:href="#m5b255a0b91" y="168.654051"/>
     <use style="fill:#1f77b4;stroke:#1f77b4;" x="169.132727" xlink:href="#m5b255a0b91" y="188.26402"/>
     <use style="fill:#1f77b4;stroke:#1f77b4;" x="170.18" xlink:href="#m5b255a0b91" y="202.650859"/>
     <use style="fill:#1f77b4;stroke:#1f77b4;" x="171.227273" xlink:href="#m5b255a0b91" y="187.223168"/>
     <use style="fill:#1f77b4;stroke:#1f77b4;" x="172.274545" xlink:href="#m5b255a0b91" y="179.001676"/>
     <use style="fill:#1f77b4;stroke:#1f77b4;" x="173.321818" xlink:href="#m5b255a0b91" y="185.376087"/>
     <use style="fill:#1f77b4;stroke:#1f77b4;" x="174.369091" xlink:href="#m5b255a0b91" y="186.165734"/>
     <use style="fill:#1f77b4;stroke:#1f77b4;" x="175.416364" xlink:href="#m5b255a0b91" y="189.424226"/>
     <use style="fill:#1f77b4;stroke:#1f77b4;" x="176.463636" xlink:href="#m5b255a0b91" y="195.980248"/>
     <use style="fill:#1f77b4;stroke:#1f77b4;" x="177.510909" xlink:href="#m5b255a0b91" y="180.775479"/>
     <use style="fill:#1f77b4;stroke:#1f77b4;" x="178.558182" xlink:href="#m5b255a0b91" y="163.766122"/>
     <use style="fill:#1f77b4;stroke:#1f77b4;" x="179.605455" xlink:href="#m5b255a0b91" y="175.383507"/>
     <use style="fill:#1f77b4;stroke:#1f77b4;" x="180.652727" xlink:href="#m5b255a0b91" y="177.090342"/>
     <use style="fill:#1f77b4;stroke:#1f77b4;" x="181.7" xlink:href="#m5b255a0b91" y="215.129617"/>
     <use style="fill:#1f77b4;stroke:#1f77b4;" x="182.747273" xlink:href="#m5b255a0b91" y="179.08032"/>
     <use style="fill:#1f77b4;stroke:#1f77b4;" x="183.794545" xlink:href="#m5b255a0b91" y="170.890001"/>
     <use style="fill:#1f77b4;stroke:#1f77b4;" x="184.841818" xlink:href="#m5b255a0b91" y="186.499854"/>
     <use style="fill:#1f77b4;stroke:#1f77b4;" x="185.889091" xlink:href="#m5b255a0b91" y="185.319001"/>
     <use style="fill:#1f77b4;stroke:#1f77b4;" x="186.936364" xlink:href="#m5b255a0b91" y="216.72079"/>
     <use style="fill:#1f77b4;stroke:#1f77b4;" x="187.983636" xlink:href="#m5b255a0b91" y="169.056961"/>
     <use style="fill:#1f77b4;stroke:#1f77b4;" x="189.030909" xlink:href="#m5b255a0b91" y="181.714829"/>
     <use style="fill:#1f77b4;stroke:#1f77b4;" x="190.078182" xlink:href="#m5b255a0b91" y="208.169611"/>
     <use style="fill:#1f77b4;stroke:#1f77b4;" x="191.125455" xlink:href="#m5b255a0b91" y="163.584738"/>
     <use style="fill:#1f77b4;stroke:#1f77b4;" x="192.172727" xlink:href="#m5b255a0b91" y="200.892753"/>
     <use style="fill:#1f77b4;stroke:#1f77b4;" x="193.22" xlink:href="#m5b255a0b91" y="163.333783"/>
     <use style="fill:#1f77b4;stroke:#1f77b4;" x="194.267273" xlink:href="#m5b255a0b91" y="163.81474"/>
     <use style="fill:#1f77b4;stroke:#1f77b4;" x="195.314545" xlink:href="#m5b255a0b91" y="195.676099"/>
     <use style="fill:#1f77b4;stroke:#1f77b4;" x="196.361818" xlink:href="#m5b255a0b91" y="196.79032"/>
     <use style="fill:#1f77b4;stroke:#1f77b4;" x="197.409091" xlink:href="#m5b255a0b91" y="166.986958"/>
     <use style="fill:#1f77b4;stroke:#1f77b4;" x="198.456364" xlink:href="#m5b255a0b91" y="190.208979"/>
     <use style="fill:#1f77b4;stroke:#1f77b4;" x="199.503636" xlink:href="#m5b255a0b91" y="158.465471"/>
     <use style="fill:#1f77b4;stroke:#1f77b4;" x="200.550909" xlink:href="#m5b255a0b91" y="164.564223"/>
     <use style="fill:#1f77b4;stroke:#1f77b4;" x="201.598182" xlink:href="#m5b255a0b91" y="173.151353"/>
     <use style="fill:#1f77b4;stroke:#1f77b4;" x="202.645455" xlink:href="#m5b255a0b91" y="182.255652"/>
     <use style="fill:#1f77b4;stroke:#1f77b4;" x="203.692727" xlink:href="#m5b255a0b91" y="178.333979"/>
     <use style="fill:#1f77b4;stroke:#1f77b4;" x="204.74" xlink:href="#m5b255a0b91" y="163.062679"/>
     <use style="fill:#1f77b4;stroke:#1f77b4;" x="205.787273" xlink:href="#m5b255a0b91" y="222.87703"/>
     <use style="fill:#1f77b4;stroke:#1f77b4;" x="206.834545" xlink:href="#m5b255a0b91" y="157.038397"/>
     <use style="fill:#1f77b4;stroke:#1f77b4;" x="207.881818" xlink:href="#m5b255a0b91" y="162.587851"/>
     <use style="fill:#1f77b4;stroke:#1f77b4;" x="208.929091" xlink:href="#m5b255a0b91" y="157.304963"/>
     <use style="fill:#1f77b4;stroke:#1f77b4;" x="209.976364" xlink:href="#m5b255a0b91" y="160.377446"/>
     <use style="fill:#1f77b4;stroke:#1f77b4;" x="211.023636" xlink:href="#m5b255a0b91" y="167.759349"/>
     <use style="fill:#1f77b4;stroke:#1f77b4;" x="212.070909" xlink:href="#m5b255a0b91" y="166.718133"/>
     <use style="fill:#1f77b4;stroke:#1f77b4;" x="213.118182" xlink:href="#m5b255a0b91" y="174.251429"/>
     <use style="fill:#1f77b4;stroke:#1f77b4;" x="214.165455" xlink:href="#m5b255a0b91" y="170.444316"/>
     <use style="fill:#1f77b4;stroke:#1f77b4;" x="215.212727" xlink:href="#m5b255a0b91" y="172.766349"/>
     <use style="fill:#1f77b4;stroke:#1f77b4;" x="216.26" xlink:href="#m5b255a0b91" y="190.961618"/>
     <use style="fill:#1f77b4;stroke:#1f77b4;" x="217.307273" xlink:href="#m5b255a0b91" y="198.099111"/>
     <use style="fill:#1f77b4;stroke:#1f77b4;" x="218.354545" xlink:href="#m5b255a0b91" y="188.800882"/>
     <use style="fill:#1f77b4;stroke:#1f77b4;" x="219.401818" xlink:href="#m5b255a0b91" y="194.141997"/>
     <use style="fill:#1f77b4;stroke:#1f77b4;" x="220.449091" xlink:href="#m5b255a0b91" y="185.74285"/>
     <use style="fill:#1f77b4;stroke:#1f77b4;" x="221.496364" xlink:href="#m5b255a0b91" y="183.028777"/>
     <use style="fill:#1f77b4;stroke:#1f77b4;" x="222.543636" xlink:href="#m5b255a0b91" y="197.382468"/>
     <use style="fill:#1f77b4;stroke:#1f77b4;" x="223.590909" xlink:href="#m5b255a0b91" y="171.639091"/>
     <use style="fill:#1f77b4;stroke:#1f77b4;" x="224.638182" xlink:href="#m5b255a0b91" y="160.003528"/>
     <use style="fill:#1f77b4;stroke:#1f77b4;" x="225.685455" xlink:href="#m5b255a0b91" y="179.286111"/>
     <use style="fill:#1f77b4;stroke:#1f77b4;" x="226.732727" xlink:href="#m5b255a0b91" y="184.722532"/>
     <use style="fill:#1f77b4;stroke:#1f77b4;" x="227.78" xlink:href="#m5b255a0b91" y="189.67762"/>
     <use style="fill:#1f77b4;stroke:#1f77b4;" x="228.827273" xlink:href="#m5b255a0b91" y="164.911107"/>
     <use style="fill:#1f77b4;stroke:#1f77b4;" x="229.874545" xlink:href="#m5b255a0b91" y="171.997039"/>
     <use style="fill:#1f77b4;stroke:#1f77b4;" x="230.921818" xlink:href="#m5b255a0b91" y="158.661122"/>
     <use style="fill:#1f77b4;stroke:#1f77b4;" x="231.969091" xlink:href="#m5b255a0b91" y="163.655082"/>
     <use style="fill:#1f77b4;stroke:#1f77b4;" x="233.016364" xlink:href="#m5b255a0b91" y="167.521002"/>
     <use style="fill:#1f77b4;stroke:#1f77b4;" x="234.063636" xlink:href="#m5b255a0b91" y="179.241779"/>
     <use style="fill:#1f77b4;stroke:#1f77b4;" x="235.110909" xlink:href="#m5b255a0b91" y="184.715474"/>
     <use style="fill:#1f77b4;stroke:#1f77b4;" x="236.158182" xlink:href="#m5b255a0b91" y="174.05902"/>
     <use style="fill:#1f77b4;stroke:#1f77b4;" x="237.205455" xlink:href="#m5b255a0b91" y="167.340049"/>
     <use style="fill:#1f77b4;stroke:#1f77b4;" x="238.252727" xlink:href="#m5b255a0b91" y="160.888048"/>
     <use style="fill:#1f77b4;stroke:#1f77b4;" x="239.3" xlink:href="#m5b255a0b91" y="167.313206"/>
     <use style="fill:#1f77b4;stroke:#1f77b4;" x="240.347273" xlink:href="#m5b255a0b91" y="167.02421"/>
     <use style="fill:#1f77b4;stroke:#1f77b4;" x="241.394545" xlink:href="#m5b255a0b91" y="170.493943"/>
     <use style="fill:#1f77b4;stroke:#1f77b4;" x="242.441818" xlink:href="#m5b255a0b91" y="176.046577"/>
     <use style="fill:#1f77b4;stroke:#1f77b4;" x="243.489091" xlink:href="#m5b255a0b91" y="213.554287"/>
     <use style="fill:#1f77b4;stroke:#1f77b4;" x="244.536364" xlink:href="#m5b255a0b91" y="174.619047"/>
     <use style="fill:#1f77b4;stroke:#1f77b4;" x="245.583636" xlink:href="#m5b255a0b91" y="177.358505"/>
     <use style="fill:#1f77b4;stroke:#1f77b4;" x="246.630909" xlink:href="#m5b255a0b91" y="175.816237"/>
     <use style="fill:#1f77b4;stroke:#1f77b4;" x="247.678182" xlink:href="#m5b255a0b91" y="187.990113"/>
     <use style="fill:#1f77b4;stroke:#1f77b4;" x="248.725455" xlink:href="#m5b255a0b91" y="183.765439"/>
     <use style="fill:#1f77b4;stroke:#1f77b4;" x="249.772727" xlink:href="#m5b255a0b91" y="159.681433"/>
     <use style="fill:#1f77b4;stroke:#1f77b4;" x="250.82" xlink:href="#m5b255a0b91" y="159.002128"/>
     <use style="fill:#1f77b4;stroke:#1f77b4;" x="251.867273" xlink:href="#m5b255a0b91" y="161.584694"/>
     <use style="fill:#1f77b4;stroke:#1f77b4;" x="252.914545" xlink:href="#m5b255a0b91" y="175.121538"/>
     <use style="fill:#1f77b4;stroke:#1f77b4;" x="253.961818" xlink:href="#m5b255a0b91" y="176.556274"/>
     <use style="fill:#1f77b4;stroke:#1f77b4;" x="255.009091" xlink:href="#m5b255a0b91" y="196.545501"/>
     <use style="fill:#1f77b4;stroke:#1f77b4;" x="256.056364" xlink:href="#m5b255a0b91" y="173.646407"/>
     <use style="fill:#1f77b4;stroke:#1f77b4;" x="257.103636" xlink:href="#m5b255a0b91" y="174.164616"/>
     <use style="fill:#1f77b4;stroke:#1f77b4;" x="258.150909" xlink:href="#m5b255a0b91" y="185.848793"/>
     <use style="fill:#1f77b4;stroke:#1f77b4;" x="259.198182" xlink:href="#m5b255a0b91" y="182.656537"/>
     <use style="fill:#1f77b4;stroke:#1f77b4;" x="260.245455" xlink:href="#m5b255a0b91" y="195.766146"/>
     <use style="fill:#1f77b4;stroke:#1f77b4;" x="261.292727" xlink:href="#m5b255a0b91" y="177.978719"/>
     <use style="fill:#1f77b4;stroke:#1f77b4;" x="262.34" xlink:href="#m5b255a0b91" y="180.644983"/>
     <use style="fill:#1f77b4;stroke:#1f77b4;" x="263.387273" xlink:href="#m5b255a0b91" y="183.958524"/>
     <use style="fill:#1f77b4;stroke:#1f77b4;" x="264.434545" xlink:href="#m5b255a0b91" y="186.176685"/>
     <use style="fill:#1f77b4;stroke:#1f77b4;" x="265.481818" xlink:href="#m5b255a0b91" y="180.659065"/>
     <use style="fill:#1f77b4;stroke:#1f77b4;" x="266.529091" xlink:href="#m5b255a0b91" y="180.923445"/>
     <use style="fill:#1f77b4;stroke:#1f77b4;" x="267.576364" xlink:href="#m5b255a0b91" y="166.898559"/>
     <use style="fill:#1f77b4;stroke:#1f77b4;" x="268.623636" xlink:href="#m5b255a0b91" y="167.790066"/>
     <use style="fill:#1f77b4;stroke:#1f77b4;" x="269.670909" xlink:href="#m5b255a0b91" y="162.178716"/>
     <use style="fill:#1f77b4;stroke:#1f77b4;" x="270.718182" xlink:href="#m5b255a0b91" y="192.776758"/>
     <use style="fill:#1f77b4;stroke:#1f77b4;" x="271.765455" xlink:href="#m5b255a0b91" y="173.706041"/>
     <use style="fill:#1f77b4;stroke:#1f77b4;" x="272.812727" xlink:href="#m5b255a0b91" y="170.516759"/>
     <use style="fill:#1f77b4;stroke:#1f77b4;" x="273.86" xlink:href="#m5b255a0b91" y="165.53516"/>
     <use style="fill:#1f77b4;stroke:#1f77b4;" x="274.907273" xlink:href="#m5b255a0b91" y="175.669034"/>
     <use style="fill:#1f77b4;stroke:#1f77b4;" x="275.954545" xlink:href="#m5b255a0b91" y="174.185946"/>
     <use style="fill:#1f77b4;stroke:#1f77b4;" x="277.001818" xlink:href="#m5b255a0b91" y="173.435871"/>
     <use style="fill:#1f77b4;stroke:#1f77b4;" x="278.049091" xlink:href="#m5b255a0b91" y="192.553368"/>
     <use style="fill:#1f77b4;stroke:#1f77b4;" x="279.096364" xlink:href="#m5b255a0b91" y="195.579202"/>
     <use style="fill:#1f77b4;stroke:#1f77b4;" x="280.143636" xlink:href="#m5b255a0b91" y="200.728396"/>
     <use style="fill:#1f77b4;stroke:#1f77b4;" x="281.190909" xlink:href="#m5b255a0b91" y="194.449059"/>
     <use style="fill:#1f77b4;stroke:#1f77b4;" x="282.238182" xlink:href="#m5b255a0b91" y="169.539809"/>
     <use style="fill:#1f77b4;stroke:#1f77b4;" x="283.285455" xlink:href="#m5b255a0b91" y="157.787596"/>
     <use style="fill:#1f77b4;stroke:#1f77b4;" x="284.332727" xlink:href="#m5b255a0b91" y="175.845472"/>
     <use style="fill:#1f77b4;stroke:#1f77b4;" x="285.38" xlink:href="#m5b255a0b91" y="168.922564"/>
     <use style="fill:#1f77b4;stroke:#1f77b4;" x="286.427273" xlink:href="#m5b255a0b91" y="171.874845"/>
     <use style="fill:#1f77b4;stroke:#1f77b4;" x="287.474545" xlink:href="#m5b255a0b91" y="172.039622"/>
     <use style="fill:#1f77b4;stroke:#1f77b4;" x="288.521818" xlink:href="#m5b255a0b91" y="195.94786"/>
     <use style="fill:#1f77b4;stroke:#1f77b4;" x="289.569091" xlink:href="#m5b255a0b91" y="168.178368"/>
     <use style="fill:#1f77b4;stroke:#1f77b4;" x="290.616364" xlink:href="#m5b255a0b91" y="172.378492"/>
     <use style="fill:#1f77b4;stroke:#1f77b4;" x="291.663636" xlink:href="#m5b255a0b91" y="173.49705"/>
     <use style="fill:#1f77b4;stroke:#1f77b4;" x="292.710909" xlink:href="#m5b255a0b91" y="165.184116"/>
     <use style="fill:#1f77b4;stroke:#1f77b4;" x="293.758182" xlink:href="#m5b255a0b91" y="168.663874"/>
     <use style="fill:#1f77b4;stroke:#1f77b4;" x="294.805455" xlink:href="#m5b255a0b91" y="163.498997"/>
     <use style="fill:#1f77b4;stroke:#1f77b4;" x="295.852727" xlink:href="#m5b255a0b91" y="169.554497"/>
     <use style="fill:#1f77b4;stroke:#1f77b4;" x="296.9" xlink:href="#m5b255a0b91" y="172.910222"/>
     <use style="fill:#1f77b4;stroke:#1f77b4;" x="297.947273" xlink:href="#m5b255a0b91" y="174.637604"/>
     <use style="fill:#1f77b4;stroke:#1f77b4;" x="298.994545" xlink:href="#m5b255a0b91" y="171.177476"/>
     <use style="fill:#1f77b4;stroke:#1f77b4;" x="300.041818" xlink:href="#m5b255a0b91" y="173.913424"/>
     <use style="fill:#1f77b4;stroke:#1f77b4;" x="301.089091" xlink:href="#m5b255a0b91" y="182.293238"/>
     <use style="fill:#1f77b4;stroke:#1f77b4;" x="302.136364" xlink:href="#m5b255a0b91" y="169.066136"/>
     <use style="fill:#1f77b4;stroke:#1f77b4;" x="303.183636" xlink:href="#m5b255a0b91" y="211.386435"/>
     <use style="fill:#1f77b4;stroke:#1f77b4;" x="304.230909" xlink:href="#m5b255a0b91" y="173.38048"/>
     <use style="fill:#1f77b4;stroke:#1f77b4;" x="305.278182" xlink:href="#m5b255a0b91" y="169.026087"/>
     <use style="fill:#1f77b4;stroke:#1f77b4;" x="306.325455" xlink:href="#m5b255a0b91" y="165.60795"/>
     <use style="fill:#1f77b4;stroke:#1f77b4;" x="307.372727" xlink:href="#m5b255a0b91" y="164.198911"/>
     <use style="fill:#1f77b4;stroke:#1f77b4;" x="308.42" xlink:href="#m5b255a0b91" y="216.020586"/>
     <use style="fill:#1f77b4;stroke:#1f77b4;" x="309.467273" xlink:href="#m5b255a0b91" y="157.269492"/>
     <use style="fill:#1f77b4;stroke:#1f77b4;" x="310.514545" xlink:href="#m5b255a0b91" y="175.009771"/>
     <use style="fill:#1f77b4;stroke:#1f77b4;" x="311.561818" xlink:href="#m5b255a0b91" y="206.551327"/>
     <use style="fill:#1f77b4;stroke:#1f77b4;" x="312.609091" xlink:href="#m5b255a0b91" y="179.284148"/>
     <use style="fill:#1f77b4;stroke:#1f77b4;" x="313.656364" xlink:href="#m5b255a0b91" y="170.600382"/>
     <use style="fill:#1f77b4;stroke:#1f77b4;" x="314.703636" xlink:href="#m5b255a0b91" y="169.149389"/>
     <use style="fill:#1f77b4;stroke:#1f77b4;" x="315.750909" xlink:href="#m5b255a0b91" y="172.779866"/>
     <use style="fill:#1f77b4;stroke:#1f77b4;" x="316.798182" xlink:href="#m5b255a0b91" y="184.241556"/>
     <use style="fill:#1f77b4;stroke:#1f77b4;" x="317.845455" xlink:href="#m5b255a0b91" y="163.120207"/>
     <use style="fill:#1f77b4;stroke:#1f77b4;" x="318.892727" xlink:href="#m5b255a0b91" y="164.061932"/>
     <use style="fill:#1f77b4;stroke:#1f77b4;" x="319.94" xlink:href="#m5b255a0b91" y="169.481906"/>
     <use style="fill:#1f77b4;stroke:#1f77b4;" x="320.987273" xlink:href="#m5b255a0b91" y="169.757979"/>
     <use style="fill:#1f77b4;stroke:#1f77b4;" x="322.034545" xlink:href="#m5b255a0b91" y="164.87722"/>
     <use style="fill:#1f77b4;stroke:#1f77b4;" x="323.081818" xlink:href="#m5b255a0b91" y="171.638553"/>
     <use style="fill:#1f77b4;stroke:#1f77b4;" x="324.129091" xlink:href="#m5b255a0b91" y="164.983035"/>
     <use style="fill:#1f77b4;stroke:#1f77b4;" x="325.176364" xlink:href="#m5b255a0b91" y="183.873088"/>
     <use style="fill:#1f77b4;stroke:#1f77b4;" x="326.223636" xlink:href="#m5b255a0b91" y="205.625142"/>
     <use style="fill:#1f77b4;stroke:#1f77b4;" x="327.270909" xlink:href="#m5b255a0b91" y="171.952394"/>
     <use style="fill:#1f77b4;stroke:#1f77b4;" x="328.318182" xlink:href="#m5b255a0b91" y="167.470184"/>
     <use style="fill:#1f77b4;stroke:#1f77b4;" x="329.365455" xlink:href="#m5b255a0b91" y="174.290989"/>
     <use style="fill:#1f77b4;stroke:#1f77b4;" x="330.412727" xlink:href="#m5b255a0b91" y="186.322043"/>
     <use style="fill:#1f77b4;stroke:#1f77b4;" x="331.46" xlink:href="#m5b255a0b91" y="193.922134"/>
     <use style="fill:#1f77b4;stroke:#1f77b4;" x="332.507273" xlink:href="#m5b255a0b91" y="176.658091"/>
     <use style="fill:#1f77b4;stroke:#1f77b4;" x="333.554545" xlink:href="#m5b255a0b91" y="173.298253"/>
     <use style="fill:#1f77b4;stroke:#1f77b4;" x="334.601818" xlink:href="#m5b255a0b91" y="164.77808"/>
     <use style="fill:#1f77b4;stroke:#1f77b4;" x="335.649091" xlink:href="#m5b255a0b91" y="190.635485"/>
     <use style="fill:#1f77b4;stroke:#1f77b4;" x="336.696364" xlink:href="#m5b255a0b91" y="176.662373"/>
     <use style="fill:#1f77b4;stroke:#1f77b4;" x="337.743636" xlink:href="#m5b255a0b91" y="189.267806"/>
     <use style="fill:#1f77b4;stroke:#1f77b4;" x="338.790909" xlink:href="#m5b255a0b91" y="178.067732"/>
     <use style="fill:#1f77b4;stroke:#1f77b4;" x="339.838182" xlink:href="#m5b255a0b91" y="176.161344"/>
     <use style="fill:#1f77b4;stroke:#1f77b4;" x="340.885455" xlink:href="#m5b255a0b91" y="205.643384"/>
     <use style="fill:#1f77b4;stroke:#1f77b4;" x="341.932727" xlink:href="#m5b255a0b91" y="185.082161"/>
     <use style="fill:#1f77b4;stroke:#1f77b4;" x="342.98" xlink:href="#m5b255a0b91" y="154.01832"/>
     <use style="fill:#1f77b4;stroke:#1f77b4;" x="344.027273" xlink:href="#m5b255a0b91" y="172.759076"/>
     <use style="fill:#1f77b4;stroke:#1f77b4;" x="345.074545" xlink:href="#m5b255a0b91" y="157.136101"/>
     <use style="fill:#1f77b4;stroke:#1f77b4;" x="346.121818" xlink:href="#m5b255a0b91" y="160.71572"/>
     <use style="fill:#1f77b4;stroke:#1f77b4;" x="347.169091" xlink:href="#m5b255a0b91" y="157.264592"/>
     <use style="fill:#1f77b4;stroke:#1f77b4;" x="348.216364" xlink:href="#m5b255a0b91" y="161.778003"/>
     <use style="fill:#1f77b4;stroke:#1f77b4;" x="349.263636" xlink:href="#m5b255a0b91" y="159.667369"/>
     <use style="fill:#1f77b4;stroke:#1f77b4;" x="350.310909" xlink:href="#m5b255a0b91" y="181.357258"/>
     <use style="fill:#1f77b4;stroke:#1f77b4;" x="351.358182" xlink:href="#m5b255a0b91" y="177.486765"/>
     <use style="fill:#1f77b4;stroke:#1f77b4;" x="352.405455" xlink:href="#m5b255a0b91" y="178.254667"/>
     <use style="fill:#1f77b4;stroke:#1f77b4;" x="353.452727" xlink:href="#m5b255a0b91" y="189.330778"/>
     <use style="fill:#1f77b4;stroke:#1f77b4;" x="354.5" xlink:href="#m5b255a0b91" y="177.130524"/>
     <use style="fill:#1f77b4;stroke:#1f77b4;" x="355.547273" xlink:href="#m5b255a0b91" y="184.558579"/>
     <use style="fill:#1f77b4;stroke:#1f77b4;" x="356.594545" xlink:href="#m5b255a0b91" y="171.874533"/>
     <use style="fill:#1f77b4;stroke:#1f77b4;" x="357.641818" xlink:href="#m5b255a0b91" y="203.091089"/>
     <use style="fill:#1f77b4;stroke:#1f77b4;" x="358.689091" xlink:href="#m5b255a0b91" y="172.923706"/>
     <use style="fill:#1f77b4;stroke:#1f77b4;" x="359.736364" xlink:href="#m5b255a0b91" y="195.528341"/>
     <use style="fill:#1f77b4;stroke:#1f77b4;" x="360.783636" xlink:href="#m5b255a0b91" y="172.893024"/>
     <use style="fill:#1f77b4;stroke:#1f77b4;" x="361.830909" xlink:href="#m5b255a0b91" y="176.858789"/>
     <use style="fill:#1f77b4;stroke:#1f77b4;" x="362.878182" xlink:href="#m5b255a0b91" y="161.081665"/>
     <use style="fill:#1f77b4;stroke:#1f77b4;" x="363.925455" xlink:href="#m5b255a0b91" y="173.386076"/>
     <use style="fill:#1f77b4;stroke:#1f77b4;" x="364.972727" xlink:href="#m5b255a0b91" y="168.916748"/>
     <use style="fill:#1f77b4;stroke:#1f77b4;" x="366.02" xlink:href="#m5b255a0b91" y="168.132039"/>
     <use style="fill:#1f77b4;stroke:#1f77b4;" x="367.067273" xlink:href="#m5b255a0b91" y="171.00873"/>
     <use style="fill:#1f77b4;stroke:#1f77b4;" x="368.114545" xlink:href="#m5b255a0b91" y="225.335987"/>
     <use style="fill:#1f77b4;stroke:#1f77b4;" x="369.161818" xlink:href="#m5b255a0b91" y="158.059332"/>
     <use style="fill:#1f77b4;stroke:#1f77b4;" x="370.209091" xlink:href="#m5b255a0b91" y="176.451798"/>
     <use style="fill:#1f77b4;stroke:#1f77b4;" x="371.256364" xlink:href="#m5b255a0b91" y="183.180951"/>
     <use style="fill:#1f77b4;stroke:#1f77b4;" x="372.303636" xlink:href="#m5b255a0b91" y="176.499433"/>
     <use style="fill:#1f77b4;stroke:#1f77b4;" x="373.350909" xlink:href="#m5b255a0b91" y="156.045422"/>
     <use style="fill:#1f77b4;stroke:#1f77b4;" x="374.398182" xlink:href="#m5b255a0b91" y="168.815135"/>
     <use style="fill:#1f77b4;stroke:#1f77b4;" x="375.445455" xlink:href="#m5b255a0b91" y="177.275925"/>
     <use style="fill:#1f77b4;stroke:#1f77b4;" x="376.492727" xlink:href="#m5b255a0b91" y="194.740227"/>
     <use style="fill:#1f77b4;stroke:#1f77b4;" x="377.321615" xlink:href="#m5b255a0b91" y="22383.514"/>
    </g>
   </g>
   <g id="line2d_13">
    <path clip-path="url(#p0574abdb25)" d="M 63.358182 56.939668 
L 64.405455 62.329768 
L 65.452727 66.802965 
L 66.5 71.897873 
L 67.547273 76.566861 
L 68.594545 81.525701 
L 69.641818 86.291631 
L 70.689091 91.177863 
L 71.736364 95.974413 
L 72.783636 100.830941 
L 73.830909 105.630419 
L 74.878182 110.519957 
L 75.925455 115.317571 
L 76.972727 120.167371 
L 78.02 124.765007 
L 79.067273 129.509256 
L 80.114545 133.948778 
L 81.161818 138.397634 
" style="fill:none;stroke:#2ca02c;stroke-dasharray:1.5,2.475;stroke-dashoffset:0;stroke-width:1.5;"/>
    <defs>
     <path d="M -3 3 
L 3 -3 
M -3 -3 
L 3 3 
" id="mbf544749f5" style="stroke:#2ca02c;"/>
    </defs>
    <g clip-path="url(#p0574abdb25)">
     <use style="fill:#2ca02c;stroke:#2ca02c;" x="63.358182" xlink:href="#mbf544749f5" y="56.939668"/>
     <use style="fill:#2ca02c;stroke:#2ca02c;" x="64.405455" xlink:href="#mbf544749f5" y="62.329768"/>
     <use style="fill:#2ca02c;stroke:#2ca02c;" x="65.452727" xlink:href="#mbf544749f5" y="66.802965"/>
     <use style="fill:#2ca02c;stroke:#2ca02c;" x="66.5" xlink:href="#mbf544749f5" y="71.897873"/>
     <use style="fill:#2ca02c;stroke:#2ca02c;" x="67.547273" xlink:href="#mbf544749f5" y="76.566861"/>
     <use style="fill:#2ca02c;stroke:#2ca02c;" x="68.594545" xlink:href="#mbf544749f5" y="81.525701"/>
     <use style="fill:#2ca02c;stroke:#2ca02c;" x="69.641818" xlink:href="#mbf544749f5" y="86.291631"/>
     <use style="fill:#2ca02c;stroke:#2ca02c;" x="70.689091" xlink:href="#mbf544749f5" y="91.177863"/>
     <use style="fill:#2ca02c;stroke:#2ca02c;" x="71.736364" xlink:href="#mbf544749f5" y="95.974413"/>
     <use style="fill:#2ca02c;stroke:#2ca02c;" x="72.783636" xlink:href="#mbf544749f5" y="100.830941"/>
     <use style="fill:#2ca02c;stroke:#2ca02c;" x="73.830909" xlink:href="#mbf544749f5" y="105.630419"/>
     <use style="fill:#2ca02c;stroke:#2ca02c;" x="74.878182" xlink:href="#mbf544749f5" y="110.519957"/>
     <use style="fill:#2ca02c;stroke:#2ca02c;" x="75.925455" xlink:href="#mbf544749f5" y="115.317571"/>
     <use style="fill:#2ca02c;stroke:#2ca02c;" x="76.972727" xlink:href="#mbf544749f5" y="120.167371"/>
     <use style="fill:#2ca02c;stroke:#2ca02c;" x="78.02" xlink:href="#mbf544749f5" y="124.765007"/>
     <use style="fill:#2ca02c;stroke:#2ca02c;" x="79.067273" xlink:href="#mbf544749f5" y="129.509256"/>
     <use style="fill:#2ca02c;stroke:#2ca02c;" x="80.114545" xlink:href="#mbf544749f5" y="133.948778"/>
     <use style="fill:#2ca02c;stroke:#2ca02c;" x="81.161818" xlink:href="#mbf544749f5" y="138.397634"/>
    </g>
   </g>
   <g id="line2d_14">
    <path clip-path="url(#p0574abdb25)" d="M 54.98 84.954716 
L 104.457619 311.86825 
L 104.457619 311.86825 
" style="fill:none;stroke:#000000;stroke-dasharray:5.55,2.4;stroke-dashoffset:0;stroke-width:1.5;"/>
   </g>
   <g id="patch_3">
    <path d="M 37.7 273.312 
L 37.7 7.2 
" style="fill:none;stroke:#000000;stroke-linecap:square;stroke-linejoin:miter;stroke-width:0.8;"/>
   </g>
   <g id="patch_4">
    <path d="M 394.82 273.312 
L 394.82 7.2 
" style="fill:none;stroke:#000000;stroke-linecap:square;stroke-linejoin:miter;stroke-width:0.8;"/>
   </g>
   <g id="patch_5">
    <path d="M 37.7 273.312 
L 394.82 273.312 
" style="fill:none;stroke:#000000;stroke-linecap:square;stroke-linejoin:miter;stroke-width:0.8;"/>
   </g>
   <g id="patch_6">
    <path d="M 37.7 7.2 
L 394.82 7.2 
" style="fill:none;stroke:#000000;stroke-linecap:square;stroke-linejoin:miter;stroke-width:0.8;"/>
   </g>
   <g id="legend_1">
    <g id="patch_7">
     <path d="M 286.72 59.25625 
L 387.82 59.25625 
Q 389.82 59.25625 389.82 57.25625 
L 389.82 14.2 
Q 389.82 12.2 387.82 12.2 
L 286.72 12.2 
Q 284.72 12.2 284.72 14.2 
L 284.72 57.25625 
Q 284.72 59.25625 286.72 59.25625 
z
" style="fill:#ffffff;opacity:0.8;"/>
    </g>
    <g id="line2d_15">
     <path d="M 288.72 20.298437 
L 308.72 20.298437 
" style="fill:none;stroke:#1f77b4;stroke-linecap:square;stroke-width:1.5;"/>
    </g>
    <g id="line2d_16">
     <g>
      <use style="fill:#1f77b4;stroke:#1f77b4;" x="298.72" xlink:href="#m5b255a0b91" y="20.298437"/>
     </g>
    </g>
    <g id="text_13">
     <!-- APD$_n$ - APD$_\infty$ -->
     <defs>
      <path d="M 34.1875 63.1875 
L 20.796875 26.90625 
L 47.609375 26.90625 
z
M 28.609375 72.90625 
L 39.796875 72.90625 
L 67.578125 0 
L 57.328125 0 
L 50.6875 18.703125 
L 17.828125 18.703125 
L 11.1875 0 
L 0.78125 0 
z
" id="DejaVuSans-65"/>
      <path d="M 19.671875 64.796875 
L 19.671875 37.40625 
L 32.078125 37.40625 
Q 38.96875 37.40625 42.71875 40.96875 
Q 46.484375 44.53125 46.484375 51.125 
Q 46.484375 57.671875 42.71875 61.234375 
Q 38.96875 64.796875 32.078125 64.796875 
z
M 9.8125 72.90625 
L 32.078125 72.90625 
Q 44.34375 72.90625 50.609375 67.359375 
Q 56.890625 61.8125 56.890625 51.125 
Q 56.890625 40.328125 50.609375 34.8125 
Q 44.34375 29.296875 32.078125 29.296875 
L 19.671875 29.296875 
L 19.671875 0 
L 9.8125 0 
z
" id="DejaVuSans-80"/>
      <path d="M 19.671875 64.796875 
L 19.671875 8.109375 
L 31.59375 8.109375 
Q 46.6875 8.109375 53.6875 14.9375 
Q 60.6875 21.78125 60.6875 36.53125 
Q 60.6875 51.171875 53.6875 57.984375 
Q 46.6875 64.796875 31.59375 64.796875 
z
M 9.8125 72.90625 
L 30.078125 72.90625 
Q 51.265625 72.90625 61.171875 64.09375 
Q 71.09375 55.28125 71.09375 36.53125 
Q 71.09375 17.671875 61.125 8.828125 
Q 51.171875 0 30.078125 0 
L 9.8125 0 
z
" id="DejaVuSans-68"/>
      <path d="M 55.71875 33.015625 
L 49.3125 0 
L 40.28125 0 
L 46.6875 32.671875 
Q 47.125 34.96875 47.359375 36.71875 
Q 47.609375 38.484375 47.609375 39.5 
Q 47.609375 43.609375 45.015625 45.890625 
Q 42.4375 48.1875 37.796875 48.1875 
Q 30.5625 48.1875 25.34375 43.375 
Q 20.125 38.578125 18.5 30.328125 
L 12.5 0 
L 3.515625 0 
L 14.109375 54.6875 
L 23.09375 54.6875 
L 21.296875 46.09375 
Q 25.046875 50.828125 30.3125 53.40625 
Q 35.59375 56 41.40625 56 
Q 48.640625 56 52.609375 52.09375 
Q 56.59375 48.1875 56.59375 41.109375 
Q 56.59375 39.359375 56.375 37.359375 
Q 56.15625 35.359375 55.71875 33.015625 
z
" id="DejaVuSans-Oblique-110"/>
      <path id="DejaVuSans-32"/>
      <path d="M 4.890625 31.390625 
L 31.203125 31.390625 
L 31.203125 23.390625 
L 4.890625 23.390625 
z
" id="DejaVuSans-45"/>
      <path d="M 45.5625 17.046875 
Q 44.046875 18.796875 41.65625 22.90625 
Q 38.375 17.046875 35.5 14.453125 
Q 31.890625 11.328125 26.265625 11.328125 
Q 19.671875 11.328125 15.328125 16.265625 
Q 10.75 21.4375 10.75 29.984375 
Q 10.75 38.1875 15.328125 43.75 
Q 19.4375 48.6875 26.375 48.6875 
Q 29.9375 48.6875 32.5625 47.21875 
Q 35.640625 45.609375 37.75 42.828125 
Q 39.703125 40.328125 41.65625 36.96875 
Q 44.921875 42.828125 47.796875 45.40625 
Q 51.421875 48.53125 57.03125 48.53125 
Q 63.625 48.53125 67.96875 43.609375 
Q 72.5625 38.421875 72.5625 29.890625 
Q 72.5625 21.6875 67.96875 16.109375 
Q 63.875 11.1875 56.9375 11.1875 
Q 53.375 11.1875 50.734375 12.640625 
Q 48.09375 13.96875 45.5625 17.046875 
z
M 25.734375 17.71875 
Q 33.796875 17.71875 38.625 29.4375 
Q 32.421875 42.234375 25.734375 42.234375 
Q 20.84375 42.234375 18.359375 38.71875 
Q 15.671875 34.96875 15.671875 29.984375 
Q 15.671875 24.515625 18.359375 21.140625 
Q 21.09375 17.71875 25.734375 17.71875 
z
M 57.5625 42.140625 
Q 50.296875 42.140625 44.671875 30.421875 
Q 50.828125 17.625 57.5625 17.625 
Q 62.453125 17.625 64.9375 21.140625 
Q 67.625 24.90625 67.625 29.890625 
Q 67.625 35.359375 64.9375 38.71875 
Q 62.203125 42.140625 57.5625 42.140625 
z
" id="DejaVuSans-8734"/>
     </defs>
     <g transform="translate(316.72 23.798437)scale(0.1 -0.1)">
      <use transform="translate(0 0.09375)" xlink:href="#DejaVuSans-65"/>
      <use transform="translate(68.408203 0.09375)" xlink:href="#DejaVuSans-80"/>
      <use transform="translate(128.710938 0.09375)" xlink:href="#DejaVuSans-68"/>
      <use transform="translate(206.669922 -16.3125)scale(0.7)" xlink:href="#DejaVuSans-Oblique-110"/>
      <use transform="translate(253.769531 0.09375)" xlink:href="#DejaVuSans-32"/>
      <use transform="translate(285.556641 0.09375)" xlink:href="#DejaVuSans-45"/>
      <use transform="translate(321.640625 0.09375)" xlink:href="#DejaVuSans-32"/>
      <use transform="translate(353.427734 0.09375)" xlink:href="#DejaVuSans-65"/>
      <use transform="translate(421.835938 0.09375)" xlink:href="#DejaVuSans-80"/>
      <use transform="translate(482.138672 0.09375)" xlink:href="#DejaVuSans-68"/>
      <use transform="translate(560.097656 -16.3125)scale(0.7)" xlink:href="#DejaVuSans-8734"/>
     </g>
    </g>
    <g id="line2d_17">
     <path d="M 288.72 34.976562 
L 308.72 34.976562 
" style="fill:none;stroke:#2ca02c;stroke-dasharray:1.5,2.475;stroke-dashoffset:0;stroke-width:1.5;"/>
    </g>
    <g id="line2d_18">
     <g>
      <use style="fill:#2ca02c;stroke:#2ca02c;" x="298.72" xlink:href="#mbf544749f5" y="34.976562"/>
     </g>
    </g>
    <g id="text_14">
     <!-- linear region -->
     <defs>
      <path d="M 9.421875 75.984375 
L 18.40625 75.984375 
L 18.40625 0 
L 9.421875 0 
z
" id="DejaVuSans-108"/>
      <path d="M 9.421875 54.6875 
L 18.40625 54.6875 
L 18.40625 0 
L 9.421875 0 
z
M 9.421875 75.984375 
L 18.40625 75.984375 
L 18.40625 64.59375 
L 9.421875 64.59375 
z
" id="DejaVuSans-105"/>
      <path d="M 54.890625 33.015625 
L 54.890625 0 
L 45.90625 0 
L 45.90625 32.71875 
Q 45.90625 40.484375 42.875 44.328125 
Q 39.84375 48.1875 33.796875 48.1875 
Q 26.515625 48.1875 22.3125 43.546875 
Q 18.109375 38.921875 18.109375 30.90625 
L 18.109375 0 
L 9.078125 0 
L 9.078125 54.6875 
L 18.109375 54.6875 
L 18.109375 46.1875 
Q 21.34375 51.125 25.703125 53.5625 
Q 30.078125 56 35.796875 56 
Q 45.21875 56 50.046875 50.171875 
Q 54.890625 44.34375 54.890625 33.015625 
z
" id="DejaVuSans-110"/>
      <path d="M 56.203125 29.59375 
L 56.203125 25.203125 
L 14.890625 25.203125 
Q 15.484375 15.921875 20.484375 11.0625 
Q 25.484375 6.203125 34.421875 6.203125 
Q 39.59375 6.203125 44.453125 7.46875 
Q 49.3125 8.734375 54.109375 11.28125 
L 54.109375 2.78125 
Q 49.265625 0.734375 44.1875 -0.34375 
Q 39.109375 -1.421875 33.890625 -1.421875 
Q 20.796875 -1.421875 13.15625 6.1875 
Q 5.515625 13.8125 5.515625 26.8125 
Q 5.515625 40.234375 12.765625 48.109375 
Q 20.015625 56 32.328125 56 
Q 43.359375 56 49.78125 48.890625 
Q 56.203125 41.796875 56.203125 29.59375 
z
M 47.21875 32.234375 
Q 47.125 39.59375 43.09375 43.984375 
Q 39.0625 48.390625 32.421875 48.390625 
Q 24.90625 48.390625 20.390625 44.140625 
Q 15.875 39.890625 15.1875 32.171875 
z
" id="DejaVuSans-101"/>
      <path d="M 34.28125 27.484375 
Q 23.390625 27.484375 19.1875 25 
Q 14.984375 22.515625 14.984375 16.5 
Q 14.984375 11.71875 18.140625 8.90625 
Q 21.296875 6.109375 26.703125 6.109375 
Q 34.1875 6.109375 38.703125 11.40625 
Q 43.21875 16.703125 43.21875 25.484375 
L 43.21875 27.484375 
z
M 52.203125 31.203125 
L 52.203125 0 
L 43.21875 0 
L 43.21875 8.296875 
Q 40.140625 3.328125 35.546875 0.953125 
Q 30.953125 -1.421875 24.3125 -1.421875 
Q 15.921875 -1.421875 10.953125 3.296875 
Q 6 8.015625 6 15.921875 
Q 6 25.140625 12.171875 29.828125 
Q 18.359375 34.515625 30.609375 34.515625 
L 43.21875 34.515625 
L 43.21875 35.40625 
Q 43.21875 41.609375 39.140625 45 
Q 35.0625 48.390625 27.6875 48.390625 
Q 23 48.390625 18.546875 47.265625 
Q 14.109375 46.140625 10.015625 43.890625 
L 10.015625 52.203125 
Q 14.9375 54.109375 19.578125 55.046875 
Q 24.21875 56 28.609375 56 
Q 40.484375 56 46.34375 49.84375 
Q 52.203125 43.703125 52.203125 31.203125 
z
" id="DejaVuSans-97"/>
      <path d="M 41.109375 46.296875 
Q 39.59375 47.171875 37.8125 47.578125 
Q 36.03125 48 33.890625 48 
Q 26.265625 48 22.1875 43.046875 
Q 18.109375 38.09375 18.109375 28.8125 
L 18.109375 0 
L 9.078125 0 
L 9.078125 54.6875 
L 18.109375 54.6875 
L 18.109375 46.1875 
Q 20.953125 51.171875 25.484375 53.578125 
Q 30.03125 56 36.53125 56 
Q 37.453125 56 38.578125 55.875 
Q 39.703125 55.765625 41.0625 55.515625 
z
" id="DejaVuSans-114"/>
      <path d="M 45.40625 27.984375 
Q 45.40625 37.75 41.375 43.109375 
Q 37.359375 48.484375 30.078125 48.484375 
Q 22.859375 48.484375 18.828125 43.109375 
Q 14.796875 37.75 14.796875 27.984375 
Q 14.796875 18.265625 18.828125 12.890625 
Q 22.859375 7.515625 30.078125 7.515625 
Q 37.359375 7.515625 41.375 12.890625 
Q 45.40625 18.265625 45.40625 27.984375 
z
M 54.390625 6.78125 
Q 54.390625 -7.171875 48.1875 -13.984375 
Q 42 -20.796875 29.203125 -20.796875 
Q 24.46875 -20.796875 20.265625 -20.09375 
Q 16.0625 -19.390625 12.109375 -17.921875 
L 12.109375 -9.1875 
Q 16.0625 -11.328125 19.921875 -12.34375 
Q 23.78125 -13.375 27.78125 -13.375 
Q 36.625 -13.375 41.015625 -8.765625 
Q 45.40625 -4.15625 45.40625 5.171875 
L 45.40625 9.625 
Q 42.625 4.78125 38.28125 2.390625 
Q 33.9375 0 27.875 0 
Q 17.828125 0 11.671875 7.65625 
Q 5.515625 15.328125 5.515625 27.984375 
Q 5.515625 40.671875 11.671875 48.328125 
Q 17.828125 56 27.875 56 
Q 33.9375 56 38.28125 53.609375 
Q 42.625 51.21875 45.40625 46.390625 
L 45.40625 54.6875 
L 54.390625 54.6875 
z
" id="DejaVuSans-103"/>
      <path d="M 30.609375 48.390625 
Q 23.390625 48.390625 19.1875 42.75 
Q 14.984375 37.109375 14.984375 27.296875 
Q 14.984375 17.484375 19.15625 11.84375 
Q 23.34375 6.203125 30.609375 6.203125 
Q 37.796875 6.203125 41.984375 11.859375 
Q 46.1875 17.53125 46.1875 27.296875 
Q 46.1875 37.015625 41.984375 42.703125 
Q 37.796875 48.390625 30.609375 48.390625 
z
M 30.609375 56 
Q 42.328125 56 49.015625 48.375 
Q 55.71875 40.765625 55.71875 27.296875 
Q 55.71875 13.875 49.015625 6.21875 
Q 42.328125 -1.421875 30.609375 -1.421875 
Q 18.84375 -1.421875 12.171875 6.21875 
Q 5.515625 13.875 5.515625 27.296875 
Q 5.515625 40.765625 12.171875 48.375 
Q 18.84375 56 30.609375 56 
z
" id="DejaVuSans-111"/>
     </defs>
     <g transform="translate(316.72 38.476562)scale(0.1 -0.1)">
      <use xlink:href="#DejaVuSans-108"/>
      <use x="27.783203" xlink:href="#DejaVuSans-105"/>
      <use x="55.566406" xlink:href="#DejaVuSans-110"/>
      <use x="118.945312" xlink:href="#DejaVuSans-101"/>
      <use x="180.46875" xlink:href="#DejaVuSans-97"/>
      <use x="241.748047" xlink:href="#DejaVuSans-114"/>
      <use x="282.861328" xlink:href="#DejaVuSans-32"/>
      <use x="314.648438" xlink:href="#DejaVuSans-114"/>
      <use x="353.511719" xlink:href="#DejaVuSans-101"/>
      <use x="415.035156" xlink:href="#DejaVuSans-103"/>
      <use x="478.511719" xlink:href="#DejaVuSans-105"/>
      <use x="506.294922" xlink:href="#DejaVuSans-111"/>
      <use x="567.476562" xlink:href="#DejaVuSans-110"/>
     </g>
    </g>
    <g id="line2d_19">
     <path d="M 288.72 49.65625 
L 308.72 49.65625 
" style="fill:none;stroke:#000000;stroke-dasharray:5.55,2.4;stroke-dashoffset:0;stroke-width:1.5;"/>
    </g>
    <g id="line2d_20"/>
    <g id="text_15">
     <!-- $ \exp(-0.393 k)$ -->
     <defs>
      <path d="M 54.890625 54.6875 
L 35.109375 28.078125 
L 55.90625 0 
L 45.3125 0 
L 29.390625 21.484375 
L 13.484375 0 
L 2.875 0 
L 24.125 28.609375 
L 4.6875 54.6875 
L 15.28125 54.6875 
L 29.78125 35.203125 
L 44.28125 54.6875 
z
" id="DejaVuSans-120"/>
      <path d="M 18.109375 8.203125 
L 18.109375 -20.796875 
L 9.078125 -20.796875 
L 9.078125 54.6875 
L 18.109375 54.6875 
L 18.109375 46.390625 
Q 20.953125 51.265625 25.265625 53.625 
Q 29.59375 56 35.59375 56 
Q 45.5625 56 51.78125 48.09375 
Q 58.015625 40.1875 58.015625 27.296875 
Q 58.015625 14.40625 51.78125 6.484375 
Q 45.5625 -1.421875 35.59375 -1.421875 
Q 29.59375 -1.421875 25.265625 0.953125 
Q 20.953125 3.328125 18.109375 8.203125 
z
M 48.6875 27.296875 
Q 48.6875 37.203125 44.609375 42.84375 
Q 40.53125 48.484375 33.40625 48.484375 
Q 26.265625 48.484375 22.1875 42.84375 
Q 18.109375 37.203125 18.109375 27.296875 
Q 18.109375 17.390625 22.1875 11.75 
Q 26.265625 6.109375 33.40625 6.109375 
Q 40.53125 6.109375 44.609375 11.75 
Q 48.6875 17.390625 48.6875 27.296875 
z
" id="DejaVuSans-112"/>
      <path d="M 31 75.875 
Q 24.46875 64.65625 21.28125 53.65625 
Q 18.109375 42.671875 18.109375 31.390625 
Q 18.109375 20.125 21.3125 9.0625 
Q 24.515625 -2 31 -13.1875 
L 23.1875 -13.1875 
Q 15.875 -1.703125 12.234375 9.375 
Q 8.59375 20.453125 8.59375 31.390625 
Q 8.59375 42.28125 12.203125 53.3125 
Q 15.828125 64.359375 23.1875 75.875 
z
" id="DejaVuSans-40"/>
      <path d="M 10.6875 12.40625 
L 21 12.40625 
L 21 0 
L 10.6875 0 
z
" id="DejaVuSans-46"/>
      <path d="M 10.984375 1.515625 
L 10.984375 10.5 
Q 14.703125 8.734375 18.5 7.8125 
Q 22.3125 6.890625 25.984375 6.890625 
Q 35.75 6.890625 40.890625 13.453125 
Q 46.046875 20.015625 46.78125 33.40625 
Q 43.953125 29.203125 39.59375 26.953125 
Q 35.25 24.703125 29.984375 24.703125 
Q 19.046875 24.703125 12.671875 31.3125 
Q 6.296875 37.9375 6.296875 49.421875 
Q 6.296875 60.640625 12.9375 67.421875 
Q 19.578125 74.21875 30.609375 74.21875 
Q 43.265625 74.21875 49.921875 64.515625 
Q 56.59375 54.828125 56.59375 36.375 
Q 56.59375 19.140625 48.40625 8.859375 
Q 40.234375 -1.421875 26.421875 -1.421875 
Q 22.703125 -1.421875 18.890625 -0.6875 
Q 15.09375 0.046875 10.984375 1.515625 
z
M 30.609375 32.421875 
Q 37.25 32.421875 41.125 36.953125 
Q 45.015625 41.5 45.015625 49.421875 
Q 45.015625 57.28125 41.125 61.84375 
Q 37.25 66.40625 30.609375 66.40625 
Q 23.96875 66.40625 20.09375 61.84375 
Q 16.21875 57.28125 16.21875 49.421875 
Q 16.21875 41.5 20.09375 36.953125 
Q 23.96875 32.421875 30.609375 32.421875 
z
" id="DejaVuSans-57"/>
      <path d="M 8.015625 75.875 
L 15.828125 75.875 
Q 23.140625 64.359375 26.78125 53.3125 
Q 30.421875 42.28125 30.421875 31.390625 
Q 30.421875 20.453125 26.78125 9.375 
Q 23.140625 -1.703125 15.828125 -13.1875 
L 8.015625 -13.1875 
Q 14.5 -2 17.703125 9.0625 
Q 20.90625 20.125 20.90625 31.390625 
Q 20.90625 42.671875 17.703125 53.65625 
Q 14.5 64.65625 8.015625 75.875 
z
" id="DejaVuSans-41"/>
     </defs>
     <g transform="translate(316.72 53.15625)scale(0.1 -0.1)">
      <use transform="translate(0 0.015625)" xlink:href="#DejaVuSans-101"/>
      <use transform="translate(61.523438 0.015625)" xlink:href="#DejaVuSans-120"/>
      <use transform="translate(120.703125 0.015625)" xlink:href="#DejaVuSans-112"/>
      <use transform="translate(184.179688 0.015625)" xlink:href="#DejaVuSans-40"/>
      <use transform="translate(223.193359 0.015625)" xlink:href="#DejaVuSans-8722"/>
      <use transform="translate(306.982422 0.015625)" xlink:href="#DejaVuSans-48"/>
      <use transform="translate(370.605469 0.015625)" xlink:href="#DejaVuSans-46"/>
      <use transform="translate(402.392578 0.015625)" xlink:href="#DejaVuSans-51"/>
      <use transform="translate(466.015625 0.015625)" xlink:href="#DejaVuSans-57"/>
      <use transform="translate(529.638672 0.015625)" xlink:href="#DejaVuSans-51"/>
      <use transform="translate(593.261719 0.015625)" xlink:href="#DejaVuSans-Oblique-107"/>
      <use transform="translate(651.171875 0.015625)" xlink:href="#DejaVuSans-41"/>
     </g>
    </g>
   </g>
  </g>
 </g>
 <defs>
  <clipPath id="p0574abdb25">
   <rect height="266.112" width="357.12" x="37.7" y="7.2"/>
  </clipPath>
 </defs>
</svg>
