<?xml version="1.0" encoding="utf-8" standalone="no"?>
<!DOCTYPE svg PUBLIC "-//W3C//DTD SVG 1.1//EN"
  "http://www.w3.org/Graphics/SVG/1.1/DTD/svg11.dtd">
<!-- Created with matplotlib (https://matplotlib.org/) -->
<svg height="310.86825pt" version="1.1" viewBox="0 0 402.02 310.86825" width="402.02pt" xmlns="http://www.w3.org/2000/svg" xmlns:xlink="http://www.w3.org/1999/xlink">
 <defs>
  <style type="text/css">
*{stroke-linecap:butt;stroke-linejoin:round;}
  </style>
 </defs>
 <g id="figure_1">
  <g id="patch_1">
   <path d="M 0 310.86825 
L 402.02 310.86825 
L 402.02 0 
L 0 0 
z
" style="fill:#ffffff;"/>
  </g>
  <g id="axes_1">
   <g id="patch_2">
    <path d="M 37.7 273.312 
L 394.82 273.312 
L 394.82 7.2 
L 37.7 7.2 
z
" style="fill:#ffffff;"/>
   </g>
   <g id="matplotlib.axis_1">
    <g id="xtick_1">
     <g id="line2d_1">
      <defs>
       <path d="M 0 0 
L 0 3.5 
" id="m3737c6f213" style="stroke:#000000;stroke-width:0.8;"/>
      </defs>
      <g>
       <use style="stroke:#000000;stroke-width:0.8;" x="53.932727" xlink:href="#m3737c6f213" y="273.312"/>
      </g>
     </g>
     <g id="text_1">
      <!-- 0 -->
      <defs>
       <path d="M 31.78125 66.40625 
Q 24.171875 66.40625 20.328125 58.90625 
Q 16.5 51.421875 16.5 36.375 
Q 16.5 21.390625 20.328125 13.890625 
Q 24.171875 6.390625 31.78125 6.390625 
Q 39.453125 6.390625 43.28125 13.890625 
Q 47.125 21.390625 47.125 36.375 
Q 47.125 51.421875 43.28125 58.90625 
Q 39.453125 66.40625 31.78125 66.40625 
z
M 31.78125 74.21875 
Q 44.046875 74.21875 50.515625 64.515625 
Q 56.984375 54.828125 56.984375 36.375 
Q 56.984375 17.96875 50.515625 8.265625 
Q 44.046875 -1.421875 31.78125 -1.421875 
Q 19.53125 -1.421875 13.0625 8.265625 
Q 6.59375 17.96875 6.59375 36.375 
Q 6.59375 54.828125 13.0625 64.515625 
Q 19.53125 74.21875 31.78125 74.21875 
z
" id="DejaVuSans-48"/>
      </defs>
      <g transform="translate(50.751477 287.910438)scale(0.1 -0.1)">
       <use xlink:href="#DejaVuSans-48"/>
      </g>
     </g>
    </g>
    <g id="xtick_2">
     <g id="line2d_2">
      <g>
       <use style="stroke:#000000;stroke-width:0.8;" x="112.114545" xlink:href="#m3737c6f213" y="273.312"/>
      </g>
     </g>
     <g id="text_2">
      <!-- 50 -->
      <defs>
       <path d="M 10.796875 72.90625 
L 49.515625 72.90625 
L 49.515625 64.59375 
L 19.828125 64.59375 
L 19.828125 46.734375 
Q 21.96875 47.46875 24.109375 47.828125 
Q 26.265625 48.1875 28.421875 48.1875 
Q 40.625 48.1875 47.75 41.5 
Q 54.890625 34.8125 54.890625 23.390625 
Q 54.890625 11.625 47.5625 5.09375 
Q 40.234375 -1.421875 26.90625 -1.421875 
Q 22.3125 -1.421875 17.546875 -0.640625 
Q 12.796875 0.140625 7.71875 1.703125 
L 7.71875 11.625 
Q 12.109375 9.234375 16.796875 8.0625 
Q 21.484375 6.890625 26.703125 6.890625 
Q 35.15625 6.890625 40.078125 11.328125 
Q 45.015625 15.765625 45.015625 23.390625 
Q 45.015625 31 40.078125 35.4375 
Q 35.15625 39.890625 26.703125 39.890625 
Q 22.75 39.890625 18.8125 39.015625 
Q 14.890625 38.140625 10.796875 36.28125 
z
" id="DejaVuSans-53"/>
      </defs>
      <g transform="translate(105.752045 287.910438)scale(0.1 -0.1)">
       <use xlink:href="#DejaVuSans-53"/>
       <use x="63.623047" xlink:href="#DejaVuSans-48"/>
      </g>
     </g>
    </g>
    <g id="xtick_3">
     <g id="line2d_3">
      <g>
       <use style="stroke:#000000;stroke-width:0.8;" x="170.296364" xlink:href="#m3737c6f213" y="273.312"/>
      </g>
     </g>
     <g id="text_3">
      <!-- 100 -->
      <defs>
       <path d="M 12.40625 8.296875 
L 28.515625 8.296875 
L 28.515625 63.921875 
L 10.984375 60.40625 
L 10.984375 69.390625 
L 28.421875 72.90625 
L 38.28125 72.90625 
L 38.28125 8.296875 
L 54.390625 8.296875 
L 54.390625 0 
L 12.40625 0 
z
" id="DejaVuSans-49"/>
      </defs>
      <g transform="translate(160.752614 287.910438)scale(0.1 -0.1)">
       <use xlink:href="#DejaVuSans-49"/>
       <use x="63.623047" xlink:href="#DejaVuSans-48"/>
       <use x="127.246094" xlink:href="#DejaVuSans-48"/>
      </g>
     </g>
    </g>
    <g id="xtick_4">
     <g id="line2d_4">
      <g>
       <use style="stroke:#000000;stroke-width:0.8;" x="228.478182" xlink:href="#m3737c6f213" y="273.312"/>
      </g>
     </g>
     <g id="text_4">
      <!-- 150 -->
      <g transform="translate(218.934432 287.910438)scale(0.1 -0.1)">
       <use xlink:href="#DejaVuSans-49"/>
       <use x="63.623047" xlink:href="#DejaVuSans-53"/>
       <use x="127.246094" xlink:href="#DejaVuSans-48"/>
      </g>
     </g>
    </g>
    <g id="xtick_5">
     <g id="line2d_5">
      <g>
       <use style="stroke:#000000;stroke-width:0.8;" x="286.66" xlink:href="#m3737c6f213" y="273.312"/>
      </g>
     </g>
     <g id="text_5">
      <!-- 200 -->
      <defs>
       <path d="M 19.1875 8.296875 
L 53.609375 8.296875 
L 53.609375 0 
L 7.328125 0 
L 7.328125 8.296875 
Q 12.9375 14.109375 22.625 23.890625 
Q 32.328125 33.6875 34.8125 36.53125 
Q 39.546875 41.84375 41.421875 45.53125 
Q 43.3125 49.21875 43.3125 52.78125 
Q 43.3125 58.59375 39.234375 62.25 
Q 35.15625 65.921875 28.609375 65.921875 
Q 23.96875 65.921875 18.8125 64.3125 
Q 13.671875 62.703125 7.8125 59.421875 
L 7.8125 69.390625 
Q 13.765625 71.78125 18.9375 73 
Q 24.125 74.21875 28.421875 74.21875 
Q 39.75 74.21875 46.484375 68.546875 
Q 53.21875 62.890625 53.21875 53.421875 
Q 53.21875 48.921875 51.53125 44.890625 
Q 49.859375 40.875 45.40625 35.40625 
Q 44.1875 33.984375 37.640625 27.21875 
Q 31.109375 20.453125 19.1875 8.296875 
z
" id="DejaVuSans-50"/>
      </defs>
      <g transform="translate(277.11625 287.910438)scale(0.1 -0.1)">
       <use xlink:href="#DejaVuSans-50"/>
       <use x="63.623047" xlink:href="#DejaVuSans-48"/>
       <use x="127.246094" xlink:href="#DejaVuSans-48"/>
      </g>
     </g>
    </g>
    <g id="xtick_6">
     <g id="line2d_6">
      <g>
       <use style="stroke:#000000;stroke-width:0.8;" x="344.841818" xlink:href="#m3737c6f213" y="273.312"/>
      </g>
     </g>
     <g id="text_6">
      <!-- 250 -->
      <g transform="translate(335.298068 287.910438)scale(0.1 -0.1)">
       <use xlink:href="#DejaVuSans-50"/>
       <use x="63.623047" xlink:href="#DejaVuSans-53"/>
       <use x="127.246094" xlink:href="#DejaVuSans-48"/>
      </g>
     </g>
    </g>
    <g id="text_7">
     <!-- $ k $ -->
     <defs>
      <path d="M 18.3125 75.984375 
L 27.296875 75.984375 
L 18.703125 31.6875 
L 49.515625 54.6875 
L 61.1875 54.6875 
L 26.8125 28.515625 
L 51.90625 0 
L 41.015625 0 
L 17.671875 26.703125 
L 12.5 0 
L 3.515625 0 
z
" id="DejaVuSans-Oblique-107"/>
     </defs>
     <g transform="translate(213.36 301.588562)scale(0.1 -0.1)">
      <use transform="translate(0 0.015625)" xlink:href="#DejaVuSans-Oblique-107"/>
     </g>
    </g>
   </g>
   <g id="matplotlib.axis_2">
    <g id="ytick_1">
     <g id="line2d_7">
      <defs>
       <path d="M 0 0 
L -3.5 0 
" id="me7f008fc83" style="stroke:#000000;stroke-width:0.8;"/>
      </defs>
      <g>
       <use style="stroke:#000000;stroke-width:0.8;" x="37.7" xlink:href="#me7f008fc83" y="223.005276"/>
      </g>
     </g>
     <g id="text_8">
      <!-- $\mathdefault{10^{-5}}$ -->
      <defs>
       <path d="M 10.59375 35.5 
L 73.1875 35.5 
L 73.1875 27.203125 
L 10.59375 27.203125 
z
" id="DejaVuSans-8722"/>
      </defs>
      <g transform="translate(7.2 226.804495)scale(0.1 -0.1)">
       <use transform="translate(0 0.684375)" xlink:href="#DejaVuSans-49"/>
       <use transform="translate(63.623047 0.684375)" xlink:href="#DejaVuSans-48"/>
       <use transform="translate(128.203125 38.965625)scale(0.7)" xlink:href="#DejaVuSans-8722"/>
       <use transform="translate(186.855469 38.965625)scale(0.7)" xlink:href="#DejaVuSans-53"/>
      </g>
     </g>
    </g>
    <g id="ytick_2">
     <g id="line2d_8">
      <g>
       <use style="stroke:#000000;stroke-width:0.8;" x="37.7" xlink:href="#me7f008fc83" y="162.239067"/>
      </g>
     </g>
     <g id="text_9">
      <!-- $\mathdefault{10^{-3}}$ -->
      <defs>
       <path d="M 40.578125 39.3125 
Q 47.65625 37.796875 51.625 33 
Q 55.609375 28.21875 55.609375 21.1875 
Q 55.609375 10.40625 48.1875 4.484375 
Q 40.765625 -1.421875 27.09375 -1.421875 
Q 22.515625 -1.421875 17.65625 -0.515625 
Q 12.796875 0.390625 7.625 2.203125 
L 7.625 11.71875 
Q 11.71875 9.328125 16.59375 8.109375 
Q 21.484375 6.890625 26.8125 6.890625 
Q 36.078125 6.890625 40.9375 10.546875 
Q 45.796875 14.203125 45.796875 21.1875 
Q 45.796875 27.640625 41.28125 31.265625 
Q 36.765625 34.90625 28.71875 34.90625 
L 20.21875 34.90625 
L 20.21875 43.015625 
L 29.109375 43.015625 
Q 36.375 43.015625 40.234375 45.921875 
Q 44.09375 48.828125 44.09375 54.296875 
Q 44.09375 59.90625 40.109375 62.90625 
Q 36.140625 65.921875 28.71875 65.921875 
Q 24.65625 65.921875 20.015625 65.03125 
Q 15.375 64.15625 9.8125 62.3125 
L 9.8125 71.09375 
Q 15.4375 72.65625 20.34375 73.4375 
Q 25.25 74.21875 29.59375 74.21875 
Q 40.828125 74.21875 47.359375 69.109375 
Q 53.90625 64.015625 53.90625 55.328125 
Q 53.90625 49.265625 50.4375 45.09375 
Q 46.96875 40.921875 40.578125 39.3125 
z
" id="DejaVuSans-51"/>
      </defs>
      <g transform="translate(7.2 166.038286)scale(0.1 -0.1)">
       <use transform="translate(0 0.765625)" xlink:href="#DejaVuSans-49"/>
       <use transform="translate(63.623047 0.765625)" xlink:href="#DejaVuSans-48"/>
       <use transform="translate(128.203125 39.046875)scale(0.7)" xlink:href="#DejaVuSans-8722"/>
       <use transform="translate(186.855469 39.046875)scale(0.7)" xlink:href="#DejaVuSans-51"/>
      </g>
     </g>
    </g>
    <g id="ytick_3">
     <g id="line2d_9">
      <g>
       <use style="stroke:#000000;stroke-width:0.8;" x="37.7" xlink:href="#me7f008fc83" y="101.472858"/>
      </g>
     </g>
     <g id="text_10">
      <!-- $\mathdefault{10^{-1}}$ -->
      <g transform="translate(7.2 105.272077)scale(0.1 -0.1)">
       <use transform="translate(0 0.684375)" xlink:href="#DejaVuSans-49"/>
       <use transform="translate(63.623047 0.684375)" xlink:href="#DejaVuSans-48"/>
       <use transform="translate(128.203125 38.965625)scale(0.7)" xlink:href="#DejaVuSans-8722"/>
       <use transform="translate(186.855469 38.965625)scale(0.7)" xlink:href="#DejaVuSans-49"/>
      </g>
     </g>
    </g>
    <g id="ytick_4">
     <g id="line2d_10">
      <g>
       <use style="stroke:#000000;stroke-width:0.8;" x="37.7" xlink:href="#me7f008fc83" y="40.706649"/>
      </g>
     </g>
     <g id="text_11">
      <!-- $\mathdefault{10^{1}}$ -->
      <g transform="translate(13.1 44.505868)scale(0.1 -0.1)">
       <use transform="translate(0 0.684375)" xlink:href="#DejaVuSans-49"/>
       <use transform="translate(63.623047 0.684375)" xlink:href="#DejaVuSans-48"/>
       <use transform="translate(128.203125 38.965625)scale(0.7)" xlink:href="#DejaVuSans-49"/>
      </g>
     </g>
    </g>
   </g>
   <g id="line2d_11">
    <path clip-path="url(#p8ad8357caa)" d="M 53.932727 19.296 
L 55.096364 27.726411 
L 56.26 38.907171 
L 58.587273 63.442123 
L 64.405455 125.315222 
L 66.732727 156.249785 
L 67.896364 192.585575 
L 69.06 174.774495 
L 70.223636 185.678575 
L 71.387273 171.164553 
L 72.550909 192.094539 
L 73.714545 172.23258 
L 76.041818 176.537706 
L 77.205455 179.999608 
L 78.369091 157.691651 
L 79.532727 174.207881 
L 80.696364 184.205485 
L 81.86 185.907172 
L 83.023636 165.848065 
L 84.187273 201.462556 
L 85.350909 176.467663 
L 86.514545 167.718531 
L 87.678182 199.382027 
L 88.841818 166.322942 
L 90.005455 195.039574 
L 91.169091 173.136285 
L 92.332727 188.968961 
L 93.496364 162.737384 
L 94.66 167.296886 
L 95.823636 169.784392 
L 96.987273 164.875699 
L 98.150909 186.597875 
L 99.314545 197.350609 
L 100.478182 183.895425 
L 101.641818 178.045013 
L 102.805455 180.872208 
L 103.969091 172.246987 
L 105.132727 261.216 
L 106.296364 176.259118 
L 107.46 201.223407 
L 108.623636 172.1652 
L 109.787273 173.929637 
L 110.950909 209.735929 
L 112.114545 169.985086 
L 113.278182 171.486438 
L 114.441818 185.437162 
L 115.605455 168.59957 
L 116.769091 170.528303 
L 117.932727 165.179427 
L 119.096364 183.905671 
L 120.26 186.556126 
L 121.423636 182.160779 
L 122.587273 181.873428 
L 123.750909 212.096133 
L 124.914545 178.1139 
L 126.078182 197.867756 
L 127.241818 184.70916 
L 128.405455 183.095736 
L 129.569091 189.361406 
L 130.732727 202.714931 
L 131.896364 173.858374 
L 133.06 165.966662 
L 134.223636 190.813344 
L 135.387273 174.66452 
L 136.550909 172.021384 
L 137.714545 174.483382 
L 138.878182 238.583042 
L 140.041818 169.456921 
L 141.205455 171.296887 
L 142.369091 167.927906 
L 143.532727 174.230939 
L 144.696364 175.860209 
L 145.86 185.775838 
L 147.023636 168.68344 
L 148.187273 168.207418 
L 149.350909 179.855298 
L 150.514545 168.685551 
L 151.678182 189.111455 
L 152.841818 184.81039 
L 154.005455 177.457566 
L 155.169091 179.625938 
L 156.332727 177.008817 
L 157.496364 187.551326 
L 158.66 160.001729 
L 159.823636 179.453348 
L 160.987273 229.524752 
L 162.150909 191.511713 
L 163.314545 170.333635 
L 164.478182 180.228059 
L 165.641818 166.623407 
L 166.805455 166.204688 
L 167.969091 188.543188 
L 169.132727 175.156301 
L 170.296364 192.522368 
L 171.46 173.786426 
L 172.623636 169.682922 
L 173.787273 169.830929 
L 174.950909 173.616499 
L 176.114545 189.883987 
L 177.278182 178.644945 
L 178.441818 163.323705 
L 179.605455 167.328849 
L 180.769091 172.037766 
L 181.932727 201.077852 
L 183.096364 169.356996 
L 184.26 181.417992 
L 185.423636 211.865479 
L 186.587273 157.544781 
L 187.750909 160.19283 
L 188.914545 173.389282 
L 190.078182 188.892871 
L 191.241818 182.729947 
L 192.405455 187.71852 
L 193.569091 178.836743 
L 194.732727 207.576727 
L 195.896364 174.481503 
L 197.06 181.160739 
L 198.223636 181.539986 
L 199.387273 176.138144 
L 200.550909 200.860112 
L 201.714545 196.474477 
L 202.878182 169.634997 
L 205.205455 192.312909 
L 206.369091 163.154614 
L 207.532727 174.636055 
L 208.696364 181.147882 
L 209.86 167.003549 
L 211.023636 179.515665 
L 212.187273 173.287399 
L 213.350909 178.125969 
L 214.514545 195.890426 
L 215.678182 181.422855 
L 216.841818 207.322066 
L 218.005455 174.157705 
L 219.169091 155.89913 
L 220.332727 160.74601 
L 221.496364 170.8896 
L 222.66 182.461077 
L 223.823636 186.461132 
L 224.987273 173.561105 
L 226.150909 197.651831 
L 227.314545 167.030729 
L 228.478182 175.604053 
L 229.641818 167.695248 
L 230.805455 167.372161 
L 231.969091 186.731953 
L 233.132727 165.48935 
L 234.296364 166.606809 
L 235.46 200.636964 
L 236.623636 230.982843 
L 237.787273 177.434437 
L 238.950909 183.455016 
L 240.114545 173.64377 
L 241.278182 172.328144 
L 242.441818 179.597365 
L 243.605455 182.833083 
L 244.769091 180.833262 
L 245.932727 165.868446 
L 247.096364 166.252813 
L 249.423636 179.332319 
L 250.587273 223.449144 
L 251.750909 181.64732 
L 252.914545 190.571339 
L 254.078182 190.304343 
L 255.241818 178.645809 
L 256.405455 186.864761 
L 257.569091 188.989442 
L 258.732727 167.935636 
L 259.896364 200.323509 
L 261.06 173.541485 
L 262.223636 182.456956 
L 263.387273 200.350105 
L 264.550909 175.457292 
L 265.714545 177.705601 
L 266.878182 187.520333 
L 268.041818 173.562974 
L 269.205455 176.629489 
L 270.369091 187.400408 
L 271.532727 173.673883 
L 272.696364 172.893584 
L 273.86 185.85787 
L 276.187273 168.1077 
L 277.350909 169.073789 
L 278.514545 161.983057 
L 279.678182 177.539042 
L 280.841818 179.255679 
L 282.005455 223.846989 
L 283.169091 176.247238 
L 284.332727 170.061234 
L 285.496364 171.18839 
L 286.66 184.481033 
L 287.823636 211.356756 
L 288.987273 196.493359 
L 290.150909 173.515457 
L 291.314545 160.662098 
L 292.478182 175.372399 
L 293.641818 154.283194 
L 294.805455 161.588904 
L 295.969091 161.98235 
L 297.132727 173.708853 
L 298.296364 162.860086 
L 299.46 183.757759 
L 300.623636 210.911028 
L 301.787273 189.187191 
L 302.950909 172.703123 
L 304.114545 183.784221 
L 305.278182 176.271704 
L 306.441818 171.772934 
L 307.605455 185.214707 
L 308.769091 188.473651 
L 309.932727 177.929791 
L 311.096364 175.72501 
L 312.26 187.016833 
L 313.423636 175.31105 
L 314.587273 175.768316 
L 315.750909 181.415422 
L 316.914545 180.058582 
L 318.078182 169.076778 
L 319.241818 195.328295 
L 320.405455 194.357074 
L 321.569091 175.192493 
L 322.732727 197.571732 
L 323.896364 181.995859 
L 325.06 158.393387 
L 326.223636 174.997497 
L 327.387273 167.147991 
L 328.550909 254.860287 
L 329.714545 187.290381 
L 330.878182 180.686388 
L 332.041818 204.475665 
L 333.205455 176.740331 
L 334.369091 196.072164 
L 335.532727 218.06855 
L 336.696364 180.358179 
L 337.86 174.248196 
L 339.023636 184.467694 
L 340.187273 206.356277 
L 341.350909 165.626051 
L 342.514545 172.101317 
L 343.678182 171.067055 
L 344.841818 174.500961 
L 346.005455 178.741181 
L 347.169091 170.610087 
L 348.332727 175.33689 
L 349.496364 174.016246 
L 350.66 176.130984 
L 351.823636 159.391245 
L 352.987273 166.504796 
L 354.150909 180.582974 
L 355.314545 167.592334 
L 356.478182 169.178687 
L 357.641818 165.163374 
L 358.805455 191.88121 
L 359.969091 172.498941 
L 361.132727 195.561948 
L 362.296364 172.393399 
L 363.46 204.501216 
L 364.623636 170.930501 
L 365.787273 167.971263 
L 366.950909 187.445023 
L 368.114545 184.236725 
L 369.278182 194.000776 
L 370.441818 175.269986 
L 371.605455 179.771012 
L 372.769091 172.025978 
L 373.932727 170.249643 
L 375.096364 160.088981 
L 376.26 199.562956 
L 376.264319 311.86825 
L 376.264319 311.86825 
" style="fill:none;stroke:#1f77b4;stroke-linecap:square;stroke-width:1.5;"/>
    <defs>
     <path d="M 0 3 
C 0.795609 3 1.55874 2.683901 2.12132 2.12132 
C 2.683901 1.55874 3 0.795609 3 0 
C 3 -0.795609 2.683901 -1.55874 2.12132 -2.12132 
C 1.55874 -2.683901 0.795609 -3 0 -3 
C -0.795609 -3 -1.55874 -2.683901 -2.12132 -2.12132 
C -2.683901 -1.55874 -3 -0.795609 -3 0 
C -3 0.795609 -2.683901 1.55874 -2.12132 2.12132 
C -1.55874 2.683901 -0.795609 3 0 3 
z
" id="mb22936a16a" style="stroke:#1f77b4;"/>
    </defs>
    <g clip-path="url(#p8ad8357caa)">
     <use style="fill:#1f77b4;stroke:#1f77b4;" x="53.932727" xlink:href="#mb22936a16a" y="19.296"/>
     <use style="fill:#1f77b4;stroke:#1f77b4;" x="55.096364" xlink:href="#mb22936a16a" y="27.726411"/>
     <use style="fill:#1f77b4;stroke:#1f77b4;" x="56.26" xlink:href="#mb22936a16a" y="38.907171"/>
     <use style="fill:#1f77b4;stroke:#1f77b4;" x="57.423636" xlink:href="#mb22936a16a" y="51.763293"/>
     <use style="fill:#1f77b4;stroke:#1f77b4;" x="58.587273" xlink:href="#mb22936a16a" y="63.442123"/>
     <use style="fill:#1f77b4;stroke:#1f77b4;" x="59.750909" xlink:href="#mb22936a16a" y="76.046135"/>
     <use style="fill:#1f77b4;stroke:#1f77b4;" x="60.914545" xlink:href="#mb22936a16a" y="88.237329"/>
     <use style="fill:#1f77b4;stroke:#1f77b4;" x="62.078182" xlink:href="#mb22936a16a" y="100.689624"/>
     <use style="fill:#1f77b4;stroke:#1f77b4;" x="63.241818" xlink:href="#mb22936a16a" y="112.859424"/>
     <use style="fill:#1f77b4;stroke:#1f77b4;" x="64.405455" xlink:href="#mb22936a16a" y="125.315222"/>
     <use style="fill:#1f77b4;stroke:#1f77b4;" x="65.569091" xlink:href="#mb22936a16a" y="141.201746"/>
     <use style="fill:#1f77b4;stroke:#1f77b4;" x="66.732727" xlink:href="#mb22936a16a" y="156.249785"/>
     <use style="fill:#1f77b4;stroke:#1f77b4;" x="67.896364" xlink:href="#mb22936a16a" y="192.585575"/>
     <use style="fill:#1f77b4;stroke:#1f77b4;" x="69.06" xlink:href="#mb22936a16a" y="174.774495"/>
     <use style="fill:#1f77b4;stroke:#1f77b4;" x="70.223636" xlink:href="#mb22936a16a" y="185.678575"/>
     <use style="fill:#1f77b4;stroke:#1f77b4;" x="71.387273" xlink:href="#mb22936a16a" y="171.164553"/>
     <use style="fill:#1f77b4;stroke:#1f77b4;" x="72.550909" xlink:href="#mb22936a16a" y="192.094539"/>
     <use style="fill:#1f77b4;stroke:#1f77b4;" x="73.714545" xlink:href="#mb22936a16a" y="172.23258"/>
     <use style="fill:#1f77b4;stroke:#1f77b4;" x="74.878182" xlink:href="#mb22936a16a" y="174.392651"/>
     <use style="fill:#1f77b4;stroke:#1f77b4;" x="76.041818" xlink:href="#mb22936a16a" y="176.537706"/>
     <use style="fill:#1f77b4;stroke:#1f77b4;" x="77.205455" xlink:href="#mb22936a16a" y="179.999608"/>
     <use style="fill:#1f77b4;stroke:#1f77b4;" x="78.369091" xlink:href="#mb22936a16a" y="157.691651"/>
     <use style="fill:#1f77b4;stroke:#1f77b4;" x="79.532727" xlink:href="#mb22936a16a" y="174.207881"/>
     <use style="fill:#1f77b4;stroke:#1f77b4;" x="80.696364" xlink:href="#mb22936a16a" y="184.205485"/>
     <use style="fill:#1f77b4;stroke:#1f77b4;" x="81.86" xlink:href="#mb22936a16a" y="185.907172"/>
     <use style="fill:#1f77b4;stroke:#1f77b4;" x="83.023636" xlink:href="#mb22936a16a" y="165.848065"/>
     <use style="fill:#1f77b4;stroke:#1f77b4;" x="84.187273" xlink:href="#mb22936a16a" y="201.462556"/>
     <use style="fill:#1f77b4;stroke:#1f77b4;" x="85.350909" xlink:href="#mb22936a16a" y="176.467663"/>
     <use style="fill:#1f77b4;stroke:#1f77b4;" x="86.514545" xlink:href="#mb22936a16a" y="167.718531"/>
     <use style="fill:#1f77b4;stroke:#1f77b4;" x="87.678182" xlink:href="#mb22936a16a" y="199.382027"/>
     <use style="fill:#1f77b4;stroke:#1f77b4;" x="88.841818" xlink:href="#mb22936a16a" y="166.322942"/>
     <use style="fill:#1f77b4;stroke:#1f77b4;" x="90.005455" xlink:href="#mb22936a16a" y="195.039574"/>
     <use style="fill:#1f77b4;stroke:#1f77b4;" x="91.169091" xlink:href="#mb22936a16a" y="173.136285"/>
     <use style="fill:#1f77b4;stroke:#1f77b4;" x="92.332727" xlink:href="#mb22936a16a" y="188.968961"/>
     <use style="fill:#1f77b4;stroke:#1f77b4;" x="93.496364" xlink:href="#mb22936a16a" y="162.737384"/>
     <use style="fill:#1f77b4;stroke:#1f77b4;" x="94.66" xlink:href="#mb22936a16a" y="167.296886"/>
     <use style="fill:#1f77b4;stroke:#1f77b4;" x="95.823636" xlink:href="#mb22936a16a" y="169.784392"/>
     <use style="fill:#1f77b4;stroke:#1f77b4;" x="96.987273" xlink:href="#mb22936a16a" y="164.875699"/>
     <use style="fill:#1f77b4;stroke:#1f77b4;" x="98.150909" xlink:href="#mb22936a16a" y="186.597875"/>
     <use style="fill:#1f77b4;stroke:#1f77b4;" x="99.314545" xlink:href="#mb22936a16a" y="197.350609"/>
     <use style="fill:#1f77b4;stroke:#1f77b4;" x="100.478182" xlink:href="#mb22936a16a" y="183.895425"/>
     <use style="fill:#1f77b4;stroke:#1f77b4;" x="101.641818" xlink:href="#mb22936a16a" y="178.045013"/>
     <use style="fill:#1f77b4;stroke:#1f77b4;" x="102.805455" xlink:href="#mb22936a16a" y="180.872208"/>
     <use style="fill:#1f77b4;stroke:#1f77b4;" x="103.969091" xlink:href="#mb22936a16a" y="172.246987"/>
     <use style="fill:#1f77b4;stroke:#1f77b4;" x="105.132727" xlink:href="#mb22936a16a" y="261.216"/>
     <use style="fill:#1f77b4;stroke:#1f77b4;" x="106.296364" xlink:href="#mb22936a16a" y="176.259118"/>
     <use style="fill:#1f77b4;stroke:#1f77b4;" x="107.46" xlink:href="#mb22936a16a" y="201.223407"/>
     <use style="fill:#1f77b4;stroke:#1f77b4;" x="108.623636" xlink:href="#mb22936a16a" y="172.1652"/>
     <use style="fill:#1f77b4;stroke:#1f77b4;" x="109.787273" xlink:href="#mb22936a16a" y="173.929637"/>
     <use style="fill:#1f77b4;stroke:#1f77b4;" x="110.950909" xlink:href="#mb22936a16a" y="209.735929"/>
     <use style="fill:#1f77b4;stroke:#1f77b4;" x="112.114545" xlink:href="#mb22936a16a" y="169.985086"/>
     <use style="fill:#1f77b4;stroke:#1f77b4;" x="113.278182" xlink:href="#mb22936a16a" y="171.486438"/>
     <use style="fill:#1f77b4;stroke:#1f77b4;" x="114.441818" xlink:href="#mb22936a16a" y="185.437162"/>
     <use style="fill:#1f77b4;stroke:#1f77b4;" x="115.605455" xlink:href="#mb22936a16a" y="168.59957"/>
     <use style="fill:#1f77b4;stroke:#1f77b4;" x="116.769091" xlink:href="#mb22936a16a" y="170.528303"/>
     <use style="fill:#1f77b4;stroke:#1f77b4;" x="117.932727" xlink:href="#mb22936a16a" y="165.179427"/>
     <use style="fill:#1f77b4;stroke:#1f77b4;" x="119.096364" xlink:href="#mb22936a16a" y="183.905671"/>
     <use style="fill:#1f77b4;stroke:#1f77b4;" x="120.26" xlink:href="#mb22936a16a" y="186.556126"/>
     <use style="fill:#1f77b4;stroke:#1f77b4;" x="121.423636" xlink:href="#mb22936a16a" y="182.160779"/>
     <use style="fill:#1f77b4;stroke:#1f77b4;" x="122.587273" xlink:href="#mb22936a16a" y="181.873428"/>
     <use style="fill:#1f77b4;stroke:#1f77b4;" x="123.750909" xlink:href="#mb22936a16a" y="212.096133"/>
     <use style="fill:#1f77b4;stroke:#1f77b4;" x="124.914545" xlink:href="#mb22936a16a" y="178.1139"/>
     <use style="fill:#1f77b4;stroke:#1f77b4;" x="126.078182" xlink:href="#mb22936a16a" y="197.867756"/>
     <use style="fill:#1f77b4;stroke:#1f77b4;" x="127.241818" xlink:href="#mb22936a16a" y="184.70916"/>
     <use style="fill:#1f77b4;stroke:#1f77b4;" x="128.405455" xlink:href="#mb22936a16a" y="183.095736"/>
     <use style="fill:#1f77b4;stroke:#1f77b4;" x="129.569091" xlink:href="#mb22936a16a" y="189.361406"/>
     <use style="fill:#1f77b4;stroke:#1f77b4;" x="130.732727" xlink:href="#mb22936a16a" y="202.714931"/>
     <use style="fill:#1f77b4;stroke:#1f77b4;" x="131.896364" xlink:href="#mb22936a16a" y="173.858374"/>
     <use style="fill:#1f77b4;stroke:#1f77b4;" x="133.06" xlink:href="#mb22936a16a" y="165.966662"/>
     <use style="fill:#1f77b4;stroke:#1f77b4;" x="134.223636" xlink:href="#mb22936a16a" y="190.813344"/>
     <use style="fill:#1f77b4;stroke:#1f77b4;" x="135.387273" xlink:href="#mb22936a16a" y="174.66452"/>
     <use style="fill:#1f77b4;stroke:#1f77b4;" x="136.550909" xlink:href="#mb22936a16a" y="172.021384"/>
     <use style="fill:#1f77b4;stroke:#1f77b4;" x="137.714545" xlink:href="#mb22936a16a" y="174.483382"/>
     <use style="fill:#1f77b4;stroke:#1f77b4;" x="138.878182" xlink:href="#mb22936a16a" y="238.583042"/>
     <use style="fill:#1f77b4;stroke:#1f77b4;" x="140.041818" xlink:href="#mb22936a16a" y="169.456921"/>
     <use style="fill:#1f77b4;stroke:#1f77b4;" x="141.205455" xlink:href="#mb22936a16a" y="171.296887"/>
     <use style="fill:#1f77b4;stroke:#1f77b4;" x="142.369091" xlink:href="#mb22936a16a" y="167.927906"/>
     <use style="fill:#1f77b4;stroke:#1f77b4;" x="143.532727" xlink:href="#mb22936a16a" y="174.230939"/>
     <use style="fill:#1f77b4;stroke:#1f77b4;" x="144.696364" xlink:href="#mb22936a16a" y="175.860209"/>
     <use style="fill:#1f77b4;stroke:#1f77b4;" x="145.86" xlink:href="#mb22936a16a" y="185.775838"/>
     <use style="fill:#1f77b4;stroke:#1f77b4;" x="147.023636" xlink:href="#mb22936a16a" y="168.68344"/>
     <use style="fill:#1f77b4;stroke:#1f77b4;" x="148.187273" xlink:href="#mb22936a16a" y="168.207418"/>
     <use style="fill:#1f77b4;stroke:#1f77b4;" x="149.350909" xlink:href="#mb22936a16a" y="179.855298"/>
     <use style="fill:#1f77b4;stroke:#1f77b4;" x="150.514545" xlink:href="#mb22936a16a" y="168.685551"/>
     <use style="fill:#1f77b4;stroke:#1f77b4;" x="151.678182" xlink:href="#mb22936a16a" y="189.111455"/>
     <use style="fill:#1f77b4;stroke:#1f77b4;" x="152.841818" xlink:href="#mb22936a16a" y="184.81039"/>
     <use style="fill:#1f77b4;stroke:#1f77b4;" x="154.005455" xlink:href="#mb22936a16a" y="177.457566"/>
     <use style="fill:#1f77b4;stroke:#1f77b4;" x="155.169091" xlink:href="#mb22936a16a" y="179.625938"/>
     <use style="fill:#1f77b4;stroke:#1f77b4;" x="156.332727" xlink:href="#mb22936a16a" y="177.008817"/>
     <use style="fill:#1f77b4;stroke:#1f77b4;" x="157.496364" xlink:href="#mb22936a16a" y="187.551326"/>
     <use style="fill:#1f77b4;stroke:#1f77b4;" x="158.66" xlink:href="#mb22936a16a" y="160.001729"/>
     <use style="fill:#1f77b4;stroke:#1f77b4;" x="159.823636" xlink:href="#mb22936a16a" y="179.453348"/>
     <use style="fill:#1f77b4;stroke:#1f77b4;" x="160.987273" xlink:href="#mb22936a16a" y="229.524752"/>
     <use style="fill:#1f77b4;stroke:#1f77b4;" x="162.150909" xlink:href="#mb22936a16a" y="191.511713"/>
     <use style="fill:#1f77b4;stroke:#1f77b4;" x="163.314545" xlink:href="#mb22936a16a" y="170.333635"/>
     <use style="fill:#1f77b4;stroke:#1f77b4;" x="164.478182" xlink:href="#mb22936a16a" y="180.228059"/>
     <use style="fill:#1f77b4;stroke:#1f77b4;" x="165.641818" xlink:href="#mb22936a16a" y="166.623407"/>
     <use style="fill:#1f77b4;stroke:#1f77b4;" x="166.805455" xlink:href="#mb22936a16a" y="166.204688"/>
     <use style="fill:#1f77b4;stroke:#1f77b4;" x="167.969091" xlink:href="#mb22936a16a" y="188.543188"/>
     <use style="fill:#1f77b4;stroke:#1f77b4;" x="169.132727" xlink:href="#mb22936a16a" y="175.156301"/>
     <use style="fill:#1f77b4;stroke:#1f77b4;" x="170.296364" xlink:href="#mb22936a16a" y="192.522368"/>
     <use style="fill:#1f77b4;stroke:#1f77b4;" x="171.46" xlink:href="#mb22936a16a" y="173.786426"/>
     <use style="fill:#1f77b4;stroke:#1f77b4;" x="172.623636" xlink:href="#mb22936a16a" y="169.682922"/>
     <use style="fill:#1f77b4;stroke:#1f77b4;" x="173.787273" xlink:href="#mb22936a16a" y="169.830929"/>
     <use style="fill:#1f77b4;stroke:#1f77b4;" x="174.950909" xlink:href="#mb22936a16a" y="173.616499"/>
     <use style="fill:#1f77b4;stroke:#1f77b4;" x="176.114545" xlink:href="#mb22936a16a" y="189.883987"/>
     <use style="fill:#1f77b4;stroke:#1f77b4;" x="177.278182" xlink:href="#mb22936a16a" y="178.644945"/>
     <use style="fill:#1f77b4;stroke:#1f77b4;" x="178.441818" xlink:href="#mb22936a16a" y="163.323705"/>
     <use style="fill:#1f77b4;stroke:#1f77b4;" x="179.605455" xlink:href="#mb22936a16a" y="167.328849"/>
     <use style="fill:#1f77b4;stroke:#1f77b4;" x="180.769091" xlink:href="#mb22936a16a" y="172.037766"/>
     <use style="fill:#1f77b4;stroke:#1f77b4;" x="181.932727" xlink:href="#mb22936a16a" y="201.077852"/>
     <use style="fill:#1f77b4;stroke:#1f77b4;" x="183.096364" xlink:href="#mb22936a16a" y="169.356996"/>
     <use style="fill:#1f77b4;stroke:#1f77b4;" x="184.26" xlink:href="#mb22936a16a" y="181.417992"/>
     <use style="fill:#1f77b4;stroke:#1f77b4;" x="185.423636" xlink:href="#mb22936a16a" y="211.865479"/>
     <use style="fill:#1f77b4;stroke:#1f77b4;" x="186.587273" xlink:href="#mb22936a16a" y="157.544781"/>
     <use style="fill:#1f77b4;stroke:#1f77b4;" x="187.750909" xlink:href="#mb22936a16a" y="160.19283"/>
     <use style="fill:#1f77b4;stroke:#1f77b4;" x="188.914545" xlink:href="#mb22936a16a" y="173.389282"/>
     <use style="fill:#1f77b4;stroke:#1f77b4;" x="190.078182" xlink:href="#mb22936a16a" y="188.892871"/>
     <use style="fill:#1f77b4;stroke:#1f77b4;" x="191.241818" xlink:href="#mb22936a16a" y="182.729947"/>
     <use style="fill:#1f77b4;stroke:#1f77b4;" x="192.405455" xlink:href="#mb22936a16a" y="187.71852"/>
     <use style="fill:#1f77b4;stroke:#1f77b4;" x="193.569091" xlink:href="#mb22936a16a" y="178.836743"/>
     <use style="fill:#1f77b4;stroke:#1f77b4;" x="194.732727" xlink:href="#mb22936a16a" y="207.576727"/>
     <use style="fill:#1f77b4;stroke:#1f77b4;" x="195.896364" xlink:href="#mb22936a16a" y="174.481503"/>
     <use style="fill:#1f77b4;stroke:#1f77b4;" x="197.06" xlink:href="#mb22936a16a" y="181.160739"/>
     <use style="fill:#1f77b4;stroke:#1f77b4;" x="198.223636" xlink:href="#mb22936a16a" y="181.539986"/>
     <use style="fill:#1f77b4;stroke:#1f77b4;" x="199.387273" xlink:href="#mb22936a16a" y="176.138144"/>
     <use style="fill:#1f77b4;stroke:#1f77b4;" x="200.550909" xlink:href="#mb22936a16a" y="200.860112"/>
     <use style="fill:#1f77b4;stroke:#1f77b4;" x="201.714545" xlink:href="#mb22936a16a" y="196.474477"/>
     <use style="fill:#1f77b4;stroke:#1f77b4;" x="202.878182" xlink:href="#mb22936a16a" y="169.634997"/>
     <use style="fill:#1f77b4;stroke:#1f77b4;" x="204.041818" xlink:href="#mb22936a16a" y="180.621564"/>
     <use style="fill:#1f77b4;stroke:#1f77b4;" x="205.205455" xlink:href="#mb22936a16a" y="192.312909"/>
     <use style="fill:#1f77b4;stroke:#1f77b4;" x="206.369091" xlink:href="#mb22936a16a" y="163.154614"/>
     <use style="fill:#1f77b4;stroke:#1f77b4;" x="207.532727" xlink:href="#mb22936a16a" y="174.636055"/>
     <use style="fill:#1f77b4;stroke:#1f77b4;" x="208.696364" xlink:href="#mb22936a16a" y="181.147882"/>
     <use style="fill:#1f77b4;stroke:#1f77b4;" x="209.86" xlink:href="#mb22936a16a" y="167.003549"/>
     <use style="fill:#1f77b4;stroke:#1f77b4;" x="211.023636" xlink:href="#mb22936a16a" y="179.515665"/>
     <use style="fill:#1f77b4;stroke:#1f77b4;" x="212.187273" xlink:href="#mb22936a16a" y="173.287399"/>
     <use style="fill:#1f77b4;stroke:#1f77b4;" x="213.350909" xlink:href="#mb22936a16a" y="178.125969"/>
     <use style="fill:#1f77b4;stroke:#1f77b4;" x="214.514545" xlink:href="#mb22936a16a" y="195.890426"/>
     <use style="fill:#1f77b4;stroke:#1f77b4;" x="215.678182" xlink:href="#mb22936a16a" y="181.422855"/>
     <use style="fill:#1f77b4;stroke:#1f77b4;" x="216.841818" xlink:href="#mb22936a16a" y="207.322066"/>
     <use style="fill:#1f77b4;stroke:#1f77b4;" x="218.005455" xlink:href="#mb22936a16a" y="174.157705"/>
     <use style="fill:#1f77b4;stroke:#1f77b4;" x="219.169091" xlink:href="#mb22936a16a" y="155.89913"/>
     <use style="fill:#1f77b4;stroke:#1f77b4;" x="220.332727" xlink:href="#mb22936a16a" y="160.74601"/>
     <use style="fill:#1f77b4;stroke:#1f77b4;" x="221.496364" xlink:href="#mb22936a16a" y="170.8896"/>
     <use style="fill:#1f77b4;stroke:#1f77b4;" x="222.66" xlink:href="#mb22936a16a" y="182.461077"/>
     <use style="fill:#1f77b4;stroke:#1f77b4;" x="223.823636" xlink:href="#mb22936a16a" y="186.461132"/>
     <use style="fill:#1f77b4;stroke:#1f77b4;" x="224.987273" xlink:href="#mb22936a16a" y="173.561105"/>
     <use style="fill:#1f77b4;stroke:#1f77b4;" x="226.150909" xlink:href="#mb22936a16a" y="197.651831"/>
     <use style="fill:#1f77b4;stroke:#1f77b4;" x="227.314545" xlink:href="#mb22936a16a" y="167.030729"/>
     <use style="fill:#1f77b4;stroke:#1f77b4;" x="228.478182" xlink:href="#mb22936a16a" y="175.604053"/>
     <use style="fill:#1f77b4;stroke:#1f77b4;" x="229.641818" xlink:href="#mb22936a16a" y="167.695248"/>
     <use style="fill:#1f77b4;stroke:#1f77b4;" x="230.805455" xlink:href="#mb22936a16a" y="167.372161"/>
     <use style="fill:#1f77b4;stroke:#1f77b4;" x="231.969091" xlink:href="#mb22936a16a" y="186.731953"/>
     <use style="fill:#1f77b4;stroke:#1f77b4;" x="233.132727" xlink:href="#mb22936a16a" y="165.48935"/>
     <use style="fill:#1f77b4;stroke:#1f77b4;" x="234.296364" xlink:href="#mb22936a16a" y="166.606809"/>
     <use style="fill:#1f77b4;stroke:#1f77b4;" x="235.46" xlink:href="#mb22936a16a" y="200.636964"/>
     <use style="fill:#1f77b4;stroke:#1f77b4;" x="236.623636" xlink:href="#mb22936a16a" y="230.982843"/>
     <use style="fill:#1f77b4;stroke:#1f77b4;" x="237.787273" xlink:href="#mb22936a16a" y="177.434437"/>
     <use style="fill:#1f77b4;stroke:#1f77b4;" x="238.950909" xlink:href="#mb22936a16a" y="183.455016"/>
     <use style="fill:#1f77b4;stroke:#1f77b4;" x="240.114545" xlink:href="#mb22936a16a" y="173.64377"/>
     <use style="fill:#1f77b4;stroke:#1f77b4;" x="241.278182" xlink:href="#mb22936a16a" y="172.328144"/>
     <use style="fill:#1f77b4;stroke:#1f77b4;" x="242.441818" xlink:href="#mb22936a16a" y="179.597365"/>
     <use style="fill:#1f77b4;stroke:#1f77b4;" x="243.605455" xlink:href="#mb22936a16a" y="182.833083"/>
     <use style="fill:#1f77b4;stroke:#1f77b4;" x="244.769091" xlink:href="#mb22936a16a" y="180.833262"/>
     <use style="fill:#1f77b4;stroke:#1f77b4;" x="245.932727" xlink:href="#mb22936a16a" y="165.868446"/>
     <use style="fill:#1f77b4;stroke:#1f77b4;" x="247.096364" xlink:href="#mb22936a16a" y="166.252813"/>
     <use style="fill:#1f77b4;stroke:#1f77b4;" x="248.26" xlink:href="#mb22936a16a" y="172.689417"/>
     <use style="fill:#1f77b4;stroke:#1f77b4;" x="249.423636" xlink:href="#mb22936a16a" y="179.332319"/>
     <use style="fill:#1f77b4;stroke:#1f77b4;" x="250.587273" xlink:href="#mb22936a16a" y="223.449144"/>
     <use style="fill:#1f77b4;stroke:#1f77b4;" x="251.750909" xlink:href="#mb22936a16a" y="181.64732"/>
     <use style="fill:#1f77b4;stroke:#1f77b4;" x="252.914545" xlink:href="#mb22936a16a" y="190.571339"/>
     <use style="fill:#1f77b4;stroke:#1f77b4;" x="254.078182" xlink:href="#mb22936a16a" y="190.304343"/>
     <use style="fill:#1f77b4;stroke:#1f77b4;" x="255.241818" xlink:href="#mb22936a16a" y="178.645809"/>
     <use style="fill:#1f77b4;stroke:#1f77b4;" x="256.405455" xlink:href="#mb22936a16a" y="186.864761"/>
     <use style="fill:#1f77b4;stroke:#1f77b4;" x="257.569091" xlink:href="#mb22936a16a" y="188.989442"/>
     <use style="fill:#1f77b4;stroke:#1f77b4;" x="258.732727" xlink:href="#mb22936a16a" y="167.935636"/>
     <use style="fill:#1f77b4;stroke:#1f77b4;" x="259.896364" xlink:href="#mb22936a16a" y="200.323509"/>
     <use style="fill:#1f77b4;stroke:#1f77b4;" x="261.06" xlink:href="#mb22936a16a" y="173.541485"/>
     <use style="fill:#1f77b4;stroke:#1f77b4;" x="262.223636" xlink:href="#mb22936a16a" y="182.456956"/>
     <use style="fill:#1f77b4;stroke:#1f77b4;" x="263.387273" xlink:href="#mb22936a16a" y="200.350105"/>
     <use style="fill:#1f77b4;stroke:#1f77b4;" x="264.550909" xlink:href="#mb22936a16a" y="175.457292"/>
     <use style="fill:#1f77b4;stroke:#1f77b4;" x="265.714545" xlink:href="#mb22936a16a" y="177.705601"/>
     <use style="fill:#1f77b4;stroke:#1f77b4;" x="266.878182" xlink:href="#mb22936a16a" y="187.520333"/>
     <use style="fill:#1f77b4;stroke:#1f77b4;" x="268.041818" xlink:href="#mb22936a16a" y="173.562974"/>
     <use style="fill:#1f77b4;stroke:#1f77b4;" x="269.205455" xlink:href="#mb22936a16a" y="176.629489"/>
     <use style="fill:#1f77b4;stroke:#1f77b4;" x="270.369091" xlink:href="#mb22936a16a" y="187.400408"/>
     <use style="fill:#1f77b4;stroke:#1f77b4;" x="271.532727" xlink:href="#mb22936a16a" y="173.673883"/>
     <use style="fill:#1f77b4;stroke:#1f77b4;" x="272.696364" xlink:href="#mb22936a16a" y="172.893584"/>
     <use style="fill:#1f77b4;stroke:#1f77b4;" x="273.86" xlink:href="#mb22936a16a" y="185.85787"/>
     <use style="fill:#1f77b4;stroke:#1f77b4;" x="275.023636" xlink:href="#mb22936a16a" y="177.274714"/>
     <use style="fill:#1f77b4;stroke:#1f77b4;" x="276.187273" xlink:href="#mb22936a16a" y="168.1077"/>
     <use style="fill:#1f77b4;stroke:#1f77b4;" x="277.350909" xlink:href="#mb22936a16a" y="169.073789"/>
     <use style="fill:#1f77b4;stroke:#1f77b4;" x="278.514545" xlink:href="#mb22936a16a" y="161.983057"/>
     <use style="fill:#1f77b4;stroke:#1f77b4;" x="279.678182" xlink:href="#mb22936a16a" y="177.539042"/>
     <use style="fill:#1f77b4;stroke:#1f77b4;" x="280.841818" xlink:href="#mb22936a16a" y="179.255679"/>
     <use style="fill:#1f77b4;stroke:#1f77b4;" x="282.005455" xlink:href="#mb22936a16a" y="223.846989"/>
     <use style="fill:#1f77b4;stroke:#1f77b4;" x="283.169091" xlink:href="#mb22936a16a" y="176.247238"/>
     <use style="fill:#1f77b4;stroke:#1f77b4;" x="284.332727" xlink:href="#mb22936a16a" y="170.061234"/>
     <use style="fill:#1f77b4;stroke:#1f77b4;" x="285.496364" xlink:href="#mb22936a16a" y="171.18839"/>
     <use style="fill:#1f77b4;stroke:#1f77b4;" x="286.66" xlink:href="#mb22936a16a" y="184.481033"/>
     <use style="fill:#1f77b4;stroke:#1f77b4;" x="287.823636" xlink:href="#mb22936a16a" y="211.356756"/>
     <use style="fill:#1f77b4;stroke:#1f77b4;" x="288.987273" xlink:href="#mb22936a16a" y="196.493359"/>
     <use style="fill:#1f77b4;stroke:#1f77b4;" x="290.150909" xlink:href="#mb22936a16a" y="173.515457"/>
     <use style="fill:#1f77b4;stroke:#1f77b4;" x="291.314545" xlink:href="#mb22936a16a" y="160.662098"/>
     <use style="fill:#1f77b4;stroke:#1f77b4;" x="292.478182" xlink:href="#mb22936a16a" y="175.372399"/>
     <use style="fill:#1f77b4;stroke:#1f77b4;" x="293.641818" xlink:href="#mb22936a16a" y="154.283194"/>
     <use style="fill:#1f77b4;stroke:#1f77b4;" x="294.805455" xlink:href="#mb22936a16a" y="161.588904"/>
     <use style="fill:#1f77b4;stroke:#1f77b4;" x="295.969091" xlink:href="#mb22936a16a" y="161.98235"/>
     <use style="fill:#1f77b4;stroke:#1f77b4;" x="297.132727" xlink:href="#mb22936a16a" y="173.708853"/>
     <use style="fill:#1f77b4;stroke:#1f77b4;" x="298.296364" xlink:href="#mb22936a16a" y="162.860086"/>
     <use style="fill:#1f77b4;stroke:#1f77b4;" x="299.46" xlink:href="#mb22936a16a" y="183.757759"/>
     <use style="fill:#1f77b4;stroke:#1f77b4;" x="300.623636" xlink:href="#mb22936a16a" y="210.911028"/>
     <use style="fill:#1f77b4;stroke:#1f77b4;" x="301.787273" xlink:href="#mb22936a16a" y="189.187191"/>
     <use style="fill:#1f77b4;stroke:#1f77b4;" x="302.950909" xlink:href="#mb22936a16a" y="172.703123"/>
     <use style="fill:#1f77b4;stroke:#1f77b4;" x="304.114545" xlink:href="#mb22936a16a" y="183.784221"/>
     <use style="fill:#1f77b4;stroke:#1f77b4;" x="305.278182" xlink:href="#mb22936a16a" y="176.271704"/>
     <use style="fill:#1f77b4;stroke:#1f77b4;" x="306.441818" xlink:href="#mb22936a16a" y="171.772934"/>
     <use style="fill:#1f77b4;stroke:#1f77b4;" x="307.605455" xlink:href="#mb22936a16a" y="185.214707"/>
     <use style="fill:#1f77b4;stroke:#1f77b4;" x="308.769091" xlink:href="#mb22936a16a" y="188.473651"/>
     <use style="fill:#1f77b4;stroke:#1f77b4;" x="309.932727" xlink:href="#mb22936a16a" y="177.929791"/>
     <use style="fill:#1f77b4;stroke:#1f77b4;" x="311.096364" xlink:href="#mb22936a16a" y="175.72501"/>
     <use style="fill:#1f77b4;stroke:#1f77b4;" x="312.26" xlink:href="#mb22936a16a" y="187.016833"/>
     <use style="fill:#1f77b4;stroke:#1f77b4;" x="313.423636" xlink:href="#mb22936a16a" y="175.31105"/>
     <use style="fill:#1f77b4;stroke:#1f77b4;" x="314.587273" xlink:href="#mb22936a16a" y="175.768316"/>
     <use style="fill:#1f77b4;stroke:#1f77b4;" x="315.750909" xlink:href="#mb22936a16a" y="181.415422"/>
     <use style="fill:#1f77b4;stroke:#1f77b4;" x="316.914545" xlink:href="#mb22936a16a" y="180.058582"/>
     <use style="fill:#1f77b4;stroke:#1f77b4;" x="318.078182" xlink:href="#mb22936a16a" y="169.076778"/>
     <use style="fill:#1f77b4;stroke:#1f77b4;" x="319.241818" xlink:href="#mb22936a16a" y="195.328295"/>
     <use style="fill:#1f77b4;stroke:#1f77b4;" x="320.405455" xlink:href="#mb22936a16a" y="194.357074"/>
     <use style="fill:#1f77b4;stroke:#1f77b4;" x="321.569091" xlink:href="#mb22936a16a" y="175.192493"/>
     <use style="fill:#1f77b4;stroke:#1f77b4;" x="322.732727" xlink:href="#mb22936a16a" y="197.571732"/>
     <use style="fill:#1f77b4;stroke:#1f77b4;" x="323.896364" xlink:href="#mb22936a16a" y="181.995859"/>
     <use style="fill:#1f77b4;stroke:#1f77b4;" x="325.06" xlink:href="#mb22936a16a" y="158.393387"/>
     <use style="fill:#1f77b4;stroke:#1f77b4;" x="326.223636" xlink:href="#mb22936a16a" y="174.997497"/>
     <use style="fill:#1f77b4;stroke:#1f77b4;" x="327.387273" xlink:href="#mb22936a16a" y="167.147991"/>
     <use style="fill:#1f77b4;stroke:#1f77b4;" x="328.550909" xlink:href="#mb22936a16a" y="254.860287"/>
     <use style="fill:#1f77b4;stroke:#1f77b4;" x="329.714545" xlink:href="#mb22936a16a" y="187.290381"/>
     <use style="fill:#1f77b4;stroke:#1f77b4;" x="330.878182" xlink:href="#mb22936a16a" y="180.686388"/>
     <use style="fill:#1f77b4;stroke:#1f77b4;" x="332.041818" xlink:href="#mb22936a16a" y="204.475665"/>
     <use style="fill:#1f77b4;stroke:#1f77b4;" x="333.205455" xlink:href="#mb22936a16a" y="176.740331"/>
     <use style="fill:#1f77b4;stroke:#1f77b4;" x="334.369091" xlink:href="#mb22936a16a" y="196.072164"/>
     <use style="fill:#1f77b4;stroke:#1f77b4;" x="335.532727" xlink:href="#mb22936a16a" y="218.06855"/>
     <use style="fill:#1f77b4;stroke:#1f77b4;" x="336.696364" xlink:href="#mb22936a16a" y="180.358179"/>
     <use style="fill:#1f77b4;stroke:#1f77b4;" x="337.86" xlink:href="#mb22936a16a" y="174.248196"/>
     <use style="fill:#1f77b4;stroke:#1f77b4;" x="339.023636" xlink:href="#mb22936a16a" y="184.467694"/>
     <use style="fill:#1f77b4;stroke:#1f77b4;" x="340.187273" xlink:href="#mb22936a16a" y="206.356277"/>
     <use style="fill:#1f77b4;stroke:#1f77b4;" x="341.350909" xlink:href="#mb22936a16a" y="165.626051"/>
     <use style="fill:#1f77b4;stroke:#1f77b4;" x="342.514545" xlink:href="#mb22936a16a" y="172.101317"/>
     <use style="fill:#1f77b4;stroke:#1f77b4;" x="343.678182" xlink:href="#mb22936a16a" y="171.067055"/>
     <use style="fill:#1f77b4;stroke:#1f77b4;" x="344.841818" xlink:href="#mb22936a16a" y="174.500961"/>
     <use style="fill:#1f77b4;stroke:#1f77b4;" x="346.005455" xlink:href="#mb22936a16a" y="178.741181"/>
     <use style="fill:#1f77b4;stroke:#1f77b4;" x="347.169091" xlink:href="#mb22936a16a" y="170.610087"/>
     <use style="fill:#1f77b4;stroke:#1f77b4;" x="348.332727" xlink:href="#mb22936a16a" y="175.33689"/>
     <use style="fill:#1f77b4;stroke:#1f77b4;" x="349.496364" xlink:href="#mb22936a16a" y="174.016246"/>
     <use style="fill:#1f77b4;stroke:#1f77b4;" x="350.66" xlink:href="#mb22936a16a" y="176.130984"/>
     <use style="fill:#1f77b4;stroke:#1f77b4;" x="351.823636" xlink:href="#mb22936a16a" y="159.391245"/>
     <use style="fill:#1f77b4;stroke:#1f77b4;" x="352.987273" xlink:href="#mb22936a16a" y="166.504796"/>
     <use style="fill:#1f77b4;stroke:#1f77b4;" x="354.150909" xlink:href="#mb22936a16a" y="180.582974"/>
     <use style="fill:#1f77b4;stroke:#1f77b4;" x="355.314545" xlink:href="#mb22936a16a" y="167.592334"/>
     <use style="fill:#1f77b4;stroke:#1f77b4;" x="356.478182" xlink:href="#mb22936a16a" y="169.178687"/>
     <use style="fill:#1f77b4;stroke:#1f77b4;" x="357.641818" xlink:href="#mb22936a16a" y="165.163374"/>
     <use style="fill:#1f77b4;stroke:#1f77b4;" x="358.805455" xlink:href="#mb22936a16a" y="191.88121"/>
     <use style="fill:#1f77b4;stroke:#1f77b4;" x="359.969091" xlink:href="#mb22936a16a" y="172.498941"/>
     <use style="fill:#1f77b4;stroke:#1f77b4;" x="361.132727" xlink:href="#mb22936a16a" y="195.561948"/>
     <use style="fill:#1f77b4;stroke:#1f77b4;" x="362.296364" xlink:href="#mb22936a16a" y="172.393399"/>
     <use style="fill:#1f77b4;stroke:#1f77b4;" x="363.46" xlink:href="#mb22936a16a" y="204.501216"/>
     <use style="fill:#1f77b4;stroke:#1f77b4;" x="364.623636" xlink:href="#mb22936a16a" y="170.930501"/>
     <use style="fill:#1f77b4;stroke:#1f77b4;" x="365.787273" xlink:href="#mb22936a16a" y="167.971263"/>
     <use style="fill:#1f77b4;stroke:#1f77b4;" x="366.950909" xlink:href="#mb22936a16a" y="187.445023"/>
     <use style="fill:#1f77b4;stroke:#1f77b4;" x="368.114545" xlink:href="#mb22936a16a" y="184.236725"/>
     <use style="fill:#1f77b4;stroke:#1f77b4;" x="369.278182" xlink:href="#mb22936a16a" y="194.000776"/>
     <use style="fill:#1f77b4;stroke:#1f77b4;" x="370.441818" xlink:href="#mb22936a16a" y="175.269986"/>
     <use style="fill:#1f77b4;stroke:#1f77b4;" x="371.605455" xlink:href="#mb22936a16a" y="179.771012"/>
     <use style="fill:#1f77b4;stroke:#1f77b4;" x="372.769091" xlink:href="#mb22936a16a" y="172.025978"/>
     <use style="fill:#1f77b4;stroke:#1f77b4;" x="373.932727" xlink:href="#mb22936a16a" y="170.249643"/>
     <use style="fill:#1f77b4;stroke:#1f77b4;" x="375.096364" xlink:href="#mb22936a16a" y="160.088981"/>
     <use style="fill:#1f77b4;stroke:#1f77b4;" x="376.26" xlink:href="#mb22936a16a" y="199.562956"/>
     <use style="fill:#1f77b4;stroke:#1f77b4;" x="377.113226" xlink:href="#mb22936a16a" y="22383.514"/>
    </g>
   </g>
   <g id="line2d_12">
    <path clip-path="url(#p8ad8357caa)" d="M 55.096364 27.726411 
L 56.26 38.907171 
L 57.423636 51.763293 
L 58.587273 63.442123 
L 59.750909 76.046135 
L 60.914545 88.237329 
L 62.078182 100.689624 
L 63.241818 112.859424 
L 64.405455 125.315222 
" style="fill:none;stroke:#2ca02c;stroke-dasharray:1.5,2.475;stroke-dashoffset:0;stroke-width:1.5;"/>
    <defs>
     <path d="M -3 3 
L 3 -3 
M -3 -3 
L 3 3 
" id="m89c2279922" style="stroke:#2ca02c;"/>
    </defs>
    <g clip-path="url(#p8ad8357caa)">
     <use style="fill:#2ca02c;stroke:#2ca02c;" x="55.096364" xlink:href="#m89c2279922" y="27.726411"/>
     <use style="fill:#2ca02c;stroke:#2ca02c;" x="56.26" xlink:href="#m89c2279922" y="38.907171"/>
     <use style="fill:#2ca02c;stroke:#2ca02c;" x="57.423636" xlink:href="#m89c2279922" y="51.763293"/>
     <use style="fill:#2ca02c;stroke:#2ca02c;" x="58.587273" xlink:href="#m89c2279922" y="63.442123"/>
     <use style="fill:#2ca02c;stroke:#2ca02c;" x="59.750909" xlink:href="#m89c2279922" y="76.046135"/>
     <use style="fill:#2ca02c;stroke:#2ca02c;" x="60.914545" xlink:href="#m89c2279922" y="88.237329"/>
     <use style="fill:#2ca02c;stroke:#2ca02c;" x="62.078182" xlink:href="#m89c2279922" y="100.689624"/>
     <use style="fill:#2ca02c;stroke:#2ca02c;" x="63.241818" xlink:href="#m89c2279922" y="112.859424"/>
     <use style="fill:#2ca02c;stroke:#2ca02c;" x="64.405455" xlink:href="#m89c2279922" y="125.315222"/>
    </g>
   </g>
   <g id="line2d_13">
    <path clip-path="url(#p8ad8357caa)" d="M 55.096364 83.337418 
L 76.808812 311.86825 
L 76.808812 311.86825 
" style="fill:none;stroke:#000000;stroke-dasharray:5.55,2.4;stroke-dashoffset:0;stroke-width:1.5;"/>
   </g>
   <g id="patch_3">
    <path d="M 37.7 273.312 
L 37.7 7.2 
" style="fill:none;stroke:#000000;stroke-linecap:square;stroke-linejoin:miter;stroke-width:0.8;"/>
   </g>
   <g id="patch_4">
    <path d="M 394.82 273.312 
L 394.82 7.2 
" style="fill:none;stroke:#000000;stroke-linecap:square;stroke-linejoin:miter;stroke-width:0.8;"/>
   </g>
   <g id="patch_5">
    <path d="M 37.7 273.312 
L 394.82 273.312 
" style="fill:none;stroke:#000000;stroke-linecap:square;stroke-linejoin:miter;stroke-width:0.8;"/>
   </g>
   <g id="patch_6">
    <path d="M 37.7 7.2 
L 394.82 7.2 
" style="fill:none;stroke:#000000;stroke-linecap:square;stroke-linejoin:miter;stroke-width:0.8;"/>
   </g>
   <g id="legend_1">
    <g id="patch_7">
     <path d="M 286.92 59.25625 
L 387.82 59.25625 
Q 389.82 59.25625 389.82 57.25625 
L 389.82 14.2 
Q 389.82 12.2 387.82 12.2 
L 286.92 12.2 
Q 284.92 12.2 284.92 14.2 
L 284.92 57.25625 
Q 284.92 59.25625 286.92 59.25625 
z
" style="fill:#ffffff;opacity:0.8;"/>
    </g>
    <g id="line2d_14">
     <path d="M 288.92 20.298438 
L 308.92 20.298438 
" style="fill:none;stroke:#1f77b4;stroke-linecap:square;stroke-width:1.5;"/>
    </g>
    <g id="line2d_15">
     <g>
      <use style="fill:#1f77b4;stroke:#1f77b4;" x="298.92" xlink:href="#mb22936a16a" y="20.298438"/>
     </g>
    </g>
    <g id="text_12">
     <!-- APD$_n$ - APD$_\infty$ -->
     <defs>
      <path d="M 34.1875 63.1875 
L 20.796875 26.90625 
L 47.609375 26.90625 
z
M 28.609375 72.90625 
L 39.796875 72.90625 
L 67.578125 0 
L 57.328125 0 
L 50.6875 18.703125 
L 17.828125 18.703125 
L 11.1875 0 
L 0.78125 0 
z
" id="DejaVuSans-65"/>
      <path d="M 19.671875 64.796875 
L 19.671875 37.40625 
L 32.078125 37.40625 
Q 38.96875 37.40625 42.71875 40.96875 
Q 46.484375 44.53125 46.484375 51.125 
Q 46.484375 57.671875 42.71875 61.234375 
Q 38.96875 64.796875 32.078125 64.796875 
z
M 9.8125 72.90625 
L 32.078125 72.90625 
Q 44.34375 72.90625 50.609375 67.359375 
Q 56.890625 61.8125 56.890625 51.125 
Q 56.890625 40.328125 50.609375 34.8125 
Q 44.34375 29.296875 32.078125 29.296875 
L 19.671875 29.296875 
L 19.671875 0 
L 9.8125 0 
z
" id="DejaVuSans-80"/>
      <path d="M 19.671875 64.796875 
L 19.671875 8.109375 
L 31.59375 8.109375 
Q 46.6875 8.109375 53.6875 14.9375 
Q 60.6875 21.78125 60.6875 36.53125 
Q 60.6875 51.171875 53.6875 57.984375 
Q 46.6875 64.796875 31.59375 64.796875 
z
M 9.8125 72.90625 
L 30.078125 72.90625 
Q 51.265625 72.90625 61.171875 64.09375 
Q 71.09375 55.28125 71.09375 36.53125 
Q 71.09375 17.671875 61.125 8.828125 
Q 51.171875 0 30.078125 0 
L 9.8125 0 
z
" id="DejaVuSans-68"/>
      <path d="M 55.71875 33.015625 
L 49.3125 0 
L 40.28125 0 
L 46.6875 32.671875 
Q 47.125 34.96875 47.359375 36.71875 
Q 47.609375 38.484375 47.609375 39.5 
Q 47.609375 43.609375 45.015625 45.890625 
Q 42.4375 48.1875 37.796875 48.1875 
Q 30.5625 48.1875 25.34375 43.375 
Q 20.125 38.578125 18.5 30.328125 
L 12.5 0 
L 3.515625 0 
L 14.109375 54.6875 
L 23.09375 54.6875 
L 21.296875 46.09375 
Q 25.046875 50.828125 30.3125 53.40625 
Q 35.59375 56 41.40625 56 
Q 48.640625 56 52.609375 52.09375 
Q 56.59375 48.1875 56.59375 41.109375 
Q 56.59375 39.359375 56.375 37.359375 
Q 56.15625 35.359375 55.71875 33.015625 
z
" id="DejaVuSans-Oblique-110"/>
      <path id="DejaVuSans-32"/>
      <path d="M 4.890625 31.390625 
L 31.203125 31.390625 
L 31.203125 23.390625 
L 4.890625 23.390625 
z
" id="DejaVuSans-45"/>
      <path d="M 45.5625 17.046875 
Q 44.046875 18.796875 41.65625 22.90625 
Q 38.375 17.046875 35.5 14.453125 
Q 31.890625 11.328125 26.265625 11.328125 
Q 19.671875 11.328125 15.328125 16.265625 
Q 10.75 21.4375 10.75 29.984375 
Q 10.75 38.1875 15.328125 43.75 
Q 19.4375 48.6875 26.375 48.6875 
Q 29.9375 48.6875 32.5625 47.21875 
Q 35.640625 45.609375 37.75 42.828125 
Q 39.703125 40.328125 41.65625 36.96875 
Q 44.921875 42.828125 47.796875 45.40625 
Q 51.421875 48.53125 57.03125 48.53125 
Q 63.625 48.53125 67.96875 43.609375 
Q 72.5625 38.421875 72.5625 29.890625 
Q 72.5625 21.6875 67.96875 16.109375 
Q 63.875 11.1875 56.9375 11.1875 
Q 53.375 11.1875 50.734375 12.640625 
Q 48.09375 13.96875 45.5625 17.046875 
z
M 25.734375 17.71875 
Q 33.796875 17.71875 38.625 29.4375 
Q 32.421875 42.234375 25.734375 42.234375 
Q 20.84375 42.234375 18.359375 38.71875 
Q 15.671875 34.96875 15.671875 29.984375 
Q 15.671875 24.515625 18.359375 21.140625 
Q 21.09375 17.71875 25.734375 17.71875 
z
M 57.5625 42.140625 
Q 50.296875 42.140625 44.671875 30.421875 
Q 50.828125 17.625 57.5625 17.625 
Q 62.453125 17.625 64.9375 21.140625 
Q 67.625 24.90625 67.625 29.890625 
Q 67.625 35.359375 64.9375 38.71875 
Q 62.203125 42.140625 57.5625 42.140625 
z
" id="DejaVuSans-8734"/>
     </defs>
     <g transform="translate(316.92 23.798438)scale(0.1 -0.1)">
      <use transform="translate(0 0.09375)" xlink:href="#DejaVuSans-65"/>
      <use transform="translate(68.408203 0.09375)" xlink:href="#DejaVuSans-80"/>
      <use transform="translate(128.710938 0.09375)" xlink:href="#DejaVuSans-68"/>
      <use transform="translate(206.669922 -16.3125)scale(0.7)" xlink:href="#DejaVuSans-Oblique-110"/>
      <use transform="translate(253.769531 0.09375)" xlink:href="#DejaVuSans-32"/>
      <use transform="translate(285.556641 0.09375)" xlink:href="#DejaVuSans-45"/>
      <use transform="translate(321.640625 0.09375)" xlink:href="#DejaVuSans-32"/>
      <use transform="translate(353.427734 0.09375)" xlink:href="#DejaVuSans-65"/>
      <use transform="translate(421.835938 0.09375)" xlink:href="#DejaVuSans-80"/>
      <use transform="translate(482.138672 0.09375)" xlink:href="#DejaVuSans-68"/>
      <use transform="translate(560.097656 -16.3125)scale(0.7)" xlink:href="#DejaVuSans-8734"/>
     </g>
    </g>
    <g id="line2d_16">
     <path d="M 288.92 34.976563 
L 308.92 34.976563 
" style="fill:none;stroke:#2ca02c;stroke-dasharray:1.5,2.475;stroke-dashoffset:0;stroke-width:1.5;"/>
    </g>
    <g id="line2d_17">
     <g>
      <use style="fill:#2ca02c;stroke:#2ca02c;" x="298.92" xlink:href="#m89c2279922" y="34.976563"/>
     </g>
    </g>
    <g id="text_13">
     <!-- linear region -->
     <defs>
      <path d="M 9.421875 75.984375 
L 18.40625 75.984375 
L 18.40625 0 
L 9.421875 0 
z
" id="DejaVuSans-108"/>
      <path d="M 9.421875 54.6875 
L 18.40625 54.6875 
L 18.40625 0 
L 9.421875 0 
z
M 9.421875 75.984375 
L 18.40625 75.984375 
L 18.40625 64.59375 
L 9.421875 64.59375 
z
" id="DejaVuSans-105"/>
      <path d="M 54.890625 33.015625 
L 54.890625 0 
L 45.90625 0 
L 45.90625 32.71875 
Q 45.90625 40.484375 42.875 44.328125 
Q 39.84375 48.1875 33.796875 48.1875 
Q 26.515625 48.1875 22.3125 43.546875 
Q 18.109375 38.921875 18.109375 30.90625 
L 18.109375 0 
L 9.078125 0 
L 9.078125 54.6875 
L 18.109375 54.6875 
L 18.109375 46.1875 
Q 21.34375 51.125 25.703125 53.5625 
Q 30.078125 56 35.796875 56 
Q 45.21875 56 50.046875 50.171875 
Q 54.890625 44.34375 54.890625 33.015625 
z
" id="DejaVuSans-110"/>
      <path d="M 56.203125 29.59375 
L 56.203125 25.203125 
L 14.890625 25.203125 
Q 15.484375 15.921875 20.484375 11.0625 
Q 25.484375 6.203125 34.421875 6.203125 
Q 39.59375 6.203125 44.453125 7.46875 
Q 49.3125 8.734375 54.109375 11.28125 
L 54.109375 2.78125 
Q 49.265625 0.734375 44.1875 -0.34375 
Q 39.109375 -1.421875 33.890625 -1.421875 
Q 20.796875 -1.421875 13.15625 6.1875 
Q 5.515625 13.8125 5.515625 26.8125 
Q 5.515625 40.234375 12.765625 48.109375 
Q 20.015625 56 32.328125 56 
Q 43.359375 56 49.78125 48.890625 
Q 56.203125 41.796875 56.203125 29.59375 
z
M 47.21875 32.234375 
Q 47.125 39.59375 43.09375 43.984375 
Q 39.0625 48.390625 32.421875 48.390625 
Q 24.90625 48.390625 20.390625 44.140625 
Q 15.875 39.890625 15.1875 32.171875 
z
" id="DejaVuSans-101"/>
      <path d="M 34.28125 27.484375 
Q 23.390625 27.484375 19.1875 25 
Q 14.984375 22.515625 14.984375 16.5 
Q 14.984375 11.71875 18.140625 8.90625 
Q 21.296875 6.109375 26.703125 6.109375 
Q 34.1875 6.109375 38.703125 11.40625 
Q 43.21875 16.703125 43.21875 25.484375 
L 43.21875 27.484375 
z
M 52.203125 31.203125 
L 52.203125 0 
L 43.21875 0 
L 43.21875 8.296875 
Q 40.140625 3.328125 35.546875 0.953125 
Q 30.953125 -1.421875 24.3125 -1.421875 
Q 15.921875 -1.421875 10.953125 3.296875 
Q 6 8.015625 6 15.921875 
Q 6 25.140625 12.171875 29.828125 
Q 18.359375 34.515625 30.609375 34.515625 
L 43.21875 34.515625 
L 43.21875 35.40625 
Q 43.21875 41.609375 39.140625 45 
Q 35.0625 48.390625 27.6875 48.390625 
Q 23 48.390625 18.546875 47.265625 
Q 14.109375 46.140625 10.015625 43.890625 
L 10.015625 52.203125 
Q 14.9375 54.109375 19.578125 55.046875 
Q 24.21875 56 28.609375 56 
Q 40.484375 56 46.34375 49.84375 
Q 52.203125 43.703125 52.203125 31.203125 
z
" id="DejaVuSans-97"/>
      <path d="M 41.109375 46.296875 
Q 39.59375 47.171875 37.8125 47.578125 
Q 36.03125 48 33.890625 48 
Q 26.265625 48 22.1875 43.046875 
Q 18.109375 38.09375 18.109375 28.8125 
L 18.109375 0 
L 9.078125 0 
L 9.078125 54.6875 
L 18.109375 54.6875 
L 18.109375 46.1875 
Q 20.953125 51.171875 25.484375 53.578125 
Q 30.03125 56 36.53125 56 
Q 37.453125 56 38.578125 55.875 
Q 39.703125 55.765625 41.0625 55.515625 
z
" id="DejaVuSans-114"/>
      <path d="M 45.40625 27.984375 
Q 45.40625 37.75 41.375 43.109375 
Q 37.359375 48.484375 30.078125 48.484375 
Q 22.859375 48.484375 18.828125 43.109375 
Q 14.796875 37.75 14.796875 27.984375 
Q 14.796875 18.265625 18.828125 12.890625 
Q 22.859375 7.515625 30.078125 7.515625 
Q 37.359375 7.515625 41.375 12.890625 
Q 45.40625 18.265625 45.40625 27.984375 
z
M 54.390625 6.78125 
Q 54.390625 -7.171875 48.1875 -13.984375 
Q 42 -20.796875 29.203125 -20.796875 
Q 24.46875 -20.796875 20.265625 -20.09375 
Q 16.0625 -19.390625 12.109375 -17.921875 
L 12.109375 -9.1875 
Q 16.0625 -11.328125 19.921875 -12.34375 
Q 23.78125 -13.375 27.78125 -13.375 
Q 36.625 -13.375 41.015625 -8.765625 
Q 45.40625 -4.15625 45.40625 5.171875 
L 45.40625 9.625 
Q 42.625 4.78125 38.28125 2.390625 
Q 33.9375 0 27.875 0 
Q 17.828125 0 11.671875 7.65625 
Q 5.515625 15.328125 5.515625 27.984375 
Q 5.515625 40.671875 11.671875 48.328125 
Q 17.828125 56 27.875 56 
Q 33.9375 56 38.28125 53.609375 
Q 42.625 51.21875 45.40625 46.390625 
L 45.40625 54.6875 
L 54.390625 54.6875 
z
" id="DejaVuSans-103"/>
      <path d="M 30.609375 48.390625 
Q 23.390625 48.390625 19.1875 42.75 
Q 14.984375 37.109375 14.984375 27.296875 
Q 14.984375 17.484375 19.15625 11.84375 
Q 23.34375 6.203125 30.609375 6.203125 
Q 37.796875 6.203125 41.984375 11.859375 
Q 46.1875 17.53125 46.1875 27.296875 
Q 46.1875 37.015625 41.984375 42.703125 
Q 37.796875 48.390625 30.609375 48.390625 
z
M 30.609375 56 
Q 42.328125 56 49.015625 48.375 
Q 55.71875 40.765625 55.71875 27.296875 
Q 55.71875 13.875 49.015625 6.21875 
Q 42.328125 -1.421875 30.609375 -1.421875 
Q 18.84375 -1.421875 12.171875 6.21875 
Q 5.515625 13.875 5.515625 27.296875 
Q 5.515625 40.765625 12.171875 48.375 
Q 18.84375 56 30.609375 56 
z
" id="DejaVuSans-111"/>
     </defs>
     <g transform="translate(316.92 38.476563)scale(0.1 -0.1)">
      <use xlink:href="#DejaVuSans-108"/>
      <use x="27.783203" xlink:href="#DejaVuSans-105"/>
      <use x="55.566406" xlink:href="#DejaVuSans-110"/>
      <use x="118.945312" xlink:href="#DejaVuSans-101"/>
      <use x="180.46875" xlink:href="#DejaVuSans-97"/>
      <use x="241.748047" xlink:href="#DejaVuSans-114"/>
      <use x="282.861328" xlink:href="#DejaVuSans-32"/>
      <use x="314.648438" xlink:href="#DejaVuSans-114"/>
      <use x="353.511719" xlink:href="#DejaVuSans-101"/>
      <use x="415.035156" xlink:href="#DejaVuSans-103"/>
      <use x="478.511719" xlink:href="#DejaVuSans-105"/>
      <use x="506.294922" xlink:href="#DejaVuSans-111"/>
      <use x="567.476562" xlink:href="#DejaVuSans-110"/>
     </g>
    </g>
    <g id="line2d_18">
     <path d="M 288.92 49.65625 
L 308.92 49.65625 
" style="fill:none;stroke:#000000;stroke-dasharray:5.55,2.4;stroke-dashoffset:0;stroke-width:1.5;"/>
    </g>
    <g id="line2d_19"/>
    <g id="text_14">
     <!-- $ \exp(-0.928 k)$ -->
     <defs>
      <path d="M 54.890625 54.6875 
L 35.109375 28.078125 
L 55.90625 0 
L 45.3125 0 
L 29.390625 21.484375 
L 13.484375 0 
L 2.875 0 
L 24.125 28.609375 
L 4.6875 54.6875 
L 15.28125 54.6875 
L 29.78125 35.203125 
L 44.28125 54.6875 
z
" id="DejaVuSans-120"/>
      <path d="M 18.109375 8.203125 
L 18.109375 -20.796875 
L 9.078125 -20.796875 
L 9.078125 54.6875 
L 18.109375 54.6875 
L 18.109375 46.390625 
Q 20.953125 51.265625 25.265625 53.625 
Q 29.59375 56 35.59375 56 
Q 45.5625 56 51.78125 48.09375 
Q 58.015625 40.1875 58.015625 27.296875 
Q 58.015625 14.40625 51.78125 6.484375 
Q 45.5625 -1.421875 35.59375 -1.421875 
Q 29.59375 -1.421875 25.265625 0.953125 
Q 20.953125 3.328125 18.109375 8.203125 
z
M 48.6875 27.296875 
Q 48.6875 37.203125 44.609375 42.84375 
Q 40.53125 48.484375 33.40625 48.484375 
Q 26.265625 48.484375 22.1875 42.84375 
Q 18.109375 37.203125 18.109375 27.296875 
Q 18.109375 17.390625 22.1875 11.75 
Q 26.265625 6.109375 33.40625 6.109375 
Q 40.53125 6.109375 44.609375 11.75 
Q 48.6875 17.390625 48.6875 27.296875 
z
" id="DejaVuSans-112"/>
      <path d="M 31 75.875 
Q 24.46875 64.65625 21.28125 53.65625 
Q 18.109375 42.671875 18.109375 31.390625 
Q 18.109375 20.125 21.3125 9.0625 
Q 24.515625 -2 31 -13.1875 
L 23.1875 -13.1875 
Q 15.875 -1.703125 12.234375 9.375 
Q 8.59375 20.453125 8.59375 31.390625 
Q 8.59375 42.28125 12.203125 53.3125 
Q 15.828125 64.359375 23.1875 75.875 
z
" id="DejaVuSans-40"/>
      <path d="M 10.6875 12.40625 
L 21 12.40625 
L 21 0 
L 10.6875 0 
z
" id="DejaVuSans-46"/>
      <path d="M 10.984375 1.515625 
L 10.984375 10.5 
Q 14.703125 8.734375 18.5 7.8125 
Q 22.3125 6.890625 25.984375 6.890625 
Q 35.75 6.890625 40.890625 13.453125 
Q 46.046875 20.015625 46.78125 33.40625 
Q 43.953125 29.203125 39.59375 26.953125 
Q 35.25 24.703125 29.984375 24.703125 
Q 19.046875 24.703125 12.671875 31.3125 
Q 6.296875 37.9375 6.296875 49.421875 
Q 6.296875 60.640625 12.9375 67.421875 
Q 19.578125 74.21875 30.609375 74.21875 
Q 43.265625 74.21875 49.921875 64.515625 
Q 56.59375 54.828125 56.59375 36.375 
Q 56.59375 19.140625 48.40625 8.859375 
Q 40.234375 -1.421875 26.421875 -1.421875 
Q 22.703125 -1.421875 18.890625 -0.6875 
Q 15.09375 0.046875 10.984375 1.515625 
z
M 30.609375 32.421875 
Q 37.25 32.421875 41.125 36.953125 
Q 45.015625 41.5 45.015625 49.421875 
Q 45.015625 57.28125 41.125 61.84375 
Q 37.25 66.40625 30.609375 66.40625 
Q 23.96875 66.40625 20.09375 61.84375 
Q 16.21875 57.28125 16.21875 49.421875 
Q 16.21875 41.5 20.09375 36.953125 
Q 23.96875 32.421875 30.609375 32.421875 
z
" id="DejaVuSans-57"/>
      <path d="M 31.78125 34.625 
Q 24.75 34.625 20.71875 30.859375 
Q 16.703125 27.09375 16.703125 20.515625 
Q 16.703125 13.921875 20.71875 10.15625 
Q 24.75 6.390625 31.78125 6.390625 
Q 38.8125 6.390625 42.859375 10.171875 
Q 46.921875 13.96875 46.921875 20.515625 
Q 46.921875 27.09375 42.890625 30.859375 
Q 38.875 34.625 31.78125 34.625 
z
M 21.921875 38.8125 
Q 15.578125 40.375 12.03125 44.71875 
Q 8.5 49.078125 8.5 55.328125 
Q 8.5 64.0625 14.71875 69.140625 
Q 20.953125 74.21875 31.78125 74.21875 
Q 42.671875 74.21875 48.875 69.140625 
Q 55.078125 64.0625 55.078125 55.328125 
Q 55.078125 49.078125 51.53125 44.71875 
Q 48 40.375 41.703125 38.8125 
Q 48.828125 37.15625 52.796875 32.3125 
Q 56.78125 27.484375 56.78125 20.515625 
Q 56.78125 9.90625 50.3125 4.234375 
Q 43.84375 -1.421875 31.78125 -1.421875 
Q 19.734375 -1.421875 13.25 4.234375 
Q 6.78125 9.90625 6.78125 20.515625 
Q 6.78125 27.484375 10.78125 32.3125 
Q 14.796875 37.15625 21.921875 38.8125 
z
M 18.3125 54.390625 
Q 18.3125 48.734375 21.84375 45.5625 
Q 25.390625 42.390625 31.78125 42.390625 
Q 38.140625 42.390625 41.71875 45.5625 
Q 45.3125 48.734375 45.3125 54.390625 
Q 45.3125 60.0625 41.71875 63.234375 
Q 38.140625 66.40625 31.78125 66.40625 
Q 25.390625 66.40625 21.84375 63.234375 
Q 18.3125 60.0625 18.3125 54.390625 
z
" id="DejaVuSans-56"/>
      <path d="M 8.015625 75.875 
L 15.828125 75.875 
Q 23.140625 64.359375 26.78125 53.3125 
Q 30.421875 42.28125 30.421875 31.390625 
Q 30.421875 20.453125 26.78125 9.375 
Q 23.140625 -1.703125 15.828125 -13.1875 
L 8.015625 -13.1875 
Q 14.5 -2 17.703125 9.0625 
Q 20.90625 20.125 20.90625 31.390625 
Q 20.90625 42.671875 17.703125 53.65625 
Q 14.5 64.65625 8.015625 75.875 
z
" id="DejaVuSans-41"/>
     </defs>
     <g transform="translate(316.92 53.15625)scale(0.1 -0.1)">
      <use transform="translate(0 0.015625)" xlink:href="#DejaVuSans-101"/>
      <use transform="translate(61.523438 0.015625)" xlink:href="#DejaVuSans-120"/>
      <use transform="translate(120.703125 0.015625)" xlink:href="#DejaVuSans-112"/>
      <use transform="translate(184.179688 0.015625)" xlink:href="#DejaVuSans-40"/>
      <use transform="translate(223.193359 0.015625)" xlink:href="#DejaVuSans-8722"/>
      <use transform="translate(306.982422 0.015625)" xlink:href="#DejaVuSans-48"/>
      <use transform="translate(370.605469 0.015625)" xlink:href="#DejaVuSans-46"/>
      <use transform="translate(402.392578 0.015625)" xlink:href="#DejaVuSans-57"/>
      <use transform="translate(464.265625 0.015625)" xlink:href="#DejaVuSans-50"/>
      <use transform="translate(527.888672 0.015625)" xlink:href="#DejaVuSans-56"/>
      <use transform="translate(591.511719 0.015625)" xlink:href="#DejaVuSans-Oblique-107"/>
      <use transform="translate(649.421875 0.015625)" xlink:href="#DejaVuSans-41"/>
     </g>
    </g>
   </g>
  </g>
 </g>
 <defs>
  <clipPath id="p8ad8357caa">
   <rect height="266.112" width="357.12" x="37.7" y="7.2"/>
  </clipPath>
 </defs>
</svg>
