<?xml version="1.0" encoding="utf-8" standalone="no"?>
<!DOCTYPE svg PUBLIC "-//W3C//DTD SVG 1.1//EN"
  "http://www.w3.org/Graphics/SVG/1.1/DTD/svg11.dtd">
<!-- Created with matplotlib (https://matplotlib.org/) -->
<svg height="310.86825pt" version="1.1" viewBox="0 0 402.02 310.86825" width="402.02pt" xmlns="http://www.w3.org/2000/svg" xmlns:xlink="http://www.w3.org/1999/xlink">
 <defs>
  <style type="text/css">
*{stroke-linecap:butt;stroke-linejoin:round;}
  </style>
 </defs>
 <g id="figure_1">
  <g id="patch_1">
   <path d="M 0 310.86825 
L 402.02 310.86825 
L 402.02 0 
L 0 0 
z
" style="fill:#ffffff;"/>
  </g>
  <g id="axes_1">
   <g id="patch_2">
    <path d="M 37.7 273.312 
L 394.82 273.312 
L 394.82 7.2 
L 37.7 7.2 
z
" style="fill:#ffffff;"/>
   </g>
   <g id="matplotlib.axis_1">
    <g id="xtick_1">
     <g id="line2d_1">
      <defs>
       <path d="M 0 0 
L 0 3.5 
" id="m1c514795b8" style="stroke:#000000;stroke-width:0.8;"/>
      </defs>
      <g>
       <use style="stroke:#000000;stroke-width:0.8;" x="53.932727" xlink:href="#m1c514795b8" y="273.312"/>
      </g>
     </g>
     <g id="text_1">
      <!-- 0 -->
      <defs>
       <path d="M 31.78125 66.40625 
Q 24.171875 66.40625 20.328125 58.90625 
Q 16.5 51.421875 16.5 36.375 
Q 16.5 21.390625 20.328125 13.890625 
Q 24.171875 6.390625 31.78125 6.390625 
Q 39.453125 6.390625 43.28125 13.890625 
Q 47.125 21.390625 47.125 36.375 
Q 47.125 51.421875 43.28125 58.90625 
Q 39.453125 66.40625 31.78125 66.40625 
z
M 31.78125 74.21875 
Q 44.046875 74.21875 50.515625 64.515625 
Q 56.984375 54.828125 56.984375 36.375 
Q 56.984375 17.96875 50.515625 8.265625 
Q 44.046875 -1.421875 31.78125 -1.421875 
Q 19.53125 -1.421875 13.0625 8.265625 
Q 6.59375 17.96875 6.59375 36.375 
Q 6.59375 54.828125 13.0625 64.515625 
Q 19.53125 74.21875 31.78125 74.21875 
z
" id="DejaVuSans-48"/>
      </defs>
      <g transform="translate(50.751477 287.910437)scale(0.1 -0.1)">
       <use xlink:href="#DejaVuSans-48"/>
      </g>
     </g>
    </g>
    <g id="xtick_2">
     <g id="line2d_2">
      <g>
       <use style="stroke:#000000;stroke-width:0.8;" x="132.162738" xlink:href="#m1c514795b8" y="273.312"/>
      </g>
     </g>
     <g id="text_2">
      <!-- 100 -->
      <defs>
       <path d="M 12.40625 8.296875 
L 28.515625 8.296875 
L 28.515625 63.921875 
L 10.984375 60.40625 
L 10.984375 69.390625 
L 28.421875 72.90625 
L 38.28125 72.90625 
L 38.28125 8.296875 
L 54.390625 8.296875 
L 54.390625 0 
L 12.40625 0 
z
" id="DejaVuSans-49"/>
      </defs>
      <g transform="translate(122.618988 287.910437)scale(0.1 -0.1)">
       <use xlink:href="#DejaVuSans-49"/>
       <use x="63.623047" xlink:href="#DejaVuSans-48"/>
       <use x="127.246094" xlink:href="#DejaVuSans-48"/>
      </g>
     </g>
    </g>
    <g id="xtick_3">
     <g id="line2d_3">
      <g>
       <use style="stroke:#000000;stroke-width:0.8;" x="210.392749" xlink:href="#m1c514795b8" y="273.312"/>
      </g>
     </g>
     <g id="text_3">
      <!-- 200 -->
      <defs>
       <path d="M 19.1875 8.296875 
L 53.609375 8.296875 
L 53.609375 0 
L 7.328125 0 
L 7.328125 8.296875 
Q 12.9375 14.109375 22.625 23.890625 
Q 32.328125 33.6875 34.8125 36.53125 
Q 39.546875 41.84375 41.421875 45.53125 
Q 43.3125 49.21875 43.3125 52.78125 
Q 43.3125 58.59375 39.234375 62.25 
Q 35.15625 65.921875 28.609375 65.921875 
Q 23.96875 65.921875 18.8125 64.3125 
Q 13.671875 62.703125 7.8125 59.421875 
L 7.8125 69.390625 
Q 13.765625 71.78125 18.9375 73 
Q 24.125 74.21875 28.421875 74.21875 
Q 39.75 74.21875 46.484375 68.546875 
Q 53.21875 62.890625 53.21875 53.421875 
Q 53.21875 48.921875 51.53125 44.890625 
Q 49.859375 40.875 45.40625 35.40625 
Q 44.1875 33.984375 37.640625 27.21875 
Q 31.109375 20.453125 19.1875 8.296875 
z
" id="DejaVuSans-50"/>
      </defs>
      <g transform="translate(200.848999 287.910437)scale(0.1 -0.1)">
       <use xlink:href="#DejaVuSans-50"/>
       <use x="63.623047" xlink:href="#DejaVuSans-48"/>
       <use x="127.246094" xlink:href="#DejaVuSans-48"/>
      </g>
     </g>
    </g>
    <g id="xtick_4">
     <g id="line2d_4">
      <g>
       <use style="stroke:#000000;stroke-width:0.8;" x="288.62276" xlink:href="#m1c514795b8" y="273.312"/>
      </g>
     </g>
     <g id="text_4">
      <!-- 300 -->
      <defs>
       <path d="M 40.578125 39.3125 
Q 47.65625 37.796875 51.625 33 
Q 55.609375 28.21875 55.609375 21.1875 
Q 55.609375 10.40625 48.1875 4.484375 
Q 40.765625 -1.421875 27.09375 -1.421875 
Q 22.515625 -1.421875 17.65625 -0.515625 
Q 12.796875 0.390625 7.625 2.203125 
L 7.625 11.71875 
Q 11.71875 9.328125 16.59375 8.109375 
Q 21.484375 6.890625 26.8125 6.890625 
Q 36.078125 6.890625 40.9375 10.546875 
Q 45.796875 14.203125 45.796875 21.1875 
Q 45.796875 27.640625 41.28125 31.265625 
Q 36.765625 34.90625 28.71875 34.90625 
L 20.21875 34.90625 
L 20.21875 43.015625 
L 29.109375 43.015625 
Q 36.375 43.015625 40.234375 45.921875 
Q 44.09375 48.828125 44.09375 54.296875 
Q 44.09375 59.90625 40.109375 62.90625 
Q 36.140625 65.921875 28.71875 65.921875 
Q 24.65625 65.921875 20.015625 65.03125 
Q 15.375 64.15625 9.8125 62.3125 
L 9.8125 71.09375 
Q 15.4375 72.65625 20.34375 73.4375 
Q 25.25 74.21875 29.59375 74.21875 
Q 40.828125 74.21875 47.359375 69.109375 
Q 53.90625 64.015625 53.90625 55.328125 
Q 53.90625 49.265625 50.4375 45.09375 
Q 46.96875 40.921875 40.578125 39.3125 
z
" id="DejaVuSans-51"/>
      </defs>
      <g transform="translate(279.07901 287.910437)scale(0.1 -0.1)">
       <use xlink:href="#DejaVuSans-51"/>
       <use x="63.623047" xlink:href="#DejaVuSans-48"/>
       <use x="127.246094" xlink:href="#DejaVuSans-48"/>
      </g>
     </g>
    </g>
    <g id="xtick_5">
     <g id="line2d_5">
      <g>
       <use style="stroke:#000000;stroke-width:0.8;" x="366.852771" xlink:href="#m1c514795b8" y="273.312"/>
      </g>
     </g>
     <g id="text_5">
      <!-- 400 -->
      <defs>
       <path d="M 37.796875 64.3125 
L 12.890625 25.390625 
L 37.796875 25.390625 
z
M 35.203125 72.90625 
L 47.609375 72.90625 
L 47.609375 25.390625 
L 58.015625 25.390625 
L 58.015625 17.1875 
L 47.609375 17.1875 
L 47.609375 0 
L 37.796875 0 
L 37.796875 17.1875 
L 4.890625 17.1875 
L 4.890625 26.703125 
z
" id="DejaVuSans-52"/>
      </defs>
      <g transform="translate(357.309021 287.910437)scale(0.1 -0.1)">
       <use xlink:href="#DejaVuSans-52"/>
       <use x="63.623047" xlink:href="#DejaVuSans-48"/>
       <use x="127.246094" xlink:href="#DejaVuSans-48"/>
      </g>
     </g>
    </g>
    <g id="text_6">
     <!-- $ k $ -->
     <defs>
      <path d="M 18.3125 75.984375 
L 27.296875 75.984375 
L 18.703125 31.6875 
L 49.515625 54.6875 
L 61.1875 54.6875 
L 26.8125 28.515625 
L 51.90625 0 
L 41.015625 0 
L 17.671875 26.703125 
L 12.5 0 
L 3.515625 0 
z
" id="DejaVuSans-Oblique-107"/>
     </defs>
     <g transform="translate(213.36 301.588562)scale(0.1 -0.1)">
      <use transform="translate(0 0.015625)" xlink:href="#DejaVuSans-Oblique-107"/>
     </g>
    </g>
   </g>
   <g id="matplotlib.axis_2">
    <g id="ytick_1">
     <g id="line2d_6">
      <defs>
       <path d="M 0 0 
L -3.5 0 
" id="m35f0b2c456" style="stroke:#000000;stroke-width:0.8;"/>
      </defs>
      <g>
       <use style="stroke:#000000;stroke-width:0.8;" x="37.7" xlink:href="#m35f0b2c456" y="216.557804"/>
      </g>
     </g>
     <g id="text_7">
      <!-- $\mathdefault{10^{-1}}$ -->
      <defs>
       <path d="M 10.59375 35.5 
L 73.1875 35.5 
L 73.1875 27.203125 
L 10.59375 27.203125 
z
" id="DejaVuSans-8722"/>
      </defs>
      <g transform="translate(7.2 220.357023)scale(0.1 -0.1)">
       <use transform="translate(0 0.684375)" xlink:href="#DejaVuSans-49"/>
       <use transform="translate(63.623047 0.684375)" xlink:href="#DejaVuSans-48"/>
       <use transform="translate(128.203125 38.965625)scale(0.7)" xlink:href="#DejaVuSans-8722"/>
       <use transform="translate(186.855469 38.965625)scale(0.7)" xlink:href="#DejaVuSans-49"/>
      </g>
     </g>
    </g>
    <g id="ytick_2">
     <g id="line2d_7">
      <g>
       <use style="stroke:#000000;stroke-width:0.8;" x="37.7" xlink:href="#m35f0b2c456" y="156.2732"/>
      </g>
     </g>
     <g id="text_8">
      <!-- $\mathdefault{10^{0}}$ -->
      <g transform="translate(13.1 160.072418)scale(0.1 -0.1)">
       <use transform="translate(0 0.765625)" xlink:href="#DejaVuSans-49"/>
       <use transform="translate(63.623047 0.765625)" xlink:href="#DejaVuSans-48"/>
       <use transform="translate(128.203125 39.046875)scale(0.7)" xlink:href="#DejaVuSans-48"/>
      </g>
     </g>
    </g>
    <g id="ytick_3">
     <g id="line2d_8">
      <g>
       <use style="stroke:#000000;stroke-width:0.8;" x="37.7" xlink:href="#m35f0b2c456" y="95.988595"/>
      </g>
     </g>
     <g id="text_9">
      <!-- $\mathdefault{10^{1}}$ -->
      <g transform="translate(13.1 99.787814)scale(0.1 -0.1)">
       <use transform="translate(0 0.684375)" xlink:href="#DejaVuSans-49"/>
       <use transform="translate(63.623047 0.684375)" xlink:href="#DejaVuSans-48"/>
       <use transform="translate(128.203125 38.965625)scale(0.7)" xlink:href="#DejaVuSans-49"/>
      </g>
     </g>
    </g>
    <g id="ytick_4">
     <g id="line2d_9">
      <g>
       <use style="stroke:#000000;stroke-width:0.8;" x="37.7" xlink:href="#m35f0b2c456" y="35.703991"/>
      </g>
     </g>
     <g id="text_10">
      <!-- $\mathdefault{10^{2}}$ -->
      <g transform="translate(13.1 39.50321)scale(0.1 -0.1)">
       <use transform="translate(0 0.765625)" xlink:href="#DejaVuSans-49"/>
       <use transform="translate(63.623047 0.765625)" xlink:href="#DejaVuSans-48"/>
       <use transform="translate(128.203125 39.046875)scale(0.7)" xlink:href="#DejaVuSans-50"/>
      </g>
     </g>
    </g>
    <g id="ytick_5">
     <g id="line2d_10">
      <defs>
       <path d="M 0 0 
L -2 0 
" id="m53828391ec" style="stroke:#000000;stroke-width:0.6;"/>
      </defs>
      <g>
       <use style="stroke:#000000;stroke-width:0.6;" x="37.7" xlink:href="#m53828391ec" y="258.694934"/>
      </g>
     </g>
    </g>
    <g id="ytick_6">
     <g id="line2d_11">
      <g>
       <use style="stroke:#000000;stroke-width:0.6;" x="37.7" xlink:href="#m53828391ec" y="248.079342"/>
      </g>
     </g>
    </g>
    <g id="ytick_7">
     <g id="line2d_12">
      <g>
       <use style="stroke:#000000;stroke-width:0.6;" x="37.7" xlink:href="#m53828391ec" y="240.54746"/>
      </g>
     </g>
    </g>
    <g id="ytick_8">
     <g id="line2d_13">
      <g>
       <use style="stroke:#000000;stroke-width:0.6;" x="37.7" xlink:href="#m53828391ec" y="234.705278"/>
      </g>
     </g>
    </g>
    <g id="ytick_9">
     <g id="line2d_14">
      <g>
       <use style="stroke:#000000;stroke-width:0.6;" x="37.7" xlink:href="#m53828391ec" y="229.931868"/>
      </g>
     </g>
    </g>
    <g id="ytick_10">
     <g id="line2d_15">
      <g>
       <use style="stroke:#000000;stroke-width:0.6;" x="37.7" xlink:href="#m53828391ec" y="225.896007"/>
      </g>
     </g>
    </g>
    <g id="ytick_11">
     <g id="line2d_16">
      <g>
       <use style="stroke:#000000;stroke-width:0.6;" x="37.7" xlink:href="#m53828391ec" y="222.399986"/>
      </g>
     </g>
    </g>
    <g id="ytick_12">
     <g id="line2d_17">
      <g>
       <use style="stroke:#000000;stroke-width:0.6;" x="37.7" xlink:href="#m53828391ec" y="219.316276"/>
      </g>
     </g>
    </g>
    <g id="ytick_13">
     <g id="line2d_18">
      <g>
       <use style="stroke:#000000;stroke-width:0.6;" x="37.7" xlink:href="#m53828391ec" y="198.41033"/>
      </g>
     </g>
    </g>
    <g id="ytick_14">
     <g id="line2d_19">
      <g>
       <use style="stroke:#000000;stroke-width:0.6;" x="37.7" xlink:href="#m53828391ec" y="187.794738"/>
      </g>
     </g>
    </g>
    <g id="ytick_15">
     <g id="line2d_20">
      <g>
       <use style="stroke:#000000;stroke-width:0.6;" x="37.7" xlink:href="#m53828391ec" y="180.262856"/>
      </g>
     </g>
    </g>
    <g id="ytick_16">
     <g id="line2d_21">
      <g>
       <use style="stroke:#000000;stroke-width:0.6;" x="37.7" xlink:href="#m53828391ec" y="174.420674"/>
      </g>
     </g>
    </g>
    <g id="ytick_17">
     <g id="line2d_22">
      <g>
       <use style="stroke:#000000;stroke-width:0.6;" x="37.7" xlink:href="#m53828391ec" y="169.647264"/>
      </g>
     </g>
    </g>
    <g id="ytick_18">
     <g id="line2d_23">
      <g>
       <use style="stroke:#000000;stroke-width:0.6;" x="37.7" xlink:href="#m53828391ec" y="165.611403"/>
      </g>
     </g>
    </g>
    <g id="ytick_19">
     <g id="line2d_24">
      <g>
       <use style="stroke:#000000;stroke-width:0.6;" x="37.7" xlink:href="#m53828391ec" y="162.115381"/>
      </g>
     </g>
    </g>
    <g id="ytick_20">
     <g id="line2d_25">
      <g>
       <use style="stroke:#000000;stroke-width:0.6;" x="37.7" xlink:href="#m53828391ec" y="159.031672"/>
      </g>
     </g>
    </g>
    <g id="ytick_21">
     <g id="line2d_26">
      <g>
       <use style="stroke:#000000;stroke-width:0.6;" x="37.7" xlink:href="#m53828391ec" y="138.125725"/>
      </g>
     </g>
    </g>
    <g id="ytick_22">
     <g id="line2d_27">
      <g>
       <use style="stroke:#000000;stroke-width:0.6;" x="37.7" xlink:href="#m53828391ec" y="127.510134"/>
      </g>
     </g>
    </g>
    <g id="ytick_23">
     <g id="line2d_28">
      <g>
       <use style="stroke:#000000;stroke-width:0.6;" x="37.7" xlink:href="#m53828391ec" y="119.978251"/>
      </g>
     </g>
    </g>
    <g id="ytick_24">
     <g id="line2d_29">
      <g>
       <use style="stroke:#000000;stroke-width:0.6;" x="37.7" xlink:href="#m53828391ec" y="114.136069"/>
      </g>
     </g>
    </g>
    <g id="ytick_25">
     <g id="line2d_30">
      <g>
       <use style="stroke:#000000;stroke-width:0.6;" x="37.7" xlink:href="#m53828391ec" y="109.362659"/>
      </g>
     </g>
    </g>
    <g id="ytick_26">
     <g id="line2d_31">
      <g>
       <use style="stroke:#000000;stroke-width:0.6;" x="37.7" xlink:href="#m53828391ec" y="105.326799"/>
      </g>
     </g>
    </g>
    <g id="ytick_27">
     <g id="line2d_32">
      <g>
       <use style="stroke:#000000;stroke-width:0.6;" x="37.7" xlink:href="#m53828391ec" y="101.830777"/>
      </g>
     </g>
    </g>
    <g id="ytick_28">
     <g id="line2d_33">
      <g>
       <use style="stroke:#000000;stroke-width:0.6;" x="37.7" xlink:href="#m53828391ec" y="98.747067"/>
      </g>
     </g>
    </g>
    <g id="ytick_29">
     <g id="line2d_34">
      <g>
       <use style="stroke:#000000;stroke-width:0.6;" x="37.7" xlink:href="#m53828391ec" y="77.841121"/>
      </g>
     </g>
    </g>
    <g id="ytick_30">
     <g id="line2d_35">
      <g>
       <use style="stroke:#000000;stroke-width:0.6;" x="37.7" xlink:href="#m53828391ec" y="67.225529"/>
      </g>
     </g>
    </g>
    <g id="ytick_31">
     <g id="line2d_36">
      <g>
       <use style="stroke:#000000;stroke-width:0.6;" x="37.7" xlink:href="#m53828391ec" y="59.693647"/>
      </g>
     </g>
    </g>
    <g id="ytick_32">
     <g id="line2d_37">
      <g>
       <use style="stroke:#000000;stroke-width:0.6;" x="37.7" xlink:href="#m53828391ec" y="53.851465"/>
      </g>
     </g>
    </g>
    <g id="ytick_33">
     <g id="line2d_38">
      <g>
       <use style="stroke:#000000;stroke-width:0.6;" x="37.7" xlink:href="#m53828391ec" y="49.078055"/>
      </g>
     </g>
    </g>
    <g id="ytick_34">
     <g id="line2d_39">
      <g>
       <use style="stroke:#000000;stroke-width:0.6;" x="37.7" xlink:href="#m53828391ec" y="45.042194"/>
      </g>
     </g>
    </g>
    <g id="ytick_35">
     <g id="line2d_40">
      <g>
       <use style="stroke:#000000;stroke-width:0.6;" x="37.7" xlink:href="#m53828391ec" y="41.546173"/>
      </g>
     </g>
    </g>
    <g id="ytick_36">
     <g id="line2d_41">
      <g>
       <use style="stroke:#000000;stroke-width:0.6;" x="37.7" xlink:href="#m53828391ec" y="38.462463"/>
      </g>
     </g>
    </g>
    <g id="ytick_37">
     <g id="line2d_42">
      <g>
       <use style="stroke:#000000;stroke-width:0.6;" x="37.7" xlink:href="#m53828391ec" y="17.556517"/>
      </g>
     </g>
    </g>
   </g>
   <g id="line2d_43">
    <path clip-path="url(#p5e8652c836)" d="M 53.932727 36.96126 
L 54.715027 32.358882 
L 55.497327 68.506066 
L 56.279628 60.934995 
L 57.061928 28.248213 
L 57.844228 60.823237 
L 58.626528 68.027632 
L 59.408828 31.991544 
L 60.191128 70.857104 
L 60.973428 36.599354 
L 61.755728 35.298762 
L 62.538028 46.399759 
L 63.320329 135.922685 
L 64.102629 88.471447 
L 64.884929 58.510693 
L 65.667229 78.184597 
L 66.449529 46.027755 
L 67.231829 50.673355 
L 68.014129 24.523689 
L 68.796429 25.559176 
L 69.578729 53.340332 
L 70.36103 90.354853 
L 71.14333 58.999742 
L 71.92563 45.153217 
L 72.70793 20.864478 
L 73.49023 42.879981 
L 74.27253 57.242508 
L 75.05483 53.933455 
L 75.83713 78.250099 
L 76.61943 38.87044 
L 77.401731 30.776218 
L 78.184031 48.372587 
L 78.966331 164.065311 
L 79.748631 103.955941 
L 80.530931 20.416482 
L 81.313231 46.413078 
L 82.095531 87.283599 
L 82.877831 68.496801 
L 83.660131 33.484004 
L 84.442432 51.421702 
L 85.224732 97.687045 
L 86.007032 62.817287 
L 86.789332 44.055964 
L 87.571632 49.402319 
L 88.353932 57.145615 
L 89.136232 43.341206 
L 89.918532 55.448062 
L 90.700832 58.054354 
L 91.483133 45.959065 
L 92.265433 81.560421 
L 93.047733 67.157746 
L 93.830033 33.033923 
L 94.612333 53.051114 
L 95.394633 24.32314 
L 96.176933 57.004469 
L 96.959233 76.009929 
L 97.741533 37.89817 
L 98.523834 33.117251 
L 99.306134 73.586719 
L 100.088434 46.673176 
L 100.870734 63.255078 
L 101.653034 35.905196 
L 102.435334 44.725927 
L 103.217634 83.574148 
L 103.999934 73.271998 
L 104.782234 42.255437 
L 105.564535 58.507446 
L 106.346835 68.2009 
L 107.129135 32.038639 
L 107.911435 70.042566 
L 108.693735 60.658314 
L 109.476035 28.119147 
L 110.258335 60.712592 
L 111.040635 68.563169 
L 111.822935 32.361884 
L 112.605235 73.972145 
L 113.387536 36.486802 
L 114.169836 45.324744 
L 114.952136 61.720431 
L 115.734436 34.520598 
L 116.516736 60.136099 
L 117.299036 30.43849 
L 118.081336 53.800036 
L 118.863636 61.34027 
L 119.645936 75.40197 
L 120.428237 43.140795 
L 121.210537 50.380439 
L 121.992837 53.876695 
L 122.775137 84.818976 
L 123.557437 46.910466 
L 124.339737 61.791762 
L 125.122037 66.619318 
L 125.904337 31.263674 
L 126.686637 67.655294 
L 127.468938 61.657074 
L 128.251238 28.593272 
L 129.033538 61.32484 
L 129.815838 67.973986 
L 130.598138 32.03936 
L 131.380438 71.951006 
L 132.162738 35.110027 
L 132.945038 75.816662 
L 133.727338 107.529281 
L 134.509639 72.554618 
L 135.291939 58.730169 
L 136.074239 68.665726 
L 136.856539 32.255756 
L 137.638839 71.50135 
L 138.421139 59.859332 
L 139.203439 27.767491 
L 139.985739 60.300539 
L 140.768039 69.310722 
L 141.55034 32.862094 
L 142.33264 79.948277 
L 143.11494 40.862207 
L 143.89724 26.344512 
L 144.67954 44.47801 
L 145.46184 82.866217 
L 146.24414 79.823967 
L 147.02644 47.138131 
L 147.80874 75.392136 
L 148.591041 28.180247 
L 149.373341 56.751892 
L 150.155641 74.701 
L 150.937941 37.267143 
L 151.720241 35.279139 
L 152.502541 90.456046 
L 153.284841 53.33479 
L 154.067141 77.947508 
L 154.849441 38.682555 
L 155.631742 31.409307 
L 156.414042 49.269952 
L 157.196342 54.280099 
L 157.978642 43.461464 
L 158.760942 63.940337 
L 159.543242 57.772995 
L 160.325542 26.506253 
L 161.107842 59.043172 
L 161.890142 69.904378 
L 162.672442 33.000843 
L 163.454743 78.454802 
L 164.237043 42.476234 
L 165.019343 21.689213 
L 165.801643 48.403042 
L 166.583943 47.072977 
L 167.366243 89.25999 
L 168.148543 68.330506 
L 168.930843 32.811705 
L 169.713143 186.389382 
L 170.495444 45.938001 
L 171.277744 75.093509 
L 172.060044 60.593517 
L 172.842344 28.289771 
L 173.624644 60.764971 
L 174.406944 68.893002 
L 175.189244 32.677398 
L 175.971544 78.788426 
L 176.753844 40.13726 
L 177.536145 28.232144 
L 178.318445 44.897419 
L 179.100745 88.455543 
L 179.883045 79.924218 
L 180.665345 54.705039 
L 181.447645 86.466575 
L 182.229945 53.730418 
L 183.012245 65.445336 
L 183.794545 46.347453 
L 184.576846 77.385063 
L 185.359146 61.502237 
L 186.141446 28.658023 
L 186.923746 61.105572 
L 187.706046 68.360838 
L 188.488346 32.336473 
L 189.270646 74.905754 
L 190.052946 36.972658 
L 190.835246 42.358788 
L 191.617547 57.133728 
L 192.399847 58.763336 
L 193.182147 79.335372 
L 193.964447 48.368959 
L 194.746747 52.127378 
L 195.529047 24.072472 
L 196.311347 56.595747 
L 197.093647 76.668219 
L 197.875947 38.442219 
L 198.658248 31.491793 
L 199.440548 59.258321 
L 200.222848 65.906008 
L 201.005148 31.080955 
L 201.787448 66.281293 
L 202.569748 63.15772 
L 203.352048 29.363663 
L 204.134348 62.718616 
L 204.916648 65.73755 
L 205.698949 30.696401 
L 206.481249 65.511951 
L 207.263549 63.398702 
L 208.045849 29.48483 
L 208.828149 62.797309 
L 209.610449 65.996783 
L 210.392749 30.857623 
L 211.175049 66.184041 
L 211.957349 62.700389 
L 212.73965 29.156277 
L 213.52195 62.210291 
L 214.30425 66.826323 
L 215.08655 31.348294 
L 215.86885 68.157187 
L 216.65115 34.775194 
L 217.43345 51.080951 
L 218.21575 51.758212 
L 218.99805 21.016536 
L 219.78035 54.065649 
L 220.562651 81.836202 
L 221.344951 42.513467 
L 222.127251 25.059007 
L 222.909551 51.821039 
L 223.691851 94.826173 
L 224.474151 62.118799 
L 225.256451 42.505119 
L 226.038751 56.084345 
L 226.821051 26.737455 
L 227.603352 116.148989 
L 228.385652 50.14484 
L 229.167952 90.793256 
L 229.950252 22.619067 
L 230.732552 54.002601 
L 231.514852 25.059142 
L 232.297152 27.705154 
L 233.079452 57.067023 
L 233.861752 69.710101 
L 234.644053 61.971248 
L 235.426353 28.819769 
L 236.208653 61.892359 
L 236.990953 67.418507 
L 237.773253 31.713652 
L 238.555553 70.104734 
L 239.337853 34.067916 
L 240.120153 111.5731 
L 240.902453 53.273374 
L 241.684754 24.905233 
L 242.467054 27.990828 
L 243.249354 71.564068 
L 244.031654 44.42051 
L 244.813954 46.424354 
L 245.596254 53.945269 
L 246.378554 46.125303 
L 247.160854 88.004996 
L 247.943154 77.700262 
L 248.725455 55.200993 
L 249.507755 87.043587 
L 250.290055 58.136039 
L 251.072355 54.543552 
L 251.854655 25.509602 
L 252.636955 26.27531 
L 253.419255 21.199729 
L 254.201555 47.925017 
L 254.983855 86.356882 
L 255.766156 26.887907 
L 256.548456 58.71593 
L 257.330756 26.758386 
L 258.113056 58.306174 
L 258.895356 73.938544 
L 259.677656 36.767899 
L 260.459956 37.315441 
L 261.242256 43.396825 
L 262.024556 60.375388 
L 262.806857 32.295111 
L 263.589157 57.315104 
L 264.371457 27.896829 
L 265.153757 53.060042 
L 265.936057 62.098503 
L 266.718357 74.960315 
L 267.500657 43.134905 
L 268.282957 50.938266 
L 269.065257 19.296 
L 269.847558 53.926351 
L 270.629858 83.112368 
L 271.412158 43.958899 
L 272.194458 21.729782 
L 272.976758 49.832327 
L 273.759058 261.216 
L 274.541358 87.752857 
L 275.323658 48.521463 
L 276.105958 49.906106 
L 276.888258 116.258653 
L 277.670559 83.562169 
L 278.452859 25.630828 
L 279.235159 47.378256 
L 280.017459 99.443391 
L 280.799759 73.545877 
L 281.582059 37.737279 
L 282.364359 53.844239 
L 283.146659 80.73086 
L 283.928959 41.079677 
L 284.71126 26.495609 
L 285.49356 46.530299 
L 286.27586 80.379838 
L 287.05816 62.111206 
L 287.84046 29.387906 
L 288.62276 65.544341 
L 289.40506 30.299898 
L 290.18736 64.269319 
L 290.96966 63.410879 
L 291.751961 29.621138 
L 292.534261 63.029223 
L 293.316561 66.182194 
L 294.098861 31.018923 
L 294.881161 67.149843 
L 295.663461 33.021498 
L 296.445761 91.603395 
L 297.228061 54.22748 
L 298.010361 45.652375 
L 298.792662 81.56132 
L 299.574962 68.192359 
L 300.357262 34.580943 
L 301.139562 46.879442 
L 301.921862 99.758601 
L 302.704162 77.579028 
L 303.486462 46.733032 
L 304.268762 51.300783 
L 305.051062 20.366113 
L 306.615663 83.424605 
L 307.397963 45.064168 
L 308.180263 59.301739 
L 308.962563 70.440946 
L 309.744863 33.86464 
L 310.527163 134.493259 
L 311.309463 74.560186 
L 312.091763 39.454734 
L 312.874064 54.758684 
L 313.656364 76.722039 
L 314.438664 37.574949 
L 315.220964 36.27575 
L 316.785564 57.628616 
L 317.567864 45.942524 
L 318.350164 66.331161 
L 319.132464 33.756056 
L 319.914765 96.187026 
L 320.697065 103.050161 
L 321.479365 58.46816 
L 322.261665 46.078955 
L 323.043965 82.313132 
L 323.826265 66.335451 
L 324.608565 31.855421 
L 325.390865 50.641025 
L 326.173165 111.517904 
L 326.955465 90.58105 
L 327.737766 63.375191 
L 328.520066 65.288428 
L 329.302366 30.473072 
L 330.084666 64.981049 
L 330.866966 63.763581 
L 331.649266 29.671861 
L 332.431566 63.139461 
L 333.213866 65.647812 
L 333.996166 30.666273 
L 334.778467 65.600461 
L 335.560767 63.166097 
L 336.343067 29.381019 
L 337.125367 62.589235 
L 337.907667 66.346231 
L 338.689967 31.066549 
L 339.472267 66.996405 
L 340.254567 62.071253 
L 341.036867 28.84395 
L 341.819168 61.720594 
L 342.601468 67.487411 
L 343.383768 31.748608 
L 344.166068 70.197378 
L 344.948368 34.182122 
L 345.730668 135.018018 
L 346.512968 52.565185 
L 347.295268 24.695882 
L 348.077568 27.349492 
L 348.859869 21.23987 
L 349.642169 59.986381 
L 350.424469 43.379123 
L 351.206769 68.624192 
L 351.989069 67.171212 
L 352.771369 57.563042 
L 353.553669 79.128524 
L 354.335969 44.229993 
L 355.118269 76.883374 
L 355.90057 47.512716 
L 356.68287 90.660715 
L 357.46517 68.482304 
L 358.24747 32.72493 
L 359.02977 83.680272 
L 359.81207 52.138933 
L 360.59437 72.997146 
L 361.37667 35.924303 
L 362.15897 60.457502 
L 362.941271 75.951948 
L 363.723571 87.284837 
L 364.505871 50.403681 
L 365.288171 88.246046 
L 366.070471 45.743637 
L 366.852771 20.159293 
L 367.635071 45.459795 
L 368.417371 75.059608 
L 369.199671 61.300582 
L 369.981972 28.382194 
L 370.764272 60.726476 
L 371.546572 68.298913 
L 372.328872 32.185056 
L 373.111172 72.324456 
L 373.893472 35.734615 
L 375.458072 68.586842 
L 376.240372 50.358645 
L 377.022673 46.662054 
L 377.026108 311.86825 
L 377.026108 311.86825 
" style="fill:none;stroke:#1f77b4;stroke-linecap:square;stroke-width:1.5;"/>
    <defs>
     <path d="M 0 3 
C 0.795609 3 1.55874 2.683901 2.12132 2.12132 
C 2.683901 1.55874 3 0.795609 3 0 
C 3 -0.795609 2.683901 -1.55874 2.12132 -2.12132 
C 1.55874 -2.683901 0.795609 -3 0 -3 
C -0.795609 -3 -1.55874 -2.683901 -2.12132 -2.12132 
C -2.683901 -1.55874 -3 -0.795609 -3 0 
C -3 0.795609 -2.683901 1.55874 -2.12132 2.12132 
C -1.55874 2.683901 -0.795609 3 0 3 
z
" id="me7cd4bec26" style="stroke:#1f77b4;"/>
    </defs>
    <g clip-path="url(#p5e8652c836)">
     <use style="fill:#1f77b4;stroke:#1f77b4;" x="53.932727" xlink:href="#me7cd4bec26" y="36.96126"/>
     <use style="fill:#1f77b4;stroke:#1f77b4;" x="54.715027" xlink:href="#me7cd4bec26" y="32.358882"/>
     <use style="fill:#1f77b4;stroke:#1f77b4;" x="55.497327" xlink:href="#me7cd4bec26" y="68.506066"/>
     <use style="fill:#1f77b4;stroke:#1f77b4;" x="56.279628" xlink:href="#me7cd4bec26" y="60.934995"/>
     <use style="fill:#1f77b4;stroke:#1f77b4;" x="57.061928" xlink:href="#me7cd4bec26" y="28.248213"/>
     <use style="fill:#1f77b4;stroke:#1f77b4;" x="57.844228" xlink:href="#me7cd4bec26" y="60.823237"/>
     <use style="fill:#1f77b4;stroke:#1f77b4;" x="58.626528" xlink:href="#me7cd4bec26" y="68.027632"/>
     <use style="fill:#1f77b4;stroke:#1f77b4;" x="59.408828" xlink:href="#me7cd4bec26" y="31.991544"/>
     <use style="fill:#1f77b4;stroke:#1f77b4;" x="60.191128" xlink:href="#me7cd4bec26" y="70.857104"/>
     <use style="fill:#1f77b4;stroke:#1f77b4;" x="60.973428" xlink:href="#me7cd4bec26" y="36.599354"/>
     <use style="fill:#1f77b4;stroke:#1f77b4;" x="61.755728" xlink:href="#me7cd4bec26" y="35.298762"/>
     <use style="fill:#1f77b4;stroke:#1f77b4;" x="62.538028" xlink:href="#me7cd4bec26" y="46.399759"/>
     <use style="fill:#1f77b4;stroke:#1f77b4;" x="63.320329" xlink:href="#me7cd4bec26" y="135.922685"/>
     <use style="fill:#1f77b4;stroke:#1f77b4;" x="64.102629" xlink:href="#me7cd4bec26" y="88.471447"/>
     <use style="fill:#1f77b4;stroke:#1f77b4;" x="64.884929" xlink:href="#me7cd4bec26" y="58.510693"/>
     <use style="fill:#1f77b4;stroke:#1f77b4;" x="65.667229" xlink:href="#me7cd4bec26" y="78.184597"/>
     <use style="fill:#1f77b4;stroke:#1f77b4;" x="66.449529" xlink:href="#me7cd4bec26" y="46.027755"/>
     <use style="fill:#1f77b4;stroke:#1f77b4;" x="67.231829" xlink:href="#me7cd4bec26" y="50.673355"/>
     <use style="fill:#1f77b4;stroke:#1f77b4;" x="68.014129" xlink:href="#me7cd4bec26" y="24.523689"/>
     <use style="fill:#1f77b4;stroke:#1f77b4;" x="68.796429" xlink:href="#me7cd4bec26" y="25.559176"/>
     <use style="fill:#1f77b4;stroke:#1f77b4;" x="69.578729" xlink:href="#me7cd4bec26" y="53.340332"/>
     <use style="fill:#1f77b4;stroke:#1f77b4;" x="70.36103" xlink:href="#me7cd4bec26" y="90.354853"/>
     <use style="fill:#1f77b4;stroke:#1f77b4;" x="71.14333" xlink:href="#me7cd4bec26" y="58.999742"/>
     <use style="fill:#1f77b4;stroke:#1f77b4;" x="71.92563" xlink:href="#me7cd4bec26" y="45.153217"/>
     <use style="fill:#1f77b4;stroke:#1f77b4;" x="72.70793" xlink:href="#me7cd4bec26" y="20.864478"/>
     <use style="fill:#1f77b4;stroke:#1f77b4;" x="73.49023" xlink:href="#me7cd4bec26" y="42.879981"/>
     <use style="fill:#1f77b4;stroke:#1f77b4;" x="74.27253" xlink:href="#me7cd4bec26" y="57.242508"/>
     <use style="fill:#1f77b4;stroke:#1f77b4;" x="75.05483" xlink:href="#me7cd4bec26" y="53.933455"/>
     <use style="fill:#1f77b4;stroke:#1f77b4;" x="75.83713" xlink:href="#me7cd4bec26" y="78.250099"/>
     <use style="fill:#1f77b4;stroke:#1f77b4;" x="76.61943" xlink:href="#me7cd4bec26" y="38.87044"/>
     <use style="fill:#1f77b4;stroke:#1f77b4;" x="77.401731" xlink:href="#me7cd4bec26" y="30.776218"/>
     <use style="fill:#1f77b4;stroke:#1f77b4;" x="78.184031" xlink:href="#me7cd4bec26" y="48.372587"/>
     <use style="fill:#1f77b4;stroke:#1f77b4;" x="78.966331" xlink:href="#me7cd4bec26" y="164.065311"/>
     <use style="fill:#1f77b4;stroke:#1f77b4;" x="79.748631" xlink:href="#me7cd4bec26" y="103.955941"/>
     <use style="fill:#1f77b4;stroke:#1f77b4;" x="80.530931" xlink:href="#me7cd4bec26" y="20.416482"/>
     <use style="fill:#1f77b4;stroke:#1f77b4;" x="81.313231" xlink:href="#me7cd4bec26" y="46.413078"/>
     <use style="fill:#1f77b4;stroke:#1f77b4;" x="82.095531" xlink:href="#me7cd4bec26" y="87.283599"/>
     <use style="fill:#1f77b4;stroke:#1f77b4;" x="82.877831" xlink:href="#me7cd4bec26" y="68.496801"/>
     <use style="fill:#1f77b4;stroke:#1f77b4;" x="83.660131" xlink:href="#me7cd4bec26" y="33.484004"/>
     <use style="fill:#1f77b4;stroke:#1f77b4;" x="84.442432" xlink:href="#me7cd4bec26" y="51.421702"/>
     <use style="fill:#1f77b4;stroke:#1f77b4;" x="85.224732" xlink:href="#me7cd4bec26" y="97.687045"/>
     <use style="fill:#1f77b4;stroke:#1f77b4;" x="86.007032" xlink:href="#me7cd4bec26" y="62.817287"/>
     <use style="fill:#1f77b4;stroke:#1f77b4;" x="86.789332" xlink:href="#me7cd4bec26" y="44.055964"/>
     <use style="fill:#1f77b4;stroke:#1f77b4;" x="87.571632" xlink:href="#me7cd4bec26" y="49.402319"/>
     <use style="fill:#1f77b4;stroke:#1f77b4;" x="88.353932" xlink:href="#me7cd4bec26" y="57.145615"/>
     <use style="fill:#1f77b4;stroke:#1f77b4;" x="89.136232" xlink:href="#me7cd4bec26" y="43.341206"/>
     <use style="fill:#1f77b4;stroke:#1f77b4;" x="89.918532" xlink:href="#me7cd4bec26" y="55.448062"/>
     <use style="fill:#1f77b4;stroke:#1f77b4;" x="90.700832" xlink:href="#me7cd4bec26" y="58.054354"/>
     <use style="fill:#1f77b4;stroke:#1f77b4;" x="91.483133" xlink:href="#me7cd4bec26" y="45.959065"/>
     <use style="fill:#1f77b4;stroke:#1f77b4;" x="92.265433" xlink:href="#me7cd4bec26" y="81.560421"/>
     <use style="fill:#1f77b4;stroke:#1f77b4;" x="93.047733" xlink:href="#me7cd4bec26" y="67.157746"/>
     <use style="fill:#1f77b4;stroke:#1f77b4;" x="93.830033" xlink:href="#me7cd4bec26" y="33.033923"/>
     <use style="fill:#1f77b4;stroke:#1f77b4;" x="94.612333" xlink:href="#me7cd4bec26" y="53.051114"/>
     <use style="fill:#1f77b4;stroke:#1f77b4;" x="95.394633" xlink:href="#me7cd4bec26" y="24.32314"/>
     <use style="fill:#1f77b4;stroke:#1f77b4;" x="96.176933" xlink:href="#me7cd4bec26" y="57.004469"/>
     <use style="fill:#1f77b4;stroke:#1f77b4;" x="96.959233" xlink:href="#me7cd4bec26" y="76.009929"/>
     <use style="fill:#1f77b4;stroke:#1f77b4;" x="97.741533" xlink:href="#me7cd4bec26" y="37.89817"/>
     <use style="fill:#1f77b4;stroke:#1f77b4;" x="98.523834" xlink:href="#me7cd4bec26" y="33.117251"/>
     <use style="fill:#1f77b4;stroke:#1f77b4;" x="99.306134" xlink:href="#me7cd4bec26" y="73.586719"/>
     <use style="fill:#1f77b4;stroke:#1f77b4;" x="100.088434" xlink:href="#me7cd4bec26" y="46.673176"/>
     <use style="fill:#1f77b4;stroke:#1f77b4;" x="100.870734" xlink:href="#me7cd4bec26" y="63.255078"/>
     <use style="fill:#1f77b4;stroke:#1f77b4;" x="101.653034" xlink:href="#me7cd4bec26" y="35.905196"/>
     <use style="fill:#1f77b4;stroke:#1f77b4;" x="102.435334" xlink:href="#me7cd4bec26" y="44.725927"/>
     <use style="fill:#1f77b4;stroke:#1f77b4;" x="103.217634" xlink:href="#me7cd4bec26" y="83.574148"/>
     <use style="fill:#1f77b4;stroke:#1f77b4;" x="103.999934" xlink:href="#me7cd4bec26" y="73.271998"/>
     <use style="fill:#1f77b4;stroke:#1f77b4;" x="104.782234" xlink:href="#me7cd4bec26" y="42.255437"/>
     <use style="fill:#1f77b4;stroke:#1f77b4;" x="105.564535" xlink:href="#me7cd4bec26" y="58.507446"/>
     <use style="fill:#1f77b4;stroke:#1f77b4;" x="106.346835" xlink:href="#me7cd4bec26" y="68.2009"/>
     <use style="fill:#1f77b4;stroke:#1f77b4;" x="107.129135" xlink:href="#me7cd4bec26" y="32.038639"/>
     <use style="fill:#1f77b4;stroke:#1f77b4;" x="107.911435" xlink:href="#me7cd4bec26" y="70.042566"/>
     <use style="fill:#1f77b4;stroke:#1f77b4;" x="108.693735" xlink:href="#me7cd4bec26" y="60.658314"/>
     <use style="fill:#1f77b4;stroke:#1f77b4;" x="109.476035" xlink:href="#me7cd4bec26" y="28.119147"/>
     <use style="fill:#1f77b4;stroke:#1f77b4;" x="110.258335" xlink:href="#me7cd4bec26" y="60.712592"/>
     <use style="fill:#1f77b4;stroke:#1f77b4;" x="111.040635" xlink:href="#me7cd4bec26" y="68.563169"/>
     <use style="fill:#1f77b4;stroke:#1f77b4;" x="111.822935" xlink:href="#me7cd4bec26" y="32.361884"/>
     <use style="fill:#1f77b4;stroke:#1f77b4;" x="112.605235" xlink:href="#me7cd4bec26" y="73.972145"/>
     <use style="fill:#1f77b4;stroke:#1f77b4;" x="113.387536" xlink:href="#me7cd4bec26" y="36.486802"/>
     <use style="fill:#1f77b4;stroke:#1f77b4;" x="114.169836" xlink:href="#me7cd4bec26" y="45.324744"/>
     <use style="fill:#1f77b4;stroke:#1f77b4;" x="114.952136" xlink:href="#me7cd4bec26" y="61.720431"/>
     <use style="fill:#1f77b4;stroke:#1f77b4;" x="115.734436" xlink:href="#me7cd4bec26" y="34.520598"/>
     <use style="fill:#1f77b4;stroke:#1f77b4;" x="116.516736" xlink:href="#me7cd4bec26" y="60.136099"/>
     <use style="fill:#1f77b4;stroke:#1f77b4;" x="117.299036" xlink:href="#me7cd4bec26" y="30.43849"/>
     <use style="fill:#1f77b4;stroke:#1f77b4;" x="118.081336" xlink:href="#me7cd4bec26" y="53.800036"/>
     <use style="fill:#1f77b4;stroke:#1f77b4;" x="118.863636" xlink:href="#me7cd4bec26" y="61.34027"/>
     <use style="fill:#1f77b4;stroke:#1f77b4;" x="119.645936" xlink:href="#me7cd4bec26" y="75.40197"/>
     <use style="fill:#1f77b4;stroke:#1f77b4;" x="120.428237" xlink:href="#me7cd4bec26" y="43.140795"/>
     <use style="fill:#1f77b4;stroke:#1f77b4;" x="121.210537" xlink:href="#me7cd4bec26" y="50.380439"/>
     <use style="fill:#1f77b4;stroke:#1f77b4;" x="121.992837" xlink:href="#me7cd4bec26" y="53.876695"/>
     <use style="fill:#1f77b4;stroke:#1f77b4;" x="122.775137" xlink:href="#me7cd4bec26" y="84.818976"/>
     <use style="fill:#1f77b4;stroke:#1f77b4;" x="123.557437" xlink:href="#me7cd4bec26" y="46.910466"/>
     <use style="fill:#1f77b4;stroke:#1f77b4;" x="124.339737" xlink:href="#me7cd4bec26" y="61.791762"/>
     <use style="fill:#1f77b4;stroke:#1f77b4;" x="125.122037" xlink:href="#me7cd4bec26" y="66.619318"/>
     <use style="fill:#1f77b4;stroke:#1f77b4;" x="125.904337" xlink:href="#me7cd4bec26" y="31.263674"/>
     <use style="fill:#1f77b4;stroke:#1f77b4;" x="126.686637" xlink:href="#me7cd4bec26" y="67.655294"/>
     <use style="fill:#1f77b4;stroke:#1f77b4;" x="127.468938" xlink:href="#me7cd4bec26" y="61.657074"/>
     <use style="fill:#1f77b4;stroke:#1f77b4;" x="128.251238" xlink:href="#me7cd4bec26" y="28.593272"/>
     <use style="fill:#1f77b4;stroke:#1f77b4;" x="129.033538" xlink:href="#me7cd4bec26" y="61.32484"/>
     <use style="fill:#1f77b4;stroke:#1f77b4;" x="129.815838" xlink:href="#me7cd4bec26" y="67.973986"/>
     <use style="fill:#1f77b4;stroke:#1f77b4;" x="130.598138" xlink:href="#me7cd4bec26" y="32.03936"/>
     <use style="fill:#1f77b4;stroke:#1f77b4;" x="131.380438" xlink:href="#me7cd4bec26" y="71.951006"/>
     <use style="fill:#1f77b4;stroke:#1f77b4;" x="132.162738" xlink:href="#me7cd4bec26" y="35.110027"/>
     <use style="fill:#1f77b4;stroke:#1f77b4;" x="132.945038" xlink:href="#me7cd4bec26" y="75.816662"/>
     <use style="fill:#1f77b4;stroke:#1f77b4;" x="133.727338" xlink:href="#me7cd4bec26" y="107.529281"/>
     <use style="fill:#1f77b4;stroke:#1f77b4;" x="134.509639" xlink:href="#me7cd4bec26" y="72.554618"/>
     <use style="fill:#1f77b4;stroke:#1f77b4;" x="135.291939" xlink:href="#me7cd4bec26" y="58.730169"/>
     <use style="fill:#1f77b4;stroke:#1f77b4;" x="136.074239" xlink:href="#me7cd4bec26" y="68.665726"/>
     <use style="fill:#1f77b4;stroke:#1f77b4;" x="136.856539" xlink:href="#me7cd4bec26" y="32.255756"/>
     <use style="fill:#1f77b4;stroke:#1f77b4;" x="137.638839" xlink:href="#me7cd4bec26" y="71.50135"/>
     <use style="fill:#1f77b4;stroke:#1f77b4;" x="138.421139" xlink:href="#me7cd4bec26" y="59.859332"/>
     <use style="fill:#1f77b4;stroke:#1f77b4;" x="139.203439" xlink:href="#me7cd4bec26" y="27.767491"/>
     <use style="fill:#1f77b4;stroke:#1f77b4;" x="139.985739" xlink:href="#me7cd4bec26" y="60.300539"/>
     <use style="fill:#1f77b4;stroke:#1f77b4;" x="140.768039" xlink:href="#me7cd4bec26" y="69.310722"/>
     <use style="fill:#1f77b4;stroke:#1f77b4;" x="141.55034" xlink:href="#me7cd4bec26" y="32.862094"/>
     <use style="fill:#1f77b4;stroke:#1f77b4;" x="142.33264" xlink:href="#me7cd4bec26" y="79.948277"/>
     <use style="fill:#1f77b4;stroke:#1f77b4;" x="143.11494" xlink:href="#me7cd4bec26" y="40.862207"/>
     <use style="fill:#1f77b4;stroke:#1f77b4;" x="143.89724" xlink:href="#me7cd4bec26" y="26.344512"/>
     <use style="fill:#1f77b4;stroke:#1f77b4;" x="144.67954" xlink:href="#me7cd4bec26" y="44.47801"/>
     <use style="fill:#1f77b4;stroke:#1f77b4;" x="145.46184" xlink:href="#me7cd4bec26" y="82.866217"/>
     <use style="fill:#1f77b4;stroke:#1f77b4;" x="146.24414" xlink:href="#me7cd4bec26" y="79.823967"/>
     <use style="fill:#1f77b4;stroke:#1f77b4;" x="147.02644" xlink:href="#me7cd4bec26" y="47.138131"/>
     <use style="fill:#1f77b4;stroke:#1f77b4;" x="147.80874" xlink:href="#me7cd4bec26" y="75.392136"/>
     <use style="fill:#1f77b4;stroke:#1f77b4;" x="148.591041" xlink:href="#me7cd4bec26" y="28.180247"/>
     <use style="fill:#1f77b4;stroke:#1f77b4;" x="149.373341" xlink:href="#me7cd4bec26" y="56.751892"/>
     <use style="fill:#1f77b4;stroke:#1f77b4;" x="150.155641" xlink:href="#me7cd4bec26" y="74.701"/>
     <use style="fill:#1f77b4;stroke:#1f77b4;" x="150.937941" xlink:href="#me7cd4bec26" y="37.267143"/>
     <use style="fill:#1f77b4;stroke:#1f77b4;" x="151.720241" xlink:href="#me7cd4bec26" y="35.279139"/>
     <use style="fill:#1f77b4;stroke:#1f77b4;" x="152.502541" xlink:href="#me7cd4bec26" y="90.456046"/>
     <use style="fill:#1f77b4;stroke:#1f77b4;" x="153.284841" xlink:href="#me7cd4bec26" y="53.33479"/>
     <use style="fill:#1f77b4;stroke:#1f77b4;" x="154.067141" xlink:href="#me7cd4bec26" y="77.947508"/>
     <use style="fill:#1f77b4;stroke:#1f77b4;" x="154.849441" xlink:href="#me7cd4bec26" y="38.682555"/>
     <use style="fill:#1f77b4;stroke:#1f77b4;" x="155.631742" xlink:href="#me7cd4bec26" y="31.409307"/>
     <use style="fill:#1f77b4;stroke:#1f77b4;" x="156.414042" xlink:href="#me7cd4bec26" y="49.269952"/>
     <use style="fill:#1f77b4;stroke:#1f77b4;" x="157.196342" xlink:href="#me7cd4bec26" y="54.280099"/>
     <use style="fill:#1f77b4;stroke:#1f77b4;" x="157.978642" xlink:href="#me7cd4bec26" y="43.461464"/>
     <use style="fill:#1f77b4;stroke:#1f77b4;" x="158.760942" xlink:href="#me7cd4bec26" y="63.940337"/>
     <use style="fill:#1f77b4;stroke:#1f77b4;" x="159.543242" xlink:href="#me7cd4bec26" y="57.772995"/>
     <use style="fill:#1f77b4;stroke:#1f77b4;" x="160.325542" xlink:href="#me7cd4bec26" y="26.506253"/>
     <use style="fill:#1f77b4;stroke:#1f77b4;" x="161.107842" xlink:href="#me7cd4bec26" y="59.043172"/>
     <use style="fill:#1f77b4;stroke:#1f77b4;" x="161.890142" xlink:href="#me7cd4bec26" y="69.904378"/>
     <use style="fill:#1f77b4;stroke:#1f77b4;" x="162.672442" xlink:href="#me7cd4bec26" y="33.000843"/>
     <use style="fill:#1f77b4;stroke:#1f77b4;" x="163.454743" xlink:href="#me7cd4bec26" y="78.454802"/>
     <use style="fill:#1f77b4;stroke:#1f77b4;" x="164.237043" xlink:href="#me7cd4bec26" y="42.476234"/>
     <use style="fill:#1f77b4;stroke:#1f77b4;" x="165.019343" xlink:href="#me7cd4bec26" y="21.689213"/>
     <use style="fill:#1f77b4;stroke:#1f77b4;" x="165.801643" xlink:href="#me7cd4bec26" y="48.403042"/>
     <use style="fill:#1f77b4;stroke:#1f77b4;" x="166.583943" xlink:href="#me7cd4bec26" y="47.072977"/>
     <use style="fill:#1f77b4;stroke:#1f77b4;" x="167.366243" xlink:href="#me7cd4bec26" y="89.25999"/>
     <use style="fill:#1f77b4;stroke:#1f77b4;" x="168.148543" xlink:href="#me7cd4bec26" y="68.330506"/>
     <use style="fill:#1f77b4;stroke:#1f77b4;" x="168.930843" xlink:href="#me7cd4bec26" y="32.811705"/>
     <use style="fill:#1f77b4;stroke:#1f77b4;" x="169.713143" xlink:href="#me7cd4bec26" y="186.389382"/>
     <use style="fill:#1f77b4;stroke:#1f77b4;" x="170.495444" xlink:href="#me7cd4bec26" y="45.938001"/>
     <use style="fill:#1f77b4;stroke:#1f77b4;" x="171.277744" xlink:href="#me7cd4bec26" y="75.093509"/>
     <use style="fill:#1f77b4;stroke:#1f77b4;" x="172.060044" xlink:href="#me7cd4bec26" y="60.593517"/>
     <use style="fill:#1f77b4;stroke:#1f77b4;" x="172.842344" xlink:href="#me7cd4bec26" y="28.289771"/>
     <use style="fill:#1f77b4;stroke:#1f77b4;" x="173.624644" xlink:href="#me7cd4bec26" y="60.764971"/>
     <use style="fill:#1f77b4;stroke:#1f77b4;" x="174.406944" xlink:href="#me7cd4bec26" y="68.893002"/>
     <use style="fill:#1f77b4;stroke:#1f77b4;" x="175.189244" xlink:href="#me7cd4bec26" y="32.677398"/>
     <use style="fill:#1f77b4;stroke:#1f77b4;" x="175.971544" xlink:href="#me7cd4bec26" y="78.788426"/>
     <use style="fill:#1f77b4;stroke:#1f77b4;" x="176.753844" xlink:href="#me7cd4bec26" y="40.13726"/>
     <use style="fill:#1f77b4;stroke:#1f77b4;" x="177.536145" xlink:href="#me7cd4bec26" y="28.232144"/>
     <use style="fill:#1f77b4;stroke:#1f77b4;" x="178.318445" xlink:href="#me7cd4bec26" y="44.897419"/>
     <use style="fill:#1f77b4;stroke:#1f77b4;" x="179.100745" xlink:href="#me7cd4bec26" y="88.455543"/>
     <use style="fill:#1f77b4;stroke:#1f77b4;" x="179.883045" xlink:href="#me7cd4bec26" y="79.924218"/>
     <use style="fill:#1f77b4;stroke:#1f77b4;" x="180.665345" xlink:href="#me7cd4bec26" y="54.705039"/>
     <use style="fill:#1f77b4;stroke:#1f77b4;" x="181.447645" xlink:href="#me7cd4bec26" y="86.466575"/>
     <use style="fill:#1f77b4;stroke:#1f77b4;" x="182.229945" xlink:href="#me7cd4bec26" y="53.730418"/>
     <use style="fill:#1f77b4;stroke:#1f77b4;" x="183.012245" xlink:href="#me7cd4bec26" y="65.445336"/>
     <use style="fill:#1f77b4;stroke:#1f77b4;" x="183.794545" xlink:href="#me7cd4bec26" y="46.347453"/>
     <use style="fill:#1f77b4;stroke:#1f77b4;" x="184.576846" xlink:href="#me7cd4bec26" y="77.385063"/>
     <use style="fill:#1f77b4;stroke:#1f77b4;" x="185.359146" xlink:href="#me7cd4bec26" y="61.502237"/>
     <use style="fill:#1f77b4;stroke:#1f77b4;" x="186.141446" xlink:href="#me7cd4bec26" y="28.658023"/>
     <use style="fill:#1f77b4;stroke:#1f77b4;" x="186.923746" xlink:href="#me7cd4bec26" y="61.105572"/>
     <use style="fill:#1f77b4;stroke:#1f77b4;" x="187.706046" xlink:href="#me7cd4bec26" y="68.360838"/>
     <use style="fill:#1f77b4;stroke:#1f77b4;" x="188.488346" xlink:href="#me7cd4bec26" y="32.336473"/>
     <use style="fill:#1f77b4;stroke:#1f77b4;" x="189.270646" xlink:href="#me7cd4bec26" y="74.905754"/>
     <use style="fill:#1f77b4;stroke:#1f77b4;" x="190.052946" xlink:href="#me7cd4bec26" y="36.972658"/>
     <use style="fill:#1f77b4;stroke:#1f77b4;" x="190.835246" xlink:href="#me7cd4bec26" y="42.358788"/>
     <use style="fill:#1f77b4;stroke:#1f77b4;" x="191.617547" xlink:href="#me7cd4bec26" y="57.133728"/>
     <use style="fill:#1f77b4;stroke:#1f77b4;" x="192.399847" xlink:href="#me7cd4bec26" y="58.763336"/>
     <use style="fill:#1f77b4;stroke:#1f77b4;" x="193.182147" xlink:href="#me7cd4bec26" y="79.335372"/>
     <use style="fill:#1f77b4;stroke:#1f77b4;" x="193.964447" xlink:href="#me7cd4bec26" y="48.368959"/>
     <use style="fill:#1f77b4;stroke:#1f77b4;" x="194.746747" xlink:href="#me7cd4bec26" y="52.127378"/>
     <use style="fill:#1f77b4;stroke:#1f77b4;" x="195.529047" xlink:href="#me7cd4bec26" y="24.072472"/>
     <use style="fill:#1f77b4;stroke:#1f77b4;" x="196.311347" xlink:href="#me7cd4bec26" y="56.595747"/>
     <use style="fill:#1f77b4;stroke:#1f77b4;" x="197.093647" xlink:href="#me7cd4bec26" y="76.668219"/>
     <use style="fill:#1f77b4;stroke:#1f77b4;" x="197.875947" xlink:href="#me7cd4bec26" y="38.442219"/>
     <use style="fill:#1f77b4;stroke:#1f77b4;" x="198.658248" xlink:href="#me7cd4bec26" y="31.491793"/>
     <use style="fill:#1f77b4;stroke:#1f77b4;" x="199.440548" xlink:href="#me7cd4bec26" y="59.258321"/>
     <use style="fill:#1f77b4;stroke:#1f77b4;" x="200.222848" xlink:href="#me7cd4bec26" y="65.906008"/>
     <use style="fill:#1f77b4;stroke:#1f77b4;" x="201.005148" xlink:href="#me7cd4bec26" y="31.080955"/>
     <use style="fill:#1f77b4;stroke:#1f77b4;" x="201.787448" xlink:href="#me7cd4bec26" y="66.281293"/>
     <use style="fill:#1f77b4;stroke:#1f77b4;" x="202.569748" xlink:href="#me7cd4bec26" y="63.15772"/>
     <use style="fill:#1f77b4;stroke:#1f77b4;" x="203.352048" xlink:href="#me7cd4bec26" y="29.363663"/>
     <use style="fill:#1f77b4;stroke:#1f77b4;" x="204.134348" xlink:href="#me7cd4bec26" y="62.718616"/>
     <use style="fill:#1f77b4;stroke:#1f77b4;" x="204.916648" xlink:href="#me7cd4bec26" y="65.73755"/>
     <use style="fill:#1f77b4;stroke:#1f77b4;" x="205.698949" xlink:href="#me7cd4bec26" y="30.696401"/>
     <use style="fill:#1f77b4;stroke:#1f77b4;" x="206.481249" xlink:href="#me7cd4bec26" y="65.511951"/>
     <use style="fill:#1f77b4;stroke:#1f77b4;" x="207.263549" xlink:href="#me7cd4bec26" y="63.398702"/>
     <use style="fill:#1f77b4;stroke:#1f77b4;" x="208.045849" xlink:href="#me7cd4bec26" y="29.48483"/>
     <use style="fill:#1f77b4;stroke:#1f77b4;" x="208.828149" xlink:href="#me7cd4bec26" y="62.797309"/>
     <use style="fill:#1f77b4;stroke:#1f77b4;" x="209.610449" xlink:href="#me7cd4bec26" y="65.996783"/>
     <use style="fill:#1f77b4;stroke:#1f77b4;" x="210.392749" xlink:href="#me7cd4bec26" y="30.857623"/>
     <use style="fill:#1f77b4;stroke:#1f77b4;" x="211.175049" xlink:href="#me7cd4bec26" y="66.184041"/>
     <use style="fill:#1f77b4;stroke:#1f77b4;" x="211.957349" xlink:href="#me7cd4bec26" y="62.700389"/>
     <use style="fill:#1f77b4;stroke:#1f77b4;" x="212.73965" xlink:href="#me7cd4bec26" y="29.156277"/>
     <use style="fill:#1f77b4;stroke:#1f77b4;" x="213.52195" xlink:href="#me7cd4bec26" y="62.210291"/>
     <use style="fill:#1f77b4;stroke:#1f77b4;" x="214.30425" xlink:href="#me7cd4bec26" y="66.826323"/>
     <use style="fill:#1f77b4;stroke:#1f77b4;" x="215.08655" xlink:href="#me7cd4bec26" y="31.348294"/>
     <use style="fill:#1f77b4;stroke:#1f77b4;" x="215.86885" xlink:href="#me7cd4bec26" y="68.157187"/>
     <use style="fill:#1f77b4;stroke:#1f77b4;" x="216.65115" xlink:href="#me7cd4bec26" y="34.775194"/>
     <use style="fill:#1f77b4;stroke:#1f77b4;" x="217.43345" xlink:href="#me7cd4bec26" y="51.080951"/>
     <use style="fill:#1f77b4;stroke:#1f77b4;" x="218.21575" xlink:href="#me7cd4bec26" y="51.758212"/>
     <use style="fill:#1f77b4;stroke:#1f77b4;" x="218.99805" xlink:href="#me7cd4bec26" y="21.016536"/>
     <use style="fill:#1f77b4;stroke:#1f77b4;" x="219.78035" xlink:href="#me7cd4bec26" y="54.065649"/>
     <use style="fill:#1f77b4;stroke:#1f77b4;" x="220.562651" xlink:href="#me7cd4bec26" y="81.836202"/>
     <use style="fill:#1f77b4;stroke:#1f77b4;" x="221.344951" xlink:href="#me7cd4bec26" y="42.513467"/>
     <use style="fill:#1f77b4;stroke:#1f77b4;" x="222.127251" xlink:href="#me7cd4bec26" y="25.059007"/>
     <use style="fill:#1f77b4;stroke:#1f77b4;" x="222.909551" xlink:href="#me7cd4bec26" y="51.821039"/>
     <use style="fill:#1f77b4;stroke:#1f77b4;" x="223.691851" xlink:href="#me7cd4bec26" y="94.826173"/>
     <use style="fill:#1f77b4;stroke:#1f77b4;" x="224.474151" xlink:href="#me7cd4bec26" y="62.118799"/>
     <use style="fill:#1f77b4;stroke:#1f77b4;" x="225.256451" xlink:href="#me7cd4bec26" y="42.505119"/>
     <use style="fill:#1f77b4;stroke:#1f77b4;" x="226.038751" xlink:href="#me7cd4bec26" y="56.084345"/>
     <use style="fill:#1f77b4;stroke:#1f77b4;" x="226.821051" xlink:href="#me7cd4bec26" y="26.737455"/>
     <use style="fill:#1f77b4;stroke:#1f77b4;" x="227.603352" xlink:href="#me7cd4bec26" y="116.148989"/>
     <use style="fill:#1f77b4;stroke:#1f77b4;" x="228.385652" xlink:href="#me7cd4bec26" y="50.14484"/>
     <use style="fill:#1f77b4;stroke:#1f77b4;" x="229.167952" xlink:href="#me7cd4bec26" y="90.793256"/>
     <use style="fill:#1f77b4;stroke:#1f77b4;" x="229.950252" xlink:href="#me7cd4bec26" y="22.619067"/>
     <use style="fill:#1f77b4;stroke:#1f77b4;" x="230.732552" xlink:href="#me7cd4bec26" y="54.002601"/>
     <use style="fill:#1f77b4;stroke:#1f77b4;" x="231.514852" xlink:href="#me7cd4bec26" y="25.059142"/>
     <use style="fill:#1f77b4;stroke:#1f77b4;" x="232.297152" xlink:href="#me7cd4bec26" y="27.705154"/>
     <use style="fill:#1f77b4;stroke:#1f77b4;" x="233.079452" xlink:href="#me7cd4bec26" y="57.067023"/>
     <use style="fill:#1f77b4;stroke:#1f77b4;" x="233.861752" xlink:href="#me7cd4bec26" y="69.710101"/>
     <use style="fill:#1f77b4;stroke:#1f77b4;" x="234.644053" xlink:href="#me7cd4bec26" y="61.971248"/>
     <use style="fill:#1f77b4;stroke:#1f77b4;" x="235.426353" xlink:href="#me7cd4bec26" y="28.819769"/>
     <use style="fill:#1f77b4;stroke:#1f77b4;" x="236.208653" xlink:href="#me7cd4bec26" y="61.892359"/>
     <use style="fill:#1f77b4;stroke:#1f77b4;" x="236.990953" xlink:href="#me7cd4bec26" y="67.418507"/>
     <use style="fill:#1f77b4;stroke:#1f77b4;" x="237.773253" xlink:href="#me7cd4bec26" y="31.713652"/>
     <use style="fill:#1f77b4;stroke:#1f77b4;" x="238.555553" xlink:href="#me7cd4bec26" y="70.104734"/>
     <use style="fill:#1f77b4;stroke:#1f77b4;" x="239.337853" xlink:href="#me7cd4bec26" y="34.067916"/>
     <use style="fill:#1f77b4;stroke:#1f77b4;" x="240.120153" xlink:href="#me7cd4bec26" y="111.5731"/>
     <use style="fill:#1f77b4;stroke:#1f77b4;" x="240.902453" xlink:href="#me7cd4bec26" y="53.273374"/>
     <use style="fill:#1f77b4;stroke:#1f77b4;" x="241.684754" xlink:href="#me7cd4bec26" y="24.905233"/>
     <use style="fill:#1f77b4;stroke:#1f77b4;" x="242.467054" xlink:href="#me7cd4bec26" y="27.990828"/>
     <use style="fill:#1f77b4;stroke:#1f77b4;" x="243.249354" xlink:href="#me7cd4bec26" y="71.564068"/>
     <use style="fill:#1f77b4;stroke:#1f77b4;" x="244.031654" xlink:href="#me7cd4bec26" y="44.42051"/>
     <use style="fill:#1f77b4;stroke:#1f77b4;" x="244.813954" xlink:href="#me7cd4bec26" y="46.424354"/>
     <use style="fill:#1f77b4;stroke:#1f77b4;" x="245.596254" xlink:href="#me7cd4bec26" y="53.945269"/>
     <use style="fill:#1f77b4;stroke:#1f77b4;" x="246.378554" xlink:href="#me7cd4bec26" y="46.125303"/>
     <use style="fill:#1f77b4;stroke:#1f77b4;" x="247.160854" xlink:href="#me7cd4bec26" y="88.004996"/>
     <use style="fill:#1f77b4;stroke:#1f77b4;" x="247.943154" xlink:href="#me7cd4bec26" y="77.700262"/>
     <use style="fill:#1f77b4;stroke:#1f77b4;" x="248.725455" xlink:href="#me7cd4bec26" y="55.200993"/>
     <use style="fill:#1f77b4;stroke:#1f77b4;" x="249.507755" xlink:href="#me7cd4bec26" y="87.043587"/>
     <use style="fill:#1f77b4;stroke:#1f77b4;" x="250.290055" xlink:href="#me7cd4bec26" y="58.136039"/>
     <use style="fill:#1f77b4;stroke:#1f77b4;" x="251.072355" xlink:href="#me7cd4bec26" y="54.543552"/>
     <use style="fill:#1f77b4;stroke:#1f77b4;" x="251.854655" xlink:href="#me7cd4bec26" y="25.509602"/>
     <use style="fill:#1f77b4;stroke:#1f77b4;" x="252.636955" xlink:href="#me7cd4bec26" y="26.27531"/>
     <use style="fill:#1f77b4;stroke:#1f77b4;" x="253.419255" xlink:href="#me7cd4bec26" y="21.199729"/>
     <use style="fill:#1f77b4;stroke:#1f77b4;" x="254.201555" xlink:href="#me7cd4bec26" y="47.925017"/>
     <use style="fill:#1f77b4;stroke:#1f77b4;" x="254.983855" xlink:href="#me7cd4bec26" y="86.356882"/>
     <use style="fill:#1f77b4;stroke:#1f77b4;" x="255.766156" xlink:href="#me7cd4bec26" y="26.887907"/>
     <use style="fill:#1f77b4;stroke:#1f77b4;" x="256.548456" xlink:href="#me7cd4bec26" y="58.71593"/>
     <use style="fill:#1f77b4;stroke:#1f77b4;" x="257.330756" xlink:href="#me7cd4bec26" y="26.758386"/>
     <use style="fill:#1f77b4;stroke:#1f77b4;" x="258.113056" xlink:href="#me7cd4bec26" y="58.306174"/>
     <use style="fill:#1f77b4;stroke:#1f77b4;" x="258.895356" xlink:href="#me7cd4bec26" y="73.938544"/>
     <use style="fill:#1f77b4;stroke:#1f77b4;" x="259.677656" xlink:href="#me7cd4bec26" y="36.767899"/>
     <use style="fill:#1f77b4;stroke:#1f77b4;" x="260.459956" xlink:href="#me7cd4bec26" y="37.315441"/>
     <use style="fill:#1f77b4;stroke:#1f77b4;" x="261.242256" xlink:href="#me7cd4bec26" y="43.396825"/>
     <use style="fill:#1f77b4;stroke:#1f77b4;" x="262.024556" xlink:href="#me7cd4bec26" y="60.375388"/>
     <use style="fill:#1f77b4;stroke:#1f77b4;" x="262.806857" xlink:href="#me7cd4bec26" y="32.295111"/>
     <use style="fill:#1f77b4;stroke:#1f77b4;" x="263.589157" xlink:href="#me7cd4bec26" y="57.315104"/>
     <use style="fill:#1f77b4;stroke:#1f77b4;" x="264.371457" xlink:href="#me7cd4bec26" y="27.896829"/>
     <use style="fill:#1f77b4;stroke:#1f77b4;" x="265.153757" xlink:href="#me7cd4bec26" y="53.060042"/>
     <use style="fill:#1f77b4;stroke:#1f77b4;" x="265.936057" xlink:href="#me7cd4bec26" y="62.098503"/>
     <use style="fill:#1f77b4;stroke:#1f77b4;" x="266.718357" xlink:href="#me7cd4bec26" y="74.960315"/>
     <use style="fill:#1f77b4;stroke:#1f77b4;" x="267.500657" xlink:href="#me7cd4bec26" y="43.134905"/>
     <use style="fill:#1f77b4;stroke:#1f77b4;" x="268.282957" xlink:href="#me7cd4bec26" y="50.938266"/>
     <use style="fill:#1f77b4;stroke:#1f77b4;" x="269.065257" xlink:href="#me7cd4bec26" y="19.296"/>
     <use style="fill:#1f77b4;stroke:#1f77b4;" x="269.847558" xlink:href="#me7cd4bec26" y="53.926351"/>
     <use style="fill:#1f77b4;stroke:#1f77b4;" x="270.629858" xlink:href="#me7cd4bec26" y="83.112368"/>
     <use style="fill:#1f77b4;stroke:#1f77b4;" x="271.412158" xlink:href="#me7cd4bec26" y="43.958899"/>
     <use style="fill:#1f77b4;stroke:#1f77b4;" x="272.194458" xlink:href="#me7cd4bec26" y="21.729782"/>
     <use style="fill:#1f77b4;stroke:#1f77b4;" x="272.976758" xlink:href="#me7cd4bec26" y="49.832327"/>
     <use style="fill:#1f77b4;stroke:#1f77b4;" x="273.759058" xlink:href="#me7cd4bec26" y="261.216"/>
     <use style="fill:#1f77b4;stroke:#1f77b4;" x="274.541358" xlink:href="#me7cd4bec26" y="87.752857"/>
     <use style="fill:#1f77b4;stroke:#1f77b4;" x="275.323658" xlink:href="#me7cd4bec26" y="48.521463"/>
     <use style="fill:#1f77b4;stroke:#1f77b4;" x="276.105958" xlink:href="#me7cd4bec26" y="49.906106"/>
     <use style="fill:#1f77b4;stroke:#1f77b4;" x="276.888258" xlink:href="#me7cd4bec26" y="116.258653"/>
     <use style="fill:#1f77b4;stroke:#1f77b4;" x="277.670559" xlink:href="#me7cd4bec26" y="83.562169"/>
     <use style="fill:#1f77b4;stroke:#1f77b4;" x="278.452859" xlink:href="#me7cd4bec26" y="25.630828"/>
     <use style="fill:#1f77b4;stroke:#1f77b4;" x="279.235159" xlink:href="#me7cd4bec26" y="47.378256"/>
     <use style="fill:#1f77b4;stroke:#1f77b4;" x="280.017459" xlink:href="#me7cd4bec26" y="99.443391"/>
     <use style="fill:#1f77b4;stroke:#1f77b4;" x="280.799759" xlink:href="#me7cd4bec26" y="73.545877"/>
     <use style="fill:#1f77b4;stroke:#1f77b4;" x="281.582059" xlink:href="#me7cd4bec26" y="37.737279"/>
     <use style="fill:#1f77b4;stroke:#1f77b4;" x="282.364359" xlink:href="#me7cd4bec26" y="53.844239"/>
     <use style="fill:#1f77b4;stroke:#1f77b4;" x="283.146659" xlink:href="#me7cd4bec26" y="80.73086"/>
     <use style="fill:#1f77b4;stroke:#1f77b4;" x="283.928959" xlink:href="#me7cd4bec26" y="41.079677"/>
     <use style="fill:#1f77b4;stroke:#1f77b4;" x="284.71126" xlink:href="#me7cd4bec26" y="26.495609"/>
     <use style="fill:#1f77b4;stroke:#1f77b4;" x="285.49356" xlink:href="#me7cd4bec26" y="46.530299"/>
     <use style="fill:#1f77b4;stroke:#1f77b4;" x="286.27586" xlink:href="#me7cd4bec26" y="80.379838"/>
     <use style="fill:#1f77b4;stroke:#1f77b4;" x="287.05816" xlink:href="#me7cd4bec26" y="62.111206"/>
     <use style="fill:#1f77b4;stroke:#1f77b4;" x="287.84046" xlink:href="#me7cd4bec26" y="29.387906"/>
     <use style="fill:#1f77b4;stroke:#1f77b4;" x="288.62276" xlink:href="#me7cd4bec26" y="65.544341"/>
     <use style="fill:#1f77b4;stroke:#1f77b4;" x="289.40506" xlink:href="#me7cd4bec26" y="30.299898"/>
     <use style="fill:#1f77b4;stroke:#1f77b4;" x="290.18736" xlink:href="#me7cd4bec26" y="64.269319"/>
     <use style="fill:#1f77b4;stroke:#1f77b4;" x="290.96966" xlink:href="#me7cd4bec26" y="63.410879"/>
     <use style="fill:#1f77b4;stroke:#1f77b4;" x="291.751961" xlink:href="#me7cd4bec26" y="29.621138"/>
     <use style="fill:#1f77b4;stroke:#1f77b4;" x="292.534261" xlink:href="#me7cd4bec26" y="63.029223"/>
     <use style="fill:#1f77b4;stroke:#1f77b4;" x="293.316561" xlink:href="#me7cd4bec26" y="66.182194"/>
     <use style="fill:#1f77b4;stroke:#1f77b4;" x="294.098861" xlink:href="#me7cd4bec26" y="31.018923"/>
     <use style="fill:#1f77b4;stroke:#1f77b4;" x="294.881161" xlink:href="#me7cd4bec26" y="67.149843"/>
     <use style="fill:#1f77b4;stroke:#1f77b4;" x="295.663461" xlink:href="#me7cd4bec26" y="33.021498"/>
     <use style="fill:#1f77b4;stroke:#1f77b4;" x="296.445761" xlink:href="#me7cd4bec26" y="91.603395"/>
     <use style="fill:#1f77b4;stroke:#1f77b4;" x="297.228061" xlink:href="#me7cd4bec26" y="54.22748"/>
     <use style="fill:#1f77b4;stroke:#1f77b4;" x="298.010361" xlink:href="#me7cd4bec26" y="45.652375"/>
     <use style="fill:#1f77b4;stroke:#1f77b4;" x="298.792662" xlink:href="#me7cd4bec26" y="81.56132"/>
     <use style="fill:#1f77b4;stroke:#1f77b4;" x="299.574962" xlink:href="#me7cd4bec26" y="68.192359"/>
     <use style="fill:#1f77b4;stroke:#1f77b4;" x="300.357262" xlink:href="#me7cd4bec26" y="34.580943"/>
     <use style="fill:#1f77b4;stroke:#1f77b4;" x="301.139562" xlink:href="#me7cd4bec26" y="46.879442"/>
     <use style="fill:#1f77b4;stroke:#1f77b4;" x="301.921862" xlink:href="#me7cd4bec26" y="99.758601"/>
     <use style="fill:#1f77b4;stroke:#1f77b4;" x="302.704162" xlink:href="#me7cd4bec26" y="77.579028"/>
     <use style="fill:#1f77b4;stroke:#1f77b4;" x="303.486462" xlink:href="#me7cd4bec26" y="46.733032"/>
     <use style="fill:#1f77b4;stroke:#1f77b4;" x="304.268762" xlink:href="#me7cd4bec26" y="51.300783"/>
     <use style="fill:#1f77b4;stroke:#1f77b4;" x="305.051062" xlink:href="#me7cd4bec26" y="20.366113"/>
     <use style="fill:#1f77b4;stroke:#1f77b4;" x="305.833363" xlink:href="#me7cd4bec26" y="54.116403"/>
     <use style="fill:#1f77b4;stroke:#1f77b4;" x="306.615663" xlink:href="#me7cd4bec26" y="83.424605"/>
     <use style="fill:#1f77b4;stroke:#1f77b4;" x="307.397963" xlink:href="#me7cd4bec26" y="45.064168"/>
     <use style="fill:#1f77b4;stroke:#1f77b4;" x="308.180263" xlink:href="#me7cd4bec26" y="59.301739"/>
     <use style="fill:#1f77b4;stroke:#1f77b4;" x="308.962563" xlink:href="#me7cd4bec26" y="70.440946"/>
     <use style="fill:#1f77b4;stroke:#1f77b4;" x="309.744863" xlink:href="#me7cd4bec26" y="33.86464"/>
     <use style="fill:#1f77b4;stroke:#1f77b4;" x="310.527163" xlink:href="#me7cd4bec26" y="134.493259"/>
     <use style="fill:#1f77b4;stroke:#1f77b4;" x="311.309463" xlink:href="#me7cd4bec26" y="74.560186"/>
     <use style="fill:#1f77b4;stroke:#1f77b4;" x="312.091763" xlink:href="#me7cd4bec26" y="39.454734"/>
     <use style="fill:#1f77b4;stroke:#1f77b4;" x="312.874064" xlink:href="#me7cd4bec26" y="54.758684"/>
     <use style="fill:#1f77b4;stroke:#1f77b4;" x="313.656364" xlink:href="#me7cd4bec26" y="76.722039"/>
     <use style="fill:#1f77b4;stroke:#1f77b4;" x="314.438664" xlink:href="#me7cd4bec26" y="37.574949"/>
     <use style="fill:#1f77b4;stroke:#1f77b4;" x="315.220964" xlink:href="#me7cd4bec26" y="36.27575"/>
     <use style="fill:#1f77b4;stroke:#1f77b4;" x="316.003264" xlink:href="#me7cd4bec26" y="46.805499"/>
     <use style="fill:#1f77b4;stroke:#1f77b4;" x="316.785564" xlink:href="#me7cd4bec26" y="57.628616"/>
     <use style="fill:#1f77b4;stroke:#1f77b4;" x="317.567864" xlink:href="#me7cd4bec26" y="45.942524"/>
     <use style="fill:#1f77b4;stroke:#1f77b4;" x="318.350164" xlink:href="#me7cd4bec26" y="66.331161"/>
     <use style="fill:#1f77b4;stroke:#1f77b4;" x="319.132464" xlink:href="#me7cd4bec26" y="33.756056"/>
     <use style="fill:#1f77b4;stroke:#1f77b4;" x="319.914765" xlink:href="#me7cd4bec26" y="96.187026"/>
     <use style="fill:#1f77b4;stroke:#1f77b4;" x="320.697065" xlink:href="#me7cd4bec26" y="103.050161"/>
     <use style="fill:#1f77b4;stroke:#1f77b4;" x="321.479365" xlink:href="#me7cd4bec26" y="58.46816"/>
     <use style="fill:#1f77b4;stroke:#1f77b4;" x="322.261665" xlink:href="#me7cd4bec26" y="46.078955"/>
     <use style="fill:#1f77b4;stroke:#1f77b4;" x="323.043965" xlink:href="#me7cd4bec26" y="82.313132"/>
     <use style="fill:#1f77b4;stroke:#1f77b4;" x="323.826265" xlink:href="#me7cd4bec26" y="66.335451"/>
     <use style="fill:#1f77b4;stroke:#1f77b4;" x="324.608565" xlink:href="#me7cd4bec26" y="31.855421"/>
     <use style="fill:#1f77b4;stroke:#1f77b4;" x="325.390865" xlink:href="#me7cd4bec26" y="50.641025"/>
     <use style="fill:#1f77b4;stroke:#1f77b4;" x="326.173165" xlink:href="#me7cd4bec26" y="111.517904"/>
     <use style="fill:#1f77b4;stroke:#1f77b4;" x="326.955465" xlink:href="#me7cd4bec26" y="90.58105"/>
     <use style="fill:#1f77b4;stroke:#1f77b4;" x="327.737766" xlink:href="#me7cd4bec26" y="63.375191"/>
     <use style="fill:#1f77b4;stroke:#1f77b4;" x="328.520066" xlink:href="#me7cd4bec26" y="65.288428"/>
     <use style="fill:#1f77b4;stroke:#1f77b4;" x="329.302366" xlink:href="#me7cd4bec26" y="30.473072"/>
     <use style="fill:#1f77b4;stroke:#1f77b4;" x="330.084666" xlink:href="#me7cd4bec26" y="64.981049"/>
     <use style="fill:#1f77b4;stroke:#1f77b4;" x="330.866966" xlink:href="#me7cd4bec26" y="63.763581"/>
     <use style="fill:#1f77b4;stroke:#1f77b4;" x="331.649266" xlink:href="#me7cd4bec26" y="29.671861"/>
     <use style="fill:#1f77b4;stroke:#1f77b4;" x="332.431566" xlink:href="#me7cd4bec26" y="63.139461"/>
     <use style="fill:#1f77b4;stroke:#1f77b4;" x="333.213866" xlink:href="#me7cd4bec26" y="65.647812"/>
     <use style="fill:#1f77b4;stroke:#1f77b4;" x="333.996166" xlink:href="#me7cd4bec26" y="30.666273"/>
     <use style="fill:#1f77b4;stroke:#1f77b4;" x="334.778467" xlink:href="#me7cd4bec26" y="65.600461"/>
     <use style="fill:#1f77b4;stroke:#1f77b4;" x="335.560767" xlink:href="#me7cd4bec26" y="63.166097"/>
     <use style="fill:#1f77b4;stroke:#1f77b4;" x="336.343067" xlink:href="#me7cd4bec26" y="29.381019"/>
     <use style="fill:#1f77b4;stroke:#1f77b4;" x="337.125367" xlink:href="#me7cd4bec26" y="62.589235"/>
     <use style="fill:#1f77b4;stroke:#1f77b4;" x="337.907667" xlink:href="#me7cd4bec26" y="66.346231"/>
     <use style="fill:#1f77b4;stroke:#1f77b4;" x="338.689967" xlink:href="#me7cd4bec26" y="31.066549"/>
     <use style="fill:#1f77b4;stroke:#1f77b4;" x="339.472267" xlink:href="#me7cd4bec26" y="66.996405"/>
     <use style="fill:#1f77b4;stroke:#1f77b4;" x="340.254567" xlink:href="#me7cd4bec26" y="62.071253"/>
     <use style="fill:#1f77b4;stroke:#1f77b4;" x="341.036867" xlink:href="#me7cd4bec26" y="28.84395"/>
     <use style="fill:#1f77b4;stroke:#1f77b4;" x="341.819168" xlink:href="#me7cd4bec26" y="61.720594"/>
     <use style="fill:#1f77b4;stroke:#1f77b4;" x="342.601468" xlink:href="#me7cd4bec26" y="67.487411"/>
     <use style="fill:#1f77b4;stroke:#1f77b4;" x="343.383768" xlink:href="#me7cd4bec26" y="31.748608"/>
     <use style="fill:#1f77b4;stroke:#1f77b4;" x="344.166068" xlink:href="#me7cd4bec26" y="70.197378"/>
     <use style="fill:#1f77b4;stroke:#1f77b4;" x="344.948368" xlink:href="#me7cd4bec26" y="34.182122"/>
     <use style="fill:#1f77b4;stroke:#1f77b4;" x="345.730668" xlink:href="#me7cd4bec26" y="135.018018"/>
     <use style="fill:#1f77b4;stroke:#1f77b4;" x="346.512968" xlink:href="#me7cd4bec26" y="52.565185"/>
     <use style="fill:#1f77b4;stroke:#1f77b4;" x="347.295268" xlink:href="#me7cd4bec26" y="24.695882"/>
     <use style="fill:#1f77b4;stroke:#1f77b4;" x="348.077568" xlink:href="#me7cd4bec26" y="27.349492"/>
     <use style="fill:#1f77b4;stroke:#1f77b4;" x="348.859869" xlink:href="#me7cd4bec26" y="21.23987"/>
     <use style="fill:#1f77b4;stroke:#1f77b4;" x="349.642169" xlink:href="#me7cd4bec26" y="59.986381"/>
     <use style="fill:#1f77b4;stroke:#1f77b4;" x="350.424469" xlink:href="#me7cd4bec26" y="43.379123"/>
     <use style="fill:#1f77b4;stroke:#1f77b4;" x="351.206769" xlink:href="#me7cd4bec26" y="68.624192"/>
     <use style="fill:#1f77b4;stroke:#1f77b4;" x="351.989069" xlink:href="#me7cd4bec26" y="67.171212"/>
     <use style="fill:#1f77b4;stroke:#1f77b4;" x="352.771369" xlink:href="#me7cd4bec26" y="57.563042"/>
     <use style="fill:#1f77b4;stroke:#1f77b4;" x="353.553669" xlink:href="#me7cd4bec26" y="79.128524"/>
     <use style="fill:#1f77b4;stroke:#1f77b4;" x="354.335969" xlink:href="#me7cd4bec26" y="44.229993"/>
     <use style="fill:#1f77b4;stroke:#1f77b4;" x="355.118269" xlink:href="#me7cd4bec26" y="76.883374"/>
     <use style="fill:#1f77b4;stroke:#1f77b4;" x="355.90057" xlink:href="#me7cd4bec26" y="47.512716"/>
     <use style="fill:#1f77b4;stroke:#1f77b4;" x="356.68287" xlink:href="#me7cd4bec26" y="90.660715"/>
     <use style="fill:#1f77b4;stroke:#1f77b4;" x="357.46517" xlink:href="#me7cd4bec26" y="68.482304"/>
     <use style="fill:#1f77b4;stroke:#1f77b4;" x="358.24747" xlink:href="#me7cd4bec26" y="32.72493"/>
     <use style="fill:#1f77b4;stroke:#1f77b4;" x="359.02977" xlink:href="#me7cd4bec26" y="83.680272"/>
     <use style="fill:#1f77b4;stroke:#1f77b4;" x="359.81207" xlink:href="#me7cd4bec26" y="52.138933"/>
     <use style="fill:#1f77b4;stroke:#1f77b4;" x="360.59437" xlink:href="#me7cd4bec26" y="72.997146"/>
     <use style="fill:#1f77b4;stroke:#1f77b4;" x="361.37667" xlink:href="#me7cd4bec26" y="35.924303"/>
     <use style="fill:#1f77b4;stroke:#1f77b4;" x="362.15897" xlink:href="#me7cd4bec26" y="60.457502"/>
     <use style="fill:#1f77b4;stroke:#1f77b4;" x="362.941271" xlink:href="#me7cd4bec26" y="75.951948"/>
     <use style="fill:#1f77b4;stroke:#1f77b4;" x="363.723571" xlink:href="#me7cd4bec26" y="87.284837"/>
     <use style="fill:#1f77b4;stroke:#1f77b4;" x="364.505871" xlink:href="#me7cd4bec26" y="50.403681"/>
     <use style="fill:#1f77b4;stroke:#1f77b4;" x="365.288171" xlink:href="#me7cd4bec26" y="88.246046"/>
     <use style="fill:#1f77b4;stroke:#1f77b4;" x="366.070471" xlink:href="#me7cd4bec26" y="45.743637"/>
     <use style="fill:#1f77b4;stroke:#1f77b4;" x="366.852771" xlink:href="#me7cd4bec26" y="20.159293"/>
     <use style="fill:#1f77b4;stroke:#1f77b4;" x="367.635071" xlink:href="#me7cd4bec26" y="45.459795"/>
     <use style="fill:#1f77b4;stroke:#1f77b4;" x="368.417371" xlink:href="#me7cd4bec26" y="75.059608"/>
     <use style="fill:#1f77b4;stroke:#1f77b4;" x="369.199671" xlink:href="#me7cd4bec26" y="61.300582"/>
     <use style="fill:#1f77b4;stroke:#1f77b4;" x="369.981972" xlink:href="#me7cd4bec26" y="28.382194"/>
     <use style="fill:#1f77b4;stroke:#1f77b4;" x="370.764272" xlink:href="#me7cd4bec26" y="60.726476"/>
     <use style="fill:#1f77b4;stroke:#1f77b4;" x="371.546572" xlink:href="#me7cd4bec26" y="68.298913"/>
     <use style="fill:#1f77b4;stroke:#1f77b4;" x="372.328872" xlink:href="#me7cd4bec26" y="32.185056"/>
     <use style="fill:#1f77b4;stroke:#1f77b4;" x="373.111172" xlink:href="#me7cd4bec26" y="72.324456"/>
     <use style="fill:#1f77b4;stroke:#1f77b4;" x="373.893472" xlink:href="#me7cd4bec26" y="35.734615"/>
     <use style="fill:#1f77b4;stroke:#1f77b4;" x="374.675772" xlink:href="#me7cd4bec26" y="52.825864"/>
     <use style="fill:#1f77b4;stroke:#1f77b4;" x="375.458072" xlink:href="#me7cd4bec26" y="68.586842"/>
     <use style="fill:#1f77b4;stroke:#1f77b4;" x="376.240372" xlink:href="#me7cd4bec26" y="50.358645"/>
     <use style="fill:#1f77b4;stroke:#1f77b4;" x="377.022673" xlink:href="#me7cd4bec26" y="46.662054"/>
     <use style="fill:#1f77b4;stroke:#1f77b4;" x="377.312007" xlink:href="#me7cd4bec26" y="22383.514"/>
    </g>
   </g>
   <g id="line2d_44">
    <path clip-path="url(#p5e8652c836)" d="M 147.80874 75.392136 
L 149.373341 56.751892 
L 150.937941 37.267143 
" style="fill:none;stroke:#2ca02c;stroke-dasharray:1.5,2.475;stroke-dashoffset:0;stroke-width:1.5;"/>
    <defs>
     <path d="M -3 3 
L 3 -3 
M -3 -3 
L 3 3 
" id="m95cbd7e90b" style="stroke:#2ca02c;"/>
    </defs>
    <g clip-path="url(#p5e8652c836)">
     <use style="fill:#2ca02c;stroke:#2ca02c;" x="147.80874" xlink:href="#m95cbd7e90b" y="75.392136"/>
     <use style="fill:#2ca02c;stroke:#2ca02c;" x="149.373341" xlink:href="#m95cbd7e90b" y="56.751892"/>
     <use style="fill:#2ca02c;stroke:#2ca02c;" x="150.937941" xlink:href="#m95cbd7e90b" y="37.267143"/>
    </g>
   </g>
   <g id="line2d_45">
    <path clip-path="url(#p5e8652c836)" d="M 54.715027 146.741951 
L 66.841303 -1 
L 66.841303 -1 
" style="fill:none;stroke:#000000;stroke-dasharray:5.55,2.4;stroke-dashoffset:0;stroke-width:1.5;"/>
   </g>
   <g id="patch_3">
    <path d="M 37.7 273.312 
L 37.7 7.2 
" style="fill:none;stroke:#000000;stroke-linecap:square;stroke-linejoin:miter;stroke-width:0.8;"/>
   </g>
   <g id="patch_4">
    <path d="M 394.82 273.312 
L 394.82 7.2 
" style="fill:none;stroke:#000000;stroke-linecap:square;stroke-linejoin:miter;stroke-width:0.8;"/>
   </g>
   <g id="patch_5">
    <path d="M 37.7 273.312 
L 394.82 273.312 
" style="fill:none;stroke:#000000;stroke-linecap:square;stroke-linejoin:miter;stroke-width:0.8;"/>
   </g>
   <g id="patch_6">
    <path d="M 37.7 7.2 
L 394.82 7.2 
" style="fill:none;stroke:#000000;stroke-linecap:square;stroke-linejoin:miter;stroke-width:0.8;"/>
   </g>
   <g id="legend_1">
    <g id="patch_7">
     <path d="M 44.7 268.312 
L 139.785937 268.312 
Q 141.785937 268.312 141.785937 266.312 
L 141.785937 223.25575 
Q 141.785937 221.25575 139.785937 221.25575 
L 44.7 221.25575 
Q 42.7 221.25575 42.7 223.25575 
L 42.7 266.312 
Q 42.7 268.312 44.7 268.312 
z
" style="fill:#ffffff;opacity:0.8;"/>
    </g>
    <g id="line2d_46">
     <path d="M 46.7 229.354187 
L 66.7 229.354187 
" style="fill:none;stroke:#1f77b4;stroke-linecap:square;stroke-width:1.5;"/>
    </g>
    <g id="line2d_47">
     <g>
      <use style="fill:#1f77b4;stroke:#1f77b4;" x="56.7" xlink:href="#me7cd4bec26" y="229.354187"/>
     </g>
    </g>
    <g id="text_11">
     <!-- APD$_n$ - APD$_\infty$ -->
     <defs>
      <path d="M 34.1875 63.1875 
L 20.796875 26.90625 
L 47.609375 26.90625 
z
M 28.609375 72.90625 
L 39.796875 72.90625 
L 67.578125 0 
L 57.328125 0 
L 50.6875 18.703125 
L 17.828125 18.703125 
L 11.1875 0 
L 0.78125 0 
z
" id="DejaVuSans-65"/>
      <path d="M 19.671875 64.796875 
L 19.671875 37.40625 
L 32.078125 37.40625 
Q 38.96875 37.40625 42.71875 40.96875 
Q 46.484375 44.53125 46.484375 51.125 
Q 46.484375 57.671875 42.71875 61.234375 
Q 38.96875 64.796875 32.078125 64.796875 
z
M 9.8125 72.90625 
L 32.078125 72.90625 
Q 44.34375 72.90625 50.609375 67.359375 
Q 56.890625 61.8125 56.890625 51.125 
Q 56.890625 40.328125 50.609375 34.8125 
Q 44.34375 29.296875 32.078125 29.296875 
L 19.671875 29.296875 
L 19.671875 0 
L 9.8125 0 
z
" id="DejaVuSans-80"/>
      <path d="M 19.671875 64.796875 
L 19.671875 8.109375 
L 31.59375 8.109375 
Q 46.6875 8.109375 53.6875 14.9375 
Q 60.6875 21.78125 60.6875 36.53125 
Q 60.6875 51.171875 53.6875 57.984375 
Q 46.6875 64.796875 31.59375 64.796875 
z
M 9.8125 72.90625 
L 30.078125 72.90625 
Q 51.265625 72.90625 61.171875 64.09375 
Q 71.09375 55.28125 71.09375 36.53125 
Q 71.09375 17.671875 61.125 8.828125 
Q 51.171875 0 30.078125 0 
L 9.8125 0 
z
" id="DejaVuSans-68"/>
      <path d="M 55.71875 33.015625 
L 49.3125 0 
L 40.28125 0 
L 46.6875 32.671875 
Q 47.125 34.96875 47.359375 36.71875 
Q 47.609375 38.484375 47.609375 39.5 
Q 47.609375 43.609375 45.015625 45.890625 
Q 42.4375 48.1875 37.796875 48.1875 
Q 30.5625 48.1875 25.34375 43.375 
Q 20.125 38.578125 18.5 30.328125 
L 12.5 0 
L 3.515625 0 
L 14.109375 54.6875 
L 23.09375 54.6875 
L 21.296875 46.09375 
Q 25.046875 50.828125 30.3125 53.40625 
Q 35.59375 56 41.40625 56 
Q 48.640625 56 52.609375 52.09375 
Q 56.59375 48.1875 56.59375 41.109375 
Q 56.59375 39.359375 56.375 37.359375 
Q 56.15625 35.359375 55.71875 33.015625 
z
" id="DejaVuSans-Oblique-110"/>
      <path id="DejaVuSans-32"/>
      <path d="M 4.890625 31.390625 
L 31.203125 31.390625 
L 31.203125 23.390625 
L 4.890625 23.390625 
z
" id="DejaVuSans-45"/>
      <path d="M 45.5625 17.046875 
Q 44.046875 18.796875 41.65625 22.90625 
Q 38.375 17.046875 35.5 14.453125 
Q 31.890625 11.328125 26.265625 11.328125 
Q 19.671875 11.328125 15.328125 16.265625 
Q 10.75 21.4375 10.75 29.984375 
Q 10.75 38.1875 15.328125 43.75 
Q 19.4375 48.6875 26.375 48.6875 
Q 29.9375 48.6875 32.5625 47.21875 
Q 35.640625 45.609375 37.75 42.828125 
Q 39.703125 40.328125 41.65625 36.96875 
Q 44.921875 42.828125 47.796875 45.40625 
Q 51.421875 48.53125 57.03125 48.53125 
Q 63.625 48.53125 67.96875 43.609375 
Q 72.5625 38.421875 72.5625 29.890625 
Q 72.5625 21.6875 67.96875 16.109375 
Q 63.875 11.1875 56.9375 11.1875 
Q 53.375 11.1875 50.734375 12.640625 
Q 48.09375 13.96875 45.5625 17.046875 
z
M 25.734375 17.71875 
Q 33.796875 17.71875 38.625 29.4375 
Q 32.421875 42.234375 25.734375 42.234375 
Q 20.84375 42.234375 18.359375 38.71875 
Q 15.671875 34.96875 15.671875 29.984375 
Q 15.671875 24.515625 18.359375 21.140625 
Q 21.09375 17.71875 25.734375 17.71875 
z
M 57.5625 42.140625 
Q 50.296875 42.140625 44.671875 30.421875 
Q 50.828125 17.625 57.5625 17.625 
Q 62.453125 17.625 64.9375 21.140625 
Q 67.625 24.90625 67.625 29.890625 
Q 67.625 35.359375 64.9375 38.71875 
Q 62.203125 42.140625 57.5625 42.140625 
z
" id="DejaVuSans-8734"/>
     </defs>
     <g transform="translate(74.7 232.854187)scale(0.1 -0.1)">
      <use transform="translate(0 0.09375)" xlink:href="#DejaVuSans-65"/>
      <use transform="translate(68.408203 0.09375)" xlink:href="#DejaVuSans-80"/>
      <use transform="translate(128.710938 0.09375)" xlink:href="#DejaVuSans-68"/>
      <use transform="translate(206.669922 -16.3125)scale(0.7)" xlink:href="#DejaVuSans-Oblique-110"/>
      <use transform="translate(253.769531 0.09375)" xlink:href="#DejaVuSans-32"/>
      <use transform="translate(285.556641 0.09375)" xlink:href="#DejaVuSans-45"/>
      <use transform="translate(321.640625 0.09375)" xlink:href="#DejaVuSans-32"/>
      <use transform="translate(353.427734 0.09375)" xlink:href="#DejaVuSans-65"/>
      <use transform="translate(421.835938 0.09375)" xlink:href="#DejaVuSans-80"/>
      <use transform="translate(482.138672 0.09375)" xlink:href="#DejaVuSans-68"/>
      <use transform="translate(560.097656 -16.3125)scale(0.7)" xlink:href="#DejaVuSans-8734"/>
     </g>
    </g>
    <g id="line2d_48">
     <path d="M 46.7 244.032312 
L 66.7 244.032312 
" style="fill:none;stroke:#2ca02c;stroke-dasharray:1.5,2.475;stroke-dashoffset:0;stroke-width:1.5;"/>
    </g>
    <g id="line2d_49">
     <g>
      <use style="fill:#2ca02c;stroke:#2ca02c;" x="56.7" xlink:href="#m95cbd7e90b" y="244.032312"/>
     </g>
    </g>
    <g id="text_12">
     <!-- linear region -->
     <defs>
      <path d="M 9.421875 75.984375 
L 18.40625 75.984375 
L 18.40625 0 
L 9.421875 0 
z
" id="DejaVuSans-108"/>
      <path d="M 9.421875 54.6875 
L 18.40625 54.6875 
L 18.40625 0 
L 9.421875 0 
z
M 9.421875 75.984375 
L 18.40625 75.984375 
L 18.40625 64.59375 
L 9.421875 64.59375 
z
" id="DejaVuSans-105"/>
      <path d="M 54.890625 33.015625 
L 54.890625 0 
L 45.90625 0 
L 45.90625 32.71875 
Q 45.90625 40.484375 42.875 44.328125 
Q 39.84375 48.1875 33.796875 48.1875 
Q 26.515625 48.1875 22.3125 43.546875 
Q 18.109375 38.921875 18.109375 30.90625 
L 18.109375 0 
L 9.078125 0 
L 9.078125 54.6875 
L 18.109375 54.6875 
L 18.109375 46.1875 
Q 21.34375 51.125 25.703125 53.5625 
Q 30.078125 56 35.796875 56 
Q 45.21875 56 50.046875 50.171875 
Q 54.890625 44.34375 54.890625 33.015625 
z
" id="DejaVuSans-110"/>
      <path d="M 56.203125 29.59375 
L 56.203125 25.203125 
L 14.890625 25.203125 
Q 15.484375 15.921875 20.484375 11.0625 
Q 25.484375 6.203125 34.421875 6.203125 
Q 39.59375 6.203125 44.453125 7.46875 
Q 49.3125 8.734375 54.109375 11.28125 
L 54.109375 2.78125 
Q 49.265625 0.734375 44.1875 -0.34375 
Q 39.109375 -1.421875 33.890625 -1.421875 
Q 20.796875 -1.421875 13.15625 6.1875 
Q 5.515625 13.8125 5.515625 26.8125 
Q 5.515625 40.234375 12.765625 48.109375 
Q 20.015625 56 32.328125 56 
Q 43.359375 56 49.78125 48.890625 
Q 56.203125 41.796875 56.203125 29.59375 
z
M 47.21875 32.234375 
Q 47.125 39.59375 43.09375 43.984375 
Q 39.0625 48.390625 32.421875 48.390625 
Q 24.90625 48.390625 20.390625 44.140625 
Q 15.875 39.890625 15.1875 32.171875 
z
" id="DejaVuSans-101"/>
      <path d="M 34.28125 27.484375 
Q 23.390625 27.484375 19.1875 25 
Q 14.984375 22.515625 14.984375 16.5 
Q 14.984375 11.71875 18.140625 8.90625 
Q 21.296875 6.109375 26.703125 6.109375 
Q 34.1875 6.109375 38.703125 11.40625 
Q 43.21875 16.703125 43.21875 25.484375 
L 43.21875 27.484375 
z
M 52.203125 31.203125 
L 52.203125 0 
L 43.21875 0 
L 43.21875 8.296875 
Q 40.140625 3.328125 35.546875 0.953125 
Q 30.953125 -1.421875 24.3125 -1.421875 
Q 15.921875 -1.421875 10.953125 3.296875 
Q 6 8.015625 6 15.921875 
Q 6 25.140625 12.171875 29.828125 
Q 18.359375 34.515625 30.609375 34.515625 
L 43.21875 34.515625 
L 43.21875 35.40625 
Q 43.21875 41.609375 39.140625 45 
Q 35.0625 48.390625 27.6875 48.390625 
Q 23 48.390625 18.546875 47.265625 
Q 14.109375 46.140625 10.015625 43.890625 
L 10.015625 52.203125 
Q 14.9375 54.109375 19.578125 55.046875 
Q 24.21875 56 28.609375 56 
Q 40.484375 56 46.34375 49.84375 
Q 52.203125 43.703125 52.203125 31.203125 
z
" id="DejaVuSans-97"/>
      <path d="M 41.109375 46.296875 
Q 39.59375 47.171875 37.8125 47.578125 
Q 36.03125 48 33.890625 48 
Q 26.265625 48 22.1875 43.046875 
Q 18.109375 38.09375 18.109375 28.8125 
L 18.109375 0 
L 9.078125 0 
L 9.078125 54.6875 
L 18.109375 54.6875 
L 18.109375 46.1875 
Q 20.953125 51.171875 25.484375 53.578125 
Q 30.03125 56 36.53125 56 
Q 37.453125 56 38.578125 55.875 
Q 39.703125 55.765625 41.0625 55.515625 
z
" id="DejaVuSans-114"/>
      <path d="M 45.40625 27.984375 
Q 45.40625 37.75 41.375 43.109375 
Q 37.359375 48.484375 30.078125 48.484375 
Q 22.859375 48.484375 18.828125 43.109375 
Q 14.796875 37.75 14.796875 27.984375 
Q 14.796875 18.265625 18.828125 12.890625 
Q 22.859375 7.515625 30.078125 7.515625 
Q 37.359375 7.515625 41.375 12.890625 
Q 45.40625 18.265625 45.40625 27.984375 
z
M 54.390625 6.78125 
Q 54.390625 -7.171875 48.1875 -13.984375 
Q 42 -20.796875 29.203125 -20.796875 
Q 24.46875 -20.796875 20.265625 -20.09375 
Q 16.0625 -19.390625 12.109375 -17.921875 
L 12.109375 -9.1875 
Q 16.0625 -11.328125 19.921875 -12.34375 
Q 23.78125 -13.375 27.78125 -13.375 
Q 36.625 -13.375 41.015625 -8.765625 
Q 45.40625 -4.15625 45.40625 5.171875 
L 45.40625 9.625 
Q 42.625 4.78125 38.28125 2.390625 
Q 33.9375 0 27.875 0 
Q 17.828125 0 11.671875 7.65625 
Q 5.515625 15.328125 5.515625 27.984375 
Q 5.515625 40.671875 11.671875 48.328125 
Q 17.828125 56 27.875 56 
Q 33.9375 56 38.28125 53.609375 
Q 42.625 51.21875 45.40625 46.390625 
L 45.40625 54.6875 
L 54.390625 54.6875 
z
" id="DejaVuSans-103"/>
      <path d="M 30.609375 48.390625 
Q 23.390625 48.390625 19.1875 42.75 
Q 14.984375 37.109375 14.984375 27.296875 
Q 14.984375 17.484375 19.15625 11.84375 
Q 23.34375 6.203125 30.609375 6.203125 
Q 37.796875 6.203125 41.984375 11.859375 
Q 46.1875 17.53125 46.1875 27.296875 
Q 46.1875 37.015625 41.984375 42.703125 
Q 37.796875 48.390625 30.609375 48.390625 
z
M 30.609375 56 
Q 42.328125 56 49.015625 48.375 
Q 55.71875 40.765625 55.71875 27.296875 
Q 55.71875 13.875 49.015625 6.21875 
Q 42.328125 -1.421875 30.609375 -1.421875 
Q 18.84375 -1.421875 12.171875 6.21875 
Q 5.515625 13.875 5.515625 27.296875 
Q 5.515625 40.765625 12.171875 48.375 
Q 18.84375 56 30.609375 56 
z
" id="DejaVuSans-111"/>
     </defs>
     <g transform="translate(74.7 247.532312)scale(0.1 -0.1)">
      <use xlink:href="#DejaVuSans-108"/>
      <use x="27.783203" xlink:href="#DejaVuSans-105"/>
      <use x="55.566406" xlink:href="#DejaVuSans-110"/>
      <use x="118.945312" xlink:href="#DejaVuSans-101"/>
      <use x="180.46875" xlink:href="#DejaVuSans-97"/>
      <use x="241.748047" xlink:href="#DejaVuSans-114"/>
      <use x="282.861328" xlink:href="#DejaVuSans-32"/>
      <use x="314.648438" xlink:href="#DejaVuSans-114"/>
      <use x="353.511719" xlink:href="#DejaVuSans-101"/>
      <use x="415.035156" xlink:href="#DejaVuSans-103"/>
      <use x="478.511719" xlink:href="#DejaVuSans-105"/>
      <use x="506.294922" xlink:href="#DejaVuSans-111"/>
      <use x="567.476562" xlink:href="#DejaVuSans-110"/>
     </g>
    </g>
    <g id="line2d_50">
     <path d="M 46.7 258.712 
L 66.7 258.712 
" style="fill:none;stroke:#000000;stroke-dasharray:5.55,2.4;stroke-dashoffset:0;stroke-width:1.5;"/>
    </g>
    <g id="line2d_51"/>
    <g id="text_13">
     <!-- $ \exp(0.364 k)$ -->
     <defs>
      <path d="M 54.890625 54.6875 
L 35.109375 28.078125 
L 55.90625 0 
L 45.3125 0 
L 29.390625 21.484375 
L 13.484375 0 
L 2.875 0 
L 24.125 28.609375 
L 4.6875 54.6875 
L 15.28125 54.6875 
L 29.78125 35.203125 
L 44.28125 54.6875 
z
" id="DejaVuSans-120"/>
      <path d="M 18.109375 8.203125 
L 18.109375 -20.796875 
L 9.078125 -20.796875 
L 9.078125 54.6875 
L 18.109375 54.6875 
L 18.109375 46.390625 
Q 20.953125 51.265625 25.265625 53.625 
Q 29.59375 56 35.59375 56 
Q 45.5625 56 51.78125 48.09375 
Q 58.015625 40.1875 58.015625 27.296875 
Q 58.015625 14.40625 51.78125 6.484375 
Q 45.5625 -1.421875 35.59375 -1.421875 
Q 29.59375 -1.421875 25.265625 0.953125 
Q 20.953125 3.328125 18.109375 8.203125 
z
M 48.6875 27.296875 
Q 48.6875 37.203125 44.609375 42.84375 
Q 40.53125 48.484375 33.40625 48.484375 
Q 26.265625 48.484375 22.1875 42.84375 
Q 18.109375 37.203125 18.109375 27.296875 
Q 18.109375 17.390625 22.1875 11.75 
Q 26.265625 6.109375 33.40625 6.109375 
Q 40.53125 6.109375 44.609375 11.75 
Q 48.6875 17.390625 48.6875 27.296875 
z
" id="DejaVuSans-112"/>
      <path d="M 31 75.875 
Q 24.46875 64.65625 21.28125 53.65625 
Q 18.109375 42.671875 18.109375 31.390625 
Q 18.109375 20.125 21.3125 9.0625 
Q 24.515625 -2 31 -13.1875 
L 23.1875 -13.1875 
Q 15.875 -1.703125 12.234375 9.375 
Q 8.59375 20.453125 8.59375 31.390625 
Q 8.59375 42.28125 12.203125 53.3125 
Q 15.828125 64.359375 23.1875 75.875 
z
" id="DejaVuSans-40"/>
      <path d="M 10.6875 12.40625 
L 21 12.40625 
L 21 0 
L 10.6875 0 
z
" id="DejaVuSans-46"/>
      <path d="M 33.015625 40.375 
Q 26.375 40.375 22.484375 35.828125 
Q 18.609375 31.296875 18.609375 23.390625 
Q 18.609375 15.53125 22.484375 10.953125 
Q 26.375 6.390625 33.015625 6.390625 
Q 39.65625 6.390625 43.53125 10.953125 
Q 47.40625 15.53125 47.40625 23.390625 
Q 47.40625 31.296875 43.53125 35.828125 
Q 39.65625 40.375 33.015625 40.375 
z
M 52.59375 71.296875 
L 52.59375 62.3125 
Q 48.875 64.0625 45.09375 64.984375 
Q 41.3125 65.921875 37.59375 65.921875 
Q 27.828125 65.921875 22.671875 59.328125 
Q 17.53125 52.734375 16.796875 39.40625 
Q 19.671875 43.65625 24.015625 45.921875 
Q 28.375 48.1875 33.59375 48.1875 
Q 44.578125 48.1875 50.953125 41.515625 
Q 57.328125 34.859375 57.328125 23.390625 
Q 57.328125 12.15625 50.6875 5.359375 
Q 44.046875 -1.421875 33.015625 -1.421875 
Q 20.359375 -1.421875 13.671875 8.265625 
Q 6.984375 17.96875 6.984375 36.375 
Q 6.984375 53.65625 15.1875 63.9375 
Q 23.390625 74.21875 37.203125 74.21875 
Q 40.921875 74.21875 44.703125 73.484375 
Q 48.484375 72.75 52.59375 71.296875 
z
" id="DejaVuSans-54"/>
      <path d="M 8.015625 75.875 
L 15.828125 75.875 
Q 23.140625 64.359375 26.78125 53.3125 
Q 30.421875 42.28125 30.421875 31.390625 
Q 30.421875 20.453125 26.78125 9.375 
Q 23.140625 -1.703125 15.828125 -13.1875 
L 8.015625 -13.1875 
Q 14.5 -2 17.703125 9.0625 
Q 20.90625 20.125 20.90625 31.390625 
Q 20.90625 42.671875 17.703125 53.65625 
Q 14.5 64.65625 8.015625 75.875 
z
" id="DejaVuSans-41"/>
     </defs>
     <g transform="translate(74.7 262.212)scale(0.1 -0.1)">
      <use transform="translate(0 0.015625)" xlink:href="#DejaVuSans-101"/>
      <use transform="translate(61.523438 0.015625)" xlink:href="#DejaVuSans-120"/>
      <use transform="translate(120.703125 0.015625)" xlink:href="#DejaVuSans-112"/>
      <use transform="translate(184.179688 0.015625)" xlink:href="#DejaVuSans-40"/>
      <use transform="translate(223.193359 0.015625)" xlink:href="#DejaVuSans-48"/>
      <use transform="translate(286.816406 0.015625)" xlink:href="#DejaVuSans-46"/>
      <use transform="translate(318.603516 0.015625)" xlink:href="#DejaVuSans-51"/>
      <use transform="translate(382.226562 0.015625)" xlink:href="#DejaVuSans-54"/>
      <use transform="translate(445.849609 0.015625)" xlink:href="#DejaVuSans-52"/>
      <use transform="translate(509.472656 0.015625)" xlink:href="#DejaVuSans-Oblique-107"/>
      <use transform="translate(567.382812 0.015625)" xlink:href="#DejaVuSans-41"/>
     </g>
    </g>
   </g>
  </g>
 </g>
 <defs>
  <clipPath id="p5e8652c836">
   <rect height="266.112" width="357.12" x="37.7" y="7.2"/>
  </clipPath>
 </defs>
</svg>
