<?xml version="1.0" encoding="utf-8" standalone="no"?>
<!DOCTYPE svg PUBLIC "-//W3C//DTD SVG 1.1//EN"
  "http://www.w3.org/Graphics/SVG/1.1/DTD/svg11.dtd">
<!-- Created with matplotlib (https://matplotlib.org/) -->
<svg height="310.86825pt" version="1.1" viewBox="0 0 411.223203 310.86825" width="411.223203pt" xmlns="http://www.w3.org/2000/svg" xmlns:xlink="http://www.w3.org/1999/xlink">
 <defs>
  <style type="text/css">
*{stroke-linecap:butt;stroke-linejoin:round;}
  </style>
 </defs>
 <g id="figure_1">
  <g id="patch_1">
   <path d="M 0 310.86825 
L 411.223203 310.86825 
L 411.223203 0 
L 0 0 
z
" style="fill:#ffffff;"/>
  </g>
  <g id="axes_1">
   <g id="patch_2">
    <path d="M 37.7 273.312 
L 394.82 273.312 
L 394.82 7.2 
L 37.7 7.2 
z
" style="fill:#ffffff;"/>
   </g>
   <g id="matplotlib.axis_1">
    <g id="xtick_1">
     <g id="line2d_1">
      <defs>
       <path d="M 0 0 
L 0 3.5 
" id="md7da3d37dc" style="stroke:#000000;stroke-width:0.8;"/>
      </defs>
      <g>
       <use style="stroke:#000000;stroke-width:0.8;" x="53.932727" xlink:href="#md7da3d37dc" y="273.312"/>
      </g>
     </g>
     <g id="text_1">
      <!-- 0 -->
      <defs>
       <path d="M 31.78125 66.40625 
Q 24.171875 66.40625 20.328125 58.90625 
Q 16.5 51.421875 16.5 36.375 
Q 16.5 21.390625 20.328125 13.890625 
Q 24.171875 6.390625 31.78125 6.390625 
Q 39.453125 6.390625 43.28125 13.890625 
Q 47.125 21.390625 47.125 36.375 
Q 47.125 51.421875 43.28125 58.90625 
Q 39.453125 66.40625 31.78125 66.40625 
z
M 31.78125 74.21875 
Q 44.046875 74.21875 50.515625 64.515625 
Q 56.984375 54.828125 56.984375 36.375 
Q 56.984375 17.96875 50.515625 8.265625 
Q 44.046875 -1.421875 31.78125 -1.421875 
Q 19.53125 -1.421875 13.0625 8.265625 
Q 6.59375 17.96875 6.59375 36.375 
Q 6.59375 54.828125 13.0625 64.515625 
Q 19.53125 74.21875 31.78125 74.21875 
z
" id="DejaVuSans-48"/>
      </defs>
      <g transform="translate(50.751477 287.910437)scale(0.1 -0.1)">
       <use xlink:href="#DejaVuSans-48"/>
      </g>
     </g>
    </g>
    <g id="xtick_2">
     <g id="line2d_2">
      <g>
       <use style="stroke:#000000;stroke-width:0.8;" x="110.690515" xlink:href="#md7da3d37dc" y="273.312"/>
      </g>
     </g>
     <g id="text_2">
      <!-- 50 -->
      <defs>
       <path d="M 10.796875 72.90625 
L 49.515625 72.90625 
L 49.515625 64.59375 
L 19.828125 64.59375 
L 19.828125 46.734375 
Q 21.96875 47.46875 24.109375 47.828125 
Q 26.265625 48.1875 28.421875 48.1875 
Q 40.625 48.1875 47.75 41.5 
Q 54.890625 34.8125 54.890625 23.390625 
Q 54.890625 11.625 47.5625 5.09375 
Q 40.234375 -1.421875 26.90625 -1.421875 
Q 22.3125 -1.421875 17.546875 -0.640625 
Q 12.796875 0.140625 7.71875 1.703125 
L 7.71875 11.625 
Q 12.109375 9.234375 16.796875 8.0625 
Q 21.484375 6.890625 26.703125 6.890625 
Q 35.15625 6.890625 40.078125 11.328125 
Q 45.015625 15.765625 45.015625 23.390625 
Q 45.015625 31 40.078125 35.4375 
Q 35.15625 39.890625 26.703125 39.890625 
Q 22.75 39.890625 18.8125 39.015625 
Q 14.890625 38.140625 10.796875 36.28125 
z
" id="DejaVuSans-53"/>
      </defs>
      <g transform="translate(104.328015 287.910437)scale(0.1 -0.1)">
       <use xlink:href="#DejaVuSans-53"/>
       <use x="63.623047" xlink:href="#DejaVuSans-48"/>
      </g>
     </g>
    </g>
    <g id="xtick_3">
     <g id="line2d_3">
      <g>
       <use style="stroke:#000000;stroke-width:0.8;" x="167.448303" xlink:href="#md7da3d37dc" y="273.312"/>
      </g>
     </g>
     <g id="text_3">
      <!-- 100 -->
      <defs>
       <path d="M 12.40625 8.296875 
L 28.515625 8.296875 
L 28.515625 63.921875 
L 10.984375 60.40625 
L 10.984375 69.390625 
L 28.421875 72.90625 
L 38.28125 72.90625 
L 38.28125 8.296875 
L 54.390625 8.296875 
L 54.390625 0 
L 12.40625 0 
z
" id="DejaVuSans-49"/>
      </defs>
      <g transform="translate(157.904553 287.910437)scale(0.1 -0.1)">
       <use xlink:href="#DejaVuSans-49"/>
       <use x="63.623047" xlink:href="#DejaVuSans-48"/>
       <use x="127.246094" xlink:href="#DejaVuSans-48"/>
      </g>
     </g>
    </g>
    <g id="xtick_4">
     <g id="line2d_4">
      <g>
       <use style="stroke:#000000;stroke-width:0.8;" x="224.20609" xlink:href="#md7da3d37dc" y="273.312"/>
      </g>
     </g>
     <g id="text_4">
      <!-- 150 -->
      <g transform="translate(214.66234 287.910437)scale(0.1 -0.1)">
       <use xlink:href="#DejaVuSans-49"/>
       <use x="63.623047" xlink:href="#DejaVuSans-53"/>
       <use x="127.246094" xlink:href="#DejaVuSans-48"/>
      </g>
     </g>
    </g>
    <g id="xtick_5">
     <g id="line2d_5">
      <g>
       <use style="stroke:#000000;stroke-width:0.8;" x="280.963878" xlink:href="#md7da3d37dc" y="273.312"/>
      </g>
     </g>
     <g id="text_5">
      <!-- 200 -->
      <defs>
       <path d="M 19.1875 8.296875 
L 53.609375 8.296875 
L 53.609375 0 
L 7.328125 0 
L 7.328125 8.296875 
Q 12.9375 14.109375 22.625 23.890625 
Q 32.328125 33.6875 34.8125 36.53125 
Q 39.546875 41.84375 41.421875 45.53125 
Q 43.3125 49.21875 43.3125 52.78125 
Q 43.3125 58.59375 39.234375 62.25 
Q 35.15625 65.921875 28.609375 65.921875 
Q 23.96875 65.921875 18.8125 64.3125 
Q 13.671875 62.703125 7.8125 59.421875 
L 7.8125 69.390625 
Q 13.765625 71.78125 18.9375 73 
Q 24.125 74.21875 28.421875 74.21875 
Q 39.75 74.21875 46.484375 68.546875 
Q 53.21875 62.890625 53.21875 53.421875 
Q 53.21875 48.921875 51.53125 44.890625 
Q 49.859375 40.875 45.40625 35.40625 
Q 44.1875 33.984375 37.640625 27.21875 
Q 31.109375 20.453125 19.1875 8.296875 
z
" id="DejaVuSans-50"/>
      </defs>
      <g transform="translate(271.420128 287.910437)scale(0.1 -0.1)">
       <use xlink:href="#DejaVuSans-50"/>
       <use x="63.623047" xlink:href="#DejaVuSans-48"/>
       <use x="127.246094" xlink:href="#DejaVuSans-48"/>
      </g>
     </g>
    </g>
    <g id="xtick_6">
     <g id="line2d_6">
      <g>
       <use style="stroke:#000000;stroke-width:0.8;" x="337.721666" xlink:href="#md7da3d37dc" y="273.312"/>
      </g>
     </g>
     <g id="text_6">
      <!-- 250 -->
      <g transform="translate(328.177916 287.910437)scale(0.1 -0.1)">
       <use xlink:href="#DejaVuSans-50"/>
       <use x="63.623047" xlink:href="#DejaVuSans-53"/>
       <use x="127.246094" xlink:href="#DejaVuSans-48"/>
      </g>
     </g>
    </g>
    <g id="xtick_7">
     <g id="line2d_7">
      <g>
       <use style="stroke:#000000;stroke-width:0.8;" x="394.479453" xlink:href="#md7da3d37dc" y="273.312"/>
      </g>
     </g>
     <g id="text_7">
      <!-- 300 -->
      <defs>
       <path d="M 40.578125 39.3125 
Q 47.65625 37.796875 51.625 33 
Q 55.609375 28.21875 55.609375 21.1875 
Q 55.609375 10.40625 48.1875 4.484375 
Q 40.765625 -1.421875 27.09375 -1.421875 
Q 22.515625 -1.421875 17.65625 -0.515625 
Q 12.796875 0.390625 7.625 2.203125 
L 7.625 11.71875 
Q 11.71875 9.328125 16.59375 8.109375 
Q 21.484375 6.890625 26.8125 6.890625 
Q 36.078125 6.890625 40.9375 10.546875 
Q 45.796875 14.203125 45.796875 21.1875 
Q 45.796875 27.640625 41.28125 31.265625 
Q 36.765625 34.90625 28.71875 34.90625 
L 20.21875 34.90625 
L 20.21875 43.015625 
L 29.109375 43.015625 
Q 36.375 43.015625 40.234375 45.921875 
Q 44.09375 48.828125 44.09375 54.296875 
Q 44.09375 59.90625 40.109375 62.90625 
Q 36.140625 65.921875 28.71875 65.921875 
Q 24.65625 65.921875 20.015625 65.03125 
Q 15.375 64.15625 9.8125 62.3125 
L 9.8125 71.09375 
Q 15.4375 72.65625 20.34375 73.4375 
Q 25.25 74.21875 29.59375 74.21875 
Q 40.828125 74.21875 47.359375 69.109375 
Q 53.90625 64.015625 53.90625 55.328125 
Q 53.90625 49.265625 50.4375 45.09375 
Q 46.96875 40.921875 40.578125 39.3125 
z
" id="DejaVuSans-51"/>
      </defs>
      <g transform="translate(384.935703 287.910437)scale(0.1 -0.1)">
       <use xlink:href="#DejaVuSans-51"/>
       <use x="63.623047" xlink:href="#DejaVuSans-48"/>
       <use x="127.246094" xlink:href="#DejaVuSans-48"/>
      </g>
     </g>
    </g>
    <g id="text_8">
     <!-- $ k $ -->
     <defs>
      <path d="M 18.3125 75.984375 
L 27.296875 75.984375 
L 18.703125 31.6875 
L 49.515625 54.6875 
L 61.1875 54.6875 
L 26.8125 28.515625 
L 51.90625 0 
L 41.015625 0 
L 17.671875 26.703125 
L 12.5 0 
L 3.515625 0 
z
" id="DejaVuSans-Oblique-107"/>
     </defs>
     <g transform="translate(213.36 301.588562)scale(0.1 -0.1)">
      <use transform="translate(0 0.015625)" xlink:href="#DejaVuSans-Oblique-107"/>
     </g>
    </g>
   </g>
   <g id="matplotlib.axis_2">
    <g id="ytick_1">
     <g id="line2d_8">
      <defs>
       <path d="M 0 0 
L -3.5 0 
" id="m3626a539e1" style="stroke:#000000;stroke-width:0.8;"/>
      </defs>
      <g>
       <use style="stroke:#000000;stroke-width:0.8;" x="37.7" xlink:href="#m3626a539e1" y="225.292712"/>
      </g>
     </g>
     <g id="text_9">
      <!-- $\mathdefault{10^{-5}}$ -->
      <defs>
       <path d="M 10.59375 35.5 
L 73.1875 35.5 
L 73.1875 27.203125 
L 10.59375 27.203125 
z
" id="DejaVuSans-8722"/>
      </defs>
      <g transform="translate(7.2 229.091931)scale(0.1 -0.1)">
       <use transform="translate(0 0.684375)" xlink:href="#DejaVuSans-49"/>
       <use transform="translate(63.623047 0.684375)" xlink:href="#DejaVuSans-48"/>
       <use transform="translate(128.203125 38.965625)scale(0.7)" xlink:href="#DejaVuSans-8722"/>
       <use transform="translate(186.855469 38.965625)scale(0.7)" xlink:href="#DejaVuSans-53"/>
      </g>
     </g>
    </g>
    <g id="ytick_2">
     <g id="line2d_9">
      <g>
       <use style="stroke:#000000;stroke-width:0.8;" x="37.7" xlink:href="#m3626a539e1" y="164.037147"/>
      </g>
     </g>
     <g id="text_10">
      <!-- $\mathdefault{10^{-3}}$ -->
      <g transform="translate(7.2 167.836365)scale(0.1 -0.1)">
       <use transform="translate(0 0.765625)" xlink:href="#DejaVuSans-49"/>
       <use transform="translate(63.623047 0.765625)" xlink:href="#DejaVuSans-48"/>
       <use transform="translate(128.203125 39.046875)scale(0.7)" xlink:href="#DejaVuSans-8722"/>
       <use transform="translate(186.855469 39.046875)scale(0.7)" xlink:href="#DejaVuSans-51"/>
      </g>
     </g>
    </g>
    <g id="ytick_3">
     <g id="line2d_10">
      <g>
       <use style="stroke:#000000;stroke-width:0.8;" x="37.7" xlink:href="#m3626a539e1" y="102.781581"/>
      </g>
     </g>
     <g id="text_11">
      <!-- $\mathdefault{10^{-1}}$ -->
      <g transform="translate(7.2 106.5808)scale(0.1 -0.1)">
       <use transform="translate(0 0.684375)" xlink:href="#DejaVuSans-49"/>
       <use transform="translate(63.623047 0.684375)" xlink:href="#DejaVuSans-48"/>
       <use transform="translate(128.203125 38.965625)scale(0.7)" xlink:href="#DejaVuSans-8722"/>
       <use transform="translate(186.855469 38.965625)scale(0.7)" xlink:href="#DejaVuSans-49"/>
      </g>
     </g>
    </g>
    <g id="ytick_4">
     <g id="line2d_11">
      <g>
       <use style="stroke:#000000;stroke-width:0.8;" x="37.7" xlink:href="#m3626a539e1" y="41.526015"/>
      </g>
     </g>
     <g id="text_12">
      <!-- $\mathdefault{10^{1}}$ -->
      <g transform="translate(13.1 45.325234)scale(0.1 -0.1)">
       <use transform="translate(0 0.684375)" xlink:href="#DejaVuSans-49"/>
       <use transform="translate(63.623047 0.684375)" xlink:href="#DejaVuSans-48"/>
       <use transform="translate(128.203125 38.965625)scale(0.7)" xlink:href="#DejaVuSans-49"/>
      </g>
     </g>
    </g>
   </g>
   <g id="line2d_12">
    <path clip-path="url(#p23fcac743e)" d="M 53.932727 19.296 
L 55.067883 22.685224 
L 57.338195 44.689256 
L 59.608506 66.106611 
L 64.149129 109.328514 
L 65.284285 120.595033 
L 66.419441 130.728038 
L 67.554596 142.211313 
L 68.689752 151.817448 
L 70.960064 165.741615 
L 72.095219 178.020907 
L 73.230375 205.25454 
L 74.365531 185.861871 
L 75.500687 191.837693 
L 76.635842 221.739318 
L 77.770998 200.659085 
L 78.906154 222.025522 
L 80.04131 185.344836 
L 81.176465 160.271779 
L 82.311621 208.14342 
L 83.446777 208.317648 
L 84.581933 179.482744 
L 85.717088 169.349107 
L 86.852244 206.191007 
L 87.9874 196.173396 
L 89.122556 163.2051 
L 90.257711 178.737634 
L 91.392867 176.528292 
L 92.528023 168.456413 
L 93.663179 169.095948 
L 94.798334 176.049992 
L 95.93349 172.266016 
L 98.203802 205.603892 
L 99.338957 185.010543 
L 100.474113 152.269883 
L 101.609269 166.228756 
L 102.744425 171.374699 
L 103.87958 173.7712 
L 105.014736 166.259809 
L 106.149892 189.692695 
L 107.285048 183.407715 
L 108.420203 181.298276 
L 109.555359 182.609485 
L 110.690515 178.177362 
L 111.825671 166.956914 
L 112.960826 177.827891 
L 114.095982 178.288496 
L 115.231138 189.996534 
L 116.366294 178.166301 
L 117.501449 185.983916 
L 118.636605 186.473432 
L 119.771761 201.468838 
L 120.906917 165.655637 
L 122.042072 168.686818 
L 123.177228 182.482438 
L 124.312384 224.678743 
L 125.44754 204.165493 
L 126.582695 199.522674 
L 127.717851 191.305042 
L 128.853007 180.144594 
L 129.988163 179.149213 
L 131.123318 179.771116 
L 132.258474 173.197381 
L 133.39363 181.326062 
L 134.528786 216.963536 
L 135.663942 192.1176 
L 136.799097 175.186396 
L 137.934253 187.209043 
L 139.069409 178.287732 
L 140.204565 176.236894 
L 141.33972 189.074811 
L 142.474876 190.03832 
L 143.610032 176.816925 
L 144.745188 180.472867 
L 145.880343 176.403713 
L 147.015499 178.040215 
L 148.150655 193.36327 
L 149.285811 180.10829 
L 150.420966 172.319829 
L 151.556122 174.856639 
L 152.691278 189.736678 
L 153.826434 191.455312 
L 154.961589 186.945705 
L 156.096745 179.013192 
L 157.231901 174.016802 
L 158.367057 188.565105 
L 159.502212 173.392729 
L 160.637368 178.670804 
L 161.772524 165.85926 
L 162.90768 204.022874 
L 164.042835 203.70943 
L 165.177991 180.957263 
L 166.313147 188.726165 
L 167.448303 170.266886 
L 168.583458 160.837163 
L 169.718614 179.288323 
L 170.85377 188.36947 
L 171.988926 187.570062 
L 173.124081 261.216 
L 174.259237 198.675223 
L 175.394393 158.400288 
L 176.529549 160.077589 
L 177.664704 167.521974 
L 178.79986 171.246536 
L 179.935016 180.089278 
L 181.070172 175.613304 
L 182.205327 177.863977 
L 183.340483 187.773026 
L 184.475639 185.300676 
L 185.610795 200.02595 
L 186.74595 194.795645 
L 187.881106 178.875917 
L 189.016262 192.244011 
L 190.151418 191.2936 
L 191.286573 206.345822 
L 192.421729 199.727276 
L 193.556885 183.84749 
L 194.692041 173.706409 
L 195.827196 180.10283 
L 196.962352 172.897623 
L 198.097508 179.652076 
L 199.232664 199.821671 
L 200.367819 168.168035 
L 201.502975 194.366428 
L 202.638131 170.662769 
L 203.773287 170.787748 
L 204.908442 185.064477 
L 206.043598 175.618846 
L 207.178754 173.70248 
L 208.31391 217.477116 
L 209.449065 210.70213 
L 210.584221 173.574476 
L 211.719377 196.997797 
L 212.854533 174.5947 
L 213.989688 190.605433 
L 215.124844 199.502931 
L 216.26 190.232422 
L 217.395156 220.515691 
L 218.530312 192.351522 
L 219.665467 186.01551 
L 220.800623 185.664991 
L 221.935779 187.623677 
L 223.070935 191.222094 
L 224.20609 182.058325 
L 225.341246 173.892092 
L 226.476402 199.414986 
L 227.611558 184.070691 
L 228.746713 177.740527 
L 229.881869 168.109242 
L 231.017025 203.135558 
L 232.152181 191.085551 
L 233.287336 198.112217 
L 234.422492 195.933234 
L 235.557648 237.348603 
L 236.692804 185.464725 
L 237.827959 167.333444 
L 238.963115 183.587193 
L 240.098271 190.398079 
L 241.233427 167.459944 
L 242.368582 208.33199 
L 243.503738 179.317396 
L 244.638894 179.624026 
L 245.77405 171.301831 
L 246.909205 178.249749 
L 248.044361 182.041975 
L 249.179517 206.039157 
L 250.314673 178.776203 
L 251.449828 186.716012 
L 252.584984 167.089552 
L 253.72014 196.799792 
L 254.855296 177.004158 
L 255.990451 186.643236 
L 258.260763 172.61982 
L 259.395919 166.78121 
L 260.531074 170.594874 
L 261.66623 189.439855 
L 262.801386 195.052736 
L 263.936542 223.201649 
L 265.071697 172.76421 
L 266.206853 168.190769 
L 267.342009 185.513885 
L 268.477165 181.674204 
L 269.61232 206.350003 
L 270.747476 183.694742 
L 271.882632 203.714823 
L 273.017788 199.840214 
L 274.152943 189.919584 
L 275.288099 174.65084 
L 276.423255 175.123605 
L 277.558411 177.66205 
L 278.693566 199.775626 
L 279.828722 185.399137 
L 280.963878 176.20046 
L 282.099034 167.913879 
L 284.369345 179.812857 
L 285.504501 186.776481 
L 286.639657 212.054411 
L 287.774812 169.753735 
L 288.909968 183.889198 
L 290.045124 192.588875 
L 291.18028 170.159508 
L 292.315435 196.202994 
L 293.450591 180.847914 
L 294.585747 178.198567 
L 295.720903 176.894365 
L 296.856058 182.236334 
L 297.991214 172.246147 
L 299.12637 203.276305 
L 300.261526 202.680191 
L 301.396682 185.378156 
L 302.531837 222.975311 
L 303.666993 182.043292 
L 304.802149 181.90586 
L 305.937305 207.112808 
L 307.07246 191.441499 
L 308.207616 192.270751 
L 309.342772 188.655995 
L 310.477928 186.97539 
L 311.613083 192.991918 
L 312.748239 157.252096 
L 313.883395 177.391037 
L 315.018551 211.858923 
L 316.153706 201.833955 
L 317.288862 193.056945 
L 318.424018 188.833541 
L 319.559174 201.907965 
L 320.694329 191.732714 
L 321.829485 199.614967 
L 322.964641 171.791453 
L 324.099797 175.791777 
L 325.234952 176.652027 
L 326.370108 171.350165 
L 327.505264 175.662065 
L 328.64042 175.697382 
L 329.775575 170.713511 
L 330.910731 196.008566 
L 332.045887 174.353237 
L 333.181043 177.363149 
L 334.316198 170.848348 
L 335.451354 181.263087 
L 336.58651 173.841004 
L 337.721666 176.115449 
L 338.856821 170.932678 
L 339.991977 182.885315 
L 341.127133 179.535977 
L 342.262289 188.102916 
L 343.397444 210.402056 
L 344.5326 181.6793 
L 345.667756 175.803032 
L 346.802912 208.501736 
L 347.938067 187.881069 
L 349.073223 170.053518 
L 350.208379 180.318085 
L 351.343535 216.913381 
L 352.47869 180.961807 
L 353.613846 181.220504 
L 354.749002 172.339231 
L 355.884158 192.942048 
L 357.019313 167.812255 
L 358.154469 179.307577 
L 359.289625 167.180752 
L 360.424781 174.609278 
L 361.559936 188.847923 
L 362.695092 195.170603 
L 363.830248 184.613608 
L 364.965404 192.714081 
L 366.100559 181.41171 
L 367.235715 185.121367 
L 368.370871 168.534937 
L 369.506027 213.309178 
L 371.776338 177.46904 
L 372.911494 177.042872 
L 374.04665 182.265773 
L 375.181805 212.647674 
L 376.316961 198.933313 
L 376.321164 311.86825 
L 376.321164 311.86825 
" style="fill:none;stroke:#1f77b4;stroke-linecap:square;stroke-width:1.5;"/>
    <defs>
     <path d="M 0 3 
C 0.795609 3 1.55874 2.683901 2.12132 2.12132 
C 2.683901 1.55874 3 0.795609 3 0 
C 3 -0.795609 2.683901 -1.55874 2.12132 -2.12132 
C 1.55874 -2.683901 0.795609 -3 0 -3 
C -0.795609 -3 -1.55874 -2.683901 -2.12132 -2.12132 
C -2.683901 -1.55874 -3 -0.795609 -3 0 
C -3 0.795609 -2.683901 1.55874 -2.12132 2.12132 
C -1.55874 2.683901 -0.795609 3 0 3 
z
" id="m59cfed63e9" style="stroke:#1f77b4;"/>
    </defs>
    <g clip-path="url(#p23fcac743e)">
     <use style="fill:#1f77b4;stroke:#1f77b4;" x="53.932727" xlink:href="#m59cfed63e9" y="19.296"/>
     <use style="fill:#1f77b4;stroke:#1f77b4;" x="55.067883" xlink:href="#m59cfed63e9" y="22.685224"/>
     <use style="fill:#1f77b4;stroke:#1f77b4;" x="56.203039" xlink:href="#m59cfed63e9" y="34.049328"/>
     <use style="fill:#1f77b4;stroke:#1f77b4;" x="57.338195" xlink:href="#m59cfed63e9" y="44.689256"/>
     <use style="fill:#1f77b4;stroke:#1f77b4;" x="58.47335" xlink:href="#m59cfed63e9" y="55.035731"/>
     <use style="fill:#1f77b4;stroke:#1f77b4;" x="59.608506" xlink:href="#m59cfed63e9" y="66.106611"/>
     <use style="fill:#1f77b4;stroke:#1f77b4;" x="60.743662" xlink:href="#m59cfed63e9" y="76.753136"/>
     <use style="fill:#1f77b4;stroke:#1f77b4;" x="61.878818" xlink:href="#m59cfed63e9" y="87.66887"/>
     <use style="fill:#1f77b4;stroke:#1f77b4;" x="63.013973" xlink:href="#m59cfed63e9" y="98.431949"/>
     <use style="fill:#1f77b4;stroke:#1f77b4;" x="64.149129" xlink:href="#m59cfed63e9" y="109.328514"/>
     <use style="fill:#1f77b4;stroke:#1f77b4;" x="65.284285" xlink:href="#m59cfed63e9" y="120.595033"/>
     <use style="fill:#1f77b4;stroke:#1f77b4;" x="66.419441" xlink:href="#m59cfed63e9" y="130.728038"/>
     <use style="fill:#1f77b4;stroke:#1f77b4;" x="67.554596" xlink:href="#m59cfed63e9" y="142.211313"/>
     <use style="fill:#1f77b4;stroke:#1f77b4;" x="68.689752" xlink:href="#m59cfed63e9" y="151.817448"/>
     <use style="fill:#1f77b4;stroke:#1f77b4;" x="69.824908" xlink:href="#m59cfed63e9" y="158.801907"/>
     <use style="fill:#1f77b4;stroke:#1f77b4;" x="70.960064" xlink:href="#m59cfed63e9" y="165.741615"/>
     <use style="fill:#1f77b4;stroke:#1f77b4;" x="72.095219" xlink:href="#m59cfed63e9" y="178.020907"/>
     <use style="fill:#1f77b4;stroke:#1f77b4;" x="73.230375" xlink:href="#m59cfed63e9" y="205.25454"/>
     <use style="fill:#1f77b4;stroke:#1f77b4;" x="74.365531" xlink:href="#m59cfed63e9" y="185.861871"/>
     <use style="fill:#1f77b4;stroke:#1f77b4;" x="75.500687" xlink:href="#m59cfed63e9" y="191.837693"/>
     <use style="fill:#1f77b4;stroke:#1f77b4;" x="76.635842" xlink:href="#m59cfed63e9" y="221.739318"/>
     <use style="fill:#1f77b4;stroke:#1f77b4;" x="77.770998" xlink:href="#m59cfed63e9" y="200.659085"/>
     <use style="fill:#1f77b4;stroke:#1f77b4;" x="78.906154" xlink:href="#m59cfed63e9" y="222.025522"/>
     <use style="fill:#1f77b4;stroke:#1f77b4;" x="80.04131" xlink:href="#m59cfed63e9" y="185.344836"/>
     <use style="fill:#1f77b4;stroke:#1f77b4;" x="81.176465" xlink:href="#m59cfed63e9" y="160.271779"/>
     <use style="fill:#1f77b4;stroke:#1f77b4;" x="82.311621" xlink:href="#m59cfed63e9" y="208.14342"/>
     <use style="fill:#1f77b4;stroke:#1f77b4;" x="83.446777" xlink:href="#m59cfed63e9" y="208.317648"/>
     <use style="fill:#1f77b4;stroke:#1f77b4;" x="84.581933" xlink:href="#m59cfed63e9" y="179.482744"/>
     <use style="fill:#1f77b4;stroke:#1f77b4;" x="85.717088" xlink:href="#m59cfed63e9" y="169.349107"/>
     <use style="fill:#1f77b4;stroke:#1f77b4;" x="86.852244" xlink:href="#m59cfed63e9" y="206.191007"/>
     <use style="fill:#1f77b4;stroke:#1f77b4;" x="87.9874" xlink:href="#m59cfed63e9" y="196.173396"/>
     <use style="fill:#1f77b4;stroke:#1f77b4;" x="89.122556" xlink:href="#m59cfed63e9" y="163.2051"/>
     <use style="fill:#1f77b4;stroke:#1f77b4;" x="90.257711" xlink:href="#m59cfed63e9" y="178.737634"/>
     <use style="fill:#1f77b4;stroke:#1f77b4;" x="91.392867" xlink:href="#m59cfed63e9" y="176.528292"/>
     <use style="fill:#1f77b4;stroke:#1f77b4;" x="92.528023" xlink:href="#m59cfed63e9" y="168.456413"/>
     <use style="fill:#1f77b4;stroke:#1f77b4;" x="93.663179" xlink:href="#m59cfed63e9" y="169.095948"/>
     <use style="fill:#1f77b4;stroke:#1f77b4;" x="94.798334" xlink:href="#m59cfed63e9" y="176.049992"/>
     <use style="fill:#1f77b4;stroke:#1f77b4;" x="95.93349" xlink:href="#m59cfed63e9" y="172.266016"/>
     <use style="fill:#1f77b4;stroke:#1f77b4;" x="97.068646" xlink:href="#m59cfed63e9" y="188.26472"/>
     <use style="fill:#1f77b4;stroke:#1f77b4;" x="98.203802" xlink:href="#m59cfed63e9" y="205.603892"/>
     <use style="fill:#1f77b4;stroke:#1f77b4;" x="99.338957" xlink:href="#m59cfed63e9" y="185.010543"/>
     <use style="fill:#1f77b4;stroke:#1f77b4;" x="100.474113" xlink:href="#m59cfed63e9" y="152.269883"/>
     <use style="fill:#1f77b4;stroke:#1f77b4;" x="101.609269" xlink:href="#m59cfed63e9" y="166.228756"/>
     <use style="fill:#1f77b4;stroke:#1f77b4;" x="102.744425" xlink:href="#m59cfed63e9" y="171.374699"/>
     <use style="fill:#1f77b4;stroke:#1f77b4;" x="103.87958" xlink:href="#m59cfed63e9" y="173.7712"/>
     <use style="fill:#1f77b4;stroke:#1f77b4;" x="105.014736" xlink:href="#m59cfed63e9" y="166.259809"/>
     <use style="fill:#1f77b4;stroke:#1f77b4;" x="106.149892" xlink:href="#m59cfed63e9" y="189.692695"/>
     <use style="fill:#1f77b4;stroke:#1f77b4;" x="107.285048" xlink:href="#m59cfed63e9" y="183.407715"/>
     <use style="fill:#1f77b4;stroke:#1f77b4;" x="108.420203" xlink:href="#m59cfed63e9" y="181.298276"/>
     <use style="fill:#1f77b4;stroke:#1f77b4;" x="109.555359" xlink:href="#m59cfed63e9" y="182.609485"/>
     <use style="fill:#1f77b4;stroke:#1f77b4;" x="110.690515" xlink:href="#m59cfed63e9" y="178.177362"/>
     <use style="fill:#1f77b4;stroke:#1f77b4;" x="111.825671" xlink:href="#m59cfed63e9" y="166.956914"/>
     <use style="fill:#1f77b4;stroke:#1f77b4;" x="112.960826" xlink:href="#m59cfed63e9" y="177.827891"/>
     <use style="fill:#1f77b4;stroke:#1f77b4;" x="114.095982" xlink:href="#m59cfed63e9" y="178.288496"/>
     <use style="fill:#1f77b4;stroke:#1f77b4;" x="115.231138" xlink:href="#m59cfed63e9" y="189.996534"/>
     <use style="fill:#1f77b4;stroke:#1f77b4;" x="116.366294" xlink:href="#m59cfed63e9" y="178.166301"/>
     <use style="fill:#1f77b4;stroke:#1f77b4;" x="117.501449" xlink:href="#m59cfed63e9" y="185.983916"/>
     <use style="fill:#1f77b4;stroke:#1f77b4;" x="118.636605" xlink:href="#m59cfed63e9" y="186.473432"/>
     <use style="fill:#1f77b4;stroke:#1f77b4;" x="119.771761" xlink:href="#m59cfed63e9" y="201.468838"/>
     <use style="fill:#1f77b4;stroke:#1f77b4;" x="120.906917" xlink:href="#m59cfed63e9" y="165.655637"/>
     <use style="fill:#1f77b4;stroke:#1f77b4;" x="122.042072" xlink:href="#m59cfed63e9" y="168.686818"/>
     <use style="fill:#1f77b4;stroke:#1f77b4;" x="123.177228" xlink:href="#m59cfed63e9" y="182.482438"/>
     <use style="fill:#1f77b4;stroke:#1f77b4;" x="124.312384" xlink:href="#m59cfed63e9" y="224.678743"/>
     <use style="fill:#1f77b4;stroke:#1f77b4;" x="125.44754" xlink:href="#m59cfed63e9" y="204.165493"/>
     <use style="fill:#1f77b4;stroke:#1f77b4;" x="126.582695" xlink:href="#m59cfed63e9" y="199.522674"/>
     <use style="fill:#1f77b4;stroke:#1f77b4;" x="127.717851" xlink:href="#m59cfed63e9" y="191.305042"/>
     <use style="fill:#1f77b4;stroke:#1f77b4;" x="128.853007" xlink:href="#m59cfed63e9" y="180.144594"/>
     <use style="fill:#1f77b4;stroke:#1f77b4;" x="129.988163" xlink:href="#m59cfed63e9" y="179.149213"/>
     <use style="fill:#1f77b4;stroke:#1f77b4;" x="131.123318" xlink:href="#m59cfed63e9" y="179.771116"/>
     <use style="fill:#1f77b4;stroke:#1f77b4;" x="132.258474" xlink:href="#m59cfed63e9" y="173.197381"/>
     <use style="fill:#1f77b4;stroke:#1f77b4;" x="133.39363" xlink:href="#m59cfed63e9" y="181.326062"/>
     <use style="fill:#1f77b4;stroke:#1f77b4;" x="134.528786" xlink:href="#m59cfed63e9" y="216.963536"/>
     <use style="fill:#1f77b4;stroke:#1f77b4;" x="135.663942" xlink:href="#m59cfed63e9" y="192.1176"/>
     <use style="fill:#1f77b4;stroke:#1f77b4;" x="136.799097" xlink:href="#m59cfed63e9" y="175.186396"/>
     <use style="fill:#1f77b4;stroke:#1f77b4;" x="137.934253" xlink:href="#m59cfed63e9" y="187.209043"/>
     <use style="fill:#1f77b4;stroke:#1f77b4;" x="139.069409" xlink:href="#m59cfed63e9" y="178.287732"/>
     <use style="fill:#1f77b4;stroke:#1f77b4;" x="140.204565" xlink:href="#m59cfed63e9" y="176.236894"/>
     <use style="fill:#1f77b4;stroke:#1f77b4;" x="141.33972" xlink:href="#m59cfed63e9" y="189.074811"/>
     <use style="fill:#1f77b4;stroke:#1f77b4;" x="142.474876" xlink:href="#m59cfed63e9" y="190.03832"/>
     <use style="fill:#1f77b4;stroke:#1f77b4;" x="143.610032" xlink:href="#m59cfed63e9" y="176.816925"/>
     <use style="fill:#1f77b4;stroke:#1f77b4;" x="144.745188" xlink:href="#m59cfed63e9" y="180.472867"/>
     <use style="fill:#1f77b4;stroke:#1f77b4;" x="145.880343" xlink:href="#m59cfed63e9" y="176.403713"/>
     <use style="fill:#1f77b4;stroke:#1f77b4;" x="147.015499" xlink:href="#m59cfed63e9" y="178.040215"/>
     <use style="fill:#1f77b4;stroke:#1f77b4;" x="148.150655" xlink:href="#m59cfed63e9" y="193.36327"/>
     <use style="fill:#1f77b4;stroke:#1f77b4;" x="149.285811" xlink:href="#m59cfed63e9" y="180.10829"/>
     <use style="fill:#1f77b4;stroke:#1f77b4;" x="150.420966" xlink:href="#m59cfed63e9" y="172.319829"/>
     <use style="fill:#1f77b4;stroke:#1f77b4;" x="151.556122" xlink:href="#m59cfed63e9" y="174.856639"/>
     <use style="fill:#1f77b4;stroke:#1f77b4;" x="152.691278" xlink:href="#m59cfed63e9" y="189.736678"/>
     <use style="fill:#1f77b4;stroke:#1f77b4;" x="153.826434" xlink:href="#m59cfed63e9" y="191.455312"/>
     <use style="fill:#1f77b4;stroke:#1f77b4;" x="154.961589" xlink:href="#m59cfed63e9" y="186.945705"/>
     <use style="fill:#1f77b4;stroke:#1f77b4;" x="156.096745" xlink:href="#m59cfed63e9" y="179.013192"/>
     <use style="fill:#1f77b4;stroke:#1f77b4;" x="157.231901" xlink:href="#m59cfed63e9" y="174.016802"/>
     <use style="fill:#1f77b4;stroke:#1f77b4;" x="158.367057" xlink:href="#m59cfed63e9" y="188.565105"/>
     <use style="fill:#1f77b4;stroke:#1f77b4;" x="159.502212" xlink:href="#m59cfed63e9" y="173.392729"/>
     <use style="fill:#1f77b4;stroke:#1f77b4;" x="160.637368" xlink:href="#m59cfed63e9" y="178.670804"/>
     <use style="fill:#1f77b4;stroke:#1f77b4;" x="161.772524" xlink:href="#m59cfed63e9" y="165.85926"/>
     <use style="fill:#1f77b4;stroke:#1f77b4;" x="162.90768" xlink:href="#m59cfed63e9" y="204.022874"/>
     <use style="fill:#1f77b4;stroke:#1f77b4;" x="164.042835" xlink:href="#m59cfed63e9" y="203.70943"/>
     <use style="fill:#1f77b4;stroke:#1f77b4;" x="165.177991" xlink:href="#m59cfed63e9" y="180.957263"/>
     <use style="fill:#1f77b4;stroke:#1f77b4;" x="166.313147" xlink:href="#m59cfed63e9" y="188.726165"/>
     <use style="fill:#1f77b4;stroke:#1f77b4;" x="167.448303" xlink:href="#m59cfed63e9" y="170.266886"/>
     <use style="fill:#1f77b4;stroke:#1f77b4;" x="168.583458" xlink:href="#m59cfed63e9" y="160.837163"/>
     <use style="fill:#1f77b4;stroke:#1f77b4;" x="169.718614" xlink:href="#m59cfed63e9" y="179.288323"/>
     <use style="fill:#1f77b4;stroke:#1f77b4;" x="170.85377" xlink:href="#m59cfed63e9" y="188.36947"/>
     <use style="fill:#1f77b4;stroke:#1f77b4;" x="171.988926" xlink:href="#m59cfed63e9" y="187.570062"/>
     <use style="fill:#1f77b4;stroke:#1f77b4;" x="173.124081" xlink:href="#m59cfed63e9" y="261.216"/>
     <use style="fill:#1f77b4;stroke:#1f77b4;" x="174.259237" xlink:href="#m59cfed63e9" y="198.675223"/>
     <use style="fill:#1f77b4;stroke:#1f77b4;" x="175.394393" xlink:href="#m59cfed63e9" y="158.400288"/>
     <use style="fill:#1f77b4;stroke:#1f77b4;" x="176.529549" xlink:href="#m59cfed63e9" y="160.077589"/>
     <use style="fill:#1f77b4;stroke:#1f77b4;" x="177.664704" xlink:href="#m59cfed63e9" y="167.521974"/>
     <use style="fill:#1f77b4;stroke:#1f77b4;" x="178.79986" xlink:href="#m59cfed63e9" y="171.246536"/>
     <use style="fill:#1f77b4;stroke:#1f77b4;" x="179.935016" xlink:href="#m59cfed63e9" y="180.089278"/>
     <use style="fill:#1f77b4;stroke:#1f77b4;" x="181.070172" xlink:href="#m59cfed63e9" y="175.613304"/>
     <use style="fill:#1f77b4;stroke:#1f77b4;" x="182.205327" xlink:href="#m59cfed63e9" y="177.863977"/>
     <use style="fill:#1f77b4;stroke:#1f77b4;" x="183.340483" xlink:href="#m59cfed63e9" y="187.773026"/>
     <use style="fill:#1f77b4;stroke:#1f77b4;" x="184.475639" xlink:href="#m59cfed63e9" y="185.300676"/>
     <use style="fill:#1f77b4;stroke:#1f77b4;" x="185.610795" xlink:href="#m59cfed63e9" y="200.02595"/>
     <use style="fill:#1f77b4;stroke:#1f77b4;" x="186.74595" xlink:href="#m59cfed63e9" y="194.795645"/>
     <use style="fill:#1f77b4;stroke:#1f77b4;" x="187.881106" xlink:href="#m59cfed63e9" y="178.875917"/>
     <use style="fill:#1f77b4;stroke:#1f77b4;" x="189.016262" xlink:href="#m59cfed63e9" y="192.244011"/>
     <use style="fill:#1f77b4;stroke:#1f77b4;" x="190.151418" xlink:href="#m59cfed63e9" y="191.2936"/>
     <use style="fill:#1f77b4;stroke:#1f77b4;" x="191.286573" xlink:href="#m59cfed63e9" y="206.345822"/>
     <use style="fill:#1f77b4;stroke:#1f77b4;" x="192.421729" xlink:href="#m59cfed63e9" y="199.727276"/>
     <use style="fill:#1f77b4;stroke:#1f77b4;" x="193.556885" xlink:href="#m59cfed63e9" y="183.84749"/>
     <use style="fill:#1f77b4;stroke:#1f77b4;" x="194.692041" xlink:href="#m59cfed63e9" y="173.706409"/>
     <use style="fill:#1f77b4;stroke:#1f77b4;" x="195.827196" xlink:href="#m59cfed63e9" y="180.10283"/>
     <use style="fill:#1f77b4;stroke:#1f77b4;" x="196.962352" xlink:href="#m59cfed63e9" y="172.897623"/>
     <use style="fill:#1f77b4;stroke:#1f77b4;" x="198.097508" xlink:href="#m59cfed63e9" y="179.652076"/>
     <use style="fill:#1f77b4;stroke:#1f77b4;" x="199.232664" xlink:href="#m59cfed63e9" y="199.821671"/>
     <use style="fill:#1f77b4;stroke:#1f77b4;" x="200.367819" xlink:href="#m59cfed63e9" y="168.168035"/>
     <use style="fill:#1f77b4;stroke:#1f77b4;" x="201.502975" xlink:href="#m59cfed63e9" y="194.366428"/>
     <use style="fill:#1f77b4;stroke:#1f77b4;" x="202.638131" xlink:href="#m59cfed63e9" y="170.662769"/>
     <use style="fill:#1f77b4;stroke:#1f77b4;" x="203.773287" xlink:href="#m59cfed63e9" y="170.787748"/>
     <use style="fill:#1f77b4;stroke:#1f77b4;" x="204.908442" xlink:href="#m59cfed63e9" y="185.064477"/>
     <use style="fill:#1f77b4;stroke:#1f77b4;" x="206.043598" xlink:href="#m59cfed63e9" y="175.618846"/>
     <use style="fill:#1f77b4;stroke:#1f77b4;" x="207.178754" xlink:href="#m59cfed63e9" y="173.70248"/>
     <use style="fill:#1f77b4;stroke:#1f77b4;" x="208.31391" xlink:href="#m59cfed63e9" y="217.477116"/>
     <use style="fill:#1f77b4;stroke:#1f77b4;" x="209.449065" xlink:href="#m59cfed63e9" y="210.70213"/>
     <use style="fill:#1f77b4;stroke:#1f77b4;" x="210.584221" xlink:href="#m59cfed63e9" y="173.574476"/>
     <use style="fill:#1f77b4;stroke:#1f77b4;" x="211.719377" xlink:href="#m59cfed63e9" y="196.997797"/>
     <use style="fill:#1f77b4;stroke:#1f77b4;" x="212.854533" xlink:href="#m59cfed63e9" y="174.5947"/>
     <use style="fill:#1f77b4;stroke:#1f77b4;" x="213.989688" xlink:href="#m59cfed63e9" y="190.605433"/>
     <use style="fill:#1f77b4;stroke:#1f77b4;" x="215.124844" xlink:href="#m59cfed63e9" y="199.502931"/>
     <use style="fill:#1f77b4;stroke:#1f77b4;" x="216.26" xlink:href="#m59cfed63e9" y="190.232422"/>
     <use style="fill:#1f77b4;stroke:#1f77b4;" x="217.395156" xlink:href="#m59cfed63e9" y="220.515691"/>
     <use style="fill:#1f77b4;stroke:#1f77b4;" x="218.530312" xlink:href="#m59cfed63e9" y="192.351522"/>
     <use style="fill:#1f77b4;stroke:#1f77b4;" x="219.665467" xlink:href="#m59cfed63e9" y="186.01551"/>
     <use style="fill:#1f77b4;stroke:#1f77b4;" x="220.800623" xlink:href="#m59cfed63e9" y="185.664991"/>
     <use style="fill:#1f77b4;stroke:#1f77b4;" x="221.935779" xlink:href="#m59cfed63e9" y="187.623677"/>
     <use style="fill:#1f77b4;stroke:#1f77b4;" x="223.070935" xlink:href="#m59cfed63e9" y="191.222094"/>
     <use style="fill:#1f77b4;stroke:#1f77b4;" x="224.20609" xlink:href="#m59cfed63e9" y="182.058325"/>
     <use style="fill:#1f77b4;stroke:#1f77b4;" x="225.341246" xlink:href="#m59cfed63e9" y="173.892092"/>
     <use style="fill:#1f77b4;stroke:#1f77b4;" x="226.476402" xlink:href="#m59cfed63e9" y="199.414986"/>
     <use style="fill:#1f77b4;stroke:#1f77b4;" x="227.611558" xlink:href="#m59cfed63e9" y="184.070691"/>
     <use style="fill:#1f77b4;stroke:#1f77b4;" x="228.746713" xlink:href="#m59cfed63e9" y="177.740527"/>
     <use style="fill:#1f77b4;stroke:#1f77b4;" x="229.881869" xlink:href="#m59cfed63e9" y="168.109242"/>
     <use style="fill:#1f77b4;stroke:#1f77b4;" x="231.017025" xlink:href="#m59cfed63e9" y="203.135558"/>
     <use style="fill:#1f77b4;stroke:#1f77b4;" x="232.152181" xlink:href="#m59cfed63e9" y="191.085551"/>
     <use style="fill:#1f77b4;stroke:#1f77b4;" x="233.287336" xlink:href="#m59cfed63e9" y="198.112217"/>
     <use style="fill:#1f77b4;stroke:#1f77b4;" x="234.422492" xlink:href="#m59cfed63e9" y="195.933234"/>
     <use style="fill:#1f77b4;stroke:#1f77b4;" x="235.557648" xlink:href="#m59cfed63e9" y="237.348603"/>
     <use style="fill:#1f77b4;stroke:#1f77b4;" x="236.692804" xlink:href="#m59cfed63e9" y="185.464725"/>
     <use style="fill:#1f77b4;stroke:#1f77b4;" x="237.827959" xlink:href="#m59cfed63e9" y="167.333444"/>
     <use style="fill:#1f77b4;stroke:#1f77b4;" x="238.963115" xlink:href="#m59cfed63e9" y="183.587193"/>
     <use style="fill:#1f77b4;stroke:#1f77b4;" x="240.098271" xlink:href="#m59cfed63e9" y="190.398079"/>
     <use style="fill:#1f77b4;stroke:#1f77b4;" x="241.233427" xlink:href="#m59cfed63e9" y="167.459944"/>
     <use style="fill:#1f77b4;stroke:#1f77b4;" x="242.368582" xlink:href="#m59cfed63e9" y="208.33199"/>
     <use style="fill:#1f77b4;stroke:#1f77b4;" x="243.503738" xlink:href="#m59cfed63e9" y="179.317396"/>
     <use style="fill:#1f77b4;stroke:#1f77b4;" x="244.638894" xlink:href="#m59cfed63e9" y="179.624026"/>
     <use style="fill:#1f77b4;stroke:#1f77b4;" x="245.77405" xlink:href="#m59cfed63e9" y="171.301831"/>
     <use style="fill:#1f77b4;stroke:#1f77b4;" x="246.909205" xlink:href="#m59cfed63e9" y="178.249749"/>
     <use style="fill:#1f77b4;stroke:#1f77b4;" x="248.044361" xlink:href="#m59cfed63e9" y="182.041975"/>
     <use style="fill:#1f77b4;stroke:#1f77b4;" x="249.179517" xlink:href="#m59cfed63e9" y="206.039157"/>
     <use style="fill:#1f77b4;stroke:#1f77b4;" x="250.314673" xlink:href="#m59cfed63e9" y="178.776203"/>
     <use style="fill:#1f77b4;stroke:#1f77b4;" x="251.449828" xlink:href="#m59cfed63e9" y="186.716012"/>
     <use style="fill:#1f77b4;stroke:#1f77b4;" x="252.584984" xlink:href="#m59cfed63e9" y="167.089552"/>
     <use style="fill:#1f77b4;stroke:#1f77b4;" x="253.72014" xlink:href="#m59cfed63e9" y="196.799792"/>
     <use style="fill:#1f77b4;stroke:#1f77b4;" x="254.855296" xlink:href="#m59cfed63e9" y="177.004158"/>
     <use style="fill:#1f77b4;stroke:#1f77b4;" x="255.990451" xlink:href="#m59cfed63e9" y="186.643236"/>
     <use style="fill:#1f77b4;stroke:#1f77b4;" x="257.125607" xlink:href="#m59cfed63e9" y="179.404567"/>
     <use style="fill:#1f77b4;stroke:#1f77b4;" x="258.260763" xlink:href="#m59cfed63e9" y="172.61982"/>
     <use style="fill:#1f77b4;stroke:#1f77b4;" x="259.395919" xlink:href="#m59cfed63e9" y="166.78121"/>
     <use style="fill:#1f77b4;stroke:#1f77b4;" x="260.531074" xlink:href="#m59cfed63e9" y="170.594874"/>
     <use style="fill:#1f77b4;stroke:#1f77b4;" x="261.66623" xlink:href="#m59cfed63e9" y="189.439855"/>
     <use style="fill:#1f77b4;stroke:#1f77b4;" x="262.801386" xlink:href="#m59cfed63e9" y="195.052736"/>
     <use style="fill:#1f77b4;stroke:#1f77b4;" x="263.936542" xlink:href="#m59cfed63e9" y="223.201649"/>
     <use style="fill:#1f77b4;stroke:#1f77b4;" x="265.071697" xlink:href="#m59cfed63e9" y="172.76421"/>
     <use style="fill:#1f77b4;stroke:#1f77b4;" x="266.206853" xlink:href="#m59cfed63e9" y="168.190769"/>
     <use style="fill:#1f77b4;stroke:#1f77b4;" x="267.342009" xlink:href="#m59cfed63e9" y="185.513885"/>
     <use style="fill:#1f77b4;stroke:#1f77b4;" x="268.477165" xlink:href="#m59cfed63e9" y="181.674204"/>
     <use style="fill:#1f77b4;stroke:#1f77b4;" x="269.61232" xlink:href="#m59cfed63e9" y="206.350003"/>
     <use style="fill:#1f77b4;stroke:#1f77b4;" x="270.747476" xlink:href="#m59cfed63e9" y="183.694742"/>
     <use style="fill:#1f77b4;stroke:#1f77b4;" x="271.882632" xlink:href="#m59cfed63e9" y="203.714823"/>
     <use style="fill:#1f77b4;stroke:#1f77b4;" x="273.017788" xlink:href="#m59cfed63e9" y="199.840214"/>
     <use style="fill:#1f77b4;stroke:#1f77b4;" x="274.152943" xlink:href="#m59cfed63e9" y="189.919584"/>
     <use style="fill:#1f77b4;stroke:#1f77b4;" x="275.288099" xlink:href="#m59cfed63e9" y="174.65084"/>
     <use style="fill:#1f77b4;stroke:#1f77b4;" x="276.423255" xlink:href="#m59cfed63e9" y="175.123605"/>
     <use style="fill:#1f77b4;stroke:#1f77b4;" x="277.558411" xlink:href="#m59cfed63e9" y="177.66205"/>
     <use style="fill:#1f77b4;stroke:#1f77b4;" x="278.693566" xlink:href="#m59cfed63e9" y="199.775626"/>
     <use style="fill:#1f77b4;stroke:#1f77b4;" x="279.828722" xlink:href="#m59cfed63e9" y="185.399137"/>
     <use style="fill:#1f77b4;stroke:#1f77b4;" x="280.963878" xlink:href="#m59cfed63e9" y="176.20046"/>
     <use style="fill:#1f77b4;stroke:#1f77b4;" x="282.099034" xlink:href="#m59cfed63e9" y="167.913879"/>
     <use style="fill:#1f77b4;stroke:#1f77b4;" x="283.234189" xlink:href="#m59cfed63e9" y="173.801789"/>
     <use style="fill:#1f77b4;stroke:#1f77b4;" x="284.369345" xlink:href="#m59cfed63e9" y="179.812857"/>
     <use style="fill:#1f77b4;stroke:#1f77b4;" x="285.504501" xlink:href="#m59cfed63e9" y="186.776481"/>
     <use style="fill:#1f77b4;stroke:#1f77b4;" x="286.639657" xlink:href="#m59cfed63e9" y="212.054411"/>
     <use style="fill:#1f77b4;stroke:#1f77b4;" x="287.774812" xlink:href="#m59cfed63e9" y="169.753735"/>
     <use style="fill:#1f77b4;stroke:#1f77b4;" x="288.909968" xlink:href="#m59cfed63e9" y="183.889198"/>
     <use style="fill:#1f77b4;stroke:#1f77b4;" x="290.045124" xlink:href="#m59cfed63e9" y="192.588875"/>
     <use style="fill:#1f77b4;stroke:#1f77b4;" x="291.18028" xlink:href="#m59cfed63e9" y="170.159508"/>
     <use style="fill:#1f77b4;stroke:#1f77b4;" x="292.315435" xlink:href="#m59cfed63e9" y="196.202994"/>
     <use style="fill:#1f77b4;stroke:#1f77b4;" x="293.450591" xlink:href="#m59cfed63e9" y="180.847914"/>
     <use style="fill:#1f77b4;stroke:#1f77b4;" x="294.585747" xlink:href="#m59cfed63e9" y="178.198567"/>
     <use style="fill:#1f77b4;stroke:#1f77b4;" x="295.720903" xlink:href="#m59cfed63e9" y="176.894365"/>
     <use style="fill:#1f77b4;stroke:#1f77b4;" x="296.856058" xlink:href="#m59cfed63e9" y="182.236334"/>
     <use style="fill:#1f77b4;stroke:#1f77b4;" x="297.991214" xlink:href="#m59cfed63e9" y="172.246147"/>
     <use style="fill:#1f77b4;stroke:#1f77b4;" x="299.12637" xlink:href="#m59cfed63e9" y="203.276305"/>
     <use style="fill:#1f77b4;stroke:#1f77b4;" x="300.261526" xlink:href="#m59cfed63e9" y="202.680191"/>
     <use style="fill:#1f77b4;stroke:#1f77b4;" x="301.396682" xlink:href="#m59cfed63e9" y="185.378156"/>
     <use style="fill:#1f77b4;stroke:#1f77b4;" x="302.531837" xlink:href="#m59cfed63e9" y="222.975311"/>
     <use style="fill:#1f77b4;stroke:#1f77b4;" x="303.666993" xlink:href="#m59cfed63e9" y="182.043292"/>
     <use style="fill:#1f77b4;stroke:#1f77b4;" x="304.802149" xlink:href="#m59cfed63e9" y="181.90586"/>
     <use style="fill:#1f77b4;stroke:#1f77b4;" x="305.937305" xlink:href="#m59cfed63e9" y="207.112808"/>
     <use style="fill:#1f77b4;stroke:#1f77b4;" x="307.07246" xlink:href="#m59cfed63e9" y="191.441499"/>
     <use style="fill:#1f77b4;stroke:#1f77b4;" x="308.207616" xlink:href="#m59cfed63e9" y="192.270751"/>
     <use style="fill:#1f77b4;stroke:#1f77b4;" x="309.342772" xlink:href="#m59cfed63e9" y="188.655995"/>
     <use style="fill:#1f77b4;stroke:#1f77b4;" x="310.477928" xlink:href="#m59cfed63e9" y="186.97539"/>
     <use style="fill:#1f77b4;stroke:#1f77b4;" x="311.613083" xlink:href="#m59cfed63e9" y="192.991918"/>
     <use style="fill:#1f77b4;stroke:#1f77b4;" x="312.748239" xlink:href="#m59cfed63e9" y="157.252096"/>
     <use style="fill:#1f77b4;stroke:#1f77b4;" x="313.883395" xlink:href="#m59cfed63e9" y="177.391037"/>
     <use style="fill:#1f77b4;stroke:#1f77b4;" x="315.018551" xlink:href="#m59cfed63e9" y="211.858923"/>
     <use style="fill:#1f77b4;stroke:#1f77b4;" x="316.153706" xlink:href="#m59cfed63e9" y="201.833955"/>
     <use style="fill:#1f77b4;stroke:#1f77b4;" x="317.288862" xlink:href="#m59cfed63e9" y="193.056945"/>
     <use style="fill:#1f77b4;stroke:#1f77b4;" x="318.424018" xlink:href="#m59cfed63e9" y="188.833541"/>
     <use style="fill:#1f77b4;stroke:#1f77b4;" x="319.559174" xlink:href="#m59cfed63e9" y="201.907965"/>
     <use style="fill:#1f77b4;stroke:#1f77b4;" x="320.694329" xlink:href="#m59cfed63e9" y="191.732714"/>
     <use style="fill:#1f77b4;stroke:#1f77b4;" x="321.829485" xlink:href="#m59cfed63e9" y="199.614967"/>
     <use style="fill:#1f77b4;stroke:#1f77b4;" x="322.964641" xlink:href="#m59cfed63e9" y="171.791453"/>
     <use style="fill:#1f77b4;stroke:#1f77b4;" x="324.099797" xlink:href="#m59cfed63e9" y="175.791777"/>
     <use style="fill:#1f77b4;stroke:#1f77b4;" x="325.234952" xlink:href="#m59cfed63e9" y="176.652027"/>
     <use style="fill:#1f77b4;stroke:#1f77b4;" x="326.370108" xlink:href="#m59cfed63e9" y="171.350165"/>
     <use style="fill:#1f77b4;stroke:#1f77b4;" x="327.505264" xlink:href="#m59cfed63e9" y="175.662065"/>
     <use style="fill:#1f77b4;stroke:#1f77b4;" x="328.64042" xlink:href="#m59cfed63e9" y="175.697382"/>
     <use style="fill:#1f77b4;stroke:#1f77b4;" x="329.775575" xlink:href="#m59cfed63e9" y="170.713511"/>
     <use style="fill:#1f77b4;stroke:#1f77b4;" x="330.910731" xlink:href="#m59cfed63e9" y="196.008566"/>
     <use style="fill:#1f77b4;stroke:#1f77b4;" x="332.045887" xlink:href="#m59cfed63e9" y="174.353237"/>
     <use style="fill:#1f77b4;stroke:#1f77b4;" x="333.181043" xlink:href="#m59cfed63e9" y="177.363149"/>
     <use style="fill:#1f77b4;stroke:#1f77b4;" x="334.316198" xlink:href="#m59cfed63e9" y="170.848348"/>
     <use style="fill:#1f77b4;stroke:#1f77b4;" x="335.451354" xlink:href="#m59cfed63e9" y="181.263087"/>
     <use style="fill:#1f77b4;stroke:#1f77b4;" x="336.58651" xlink:href="#m59cfed63e9" y="173.841004"/>
     <use style="fill:#1f77b4;stroke:#1f77b4;" x="337.721666" xlink:href="#m59cfed63e9" y="176.115449"/>
     <use style="fill:#1f77b4;stroke:#1f77b4;" x="338.856821" xlink:href="#m59cfed63e9" y="170.932678"/>
     <use style="fill:#1f77b4;stroke:#1f77b4;" x="339.991977" xlink:href="#m59cfed63e9" y="182.885315"/>
     <use style="fill:#1f77b4;stroke:#1f77b4;" x="341.127133" xlink:href="#m59cfed63e9" y="179.535977"/>
     <use style="fill:#1f77b4;stroke:#1f77b4;" x="342.262289" xlink:href="#m59cfed63e9" y="188.102916"/>
     <use style="fill:#1f77b4;stroke:#1f77b4;" x="343.397444" xlink:href="#m59cfed63e9" y="210.402056"/>
     <use style="fill:#1f77b4;stroke:#1f77b4;" x="344.5326" xlink:href="#m59cfed63e9" y="181.6793"/>
     <use style="fill:#1f77b4;stroke:#1f77b4;" x="345.667756" xlink:href="#m59cfed63e9" y="175.803032"/>
     <use style="fill:#1f77b4;stroke:#1f77b4;" x="346.802912" xlink:href="#m59cfed63e9" y="208.501736"/>
     <use style="fill:#1f77b4;stroke:#1f77b4;" x="347.938067" xlink:href="#m59cfed63e9" y="187.881069"/>
     <use style="fill:#1f77b4;stroke:#1f77b4;" x="349.073223" xlink:href="#m59cfed63e9" y="170.053518"/>
     <use style="fill:#1f77b4;stroke:#1f77b4;" x="350.208379" xlink:href="#m59cfed63e9" y="180.318085"/>
     <use style="fill:#1f77b4;stroke:#1f77b4;" x="351.343535" xlink:href="#m59cfed63e9" y="216.913381"/>
     <use style="fill:#1f77b4;stroke:#1f77b4;" x="352.47869" xlink:href="#m59cfed63e9" y="180.961807"/>
     <use style="fill:#1f77b4;stroke:#1f77b4;" x="353.613846" xlink:href="#m59cfed63e9" y="181.220504"/>
     <use style="fill:#1f77b4;stroke:#1f77b4;" x="354.749002" xlink:href="#m59cfed63e9" y="172.339231"/>
     <use style="fill:#1f77b4;stroke:#1f77b4;" x="355.884158" xlink:href="#m59cfed63e9" y="192.942048"/>
     <use style="fill:#1f77b4;stroke:#1f77b4;" x="357.019313" xlink:href="#m59cfed63e9" y="167.812255"/>
     <use style="fill:#1f77b4;stroke:#1f77b4;" x="358.154469" xlink:href="#m59cfed63e9" y="179.307577"/>
     <use style="fill:#1f77b4;stroke:#1f77b4;" x="359.289625" xlink:href="#m59cfed63e9" y="167.180752"/>
     <use style="fill:#1f77b4;stroke:#1f77b4;" x="360.424781" xlink:href="#m59cfed63e9" y="174.609278"/>
     <use style="fill:#1f77b4;stroke:#1f77b4;" x="361.559936" xlink:href="#m59cfed63e9" y="188.847923"/>
     <use style="fill:#1f77b4;stroke:#1f77b4;" x="362.695092" xlink:href="#m59cfed63e9" y="195.170603"/>
     <use style="fill:#1f77b4;stroke:#1f77b4;" x="363.830248" xlink:href="#m59cfed63e9" y="184.613608"/>
     <use style="fill:#1f77b4;stroke:#1f77b4;" x="364.965404" xlink:href="#m59cfed63e9" y="192.714081"/>
     <use style="fill:#1f77b4;stroke:#1f77b4;" x="366.100559" xlink:href="#m59cfed63e9" y="181.41171"/>
     <use style="fill:#1f77b4;stroke:#1f77b4;" x="367.235715" xlink:href="#m59cfed63e9" y="185.121367"/>
     <use style="fill:#1f77b4;stroke:#1f77b4;" x="368.370871" xlink:href="#m59cfed63e9" y="168.534937"/>
     <use style="fill:#1f77b4;stroke:#1f77b4;" x="369.506027" xlink:href="#m59cfed63e9" y="213.309178"/>
     <use style="fill:#1f77b4;stroke:#1f77b4;" x="370.641182" xlink:href="#m59cfed63e9" y="195.514677"/>
     <use style="fill:#1f77b4;stroke:#1f77b4;" x="371.776338" xlink:href="#m59cfed63e9" y="177.46904"/>
     <use style="fill:#1f77b4;stroke:#1f77b4;" x="372.911494" xlink:href="#m59cfed63e9" y="177.042872"/>
     <use style="fill:#1f77b4;stroke:#1f77b4;" x="374.04665" xlink:href="#m59cfed63e9" y="182.265773"/>
     <use style="fill:#1f77b4;stroke:#1f77b4;" x="375.181805" xlink:href="#m59cfed63e9" y="212.647674"/>
     <use style="fill:#1f77b4;stroke:#1f77b4;" x="376.316961" xlink:href="#m59cfed63e9" y="198.933313"/>
     <use style="fill:#1f77b4;stroke:#1f77b4;" x="377.142605" xlink:href="#m59cfed63e9" y="22383.514"/>
    </g>
   </g>
   <g id="line2d_13">
    <path clip-path="url(#p23fcac743e)" d="M 55.067883 22.685224 
L 56.203039 34.049328 
L 57.338195 44.689256 
L 58.47335 55.035731 
L 59.608506 66.106611 
L 60.743662 76.753136 
L 61.878818 87.66887 
L 63.013973 98.431949 
L 64.149129 109.328514 
L 65.284285 120.595033 
L 66.419441 130.728038 
L 67.554596 142.211313 
L 68.689752 151.817448 
" style="fill:none;stroke:#2ca02c;stroke-dasharray:1.5,2.475;stroke-dashoffset:0;stroke-width:1.5;"/>
    <defs>
     <path d="M -3 3 
L 3 -3 
M -3 -3 
L 3 3 
" id="m73de8ddc21" style="stroke:#2ca02c;"/>
    </defs>
    <g clip-path="url(#p23fcac743e)">
     <use style="fill:#2ca02c;stroke:#2ca02c;" x="55.067883" xlink:href="#m73de8ddc21" y="22.685224"/>
     <use style="fill:#2ca02c;stroke:#2ca02c;" x="56.203039" xlink:href="#m73de8ddc21" y="34.049328"/>
     <use style="fill:#2ca02c;stroke:#2ca02c;" x="57.338195" xlink:href="#m73de8ddc21" y="44.689256"/>
     <use style="fill:#2ca02c;stroke:#2ca02c;" x="58.47335" xlink:href="#m73de8ddc21" y="55.035731"/>
     <use style="fill:#2ca02c;stroke:#2ca02c;" x="59.608506" xlink:href="#m73de8ddc21" y="66.106611"/>
     <use style="fill:#2ca02c;stroke:#2ca02c;" x="60.743662" xlink:href="#m73de8ddc21" y="76.753136"/>
     <use style="fill:#2ca02c;stroke:#2ca02c;" x="61.878818" xlink:href="#m73de8ddc21" y="87.66887"/>
     <use style="fill:#2ca02c;stroke:#2ca02c;" x="63.013973" xlink:href="#m73de8ddc21" y="98.431949"/>
     <use style="fill:#2ca02c;stroke:#2ca02c;" x="64.149129" xlink:href="#m73de8ddc21" y="109.328514"/>
     <use style="fill:#2ca02c;stroke:#2ca02c;" x="65.284285" xlink:href="#m73de8ddc21" y="120.595033"/>
     <use style="fill:#2ca02c;stroke:#2ca02c;" x="66.419441" xlink:href="#m73de8ddc21" y="130.728038"/>
     <use style="fill:#2ca02c;stroke:#2ca02c;" x="67.554596" xlink:href="#m73de8ddc21" y="142.211313"/>
     <use style="fill:#2ca02c;stroke:#2ca02c;" x="68.689752" xlink:href="#m73de8ddc21" y="151.817448"/>
    </g>
   </g>
   <g id="line2d_14">
    <path clip-path="url(#p23fcac743e)" d="M 55.067883 82.948078 
L 79.14175 311.86825 
L 79.14175 311.86825 
" style="fill:none;stroke:#000000;stroke-dasharray:5.55,2.4;stroke-dashoffset:0;stroke-width:1.5;"/>
   </g>
   <g id="patch_3">
    <path d="M 37.7 273.312 
L 37.7 7.2 
" style="fill:none;stroke:#000000;stroke-linecap:square;stroke-linejoin:miter;stroke-width:0.8;"/>
   </g>
   <g id="patch_4">
    <path d="M 394.82 273.312 
L 394.82 7.2 
" style="fill:none;stroke:#000000;stroke-linecap:square;stroke-linejoin:miter;stroke-width:0.8;"/>
   </g>
   <g id="patch_5">
    <path d="M 37.7 273.312 
L 394.82 273.312 
" style="fill:none;stroke:#000000;stroke-linecap:square;stroke-linejoin:miter;stroke-width:0.8;"/>
   </g>
   <g id="patch_6">
    <path d="M 37.7 7.2 
L 394.82 7.2 
" style="fill:none;stroke:#000000;stroke-linecap:square;stroke-linejoin:miter;stroke-width:0.8;"/>
   </g>
   <g id="legend_1">
    <g id="patch_7">
     <path d="M 287.02 59.25625 
L 387.82 59.25625 
Q 389.82 59.25625 389.82 57.25625 
L 389.82 14.2 
Q 389.82 12.2 387.82 12.2 
L 287.02 12.2 
Q 285.02 12.2 285.02 14.2 
L 285.02 57.25625 
Q 285.02 59.25625 287.02 59.25625 
z
" style="fill:#ffffff;opacity:0.8;"/>
    </g>
    <g id="line2d_15">
     <path d="M 289.02 20.298437 
L 309.02 20.298437 
" style="fill:none;stroke:#1f77b4;stroke-linecap:square;stroke-width:1.5;"/>
    </g>
    <g id="line2d_16">
     <g>
      <use style="fill:#1f77b4;stroke:#1f77b4;" x="299.02" xlink:href="#m59cfed63e9" y="20.298437"/>
     </g>
    </g>
    <g id="text_13">
     <!-- APD$_n$ - APD$_\infty$ -->
     <defs>
      <path d="M 34.1875 63.1875 
L 20.796875 26.90625 
L 47.609375 26.90625 
z
M 28.609375 72.90625 
L 39.796875 72.90625 
L 67.578125 0 
L 57.328125 0 
L 50.6875 18.703125 
L 17.828125 18.703125 
L 11.1875 0 
L 0.78125 0 
z
" id="DejaVuSans-65"/>
      <path d="M 19.671875 64.796875 
L 19.671875 37.40625 
L 32.078125 37.40625 
Q 38.96875 37.40625 42.71875 40.96875 
Q 46.484375 44.53125 46.484375 51.125 
Q 46.484375 57.671875 42.71875 61.234375 
Q 38.96875 64.796875 32.078125 64.796875 
z
M 9.8125 72.90625 
L 32.078125 72.90625 
Q 44.34375 72.90625 50.609375 67.359375 
Q 56.890625 61.8125 56.890625 51.125 
Q 56.890625 40.328125 50.609375 34.8125 
Q 44.34375 29.296875 32.078125 29.296875 
L 19.671875 29.296875 
L 19.671875 0 
L 9.8125 0 
z
" id="DejaVuSans-80"/>
      <path d="M 19.671875 64.796875 
L 19.671875 8.109375 
L 31.59375 8.109375 
Q 46.6875 8.109375 53.6875 14.9375 
Q 60.6875 21.78125 60.6875 36.53125 
Q 60.6875 51.171875 53.6875 57.984375 
Q 46.6875 64.796875 31.59375 64.796875 
z
M 9.8125 72.90625 
L 30.078125 72.90625 
Q 51.265625 72.90625 61.171875 64.09375 
Q 71.09375 55.28125 71.09375 36.53125 
Q 71.09375 17.671875 61.125 8.828125 
Q 51.171875 0 30.078125 0 
L 9.8125 0 
z
" id="DejaVuSans-68"/>
      <path d="M 55.71875 33.015625 
L 49.3125 0 
L 40.28125 0 
L 46.6875 32.671875 
Q 47.125 34.96875 47.359375 36.71875 
Q 47.609375 38.484375 47.609375 39.5 
Q 47.609375 43.609375 45.015625 45.890625 
Q 42.4375 48.1875 37.796875 48.1875 
Q 30.5625 48.1875 25.34375 43.375 
Q 20.125 38.578125 18.5 30.328125 
L 12.5 0 
L 3.515625 0 
L 14.109375 54.6875 
L 23.09375 54.6875 
L 21.296875 46.09375 
Q 25.046875 50.828125 30.3125 53.40625 
Q 35.59375 56 41.40625 56 
Q 48.640625 56 52.609375 52.09375 
Q 56.59375 48.1875 56.59375 41.109375 
Q 56.59375 39.359375 56.375 37.359375 
Q 56.15625 35.359375 55.71875 33.015625 
z
" id="DejaVuSans-Oblique-110"/>
      <path id="DejaVuSans-32"/>
      <path d="M 4.890625 31.390625 
L 31.203125 31.390625 
L 31.203125 23.390625 
L 4.890625 23.390625 
z
" id="DejaVuSans-45"/>
      <path d="M 45.5625 17.046875 
Q 44.046875 18.796875 41.65625 22.90625 
Q 38.375 17.046875 35.5 14.453125 
Q 31.890625 11.328125 26.265625 11.328125 
Q 19.671875 11.328125 15.328125 16.265625 
Q 10.75 21.4375 10.75 29.984375 
Q 10.75 38.1875 15.328125 43.75 
Q 19.4375 48.6875 26.375 48.6875 
Q 29.9375 48.6875 32.5625 47.21875 
Q 35.640625 45.609375 37.75 42.828125 
Q 39.703125 40.328125 41.65625 36.96875 
Q 44.921875 42.828125 47.796875 45.40625 
Q 51.421875 48.53125 57.03125 48.53125 
Q 63.625 48.53125 67.96875 43.609375 
Q 72.5625 38.421875 72.5625 29.890625 
Q 72.5625 21.6875 67.96875 16.109375 
Q 63.875 11.1875 56.9375 11.1875 
Q 53.375 11.1875 50.734375 12.640625 
Q 48.09375 13.96875 45.5625 17.046875 
z
M 25.734375 17.71875 
Q 33.796875 17.71875 38.625 29.4375 
Q 32.421875 42.234375 25.734375 42.234375 
Q 20.84375 42.234375 18.359375 38.71875 
Q 15.671875 34.96875 15.671875 29.984375 
Q 15.671875 24.515625 18.359375 21.140625 
Q 21.09375 17.71875 25.734375 17.71875 
z
M 57.5625 42.140625 
Q 50.296875 42.140625 44.671875 30.421875 
Q 50.828125 17.625 57.5625 17.625 
Q 62.453125 17.625 64.9375 21.140625 
Q 67.625 24.90625 67.625 29.890625 
Q 67.625 35.359375 64.9375 38.71875 
Q 62.203125 42.140625 57.5625 42.140625 
z
" id="DejaVuSans-8734"/>
     </defs>
     <g transform="translate(317.02 23.798437)scale(0.1 -0.1)">
      <use transform="translate(0 0.09375)" xlink:href="#DejaVuSans-65"/>
      <use transform="translate(68.408203 0.09375)" xlink:href="#DejaVuSans-80"/>
      <use transform="translate(128.710938 0.09375)" xlink:href="#DejaVuSans-68"/>
      <use transform="translate(206.669922 -16.3125)scale(0.7)" xlink:href="#DejaVuSans-Oblique-110"/>
      <use transform="translate(253.769531 0.09375)" xlink:href="#DejaVuSans-32"/>
      <use transform="translate(285.556641 0.09375)" xlink:href="#DejaVuSans-45"/>
      <use transform="translate(321.640625 0.09375)" xlink:href="#DejaVuSans-32"/>
      <use transform="translate(353.427734 0.09375)" xlink:href="#DejaVuSans-65"/>
      <use transform="translate(421.835938 0.09375)" xlink:href="#DejaVuSans-80"/>
      <use transform="translate(482.138672 0.09375)" xlink:href="#DejaVuSans-68"/>
      <use transform="translate(560.097656 -16.3125)scale(0.7)" xlink:href="#DejaVuSans-8734"/>
     </g>
    </g>
    <g id="line2d_17">
     <path d="M 289.02 34.976562 
L 309.02 34.976562 
" style="fill:none;stroke:#2ca02c;stroke-dasharray:1.5,2.475;stroke-dashoffset:0;stroke-width:1.5;"/>
    </g>
    <g id="line2d_18">
     <g>
      <use style="fill:#2ca02c;stroke:#2ca02c;" x="299.02" xlink:href="#m73de8ddc21" y="34.976562"/>
     </g>
    </g>
    <g id="text_14">
     <!-- linear region -->
     <defs>
      <path d="M 9.421875 75.984375 
L 18.40625 75.984375 
L 18.40625 0 
L 9.421875 0 
z
" id="DejaVuSans-108"/>
      <path d="M 9.421875 54.6875 
L 18.40625 54.6875 
L 18.40625 0 
L 9.421875 0 
z
M 9.421875 75.984375 
L 18.40625 75.984375 
L 18.40625 64.59375 
L 9.421875 64.59375 
z
" id="DejaVuSans-105"/>
      <path d="M 54.890625 33.015625 
L 54.890625 0 
L 45.90625 0 
L 45.90625 32.71875 
Q 45.90625 40.484375 42.875 44.328125 
Q 39.84375 48.1875 33.796875 48.1875 
Q 26.515625 48.1875 22.3125 43.546875 
Q 18.109375 38.921875 18.109375 30.90625 
L 18.109375 0 
L 9.078125 0 
L 9.078125 54.6875 
L 18.109375 54.6875 
L 18.109375 46.1875 
Q 21.34375 51.125 25.703125 53.5625 
Q 30.078125 56 35.796875 56 
Q 45.21875 56 50.046875 50.171875 
Q 54.890625 44.34375 54.890625 33.015625 
z
" id="DejaVuSans-110"/>
      <path d="M 56.203125 29.59375 
L 56.203125 25.203125 
L 14.890625 25.203125 
Q 15.484375 15.921875 20.484375 11.0625 
Q 25.484375 6.203125 34.421875 6.203125 
Q 39.59375 6.203125 44.453125 7.46875 
Q 49.3125 8.734375 54.109375 11.28125 
L 54.109375 2.78125 
Q 49.265625 0.734375 44.1875 -0.34375 
Q 39.109375 -1.421875 33.890625 -1.421875 
Q 20.796875 -1.421875 13.15625 6.1875 
Q 5.515625 13.8125 5.515625 26.8125 
Q 5.515625 40.234375 12.765625 48.109375 
Q 20.015625 56 32.328125 56 
Q 43.359375 56 49.78125 48.890625 
Q 56.203125 41.796875 56.203125 29.59375 
z
M 47.21875 32.234375 
Q 47.125 39.59375 43.09375 43.984375 
Q 39.0625 48.390625 32.421875 48.390625 
Q 24.90625 48.390625 20.390625 44.140625 
Q 15.875 39.890625 15.1875 32.171875 
z
" id="DejaVuSans-101"/>
      <path d="M 34.28125 27.484375 
Q 23.390625 27.484375 19.1875 25 
Q 14.984375 22.515625 14.984375 16.5 
Q 14.984375 11.71875 18.140625 8.90625 
Q 21.296875 6.109375 26.703125 6.109375 
Q 34.1875 6.109375 38.703125 11.40625 
Q 43.21875 16.703125 43.21875 25.484375 
L 43.21875 27.484375 
z
M 52.203125 31.203125 
L 52.203125 0 
L 43.21875 0 
L 43.21875 8.296875 
Q 40.140625 3.328125 35.546875 0.953125 
Q 30.953125 -1.421875 24.3125 -1.421875 
Q 15.921875 -1.421875 10.953125 3.296875 
Q 6 8.015625 6 15.921875 
Q 6 25.140625 12.171875 29.828125 
Q 18.359375 34.515625 30.609375 34.515625 
L 43.21875 34.515625 
L 43.21875 35.40625 
Q 43.21875 41.609375 39.140625 45 
Q 35.0625 48.390625 27.6875 48.390625 
Q 23 48.390625 18.546875 47.265625 
Q 14.109375 46.140625 10.015625 43.890625 
L 10.015625 52.203125 
Q 14.9375 54.109375 19.578125 55.046875 
Q 24.21875 56 28.609375 56 
Q 40.484375 56 46.34375 49.84375 
Q 52.203125 43.703125 52.203125 31.203125 
z
" id="DejaVuSans-97"/>
      <path d="M 41.109375 46.296875 
Q 39.59375 47.171875 37.8125 47.578125 
Q 36.03125 48 33.890625 48 
Q 26.265625 48 22.1875 43.046875 
Q 18.109375 38.09375 18.109375 28.8125 
L 18.109375 0 
L 9.078125 0 
L 9.078125 54.6875 
L 18.109375 54.6875 
L 18.109375 46.1875 
Q 20.953125 51.171875 25.484375 53.578125 
Q 30.03125 56 36.53125 56 
Q 37.453125 56 38.578125 55.875 
Q 39.703125 55.765625 41.0625 55.515625 
z
" id="DejaVuSans-114"/>
      <path d="M 45.40625 27.984375 
Q 45.40625 37.75 41.375 43.109375 
Q 37.359375 48.484375 30.078125 48.484375 
Q 22.859375 48.484375 18.828125 43.109375 
Q 14.796875 37.75 14.796875 27.984375 
Q 14.796875 18.265625 18.828125 12.890625 
Q 22.859375 7.515625 30.078125 7.515625 
Q 37.359375 7.515625 41.375 12.890625 
Q 45.40625 18.265625 45.40625 27.984375 
z
M 54.390625 6.78125 
Q 54.390625 -7.171875 48.1875 -13.984375 
Q 42 -20.796875 29.203125 -20.796875 
Q 24.46875 -20.796875 20.265625 -20.09375 
Q 16.0625 -19.390625 12.109375 -17.921875 
L 12.109375 -9.1875 
Q 16.0625 -11.328125 19.921875 -12.34375 
Q 23.78125 -13.375 27.78125 -13.375 
Q 36.625 -13.375 41.015625 -8.765625 
Q 45.40625 -4.15625 45.40625 5.171875 
L 45.40625 9.625 
Q 42.625 4.78125 38.28125 2.390625 
Q 33.9375 0 27.875 0 
Q 17.828125 0 11.671875 7.65625 
Q 5.515625 15.328125 5.515625 27.984375 
Q 5.515625 40.671875 11.671875 48.328125 
Q 17.828125 56 27.875 56 
Q 33.9375 56 38.28125 53.609375 
Q 42.625 51.21875 45.40625 46.390625 
L 45.40625 54.6875 
L 54.390625 54.6875 
z
" id="DejaVuSans-103"/>
      <path d="M 30.609375 48.390625 
Q 23.390625 48.390625 19.1875 42.75 
Q 14.984375 37.109375 14.984375 27.296875 
Q 14.984375 17.484375 19.15625 11.84375 
Q 23.34375 6.203125 30.609375 6.203125 
Q 37.796875 6.203125 41.984375 11.859375 
Q 46.1875 17.53125 46.1875 27.296875 
Q 46.1875 37.015625 41.984375 42.703125 
Q 37.796875 48.390625 30.609375 48.390625 
z
M 30.609375 56 
Q 42.328125 56 49.015625 48.375 
Q 55.71875 40.765625 55.71875 27.296875 
Q 55.71875 13.875 49.015625 6.21875 
Q 42.328125 -1.421875 30.609375 -1.421875 
Q 18.84375 -1.421875 12.171875 6.21875 
Q 5.515625 13.875 5.515625 27.296875 
Q 5.515625 40.765625 12.171875 48.375 
Q 18.84375 56 30.609375 56 
z
" id="DejaVuSans-111"/>
     </defs>
     <g transform="translate(317.02 38.476562)scale(0.1 -0.1)">
      <use xlink:href="#DejaVuSans-108"/>
      <use x="27.783203" xlink:href="#DejaVuSans-105"/>
      <use x="55.566406" xlink:href="#DejaVuSans-110"/>
      <use x="118.945312" xlink:href="#DejaVuSans-101"/>
      <use x="180.46875" xlink:href="#DejaVuSans-97"/>
      <use x="241.748047" xlink:href="#DejaVuSans-114"/>
      <use x="282.861328" xlink:href="#DejaVuSans-32"/>
      <use x="314.648438" xlink:href="#DejaVuSans-114"/>
      <use x="353.511719" xlink:href="#DejaVuSans-101"/>
      <use x="415.035156" xlink:href="#DejaVuSans-103"/>
      <use x="478.511719" xlink:href="#DejaVuSans-105"/>
      <use x="506.294922" xlink:href="#DejaVuSans-111"/>
      <use x="567.476562" xlink:href="#DejaVuSans-110"/>
     </g>
    </g>
    <g id="line2d_19">
     <path d="M 289.02 49.65625 
L 309.02 49.65625 
" style="fill:none;stroke:#000000;stroke-dasharray:5.55,2.4;stroke-dashoffset:0;stroke-width:1.5;"/>
    </g>
    <g id="line2d_20"/>
    <g id="text_15">
     <!-- $ \exp(-0.812 k)$ -->
     <defs>
      <path d="M 54.890625 54.6875 
L 35.109375 28.078125 
L 55.90625 0 
L 45.3125 0 
L 29.390625 21.484375 
L 13.484375 0 
L 2.875 0 
L 24.125 28.609375 
L 4.6875 54.6875 
L 15.28125 54.6875 
L 29.78125 35.203125 
L 44.28125 54.6875 
z
" id="DejaVuSans-120"/>
      <path d="M 18.109375 8.203125 
L 18.109375 -20.796875 
L 9.078125 -20.796875 
L 9.078125 54.6875 
L 18.109375 54.6875 
L 18.109375 46.390625 
Q 20.953125 51.265625 25.265625 53.625 
Q 29.59375 56 35.59375 56 
Q 45.5625 56 51.78125 48.09375 
Q 58.015625 40.1875 58.015625 27.296875 
Q 58.015625 14.40625 51.78125 6.484375 
Q 45.5625 -1.421875 35.59375 -1.421875 
Q 29.59375 -1.421875 25.265625 0.953125 
Q 20.953125 3.328125 18.109375 8.203125 
z
M 48.6875 27.296875 
Q 48.6875 37.203125 44.609375 42.84375 
Q 40.53125 48.484375 33.40625 48.484375 
Q 26.265625 48.484375 22.1875 42.84375 
Q 18.109375 37.203125 18.109375 27.296875 
Q 18.109375 17.390625 22.1875 11.75 
Q 26.265625 6.109375 33.40625 6.109375 
Q 40.53125 6.109375 44.609375 11.75 
Q 48.6875 17.390625 48.6875 27.296875 
z
" id="DejaVuSans-112"/>
      <path d="M 31 75.875 
Q 24.46875 64.65625 21.28125 53.65625 
Q 18.109375 42.671875 18.109375 31.390625 
Q 18.109375 20.125 21.3125 9.0625 
Q 24.515625 -2 31 -13.1875 
L 23.1875 -13.1875 
Q 15.875 -1.703125 12.234375 9.375 
Q 8.59375 20.453125 8.59375 31.390625 
Q 8.59375 42.28125 12.203125 53.3125 
Q 15.828125 64.359375 23.1875 75.875 
z
" id="DejaVuSans-40"/>
      <path d="M 10.6875 12.40625 
L 21 12.40625 
L 21 0 
L 10.6875 0 
z
" id="DejaVuSans-46"/>
      <path d="M 31.78125 34.625 
Q 24.75 34.625 20.71875 30.859375 
Q 16.703125 27.09375 16.703125 20.515625 
Q 16.703125 13.921875 20.71875 10.15625 
Q 24.75 6.390625 31.78125 6.390625 
Q 38.8125 6.390625 42.859375 10.171875 
Q 46.921875 13.96875 46.921875 20.515625 
Q 46.921875 27.09375 42.890625 30.859375 
Q 38.875 34.625 31.78125 34.625 
z
M 21.921875 38.8125 
Q 15.578125 40.375 12.03125 44.71875 
Q 8.5 49.078125 8.5 55.328125 
Q 8.5 64.0625 14.71875 69.140625 
Q 20.953125 74.21875 31.78125 74.21875 
Q 42.671875 74.21875 48.875 69.140625 
Q 55.078125 64.0625 55.078125 55.328125 
Q 55.078125 49.078125 51.53125 44.71875 
Q 48 40.375 41.703125 38.8125 
Q 48.828125 37.15625 52.796875 32.3125 
Q 56.78125 27.484375 56.78125 20.515625 
Q 56.78125 9.90625 50.3125 4.234375 
Q 43.84375 -1.421875 31.78125 -1.421875 
Q 19.734375 -1.421875 13.25 4.234375 
Q 6.78125 9.90625 6.78125 20.515625 
Q 6.78125 27.484375 10.78125 32.3125 
Q 14.796875 37.15625 21.921875 38.8125 
z
M 18.3125 54.390625 
Q 18.3125 48.734375 21.84375 45.5625 
Q 25.390625 42.390625 31.78125 42.390625 
Q 38.140625 42.390625 41.71875 45.5625 
Q 45.3125 48.734375 45.3125 54.390625 
Q 45.3125 60.0625 41.71875 63.234375 
Q 38.140625 66.40625 31.78125 66.40625 
Q 25.390625 66.40625 21.84375 63.234375 
Q 18.3125 60.0625 18.3125 54.390625 
z
" id="DejaVuSans-56"/>
      <path d="M 8.015625 75.875 
L 15.828125 75.875 
Q 23.140625 64.359375 26.78125 53.3125 
Q 30.421875 42.28125 30.421875 31.390625 
Q 30.421875 20.453125 26.78125 9.375 
Q 23.140625 -1.703125 15.828125 -13.1875 
L 8.015625 -13.1875 
Q 14.5 -2 17.703125 9.0625 
Q 20.90625 20.125 20.90625 31.390625 
Q 20.90625 42.671875 17.703125 53.65625 
Q 14.5 64.65625 8.015625 75.875 
z
" id="DejaVuSans-41"/>
     </defs>
     <g transform="translate(317.02 53.15625)scale(0.1 -0.1)">
      <use transform="translate(0 0.015625)" xlink:href="#DejaVuSans-101"/>
      <use transform="translate(61.523438 0.015625)" xlink:href="#DejaVuSans-120"/>
      <use transform="translate(120.703125 0.015625)" xlink:href="#DejaVuSans-112"/>
      <use transform="translate(184.179688 0.015625)" xlink:href="#DejaVuSans-40"/>
      <use transform="translate(223.193359 0.015625)" xlink:href="#DejaVuSans-8722"/>
      <use transform="translate(306.982422 0.015625)" xlink:href="#DejaVuSans-48"/>
      <use transform="translate(370.605469 0.015625)" xlink:href="#DejaVuSans-46"/>
      <use transform="translate(399.767578 0.015625)" xlink:href="#DejaVuSans-56"/>
      <use transform="translate(463.390625 0.015625)" xlink:href="#DejaVuSans-49"/>
      <use transform="translate(527.013672 0.015625)" xlink:href="#DejaVuSans-50"/>
      <use transform="translate(590.636719 0.015625)" xlink:href="#DejaVuSans-Oblique-107"/>
      <use transform="translate(648.546875 0.015625)" xlink:href="#DejaVuSans-41"/>
     </g>
    </g>
   </g>
  </g>
 </g>
 <defs>
  <clipPath id="p23fcac743e">
   <rect height="266.112" width="357.12" x="37.7" y="7.2"/>
  </clipPath>
 </defs>
</svg>
