<?xml version="1.0" encoding="utf-8" standalone="no"?>
<!DOCTYPE svg PUBLIC "-//W3C//DTD SVG 1.1//EN"
  "http://www.w3.org/Graphics/SVG/1.1/DTD/svg11.dtd">
<!-- Created with matplotlib (https://matplotlib.org/) -->
<svg height="310.86825pt" version="1.1" viewBox="0 0 402.02 310.86825" width="402.02pt" xmlns="http://www.w3.org/2000/svg" xmlns:xlink="http://www.w3.org/1999/xlink">
 <defs>
  <style type="text/css">
*{stroke-linecap:butt;stroke-linejoin:round;}
  </style>
 </defs>
 <g id="figure_1">
  <g id="patch_1">
   <path d="M 0 310.86825 
L 402.02 310.86825 
L 402.02 0 
L 0 0 
z
" style="fill:#ffffff;"/>
  </g>
  <g id="axes_1">
   <g id="patch_2">
    <path d="M 37.7 273.312 
L 394.82 273.312 
L 394.82 7.2 
L 37.7 7.2 
z
" style="fill:#ffffff;"/>
   </g>
   <g id="matplotlib.axis_1">
    <g id="xtick_1">
     <g id="line2d_1">
      <defs>
       <path d="M 0 0 
L 0 3.5 
" id="m9422a6facd" style="stroke:#000000;stroke-width:0.8;"/>
      </defs>
      <g>
       <use style="stroke:#000000;stroke-width:0.8;" x="53.932727" xlink:href="#m9422a6facd" y="273.312"/>
      </g>
     </g>
     <g id="text_1">
      <!-- 0 -->
      <defs>
       <path d="M 31.78125 66.40625 
Q 24.171875 66.40625 20.328125 58.90625 
Q 16.5 51.421875 16.5 36.375 
Q 16.5 21.390625 20.328125 13.890625 
Q 24.171875 6.390625 31.78125 6.390625 
Q 39.453125 6.390625 43.28125 13.890625 
Q 47.125 21.390625 47.125 36.375 
Q 47.125 51.421875 43.28125 58.90625 
Q 39.453125 66.40625 31.78125 66.40625 
z
M 31.78125 74.21875 
Q 44.046875 74.21875 50.515625 64.515625 
Q 56.984375 54.828125 56.984375 36.375 
Q 56.984375 17.96875 50.515625 8.265625 
Q 44.046875 -1.421875 31.78125 -1.421875 
Q 19.53125 -1.421875 13.0625 8.265625 
Q 6.59375 17.96875 6.59375 36.375 
Q 6.59375 54.828125 13.0625 64.515625 
Q 19.53125 74.21875 31.78125 74.21875 
z
" id="DejaVuSans-48"/>
      </defs>
      <g transform="translate(50.751477 287.910437)scale(0.1 -0.1)">
       <use xlink:href="#DejaVuSans-48"/>
      </g>
     </g>
    </g>
    <g id="xtick_2">
     <g id="line2d_2">
      <g>
       <use style="stroke:#000000;stroke-width:0.8;" x="132.3517" xlink:href="#m9422a6facd" y="273.312"/>
      </g>
     </g>
     <g id="text_2">
      <!-- 50 -->
      <defs>
       <path d="M 10.796875 72.90625 
L 49.515625 72.90625 
L 49.515625 64.59375 
L 19.828125 64.59375 
L 19.828125 46.734375 
Q 21.96875 47.46875 24.109375 47.828125 
Q 26.265625 48.1875 28.421875 48.1875 
Q 40.625 48.1875 47.75 41.5 
Q 54.890625 34.8125 54.890625 23.390625 
Q 54.890625 11.625 47.5625 5.09375 
Q 40.234375 -1.421875 26.90625 -1.421875 
Q 22.3125 -1.421875 17.546875 -0.640625 
Q 12.796875 0.140625 7.71875 1.703125 
L 7.71875 11.625 
Q 12.109375 9.234375 16.796875 8.0625 
Q 21.484375 6.890625 26.703125 6.890625 
Q 35.15625 6.890625 40.078125 11.328125 
Q 45.015625 15.765625 45.015625 23.390625 
Q 45.015625 31 40.078125 35.4375 
Q 35.15625 39.890625 26.703125 39.890625 
Q 22.75 39.890625 18.8125 39.015625 
Q 14.890625 38.140625 10.796875 36.28125 
z
" id="DejaVuSans-53"/>
      </defs>
      <g transform="translate(125.9892 287.910437)scale(0.1 -0.1)">
       <use xlink:href="#DejaVuSans-53"/>
       <use x="63.623047" xlink:href="#DejaVuSans-48"/>
      </g>
     </g>
    </g>
    <g id="xtick_3">
     <g id="line2d_3">
      <g>
       <use style="stroke:#000000;stroke-width:0.8;" x="210.770672" xlink:href="#m9422a6facd" y="273.312"/>
      </g>
     </g>
     <g id="text_3">
      <!-- 100 -->
      <defs>
       <path d="M 12.40625 8.296875 
L 28.515625 8.296875 
L 28.515625 63.921875 
L 10.984375 60.40625 
L 10.984375 69.390625 
L 28.421875 72.90625 
L 38.28125 72.90625 
L 38.28125 8.296875 
L 54.390625 8.296875 
L 54.390625 0 
L 12.40625 0 
z
" id="DejaVuSans-49"/>
      </defs>
      <g transform="translate(201.226922 287.910437)scale(0.1 -0.1)">
       <use xlink:href="#DejaVuSans-49"/>
       <use x="63.623047" xlink:href="#DejaVuSans-48"/>
       <use x="127.246094" xlink:href="#DejaVuSans-48"/>
      </g>
     </g>
    </g>
    <g id="xtick_4">
     <g id="line2d_4">
      <g>
       <use style="stroke:#000000;stroke-width:0.8;" x="289.189644" xlink:href="#m9422a6facd" y="273.312"/>
      </g>
     </g>
     <g id="text_4">
      <!-- 150 -->
      <g transform="translate(279.645894 287.910437)scale(0.1 -0.1)">
       <use xlink:href="#DejaVuSans-49"/>
       <use x="63.623047" xlink:href="#DejaVuSans-53"/>
       <use x="127.246094" xlink:href="#DejaVuSans-48"/>
      </g>
     </g>
    </g>
    <g id="xtick_5">
     <g id="line2d_5">
      <g>
       <use style="stroke:#000000;stroke-width:0.8;" x="367.608617" xlink:href="#m9422a6facd" y="273.312"/>
      </g>
     </g>
     <g id="text_5">
      <!-- 200 -->
      <defs>
       <path d="M 19.1875 8.296875 
L 53.609375 8.296875 
L 53.609375 0 
L 7.328125 0 
L 7.328125 8.296875 
Q 12.9375 14.109375 22.625 23.890625 
Q 32.328125 33.6875 34.8125 36.53125 
Q 39.546875 41.84375 41.421875 45.53125 
Q 43.3125 49.21875 43.3125 52.78125 
Q 43.3125 58.59375 39.234375 62.25 
Q 35.15625 65.921875 28.609375 65.921875 
Q 23.96875 65.921875 18.8125 64.3125 
Q 13.671875 62.703125 7.8125 59.421875 
L 7.8125 69.390625 
Q 13.765625 71.78125 18.9375 73 
Q 24.125 74.21875 28.421875 74.21875 
Q 39.75 74.21875 46.484375 68.546875 
Q 53.21875 62.890625 53.21875 53.421875 
Q 53.21875 48.921875 51.53125 44.890625 
Q 49.859375 40.875 45.40625 35.40625 
Q 44.1875 33.984375 37.640625 27.21875 
Q 31.109375 20.453125 19.1875 8.296875 
z
" id="DejaVuSans-50"/>
      </defs>
      <g transform="translate(358.064867 287.910437)scale(0.1 -0.1)">
       <use xlink:href="#DejaVuSans-50"/>
       <use x="63.623047" xlink:href="#DejaVuSans-48"/>
       <use x="127.246094" xlink:href="#DejaVuSans-48"/>
      </g>
     </g>
    </g>
    <g id="text_6">
     <!-- $ k $ -->
     <defs>
      <path d="M 18.3125 75.984375 
L 27.296875 75.984375 
L 18.703125 31.6875 
L 49.515625 54.6875 
L 61.1875 54.6875 
L 26.8125 28.515625 
L 51.90625 0 
L 41.015625 0 
L 17.671875 26.703125 
L 12.5 0 
L 3.515625 0 
z
" id="DejaVuSans-Oblique-107"/>
     </defs>
     <g transform="translate(213.36 301.588562)scale(0.1 -0.1)">
      <use transform="translate(0 0.015625)" xlink:href="#DejaVuSans-Oblique-107"/>
     </g>
    </g>
   </g>
   <g id="matplotlib.axis_2">
    <g id="ytick_1">
     <g id="line2d_6">
      <defs>
       <path d="M 0 0 
L -3.5 0 
" id="m303bdd7f6a" style="stroke:#000000;stroke-width:0.8;"/>
      </defs>
      <g>
       <use style="stroke:#000000;stroke-width:0.8;" x="37.7" xlink:href="#m303bdd7f6a" y="244.646217"/>
      </g>
     </g>
     <g id="text_7">
      <!-- $\mathdefault{10^{-5}}$ -->
      <defs>
       <path d="M 10.59375 35.5 
L 73.1875 35.5 
L 73.1875 27.203125 
L 10.59375 27.203125 
z
" id="DejaVuSans-8722"/>
      </defs>
      <g transform="translate(7.2 248.445436)scale(0.1 -0.1)">
       <use transform="translate(0 0.684375)" xlink:href="#DejaVuSans-49"/>
       <use transform="translate(63.623047 0.684375)" xlink:href="#DejaVuSans-48"/>
       <use transform="translate(128.203125 38.965625)scale(0.7)" xlink:href="#DejaVuSans-8722"/>
       <use transform="translate(186.855469 38.965625)scale(0.7)" xlink:href="#DejaVuSans-53"/>
      </g>
     </g>
    </g>
    <g id="ytick_2">
     <g id="line2d_7">
      <g>
       <use style="stroke:#000000;stroke-width:0.8;" x="37.7" xlink:href="#m303bdd7f6a" y="209.611415"/>
      </g>
     </g>
     <g id="text_8">
      <!-- $\mathdefault{10^{-4}}$ -->
      <defs>
       <path d="M 37.796875 64.3125 
L 12.890625 25.390625 
L 37.796875 25.390625 
z
M 35.203125 72.90625 
L 47.609375 72.90625 
L 47.609375 25.390625 
L 58.015625 25.390625 
L 58.015625 17.1875 
L 47.609375 17.1875 
L 47.609375 0 
L 37.796875 0 
L 37.796875 17.1875 
L 4.890625 17.1875 
L 4.890625 26.703125 
z
" id="DejaVuSans-52"/>
      </defs>
      <g transform="translate(7.2 213.410634)scale(0.1 -0.1)">
       <use transform="translate(0 0.684375)" xlink:href="#DejaVuSans-49"/>
       <use transform="translate(63.623047 0.684375)" xlink:href="#DejaVuSans-48"/>
       <use transform="translate(128.203125 38.965625)scale(0.7)" xlink:href="#DejaVuSans-8722"/>
       <use transform="translate(186.855469 38.965625)scale(0.7)" xlink:href="#DejaVuSans-52"/>
      </g>
     </g>
    </g>
    <g id="ytick_3">
     <g id="line2d_8">
      <g>
       <use style="stroke:#000000;stroke-width:0.8;" x="37.7" xlink:href="#m303bdd7f6a" y="174.576613"/>
      </g>
     </g>
     <g id="text_9">
      <!-- $\mathdefault{10^{-3}}$ -->
      <defs>
       <path d="M 40.578125 39.3125 
Q 47.65625 37.796875 51.625 33 
Q 55.609375 28.21875 55.609375 21.1875 
Q 55.609375 10.40625 48.1875 4.484375 
Q 40.765625 -1.421875 27.09375 -1.421875 
Q 22.515625 -1.421875 17.65625 -0.515625 
Q 12.796875 0.390625 7.625 2.203125 
L 7.625 11.71875 
Q 11.71875 9.328125 16.59375 8.109375 
Q 21.484375 6.890625 26.8125 6.890625 
Q 36.078125 6.890625 40.9375 10.546875 
Q 45.796875 14.203125 45.796875 21.1875 
Q 45.796875 27.640625 41.28125 31.265625 
Q 36.765625 34.90625 28.71875 34.90625 
L 20.21875 34.90625 
L 20.21875 43.015625 
L 29.109375 43.015625 
Q 36.375 43.015625 40.234375 45.921875 
Q 44.09375 48.828125 44.09375 54.296875 
Q 44.09375 59.90625 40.109375 62.90625 
Q 36.140625 65.921875 28.71875 65.921875 
Q 24.65625 65.921875 20.015625 65.03125 
Q 15.375 64.15625 9.8125 62.3125 
L 9.8125 71.09375 
Q 15.4375 72.65625 20.34375 73.4375 
Q 25.25 74.21875 29.59375 74.21875 
Q 40.828125 74.21875 47.359375 69.109375 
Q 53.90625 64.015625 53.90625 55.328125 
Q 53.90625 49.265625 50.4375 45.09375 
Q 46.96875 40.921875 40.578125 39.3125 
z
" id="DejaVuSans-51"/>
      </defs>
      <g transform="translate(7.2 178.375832)scale(0.1 -0.1)">
       <use transform="translate(0 0.765625)" xlink:href="#DejaVuSans-49"/>
       <use transform="translate(63.623047 0.765625)" xlink:href="#DejaVuSans-48"/>
       <use transform="translate(128.203125 39.046875)scale(0.7)" xlink:href="#DejaVuSans-8722"/>
       <use transform="translate(186.855469 39.046875)scale(0.7)" xlink:href="#DejaVuSans-51"/>
      </g>
     </g>
    </g>
    <g id="ytick_4">
     <g id="line2d_9">
      <g>
       <use style="stroke:#000000;stroke-width:0.8;" x="37.7" xlink:href="#m303bdd7f6a" y="139.541811"/>
      </g>
     </g>
     <g id="text_10">
      <!-- $\mathdefault{10^{-2}}$ -->
      <g transform="translate(7.2 143.34103)scale(0.1 -0.1)">
       <use transform="translate(0 0.765625)" xlink:href="#DejaVuSans-49"/>
       <use transform="translate(63.623047 0.765625)" xlink:href="#DejaVuSans-48"/>
       <use transform="translate(128.203125 39.046875)scale(0.7)" xlink:href="#DejaVuSans-8722"/>
       <use transform="translate(186.855469 39.046875)scale(0.7)" xlink:href="#DejaVuSans-50"/>
      </g>
     </g>
    </g>
    <g id="ytick_5">
     <g id="line2d_10">
      <g>
       <use style="stroke:#000000;stroke-width:0.8;" x="37.7" xlink:href="#m303bdd7f6a" y="104.507009"/>
      </g>
     </g>
     <g id="text_11">
      <!-- $\mathdefault{10^{-1}}$ -->
      <g transform="translate(7.2 108.306228)scale(0.1 -0.1)">
       <use transform="translate(0 0.684375)" xlink:href="#DejaVuSans-49"/>
       <use transform="translate(63.623047 0.684375)" xlink:href="#DejaVuSans-48"/>
       <use transform="translate(128.203125 38.965625)scale(0.7)" xlink:href="#DejaVuSans-8722"/>
       <use transform="translate(186.855469 38.965625)scale(0.7)" xlink:href="#DejaVuSans-49"/>
      </g>
     </g>
    </g>
    <g id="ytick_6">
     <g id="line2d_11">
      <g>
       <use style="stroke:#000000;stroke-width:0.8;" x="37.7" xlink:href="#m303bdd7f6a" y="69.472207"/>
      </g>
     </g>
     <g id="text_12">
      <!-- $\mathdefault{10^{0}}$ -->
      <g transform="translate(13.1 73.271426)scale(0.1 -0.1)">
       <use transform="translate(0 0.765625)" xlink:href="#DejaVuSans-49"/>
       <use transform="translate(63.623047 0.765625)" xlink:href="#DejaVuSans-48"/>
       <use transform="translate(128.203125 39.046875)scale(0.7)" xlink:href="#DejaVuSans-48"/>
      </g>
     </g>
    </g>
    <g id="ytick_7">
     <g id="line2d_12">
      <g>
       <use style="stroke:#000000;stroke-width:0.8;" x="37.7" xlink:href="#m303bdd7f6a" y="34.437405"/>
      </g>
     </g>
     <g id="text_13">
      <!-- $\mathdefault{10^{1}}$ -->
      <g transform="translate(13.1 38.236624)scale(0.1 -0.1)">
       <use transform="translate(0 0.684375)" xlink:href="#DejaVuSans-49"/>
       <use transform="translate(63.623047 0.684375)" xlink:href="#DejaVuSans-48"/>
       <use transform="translate(128.203125 38.965625)scale(0.7)" xlink:href="#DejaVuSans-49"/>
      </g>
     </g>
    </g>
    <g id="ytick_8">
     <g id="line2d_13">
      <defs>
       <path d="M 0 0 
L -2 0 
" id="me4fbee2e15" style="stroke:#000000;stroke-width:0.6;"/>
      </defs>
      <g>
       <use style="stroke:#000000;stroke-width:0.6;" x="37.7" xlink:href="#me4fbee2e15" y="269.134493"/>
      </g>
     </g>
    </g>
    <g id="ytick_9">
     <g id="line2d_14">
      <g>
       <use style="stroke:#000000;stroke-width:0.6;" x="37.7" xlink:href="#me4fbee2e15" y="262.96517"/>
      </g>
     </g>
    </g>
    <g id="ytick_10">
     <g id="line2d_15">
      <g>
       <use style="stroke:#000000;stroke-width:0.6;" x="37.7" xlink:href="#me4fbee2e15" y="258.587966"/>
      </g>
     </g>
    </g>
    <g id="ytick_11">
     <g id="line2d_16">
      <g>
       <use style="stroke:#000000;stroke-width:0.6;" x="37.7" xlink:href="#me4fbee2e15" y="255.192743"/>
      </g>
     </g>
    </g>
    <g id="ytick_12">
     <g id="line2d_17">
      <g>
       <use style="stroke:#000000;stroke-width:0.6;" x="37.7" xlink:href="#me4fbee2e15" y="252.418644"/>
      </g>
     </g>
    </g>
    <g id="ytick_13">
     <g id="line2d_18">
      <g>
       <use style="stroke:#000000;stroke-width:0.6;" x="37.7" xlink:href="#me4fbee2e15" y="250.073177"/>
      </g>
     </g>
    </g>
    <g id="ytick_14">
     <g id="line2d_19">
      <g>
       <use style="stroke:#000000;stroke-width:0.6;" x="37.7" xlink:href="#me4fbee2e15" y="248.04144"/>
      </g>
     </g>
    </g>
    <g id="ytick_15">
     <g id="line2d_20">
      <g>
       <use style="stroke:#000000;stroke-width:0.6;" x="37.7" xlink:href="#me4fbee2e15" y="246.249322"/>
      </g>
     </g>
    </g>
    <g id="ytick_16">
     <g id="line2d_21">
      <g>
       <use style="stroke:#000000;stroke-width:0.6;" x="37.7" xlink:href="#me4fbee2e15" y="234.099691"/>
      </g>
     </g>
    </g>
    <g id="ytick_17">
     <g id="line2d_22">
      <g>
       <use style="stroke:#000000;stroke-width:0.6;" x="37.7" xlink:href="#me4fbee2e15" y="227.930368"/>
      </g>
     </g>
    </g>
    <g id="ytick_18">
     <g id="line2d_23">
      <g>
       <use style="stroke:#000000;stroke-width:0.6;" x="37.7" xlink:href="#me4fbee2e15" y="223.553165"/>
      </g>
     </g>
    </g>
    <g id="ytick_19">
     <g id="line2d_24">
      <g>
       <use style="stroke:#000000;stroke-width:0.6;" x="37.7" xlink:href="#me4fbee2e15" y="220.157941"/>
      </g>
     </g>
    </g>
    <g id="ytick_20">
     <g id="line2d_25">
      <g>
       <use style="stroke:#000000;stroke-width:0.6;" x="37.7" xlink:href="#me4fbee2e15" y="217.383842"/>
      </g>
     </g>
    </g>
    <g id="ytick_21">
     <g id="line2d_26">
      <g>
       <use style="stroke:#000000;stroke-width:0.6;" x="37.7" xlink:href="#me4fbee2e15" y="215.038375"/>
      </g>
     </g>
    </g>
    <g id="ytick_22">
     <g id="line2d_27">
      <g>
       <use style="stroke:#000000;stroke-width:0.6;" x="37.7" xlink:href="#me4fbee2e15" y="213.006638"/>
      </g>
     </g>
    </g>
    <g id="ytick_23">
     <g id="line2d_28">
      <g>
       <use style="stroke:#000000;stroke-width:0.6;" x="37.7" xlink:href="#me4fbee2e15" y="211.21452"/>
      </g>
     </g>
    </g>
    <g id="ytick_24">
     <g id="line2d_29">
      <g>
       <use style="stroke:#000000;stroke-width:0.6;" x="37.7" xlink:href="#me4fbee2e15" y="199.064889"/>
      </g>
     </g>
    </g>
    <g id="ytick_25">
     <g id="line2d_30">
      <g>
       <use style="stroke:#000000;stroke-width:0.6;" x="37.7" xlink:href="#me4fbee2e15" y="192.895566"/>
      </g>
     </g>
    </g>
    <g id="ytick_26">
     <g id="line2d_31">
      <g>
       <use style="stroke:#000000;stroke-width:0.6;" x="37.7" xlink:href="#me4fbee2e15" y="188.518363"/>
      </g>
     </g>
    </g>
    <g id="ytick_27">
     <g id="line2d_32">
      <g>
       <use style="stroke:#000000;stroke-width:0.6;" x="37.7" xlink:href="#me4fbee2e15" y="185.123139"/>
      </g>
     </g>
    </g>
    <g id="ytick_28">
     <g id="line2d_33">
      <g>
       <use style="stroke:#000000;stroke-width:0.6;" x="37.7" xlink:href="#me4fbee2e15" y="182.34904"/>
      </g>
     </g>
    </g>
    <g id="ytick_29">
     <g id="line2d_34">
      <g>
       <use style="stroke:#000000;stroke-width:0.6;" x="37.7" xlink:href="#me4fbee2e15" y="180.003573"/>
      </g>
     </g>
    </g>
    <g id="ytick_30">
     <g id="line2d_35">
      <g>
       <use style="stroke:#000000;stroke-width:0.6;" x="37.7" xlink:href="#me4fbee2e15" y="177.971836"/>
      </g>
     </g>
    </g>
    <g id="ytick_31">
     <g id="line2d_36">
      <g>
       <use style="stroke:#000000;stroke-width:0.6;" x="37.7" xlink:href="#me4fbee2e15" y="176.179718"/>
      </g>
     </g>
    </g>
    <g id="ytick_32">
     <g id="line2d_37">
      <g>
       <use style="stroke:#000000;stroke-width:0.6;" x="37.7" xlink:href="#me4fbee2e15" y="164.030087"/>
      </g>
     </g>
    </g>
    <g id="ytick_33">
     <g id="line2d_38">
      <g>
       <use style="stroke:#000000;stroke-width:0.6;" x="37.7" xlink:href="#me4fbee2e15" y="157.860765"/>
      </g>
     </g>
    </g>
    <g id="ytick_34">
     <g id="line2d_39">
      <g>
       <use style="stroke:#000000;stroke-width:0.6;" x="37.7" xlink:href="#me4fbee2e15" y="153.483561"/>
      </g>
     </g>
    </g>
    <g id="ytick_35">
     <g id="line2d_40">
      <g>
       <use style="stroke:#000000;stroke-width:0.6;" x="37.7" xlink:href="#me4fbee2e15" y="150.088337"/>
      </g>
     </g>
    </g>
    <g id="ytick_36">
     <g id="line2d_41">
      <g>
       <use style="stroke:#000000;stroke-width:0.6;" x="37.7" xlink:href="#me4fbee2e15" y="147.314238"/>
      </g>
     </g>
    </g>
    <g id="ytick_37">
     <g id="line2d_42">
      <g>
       <use style="stroke:#000000;stroke-width:0.6;" x="37.7" xlink:href="#me4fbee2e15" y="144.968771"/>
      </g>
     </g>
    </g>
    <g id="ytick_38">
     <g id="line2d_43">
      <g>
       <use style="stroke:#000000;stroke-width:0.6;" x="37.7" xlink:href="#me4fbee2e15" y="142.937034"/>
      </g>
     </g>
    </g>
    <g id="ytick_39">
     <g id="line2d_44">
      <g>
       <use style="stroke:#000000;stroke-width:0.6;" x="37.7" xlink:href="#me4fbee2e15" y="141.144916"/>
      </g>
     </g>
    </g>
    <g id="ytick_40">
     <g id="line2d_45">
      <g>
       <use style="stroke:#000000;stroke-width:0.6;" x="37.7" xlink:href="#me4fbee2e15" y="128.995285"/>
      </g>
     </g>
    </g>
    <g id="ytick_41">
     <g id="line2d_46">
      <g>
       <use style="stroke:#000000;stroke-width:0.6;" x="37.7" xlink:href="#me4fbee2e15" y="122.825963"/>
      </g>
     </g>
    </g>
    <g id="ytick_42">
     <g id="line2d_47">
      <g>
       <use style="stroke:#000000;stroke-width:0.6;" x="37.7" xlink:href="#me4fbee2e15" y="118.448759"/>
      </g>
     </g>
    </g>
    <g id="ytick_43">
     <g id="line2d_48">
      <g>
       <use style="stroke:#000000;stroke-width:0.6;" x="37.7" xlink:href="#me4fbee2e15" y="115.053536"/>
      </g>
     </g>
    </g>
    <g id="ytick_44">
     <g id="line2d_49">
      <g>
       <use style="stroke:#000000;stroke-width:0.6;" x="37.7" xlink:href="#me4fbee2e15" y="112.279436"/>
      </g>
     </g>
    </g>
    <g id="ytick_45">
     <g id="line2d_50">
      <g>
       <use style="stroke:#000000;stroke-width:0.6;" x="37.7" xlink:href="#me4fbee2e15" y="109.933969"/>
      </g>
     </g>
    </g>
    <g id="ytick_46">
     <g id="line2d_51">
      <g>
       <use style="stroke:#000000;stroke-width:0.6;" x="37.7" xlink:href="#me4fbee2e15" y="107.902232"/>
      </g>
     </g>
    </g>
    <g id="ytick_47">
     <g id="line2d_52">
      <g>
       <use style="stroke:#000000;stroke-width:0.6;" x="37.7" xlink:href="#me4fbee2e15" y="106.110114"/>
      </g>
     </g>
    </g>
    <g id="ytick_48">
     <g id="line2d_53">
      <g>
       <use style="stroke:#000000;stroke-width:0.6;" x="37.7" xlink:href="#me4fbee2e15" y="93.960483"/>
      </g>
     </g>
    </g>
    <g id="ytick_49">
     <g id="line2d_54">
      <g>
       <use style="stroke:#000000;stroke-width:0.6;" x="37.7" xlink:href="#me4fbee2e15" y="87.791161"/>
      </g>
     </g>
    </g>
    <g id="ytick_50">
     <g id="line2d_55">
      <g>
       <use style="stroke:#000000;stroke-width:0.6;" x="37.7" xlink:href="#me4fbee2e15" y="83.413957"/>
      </g>
     </g>
    </g>
    <g id="ytick_51">
     <g id="line2d_56">
      <g>
       <use style="stroke:#000000;stroke-width:0.6;" x="37.7" xlink:href="#me4fbee2e15" y="80.018734"/>
      </g>
     </g>
    </g>
    <g id="ytick_52">
     <g id="line2d_57">
      <g>
       <use style="stroke:#000000;stroke-width:0.6;" x="37.7" xlink:href="#me4fbee2e15" y="77.244634"/>
      </g>
     </g>
    </g>
    <g id="ytick_53">
     <g id="line2d_58">
      <g>
       <use style="stroke:#000000;stroke-width:0.6;" x="37.7" xlink:href="#me4fbee2e15" y="74.899167"/>
      </g>
     </g>
    </g>
    <g id="ytick_54">
     <g id="line2d_59">
      <g>
       <use style="stroke:#000000;stroke-width:0.6;" x="37.7" xlink:href="#me4fbee2e15" y="72.86743"/>
      </g>
     </g>
    </g>
    <g id="ytick_55">
     <g id="line2d_60">
      <g>
       <use style="stroke:#000000;stroke-width:0.6;" x="37.7" xlink:href="#me4fbee2e15" y="71.075312"/>
      </g>
     </g>
    </g>
    <g id="ytick_56">
     <g id="line2d_61">
      <g>
       <use style="stroke:#000000;stroke-width:0.6;" x="37.7" xlink:href="#me4fbee2e15" y="58.925681"/>
      </g>
     </g>
    </g>
    <g id="ytick_57">
     <g id="line2d_62">
      <g>
       <use style="stroke:#000000;stroke-width:0.6;" x="37.7" xlink:href="#me4fbee2e15" y="52.756359"/>
      </g>
     </g>
    </g>
    <g id="ytick_58">
     <g id="line2d_63">
      <g>
       <use style="stroke:#000000;stroke-width:0.6;" x="37.7" xlink:href="#me4fbee2e15" y="48.379155"/>
      </g>
     </g>
    </g>
    <g id="ytick_59">
     <g id="line2d_64">
      <g>
       <use style="stroke:#000000;stroke-width:0.6;" x="37.7" xlink:href="#me4fbee2e15" y="44.983932"/>
      </g>
     </g>
    </g>
    <g id="ytick_60">
     <g id="line2d_65">
      <g>
       <use style="stroke:#000000;stroke-width:0.6;" x="37.7" xlink:href="#me4fbee2e15" y="42.209832"/>
      </g>
     </g>
    </g>
    <g id="ytick_61">
     <g id="line2d_66">
      <g>
       <use style="stroke:#000000;stroke-width:0.6;" x="37.7" xlink:href="#me4fbee2e15" y="39.864365"/>
      </g>
     </g>
    </g>
    <g id="ytick_62">
     <g id="line2d_67">
      <g>
       <use style="stroke:#000000;stroke-width:0.6;" x="37.7" xlink:href="#me4fbee2e15" y="37.832628"/>
      </g>
     </g>
    </g>
    <g id="ytick_63">
     <g id="line2d_68">
      <g>
       <use style="stroke:#000000;stroke-width:0.6;" x="37.7" xlink:href="#me4fbee2e15" y="36.04051"/>
      </g>
     </g>
    </g>
    <g id="ytick_64">
     <g id="line2d_69">
      <g>
       <use style="stroke:#000000;stroke-width:0.6;" x="37.7" xlink:href="#me4fbee2e15" y="23.890879"/>
      </g>
     </g>
    </g>
    <g id="ytick_65">
     <g id="line2d_70">
      <g>
       <use style="stroke:#000000;stroke-width:0.6;" x="37.7" xlink:href="#me4fbee2e15" y="17.721557"/>
      </g>
     </g>
    </g>
    <g id="ytick_66">
     <g id="line2d_71">
      <g>
       <use style="stroke:#000000;stroke-width:0.6;" x="37.7" xlink:href="#me4fbee2e15" y="13.344353"/>
      </g>
     </g>
    </g>
    <g id="ytick_67">
     <g id="line2d_72">
      <g>
       <use style="stroke:#000000;stroke-width:0.6;" x="37.7" xlink:href="#me4fbee2e15" y="9.94913"/>
      </g>
     </g>
    </g>
   </g>
   <g id="line2d_73">
    <path clip-path="url(#p5505dde1ec)" d="M 53.932727 19.296 
L 55.501107 57.162977 
L 57.069486 85.498985 
L 60.206245 147.332372 
L 61.774625 189.177174 
L 63.343004 180.690064 
L 64.911383 190.585793 
L 66.479763 182.317299 
L 69.616522 191.958037 
L 71.184901 204.593156 
L 72.753281 179.943919 
L 74.32166 182.101804 
L 75.89004 194.483892 
L 77.458419 176.895216 
L 79.026798 189.333263 
L 80.595178 176.434331 
L 82.163557 190.647071 
L 83.731937 179.646157 
L 85.300316 190.70847 
L 86.868696 191.999842 
L 88.437075 174.193683 
L 90.005455 186.465664 
L 91.573834 181.671379 
L 93.142213 178.345434 
L 94.710593 212.423742 
L 96.278972 172.536038 
L 97.847352 188.997976 
L 99.415731 176.303393 
L 100.984111 192.007767 
L 102.55249 201.660855 
L 104.12087 178.500672 
L 105.689249 179.38383 
L 107.257628 189.536535 
L 108.826008 176.419715 
L 110.394387 235.184889 
L 111.962767 179.834289 
L 113.531146 187.810705 
L 115.099526 174.852435 
L 116.667905 177.739924 
L 118.236285 189.569362 
L 119.804664 189.371947 
L 121.373043 186.01512 
L 122.941423 180.730653 
L 124.509802 199.306657 
L 126.078182 169.475816 
L 127.646561 185.904576 
L 129.214941 217.794567 
L 130.78332 187.916867 
L 132.3517 182.643002 
L 133.920079 176.792416 
L 135.488458 179.629647 
L 137.056838 185.391431 
L 138.625217 174.278959 
L 140.193597 223.711038 
L 141.761976 191.570972 
L 143.330356 183.281103 
L 144.898735 181.878339 
L 146.467115 201.279684 
L 148.035494 241.807197 
L 149.603874 191.713029 
L 151.172253 190.113336 
L 152.740632 176.904565 
L 154.309012 185.761411 
L 155.877391 223.109909 
L 157.445771 191.127667 
L 159.01415 222.941636 
L 160.58253 173.225807 
L 162.150909 182.431871 
L 163.719289 188.342649 
L 165.287668 211.045551 
L 166.856047 179.856863 
L 168.424427 178.406725 
L 169.992806 201.293453 
L 171.561186 175.965714 
L 173.129565 203.207573 
L 174.697945 184.261633 
L 176.266324 185.162607 
L 177.834704 198.923716 
L 179.403083 202.945852 
L 180.971462 173.178265 
L 182.539842 200.906238 
L 184.108221 186.108775 
L 185.676601 184.309819 
L 187.24498 175.05935 
L 188.81336 214.214412 
L 190.381739 183.119102 
L 191.950119 177.330857 
L 193.518498 182.148179 
L 195.086877 191.215859 
L 198.223636 177.132208 
L 199.792016 173.129097 
L 201.360395 196.859142 
L 202.928775 179.942672 
L 204.497154 192.95902 
L 206.065534 178.701487 
L 207.633913 178.641518 
L 209.202292 186.432404 
L 210.770672 181.751184 
L 212.339051 173.394903 
L 213.907431 174.710112 
L 215.47581 200.901722 
L 217.04419 187.793714 
L 218.612569 215.246791 
L 220.180949 197.733343 
L 221.749328 173.03734 
L 223.317708 176.150785 
L 226.454466 166.347881 
L 228.022846 181.214431 
L 229.591225 188.493941 
L 231.159605 178.667509 
L 232.727984 185.54303 
L 234.296364 214.778108 
L 235.864743 184.475313 
L 237.433123 188.123474 
L 239.001502 186.188799 
L 240.569881 261.216 
L 242.138261 193.865377 
L 243.70664 177.997861 
L 245.27502 182.886703 
L 246.843399 192.921303 
L 248.411779 175.630242 
L 249.980158 187.113781 
L 251.548538 242.073645 
L 253.116917 172.797743 
L 254.685296 175.203486 
L 256.253676 204.706193 
L 257.822055 184.535722 
L 259.390435 183.805541 
L 260.958814 184.439892 
L 262.527194 190.169903 
L 264.095573 207.749697 
L 265.663953 179.524234 
L 267.232332 179.075804 
L 268.800711 175.561594 
L 270.369091 181.591204 
L 271.93747 189.439184 
L 273.50585 204.820382 
L 275.074229 171.740832 
L 276.642609 209.066656 
L 278.210988 178.461246 
L 279.779368 237.411224 
L 281.347747 193.303493 
L 282.916126 181.20504 
L 284.484506 181.014062 
L 286.052885 223.828021 
L 287.621265 253.416144 
L 289.189644 211.478495 
L 290.758024 174.294691 
L 292.326403 199.966885 
L 293.894783 176.939791 
L 295.463162 181.167751 
L 297.031542 173.532549 
L 298.599921 187.229429 
L 300.1683 172.69992 
L 301.73668 175.063137 
L 303.305059 204.589847 
L 304.873439 200.336849 
L 306.441818 178.001165 
L 308.010198 221.699654 
L 309.578577 185.725428 
L 311.146957 209.507805 
L 312.715336 257.839426 
L 314.283715 181.115579 
L 315.852095 184.036898 
L 317.420474 183.930721 
L 318.988854 228.010408 
L 320.557233 174.274805 
L 322.125613 175.355985 
L 323.693992 182.883199 
L 325.262372 172.096186 
L 326.830751 179.481585 
L 328.39913 206.104943 
L 329.96751 183.167772 
L 331.535889 170.528379 
L 333.104269 185.240056 
L 334.672648 201.387886 
L 336.241028 170.587817 
L 337.809407 219.533138 
L 339.377787 171.118541 
L 340.946166 189.748239 
L 342.514545 183.880792 
L 345.651304 171.148803 
L 347.219684 207.501418 
L 348.788063 177.052706 
L 350.356443 182.540899 
L 351.924822 180.175705 
L 353.493202 178.032065 
L 355.061581 174.119655 
L 356.62996 177.6175 
L 358.19834 180.309947 
L 359.766719 174.089843 
L 361.335099 175.646059 
L 362.903478 211.423514 
L 364.471858 174.133322 
L 366.040237 180.225937 
L 367.608617 200.385734 
L 369.176996 195.49383 
L 370.745375 200.353355 
L 372.313755 211.421005 
L 373.882134 180.802962 
L 375.450514 177.94642 
L 375.456528 311.86825 
L 375.456528 311.86825 
" style="fill:none;stroke:#1f77b4;stroke-linecap:square;stroke-width:1.5;"/>
    <defs>
     <path d="M 0 3 
C 0.795609 3 1.55874 2.683901 2.12132 2.12132 
C 2.683901 1.55874 3 0.795609 3 0 
C 3 -0.795609 2.683901 -1.55874 2.12132 -2.12132 
C 1.55874 -2.683901 0.795609 -3 0 -3 
C -0.795609 -3 -1.55874 -2.683901 -2.12132 -2.12132 
C -2.683901 -1.55874 -3 -0.795609 -3 0 
C -3 0.795609 -2.683901 1.55874 -2.12132 2.12132 
C -1.55874 2.683901 -0.795609 3 0 3 
z
" id="m2c551e8527" style="stroke:#1f77b4;"/>
    </defs>
    <g clip-path="url(#p5505dde1ec)">
     <use style="fill:#1f77b4;stroke:#1f77b4;" x="53.932727" xlink:href="#m2c551e8527" y="19.296"/>
     <use style="fill:#1f77b4;stroke:#1f77b4;" x="55.501107" xlink:href="#m2c551e8527" y="57.162977"/>
     <use style="fill:#1f77b4;stroke:#1f77b4;" x="57.069486" xlink:href="#m2c551e8527" y="85.498985"/>
     <use style="fill:#1f77b4;stroke:#1f77b4;" x="58.637866" xlink:href="#m2c551e8527" y="117.548767"/>
     <use style="fill:#1f77b4;stroke:#1f77b4;" x="60.206245" xlink:href="#m2c551e8527" y="147.332372"/>
     <use style="fill:#1f77b4;stroke:#1f77b4;" x="61.774625" xlink:href="#m2c551e8527" y="189.177174"/>
     <use style="fill:#1f77b4;stroke:#1f77b4;" x="63.343004" xlink:href="#m2c551e8527" y="180.690064"/>
     <use style="fill:#1f77b4;stroke:#1f77b4;" x="64.911383" xlink:href="#m2c551e8527" y="190.585793"/>
     <use style="fill:#1f77b4;stroke:#1f77b4;" x="66.479763" xlink:href="#m2c551e8527" y="182.317299"/>
     <use style="fill:#1f77b4;stroke:#1f77b4;" x="68.048142" xlink:href="#m2c551e8527" y="187.204346"/>
     <use style="fill:#1f77b4;stroke:#1f77b4;" x="69.616522" xlink:href="#m2c551e8527" y="191.958037"/>
     <use style="fill:#1f77b4;stroke:#1f77b4;" x="71.184901" xlink:href="#m2c551e8527" y="204.593156"/>
     <use style="fill:#1f77b4;stroke:#1f77b4;" x="72.753281" xlink:href="#m2c551e8527" y="179.943919"/>
     <use style="fill:#1f77b4;stroke:#1f77b4;" x="74.32166" xlink:href="#m2c551e8527" y="182.101804"/>
     <use style="fill:#1f77b4;stroke:#1f77b4;" x="75.89004" xlink:href="#m2c551e8527" y="194.483892"/>
     <use style="fill:#1f77b4;stroke:#1f77b4;" x="77.458419" xlink:href="#m2c551e8527" y="176.895216"/>
     <use style="fill:#1f77b4;stroke:#1f77b4;" x="79.026798" xlink:href="#m2c551e8527" y="189.333263"/>
     <use style="fill:#1f77b4;stroke:#1f77b4;" x="80.595178" xlink:href="#m2c551e8527" y="176.434331"/>
     <use style="fill:#1f77b4;stroke:#1f77b4;" x="82.163557" xlink:href="#m2c551e8527" y="190.647071"/>
     <use style="fill:#1f77b4;stroke:#1f77b4;" x="83.731937" xlink:href="#m2c551e8527" y="179.646157"/>
     <use style="fill:#1f77b4;stroke:#1f77b4;" x="85.300316" xlink:href="#m2c551e8527" y="190.70847"/>
     <use style="fill:#1f77b4;stroke:#1f77b4;" x="86.868696" xlink:href="#m2c551e8527" y="191.999842"/>
     <use style="fill:#1f77b4;stroke:#1f77b4;" x="88.437075" xlink:href="#m2c551e8527" y="174.193683"/>
     <use style="fill:#1f77b4;stroke:#1f77b4;" x="90.005455" xlink:href="#m2c551e8527" y="186.465664"/>
     <use style="fill:#1f77b4;stroke:#1f77b4;" x="91.573834" xlink:href="#m2c551e8527" y="181.671379"/>
     <use style="fill:#1f77b4;stroke:#1f77b4;" x="93.142213" xlink:href="#m2c551e8527" y="178.345434"/>
     <use style="fill:#1f77b4;stroke:#1f77b4;" x="94.710593" xlink:href="#m2c551e8527" y="212.423742"/>
     <use style="fill:#1f77b4;stroke:#1f77b4;" x="96.278972" xlink:href="#m2c551e8527" y="172.536038"/>
     <use style="fill:#1f77b4;stroke:#1f77b4;" x="97.847352" xlink:href="#m2c551e8527" y="188.997976"/>
     <use style="fill:#1f77b4;stroke:#1f77b4;" x="99.415731" xlink:href="#m2c551e8527" y="176.303393"/>
     <use style="fill:#1f77b4;stroke:#1f77b4;" x="100.984111" xlink:href="#m2c551e8527" y="192.007767"/>
     <use style="fill:#1f77b4;stroke:#1f77b4;" x="102.55249" xlink:href="#m2c551e8527" y="201.660855"/>
     <use style="fill:#1f77b4;stroke:#1f77b4;" x="104.12087" xlink:href="#m2c551e8527" y="178.500672"/>
     <use style="fill:#1f77b4;stroke:#1f77b4;" x="105.689249" xlink:href="#m2c551e8527" y="179.38383"/>
     <use style="fill:#1f77b4;stroke:#1f77b4;" x="107.257628" xlink:href="#m2c551e8527" y="189.536535"/>
     <use style="fill:#1f77b4;stroke:#1f77b4;" x="108.826008" xlink:href="#m2c551e8527" y="176.419715"/>
     <use style="fill:#1f77b4;stroke:#1f77b4;" x="110.394387" xlink:href="#m2c551e8527" y="235.184889"/>
     <use style="fill:#1f77b4;stroke:#1f77b4;" x="111.962767" xlink:href="#m2c551e8527" y="179.834289"/>
     <use style="fill:#1f77b4;stroke:#1f77b4;" x="113.531146" xlink:href="#m2c551e8527" y="187.810705"/>
     <use style="fill:#1f77b4;stroke:#1f77b4;" x="115.099526" xlink:href="#m2c551e8527" y="174.852435"/>
     <use style="fill:#1f77b4;stroke:#1f77b4;" x="116.667905" xlink:href="#m2c551e8527" y="177.739924"/>
     <use style="fill:#1f77b4;stroke:#1f77b4;" x="118.236285" xlink:href="#m2c551e8527" y="189.569362"/>
     <use style="fill:#1f77b4;stroke:#1f77b4;" x="119.804664" xlink:href="#m2c551e8527" y="189.371947"/>
     <use style="fill:#1f77b4;stroke:#1f77b4;" x="121.373043" xlink:href="#m2c551e8527" y="186.01512"/>
     <use style="fill:#1f77b4;stroke:#1f77b4;" x="122.941423" xlink:href="#m2c551e8527" y="180.730653"/>
     <use style="fill:#1f77b4;stroke:#1f77b4;" x="124.509802" xlink:href="#m2c551e8527" y="199.306657"/>
     <use style="fill:#1f77b4;stroke:#1f77b4;" x="126.078182" xlink:href="#m2c551e8527" y="169.475816"/>
     <use style="fill:#1f77b4;stroke:#1f77b4;" x="127.646561" xlink:href="#m2c551e8527" y="185.904576"/>
     <use style="fill:#1f77b4;stroke:#1f77b4;" x="129.214941" xlink:href="#m2c551e8527" y="217.794567"/>
     <use style="fill:#1f77b4;stroke:#1f77b4;" x="130.78332" xlink:href="#m2c551e8527" y="187.916867"/>
     <use style="fill:#1f77b4;stroke:#1f77b4;" x="132.3517" xlink:href="#m2c551e8527" y="182.643002"/>
     <use style="fill:#1f77b4;stroke:#1f77b4;" x="133.920079" xlink:href="#m2c551e8527" y="176.792416"/>
     <use style="fill:#1f77b4;stroke:#1f77b4;" x="135.488458" xlink:href="#m2c551e8527" y="179.629647"/>
     <use style="fill:#1f77b4;stroke:#1f77b4;" x="137.056838" xlink:href="#m2c551e8527" y="185.391431"/>
     <use style="fill:#1f77b4;stroke:#1f77b4;" x="138.625217" xlink:href="#m2c551e8527" y="174.278959"/>
     <use style="fill:#1f77b4;stroke:#1f77b4;" x="140.193597" xlink:href="#m2c551e8527" y="223.711038"/>
     <use style="fill:#1f77b4;stroke:#1f77b4;" x="141.761976" xlink:href="#m2c551e8527" y="191.570972"/>
     <use style="fill:#1f77b4;stroke:#1f77b4;" x="143.330356" xlink:href="#m2c551e8527" y="183.281103"/>
     <use style="fill:#1f77b4;stroke:#1f77b4;" x="144.898735" xlink:href="#m2c551e8527" y="181.878339"/>
     <use style="fill:#1f77b4;stroke:#1f77b4;" x="146.467115" xlink:href="#m2c551e8527" y="201.279684"/>
     <use style="fill:#1f77b4;stroke:#1f77b4;" x="148.035494" xlink:href="#m2c551e8527" y="241.807197"/>
     <use style="fill:#1f77b4;stroke:#1f77b4;" x="149.603874" xlink:href="#m2c551e8527" y="191.713029"/>
     <use style="fill:#1f77b4;stroke:#1f77b4;" x="151.172253" xlink:href="#m2c551e8527" y="190.113336"/>
     <use style="fill:#1f77b4;stroke:#1f77b4;" x="152.740632" xlink:href="#m2c551e8527" y="176.904565"/>
     <use style="fill:#1f77b4;stroke:#1f77b4;" x="154.309012" xlink:href="#m2c551e8527" y="185.761411"/>
     <use style="fill:#1f77b4;stroke:#1f77b4;" x="155.877391" xlink:href="#m2c551e8527" y="223.109909"/>
     <use style="fill:#1f77b4;stroke:#1f77b4;" x="157.445771" xlink:href="#m2c551e8527" y="191.127667"/>
     <use style="fill:#1f77b4;stroke:#1f77b4;" x="159.01415" xlink:href="#m2c551e8527" y="222.941636"/>
     <use style="fill:#1f77b4;stroke:#1f77b4;" x="160.58253" xlink:href="#m2c551e8527" y="173.225807"/>
     <use style="fill:#1f77b4;stroke:#1f77b4;" x="162.150909" xlink:href="#m2c551e8527" y="182.431871"/>
     <use style="fill:#1f77b4;stroke:#1f77b4;" x="163.719289" xlink:href="#m2c551e8527" y="188.342649"/>
     <use style="fill:#1f77b4;stroke:#1f77b4;" x="165.287668" xlink:href="#m2c551e8527" y="211.045551"/>
     <use style="fill:#1f77b4;stroke:#1f77b4;" x="166.856047" xlink:href="#m2c551e8527" y="179.856863"/>
     <use style="fill:#1f77b4;stroke:#1f77b4;" x="168.424427" xlink:href="#m2c551e8527" y="178.406725"/>
     <use style="fill:#1f77b4;stroke:#1f77b4;" x="169.992806" xlink:href="#m2c551e8527" y="201.293453"/>
     <use style="fill:#1f77b4;stroke:#1f77b4;" x="171.561186" xlink:href="#m2c551e8527" y="175.965714"/>
     <use style="fill:#1f77b4;stroke:#1f77b4;" x="173.129565" xlink:href="#m2c551e8527" y="203.207573"/>
     <use style="fill:#1f77b4;stroke:#1f77b4;" x="174.697945" xlink:href="#m2c551e8527" y="184.261633"/>
     <use style="fill:#1f77b4;stroke:#1f77b4;" x="176.266324" xlink:href="#m2c551e8527" y="185.162607"/>
     <use style="fill:#1f77b4;stroke:#1f77b4;" x="177.834704" xlink:href="#m2c551e8527" y="198.923716"/>
     <use style="fill:#1f77b4;stroke:#1f77b4;" x="179.403083" xlink:href="#m2c551e8527" y="202.945852"/>
     <use style="fill:#1f77b4;stroke:#1f77b4;" x="180.971462" xlink:href="#m2c551e8527" y="173.178265"/>
     <use style="fill:#1f77b4;stroke:#1f77b4;" x="182.539842" xlink:href="#m2c551e8527" y="200.906238"/>
     <use style="fill:#1f77b4;stroke:#1f77b4;" x="184.108221" xlink:href="#m2c551e8527" y="186.108775"/>
     <use style="fill:#1f77b4;stroke:#1f77b4;" x="185.676601" xlink:href="#m2c551e8527" y="184.309819"/>
     <use style="fill:#1f77b4;stroke:#1f77b4;" x="187.24498" xlink:href="#m2c551e8527" y="175.05935"/>
     <use style="fill:#1f77b4;stroke:#1f77b4;" x="188.81336" xlink:href="#m2c551e8527" y="214.214412"/>
     <use style="fill:#1f77b4;stroke:#1f77b4;" x="190.381739" xlink:href="#m2c551e8527" y="183.119102"/>
     <use style="fill:#1f77b4;stroke:#1f77b4;" x="191.950119" xlink:href="#m2c551e8527" y="177.330857"/>
     <use style="fill:#1f77b4;stroke:#1f77b4;" x="193.518498" xlink:href="#m2c551e8527" y="182.148179"/>
     <use style="fill:#1f77b4;stroke:#1f77b4;" x="195.086877" xlink:href="#m2c551e8527" y="191.215859"/>
     <use style="fill:#1f77b4;stroke:#1f77b4;" x="196.655257" xlink:href="#m2c551e8527" y="184.132399"/>
     <use style="fill:#1f77b4;stroke:#1f77b4;" x="198.223636" xlink:href="#m2c551e8527" y="177.132208"/>
     <use style="fill:#1f77b4;stroke:#1f77b4;" x="199.792016" xlink:href="#m2c551e8527" y="173.129097"/>
     <use style="fill:#1f77b4;stroke:#1f77b4;" x="201.360395" xlink:href="#m2c551e8527" y="196.859142"/>
     <use style="fill:#1f77b4;stroke:#1f77b4;" x="202.928775" xlink:href="#m2c551e8527" y="179.942672"/>
     <use style="fill:#1f77b4;stroke:#1f77b4;" x="204.497154" xlink:href="#m2c551e8527" y="192.95902"/>
     <use style="fill:#1f77b4;stroke:#1f77b4;" x="206.065534" xlink:href="#m2c551e8527" y="178.701487"/>
     <use style="fill:#1f77b4;stroke:#1f77b4;" x="207.633913" xlink:href="#m2c551e8527" y="178.641518"/>
     <use style="fill:#1f77b4;stroke:#1f77b4;" x="209.202292" xlink:href="#m2c551e8527" y="186.432404"/>
     <use style="fill:#1f77b4;stroke:#1f77b4;" x="210.770672" xlink:href="#m2c551e8527" y="181.751184"/>
     <use style="fill:#1f77b4;stroke:#1f77b4;" x="212.339051" xlink:href="#m2c551e8527" y="173.394903"/>
     <use style="fill:#1f77b4;stroke:#1f77b4;" x="213.907431" xlink:href="#m2c551e8527" y="174.710112"/>
     <use style="fill:#1f77b4;stroke:#1f77b4;" x="215.47581" xlink:href="#m2c551e8527" y="200.901722"/>
     <use style="fill:#1f77b4;stroke:#1f77b4;" x="217.04419" xlink:href="#m2c551e8527" y="187.793714"/>
     <use style="fill:#1f77b4;stroke:#1f77b4;" x="218.612569" xlink:href="#m2c551e8527" y="215.246791"/>
     <use style="fill:#1f77b4;stroke:#1f77b4;" x="220.180949" xlink:href="#m2c551e8527" y="197.733343"/>
     <use style="fill:#1f77b4;stroke:#1f77b4;" x="221.749328" xlink:href="#m2c551e8527" y="173.03734"/>
     <use style="fill:#1f77b4;stroke:#1f77b4;" x="223.317708" xlink:href="#m2c551e8527" y="176.150785"/>
     <use style="fill:#1f77b4;stroke:#1f77b4;" x="224.886087" xlink:href="#m2c551e8527" y="171.144889"/>
     <use style="fill:#1f77b4;stroke:#1f77b4;" x="226.454466" xlink:href="#m2c551e8527" y="166.347881"/>
     <use style="fill:#1f77b4;stroke:#1f77b4;" x="228.022846" xlink:href="#m2c551e8527" y="181.214431"/>
     <use style="fill:#1f77b4;stroke:#1f77b4;" x="229.591225" xlink:href="#m2c551e8527" y="188.493941"/>
     <use style="fill:#1f77b4;stroke:#1f77b4;" x="231.159605" xlink:href="#m2c551e8527" y="178.667509"/>
     <use style="fill:#1f77b4;stroke:#1f77b4;" x="232.727984" xlink:href="#m2c551e8527" y="185.54303"/>
     <use style="fill:#1f77b4;stroke:#1f77b4;" x="234.296364" xlink:href="#m2c551e8527" y="214.778108"/>
     <use style="fill:#1f77b4;stroke:#1f77b4;" x="235.864743" xlink:href="#m2c551e8527" y="184.475313"/>
     <use style="fill:#1f77b4;stroke:#1f77b4;" x="237.433123" xlink:href="#m2c551e8527" y="188.123474"/>
     <use style="fill:#1f77b4;stroke:#1f77b4;" x="239.001502" xlink:href="#m2c551e8527" y="186.188799"/>
     <use style="fill:#1f77b4;stroke:#1f77b4;" x="240.569881" xlink:href="#m2c551e8527" y="261.216"/>
     <use style="fill:#1f77b4;stroke:#1f77b4;" x="242.138261" xlink:href="#m2c551e8527" y="193.865377"/>
     <use style="fill:#1f77b4;stroke:#1f77b4;" x="243.70664" xlink:href="#m2c551e8527" y="177.997861"/>
     <use style="fill:#1f77b4;stroke:#1f77b4;" x="245.27502" xlink:href="#m2c551e8527" y="182.886703"/>
     <use style="fill:#1f77b4;stroke:#1f77b4;" x="246.843399" xlink:href="#m2c551e8527" y="192.921303"/>
     <use style="fill:#1f77b4;stroke:#1f77b4;" x="248.411779" xlink:href="#m2c551e8527" y="175.630242"/>
     <use style="fill:#1f77b4;stroke:#1f77b4;" x="249.980158" xlink:href="#m2c551e8527" y="187.113781"/>
     <use style="fill:#1f77b4;stroke:#1f77b4;" x="251.548538" xlink:href="#m2c551e8527" y="242.073645"/>
     <use style="fill:#1f77b4;stroke:#1f77b4;" x="253.116917" xlink:href="#m2c551e8527" y="172.797743"/>
     <use style="fill:#1f77b4;stroke:#1f77b4;" x="254.685296" xlink:href="#m2c551e8527" y="175.203486"/>
     <use style="fill:#1f77b4;stroke:#1f77b4;" x="256.253676" xlink:href="#m2c551e8527" y="204.706193"/>
     <use style="fill:#1f77b4;stroke:#1f77b4;" x="257.822055" xlink:href="#m2c551e8527" y="184.535722"/>
     <use style="fill:#1f77b4;stroke:#1f77b4;" x="259.390435" xlink:href="#m2c551e8527" y="183.805541"/>
     <use style="fill:#1f77b4;stroke:#1f77b4;" x="260.958814" xlink:href="#m2c551e8527" y="184.439892"/>
     <use style="fill:#1f77b4;stroke:#1f77b4;" x="262.527194" xlink:href="#m2c551e8527" y="190.169903"/>
     <use style="fill:#1f77b4;stroke:#1f77b4;" x="264.095573" xlink:href="#m2c551e8527" y="207.749697"/>
     <use style="fill:#1f77b4;stroke:#1f77b4;" x="265.663953" xlink:href="#m2c551e8527" y="179.524234"/>
     <use style="fill:#1f77b4;stroke:#1f77b4;" x="267.232332" xlink:href="#m2c551e8527" y="179.075804"/>
     <use style="fill:#1f77b4;stroke:#1f77b4;" x="268.800711" xlink:href="#m2c551e8527" y="175.561594"/>
     <use style="fill:#1f77b4;stroke:#1f77b4;" x="270.369091" xlink:href="#m2c551e8527" y="181.591204"/>
     <use style="fill:#1f77b4;stroke:#1f77b4;" x="271.93747" xlink:href="#m2c551e8527" y="189.439184"/>
     <use style="fill:#1f77b4;stroke:#1f77b4;" x="273.50585" xlink:href="#m2c551e8527" y="204.820382"/>
     <use style="fill:#1f77b4;stroke:#1f77b4;" x="275.074229" xlink:href="#m2c551e8527" y="171.740832"/>
     <use style="fill:#1f77b4;stroke:#1f77b4;" x="276.642609" xlink:href="#m2c551e8527" y="209.066656"/>
     <use style="fill:#1f77b4;stroke:#1f77b4;" x="278.210988" xlink:href="#m2c551e8527" y="178.461246"/>
     <use style="fill:#1f77b4;stroke:#1f77b4;" x="279.779368" xlink:href="#m2c551e8527" y="237.411224"/>
     <use style="fill:#1f77b4;stroke:#1f77b4;" x="281.347747" xlink:href="#m2c551e8527" y="193.303493"/>
     <use style="fill:#1f77b4;stroke:#1f77b4;" x="282.916126" xlink:href="#m2c551e8527" y="181.20504"/>
     <use style="fill:#1f77b4;stroke:#1f77b4;" x="284.484506" xlink:href="#m2c551e8527" y="181.014062"/>
     <use style="fill:#1f77b4;stroke:#1f77b4;" x="286.052885" xlink:href="#m2c551e8527" y="223.828021"/>
     <use style="fill:#1f77b4;stroke:#1f77b4;" x="287.621265" xlink:href="#m2c551e8527" y="253.416144"/>
     <use style="fill:#1f77b4;stroke:#1f77b4;" x="289.189644" xlink:href="#m2c551e8527" y="211.478495"/>
     <use style="fill:#1f77b4;stroke:#1f77b4;" x="290.758024" xlink:href="#m2c551e8527" y="174.294691"/>
     <use style="fill:#1f77b4;stroke:#1f77b4;" x="292.326403" xlink:href="#m2c551e8527" y="199.966885"/>
     <use style="fill:#1f77b4;stroke:#1f77b4;" x="293.894783" xlink:href="#m2c551e8527" y="176.939791"/>
     <use style="fill:#1f77b4;stroke:#1f77b4;" x="295.463162" xlink:href="#m2c551e8527" y="181.167751"/>
     <use style="fill:#1f77b4;stroke:#1f77b4;" x="297.031542" xlink:href="#m2c551e8527" y="173.532549"/>
     <use style="fill:#1f77b4;stroke:#1f77b4;" x="298.599921" xlink:href="#m2c551e8527" y="187.229429"/>
     <use style="fill:#1f77b4;stroke:#1f77b4;" x="300.1683" xlink:href="#m2c551e8527" y="172.69992"/>
     <use style="fill:#1f77b4;stroke:#1f77b4;" x="301.73668" xlink:href="#m2c551e8527" y="175.063137"/>
     <use style="fill:#1f77b4;stroke:#1f77b4;" x="303.305059" xlink:href="#m2c551e8527" y="204.589847"/>
     <use style="fill:#1f77b4;stroke:#1f77b4;" x="304.873439" xlink:href="#m2c551e8527" y="200.336849"/>
     <use style="fill:#1f77b4;stroke:#1f77b4;" x="306.441818" xlink:href="#m2c551e8527" y="178.001165"/>
     <use style="fill:#1f77b4;stroke:#1f77b4;" x="308.010198" xlink:href="#m2c551e8527" y="221.699654"/>
     <use style="fill:#1f77b4;stroke:#1f77b4;" x="309.578577" xlink:href="#m2c551e8527" y="185.725428"/>
     <use style="fill:#1f77b4;stroke:#1f77b4;" x="311.146957" xlink:href="#m2c551e8527" y="209.507805"/>
     <use style="fill:#1f77b4;stroke:#1f77b4;" x="312.715336" xlink:href="#m2c551e8527" y="257.839426"/>
     <use style="fill:#1f77b4;stroke:#1f77b4;" x="314.283715" xlink:href="#m2c551e8527" y="181.115579"/>
     <use style="fill:#1f77b4;stroke:#1f77b4;" x="315.852095" xlink:href="#m2c551e8527" y="184.036898"/>
     <use style="fill:#1f77b4;stroke:#1f77b4;" x="317.420474" xlink:href="#m2c551e8527" y="183.930721"/>
     <use style="fill:#1f77b4;stroke:#1f77b4;" x="318.988854" xlink:href="#m2c551e8527" y="228.010408"/>
     <use style="fill:#1f77b4;stroke:#1f77b4;" x="320.557233" xlink:href="#m2c551e8527" y="174.274805"/>
     <use style="fill:#1f77b4;stroke:#1f77b4;" x="322.125613" xlink:href="#m2c551e8527" y="175.355985"/>
     <use style="fill:#1f77b4;stroke:#1f77b4;" x="323.693992" xlink:href="#m2c551e8527" y="182.883199"/>
     <use style="fill:#1f77b4;stroke:#1f77b4;" x="325.262372" xlink:href="#m2c551e8527" y="172.096186"/>
     <use style="fill:#1f77b4;stroke:#1f77b4;" x="326.830751" xlink:href="#m2c551e8527" y="179.481585"/>
     <use style="fill:#1f77b4;stroke:#1f77b4;" x="328.39913" xlink:href="#m2c551e8527" y="206.104943"/>
     <use style="fill:#1f77b4;stroke:#1f77b4;" x="329.96751" xlink:href="#m2c551e8527" y="183.167772"/>
     <use style="fill:#1f77b4;stroke:#1f77b4;" x="331.535889" xlink:href="#m2c551e8527" y="170.528379"/>
     <use style="fill:#1f77b4;stroke:#1f77b4;" x="333.104269" xlink:href="#m2c551e8527" y="185.240056"/>
     <use style="fill:#1f77b4;stroke:#1f77b4;" x="334.672648" xlink:href="#m2c551e8527" y="201.387886"/>
     <use style="fill:#1f77b4;stroke:#1f77b4;" x="336.241028" xlink:href="#m2c551e8527" y="170.587817"/>
     <use style="fill:#1f77b4;stroke:#1f77b4;" x="337.809407" xlink:href="#m2c551e8527" y="219.533138"/>
     <use style="fill:#1f77b4;stroke:#1f77b4;" x="339.377787" xlink:href="#m2c551e8527" y="171.118541"/>
     <use style="fill:#1f77b4;stroke:#1f77b4;" x="340.946166" xlink:href="#m2c551e8527" y="189.748239"/>
     <use style="fill:#1f77b4;stroke:#1f77b4;" x="342.514545" xlink:href="#m2c551e8527" y="183.880792"/>
     <use style="fill:#1f77b4;stroke:#1f77b4;" x="344.082925" xlink:href="#m2c551e8527" y="177.275184"/>
     <use style="fill:#1f77b4;stroke:#1f77b4;" x="345.651304" xlink:href="#m2c551e8527" y="171.148803"/>
     <use style="fill:#1f77b4;stroke:#1f77b4;" x="347.219684" xlink:href="#m2c551e8527" y="207.501418"/>
     <use style="fill:#1f77b4;stroke:#1f77b4;" x="348.788063" xlink:href="#m2c551e8527" y="177.052706"/>
     <use style="fill:#1f77b4;stroke:#1f77b4;" x="350.356443" xlink:href="#m2c551e8527" y="182.540899"/>
     <use style="fill:#1f77b4;stroke:#1f77b4;" x="351.924822" xlink:href="#m2c551e8527" y="180.175705"/>
     <use style="fill:#1f77b4;stroke:#1f77b4;" x="353.493202" xlink:href="#m2c551e8527" y="178.032065"/>
     <use style="fill:#1f77b4;stroke:#1f77b4;" x="355.061581" xlink:href="#m2c551e8527" y="174.119655"/>
     <use style="fill:#1f77b4;stroke:#1f77b4;" x="356.62996" xlink:href="#m2c551e8527" y="177.6175"/>
     <use style="fill:#1f77b4;stroke:#1f77b4;" x="358.19834" xlink:href="#m2c551e8527" y="180.309947"/>
     <use style="fill:#1f77b4;stroke:#1f77b4;" x="359.766719" xlink:href="#m2c551e8527" y="174.089843"/>
     <use style="fill:#1f77b4;stroke:#1f77b4;" x="361.335099" xlink:href="#m2c551e8527" y="175.646059"/>
     <use style="fill:#1f77b4;stroke:#1f77b4;" x="362.903478" xlink:href="#m2c551e8527" y="211.423514"/>
     <use style="fill:#1f77b4;stroke:#1f77b4;" x="364.471858" xlink:href="#m2c551e8527" y="174.133322"/>
     <use style="fill:#1f77b4;stroke:#1f77b4;" x="366.040237" xlink:href="#m2c551e8527" y="180.225937"/>
     <use style="fill:#1f77b4;stroke:#1f77b4;" x="367.608617" xlink:href="#m2c551e8527" y="200.385734"/>
     <use style="fill:#1f77b4;stroke:#1f77b4;" x="369.176996" xlink:href="#m2c551e8527" y="195.49383"/>
     <use style="fill:#1f77b4;stroke:#1f77b4;" x="370.745375" xlink:href="#m2c551e8527" y="200.353355"/>
     <use style="fill:#1f77b4;stroke:#1f77b4;" x="372.313755" xlink:href="#m2c551e8527" y="211.421005"/>
     <use style="fill:#1f77b4;stroke:#1f77b4;" x="373.882134" xlink:href="#m2c551e8527" y="180.802962"/>
     <use style="fill:#1f77b4;stroke:#1f77b4;" x="375.450514" xlink:href="#m2c551e8527" y="177.94642"/>
     <use style="fill:#1f77b4;stroke:#1f77b4;" x="376.447663" xlink:href="#m2c551e8527" y="22383.514"/>
    </g>
   </g>
   <g id="line2d_74">
    <path clip-path="url(#p5505dde1ec)" d="M 55.501107 57.162977 
L 57.069486 85.498985 
L 58.637866 117.548767 
L 60.206245 147.332372 
" style="fill:none;stroke:#2ca02c;stroke-dasharray:1.5,2.475;stroke-dashoffset:0;stroke-width:1.5;"/>
    <defs>
     <path d="M -3 3 
L 3 -3 
M -3 -3 
L 3 3 
" id="m05a997bd00" style="stroke:#2ca02c;"/>
    </defs>
    <g clip-path="url(#p5505dde1ec)">
     <use style="fill:#2ca02c;stroke:#2ca02c;" x="55.501107" xlink:href="#m05a997bd00" y="57.162977"/>
     <use style="fill:#2ca02c;stroke:#2ca02c;" x="57.069486" xlink:href="#m05a997bd00" y="85.498985"/>
     <use style="fill:#2ca02c;stroke:#2ca02c;" x="58.637866" xlink:href="#m05a997bd00" y="117.548767"/>
     <use style="fill:#2ca02c;stroke:#2ca02c;" x="60.206245" xlink:href="#m05a997bd00" y="147.332372"/>
    </g>
   </g>
   <g id="line2d_75">
    <path clip-path="url(#p5505dde1ec)" d="M 55.501107 99.728004 
L 66.497889 311.86825 
L 66.497889 311.86825 
" style="fill:none;stroke:#000000;stroke-dasharray:5.55,2.4;stroke-dashoffset:0;stroke-width:1.5;"/>
   </g>
   <g id="patch_3">
    <path d="M 37.7 273.312 
L 37.7 7.2 
" style="fill:none;stroke:#000000;stroke-linecap:square;stroke-linejoin:miter;stroke-width:0.8;"/>
   </g>
   <g id="patch_4">
    <path d="M 394.82 273.312 
L 394.82 7.2 
" style="fill:none;stroke:#000000;stroke-linecap:square;stroke-linejoin:miter;stroke-width:0.8;"/>
   </g>
   <g id="patch_5">
    <path d="M 37.7 273.312 
L 394.82 273.312 
" style="fill:none;stroke:#000000;stroke-linecap:square;stroke-linejoin:miter;stroke-width:0.8;"/>
   </g>
   <g id="patch_6">
    <path d="M 37.7 7.2 
L 394.82 7.2 
" style="fill:none;stroke:#000000;stroke-linecap:square;stroke-linejoin:miter;stroke-width:0.8;"/>
   </g>
   <g id="legend_1">
    <g id="patch_7">
     <path d="M 286.72 59.25625 
L 387.82 59.25625 
Q 389.82 59.25625 389.82 57.25625 
L 389.82 14.2 
Q 389.82 12.2 387.82 12.2 
L 286.72 12.2 
Q 284.72 12.2 284.72 14.2 
L 284.72 57.25625 
Q 284.72 59.25625 286.72 59.25625 
z
" style="fill:#ffffff;opacity:0.8;"/>
    </g>
    <g id="line2d_76">
     <path d="M 288.72 20.298437 
L 308.72 20.298437 
" style="fill:none;stroke:#1f77b4;stroke-linecap:square;stroke-width:1.5;"/>
    </g>
    <g id="line2d_77">
     <g>
      <use style="fill:#1f77b4;stroke:#1f77b4;" x="298.72" xlink:href="#m2c551e8527" y="20.298437"/>
     </g>
    </g>
    <g id="text_14">
     <!-- APD$_n$ - APD$_\infty$ -->
     <defs>
      <path d="M 34.1875 63.1875 
L 20.796875 26.90625 
L 47.609375 26.90625 
z
M 28.609375 72.90625 
L 39.796875 72.90625 
L 67.578125 0 
L 57.328125 0 
L 50.6875 18.703125 
L 17.828125 18.703125 
L 11.1875 0 
L 0.78125 0 
z
" id="DejaVuSans-65"/>
      <path d="M 19.671875 64.796875 
L 19.671875 37.40625 
L 32.078125 37.40625 
Q 38.96875 37.40625 42.71875 40.96875 
Q 46.484375 44.53125 46.484375 51.125 
Q 46.484375 57.671875 42.71875 61.234375 
Q 38.96875 64.796875 32.078125 64.796875 
z
M 9.8125 72.90625 
L 32.078125 72.90625 
Q 44.34375 72.90625 50.609375 67.359375 
Q 56.890625 61.8125 56.890625 51.125 
Q 56.890625 40.328125 50.609375 34.8125 
Q 44.34375 29.296875 32.078125 29.296875 
L 19.671875 29.296875 
L 19.671875 0 
L 9.8125 0 
z
" id="DejaVuSans-80"/>
      <path d="M 19.671875 64.796875 
L 19.671875 8.109375 
L 31.59375 8.109375 
Q 46.6875 8.109375 53.6875 14.9375 
Q 60.6875 21.78125 60.6875 36.53125 
Q 60.6875 51.171875 53.6875 57.984375 
Q 46.6875 64.796875 31.59375 64.796875 
z
M 9.8125 72.90625 
L 30.078125 72.90625 
Q 51.265625 72.90625 61.171875 64.09375 
Q 71.09375 55.28125 71.09375 36.53125 
Q 71.09375 17.671875 61.125 8.828125 
Q 51.171875 0 30.078125 0 
L 9.8125 0 
z
" id="DejaVuSans-68"/>
      <path d="M 55.71875 33.015625 
L 49.3125 0 
L 40.28125 0 
L 46.6875 32.671875 
Q 47.125 34.96875 47.359375 36.71875 
Q 47.609375 38.484375 47.609375 39.5 
Q 47.609375 43.609375 45.015625 45.890625 
Q 42.4375 48.1875 37.796875 48.1875 
Q 30.5625 48.1875 25.34375 43.375 
Q 20.125 38.578125 18.5 30.328125 
L 12.5 0 
L 3.515625 0 
L 14.109375 54.6875 
L 23.09375 54.6875 
L 21.296875 46.09375 
Q 25.046875 50.828125 30.3125 53.40625 
Q 35.59375 56 41.40625 56 
Q 48.640625 56 52.609375 52.09375 
Q 56.59375 48.1875 56.59375 41.109375 
Q 56.59375 39.359375 56.375 37.359375 
Q 56.15625 35.359375 55.71875 33.015625 
z
" id="DejaVuSans-Oblique-110"/>
      <path id="DejaVuSans-32"/>
      <path d="M 4.890625 31.390625 
L 31.203125 31.390625 
L 31.203125 23.390625 
L 4.890625 23.390625 
z
" id="DejaVuSans-45"/>
      <path d="M 45.5625 17.046875 
Q 44.046875 18.796875 41.65625 22.90625 
Q 38.375 17.046875 35.5 14.453125 
Q 31.890625 11.328125 26.265625 11.328125 
Q 19.671875 11.328125 15.328125 16.265625 
Q 10.75 21.4375 10.75 29.984375 
Q 10.75 38.1875 15.328125 43.75 
Q 19.4375 48.6875 26.375 48.6875 
Q 29.9375 48.6875 32.5625 47.21875 
Q 35.640625 45.609375 37.75 42.828125 
Q 39.703125 40.328125 41.65625 36.96875 
Q 44.921875 42.828125 47.796875 45.40625 
Q 51.421875 48.53125 57.03125 48.53125 
Q 63.625 48.53125 67.96875 43.609375 
Q 72.5625 38.421875 72.5625 29.890625 
Q 72.5625 21.6875 67.96875 16.109375 
Q 63.875 11.1875 56.9375 11.1875 
Q 53.375 11.1875 50.734375 12.640625 
Q 48.09375 13.96875 45.5625 17.046875 
z
M 25.734375 17.71875 
Q 33.796875 17.71875 38.625 29.4375 
Q 32.421875 42.234375 25.734375 42.234375 
Q 20.84375 42.234375 18.359375 38.71875 
Q 15.671875 34.96875 15.671875 29.984375 
Q 15.671875 24.515625 18.359375 21.140625 
Q 21.09375 17.71875 25.734375 17.71875 
z
M 57.5625 42.140625 
Q 50.296875 42.140625 44.671875 30.421875 
Q 50.828125 17.625 57.5625 17.625 
Q 62.453125 17.625 64.9375 21.140625 
Q 67.625 24.90625 67.625 29.890625 
Q 67.625 35.359375 64.9375 38.71875 
Q 62.203125 42.140625 57.5625 42.140625 
z
" id="DejaVuSans-8734"/>
     </defs>
     <g transform="translate(316.72 23.798437)scale(0.1 -0.1)">
      <use transform="translate(0 0.09375)" xlink:href="#DejaVuSans-65"/>
      <use transform="translate(68.408203 0.09375)" xlink:href="#DejaVuSans-80"/>
      <use transform="translate(128.710938 0.09375)" xlink:href="#DejaVuSans-68"/>
      <use transform="translate(206.669922 -16.3125)scale(0.7)" xlink:href="#DejaVuSans-Oblique-110"/>
      <use transform="translate(253.769531 0.09375)" xlink:href="#DejaVuSans-32"/>
      <use transform="translate(285.556641 0.09375)" xlink:href="#DejaVuSans-45"/>
      <use transform="translate(321.640625 0.09375)" xlink:href="#DejaVuSans-32"/>
      <use transform="translate(353.427734 0.09375)" xlink:href="#DejaVuSans-65"/>
      <use transform="translate(421.835938 0.09375)" xlink:href="#DejaVuSans-80"/>
      <use transform="translate(482.138672 0.09375)" xlink:href="#DejaVuSans-68"/>
      <use transform="translate(560.097656 -16.3125)scale(0.7)" xlink:href="#DejaVuSans-8734"/>
     </g>
    </g>
    <g id="line2d_78">
     <path d="M 288.72 34.976562 
L 308.72 34.976562 
" style="fill:none;stroke:#2ca02c;stroke-dasharray:1.5,2.475;stroke-dashoffset:0;stroke-width:1.5;"/>
    </g>
    <g id="line2d_79">
     <g>
      <use style="fill:#2ca02c;stroke:#2ca02c;" x="298.72" xlink:href="#m05a997bd00" y="34.976562"/>
     </g>
    </g>
    <g id="text_15">
     <!-- linear region -->
     <defs>
      <path d="M 9.421875 75.984375 
L 18.40625 75.984375 
L 18.40625 0 
L 9.421875 0 
z
" id="DejaVuSans-108"/>
      <path d="M 9.421875 54.6875 
L 18.40625 54.6875 
L 18.40625 0 
L 9.421875 0 
z
M 9.421875 75.984375 
L 18.40625 75.984375 
L 18.40625 64.59375 
L 9.421875 64.59375 
z
" id="DejaVuSans-105"/>
      <path d="M 54.890625 33.015625 
L 54.890625 0 
L 45.90625 0 
L 45.90625 32.71875 
Q 45.90625 40.484375 42.875 44.328125 
Q 39.84375 48.1875 33.796875 48.1875 
Q 26.515625 48.1875 22.3125 43.546875 
Q 18.109375 38.921875 18.109375 30.90625 
L 18.109375 0 
L 9.078125 0 
L 9.078125 54.6875 
L 18.109375 54.6875 
L 18.109375 46.1875 
Q 21.34375 51.125 25.703125 53.5625 
Q 30.078125 56 35.796875 56 
Q 45.21875 56 50.046875 50.171875 
Q 54.890625 44.34375 54.890625 33.015625 
z
" id="DejaVuSans-110"/>
      <path d="M 56.203125 29.59375 
L 56.203125 25.203125 
L 14.890625 25.203125 
Q 15.484375 15.921875 20.484375 11.0625 
Q 25.484375 6.203125 34.421875 6.203125 
Q 39.59375 6.203125 44.453125 7.46875 
Q 49.3125 8.734375 54.109375 11.28125 
L 54.109375 2.78125 
Q 49.265625 0.734375 44.1875 -0.34375 
Q 39.109375 -1.421875 33.890625 -1.421875 
Q 20.796875 -1.421875 13.15625 6.1875 
Q 5.515625 13.8125 5.515625 26.8125 
Q 5.515625 40.234375 12.765625 48.109375 
Q 20.015625 56 32.328125 56 
Q 43.359375 56 49.78125 48.890625 
Q 56.203125 41.796875 56.203125 29.59375 
z
M 47.21875 32.234375 
Q 47.125 39.59375 43.09375 43.984375 
Q 39.0625 48.390625 32.421875 48.390625 
Q 24.90625 48.390625 20.390625 44.140625 
Q 15.875 39.890625 15.1875 32.171875 
z
" id="DejaVuSans-101"/>
      <path d="M 34.28125 27.484375 
Q 23.390625 27.484375 19.1875 25 
Q 14.984375 22.515625 14.984375 16.5 
Q 14.984375 11.71875 18.140625 8.90625 
Q 21.296875 6.109375 26.703125 6.109375 
Q 34.1875 6.109375 38.703125 11.40625 
Q 43.21875 16.703125 43.21875 25.484375 
L 43.21875 27.484375 
z
M 52.203125 31.203125 
L 52.203125 0 
L 43.21875 0 
L 43.21875 8.296875 
Q 40.140625 3.328125 35.546875 0.953125 
Q 30.953125 -1.421875 24.3125 -1.421875 
Q 15.921875 -1.421875 10.953125 3.296875 
Q 6 8.015625 6 15.921875 
Q 6 25.140625 12.171875 29.828125 
Q 18.359375 34.515625 30.609375 34.515625 
L 43.21875 34.515625 
L 43.21875 35.40625 
Q 43.21875 41.609375 39.140625 45 
Q 35.0625 48.390625 27.6875 48.390625 
Q 23 48.390625 18.546875 47.265625 
Q 14.109375 46.140625 10.015625 43.890625 
L 10.015625 52.203125 
Q 14.9375 54.109375 19.578125 55.046875 
Q 24.21875 56 28.609375 56 
Q 40.484375 56 46.34375 49.84375 
Q 52.203125 43.703125 52.203125 31.203125 
z
" id="DejaVuSans-97"/>
      <path d="M 41.109375 46.296875 
Q 39.59375 47.171875 37.8125 47.578125 
Q 36.03125 48 33.890625 48 
Q 26.265625 48 22.1875 43.046875 
Q 18.109375 38.09375 18.109375 28.8125 
L 18.109375 0 
L 9.078125 0 
L 9.078125 54.6875 
L 18.109375 54.6875 
L 18.109375 46.1875 
Q 20.953125 51.171875 25.484375 53.578125 
Q 30.03125 56 36.53125 56 
Q 37.453125 56 38.578125 55.875 
Q 39.703125 55.765625 41.0625 55.515625 
z
" id="DejaVuSans-114"/>
      <path d="M 45.40625 27.984375 
Q 45.40625 37.75 41.375 43.109375 
Q 37.359375 48.484375 30.078125 48.484375 
Q 22.859375 48.484375 18.828125 43.109375 
Q 14.796875 37.75 14.796875 27.984375 
Q 14.796875 18.265625 18.828125 12.890625 
Q 22.859375 7.515625 30.078125 7.515625 
Q 37.359375 7.515625 41.375 12.890625 
Q 45.40625 18.265625 45.40625 27.984375 
z
M 54.390625 6.78125 
Q 54.390625 -7.171875 48.1875 -13.984375 
Q 42 -20.796875 29.203125 -20.796875 
Q 24.46875 -20.796875 20.265625 -20.09375 
Q 16.0625 -19.390625 12.109375 -17.921875 
L 12.109375 -9.1875 
Q 16.0625 -11.328125 19.921875 -12.34375 
Q 23.78125 -13.375 27.78125 -13.375 
Q 36.625 -13.375 41.015625 -8.765625 
Q 45.40625 -4.15625 45.40625 5.171875 
L 45.40625 9.625 
Q 42.625 4.78125 38.28125 2.390625 
Q 33.9375 0 27.875 0 
Q 17.828125 0 11.671875 7.65625 
Q 5.515625 15.328125 5.515625 27.984375 
Q 5.515625 40.671875 11.671875 48.328125 
Q 17.828125 56 27.875 56 
Q 33.9375 56 38.28125 53.609375 
Q 42.625 51.21875 45.40625 46.390625 
L 45.40625 54.6875 
L 54.390625 54.6875 
z
" id="DejaVuSans-103"/>
      <path d="M 30.609375 48.390625 
Q 23.390625 48.390625 19.1875 42.75 
Q 14.984375 37.109375 14.984375 27.296875 
Q 14.984375 17.484375 19.15625 11.84375 
Q 23.34375 6.203125 30.609375 6.203125 
Q 37.796875 6.203125 41.984375 11.859375 
Q 46.1875 17.53125 46.1875 27.296875 
Q 46.1875 37.015625 41.984375 42.703125 
Q 37.796875 48.390625 30.609375 48.390625 
z
M 30.609375 56 
Q 42.328125 56 49.015625 48.375 
Q 55.71875 40.765625 55.71875 27.296875 
Q 55.71875 13.875 49.015625 6.21875 
Q 42.328125 -1.421875 30.609375 -1.421875 
Q 18.84375 -1.421875 12.171875 6.21875 
Q 5.515625 13.875 5.515625 27.296875 
Q 5.515625 40.765625 12.171875 48.375 
Q 18.84375 56 30.609375 56 
z
" id="DejaVuSans-111"/>
     </defs>
     <g transform="translate(316.72 38.476562)scale(0.1 -0.1)">
      <use xlink:href="#DejaVuSans-108"/>
      <use x="27.783203" xlink:href="#DejaVuSans-105"/>
      <use x="55.566406" xlink:href="#DejaVuSans-110"/>
      <use x="118.945312" xlink:href="#DejaVuSans-101"/>
      <use x="180.46875" xlink:href="#DejaVuSans-97"/>
      <use x="241.748047" xlink:href="#DejaVuSans-114"/>
      <use x="282.861328" xlink:href="#DejaVuSans-32"/>
      <use x="314.648438" xlink:href="#DejaVuSans-114"/>
      <use x="353.511719" xlink:href="#DejaVuSans-101"/>
      <use x="415.035156" xlink:href="#DejaVuSans-103"/>
      <use x="478.511719" xlink:href="#DejaVuSans-105"/>
      <use x="506.294922" xlink:href="#DejaVuSans-111"/>
      <use x="567.476562" xlink:href="#DejaVuSans-110"/>
     </g>
    </g>
    <g id="line2d_80">
     <path d="M 288.72 49.65625 
L 308.72 49.65625 
" style="fill:none;stroke:#000000;stroke-dasharray:5.55,2.4;stroke-dashoffset:0;stroke-width:1.5;"/>
    </g>
    <g id="line2d_81"/>
    <g id="text_16">
     <!-- $ \exp(-1.988 k)$ -->
     <defs>
      <path d="M 54.890625 54.6875 
L 35.109375 28.078125 
L 55.90625 0 
L 45.3125 0 
L 29.390625 21.484375 
L 13.484375 0 
L 2.875 0 
L 24.125 28.609375 
L 4.6875 54.6875 
L 15.28125 54.6875 
L 29.78125 35.203125 
L 44.28125 54.6875 
z
" id="DejaVuSans-120"/>
      <path d="M 18.109375 8.203125 
L 18.109375 -20.796875 
L 9.078125 -20.796875 
L 9.078125 54.6875 
L 18.109375 54.6875 
L 18.109375 46.390625 
Q 20.953125 51.265625 25.265625 53.625 
Q 29.59375 56 35.59375 56 
Q 45.5625 56 51.78125 48.09375 
Q 58.015625 40.1875 58.015625 27.296875 
Q 58.015625 14.40625 51.78125 6.484375 
Q 45.5625 -1.421875 35.59375 -1.421875 
Q 29.59375 -1.421875 25.265625 0.953125 
Q 20.953125 3.328125 18.109375 8.203125 
z
M 48.6875 27.296875 
Q 48.6875 37.203125 44.609375 42.84375 
Q 40.53125 48.484375 33.40625 48.484375 
Q 26.265625 48.484375 22.1875 42.84375 
Q 18.109375 37.203125 18.109375 27.296875 
Q 18.109375 17.390625 22.1875 11.75 
Q 26.265625 6.109375 33.40625 6.109375 
Q 40.53125 6.109375 44.609375 11.75 
Q 48.6875 17.390625 48.6875 27.296875 
z
" id="DejaVuSans-112"/>
      <path d="M 31 75.875 
Q 24.46875 64.65625 21.28125 53.65625 
Q 18.109375 42.671875 18.109375 31.390625 
Q 18.109375 20.125 21.3125 9.0625 
Q 24.515625 -2 31 -13.1875 
L 23.1875 -13.1875 
Q 15.875 -1.703125 12.234375 9.375 
Q 8.59375 20.453125 8.59375 31.390625 
Q 8.59375 42.28125 12.203125 53.3125 
Q 15.828125 64.359375 23.1875 75.875 
z
" id="DejaVuSans-40"/>
      <path d="M 10.6875 12.40625 
L 21 12.40625 
L 21 0 
L 10.6875 0 
z
" id="DejaVuSans-46"/>
      <path d="M 10.984375 1.515625 
L 10.984375 10.5 
Q 14.703125 8.734375 18.5 7.8125 
Q 22.3125 6.890625 25.984375 6.890625 
Q 35.75 6.890625 40.890625 13.453125 
Q 46.046875 20.015625 46.78125 33.40625 
Q 43.953125 29.203125 39.59375 26.953125 
Q 35.25 24.703125 29.984375 24.703125 
Q 19.046875 24.703125 12.671875 31.3125 
Q 6.296875 37.9375 6.296875 49.421875 
Q 6.296875 60.640625 12.9375 67.421875 
Q 19.578125 74.21875 30.609375 74.21875 
Q 43.265625 74.21875 49.921875 64.515625 
Q 56.59375 54.828125 56.59375 36.375 
Q 56.59375 19.140625 48.40625 8.859375 
Q 40.234375 -1.421875 26.421875 -1.421875 
Q 22.703125 -1.421875 18.890625 -0.6875 
Q 15.09375 0.046875 10.984375 1.515625 
z
M 30.609375 32.421875 
Q 37.25 32.421875 41.125 36.953125 
Q 45.015625 41.5 45.015625 49.421875 
Q 45.015625 57.28125 41.125 61.84375 
Q 37.25 66.40625 30.609375 66.40625 
Q 23.96875 66.40625 20.09375 61.84375 
Q 16.21875 57.28125 16.21875 49.421875 
Q 16.21875 41.5 20.09375 36.953125 
Q 23.96875 32.421875 30.609375 32.421875 
z
" id="DejaVuSans-57"/>
      <path d="M 31.78125 34.625 
Q 24.75 34.625 20.71875 30.859375 
Q 16.703125 27.09375 16.703125 20.515625 
Q 16.703125 13.921875 20.71875 10.15625 
Q 24.75 6.390625 31.78125 6.390625 
Q 38.8125 6.390625 42.859375 10.171875 
Q 46.921875 13.96875 46.921875 20.515625 
Q 46.921875 27.09375 42.890625 30.859375 
Q 38.875 34.625 31.78125 34.625 
z
M 21.921875 38.8125 
Q 15.578125 40.375 12.03125 44.71875 
Q 8.5 49.078125 8.5 55.328125 
Q 8.5 64.0625 14.71875 69.140625 
Q 20.953125 74.21875 31.78125 74.21875 
Q 42.671875 74.21875 48.875 69.140625 
Q 55.078125 64.0625 55.078125 55.328125 
Q 55.078125 49.078125 51.53125 44.71875 
Q 48 40.375 41.703125 38.8125 
Q 48.828125 37.15625 52.796875 32.3125 
Q 56.78125 27.484375 56.78125 20.515625 
Q 56.78125 9.90625 50.3125 4.234375 
Q 43.84375 -1.421875 31.78125 -1.421875 
Q 19.734375 -1.421875 13.25 4.234375 
Q 6.78125 9.90625 6.78125 20.515625 
Q 6.78125 27.484375 10.78125 32.3125 
Q 14.796875 37.15625 21.921875 38.8125 
z
M 18.3125 54.390625 
Q 18.3125 48.734375 21.84375 45.5625 
Q 25.390625 42.390625 31.78125 42.390625 
Q 38.140625 42.390625 41.71875 45.5625 
Q 45.3125 48.734375 45.3125 54.390625 
Q 45.3125 60.0625 41.71875 63.234375 
Q 38.140625 66.40625 31.78125 66.40625 
Q 25.390625 66.40625 21.84375 63.234375 
Q 18.3125 60.0625 18.3125 54.390625 
z
" id="DejaVuSans-56"/>
      <path d="M 8.015625 75.875 
L 15.828125 75.875 
Q 23.140625 64.359375 26.78125 53.3125 
Q 30.421875 42.28125 30.421875 31.390625 
Q 30.421875 20.453125 26.78125 9.375 
Q 23.140625 -1.703125 15.828125 -13.1875 
L 8.015625 -13.1875 
Q 14.5 -2 17.703125 9.0625 
Q 20.90625 20.125 20.90625 31.390625 
Q 20.90625 42.671875 17.703125 53.65625 
Q 14.5 64.65625 8.015625 75.875 
z
" id="DejaVuSans-41"/>
     </defs>
     <g transform="translate(316.72 53.15625)scale(0.1 -0.1)">
      <use transform="translate(0 0.015625)" xlink:href="#DejaVuSans-101"/>
      <use transform="translate(61.523438 0.015625)" xlink:href="#DejaVuSans-120"/>
      <use transform="translate(120.703125 0.015625)" xlink:href="#DejaVuSans-112"/>
      <use transform="translate(184.179688 0.015625)" xlink:href="#DejaVuSans-40"/>
      <use transform="translate(223.193359 0.015625)" xlink:href="#DejaVuSans-8722"/>
      <use transform="translate(306.982422 0.015625)" xlink:href="#DejaVuSans-49"/>
      <use transform="translate(370.605469 0.015625)" xlink:href="#DejaVuSans-46"/>
      <use transform="translate(402.392578 0.015625)" xlink:href="#DejaVuSans-57"/>
      <use transform="translate(466.015625 0.015625)" xlink:href="#DejaVuSans-56"/>
      <use transform="translate(529.638672 0.015625)" xlink:href="#DejaVuSans-56"/>
      <use transform="translate(593.261719 0.015625)" xlink:href="#DejaVuSans-Oblique-107"/>
      <use transform="translate(651.171875 0.015625)" xlink:href="#DejaVuSans-41"/>
     </g>
    </g>
   </g>
  </g>
 </g>
 <defs>
  <clipPath id="p5505dde1ec">
   <rect height="266.112" width="357.12" x="37.7" y="7.2"/>
  </clipPath>
 </defs>
</svg>
