<?xml version="1.0" encoding="utf-8" standalone="no"?>
<!DOCTYPE svg PUBLIC "-//W3C//DTD SVG 1.1//EN"
  "http://www.w3.org/Graphics/SVG/1.1/DTD/svg11.dtd">
<!-- Created with matplotlib (https://matplotlib.org/) -->
<svg height="311.824799pt" version="1.1" viewBox="0 0 402.02 311.824799" width="402.02pt" xmlns="http://www.w3.org/2000/svg" xmlns:xlink="http://www.w3.org/1999/xlink">
 <defs>
  <style type="text/css">
*{stroke-linecap:butt;stroke-linejoin:round;}
  </style>
 </defs>
 <g id="figure_1">
  <g id="patch_1">
   <path d="M 0 311.824799 
L 402.02 311.824799 
L 402.02 0 
L 0 0 
z
" style="fill:#ffffff;"/>
  </g>
  <g id="axes_1">
   <g id="patch_2">
    <path d="M 37.7 274.268549 
L 394.82 274.268549 
L 394.82 8.156549 
L 37.7 8.156549 
z
" style="fill:#ffffff;"/>
   </g>
   <g id="matplotlib.axis_1">
    <g id="xtick_1">
     <g id="line2d_1">
      <defs>
       <path d="M 0 0 
L 0 3.5 
" id="m570bbcb17f" style="stroke:#000000;stroke-width:0.8;"/>
      </defs>
      <g>
       <use style="stroke:#000000;stroke-width:0.8;" x="53.932727" xlink:href="#m570bbcb17f" y="274.268549"/>
      </g>
     </g>
     <g id="text_1">
      <!-- 0 -->
      <defs>
       <path d="M 31.78125 66.40625 
Q 24.171875 66.40625 20.328125 58.90625 
Q 16.5 51.421875 16.5 36.375 
Q 16.5 21.390625 20.328125 13.890625 
Q 24.171875 6.390625 31.78125 6.390625 
Q 39.453125 6.390625 43.28125 13.890625 
Q 47.125 21.390625 47.125 36.375 
Q 47.125 51.421875 43.28125 58.90625 
Q 39.453125 66.40625 31.78125 66.40625 
z
M 31.78125 74.21875 
Q 44.046875 74.21875 50.515625 64.515625 
Q 56.984375 54.828125 56.984375 36.375 
Q 56.984375 17.96875 50.515625 8.265625 
Q 44.046875 -1.421875 31.78125 -1.421875 
Q 19.53125 -1.421875 13.0625 8.265625 
Q 6.59375 17.96875 6.59375 36.375 
Q 6.59375 54.828125 13.0625 64.515625 
Q 19.53125 74.21875 31.78125 74.21875 
z
" id="DejaVuSans-48"/>
      </defs>
      <g transform="translate(50.751477 288.866986)scale(0.1 -0.1)">
       <use xlink:href="#DejaVuSans-48"/>
      </g>
     </g>
    </g>
    <g id="xtick_2">
     <g id="line2d_2">
      <g>
       <use style="stroke:#000000;stroke-width:0.8;" x="104.66" xlink:href="#m570bbcb17f" y="274.268549"/>
      </g>
     </g>
     <g id="text_2">
      <!-- 50 -->
      <defs>
       <path d="M 10.796875 72.90625 
L 49.515625 72.90625 
L 49.515625 64.59375 
L 19.828125 64.59375 
L 19.828125 46.734375 
Q 21.96875 47.46875 24.109375 47.828125 
Q 26.265625 48.1875 28.421875 48.1875 
Q 40.625 48.1875 47.75 41.5 
Q 54.890625 34.8125 54.890625 23.390625 
Q 54.890625 11.625 47.5625 5.09375 
Q 40.234375 -1.421875 26.90625 -1.421875 
Q 22.3125 -1.421875 17.546875 -0.640625 
Q 12.796875 0.140625 7.71875 1.703125 
L 7.71875 11.625 
Q 12.109375 9.234375 16.796875 8.0625 
Q 21.484375 6.890625 26.703125 6.890625 
Q 35.15625 6.890625 40.078125 11.328125 
Q 45.015625 15.765625 45.015625 23.390625 
Q 45.015625 31 40.078125 35.4375 
Q 35.15625 39.890625 26.703125 39.890625 
Q 22.75 39.890625 18.8125 39.015625 
Q 14.890625 38.140625 10.796875 36.28125 
z
" id="DejaVuSans-53"/>
      </defs>
      <g transform="translate(98.2975 288.866986)scale(0.1 -0.1)">
       <use xlink:href="#DejaVuSans-53"/>
       <use x="63.623047" xlink:href="#DejaVuSans-48"/>
      </g>
     </g>
    </g>
    <g id="xtick_3">
     <g id="line2d_3">
      <g>
       <use style="stroke:#000000;stroke-width:0.8;" x="155.387273" xlink:href="#m570bbcb17f" y="274.268549"/>
      </g>
     </g>
     <g id="text_3">
      <!-- 100 -->
      <defs>
       <path d="M 12.40625 8.296875 
L 28.515625 8.296875 
L 28.515625 63.921875 
L 10.984375 60.40625 
L 10.984375 69.390625 
L 28.421875 72.90625 
L 38.28125 72.90625 
L 38.28125 8.296875 
L 54.390625 8.296875 
L 54.390625 0 
L 12.40625 0 
z
" id="DejaVuSans-49"/>
      </defs>
      <g transform="translate(145.843523 288.866986)scale(0.1 -0.1)">
       <use xlink:href="#DejaVuSans-49"/>
       <use x="63.623047" xlink:href="#DejaVuSans-48"/>
       <use x="127.246094" xlink:href="#DejaVuSans-48"/>
      </g>
     </g>
    </g>
    <g id="xtick_4">
     <g id="line2d_4">
      <g>
       <use style="stroke:#000000;stroke-width:0.8;" x="206.114545" xlink:href="#m570bbcb17f" y="274.268549"/>
      </g>
     </g>
     <g id="text_4">
      <!-- 150 -->
      <g transform="translate(196.570795 288.866986)scale(0.1 -0.1)">
       <use xlink:href="#DejaVuSans-49"/>
       <use x="63.623047" xlink:href="#DejaVuSans-53"/>
       <use x="127.246094" xlink:href="#DejaVuSans-48"/>
      </g>
     </g>
    </g>
    <g id="xtick_5">
     <g id="line2d_5">
      <g>
       <use style="stroke:#000000;stroke-width:0.8;" x="256.841818" xlink:href="#m570bbcb17f" y="274.268549"/>
      </g>
     </g>
     <g id="text_5">
      <!-- 200 -->
      <defs>
       <path d="M 19.1875 8.296875 
L 53.609375 8.296875 
L 53.609375 0 
L 7.328125 0 
L 7.328125 8.296875 
Q 12.9375 14.109375 22.625 23.890625 
Q 32.328125 33.6875 34.8125 36.53125 
Q 39.546875 41.84375 41.421875 45.53125 
Q 43.3125 49.21875 43.3125 52.78125 
Q 43.3125 58.59375 39.234375 62.25 
Q 35.15625 65.921875 28.609375 65.921875 
Q 23.96875 65.921875 18.8125 64.3125 
Q 13.671875 62.703125 7.8125 59.421875 
L 7.8125 69.390625 
Q 13.765625 71.78125 18.9375 73 
Q 24.125 74.21875 28.421875 74.21875 
Q 39.75 74.21875 46.484375 68.546875 
Q 53.21875 62.890625 53.21875 53.421875 
Q 53.21875 48.921875 51.53125 44.890625 
Q 49.859375 40.875 45.40625 35.40625 
Q 44.1875 33.984375 37.640625 27.21875 
Q 31.109375 20.453125 19.1875 8.296875 
z
" id="DejaVuSans-50"/>
      </defs>
      <g transform="translate(247.298068 288.866986)scale(0.1 -0.1)">
       <use xlink:href="#DejaVuSans-50"/>
       <use x="63.623047" xlink:href="#DejaVuSans-48"/>
       <use x="127.246094" xlink:href="#DejaVuSans-48"/>
      </g>
     </g>
    </g>
    <g id="xtick_6">
     <g id="line2d_6">
      <g>
       <use style="stroke:#000000;stroke-width:0.8;" x="307.569091" xlink:href="#m570bbcb17f" y="274.268549"/>
      </g>
     </g>
     <g id="text_6">
      <!-- 250 -->
      <g transform="translate(298.025341 288.866986)scale(0.1 -0.1)">
       <use xlink:href="#DejaVuSans-50"/>
       <use x="63.623047" xlink:href="#DejaVuSans-53"/>
       <use x="127.246094" xlink:href="#DejaVuSans-48"/>
      </g>
     </g>
    </g>
    <g id="xtick_7">
     <g id="line2d_7">
      <g>
       <use style="stroke:#000000;stroke-width:0.8;" x="358.296364" xlink:href="#m570bbcb17f" y="274.268549"/>
      </g>
     </g>
     <g id="text_7">
      <!-- 300 -->
      <defs>
       <path d="M 40.578125 39.3125 
Q 47.65625 37.796875 51.625 33 
Q 55.609375 28.21875 55.609375 21.1875 
Q 55.609375 10.40625 48.1875 4.484375 
Q 40.765625 -1.421875 27.09375 -1.421875 
Q 22.515625 -1.421875 17.65625 -0.515625 
Q 12.796875 0.390625 7.625 2.203125 
L 7.625 11.71875 
Q 11.71875 9.328125 16.59375 8.109375 
Q 21.484375 6.890625 26.8125 6.890625 
Q 36.078125 6.890625 40.9375 10.546875 
Q 45.796875 14.203125 45.796875 21.1875 
Q 45.796875 27.640625 41.28125 31.265625 
Q 36.765625 34.90625 28.71875 34.90625 
L 20.21875 34.90625 
L 20.21875 43.015625 
L 29.109375 43.015625 
Q 36.375 43.015625 40.234375 45.921875 
Q 44.09375 48.828125 44.09375 54.296875 
Q 44.09375 59.90625 40.109375 62.90625 
Q 36.140625 65.921875 28.71875 65.921875 
Q 24.65625 65.921875 20.015625 65.03125 
Q 15.375 64.15625 9.8125 62.3125 
L 9.8125 71.09375 
Q 15.4375 72.65625 20.34375 73.4375 
Q 25.25 74.21875 29.59375 74.21875 
Q 40.828125 74.21875 47.359375 69.109375 
Q 53.90625 64.015625 53.90625 55.328125 
Q 53.90625 49.265625 50.4375 45.09375 
Q 46.96875 40.921875 40.578125 39.3125 
z
" id="DejaVuSans-51"/>
      </defs>
      <g transform="translate(348.752614 288.866986)scale(0.1 -0.1)">
       <use xlink:href="#DejaVuSans-51"/>
       <use x="63.623047" xlink:href="#DejaVuSans-48"/>
       <use x="127.246094" xlink:href="#DejaVuSans-48"/>
      </g>
     </g>
    </g>
    <g id="text_8">
     <!-- $ k $ -->
     <defs>
      <path d="M 18.3125 75.984375 
L 27.296875 75.984375 
L 18.703125 31.6875 
L 49.515625 54.6875 
L 61.1875 54.6875 
L 26.8125 28.515625 
L 51.90625 0 
L 41.015625 0 
L 17.671875 26.703125 
L 12.5 0 
L 3.515625 0 
z
" id="DejaVuSans-Oblique-107"/>
     </defs>
     <g transform="translate(213.36 302.545111)scale(0.1 -0.1)">
      <use transform="translate(0 0.015625)" xlink:href="#DejaVuSans-Oblique-107"/>
     </g>
    </g>
   </g>
   <g id="matplotlib.axis_2">
    <g id="ytick_1">
     <g id="line2d_8">
      <defs>
       <path d="M 0 0 
L -3.5 0 
" id="mdb7d12d488" style="stroke:#000000;stroke-width:0.8;"/>
      </defs>
      <g>
       <use style="stroke:#000000;stroke-width:0.8;" x="37.7" xlink:href="#mdb7d12d488" y="257.829711"/>
      </g>
     </g>
     <g id="text_9">
      <!-- $\mathdefault{10^{-3}}$ -->
      <defs>
       <path d="M 10.59375 35.5 
L 73.1875 35.5 
L 73.1875 27.203125 
L 10.59375 27.203125 
z
" id="DejaVuSans-8722"/>
      </defs>
      <g transform="translate(7.2 261.62893)scale(0.1 -0.1)">
       <use transform="translate(0 0.765625)" xlink:href="#DejaVuSans-49"/>
       <use transform="translate(63.623047 0.765625)" xlink:href="#DejaVuSans-48"/>
       <use transform="translate(128.203125 39.046875)scale(0.7)" xlink:href="#DejaVuSans-8722"/>
       <use transform="translate(186.855469 39.046875)scale(0.7)" xlink:href="#DejaVuSans-51"/>
      </g>
     </g>
    </g>
    <g id="ytick_2">
     <g id="line2d_9">
      <g>
       <use style="stroke:#000000;stroke-width:0.8;" x="37.7" xlink:href="#mdb7d12d488" y="208.463612"/>
      </g>
     </g>
     <g id="text_10">
      <!-- $\mathdefault{10^{-2}}$ -->
      <g transform="translate(7.2 212.262831)scale(0.1 -0.1)">
       <use transform="translate(0 0.765625)" xlink:href="#DejaVuSans-49"/>
       <use transform="translate(63.623047 0.765625)" xlink:href="#DejaVuSans-48"/>
       <use transform="translate(128.203125 39.046875)scale(0.7)" xlink:href="#DejaVuSans-8722"/>
       <use transform="translate(186.855469 39.046875)scale(0.7)" xlink:href="#DejaVuSans-50"/>
      </g>
     </g>
    </g>
    <g id="ytick_3">
     <g id="line2d_10">
      <g>
       <use style="stroke:#000000;stroke-width:0.8;" x="37.7" xlink:href="#mdb7d12d488" y="159.097514"/>
      </g>
     </g>
     <g id="text_11">
      <!-- $\mathdefault{10^{-1}}$ -->
      <g transform="translate(7.2 162.896733)scale(0.1 -0.1)">
       <use transform="translate(0 0.684375)" xlink:href="#DejaVuSans-49"/>
       <use transform="translate(63.623047 0.684375)" xlink:href="#DejaVuSans-48"/>
       <use transform="translate(128.203125 38.965625)scale(0.7)" xlink:href="#DejaVuSans-8722"/>
       <use transform="translate(186.855469 38.965625)scale(0.7)" xlink:href="#DejaVuSans-49"/>
      </g>
     </g>
    </g>
    <g id="ytick_4">
     <g id="line2d_11">
      <g>
       <use style="stroke:#000000;stroke-width:0.8;" x="37.7" xlink:href="#mdb7d12d488" y="109.731416"/>
      </g>
     </g>
     <g id="text_12">
      <!-- $\mathdefault{10^{0}}$ -->
      <g transform="translate(13.1 113.530634)scale(0.1 -0.1)">
       <use transform="translate(0 0.765625)" xlink:href="#DejaVuSans-49"/>
       <use transform="translate(63.623047 0.765625)" xlink:href="#DejaVuSans-48"/>
       <use transform="translate(128.203125 39.046875)scale(0.7)" xlink:href="#DejaVuSans-48"/>
      </g>
     </g>
    </g>
    <g id="ytick_5">
     <g id="line2d_12">
      <g>
       <use style="stroke:#000000;stroke-width:0.8;" x="37.7" xlink:href="#mdb7d12d488" y="60.365317"/>
      </g>
     </g>
     <g id="text_13">
      <!-- $\mathdefault{10^{1}}$ -->
      <g transform="translate(13.1 64.164536)scale(0.1 -0.1)">
       <use transform="translate(0 0.684375)" xlink:href="#DejaVuSans-49"/>
       <use transform="translate(63.623047 0.684375)" xlink:href="#DejaVuSans-48"/>
       <use transform="translate(128.203125 38.965625)scale(0.7)" xlink:href="#DejaVuSans-49"/>
      </g>
     </g>
    </g>
    <g id="ytick_6">
     <g id="line2d_13">
      <g>
       <use style="stroke:#000000;stroke-width:0.8;" x="37.7" xlink:href="#mdb7d12d488" y="10.999219"/>
      </g>
     </g>
     <g id="text_14">
      <!-- $\mathdefault{10^{2}}$ -->
      <g transform="translate(13.1 14.798438)scale(0.1 -0.1)">
       <use transform="translate(0 0.765625)" xlink:href="#DejaVuSans-49"/>
       <use transform="translate(63.623047 0.765625)" xlink:href="#DejaVuSans-48"/>
       <use transform="translate(128.203125 39.046875)scale(0.7)" xlink:href="#DejaVuSans-50"/>
      </g>
     </g>
    </g>
    <g id="ytick_7">
     <g id="line2d_14">
      <defs>
       <path d="M 0 0 
L -2 0 
" id="m42760ef1c3" style="stroke:#000000;stroke-width:0.6;"/>
      </defs>
      <g>
       <use style="stroke:#000000;stroke-width:0.6;" x="37.7" xlink:href="#m42760ef1c3" y="272.690387"/>
      </g>
     </g>
    </g>
    <g id="ytick_8">
     <g id="line2d_15">
      <g>
       <use style="stroke:#000000;stroke-width:0.6;" x="37.7" xlink:href="#m42760ef1c3" y="268.781518"/>
      </g>
     </g>
    </g>
    <g id="ytick_9">
     <g id="line2d_16">
      <g>
       <use style="stroke:#000000;stroke-width:0.6;" x="37.7" xlink:href="#m42760ef1c3" y="265.476616"/>
      </g>
     </g>
    </g>
    <g id="ytick_10">
     <g id="line2d_17">
      <g>
       <use style="stroke:#000000;stroke-width:0.6;" x="37.7" xlink:href="#m42760ef1c3" y="262.61378"/>
      </g>
     </g>
    </g>
    <g id="ytick_11">
     <g id="line2d_18">
      <g>
       <use style="stroke:#000000;stroke-width:0.6;" x="37.7" xlink:href="#m42760ef1c3" y="260.08858"/>
      </g>
     </g>
    </g>
    <g id="ytick_12">
     <g id="line2d_19">
      <g>
       <use style="stroke:#000000;stroke-width:0.6;" x="37.7" xlink:href="#m42760ef1c3" y="242.969035"/>
      </g>
     </g>
    </g>
    <g id="ytick_13">
     <g id="line2d_20">
      <g>
       <use style="stroke:#000000;stroke-width:0.6;" x="37.7" xlink:href="#m42760ef1c3" y="234.276096"/>
      </g>
     </g>
    </g>
    <g id="ytick_14">
     <g id="line2d_21">
      <g>
       <use style="stroke:#000000;stroke-width:0.6;" x="37.7" xlink:href="#m42760ef1c3" y="228.108358"/>
      </g>
     </g>
    </g>
    <g id="ytick_15">
     <g id="line2d_22">
      <g>
       <use style="stroke:#000000;stroke-width:0.6;" x="37.7" xlink:href="#m42760ef1c3" y="223.324289"/>
      </g>
     </g>
    </g>
    <g id="ytick_16">
     <g id="line2d_23">
      <g>
       <use style="stroke:#000000;stroke-width:0.6;" x="37.7" xlink:href="#m42760ef1c3" y="219.41542"/>
      </g>
     </g>
    </g>
    <g id="ytick_17">
     <g id="line2d_24">
      <g>
       <use style="stroke:#000000;stroke-width:0.6;" x="37.7" xlink:href="#m42760ef1c3" y="216.110518"/>
      </g>
     </g>
    </g>
    <g id="ytick_18">
     <g id="line2d_25">
      <g>
       <use style="stroke:#000000;stroke-width:0.6;" x="37.7" xlink:href="#m42760ef1c3" y="213.247682"/>
      </g>
     </g>
    </g>
    <g id="ytick_19">
     <g id="line2d_26">
      <g>
       <use style="stroke:#000000;stroke-width:0.6;" x="37.7" xlink:href="#m42760ef1c3" y="210.722481"/>
      </g>
     </g>
    </g>
    <g id="ytick_20">
     <g id="line2d_27">
      <g>
       <use style="stroke:#000000;stroke-width:0.6;" x="37.7" xlink:href="#m42760ef1c3" y="193.602936"/>
      </g>
     </g>
    </g>
    <g id="ytick_21">
     <g id="line2d_28">
      <g>
       <use style="stroke:#000000;stroke-width:0.6;" x="37.7" xlink:href="#m42760ef1c3" y="184.909998"/>
      </g>
     </g>
    </g>
    <g id="ytick_22">
     <g id="line2d_29">
      <g>
       <use style="stroke:#000000;stroke-width:0.6;" x="37.7" xlink:href="#m42760ef1c3" y="178.74226"/>
      </g>
     </g>
    </g>
    <g id="ytick_23">
     <g id="line2d_30">
      <g>
       <use style="stroke:#000000;stroke-width:0.6;" x="37.7" xlink:href="#m42760ef1c3" y="173.95819"/>
      </g>
     </g>
    </g>
    <g id="ytick_24">
     <g id="line2d_31">
      <g>
       <use style="stroke:#000000;stroke-width:0.6;" x="37.7" xlink:href="#m42760ef1c3" y="170.049321"/>
      </g>
     </g>
    </g>
    <g id="ytick_25">
     <g id="line2d_32">
      <g>
       <use style="stroke:#000000;stroke-width:0.6;" x="37.7" xlink:href="#m42760ef1c3" y="166.744419"/>
      </g>
     </g>
    </g>
    <g id="ytick_26">
     <g id="line2d_33">
      <g>
       <use style="stroke:#000000;stroke-width:0.6;" x="37.7" xlink:href="#m42760ef1c3" y="163.881583"/>
      </g>
     </g>
    </g>
    <g id="ytick_27">
     <g id="line2d_34">
      <g>
       <use style="stroke:#000000;stroke-width:0.6;" x="37.7" xlink:href="#m42760ef1c3" y="161.356383"/>
      </g>
     </g>
    </g>
    <g id="ytick_28">
     <g id="line2d_35">
      <g>
       <use style="stroke:#000000;stroke-width:0.6;" x="37.7" xlink:href="#m42760ef1c3" y="144.236838"/>
      </g>
     </g>
    </g>
    <g id="ytick_29">
     <g id="line2d_36">
      <g>
       <use style="stroke:#000000;stroke-width:0.6;" x="37.7" xlink:href="#m42760ef1c3" y="135.543899"/>
      </g>
     </g>
    </g>
    <g id="ytick_30">
     <g id="line2d_37">
      <g>
       <use style="stroke:#000000;stroke-width:0.6;" x="37.7" xlink:href="#m42760ef1c3" y="129.376161"/>
      </g>
     </g>
    </g>
    <g id="ytick_31">
     <g id="line2d_38">
      <g>
       <use style="stroke:#000000;stroke-width:0.6;" x="37.7" xlink:href="#m42760ef1c3" y="124.592092"/>
      </g>
     </g>
    </g>
    <g id="ytick_32">
     <g id="line2d_39">
      <g>
       <use style="stroke:#000000;stroke-width:0.6;" x="37.7" xlink:href="#m42760ef1c3" y="120.683223"/>
      </g>
     </g>
    </g>
    <g id="ytick_33">
     <g id="line2d_40">
      <g>
       <use style="stroke:#000000;stroke-width:0.6;" x="37.7" xlink:href="#m42760ef1c3" y="117.378321"/>
      </g>
     </g>
    </g>
    <g id="ytick_34">
     <g id="line2d_41">
      <g>
       <use style="stroke:#000000;stroke-width:0.6;" x="37.7" xlink:href="#m42760ef1c3" y="114.515485"/>
      </g>
     </g>
    </g>
    <g id="ytick_35">
     <g id="line2d_42">
      <g>
       <use style="stroke:#000000;stroke-width:0.6;" x="37.7" xlink:href="#m42760ef1c3" y="111.990284"/>
      </g>
     </g>
    </g>
    <g id="ytick_36">
     <g id="line2d_43">
      <g>
       <use style="stroke:#000000;stroke-width:0.6;" x="37.7" xlink:href="#m42760ef1c3" y="94.870739"/>
      </g>
     </g>
    </g>
    <g id="ytick_37">
     <g id="line2d_44">
      <g>
       <use style="stroke:#000000;stroke-width:0.6;" x="37.7" xlink:href="#m42760ef1c3" y="86.177801"/>
      </g>
     </g>
    </g>
    <g id="ytick_38">
     <g id="line2d_45">
      <g>
       <use style="stroke:#000000;stroke-width:0.6;" x="37.7" xlink:href="#m42760ef1c3" y="80.010063"/>
      </g>
     </g>
    </g>
    <g id="ytick_39">
     <g id="line2d_46">
      <g>
       <use style="stroke:#000000;stroke-width:0.6;" x="37.7" xlink:href="#m42760ef1c3" y="75.225994"/>
      </g>
     </g>
    </g>
    <g id="ytick_40">
     <g id="line2d_47">
      <g>
       <use style="stroke:#000000;stroke-width:0.6;" x="37.7" xlink:href="#m42760ef1c3" y="71.317124"/>
      </g>
     </g>
    </g>
    <g id="ytick_41">
     <g id="line2d_48">
      <g>
       <use style="stroke:#000000;stroke-width:0.6;" x="37.7" xlink:href="#m42760ef1c3" y="68.012223"/>
      </g>
     </g>
    </g>
    <g id="ytick_42">
     <g id="line2d_49">
      <g>
       <use style="stroke:#000000;stroke-width:0.6;" x="37.7" xlink:href="#m42760ef1c3" y="65.149386"/>
      </g>
     </g>
    </g>
    <g id="ytick_43">
     <g id="line2d_50">
      <g>
       <use style="stroke:#000000;stroke-width:0.6;" x="37.7" xlink:href="#m42760ef1c3" y="62.624186"/>
      </g>
     </g>
    </g>
    <g id="ytick_44">
     <g id="line2d_51">
      <g>
       <use style="stroke:#000000;stroke-width:0.6;" x="37.7" xlink:href="#m42760ef1c3" y="45.504641"/>
      </g>
     </g>
    </g>
    <g id="ytick_45">
     <g id="line2d_52">
      <g>
       <use style="stroke:#000000;stroke-width:0.6;" x="37.7" xlink:href="#m42760ef1c3" y="36.811702"/>
      </g>
     </g>
    </g>
    <g id="ytick_46">
     <g id="line2d_53">
      <g>
       <use style="stroke:#000000;stroke-width:0.6;" x="37.7" xlink:href="#m42760ef1c3" y="30.643964"/>
      </g>
     </g>
    </g>
    <g id="ytick_47">
     <g id="line2d_54">
      <g>
       <use style="stroke:#000000;stroke-width:0.6;" x="37.7" xlink:href="#m42760ef1c3" y="25.859895"/>
      </g>
     </g>
    </g>
    <g id="ytick_48">
     <g id="line2d_55">
      <g>
       <use style="stroke:#000000;stroke-width:0.6;" x="37.7" xlink:href="#m42760ef1c3" y="21.951026"/>
      </g>
     </g>
    </g>
    <g id="ytick_49">
     <g id="line2d_56">
      <g>
       <use style="stroke:#000000;stroke-width:0.6;" x="37.7" xlink:href="#m42760ef1c3" y="18.646124"/>
      </g>
     </g>
    </g>
    <g id="ytick_50">
     <g id="line2d_57">
      <g>
       <use style="stroke:#000000;stroke-width:0.6;" x="37.7" xlink:href="#m42760ef1c3" y="15.783288"/>
      </g>
     </g>
    </g>
    <g id="ytick_51">
     <g id="line2d_58">
      <g>
       <use style="stroke:#000000;stroke-width:0.6;" x="37.7" xlink:href="#m42760ef1c3" y="13.258088"/>
      </g>
     </g>
    </g>
   </g>
   <g id="line2d_59">
    <path clip-path="url(#pb4021bfe56)" d="M 53.932727 20.252549 
L 54.947273 57.2039 
L 55.961818 56.280165 
L 56.976364 61.015934 
L 57.990909 58.455452 
L 59.005455 63.013441 
L 60.02 60.420527 
L 61.034545 64.558292 
L 62.049091 62.017214 
L 63.063636 65.841157 
L 64.078182 63.377306 
L 65.092727 66.96456 
L 66.107273 64.5887 
L 67.121818 67.987476 
L 68.136364 65.707918 
L 69.150909 68.948893 
L 70.165455 66.767215 
L 71.18 69.873013 
L 72.194545 67.788772 
L 73.209091 70.772562 
L 74.223636 68.782738 
L 75.238182 71.657654 
L 76.252727 69.76225 
L 77.267273 72.535231 
L 78.281818 70.73047 
L 79.296364 73.408863 
L 80.310909 71.692481 
L 81.325455 74.282747 
L 82.34 72.653025 
L 83.354545 75.158215 
L 84.369091 73.610567 
L 85.383636 76.035752 
L 86.398182 74.569204 
L 87.412727 76.919464 
L 88.427273 75.53069 
L 89.441818 77.809572 
L 90.456364 76.493109 
L 91.470909 78.701345 
L 92.485455 77.460743 
L 93.5 79.602695 
L 94.514545 78.429424 
L 95.529091 80.507766 
L 96.543636 79.398036 
L 97.558182 81.419151 
L 98.572727 80.373476 
L 99.587273 82.336505 
L 100.601818 81.351431 
L 101.616364 83.256849 
L 102.630909 82.329676 
L 103.645455 84.183119 
L 104.66 83.309358 
L 105.674545 85.112525 
L 106.689091 84.292044 
L 107.703636 86.048416 
L 108.718182 85.276298 
L 109.732727 86.985602 
L 110.747273 86.26194 
L 111.761818 87.932846 
L 112.776364 87.254554 
L 113.790909 88.883359 
L 114.805455 88.248506 
L 115.82 89.839368 
L 116.834545 89.247318 
L 117.849091 90.800859 
L 118.863636 90.247578 
L 119.878182 91.766797 
L 120.892727 91.243477 
L 121.907273 92.723043 
L 122.921818 92.235263 
L 123.936364 93.688768 
L 124.950909 93.235731 
L 125.965455 94.663906 
L 126.98 94.235887 
L 127.994545 95.634864 
L 129.009091 95.241779 
L 130.023636 96.617624 
L 131.038182 96.24664 
L 132.052727 97.594346 
L 133.067273 97.246463 
L 134.081818 98.578069 
L 135.096364 98.252111 
L 136.110909 99.562253 
L 137.125455 99.254048 
L 138.14 100.547793 
L 139.154545 100.261533 
L 140.169091 101.539501 
L 141.183636 101.277357 
L 142.198182 102.537522 
L 143.212727 102.282467 
L 144.227273 103.529187 
L 145.241818 103.289502 
L 146.256364 104.524411 
L 147.270909 104.292717 
L 148.285455 105.514994 
L 149.3 105.29184 
L 150.314545 106.505744 
L 151.329091 106.290924 
L 152.343636 107.499222 
L 153.358182 107.294551 
L 154.372727 108.498032 
L 155.387273 108.301154 
L 156.401818 109.504317 
L 157.416364 109.315303 
L 158.430909 110.513114 
L 159.445455 110.321886 
L 160.46 111.520505 
L 161.474545 111.32736 
L 162.489091 112.519526 
L 163.503636 112.328972 
L 164.518182 113.526684 
L 165.532727 113.332324 
L 166.547273 114.53013 
L 167.561818 114.336473 
L 168.576364 115.535033 
L 169.590909 115.3325 
L 170.605455 116.548226 
L 171.62 116.334014 
L 172.634545 117.556065 
L 173.649091 117.338465 
L 174.663636 118.573107 
L 175.678182 118.340119 
L 176.692727 119.575339 
L 177.707273 119.336743 
L 178.721818 120.596843 
L 179.736364 120.346503 
L 180.750909 121.611832 
L 181.765455 121.347535 
L 182.78 122.638089 
L 183.794545 122.346928 
L 184.809091 123.640459 
L 185.823636 123.335121 
L 186.838182 124.656218 
L 187.852727 124.323328 
L 188.867273 125.679257 
L 189.881818 125.342924 
L 190.896364 126.716589 
L 191.910909 126.341402 
L 192.925455 127.737015 
L 193.94 127.328365 
L 194.954545 128.753607 
L 195.969091 128.338279 
L 196.983636 129.793644 
L 197.998182 129.346017 
L 199.012727 130.834125 
L 200.027273 130.337927 
L 201.041818 131.862252 
L 202.056364 131.343576 
L 203.070909 132.877111 
L 204.085455 132.308302 
L 205.1 133.894253 
L 206.114545 133.297508 
L 207.129091 134.925115 
L 208.143636 134.291771 
L 209.158182 135.944638 
L 210.172727 135.261661 
L 211.187273 136.997719 
L 212.201818 136.261805 
L 213.216364 138.040241 
L 214.230909 137.2513 
L 215.245455 139.080587 
L 216.26 138.23779 
L 217.274545 140.087501 
L 218.289091 139.203135 
L 219.303636 141.136617 
L 220.318182 140.229554 
L 221.332727 142.213918 
L 222.347273 141.198697 
L 223.361818 143.263182 
L 224.376364 142.218041 
L 225.390909 144.358701 
L 226.405455 143.214458 
L 227.42 145.44103 
L 228.434545 144.169444 
L 229.449091 146.386332 
L 230.463636 145.067543 
L 231.478182 147.384665 
L 232.492727 146.022263 
L 233.507273 148.430474 
L 234.521818 146.957198 
L 235.536364 149.492265 
L 236.550909 147.975793 
L 237.565455 150.586286 
L 238.58 148.946095 
L 239.594545 151.652418 
L 240.609091 149.930679 
L 241.623636 152.720739 
L 242.638182 150.875059 
L 243.652727 153.742843 
L 244.667273 151.743834 
L 245.681818 154.647582 
L 246.696364 152.656354 
L 247.710909 155.729442 
L 248.725455 153.55169 
L 249.74 156.804466 
L 250.754545 154.634149 
L 251.769091 158.04542 
L 252.783636 155.605715 
L 253.798182 159.048689 
L 254.812727 156.468371 
L 255.827273 160.127035 
L 256.841818 157.379621 
L 257.856364 161.176491 
L 258.870909 158.354844 
L 259.885455 162.329457 
L 260.9 159.337507 
L 261.914545 163.431451 
L 262.929091 160.190432 
L 263.943636 164.510921 
L 264.958182 161.097085 
L 265.972727 165.461189 
L 266.987273 161.926885 
L 268.001818 166.48523 
L 269.016364 162.783746 
L 270.030909 167.558402 
L 271.045455 163.650661 
L 272.06 168.681189 
L 273.074545 164.631191 
L 274.089091 169.897078 
L 275.103636 165.566044 
L 276.118182 170.980285 
L 277.132727 166.338195 
L 278.147273 171.702539 
L 279.161818 166.958777 
L 280.176364 172.830963 
L 281.190909 167.926605 
L 282.205455 174.10261 
L 283.22 168.800923 
L 284.234545 175.069626 
L 285.249091 169.509073 
L 286.263636 176.012793 
L 287.278182 170.317405 
L 288.292727 177.220204 
L 289.307273 171.246632 
L 290.321818 178.465518 
L 291.336364 172.126749 
L 292.350909 179.74178 
L 293.365455 173.174093 
L 294.38 181.00545 
L 295.394545 173.986424 
L 296.409091 182.330345 
L 297.423636 174.947052 
L 298.438182 183.80674 
L 299.452727 175.775418 
L 300.467273 184.966417 
L 301.481818 176.634577 
L 302.496364 186.243269 
L 303.510909 177.462375 
L 304.525455 187.475487 
L 305.54 178.223604 
L 306.554545 188.625759 
L 307.569091 178.967462 
L 308.583636 189.71974 
L 309.598182 179.583013 
L 310.612727 190.999685 
L 311.627273 180.512526 
L 312.641818 192.425314 
L 313.656364 181.306354 
L 314.670909 193.906113 
L 315.685455 182.150669 
L 316.7 195.159182 
L 317.714545 182.839818 
L 318.729091 196.430593 
L 319.743636 183.516803 
L 320.758182 197.564873 
L 321.772727 184.073238 
L 322.787273 198.833127 
L 323.801818 184.700014 
L 324.816364 199.948336 
L 325.830909 185.414432 
L 326.845455 201.530109 
L 327.86 186.063946 
L 328.874545 203.259982 
L 329.889091 186.662471 
L 330.903636 202.438235 
L 331.918182 186.611508 
L 332.932727 204.680137 
L 333.947273 187.731027 
L 334.961818 207.071268 
L 335.976364 188.834861 
L 336.990909 209.391962 
L 338.005455 189.507069 
L 339.02 210.799992 
L 340.034545 190.190314 
L 341.049091 213.550681 
L 342.063636 191.055216 
L 343.078182 216.732797 
L 344.092727 191.754139 
L 345.107273 216.315447 
L 346.121818 191.80194 
L 347.136364 218.593658 
L 348.150909 192.639709 
L 349.165455 221.470699 
L 350.18 193.239037 
L 351.194545 223.773491 
L 352.209091 193.85935 
L 353.223636 225.372643 
L 354.238182 194.283164 
L 355.252727 228.43659 
L 356.267273 194.993579 
L 357.281818 228.720921 
L 358.296364 195.207091 
L 359.310909 233.882577 
L 360.325455 195.899955 
L 361.34 239.033742 
L 362.354545 196.438625 
L 363.369091 238.19361 
L 364.383636 197.081061 
L 365.398182 242.817288 
L 366.412727 197.284083 
L 367.427273 246.52592 
L 368.441818 197.805535 
L 369.456364 255.688695 
L 370.470909 198.442203 
L 371.485455 261.289601 
L 372.5 198.442438 
L 373.514545 250.172322 
L 374.529091 197.864389 
L 375.543636 262.172549 
L 376.558182 199.464342 
L 376.560516 312.824799 
L 376.560516 312.824799 
" style="fill:none;stroke:#1f77b4;stroke-linecap:square;stroke-width:1.5;"/>
    <defs>
     <path d="M 0 3 
C 0.795609 3 1.55874 2.683901 2.12132 2.12132 
C 2.683901 1.55874 3 0.795609 3 0 
C 3 -0.795609 2.683901 -1.55874 2.12132 -2.12132 
C 1.55874 -2.683901 0.795609 -3 0 -3 
C -0.795609 -3 -1.55874 -2.683901 -2.12132 -2.12132 
C -2.683901 -1.55874 -3 -0.795609 -3 0 
C -3 0.795609 -2.683901 1.55874 -2.12132 2.12132 
C -1.55874 2.683901 -0.795609 3 0 3 
z
" id="me71eab4111" style="stroke:#1f77b4;"/>
    </defs>
    <g clip-path="url(#pb4021bfe56)">
     <use style="fill:#1f77b4;stroke:#1f77b4;" x="53.932727" xlink:href="#me71eab4111" y="20.252549"/>
     <use style="fill:#1f77b4;stroke:#1f77b4;" x="54.947273" xlink:href="#me71eab4111" y="57.2039"/>
     <use style="fill:#1f77b4;stroke:#1f77b4;" x="55.961818" xlink:href="#me71eab4111" y="56.280165"/>
     <use style="fill:#1f77b4;stroke:#1f77b4;" x="56.976364" xlink:href="#me71eab4111" y="61.015934"/>
     <use style="fill:#1f77b4;stroke:#1f77b4;" x="57.990909" xlink:href="#me71eab4111" y="58.455452"/>
     <use style="fill:#1f77b4;stroke:#1f77b4;" x="59.005455" xlink:href="#me71eab4111" y="63.013441"/>
     <use style="fill:#1f77b4;stroke:#1f77b4;" x="60.02" xlink:href="#me71eab4111" y="60.420527"/>
     <use style="fill:#1f77b4;stroke:#1f77b4;" x="61.034545" xlink:href="#me71eab4111" y="64.558292"/>
     <use style="fill:#1f77b4;stroke:#1f77b4;" x="62.049091" xlink:href="#me71eab4111" y="62.017214"/>
     <use style="fill:#1f77b4;stroke:#1f77b4;" x="63.063636" xlink:href="#me71eab4111" y="65.841157"/>
     <use style="fill:#1f77b4;stroke:#1f77b4;" x="64.078182" xlink:href="#me71eab4111" y="63.377306"/>
     <use style="fill:#1f77b4;stroke:#1f77b4;" x="65.092727" xlink:href="#me71eab4111" y="66.96456"/>
     <use style="fill:#1f77b4;stroke:#1f77b4;" x="66.107273" xlink:href="#me71eab4111" y="64.5887"/>
     <use style="fill:#1f77b4;stroke:#1f77b4;" x="67.121818" xlink:href="#me71eab4111" y="67.987476"/>
     <use style="fill:#1f77b4;stroke:#1f77b4;" x="68.136364" xlink:href="#me71eab4111" y="65.707918"/>
     <use style="fill:#1f77b4;stroke:#1f77b4;" x="69.150909" xlink:href="#me71eab4111" y="68.948893"/>
     <use style="fill:#1f77b4;stroke:#1f77b4;" x="70.165455" xlink:href="#me71eab4111" y="66.767215"/>
     <use style="fill:#1f77b4;stroke:#1f77b4;" x="71.18" xlink:href="#me71eab4111" y="69.873013"/>
     <use style="fill:#1f77b4;stroke:#1f77b4;" x="72.194545" xlink:href="#me71eab4111" y="67.788772"/>
     <use style="fill:#1f77b4;stroke:#1f77b4;" x="73.209091" xlink:href="#me71eab4111" y="70.772562"/>
     <use style="fill:#1f77b4;stroke:#1f77b4;" x="74.223636" xlink:href="#me71eab4111" y="68.782738"/>
     <use style="fill:#1f77b4;stroke:#1f77b4;" x="75.238182" xlink:href="#me71eab4111" y="71.657654"/>
     <use style="fill:#1f77b4;stroke:#1f77b4;" x="76.252727" xlink:href="#me71eab4111" y="69.76225"/>
     <use style="fill:#1f77b4;stroke:#1f77b4;" x="77.267273" xlink:href="#me71eab4111" y="72.535231"/>
     <use style="fill:#1f77b4;stroke:#1f77b4;" x="78.281818" xlink:href="#me71eab4111" y="70.73047"/>
     <use style="fill:#1f77b4;stroke:#1f77b4;" x="79.296364" xlink:href="#me71eab4111" y="73.408863"/>
     <use style="fill:#1f77b4;stroke:#1f77b4;" x="80.310909" xlink:href="#me71eab4111" y="71.692481"/>
     <use style="fill:#1f77b4;stroke:#1f77b4;" x="81.325455" xlink:href="#me71eab4111" y="74.282747"/>
     <use style="fill:#1f77b4;stroke:#1f77b4;" x="82.34" xlink:href="#me71eab4111" y="72.653025"/>
     <use style="fill:#1f77b4;stroke:#1f77b4;" x="83.354545" xlink:href="#me71eab4111" y="75.158215"/>
     <use style="fill:#1f77b4;stroke:#1f77b4;" x="84.369091" xlink:href="#me71eab4111" y="73.610567"/>
     <use style="fill:#1f77b4;stroke:#1f77b4;" x="85.383636" xlink:href="#me71eab4111" y="76.035752"/>
     <use style="fill:#1f77b4;stroke:#1f77b4;" x="86.398182" xlink:href="#me71eab4111" y="74.569204"/>
     <use style="fill:#1f77b4;stroke:#1f77b4;" x="87.412727" xlink:href="#me71eab4111" y="76.919464"/>
     <use style="fill:#1f77b4;stroke:#1f77b4;" x="88.427273" xlink:href="#me71eab4111" y="75.53069"/>
     <use style="fill:#1f77b4;stroke:#1f77b4;" x="89.441818" xlink:href="#me71eab4111" y="77.809572"/>
     <use style="fill:#1f77b4;stroke:#1f77b4;" x="90.456364" xlink:href="#me71eab4111" y="76.493109"/>
     <use style="fill:#1f77b4;stroke:#1f77b4;" x="91.470909" xlink:href="#me71eab4111" y="78.701345"/>
     <use style="fill:#1f77b4;stroke:#1f77b4;" x="92.485455" xlink:href="#me71eab4111" y="77.460743"/>
     <use style="fill:#1f77b4;stroke:#1f77b4;" x="93.5" xlink:href="#me71eab4111" y="79.602695"/>
     <use style="fill:#1f77b4;stroke:#1f77b4;" x="94.514545" xlink:href="#me71eab4111" y="78.429424"/>
     <use style="fill:#1f77b4;stroke:#1f77b4;" x="95.529091" xlink:href="#me71eab4111" y="80.507766"/>
     <use style="fill:#1f77b4;stroke:#1f77b4;" x="96.543636" xlink:href="#me71eab4111" y="79.398036"/>
     <use style="fill:#1f77b4;stroke:#1f77b4;" x="97.558182" xlink:href="#me71eab4111" y="81.419151"/>
     <use style="fill:#1f77b4;stroke:#1f77b4;" x="98.572727" xlink:href="#me71eab4111" y="80.373476"/>
     <use style="fill:#1f77b4;stroke:#1f77b4;" x="99.587273" xlink:href="#me71eab4111" y="82.336505"/>
     <use style="fill:#1f77b4;stroke:#1f77b4;" x="100.601818" xlink:href="#me71eab4111" y="81.351431"/>
     <use style="fill:#1f77b4;stroke:#1f77b4;" x="101.616364" xlink:href="#me71eab4111" y="83.256849"/>
     <use style="fill:#1f77b4;stroke:#1f77b4;" x="102.630909" xlink:href="#me71eab4111" y="82.329676"/>
     <use style="fill:#1f77b4;stroke:#1f77b4;" x="103.645455" xlink:href="#me71eab4111" y="84.183119"/>
     <use style="fill:#1f77b4;stroke:#1f77b4;" x="104.66" xlink:href="#me71eab4111" y="83.309358"/>
     <use style="fill:#1f77b4;stroke:#1f77b4;" x="105.674545" xlink:href="#me71eab4111" y="85.112525"/>
     <use style="fill:#1f77b4;stroke:#1f77b4;" x="106.689091" xlink:href="#me71eab4111" y="84.292044"/>
     <use style="fill:#1f77b4;stroke:#1f77b4;" x="107.703636" xlink:href="#me71eab4111" y="86.048416"/>
     <use style="fill:#1f77b4;stroke:#1f77b4;" x="108.718182" xlink:href="#me71eab4111" y="85.276298"/>
     <use style="fill:#1f77b4;stroke:#1f77b4;" x="109.732727" xlink:href="#me71eab4111" y="86.985602"/>
     <use style="fill:#1f77b4;stroke:#1f77b4;" x="110.747273" xlink:href="#me71eab4111" y="86.26194"/>
     <use style="fill:#1f77b4;stroke:#1f77b4;" x="111.761818" xlink:href="#me71eab4111" y="87.932846"/>
     <use style="fill:#1f77b4;stroke:#1f77b4;" x="112.776364" xlink:href="#me71eab4111" y="87.254554"/>
     <use style="fill:#1f77b4;stroke:#1f77b4;" x="113.790909" xlink:href="#me71eab4111" y="88.883359"/>
     <use style="fill:#1f77b4;stroke:#1f77b4;" x="114.805455" xlink:href="#me71eab4111" y="88.248506"/>
     <use style="fill:#1f77b4;stroke:#1f77b4;" x="115.82" xlink:href="#me71eab4111" y="89.839368"/>
     <use style="fill:#1f77b4;stroke:#1f77b4;" x="116.834545" xlink:href="#me71eab4111" y="89.247318"/>
     <use style="fill:#1f77b4;stroke:#1f77b4;" x="117.849091" xlink:href="#me71eab4111" y="90.800859"/>
     <use style="fill:#1f77b4;stroke:#1f77b4;" x="118.863636" xlink:href="#me71eab4111" y="90.247578"/>
     <use style="fill:#1f77b4;stroke:#1f77b4;" x="119.878182" xlink:href="#me71eab4111" y="91.766797"/>
     <use style="fill:#1f77b4;stroke:#1f77b4;" x="120.892727" xlink:href="#me71eab4111" y="91.243477"/>
     <use style="fill:#1f77b4;stroke:#1f77b4;" x="121.907273" xlink:href="#me71eab4111" y="92.723043"/>
     <use style="fill:#1f77b4;stroke:#1f77b4;" x="122.921818" xlink:href="#me71eab4111" y="92.235263"/>
     <use style="fill:#1f77b4;stroke:#1f77b4;" x="123.936364" xlink:href="#me71eab4111" y="93.688768"/>
     <use style="fill:#1f77b4;stroke:#1f77b4;" x="124.950909" xlink:href="#me71eab4111" y="93.235731"/>
     <use style="fill:#1f77b4;stroke:#1f77b4;" x="125.965455" xlink:href="#me71eab4111" y="94.663906"/>
     <use style="fill:#1f77b4;stroke:#1f77b4;" x="126.98" xlink:href="#me71eab4111" y="94.235887"/>
     <use style="fill:#1f77b4;stroke:#1f77b4;" x="127.994545" xlink:href="#me71eab4111" y="95.634864"/>
     <use style="fill:#1f77b4;stroke:#1f77b4;" x="129.009091" xlink:href="#me71eab4111" y="95.241779"/>
     <use style="fill:#1f77b4;stroke:#1f77b4;" x="130.023636" xlink:href="#me71eab4111" y="96.617624"/>
     <use style="fill:#1f77b4;stroke:#1f77b4;" x="131.038182" xlink:href="#me71eab4111" y="96.24664"/>
     <use style="fill:#1f77b4;stroke:#1f77b4;" x="132.052727" xlink:href="#me71eab4111" y="97.594346"/>
     <use style="fill:#1f77b4;stroke:#1f77b4;" x="133.067273" xlink:href="#me71eab4111" y="97.246463"/>
     <use style="fill:#1f77b4;stroke:#1f77b4;" x="134.081818" xlink:href="#me71eab4111" y="98.578069"/>
     <use style="fill:#1f77b4;stroke:#1f77b4;" x="135.096364" xlink:href="#me71eab4111" y="98.252111"/>
     <use style="fill:#1f77b4;stroke:#1f77b4;" x="136.110909" xlink:href="#me71eab4111" y="99.562253"/>
     <use style="fill:#1f77b4;stroke:#1f77b4;" x="137.125455" xlink:href="#me71eab4111" y="99.254048"/>
     <use style="fill:#1f77b4;stroke:#1f77b4;" x="138.14" xlink:href="#me71eab4111" y="100.547793"/>
     <use style="fill:#1f77b4;stroke:#1f77b4;" x="139.154545" xlink:href="#me71eab4111" y="100.261533"/>
     <use style="fill:#1f77b4;stroke:#1f77b4;" x="140.169091" xlink:href="#me71eab4111" y="101.539501"/>
     <use style="fill:#1f77b4;stroke:#1f77b4;" x="141.183636" xlink:href="#me71eab4111" y="101.277357"/>
     <use style="fill:#1f77b4;stroke:#1f77b4;" x="142.198182" xlink:href="#me71eab4111" y="102.537522"/>
     <use style="fill:#1f77b4;stroke:#1f77b4;" x="143.212727" xlink:href="#me71eab4111" y="102.282467"/>
     <use style="fill:#1f77b4;stroke:#1f77b4;" x="144.227273" xlink:href="#me71eab4111" y="103.529187"/>
     <use style="fill:#1f77b4;stroke:#1f77b4;" x="145.241818" xlink:href="#me71eab4111" y="103.289502"/>
     <use style="fill:#1f77b4;stroke:#1f77b4;" x="146.256364" xlink:href="#me71eab4111" y="104.524411"/>
     <use style="fill:#1f77b4;stroke:#1f77b4;" x="147.270909" xlink:href="#me71eab4111" y="104.292717"/>
     <use style="fill:#1f77b4;stroke:#1f77b4;" x="148.285455" xlink:href="#me71eab4111" y="105.514994"/>
     <use style="fill:#1f77b4;stroke:#1f77b4;" x="149.3" xlink:href="#me71eab4111" y="105.29184"/>
     <use style="fill:#1f77b4;stroke:#1f77b4;" x="150.314545" xlink:href="#me71eab4111" y="106.505744"/>
     <use style="fill:#1f77b4;stroke:#1f77b4;" x="151.329091" xlink:href="#me71eab4111" y="106.290924"/>
     <use style="fill:#1f77b4;stroke:#1f77b4;" x="152.343636" xlink:href="#me71eab4111" y="107.499222"/>
     <use style="fill:#1f77b4;stroke:#1f77b4;" x="153.358182" xlink:href="#me71eab4111" y="107.294551"/>
     <use style="fill:#1f77b4;stroke:#1f77b4;" x="154.372727" xlink:href="#me71eab4111" y="108.498032"/>
     <use style="fill:#1f77b4;stroke:#1f77b4;" x="155.387273" xlink:href="#me71eab4111" y="108.301154"/>
     <use style="fill:#1f77b4;stroke:#1f77b4;" x="156.401818" xlink:href="#me71eab4111" y="109.504317"/>
     <use style="fill:#1f77b4;stroke:#1f77b4;" x="157.416364" xlink:href="#me71eab4111" y="109.315303"/>
     <use style="fill:#1f77b4;stroke:#1f77b4;" x="158.430909" xlink:href="#me71eab4111" y="110.513114"/>
     <use style="fill:#1f77b4;stroke:#1f77b4;" x="159.445455" xlink:href="#me71eab4111" y="110.321886"/>
     <use style="fill:#1f77b4;stroke:#1f77b4;" x="160.46" xlink:href="#me71eab4111" y="111.520505"/>
     <use style="fill:#1f77b4;stroke:#1f77b4;" x="161.474545" xlink:href="#me71eab4111" y="111.32736"/>
     <use style="fill:#1f77b4;stroke:#1f77b4;" x="162.489091" xlink:href="#me71eab4111" y="112.519526"/>
     <use style="fill:#1f77b4;stroke:#1f77b4;" x="163.503636" xlink:href="#me71eab4111" y="112.328972"/>
     <use style="fill:#1f77b4;stroke:#1f77b4;" x="164.518182" xlink:href="#me71eab4111" y="113.526684"/>
     <use style="fill:#1f77b4;stroke:#1f77b4;" x="165.532727" xlink:href="#me71eab4111" y="113.332324"/>
     <use style="fill:#1f77b4;stroke:#1f77b4;" x="166.547273" xlink:href="#me71eab4111" y="114.53013"/>
     <use style="fill:#1f77b4;stroke:#1f77b4;" x="167.561818" xlink:href="#me71eab4111" y="114.336473"/>
     <use style="fill:#1f77b4;stroke:#1f77b4;" x="168.576364" xlink:href="#me71eab4111" y="115.535033"/>
     <use style="fill:#1f77b4;stroke:#1f77b4;" x="169.590909" xlink:href="#me71eab4111" y="115.3325"/>
     <use style="fill:#1f77b4;stroke:#1f77b4;" x="170.605455" xlink:href="#me71eab4111" y="116.548226"/>
     <use style="fill:#1f77b4;stroke:#1f77b4;" x="171.62" xlink:href="#me71eab4111" y="116.334014"/>
     <use style="fill:#1f77b4;stroke:#1f77b4;" x="172.634545" xlink:href="#me71eab4111" y="117.556065"/>
     <use style="fill:#1f77b4;stroke:#1f77b4;" x="173.649091" xlink:href="#me71eab4111" y="117.338465"/>
     <use style="fill:#1f77b4;stroke:#1f77b4;" x="174.663636" xlink:href="#me71eab4111" y="118.573107"/>
     <use style="fill:#1f77b4;stroke:#1f77b4;" x="175.678182" xlink:href="#me71eab4111" y="118.340119"/>
     <use style="fill:#1f77b4;stroke:#1f77b4;" x="176.692727" xlink:href="#me71eab4111" y="119.575339"/>
     <use style="fill:#1f77b4;stroke:#1f77b4;" x="177.707273" xlink:href="#me71eab4111" y="119.336743"/>
     <use style="fill:#1f77b4;stroke:#1f77b4;" x="178.721818" xlink:href="#me71eab4111" y="120.596843"/>
     <use style="fill:#1f77b4;stroke:#1f77b4;" x="179.736364" xlink:href="#me71eab4111" y="120.346503"/>
     <use style="fill:#1f77b4;stroke:#1f77b4;" x="180.750909" xlink:href="#me71eab4111" y="121.611832"/>
     <use style="fill:#1f77b4;stroke:#1f77b4;" x="181.765455" xlink:href="#me71eab4111" y="121.347535"/>
     <use style="fill:#1f77b4;stroke:#1f77b4;" x="182.78" xlink:href="#me71eab4111" y="122.638089"/>
     <use style="fill:#1f77b4;stroke:#1f77b4;" x="183.794545" xlink:href="#me71eab4111" y="122.346928"/>
     <use style="fill:#1f77b4;stroke:#1f77b4;" x="184.809091" xlink:href="#me71eab4111" y="123.640459"/>
     <use style="fill:#1f77b4;stroke:#1f77b4;" x="185.823636" xlink:href="#me71eab4111" y="123.335121"/>
     <use style="fill:#1f77b4;stroke:#1f77b4;" x="186.838182" xlink:href="#me71eab4111" y="124.656218"/>
     <use style="fill:#1f77b4;stroke:#1f77b4;" x="187.852727" xlink:href="#me71eab4111" y="124.323328"/>
     <use style="fill:#1f77b4;stroke:#1f77b4;" x="188.867273" xlink:href="#me71eab4111" y="125.679257"/>
     <use style="fill:#1f77b4;stroke:#1f77b4;" x="189.881818" xlink:href="#me71eab4111" y="125.342924"/>
     <use style="fill:#1f77b4;stroke:#1f77b4;" x="190.896364" xlink:href="#me71eab4111" y="126.716589"/>
     <use style="fill:#1f77b4;stroke:#1f77b4;" x="191.910909" xlink:href="#me71eab4111" y="126.341402"/>
     <use style="fill:#1f77b4;stroke:#1f77b4;" x="192.925455" xlink:href="#me71eab4111" y="127.737015"/>
     <use style="fill:#1f77b4;stroke:#1f77b4;" x="193.94" xlink:href="#me71eab4111" y="127.328365"/>
     <use style="fill:#1f77b4;stroke:#1f77b4;" x="194.954545" xlink:href="#me71eab4111" y="128.753607"/>
     <use style="fill:#1f77b4;stroke:#1f77b4;" x="195.969091" xlink:href="#me71eab4111" y="128.338279"/>
     <use style="fill:#1f77b4;stroke:#1f77b4;" x="196.983636" xlink:href="#me71eab4111" y="129.793644"/>
     <use style="fill:#1f77b4;stroke:#1f77b4;" x="197.998182" xlink:href="#me71eab4111" y="129.346017"/>
     <use style="fill:#1f77b4;stroke:#1f77b4;" x="199.012727" xlink:href="#me71eab4111" y="130.834125"/>
     <use style="fill:#1f77b4;stroke:#1f77b4;" x="200.027273" xlink:href="#me71eab4111" y="130.337927"/>
     <use style="fill:#1f77b4;stroke:#1f77b4;" x="201.041818" xlink:href="#me71eab4111" y="131.862252"/>
     <use style="fill:#1f77b4;stroke:#1f77b4;" x="202.056364" xlink:href="#me71eab4111" y="131.343576"/>
     <use style="fill:#1f77b4;stroke:#1f77b4;" x="203.070909" xlink:href="#me71eab4111" y="132.877111"/>
     <use style="fill:#1f77b4;stroke:#1f77b4;" x="204.085455" xlink:href="#me71eab4111" y="132.308302"/>
     <use style="fill:#1f77b4;stroke:#1f77b4;" x="205.1" xlink:href="#me71eab4111" y="133.894253"/>
     <use style="fill:#1f77b4;stroke:#1f77b4;" x="206.114545" xlink:href="#me71eab4111" y="133.297508"/>
     <use style="fill:#1f77b4;stroke:#1f77b4;" x="207.129091" xlink:href="#me71eab4111" y="134.925115"/>
     <use style="fill:#1f77b4;stroke:#1f77b4;" x="208.143636" xlink:href="#me71eab4111" y="134.291771"/>
     <use style="fill:#1f77b4;stroke:#1f77b4;" x="209.158182" xlink:href="#me71eab4111" y="135.944638"/>
     <use style="fill:#1f77b4;stroke:#1f77b4;" x="210.172727" xlink:href="#me71eab4111" y="135.261661"/>
     <use style="fill:#1f77b4;stroke:#1f77b4;" x="211.187273" xlink:href="#me71eab4111" y="136.997719"/>
     <use style="fill:#1f77b4;stroke:#1f77b4;" x="212.201818" xlink:href="#me71eab4111" y="136.261805"/>
     <use style="fill:#1f77b4;stroke:#1f77b4;" x="213.216364" xlink:href="#me71eab4111" y="138.040241"/>
     <use style="fill:#1f77b4;stroke:#1f77b4;" x="214.230909" xlink:href="#me71eab4111" y="137.2513"/>
     <use style="fill:#1f77b4;stroke:#1f77b4;" x="215.245455" xlink:href="#me71eab4111" y="139.080587"/>
     <use style="fill:#1f77b4;stroke:#1f77b4;" x="216.26" xlink:href="#me71eab4111" y="138.23779"/>
     <use style="fill:#1f77b4;stroke:#1f77b4;" x="217.274545" xlink:href="#me71eab4111" y="140.087501"/>
     <use style="fill:#1f77b4;stroke:#1f77b4;" x="218.289091" xlink:href="#me71eab4111" y="139.203135"/>
     <use style="fill:#1f77b4;stroke:#1f77b4;" x="219.303636" xlink:href="#me71eab4111" y="141.136617"/>
     <use style="fill:#1f77b4;stroke:#1f77b4;" x="220.318182" xlink:href="#me71eab4111" y="140.229554"/>
     <use style="fill:#1f77b4;stroke:#1f77b4;" x="221.332727" xlink:href="#me71eab4111" y="142.213918"/>
     <use style="fill:#1f77b4;stroke:#1f77b4;" x="222.347273" xlink:href="#me71eab4111" y="141.198697"/>
     <use style="fill:#1f77b4;stroke:#1f77b4;" x="223.361818" xlink:href="#me71eab4111" y="143.263182"/>
     <use style="fill:#1f77b4;stroke:#1f77b4;" x="224.376364" xlink:href="#me71eab4111" y="142.218041"/>
     <use style="fill:#1f77b4;stroke:#1f77b4;" x="225.390909" xlink:href="#me71eab4111" y="144.358701"/>
     <use style="fill:#1f77b4;stroke:#1f77b4;" x="226.405455" xlink:href="#me71eab4111" y="143.214458"/>
     <use style="fill:#1f77b4;stroke:#1f77b4;" x="227.42" xlink:href="#me71eab4111" y="145.44103"/>
     <use style="fill:#1f77b4;stroke:#1f77b4;" x="228.434545" xlink:href="#me71eab4111" y="144.169444"/>
     <use style="fill:#1f77b4;stroke:#1f77b4;" x="229.449091" xlink:href="#me71eab4111" y="146.386332"/>
     <use style="fill:#1f77b4;stroke:#1f77b4;" x="230.463636" xlink:href="#me71eab4111" y="145.067543"/>
     <use style="fill:#1f77b4;stroke:#1f77b4;" x="231.478182" xlink:href="#me71eab4111" y="147.384665"/>
     <use style="fill:#1f77b4;stroke:#1f77b4;" x="232.492727" xlink:href="#me71eab4111" y="146.022263"/>
     <use style="fill:#1f77b4;stroke:#1f77b4;" x="233.507273" xlink:href="#me71eab4111" y="148.430474"/>
     <use style="fill:#1f77b4;stroke:#1f77b4;" x="234.521818" xlink:href="#me71eab4111" y="146.957198"/>
     <use style="fill:#1f77b4;stroke:#1f77b4;" x="235.536364" xlink:href="#me71eab4111" y="149.492265"/>
     <use style="fill:#1f77b4;stroke:#1f77b4;" x="236.550909" xlink:href="#me71eab4111" y="147.975793"/>
     <use style="fill:#1f77b4;stroke:#1f77b4;" x="237.565455" xlink:href="#me71eab4111" y="150.586286"/>
     <use style="fill:#1f77b4;stroke:#1f77b4;" x="238.58" xlink:href="#me71eab4111" y="148.946095"/>
     <use style="fill:#1f77b4;stroke:#1f77b4;" x="239.594545" xlink:href="#me71eab4111" y="151.652418"/>
     <use style="fill:#1f77b4;stroke:#1f77b4;" x="240.609091" xlink:href="#me71eab4111" y="149.930679"/>
     <use style="fill:#1f77b4;stroke:#1f77b4;" x="241.623636" xlink:href="#me71eab4111" y="152.720739"/>
     <use style="fill:#1f77b4;stroke:#1f77b4;" x="242.638182" xlink:href="#me71eab4111" y="150.875059"/>
     <use style="fill:#1f77b4;stroke:#1f77b4;" x="243.652727" xlink:href="#me71eab4111" y="153.742843"/>
     <use style="fill:#1f77b4;stroke:#1f77b4;" x="244.667273" xlink:href="#me71eab4111" y="151.743834"/>
     <use style="fill:#1f77b4;stroke:#1f77b4;" x="245.681818" xlink:href="#me71eab4111" y="154.647582"/>
     <use style="fill:#1f77b4;stroke:#1f77b4;" x="246.696364" xlink:href="#me71eab4111" y="152.656354"/>
     <use style="fill:#1f77b4;stroke:#1f77b4;" x="247.710909" xlink:href="#me71eab4111" y="155.729442"/>
     <use style="fill:#1f77b4;stroke:#1f77b4;" x="248.725455" xlink:href="#me71eab4111" y="153.55169"/>
     <use style="fill:#1f77b4;stroke:#1f77b4;" x="249.74" xlink:href="#me71eab4111" y="156.804466"/>
     <use style="fill:#1f77b4;stroke:#1f77b4;" x="250.754545" xlink:href="#me71eab4111" y="154.634149"/>
     <use style="fill:#1f77b4;stroke:#1f77b4;" x="251.769091" xlink:href="#me71eab4111" y="158.04542"/>
     <use style="fill:#1f77b4;stroke:#1f77b4;" x="252.783636" xlink:href="#me71eab4111" y="155.605715"/>
     <use style="fill:#1f77b4;stroke:#1f77b4;" x="253.798182" xlink:href="#me71eab4111" y="159.048689"/>
     <use style="fill:#1f77b4;stroke:#1f77b4;" x="254.812727" xlink:href="#me71eab4111" y="156.468371"/>
     <use style="fill:#1f77b4;stroke:#1f77b4;" x="255.827273" xlink:href="#me71eab4111" y="160.127035"/>
     <use style="fill:#1f77b4;stroke:#1f77b4;" x="256.841818" xlink:href="#me71eab4111" y="157.379621"/>
     <use style="fill:#1f77b4;stroke:#1f77b4;" x="257.856364" xlink:href="#me71eab4111" y="161.176491"/>
     <use style="fill:#1f77b4;stroke:#1f77b4;" x="258.870909" xlink:href="#me71eab4111" y="158.354844"/>
     <use style="fill:#1f77b4;stroke:#1f77b4;" x="259.885455" xlink:href="#me71eab4111" y="162.329457"/>
     <use style="fill:#1f77b4;stroke:#1f77b4;" x="260.9" xlink:href="#me71eab4111" y="159.337507"/>
     <use style="fill:#1f77b4;stroke:#1f77b4;" x="261.914545" xlink:href="#me71eab4111" y="163.431451"/>
     <use style="fill:#1f77b4;stroke:#1f77b4;" x="262.929091" xlink:href="#me71eab4111" y="160.190432"/>
     <use style="fill:#1f77b4;stroke:#1f77b4;" x="263.943636" xlink:href="#me71eab4111" y="164.510921"/>
     <use style="fill:#1f77b4;stroke:#1f77b4;" x="264.958182" xlink:href="#me71eab4111" y="161.097085"/>
     <use style="fill:#1f77b4;stroke:#1f77b4;" x="265.972727" xlink:href="#me71eab4111" y="165.461189"/>
     <use style="fill:#1f77b4;stroke:#1f77b4;" x="266.987273" xlink:href="#me71eab4111" y="161.926885"/>
     <use style="fill:#1f77b4;stroke:#1f77b4;" x="268.001818" xlink:href="#me71eab4111" y="166.48523"/>
     <use style="fill:#1f77b4;stroke:#1f77b4;" x="269.016364" xlink:href="#me71eab4111" y="162.783746"/>
     <use style="fill:#1f77b4;stroke:#1f77b4;" x="270.030909" xlink:href="#me71eab4111" y="167.558402"/>
     <use style="fill:#1f77b4;stroke:#1f77b4;" x="271.045455" xlink:href="#me71eab4111" y="163.650661"/>
     <use style="fill:#1f77b4;stroke:#1f77b4;" x="272.06" xlink:href="#me71eab4111" y="168.681189"/>
     <use style="fill:#1f77b4;stroke:#1f77b4;" x="273.074545" xlink:href="#me71eab4111" y="164.631191"/>
     <use style="fill:#1f77b4;stroke:#1f77b4;" x="274.089091" xlink:href="#me71eab4111" y="169.897078"/>
     <use style="fill:#1f77b4;stroke:#1f77b4;" x="275.103636" xlink:href="#me71eab4111" y="165.566044"/>
     <use style="fill:#1f77b4;stroke:#1f77b4;" x="276.118182" xlink:href="#me71eab4111" y="170.980285"/>
     <use style="fill:#1f77b4;stroke:#1f77b4;" x="277.132727" xlink:href="#me71eab4111" y="166.338195"/>
     <use style="fill:#1f77b4;stroke:#1f77b4;" x="278.147273" xlink:href="#me71eab4111" y="171.702539"/>
     <use style="fill:#1f77b4;stroke:#1f77b4;" x="279.161818" xlink:href="#me71eab4111" y="166.958777"/>
     <use style="fill:#1f77b4;stroke:#1f77b4;" x="280.176364" xlink:href="#me71eab4111" y="172.830963"/>
     <use style="fill:#1f77b4;stroke:#1f77b4;" x="281.190909" xlink:href="#me71eab4111" y="167.926605"/>
     <use style="fill:#1f77b4;stroke:#1f77b4;" x="282.205455" xlink:href="#me71eab4111" y="174.10261"/>
     <use style="fill:#1f77b4;stroke:#1f77b4;" x="283.22" xlink:href="#me71eab4111" y="168.800923"/>
     <use style="fill:#1f77b4;stroke:#1f77b4;" x="284.234545" xlink:href="#me71eab4111" y="175.069626"/>
     <use style="fill:#1f77b4;stroke:#1f77b4;" x="285.249091" xlink:href="#me71eab4111" y="169.509073"/>
     <use style="fill:#1f77b4;stroke:#1f77b4;" x="286.263636" xlink:href="#me71eab4111" y="176.012793"/>
     <use style="fill:#1f77b4;stroke:#1f77b4;" x="287.278182" xlink:href="#me71eab4111" y="170.317405"/>
     <use style="fill:#1f77b4;stroke:#1f77b4;" x="288.292727" xlink:href="#me71eab4111" y="177.220204"/>
     <use style="fill:#1f77b4;stroke:#1f77b4;" x="289.307273" xlink:href="#me71eab4111" y="171.246632"/>
     <use style="fill:#1f77b4;stroke:#1f77b4;" x="290.321818" xlink:href="#me71eab4111" y="178.465518"/>
     <use style="fill:#1f77b4;stroke:#1f77b4;" x="291.336364" xlink:href="#me71eab4111" y="172.126749"/>
     <use style="fill:#1f77b4;stroke:#1f77b4;" x="292.350909" xlink:href="#me71eab4111" y="179.74178"/>
     <use style="fill:#1f77b4;stroke:#1f77b4;" x="293.365455" xlink:href="#me71eab4111" y="173.174093"/>
     <use style="fill:#1f77b4;stroke:#1f77b4;" x="294.38" xlink:href="#me71eab4111" y="181.00545"/>
     <use style="fill:#1f77b4;stroke:#1f77b4;" x="295.394545" xlink:href="#me71eab4111" y="173.986424"/>
     <use style="fill:#1f77b4;stroke:#1f77b4;" x="296.409091" xlink:href="#me71eab4111" y="182.330345"/>
     <use style="fill:#1f77b4;stroke:#1f77b4;" x="297.423636" xlink:href="#me71eab4111" y="174.947052"/>
     <use style="fill:#1f77b4;stroke:#1f77b4;" x="298.438182" xlink:href="#me71eab4111" y="183.80674"/>
     <use style="fill:#1f77b4;stroke:#1f77b4;" x="299.452727" xlink:href="#me71eab4111" y="175.775418"/>
     <use style="fill:#1f77b4;stroke:#1f77b4;" x="300.467273" xlink:href="#me71eab4111" y="184.966417"/>
     <use style="fill:#1f77b4;stroke:#1f77b4;" x="301.481818" xlink:href="#me71eab4111" y="176.634577"/>
     <use style="fill:#1f77b4;stroke:#1f77b4;" x="302.496364" xlink:href="#me71eab4111" y="186.243269"/>
     <use style="fill:#1f77b4;stroke:#1f77b4;" x="303.510909" xlink:href="#me71eab4111" y="177.462375"/>
     <use style="fill:#1f77b4;stroke:#1f77b4;" x="304.525455" xlink:href="#me71eab4111" y="187.475487"/>
     <use style="fill:#1f77b4;stroke:#1f77b4;" x="305.54" xlink:href="#me71eab4111" y="178.223604"/>
     <use style="fill:#1f77b4;stroke:#1f77b4;" x="306.554545" xlink:href="#me71eab4111" y="188.625759"/>
     <use style="fill:#1f77b4;stroke:#1f77b4;" x="307.569091" xlink:href="#me71eab4111" y="178.967462"/>
     <use style="fill:#1f77b4;stroke:#1f77b4;" x="308.583636" xlink:href="#me71eab4111" y="189.71974"/>
     <use style="fill:#1f77b4;stroke:#1f77b4;" x="309.598182" xlink:href="#me71eab4111" y="179.583013"/>
     <use style="fill:#1f77b4;stroke:#1f77b4;" x="310.612727" xlink:href="#me71eab4111" y="190.999685"/>
     <use style="fill:#1f77b4;stroke:#1f77b4;" x="311.627273" xlink:href="#me71eab4111" y="180.512526"/>
     <use style="fill:#1f77b4;stroke:#1f77b4;" x="312.641818" xlink:href="#me71eab4111" y="192.425314"/>
     <use style="fill:#1f77b4;stroke:#1f77b4;" x="313.656364" xlink:href="#me71eab4111" y="181.306354"/>
     <use style="fill:#1f77b4;stroke:#1f77b4;" x="314.670909" xlink:href="#me71eab4111" y="193.906113"/>
     <use style="fill:#1f77b4;stroke:#1f77b4;" x="315.685455" xlink:href="#me71eab4111" y="182.150669"/>
     <use style="fill:#1f77b4;stroke:#1f77b4;" x="316.7" xlink:href="#me71eab4111" y="195.159182"/>
     <use style="fill:#1f77b4;stroke:#1f77b4;" x="317.714545" xlink:href="#me71eab4111" y="182.839818"/>
     <use style="fill:#1f77b4;stroke:#1f77b4;" x="318.729091" xlink:href="#me71eab4111" y="196.430593"/>
     <use style="fill:#1f77b4;stroke:#1f77b4;" x="319.743636" xlink:href="#me71eab4111" y="183.516803"/>
     <use style="fill:#1f77b4;stroke:#1f77b4;" x="320.758182" xlink:href="#me71eab4111" y="197.564873"/>
     <use style="fill:#1f77b4;stroke:#1f77b4;" x="321.772727" xlink:href="#me71eab4111" y="184.073238"/>
     <use style="fill:#1f77b4;stroke:#1f77b4;" x="322.787273" xlink:href="#me71eab4111" y="198.833127"/>
     <use style="fill:#1f77b4;stroke:#1f77b4;" x="323.801818" xlink:href="#me71eab4111" y="184.700014"/>
     <use style="fill:#1f77b4;stroke:#1f77b4;" x="324.816364" xlink:href="#me71eab4111" y="199.948336"/>
     <use style="fill:#1f77b4;stroke:#1f77b4;" x="325.830909" xlink:href="#me71eab4111" y="185.414432"/>
     <use style="fill:#1f77b4;stroke:#1f77b4;" x="326.845455" xlink:href="#me71eab4111" y="201.530109"/>
     <use style="fill:#1f77b4;stroke:#1f77b4;" x="327.86" xlink:href="#me71eab4111" y="186.063946"/>
     <use style="fill:#1f77b4;stroke:#1f77b4;" x="328.874545" xlink:href="#me71eab4111" y="203.259982"/>
     <use style="fill:#1f77b4;stroke:#1f77b4;" x="329.889091" xlink:href="#me71eab4111" y="186.662471"/>
     <use style="fill:#1f77b4;stroke:#1f77b4;" x="330.903636" xlink:href="#me71eab4111" y="202.438235"/>
     <use style="fill:#1f77b4;stroke:#1f77b4;" x="331.918182" xlink:href="#me71eab4111" y="186.611508"/>
     <use style="fill:#1f77b4;stroke:#1f77b4;" x="332.932727" xlink:href="#me71eab4111" y="204.680137"/>
     <use style="fill:#1f77b4;stroke:#1f77b4;" x="333.947273" xlink:href="#me71eab4111" y="187.731027"/>
     <use style="fill:#1f77b4;stroke:#1f77b4;" x="334.961818" xlink:href="#me71eab4111" y="207.071268"/>
     <use style="fill:#1f77b4;stroke:#1f77b4;" x="335.976364" xlink:href="#me71eab4111" y="188.834861"/>
     <use style="fill:#1f77b4;stroke:#1f77b4;" x="336.990909" xlink:href="#me71eab4111" y="209.391962"/>
     <use style="fill:#1f77b4;stroke:#1f77b4;" x="338.005455" xlink:href="#me71eab4111" y="189.507069"/>
     <use style="fill:#1f77b4;stroke:#1f77b4;" x="339.02" xlink:href="#me71eab4111" y="210.799992"/>
     <use style="fill:#1f77b4;stroke:#1f77b4;" x="340.034545" xlink:href="#me71eab4111" y="190.190314"/>
     <use style="fill:#1f77b4;stroke:#1f77b4;" x="341.049091" xlink:href="#me71eab4111" y="213.550681"/>
     <use style="fill:#1f77b4;stroke:#1f77b4;" x="342.063636" xlink:href="#me71eab4111" y="191.055216"/>
     <use style="fill:#1f77b4;stroke:#1f77b4;" x="343.078182" xlink:href="#me71eab4111" y="216.732797"/>
     <use style="fill:#1f77b4;stroke:#1f77b4;" x="344.092727" xlink:href="#me71eab4111" y="191.754139"/>
     <use style="fill:#1f77b4;stroke:#1f77b4;" x="345.107273" xlink:href="#me71eab4111" y="216.315447"/>
     <use style="fill:#1f77b4;stroke:#1f77b4;" x="346.121818" xlink:href="#me71eab4111" y="191.80194"/>
     <use style="fill:#1f77b4;stroke:#1f77b4;" x="347.136364" xlink:href="#me71eab4111" y="218.593658"/>
     <use style="fill:#1f77b4;stroke:#1f77b4;" x="348.150909" xlink:href="#me71eab4111" y="192.639709"/>
     <use style="fill:#1f77b4;stroke:#1f77b4;" x="349.165455" xlink:href="#me71eab4111" y="221.470699"/>
     <use style="fill:#1f77b4;stroke:#1f77b4;" x="350.18" xlink:href="#me71eab4111" y="193.239037"/>
     <use style="fill:#1f77b4;stroke:#1f77b4;" x="351.194545" xlink:href="#me71eab4111" y="223.773491"/>
     <use style="fill:#1f77b4;stroke:#1f77b4;" x="352.209091" xlink:href="#me71eab4111" y="193.85935"/>
     <use style="fill:#1f77b4;stroke:#1f77b4;" x="353.223636" xlink:href="#me71eab4111" y="225.372643"/>
     <use style="fill:#1f77b4;stroke:#1f77b4;" x="354.238182" xlink:href="#me71eab4111" y="194.283164"/>
     <use style="fill:#1f77b4;stroke:#1f77b4;" x="355.252727" xlink:href="#me71eab4111" y="228.43659"/>
     <use style="fill:#1f77b4;stroke:#1f77b4;" x="356.267273" xlink:href="#me71eab4111" y="194.993579"/>
     <use style="fill:#1f77b4;stroke:#1f77b4;" x="357.281818" xlink:href="#me71eab4111" y="228.720921"/>
     <use style="fill:#1f77b4;stroke:#1f77b4;" x="358.296364" xlink:href="#me71eab4111" y="195.207091"/>
     <use style="fill:#1f77b4;stroke:#1f77b4;" x="359.310909" xlink:href="#me71eab4111" y="233.882577"/>
     <use style="fill:#1f77b4;stroke:#1f77b4;" x="360.325455" xlink:href="#me71eab4111" y="195.899955"/>
     <use style="fill:#1f77b4;stroke:#1f77b4;" x="361.34" xlink:href="#me71eab4111" y="239.033742"/>
     <use style="fill:#1f77b4;stroke:#1f77b4;" x="362.354545" xlink:href="#me71eab4111" y="196.438625"/>
     <use style="fill:#1f77b4;stroke:#1f77b4;" x="363.369091" xlink:href="#me71eab4111" y="238.19361"/>
     <use style="fill:#1f77b4;stroke:#1f77b4;" x="364.383636" xlink:href="#me71eab4111" y="197.081061"/>
     <use style="fill:#1f77b4;stroke:#1f77b4;" x="365.398182" xlink:href="#me71eab4111" y="242.817288"/>
     <use style="fill:#1f77b4;stroke:#1f77b4;" x="366.412727" xlink:href="#me71eab4111" y="197.284083"/>
     <use style="fill:#1f77b4;stroke:#1f77b4;" x="367.427273" xlink:href="#me71eab4111" y="246.52592"/>
     <use style="fill:#1f77b4;stroke:#1f77b4;" x="368.441818" xlink:href="#me71eab4111" y="197.805535"/>
     <use style="fill:#1f77b4;stroke:#1f77b4;" x="369.456364" xlink:href="#me71eab4111" y="255.688695"/>
     <use style="fill:#1f77b4;stroke:#1f77b4;" x="370.470909" xlink:href="#me71eab4111" y="198.442203"/>
     <use style="fill:#1f77b4;stroke:#1f77b4;" x="371.485455" xlink:href="#me71eab4111" y="261.289601"/>
     <use style="fill:#1f77b4;stroke:#1f77b4;" x="372.5" xlink:href="#me71eab4111" y="198.442438"/>
     <use style="fill:#1f77b4;stroke:#1f77b4;" x="373.514545" xlink:href="#me71eab4111" y="250.172322"/>
     <use style="fill:#1f77b4;stroke:#1f77b4;" x="374.529091" xlink:href="#me71eab4111" y="197.864389"/>
     <use style="fill:#1f77b4;stroke:#1f77b4;" x="375.543636" xlink:href="#me71eab4111" y="262.172549"/>
     <use style="fill:#1f77b4;stroke:#1f77b4;" x="376.558182" xlink:href="#me71eab4111" y="199.464342"/>
     <use style="fill:#1f77b4;stroke:#1f77b4;" x="377.016345" xlink:href="#me71eab4111" y="22452.385518"/>
    </g>
   </g>
   <g id="line2d_60">
    <path clip-path="url(#pb4021bfe56)" d="M 76.252727 69.76225 
L 78.281818 70.73047 
L 80.310909 71.692481 
L 82.34 72.653025 
L 84.369091 73.610567 
L 86.398182 74.569204 
L 88.427273 75.53069 
L 90.456364 76.493109 
L 92.485455 77.460743 
L 94.514545 78.429424 
L 96.543636 79.398036 
L 98.572727 80.373476 
L 100.601818 81.351431 
L 102.630909 82.329676 
L 104.66 83.309358 
L 106.689091 84.292044 
L 108.718182 85.276298 
L 110.747273 86.26194 
L 112.776364 87.254554 
L 114.805455 88.248506 
L 116.834545 89.247318 
L 118.863636 90.247578 
L 120.892727 91.243477 
L 122.921818 92.235263 
L 124.950909 93.235731 
L 126.98 94.235887 
L 129.009091 95.241779 
L 131.038182 96.24664 
L 133.067273 97.246463 
L 135.096364 98.252111 
L 137.125455 99.254048 
L 139.154545 100.261533 
L 141.183636 101.277357 
L 143.212727 102.282467 
L 145.241818 103.289502 
L 147.270909 104.292717 
L 149.3 105.29184 
L 151.329091 106.290924 
L 153.358182 107.294551 
L 155.387273 108.301154 
L 157.416364 109.315303 
L 159.445455 110.321886 
L 161.474545 111.32736 
L 163.503636 112.328972 
L 165.532727 113.332324 
L 167.561818 114.336473 
L 169.590909 115.3325 
L 171.62 116.334014 
L 173.649091 117.338465 
L 175.678182 118.340119 
L 177.707273 119.336743 
L 179.736364 120.346503 
L 181.765455 121.347535 
L 183.794545 122.346928 
L 185.823636 123.335121 
L 187.852727 124.323328 
L 189.881818 125.342924 
L 191.910909 126.341402 
L 193.94 127.328365 
L 195.969091 128.338279 
L 197.998182 129.346017 
L 200.027273 130.337927 
L 202.056364 131.343576 
L 204.085455 132.308302 
L 206.114545 133.297508 
L 208.143636 134.291771 
L 210.172727 135.261661 
L 212.201818 136.261805 
L 214.230909 137.2513 
L 216.26 138.23779 
L 218.289091 139.203135 
L 220.318182 140.229554 
L 222.347273 141.198697 
L 224.376364 142.218041 
L 226.405455 143.214458 
L 228.434545 144.169444 
L 230.463636 145.067543 
L 232.492727 146.022263 
L 234.521818 146.957198 
L 236.550909 147.975793 
L 238.58 148.946095 
L 240.609091 149.930679 
L 242.638182 150.875059 
L 244.667273 151.743834 
L 246.696364 152.656354 
L 248.725455 153.55169 
L 250.754545 154.634149 
L 252.783636 155.605715 
L 254.812727 156.468371 
L 256.841818 157.379621 
L 258.870909 158.354844 
L 260.9 159.337507 
L 262.929091 160.190432 
L 264.958182 161.097085 
L 266.987273 161.926885 
L 269.016364 162.783746 
L 271.045455 163.650661 
L 273.074545 164.631191 
L 275.103636 165.566044 
" style="fill:none;stroke:#2ca02c;stroke-dasharray:1.5,2.475;stroke-dashoffset:0;stroke-width:1.5;"/>
    <defs>
     <path d="M -3 3 
L 3 -3 
M -3 -3 
L 3 3 
" id="m8cd7f42e64" style="stroke:#2ca02c;"/>
    </defs>
    <g clip-path="url(#pb4021bfe56)">
     <use style="fill:#2ca02c;stroke:#2ca02c;" x="76.252727" xlink:href="#m8cd7f42e64" y="69.76225"/>
     <use style="fill:#2ca02c;stroke:#2ca02c;" x="78.281818" xlink:href="#m8cd7f42e64" y="70.73047"/>
     <use style="fill:#2ca02c;stroke:#2ca02c;" x="80.310909" xlink:href="#m8cd7f42e64" y="71.692481"/>
     <use style="fill:#2ca02c;stroke:#2ca02c;" x="82.34" xlink:href="#m8cd7f42e64" y="72.653025"/>
     <use style="fill:#2ca02c;stroke:#2ca02c;" x="84.369091" xlink:href="#m8cd7f42e64" y="73.610567"/>
     <use style="fill:#2ca02c;stroke:#2ca02c;" x="86.398182" xlink:href="#m8cd7f42e64" y="74.569204"/>
     <use style="fill:#2ca02c;stroke:#2ca02c;" x="88.427273" xlink:href="#m8cd7f42e64" y="75.53069"/>
     <use style="fill:#2ca02c;stroke:#2ca02c;" x="90.456364" xlink:href="#m8cd7f42e64" y="76.493109"/>
     <use style="fill:#2ca02c;stroke:#2ca02c;" x="92.485455" xlink:href="#m8cd7f42e64" y="77.460743"/>
     <use style="fill:#2ca02c;stroke:#2ca02c;" x="94.514545" xlink:href="#m8cd7f42e64" y="78.429424"/>
     <use style="fill:#2ca02c;stroke:#2ca02c;" x="96.543636" xlink:href="#m8cd7f42e64" y="79.398036"/>
     <use style="fill:#2ca02c;stroke:#2ca02c;" x="98.572727" xlink:href="#m8cd7f42e64" y="80.373476"/>
     <use style="fill:#2ca02c;stroke:#2ca02c;" x="100.601818" xlink:href="#m8cd7f42e64" y="81.351431"/>
     <use style="fill:#2ca02c;stroke:#2ca02c;" x="102.630909" xlink:href="#m8cd7f42e64" y="82.329676"/>
     <use style="fill:#2ca02c;stroke:#2ca02c;" x="104.66" xlink:href="#m8cd7f42e64" y="83.309358"/>
     <use style="fill:#2ca02c;stroke:#2ca02c;" x="106.689091" xlink:href="#m8cd7f42e64" y="84.292044"/>
     <use style="fill:#2ca02c;stroke:#2ca02c;" x="108.718182" xlink:href="#m8cd7f42e64" y="85.276298"/>
     <use style="fill:#2ca02c;stroke:#2ca02c;" x="110.747273" xlink:href="#m8cd7f42e64" y="86.26194"/>
     <use style="fill:#2ca02c;stroke:#2ca02c;" x="112.776364" xlink:href="#m8cd7f42e64" y="87.254554"/>
     <use style="fill:#2ca02c;stroke:#2ca02c;" x="114.805455" xlink:href="#m8cd7f42e64" y="88.248506"/>
     <use style="fill:#2ca02c;stroke:#2ca02c;" x="116.834545" xlink:href="#m8cd7f42e64" y="89.247318"/>
     <use style="fill:#2ca02c;stroke:#2ca02c;" x="118.863636" xlink:href="#m8cd7f42e64" y="90.247578"/>
     <use style="fill:#2ca02c;stroke:#2ca02c;" x="120.892727" xlink:href="#m8cd7f42e64" y="91.243477"/>
     <use style="fill:#2ca02c;stroke:#2ca02c;" x="122.921818" xlink:href="#m8cd7f42e64" y="92.235263"/>
     <use style="fill:#2ca02c;stroke:#2ca02c;" x="124.950909" xlink:href="#m8cd7f42e64" y="93.235731"/>
     <use style="fill:#2ca02c;stroke:#2ca02c;" x="126.98" xlink:href="#m8cd7f42e64" y="94.235887"/>
     <use style="fill:#2ca02c;stroke:#2ca02c;" x="129.009091" xlink:href="#m8cd7f42e64" y="95.241779"/>
     <use style="fill:#2ca02c;stroke:#2ca02c;" x="131.038182" xlink:href="#m8cd7f42e64" y="96.24664"/>
     <use style="fill:#2ca02c;stroke:#2ca02c;" x="133.067273" xlink:href="#m8cd7f42e64" y="97.246463"/>
     <use style="fill:#2ca02c;stroke:#2ca02c;" x="135.096364" xlink:href="#m8cd7f42e64" y="98.252111"/>
     <use style="fill:#2ca02c;stroke:#2ca02c;" x="137.125455" xlink:href="#m8cd7f42e64" y="99.254048"/>
     <use style="fill:#2ca02c;stroke:#2ca02c;" x="139.154545" xlink:href="#m8cd7f42e64" y="100.261533"/>
     <use style="fill:#2ca02c;stroke:#2ca02c;" x="141.183636" xlink:href="#m8cd7f42e64" y="101.277357"/>
     <use style="fill:#2ca02c;stroke:#2ca02c;" x="143.212727" xlink:href="#m8cd7f42e64" y="102.282467"/>
     <use style="fill:#2ca02c;stroke:#2ca02c;" x="145.241818" xlink:href="#m8cd7f42e64" y="103.289502"/>
     <use style="fill:#2ca02c;stroke:#2ca02c;" x="147.270909" xlink:href="#m8cd7f42e64" y="104.292717"/>
     <use style="fill:#2ca02c;stroke:#2ca02c;" x="149.3" xlink:href="#m8cd7f42e64" y="105.29184"/>
     <use style="fill:#2ca02c;stroke:#2ca02c;" x="151.329091" xlink:href="#m8cd7f42e64" y="106.290924"/>
     <use style="fill:#2ca02c;stroke:#2ca02c;" x="153.358182" xlink:href="#m8cd7f42e64" y="107.294551"/>
     <use style="fill:#2ca02c;stroke:#2ca02c;" x="155.387273" xlink:href="#m8cd7f42e64" y="108.301154"/>
     <use style="fill:#2ca02c;stroke:#2ca02c;" x="157.416364" xlink:href="#m8cd7f42e64" y="109.315303"/>
     <use style="fill:#2ca02c;stroke:#2ca02c;" x="159.445455" xlink:href="#m8cd7f42e64" y="110.321886"/>
     <use style="fill:#2ca02c;stroke:#2ca02c;" x="161.474545" xlink:href="#m8cd7f42e64" y="111.32736"/>
     <use style="fill:#2ca02c;stroke:#2ca02c;" x="163.503636" xlink:href="#m8cd7f42e64" y="112.328972"/>
     <use style="fill:#2ca02c;stroke:#2ca02c;" x="165.532727" xlink:href="#m8cd7f42e64" y="113.332324"/>
     <use style="fill:#2ca02c;stroke:#2ca02c;" x="167.561818" xlink:href="#m8cd7f42e64" y="114.336473"/>
     <use style="fill:#2ca02c;stroke:#2ca02c;" x="169.590909" xlink:href="#m8cd7f42e64" y="115.3325"/>
     <use style="fill:#2ca02c;stroke:#2ca02c;" x="171.62" xlink:href="#m8cd7f42e64" y="116.334014"/>
     <use style="fill:#2ca02c;stroke:#2ca02c;" x="173.649091" xlink:href="#m8cd7f42e64" y="117.338465"/>
     <use style="fill:#2ca02c;stroke:#2ca02c;" x="175.678182" xlink:href="#m8cd7f42e64" y="118.340119"/>
     <use style="fill:#2ca02c;stroke:#2ca02c;" x="177.707273" xlink:href="#m8cd7f42e64" y="119.336743"/>
     <use style="fill:#2ca02c;stroke:#2ca02c;" x="179.736364" xlink:href="#m8cd7f42e64" y="120.346503"/>
     <use style="fill:#2ca02c;stroke:#2ca02c;" x="181.765455" xlink:href="#m8cd7f42e64" y="121.347535"/>
     <use style="fill:#2ca02c;stroke:#2ca02c;" x="183.794545" xlink:href="#m8cd7f42e64" y="122.346928"/>
     <use style="fill:#2ca02c;stroke:#2ca02c;" x="185.823636" xlink:href="#m8cd7f42e64" y="123.335121"/>
     <use style="fill:#2ca02c;stroke:#2ca02c;" x="187.852727" xlink:href="#m8cd7f42e64" y="124.323328"/>
     <use style="fill:#2ca02c;stroke:#2ca02c;" x="189.881818" xlink:href="#m8cd7f42e64" y="125.342924"/>
     <use style="fill:#2ca02c;stroke:#2ca02c;" x="191.910909" xlink:href="#m8cd7f42e64" y="126.341402"/>
     <use style="fill:#2ca02c;stroke:#2ca02c;" x="193.94" xlink:href="#m8cd7f42e64" y="127.328365"/>
     <use style="fill:#2ca02c;stroke:#2ca02c;" x="195.969091" xlink:href="#m8cd7f42e64" y="128.338279"/>
     <use style="fill:#2ca02c;stroke:#2ca02c;" x="197.998182" xlink:href="#m8cd7f42e64" y="129.346017"/>
     <use style="fill:#2ca02c;stroke:#2ca02c;" x="200.027273" xlink:href="#m8cd7f42e64" y="130.337927"/>
     <use style="fill:#2ca02c;stroke:#2ca02c;" x="202.056364" xlink:href="#m8cd7f42e64" y="131.343576"/>
     <use style="fill:#2ca02c;stroke:#2ca02c;" x="204.085455" xlink:href="#m8cd7f42e64" y="132.308302"/>
     <use style="fill:#2ca02c;stroke:#2ca02c;" x="206.114545" xlink:href="#m8cd7f42e64" y="133.297508"/>
     <use style="fill:#2ca02c;stroke:#2ca02c;" x="208.143636" xlink:href="#m8cd7f42e64" y="134.291771"/>
     <use style="fill:#2ca02c;stroke:#2ca02c;" x="210.172727" xlink:href="#m8cd7f42e64" y="135.261661"/>
     <use style="fill:#2ca02c;stroke:#2ca02c;" x="212.201818" xlink:href="#m8cd7f42e64" y="136.261805"/>
     <use style="fill:#2ca02c;stroke:#2ca02c;" x="214.230909" xlink:href="#m8cd7f42e64" y="137.2513"/>
     <use style="fill:#2ca02c;stroke:#2ca02c;" x="216.26" xlink:href="#m8cd7f42e64" y="138.23779"/>
     <use style="fill:#2ca02c;stroke:#2ca02c;" x="218.289091" xlink:href="#m8cd7f42e64" y="139.203135"/>
     <use style="fill:#2ca02c;stroke:#2ca02c;" x="220.318182" xlink:href="#m8cd7f42e64" y="140.229554"/>
     <use style="fill:#2ca02c;stroke:#2ca02c;" x="222.347273" xlink:href="#m8cd7f42e64" y="141.198697"/>
     <use style="fill:#2ca02c;stroke:#2ca02c;" x="224.376364" xlink:href="#m8cd7f42e64" y="142.218041"/>
     <use style="fill:#2ca02c;stroke:#2ca02c;" x="226.405455" xlink:href="#m8cd7f42e64" y="143.214458"/>
     <use style="fill:#2ca02c;stroke:#2ca02c;" x="228.434545" xlink:href="#m8cd7f42e64" y="144.169444"/>
     <use style="fill:#2ca02c;stroke:#2ca02c;" x="230.463636" xlink:href="#m8cd7f42e64" y="145.067543"/>
     <use style="fill:#2ca02c;stroke:#2ca02c;" x="232.492727" xlink:href="#m8cd7f42e64" y="146.022263"/>
     <use style="fill:#2ca02c;stroke:#2ca02c;" x="234.521818" xlink:href="#m8cd7f42e64" y="146.957198"/>
     <use style="fill:#2ca02c;stroke:#2ca02c;" x="236.550909" xlink:href="#m8cd7f42e64" y="147.975793"/>
     <use style="fill:#2ca02c;stroke:#2ca02c;" x="238.58" xlink:href="#m8cd7f42e64" y="148.946095"/>
     <use style="fill:#2ca02c;stroke:#2ca02c;" x="240.609091" xlink:href="#m8cd7f42e64" y="149.930679"/>
     <use style="fill:#2ca02c;stroke:#2ca02c;" x="242.638182" xlink:href="#m8cd7f42e64" y="150.875059"/>
     <use style="fill:#2ca02c;stroke:#2ca02c;" x="244.667273" xlink:href="#m8cd7f42e64" y="151.743834"/>
     <use style="fill:#2ca02c;stroke:#2ca02c;" x="246.696364" xlink:href="#m8cd7f42e64" y="152.656354"/>
     <use style="fill:#2ca02c;stroke:#2ca02c;" x="248.725455" xlink:href="#m8cd7f42e64" y="153.55169"/>
     <use style="fill:#2ca02c;stroke:#2ca02c;" x="250.754545" xlink:href="#m8cd7f42e64" y="154.634149"/>
     <use style="fill:#2ca02c;stroke:#2ca02c;" x="252.783636" xlink:href="#m8cd7f42e64" y="155.605715"/>
     <use style="fill:#2ca02c;stroke:#2ca02c;" x="254.812727" xlink:href="#m8cd7f42e64" y="156.468371"/>
     <use style="fill:#2ca02c;stroke:#2ca02c;" x="256.841818" xlink:href="#m8cd7f42e64" y="157.379621"/>
     <use style="fill:#2ca02c;stroke:#2ca02c;" x="258.870909" xlink:href="#m8cd7f42e64" y="158.354844"/>
     <use style="fill:#2ca02c;stroke:#2ca02c;" x="260.9" xlink:href="#m8cd7f42e64" y="159.337507"/>
     <use style="fill:#2ca02c;stroke:#2ca02c;" x="262.929091" xlink:href="#m8cd7f42e64" y="160.190432"/>
     <use style="fill:#2ca02c;stroke:#2ca02c;" x="264.958182" xlink:href="#m8cd7f42e64" y="161.097085"/>
     <use style="fill:#2ca02c;stroke:#2ca02c;" x="266.987273" xlink:href="#m8cd7f42e64" y="161.926885"/>
     <use style="fill:#2ca02c;stroke:#2ca02c;" x="269.016364" xlink:href="#m8cd7f42e64" y="162.783746"/>
     <use style="fill:#2ca02c;stroke:#2ca02c;" x="271.045455" xlink:href="#m8cd7f42e64" y="163.650661"/>
     <use style="fill:#2ca02c;stroke:#2ca02c;" x="273.074545" xlink:href="#m8cd7f42e64" y="164.631191"/>
     <use style="fill:#2ca02c;stroke:#2ca02c;" x="275.103636" xlink:href="#m8cd7f42e64" y="165.566044"/>
    </g>
   </g>
   <g id="line2d_61">
    <path clip-path="url(#pb4021bfe56)" d="M 54.947273 110.225545 
L 378.587273 267.852744 
L 378.587273 267.852744 
" style="fill:none;stroke:#000000;stroke-dasharray:5.55,2.4;stroke-dashoffset:0;stroke-width:1.5;"/>
   </g>
   <g id="patch_3">
    <path d="M 37.7 274.268549 
L 37.7 8.156549 
" style="fill:none;stroke:#000000;stroke-linecap:square;stroke-linejoin:miter;stroke-width:0.8;"/>
   </g>
   <g id="patch_4">
    <path d="M 394.82 274.268549 
L 394.82 8.156549 
" style="fill:none;stroke:#000000;stroke-linecap:square;stroke-linejoin:miter;stroke-width:0.8;"/>
   </g>
   <g id="patch_5">
    <path d="M 37.7 274.268549 
L 394.82 274.268549 
" style="fill:none;stroke:#000000;stroke-linecap:square;stroke-linejoin:miter;stroke-width:0.8;"/>
   </g>
   <g id="patch_6">
    <path d="M 37.7 8.156549 
L 394.82 8.156549 
" style="fill:none;stroke:#000000;stroke-linecap:square;stroke-linejoin:miter;stroke-width:0.8;"/>
   </g>
   <g id="legend_1">
    <g id="patch_7">
     <path d="M 286.72 60.212799 
L 387.82 60.212799 
Q 389.82 60.212799 389.82 58.212799 
L 389.82 15.156549 
Q 389.82 13.156549 387.82 13.156549 
L 286.72 13.156549 
Q 284.72 13.156549 284.72 15.156549 
L 284.72 58.212799 
Q 284.72 60.212799 286.72 60.212799 
z
" style="fill:#ffffff;opacity:0.8;"/>
    </g>
    <g id="line2d_62">
     <path d="M 288.72 21.254986 
L 308.72 21.254986 
" style="fill:none;stroke:#1f77b4;stroke-linecap:square;stroke-width:1.5;"/>
    </g>
    <g id="line2d_63">
     <g>
      <use style="fill:#1f77b4;stroke:#1f77b4;" x="298.72" xlink:href="#me71eab4111" y="21.254986"/>
     </g>
    </g>
    <g id="text_15">
     <!-- APD$_n$ - APD$_\infty$ -->
     <defs>
      <path d="M 34.1875 63.1875 
L 20.796875 26.90625 
L 47.609375 26.90625 
z
M 28.609375 72.90625 
L 39.796875 72.90625 
L 67.578125 0 
L 57.328125 0 
L 50.6875 18.703125 
L 17.828125 18.703125 
L 11.1875 0 
L 0.78125 0 
z
" id="DejaVuSans-65"/>
      <path d="M 19.671875 64.796875 
L 19.671875 37.40625 
L 32.078125 37.40625 
Q 38.96875 37.40625 42.71875 40.96875 
Q 46.484375 44.53125 46.484375 51.125 
Q 46.484375 57.671875 42.71875 61.234375 
Q 38.96875 64.796875 32.078125 64.796875 
z
M 9.8125 72.90625 
L 32.078125 72.90625 
Q 44.34375 72.90625 50.609375 67.359375 
Q 56.890625 61.8125 56.890625 51.125 
Q 56.890625 40.328125 50.609375 34.8125 
Q 44.34375 29.296875 32.078125 29.296875 
L 19.671875 29.296875 
L 19.671875 0 
L 9.8125 0 
z
" id="DejaVuSans-80"/>
      <path d="M 19.671875 64.796875 
L 19.671875 8.109375 
L 31.59375 8.109375 
Q 46.6875 8.109375 53.6875 14.9375 
Q 60.6875 21.78125 60.6875 36.53125 
Q 60.6875 51.171875 53.6875 57.984375 
Q 46.6875 64.796875 31.59375 64.796875 
z
M 9.8125 72.90625 
L 30.078125 72.90625 
Q 51.265625 72.90625 61.171875 64.09375 
Q 71.09375 55.28125 71.09375 36.53125 
Q 71.09375 17.671875 61.125 8.828125 
Q 51.171875 0 30.078125 0 
L 9.8125 0 
z
" id="DejaVuSans-68"/>
      <path d="M 55.71875 33.015625 
L 49.3125 0 
L 40.28125 0 
L 46.6875 32.671875 
Q 47.125 34.96875 47.359375 36.71875 
Q 47.609375 38.484375 47.609375 39.5 
Q 47.609375 43.609375 45.015625 45.890625 
Q 42.4375 48.1875 37.796875 48.1875 
Q 30.5625 48.1875 25.34375 43.375 
Q 20.125 38.578125 18.5 30.328125 
L 12.5 0 
L 3.515625 0 
L 14.109375 54.6875 
L 23.09375 54.6875 
L 21.296875 46.09375 
Q 25.046875 50.828125 30.3125 53.40625 
Q 35.59375 56 41.40625 56 
Q 48.640625 56 52.609375 52.09375 
Q 56.59375 48.1875 56.59375 41.109375 
Q 56.59375 39.359375 56.375 37.359375 
Q 56.15625 35.359375 55.71875 33.015625 
z
" id="DejaVuSans-Oblique-110"/>
      <path id="DejaVuSans-32"/>
      <path d="M 4.890625 31.390625 
L 31.203125 31.390625 
L 31.203125 23.390625 
L 4.890625 23.390625 
z
" id="DejaVuSans-45"/>
      <path d="M 45.5625 17.046875 
Q 44.046875 18.796875 41.65625 22.90625 
Q 38.375 17.046875 35.5 14.453125 
Q 31.890625 11.328125 26.265625 11.328125 
Q 19.671875 11.328125 15.328125 16.265625 
Q 10.75 21.4375 10.75 29.984375 
Q 10.75 38.1875 15.328125 43.75 
Q 19.4375 48.6875 26.375 48.6875 
Q 29.9375 48.6875 32.5625 47.21875 
Q 35.640625 45.609375 37.75 42.828125 
Q 39.703125 40.328125 41.65625 36.96875 
Q 44.921875 42.828125 47.796875 45.40625 
Q 51.421875 48.53125 57.03125 48.53125 
Q 63.625 48.53125 67.96875 43.609375 
Q 72.5625 38.421875 72.5625 29.890625 
Q 72.5625 21.6875 67.96875 16.109375 
Q 63.875 11.1875 56.9375 11.1875 
Q 53.375 11.1875 50.734375 12.640625 
Q 48.09375 13.96875 45.5625 17.046875 
z
M 25.734375 17.71875 
Q 33.796875 17.71875 38.625 29.4375 
Q 32.421875 42.234375 25.734375 42.234375 
Q 20.84375 42.234375 18.359375 38.71875 
Q 15.671875 34.96875 15.671875 29.984375 
Q 15.671875 24.515625 18.359375 21.140625 
Q 21.09375 17.71875 25.734375 17.71875 
z
M 57.5625 42.140625 
Q 50.296875 42.140625 44.671875 30.421875 
Q 50.828125 17.625 57.5625 17.625 
Q 62.453125 17.625 64.9375 21.140625 
Q 67.625 24.90625 67.625 29.890625 
Q 67.625 35.359375 64.9375 38.71875 
Q 62.203125 42.140625 57.5625 42.140625 
z
" id="DejaVuSans-8734"/>
     </defs>
     <g transform="translate(316.72 24.754986)scale(0.1 -0.1)">
      <use transform="translate(0 0.09375)" xlink:href="#DejaVuSans-65"/>
      <use transform="translate(68.408203 0.09375)" xlink:href="#DejaVuSans-80"/>
      <use transform="translate(128.710938 0.09375)" xlink:href="#DejaVuSans-68"/>
      <use transform="translate(206.669922 -16.3125)scale(0.7)" xlink:href="#DejaVuSans-Oblique-110"/>
      <use transform="translate(253.769531 0.09375)" xlink:href="#DejaVuSans-32"/>
      <use transform="translate(285.556641 0.09375)" xlink:href="#DejaVuSans-45"/>
      <use transform="translate(321.640625 0.09375)" xlink:href="#DejaVuSans-32"/>
      <use transform="translate(353.427734 0.09375)" xlink:href="#DejaVuSans-65"/>
      <use transform="translate(421.835938 0.09375)" xlink:href="#DejaVuSans-80"/>
      <use transform="translate(482.138672 0.09375)" xlink:href="#DejaVuSans-68"/>
      <use transform="translate(560.097656 -16.3125)scale(0.7)" xlink:href="#DejaVuSans-8734"/>
     </g>
    </g>
    <g id="line2d_64">
     <path d="M 288.72 35.933111 
L 308.72 35.933111 
" style="fill:none;stroke:#2ca02c;stroke-dasharray:1.5,2.475;stroke-dashoffset:0;stroke-width:1.5;"/>
    </g>
    <g id="line2d_65">
     <g>
      <use style="fill:#2ca02c;stroke:#2ca02c;" x="298.72" xlink:href="#m8cd7f42e64" y="35.933111"/>
     </g>
    </g>
    <g id="text_16">
     <!-- linear region -->
     <defs>
      <path d="M 9.421875 75.984375 
L 18.40625 75.984375 
L 18.40625 0 
L 9.421875 0 
z
" id="DejaVuSans-108"/>
      <path d="M 9.421875 54.6875 
L 18.40625 54.6875 
L 18.40625 0 
L 9.421875 0 
z
M 9.421875 75.984375 
L 18.40625 75.984375 
L 18.40625 64.59375 
L 9.421875 64.59375 
z
" id="DejaVuSans-105"/>
      <path d="M 54.890625 33.015625 
L 54.890625 0 
L 45.90625 0 
L 45.90625 32.71875 
Q 45.90625 40.484375 42.875 44.328125 
Q 39.84375 48.1875 33.796875 48.1875 
Q 26.515625 48.1875 22.3125 43.546875 
Q 18.109375 38.921875 18.109375 30.90625 
L 18.109375 0 
L 9.078125 0 
L 9.078125 54.6875 
L 18.109375 54.6875 
L 18.109375 46.1875 
Q 21.34375 51.125 25.703125 53.5625 
Q 30.078125 56 35.796875 56 
Q 45.21875 56 50.046875 50.171875 
Q 54.890625 44.34375 54.890625 33.015625 
z
" id="DejaVuSans-110"/>
      <path d="M 56.203125 29.59375 
L 56.203125 25.203125 
L 14.890625 25.203125 
Q 15.484375 15.921875 20.484375 11.0625 
Q 25.484375 6.203125 34.421875 6.203125 
Q 39.59375 6.203125 44.453125 7.46875 
Q 49.3125 8.734375 54.109375 11.28125 
L 54.109375 2.78125 
Q 49.265625 0.734375 44.1875 -0.34375 
Q 39.109375 -1.421875 33.890625 -1.421875 
Q 20.796875 -1.421875 13.15625 6.1875 
Q 5.515625 13.8125 5.515625 26.8125 
Q 5.515625 40.234375 12.765625 48.109375 
Q 20.015625 56 32.328125 56 
Q 43.359375 56 49.78125 48.890625 
Q 56.203125 41.796875 56.203125 29.59375 
z
M 47.21875 32.234375 
Q 47.125 39.59375 43.09375 43.984375 
Q 39.0625 48.390625 32.421875 48.390625 
Q 24.90625 48.390625 20.390625 44.140625 
Q 15.875 39.890625 15.1875 32.171875 
z
" id="DejaVuSans-101"/>
      <path d="M 34.28125 27.484375 
Q 23.390625 27.484375 19.1875 25 
Q 14.984375 22.515625 14.984375 16.5 
Q 14.984375 11.71875 18.140625 8.90625 
Q 21.296875 6.109375 26.703125 6.109375 
Q 34.1875 6.109375 38.703125 11.40625 
Q 43.21875 16.703125 43.21875 25.484375 
L 43.21875 27.484375 
z
M 52.203125 31.203125 
L 52.203125 0 
L 43.21875 0 
L 43.21875 8.296875 
Q 40.140625 3.328125 35.546875 0.953125 
Q 30.953125 -1.421875 24.3125 -1.421875 
Q 15.921875 -1.421875 10.953125 3.296875 
Q 6 8.015625 6 15.921875 
Q 6 25.140625 12.171875 29.828125 
Q 18.359375 34.515625 30.609375 34.515625 
L 43.21875 34.515625 
L 43.21875 35.40625 
Q 43.21875 41.609375 39.140625 45 
Q 35.0625 48.390625 27.6875 48.390625 
Q 23 48.390625 18.546875 47.265625 
Q 14.109375 46.140625 10.015625 43.890625 
L 10.015625 52.203125 
Q 14.9375 54.109375 19.578125 55.046875 
Q 24.21875 56 28.609375 56 
Q 40.484375 56 46.34375 49.84375 
Q 52.203125 43.703125 52.203125 31.203125 
z
" id="DejaVuSans-97"/>
      <path d="M 41.109375 46.296875 
Q 39.59375 47.171875 37.8125 47.578125 
Q 36.03125 48 33.890625 48 
Q 26.265625 48 22.1875 43.046875 
Q 18.109375 38.09375 18.109375 28.8125 
L 18.109375 0 
L 9.078125 0 
L 9.078125 54.6875 
L 18.109375 54.6875 
L 18.109375 46.1875 
Q 20.953125 51.171875 25.484375 53.578125 
Q 30.03125 56 36.53125 56 
Q 37.453125 56 38.578125 55.875 
Q 39.703125 55.765625 41.0625 55.515625 
z
" id="DejaVuSans-114"/>
      <path d="M 45.40625 27.984375 
Q 45.40625 37.75 41.375 43.109375 
Q 37.359375 48.484375 30.078125 48.484375 
Q 22.859375 48.484375 18.828125 43.109375 
Q 14.796875 37.75 14.796875 27.984375 
Q 14.796875 18.265625 18.828125 12.890625 
Q 22.859375 7.515625 30.078125 7.515625 
Q 37.359375 7.515625 41.375 12.890625 
Q 45.40625 18.265625 45.40625 27.984375 
z
M 54.390625 6.78125 
Q 54.390625 -7.171875 48.1875 -13.984375 
Q 42 -20.796875 29.203125 -20.796875 
Q 24.46875 -20.796875 20.265625 -20.09375 
Q 16.0625 -19.390625 12.109375 -17.921875 
L 12.109375 -9.1875 
Q 16.0625 -11.328125 19.921875 -12.34375 
Q 23.78125 -13.375 27.78125 -13.375 
Q 36.625 -13.375 41.015625 -8.765625 
Q 45.40625 -4.15625 45.40625 5.171875 
L 45.40625 9.625 
Q 42.625 4.78125 38.28125 2.390625 
Q 33.9375 0 27.875 0 
Q 17.828125 0 11.671875 7.65625 
Q 5.515625 15.328125 5.515625 27.984375 
Q 5.515625 40.671875 11.671875 48.328125 
Q 17.828125 56 27.875 56 
Q 33.9375 56 38.28125 53.609375 
Q 42.625 51.21875 45.40625 46.390625 
L 45.40625 54.6875 
L 54.390625 54.6875 
z
" id="DejaVuSans-103"/>
      <path d="M 30.609375 48.390625 
Q 23.390625 48.390625 19.1875 42.75 
Q 14.984375 37.109375 14.984375 27.296875 
Q 14.984375 17.484375 19.15625 11.84375 
Q 23.34375 6.203125 30.609375 6.203125 
Q 37.796875 6.203125 41.984375 11.859375 
Q 46.1875 17.53125 46.1875 27.296875 
Q 46.1875 37.015625 41.984375 42.703125 
Q 37.796875 48.390625 30.609375 48.390625 
z
M 30.609375 56 
Q 42.328125 56 49.015625 48.375 
Q 55.71875 40.765625 55.71875 27.296875 
Q 55.71875 13.875 49.015625 6.21875 
Q 42.328125 -1.421875 30.609375 -1.421875 
Q 18.84375 -1.421875 12.171875 6.21875 
Q 5.515625 13.875 5.515625 27.296875 
Q 5.515625 40.765625 12.171875 48.375 
Q 18.84375 56 30.609375 56 
z
" id="DejaVuSans-111"/>
     </defs>
     <g transform="translate(316.72 39.433111)scale(0.1 -0.1)">
      <use xlink:href="#DejaVuSans-108"/>
      <use x="27.783203" xlink:href="#DejaVuSans-105"/>
      <use x="55.566406" xlink:href="#DejaVuSans-110"/>
      <use x="118.945312" xlink:href="#DejaVuSans-101"/>
      <use x="180.46875" xlink:href="#DejaVuSans-97"/>
      <use x="241.748047" xlink:href="#DejaVuSans-114"/>
      <use x="282.861328" xlink:href="#DejaVuSans-32"/>
      <use x="314.648438" xlink:href="#DejaVuSans-114"/>
      <use x="353.511719" xlink:href="#DejaVuSans-101"/>
      <use x="415.035156" xlink:href="#DejaVuSans-103"/>
      <use x="478.511719" xlink:href="#DejaVuSans-105"/>
      <use x="506.294922" xlink:href="#DejaVuSans-111"/>
      <use x="567.476562" xlink:href="#DejaVuSans-110"/>
     </g>
    </g>
    <g id="line2d_66">
     <path d="M 288.72 50.612799 
L 308.72 50.612799 
" style="fill:none;stroke:#000000;stroke-dasharray:5.55,2.4;stroke-dashoffset:0;stroke-width:1.5;"/>
    </g>
    <g id="line2d_67"/>
    <g id="text_17">
     <!-- $ \exp(-0.023 k)$ -->
     <defs>
      <path d="M 54.890625 54.6875 
L 35.109375 28.078125 
L 55.90625 0 
L 45.3125 0 
L 29.390625 21.484375 
L 13.484375 0 
L 2.875 0 
L 24.125 28.609375 
L 4.6875 54.6875 
L 15.28125 54.6875 
L 29.78125 35.203125 
L 44.28125 54.6875 
z
" id="DejaVuSans-120"/>
      <path d="M 18.109375 8.203125 
L 18.109375 -20.796875 
L 9.078125 -20.796875 
L 9.078125 54.6875 
L 18.109375 54.6875 
L 18.109375 46.390625 
Q 20.953125 51.265625 25.265625 53.625 
Q 29.59375 56 35.59375 56 
Q 45.5625 56 51.78125 48.09375 
Q 58.015625 40.1875 58.015625 27.296875 
Q 58.015625 14.40625 51.78125 6.484375 
Q 45.5625 -1.421875 35.59375 -1.421875 
Q 29.59375 -1.421875 25.265625 0.953125 
Q 20.953125 3.328125 18.109375 8.203125 
z
M 48.6875 27.296875 
Q 48.6875 37.203125 44.609375 42.84375 
Q 40.53125 48.484375 33.40625 48.484375 
Q 26.265625 48.484375 22.1875 42.84375 
Q 18.109375 37.203125 18.109375 27.296875 
Q 18.109375 17.390625 22.1875 11.75 
Q 26.265625 6.109375 33.40625 6.109375 
Q 40.53125 6.109375 44.609375 11.75 
Q 48.6875 17.390625 48.6875 27.296875 
z
" id="DejaVuSans-112"/>
      <path d="M 31 75.875 
Q 24.46875 64.65625 21.28125 53.65625 
Q 18.109375 42.671875 18.109375 31.390625 
Q 18.109375 20.125 21.3125 9.0625 
Q 24.515625 -2 31 -13.1875 
L 23.1875 -13.1875 
Q 15.875 -1.703125 12.234375 9.375 
Q 8.59375 20.453125 8.59375 31.390625 
Q 8.59375 42.28125 12.203125 53.3125 
Q 15.828125 64.359375 23.1875 75.875 
z
" id="DejaVuSans-40"/>
      <path d="M 10.6875 12.40625 
L 21 12.40625 
L 21 0 
L 10.6875 0 
z
" id="DejaVuSans-46"/>
      <path d="M 8.015625 75.875 
L 15.828125 75.875 
Q 23.140625 64.359375 26.78125 53.3125 
Q 30.421875 42.28125 30.421875 31.390625 
Q 30.421875 20.453125 26.78125 9.375 
Q 23.140625 -1.703125 15.828125 -13.1875 
L 8.015625 -13.1875 
Q 14.5 -2 17.703125 9.0625 
Q 20.90625 20.125 20.90625 31.390625 
Q 20.90625 42.671875 17.703125 53.65625 
Q 14.5 64.65625 8.015625 75.875 
z
" id="DejaVuSans-41"/>
     </defs>
     <g transform="translate(316.72 54.112799)scale(0.1 -0.1)">
      <use transform="translate(0 0.015625)" xlink:href="#DejaVuSans-101"/>
      <use transform="translate(61.523438 0.015625)" xlink:href="#DejaVuSans-120"/>
      <use transform="translate(120.703125 0.015625)" xlink:href="#DejaVuSans-112"/>
      <use transform="translate(184.179688 0.015625)" xlink:href="#DejaVuSans-40"/>
      <use transform="translate(223.193359 0.015625)" xlink:href="#DejaVuSans-8722"/>
      <use transform="translate(306.982422 0.015625)" xlink:href="#DejaVuSans-48"/>
      <use transform="translate(370.605469 0.015625)" xlink:href="#DejaVuSans-46"/>
      <use transform="translate(402.392578 0.015625)" xlink:href="#DejaVuSans-48"/>
      <use transform="translate(466.015625 0.015625)" xlink:href="#DejaVuSans-50"/>
      <use transform="translate(529.638672 0.015625)" xlink:href="#DejaVuSans-51"/>
      <use transform="translate(593.261719 0.015625)" xlink:href="#DejaVuSans-Oblique-107"/>
      <use transform="translate(651.171875 0.015625)" xlink:href="#DejaVuSans-41"/>
     </g>
    </g>
   </g>
  </g>
 </g>
 <defs>
  <clipPath id="pb4021bfe56">
   <rect height="266.112" width="357.12" x="37.7" y="8.156549"/>
  </clipPath>
 </defs>
</svg>
