<?xml version="1.0" encoding="utf-8" standalone="no"?>
<!DOCTYPE svg PUBLIC "-//W3C//DTD SVG 1.1//EN"
  "http://www.w3.org/Graphics/SVG/1.1/DTD/svg11.dtd">
<!-- Created with matplotlib (https://matplotlib.org/) -->
<svg height="310.86825pt" version="1.1" viewBox="0 0 402.02 310.86825" width="402.02pt" xmlns="http://www.w3.org/2000/svg" xmlns:xlink="http://www.w3.org/1999/xlink">
 <defs>
  <style type="text/css">
*{stroke-linecap:butt;stroke-linejoin:round;}
  </style>
 </defs>
 <g id="figure_1">
  <g id="patch_1">
   <path d="M 0 310.86825 
L 402.02 310.86825 
L 402.02 0 
L 0 0 
z
" style="fill:#ffffff;"/>
  </g>
  <g id="axes_1">
   <g id="patch_2">
    <path d="M 37.7 273.312 
L 394.82 273.312 
L 394.82 7.2 
L 37.7 7.2 
z
" style="fill:#ffffff;"/>
   </g>
   <g id="matplotlib.axis_1">
    <g id="xtick_1">
     <g id="line2d_1">
      <defs>
       <path d="M 0 0 
L 0 3.5 
" id="m567aa86b20" style="stroke:#000000;stroke-width:0.8;"/>
      </defs>
      <g>
       <use style="stroke:#000000;stroke-width:0.8;" x="53.932727" xlink:href="#m567aa86b20" y="273.312"/>
      </g>
     </g>
     <g id="text_1">
      <!-- 0 -->
      <defs>
       <path d="M 31.78125 66.40625 
Q 24.171875 66.40625 20.328125 58.90625 
Q 16.5 51.421875 16.5 36.375 
Q 16.5 21.390625 20.328125 13.890625 
Q 24.171875 6.390625 31.78125 6.390625 
Q 39.453125 6.390625 43.28125 13.890625 
Q 47.125 21.390625 47.125 36.375 
Q 47.125 51.421875 43.28125 58.90625 
Q 39.453125 66.40625 31.78125 66.40625 
z
M 31.78125 74.21875 
Q 44.046875 74.21875 50.515625 64.515625 
Q 56.984375 54.828125 56.984375 36.375 
Q 56.984375 17.96875 50.515625 8.265625 
Q 44.046875 -1.421875 31.78125 -1.421875 
Q 19.53125 -1.421875 13.0625 8.265625 
Q 6.59375 17.96875 6.59375 36.375 
Q 6.59375 54.828125 13.0625 64.515625 
Q 19.53125 74.21875 31.78125 74.21875 
z
" id="DejaVuSans-48"/>
      </defs>
      <g transform="translate(50.751477 287.910437)scale(0.1 -0.1)">
       <use xlink:href="#DejaVuSans-48"/>
      </g>
     </g>
    </g>
    <g id="xtick_2">
     <g id="line2d_2">
      <g>
       <use style="stroke:#000000;stroke-width:0.8;" x="132.162738" xlink:href="#m567aa86b20" y="273.312"/>
      </g>
     </g>
     <g id="text_2">
      <!-- 100 -->
      <defs>
       <path d="M 12.40625 8.296875 
L 28.515625 8.296875 
L 28.515625 63.921875 
L 10.984375 60.40625 
L 10.984375 69.390625 
L 28.421875 72.90625 
L 38.28125 72.90625 
L 38.28125 8.296875 
L 54.390625 8.296875 
L 54.390625 0 
L 12.40625 0 
z
" id="DejaVuSans-49"/>
      </defs>
      <g transform="translate(122.618988 287.910437)scale(0.1 -0.1)">
       <use xlink:href="#DejaVuSans-49"/>
       <use x="63.623047" xlink:href="#DejaVuSans-48"/>
       <use x="127.246094" xlink:href="#DejaVuSans-48"/>
      </g>
     </g>
    </g>
    <g id="xtick_3">
     <g id="line2d_3">
      <g>
       <use style="stroke:#000000;stroke-width:0.8;" x="210.392749" xlink:href="#m567aa86b20" y="273.312"/>
      </g>
     </g>
     <g id="text_3">
      <!-- 200 -->
      <defs>
       <path d="M 19.1875 8.296875 
L 53.609375 8.296875 
L 53.609375 0 
L 7.328125 0 
L 7.328125 8.296875 
Q 12.9375 14.109375 22.625 23.890625 
Q 32.328125 33.6875 34.8125 36.53125 
Q 39.546875 41.84375 41.421875 45.53125 
Q 43.3125 49.21875 43.3125 52.78125 
Q 43.3125 58.59375 39.234375 62.25 
Q 35.15625 65.921875 28.609375 65.921875 
Q 23.96875 65.921875 18.8125 64.3125 
Q 13.671875 62.703125 7.8125 59.421875 
L 7.8125 69.390625 
Q 13.765625 71.78125 18.9375 73 
Q 24.125 74.21875 28.421875 74.21875 
Q 39.75 74.21875 46.484375 68.546875 
Q 53.21875 62.890625 53.21875 53.421875 
Q 53.21875 48.921875 51.53125 44.890625 
Q 49.859375 40.875 45.40625 35.40625 
Q 44.1875 33.984375 37.640625 27.21875 
Q 31.109375 20.453125 19.1875 8.296875 
z
" id="DejaVuSans-50"/>
      </defs>
      <g transform="translate(200.848999 287.910437)scale(0.1 -0.1)">
       <use xlink:href="#DejaVuSans-50"/>
       <use x="63.623047" xlink:href="#DejaVuSans-48"/>
       <use x="127.246094" xlink:href="#DejaVuSans-48"/>
      </g>
     </g>
    </g>
    <g id="xtick_4">
     <g id="line2d_4">
      <g>
       <use style="stroke:#000000;stroke-width:0.8;" x="288.62276" xlink:href="#m567aa86b20" y="273.312"/>
      </g>
     </g>
     <g id="text_4">
      <!-- 300 -->
      <defs>
       <path d="M 40.578125 39.3125 
Q 47.65625 37.796875 51.625 33 
Q 55.609375 28.21875 55.609375 21.1875 
Q 55.609375 10.40625 48.1875 4.484375 
Q 40.765625 -1.421875 27.09375 -1.421875 
Q 22.515625 -1.421875 17.65625 -0.515625 
Q 12.796875 0.390625 7.625 2.203125 
L 7.625 11.71875 
Q 11.71875 9.328125 16.59375 8.109375 
Q 21.484375 6.890625 26.8125 6.890625 
Q 36.078125 6.890625 40.9375 10.546875 
Q 45.796875 14.203125 45.796875 21.1875 
Q 45.796875 27.640625 41.28125 31.265625 
Q 36.765625 34.90625 28.71875 34.90625 
L 20.21875 34.90625 
L 20.21875 43.015625 
L 29.109375 43.015625 
Q 36.375 43.015625 40.234375 45.921875 
Q 44.09375 48.828125 44.09375 54.296875 
Q 44.09375 59.90625 40.109375 62.90625 
Q 36.140625 65.921875 28.71875 65.921875 
Q 24.65625 65.921875 20.015625 65.03125 
Q 15.375 64.15625 9.8125 62.3125 
L 9.8125 71.09375 
Q 15.4375 72.65625 20.34375 73.4375 
Q 25.25 74.21875 29.59375 74.21875 
Q 40.828125 74.21875 47.359375 69.109375 
Q 53.90625 64.015625 53.90625 55.328125 
Q 53.90625 49.265625 50.4375 45.09375 
Q 46.96875 40.921875 40.578125 39.3125 
z
" id="DejaVuSans-51"/>
      </defs>
      <g transform="translate(279.07901 287.910437)scale(0.1 -0.1)">
       <use xlink:href="#DejaVuSans-51"/>
       <use x="63.623047" xlink:href="#DejaVuSans-48"/>
       <use x="127.246094" xlink:href="#DejaVuSans-48"/>
      </g>
     </g>
    </g>
    <g id="xtick_5">
     <g id="line2d_5">
      <g>
       <use style="stroke:#000000;stroke-width:0.8;" x="366.852771" xlink:href="#m567aa86b20" y="273.312"/>
      </g>
     </g>
     <g id="text_5">
      <!-- 400 -->
      <defs>
       <path d="M 37.796875 64.3125 
L 12.890625 25.390625 
L 37.796875 25.390625 
z
M 35.203125 72.90625 
L 47.609375 72.90625 
L 47.609375 25.390625 
L 58.015625 25.390625 
L 58.015625 17.1875 
L 47.609375 17.1875 
L 47.609375 0 
L 37.796875 0 
L 37.796875 17.1875 
L 4.890625 17.1875 
L 4.890625 26.703125 
z
" id="DejaVuSans-52"/>
      </defs>
      <g transform="translate(357.309021 287.910437)scale(0.1 -0.1)">
       <use xlink:href="#DejaVuSans-52"/>
       <use x="63.623047" xlink:href="#DejaVuSans-48"/>
       <use x="127.246094" xlink:href="#DejaVuSans-48"/>
      </g>
     </g>
    </g>
    <g id="text_6">
     <!-- $ k $ -->
     <defs>
      <path d="M 18.3125 75.984375 
L 27.296875 75.984375 
L 18.703125 31.6875 
L 49.515625 54.6875 
L 61.1875 54.6875 
L 26.8125 28.515625 
L 51.90625 0 
L 41.015625 0 
L 17.671875 26.703125 
L 12.5 0 
L 3.515625 0 
z
" id="DejaVuSans-Oblique-107"/>
     </defs>
     <g transform="translate(213.36 301.588562)scale(0.1 -0.1)">
      <use transform="translate(0 0.015625)" xlink:href="#DejaVuSans-Oblique-107"/>
     </g>
    </g>
   </g>
   <g id="matplotlib.axis_2">
    <g id="ytick_1">
     <g id="line2d_6">
      <defs>
       <path d="M 0 0 
L -3.5 0 
" id="m3e35a0850e" style="stroke:#000000;stroke-width:0.8;"/>
      </defs>
      <g>
       <use style="stroke:#000000;stroke-width:0.8;" x="37.7" xlink:href="#m3e35a0850e" y="230.871172"/>
      </g>
     </g>
     <g id="text_7">
      <!-- $\mathdefault{10^{-1}}$ -->
      <defs>
       <path d="M 10.59375 35.5 
L 73.1875 35.5 
L 73.1875 27.203125 
L 10.59375 27.203125 
z
" id="DejaVuSans-8722"/>
      </defs>
      <g transform="translate(7.2 234.670391)scale(0.1 -0.1)">
       <use transform="translate(0 0.684375)" xlink:href="#DejaVuSans-49"/>
       <use transform="translate(63.623047 0.684375)" xlink:href="#DejaVuSans-48"/>
       <use transform="translate(128.203125 38.965625)scale(0.7)" xlink:href="#DejaVuSans-8722"/>
       <use transform="translate(186.855469 38.965625)scale(0.7)" xlink:href="#DejaVuSans-49"/>
      </g>
     </g>
    </g>
    <g id="ytick_2">
     <g id="line2d_7">
      <g>
       <use style="stroke:#000000;stroke-width:0.8;" x="37.7" xlink:href="#m3e35a0850e" y="166.887741"/>
      </g>
     </g>
     <g id="text_8">
      <!-- $\mathdefault{10^{0}}$ -->
      <g transform="translate(13.1 170.686959)scale(0.1 -0.1)">
       <use transform="translate(0 0.765625)" xlink:href="#DejaVuSans-49"/>
       <use transform="translate(63.623047 0.765625)" xlink:href="#DejaVuSans-48"/>
       <use transform="translate(128.203125 39.046875)scale(0.7)" xlink:href="#DejaVuSans-48"/>
      </g>
     </g>
    </g>
    <g id="ytick_3">
     <g id="line2d_8">
      <g>
       <use style="stroke:#000000;stroke-width:0.8;" x="37.7" xlink:href="#m3e35a0850e" y="102.904309"/>
      </g>
     </g>
     <g id="text_9">
      <!-- $\mathdefault{10^{1}}$ -->
      <g transform="translate(13.1 106.703527)scale(0.1 -0.1)">
       <use transform="translate(0 0.684375)" xlink:href="#DejaVuSans-49"/>
       <use transform="translate(63.623047 0.684375)" xlink:href="#DejaVuSans-48"/>
       <use transform="translate(128.203125 38.965625)scale(0.7)" xlink:href="#DejaVuSans-49"/>
      </g>
     </g>
    </g>
    <g id="ytick_4">
     <g id="line2d_9">
      <g>
       <use style="stroke:#000000;stroke-width:0.8;" x="37.7" xlink:href="#m3e35a0850e" y="38.920877"/>
      </g>
     </g>
     <g id="text_10">
      <!-- $\mathdefault{10^{2}}$ -->
      <g transform="translate(13.1 42.720095)scale(0.1 -0.1)">
       <use transform="translate(0 0.765625)" xlink:href="#DejaVuSans-49"/>
       <use transform="translate(63.623047 0.765625)" xlink:href="#DejaVuSans-48"/>
       <use transform="translate(128.203125 39.046875)scale(0.7)" xlink:href="#DejaVuSans-50"/>
      </g>
     </g>
    </g>
    <g id="ytick_5">
     <g id="line2d_10">
      <defs>
       <path d="M 0 0 
L -2 0 
" id="m935919a909" style="stroke:#000000;stroke-width:0.6;"/>
      </defs>
      <g>
       <use style="stroke:#000000;stroke-width:0.6;" x="37.7" xlink:href="#m935919a909" y="264.326749"/>
      </g>
     </g>
    </g>
    <g id="ytick_6">
     <g id="line2d_11">
      <g>
       <use style="stroke:#000000;stroke-width:0.6;" x="37.7" xlink:href="#m935919a909" y="256.33274"/>
      </g>
     </g>
    </g>
    <g id="ytick_7">
     <g id="line2d_12">
      <g>
       <use style="stroke:#000000;stroke-width:0.6;" x="37.7" xlink:href="#m935919a909" y="250.132105"/>
      </g>
     </g>
    </g>
    <g id="ytick_8">
     <g id="line2d_13">
      <g>
       <use style="stroke:#000000;stroke-width:0.6;" x="37.7" xlink:href="#m935919a909" y="245.065817"/>
      </g>
     </g>
    </g>
    <g id="ytick_9">
     <g id="line2d_14">
      <g>
       <use style="stroke:#000000;stroke-width:0.6;" x="37.7" xlink:href="#m935919a909" y="240.782332"/>
      </g>
     </g>
    </g>
    <g id="ytick_10">
     <g id="line2d_15">
      <g>
       <use style="stroke:#000000;stroke-width:0.6;" x="37.7" xlink:href="#m935919a909" y="237.071808"/>
      </g>
     </g>
    </g>
    <g id="ytick_11">
     <g id="line2d_16">
      <g>
       <use style="stroke:#000000;stroke-width:0.6;" x="37.7" xlink:href="#m935919a909" y="233.798894"/>
      </g>
     </g>
    </g>
    <g id="ytick_12">
     <g id="line2d_17">
      <g>
       <use style="stroke:#000000;stroke-width:0.6;" x="37.7" xlink:href="#m935919a909" y="211.61024"/>
      </g>
     </g>
    </g>
    <g id="ytick_13">
     <g id="line2d_18">
      <g>
       <use style="stroke:#000000;stroke-width:0.6;" x="37.7" xlink:href="#m935919a909" y="200.343317"/>
      </g>
     </g>
    </g>
    <g id="ytick_14">
     <g id="line2d_19">
      <g>
       <use style="stroke:#000000;stroke-width:0.6;" x="37.7" xlink:href="#m935919a909" y="192.349308"/>
      </g>
     </g>
    </g>
    <g id="ytick_15">
     <g id="line2d_20">
      <g>
       <use style="stroke:#000000;stroke-width:0.6;" x="37.7" xlink:href="#m935919a909" y="186.148673"/>
      </g>
     </g>
    </g>
    <g id="ytick_16">
     <g id="line2d_21">
      <g>
       <use style="stroke:#000000;stroke-width:0.6;" x="37.7" xlink:href="#m935919a909" y="181.082385"/>
      </g>
     </g>
    </g>
    <g id="ytick_17">
     <g id="line2d_22">
      <g>
       <use style="stroke:#000000;stroke-width:0.6;" x="37.7" xlink:href="#m935919a909" y="176.7989"/>
      </g>
     </g>
    </g>
    <g id="ytick_18">
     <g id="line2d_23">
      <g>
       <use style="stroke:#000000;stroke-width:0.6;" x="37.7" xlink:href="#m935919a909" y="173.088376"/>
      </g>
     </g>
    </g>
    <g id="ytick_19">
     <g id="line2d_24">
      <g>
       <use style="stroke:#000000;stroke-width:0.6;" x="37.7" xlink:href="#m935919a909" y="169.815462"/>
      </g>
     </g>
    </g>
    <g id="ytick_20">
     <g id="line2d_25">
      <g>
       <use style="stroke:#000000;stroke-width:0.6;" x="37.7" xlink:href="#m935919a909" y="147.626808"/>
      </g>
     </g>
    </g>
    <g id="ytick_21">
     <g id="line2d_26">
      <g>
       <use style="stroke:#000000;stroke-width:0.6;" x="37.7" xlink:href="#m935919a909" y="136.359885"/>
      </g>
     </g>
    </g>
    <g id="ytick_22">
     <g id="line2d_27">
      <g>
       <use style="stroke:#000000;stroke-width:0.6;" x="37.7" xlink:href="#m935919a909" y="128.365876"/>
      </g>
     </g>
    </g>
    <g id="ytick_23">
     <g id="line2d_28">
      <g>
       <use style="stroke:#000000;stroke-width:0.6;" x="37.7" xlink:href="#m935919a909" y="122.165241"/>
      </g>
     </g>
    </g>
    <g id="ytick_24">
     <g id="line2d_29">
      <g>
       <use style="stroke:#000000;stroke-width:0.6;" x="37.7" xlink:href="#m935919a909" y="117.098953"/>
      </g>
     </g>
    </g>
    <g id="ytick_25">
     <g id="line2d_30">
      <g>
       <use style="stroke:#000000;stroke-width:0.6;" x="37.7" xlink:href="#m935919a909" y="112.815468"/>
      </g>
     </g>
    </g>
    <g id="ytick_26">
     <g id="line2d_31">
      <g>
       <use style="stroke:#000000;stroke-width:0.6;" x="37.7" xlink:href="#m935919a909" y="109.104944"/>
      </g>
     </g>
    </g>
    <g id="ytick_27">
     <g id="line2d_32">
      <g>
       <use style="stroke:#000000;stroke-width:0.6;" x="37.7" xlink:href="#m935919a909" y="105.83203"/>
      </g>
     </g>
    </g>
    <g id="ytick_28">
     <g id="line2d_33">
      <g>
       <use style="stroke:#000000;stroke-width:0.6;" x="37.7" xlink:href="#m935919a909" y="83.643376"/>
      </g>
     </g>
    </g>
    <g id="ytick_29">
     <g id="line2d_34">
      <g>
       <use style="stroke:#000000;stroke-width:0.6;" x="37.7" xlink:href="#m935919a909" y="72.376453"/>
      </g>
     </g>
    </g>
    <g id="ytick_30">
     <g id="line2d_35">
      <g>
       <use style="stroke:#000000;stroke-width:0.6;" x="37.7" xlink:href="#m935919a909" y="64.382444"/>
      </g>
     </g>
    </g>
    <g id="ytick_31">
     <g id="line2d_36">
      <g>
       <use style="stroke:#000000;stroke-width:0.6;" x="37.7" xlink:href="#m935919a909" y="58.181809"/>
      </g>
     </g>
    </g>
    <g id="ytick_32">
     <g id="line2d_37">
      <g>
       <use style="stroke:#000000;stroke-width:0.6;" x="37.7" xlink:href="#m935919a909" y="53.115521"/>
      </g>
     </g>
    </g>
    <g id="ytick_33">
     <g id="line2d_38">
      <g>
       <use style="stroke:#000000;stroke-width:0.6;" x="37.7" xlink:href="#m935919a909" y="48.832036"/>
      </g>
     </g>
    </g>
    <g id="ytick_34">
     <g id="line2d_39">
      <g>
       <use style="stroke:#000000;stroke-width:0.6;" x="37.7" xlink:href="#m935919a909" y="45.121512"/>
      </g>
     </g>
    </g>
    <g id="ytick_35">
     <g id="line2d_40">
      <g>
       <use style="stroke:#000000;stroke-width:0.6;" x="37.7" xlink:href="#m935919a909" y="41.848598"/>
      </g>
     </g>
    </g>
    <g id="ytick_36">
     <g id="line2d_41">
      <g>
       <use style="stroke:#000000;stroke-width:0.6;" x="37.7" xlink:href="#m935919a909" y="19.659944"/>
      </g>
     </g>
    </g>
    <g id="ytick_37">
     <g id="line2d_42">
      <g>
       <use style="stroke:#000000;stroke-width:0.6;" x="37.7" xlink:href="#m935919a909" y="8.393021"/>
      </g>
     </g>
    </g>
   </g>
   <g id="line2d_43">
    <path clip-path="url(#pba6cab0b55)" d="M 53.932727 44.043617 
L 54.715027 99.975805 
L 55.497327 41.635851 
L 56.279628 79.847128 
L 57.061928 31.445356 
L 57.844228 37.320611 
L 58.626528 54.424837 
L 59.408828 51.026526 
L 60.191128 127.96259 
L 60.973428 63.913976 
L 61.755728 73.99618 
L 62.538028 34.825511 
L 63.320329 60.070296 
L 64.102629 70.250866 
L 64.884929 37.304626 
L 65.667229 56.309566 
L 66.449529 54.960521 
L 67.231829 77.641452 
L 68.014129 37.234596 
L 68.796429 72.46576 
L 69.578729 56.095333 
L 70.36103 53.451937 
L 71.14333 64.440086 
L 71.92563 106.492915 
L 72.70793 95.358853 
L 73.49023 26.222489 
L 74.27253 71.262852 
L 75.05483 87.897666 
L 75.83713 96.887049 
L 76.61943 42.912021 
L 77.401731 89.960311 
L 78.184031 52.71032 
L 78.966331 43.816427 
L 79.748631 71.128109 
L 80.530931 27.939748 
L 81.313231 65.013216 
L 82.095531 89.531788 
L 82.877831 68.400143 
L 83.660131 27.432686 
L 84.442432 58.116641 
L 85.224732 63.287197 
L 86.007032 70.500398 
L 86.789332 28.087759 
L 87.571632 95.125421 
L 88.353932 179.064364 
L 89.136232 20.048969 
L 89.918532 54.859323 
L 90.700832 48.15505 
L 91.483133 75.779559 
L 92.265433 29.829933 
L 93.047733 50.325432 
L 93.830033 96.735433 
L 94.612333 52.645856 
L 95.394633 44.956815 
L 96.176933 92.756648 
L 96.959233 51.403979 
L 97.741533 58.390378 
L 98.523834 19.591851 
L 99.306134 75.434249 
L 100.088434 29.704244 
L 100.870734 50.290741 
L 101.653034 60.554575 
L 102.435334 78.847157 
L 103.217634 85.885742 
L 103.999934 34.507224 
L 104.782234 74.353418 
L 105.564535 29.983992 
L 106.346835 42.788965 
L 107.911435 74.600424 
L 108.693735 29.615185 
L 109.476035 50.04955 
L 110.258335 61.679453 
L 111.040635 24.871029 
L 111.822935 90.213539 
L 112.605235 35.160753 
L 113.387536 25.258882 
L 114.169836 58.366623 
L 114.952136 58.417416 
L 115.734436 152.991888 
L 116.516736 72.377964 
L 117.299036 40.682875 
L 118.081336 60.378299 
L 118.863636 20.970286 
L 119.645936 60.999966 
L 120.428237 73.906137 
L 121.210537 78.438333 
L 121.992837 30.846764 
L 122.775137 38.729108 
L 124.339737 86.798127 
L 125.122037 113.404395 
L 125.904337 72.418811 
L 126.686637 141.723346 
L 127.468938 60.950946 
L 128.251238 66.178352 
L 129.033538 54.28813 
L 129.815838 49.977235 
L 130.598138 62.818773 
L 132.162738 131.162605 
L 132.945038 20.312745 
L 133.727338 59.28478 
L 134.509639 60.886686 
L 135.291939 90.741746 
L 136.074239 111.159949 
L 136.856539 71.793463 
L 137.638839 156.138113 
L 138.421139 65.207086 
L 139.203439 45.069792 
L 139.985739 56.930523 
L 140.768039 50.053568 
L 141.55034 27.616289 
L 142.33264 61.163823 
L 143.11494 71.906802 
L 143.89724 35.356423 
L 144.67954 26.477264 
L 145.46184 69.110162 
L 146.24414 207.465167 
L 147.02644 79.898992 
L 147.80874 92.842012 
L 148.591041 42.831709 
L 149.373341 61.011252 
L 150.155641 21.829085 
L 150.937941 80.490251 
L 151.720241 32.011328 
L 152.502541 95.202127 
L 153.284841 53.692102 
L 154.067141 58.527261 
L 154.849441 74.687277 
L 155.631742 87.456377 
L 156.414042 38.120526 
L 157.196342 57.98292 
L 158.760942 76.822923 
L 159.543242 30.590185 
L 160.325542 68.584249 
L 161.107842 261.216 
L 161.890142 57.782231 
L 162.672442 57.556925 
L 163.454743 54.289516 
L 164.237043 89.089834 
L 165.019343 35.364839 
L 165.801643 21.89709 
L 166.583943 53.557073 
L 167.366243 45.370915 
L 168.148543 71.055311 
L 168.930843 28.603363 
L 169.713143 70.647334 
L 170.495444 83.402428 
L 171.277744 61.331004 
L 172.060044 63.048342 
L 172.842344 79.522893 
L 173.624644 100.57972 
L 174.406944 24.483815 
L 175.189244 56.328186 
L 175.971544 61.303525 
L 176.753844 82.957109 
L 177.536145 218.91187 
L 178.318445 20.317102 
L 179.100745 55.64578 
L 179.883045 54.073906 
L 180.665345 65.013242 
L 181.447645 26.538881 
L 182.229945 134.077217 
L 183.012245 49.42509 
L 183.794545 70.448703 
L 184.576846 117.904398 
L 185.359146 22.041441 
L 186.141446 74.036482 
L 186.923746 29.056599 
L 187.706046 64.890426 
L 188.488346 68.355333 
L 189.270646 27.254989 
L 190.052946 149.357444 
L 190.835246 55.378108 
L 191.617547 21.301208 
L 192.399847 54.565229 
L 193.182147 52.502927 
L 193.964447 64.869115 
L 194.746747 25.854792 
L 195.529047 102.083693 
L 196.311347 40.943259 
L 197.093647 120.962904 
L 198.658248 28.780075 
L 199.440548 62.127194 
L 200.222848 136.324837 
L 201.005148 73.058836 
L 201.787448 29.027437 
L 203.352048 101.53352 
L 204.134348 130.289828 
L 204.916648 51.147567 
L 205.698949 26.486389 
L 206.481249 55.163248 
L 207.263549 49.712127 
L 208.045849 79.404002 
L 208.828149 31.200373 
L 209.610449 36.361957 
L 210.392749 69.390822 
L 211.175049 206.939131 
L 211.957349 77.662176 
L 212.73965 83.148027 
L 213.52195 33.372481 
L 214.30425 71.939105 
L 215.08655 116.719529 
L 215.86885 45.755381 
L 216.65115 37.844685 
L 218.21575 74.087928 
L 218.99805 112.889266 
L 219.78035 46.272375 
L 220.562651 70.385548 
L 221.344951 173.616607 
L 222.127251 65.970904 
L 222.909551 44.853624 
L 223.691851 49.592062 
L 224.474151 77.164613 
L 225.256451 62.429338 
L 226.038751 21.300761 
L 226.821051 53.003613 
L 227.603352 45.169229 
L 228.385652 78.376854 
L 229.167952 82.441778 
L 229.950252 102.514624 
L 230.732552 45.830714 
L 231.514852 116.307421 
L 232.297152 66.591839 
L 233.079452 80.400203 
L 233.861752 30.807853 
L 234.644053 59.416945 
L 235.426353 20.194907 
L 236.208653 75.194096 
L 236.990953 105.061975 
L 237.773253 41.473814 
L 238.555553 115.524947 
L 239.337853 66.719996 
L 240.120153 84.019154 
L 240.902453 65.465797 
L 241.684754 26.004166 
L 242.467054 63.98951 
L 243.249354 87.964025 
L 244.031654 94.193108 
L 244.813954 37.117043 
L 245.596254 20.984056 
L 246.378554 63.941368 
L 247.160854 89.667899 
L 247.943154 95.047611 
L 248.725455 37.280806 
L 249.507755 19.296 
L 250.290055 63.759533 
L 251.072355 95.232796 
L 251.854655 150.66459 
L 252.636955 80.060621 
L 253.419255 143.189555 
L 254.201555 113.059023 
L 254.983855 42.361323 
L 256.548456 85.015854 
L 257.330756 87.148959 
L 258.113056 33.801264 
L 258.895356 27.566202 
L 259.677656 60.690145 
L 260.459956 78.067031 
L 261.242256 87.954166 
L 262.024556 36.655602 
L 262.806857 62.925649 
L 263.589157 93.634295 
L 264.371457 164.423876 
L 265.153757 74.651192 
L 265.936057 29.153353 
L 266.718357 58.341299 
L 267.500657 59.502754 
L 268.282957 77.231933 
L 269.065257 34.101806 
L 269.847558 56.942031 
L 270.629858 74.710569 
L 271.412158 29.184033 
L 272.194458 60.570173 
L 272.976758 65.351305 
L 273.759058 118.314545 
L 274.541358 83.230312 
L 275.323658 29.464982 
L 276.105958 57.755022 
L 276.888258 63.19681 
L 277.670559 70.807612 
L 278.452859 28.035938 
L 279.235159 96.864058 
L 280.017459 103.443789 
L 280.799759 47.013138 
L 281.582059 80.964442 
L 282.364359 79.714608 
L 283.146659 109.121678 
L 283.928959 50.272614 
L 284.71126 62.737215 
L 285.49356 94.70758 
L 286.27586 164.778807 
L 287.05816 71.368932 
L 287.84046 28.550793 
L 288.62276 72.107767 
L 289.40506 97.428355 
L 290.18736 59.797651 
L 290.96966 60.670017 
L 291.751961 22.039606 
L 292.534261 79.630458 
L 293.316561 31.379949 
L 294.098861 68.777907 
L 294.881161 137.173715 
L 295.663461 80.982625 
L 296.445761 81.317847 
L 297.228061 32.295311 
L 298.010361 30.627945 
L 298.792662 58.269439 
L 299.574962 73.869516 
L 300.357262 29.623284 
L 301.139562 46.722031 
L 301.921862 60.806616 
L 302.704162 21.753641 
L 303.486462 78.039132 
L 304.268762 30.541604 
L 305.051062 40.448347 
L 305.833363 55.242484 
L 307.397963 35.590948 
L 308.180263 60.020138 
L 308.962563 77.689441 
L 309.744863 88.248538 
L 310.527163 37.233328 
L 311.309463 64.706438 
L 312.091763 25.587593 
L 312.874064 104.94669 
L 313.656364 46.432359 
L 314.438664 96.462314 
L 315.220964 56.634838 
L 316.003264 59.820833 
L 316.785564 21.225942 
L 317.567864 77.081538 
L 318.350164 30.20614 
L 319.132464 42.626571 
L 319.914765 93.12618 
L 320.697065 82.293941 
L 321.479365 32.880119 
L 322.261665 29.457253 
L 323.043965 56.145392 
L 323.826265 56.064698 
L 324.608565 71.461194 
L 325.390865 49.157106 
L 326.173165 56.874012 
L 326.955465 74.739074 
L 327.737766 29.498923 
L 328.520066 53.759306 
L 329.302366 62.931995 
L 330.084666 25.452042 
L 330.866966 95.694232 
L 331.649266 37.322088 
L 332.431566 19.539556 
L 333.213866 56.471066 
L 333.996166 51.475876 
L 334.778467 80.592201 
L 335.560767 92.068535 
L 336.343067 36.544684 
L 337.125367 78.374174 
L 337.907667 96.896765 
L 338.689967 39.208095 
L 339.472267 101.103158 
L 340.254567 41.023762 
L 341.036867 107.124207 
L 341.819168 75.78304 
L 342.601468 30.14198 
L 343.383768 67.274285 
L 344.166068 112.543878 
L 344.948368 121.001673 
L 345.730668 93.452117 
L 346.512968 26.850872 
L 347.295268 88.097049 
L 348.077568 35.027339 
L 348.859869 23.816684 
L 349.642169 57.64429 
L 350.424469 60.745269 
L 351.206769 68.401889 
L 351.989069 183.732284 
L 352.771369 57.935071 
L 353.553669 66.270892 
L 354.335969 117.000532 
L 355.118269 88.898523 
L 355.90057 27.467502 
L 356.68287 62.449397 
L 357.46517 76.685589 
L 358.24747 31.826618 
L 359.02977 33.96817 
L 359.81207 63.78995 
L 360.59437 82.3273 
L 361.37667 29.443269 
L 362.15897 64.492029 
L 362.941271 93.867743 
L 363.723571 105.689672 
L 364.505871 42.594921 
L 365.288171 78.492965 
L 366.070471 145.114363 
L 366.852771 64.301754 
L 368.417371 122.869815 
L 369.199671 21.049018 
L 369.981972 55.056333 
L 370.764272 49.353212 
L 371.546572 80.092633 
L 372.328872 31.651009 
L 373.111172 68.56693 
L 373.893472 127.658365 
L 374.675772 93.466343 
L 375.458072 105.580036 
L 376.240372 45.588242 
L 377.022673 69.383928 
L 377.025633 311.86825 
L 377.025633 311.86825 
" style="fill:none;stroke:#1f77b4;stroke-linecap:square;stroke-width:1.5;"/>
    <defs>
     <path d="M 0 3 
C 0.795609 3 1.55874 2.683901 2.12132 2.12132 
C 2.683901 1.55874 3 0.795609 3 0 
C 3 -0.795609 2.683901 -1.55874 2.12132 -2.12132 
C 1.55874 -2.683901 0.795609 -3 0 -3 
C -0.795609 -3 -1.55874 -2.683901 -2.12132 -2.12132 
C -2.683901 -1.55874 -3 -0.795609 -3 0 
C -3 0.795609 -2.683901 1.55874 -2.12132 2.12132 
C -1.55874 2.683901 -0.795609 3 0 3 
z
" id="m8ba8abf5f9" style="stroke:#1f77b4;"/>
    </defs>
    <g clip-path="url(#pba6cab0b55)">
     <use style="fill:#1f77b4;stroke:#1f77b4;" x="53.932727" xlink:href="#m8ba8abf5f9" y="44.043617"/>
     <use style="fill:#1f77b4;stroke:#1f77b4;" x="54.715027" xlink:href="#m8ba8abf5f9" y="99.975805"/>
     <use style="fill:#1f77b4;stroke:#1f77b4;" x="55.497327" xlink:href="#m8ba8abf5f9" y="41.635851"/>
     <use style="fill:#1f77b4;stroke:#1f77b4;" x="56.279628" xlink:href="#m8ba8abf5f9" y="79.847128"/>
     <use style="fill:#1f77b4;stroke:#1f77b4;" x="57.061928" xlink:href="#m8ba8abf5f9" y="31.445356"/>
     <use style="fill:#1f77b4;stroke:#1f77b4;" x="57.844228" xlink:href="#m8ba8abf5f9" y="37.320611"/>
     <use style="fill:#1f77b4;stroke:#1f77b4;" x="58.626528" xlink:href="#m8ba8abf5f9" y="54.424837"/>
     <use style="fill:#1f77b4;stroke:#1f77b4;" x="59.408828" xlink:href="#m8ba8abf5f9" y="51.026526"/>
     <use style="fill:#1f77b4;stroke:#1f77b4;" x="60.191128" xlink:href="#m8ba8abf5f9" y="127.96259"/>
     <use style="fill:#1f77b4;stroke:#1f77b4;" x="60.973428" xlink:href="#m8ba8abf5f9" y="63.913976"/>
     <use style="fill:#1f77b4;stroke:#1f77b4;" x="61.755728" xlink:href="#m8ba8abf5f9" y="73.99618"/>
     <use style="fill:#1f77b4;stroke:#1f77b4;" x="62.538028" xlink:href="#m8ba8abf5f9" y="34.825511"/>
     <use style="fill:#1f77b4;stroke:#1f77b4;" x="63.320329" xlink:href="#m8ba8abf5f9" y="60.070296"/>
     <use style="fill:#1f77b4;stroke:#1f77b4;" x="64.102629" xlink:href="#m8ba8abf5f9" y="70.250866"/>
     <use style="fill:#1f77b4;stroke:#1f77b4;" x="64.884929" xlink:href="#m8ba8abf5f9" y="37.304626"/>
     <use style="fill:#1f77b4;stroke:#1f77b4;" x="65.667229" xlink:href="#m8ba8abf5f9" y="56.309566"/>
     <use style="fill:#1f77b4;stroke:#1f77b4;" x="66.449529" xlink:href="#m8ba8abf5f9" y="54.960521"/>
     <use style="fill:#1f77b4;stroke:#1f77b4;" x="67.231829" xlink:href="#m8ba8abf5f9" y="77.641452"/>
     <use style="fill:#1f77b4;stroke:#1f77b4;" x="68.014129" xlink:href="#m8ba8abf5f9" y="37.234596"/>
     <use style="fill:#1f77b4;stroke:#1f77b4;" x="68.796429" xlink:href="#m8ba8abf5f9" y="72.46576"/>
     <use style="fill:#1f77b4;stroke:#1f77b4;" x="69.578729" xlink:href="#m8ba8abf5f9" y="56.095333"/>
     <use style="fill:#1f77b4;stroke:#1f77b4;" x="70.36103" xlink:href="#m8ba8abf5f9" y="53.451937"/>
     <use style="fill:#1f77b4;stroke:#1f77b4;" x="71.14333" xlink:href="#m8ba8abf5f9" y="64.440086"/>
     <use style="fill:#1f77b4;stroke:#1f77b4;" x="71.92563" xlink:href="#m8ba8abf5f9" y="106.492915"/>
     <use style="fill:#1f77b4;stroke:#1f77b4;" x="72.70793" xlink:href="#m8ba8abf5f9" y="95.358853"/>
     <use style="fill:#1f77b4;stroke:#1f77b4;" x="73.49023" xlink:href="#m8ba8abf5f9" y="26.222489"/>
     <use style="fill:#1f77b4;stroke:#1f77b4;" x="74.27253" xlink:href="#m8ba8abf5f9" y="71.262852"/>
     <use style="fill:#1f77b4;stroke:#1f77b4;" x="75.05483" xlink:href="#m8ba8abf5f9" y="87.897666"/>
     <use style="fill:#1f77b4;stroke:#1f77b4;" x="75.83713" xlink:href="#m8ba8abf5f9" y="96.887049"/>
     <use style="fill:#1f77b4;stroke:#1f77b4;" x="76.61943" xlink:href="#m8ba8abf5f9" y="42.912021"/>
     <use style="fill:#1f77b4;stroke:#1f77b4;" x="77.401731" xlink:href="#m8ba8abf5f9" y="89.960311"/>
     <use style="fill:#1f77b4;stroke:#1f77b4;" x="78.184031" xlink:href="#m8ba8abf5f9" y="52.71032"/>
     <use style="fill:#1f77b4;stroke:#1f77b4;" x="78.966331" xlink:href="#m8ba8abf5f9" y="43.816427"/>
     <use style="fill:#1f77b4;stroke:#1f77b4;" x="79.748631" xlink:href="#m8ba8abf5f9" y="71.128109"/>
     <use style="fill:#1f77b4;stroke:#1f77b4;" x="80.530931" xlink:href="#m8ba8abf5f9" y="27.939748"/>
     <use style="fill:#1f77b4;stroke:#1f77b4;" x="81.313231" xlink:href="#m8ba8abf5f9" y="65.013216"/>
     <use style="fill:#1f77b4;stroke:#1f77b4;" x="82.095531" xlink:href="#m8ba8abf5f9" y="89.531788"/>
     <use style="fill:#1f77b4;stroke:#1f77b4;" x="82.877831" xlink:href="#m8ba8abf5f9" y="68.400143"/>
     <use style="fill:#1f77b4;stroke:#1f77b4;" x="83.660131" xlink:href="#m8ba8abf5f9" y="27.432686"/>
     <use style="fill:#1f77b4;stroke:#1f77b4;" x="84.442432" xlink:href="#m8ba8abf5f9" y="58.116641"/>
     <use style="fill:#1f77b4;stroke:#1f77b4;" x="85.224732" xlink:href="#m8ba8abf5f9" y="63.287197"/>
     <use style="fill:#1f77b4;stroke:#1f77b4;" x="86.007032" xlink:href="#m8ba8abf5f9" y="70.500398"/>
     <use style="fill:#1f77b4;stroke:#1f77b4;" x="86.789332" xlink:href="#m8ba8abf5f9" y="28.087759"/>
     <use style="fill:#1f77b4;stroke:#1f77b4;" x="87.571632" xlink:href="#m8ba8abf5f9" y="95.125421"/>
     <use style="fill:#1f77b4;stroke:#1f77b4;" x="88.353932" xlink:href="#m8ba8abf5f9" y="179.064364"/>
     <use style="fill:#1f77b4;stroke:#1f77b4;" x="89.136232" xlink:href="#m8ba8abf5f9" y="20.048969"/>
     <use style="fill:#1f77b4;stroke:#1f77b4;" x="89.918532" xlink:href="#m8ba8abf5f9" y="54.859323"/>
     <use style="fill:#1f77b4;stroke:#1f77b4;" x="90.700832" xlink:href="#m8ba8abf5f9" y="48.15505"/>
     <use style="fill:#1f77b4;stroke:#1f77b4;" x="91.483133" xlink:href="#m8ba8abf5f9" y="75.779559"/>
     <use style="fill:#1f77b4;stroke:#1f77b4;" x="92.265433" xlink:href="#m8ba8abf5f9" y="29.829933"/>
     <use style="fill:#1f77b4;stroke:#1f77b4;" x="93.047733" xlink:href="#m8ba8abf5f9" y="50.325432"/>
     <use style="fill:#1f77b4;stroke:#1f77b4;" x="93.830033" xlink:href="#m8ba8abf5f9" y="96.735433"/>
     <use style="fill:#1f77b4;stroke:#1f77b4;" x="94.612333" xlink:href="#m8ba8abf5f9" y="52.645856"/>
     <use style="fill:#1f77b4;stroke:#1f77b4;" x="95.394633" xlink:href="#m8ba8abf5f9" y="44.956815"/>
     <use style="fill:#1f77b4;stroke:#1f77b4;" x="96.176933" xlink:href="#m8ba8abf5f9" y="92.756648"/>
     <use style="fill:#1f77b4;stroke:#1f77b4;" x="96.959233" xlink:href="#m8ba8abf5f9" y="51.403979"/>
     <use style="fill:#1f77b4;stroke:#1f77b4;" x="97.741533" xlink:href="#m8ba8abf5f9" y="58.390378"/>
     <use style="fill:#1f77b4;stroke:#1f77b4;" x="98.523834" xlink:href="#m8ba8abf5f9" y="19.591851"/>
     <use style="fill:#1f77b4;stroke:#1f77b4;" x="99.306134" xlink:href="#m8ba8abf5f9" y="75.434249"/>
     <use style="fill:#1f77b4;stroke:#1f77b4;" x="100.088434" xlink:href="#m8ba8abf5f9" y="29.704244"/>
     <use style="fill:#1f77b4;stroke:#1f77b4;" x="100.870734" xlink:href="#m8ba8abf5f9" y="50.290741"/>
     <use style="fill:#1f77b4;stroke:#1f77b4;" x="101.653034" xlink:href="#m8ba8abf5f9" y="60.554575"/>
     <use style="fill:#1f77b4;stroke:#1f77b4;" x="102.435334" xlink:href="#m8ba8abf5f9" y="78.847157"/>
     <use style="fill:#1f77b4;stroke:#1f77b4;" x="103.217634" xlink:href="#m8ba8abf5f9" y="85.885742"/>
     <use style="fill:#1f77b4;stroke:#1f77b4;" x="103.999934" xlink:href="#m8ba8abf5f9" y="34.507224"/>
     <use style="fill:#1f77b4;stroke:#1f77b4;" x="104.782234" xlink:href="#m8ba8abf5f9" y="74.353418"/>
     <use style="fill:#1f77b4;stroke:#1f77b4;" x="105.564535" xlink:href="#m8ba8abf5f9" y="29.983992"/>
     <use style="fill:#1f77b4;stroke:#1f77b4;" x="106.346835" xlink:href="#m8ba8abf5f9" y="42.788965"/>
     <use style="fill:#1f77b4;stroke:#1f77b4;" x="107.129135" xlink:href="#m8ba8abf5f9" y="58.655929"/>
     <use style="fill:#1f77b4;stroke:#1f77b4;" x="107.911435" xlink:href="#m8ba8abf5f9" y="74.600424"/>
     <use style="fill:#1f77b4;stroke:#1f77b4;" x="108.693735" xlink:href="#m8ba8abf5f9" y="29.615185"/>
     <use style="fill:#1f77b4;stroke:#1f77b4;" x="109.476035" xlink:href="#m8ba8abf5f9" y="50.04955"/>
     <use style="fill:#1f77b4;stroke:#1f77b4;" x="110.258335" xlink:href="#m8ba8abf5f9" y="61.679453"/>
     <use style="fill:#1f77b4;stroke:#1f77b4;" x="111.040635" xlink:href="#m8ba8abf5f9" y="24.871029"/>
     <use style="fill:#1f77b4;stroke:#1f77b4;" x="111.822935" xlink:href="#m8ba8abf5f9" y="90.213539"/>
     <use style="fill:#1f77b4;stroke:#1f77b4;" x="112.605235" xlink:href="#m8ba8abf5f9" y="35.160753"/>
     <use style="fill:#1f77b4;stroke:#1f77b4;" x="113.387536" xlink:href="#m8ba8abf5f9" y="25.258882"/>
     <use style="fill:#1f77b4;stroke:#1f77b4;" x="114.169836" xlink:href="#m8ba8abf5f9" y="58.366623"/>
     <use style="fill:#1f77b4;stroke:#1f77b4;" x="114.952136" xlink:href="#m8ba8abf5f9" y="58.417416"/>
     <use style="fill:#1f77b4;stroke:#1f77b4;" x="115.734436" xlink:href="#m8ba8abf5f9" y="152.991888"/>
     <use style="fill:#1f77b4;stroke:#1f77b4;" x="116.516736" xlink:href="#m8ba8abf5f9" y="72.377964"/>
     <use style="fill:#1f77b4;stroke:#1f77b4;" x="117.299036" xlink:href="#m8ba8abf5f9" y="40.682875"/>
     <use style="fill:#1f77b4;stroke:#1f77b4;" x="118.081336" xlink:href="#m8ba8abf5f9" y="60.378299"/>
     <use style="fill:#1f77b4;stroke:#1f77b4;" x="118.863636" xlink:href="#m8ba8abf5f9" y="20.970286"/>
     <use style="fill:#1f77b4;stroke:#1f77b4;" x="119.645936" xlink:href="#m8ba8abf5f9" y="60.999966"/>
     <use style="fill:#1f77b4;stroke:#1f77b4;" x="120.428237" xlink:href="#m8ba8abf5f9" y="73.906137"/>
     <use style="fill:#1f77b4;stroke:#1f77b4;" x="121.210537" xlink:href="#m8ba8abf5f9" y="78.438333"/>
     <use style="fill:#1f77b4;stroke:#1f77b4;" x="121.992837" xlink:href="#m8ba8abf5f9" y="30.846764"/>
     <use style="fill:#1f77b4;stroke:#1f77b4;" x="122.775137" xlink:href="#m8ba8abf5f9" y="38.729108"/>
     <use style="fill:#1f77b4;stroke:#1f77b4;" x="123.557437" xlink:href="#m8ba8abf5f9" y="61.534823"/>
     <use style="fill:#1f77b4;stroke:#1f77b4;" x="124.339737" xlink:href="#m8ba8abf5f9" y="86.798127"/>
     <use style="fill:#1f77b4;stroke:#1f77b4;" x="125.122037" xlink:href="#m8ba8abf5f9" y="113.404395"/>
     <use style="fill:#1f77b4;stroke:#1f77b4;" x="125.904337" xlink:href="#m8ba8abf5f9" y="72.418811"/>
     <use style="fill:#1f77b4;stroke:#1f77b4;" x="126.686637" xlink:href="#m8ba8abf5f9" y="141.723346"/>
     <use style="fill:#1f77b4;stroke:#1f77b4;" x="127.468938" xlink:href="#m8ba8abf5f9" y="60.950946"/>
     <use style="fill:#1f77b4;stroke:#1f77b4;" x="128.251238" xlink:href="#m8ba8abf5f9" y="66.178352"/>
     <use style="fill:#1f77b4;stroke:#1f77b4;" x="129.033538" xlink:href="#m8ba8abf5f9" y="54.28813"/>
     <use style="fill:#1f77b4;stroke:#1f77b4;" x="129.815838" xlink:href="#m8ba8abf5f9" y="49.977235"/>
     <use style="fill:#1f77b4;stroke:#1f77b4;" x="130.598138" xlink:href="#m8ba8abf5f9" y="62.818773"/>
     <use style="fill:#1f77b4;stroke:#1f77b4;" x="131.380438" xlink:href="#m8ba8abf5f9" y="95.991375"/>
     <use style="fill:#1f77b4;stroke:#1f77b4;" x="132.162738" xlink:href="#m8ba8abf5f9" y="131.162605"/>
     <use style="fill:#1f77b4;stroke:#1f77b4;" x="132.945038" xlink:href="#m8ba8abf5f9" y="20.312745"/>
     <use style="fill:#1f77b4;stroke:#1f77b4;" x="133.727338" xlink:href="#m8ba8abf5f9" y="59.28478"/>
     <use style="fill:#1f77b4;stroke:#1f77b4;" x="134.509639" xlink:href="#m8ba8abf5f9" y="60.886686"/>
     <use style="fill:#1f77b4;stroke:#1f77b4;" x="135.291939" xlink:href="#m8ba8abf5f9" y="90.741746"/>
     <use style="fill:#1f77b4;stroke:#1f77b4;" x="136.074239" xlink:href="#m8ba8abf5f9" y="111.159949"/>
     <use style="fill:#1f77b4;stroke:#1f77b4;" x="136.856539" xlink:href="#m8ba8abf5f9" y="71.793463"/>
     <use style="fill:#1f77b4;stroke:#1f77b4;" x="137.638839" xlink:href="#m8ba8abf5f9" y="156.138113"/>
     <use style="fill:#1f77b4;stroke:#1f77b4;" x="138.421139" xlink:href="#m8ba8abf5f9" y="65.207086"/>
     <use style="fill:#1f77b4;stroke:#1f77b4;" x="139.203439" xlink:href="#m8ba8abf5f9" y="45.069792"/>
     <use style="fill:#1f77b4;stroke:#1f77b4;" x="139.985739" xlink:href="#m8ba8abf5f9" y="56.930523"/>
     <use style="fill:#1f77b4;stroke:#1f77b4;" x="140.768039" xlink:href="#m8ba8abf5f9" y="50.053568"/>
     <use style="fill:#1f77b4;stroke:#1f77b4;" x="141.55034" xlink:href="#m8ba8abf5f9" y="27.616289"/>
     <use style="fill:#1f77b4;stroke:#1f77b4;" x="142.33264" xlink:href="#m8ba8abf5f9" y="61.163823"/>
     <use style="fill:#1f77b4;stroke:#1f77b4;" x="143.11494" xlink:href="#m8ba8abf5f9" y="71.906802"/>
     <use style="fill:#1f77b4;stroke:#1f77b4;" x="143.89724" xlink:href="#m8ba8abf5f9" y="35.356423"/>
     <use style="fill:#1f77b4;stroke:#1f77b4;" x="144.67954" xlink:href="#m8ba8abf5f9" y="26.477264"/>
     <use style="fill:#1f77b4;stroke:#1f77b4;" x="145.46184" xlink:href="#m8ba8abf5f9" y="69.110162"/>
     <use style="fill:#1f77b4;stroke:#1f77b4;" x="146.24414" xlink:href="#m8ba8abf5f9" y="207.465167"/>
     <use style="fill:#1f77b4;stroke:#1f77b4;" x="147.02644" xlink:href="#m8ba8abf5f9" y="79.898992"/>
     <use style="fill:#1f77b4;stroke:#1f77b4;" x="147.80874" xlink:href="#m8ba8abf5f9" y="92.842012"/>
     <use style="fill:#1f77b4;stroke:#1f77b4;" x="148.591041" xlink:href="#m8ba8abf5f9" y="42.831709"/>
     <use style="fill:#1f77b4;stroke:#1f77b4;" x="149.373341" xlink:href="#m8ba8abf5f9" y="61.011252"/>
     <use style="fill:#1f77b4;stroke:#1f77b4;" x="150.155641" xlink:href="#m8ba8abf5f9" y="21.829085"/>
     <use style="fill:#1f77b4;stroke:#1f77b4;" x="150.937941" xlink:href="#m8ba8abf5f9" y="80.490251"/>
     <use style="fill:#1f77b4;stroke:#1f77b4;" x="151.720241" xlink:href="#m8ba8abf5f9" y="32.011328"/>
     <use style="fill:#1f77b4;stroke:#1f77b4;" x="152.502541" xlink:href="#m8ba8abf5f9" y="95.202127"/>
     <use style="fill:#1f77b4;stroke:#1f77b4;" x="153.284841" xlink:href="#m8ba8abf5f9" y="53.692102"/>
     <use style="fill:#1f77b4;stroke:#1f77b4;" x="154.067141" xlink:href="#m8ba8abf5f9" y="58.527261"/>
     <use style="fill:#1f77b4;stroke:#1f77b4;" x="154.849441" xlink:href="#m8ba8abf5f9" y="74.687277"/>
     <use style="fill:#1f77b4;stroke:#1f77b4;" x="155.631742" xlink:href="#m8ba8abf5f9" y="87.456377"/>
     <use style="fill:#1f77b4;stroke:#1f77b4;" x="156.414042" xlink:href="#m8ba8abf5f9" y="38.120526"/>
     <use style="fill:#1f77b4;stroke:#1f77b4;" x="157.196342" xlink:href="#m8ba8abf5f9" y="57.98292"/>
     <use style="fill:#1f77b4;stroke:#1f77b4;" x="157.978642" xlink:href="#m8ba8abf5f9" y="68.088778"/>
     <use style="fill:#1f77b4;stroke:#1f77b4;" x="158.760942" xlink:href="#m8ba8abf5f9" y="76.822923"/>
     <use style="fill:#1f77b4;stroke:#1f77b4;" x="159.543242" xlink:href="#m8ba8abf5f9" y="30.590185"/>
     <use style="fill:#1f77b4;stroke:#1f77b4;" x="160.325542" xlink:href="#m8ba8abf5f9" y="68.584249"/>
     <use style="fill:#1f77b4;stroke:#1f77b4;" x="161.107842" xlink:href="#m8ba8abf5f9" y="261.216"/>
     <use style="fill:#1f77b4;stroke:#1f77b4;" x="161.890142" xlink:href="#m8ba8abf5f9" y="57.782231"/>
     <use style="fill:#1f77b4;stroke:#1f77b4;" x="162.672442" xlink:href="#m8ba8abf5f9" y="57.556925"/>
     <use style="fill:#1f77b4;stroke:#1f77b4;" x="163.454743" xlink:href="#m8ba8abf5f9" y="54.289516"/>
     <use style="fill:#1f77b4;stroke:#1f77b4;" x="164.237043" xlink:href="#m8ba8abf5f9" y="89.089834"/>
     <use style="fill:#1f77b4;stroke:#1f77b4;" x="165.019343" xlink:href="#m8ba8abf5f9" y="35.364839"/>
     <use style="fill:#1f77b4;stroke:#1f77b4;" x="165.801643" xlink:href="#m8ba8abf5f9" y="21.89709"/>
     <use style="fill:#1f77b4;stroke:#1f77b4;" x="166.583943" xlink:href="#m8ba8abf5f9" y="53.557073"/>
     <use style="fill:#1f77b4;stroke:#1f77b4;" x="167.366243" xlink:href="#m8ba8abf5f9" y="45.370915"/>
     <use style="fill:#1f77b4;stroke:#1f77b4;" x="168.148543" xlink:href="#m8ba8abf5f9" y="71.055311"/>
     <use style="fill:#1f77b4;stroke:#1f77b4;" x="168.930843" xlink:href="#m8ba8abf5f9" y="28.603363"/>
     <use style="fill:#1f77b4;stroke:#1f77b4;" x="169.713143" xlink:href="#m8ba8abf5f9" y="70.647334"/>
     <use style="fill:#1f77b4;stroke:#1f77b4;" x="170.495444" xlink:href="#m8ba8abf5f9" y="83.402428"/>
     <use style="fill:#1f77b4;stroke:#1f77b4;" x="171.277744" xlink:href="#m8ba8abf5f9" y="61.331004"/>
     <use style="fill:#1f77b4;stroke:#1f77b4;" x="172.060044" xlink:href="#m8ba8abf5f9" y="63.048342"/>
     <use style="fill:#1f77b4;stroke:#1f77b4;" x="172.842344" xlink:href="#m8ba8abf5f9" y="79.522893"/>
     <use style="fill:#1f77b4;stroke:#1f77b4;" x="173.624644" xlink:href="#m8ba8abf5f9" y="100.57972"/>
     <use style="fill:#1f77b4;stroke:#1f77b4;" x="174.406944" xlink:href="#m8ba8abf5f9" y="24.483815"/>
     <use style="fill:#1f77b4;stroke:#1f77b4;" x="175.189244" xlink:href="#m8ba8abf5f9" y="56.328186"/>
     <use style="fill:#1f77b4;stroke:#1f77b4;" x="175.971544" xlink:href="#m8ba8abf5f9" y="61.303525"/>
     <use style="fill:#1f77b4;stroke:#1f77b4;" x="176.753844" xlink:href="#m8ba8abf5f9" y="82.957109"/>
     <use style="fill:#1f77b4;stroke:#1f77b4;" x="177.536145" xlink:href="#m8ba8abf5f9" y="218.91187"/>
     <use style="fill:#1f77b4;stroke:#1f77b4;" x="178.318445" xlink:href="#m8ba8abf5f9" y="20.317102"/>
     <use style="fill:#1f77b4;stroke:#1f77b4;" x="179.100745" xlink:href="#m8ba8abf5f9" y="55.64578"/>
     <use style="fill:#1f77b4;stroke:#1f77b4;" x="179.883045" xlink:href="#m8ba8abf5f9" y="54.073906"/>
     <use style="fill:#1f77b4;stroke:#1f77b4;" x="180.665345" xlink:href="#m8ba8abf5f9" y="65.013242"/>
     <use style="fill:#1f77b4;stroke:#1f77b4;" x="181.447645" xlink:href="#m8ba8abf5f9" y="26.538881"/>
     <use style="fill:#1f77b4;stroke:#1f77b4;" x="182.229945" xlink:href="#m8ba8abf5f9" y="134.077217"/>
     <use style="fill:#1f77b4;stroke:#1f77b4;" x="183.012245" xlink:href="#m8ba8abf5f9" y="49.42509"/>
     <use style="fill:#1f77b4;stroke:#1f77b4;" x="183.794545" xlink:href="#m8ba8abf5f9" y="70.448703"/>
     <use style="fill:#1f77b4;stroke:#1f77b4;" x="184.576846" xlink:href="#m8ba8abf5f9" y="117.904398"/>
     <use style="fill:#1f77b4;stroke:#1f77b4;" x="185.359146" xlink:href="#m8ba8abf5f9" y="22.041441"/>
     <use style="fill:#1f77b4;stroke:#1f77b4;" x="186.141446" xlink:href="#m8ba8abf5f9" y="74.036482"/>
     <use style="fill:#1f77b4;stroke:#1f77b4;" x="186.923746" xlink:href="#m8ba8abf5f9" y="29.056599"/>
     <use style="fill:#1f77b4;stroke:#1f77b4;" x="187.706046" xlink:href="#m8ba8abf5f9" y="64.890426"/>
     <use style="fill:#1f77b4;stroke:#1f77b4;" x="188.488346" xlink:href="#m8ba8abf5f9" y="68.355333"/>
     <use style="fill:#1f77b4;stroke:#1f77b4;" x="189.270646" xlink:href="#m8ba8abf5f9" y="27.254989"/>
     <use style="fill:#1f77b4;stroke:#1f77b4;" x="190.052946" xlink:href="#m8ba8abf5f9" y="149.357444"/>
     <use style="fill:#1f77b4;stroke:#1f77b4;" x="190.835246" xlink:href="#m8ba8abf5f9" y="55.378108"/>
     <use style="fill:#1f77b4;stroke:#1f77b4;" x="191.617547" xlink:href="#m8ba8abf5f9" y="21.301208"/>
     <use style="fill:#1f77b4;stroke:#1f77b4;" x="192.399847" xlink:href="#m8ba8abf5f9" y="54.565229"/>
     <use style="fill:#1f77b4;stroke:#1f77b4;" x="193.182147" xlink:href="#m8ba8abf5f9" y="52.502927"/>
     <use style="fill:#1f77b4;stroke:#1f77b4;" x="193.964447" xlink:href="#m8ba8abf5f9" y="64.869115"/>
     <use style="fill:#1f77b4;stroke:#1f77b4;" x="194.746747" xlink:href="#m8ba8abf5f9" y="25.854792"/>
     <use style="fill:#1f77b4;stroke:#1f77b4;" x="195.529047" xlink:href="#m8ba8abf5f9" y="102.083693"/>
     <use style="fill:#1f77b4;stroke:#1f77b4;" x="196.311347" xlink:href="#m8ba8abf5f9" y="40.943259"/>
     <use style="fill:#1f77b4;stroke:#1f77b4;" x="197.093647" xlink:href="#m8ba8abf5f9" y="120.962904"/>
     <use style="fill:#1f77b4;stroke:#1f77b4;" x="197.875947" xlink:href="#m8ba8abf5f9" y="72.762995"/>
     <use style="fill:#1f77b4;stroke:#1f77b4;" x="198.658248" xlink:href="#m8ba8abf5f9" y="28.780075"/>
     <use style="fill:#1f77b4;stroke:#1f77b4;" x="199.440548" xlink:href="#m8ba8abf5f9" y="62.127194"/>
     <use style="fill:#1f77b4;stroke:#1f77b4;" x="200.222848" xlink:href="#m8ba8abf5f9" y="136.324837"/>
     <use style="fill:#1f77b4;stroke:#1f77b4;" x="201.005148" xlink:href="#m8ba8abf5f9" y="73.058836"/>
     <use style="fill:#1f77b4;stroke:#1f77b4;" x="201.787448" xlink:href="#m8ba8abf5f9" y="29.027437"/>
     <use style="fill:#1f77b4;stroke:#1f77b4;" x="202.569748" xlink:href="#m8ba8abf5f9" y="66.217121"/>
     <use style="fill:#1f77b4;stroke:#1f77b4;" x="203.352048" xlink:href="#m8ba8abf5f9" y="101.53352"/>
     <use style="fill:#1f77b4;stroke:#1f77b4;" x="204.134348" xlink:href="#m8ba8abf5f9" y="130.289828"/>
     <use style="fill:#1f77b4;stroke:#1f77b4;" x="204.916648" xlink:href="#m8ba8abf5f9" y="51.147567"/>
     <use style="fill:#1f77b4;stroke:#1f77b4;" x="205.698949" xlink:href="#m8ba8abf5f9" y="26.486389"/>
     <use style="fill:#1f77b4;stroke:#1f77b4;" x="206.481249" xlink:href="#m8ba8abf5f9" y="55.163248"/>
     <use style="fill:#1f77b4;stroke:#1f77b4;" x="207.263549" xlink:href="#m8ba8abf5f9" y="49.712127"/>
     <use style="fill:#1f77b4;stroke:#1f77b4;" x="208.045849" xlink:href="#m8ba8abf5f9" y="79.404002"/>
     <use style="fill:#1f77b4;stroke:#1f77b4;" x="208.828149" xlink:href="#m8ba8abf5f9" y="31.200373"/>
     <use style="fill:#1f77b4;stroke:#1f77b4;" x="209.610449" xlink:href="#m8ba8abf5f9" y="36.361957"/>
     <use style="fill:#1f77b4;stroke:#1f77b4;" x="210.392749" xlink:href="#m8ba8abf5f9" y="69.390822"/>
     <use style="fill:#1f77b4;stroke:#1f77b4;" x="211.175049" xlink:href="#m8ba8abf5f9" y="206.939131"/>
     <use style="fill:#1f77b4;stroke:#1f77b4;" x="211.957349" xlink:href="#m8ba8abf5f9" y="77.662176"/>
     <use style="fill:#1f77b4;stroke:#1f77b4;" x="212.73965" xlink:href="#m8ba8abf5f9" y="83.148027"/>
     <use style="fill:#1f77b4;stroke:#1f77b4;" x="213.52195" xlink:href="#m8ba8abf5f9" y="33.372481"/>
     <use style="fill:#1f77b4;stroke:#1f77b4;" x="214.30425" xlink:href="#m8ba8abf5f9" y="71.939105"/>
     <use style="fill:#1f77b4;stroke:#1f77b4;" x="215.08655" xlink:href="#m8ba8abf5f9" y="116.719529"/>
     <use style="fill:#1f77b4;stroke:#1f77b4;" x="215.86885" xlink:href="#m8ba8abf5f9" y="45.755381"/>
     <use style="fill:#1f77b4;stroke:#1f77b4;" x="216.65115" xlink:href="#m8ba8abf5f9" y="37.844685"/>
     <use style="fill:#1f77b4;stroke:#1f77b4;" x="217.43345" xlink:href="#m8ba8abf5f9" y="56.871805"/>
     <use style="fill:#1f77b4;stroke:#1f77b4;" x="218.21575" xlink:href="#m8ba8abf5f9" y="74.087928"/>
     <use style="fill:#1f77b4;stroke:#1f77b4;" x="218.99805" xlink:href="#m8ba8abf5f9" y="112.889266"/>
     <use style="fill:#1f77b4;stroke:#1f77b4;" x="219.78035" xlink:href="#m8ba8abf5f9" y="46.272375"/>
     <use style="fill:#1f77b4;stroke:#1f77b4;" x="220.562651" xlink:href="#m8ba8abf5f9" y="70.385548"/>
     <use style="fill:#1f77b4;stroke:#1f77b4;" x="221.344951" xlink:href="#m8ba8abf5f9" y="173.616607"/>
     <use style="fill:#1f77b4;stroke:#1f77b4;" x="222.127251" xlink:href="#m8ba8abf5f9" y="65.970904"/>
     <use style="fill:#1f77b4;stroke:#1f77b4;" x="222.909551" xlink:href="#m8ba8abf5f9" y="44.853624"/>
     <use style="fill:#1f77b4;stroke:#1f77b4;" x="223.691851" xlink:href="#m8ba8abf5f9" y="49.592062"/>
     <use style="fill:#1f77b4;stroke:#1f77b4;" x="224.474151" xlink:href="#m8ba8abf5f9" y="77.164613"/>
     <use style="fill:#1f77b4;stroke:#1f77b4;" x="225.256451" xlink:href="#m8ba8abf5f9" y="62.429338"/>
     <use style="fill:#1f77b4;stroke:#1f77b4;" x="226.038751" xlink:href="#m8ba8abf5f9" y="21.300761"/>
     <use style="fill:#1f77b4;stroke:#1f77b4;" x="226.821051" xlink:href="#m8ba8abf5f9" y="53.003613"/>
     <use style="fill:#1f77b4;stroke:#1f77b4;" x="227.603352" xlink:href="#m8ba8abf5f9" y="45.169229"/>
     <use style="fill:#1f77b4;stroke:#1f77b4;" x="228.385652" xlink:href="#m8ba8abf5f9" y="78.376854"/>
     <use style="fill:#1f77b4;stroke:#1f77b4;" x="229.167952" xlink:href="#m8ba8abf5f9" y="82.441778"/>
     <use style="fill:#1f77b4;stroke:#1f77b4;" x="229.950252" xlink:href="#m8ba8abf5f9" y="102.514624"/>
     <use style="fill:#1f77b4;stroke:#1f77b4;" x="230.732552" xlink:href="#m8ba8abf5f9" y="45.830714"/>
     <use style="fill:#1f77b4;stroke:#1f77b4;" x="231.514852" xlink:href="#m8ba8abf5f9" y="116.307421"/>
     <use style="fill:#1f77b4;stroke:#1f77b4;" x="232.297152" xlink:href="#m8ba8abf5f9" y="66.591839"/>
     <use style="fill:#1f77b4;stroke:#1f77b4;" x="233.079452" xlink:href="#m8ba8abf5f9" y="80.400203"/>
     <use style="fill:#1f77b4;stroke:#1f77b4;" x="233.861752" xlink:href="#m8ba8abf5f9" y="30.807853"/>
     <use style="fill:#1f77b4;stroke:#1f77b4;" x="234.644053" xlink:href="#m8ba8abf5f9" y="59.416945"/>
     <use style="fill:#1f77b4;stroke:#1f77b4;" x="235.426353" xlink:href="#m8ba8abf5f9" y="20.194907"/>
     <use style="fill:#1f77b4;stroke:#1f77b4;" x="236.208653" xlink:href="#m8ba8abf5f9" y="75.194096"/>
     <use style="fill:#1f77b4;stroke:#1f77b4;" x="236.990953" xlink:href="#m8ba8abf5f9" y="105.061975"/>
     <use style="fill:#1f77b4;stroke:#1f77b4;" x="237.773253" xlink:href="#m8ba8abf5f9" y="41.473814"/>
     <use style="fill:#1f77b4;stroke:#1f77b4;" x="238.555553" xlink:href="#m8ba8abf5f9" y="115.524947"/>
     <use style="fill:#1f77b4;stroke:#1f77b4;" x="239.337853" xlink:href="#m8ba8abf5f9" y="66.719996"/>
     <use style="fill:#1f77b4;stroke:#1f77b4;" x="240.120153" xlink:href="#m8ba8abf5f9" y="84.019154"/>
     <use style="fill:#1f77b4;stroke:#1f77b4;" x="240.902453" xlink:href="#m8ba8abf5f9" y="65.465797"/>
     <use style="fill:#1f77b4;stroke:#1f77b4;" x="241.684754" xlink:href="#m8ba8abf5f9" y="26.004166"/>
     <use style="fill:#1f77b4;stroke:#1f77b4;" x="242.467054" xlink:href="#m8ba8abf5f9" y="63.98951"/>
     <use style="fill:#1f77b4;stroke:#1f77b4;" x="243.249354" xlink:href="#m8ba8abf5f9" y="87.964025"/>
     <use style="fill:#1f77b4;stroke:#1f77b4;" x="244.031654" xlink:href="#m8ba8abf5f9" y="94.193108"/>
     <use style="fill:#1f77b4;stroke:#1f77b4;" x="244.813954" xlink:href="#m8ba8abf5f9" y="37.117043"/>
     <use style="fill:#1f77b4;stroke:#1f77b4;" x="245.596254" xlink:href="#m8ba8abf5f9" y="20.984056"/>
     <use style="fill:#1f77b4;stroke:#1f77b4;" x="246.378554" xlink:href="#m8ba8abf5f9" y="63.941368"/>
     <use style="fill:#1f77b4;stroke:#1f77b4;" x="247.160854" xlink:href="#m8ba8abf5f9" y="89.667899"/>
     <use style="fill:#1f77b4;stroke:#1f77b4;" x="247.943154" xlink:href="#m8ba8abf5f9" y="95.047611"/>
     <use style="fill:#1f77b4;stroke:#1f77b4;" x="248.725455" xlink:href="#m8ba8abf5f9" y="37.280806"/>
     <use style="fill:#1f77b4;stroke:#1f77b4;" x="249.507755" xlink:href="#m8ba8abf5f9" y="19.296"/>
     <use style="fill:#1f77b4;stroke:#1f77b4;" x="250.290055" xlink:href="#m8ba8abf5f9" y="63.759533"/>
     <use style="fill:#1f77b4;stroke:#1f77b4;" x="251.072355" xlink:href="#m8ba8abf5f9" y="95.232796"/>
     <use style="fill:#1f77b4;stroke:#1f77b4;" x="251.854655" xlink:href="#m8ba8abf5f9" y="150.66459"/>
     <use style="fill:#1f77b4;stroke:#1f77b4;" x="252.636955" xlink:href="#m8ba8abf5f9" y="80.060621"/>
     <use style="fill:#1f77b4;stroke:#1f77b4;" x="253.419255" xlink:href="#m8ba8abf5f9" y="143.189555"/>
     <use style="fill:#1f77b4;stroke:#1f77b4;" x="254.201555" xlink:href="#m8ba8abf5f9" y="113.059023"/>
     <use style="fill:#1f77b4;stroke:#1f77b4;" x="254.983855" xlink:href="#m8ba8abf5f9" y="42.361323"/>
     <use style="fill:#1f77b4;stroke:#1f77b4;" x="255.766156" xlink:href="#m8ba8abf5f9" y="63.999256"/>
     <use style="fill:#1f77b4;stroke:#1f77b4;" x="256.548456" xlink:href="#m8ba8abf5f9" y="85.015854"/>
     <use style="fill:#1f77b4;stroke:#1f77b4;" x="257.330756" xlink:href="#m8ba8abf5f9" y="87.148959"/>
     <use style="fill:#1f77b4;stroke:#1f77b4;" x="258.113056" xlink:href="#m8ba8abf5f9" y="33.801264"/>
     <use style="fill:#1f77b4;stroke:#1f77b4;" x="258.895356" xlink:href="#m8ba8abf5f9" y="27.566202"/>
     <use style="fill:#1f77b4;stroke:#1f77b4;" x="259.677656" xlink:href="#m8ba8abf5f9" y="60.690145"/>
     <use style="fill:#1f77b4;stroke:#1f77b4;" x="260.459956" xlink:href="#m8ba8abf5f9" y="78.067031"/>
     <use style="fill:#1f77b4;stroke:#1f77b4;" x="261.242256" xlink:href="#m8ba8abf5f9" y="87.954166"/>
     <use style="fill:#1f77b4;stroke:#1f77b4;" x="262.024556" xlink:href="#m8ba8abf5f9" y="36.655602"/>
     <use style="fill:#1f77b4;stroke:#1f77b4;" x="262.806857" xlink:href="#m8ba8abf5f9" y="62.925649"/>
     <use style="fill:#1f77b4;stroke:#1f77b4;" x="263.589157" xlink:href="#m8ba8abf5f9" y="93.634295"/>
     <use style="fill:#1f77b4;stroke:#1f77b4;" x="264.371457" xlink:href="#m8ba8abf5f9" y="164.423876"/>
     <use style="fill:#1f77b4;stroke:#1f77b4;" x="265.153757" xlink:href="#m8ba8abf5f9" y="74.651192"/>
     <use style="fill:#1f77b4;stroke:#1f77b4;" x="265.936057" xlink:href="#m8ba8abf5f9" y="29.153353"/>
     <use style="fill:#1f77b4;stroke:#1f77b4;" x="266.718357" xlink:href="#m8ba8abf5f9" y="58.341299"/>
     <use style="fill:#1f77b4;stroke:#1f77b4;" x="267.500657" xlink:href="#m8ba8abf5f9" y="59.502754"/>
     <use style="fill:#1f77b4;stroke:#1f77b4;" x="268.282957" xlink:href="#m8ba8abf5f9" y="77.231933"/>
     <use style="fill:#1f77b4;stroke:#1f77b4;" x="269.065257" xlink:href="#m8ba8abf5f9" y="34.101806"/>
     <use style="fill:#1f77b4;stroke:#1f77b4;" x="269.847558" xlink:href="#m8ba8abf5f9" y="56.942031"/>
     <use style="fill:#1f77b4;stroke:#1f77b4;" x="270.629858" xlink:href="#m8ba8abf5f9" y="74.710569"/>
     <use style="fill:#1f77b4;stroke:#1f77b4;" x="271.412158" xlink:href="#m8ba8abf5f9" y="29.184033"/>
     <use style="fill:#1f77b4;stroke:#1f77b4;" x="272.194458" xlink:href="#m8ba8abf5f9" y="60.570173"/>
     <use style="fill:#1f77b4;stroke:#1f77b4;" x="272.976758" xlink:href="#m8ba8abf5f9" y="65.351305"/>
     <use style="fill:#1f77b4;stroke:#1f77b4;" x="273.759058" xlink:href="#m8ba8abf5f9" y="118.314545"/>
     <use style="fill:#1f77b4;stroke:#1f77b4;" x="274.541358" xlink:href="#m8ba8abf5f9" y="83.230312"/>
     <use style="fill:#1f77b4;stroke:#1f77b4;" x="275.323658" xlink:href="#m8ba8abf5f9" y="29.464982"/>
     <use style="fill:#1f77b4;stroke:#1f77b4;" x="276.105958" xlink:href="#m8ba8abf5f9" y="57.755022"/>
     <use style="fill:#1f77b4;stroke:#1f77b4;" x="276.888258" xlink:href="#m8ba8abf5f9" y="63.19681"/>
     <use style="fill:#1f77b4;stroke:#1f77b4;" x="277.670559" xlink:href="#m8ba8abf5f9" y="70.807612"/>
     <use style="fill:#1f77b4;stroke:#1f77b4;" x="278.452859" xlink:href="#m8ba8abf5f9" y="28.035938"/>
     <use style="fill:#1f77b4;stroke:#1f77b4;" x="279.235159" xlink:href="#m8ba8abf5f9" y="96.864058"/>
     <use style="fill:#1f77b4;stroke:#1f77b4;" x="280.017459" xlink:href="#m8ba8abf5f9" y="103.443789"/>
     <use style="fill:#1f77b4;stroke:#1f77b4;" x="280.799759" xlink:href="#m8ba8abf5f9" y="47.013138"/>
     <use style="fill:#1f77b4;stroke:#1f77b4;" x="281.582059" xlink:href="#m8ba8abf5f9" y="80.964442"/>
     <use style="fill:#1f77b4;stroke:#1f77b4;" x="282.364359" xlink:href="#m8ba8abf5f9" y="79.714608"/>
     <use style="fill:#1f77b4;stroke:#1f77b4;" x="283.146659" xlink:href="#m8ba8abf5f9" y="109.121678"/>
     <use style="fill:#1f77b4;stroke:#1f77b4;" x="283.928959" xlink:href="#m8ba8abf5f9" y="50.272614"/>
     <use style="fill:#1f77b4;stroke:#1f77b4;" x="284.71126" xlink:href="#m8ba8abf5f9" y="62.737215"/>
     <use style="fill:#1f77b4;stroke:#1f77b4;" x="285.49356" xlink:href="#m8ba8abf5f9" y="94.70758"/>
     <use style="fill:#1f77b4;stroke:#1f77b4;" x="286.27586" xlink:href="#m8ba8abf5f9" y="164.778807"/>
     <use style="fill:#1f77b4;stroke:#1f77b4;" x="287.05816" xlink:href="#m8ba8abf5f9" y="71.368932"/>
     <use style="fill:#1f77b4;stroke:#1f77b4;" x="287.84046" xlink:href="#m8ba8abf5f9" y="28.550793"/>
     <use style="fill:#1f77b4;stroke:#1f77b4;" x="288.62276" xlink:href="#m8ba8abf5f9" y="72.107767"/>
     <use style="fill:#1f77b4;stroke:#1f77b4;" x="289.40506" xlink:href="#m8ba8abf5f9" y="97.428355"/>
     <use style="fill:#1f77b4;stroke:#1f77b4;" x="290.18736" xlink:href="#m8ba8abf5f9" y="59.797651"/>
     <use style="fill:#1f77b4;stroke:#1f77b4;" x="290.96966" xlink:href="#m8ba8abf5f9" y="60.670017"/>
     <use style="fill:#1f77b4;stroke:#1f77b4;" x="291.751961" xlink:href="#m8ba8abf5f9" y="22.039606"/>
     <use style="fill:#1f77b4;stroke:#1f77b4;" x="292.534261" xlink:href="#m8ba8abf5f9" y="79.630458"/>
     <use style="fill:#1f77b4;stroke:#1f77b4;" x="293.316561" xlink:href="#m8ba8abf5f9" y="31.379949"/>
     <use style="fill:#1f77b4;stroke:#1f77b4;" x="294.098861" xlink:href="#m8ba8abf5f9" y="68.777907"/>
     <use style="fill:#1f77b4;stroke:#1f77b4;" x="294.881161" xlink:href="#m8ba8abf5f9" y="137.173715"/>
     <use style="fill:#1f77b4;stroke:#1f77b4;" x="295.663461" xlink:href="#m8ba8abf5f9" y="80.982625"/>
     <use style="fill:#1f77b4;stroke:#1f77b4;" x="296.445761" xlink:href="#m8ba8abf5f9" y="81.317847"/>
     <use style="fill:#1f77b4;stroke:#1f77b4;" x="297.228061" xlink:href="#m8ba8abf5f9" y="32.295311"/>
     <use style="fill:#1f77b4;stroke:#1f77b4;" x="298.010361" xlink:href="#m8ba8abf5f9" y="30.627945"/>
     <use style="fill:#1f77b4;stroke:#1f77b4;" x="298.792662" xlink:href="#m8ba8abf5f9" y="58.269439"/>
     <use style="fill:#1f77b4;stroke:#1f77b4;" x="299.574962" xlink:href="#m8ba8abf5f9" y="73.869516"/>
     <use style="fill:#1f77b4;stroke:#1f77b4;" x="300.357262" xlink:href="#m8ba8abf5f9" y="29.623284"/>
     <use style="fill:#1f77b4;stroke:#1f77b4;" x="301.139562" xlink:href="#m8ba8abf5f9" y="46.722031"/>
     <use style="fill:#1f77b4;stroke:#1f77b4;" x="301.921862" xlink:href="#m8ba8abf5f9" y="60.806616"/>
     <use style="fill:#1f77b4;stroke:#1f77b4;" x="302.704162" xlink:href="#m8ba8abf5f9" y="21.753641"/>
     <use style="fill:#1f77b4;stroke:#1f77b4;" x="303.486462" xlink:href="#m8ba8abf5f9" y="78.039132"/>
     <use style="fill:#1f77b4;stroke:#1f77b4;" x="304.268762" xlink:href="#m8ba8abf5f9" y="30.541604"/>
     <use style="fill:#1f77b4;stroke:#1f77b4;" x="305.051062" xlink:href="#m8ba8abf5f9" y="40.448347"/>
     <use style="fill:#1f77b4;stroke:#1f77b4;" x="305.833363" xlink:href="#m8ba8abf5f9" y="55.242484"/>
     <use style="fill:#1f77b4;stroke:#1f77b4;" x="306.615663" xlink:href="#m8ba8abf5f9" y="45.932655"/>
     <use style="fill:#1f77b4;stroke:#1f77b4;" x="307.397963" xlink:href="#m8ba8abf5f9" y="35.590948"/>
     <use style="fill:#1f77b4;stroke:#1f77b4;" x="308.180263" xlink:href="#m8ba8abf5f9" y="60.020138"/>
     <use style="fill:#1f77b4;stroke:#1f77b4;" x="308.962563" xlink:href="#m8ba8abf5f9" y="77.689441"/>
     <use style="fill:#1f77b4;stroke:#1f77b4;" x="309.744863" xlink:href="#m8ba8abf5f9" y="88.248538"/>
     <use style="fill:#1f77b4;stroke:#1f77b4;" x="310.527163" xlink:href="#m8ba8abf5f9" y="37.233328"/>
     <use style="fill:#1f77b4;stroke:#1f77b4;" x="311.309463" xlink:href="#m8ba8abf5f9" y="64.706438"/>
     <use style="fill:#1f77b4;stroke:#1f77b4;" x="312.091763" xlink:href="#m8ba8abf5f9" y="25.587593"/>
     <use style="fill:#1f77b4;stroke:#1f77b4;" x="312.874064" xlink:href="#m8ba8abf5f9" y="104.94669"/>
     <use style="fill:#1f77b4;stroke:#1f77b4;" x="313.656364" xlink:href="#m8ba8abf5f9" y="46.432359"/>
     <use style="fill:#1f77b4;stroke:#1f77b4;" x="314.438664" xlink:href="#m8ba8abf5f9" y="96.462314"/>
     <use style="fill:#1f77b4;stroke:#1f77b4;" x="315.220964" xlink:href="#m8ba8abf5f9" y="56.634838"/>
     <use style="fill:#1f77b4;stroke:#1f77b4;" x="316.003264" xlink:href="#m8ba8abf5f9" y="59.820833"/>
     <use style="fill:#1f77b4;stroke:#1f77b4;" x="316.785564" xlink:href="#m8ba8abf5f9" y="21.225942"/>
     <use style="fill:#1f77b4;stroke:#1f77b4;" x="317.567864" xlink:href="#m8ba8abf5f9" y="77.081538"/>
     <use style="fill:#1f77b4;stroke:#1f77b4;" x="318.350164" xlink:href="#m8ba8abf5f9" y="30.20614"/>
     <use style="fill:#1f77b4;stroke:#1f77b4;" x="319.132464" xlink:href="#m8ba8abf5f9" y="42.626571"/>
     <use style="fill:#1f77b4;stroke:#1f77b4;" x="319.914765" xlink:href="#m8ba8abf5f9" y="93.12618"/>
     <use style="fill:#1f77b4;stroke:#1f77b4;" x="320.697065" xlink:href="#m8ba8abf5f9" y="82.293941"/>
     <use style="fill:#1f77b4;stroke:#1f77b4;" x="321.479365" xlink:href="#m8ba8abf5f9" y="32.880119"/>
     <use style="fill:#1f77b4;stroke:#1f77b4;" x="322.261665" xlink:href="#m8ba8abf5f9" y="29.457253"/>
     <use style="fill:#1f77b4;stroke:#1f77b4;" x="323.043965" xlink:href="#m8ba8abf5f9" y="56.145392"/>
     <use style="fill:#1f77b4;stroke:#1f77b4;" x="323.826265" xlink:href="#m8ba8abf5f9" y="56.064698"/>
     <use style="fill:#1f77b4;stroke:#1f77b4;" x="324.608565" xlink:href="#m8ba8abf5f9" y="71.461194"/>
     <use style="fill:#1f77b4;stroke:#1f77b4;" x="325.390865" xlink:href="#m8ba8abf5f9" y="49.157106"/>
     <use style="fill:#1f77b4;stroke:#1f77b4;" x="326.173165" xlink:href="#m8ba8abf5f9" y="56.874012"/>
     <use style="fill:#1f77b4;stroke:#1f77b4;" x="326.955465" xlink:href="#m8ba8abf5f9" y="74.739074"/>
     <use style="fill:#1f77b4;stroke:#1f77b4;" x="327.737766" xlink:href="#m8ba8abf5f9" y="29.498923"/>
     <use style="fill:#1f77b4;stroke:#1f77b4;" x="328.520066" xlink:href="#m8ba8abf5f9" y="53.759306"/>
     <use style="fill:#1f77b4;stroke:#1f77b4;" x="329.302366" xlink:href="#m8ba8abf5f9" y="62.931995"/>
     <use style="fill:#1f77b4;stroke:#1f77b4;" x="330.084666" xlink:href="#m8ba8abf5f9" y="25.452042"/>
     <use style="fill:#1f77b4;stroke:#1f77b4;" x="330.866966" xlink:href="#m8ba8abf5f9" y="95.694232"/>
     <use style="fill:#1f77b4;stroke:#1f77b4;" x="331.649266" xlink:href="#m8ba8abf5f9" y="37.322088"/>
     <use style="fill:#1f77b4;stroke:#1f77b4;" x="332.431566" xlink:href="#m8ba8abf5f9" y="19.539556"/>
     <use style="fill:#1f77b4;stroke:#1f77b4;" x="333.213866" xlink:href="#m8ba8abf5f9" y="56.471066"/>
     <use style="fill:#1f77b4;stroke:#1f77b4;" x="333.996166" xlink:href="#m8ba8abf5f9" y="51.475876"/>
     <use style="fill:#1f77b4;stroke:#1f77b4;" x="334.778467" xlink:href="#m8ba8abf5f9" y="80.592201"/>
     <use style="fill:#1f77b4;stroke:#1f77b4;" x="335.560767" xlink:href="#m8ba8abf5f9" y="92.068535"/>
     <use style="fill:#1f77b4;stroke:#1f77b4;" x="336.343067" xlink:href="#m8ba8abf5f9" y="36.544684"/>
     <use style="fill:#1f77b4;stroke:#1f77b4;" x="337.125367" xlink:href="#m8ba8abf5f9" y="78.374174"/>
     <use style="fill:#1f77b4;stroke:#1f77b4;" x="337.907667" xlink:href="#m8ba8abf5f9" y="96.896765"/>
     <use style="fill:#1f77b4;stroke:#1f77b4;" x="338.689967" xlink:href="#m8ba8abf5f9" y="39.208095"/>
     <use style="fill:#1f77b4;stroke:#1f77b4;" x="339.472267" xlink:href="#m8ba8abf5f9" y="101.103158"/>
     <use style="fill:#1f77b4;stroke:#1f77b4;" x="340.254567" xlink:href="#m8ba8abf5f9" y="41.023762"/>
     <use style="fill:#1f77b4;stroke:#1f77b4;" x="341.036867" xlink:href="#m8ba8abf5f9" y="107.124207"/>
     <use style="fill:#1f77b4;stroke:#1f77b4;" x="341.819168" xlink:href="#m8ba8abf5f9" y="75.78304"/>
     <use style="fill:#1f77b4;stroke:#1f77b4;" x="342.601468" xlink:href="#m8ba8abf5f9" y="30.14198"/>
     <use style="fill:#1f77b4;stroke:#1f77b4;" x="343.383768" xlink:href="#m8ba8abf5f9" y="67.274285"/>
     <use style="fill:#1f77b4;stroke:#1f77b4;" x="344.166068" xlink:href="#m8ba8abf5f9" y="112.543878"/>
     <use style="fill:#1f77b4;stroke:#1f77b4;" x="344.948368" xlink:href="#m8ba8abf5f9" y="121.001673"/>
     <use style="fill:#1f77b4;stroke:#1f77b4;" x="345.730668" xlink:href="#m8ba8abf5f9" y="93.452117"/>
     <use style="fill:#1f77b4;stroke:#1f77b4;" x="346.512968" xlink:href="#m8ba8abf5f9" y="26.850872"/>
     <use style="fill:#1f77b4;stroke:#1f77b4;" x="347.295268" xlink:href="#m8ba8abf5f9" y="88.097049"/>
     <use style="fill:#1f77b4;stroke:#1f77b4;" x="348.077568" xlink:href="#m8ba8abf5f9" y="35.027339"/>
     <use style="fill:#1f77b4;stroke:#1f77b4;" x="348.859869" xlink:href="#m8ba8abf5f9" y="23.816684"/>
     <use style="fill:#1f77b4;stroke:#1f77b4;" x="349.642169" xlink:href="#m8ba8abf5f9" y="57.64429"/>
     <use style="fill:#1f77b4;stroke:#1f77b4;" x="350.424469" xlink:href="#m8ba8abf5f9" y="60.745269"/>
     <use style="fill:#1f77b4;stroke:#1f77b4;" x="351.206769" xlink:href="#m8ba8abf5f9" y="68.401889"/>
     <use style="fill:#1f77b4;stroke:#1f77b4;" x="351.989069" xlink:href="#m8ba8abf5f9" y="183.732284"/>
     <use style="fill:#1f77b4;stroke:#1f77b4;" x="352.771369" xlink:href="#m8ba8abf5f9" y="57.935071"/>
     <use style="fill:#1f77b4;stroke:#1f77b4;" x="353.553669" xlink:href="#m8ba8abf5f9" y="66.270892"/>
     <use style="fill:#1f77b4;stroke:#1f77b4;" x="354.335969" xlink:href="#m8ba8abf5f9" y="117.000532"/>
     <use style="fill:#1f77b4;stroke:#1f77b4;" x="355.118269" xlink:href="#m8ba8abf5f9" y="88.898523"/>
     <use style="fill:#1f77b4;stroke:#1f77b4;" x="355.90057" xlink:href="#m8ba8abf5f9" y="27.467502"/>
     <use style="fill:#1f77b4;stroke:#1f77b4;" x="356.68287" xlink:href="#m8ba8abf5f9" y="62.449397"/>
     <use style="fill:#1f77b4;stroke:#1f77b4;" x="357.46517" xlink:href="#m8ba8abf5f9" y="76.685589"/>
     <use style="fill:#1f77b4;stroke:#1f77b4;" x="358.24747" xlink:href="#m8ba8abf5f9" y="31.826618"/>
     <use style="fill:#1f77b4;stroke:#1f77b4;" x="359.02977" xlink:href="#m8ba8abf5f9" y="33.96817"/>
     <use style="fill:#1f77b4;stroke:#1f77b4;" x="359.81207" xlink:href="#m8ba8abf5f9" y="63.78995"/>
     <use style="fill:#1f77b4;stroke:#1f77b4;" x="360.59437" xlink:href="#m8ba8abf5f9" y="82.3273"/>
     <use style="fill:#1f77b4;stroke:#1f77b4;" x="361.37667" xlink:href="#m8ba8abf5f9" y="29.443269"/>
     <use style="fill:#1f77b4;stroke:#1f77b4;" x="362.15897" xlink:href="#m8ba8abf5f9" y="64.492029"/>
     <use style="fill:#1f77b4;stroke:#1f77b4;" x="362.941271" xlink:href="#m8ba8abf5f9" y="93.867743"/>
     <use style="fill:#1f77b4;stroke:#1f77b4;" x="363.723571" xlink:href="#m8ba8abf5f9" y="105.689672"/>
     <use style="fill:#1f77b4;stroke:#1f77b4;" x="364.505871" xlink:href="#m8ba8abf5f9" y="42.594921"/>
     <use style="fill:#1f77b4;stroke:#1f77b4;" x="365.288171" xlink:href="#m8ba8abf5f9" y="78.492965"/>
     <use style="fill:#1f77b4;stroke:#1f77b4;" x="366.070471" xlink:href="#m8ba8abf5f9" y="145.114363"/>
     <use style="fill:#1f77b4;stroke:#1f77b4;" x="366.852771" xlink:href="#m8ba8abf5f9" y="64.301754"/>
     <use style="fill:#1f77b4;stroke:#1f77b4;" x="367.635071" xlink:href="#m8ba8abf5f9" y="93.275702"/>
     <use style="fill:#1f77b4;stroke:#1f77b4;" x="368.417371" xlink:href="#m8ba8abf5f9" y="122.869815"/>
     <use style="fill:#1f77b4;stroke:#1f77b4;" x="369.199671" xlink:href="#m8ba8abf5f9" y="21.049018"/>
     <use style="fill:#1f77b4;stroke:#1f77b4;" x="369.981972" xlink:href="#m8ba8abf5f9" y="55.056333"/>
     <use style="fill:#1f77b4;stroke:#1f77b4;" x="370.764272" xlink:href="#m8ba8abf5f9" y="49.353212"/>
     <use style="fill:#1f77b4;stroke:#1f77b4;" x="371.546572" xlink:href="#m8ba8abf5f9" y="80.092633"/>
     <use style="fill:#1f77b4;stroke:#1f77b4;" x="372.328872" xlink:href="#m8ba8abf5f9" y="31.651009"/>
     <use style="fill:#1f77b4;stroke:#1f77b4;" x="373.111172" xlink:href="#m8ba8abf5f9" y="68.56693"/>
     <use style="fill:#1f77b4;stroke:#1f77b4;" x="373.893472" xlink:href="#m8ba8abf5f9" y="127.658365"/>
     <use style="fill:#1f77b4;stroke:#1f77b4;" x="374.675772" xlink:href="#m8ba8abf5f9" y="93.466343"/>
     <use style="fill:#1f77b4;stroke:#1f77b4;" x="375.458072" xlink:href="#m8ba8abf5f9" y="105.580036"/>
     <use style="fill:#1f77b4;stroke:#1f77b4;" x="376.240372" xlink:href="#m8ba8abf5f9" y="45.588242"/>
     <use style="fill:#1f77b4;stroke:#1f77b4;" x="377.022673" xlink:href="#m8ba8abf5f9" y="69.383928"/>
     <use style="fill:#1f77b4;stroke:#1f77b4;" x="377.295083" xlink:href="#m8ba8abf5f9" y="22383.514"/>
    </g>
   </g>
   <g id="line2d_44">
    <path clip-path="url(#pba6cab0b55)" d="M 108.693735 29.615185 
L 110.258335 61.679453 
L 111.822935 90.213539 
" style="fill:none;stroke:#2ca02c;stroke-dasharray:1.5,2.475;stroke-dashoffset:0;stroke-width:1.5;"/>
    <defs>
     <path d="M -3 3 
L 3 -3 
M -3 -3 
L 3 3 
" id="m44e2c4fdfa" style="stroke:#2ca02c;"/>
    </defs>
    <g clip-path="url(#pba6cab0b55)">
     <use style="fill:#2ca02c;stroke:#2ca02c;" x="108.693735" xlink:href="#m44e2c4fdfa" y="29.615185"/>
     <use style="fill:#2ca02c;stroke:#2ca02c;" x="110.258335" xlink:href="#m44e2c4fdfa" y="61.679453"/>
     <use style="fill:#2ca02c;stroke:#2ca02c;" x="111.822935" xlink:href="#m44e2c4fdfa" y="90.213539"/>
    </g>
   </g>
   <g id="line2d_45">
    <path clip-path="url(#pba6cab0b55)" d="M 54.715027 182.037329 
L 61.419285 311.86825 
L 61.419285 311.86825 
" style="fill:none;stroke:#000000;stroke-dasharray:5.55,2.4;stroke-dashoffset:0;stroke-width:1.5;"/>
   </g>
   <g id="patch_3">
    <path d="M 37.7 273.312 
L 37.7 7.2 
" style="fill:none;stroke:#000000;stroke-linecap:square;stroke-linejoin:miter;stroke-width:0.8;"/>
   </g>
   <g id="patch_4">
    <path d="M 394.82 273.312 
L 394.82 7.2 
" style="fill:none;stroke:#000000;stroke-linecap:square;stroke-linejoin:miter;stroke-width:0.8;"/>
   </g>
   <g id="patch_5">
    <path d="M 37.7 273.312 
L 394.82 273.312 
" style="fill:none;stroke:#000000;stroke-linecap:square;stroke-linejoin:miter;stroke-width:0.8;"/>
   </g>
   <g id="patch_6">
    <path d="M 37.7 7.2 
L 394.82 7.2 
" style="fill:none;stroke:#000000;stroke-linecap:square;stroke-linejoin:miter;stroke-width:0.8;"/>
   </g>
   <g id="legend_1">
    <g id="patch_7">
     <path d="M 165.71 268.312 
L 266.81 268.312 
Q 268.81 268.312 268.81 266.312 
L 268.81 223.25575 
Q 268.81 221.25575 266.81 221.25575 
L 165.71 221.25575 
Q 163.71 221.25575 163.71 223.25575 
L 163.71 266.312 
Q 163.71 268.312 165.71 268.312 
z
" style="fill:#ffffff;opacity:0.8;"/>
    </g>
    <g id="line2d_46">
     <path d="M 167.71 229.354187 
L 187.71 229.354187 
" style="fill:none;stroke:#1f77b4;stroke-linecap:square;stroke-width:1.5;"/>
    </g>
    <g id="line2d_47">
     <g>
      <use style="fill:#1f77b4;stroke:#1f77b4;" x="177.71" xlink:href="#m8ba8abf5f9" y="229.354187"/>
     </g>
    </g>
    <g id="text_11">
     <!-- APD$_n$ - APD$_\infty$ -->
     <defs>
      <path d="M 34.1875 63.1875 
L 20.796875 26.90625 
L 47.609375 26.90625 
z
M 28.609375 72.90625 
L 39.796875 72.90625 
L 67.578125 0 
L 57.328125 0 
L 50.6875 18.703125 
L 17.828125 18.703125 
L 11.1875 0 
L 0.78125 0 
z
" id="DejaVuSans-65"/>
      <path d="M 19.671875 64.796875 
L 19.671875 37.40625 
L 32.078125 37.40625 
Q 38.96875 37.40625 42.71875 40.96875 
Q 46.484375 44.53125 46.484375 51.125 
Q 46.484375 57.671875 42.71875 61.234375 
Q 38.96875 64.796875 32.078125 64.796875 
z
M 9.8125 72.90625 
L 32.078125 72.90625 
Q 44.34375 72.90625 50.609375 67.359375 
Q 56.890625 61.8125 56.890625 51.125 
Q 56.890625 40.328125 50.609375 34.8125 
Q 44.34375 29.296875 32.078125 29.296875 
L 19.671875 29.296875 
L 19.671875 0 
L 9.8125 0 
z
" id="DejaVuSans-80"/>
      <path d="M 19.671875 64.796875 
L 19.671875 8.109375 
L 31.59375 8.109375 
Q 46.6875 8.109375 53.6875 14.9375 
Q 60.6875 21.78125 60.6875 36.53125 
Q 60.6875 51.171875 53.6875 57.984375 
Q 46.6875 64.796875 31.59375 64.796875 
z
M 9.8125 72.90625 
L 30.078125 72.90625 
Q 51.265625 72.90625 61.171875 64.09375 
Q 71.09375 55.28125 71.09375 36.53125 
Q 71.09375 17.671875 61.125 8.828125 
Q 51.171875 0 30.078125 0 
L 9.8125 0 
z
" id="DejaVuSans-68"/>
      <path d="M 55.71875 33.015625 
L 49.3125 0 
L 40.28125 0 
L 46.6875 32.671875 
Q 47.125 34.96875 47.359375 36.71875 
Q 47.609375 38.484375 47.609375 39.5 
Q 47.609375 43.609375 45.015625 45.890625 
Q 42.4375 48.1875 37.796875 48.1875 
Q 30.5625 48.1875 25.34375 43.375 
Q 20.125 38.578125 18.5 30.328125 
L 12.5 0 
L 3.515625 0 
L 14.109375 54.6875 
L 23.09375 54.6875 
L 21.296875 46.09375 
Q 25.046875 50.828125 30.3125 53.40625 
Q 35.59375 56 41.40625 56 
Q 48.640625 56 52.609375 52.09375 
Q 56.59375 48.1875 56.59375 41.109375 
Q 56.59375 39.359375 56.375 37.359375 
Q 56.15625 35.359375 55.71875 33.015625 
z
" id="DejaVuSans-Oblique-110"/>
      <path id="DejaVuSans-32"/>
      <path d="M 4.890625 31.390625 
L 31.203125 31.390625 
L 31.203125 23.390625 
L 4.890625 23.390625 
z
" id="DejaVuSans-45"/>
      <path d="M 45.5625 17.046875 
Q 44.046875 18.796875 41.65625 22.90625 
Q 38.375 17.046875 35.5 14.453125 
Q 31.890625 11.328125 26.265625 11.328125 
Q 19.671875 11.328125 15.328125 16.265625 
Q 10.75 21.4375 10.75 29.984375 
Q 10.75 38.1875 15.328125 43.75 
Q 19.4375 48.6875 26.375 48.6875 
Q 29.9375 48.6875 32.5625 47.21875 
Q 35.640625 45.609375 37.75 42.828125 
Q 39.703125 40.328125 41.65625 36.96875 
Q 44.921875 42.828125 47.796875 45.40625 
Q 51.421875 48.53125 57.03125 48.53125 
Q 63.625 48.53125 67.96875 43.609375 
Q 72.5625 38.421875 72.5625 29.890625 
Q 72.5625 21.6875 67.96875 16.109375 
Q 63.875 11.1875 56.9375 11.1875 
Q 53.375 11.1875 50.734375 12.640625 
Q 48.09375 13.96875 45.5625 17.046875 
z
M 25.734375 17.71875 
Q 33.796875 17.71875 38.625 29.4375 
Q 32.421875 42.234375 25.734375 42.234375 
Q 20.84375 42.234375 18.359375 38.71875 
Q 15.671875 34.96875 15.671875 29.984375 
Q 15.671875 24.515625 18.359375 21.140625 
Q 21.09375 17.71875 25.734375 17.71875 
z
M 57.5625 42.140625 
Q 50.296875 42.140625 44.671875 30.421875 
Q 50.828125 17.625 57.5625 17.625 
Q 62.453125 17.625 64.9375 21.140625 
Q 67.625 24.90625 67.625 29.890625 
Q 67.625 35.359375 64.9375 38.71875 
Q 62.203125 42.140625 57.5625 42.140625 
z
" id="DejaVuSans-8734"/>
     </defs>
     <g transform="translate(195.71 232.854187)scale(0.1 -0.1)">
      <use transform="translate(0 0.09375)" xlink:href="#DejaVuSans-65"/>
      <use transform="translate(68.408203 0.09375)" xlink:href="#DejaVuSans-80"/>
      <use transform="translate(128.710938 0.09375)" xlink:href="#DejaVuSans-68"/>
      <use transform="translate(206.669922 -16.3125)scale(0.7)" xlink:href="#DejaVuSans-Oblique-110"/>
      <use transform="translate(253.769531 0.09375)" xlink:href="#DejaVuSans-32"/>
      <use transform="translate(285.556641 0.09375)" xlink:href="#DejaVuSans-45"/>
      <use transform="translate(321.640625 0.09375)" xlink:href="#DejaVuSans-32"/>
      <use transform="translate(353.427734 0.09375)" xlink:href="#DejaVuSans-65"/>
      <use transform="translate(421.835938 0.09375)" xlink:href="#DejaVuSans-80"/>
      <use transform="translate(482.138672 0.09375)" xlink:href="#DejaVuSans-68"/>
      <use transform="translate(560.097656 -16.3125)scale(0.7)" xlink:href="#DejaVuSans-8734"/>
     </g>
    </g>
    <g id="line2d_48">
     <path d="M 167.71 244.032312 
L 187.71 244.032312 
" style="fill:none;stroke:#2ca02c;stroke-dasharray:1.5,2.475;stroke-dashoffset:0;stroke-width:1.5;"/>
    </g>
    <g id="line2d_49">
     <g>
      <use style="fill:#2ca02c;stroke:#2ca02c;" x="177.71" xlink:href="#m44e2c4fdfa" y="244.032312"/>
     </g>
    </g>
    <g id="text_12">
     <!-- linear region -->
     <defs>
      <path d="M 9.421875 75.984375 
L 18.40625 75.984375 
L 18.40625 0 
L 9.421875 0 
z
" id="DejaVuSans-108"/>
      <path d="M 9.421875 54.6875 
L 18.40625 54.6875 
L 18.40625 0 
L 9.421875 0 
z
M 9.421875 75.984375 
L 18.40625 75.984375 
L 18.40625 64.59375 
L 9.421875 64.59375 
z
" id="DejaVuSans-105"/>
      <path d="M 54.890625 33.015625 
L 54.890625 0 
L 45.90625 0 
L 45.90625 32.71875 
Q 45.90625 40.484375 42.875 44.328125 
Q 39.84375 48.1875 33.796875 48.1875 
Q 26.515625 48.1875 22.3125 43.546875 
Q 18.109375 38.921875 18.109375 30.90625 
L 18.109375 0 
L 9.078125 0 
L 9.078125 54.6875 
L 18.109375 54.6875 
L 18.109375 46.1875 
Q 21.34375 51.125 25.703125 53.5625 
Q 30.078125 56 35.796875 56 
Q 45.21875 56 50.046875 50.171875 
Q 54.890625 44.34375 54.890625 33.015625 
z
" id="DejaVuSans-110"/>
      <path d="M 56.203125 29.59375 
L 56.203125 25.203125 
L 14.890625 25.203125 
Q 15.484375 15.921875 20.484375 11.0625 
Q 25.484375 6.203125 34.421875 6.203125 
Q 39.59375 6.203125 44.453125 7.46875 
Q 49.3125 8.734375 54.109375 11.28125 
L 54.109375 2.78125 
Q 49.265625 0.734375 44.1875 -0.34375 
Q 39.109375 -1.421875 33.890625 -1.421875 
Q 20.796875 -1.421875 13.15625 6.1875 
Q 5.515625 13.8125 5.515625 26.8125 
Q 5.515625 40.234375 12.765625 48.109375 
Q 20.015625 56 32.328125 56 
Q 43.359375 56 49.78125 48.890625 
Q 56.203125 41.796875 56.203125 29.59375 
z
M 47.21875 32.234375 
Q 47.125 39.59375 43.09375 43.984375 
Q 39.0625 48.390625 32.421875 48.390625 
Q 24.90625 48.390625 20.390625 44.140625 
Q 15.875 39.890625 15.1875 32.171875 
z
" id="DejaVuSans-101"/>
      <path d="M 34.28125 27.484375 
Q 23.390625 27.484375 19.1875 25 
Q 14.984375 22.515625 14.984375 16.5 
Q 14.984375 11.71875 18.140625 8.90625 
Q 21.296875 6.109375 26.703125 6.109375 
Q 34.1875 6.109375 38.703125 11.40625 
Q 43.21875 16.703125 43.21875 25.484375 
L 43.21875 27.484375 
z
M 52.203125 31.203125 
L 52.203125 0 
L 43.21875 0 
L 43.21875 8.296875 
Q 40.140625 3.328125 35.546875 0.953125 
Q 30.953125 -1.421875 24.3125 -1.421875 
Q 15.921875 -1.421875 10.953125 3.296875 
Q 6 8.015625 6 15.921875 
Q 6 25.140625 12.171875 29.828125 
Q 18.359375 34.515625 30.609375 34.515625 
L 43.21875 34.515625 
L 43.21875 35.40625 
Q 43.21875 41.609375 39.140625 45 
Q 35.0625 48.390625 27.6875 48.390625 
Q 23 48.390625 18.546875 47.265625 
Q 14.109375 46.140625 10.015625 43.890625 
L 10.015625 52.203125 
Q 14.9375 54.109375 19.578125 55.046875 
Q 24.21875 56 28.609375 56 
Q 40.484375 56 46.34375 49.84375 
Q 52.203125 43.703125 52.203125 31.203125 
z
" id="DejaVuSans-97"/>
      <path d="M 41.109375 46.296875 
Q 39.59375 47.171875 37.8125 47.578125 
Q 36.03125 48 33.890625 48 
Q 26.265625 48 22.1875 43.046875 
Q 18.109375 38.09375 18.109375 28.8125 
L 18.109375 0 
L 9.078125 0 
L 9.078125 54.6875 
L 18.109375 54.6875 
L 18.109375 46.1875 
Q 20.953125 51.171875 25.484375 53.578125 
Q 30.03125 56 36.53125 56 
Q 37.453125 56 38.578125 55.875 
Q 39.703125 55.765625 41.0625 55.515625 
z
" id="DejaVuSans-114"/>
      <path d="M 45.40625 27.984375 
Q 45.40625 37.75 41.375 43.109375 
Q 37.359375 48.484375 30.078125 48.484375 
Q 22.859375 48.484375 18.828125 43.109375 
Q 14.796875 37.75 14.796875 27.984375 
Q 14.796875 18.265625 18.828125 12.890625 
Q 22.859375 7.515625 30.078125 7.515625 
Q 37.359375 7.515625 41.375 12.890625 
Q 45.40625 18.265625 45.40625 27.984375 
z
M 54.390625 6.78125 
Q 54.390625 -7.171875 48.1875 -13.984375 
Q 42 -20.796875 29.203125 -20.796875 
Q 24.46875 -20.796875 20.265625 -20.09375 
Q 16.0625 -19.390625 12.109375 -17.921875 
L 12.109375 -9.1875 
Q 16.0625 -11.328125 19.921875 -12.34375 
Q 23.78125 -13.375 27.78125 -13.375 
Q 36.625 -13.375 41.015625 -8.765625 
Q 45.40625 -4.15625 45.40625 5.171875 
L 45.40625 9.625 
Q 42.625 4.78125 38.28125 2.390625 
Q 33.9375 0 27.875 0 
Q 17.828125 0 11.671875 7.65625 
Q 5.515625 15.328125 5.515625 27.984375 
Q 5.515625 40.671875 11.671875 48.328125 
Q 17.828125 56 27.875 56 
Q 33.9375 56 38.28125 53.609375 
Q 42.625 51.21875 45.40625 46.390625 
L 45.40625 54.6875 
L 54.390625 54.6875 
z
" id="DejaVuSans-103"/>
      <path d="M 30.609375 48.390625 
Q 23.390625 48.390625 19.1875 42.75 
Q 14.984375 37.109375 14.984375 27.296875 
Q 14.984375 17.484375 19.15625 11.84375 
Q 23.34375 6.203125 30.609375 6.203125 
Q 37.796875 6.203125 41.984375 11.859375 
Q 46.1875 17.53125 46.1875 27.296875 
Q 46.1875 37.015625 41.984375 42.703125 
Q 37.796875 48.390625 30.609375 48.390625 
z
M 30.609375 56 
Q 42.328125 56 49.015625 48.375 
Q 55.71875 40.765625 55.71875 27.296875 
Q 55.71875 13.875 49.015625 6.21875 
Q 42.328125 -1.421875 30.609375 -1.421875 
Q 18.84375 -1.421875 12.171875 6.21875 
Q 5.515625 13.875 5.515625 27.296875 
Q 5.515625 40.765625 12.171875 48.375 
Q 18.84375 56 30.609375 56 
z
" id="DejaVuSans-111"/>
     </defs>
     <g transform="translate(195.71 247.532312)scale(0.1 -0.1)">
      <use xlink:href="#DejaVuSans-108"/>
      <use x="27.783203" xlink:href="#DejaVuSans-105"/>
      <use x="55.566406" xlink:href="#DejaVuSans-110"/>
      <use x="118.945312" xlink:href="#DejaVuSans-101"/>
      <use x="180.46875" xlink:href="#DejaVuSans-97"/>
      <use x="241.748047" xlink:href="#DejaVuSans-114"/>
      <use x="282.861328" xlink:href="#DejaVuSans-32"/>
      <use x="314.648438" xlink:href="#DejaVuSans-114"/>
      <use x="353.511719" xlink:href="#DejaVuSans-101"/>
      <use x="415.035156" xlink:href="#DejaVuSans-103"/>
      <use x="478.511719" xlink:href="#DejaVuSans-105"/>
      <use x="506.294922" xlink:href="#DejaVuSans-111"/>
      <use x="567.476562" xlink:href="#DejaVuSans-110"/>
     </g>
    </g>
    <g id="line2d_50">
     <path d="M 167.71 258.712 
L 187.71 258.712 
" style="fill:none;stroke:#000000;stroke-dasharray:5.55,2.4;stroke-dashoffset:0;stroke-width:1.5;"/>
    </g>
    <g id="line2d_51"/>
    <g id="text_13">
     <!-- $ \exp(-0.545 k)$ -->
     <defs>
      <path d="M 54.890625 54.6875 
L 35.109375 28.078125 
L 55.90625 0 
L 45.3125 0 
L 29.390625 21.484375 
L 13.484375 0 
L 2.875 0 
L 24.125 28.609375 
L 4.6875 54.6875 
L 15.28125 54.6875 
L 29.78125 35.203125 
L 44.28125 54.6875 
z
" id="DejaVuSans-120"/>
      <path d="M 18.109375 8.203125 
L 18.109375 -20.796875 
L 9.078125 -20.796875 
L 9.078125 54.6875 
L 18.109375 54.6875 
L 18.109375 46.390625 
Q 20.953125 51.265625 25.265625 53.625 
Q 29.59375 56 35.59375 56 
Q 45.5625 56 51.78125 48.09375 
Q 58.015625 40.1875 58.015625 27.296875 
Q 58.015625 14.40625 51.78125 6.484375 
Q 45.5625 -1.421875 35.59375 -1.421875 
Q 29.59375 -1.421875 25.265625 0.953125 
Q 20.953125 3.328125 18.109375 8.203125 
z
M 48.6875 27.296875 
Q 48.6875 37.203125 44.609375 42.84375 
Q 40.53125 48.484375 33.40625 48.484375 
Q 26.265625 48.484375 22.1875 42.84375 
Q 18.109375 37.203125 18.109375 27.296875 
Q 18.109375 17.390625 22.1875 11.75 
Q 26.265625 6.109375 33.40625 6.109375 
Q 40.53125 6.109375 44.609375 11.75 
Q 48.6875 17.390625 48.6875 27.296875 
z
" id="DejaVuSans-112"/>
      <path d="M 31 75.875 
Q 24.46875 64.65625 21.28125 53.65625 
Q 18.109375 42.671875 18.109375 31.390625 
Q 18.109375 20.125 21.3125 9.0625 
Q 24.515625 -2 31 -13.1875 
L 23.1875 -13.1875 
Q 15.875 -1.703125 12.234375 9.375 
Q 8.59375 20.453125 8.59375 31.390625 
Q 8.59375 42.28125 12.203125 53.3125 
Q 15.828125 64.359375 23.1875 75.875 
z
" id="DejaVuSans-40"/>
      <path d="M 10.6875 12.40625 
L 21 12.40625 
L 21 0 
L 10.6875 0 
z
" id="DejaVuSans-46"/>
      <path d="M 10.796875 72.90625 
L 49.515625 72.90625 
L 49.515625 64.59375 
L 19.828125 64.59375 
L 19.828125 46.734375 
Q 21.96875 47.46875 24.109375 47.828125 
Q 26.265625 48.1875 28.421875 48.1875 
Q 40.625 48.1875 47.75 41.5 
Q 54.890625 34.8125 54.890625 23.390625 
Q 54.890625 11.625 47.5625 5.09375 
Q 40.234375 -1.421875 26.90625 -1.421875 
Q 22.3125 -1.421875 17.546875 -0.640625 
Q 12.796875 0.140625 7.71875 1.703125 
L 7.71875 11.625 
Q 12.109375 9.234375 16.796875 8.0625 
Q 21.484375 6.890625 26.703125 6.890625 
Q 35.15625 6.890625 40.078125 11.328125 
Q 45.015625 15.765625 45.015625 23.390625 
Q 45.015625 31 40.078125 35.4375 
Q 35.15625 39.890625 26.703125 39.890625 
Q 22.75 39.890625 18.8125 39.015625 
Q 14.890625 38.140625 10.796875 36.28125 
z
" id="DejaVuSans-53"/>
      <path d="M 8.015625 75.875 
L 15.828125 75.875 
Q 23.140625 64.359375 26.78125 53.3125 
Q 30.421875 42.28125 30.421875 31.390625 
Q 30.421875 20.453125 26.78125 9.375 
Q 23.140625 -1.703125 15.828125 -13.1875 
L 8.015625 -13.1875 
Q 14.5 -2 17.703125 9.0625 
Q 20.90625 20.125 20.90625 31.390625 
Q 20.90625 42.671875 17.703125 53.65625 
Q 14.5 64.65625 8.015625 75.875 
z
" id="DejaVuSans-41"/>
     </defs>
     <g transform="translate(195.71 262.212)scale(0.1 -0.1)">
      <use transform="translate(0 0.015625)" xlink:href="#DejaVuSans-101"/>
      <use transform="translate(61.523438 0.015625)" xlink:href="#DejaVuSans-120"/>
      <use transform="translate(120.703125 0.015625)" xlink:href="#DejaVuSans-112"/>
      <use transform="translate(184.179688 0.015625)" xlink:href="#DejaVuSans-40"/>
      <use transform="translate(223.193359 0.015625)" xlink:href="#DejaVuSans-8722"/>
      <use transform="translate(306.982422 0.015625)" xlink:href="#DejaVuSans-48"/>
      <use transform="translate(370.605469 0.015625)" xlink:href="#DejaVuSans-46"/>
      <use transform="translate(402.392578 0.015625)" xlink:href="#DejaVuSans-53"/>
      <use transform="translate(466.015625 0.015625)" xlink:href="#DejaVuSans-52"/>
      <use transform="translate(529.638672 0.015625)" xlink:href="#DejaVuSans-53"/>
      <use transform="translate(593.261719 0.015625)" xlink:href="#DejaVuSans-Oblique-107"/>
      <use transform="translate(651.171875 0.015625)" xlink:href="#DejaVuSans-41"/>
     </g>
    </g>
   </g>
  </g>
 </g>
 <defs>
  <clipPath id="pba6cab0b55">
   <rect height="266.112" width="357.12" x="37.7" y="7.2"/>
  </clipPath>
 </defs>
</svg>
