<?xml version="1.0" encoding="utf-8" standalone="no"?>
<!DOCTYPE svg PUBLIC "-//W3C//DTD SVG 1.1//EN"
  "http://www.w3.org/Graphics/SVG/1.1/DTD/svg11.dtd">
<!-- Created with matplotlib (https://matplotlib.org/) -->
<svg height="310.86825pt" version="1.1" viewBox="0 0 402.02 310.86825" width="402.02pt" xmlns="http://www.w3.org/2000/svg" xmlns:xlink="http://www.w3.org/1999/xlink">
 <defs>
  <style type="text/css">
*{stroke-linecap:butt;stroke-linejoin:round;}
  </style>
 </defs>
 <g id="figure_1">
  <g id="patch_1">
   <path d="M 0 310.86825 
L 402.02 310.86825 
L 402.02 0 
L 0 0 
z
" style="fill:#ffffff;"/>
  </g>
  <g id="axes_1">
   <g id="patch_2">
    <path d="M 37.7 273.312 
L 394.82 273.312 
L 394.82 7.2 
L 37.7 7.2 
z
" style="fill:#ffffff;"/>
   </g>
   <g id="matplotlib.axis_1">
    <g id="xtick_1">
     <g id="line2d_1">
      <defs>
       <path d="M 0 0 
L 0 3.5 
" id="m03c0697df3" style="stroke:#000000;stroke-width:0.8;"/>
      </defs>
      <g>
       <use style="stroke:#000000;stroke-width:0.8;" x="53.932727" xlink:href="#m03c0697df3" y="273.312"/>
      </g>
     </g>
     <g id="text_1">
      <!-- 0 -->
      <defs>
       <path d="M 31.78125 66.40625 
Q 24.171875 66.40625 20.328125 58.90625 
Q 16.5 51.421875 16.5 36.375 
Q 16.5 21.390625 20.328125 13.890625 
Q 24.171875 6.390625 31.78125 6.390625 
Q 39.453125 6.390625 43.28125 13.890625 
Q 47.125 21.390625 47.125 36.375 
Q 47.125 51.421875 43.28125 58.90625 
Q 39.453125 66.40625 31.78125 66.40625 
z
M 31.78125 74.21875 
Q 44.046875 74.21875 50.515625 64.515625 
Q 56.984375 54.828125 56.984375 36.375 
Q 56.984375 17.96875 50.515625 8.265625 
Q 44.046875 -1.421875 31.78125 -1.421875 
Q 19.53125 -1.421875 13.0625 8.265625 
Q 6.59375 17.96875 6.59375 36.375 
Q 6.59375 54.828125 13.0625 64.515625 
Q 19.53125 74.21875 31.78125 74.21875 
z
" id="DejaVuSans-48"/>
      </defs>
      <g transform="translate(50.751477 287.910437)scale(0.1 -0.1)">
       <use xlink:href="#DejaVuSans-48"/>
      </g>
     </g>
    </g>
    <g id="xtick_2">
     <g id="line2d_2">
      <g>
       <use style="stroke:#000000;stroke-width:0.8;" x="130.142714" xlink:href="#m03c0697df3" y="273.312"/>
      </g>
     </g>
     <g id="text_2">
      <!-- 50 -->
      <defs>
       <path d="M 10.796875 72.90625 
L 49.515625 72.90625 
L 49.515625 64.59375 
L 19.828125 64.59375 
L 19.828125 46.734375 
Q 21.96875 47.46875 24.109375 47.828125 
Q 26.265625 48.1875 28.421875 48.1875 
Q 40.625 48.1875 47.75 41.5 
Q 54.890625 34.8125 54.890625 23.390625 
Q 54.890625 11.625 47.5625 5.09375 
Q 40.234375 -1.421875 26.90625 -1.421875 
Q 22.3125 -1.421875 17.546875 -0.640625 
Q 12.796875 0.140625 7.71875 1.703125 
L 7.71875 11.625 
Q 12.109375 9.234375 16.796875 8.0625 
Q 21.484375 6.890625 26.703125 6.890625 
Q 35.15625 6.890625 40.078125 11.328125 
Q 45.015625 15.765625 45.015625 23.390625 
Q 45.015625 31 40.078125 35.4375 
Q 35.15625 39.890625 26.703125 39.890625 
Q 22.75 39.890625 18.8125 39.015625 
Q 14.890625 38.140625 10.796875 36.28125 
z
" id="DejaVuSans-53"/>
      </defs>
      <g transform="translate(123.780214 287.910437)scale(0.1 -0.1)">
       <use xlink:href="#DejaVuSans-53"/>
       <use x="63.623047" xlink:href="#DejaVuSans-48"/>
      </g>
     </g>
    </g>
    <g id="xtick_3">
     <g id="line2d_3">
      <g>
       <use style="stroke:#000000;stroke-width:0.8;" x="206.352702" xlink:href="#m03c0697df3" y="273.312"/>
      </g>
     </g>
     <g id="text_3">
      <!-- 100 -->
      <defs>
       <path d="M 12.40625 8.296875 
L 28.515625 8.296875 
L 28.515625 63.921875 
L 10.984375 60.40625 
L 10.984375 69.390625 
L 28.421875 72.90625 
L 38.28125 72.90625 
L 38.28125 8.296875 
L 54.390625 8.296875 
L 54.390625 0 
L 12.40625 0 
z
" id="DejaVuSans-49"/>
      </defs>
      <g transform="translate(196.808952 287.910437)scale(0.1 -0.1)">
       <use xlink:href="#DejaVuSans-49"/>
       <use x="63.623047" xlink:href="#DejaVuSans-48"/>
       <use x="127.246094" xlink:href="#DejaVuSans-48"/>
      </g>
     </g>
    </g>
    <g id="xtick_4">
     <g id="line2d_4">
      <g>
       <use style="stroke:#000000;stroke-width:0.8;" x="282.562689" xlink:href="#m03c0697df3" y="273.312"/>
      </g>
     </g>
     <g id="text_4">
      <!-- 150 -->
      <g transform="translate(273.018939 287.910437)scale(0.1 -0.1)">
       <use xlink:href="#DejaVuSans-49"/>
       <use x="63.623047" xlink:href="#DejaVuSans-53"/>
       <use x="127.246094" xlink:href="#DejaVuSans-48"/>
      </g>
     </g>
    </g>
    <g id="xtick_5">
     <g id="line2d_5">
      <g>
       <use style="stroke:#000000;stroke-width:0.8;" x="358.772676" xlink:href="#m03c0697df3" y="273.312"/>
      </g>
     </g>
     <g id="text_5">
      <!-- 200 -->
      <defs>
       <path d="M 19.1875 8.296875 
L 53.609375 8.296875 
L 53.609375 0 
L 7.328125 0 
L 7.328125 8.296875 
Q 12.9375 14.109375 22.625 23.890625 
Q 32.328125 33.6875 34.8125 36.53125 
Q 39.546875 41.84375 41.421875 45.53125 
Q 43.3125 49.21875 43.3125 52.78125 
Q 43.3125 58.59375 39.234375 62.25 
Q 35.15625 65.921875 28.609375 65.921875 
Q 23.96875 65.921875 18.8125 64.3125 
Q 13.671875 62.703125 7.8125 59.421875 
L 7.8125 69.390625 
Q 13.765625 71.78125 18.9375 73 
Q 24.125 74.21875 28.421875 74.21875 
Q 39.75 74.21875 46.484375 68.546875 
Q 53.21875 62.890625 53.21875 53.421875 
Q 53.21875 48.921875 51.53125 44.890625 
Q 49.859375 40.875 45.40625 35.40625 
Q 44.1875 33.984375 37.640625 27.21875 
Q 31.109375 20.453125 19.1875 8.296875 
z
" id="DejaVuSans-50"/>
      </defs>
      <g transform="translate(349.228926 287.910437)scale(0.1 -0.1)">
       <use xlink:href="#DejaVuSans-50"/>
       <use x="63.623047" xlink:href="#DejaVuSans-48"/>
       <use x="127.246094" xlink:href="#DejaVuSans-48"/>
      </g>
     </g>
    </g>
    <g id="text_6">
     <!-- $ k $ -->
     <defs>
      <path d="M 18.3125 75.984375 
L 27.296875 75.984375 
L 18.703125 31.6875 
L 49.515625 54.6875 
L 61.1875 54.6875 
L 26.8125 28.515625 
L 51.90625 0 
L 41.015625 0 
L 17.671875 26.703125 
L 12.5 0 
L 3.515625 0 
z
" id="DejaVuSans-Oblique-107"/>
     </defs>
     <g transform="translate(213.36 301.588562)scale(0.1 -0.1)">
      <use transform="translate(0 0.015625)" xlink:href="#DejaVuSans-Oblique-107"/>
     </g>
    </g>
   </g>
   <g id="matplotlib.axis_2">
    <g id="ytick_1">
     <g id="line2d_6">
      <defs>
       <path d="M 0 0 
L -3.5 0 
" id="m1464d8346f" style="stroke:#000000;stroke-width:0.8;"/>
      </defs>
      <g>
       <use style="stroke:#000000;stroke-width:0.8;" x="37.7" xlink:href="#m1464d8346f" y="254.827829"/>
      </g>
     </g>
     <g id="text_7">
      <!-- $\mathdefault{10^{-5}}$ -->
      <defs>
       <path d="M 10.59375 35.5 
L 73.1875 35.5 
L 73.1875 27.203125 
L 10.59375 27.203125 
z
" id="DejaVuSans-8722"/>
      </defs>
      <g transform="translate(7.2 258.627048)scale(0.1 -0.1)">
       <use transform="translate(0 0.684375)" xlink:href="#DejaVuSans-49"/>
       <use transform="translate(63.623047 0.684375)" xlink:href="#DejaVuSans-48"/>
       <use transform="translate(128.203125 38.965625)scale(0.7)" xlink:href="#DejaVuSans-8722"/>
       <use transform="translate(186.855469 38.965625)scale(0.7)" xlink:href="#DejaVuSans-53"/>
      </g>
     </g>
    </g>
    <g id="ytick_2">
     <g id="line2d_7">
      <g>
       <use style="stroke:#000000;stroke-width:0.8;" x="37.7" xlink:href="#m1464d8346f" y="218.383771"/>
      </g>
     </g>
     <g id="text_8">
      <!-- $\mathdefault{10^{-4}}$ -->
      <defs>
       <path d="M 37.796875 64.3125 
L 12.890625 25.390625 
L 37.796875 25.390625 
z
M 35.203125 72.90625 
L 47.609375 72.90625 
L 47.609375 25.390625 
L 58.015625 25.390625 
L 58.015625 17.1875 
L 47.609375 17.1875 
L 47.609375 0 
L 37.796875 0 
L 37.796875 17.1875 
L 4.890625 17.1875 
L 4.890625 26.703125 
z
" id="DejaVuSans-52"/>
      </defs>
      <g transform="translate(7.2 222.18299)scale(0.1 -0.1)">
       <use transform="translate(0 0.684375)" xlink:href="#DejaVuSans-49"/>
       <use transform="translate(63.623047 0.684375)" xlink:href="#DejaVuSans-48"/>
       <use transform="translate(128.203125 38.965625)scale(0.7)" xlink:href="#DejaVuSans-8722"/>
       <use transform="translate(186.855469 38.965625)scale(0.7)" xlink:href="#DejaVuSans-52"/>
      </g>
     </g>
    </g>
    <g id="ytick_3">
     <g id="line2d_8">
      <g>
       <use style="stroke:#000000;stroke-width:0.8;" x="37.7" xlink:href="#m1464d8346f" y="181.939713"/>
      </g>
     </g>
     <g id="text_9">
      <!-- $\mathdefault{10^{-3}}$ -->
      <defs>
       <path d="M 40.578125 39.3125 
Q 47.65625 37.796875 51.625 33 
Q 55.609375 28.21875 55.609375 21.1875 
Q 55.609375 10.40625 48.1875 4.484375 
Q 40.765625 -1.421875 27.09375 -1.421875 
Q 22.515625 -1.421875 17.65625 -0.515625 
Q 12.796875 0.390625 7.625 2.203125 
L 7.625 11.71875 
Q 11.71875 9.328125 16.59375 8.109375 
Q 21.484375 6.890625 26.8125 6.890625 
Q 36.078125 6.890625 40.9375 10.546875 
Q 45.796875 14.203125 45.796875 21.1875 
Q 45.796875 27.640625 41.28125 31.265625 
Q 36.765625 34.90625 28.71875 34.90625 
L 20.21875 34.90625 
L 20.21875 43.015625 
L 29.109375 43.015625 
Q 36.375 43.015625 40.234375 45.921875 
Q 44.09375 48.828125 44.09375 54.296875 
Q 44.09375 59.90625 40.109375 62.90625 
Q 36.140625 65.921875 28.71875 65.921875 
Q 24.65625 65.921875 20.015625 65.03125 
Q 15.375 64.15625 9.8125 62.3125 
L 9.8125 71.09375 
Q 15.4375 72.65625 20.34375 73.4375 
Q 25.25 74.21875 29.59375 74.21875 
Q 40.828125 74.21875 47.359375 69.109375 
Q 53.90625 64.015625 53.90625 55.328125 
Q 53.90625 49.265625 50.4375 45.09375 
Q 46.96875 40.921875 40.578125 39.3125 
z
" id="DejaVuSans-51"/>
      </defs>
      <g transform="translate(7.2 185.738932)scale(0.1 -0.1)">
       <use transform="translate(0 0.765625)" xlink:href="#DejaVuSans-49"/>
       <use transform="translate(63.623047 0.765625)" xlink:href="#DejaVuSans-48"/>
       <use transform="translate(128.203125 39.046875)scale(0.7)" xlink:href="#DejaVuSans-8722"/>
       <use transform="translate(186.855469 39.046875)scale(0.7)" xlink:href="#DejaVuSans-51"/>
      </g>
     </g>
    </g>
    <g id="ytick_4">
     <g id="line2d_9">
      <g>
       <use style="stroke:#000000;stroke-width:0.8;" x="37.7" xlink:href="#m1464d8346f" y="145.495655"/>
      </g>
     </g>
     <g id="text_10">
      <!-- $\mathdefault{10^{-2}}$ -->
      <g transform="translate(7.2 149.294874)scale(0.1 -0.1)">
       <use transform="translate(0 0.765625)" xlink:href="#DejaVuSans-49"/>
       <use transform="translate(63.623047 0.765625)" xlink:href="#DejaVuSans-48"/>
       <use transform="translate(128.203125 39.046875)scale(0.7)" xlink:href="#DejaVuSans-8722"/>
       <use transform="translate(186.855469 39.046875)scale(0.7)" xlink:href="#DejaVuSans-50"/>
      </g>
     </g>
    </g>
    <g id="ytick_5">
     <g id="line2d_10">
      <g>
       <use style="stroke:#000000;stroke-width:0.8;" x="37.7" xlink:href="#m1464d8346f" y="109.051597"/>
      </g>
     </g>
     <g id="text_11">
      <!-- $\mathdefault{10^{-1}}$ -->
      <g transform="translate(7.2 112.850815)scale(0.1 -0.1)">
       <use transform="translate(0 0.684375)" xlink:href="#DejaVuSans-49"/>
       <use transform="translate(63.623047 0.684375)" xlink:href="#DejaVuSans-48"/>
       <use transform="translate(128.203125 38.965625)scale(0.7)" xlink:href="#DejaVuSans-8722"/>
       <use transform="translate(186.855469 38.965625)scale(0.7)" xlink:href="#DejaVuSans-49"/>
      </g>
     </g>
    </g>
    <g id="ytick_6">
     <g id="line2d_11">
      <g>
       <use style="stroke:#000000;stroke-width:0.8;" x="37.7" xlink:href="#m1464d8346f" y="72.607538"/>
      </g>
     </g>
     <g id="text_12">
      <!-- $\mathdefault{10^{0}}$ -->
      <g transform="translate(13.1 76.406757)scale(0.1 -0.1)">
       <use transform="translate(0 0.765625)" xlink:href="#DejaVuSans-49"/>
       <use transform="translate(63.623047 0.765625)" xlink:href="#DejaVuSans-48"/>
       <use transform="translate(128.203125 39.046875)scale(0.7)" xlink:href="#DejaVuSans-48"/>
      </g>
     </g>
    </g>
    <g id="ytick_7">
     <g id="line2d_12">
      <g>
       <use style="stroke:#000000;stroke-width:0.8;" x="37.7" xlink:href="#m1464d8346f" y="36.16348"/>
      </g>
     </g>
     <g id="text_13">
      <!-- $\mathdefault{10^{1}}$ -->
      <g transform="translate(13.1 39.962699)scale(0.1 -0.1)">
       <use transform="translate(0 0.684375)" xlink:href="#DejaVuSans-49"/>
       <use transform="translate(63.623047 0.684375)" xlink:href="#DejaVuSans-48"/>
       <use transform="translate(128.203125 38.965625)scale(0.7)" xlink:href="#DejaVuSans-49"/>
      </g>
     </g>
    </g>
    <g id="ytick_8">
     <g id="line2d_13">
      <defs>
       <path d="M 0 0 
L -2 0 
" id="m56cc696495" style="stroke:#000000;stroke-width:0.6;"/>
      </defs>
      <g>
       <use style="stroke:#000000;stroke-width:0.6;" x="37.7" xlink:href="#m56cc696495" y="269.330378"/>
      </g>
     </g>
    </g>
    <g id="ytick_9">
     <g id="line2d_14">
      <g>
       <use style="stroke:#000000;stroke-width:0.6;" x="37.7" xlink:href="#m56cc696495" y="265.798584"/>
      </g>
     </g>
    </g>
    <g id="ytick_10">
     <g id="line2d_15">
      <g>
       <use style="stroke:#000000;stroke-width:0.6;" x="37.7" xlink:href="#m56cc696495" y="262.912898"/>
      </g>
     </g>
    </g>
    <g id="ytick_11">
     <g id="line2d_16">
      <g>
       <use style="stroke:#000000;stroke-width:0.6;" x="37.7" xlink:href="#m56cc696495" y="260.473085"/>
      </g>
     </g>
    </g>
    <g id="ytick_12">
     <g id="line2d_17">
      <g>
       <use style="stroke:#000000;stroke-width:0.6;" x="37.7" xlink:href="#m56cc696495" y="258.359623"/>
      </g>
     </g>
    </g>
    <g id="ytick_13">
     <g id="line2d_18">
      <g>
       <use style="stroke:#000000;stroke-width:0.6;" x="37.7" xlink:href="#m56cc696495" y="256.495418"/>
      </g>
     </g>
    </g>
    <g id="ytick_14">
     <g id="line2d_19">
      <g>
       <use style="stroke:#000000;stroke-width:0.6;" x="37.7" xlink:href="#m56cc696495" y="243.857075"/>
      </g>
     </g>
    </g>
    <g id="ytick_15">
     <g id="line2d_20">
      <g>
       <use style="stroke:#000000;stroke-width:0.6;" x="37.7" xlink:href="#m56cc696495" y="237.439595"/>
      </g>
     </g>
    </g>
    <g id="ytick_16">
     <g id="line2d_21">
      <g>
       <use style="stroke:#000000;stroke-width:0.6;" x="37.7" xlink:href="#m56cc696495" y="232.88632"/>
      </g>
     </g>
    </g>
    <g id="ytick_17">
     <g id="line2d_22">
      <g>
       <use style="stroke:#000000;stroke-width:0.6;" x="37.7" xlink:href="#m56cc696495" y="229.354526"/>
      </g>
     </g>
    </g>
    <g id="ytick_18">
     <g id="line2d_23">
      <g>
       <use style="stroke:#000000;stroke-width:0.6;" x="37.7" xlink:href="#m56cc696495" y="226.46884"/>
      </g>
     </g>
    </g>
    <g id="ytick_19">
     <g id="line2d_24">
      <g>
       <use style="stroke:#000000;stroke-width:0.6;" x="37.7" xlink:href="#m56cc696495" y="224.029027"/>
      </g>
     </g>
    </g>
    <g id="ytick_20">
     <g id="line2d_25">
      <g>
       <use style="stroke:#000000;stroke-width:0.6;" x="37.7" xlink:href="#m56cc696495" y="221.915565"/>
      </g>
     </g>
    </g>
    <g id="ytick_21">
     <g id="line2d_26">
      <g>
       <use style="stroke:#000000;stroke-width:0.6;" x="37.7" xlink:href="#m56cc696495" y="220.05136"/>
      </g>
     </g>
    </g>
    <g id="ytick_22">
     <g id="line2d_27">
      <g>
       <use style="stroke:#000000;stroke-width:0.6;" x="37.7" xlink:href="#m56cc696495" y="207.413016"/>
      </g>
     </g>
    </g>
    <g id="ytick_23">
     <g id="line2d_28">
      <g>
       <use style="stroke:#000000;stroke-width:0.6;" x="37.7" xlink:href="#m56cc696495" y="200.995536"/>
      </g>
     </g>
    </g>
    <g id="ytick_24">
     <g id="line2d_29">
      <g>
       <use style="stroke:#000000;stroke-width:0.6;" x="37.7" xlink:href="#m56cc696495" y="196.442262"/>
      </g>
     </g>
    </g>
    <g id="ytick_25">
     <g id="line2d_30">
      <g>
       <use style="stroke:#000000;stroke-width:0.6;" x="37.7" xlink:href="#m56cc696495" y="192.910468"/>
      </g>
     </g>
    </g>
    <g id="ytick_26">
     <g id="line2d_31">
      <g>
       <use style="stroke:#000000;stroke-width:0.6;" x="37.7" xlink:href="#m56cc696495" y="190.024782"/>
      </g>
     </g>
    </g>
    <g id="ytick_27">
     <g id="line2d_32">
      <g>
       <use style="stroke:#000000;stroke-width:0.6;" x="37.7" xlink:href="#m56cc696495" y="187.584969"/>
      </g>
     </g>
    </g>
    <g id="ytick_28">
     <g id="line2d_33">
      <g>
       <use style="stroke:#000000;stroke-width:0.6;" x="37.7" xlink:href="#m56cc696495" y="185.471507"/>
      </g>
     </g>
    </g>
    <g id="ytick_29">
     <g id="line2d_34">
      <g>
       <use style="stroke:#000000;stroke-width:0.6;" x="37.7" xlink:href="#m56cc696495" y="183.607302"/>
      </g>
     </g>
    </g>
    <g id="ytick_30">
     <g id="line2d_35">
      <g>
       <use style="stroke:#000000;stroke-width:0.6;" x="37.7" xlink:href="#m56cc696495" y="170.968958"/>
      </g>
     </g>
    </g>
    <g id="ytick_31">
     <g id="line2d_36">
      <g>
       <use style="stroke:#000000;stroke-width:0.6;" x="37.7" xlink:href="#m56cc696495" y="164.551478"/>
      </g>
     </g>
    </g>
    <g id="ytick_32">
     <g id="line2d_37">
      <g>
       <use style="stroke:#000000;stroke-width:0.6;" x="37.7" xlink:href="#m56cc696495" y="159.998204"/>
      </g>
     </g>
    </g>
    <g id="ytick_33">
     <g id="line2d_38">
      <g>
       <use style="stroke:#000000;stroke-width:0.6;" x="37.7" xlink:href="#m56cc696495" y="156.466409"/>
      </g>
     </g>
    </g>
    <g id="ytick_34">
     <g id="line2d_39">
      <g>
       <use style="stroke:#000000;stroke-width:0.6;" x="37.7" xlink:href="#m56cc696495" y="153.580724"/>
      </g>
     </g>
    </g>
    <g id="ytick_35">
     <g id="line2d_40">
      <g>
       <use style="stroke:#000000;stroke-width:0.6;" x="37.7" xlink:href="#m56cc696495" y="151.140911"/>
      </g>
     </g>
    </g>
    <g id="ytick_36">
     <g id="line2d_41">
      <g>
       <use style="stroke:#000000;stroke-width:0.6;" x="37.7" xlink:href="#m56cc696495" y="149.027449"/>
      </g>
     </g>
    </g>
    <g id="ytick_37">
     <g id="line2d_42">
      <g>
       <use style="stroke:#000000;stroke-width:0.6;" x="37.7" xlink:href="#m56cc696495" y="147.163243"/>
      </g>
     </g>
    </g>
    <g id="ytick_38">
     <g id="line2d_43">
      <g>
       <use style="stroke:#000000;stroke-width:0.6;" x="37.7" xlink:href="#m56cc696495" y="134.5249"/>
      </g>
     </g>
    </g>
    <g id="ytick_39">
     <g id="line2d_44">
      <g>
       <use style="stroke:#000000;stroke-width:0.6;" x="37.7" xlink:href="#m56cc696495" y="128.10742"/>
      </g>
     </g>
    </g>
    <g id="ytick_40">
     <g id="line2d_45">
      <g>
       <use style="stroke:#000000;stroke-width:0.6;" x="37.7" xlink:href="#m56cc696495" y="123.554145"/>
      </g>
     </g>
    </g>
    <g id="ytick_41">
     <g id="line2d_46">
      <g>
       <use style="stroke:#000000;stroke-width:0.6;" x="37.7" xlink:href="#m56cc696495" y="120.022351"/>
      </g>
     </g>
    </g>
    <g id="ytick_42">
     <g id="line2d_47">
      <g>
       <use style="stroke:#000000;stroke-width:0.6;" x="37.7" xlink:href="#m56cc696495" y="117.136665"/>
      </g>
     </g>
    </g>
    <g id="ytick_43">
     <g id="line2d_48">
      <g>
       <use style="stroke:#000000;stroke-width:0.6;" x="37.7" xlink:href="#m56cc696495" y="114.696853"/>
      </g>
     </g>
    </g>
    <g id="ytick_44">
     <g id="line2d_49">
      <g>
       <use style="stroke:#000000;stroke-width:0.6;" x="37.7" xlink:href="#m56cc696495" y="112.583391"/>
      </g>
     </g>
    </g>
    <g id="ytick_45">
     <g id="line2d_50">
      <g>
       <use style="stroke:#000000;stroke-width:0.6;" x="37.7" xlink:href="#m56cc696495" y="110.719185"/>
      </g>
     </g>
    </g>
    <g id="ytick_46">
     <g id="line2d_51">
      <g>
       <use style="stroke:#000000;stroke-width:0.6;" x="37.7" xlink:href="#m56cc696495" y="98.080842"/>
      </g>
     </g>
    </g>
    <g id="ytick_47">
     <g id="line2d_52">
      <g>
       <use style="stroke:#000000;stroke-width:0.6;" x="37.7" xlink:href="#m56cc696495" y="91.663362"/>
      </g>
     </g>
    </g>
    <g id="ytick_48">
     <g id="line2d_53">
      <g>
       <use style="stroke:#000000;stroke-width:0.6;" x="37.7" xlink:href="#m56cc696495" y="87.110087"/>
      </g>
     </g>
    </g>
    <g id="ytick_49">
     <g id="line2d_54">
      <g>
       <use style="stroke:#000000;stroke-width:0.6;" x="37.7" xlink:href="#m56cc696495" y="83.578293"/>
      </g>
     </g>
    </g>
    <g id="ytick_50">
     <g id="line2d_55">
      <g>
       <use style="stroke:#000000;stroke-width:0.6;" x="37.7" xlink:href="#m56cc696495" y="80.692607"/>
      </g>
     </g>
    </g>
    <g id="ytick_51">
     <g id="line2d_56">
      <g>
       <use style="stroke:#000000;stroke-width:0.6;" x="37.7" xlink:href="#m56cc696495" y="78.252794"/>
      </g>
     </g>
    </g>
    <g id="ytick_52">
     <g id="line2d_57">
      <g>
       <use style="stroke:#000000;stroke-width:0.6;" x="37.7" xlink:href="#m56cc696495" y="76.139333"/>
      </g>
     </g>
    </g>
    <g id="ytick_53">
     <g id="line2d_58">
      <g>
       <use style="stroke:#000000;stroke-width:0.6;" x="37.7" xlink:href="#m56cc696495" y="74.275127"/>
      </g>
     </g>
    </g>
    <g id="ytick_54">
     <g id="line2d_59">
      <g>
       <use style="stroke:#000000;stroke-width:0.6;" x="37.7" xlink:href="#m56cc696495" y="61.636784"/>
      </g>
     </g>
    </g>
    <g id="ytick_55">
     <g id="line2d_60">
      <g>
       <use style="stroke:#000000;stroke-width:0.6;" x="37.7" xlink:href="#m56cc696495" y="55.219304"/>
      </g>
     </g>
    </g>
    <g id="ytick_56">
     <g id="line2d_61">
      <g>
       <use style="stroke:#000000;stroke-width:0.6;" x="37.7" xlink:href="#m56cc696495" y="50.666029"/>
      </g>
     </g>
    </g>
    <g id="ytick_57">
     <g id="line2d_62">
      <g>
       <use style="stroke:#000000;stroke-width:0.6;" x="37.7" xlink:href="#m56cc696495" y="47.134235"/>
      </g>
     </g>
    </g>
    <g id="ytick_58">
     <g id="line2d_63">
      <g>
       <use style="stroke:#000000;stroke-width:0.6;" x="37.7" xlink:href="#m56cc696495" y="44.248549"/>
      </g>
     </g>
    </g>
    <g id="ytick_59">
     <g id="line2d_64">
      <g>
       <use style="stroke:#000000;stroke-width:0.6;" x="37.7" xlink:href="#m56cc696495" y="41.808736"/>
      </g>
     </g>
    </g>
    <g id="ytick_60">
     <g id="line2d_65">
      <g>
       <use style="stroke:#000000;stroke-width:0.6;" x="37.7" xlink:href="#m56cc696495" y="39.695274"/>
      </g>
     </g>
    </g>
    <g id="ytick_61">
     <g id="line2d_66">
      <g>
       <use style="stroke:#000000;stroke-width:0.6;" x="37.7" xlink:href="#m56cc696495" y="37.831069"/>
      </g>
     </g>
    </g>
    <g id="ytick_62">
     <g id="line2d_67">
      <g>
       <use style="stroke:#000000;stroke-width:0.6;" x="37.7" xlink:href="#m56cc696495" y="25.192726"/>
      </g>
     </g>
    </g>
    <g id="ytick_63">
     <g id="line2d_68">
      <g>
       <use style="stroke:#000000;stroke-width:0.6;" x="37.7" xlink:href="#m56cc696495" y="18.775245"/>
      </g>
     </g>
    </g>
    <g id="ytick_64">
     <g id="line2d_69">
      <g>
       <use style="stroke:#000000;stroke-width:0.6;" x="37.7" xlink:href="#m56cc696495" y="14.221971"/>
      </g>
     </g>
    </g>
    <g id="ytick_65">
     <g id="line2d_70">
      <g>
       <use style="stroke:#000000;stroke-width:0.6;" x="37.7" xlink:href="#m56cc696495" y="10.690177"/>
      </g>
     </g>
    </g>
    <g id="ytick_66">
     <g id="line2d_71">
      <g>
       <use style="stroke:#000000;stroke-width:0.6;" x="37.7" xlink:href="#m56cc696495" y="7.804491"/>
      </g>
     </g>
    </g>
   </g>
   <g id="line2d_72">
    <path clip-path="url(#pda7fca1ef5)" d="M 53.932727 19.296 
L 55.456927 56.335349 
L 56.981127 83.902365 
L 60.029526 145.013494 
L 61.553726 173.603779 
L 63.077926 193.198245 
L 64.602125 186.561172 
L 66.126325 189.223094 
L 67.650525 186.191722 
L 69.174725 194.199078 
L 70.698924 200.612261 
L 72.223124 199.687225 
L 73.747324 203.035556 
L 75.271524 191.486325 
L 76.795723 203.779855 
L 78.319923 189.674204 
L 79.844123 192.029685 
L 81.368323 189.183551 
L 82.892522 195.66214 
L 84.416722 220.005251 
L 85.940922 226.320937 
L 87.465122 182.445776 
L 88.989321 203.093522 
L 90.513521 203.924818 
L 92.037721 213.436341 
L 93.561921 205.778511 
L 95.08612 178.048088 
L 96.61032 189.163588 
L 98.13452 178.975941 
L 99.65872 216.960551 
L 101.182919 183.181251 
L 102.707119 186.034967 
L 104.231319 190.028799 
L 105.755519 179.659004 
L 107.279718 189.582151 
L 108.803918 213.884635 
L 110.328118 188.290961 
L 111.852318 216.414832 
L 113.376517 201.217428 
L 114.900717 183.593861 
L 116.424917 201.021588 
L 117.949117 213.257129 
L 119.473316 217.622208 
L 120.997516 200.356474 
L 122.521716 185.019689 
L 124.045915 203.486921 
L 125.570115 204.775553 
L 127.094315 181.721124 
L 128.618515 196.295973 
L 130.142714 218.637374 
L 131.666914 189.847159 
L 133.191114 203.188039 
L 134.715314 210.894464 
L 136.239513 189.544575 
L 137.763713 240.312267 
L 139.287913 200.731532 
L 140.812113 186.379253 
L 142.336312 193.861352 
L 143.860512 196.873697 
L 145.384712 197.94467 
L 146.908912 186.827462 
L 148.433111 181.801599 
L 149.957311 190.904689 
L 151.481511 234.006941 
L 153.005711 181.851467 
L 154.52991 242.647843 
L 156.05411 200.174922 
L 157.57831 178.076794 
L 159.10251 180.668254 
L 160.626709 182.379517 
L 162.150909 201.63704 
L 163.675109 250.033241 
L 165.199309 194.717338 
L 166.723508 197.552059 
L 168.247708 227.036673 
L 169.771908 174.746844 
L 171.296108 199.085532 
L 172.820307 186.350122 
L 174.344507 192.467899 
L 175.868707 178.398734 
L 177.392907 201.505154 
L 178.917106 215.106988 
L 180.441306 221.875394 
L 181.965506 184.934795 
L 183.489706 224.407302 
L 185.013905 212.281563 
L 186.538105 191.078304 
L 188.062305 178.873105 
L 189.586504 206.747874 
L 191.110704 206.436984 
L 192.634904 181.332494 
L 194.159104 195.559527 
L 195.683303 180.961812 
L 197.207503 180.891564 
L 198.731703 242.691582 
L 200.255903 235.538011 
L 201.780102 190.087123 
L 203.304302 188.437654 
L 204.828502 216.56748 
L 206.352702 176.070937 
L 207.876901 250.872814 
L 209.401101 188.347271 
L 210.925301 191.031032 
L 212.449501 174.832622 
L 213.9737 208.512521 
L 215.4979 187.143974 
L 217.0221 206.682397 
L 218.5463 187.561937 
L 220.070499 188.619838 
L 221.594699 214.975319 
L 223.118899 208.529138 
L 224.643099 182.897599 
L 226.167298 200.927802 
L 227.691498 189.168791 
L 229.215698 190.758127 
L 230.739898 180.706805 
L 232.264097 187.417951 
L 233.788297 183.998096 
L 235.312497 215.420615 
L 236.836697 176.283223 
L 238.360896 208.779145 
L 239.885096 187.202029 
L 241.409296 212.948416 
L 242.933496 179.930205 
L 244.457695 192.51944 
L 245.981895 214.984237 
L 247.506095 208.288467 
L 249.030294 191.342771 
L 250.554494 192.687623 
L 252.078694 179.223365 
L 253.602894 181.871735 
L 255.127093 209.727473 
L 256.651293 207.712485 
L 258.175493 213.2073 
L 259.699693 178.204132 
L 261.223892 230.958518 
L 262.748092 201.06848 
L 264.272292 193.78387 
L 265.796492 199.836264 
L 267.320691 206.369551 
L 268.844891 215.997514 
L 270.369091 180.85246 
L 271.893291 191.847784 
L 273.41749 210.238954 
L 274.94169 222.256562 
L 276.46589 193.906391 
L 277.99009 192.774436 
L 279.514289 187.028376 
L 281.038489 214.187824 
L 282.562689 199.338095 
L 284.086889 232.429001 
L 285.611088 196.544889 
L 287.135288 172.151275 
L 288.659488 207.007171 
L 290.183688 209.562512 
L 291.707887 181.486836 
L 293.232087 188.194583 
L 294.756287 195.788012 
L 296.280487 181.116132 
L 297.804686 209.387797 
L 299.328886 194.701234 
L 300.853086 174.045273 
L 302.377286 205.182518 
L 303.901485 199.447145 
L 305.425685 192.604288 
L 306.949885 208.164335 
L 308.474085 179.438886 
L 309.998284 192.006951 
L 311.522484 178.772708 
L 313.046684 180.447376 
L 314.570883 203.371942 
L 316.095083 182.456584 
L 317.619283 178.511162 
L 319.143483 227.311867 
L 320.667682 193.021444 
L 322.191882 206.822681 
L 323.716082 217.066164 
L 325.240282 185.01516 
L 326.764481 183.816165 
L 328.288681 261.216 
L 329.812881 202.47244 
L 331.337081 229.530399 
L 332.86128 195.570639 
L 334.38548 207.142996 
L 335.90968 178.583303 
L 337.43388 206.889237 
L 338.958079 187.58332 
L 340.482279 187.991538 
L 342.006479 189.577527 
L 343.530679 187.378784 
L 345.054878 188.541052 
L 346.579078 193.083745 
L 348.103278 178.954143 
L 349.627478 199.573193 
L 351.151677 202.277362 
L 352.675877 186.532655 
L 354.200077 229.875614 
L 355.724277 189.576577 
L 357.248476 196.47844 
L 358.772676 217.564936 
L 360.296876 192.833378 
L 361.821076 184.351732 
L 363.345275 200.923559 
L 364.869475 209.834559 
L 366.393675 195.634158 
L 367.917875 203.529205 
L 369.442074 182.697968 
L 370.966274 179.289832 
L 372.490474 205.460974 
L 374.014673 176.925953 
L 375.538873 186.344615 
L 375.544139 311.86825 
L 375.544139 311.86825 
" style="fill:none;stroke:#1f77b4;stroke-linecap:square;stroke-width:1.5;"/>
    <defs>
     <path d="M 0 3 
C 0.795609 3 1.55874 2.683901 2.12132 2.12132 
C 2.683901 1.55874 3 0.795609 3 0 
C 3 -0.795609 2.683901 -1.55874 2.12132 -2.12132 
C 1.55874 -2.683901 0.795609 -3 0 -3 
C -0.795609 -3 -1.55874 -2.683901 -2.12132 -2.12132 
C -2.683901 -1.55874 -3 -0.795609 -3 0 
C -3 0.795609 -2.683901 1.55874 -2.12132 2.12132 
C -1.55874 2.683901 -0.795609 3 0 3 
z
" id="m83c092e716" style="stroke:#1f77b4;"/>
    </defs>
    <g clip-path="url(#pda7fca1ef5)">
     <use style="fill:#1f77b4;stroke:#1f77b4;" x="53.932727" xlink:href="#m83c092e716" y="19.296"/>
     <use style="fill:#1f77b4;stroke:#1f77b4;" x="55.456927" xlink:href="#m83c092e716" y="56.335349"/>
     <use style="fill:#1f77b4;stroke:#1f77b4;" x="56.981127" xlink:href="#m83c092e716" y="83.902365"/>
     <use style="fill:#1f77b4;stroke:#1f77b4;" x="58.505327" xlink:href="#m83c092e716" y="115.433406"/>
     <use style="fill:#1f77b4;stroke:#1f77b4;" x="60.029526" xlink:href="#m83c092e716" y="145.013494"/>
     <use style="fill:#1f77b4;stroke:#1f77b4;" x="61.553726" xlink:href="#m83c092e716" y="173.603779"/>
     <use style="fill:#1f77b4;stroke:#1f77b4;" x="63.077926" xlink:href="#m83c092e716" y="193.198245"/>
     <use style="fill:#1f77b4;stroke:#1f77b4;" x="64.602125" xlink:href="#m83c092e716" y="186.561172"/>
     <use style="fill:#1f77b4;stroke:#1f77b4;" x="66.126325" xlink:href="#m83c092e716" y="189.223094"/>
     <use style="fill:#1f77b4;stroke:#1f77b4;" x="67.650525" xlink:href="#m83c092e716" y="186.191722"/>
     <use style="fill:#1f77b4;stroke:#1f77b4;" x="69.174725" xlink:href="#m83c092e716" y="194.199078"/>
     <use style="fill:#1f77b4;stroke:#1f77b4;" x="70.698924" xlink:href="#m83c092e716" y="200.612261"/>
     <use style="fill:#1f77b4;stroke:#1f77b4;" x="72.223124" xlink:href="#m83c092e716" y="199.687225"/>
     <use style="fill:#1f77b4;stroke:#1f77b4;" x="73.747324" xlink:href="#m83c092e716" y="203.035556"/>
     <use style="fill:#1f77b4;stroke:#1f77b4;" x="75.271524" xlink:href="#m83c092e716" y="191.486325"/>
     <use style="fill:#1f77b4;stroke:#1f77b4;" x="76.795723" xlink:href="#m83c092e716" y="203.779855"/>
     <use style="fill:#1f77b4;stroke:#1f77b4;" x="78.319923" xlink:href="#m83c092e716" y="189.674204"/>
     <use style="fill:#1f77b4;stroke:#1f77b4;" x="79.844123" xlink:href="#m83c092e716" y="192.029685"/>
     <use style="fill:#1f77b4;stroke:#1f77b4;" x="81.368323" xlink:href="#m83c092e716" y="189.183551"/>
     <use style="fill:#1f77b4;stroke:#1f77b4;" x="82.892522" xlink:href="#m83c092e716" y="195.66214"/>
     <use style="fill:#1f77b4;stroke:#1f77b4;" x="84.416722" xlink:href="#m83c092e716" y="220.005251"/>
     <use style="fill:#1f77b4;stroke:#1f77b4;" x="85.940922" xlink:href="#m83c092e716" y="226.320937"/>
     <use style="fill:#1f77b4;stroke:#1f77b4;" x="87.465122" xlink:href="#m83c092e716" y="182.445776"/>
     <use style="fill:#1f77b4;stroke:#1f77b4;" x="88.989321" xlink:href="#m83c092e716" y="203.093522"/>
     <use style="fill:#1f77b4;stroke:#1f77b4;" x="90.513521" xlink:href="#m83c092e716" y="203.924818"/>
     <use style="fill:#1f77b4;stroke:#1f77b4;" x="92.037721" xlink:href="#m83c092e716" y="213.436341"/>
     <use style="fill:#1f77b4;stroke:#1f77b4;" x="93.561921" xlink:href="#m83c092e716" y="205.778511"/>
     <use style="fill:#1f77b4;stroke:#1f77b4;" x="95.08612" xlink:href="#m83c092e716" y="178.048088"/>
     <use style="fill:#1f77b4;stroke:#1f77b4;" x="96.61032" xlink:href="#m83c092e716" y="189.163588"/>
     <use style="fill:#1f77b4;stroke:#1f77b4;" x="98.13452" xlink:href="#m83c092e716" y="178.975941"/>
     <use style="fill:#1f77b4;stroke:#1f77b4;" x="99.65872" xlink:href="#m83c092e716" y="216.960551"/>
     <use style="fill:#1f77b4;stroke:#1f77b4;" x="101.182919" xlink:href="#m83c092e716" y="183.181251"/>
     <use style="fill:#1f77b4;stroke:#1f77b4;" x="102.707119" xlink:href="#m83c092e716" y="186.034967"/>
     <use style="fill:#1f77b4;stroke:#1f77b4;" x="104.231319" xlink:href="#m83c092e716" y="190.028799"/>
     <use style="fill:#1f77b4;stroke:#1f77b4;" x="105.755519" xlink:href="#m83c092e716" y="179.659004"/>
     <use style="fill:#1f77b4;stroke:#1f77b4;" x="107.279718" xlink:href="#m83c092e716" y="189.582151"/>
     <use style="fill:#1f77b4;stroke:#1f77b4;" x="108.803918" xlink:href="#m83c092e716" y="213.884635"/>
     <use style="fill:#1f77b4;stroke:#1f77b4;" x="110.328118" xlink:href="#m83c092e716" y="188.290961"/>
     <use style="fill:#1f77b4;stroke:#1f77b4;" x="111.852318" xlink:href="#m83c092e716" y="216.414832"/>
     <use style="fill:#1f77b4;stroke:#1f77b4;" x="113.376517" xlink:href="#m83c092e716" y="201.217428"/>
     <use style="fill:#1f77b4;stroke:#1f77b4;" x="114.900717" xlink:href="#m83c092e716" y="183.593861"/>
     <use style="fill:#1f77b4;stroke:#1f77b4;" x="116.424917" xlink:href="#m83c092e716" y="201.021588"/>
     <use style="fill:#1f77b4;stroke:#1f77b4;" x="117.949117" xlink:href="#m83c092e716" y="213.257129"/>
     <use style="fill:#1f77b4;stroke:#1f77b4;" x="119.473316" xlink:href="#m83c092e716" y="217.622208"/>
     <use style="fill:#1f77b4;stroke:#1f77b4;" x="120.997516" xlink:href="#m83c092e716" y="200.356474"/>
     <use style="fill:#1f77b4;stroke:#1f77b4;" x="122.521716" xlink:href="#m83c092e716" y="185.019689"/>
     <use style="fill:#1f77b4;stroke:#1f77b4;" x="124.045915" xlink:href="#m83c092e716" y="203.486921"/>
     <use style="fill:#1f77b4;stroke:#1f77b4;" x="125.570115" xlink:href="#m83c092e716" y="204.775553"/>
     <use style="fill:#1f77b4;stroke:#1f77b4;" x="127.094315" xlink:href="#m83c092e716" y="181.721124"/>
     <use style="fill:#1f77b4;stroke:#1f77b4;" x="128.618515" xlink:href="#m83c092e716" y="196.295973"/>
     <use style="fill:#1f77b4;stroke:#1f77b4;" x="130.142714" xlink:href="#m83c092e716" y="218.637374"/>
     <use style="fill:#1f77b4;stroke:#1f77b4;" x="131.666914" xlink:href="#m83c092e716" y="189.847159"/>
     <use style="fill:#1f77b4;stroke:#1f77b4;" x="133.191114" xlink:href="#m83c092e716" y="203.188039"/>
     <use style="fill:#1f77b4;stroke:#1f77b4;" x="134.715314" xlink:href="#m83c092e716" y="210.894464"/>
     <use style="fill:#1f77b4;stroke:#1f77b4;" x="136.239513" xlink:href="#m83c092e716" y="189.544575"/>
     <use style="fill:#1f77b4;stroke:#1f77b4;" x="137.763713" xlink:href="#m83c092e716" y="240.312267"/>
     <use style="fill:#1f77b4;stroke:#1f77b4;" x="139.287913" xlink:href="#m83c092e716" y="200.731532"/>
     <use style="fill:#1f77b4;stroke:#1f77b4;" x="140.812113" xlink:href="#m83c092e716" y="186.379253"/>
     <use style="fill:#1f77b4;stroke:#1f77b4;" x="142.336312" xlink:href="#m83c092e716" y="193.861352"/>
     <use style="fill:#1f77b4;stroke:#1f77b4;" x="143.860512" xlink:href="#m83c092e716" y="196.873697"/>
     <use style="fill:#1f77b4;stroke:#1f77b4;" x="145.384712" xlink:href="#m83c092e716" y="197.94467"/>
     <use style="fill:#1f77b4;stroke:#1f77b4;" x="146.908912" xlink:href="#m83c092e716" y="186.827462"/>
     <use style="fill:#1f77b4;stroke:#1f77b4;" x="148.433111" xlink:href="#m83c092e716" y="181.801599"/>
     <use style="fill:#1f77b4;stroke:#1f77b4;" x="149.957311" xlink:href="#m83c092e716" y="190.904689"/>
     <use style="fill:#1f77b4;stroke:#1f77b4;" x="151.481511" xlink:href="#m83c092e716" y="234.006941"/>
     <use style="fill:#1f77b4;stroke:#1f77b4;" x="153.005711" xlink:href="#m83c092e716" y="181.851467"/>
     <use style="fill:#1f77b4;stroke:#1f77b4;" x="154.52991" xlink:href="#m83c092e716" y="242.647843"/>
     <use style="fill:#1f77b4;stroke:#1f77b4;" x="156.05411" xlink:href="#m83c092e716" y="200.174922"/>
     <use style="fill:#1f77b4;stroke:#1f77b4;" x="157.57831" xlink:href="#m83c092e716" y="178.076794"/>
     <use style="fill:#1f77b4;stroke:#1f77b4;" x="159.10251" xlink:href="#m83c092e716" y="180.668254"/>
     <use style="fill:#1f77b4;stroke:#1f77b4;" x="160.626709" xlink:href="#m83c092e716" y="182.379517"/>
     <use style="fill:#1f77b4;stroke:#1f77b4;" x="162.150909" xlink:href="#m83c092e716" y="201.63704"/>
     <use style="fill:#1f77b4;stroke:#1f77b4;" x="163.675109" xlink:href="#m83c092e716" y="250.033241"/>
     <use style="fill:#1f77b4;stroke:#1f77b4;" x="165.199309" xlink:href="#m83c092e716" y="194.717338"/>
     <use style="fill:#1f77b4;stroke:#1f77b4;" x="166.723508" xlink:href="#m83c092e716" y="197.552059"/>
     <use style="fill:#1f77b4;stroke:#1f77b4;" x="168.247708" xlink:href="#m83c092e716" y="227.036673"/>
     <use style="fill:#1f77b4;stroke:#1f77b4;" x="169.771908" xlink:href="#m83c092e716" y="174.746844"/>
     <use style="fill:#1f77b4;stroke:#1f77b4;" x="171.296108" xlink:href="#m83c092e716" y="199.085532"/>
     <use style="fill:#1f77b4;stroke:#1f77b4;" x="172.820307" xlink:href="#m83c092e716" y="186.350122"/>
     <use style="fill:#1f77b4;stroke:#1f77b4;" x="174.344507" xlink:href="#m83c092e716" y="192.467899"/>
     <use style="fill:#1f77b4;stroke:#1f77b4;" x="175.868707" xlink:href="#m83c092e716" y="178.398734"/>
     <use style="fill:#1f77b4;stroke:#1f77b4;" x="177.392907" xlink:href="#m83c092e716" y="201.505154"/>
     <use style="fill:#1f77b4;stroke:#1f77b4;" x="178.917106" xlink:href="#m83c092e716" y="215.106988"/>
     <use style="fill:#1f77b4;stroke:#1f77b4;" x="180.441306" xlink:href="#m83c092e716" y="221.875394"/>
     <use style="fill:#1f77b4;stroke:#1f77b4;" x="181.965506" xlink:href="#m83c092e716" y="184.934795"/>
     <use style="fill:#1f77b4;stroke:#1f77b4;" x="183.489706" xlink:href="#m83c092e716" y="224.407302"/>
     <use style="fill:#1f77b4;stroke:#1f77b4;" x="185.013905" xlink:href="#m83c092e716" y="212.281563"/>
     <use style="fill:#1f77b4;stroke:#1f77b4;" x="186.538105" xlink:href="#m83c092e716" y="191.078304"/>
     <use style="fill:#1f77b4;stroke:#1f77b4;" x="188.062305" xlink:href="#m83c092e716" y="178.873105"/>
     <use style="fill:#1f77b4;stroke:#1f77b4;" x="189.586504" xlink:href="#m83c092e716" y="206.747874"/>
     <use style="fill:#1f77b4;stroke:#1f77b4;" x="191.110704" xlink:href="#m83c092e716" y="206.436984"/>
     <use style="fill:#1f77b4;stroke:#1f77b4;" x="192.634904" xlink:href="#m83c092e716" y="181.332494"/>
     <use style="fill:#1f77b4;stroke:#1f77b4;" x="194.159104" xlink:href="#m83c092e716" y="195.559527"/>
     <use style="fill:#1f77b4;stroke:#1f77b4;" x="195.683303" xlink:href="#m83c092e716" y="180.961812"/>
     <use style="fill:#1f77b4;stroke:#1f77b4;" x="197.207503" xlink:href="#m83c092e716" y="180.891564"/>
     <use style="fill:#1f77b4;stroke:#1f77b4;" x="198.731703" xlink:href="#m83c092e716" y="242.691582"/>
     <use style="fill:#1f77b4;stroke:#1f77b4;" x="200.255903" xlink:href="#m83c092e716" y="235.538011"/>
     <use style="fill:#1f77b4;stroke:#1f77b4;" x="201.780102" xlink:href="#m83c092e716" y="190.087123"/>
     <use style="fill:#1f77b4;stroke:#1f77b4;" x="203.304302" xlink:href="#m83c092e716" y="188.437654"/>
     <use style="fill:#1f77b4;stroke:#1f77b4;" x="204.828502" xlink:href="#m83c092e716" y="216.56748"/>
     <use style="fill:#1f77b4;stroke:#1f77b4;" x="206.352702" xlink:href="#m83c092e716" y="176.070937"/>
     <use style="fill:#1f77b4;stroke:#1f77b4;" x="207.876901" xlink:href="#m83c092e716" y="250.872814"/>
     <use style="fill:#1f77b4;stroke:#1f77b4;" x="209.401101" xlink:href="#m83c092e716" y="188.347271"/>
     <use style="fill:#1f77b4;stroke:#1f77b4;" x="210.925301" xlink:href="#m83c092e716" y="191.031032"/>
     <use style="fill:#1f77b4;stroke:#1f77b4;" x="212.449501" xlink:href="#m83c092e716" y="174.832622"/>
     <use style="fill:#1f77b4;stroke:#1f77b4;" x="213.9737" xlink:href="#m83c092e716" y="208.512521"/>
     <use style="fill:#1f77b4;stroke:#1f77b4;" x="215.4979" xlink:href="#m83c092e716" y="187.143974"/>
     <use style="fill:#1f77b4;stroke:#1f77b4;" x="217.0221" xlink:href="#m83c092e716" y="206.682397"/>
     <use style="fill:#1f77b4;stroke:#1f77b4;" x="218.5463" xlink:href="#m83c092e716" y="187.561937"/>
     <use style="fill:#1f77b4;stroke:#1f77b4;" x="220.070499" xlink:href="#m83c092e716" y="188.619838"/>
     <use style="fill:#1f77b4;stroke:#1f77b4;" x="221.594699" xlink:href="#m83c092e716" y="214.975319"/>
     <use style="fill:#1f77b4;stroke:#1f77b4;" x="223.118899" xlink:href="#m83c092e716" y="208.529138"/>
     <use style="fill:#1f77b4;stroke:#1f77b4;" x="224.643099" xlink:href="#m83c092e716" y="182.897599"/>
     <use style="fill:#1f77b4;stroke:#1f77b4;" x="226.167298" xlink:href="#m83c092e716" y="200.927802"/>
     <use style="fill:#1f77b4;stroke:#1f77b4;" x="227.691498" xlink:href="#m83c092e716" y="189.168791"/>
     <use style="fill:#1f77b4;stroke:#1f77b4;" x="229.215698" xlink:href="#m83c092e716" y="190.758127"/>
     <use style="fill:#1f77b4;stroke:#1f77b4;" x="230.739898" xlink:href="#m83c092e716" y="180.706805"/>
     <use style="fill:#1f77b4;stroke:#1f77b4;" x="232.264097" xlink:href="#m83c092e716" y="187.417951"/>
     <use style="fill:#1f77b4;stroke:#1f77b4;" x="233.788297" xlink:href="#m83c092e716" y="183.998096"/>
     <use style="fill:#1f77b4;stroke:#1f77b4;" x="235.312497" xlink:href="#m83c092e716" y="215.420615"/>
     <use style="fill:#1f77b4;stroke:#1f77b4;" x="236.836697" xlink:href="#m83c092e716" y="176.283223"/>
     <use style="fill:#1f77b4;stroke:#1f77b4;" x="238.360896" xlink:href="#m83c092e716" y="208.779145"/>
     <use style="fill:#1f77b4;stroke:#1f77b4;" x="239.885096" xlink:href="#m83c092e716" y="187.202029"/>
     <use style="fill:#1f77b4;stroke:#1f77b4;" x="241.409296" xlink:href="#m83c092e716" y="212.948416"/>
     <use style="fill:#1f77b4;stroke:#1f77b4;" x="242.933496" xlink:href="#m83c092e716" y="179.930205"/>
     <use style="fill:#1f77b4;stroke:#1f77b4;" x="244.457695" xlink:href="#m83c092e716" y="192.51944"/>
     <use style="fill:#1f77b4;stroke:#1f77b4;" x="245.981895" xlink:href="#m83c092e716" y="214.984237"/>
     <use style="fill:#1f77b4;stroke:#1f77b4;" x="247.506095" xlink:href="#m83c092e716" y="208.288467"/>
     <use style="fill:#1f77b4;stroke:#1f77b4;" x="249.030294" xlink:href="#m83c092e716" y="191.342771"/>
     <use style="fill:#1f77b4;stroke:#1f77b4;" x="250.554494" xlink:href="#m83c092e716" y="192.687623"/>
     <use style="fill:#1f77b4;stroke:#1f77b4;" x="252.078694" xlink:href="#m83c092e716" y="179.223365"/>
     <use style="fill:#1f77b4;stroke:#1f77b4;" x="253.602894" xlink:href="#m83c092e716" y="181.871735"/>
     <use style="fill:#1f77b4;stroke:#1f77b4;" x="255.127093" xlink:href="#m83c092e716" y="209.727473"/>
     <use style="fill:#1f77b4;stroke:#1f77b4;" x="256.651293" xlink:href="#m83c092e716" y="207.712485"/>
     <use style="fill:#1f77b4;stroke:#1f77b4;" x="258.175493" xlink:href="#m83c092e716" y="213.2073"/>
     <use style="fill:#1f77b4;stroke:#1f77b4;" x="259.699693" xlink:href="#m83c092e716" y="178.204132"/>
     <use style="fill:#1f77b4;stroke:#1f77b4;" x="261.223892" xlink:href="#m83c092e716" y="230.958518"/>
     <use style="fill:#1f77b4;stroke:#1f77b4;" x="262.748092" xlink:href="#m83c092e716" y="201.06848"/>
     <use style="fill:#1f77b4;stroke:#1f77b4;" x="264.272292" xlink:href="#m83c092e716" y="193.78387"/>
     <use style="fill:#1f77b4;stroke:#1f77b4;" x="265.796492" xlink:href="#m83c092e716" y="199.836264"/>
     <use style="fill:#1f77b4;stroke:#1f77b4;" x="267.320691" xlink:href="#m83c092e716" y="206.369551"/>
     <use style="fill:#1f77b4;stroke:#1f77b4;" x="268.844891" xlink:href="#m83c092e716" y="215.997514"/>
     <use style="fill:#1f77b4;stroke:#1f77b4;" x="270.369091" xlink:href="#m83c092e716" y="180.85246"/>
     <use style="fill:#1f77b4;stroke:#1f77b4;" x="271.893291" xlink:href="#m83c092e716" y="191.847784"/>
     <use style="fill:#1f77b4;stroke:#1f77b4;" x="273.41749" xlink:href="#m83c092e716" y="210.238954"/>
     <use style="fill:#1f77b4;stroke:#1f77b4;" x="274.94169" xlink:href="#m83c092e716" y="222.256562"/>
     <use style="fill:#1f77b4;stroke:#1f77b4;" x="276.46589" xlink:href="#m83c092e716" y="193.906391"/>
     <use style="fill:#1f77b4;stroke:#1f77b4;" x="277.99009" xlink:href="#m83c092e716" y="192.774436"/>
     <use style="fill:#1f77b4;stroke:#1f77b4;" x="279.514289" xlink:href="#m83c092e716" y="187.028376"/>
     <use style="fill:#1f77b4;stroke:#1f77b4;" x="281.038489" xlink:href="#m83c092e716" y="214.187824"/>
     <use style="fill:#1f77b4;stroke:#1f77b4;" x="282.562689" xlink:href="#m83c092e716" y="199.338095"/>
     <use style="fill:#1f77b4;stroke:#1f77b4;" x="284.086889" xlink:href="#m83c092e716" y="232.429001"/>
     <use style="fill:#1f77b4;stroke:#1f77b4;" x="285.611088" xlink:href="#m83c092e716" y="196.544889"/>
     <use style="fill:#1f77b4;stroke:#1f77b4;" x="287.135288" xlink:href="#m83c092e716" y="172.151275"/>
     <use style="fill:#1f77b4;stroke:#1f77b4;" x="288.659488" xlink:href="#m83c092e716" y="207.007171"/>
     <use style="fill:#1f77b4;stroke:#1f77b4;" x="290.183688" xlink:href="#m83c092e716" y="209.562512"/>
     <use style="fill:#1f77b4;stroke:#1f77b4;" x="291.707887" xlink:href="#m83c092e716" y="181.486836"/>
     <use style="fill:#1f77b4;stroke:#1f77b4;" x="293.232087" xlink:href="#m83c092e716" y="188.194583"/>
     <use style="fill:#1f77b4;stroke:#1f77b4;" x="294.756287" xlink:href="#m83c092e716" y="195.788012"/>
     <use style="fill:#1f77b4;stroke:#1f77b4;" x="296.280487" xlink:href="#m83c092e716" y="181.116132"/>
     <use style="fill:#1f77b4;stroke:#1f77b4;" x="297.804686" xlink:href="#m83c092e716" y="209.387797"/>
     <use style="fill:#1f77b4;stroke:#1f77b4;" x="299.328886" xlink:href="#m83c092e716" y="194.701234"/>
     <use style="fill:#1f77b4;stroke:#1f77b4;" x="300.853086" xlink:href="#m83c092e716" y="174.045273"/>
     <use style="fill:#1f77b4;stroke:#1f77b4;" x="302.377286" xlink:href="#m83c092e716" y="205.182518"/>
     <use style="fill:#1f77b4;stroke:#1f77b4;" x="303.901485" xlink:href="#m83c092e716" y="199.447145"/>
     <use style="fill:#1f77b4;stroke:#1f77b4;" x="305.425685" xlink:href="#m83c092e716" y="192.604288"/>
     <use style="fill:#1f77b4;stroke:#1f77b4;" x="306.949885" xlink:href="#m83c092e716" y="208.164335"/>
     <use style="fill:#1f77b4;stroke:#1f77b4;" x="308.474085" xlink:href="#m83c092e716" y="179.438886"/>
     <use style="fill:#1f77b4;stroke:#1f77b4;" x="309.998284" xlink:href="#m83c092e716" y="192.006951"/>
     <use style="fill:#1f77b4;stroke:#1f77b4;" x="311.522484" xlink:href="#m83c092e716" y="178.772708"/>
     <use style="fill:#1f77b4;stroke:#1f77b4;" x="313.046684" xlink:href="#m83c092e716" y="180.447376"/>
     <use style="fill:#1f77b4;stroke:#1f77b4;" x="314.570883" xlink:href="#m83c092e716" y="203.371942"/>
     <use style="fill:#1f77b4;stroke:#1f77b4;" x="316.095083" xlink:href="#m83c092e716" y="182.456584"/>
     <use style="fill:#1f77b4;stroke:#1f77b4;" x="317.619283" xlink:href="#m83c092e716" y="178.511162"/>
     <use style="fill:#1f77b4;stroke:#1f77b4;" x="319.143483" xlink:href="#m83c092e716" y="227.311867"/>
     <use style="fill:#1f77b4;stroke:#1f77b4;" x="320.667682" xlink:href="#m83c092e716" y="193.021444"/>
     <use style="fill:#1f77b4;stroke:#1f77b4;" x="322.191882" xlink:href="#m83c092e716" y="206.822681"/>
     <use style="fill:#1f77b4;stroke:#1f77b4;" x="323.716082" xlink:href="#m83c092e716" y="217.066164"/>
     <use style="fill:#1f77b4;stroke:#1f77b4;" x="325.240282" xlink:href="#m83c092e716" y="185.01516"/>
     <use style="fill:#1f77b4;stroke:#1f77b4;" x="326.764481" xlink:href="#m83c092e716" y="183.816165"/>
     <use style="fill:#1f77b4;stroke:#1f77b4;" x="328.288681" xlink:href="#m83c092e716" y="261.216"/>
     <use style="fill:#1f77b4;stroke:#1f77b4;" x="329.812881" xlink:href="#m83c092e716" y="202.47244"/>
     <use style="fill:#1f77b4;stroke:#1f77b4;" x="331.337081" xlink:href="#m83c092e716" y="229.530399"/>
     <use style="fill:#1f77b4;stroke:#1f77b4;" x="332.86128" xlink:href="#m83c092e716" y="195.570639"/>
     <use style="fill:#1f77b4;stroke:#1f77b4;" x="334.38548" xlink:href="#m83c092e716" y="207.142996"/>
     <use style="fill:#1f77b4;stroke:#1f77b4;" x="335.90968" xlink:href="#m83c092e716" y="178.583303"/>
     <use style="fill:#1f77b4;stroke:#1f77b4;" x="337.43388" xlink:href="#m83c092e716" y="206.889237"/>
     <use style="fill:#1f77b4;stroke:#1f77b4;" x="338.958079" xlink:href="#m83c092e716" y="187.58332"/>
     <use style="fill:#1f77b4;stroke:#1f77b4;" x="340.482279" xlink:href="#m83c092e716" y="187.991538"/>
     <use style="fill:#1f77b4;stroke:#1f77b4;" x="342.006479" xlink:href="#m83c092e716" y="189.577527"/>
     <use style="fill:#1f77b4;stroke:#1f77b4;" x="343.530679" xlink:href="#m83c092e716" y="187.378784"/>
     <use style="fill:#1f77b4;stroke:#1f77b4;" x="345.054878" xlink:href="#m83c092e716" y="188.541052"/>
     <use style="fill:#1f77b4;stroke:#1f77b4;" x="346.579078" xlink:href="#m83c092e716" y="193.083745"/>
     <use style="fill:#1f77b4;stroke:#1f77b4;" x="348.103278" xlink:href="#m83c092e716" y="178.954143"/>
     <use style="fill:#1f77b4;stroke:#1f77b4;" x="349.627478" xlink:href="#m83c092e716" y="199.573193"/>
     <use style="fill:#1f77b4;stroke:#1f77b4;" x="351.151677" xlink:href="#m83c092e716" y="202.277362"/>
     <use style="fill:#1f77b4;stroke:#1f77b4;" x="352.675877" xlink:href="#m83c092e716" y="186.532655"/>
     <use style="fill:#1f77b4;stroke:#1f77b4;" x="354.200077" xlink:href="#m83c092e716" y="229.875614"/>
     <use style="fill:#1f77b4;stroke:#1f77b4;" x="355.724277" xlink:href="#m83c092e716" y="189.576577"/>
     <use style="fill:#1f77b4;stroke:#1f77b4;" x="357.248476" xlink:href="#m83c092e716" y="196.47844"/>
     <use style="fill:#1f77b4;stroke:#1f77b4;" x="358.772676" xlink:href="#m83c092e716" y="217.564936"/>
     <use style="fill:#1f77b4;stroke:#1f77b4;" x="360.296876" xlink:href="#m83c092e716" y="192.833378"/>
     <use style="fill:#1f77b4;stroke:#1f77b4;" x="361.821076" xlink:href="#m83c092e716" y="184.351732"/>
     <use style="fill:#1f77b4;stroke:#1f77b4;" x="363.345275" xlink:href="#m83c092e716" y="200.923559"/>
     <use style="fill:#1f77b4;stroke:#1f77b4;" x="364.869475" xlink:href="#m83c092e716" y="209.834559"/>
     <use style="fill:#1f77b4;stroke:#1f77b4;" x="366.393675" xlink:href="#m83c092e716" y="195.634158"/>
     <use style="fill:#1f77b4;stroke:#1f77b4;" x="367.917875" xlink:href="#m83c092e716" y="203.529205"/>
     <use style="fill:#1f77b4;stroke:#1f77b4;" x="369.442074" xlink:href="#m83c092e716" y="182.697968"/>
     <use style="fill:#1f77b4;stroke:#1f77b4;" x="370.966274" xlink:href="#m83c092e716" y="179.289832"/>
     <use style="fill:#1f77b4;stroke:#1f77b4;" x="372.490474" xlink:href="#m83c092e716" y="205.460974"/>
     <use style="fill:#1f77b4;stroke:#1f77b4;" x="374.014673" xlink:href="#m83c092e716" y="176.925953"/>
     <use style="fill:#1f77b4;stroke:#1f77b4;" x="375.538873" xlink:href="#m83c092e716" y="186.344615"/>
     <use style="fill:#1f77b4;stroke:#1f77b4;" x="376.470132" xlink:href="#m83c092e716" y="22383.514"/>
    </g>
   </g>
   <g id="line2d_73">
    <path clip-path="url(#pda7fca1ef5)" d="M 55.456927 56.335349 
L 56.981127 83.902365 
L 58.505327 115.433406 
L 60.029526 145.013494 
L 61.553726 173.603779 
" style="fill:none;stroke:#2ca02c;stroke-dasharray:1.5,2.475;stroke-dashoffset:0;stroke-width:1.5;"/>
    <defs>
     <path d="M -3 3 
L 3 -3 
M -3 -3 
L 3 3 
" id="m8cd3faa595" style="stroke:#2ca02c;"/>
    </defs>
    <g clip-path="url(#pda7fca1ef5)">
     <use style="fill:#2ca02c;stroke:#2ca02c;" x="55.456927" xlink:href="#m8cd3faa595" y="56.335349"/>
     <use style="fill:#2ca02c;stroke:#2ca02c;" x="56.981127" xlink:href="#m8cd3faa595" y="83.902365"/>
     <use style="fill:#2ca02c;stroke:#2ca02c;" x="58.505327" xlink:href="#m8cd3faa595" y="115.433406"/>
     <use style="fill:#2ca02c;stroke:#2ca02c;" x="60.029526" xlink:href="#m8cd3faa595" y="145.013494"/>
     <use style="fill:#2ca02c;stroke:#2ca02c;" x="61.553726" xlink:href="#m8cd3faa595" y="173.603779"/>
    </g>
   </g>
   <g id="line2d_74">
    <path clip-path="url(#pda7fca1ef5)" d="M 55.456927 102.172338 
L 66.267704 311.86825 
L 66.267704 311.86825 
" style="fill:none;stroke:#000000;stroke-dasharray:5.55,2.4;stroke-dashoffset:0;stroke-width:1.5;"/>
   </g>
   <g id="patch_3">
    <path d="M 37.7 273.312 
L 37.7 7.2 
" style="fill:none;stroke:#000000;stroke-linecap:square;stroke-linejoin:miter;stroke-width:0.8;"/>
   </g>
   <g id="patch_4">
    <path d="M 394.82 273.312 
L 394.82 7.2 
" style="fill:none;stroke:#000000;stroke-linecap:square;stroke-linejoin:miter;stroke-width:0.8;"/>
   </g>
   <g id="patch_5">
    <path d="M 37.7 273.312 
L 394.82 273.312 
" style="fill:none;stroke:#000000;stroke-linecap:square;stroke-linejoin:miter;stroke-width:0.8;"/>
   </g>
   <g id="patch_6">
    <path d="M 37.7 7.2 
L 394.82 7.2 
" style="fill:none;stroke:#000000;stroke-linecap:square;stroke-linejoin:miter;stroke-width:0.8;"/>
   </g>
   <g id="legend_1">
    <g id="patch_7">
     <path d="M 287.02 59.25625 
L 387.82 59.25625 
Q 389.82 59.25625 389.82 57.25625 
L 389.82 14.2 
Q 389.82 12.2 387.82 12.2 
L 287.02 12.2 
Q 285.02 12.2 285.02 14.2 
L 285.02 57.25625 
Q 285.02 59.25625 287.02 59.25625 
z
" style="fill:#ffffff;opacity:0.8;"/>
    </g>
    <g id="line2d_75">
     <path d="M 289.02 20.298437 
L 309.02 20.298437 
" style="fill:none;stroke:#1f77b4;stroke-linecap:square;stroke-width:1.5;"/>
    </g>
    <g id="line2d_76">
     <g>
      <use style="fill:#1f77b4;stroke:#1f77b4;" x="299.02" xlink:href="#m83c092e716" y="20.298437"/>
     </g>
    </g>
    <g id="text_14">
     <!-- APD$_n$ - APD$_\infty$ -->
     <defs>
      <path d="M 34.1875 63.1875 
L 20.796875 26.90625 
L 47.609375 26.90625 
z
M 28.609375 72.90625 
L 39.796875 72.90625 
L 67.578125 0 
L 57.328125 0 
L 50.6875 18.703125 
L 17.828125 18.703125 
L 11.1875 0 
L 0.78125 0 
z
" id="DejaVuSans-65"/>
      <path d="M 19.671875 64.796875 
L 19.671875 37.40625 
L 32.078125 37.40625 
Q 38.96875 37.40625 42.71875 40.96875 
Q 46.484375 44.53125 46.484375 51.125 
Q 46.484375 57.671875 42.71875 61.234375 
Q 38.96875 64.796875 32.078125 64.796875 
z
M 9.8125 72.90625 
L 32.078125 72.90625 
Q 44.34375 72.90625 50.609375 67.359375 
Q 56.890625 61.8125 56.890625 51.125 
Q 56.890625 40.328125 50.609375 34.8125 
Q 44.34375 29.296875 32.078125 29.296875 
L 19.671875 29.296875 
L 19.671875 0 
L 9.8125 0 
z
" id="DejaVuSans-80"/>
      <path d="M 19.671875 64.796875 
L 19.671875 8.109375 
L 31.59375 8.109375 
Q 46.6875 8.109375 53.6875 14.9375 
Q 60.6875 21.78125 60.6875 36.53125 
Q 60.6875 51.171875 53.6875 57.984375 
Q 46.6875 64.796875 31.59375 64.796875 
z
M 9.8125 72.90625 
L 30.078125 72.90625 
Q 51.265625 72.90625 61.171875 64.09375 
Q 71.09375 55.28125 71.09375 36.53125 
Q 71.09375 17.671875 61.125 8.828125 
Q 51.171875 0 30.078125 0 
L 9.8125 0 
z
" id="DejaVuSans-68"/>
      <path d="M 55.71875 33.015625 
L 49.3125 0 
L 40.28125 0 
L 46.6875 32.671875 
Q 47.125 34.96875 47.359375 36.71875 
Q 47.609375 38.484375 47.609375 39.5 
Q 47.609375 43.609375 45.015625 45.890625 
Q 42.4375 48.1875 37.796875 48.1875 
Q 30.5625 48.1875 25.34375 43.375 
Q 20.125 38.578125 18.5 30.328125 
L 12.5 0 
L 3.515625 0 
L 14.109375 54.6875 
L 23.09375 54.6875 
L 21.296875 46.09375 
Q 25.046875 50.828125 30.3125 53.40625 
Q 35.59375 56 41.40625 56 
Q 48.640625 56 52.609375 52.09375 
Q 56.59375 48.1875 56.59375 41.109375 
Q 56.59375 39.359375 56.375 37.359375 
Q 56.15625 35.359375 55.71875 33.015625 
z
" id="DejaVuSans-Oblique-110"/>
      <path id="DejaVuSans-32"/>
      <path d="M 4.890625 31.390625 
L 31.203125 31.390625 
L 31.203125 23.390625 
L 4.890625 23.390625 
z
" id="DejaVuSans-45"/>
      <path d="M 45.5625 17.046875 
Q 44.046875 18.796875 41.65625 22.90625 
Q 38.375 17.046875 35.5 14.453125 
Q 31.890625 11.328125 26.265625 11.328125 
Q 19.671875 11.328125 15.328125 16.265625 
Q 10.75 21.4375 10.75 29.984375 
Q 10.75 38.1875 15.328125 43.75 
Q 19.4375 48.6875 26.375 48.6875 
Q 29.9375 48.6875 32.5625 47.21875 
Q 35.640625 45.609375 37.75 42.828125 
Q 39.703125 40.328125 41.65625 36.96875 
Q 44.921875 42.828125 47.796875 45.40625 
Q 51.421875 48.53125 57.03125 48.53125 
Q 63.625 48.53125 67.96875 43.609375 
Q 72.5625 38.421875 72.5625 29.890625 
Q 72.5625 21.6875 67.96875 16.109375 
Q 63.875 11.1875 56.9375 11.1875 
Q 53.375 11.1875 50.734375 12.640625 
Q 48.09375 13.96875 45.5625 17.046875 
z
M 25.734375 17.71875 
Q 33.796875 17.71875 38.625 29.4375 
Q 32.421875 42.234375 25.734375 42.234375 
Q 20.84375 42.234375 18.359375 38.71875 
Q 15.671875 34.96875 15.671875 29.984375 
Q 15.671875 24.515625 18.359375 21.140625 
Q 21.09375 17.71875 25.734375 17.71875 
z
M 57.5625 42.140625 
Q 50.296875 42.140625 44.671875 30.421875 
Q 50.828125 17.625 57.5625 17.625 
Q 62.453125 17.625 64.9375 21.140625 
Q 67.625 24.90625 67.625 29.890625 
Q 67.625 35.359375 64.9375 38.71875 
Q 62.203125 42.140625 57.5625 42.140625 
z
" id="DejaVuSans-8734"/>
     </defs>
     <g transform="translate(317.02 23.798437)scale(0.1 -0.1)">
      <use transform="translate(0 0.09375)" xlink:href="#DejaVuSans-65"/>
      <use transform="translate(68.408203 0.09375)" xlink:href="#DejaVuSans-80"/>
      <use transform="translate(128.710938 0.09375)" xlink:href="#DejaVuSans-68"/>
      <use transform="translate(206.669922 -16.3125)scale(0.7)" xlink:href="#DejaVuSans-Oblique-110"/>
      <use transform="translate(253.769531 0.09375)" xlink:href="#DejaVuSans-32"/>
      <use transform="translate(285.556641 0.09375)" xlink:href="#DejaVuSans-45"/>
      <use transform="translate(321.640625 0.09375)" xlink:href="#DejaVuSans-32"/>
      <use transform="translate(353.427734 0.09375)" xlink:href="#DejaVuSans-65"/>
      <use transform="translate(421.835938 0.09375)" xlink:href="#DejaVuSans-80"/>
      <use transform="translate(482.138672 0.09375)" xlink:href="#DejaVuSans-68"/>
      <use transform="translate(560.097656 -16.3125)scale(0.7)" xlink:href="#DejaVuSans-8734"/>
     </g>
    </g>
    <g id="line2d_77">
     <path d="M 289.02 34.976562 
L 309.02 34.976562 
" style="fill:none;stroke:#2ca02c;stroke-dasharray:1.5,2.475;stroke-dashoffset:0;stroke-width:1.5;"/>
    </g>
    <g id="line2d_78">
     <g>
      <use style="fill:#2ca02c;stroke:#2ca02c;" x="299.02" xlink:href="#m8cd3faa595" y="34.976562"/>
     </g>
    </g>
    <g id="text_15">
     <!-- linear region -->
     <defs>
      <path d="M 9.421875 75.984375 
L 18.40625 75.984375 
L 18.40625 0 
L 9.421875 0 
z
" id="DejaVuSans-108"/>
      <path d="M 9.421875 54.6875 
L 18.40625 54.6875 
L 18.40625 0 
L 9.421875 0 
z
M 9.421875 75.984375 
L 18.40625 75.984375 
L 18.40625 64.59375 
L 9.421875 64.59375 
z
" id="DejaVuSans-105"/>
      <path d="M 54.890625 33.015625 
L 54.890625 0 
L 45.90625 0 
L 45.90625 32.71875 
Q 45.90625 40.484375 42.875 44.328125 
Q 39.84375 48.1875 33.796875 48.1875 
Q 26.515625 48.1875 22.3125 43.546875 
Q 18.109375 38.921875 18.109375 30.90625 
L 18.109375 0 
L 9.078125 0 
L 9.078125 54.6875 
L 18.109375 54.6875 
L 18.109375 46.1875 
Q 21.34375 51.125 25.703125 53.5625 
Q 30.078125 56 35.796875 56 
Q 45.21875 56 50.046875 50.171875 
Q 54.890625 44.34375 54.890625 33.015625 
z
" id="DejaVuSans-110"/>
      <path d="M 56.203125 29.59375 
L 56.203125 25.203125 
L 14.890625 25.203125 
Q 15.484375 15.921875 20.484375 11.0625 
Q 25.484375 6.203125 34.421875 6.203125 
Q 39.59375 6.203125 44.453125 7.46875 
Q 49.3125 8.734375 54.109375 11.28125 
L 54.109375 2.78125 
Q 49.265625 0.734375 44.1875 -0.34375 
Q 39.109375 -1.421875 33.890625 -1.421875 
Q 20.796875 -1.421875 13.15625 6.1875 
Q 5.515625 13.8125 5.515625 26.8125 
Q 5.515625 40.234375 12.765625 48.109375 
Q 20.015625 56 32.328125 56 
Q 43.359375 56 49.78125 48.890625 
Q 56.203125 41.796875 56.203125 29.59375 
z
M 47.21875 32.234375 
Q 47.125 39.59375 43.09375 43.984375 
Q 39.0625 48.390625 32.421875 48.390625 
Q 24.90625 48.390625 20.390625 44.140625 
Q 15.875 39.890625 15.1875 32.171875 
z
" id="DejaVuSans-101"/>
      <path d="M 34.28125 27.484375 
Q 23.390625 27.484375 19.1875 25 
Q 14.984375 22.515625 14.984375 16.5 
Q 14.984375 11.71875 18.140625 8.90625 
Q 21.296875 6.109375 26.703125 6.109375 
Q 34.1875 6.109375 38.703125 11.40625 
Q 43.21875 16.703125 43.21875 25.484375 
L 43.21875 27.484375 
z
M 52.203125 31.203125 
L 52.203125 0 
L 43.21875 0 
L 43.21875 8.296875 
Q 40.140625 3.328125 35.546875 0.953125 
Q 30.953125 -1.421875 24.3125 -1.421875 
Q 15.921875 -1.421875 10.953125 3.296875 
Q 6 8.015625 6 15.921875 
Q 6 25.140625 12.171875 29.828125 
Q 18.359375 34.515625 30.609375 34.515625 
L 43.21875 34.515625 
L 43.21875 35.40625 
Q 43.21875 41.609375 39.140625 45 
Q 35.0625 48.390625 27.6875 48.390625 
Q 23 48.390625 18.546875 47.265625 
Q 14.109375 46.140625 10.015625 43.890625 
L 10.015625 52.203125 
Q 14.9375 54.109375 19.578125 55.046875 
Q 24.21875 56 28.609375 56 
Q 40.484375 56 46.34375 49.84375 
Q 52.203125 43.703125 52.203125 31.203125 
z
" id="DejaVuSans-97"/>
      <path d="M 41.109375 46.296875 
Q 39.59375 47.171875 37.8125 47.578125 
Q 36.03125 48 33.890625 48 
Q 26.265625 48 22.1875 43.046875 
Q 18.109375 38.09375 18.109375 28.8125 
L 18.109375 0 
L 9.078125 0 
L 9.078125 54.6875 
L 18.109375 54.6875 
L 18.109375 46.1875 
Q 20.953125 51.171875 25.484375 53.578125 
Q 30.03125 56 36.53125 56 
Q 37.453125 56 38.578125 55.875 
Q 39.703125 55.765625 41.0625 55.515625 
z
" id="DejaVuSans-114"/>
      <path d="M 45.40625 27.984375 
Q 45.40625 37.75 41.375 43.109375 
Q 37.359375 48.484375 30.078125 48.484375 
Q 22.859375 48.484375 18.828125 43.109375 
Q 14.796875 37.75 14.796875 27.984375 
Q 14.796875 18.265625 18.828125 12.890625 
Q 22.859375 7.515625 30.078125 7.515625 
Q 37.359375 7.515625 41.375 12.890625 
Q 45.40625 18.265625 45.40625 27.984375 
z
M 54.390625 6.78125 
Q 54.390625 -7.171875 48.1875 -13.984375 
Q 42 -20.796875 29.203125 -20.796875 
Q 24.46875 -20.796875 20.265625 -20.09375 
Q 16.0625 -19.390625 12.109375 -17.921875 
L 12.109375 -9.1875 
Q 16.0625 -11.328125 19.921875 -12.34375 
Q 23.78125 -13.375 27.78125 -13.375 
Q 36.625 -13.375 41.015625 -8.765625 
Q 45.40625 -4.15625 45.40625 5.171875 
L 45.40625 9.625 
Q 42.625 4.78125 38.28125 2.390625 
Q 33.9375 0 27.875 0 
Q 17.828125 0 11.671875 7.65625 
Q 5.515625 15.328125 5.515625 27.984375 
Q 5.515625 40.671875 11.671875 48.328125 
Q 17.828125 56 27.875 56 
Q 33.9375 56 38.28125 53.609375 
Q 42.625 51.21875 45.40625 46.390625 
L 45.40625 54.6875 
L 54.390625 54.6875 
z
" id="DejaVuSans-103"/>
      <path d="M 30.609375 48.390625 
Q 23.390625 48.390625 19.1875 42.75 
Q 14.984375 37.109375 14.984375 27.296875 
Q 14.984375 17.484375 19.15625 11.84375 
Q 23.34375 6.203125 30.609375 6.203125 
Q 37.796875 6.203125 41.984375 11.859375 
Q 46.1875 17.53125 46.1875 27.296875 
Q 46.1875 37.015625 41.984375 42.703125 
Q 37.796875 48.390625 30.609375 48.390625 
z
M 30.609375 56 
Q 42.328125 56 49.015625 48.375 
Q 55.71875 40.765625 55.71875 27.296875 
Q 55.71875 13.875 49.015625 6.21875 
Q 42.328125 -1.421875 30.609375 -1.421875 
Q 18.84375 -1.421875 12.171875 6.21875 
Q 5.515625 13.875 5.515625 27.296875 
Q 5.515625 40.765625 12.171875 48.375 
Q 18.84375 56 30.609375 56 
z
" id="DejaVuSans-111"/>
     </defs>
     <g transform="translate(317.02 38.476562)scale(0.1 -0.1)">
      <use xlink:href="#DejaVuSans-108"/>
      <use x="27.783203" xlink:href="#DejaVuSans-105"/>
      <use x="55.566406" xlink:href="#DejaVuSans-110"/>
      <use x="118.945312" xlink:href="#DejaVuSans-101"/>
      <use x="180.46875" xlink:href="#DejaVuSans-97"/>
      <use x="241.748047" xlink:href="#DejaVuSans-114"/>
      <use x="282.861328" xlink:href="#DejaVuSans-32"/>
      <use x="314.648438" xlink:href="#DejaVuSans-114"/>
      <use x="353.511719" xlink:href="#DejaVuSans-101"/>
      <use x="415.035156" xlink:href="#DejaVuSans-103"/>
      <use x="478.511719" xlink:href="#DejaVuSans-105"/>
      <use x="506.294922" xlink:href="#DejaVuSans-111"/>
      <use x="567.476562" xlink:href="#DejaVuSans-110"/>
     </g>
    </g>
    <g id="line2d_79">
     <path d="M 289.02 49.65625 
L 309.02 49.65625 
" style="fill:none;stroke:#000000;stroke-dasharray:5.55,2.4;stroke-dashoffset:0;stroke-width:1.5;"/>
    </g>
    <g id="line2d_80"/>
    <g id="text_16">
     <!-- $ \exp(-1.868 k)$ -->
     <defs>
      <path d="M 54.890625 54.6875 
L 35.109375 28.078125 
L 55.90625 0 
L 45.3125 0 
L 29.390625 21.484375 
L 13.484375 0 
L 2.875 0 
L 24.125 28.609375 
L 4.6875 54.6875 
L 15.28125 54.6875 
L 29.78125 35.203125 
L 44.28125 54.6875 
z
" id="DejaVuSans-120"/>
      <path d="M 18.109375 8.203125 
L 18.109375 -20.796875 
L 9.078125 -20.796875 
L 9.078125 54.6875 
L 18.109375 54.6875 
L 18.109375 46.390625 
Q 20.953125 51.265625 25.265625 53.625 
Q 29.59375 56 35.59375 56 
Q 45.5625 56 51.78125 48.09375 
Q 58.015625 40.1875 58.015625 27.296875 
Q 58.015625 14.40625 51.78125 6.484375 
Q 45.5625 -1.421875 35.59375 -1.421875 
Q 29.59375 -1.421875 25.265625 0.953125 
Q 20.953125 3.328125 18.109375 8.203125 
z
M 48.6875 27.296875 
Q 48.6875 37.203125 44.609375 42.84375 
Q 40.53125 48.484375 33.40625 48.484375 
Q 26.265625 48.484375 22.1875 42.84375 
Q 18.109375 37.203125 18.109375 27.296875 
Q 18.109375 17.390625 22.1875 11.75 
Q 26.265625 6.109375 33.40625 6.109375 
Q 40.53125 6.109375 44.609375 11.75 
Q 48.6875 17.390625 48.6875 27.296875 
z
" id="DejaVuSans-112"/>
      <path d="M 31 75.875 
Q 24.46875 64.65625 21.28125 53.65625 
Q 18.109375 42.671875 18.109375 31.390625 
Q 18.109375 20.125 21.3125 9.0625 
Q 24.515625 -2 31 -13.1875 
L 23.1875 -13.1875 
Q 15.875 -1.703125 12.234375 9.375 
Q 8.59375 20.453125 8.59375 31.390625 
Q 8.59375 42.28125 12.203125 53.3125 
Q 15.828125 64.359375 23.1875 75.875 
z
" id="DejaVuSans-40"/>
      <path d="M 10.6875 12.40625 
L 21 12.40625 
L 21 0 
L 10.6875 0 
z
" id="DejaVuSans-46"/>
      <path d="M 31.78125 34.625 
Q 24.75 34.625 20.71875 30.859375 
Q 16.703125 27.09375 16.703125 20.515625 
Q 16.703125 13.921875 20.71875 10.15625 
Q 24.75 6.390625 31.78125 6.390625 
Q 38.8125 6.390625 42.859375 10.171875 
Q 46.921875 13.96875 46.921875 20.515625 
Q 46.921875 27.09375 42.890625 30.859375 
Q 38.875 34.625 31.78125 34.625 
z
M 21.921875 38.8125 
Q 15.578125 40.375 12.03125 44.71875 
Q 8.5 49.078125 8.5 55.328125 
Q 8.5 64.0625 14.71875 69.140625 
Q 20.953125 74.21875 31.78125 74.21875 
Q 42.671875 74.21875 48.875 69.140625 
Q 55.078125 64.0625 55.078125 55.328125 
Q 55.078125 49.078125 51.53125 44.71875 
Q 48 40.375 41.703125 38.8125 
Q 48.828125 37.15625 52.796875 32.3125 
Q 56.78125 27.484375 56.78125 20.515625 
Q 56.78125 9.90625 50.3125 4.234375 
Q 43.84375 -1.421875 31.78125 -1.421875 
Q 19.734375 -1.421875 13.25 4.234375 
Q 6.78125 9.90625 6.78125 20.515625 
Q 6.78125 27.484375 10.78125 32.3125 
Q 14.796875 37.15625 21.921875 38.8125 
z
M 18.3125 54.390625 
Q 18.3125 48.734375 21.84375 45.5625 
Q 25.390625 42.390625 31.78125 42.390625 
Q 38.140625 42.390625 41.71875 45.5625 
Q 45.3125 48.734375 45.3125 54.390625 
Q 45.3125 60.0625 41.71875 63.234375 
Q 38.140625 66.40625 31.78125 66.40625 
Q 25.390625 66.40625 21.84375 63.234375 
Q 18.3125 60.0625 18.3125 54.390625 
z
" id="DejaVuSans-56"/>
      <path d="M 33.015625 40.375 
Q 26.375 40.375 22.484375 35.828125 
Q 18.609375 31.296875 18.609375 23.390625 
Q 18.609375 15.53125 22.484375 10.953125 
Q 26.375 6.390625 33.015625 6.390625 
Q 39.65625 6.390625 43.53125 10.953125 
Q 47.40625 15.53125 47.40625 23.390625 
Q 47.40625 31.296875 43.53125 35.828125 
Q 39.65625 40.375 33.015625 40.375 
z
M 52.59375 71.296875 
L 52.59375 62.3125 
Q 48.875 64.0625 45.09375 64.984375 
Q 41.3125 65.921875 37.59375 65.921875 
Q 27.828125 65.921875 22.671875 59.328125 
Q 17.53125 52.734375 16.796875 39.40625 
Q 19.671875 43.65625 24.015625 45.921875 
Q 28.375 48.1875 33.59375 48.1875 
Q 44.578125 48.1875 50.953125 41.515625 
Q 57.328125 34.859375 57.328125 23.390625 
Q 57.328125 12.15625 50.6875 5.359375 
Q 44.046875 -1.421875 33.015625 -1.421875 
Q 20.359375 -1.421875 13.671875 8.265625 
Q 6.984375 17.96875 6.984375 36.375 
Q 6.984375 53.65625 15.1875 63.9375 
Q 23.390625 74.21875 37.203125 74.21875 
Q 40.921875 74.21875 44.703125 73.484375 
Q 48.484375 72.75 52.59375 71.296875 
z
" id="DejaVuSans-54"/>
      <path d="M 8.015625 75.875 
L 15.828125 75.875 
Q 23.140625 64.359375 26.78125 53.3125 
Q 30.421875 42.28125 30.421875 31.390625 
Q 30.421875 20.453125 26.78125 9.375 
Q 23.140625 -1.703125 15.828125 -13.1875 
L 8.015625 -13.1875 
Q 14.5 -2 17.703125 9.0625 
Q 20.90625 20.125 20.90625 31.390625 
Q 20.90625 42.671875 17.703125 53.65625 
Q 14.5 64.65625 8.015625 75.875 
z
" id="DejaVuSans-41"/>
     </defs>
     <g transform="translate(317.02 53.15625)scale(0.1 -0.1)">
      <use transform="translate(0 0.015625)" xlink:href="#DejaVuSans-101"/>
      <use transform="translate(61.523438 0.015625)" xlink:href="#DejaVuSans-120"/>
      <use transform="translate(120.703125 0.015625)" xlink:href="#DejaVuSans-112"/>
      <use transform="translate(184.179688 0.015625)" xlink:href="#DejaVuSans-40"/>
      <use transform="translate(223.193359 0.015625)" xlink:href="#DejaVuSans-8722"/>
      <use transform="translate(306.982422 0.015625)" xlink:href="#DejaVuSans-49"/>
      <use transform="translate(370.605469 0.015625)" xlink:href="#DejaVuSans-46"/>
      <use transform="translate(399.767578 0.015625)" xlink:href="#DejaVuSans-56"/>
      <use transform="translate(463.390625 0.015625)" xlink:href="#DejaVuSans-54"/>
      <use transform="translate(527.013672 0.015625)" xlink:href="#DejaVuSans-56"/>
      <use transform="translate(590.636719 0.015625)" xlink:href="#DejaVuSans-Oblique-107"/>
      <use transform="translate(648.546875 0.015625)" xlink:href="#DejaVuSans-41"/>
     </g>
    </g>
   </g>
  </g>
 </g>
 <defs>
  <clipPath id="pda7fca1ef5">
   <rect height="266.112" width="357.12" x="37.7" y="7.2"/>
  </clipPath>
 </defs>
</svg>
