<?xml version="1.0" encoding="utf-8" standalone="no"?>
<!DOCTYPE svg PUBLIC "-//W3C//DTD SVG 1.1//EN"
  "http://www.w3.org/Graphics/SVG/1.1/DTD/svg11.dtd">
<!-- Created with matplotlib (https://matplotlib.org/) -->
<svg height="310.86825pt" version="1.1" viewBox="0 0 402.02 310.86825" width="402.02pt" xmlns="http://www.w3.org/2000/svg" xmlns:xlink="http://www.w3.org/1999/xlink">
 <defs>
  <style type="text/css">
*{stroke-linecap:butt;stroke-linejoin:round;}
  </style>
 </defs>
 <g id="figure_1">
  <g id="patch_1">
   <path d="M 0 310.86825 
L 402.02 310.86825 
L 402.02 0 
L 0 0 
z
" style="fill:#ffffff;"/>
  </g>
  <g id="axes_1">
   <g id="patch_2">
    <path d="M 37.7 273.312 
L 394.82 273.312 
L 394.82 7.2 
L 37.7 7.2 
z
" style="fill:#ffffff;"/>
   </g>
   <g id="matplotlib.axis_1">
    <g id="xtick_1">
     <g id="line2d_1">
      <defs>
       <path d="M 0 0 
L 0 3.5 
" id="m3c77e6a11a" style="stroke:#000000;stroke-width:0.8;"/>
      </defs>
      <g>
       <use style="stroke:#000000;stroke-width:0.8;" x="53.932727" xlink:href="#m3c77e6a11a" y="273.312"/>
      </g>
     </g>
     <g id="text_1">
      <!-- 0 -->
      <defs>
       <path d="M 31.78125 66.40625 
Q 24.171875 66.40625 20.328125 58.90625 
Q 16.5 51.421875 16.5 36.375 
Q 16.5 21.390625 20.328125 13.890625 
Q 24.171875 6.390625 31.78125 6.390625 
Q 39.453125 6.390625 43.28125 13.890625 
Q 47.125 21.390625 47.125 36.375 
Q 47.125 51.421875 43.28125 58.90625 
Q 39.453125 66.40625 31.78125 66.40625 
z
M 31.78125 74.21875 
Q 44.046875 74.21875 50.515625 64.515625 
Q 56.984375 54.828125 56.984375 36.375 
Q 56.984375 17.96875 50.515625 8.265625 
Q 44.046875 -1.421875 31.78125 -1.421875 
Q 19.53125 -1.421875 13.0625 8.265625 
Q 6.59375 17.96875 6.59375 36.375 
Q 6.59375 54.828125 13.0625 64.515625 
Q 19.53125 74.21875 31.78125 74.21875 
z
" id="DejaVuSans-48"/>
      </defs>
      <g transform="translate(50.751477 287.910437)scale(0.1 -0.1)">
       <use xlink:href="#DejaVuSans-48"/>
      </g>
     </g>
    </g>
    <g id="xtick_2">
     <g id="line2d_2">
      <g>
       <use style="stroke:#000000;stroke-width:0.8;" x="93.816578" xlink:href="#m3c77e6a11a" y="273.312"/>
      </g>
     </g>
     <g id="text_2">
      <!-- 50 -->
      <defs>
       <path d="M 10.796875 72.90625 
L 49.515625 72.90625 
L 49.515625 64.59375 
L 19.828125 64.59375 
L 19.828125 46.734375 
Q 21.96875 47.46875 24.109375 47.828125 
Q 26.265625 48.1875 28.421875 48.1875 
Q 40.625 48.1875 47.75 41.5 
Q 54.890625 34.8125 54.890625 23.390625 
Q 54.890625 11.625 47.5625 5.09375 
Q 40.234375 -1.421875 26.90625 -1.421875 
Q 22.3125 -1.421875 17.546875 -0.640625 
Q 12.796875 0.140625 7.71875 1.703125 
L 7.71875 11.625 
Q 12.109375 9.234375 16.796875 8.0625 
Q 21.484375 6.890625 26.703125 6.890625 
Q 35.15625 6.890625 40.078125 11.328125 
Q 45.015625 15.765625 45.015625 23.390625 
Q 45.015625 31 40.078125 35.4375 
Q 35.15625 39.890625 26.703125 39.890625 
Q 22.75 39.890625 18.8125 39.015625 
Q 14.890625 38.140625 10.796875 36.28125 
z
" id="DejaVuSans-53"/>
      </defs>
      <g transform="translate(87.454078 287.910437)scale(0.1 -0.1)">
       <use xlink:href="#DejaVuSans-53"/>
       <use x="63.623047" xlink:href="#DejaVuSans-48"/>
      </g>
     </g>
    </g>
    <g id="xtick_3">
     <g id="line2d_3">
      <g>
       <use style="stroke:#000000;stroke-width:0.8;" x="133.700429" xlink:href="#m3c77e6a11a" y="273.312"/>
      </g>
     </g>
     <g id="text_3">
      <!-- 100 -->
      <defs>
       <path d="M 12.40625 8.296875 
L 28.515625 8.296875 
L 28.515625 63.921875 
L 10.984375 60.40625 
L 10.984375 69.390625 
L 28.421875 72.90625 
L 38.28125 72.90625 
L 38.28125 8.296875 
L 54.390625 8.296875 
L 54.390625 0 
L 12.40625 0 
z
" id="DejaVuSans-49"/>
      </defs>
      <g transform="translate(124.156679 287.910437)scale(0.1 -0.1)">
       <use xlink:href="#DejaVuSans-49"/>
       <use x="63.623047" xlink:href="#DejaVuSans-48"/>
       <use x="127.246094" xlink:href="#DejaVuSans-48"/>
      </g>
     </g>
    </g>
    <g id="xtick_4">
     <g id="line2d_4">
      <g>
       <use style="stroke:#000000;stroke-width:0.8;" x="173.58428" xlink:href="#m3c77e6a11a" y="273.312"/>
      </g>
     </g>
     <g id="text_4">
      <!-- 150 -->
      <g transform="translate(164.04053 287.910437)scale(0.1 -0.1)">
       <use xlink:href="#DejaVuSans-49"/>
       <use x="63.623047" xlink:href="#DejaVuSans-53"/>
       <use x="127.246094" xlink:href="#DejaVuSans-48"/>
      </g>
     </g>
    </g>
    <g id="xtick_5">
     <g id="line2d_5">
      <g>
       <use style="stroke:#000000;stroke-width:0.8;" x="213.46813" xlink:href="#m3c77e6a11a" y="273.312"/>
      </g>
     </g>
     <g id="text_5">
      <!-- 200 -->
      <defs>
       <path d="M 19.1875 8.296875 
L 53.609375 8.296875 
L 53.609375 0 
L 7.328125 0 
L 7.328125 8.296875 
Q 12.9375 14.109375 22.625 23.890625 
Q 32.328125 33.6875 34.8125 36.53125 
Q 39.546875 41.84375 41.421875 45.53125 
Q 43.3125 49.21875 43.3125 52.78125 
Q 43.3125 58.59375 39.234375 62.25 
Q 35.15625 65.921875 28.609375 65.921875 
Q 23.96875 65.921875 18.8125 64.3125 
Q 13.671875 62.703125 7.8125 59.421875 
L 7.8125 69.390625 
Q 13.765625 71.78125 18.9375 73 
Q 24.125 74.21875 28.421875 74.21875 
Q 39.75 74.21875 46.484375 68.546875 
Q 53.21875 62.890625 53.21875 53.421875 
Q 53.21875 48.921875 51.53125 44.890625 
Q 49.859375 40.875 45.40625 35.40625 
Q 44.1875 33.984375 37.640625 27.21875 
Q 31.109375 20.453125 19.1875 8.296875 
z
" id="DejaVuSans-50"/>
      </defs>
      <g transform="translate(203.92438 287.910437)scale(0.1 -0.1)">
       <use xlink:href="#DejaVuSans-50"/>
       <use x="63.623047" xlink:href="#DejaVuSans-48"/>
       <use x="127.246094" xlink:href="#DejaVuSans-48"/>
      </g>
     </g>
    </g>
    <g id="xtick_6">
     <g id="line2d_6">
      <g>
       <use style="stroke:#000000;stroke-width:0.8;" x="253.351981" xlink:href="#m3c77e6a11a" y="273.312"/>
      </g>
     </g>
     <g id="text_6">
      <!-- 250 -->
      <g transform="translate(243.808231 287.910437)scale(0.1 -0.1)">
       <use xlink:href="#DejaVuSans-50"/>
       <use x="63.623047" xlink:href="#DejaVuSans-53"/>
       <use x="127.246094" xlink:href="#DejaVuSans-48"/>
      </g>
     </g>
    </g>
    <g id="xtick_7">
     <g id="line2d_7">
      <g>
       <use style="stroke:#000000;stroke-width:0.8;" x="293.235832" xlink:href="#m3c77e6a11a" y="273.312"/>
      </g>
     </g>
     <g id="text_7">
      <!-- 300 -->
      <defs>
       <path d="M 40.578125 39.3125 
Q 47.65625 37.796875 51.625 33 
Q 55.609375 28.21875 55.609375 21.1875 
Q 55.609375 10.40625 48.1875 4.484375 
Q 40.765625 -1.421875 27.09375 -1.421875 
Q 22.515625 -1.421875 17.65625 -0.515625 
Q 12.796875 0.390625 7.625 2.203125 
L 7.625 11.71875 
Q 11.71875 9.328125 16.59375 8.109375 
Q 21.484375 6.890625 26.8125 6.890625 
Q 36.078125 6.890625 40.9375 10.546875 
Q 45.796875 14.203125 45.796875 21.1875 
Q 45.796875 27.640625 41.28125 31.265625 
Q 36.765625 34.90625 28.71875 34.90625 
L 20.21875 34.90625 
L 20.21875 43.015625 
L 29.109375 43.015625 
Q 36.375 43.015625 40.234375 45.921875 
Q 44.09375 48.828125 44.09375 54.296875 
Q 44.09375 59.90625 40.109375 62.90625 
Q 36.140625 65.921875 28.71875 65.921875 
Q 24.65625 65.921875 20.015625 65.03125 
Q 15.375 64.15625 9.8125 62.3125 
L 9.8125 71.09375 
Q 15.4375 72.65625 20.34375 73.4375 
Q 25.25 74.21875 29.59375 74.21875 
Q 40.828125 74.21875 47.359375 69.109375 
Q 53.90625 64.015625 53.90625 55.328125 
Q 53.90625 49.265625 50.4375 45.09375 
Q 46.96875 40.921875 40.578125 39.3125 
z
" id="DejaVuSans-51"/>
      </defs>
      <g transform="translate(283.692082 287.910437)scale(0.1 -0.1)">
       <use xlink:href="#DejaVuSans-51"/>
       <use x="63.623047" xlink:href="#DejaVuSans-48"/>
       <use x="127.246094" xlink:href="#DejaVuSans-48"/>
      </g>
     </g>
    </g>
    <g id="xtick_8">
     <g id="line2d_8">
      <g>
       <use style="stroke:#000000;stroke-width:0.8;" x="333.119683" xlink:href="#m3c77e6a11a" y="273.312"/>
      </g>
     </g>
     <g id="text_8">
      <!-- 350 -->
      <g transform="translate(323.575933 287.910437)scale(0.1 -0.1)">
       <use xlink:href="#DejaVuSans-51"/>
       <use x="63.623047" xlink:href="#DejaVuSans-53"/>
       <use x="127.246094" xlink:href="#DejaVuSans-48"/>
      </g>
     </g>
    </g>
    <g id="xtick_9">
     <g id="line2d_9">
      <g>
       <use style="stroke:#000000;stroke-width:0.8;" x="373.003534" xlink:href="#m3c77e6a11a" y="273.312"/>
      </g>
     </g>
     <g id="text_9">
      <!-- 400 -->
      <defs>
       <path d="M 37.796875 64.3125 
L 12.890625 25.390625 
L 37.796875 25.390625 
z
M 35.203125 72.90625 
L 47.609375 72.90625 
L 47.609375 25.390625 
L 58.015625 25.390625 
L 58.015625 17.1875 
L 47.609375 17.1875 
L 47.609375 0 
L 37.796875 0 
L 37.796875 17.1875 
L 4.890625 17.1875 
L 4.890625 26.703125 
z
" id="DejaVuSans-52"/>
      </defs>
      <g transform="translate(363.459784 287.910437)scale(0.1 -0.1)">
       <use xlink:href="#DejaVuSans-52"/>
       <use x="63.623047" xlink:href="#DejaVuSans-48"/>
       <use x="127.246094" xlink:href="#DejaVuSans-48"/>
      </g>
     </g>
    </g>
    <g id="text_10">
     <!-- $ k $ -->
     <defs>
      <path d="M 18.3125 75.984375 
L 27.296875 75.984375 
L 18.703125 31.6875 
L 49.515625 54.6875 
L 61.1875 54.6875 
L 26.8125 28.515625 
L 51.90625 0 
L 41.015625 0 
L 17.671875 26.703125 
L 12.5 0 
L 3.515625 0 
z
" id="DejaVuSans-Oblique-107"/>
     </defs>
     <g transform="translate(213.36 301.588562)scale(0.1 -0.1)">
      <use transform="translate(0 0.015625)" xlink:href="#DejaVuSans-Oblique-107"/>
     </g>
    </g>
   </g>
   <g id="matplotlib.axis_2">
    <g id="ytick_1">
     <g id="line2d_10">
      <defs>
       <path d="M 0 0 
L -3.5 0 
" id="mea13447807" style="stroke:#000000;stroke-width:0.8;"/>
      </defs>
      <g>
       <use style="stroke:#000000;stroke-width:0.8;" x="37.7" xlink:href="#mea13447807" y="222.322843"/>
      </g>
     </g>
     <g id="text_11">
      <!-- $\mathdefault{10^{-1}}$ -->
      <defs>
       <path d="M 10.59375 35.5 
L 73.1875 35.5 
L 73.1875 27.203125 
L 10.59375 27.203125 
z
" id="DejaVuSans-8722"/>
      </defs>
      <g transform="translate(7.2 226.122061)scale(0.1 -0.1)">
       <use transform="translate(0 0.684375)" xlink:href="#DejaVuSans-49"/>
       <use transform="translate(63.623047 0.684375)" xlink:href="#DejaVuSans-48"/>
       <use transform="translate(128.203125 38.965625)scale(0.7)" xlink:href="#DejaVuSans-8722"/>
       <use transform="translate(186.855469 38.965625)scale(0.7)" xlink:href="#DejaVuSans-49"/>
      </g>
     </g>
    </g>
    <g id="ytick_2">
     <g id="line2d_11">
      <g>
       <use style="stroke:#000000;stroke-width:0.8;" x="37.7" xlink:href="#mea13447807" y="161.844414"/>
      </g>
     </g>
     <g id="text_12">
      <!-- $\mathdefault{10^{0}}$ -->
      <g transform="translate(13.1 165.643633)scale(0.1 -0.1)">
       <use transform="translate(0 0.765625)" xlink:href="#DejaVuSans-49"/>
       <use transform="translate(63.623047 0.765625)" xlink:href="#DejaVuSans-48"/>
       <use transform="translate(128.203125 39.046875)scale(0.7)" xlink:href="#DejaVuSans-48"/>
      </g>
     </g>
    </g>
    <g id="ytick_3">
     <g id="line2d_12">
      <g>
       <use style="stroke:#000000;stroke-width:0.8;" x="37.7" xlink:href="#mea13447807" y="101.365985"/>
      </g>
     </g>
     <g id="text_13">
      <!-- $\mathdefault{10^{1}}$ -->
      <g transform="translate(13.1 105.165204)scale(0.1 -0.1)">
       <use transform="translate(0 0.684375)" xlink:href="#DejaVuSans-49"/>
       <use transform="translate(63.623047 0.684375)" xlink:href="#DejaVuSans-48"/>
       <use transform="translate(128.203125 38.965625)scale(0.7)" xlink:href="#DejaVuSans-49"/>
      </g>
     </g>
    </g>
    <g id="ytick_4">
     <g id="line2d_13">
      <g>
       <use style="stroke:#000000;stroke-width:0.8;" x="37.7" xlink:href="#mea13447807" y="40.887556"/>
      </g>
     </g>
     <g id="text_14">
      <!-- $\mathdefault{10^{2}}$ -->
      <g transform="translate(13.1 44.686775)scale(0.1 -0.1)">
       <use transform="translate(0 0.765625)" xlink:href="#DejaVuSans-49"/>
       <use transform="translate(63.623047 0.765625)" xlink:href="#DejaVuSans-48"/>
       <use transform="translate(128.203125 39.046875)scale(0.7)" xlink:href="#DejaVuSans-50"/>
      </g>
     </g>
    </g>
    <g id="ytick_5">
     <g id="line2d_14">
      <defs>
       <path d="M 0 0 
L -2 0 
" id="me08ee47397" style="stroke:#000000;stroke-width:0.6;"/>
      </defs>
      <g>
       <use style="stroke:#000000;stroke-width:0.6;" x="37.7" xlink:href="#me08ee47397" y="264.59545"/>
      </g>
     </g>
    </g>
    <g id="ytick_6">
     <g id="line2d_15">
      <g>
       <use style="stroke:#000000;stroke-width:0.6;" x="37.7" xlink:href="#me08ee47397" y="253.945728"/>
      </g>
     </g>
    </g>
    <g id="ytick_7">
     <g id="line2d_16">
      <g>
       <use style="stroke:#000000;stroke-width:0.6;" x="37.7" xlink:href="#me08ee47397" y="246.389629"/>
      </g>
     </g>
    </g>
    <g id="ytick_8">
     <g id="line2d_17">
      <g>
       <use style="stroke:#000000;stroke-width:0.6;" x="37.7" xlink:href="#me08ee47397" y="240.528664"/>
      </g>
     </g>
    </g>
    <g id="ytick_9">
     <g id="line2d_18">
      <g>
       <use style="stroke:#000000;stroke-width:0.6;" x="37.7" xlink:href="#me08ee47397" y="235.739906"/>
      </g>
     </g>
    </g>
    <g id="ytick_10">
     <g id="line2d_19">
      <g>
       <use style="stroke:#000000;stroke-width:0.6;" x="37.7" xlink:href="#me08ee47397" y="231.69107"/>
      </g>
     </g>
    </g>
    <g id="ytick_11">
     <g id="line2d_20">
      <g>
       <use style="stroke:#000000;stroke-width:0.6;" x="37.7" xlink:href="#me08ee47397" y="228.183808"/>
      </g>
     </g>
    </g>
    <g id="ytick_12">
     <g id="line2d_21">
      <g>
       <use style="stroke:#000000;stroke-width:0.6;" x="37.7" xlink:href="#me08ee47397" y="225.090184"/>
      </g>
     </g>
    </g>
    <g id="ytick_13">
     <g id="line2d_22">
      <g>
       <use style="stroke:#000000;stroke-width:0.6;" x="37.7" xlink:href="#me08ee47397" y="204.117022"/>
      </g>
     </g>
    </g>
    <g id="ytick_14">
     <g id="line2d_23">
      <g>
       <use style="stroke:#000000;stroke-width:0.6;" x="37.7" xlink:href="#me08ee47397" y="193.467299"/>
      </g>
     </g>
    </g>
    <g id="ytick_15">
     <g id="line2d_24">
      <g>
       <use style="stroke:#000000;stroke-width:0.6;" x="37.7" xlink:href="#me08ee47397" y="185.9112"/>
      </g>
     </g>
    </g>
    <g id="ytick_16">
     <g id="line2d_25">
      <g>
       <use style="stroke:#000000;stroke-width:0.6;" x="37.7" xlink:href="#me08ee47397" y="180.050235"/>
      </g>
     </g>
    </g>
    <g id="ytick_17">
     <g id="line2d_26">
      <g>
       <use style="stroke:#000000;stroke-width:0.6;" x="37.7" xlink:href="#me08ee47397" y="175.261478"/>
      </g>
     </g>
    </g>
    <g id="ytick_18">
     <g id="line2d_27">
      <g>
       <use style="stroke:#000000;stroke-width:0.6;" x="37.7" xlink:href="#me08ee47397" y="171.212641"/>
      </g>
     </g>
    </g>
    <g id="ytick_19">
     <g id="line2d_28">
      <g>
       <use style="stroke:#000000;stroke-width:0.6;" x="37.7" xlink:href="#me08ee47397" y="167.705379"/>
      </g>
     </g>
    </g>
    <g id="ytick_20">
     <g id="line2d_29">
      <g>
       <use style="stroke:#000000;stroke-width:0.6;" x="37.7" xlink:href="#me08ee47397" y="164.611755"/>
      </g>
     </g>
    </g>
    <g id="ytick_21">
     <g id="line2d_30">
      <g>
       <use style="stroke:#000000;stroke-width:0.6;" x="37.7" xlink:href="#me08ee47397" y="143.638593"/>
      </g>
     </g>
    </g>
    <g id="ytick_22">
     <g id="line2d_31">
      <g>
       <use style="stroke:#000000;stroke-width:0.6;" x="37.7" xlink:href="#me08ee47397" y="132.98887"/>
      </g>
     </g>
    </g>
    <g id="ytick_23">
     <g id="line2d_32">
      <g>
       <use style="stroke:#000000;stroke-width:0.6;" x="37.7" xlink:href="#me08ee47397" y="125.432772"/>
      </g>
     </g>
    </g>
    <g id="ytick_24">
     <g id="line2d_33">
      <g>
       <use style="stroke:#000000;stroke-width:0.6;" x="37.7" xlink:href="#me08ee47397" y="119.571806"/>
      </g>
     </g>
    </g>
    <g id="ytick_25">
     <g id="line2d_34">
      <g>
       <use style="stroke:#000000;stroke-width:0.6;" x="37.7" xlink:href="#me08ee47397" y="114.783049"/>
      </g>
     </g>
    </g>
    <g id="ytick_26">
     <g id="line2d_35">
      <g>
       <use style="stroke:#000000;stroke-width:0.6;" x="37.7" xlink:href="#me08ee47397" y="110.734212"/>
      </g>
     </g>
    </g>
    <g id="ytick_27">
     <g id="line2d_36">
      <g>
       <use style="stroke:#000000;stroke-width:0.6;" x="37.7" xlink:href="#me08ee47397" y="107.22695"/>
      </g>
     </g>
    </g>
    <g id="ytick_28">
     <g id="line2d_37">
      <g>
       <use style="stroke:#000000;stroke-width:0.6;" x="37.7" xlink:href="#me08ee47397" y="104.133326"/>
      </g>
     </g>
    </g>
    <g id="ytick_29">
     <g id="line2d_38">
      <g>
       <use style="stroke:#000000;stroke-width:0.6;" x="37.7" xlink:href="#me08ee47397" y="83.160164"/>
      </g>
     </g>
    </g>
    <g id="ytick_30">
     <g id="line2d_39">
      <g>
       <use style="stroke:#000000;stroke-width:0.6;" x="37.7" xlink:href="#me08ee47397" y="72.510441"/>
      </g>
     </g>
    </g>
    <g id="ytick_31">
     <g id="line2d_40">
      <g>
       <use style="stroke:#000000;stroke-width:0.6;" x="37.7" xlink:href="#me08ee47397" y="64.954343"/>
      </g>
     </g>
    </g>
    <g id="ytick_32">
     <g id="line2d_41">
      <g>
       <use style="stroke:#000000;stroke-width:0.6;" x="37.7" xlink:href="#me08ee47397" y="59.093378"/>
      </g>
     </g>
    </g>
    <g id="ytick_33">
     <g id="line2d_42">
      <g>
       <use style="stroke:#000000;stroke-width:0.6;" x="37.7" xlink:href="#me08ee47397" y="54.30462"/>
      </g>
     </g>
    </g>
    <g id="ytick_34">
     <g id="line2d_43">
      <g>
       <use style="stroke:#000000;stroke-width:0.6;" x="37.7" xlink:href="#me08ee47397" y="50.255784"/>
      </g>
     </g>
    </g>
    <g id="ytick_35">
     <g id="line2d_44">
      <g>
       <use style="stroke:#000000;stroke-width:0.6;" x="37.7" xlink:href="#me08ee47397" y="46.748522"/>
      </g>
     </g>
    </g>
    <g id="ytick_36">
     <g id="line2d_45">
      <g>
       <use style="stroke:#000000;stroke-width:0.6;" x="37.7" xlink:href="#me08ee47397" y="43.654897"/>
      </g>
     </g>
    </g>
    <g id="ytick_37">
     <g id="line2d_46">
      <g>
       <use style="stroke:#000000;stroke-width:0.6;" x="37.7" xlink:href="#me08ee47397" y="22.681735"/>
      </g>
     </g>
    </g>
    <g id="ytick_38">
     <g id="line2d_47">
      <g>
       <use style="stroke:#000000;stroke-width:0.6;" x="37.7" xlink:href="#me08ee47397" y="12.032013"/>
      </g>
     </g>
    </g>
   </g>
   <g id="line2d_48">
    <path clip-path="url(#p0dd5db4651)" d="M 53.932727 57.233607 
L 54.730404 86.802507 
L 55.528081 83.995721 
L 56.325758 82.717369 
L 57.123435 87.605801 
L 57.921112 77.499762 
L 58.718789 97.48001 
L 59.516466 66.657129 
L 60.314143 25.975154 
L 61.11182 24.847169 
L 61.909497 24.342386 
L 62.707174 81.389144 
L 63.504851 29.49212 
L 64.302528 139.285139 
L 65.100205 47.906994 
L 65.897883 95.989838 
L 66.69556 58.914937 
L 67.493237 37.708864 
L 68.290914 82.471767 
L 69.088591 32.165081 
L 69.886268 94.867084 
L 70.683945 37.01069 
L 71.481622 127.188081 
L 72.279299 92.785266 
L 73.076976 32.266408 
L 73.874653 89.197864 
L 74.67233 71.818127 
L 75.470007 24.014142 
L 76.267684 101.067932 
L 77.065361 35.561949 
L 77.863038 35.980426 
L 78.660715 37.809864 
L 79.458392 90.564429 
L 80.256069 33.155432 
L 81.053746 62.616386 
L 81.851423 29.669889 
L 82.6491 72.26056 
L 83.446777 26.853174 
L 84.244454 127.072394 
L 85.042131 41.39287 
L 85.839808 136.366402 
L 86.637485 40.844605 
L 87.435162 21.837285 
L 88.232839 89.720015 
L 89.030516 33.802117 
L 89.828193 99.20296 
L 90.62587 38.392765 
L 91.423547 132.728456 
L 92.221224 91.61647 
L 93.018901 31.913148 
L 93.816578 95.264584 
L 95.411932 29.161989 
L 96.209609 137.663454 
L 97.007286 85.015058 
L 97.804963 56.074141 
L 98.60264 74.930587 
L 99.400317 27.397662 
L 100.197994 131.241725 
L 100.995671 39.962796 
L 101.793348 24.372126 
L 102.591025 121.533095 
L 103.388702 82.237293 
L 104.186379 55.359346 
L 104.984056 75.579566 
L 105.781733 27.629102 
L 106.57941 142.877467 
L 107.377087 42.657244 
L 108.174764 188.485521 
L 108.972441 43.020221 
L 109.770118 19.541768 
L 110.567795 84.574772 
L 111.365472 30.500951 
L 112.163149 111.917917 
L 112.960826 56.498285 
L 113.758503 40.996966 
L 114.55618 81.456513 
L 115.353857 30.292487 
L 116.151535 94.635399 
L 116.949212 75.240826 
L 117.746889 102.50682 
L 119.342243 27.356094 
L 120.13992 112.243583 
L 120.937597 37.06984 
L 121.735274 31.083941 
L 122.532951 121.23558 
L 123.330628 91.822755 
L 124.128305 53.457188 
L 124.925982 74.148729 
L 125.723659 27.198693 
L 126.521336 128.070406 
L 127.319013 39.625888 
L 128.11669 24.827998 
L 128.914367 103.524434 
L 129.712044 93.70974 
L 130.509721 51.492039 
L 131.307398 74.395709 
L 132.105075 27.290217 
L 132.902752 132.937846 
L 133.700429 41.265078 
L 134.498106 23.320429 
L 135.295783 88.147087 
L 136.09346 31.220135 
L 136.891137 105.338595 
L 137.688814 56.159953 
L 138.486491 46.364088 
L 139.284168 94.523427 
L 140.081845 39.179174 
L 140.879522 73.619852 
L 141.677199 136.802473 
L 142.474876 39.339404 
L 143.272553 25.411328 
L 144.07023 96.051451 
L 144.867907 34.82655 
L 145.665584 38.51056 
L 146.463261 27.127668 
L 147.260938 71.447571 
L 148.058615 26.905434 
L 148.856292 110.706169 
L 149.653969 74.796841 
L 150.451646 27.378107 
L 151.249323 131.387233 
L 152.047 39.9422 
L 152.844677 24.39329 
L 153.642354 74.623237 
L 154.440031 27.424005 
L 155.237708 132.962578 
L 156.035385 40.650635 
L 156.833062 23.549628 
L 157.630739 90.154206 
L 158.428416 32.405298 
L 159.226093 81.43145 
L 160.02377 93.687081 
L 160.821447 73.60723 
L 161.619124 106.934737 
L 162.416801 60.733667 
L 163.214478 29.63453 
L 164.012155 170.552422 
L 164.809832 44.863605 
L 165.607509 76.667467 
L 166.405187 20.360083 
L 167.202864 75.601788 
L 168.000541 27.913318 
L 168.798218 122.871567 
L 169.595895 66.054793 
L 170.393572 104.198836 
L 171.988926 26.244372 
L 172.786603 109.808113 
L 173.58428 38.402586 
L 174.381957 108.404357 
L 175.179634 36.838753 
L 175.977311 31.305158 
L 176.774988 85.799457 
L 177.572665 32.739548 
L 178.370342 94.015941 
L 179.168019 35.34016 
L 179.965696 100.814677 
L 180.763373 37.032425 
L 181.56105 104.784318 
L 182.358727 36.9615 
L 183.156404 29.856045 
L 183.954081 117.188555 
L 184.751758 38.142362 
L 185.549435 27.907688 
L 186.347112 130.981844 
L 187.144789 72.81373 
L 187.942466 64.428664 
L 188.740143 161.559327 
L 190.335497 32.943438 
L 191.133174 83.281976 
L 191.930851 70.436132 
L 192.728528 24.745605 
L 193.526205 101.446329 
L 194.323882 99.879188 
L 195.121559 33.248357 
L 195.919236 79.127796 
L 196.716913 77.453385 
L 197.51459 20.762538 
L 198.312267 75.20244 
L 199.109944 27.644967 
L 199.907621 142.503311 
L 200.705298 42.473974 
L 201.502975 20.460173 
L 202.300652 55.623129 
L 203.098329 76.147633 
L 203.896006 28.116571 
L 204.693683 82.338084 
L 205.49136 29.864635 
L 206.289037 120.630882 
L 207.086714 53.816901 
L 207.884391 53.345972 
L 208.682068 100.199898 
L 209.479745 37.951383 
L 210.277422 111.73947 
L 211.075099 39.980071 
L 211.872776 125.475713 
L 212.670453 41.503478 
L 213.46813 137.918719 
L 214.265807 41.072777 
L 215.063484 21.464217 
L 215.861161 87.545292 
L 216.658839 32.23002 
L 217.456516 88.4874 
L 218.254193 31.622895 
L 219.05187 95.958678 
L 219.849547 66.978201 
L 220.647224 25.771577 
L 221.444901 108.663918 
L 222.242578 38.287116 
L 223.040255 107.581315 
L 223.837932 36.581034 
L 224.635609 32.585934 
L 225.433286 101.701255 
L 226.230963 103.436358 
L 227.02864 34.022874 
L 227.826317 66.54669 
L 228.623994 107.671629 
L 229.421671 93.520027 
L 230.219348 32.697014 
L 231.017025 83.509082 
L 231.814702 79.670694 
L 232.612379 20.020318 
L 233.410056 50.872074 
L 234.207733 74.635308 
L 235.00541 27.472782 
L 235.803087 139.850153 
L 236.600764 60.828627 
L 237.398441 148.993669 
L 238.196118 60.092054 
L 238.993795 153.982073 
L 239.791472 50.852809 
L 240.589149 49.143862 
L 241.386826 80.786008 
L 242.184503 32.605367 
L 242.98218 58.702279 
L 243.779857 98.039964 
L 244.577534 34.391199 
L 245.375211 56.374179 
L 246.172888 104.093469 
L 246.970565 39.736987 
L 247.768242 136.213777 
L 248.565919 47.347018 
L 249.363596 62.771399 
L 250.161273 104.688621 
L 250.95895 34.161135 
L 251.756627 65.510171 
L 252.554304 111.667587 
L 253.351981 93.832607 
L 254.149658 32.743322 
L 254.947335 83.112595 
L 255.745012 79.80672 
L 256.542689 19.895465 
L 257.340366 90.272291 
L 258.138043 31.933886 
L 258.93572 94.051485 
L 259.733397 65.873956 
L 260.531074 26.650494 
L 261.328751 80.573698 
L 262.126428 29.75765 
L 262.924105 94.348357 
L 263.721782 91.32118 
L 264.519459 31.807119 
L 265.317136 97.427152 
L 266.114813 60.197407 
L 266.912491 33.938917 
L 267.710168 77.418754 
L 268.507845 29.190262 
L 269.305522 69.651931 
L 270.103199 78.456388 
L 270.900876 28.355214 
L 271.698553 84.750919 
L 272.49623 19.296 
L 273.293907 75.740532 
L 274.091584 27.754949 
L 274.889261 165.893504 
L 275.686938 46.268835 
L 276.484615 96.762884 
L 277.282292 71.382474 
L 278.079969 116.675376 
L 278.877646 55.6616 
L 279.675323 41.112179 
L 280.473 166.362304 
L 281.270677 61.359101 
L 282.068354 155.102411 
L 282.866031 58.74054 
L 283.663708 130.647908 
L 284.461385 46.595491 
L 285.259062 69.420802 
L 286.056739 25.399678 
L 286.854416 130.984712 
L 287.652093 70.111848 
L 288.44977 66.786757 
L 289.247447 119.537753 
L 290.045124 40.492291 
L 290.842801 132.825484 
L 291.640478 63.355953 
L 292.438155 142.683834 
L 293.235832 57.219117 
L 294.033509 114.40661 
L 294.831186 40.596748 
L 295.628863 132.563771 
L 296.42654 42.222392 
L 297.224217 154.421891 
L 298.021894 42.004981 
L 298.819571 20.39576 
L 299.617248 86.000135 
L 300.414925 31.389599 
L 301.212602 73.18475 
L 302.010279 21.88009 
L 302.807956 96.769906 
L 303.605633 98.461852 
L 304.40331 32.763912 
L 305.200987 83.877331 
L 305.998664 80.033295 
L 306.796341 23.078852 
L 307.594018 29.575775 
L 308.391695 112.984465 
L 309.189372 37.586604 
L 309.987049 29.297188 
L 310.784726 125.390658 
L 311.582403 69.204945 
L 312.38008 67.238313 
L 313.177757 127.797737 
L 313.975434 44.482101 
L 314.773111 87.200046 
L 315.570788 32.145422 
L 316.368465 62.316952 
L 317.166143 102.808285 
L 317.96382 33.682083 
L 318.761497 73.808191 
L 319.559174 81.670643 
L 320.356851 20.162384 
L 321.154528 75.752485 
L 321.952205 27.896262 
L 322.749882 177.384109 
L 323.547559 46.776528 
L 324.345236 93.589087 
L 325.142913 74.042902 
L 325.94059 107.234495 
L 326.738267 60.111201 
L 327.535944 30.473482 
L 328.333621 126.375048 
L 329.131298 57.998451 
L 329.928975 32.370824 
L 330.726652 111.134411 
L 331.524329 52.202989 
L 332.322006 90.21911 
L 333.119683 31.607245 
L 333.91736 100.24327 
L 334.715037 59.67171 
L 335.512714 34.428959 
L 336.310391 77.230492 
L 337.108068 28.976701 
L 337.905745 84.781028 
L 338.703422 19.546135 
L 339.501099 76.395388 
L 340.298776 28.122377 
L 341.096453 114.324858 
L 341.89413 64.510351 
L 342.691807 173.785996 
L 343.489484 43.960889 
L 344.287161 63.303305 
L 345.084838 76.617178 
L 345.882515 27.738662 
L 346.680192 136.857592 
L 347.477869 40.315856 
L 348.275546 23.852276 
L 349.073223 74.199639 
L 349.8709 27.300965 
L 350.668577 130.554478 
L 351.466254 40.314325 
L 352.263931 23.970977 
L 353.061608 92.321523 
L 353.859285 33.483136 
L 354.656962 49.554321 
L 355.454639 73.211825 
L 356.252316 26.924428 
L 357.049993 128.864849 
L 357.84767 41.531731 
L 358.645347 139.989963 
L 359.443024 41.237172 
L 360.240701 21.224596 
L 361.038378 86.840286 
L 361.836055 31.801699 
L 362.633732 60.721913 
L 363.431409 105.906524 
L 364.229086 37.270854 
L 365.026763 156.600529 
L 365.82444 48.408931 
L 366.622117 87.850468 
L 367.419795 30.720362 
L 368.217472 111.778757 
L 369.015149 53.823838 
L 369.812826 58.810942 
L 370.610503 261.216 
L 371.40818 62.023639 
L 372.205857 139.575008 
L 373.003534 61.08678 
L 373.801211 171.711496 
L 374.598888 51.453899 
L 375.396565 49.129447 
L 376.194242 94.23531 
L 376.991919 48.595085 
L 376.995385 311.86825 
L 376.995385 311.86825 
" style="fill:none;stroke:#1f77b4;stroke-linecap:square;stroke-width:1.5;"/>
    <defs>
     <path d="M 0 3 
C 0.795609 3 1.55874 2.683901 2.12132 2.12132 
C 2.683901 1.55874 3 0.795609 3 0 
C 3 -0.795609 2.683901 -1.55874 2.12132 -2.12132 
C 1.55874 -2.683901 0.795609 -3 0 -3 
C -0.795609 -3 -1.55874 -2.683901 -2.12132 -2.12132 
C -2.683901 -1.55874 -3 -0.795609 -3 0 
C -3 0.795609 -2.683901 1.55874 -2.12132 2.12132 
C -1.55874 2.683901 -0.795609 3 0 3 
z
" id="m037dc96c3f" style="stroke:#1f77b4;"/>
    </defs>
    <g clip-path="url(#p0dd5db4651)">
     <use style="fill:#1f77b4;stroke:#1f77b4;" x="53.932727" xlink:href="#m037dc96c3f" y="57.233607"/>
     <use style="fill:#1f77b4;stroke:#1f77b4;" x="54.730404" xlink:href="#m037dc96c3f" y="86.802507"/>
     <use style="fill:#1f77b4;stroke:#1f77b4;" x="55.528081" xlink:href="#m037dc96c3f" y="83.995721"/>
     <use style="fill:#1f77b4;stroke:#1f77b4;" x="56.325758" xlink:href="#m037dc96c3f" y="82.717369"/>
     <use style="fill:#1f77b4;stroke:#1f77b4;" x="57.123435" xlink:href="#m037dc96c3f" y="87.605801"/>
     <use style="fill:#1f77b4;stroke:#1f77b4;" x="57.921112" xlink:href="#m037dc96c3f" y="77.499762"/>
     <use style="fill:#1f77b4;stroke:#1f77b4;" x="58.718789" xlink:href="#m037dc96c3f" y="97.48001"/>
     <use style="fill:#1f77b4;stroke:#1f77b4;" x="59.516466" xlink:href="#m037dc96c3f" y="66.657129"/>
     <use style="fill:#1f77b4;stroke:#1f77b4;" x="60.314143" xlink:href="#m037dc96c3f" y="25.975154"/>
     <use style="fill:#1f77b4;stroke:#1f77b4;" x="61.11182" xlink:href="#m037dc96c3f" y="24.847169"/>
     <use style="fill:#1f77b4;stroke:#1f77b4;" x="61.909497" xlink:href="#m037dc96c3f" y="24.342386"/>
     <use style="fill:#1f77b4;stroke:#1f77b4;" x="62.707174" xlink:href="#m037dc96c3f" y="81.389144"/>
     <use style="fill:#1f77b4;stroke:#1f77b4;" x="63.504851" xlink:href="#m037dc96c3f" y="29.49212"/>
     <use style="fill:#1f77b4;stroke:#1f77b4;" x="64.302528" xlink:href="#m037dc96c3f" y="139.285139"/>
     <use style="fill:#1f77b4;stroke:#1f77b4;" x="65.100205" xlink:href="#m037dc96c3f" y="47.906994"/>
     <use style="fill:#1f77b4;stroke:#1f77b4;" x="65.897883" xlink:href="#m037dc96c3f" y="95.989838"/>
     <use style="fill:#1f77b4;stroke:#1f77b4;" x="66.69556" xlink:href="#m037dc96c3f" y="58.914937"/>
     <use style="fill:#1f77b4;stroke:#1f77b4;" x="67.493237" xlink:href="#m037dc96c3f" y="37.708864"/>
     <use style="fill:#1f77b4;stroke:#1f77b4;" x="68.290914" xlink:href="#m037dc96c3f" y="82.471767"/>
     <use style="fill:#1f77b4;stroke:#1f77b4;" x="69.088591" xlink:href="#m037dc96c3f" y="32.165081"/>
     <use style="fill:#1f77b4;stroke:#1f77b4;" x="69.886268" xlink:href="#m037dc96c3f" y="94.867084"/>
     <use style="fill:#1f77b4;stroke:#1f77b4;" x="70.683945" xlink:href="#m037dc96c3f" y="37.01069"/>
     <use style="fill:#1f77b4;stroke:#1f77b4;" x="71.481622" xlink:href="#m037dc96c3f" y="127.188081"/>
     <use style="fill:#1f77b4;stroke:#1f77b4;" x="72.279299" xlink:href="#m037dc96c3f" y="92.785266"/>
     <use style="fill:#1f77b4;stroke:#1f77b4;" x="73.076976" xlink:href="#m037dc96c3f" y="32.266408"/>
     <use style="fill:#1f77b4;stroke:#1f77b4;" x="73.874653" xlink:href="#m037dc96c3f" y="89.197864"/>
     <use style="fill:#1f77b4;stroke:#1f77b4;" x="74.67233" xlink:href="#m037dc96c3f" y="71.818127"/>
     <use style="fill:#1f77b4;stroke:#1f77b4;" x="75.470007" xlink:href="#m037dc96c3f" y="24.014142"/>
     <use style="fill:#1f77b4;stroke:#1f77b4;" x="76.267684" xlink:href="#m037dc96c3f" y="101.067932"/>
     <use style="fill:#1f77b4;stroke:#1f77b4;" x="77.065361" xlink:href="#m037dc96c3f" y="35.561949"/>
     <use style="fill:#1f77b4;stroke:#1f77b4;" x="77.863038" xlink:href="#m037dc96c3f" y="35.980426"/>
     <use style="fill:#1f77b4;stroke:#1f77b4;" x="78.660715" xlink:href="#m037dc96c3f" y="37.809864"/>
     <use style="fill:#1f77b4;stroke:#1f77b4;" x="79.458392" xlink:href="#m037dc96c3f" y="90.564429"/>
     <use style="fill:#1f77b4;stroke:#1f77b4;" x="80.256069" xlink:href="#m037dc96c3f" y="33.155432"/>
     <use style="fill:#1f77b4;stroke:#1f77b4;" x="81.053746" xlink:href="#m037dc96c3f" y="62.616386"/>
     <use style="fill:#1f77b4;stroke:#1f77b4;" x="81.851423" xlink:href="#m037dc96c3f" y="29.669889"/>
     <use style="fill:#1f77b4;stroke:#1f77b4;" x="82.6491" xlink:href="#m037dc96c3f" y="72.26056"/>
     <use style="fill:#1f77b4;stroke:#1f77b4;" x="83.446777" xlink:href="#m037dc96c3f" y="26.853174"/>
     <use style="fill:#1f77b4;stroke:#1f77b4;" x="84.244454" xlink:href="#m037dc96c3f" y="127.072394"/>
     <use style="fill:#1f77b4;stroke:#1f77b4;" x="85.042131" xlink:href="#m037dc96c3f" y="41.39287"/>
     <use style="fill:#1f77b4;stroke:#1f77b4;" x="85.839808" xlink:href="#m037dc96c3f" y="136.366402"/>
     <use style="fill:#1f77b4;stroke:#1f77b4;" x="86.637485" xlink:href="#m037dc96c3f" y="40.844605"/>
     <use style="fill:#1f77b4;stroke:#1f77b4;" x="87.435162" xlink:href="#m037dc96c3f" y="21.837285"/>
     <use style="fill:#1f77b4;stroke:#1f77b4;" x="88.232839" xlink:href="#m037dc96c3f" y="89.720015"/>
     <use style="fill:#1f77b4;stroke:#1f77b4;" x="89.030516" xlink:href="#m037dc96c3f" y="33.802117"/>
     <use style="fill:#1f77b4;stroke:#1f77b4;" x="89.828193" xlink:href="#m037dc96c3f" y="99.20296"/>
     <use style="fill:#1f77b4;stroke:#1f77b4;" x="90.62587" xlink:href="#m037dc96c3f" y="38.392765"/>
     <use style="fill:#1f77b4;stroke:#1f77b4;" x="91.423547" xlink:href="#m037dc96c3f" y="132.728456"/>
     <use style="fill:#1f77b4;stroke:#1f77b4;" x="92.221224" xlink:href="#m037dc96c3f" y="91.61647"/>
     <use style="fill:#1f77b4;stroke:#1f77b4;" x="93.018901" xlink:href="#m037dc96c3f" y="31.913148"/>
     <use style="fill:#1f77b4;stroke:#1f77b4;" x="93.816578" xlink:href="#m037dc96c3f" y="95.264584"/>
     <use style="fill:#1f77b4;stroke:#1f77b4;" x="94.614255" xlink:href="#m037dc96c3f" y="63.156881"/>
     <use style="fill:#1f77b4;stroke:#1f77b4;" x="95.411932" xlink:href="#m037dc96c3f" y="29.161989"/>
     <use style="fill:#1f77b4;stroke:#1f77b4;" x="96.209609" xlink:href="#m037dc96c3f" y="137.663454"/>
     <use style="fill:#1f77b4;stroke:#1f77b4;" x="97.007286" xlink:href="#m037dc96c3f" y="85.015058"/>
     <use style="fill:#1f77b4;stroke:#1f77b4;" x="97.804963" xlink:href="#m037dc96c3f" y="56.074141"/>
     <use style="fill:#1f77b4;stroke:#1f77b4;" x="98.60264" xlink:href="#m037dc96c3f" y="74.930587"/>
     <use style="fill:#1f77b4;stroke:#1f77b4;" x="99.400317" xlink:href="#m037dc96c3f" y="27.397662"/>
     <use style="fill:#1f77b4;stroke:#1f77b4;" x="100.197994" xlink:href="#m037dc96c3f" y="131.241725"/>
     <use style="fill:#1f77b4;stroke:#1f77b4;" x="100.995671" xlink:href="#m037dc96c3f" y="39.962796"/>
     <use style="fill:#1f77b4;stroke:#1f77b4;" x="101.793348" xlink:href="#m037dc96c3f" y="24.372126"/>
     <use style="fill:#1f77b4;stroke:#1f77b4;" x="102.591025" xlink:href="#m037dc96c3f" y="121.533095"/>
     <use style="fill:#1f77b4;stroke:#1f77b4;" x="103.388702" xlink:href="#m037dc96c3f" y="82.237293"/>
     <use style="fill:#1f77b4;stroke:#1f77b4;" x="104.186379" xlink:href="#m037dc96c3f" y="55.359346"/>
     <use style="fill:#1f77b4;stroke:#1f77b4;" x="104.984056" xlink:href="#m037dc96c3f" y="75.579566"/>
     <use style="fill:#1f77b4;stroke:#1f77b4;" x="105.781733" xlink:href="#m037dc96c3f" y="27.629102"/>
     <use style="fill:#1f77b4;stroke:#1f77b4;" x="106.57941" xlink:href="#m037dc96c3f" y="142.877467"/>
     <use style="fill:#1f77b4;stroke:#1f77b4;" x="107.377087" xlink:href="#m037dc96c3f" y="42.657244"/>
     <use style="fill:#1f77b4;stroke:#1f77b4;" x="108.174764" xlink:href="#m037dc96c3f" y="188.485521"/>
     <use style="fill:#1f77b4;stroke:#1f77b4;" x="108.972441" xlink:href="#m037dc96c3f" y="43.020221"/>
     <use style="fill:#1f77b4;stroke:#1f77b4;" x="109.770118" xlink:href="#m037dc96c3f" y="19.541768"/>
     <use style="fill:#1f77b4;stroke:#1f77b4;" x="110.567795" xlink:href="#m037dc96c3f" y="84.574772"/>
     <use style="fill:#1f77b4;stroke:#1f77b4;" x="111.365472" xlink:href="#m037dc96c3f" y="30.500951"/>
     <use style="fill:#1f77b4;stroke:#1f77b4;" x="112.163149" xlink:href="#m037dc96c3f" y="111.917917"/>
     <use style="fill:#1f77b4;stroke:#1f77b4;" x="112.960826" xlink:href="#m037dc96c3f" y="56.498285"/>
     <use style="fill:#1f77b4;stroke:#1f77b4;" x="113.758503" xlink:href="#m037dc96c3f" y="40.996966"/>
     <use style="fill:#1f77b4;stroke:#1f77b4;" x="114.55618" xlink:href="#m037dc96c3f" y="81.456513"/>
     <use style="fill:#1f77b4;stroke:#1f77b4;" x="115.353857" xlink:href="#m037dc96c3f" y="30.292487"/>
     <use style="fill:#1f77b4;stroke:#1f77b4;" x="116.151535" xlink:href="#m037dc96c3f" y="94.635399"/>
     <use style="fill:#1f77b4;stroke:#1f77b4;" x="116.949212" xlink:href="#m037dc96c3f" y="75.240826"/>
     <use style="fill:#1f77b4;stroke:#1f77b4;" x="117.746889" xlink:href="#m037dc96c3f" y="102.50682"/>
     <use style="fill:#1f77b4;stroke:#1f77b4;" x="118.544566" xlink:href="#m037dc96c3f" y="63.695606"/>
     <use style="fill:#1f77b4;stroke:#1f77b4;" x="119.342243" xlink:href="#m037dc96c3f" y="27.356094"/>
     <use style="fill:#1f77b4;stroke:#1f77b4;" x="120.13992" xlink:href="#m037dc96c3f" y="112.243583"/>
     <use style="fill:#1f77b4;stroke:#1f77b4;" x="120.937597" xlink:href="#m037dc96c3f" y="37.06984"/>
     <use style="fill:#1f77b4;stroke:#1f77b4;" x="121.735274" xlink:href="#m037dc96c3f" y="31.083941"/>
     <use style="fill:#1f77b4;stroke:#1f77b4;" x="122.532951" xlink:href="#m037dc96c3f" y="121.23558"/>
     <use style="fill:#1f77b4;stroke:#1f77b4;" x="123.330628" xlink:href="#m037dc96c3f" y="91.822755"/>
     <use style="fill:#1f77b4;stroke:#1f77b4;" x="124.128305" xlink:href="#m037dc96c3f" y="53.457188"/>
     <use style="fill:#1f77b4;stroke:#1f77b4;" x="124.925982" xlink:href="#m037dc96c3f" y="74.148729"/>
     <use style="fill:#1f77b4;stroke:#1f77b4;" x="125.723659" xlink:href="#m037dc96c3f" y="27.198693"/>
     <use style="fill:#1f77b4;stroke:#1f77b4;" x="126.521336" xlink:href="#m037dc96c3f" y="128.070406"/>
     <use style="fill:#1f77b4;stroke:#1f77b4;" x="127.319013" xlink:href="#m037dc96c3f" y="39.625888"/>
     <use style="fill:#1f77b4;stroke:#1f77b4;" x="128.11669" xlink:href="#m037dc96c3f" y="24.827998"/>
     <use style="fill:#1f77b4;stroke:#1f77b4;" x="128.914367" xlink:href="#m037dc96c3f" y="103.524434"/>
     <use style="fill:#1f77b4;stroke:#1f77b4;" x="129.712044" xlink:href="#m037dc96c3f" y="93.70974"/>
     <use style="fill:#1f77b4;stroke:#1f77b4;" x="130.509721" xlink:href="#m037dc96c3f" y="51.492039"/>
     <use style="fill:#1f77b4;stroke:#1f77b4;" x="131.307398" xlink:href="#m037dc96c3f" y="74.395709"/>
     <use style="fill:#1f77b4;stroke:#1f77b4;" x="132.105075" xlink:href="#m037dc96c3f" y="27.290217"/>
     <use style="fill:#1f77b4;stroke:#1f77b4;" x="132.902752" xlink:href="#m037dc96c3f" y="132.937846"/>
     <use style="fill:#1f77b4;stroke:#1f77b4;" x="133.700429" xlink:href="#m037dc96c3f" y="41.265078"/>
     <use style="fill:#1f77b4;stroke:#1f77b4;" x="134.498106" xlink:href="#m037dc96c3f" y="23.320429"/>
     <use style="fill:#1f77b4;stroke:#1f77b4;" x="135.295783" xlink:href="#m037dc96c3f" y="88.147087"/>
     <use style="fill:#1f77b4;stroke:#1f77b4;" x="136.09346" xlink:href="#m037dc96c3f" y="31.220135"/>
     <use style="fill:#1f77b4;stroke:#1f77b4;" x="136.891137" xlink:href="#m037dc96c3f" y="105.338595"/>
     <use style="fill:#1f77b4;stroke:#1f77b4;" x="137.688814" xlink:href="#m037dc96c3f" y="56.159953"/>
     <use style="fill:#1f77b4;stroke:#1f77b4;" x="138.486491" xlink:href="#m037dc96c3f" y="46.364088"/>
     <use style="fill:#1f77b4;stroke:#1f77b4;" x="139.284168" xlink:href="#m037dc96c3f" y="94.523427"/>
     <use style="fill:#1f77b4;stroke:#1f77b4;" x="140.081845" xlink:href="#m037dc96c3f" y="39.179174"/>
     <use style="fill:#1f77b4;stroke:#1f77b4;" x="140.879522" xlink:href="#m037dc96c3f" y="73.619852"/>
     <use style="fill:#1f77b4;stroke:#1f77b4;" x="141.677199" xlink:href="#m037dc96c3f" y="136.802473"/>
     <use style="fill:#1f77b4;stroke:#1f77b4;" x="142.474876" xlink:href="#m037dc96c3f" y="39.339404"/>
     <use style="fill:#1f77b4;stroke:#1f77b4;" x="143.272553" xlink:href="#m037dc96c3f" y="25.411328"/>
     <use style="fill:#1f77b4;stroke:#1f77b4;" x="144.07023" xlink:href="#m037dc96c3f" y="96.051451"/>
     <use style="fill:#1f77b4;stroke:#1f77b4;" x="144.867907" xlink:href="#m037dc96c3f" y="34.82655"/>
     <use style="fill:#1f77b4;stroke:#1f77b4;" x="145.665584" xlink:href="#m037dc96c3f" y="38.51056"/>
     <use style="fill:#1f77b4;stroke:#1f77b4;" x="146.463261" xlink:href="#m037dc96c3f" y="27.127668"/>
     <use style="fill:#1f77b4;stroke:#1f77b4;" x="147.260938" xlink:href="#m037dc96c3f" y="71.447571"/>
     <use style="fill:#1f77b4;stroke:#1f77b4;" x="148.058615" xlink:href="#m037dc96c3f" y="26.905434"/>
     <use style="fill:#1f77b4;stroke:#1f77b4;" x="148.856292" xlink:href="#m037dc96c3f" y="110.706169"/>
     <use style="fill:#1f77b4;stroke:#1f77b4;" x="149.653969" xlink:href="#m037dc96c3f" y="74.796841"/>
     <use style="fill:#1f77b4;stroke:#1f77b4;" x="150.451646" xlink:href="#m037dc96c3f" y="27.378107"/>
     <use style="fill:#1f77b4;stroke:#1f77b4;" x="151.249323" xlink:href="#m037dc96c3f" y="131.387233"/>
     <use style="fill:#1f77b4;stroke:#1f77b4;" x="152.047" xlink:href="#m037dc96c3f" y="39.9422"/>
     <use style="fill:#1f77b4;stroke:#1f77b4;" x="152.844677" xlink:href="#m037dc96c3f" y="24.39329"/>
     <use style="fill:#1f77b4;stroke:#1f77b4;" x="153.642354" xlink:href="#m037dc96c3f" y="74.623237"/>
     <use style="fill:#1f77b4;stroke:#1f77b4;" x="154.440031" xlink:href="#m037dc96c3f" y="27.424005"/>
     <use style="fill:#1f77b4;stroke:#1f77b4;" x="155.237708" xlink:href="#m037dc96c3f" y="132.962578"/>
     <use style="fill:#1f77b4;stroke:#1f77b4;" x="156.035385" xlink:href="#m037dc96c3f" y="40.650635"/>
     <use style="fill:#1f77b4;stroke:#1f77b4;" x="156.833062" xlink:href="#m037dc96c3f" y="23.549628"/>
     <use style="fill:#1f77b4;stroke:#1f77b4;" x="157.630739" xlink:href="#m037dc96c3f" y="90.154206"/>
     <use style="fill:#1f77b4;stroke:#1f77b4;" x="158.428416" xlink:href="#m037dc96c3f" y="32.405298"/>
     <use style="fill:#1f77b4;stroke:#1f77b4;" x="159.226093" xlink:href="#m037dc96c3f" y="81.43145"/>
     <use style="fill:#1f77b4;stroke:#1f77b4;" x="160.02377" xlink:href="#m037dc96c3f" y="93.687081"/>
     <use style="fill:#1f77b4;stroke:#1f77b4;" x="160.821447" xlink:href="#m037dc96c3f" y="73.60723"/>
     <use style="fill:#1f77b4;stroke:#1f77b4;" x="161.619124" xlink:href="#m037dc96c3f" y="106.934737"/>
     <use style="fill:#1f77b4;stroke:#1f77b4;" x="162.416801" xlink:href="#m037dc96c3f" y="60.733667"/>
     <use style="fill:#1f77b4;stroke:#1f77b4;" x="163.214478" xlink:href="#m037dc96c3f" y="29.63453"/>
     <use style="fill:#1f77b4;stroke:#1f77b4;" x="164.012155" xlink:href="#m037dc96c3f" y="170.552422"/>
     <use style="fill:#1f77b4;stroke:#1f77b4;" x="164.809832" xlink:href="#m037dc96c3f" y="44.863605"/>
     <use style="fill:#1f77b4;stroke:#1f77b4;" x="165.607509" xlink:href="#m037dc96c3f" y="76.667467"/>
     <use style="fill:#1f77b4;stroke:#1f77b4;" x="166.405187" xlink:href="#m037dc96c3f" y="20.360083"/>
     <use style="fill:#1f77b4;stroke:#1f77b4;" x="167.202864" xlink:href="#m037dc96c3f" y="75.601788"/>
     <use style="fill:#1f77b4;stroke:#1f77b4;" x="168.000541" xlink:href="#m037dc96c3f" y="27.913318"/>
     <use style="fill:#1f77b4;stroke:#1f77b4;" x="168.798218" xlink:href="#m037dc96c3f" y="122.871567"/>
     <use style="fill:#1f77b4;stroke:#1f77b4;" x="169.595895" xlink:href="#m037dc96c3f" y="66.054793"/>
     <use style="fill:#1f77b4;stroke:#1f77b4;" x="170.393572" xlink:href="#m037dc96c3f" y="104.198836"/>
     <use style="fill:#1f77b4;stroke:#1f77b4;" x="171.191249" xlink:href="#m037dc96c3f" y="65.087594"/>
     <use style="fill:#1f77b4;stroke:#1f77b4;" x="171.988926" xlink:href="#m037dc96c3f" y="26.244372"/>
     <use style="fill:#1f77b4;stroke:#1f77b4;" x="172.786603" xlink:href="#m037dc96c3f" y="109.808113"/>
     <use style="fill:#1f77b4;stroke:#1f77b4;" x="173.58428" xlink:href="#m037dc96c3f" y="38.402586"/>
     <use style="fill:#1f77b4;stroke:#1f77b4;" x="174.381957" xlink:href="#m037dc96c3f" y="108.404357"/>
     <use style="fill:#1f77b4;stroke:#1f77b4;" x="175.179634" xlink:href="#m037dc96c3f" y="36.838753"/>
     <use style="fill:#1f77b4;stroke:#1f77b4;" x="175.977311" xlink:href="#m037dc96c3f" y="31.305158"/>
     <use style="fill:#1f77b4;stroke:#1f77b4;" x="176.774988" xlink:href="#m037dc96c3f" y="85.799457"/>
     <use style="fill:#1f77b4;stroke:#1f77b4;" x="177.572665" xlink:href="#m037dc96c3f" y="32.739548"/>
     <use style="fill:#1f77b4;stroke:#1f77b4;" x="178.370342" xlink:href="#m037dc96c3f" y="94.015941"/>
     <use style="fill:#1f77b4;stroke:#1f77b4;" x="179.168019" xlink:href="#m037dc96c3f" y="35.34016"/>
     <use style="fill:#1f77b4;stroke:#1f77b4;" x="179.965696" xlink:href="#m037dc96c3f" y="100.814677"/>
     <use style="fill:#1f77b4;stroke:#1f77b4;" x="180.763373" xlink:href="#m037dc96c3f" y="37.032425"/>
     <use style="fill:#1f77b4;stroke:#1f77b4;" x="181.56105" xlink:href="#m037dc96c3f" y="104.784318"/>
     <use style="fill:#1f77b4;stroke:#1f77b4;" x="182.358727" xlink:href="#m037dc96c3f" y="36.9615"/>
     <use style="fill:#1f77b4;stroke:#1f77b4;" x="183.156404" xlink:href="#m037dc96c3f" y="29.856045"/>
     <use style="fill:#1f77b4;stroke:#1f77b4;" x="183.954081" xlink:href="#m037dc96c3f" y="117.188555"/>
     <use style="fill:#1f77b4;stroke:#1f77b4;" x="184.751758" xlink:href="#m037dc96c3f" y="38.142362"/>
     <use style="fill:#1f77b4;stroke:#1f77b4;" x="185.549435" xlink:href="#m037dc96c3f" y="27.907688"/>
     <use style="fill:#1f77b4;stroke:#1f77b4;" x="186.347112" xlink:href="#m037dc96c3f" y="130.981844"/>
     <use style="fill:#1f77b4;stroke:#1f77b4;" x="187.144789" xlink:href="#m037dc96c3f" y="72.81373"/>
     <use style="fill:#1f77b4;stroke:#1f77b4;" x="187.942466" xlink:href="#m037dc96c3f" y="64.428664"/>
     <use style="fill:#1f77b4;stroke:#1f77b4;" x="188.740143" xlink:href="#m037dc96c3f" y="161.559327"/>
     <use style="fill:#1f77b4;stroke:#1f77b4;" x="189.53782" xlink:href="#m037dc96c3f" y="98.622295"/>
     <use style="fill:#1f77b4;stroke:#1f77b4;" x="190.335497" xlink:href="#m037dc96c3f" y="32.943438"/>
     <use style="fill:#1f77b4;stroke:#1f77b4;" x="191.133174" xlink:href="#m037dc96c3f" y="83.281976"/>
     <use style="fill:#1f77b4;stroke:#1f77b4;" x="191.930851" xlink:href="#m037dc96c3f" y="70.436132"/>
     <use style="fill:#1f77b4;stroke:#1f77b4;" x="192.728528" xlink:href="#m037dc96c3f" y="24.745605"/>
     <use style="fill:#1f77b4;stroke:#1f77b4;" x="193.526205" xlink:href="#m037dc96c3f" y="101.446329"/>
     <use style="fill:#1f77b4;stroke:#1f77b4;" x="194.323882" xlink:href="#m037dc96c3f" y="99.879188"/>
     <use style="fill:#1f77b4;stroke:#1f77b4;" x="195.121559" xlink:href="#m037dc96c3f" y="33.248357"/>
     <use style="fill:#1f77b4;stroke:#1f77b4;" x="195.919236" xlink:href="#m037dc96c3f" y="79.127796"/>
     <use style="fill:#1f77b4;stroke:#1f77b4;" x="196.716913" xlink:href="#m037dc96c3f" y="77.453385"/>
     <use style="fill:#1f77b4;stroke:#1f77b4;" x="197.51459" xlink:href="#m037dc96c3f" y="20.762538"/>
     <use style="fill:#1f77b4;stroke:#1f77b4;" x="198.312267" xlink:href="#m037dc96c3f" y="75.20244"/>
     <use style="fill:#1f77b4;stroke:#1f77b4;" x="199.109944" xlink:href="#m037dc96c3f" y="27.644967"/>
     <use style="fill:#1f77b4;stroke:#1f77b4;" x="199.907621" xlink:href="#m037dc96c3f" y="142.503311"/>
     <use style="fill:#1f77b4;stroke:#1f77b4;" x="200.705298" xlink:href="#m037dc96c3f" y="42.473974"/>
     <use style="fill:#1f77b4;stroke:#1f77b4;" x="201.502975" xlink:href="#m037dc96c3f" y="20.460173"/>
     <use style="fill:#1f77b4;stroke:#1f77b4;" x="202.300652" xlink:href="#m037dc96c3f" y="55.623129"/>
     <use style="fill:#1f77b4;stroke:#1f77b4;" x="203.098329" xlink:href="#m037dc96c3f" y="76.147633"/>
     <use style="fill:#1f77b4;stroke:#1f77b4;" x="203.896006" xlink:href="#m037dc96c3f" y="28.116571"/>
     <use style="fill:#1f77b4;stroke:#1f77b4;" x="204.693683" xlink:href="#m037dc96c3f" y="82.338084"/>
     <use style="fill:#1f77b4;stroke:#1f77b4;" x="205.49136" xlink:href="#m037dc96c3f" y="29.864635"/>
     <use style="fill:#1f77b4;stroke:#1f77b4;" x="206.289037" xlink:href="#m037dc96c3f" y="120.630882"/>
     <use style="fill:#1f77b4;stroke:#1f77b4;" x="207.086714" xlink:href="#m037dc96c3f" y="53.816901"/>
     <use style="fill:#1f77b4;stroke:#1f77b4;" x="207.884391" xlink:href="#m037dc96c3f" y="53.345972"/>
     <use style="fill:#1f77b4;stroke:#1f77b4;" x="208.682068" xlink:href="#m037dc96c3f" y="100.199898"/>
     <use style="fill:#1f77b4;stroke:#1f77b4;" x="209.479745" xlink:href="#m037dc96c3f" y="37.951383"/>
     <use style="fill:#1f77b4;stroke:#1f77b4;" x="210.277422" xlink:href="#m037dc96c3f" y="111.73947"/>
     <use style="fill:#1f77b4;stroke:#1f77b4;" x="211.075099" xlink:href="#m037dc96c3f" y="39.980071"/>
     <use style="fill:#1f77b4;stroke:#1f77b4;" x="211.872776" xlink:href="#m037dc96c3f" y="125.475713"/>
     <use style="fill:#1f77b4;stroke:#1f77b4;" x="212.670453" xlink:href="#m037dc96c3f" y="41.503478"/>
     <use style="fill:#1f77b4;stroke:#1f77b4;" x="213.46813" xlink:href="#m037dc96c3f" y="137.918719"/>
     <use style="fill:#1f77b4;stroke:#1f77b4;" x="214.265807" xlink:href="#m037dc96c3f" y="41.072777"/>
     <use style="fill:#1f77b4;stroke:#1f77b4;" x="215.063484" xlink:href="#m037dc96c3f" y="21.464217"/>
     <use style="fill:#1f77b4;stroke:#1f77b4;" x="215.861161" xlink:href="#m037dc96c3f" y="87.545292"/>
     <use style="fill:#1f77b4;stroke:#1f77b4;" x="216.658839" xlink:href="#m037dc96c3f" y="32.23002"/>
     <use style="fill:#1f77b4;stroke:#1f77b4;" x="217.456516" xlink:href="#m037dc96c3f" y="88.4874"/>
     <use style="fill:#1f77b4;stroke:#1f77b4;" x="218.254193" xlink:href="#m037dc96c3f" y="31.622895"/>
     <use style="fill:#1f77b4;stroke:#1f77b4;" x="219.05187" xlink:href="#m037dc96c3f" y="95.958678"/>
     <use style="fill:#1f77b4;stroke:#1f77b4;" x="219.849547" xlink:href="#m037dc96c3f" y="66.978201"/>
     <use style="fill:#1f77b4;stroke:#1f77b4;" x="220.647224" xlink:href="#m037dc96c3f" y="25.771577"/>
     <use style="fill:#1f77b4;stroke:#1f77b4;" x="221.444901" xlink:href="#m037dc96c3f" y="108.663918"/>
     <use style="fill:#1f77b4;stroke:#1f77b4;" x="222.242578" xlink:href="#m037dc96c3f" y="38.287116"/>
     <use style="fill:#1f77b4;stroke:#1f77b4;" x="223.040255" xlink:href="#m037dc96c3f" y="107.581315"/>
     <use style="fill:#1f77b4;stroke:#1f77b4;" x="223.837932" xlink:href="#m037dc96c3f" y="36.581034"/>
     <use style="fill:#1f77b4;stroke:#1f77b4;" x="224.635609" xlink:href="#m037dc96c3f" y="32.585934"/>
     <use style="fill:#1f77b4;stroke:#1f77b4;" x="225.433286" xlink:href="#m037dc96c3f" y="101.701255"/>
     <use style="fill:#1f77b4;stroke:#1f77b4;" x="226.230963" xlink:href="#m037dc96c3f" y="103.436358"/>
     <use style="fill:#1f77b4;stroke:#1f77b4;" x="227.02864" xlink:href="#m037dc96c3f" y="34.022874"/>
     <use style="fill:#1f77b4;stroke:#1f77b4;" x="227.826317" xlink:href="#m037dc96c3f" y="66.54669"/>
     <use style="fill:#1f77b4;stroke:#1f77b4;" x="228.623994" xlink:href="#m037dc96c3f" y="107.671629"/>
     <use style="fill:#1f77b4;stroke:#1f77b4;" x="229.421671" xlink:href="#m037dc96c3f" y="93.520027"/>
     <use style="fill:#1f77b4;stroke:#1f77b4;" x="230.219348" xlink:href="#m037dc96c3f" y="32.697014"/>
     <use style="fill:#1f77b4;stroke:#1f77b4;" x="231.017025" xlink:href="#m037dc96c3f" y="83.509082"/>
     <use style="fill:#1f77b4;stroke:#1f77b4;" x="231.814702" xlink:href="#m037dc96c3f" y="79.670694"/>
     <use style="fill:#1f77b4;stroke:#1f77b4;" x="232.612379" xlink:href="#m037dc96c3f" y="20.020318"/>
     <use style="fill:#1f77b4;stroke:#1f77b4;" x="233.410056" xlink:href="#m037dc96c3f" y="50.872074"/>
     <use style="fill:#1f77b4;stroke:#1f77b4;" x="234.207733" xlink:href="#m037dc96c3f" y="74.635308"/>
     <use style="fill:#1f77b4;stroke:#1f77b4;" x="235.00541" xlink:href="#m037dc96c3f" y="27.472782"/>
     <use style="fill:#1f77b4;stroke:#1f77b4;" x="235.803087" xlink:href="#m037dc96c3f" y="139.850153"/>
     <use style="fill:#1f77b4;stroke:#1f77b4;" x="236.600764" xlink:href="#m037dc96c3f" y="60.828627"/>
     <use style="fill:#1f77b4;stroke:#1f77b4;" x="237.398441" xlink:href="#m037dc96c3f" y="148.993669"/>
     <use style="fill:#1f77b4;stroke:#1f77b4;" x="238.196118" xlink:href="#m037dc96c3f" y="60.092054"/>
     <use style="fill:#1f77b4;stroke:#1f77b4;" x="238.993795" xlink:href="#m037dc96c3f" y="153.982073"/>
     <use style="fill:#1f77b4;stroke:#1f77b4;" x="239.791472" xlink:href="#m037dc96c3f" y="50.852809"/>
     <use style="fill:#1f77b4;stroke:#1f77b4;" x="240.589149" xlink:href="#m037dc96c3f" y="49.143862"/>
     <use style="fill:#1f77b4;stroke:#1f77b4;" x="241.386826" xlink:href="#m037dc96c3f" y="80.786008"/>
     <use style="fill:#1f77b4;stroke:#1f77b4;" x="242.184503" xlink:href="#m037dc96c3f" y="32.605367"/>
     <use style="fill:#1f77b4;stroke:#1f77b4;" x="242.98218" xlink:href="#m037dc96c3f" y="58.702279"/>
     <use style="fill:#1f77b4;stroke:#1f77b4;" x="243.779857" xlink:href="#m037dc96c3f" y="98.039964"/>
     <use style="fill:#1f77b4;stroke:#1f77b4;" x="244.577534" xlink:href="#m037dc96c3f" y="34.391199"/>
     <use style="fill:#1f77b4;stroke:#1f77b4;" x="245.375211" xlink:href="#m037dc96c3f" y="56.374179"/>
     <use style="fill:#1f77b4;stroke:#1f77b4;" x="246.172888" xlink:href="#m037dc96c3f" y="104.093469"/>
     <use style="fill:#1f77b4;stroke:#1f77b4;" x="246.970565" xlink:href="#m037dc96c3f" y="39.736987"/>
     <use style="fill:#1f77b4;stroke:#1f77b4;" x="247.768242" xlink:href="#m037dc96c3f" y="136.213777"/>
     <use style="fill:#1f77b4;stroke:#1f77b4;" x="248.565919" xlink:href="#m037dc96c3f" y="47.347018"/>
     <use style="fill:#1f77b4;stroke:#1f77b4;" x="249.363596" xlink:href="#m037dc96c3f" y="62.771399"/>
     <use style="fill:#1f77b4;stroke:#1f77b4;" x="250.161273" xlink:href="#m037dc96c3f" y="104.688621"/>
     <use style="fill:#1f77b4;stroke:#1f77b4;" x="250.95895" xlink:href="#m037dc96c3f" y="34.161135"/>
     <use style="fill:#1f77b4;stroke:#1f77b4;" x="251.756627" xlink:href="#m037dc96c3f" y="65.510171"/>
     <use style="fill:#1f77b4;stroke:#1f77b4;" x="252.554304" xlink:href="#m037dc96c3f" y="111.667587"/>
     <use style="fill:#1f77b4;stroke:#1f77b4;" x="253.351981" xlink:href="#m037dc96c3f" y="93.832607"/>
     <use style="fill:#1f77b4;stroke:#1f77b4;" x="254.149658" xlink:href="#m037dc96c3f" y="32.743322"/>
     <use style="fill:#1f77b4;stroke:#1f77b4;" x="254.947335" xlink:href="#m037dc96c3f" y="83.112595"/>
     <use style="fill:#1f77b4;stroke:#1f77b4;" x="255.745012" xlink:href="#m037dc96c3f" y="79.80672"/>
     <use style="fill:#1f77b4;stroke:#1f77b4;" x="256.542689" xlink:href="#m037dc96c3f" y="19.895465"/>
     <use style="fill:#1f77b4;stroke:#1f77b4;" x="257.340366" xlink:href="#m037dc96c3f" y="90.272291"/>
     <use style="fill:#1f77b4;stroke:#1f77b4;" x="258.138043" xlink:href="#m037dc96c3f" y="31.933886"/>
     <use style="fill:#1f77b4;stroke:#1f77b4;" x="258.93572" xlink:href="#m037dc96c3f" y="94.051485"/>
     <use style="fill:#1f77b4;stroke:#1f77b4;" x="259.733397" xlink:href="#m037dc96c3f" y="65.873956"/>
     <use style="fill:#1f77b4;stroke:#1f77b4;" x="260.531074" xlink:href="#m037dc96c3f" y="26.650494"/>
     <use style="fill:#1f77b4;stroke:#1f77b4;" x="261.328751" xlink:href="#m037dc96c3f" y="80.573698"/>
     <use style="fill:#1f77b4;stroke:#1f77b4;" x="262.126428" xlink:href="#m037dc96c3f" y="29.75765"/>
     <use style="fill:#1f77b4;stroke:#1f77b4;" x="262.924105" xlink:href="#m037dc96c3f" y="94.348357"/>
     <use style="fill:#1f77b4;stroke:#1f77b4;" x="263.721782" xlink:href="#m037dc96c3f" y="91.32118"/>
     <use style="fill:#1f77b4;stroke:#1f77b4;" x="264.519459" xlink:href="#m037dc96c3f" y="31.807119"/>
     <use style="fill:#1f77b4;stroke:#1f77b4;" x="265.317136" xlink:href="#m037dc96c3f" y="97.427152"/>
     <use style="fill:#1f77b4;stroke:#1f77b4;" x="266.114813" xlink:href="#m037dc96c3f" y="60.197407"/>
     <use style="fill:#1f77b4;stroke:#1f77b4;" x="266.912491" xlink:href="#m037dc96c3f" y="33.938917"/>
     <use style="fill:#1f77b4;stroke:#1f77b4;" x="267.710168" xlink:href="#m037dc96c3f" y="77.418754"/>
     <use style="fill:#1f77b4;stroke:#1f77b4;" x="268.507845" xlink:href="#m037dc96c3f" y="29.190262"/>
     <use style="fill:#1f77b4;stroke:#1f77b4;" x="269.305522" xlink:href="#m037dc96c3f" y="69.651931"/>
     <use style="fill:#1f77b4;stroke:#1f77b4;" x="270.103199" xlink:href="#m037dc96c3f" y="78.456388"/>
     <use style="fill:#1f77b4;stroke:#1f77b4;" x="270.900876" xlink:href="#m037dc96c3f" y="28.355214"/>
     <use style="fill:#1f77b4;stroke:#1f77b4;" x="271.698553" xlink:href="#m037dc96c3f" y="84.750919"/>
     <use style="fill:#1f77b4;stroke:#1f77b4;" x="272.49623" xlink:href="#m037dc96c3f" y="19.296"/>
     <use style="fill:#1f77b4;stroke:#1f77b4;" x="273.293907" xlink:href="#m037dc96c3f" y="75.740532"/>
     <use style="fill:#1f77b4;stroke:#1f77b4;" x="274.091584" xlink:href="#m037dc96c3f" y="27.754949"/>
     <use style="fill:#1f77b4;stroke:#1f77b4;" x="274.889261" xlink:href="#m037dc96c3f" y="165.893504"/>
     <use style="fill:#1f77b4;stroke:#1f77b4;" x="275.686938" xlink:href="#m037dc96c3f" y="46.268835"/>
     <use style="fill:#1f77b4;stroke:#1f77b4;" x="276.484615" xlink:href="#m037dc96c3f" y="96.762884"/>
     <use style="fill:#1f77b4;stroke:#1f77b4;" x="277.282292" xlink:href="#m037dc96c3f" y="71.382474"/>
     <use style="fill:#1f77b4;stroke:#1f77b4;" x="278.079969" xlink:href="#m037dc96c3f" y="116.675376"/>
     <use style="fill:#1f77b4;stroke:#1f77b4;" x="278.877646" xlink:href="#m037dc96c3f" y="55.6616"/>
     <use style="fill:#1f77b4;stroke:#1f77b4;" x="279.675323" xlink:href="#m037dc96c3f" y="41.112179"/>
     <use style="fill:#1f77b4;stroke:#1f77b4;" x="280.473" xlink:href="#m037dc96c3f" y="166.362304"/>
     <use style="fill:#1f77b4;stroke:#1f77b4;" x="281.270677" xlink:href="#m037dc96c3f" y="61.359101"/>
     <use style="fill:#1f77b4;stroke:#1f77b4;" x="282.068354" xlink:href="#m037dc96c3f" y="155.102411"/>
     <use style="fill:#1f77b4;stroke:#1f77b4;" x="282.866031" xlink:href="#m037dc96c3f" y="58.74054"/>
     <use style="fill:#1f77b4;stroke:#1f77b4;" x="283.663708" xlink:href="#m037dc96c3f" y="130.647908"/>
     <use style="fill:#1f77b4;stroke:#1f77b4;" x="284.461385" xlink:href="#m037dc96c3f" y="46.595491"/>
     <use style="fill:#1f77b4;stroke:#1f77b4;" x="285.259062" xlink:href="#m037dc96c3f" y="69.420802"/>
     <use style="fill:#1f77b4;stroke:#1f77b4;" x="286.056739" xlink:href="#m037dc96c3f" y="25.399678"/>
     <use style="fill:#1f77b4;stroke:#1f77b4;" x="286.854416" xlink:href="#m037dc96c3f" y="130.984712"/>
     <use style="fill:#1f77b4;stroke:#1f77b4;" x="287.652093" xlink:href="#m037dc96c3f" y="70.111848"/>
     <use style="fill:#1f77b4;stroke:#1f77b4;" x="288.44977" xlink:href="#m037dc96c3f" y="66.786757"/>
     <use style="fill:#1f77b4;stroke:#1f77b4;" x="289.247447" xlink:href="#m037dc96c3f" y="119.537753"/>
     <use style="fill:#1f77b4;stroke:#1f77b4;" x="290.045124" xlink:href="#m037dc96c3f" y="40.492291"/>
     <use style="fill:#1f77b4;stroke:#1f77b4;" x="290.842801" xlink:href="#m037dc96c3f" y="132.825484"/>
     <use style="fill:#1f77b4;stroke:#1f77b4;" x="291.640478" xlink:href="#m037dc96c3f" y="63.355953"/>
     <use style="fill:#1f77b4;stroke:#1f77b4;" x="292.438155" xlink:href="#m037dc96c3f" y="142.683834"/>
     <use style="fill:#1f77b4;stroke:#1f77b4;" x="293.235832" xlink:href="#m037dc96c3f" y="57.219117"/>
     <use style="fill:#1f77b4;stroke:#1f77b4;" x="294.033509" xlink:href="#m037dc96c3f" y="114.40661"/>
     <use style="fill:#1f77b4;stroke:#1f77b4;" x="294.831186" xlink:href="#m037dc96c3f" y="40.596748"/>
     <use style="fill:#1f77b4;stroke:#1f77b4;" x="295.628863" xlink:href="#m037dc96c3f" y="132.563771"/>
     <use style="fill:#1f77b4;stroke:#1f77b4;" x="296.42654" xlink:href="#m037dc96c3f" y="42.222392"/>
     <use style="fill:#1f77b4;stroke:#1f77b4;" x="297.224217" xlink:href="#m037dc96c3f" y="154.421891"/>
     <use style="fill:#1f77b4;stroke:#1f77b4;" x="298.021894" xlink:href="#m037dc96c3f" y="42.004981"/>
     <use style="fill:#1f77b4;stroke:#1f77b4;" x="298.819571" xlink:href="#m037dc96c3f" y="20.39576"/>
     <use style="fill:#1f77b4;stroke:#1f77b4;" x="299.617248" xlink:href="#m037dc96c3f" y="86.000135"/>
     <use style="fill:#1f77b4;stroke:#1f77b4;" x="300.414925" xlink:href="#m037dc96c3f" y="31.389599"/>
     <use style="fill:#1f77b4;stroke:#1f77b4;" x="301.212602" xlink:href="#m037dc96c3f" y="73.18475"/>
     <use style="fill:#1f77b4;stroke:#1f77b4;" x="302.010279" xlink:href="#m037dc96c3f" y="21.88009"/>
     <use style="fill:#1f77b4;stroke:#1f77b4;" x="302.807956" xlink:href="#m037dc96c3f" y="96.769906"/>
     <use style="fill:#1f77b4;stroke:#1f77b4;" x="303.605633" xlink:href="#m037dc96c3f" y="98.461852"/>
     <use style="fill:#1f77b4;stroke:#1f77b4;" x="304.40331" xlink:href="#m037dc96c3f" y="32.763912"/>
     <use style="fill:#1f77b4;stroke:#1f77b4;" x="305.200987" xlink:href="#m037dc96c3f" y="83.877331"/>
     <use style="fill:#1f77b4;stroke:#1f77b4;" x="305.998664" xlink:href="#m037dc96c3f" y="80.033295"/>
     <use style="fill:#1f77b4;stroke:#1f77b4;" x="306.796341" xlink:href="#m037dc96c3f" y="23.078852"/>
     <use style="fill:#1f77b4;stroke:#1f77b4;" x="307.594018" xlink:href="#m037dc96c3f" y="29.575775"/>
     <use style="fill:#1f77b4;stroke:#1f77b4;" x="308.391695" xlink:href="#m037dc96c3f" y="112.984465"/>
     <use style="fill:#1f77b4;stroke:#1f77b4;" x="309.189372" xlink:href="#m037dc96c3f" y="37.586604"/>
     <use style="fill:#1f77b4;stroke:#1f77b4;" x="309.987049" xlink:href="#m037dc96c3f" y="29.297188"/>
     <use style="fill:#1f77b4;stroke:#1f77b4;" x="310.784726" xlink:href="#m037dc96c3f" y="125.390658"/>
     <use style="fill:#1f77b4;stroke:#1f77b4;" x="311.582403" xlink:href="#m037dc96c3f" y="69.204945"/>
     <use style="fill:#1f77b4;stroke:#1f77b4;" x="312.38008" xlink:href="#m037dc96c3f" y="67.238313"/>
     <use style="fill:#1f77b4;stroke:#1f77b4;" x="313.177757" xlink:href="#m037dc96c3f" y="127.797737"/>
     <use style="fill:#1f77b4;stroke:#1f77b4;" x="313.975434" xlink:href="#m037dc96c3f" y="44.482101"/>
     <use style="fill:#1f77b4;stroke:#1f77b4;" x="314.773111" xlink:href="#m037dc96c3f" y="87.200046"/>
     <use style="fill:#1f77b4;stroke:#1f77b4;" x="315.570788" xlink:href="#m037dc96c3f" y="32.145422"/>
     <use style="fill:#1f77b4;stroke:#1f77b4;" x="316.368465" xlink:href="#m037dc96c3f" y="62.316952"/>
     <use style="fill:#1f77b4;stroke:#1f77b4;" x="317.166143" xlink:href="#m037dc96c3f" y="102.808285"/>
     <use style="fill:#1f77b4;stroke:#1f77b4;" x="317.96382" xlink:href="#m037dc96c3f" y="33.682083"/>
     <use style="fill:#1f77b4;stroke:#1f77b4;" x="318.761497" xlink:href="#m037dc96c3f" y="73.808191"/>
     <use style="fill:#1f77b4;stroke:#1f77b4;" x="319.559174" xlink:href="#m037dc96c3f" y="81.670643"/>
     <use style="fill:#1f77b4;stroke:#1f77b4;" x="320.356851" xlink:href="#m037dc96c3f" y="20.162384"/>
     <use style="fill:#1f77b4;stroke:#1f77b4;" x="321.154528" xlink:href="#m037dc96c3f" y="75.752485"/>
     <use style="fill:#1f77b4;stroke:#1f77b4;" x="321.952205" xlink:href="#m037dc96c3f" y="27.896262"/>
     <use style="fill:#1f77b4;stroke:#1f77b4;" x="322.749882" xlink:href="#m037dc96c3f" y="177.384109"/>
     <use style="fill:#1f77b4;stroke:#1f77b4;" x="323.547559" xlink:href="#m037dc96c3f" y="46.776528"/>
     <use style="fill:#1f77b4;stroke:#1f77b4;" x="324.345236" xlink:href="#m037dc96c3f" y="93.589087"/>
     <use style="fill:#1f77b4;stroke:#1f77b4;" x="325.142913" xlink:href="#m037dc96c3f" y="74.042902"/>
     <use style="fill:#1f77b4;stroke:#1f77b4;" x="325.94059" xlink:href="#m037dc96c3f" y="107.234495"/>
     <use style="fill:#1f77b4;stroke:#1f77b4;" x="326.738267" xlink:href="#m037dc96c3f" y="60.111201"/>
     <use style="fill:#1f77b4;stroke:#1f77b4;" x="327.535944" xlink:href="#m037dc96c3f" y="30.473482"/>
     <use style="fill:#1f77b4;stroke:#1f77b4;" x="328.333621" xlink:href="#m037dc96c3f" y="126.375048"/>
     <use style="fill:#1f77b4;stroke:#1f77b4;" x="329.131298" xlink:href="#m037dc96c3f" y="57.998451"/>
     <use style="fill:#1f77b4;stroke:#1f77b4;" x="329.928975" xlink:href="#m037dc96c3f" y="32.370824"/>
     <use style="fill:#1f77b4;stroke:#1f77b4;" x="330.726652" xlink:href="#m037dc96c3f" y="111.134411"/>
     <use style="fill:#1f77b4;stroke:#1f77b4;" x="331.524329" xlink:href="#m037dc96c3f" y="52.202989"/>
     <use style="fill:#1f77b4;stroke:#1f77b4;" x="332.322006" xlink:href="#m037dc96c3f" y="90.21911"/>
     <use style="fill:#1f77b4;stroke:#1f77b4;" x="333.119683" xlink:href="#m037dc96c3f" y="31.607245"/>
     <use style="fill:#1f77b4;stroke:#1f77b4;" x="333.91736" xlink:href="#m037dc96c3f" y="100.24327"/>
     <use style="fill:#1f77b4;stroke:#1f77b4;" x="334.715037" xlink:href="#m037dc96c3f" y="59.67171"/>
     <use style="fill:#1f77b4;stroke:#1f77b4;" x="335.512714" xlink:href="#m037dc96c3f" y="34.428959"/>
     <use style="fill:#1f77b4;stroke:#1f77b4;" x="336.310391" xlink:href="#m037dc96c3f" y="77.230492"/>
     <use style="fill:#1f77b4;stroke:#1f77b4;" x="337.108068" xlink:href="#m037dc96c3f" y="28.976701"/>
     <use style="fill:#1f77b4;stroke:#1f77b4;" x="337.905745" xlink:href="#m037dc96c3f" y="84.781028"/>
     <use style="fill:#1f77b4;stroke:#1f77b4;" x="338.703422" xlink:href="#m037dc96c3f" y="19.546135"/>
     <use style="fill:#1f77b4;stroke:#1f77b4;" x="339.501099" xlink:href="#m037dc96c3f" y="76.395388"/>
     <use style="fill:#1f77b4;stroke:#1f77b4;" x="340.298776" xlink:href="#m037dc96c3f" y="28.122377"/>
     <use style="fill:#1f77b4;stroke:#1f77b4;" x="341.096453" xlink:href="#m037dc96c3f" y="114.324858"/>
     <use style="fill:#1f77b4;stroke:#1f77b4;" x="341.89413" xlink:href="#m037dc96c3f" y="64.510351"/>
     <use style="fill:#1f77b4;stroke:#1f77b4;" x="342.691807" xlink:href="#m037dc96c3f" y="173.785996"/>
     <use style="fill:#1f77b4;stroke:#1f77b4;" x="343.489484" xlink:href="#m037dc96c3f" y="43.960889"/>
     <use style="fill:#1f77b4;stroke:#1f77b4;" x="344.287161" xlink:href="#m037dc96c3f" y="63.303305"/>
     <use style="fill:#1f77b4;stroke:#1f77b4;" x="345.084838" xlink:href="#m037dc96c3f" y="76.617178"/>
     <use style="fill:#1f77b4;stroke:#1f77b4;" x="345.882515" xlink:href="#m037dc96c3f" y="27.738662"/>
     <use style="fill:#1f77b4;stroke:#1f77b4;" x="346.680192" xlink:href="#m037dc96c3f" y="136.857592"/>
     <use style="fill:#1f77b4;stroke:#1f77b4;" x="347.477869" xlink:href="#m037dc96c3f" y="40.315856"/>
     <use style="fill:#1f77b4;stroke:#1f77b4;" x="348.275546" xlink:href="#m037dc96c3f" y="23.852276"/>
     <use style="fill:#1f77b4;stroke:#1f77b4;" x="349.073223" xlink:href="#m037dc96c3f" y="74.199639"/>
     <use style="fill:#1f77b4;stroke:#1f77b4;" x="349.8709" xlink:href="#m037dc96c3f" y="27.300965"/>
     <use style="fill:#1f77b4;stroke:#1f77b4;" x="350.668577" xlink:href="#m037dc96c3f" y="130.554478"/>
     <use style="fill:#1f77b4;stroke:#1f77b4;" x="351.466254" xlink:href="#m037dc96c3f" y="40.314325"/>
     <use style="fill:#1f77b4;stroke:#1f77b4;" x="352.263931" xlink:href="#m037dc96c3f" y="23.970977"/>
     <use style="fill:#1f77b4;stroke:#1f77b4;" x="353.061608" xlink:href="#m037dc96c3f" y="92.321523"/>
     <use style="fill:#1f77b4;stroke:#1f77b4;" x="353.859285" xlink:href="#m037dc96c3f" y="33.483136"/>
     <use style="fill:#1f77b4;stroke:#1f77b4;" x="354.656962" xlink:href="#m037dc96c3f" y="49.554321"/>
     <use style="fill:#1f77b4;stroke:#1f77b4;" x="355.454639" xlink:href="#m037dc96c3f" y="73.211825"/>
     <use style="fill:#1f77b4;stroke:#1f77b4;" x="356.252316" xlink:href="#m037dc96c3f" y="26.924428"/>
     <use style="fill:#1f77b4;stroke:#1f77b4;" x="357.049993" xlink:href="#m037dc96c3f" y="128.864849"/>
     <use style="fill:#1f77b4;stroke:#1f77b4;" x="357.84767" xlink:href="#m037dc96c3f" y="41.531731"/>
     <use style="fill:#1f77b4;stroke:#1f77b4;" x="358.645347" xlink:href="#m037dc96c3f" y="139.989963"/>
     <use style="fill:#1f77b4;stroke:#1f77b4;" x="359.443024" xlink:href="#m037dc96c3f" y="41.237172"/>
     <use style="fill:#1f77b4;stroke:#1f77b4;" x="360.240701" xlink:href="#m037dc96c3f" y="21.224596"/>
     <use style="fill:#1f77b4;stroke:#1f77b4;" x="361.038378" xlink:href="#m037dc96c3f" y="86.840286"/>
     <use style="fill:#1f77b4;stroke:#1f77b4;" x="361.836055" xlink:href="#m037dc96c3f" y="31.801699"/>
     <use style="fill:#1f77b4;stroke:#1f77b4;" x="362.633732" xlink:href="#m037dc96c3f" y="60.721913"/>
     <use style="fill:#1f77b4;stroke:#1f77b4;" x="363.431409" xlink:href="#m037dc96c3f" y="105.906524"/>
     <use style="fill:#1f77b4;stroke:#1f77b4;" x="364.229086" xlink:href="#m037dc96c3f" y="37.270854"/>
     <use style="fill:#1f77b4;stroke:#1f77b4;" x="365.026763" xlink:href="#m037dc96c3f" y="156.600529"/>
     <use style="fill:#1f77b4;stroke:#1f77b4;" x="365.82444" xlink:href="#m037dc96c3f" y="48.408931"/>
     <use style="fill:#1f77b4;stroke:#1f77b4;" x="366.622117" xlink:href="#m037dc96c3f" y="87.850468"/>
     <use style="fill:#1f77b4;stroke:#1f77b4;" x="367.419795" xlink:href="#m037dc96c3f" y="30.720362"/>
     <use style="fill:#1f77b4;stroke:#1f77b4;" x="368.217472" xlink:href="#m037dc96c3f" y="111.778757"/>
     <use style="fill:#1f77b4;stroke:#1f77b4;" x="369.015149" xlink:href="#m037dc96c3f" y="53.823838"/>
     <use style="fill:#1f77b4;stroke:#1f77b4;" x="369.812826" xlink:href="#m037dc96c3f" y="58.810942"/>
     <use style="fill:#1f77b4;stroke:#1f77b4;" x="370.610503" xlink:href="#m037dc96c3f" y="261.216"/>
     <use style="fill:#1f77b4;stroke:#1f77b4;" x="371.40818" xlink:href="#m037dc96c3f" y="62.023639"/>
     <use style="fill:#1f77b4;stroke:#1f77b4;" x="372.205857" xlink:href="#m037dc96c3f" y="139.575008"/>
     <use style="fill:#1f77b4;stroke:#1f77b4;" x="373.003534" xlink:href="#m037dc96c3f" y="61.08678"/>
     <use style="fill:#1f77b4;stroke:#1f77b4;" x="373.801211" xlink:href="#m037dc96c3f" y="171.711496"/>
     <use style="fill:#1f77b4;stroke:#1f77b4;" x="374.598888" xlink:href="#m037dc96c3f" y="51.453899"/>
     <use style="fill:#1f77b4;stroke:#1f77b4;" x="375.396565" xlink:href="#m037dc96c3f" y="49.129447"/>
     <use style="fill:#1f77b4;stroke:#1f77b4;" x="376.194242" xlink:href="#m037dc96c3f" y="94.23531"/>
     <use style="fill:#1f77b4;stroke:#1f77b4;" x="376.991919" xlink:href="#m037dc96c3f" y="48.595085"/>
     <use style="fill:#1f77b4;stroke:#1f77b4;" x="377.285953" xlink:href="#m037dc96c3f" y="22383.514"/>
    </g>
   </g>
   <g id="line2d_49">
    <path clip-path="url(#p0dd5db4651)" d="M 208.682068 100.199898 
L 210.277422 111.73947 
L 211.872776 125.475713 
L 213.46813 137.918719 
" style="fill:none;stroke:#2ca02c;stroke-dasharray:1.5,2.475;stroke-dashoffset:0;stroke-width:1.5;"/>
    <defs>
     <path d="M -3 3 
L 3 -3 
M -3 -3 
L 3 3 
" id="m4d3e48ea3d" style="stroke:#2ca02c;"/>
    </defs>
    <g clip-path="url(#p0dd5db4651)">
     <use style="fill:#2ca02c;stroke:#2ca02c;" x="208.682068" xlink:href="#m4d3e48ea3d" y="100.199898"/>
     <use style="fill:#2ca02c;stroke:#2ca02c;" x="210.277422" xlink:href="#m4d3e48ea3d" y="111.73947"/>
     <use style="fill:#2ca02c;stroke:#2ca02c;" x="211.872776" xlink:href="#m4d3e48ea3d" y="125.475713"/>
     <use style="fill:#2ca02c;stroke:#2ca02c;" x="213.46813" xlink:href="#m4d3e48ea3d" y="137.918719"/>
    </g>
   </g>
   <g id="line2d_50">
    <path clip-path="url(#p0dd5db4651)" d="M 54.730404 168.189049 
L 72.79442 311.86825 
L 72.79442 311.86825 
" style="fill:none;stroke:#000000;stroke-dasharray:5.55,2.4;stroke-dashoffset:0;stroke-width:1.5;"/>
   </g>
   <g id="patch_3">
    <path d="M 37.7 273.312 
L 37.7 7.2 
" style="fill:none;stroke:#000000;stroke-linecap:square;stroke-linejoin:miter;stroke-width:0.8;"/>
   </g>
   <g id="patch_4">
    <path d="M 394.82 273.312 
L 394.82 7.2 
" style="fill:none;stroke:#000000;stroke-linecap:square;stroke-linejoin:miter;stroke-width:0.8;"/>
   </g>
   <g id="patch_5">
    <path d="M 37.7 273.312 
L 394.82 273.312 
" style="fill:none;stroke:#000000;stroke-linecap:square;stroke-linejoin:miter;stroke-width:0.8;"/>
   </g>
   <g id="patch_6">
    <path d="M 37.7 7.2 
L 394.82 7.2 
" style="fill:none;stroke:#000000;stroke-linecap:square;stroke-linejoin:miter;stroke-width:0.8;"/>
   </g>
   <g id="legend_1">
    <g id="patch_7">
     <path d="M 166.01 268.312 
L 266.51 268.312 
Q 268.51 268.312 268.51 266.312 
L 268.51 223.25575 
Q 268.51 221.25575 266.51 221.25575 
L 166.01 221.25575 
Q 164.01 221.25575 164.01 223.25575 
L 164.01 266.312 
Q 164.01 268.312 166.01 268.312 
z
" style="fill:#ffffff;opacity:0.8;"/>
    </g>
    <g id="line2d_51">
     <path d="M 168.01 229.354187 
L 188.01 229.354187 
" style="fill:none;stroke:#1f77b4;stroke-linecap:square;stroke-width:1.5;"/>
    </g>
    <g id="line2d_52">
     <g>
      <use style="fill:#1f77b4;stroke:#1f77b4;" x="178.01" xlink:href="#m037dc96c3f" y="229.354187"/>
     </g>
    </g>
    <g id="text_15">
     <!-- APD$_n$ - APD$_\infty$ -->
     <defs>
      <path d="M 34.1875 63.1875 
L 20.796875 26.90625 
L 47.609375 26.90625 
z
M 28.609375 72.90625 
L 39.796875 72.90625 
L 67.578125 0 
L 57.328125 0 
L 50.6875 18.703125 
L 17.828125 18.703125 
L 11.1875 0 
L 0.78125 0 
z
" id="DejaVuSans-65"/>
      <path d="M 19.671875 64.796875 
L 19.671875 37.40625 
L 32.078125 37.40625 
Q 38.96875 37.40625 42.71875 40.96875 
Q 46.484375 44.53125 46.484375 51.125 
Q 46.484375 57.671875 42.71875 61.234375 
Q 38.96875 64.796875 32.078125 64.796875 
z
M 9.8125 72.90625 
L 32.078125 72.90625 
Q 44.34375 72.90625 50.609375 67.359375 
Q 56.890625 61.8125 56.890625 51.125 
Q 56.890625 40.328125 50.609375 34.8125 
Q 44.34375 29.296875 32.078125 29.296875 
L 19.671875 29.296875 
L 19.671875 0 
L 9.8125 0 
z
" id="DejaVuSans-80"/>
      <path d="M 19.671875 64.796875 
L 19.671875 8.109375 
L 31.59375 8.109375 
Q 46.6875 8.109375 53.6875 14.9375 
Q 60.6875 21.78125 60.6875 36.53125 
Q 60.6875 51.171875 53.6875 57.984375 
Q 46.6875 64.796875 31.59375 64.796875 
z
M 9.8125 72.90625 
L 30.078125 72.90625 
Q 51.265625 72.90625 61.171875 64.09375 
Q 71.09375 55.28125 71.09375 36.53125 
Q 71.09375 17.671875 61.125 8.828125 
Q 51.171875 0 30.078125 0 
L 9.8125 0 
z
" id="DejaVuSans-68"/>
      <path d="M 55.71875 33.015625 
L 49.3125 0 
L 40.28125 0 
L 46.6875 32.671875 
Q 47.125 34.96875 47.359375 36.71875 
Q 47.609375 38.484375 47.609375 39.5 
Q 47.609375 43.609375 45.015625 45.890625 
Q 42.4375 48.1875 37.796875 48.1875 
Q 30.5625 48.1875 25.34375 43.375 
Q 20.125 38.578125 18.5 30.328125 
L 12.5 0 
L 3.515625 0 
L 14.109375 54.6875 
L 23.09375 54.6875 
L 21.296875 46.09375 
Q 25.046875 50.828125 30.3125 53.40625 
Q 35.59375 56 41.40625 56 
Q 48.640625 56 52.609375 52.09375 
Q 56.59375 48.1875 56.59375 41.109375 
Q 56.59375 39.359375 56.375 37.359375 
Q 56.15625 35.359375 55.71875 33.015625 
z
" id="DejaVuSans-Oblique-110"/>
      <path id="DejaVuSans-32"/>
      <path d="M 4.890625 31.390625 
L 31.203125 31.390625 
L 31.203125 23.390625 
L 4.890625 23.390625 
z
" id="DejaVuSans-45"/>
      <path d="M 45.5625 17.046875 
Q 44.046875 18.796875 41.65625 22.90625 
Q 38.375 17.046875 35.5 14.453125 
Q 31.890625 11.328125 26.265625 11.328125 
Q 19.671875 11.328125 15.328125 16.265625 
Q 10.75 21.4375 10.75 29.984375 
Q 10.75 38.1875 15.328125 43.75 
Q 19.4375 48.6875 26.375 48.6875 
Q 29.9375 48.6875 32.5625 47.21875 
Q 35.640625 45.609375 37.75 42.828125 
Q 39.703125 40.328125 41.65625 36.96875 
Q 44.921875 42.828125 47.796875 45.40625 
Q 51.421875 48.53125 57.03125 48.53125 
Q 63.625 48.53125 67.96875 43.609375 
Q 72.5625 38.421875 72.5625 29.890625 
Q 72.5625 21.6875 67.96875 16.109375 
Q 63.875 11.1875 56.9375 11.1875 
Q 53.375 11.1875 50.734375 12.640625 
Q 48.09375 13.96875 45.5625 17.046875 
z
M 25.734375 17.71875 
Q 33.796875 17.71875 38.625 29.4375 
Q 32.421875 42.234375 25.734375 42.234375 
Q 20.84375 42.234375 18.359375 38.71875 
Q 15.671875 34.96875 15.671875 29.984375 
Q 15.671875 24.515625 18.359375 21.140625 
Q 21.09375 17.71875 25.734375 17.71875 
z
M 57.5625 42.140625 
Q 50.296875 42.140625 44.671875 30.421875 
Q 50.828125 17.625 57.5625 17.625 
Q 62.453125 17.625 64.9375 21.140625 
Q 67.625 24.90625 67.625 29.890625 
Q 67.625 35.359375 64.9375 38.71875 
Q 62.203125 42.140625 57.5625 42.140625 
z
" id="DejaVuSans-8734"/>
     </defs>
     <g transform="translate(196.01 232.854187)scale(0.1 -0.1)">
      <use transform="translate(0 0.09375)" xlink:href="#DejaVuSans-65"/>
      <use transform="translate(68.408203 0.09375)" xlink:href="#DejaVuSans-80"/>
      <use transform="translate(128.710938 0.09375)" xlink:href="#DejaVuSans-68"/>
      <use transform="translate(206.669922 -16.3125)scale(0.7)" xlink:href="#DejaVuSans-Oblique-110"/>
      <use transform="translate(253.769531 0.09375)" xlink:href="#DejaVuSans-32"/>
      <use transform="translate(285.556641 0.09375)" xlink:href="#DejaVuSans-45"/>
      <use transform="translate(321.640625 0.09375)" xlink:href="#DejaVuSans-32"/>
      <use transform="translate(353.427734 0.09375)" xlink:href="#DejaVuSans-65"/>
      <use transform="translate(421.835938 0.09375)" xlink:href="#DejaVuSans-80"/>
      <use transform="translate(482.138672 0.09375)" xlink:href="#DejaVuSans-68"/>
      <use transform="translate(560.097656 -16.3125)scale(0.7)" xlink:href="#DejaVuSans-8734"/>
     </g>
    </g>
    <g id="line2d_53">
     <path d="M 168.01 244.032312 
L 188.01 244.032312 
" style="fill:none;stroke:#2ca02c;stroke-dasharray:1.5,2.475;stroke-dashoffset:0;stroke-width:1.5;"/>
    </g>
    <g id="line2d_54">
     <g>
      <use style="fill:#2ca02c;stroke:#2ca02c;" x="178.01" xlink:href="#m4d3e48ea3d" y="244.032312"/>
     </g>
    </g>
    <g id="text_16">
     <!-- linear region -->
     <defs>
      <path d="M 9.421875 75.984375 
L 18.40625 75.984375 
L 18.40625 0 
L 9.421875 0 
z
" id="DejaVuSans-108"/>
      <path d="M 9.421875 54.6875 
L 18.40625 54.6875 
L 18.40625 0 
L 9.421875 0 
z
M 9.421875 75.984375 
L 18.40625 75.984375 
L 18.40625 64.59375 
L 9.421875 64.59375 
z
" id="DejaVuSans-105"/>
      <path d="M 54.890625 33.015625 
L 54.890625 0 
L 45.90625 0 
L 45.90625 32.71875 
Q 45.90625 40.484375 42.875 44.328125 
Q 39.84375 48.1875 33.796875 48.1875 
Q 26.515625 48.1875 22.3125 43.546875 
Q 18.109375 38.921875 18.109375 30.90625 
L 18.109375 0 
L 9.078125 0 
L 9.078125 54.6875 
L 18.109375 54.6875 
L 18.109375 46.1875 
Q 21.34375 51.125 25.703125 53.5625 
Q 30.078125 56 35.796875 56 
Q 45.21875 56 50.046875 50.171875 
Q 54.890625 44.34375 54.890625 33.015625 
z
" id="DejaVuSans-110"/>
      <path d="M 56.203125 29.59375 
L 56.203125 25.203125 
L 14.890625 25.203125 
Q 15.484375 15.921875 20.484375 11.0625 
Q 25.484375 6.203125 34.421875 6.203125 
Q 39.59375 6.203125 44.453125 7.46875 
Q 49.3125 8.734375 54.109375 11.28125 
L 54.109375 2.78125 
Q 49.265625 0.734375 44.1875 -0.34375 
Q 39.109375 -1.421875 33.890625 -1.421875 
Q 20.796875 -1.421875 13.15625 6.1875 
Q 5.515625 13.8125 5.515625 26.8125 
Q 5.515625 40.234375 12.765625 48.109375 
Q 20.015625 56 32.328125 56 
Q 43.359375 56 49.78125 48.890625 
Q 56.203125 41.796875 56.203125 29.59375 
z
M 47.21875 32.234375 
Q 47.125 39.59375 43.09375 43.984375 
Q 39.0625 48.390625 32.421875 48.390625 
Q 24.90625 48.390625 20.390625 44.140625 
Q 15.875 39.890625 15.1875 32.171875 
z
" id="DejaVuSans-101"/>
      <path d="M 34.28125 27.484375 
Q 23.390625 27.484375 19.1875 25 
Q 14.984375 22.515625 14.984375 16.5 
Q 14.984375 11.71875 18.140625 8.90625 
Q 21.296875 6.109375 26.703125 6.109375 
Q 34.1875 6.109375 38.703125 11.40625 
Q 43.21875 16.703125 43.21875 25.484375 
L 43.21875 27.484375 
z
M 52.203125 31.203125 
L 52.203125 0 
L 43.21875 0 
L 43.21875 8.296875 
Q 40.140625 3.328125 35.546875 0.953125 
Q 30.953125 -1.421875 24.3125 -1.421875 
Q 15.921875 -1.421875 10.953125 3.296875 
Q 6 8.015625 6 15.921875 
Q 6 25.140625 12.171875 29.828125 
Q 18.359375 34.515625 30.609375 34.515625 
L 43.21875 34.515625 
L 43.21875 35.40625 
Q 43.21875 41.609375 39.140625 45 
Q 35.0625 48.390625 27.6875 48.390625 
Q 23 48.390625 18.546875 47.265625 
Q 14.109375 46.140625 10.015625 43.890625 
L 10.015625 52.203125 
Q 14.9375 54.109375 19.578125 55.046875 
Q 24.21875 56 28.609375 56 
Q 40.484375 56 46.34375 49.84375 
Q 52.203125 43.703125 52.203125 31.203125 
z
" id="DejaVuSans-97"/>
      <path d="M 41.109375 46.296875 
Q 39.59375 47.171875 37.8125 47.578125 
Q 36.03125 48 33.890625 48 
Q 26.265625 48 22.1875 43.046875 
Q 18.109375 38.09375 18.109375 28.8125 
L 18.109375 0 
L 9.078125 0 
L 9.078125 54.6875 
L 18.109375 54.6875 
L 18.109375 46.1875 
Q 20.953125 51.171875 25.484375 53.578125 
Q 30.03125 56 36.53125 56 
Q 37.453125 56 38.578125 55.875 
Q 39.703125 55.765625 41.0625 55.515625 
z
" id="DejaVuSans-114"/>
      <path d="M 45.40625 27.984375 
Q 45.40625 37.75 41.375 43.109375 
Q 37.359375 48.484375 30.078125 48.484375 
Q 22.859375 48.484375 18.828125 43.109375 
Q 14.796875 37.75 14.796875 27.984375 
Q 14.796875 18.265625 18.828125 12.890625 
Q 22.859375 7.515625 30.078125 7.515625 
Q 37.359375 7.515625 41.375 12.890625 
Q 45.40625 18.265625 45.40625 27.984375 
z
M 54.390625 6.78125 
Q 54.390625 -7.171875 48.1875 -13.984375 
Q 42 -20.796875 29.203125 -20.796875 
Q 24.46875 -20.796875 20.265625 -20.09375 
Q 16.0625 -19.390625 12.109375 -17.921875 
L 12.109375 -9.1875 
Q 16.0625 -11.328125 19.921875 -12.34375 
Q 23.78125 -13.375 27.78125 -13.375 
Q 36.625 -13.375 41.015625 -8.765625 
Q 45.40625 -4.15625 45.40625 5.171875 
L 45.40625 9.625 
Q 42.625 4.78125 38.28125 2.390625 
Q 33.9375 0 27.875 0 
Q 17.828125 0 11.671875 7.65625 
Q 5.515625 15.328125 5.515625 27.984375 
Q 5.515625 40.671875 11.671875 48.328125 
Q 17.828125 56 27.875 56 
Q 33.9375 56 38.28125 53.609375 
Q 42.625 51.21875 45.40625 46.390625 
L 45.40625 54.6875 
L 54.390625 54.6875 
z
" id="DejaVuSans-103"/>
      <path d="M 30.609375 48.390625 
Q 23.390625 48.390625 19.1875 42.75 
Q 14.984375 37.109375 14.984375 27.296875 
Q 14.984375 17.484375 19.15625 11.84375 
Q 23.34375 6.203125 30.609375 6.203125 
Q 37.796875 6.203125 41.984375 11.859375 
Q 46.1875 17.53125 46.1875 27.296875 
Q 46.1875 37.015625 41.984375 42.703125 
Q 37.796875 48.390625 30.609375 48.390625 
z
M 30.609375 56 
Q 42.328125 56 49.015625 48.375 
Q 55.71875 40.765625 55.71875 27.296875 
Q 55.71875 13.875 49.015625 6.21875 
Q 42.328125 -1.421875 30.609375 -1.421875 
Q 18.84375 -1.421875 12.171875 6.21875 
Q 5.515625 13.875 5.515625 27.296875 
Q 5.515625 40.765625 12.171875 48.375 
Q 18.84375 56 30.609375 56 
z
" id="DejaVuSans-111"/>
     </defs>
     <g transform="translate(196.01 247.532312)scale(0.1 -0.1)">
      <use xlink:href="#DejaVuSans-108"/>
      <use x="27.783203" xlink:href="#DejaVuSans-105"/>
      <use x="55.566406" xlink:href="#DejaVuSans-110"/>
      <use x="118.945312" xlink:href="#DejaVuSans-101"/>
      <use x="180.46875" xlink:href="#DejaVuSans-97"/>
      <use x="241.748047" xlink:href="#DejaVuSans-114"/>
      <use x="282.861328" xlink:href="#DejaVuSans-32"/>
      <use x="314.648438" xlink:href="#DejaVuSans-114"/>
      <use x="353.511719" xlink:href="#DejaVuSans-101"/>
      <use x="415.035156" xlink:href="#DejaVuSans-103"/>
      <use x="478.511719" xlink:href="#DejaVuSans-105"/>
      <use x="506.294922" xlink:href="#DejaVuSans-111"/>
      <use x="567.476562" xlink:href="#DejaVuSans-110"/>
     </g>
    </g>
    <g id="line2d_55">
     <path d="M 168.01 258.712 
L 188.01 258.712 
" style="fill:none;stroke:#000000;stroke-dasharray:5.55,2.4;stroke-dashoffset:0;stroke-width:1.5;"/>
    </g>
    <g id="line2d_56"/>
    <g id="text_17">
     <!-- $ \exp(-0.242 k)$ -->
     <defs>
      <path d="M 54.890625 54.6875 
L 35.109375 28.078125 
L 55.90625 0 
L 45.3125 0 
L 29.390625 21.484375 
L 13.484375 0 
L 2.875 0 
L 24.125 28.609375 
L 4.6875 54.6875 
L 15.28125 54.6875 
L 29.78125 35.203125 
L 44.28125 54.6875 
z
" id="DejaVuSans-120"/>
      <path d="M 18.109375 8.203125 
L 18.109375 -20.796875 
L 9.078125 -20.796875 
L 9.078125 54.6875 
L 18.109375 54.6875 
L 18.109375 46.390625 
Q 20.953125 51.265625 25.265625 53.625 
Q 29.59375 56 35.59375 56 
Q 45.5625 56 51.78125 48.09375 
Q 58.015625 40.1875 58.015625 27.296875 
Q 58.015625 14.40625 51.78125 6.484375 
Q 45.5625 -1.421875 35.59375 -1.421875 
Q 29.59375 -1.421875 25.265625 0.953125 
Q 20.953125 3.328125 18.109375 8.203125 
z
M 48.6875 27.296875 
Q 48.6875 37.203125 44.609375 42.84375 
Q 40.53125 48.484375 33.40625 48.484375 
Q 26.265625 48.484375 22.1875 42.84375 
Q 18.109375 37.203125 18.109375 27.296875 
Q 18.109375 17.390625 22.1875 11.75 
Q 26.265625 6.109375 33.40625 6.109375 
Q 40.53125 6.109375 44.609375 11.75 
Q 48.6875 17.390625 48.6875 27.296875 
z
" id="DejaVuSans-112"/>
      <path d="M 31 75.875 
Q 24.46875 64.65625 21.28125 53.65625 
Q 18.109375 42.671875 18.109375 31.390625 
Q 18.109375 20.125 21.3125 9.0625 
Q 24.515625 -2 31 -13.1875 
L 23.1875 -13.1875 
Q 15.875 -1.703125 12.234375 9.375 
Q 8.59375 20.453125 8.59375 31.390625 
Q 8.59375 42.28125 12.203125 53.3125 
Q 15.828125 64.359375 23.1875 75.875 
z
" id="DejaVuSans-40"/>
      <path d="M 10.6875 12.40625 
L 21 12.40625 
L 21 0 
L 10.6875 0 
z
" id="DejaVuSans-46"/>
      <path d="M 8.015625 75.875 
L 15.828125 75.875 
Q 23.140625 64.359375 26.78125 53.3125 
Q 30.421875 42.28125 30.421875 31.390625 
Q 30.421875 20.453125 26.78125 9.375 
Q 23.140625 -1.703125 15.828125 -13.1875 
L 8.015625 -13.1875 
Q 14.5 -2 17.703125 9.0625 
Q 20.90625 20.125 20.90625 31.390625 
Q 20.90625 42.671875 17.703125 53.65625 
Q 14.5 64.65625 8.015625 75.875 
z
" id="DejaVuSans-41"/>
     </defs>
     <g transform="translate(196.01 262.212)scale(0.1 -0.1)">
      <use transform="translate(0 0.015625)" xlink:href="#DejaVuSans-101"/>
      <use transform="translate(61.523438 0.015625)" xlink:href="#DejaVuSans-120"/>
      <use transform="translate(120.703125 0.015625)" xlink:href="#DejaVuSans-112"/>
      <use transform="translate(184.179688 0.015625)" xlink:href="#DejaVuSans-40"/>
      <use transform="translate(223.193359 0.015625)" xlink:href="#DejaVuSans-8722"/>
      <use transform="translate(306.982422 0.015625)" xlink:href="#DejaVuSans-48"/>
      <use transform="translate(370.605469 0.015625)" xlink:href="#DejaVuSans-46"/>
      <use transform="translate(396.892578 0.015625)" xlink:href="#DejaVuSans-50"/>
      <use transform="translate(460.515625 0.015625)" xlink:href="#DejaVuSans-52"/>
      <use transform="translate(524.138672 0.015625)" xlink:href="#DejaVuSans-50"/>
      <use transform="translate(587.761719 0.015625)" xlink:href="#DejaVuSans-Oblique-107"/>
      <use transform="translate(645.671875 0.015625)" xlink:href="#DejaVuSans-41"/>
     </g>
    </g>
   </g>
  </g>
 </g>
 <defs>
  <clipPath id="p0dd5db4651">
   <rect height="266.112" width="357.12" x="37.7" y="7.2"/>
  </clipPath>
 </defs>
</svg>
