<?xml version="1.0" encoding="utf-8" standalone="no"?>
<!DOCTYPE svg PUBLIC "-//W3C//DTD SVG 1.1//EN"
  "http://www.w3.org/Graphics/SVG/1.1/DTD/svg11.dtd">
<!-- Created with matplotlib (https://matplotlib.org/) -->
<svg height="310.86825pt" version="1.1" viewBox="0 0 402.02 310.86825" width="402.02pt" xmlns="http://www.w3.org/2000/svg" xmlns:xlink="http://www.w3.org/1999/xlink">
 <defs>
  <style type="text/css">
*{stroke-linecap:butt;stroke-linejoin:round;}
  </style>
 </defs>
 <g id="figure_1">
  <g id="patch_1">
   <path d="M 0 310.86825 
L 402.02 310.86825 
L 402.02 0 
L 0 0 
z
" style="fill:#ffffff;"/>
  </g>
  <g id="axes_1">
   <g id="patch_2">
    <path d="M 37.7 273.312 
L 394.82 273.312 
L 394.82 7.2 
L 37.7 7.2 
z
" style="fill:#ffffff;"/>
   </g>
   <g id="matplotlib.axis_1">
    <g id="xtick_1">
     <g id="line2d_1">
      <defs>
       <path d="M 0 0 
L 0 3.5 
" id="mcfc571e05a" style="stroke:#000000;stroke-width:0.8;"/>
      </defs>
      <g>
       <use style="stroke:#000000;stroke-width:0.8;" x="53.932727" xlink:href="#mcfc571e05a" y="273.312"/>
      </g>
     </g>
     <g id="text_1">
      <!-- 0 -->
      <defs>
       <path d="M 31.78125 66.40625 
Q 24.171875 66.40625 20.328125 58.90625 
Q 16.5 51.421875 16.5 36.375 
Q 16.5 21.390625 20.328125 13.890625 
Q 24.171875 6.390625 31.78125 6.390625 
Q 39.453125 6.390625 43.28125 13.890625 
Q 47.125 21.390625 47.125 36.375 
Q 47.125 51.421875 43.28125 58.90625 
Q 39.453125 66.40625 31.78125 66.40625 
z
M 31.78125 74.21875 
Q 44.046875 74.21875 50.515625 64.515625 
Q 56.984375 54.828125 56.984375 36.375 
Q 56.984375 17.96875 50.515625 8.265625 
Q 44.046875 -1.421875 31.78125 -1.421875 
Q 19.53125 -1.421875 13.0625 8.265625 
Q 6.59375 17.96875 6.59375 36.375 
Q 6.59375 54.828125 13.0625 64.515625 
Q 19.53125 74.21875 31.78125 74.21875 
z
" id="DejaVuSans-48"/>
      </defs>
      <g transform="translate(50.751477 287.910437)scale(0.1 -0.1)">
       <use xlink:href="#DejaVuSans-48"/>
      </g>
     </g>
    </g>
    <g id="xtick_2">
     <g id="line2d_2">
      <g>
       <use style="stroke:#000000;stroke-width:0.8;" x="98.043399" xlink:href="#mcfc571e05a" y="273.312"/>
      </g>
     </g>
     <g id="text_2">
      <!-- 25 -->
      <defs>
       <path d="M 19.1875 8.296875 
L 53.609375 8.296875 
L 53.609375 0 
L 7.328125 0 
L 7.328125 8.296875 
Q 12.9375 14.109375 22.625 23.890625 
Q 32.328125 33.6875 34.8125 36.53125 
Q 39.546875 41.84375 41.421875 45.53125 
Q 43.3125 49.21875 43.3125 52.78125 
Q 43.3125 58.59375 39.234375 62.25 
Q 35.15625 65.921875 28.609375 65.921875 
Q 23.96875 65.921875 18.8125 64.3125 
Q 13.671875 62.703125 7.8125 59.421875 
L 7.8125 69.390625 
Q 13.765625 71.78125 18.9375 73 
Q 24.125 74.21875 28.421875 74.21875 
Q 39.75 74.21875 46.484375 68.546875 
Q 53.21875 62.890625 53.21875 53.421875 
Q 53.21875 48.921875 51.53125 44.890625 
Q 49.859375 40.875 45.40625 35.40625 
Q 44.1875 33.984375 37.640625 27.21875 
Q 31.109375 20.453125 19.1875 8.296875 
z
" id="DejaVuSans-50"/>
       <path d="M 10.796875 72.90625 
L 49.515625 72.90625 
L 49.515625 64.59375 
L 19.828125 64.59375 
L 19.828125 46.734375 
Q 21.96875 47.46875 24.109375 47.828125 
Q 26.265625 48.1875 28.421875 48.1875 
Q 40.625 48.1875 47.75 41.5 
Q 54.890625 34.8125 54.890625 23.390625 
Q 54.890625 11.625 47.5625 5.09375 
Q 40.234375 -1.421875 26.90625 -1.421875 
Q 22.3125 -1.421875 17.546875 -0.640625 
Q 12.796875 0.140625 7.71875 1.703125 
L 7.71875 11.625 
Q 12.109375 9.234375 16.796875 8.0625 
Q 21.484375 6.890625 26.703125 6.890625 
Q 35.15625 6.890625 40.078125 11.328125 
Q 45.015625 15.765625 45.015625 23.390625 
Q 45.015625 31 40.078125 35.4375 
Q 35.15625 39.890625 26.703125 39.890625 
Q 22.75 39.890625 18.8125 39.015625 
Q 14.890625 38.140625 10.796875 36.28125 
z
" id="DejaVuSans-53"/>
      </defs>
      <g transform="translate(91.680899 287.910437)scale(0.1 -0.1)">
       <use xlink:href="#DejaVuSans-50"/>
       <use x="63.623047" xlink:href="#DejaVuSans-53"/>
      </g>
     </g>
    </g>
    <g id="xtick_3">
     <g id="line2d_3">
      <g>
       <use style="stroke:#000000;stroke-width:0.8;" x="142.154071" xlink:href="#mcfc571e05a" y="273.312"/>
      </g>
     </g>
     <g id="text_3">
      <!-- 50 -->
      <g transform="translate(135.791571 287.910437)scale(0.1 -0.1)">
       <use xlink:href="#DejaVuSans-53"/>
       <use x="63.623047" xlink:href="#DejaVuSans-48"/>
      </g>
     </g>
    </g>
    <g id="xtick_4">
     <g id="line2d_4">
      <g>
       <use style="stroke:#000000;stroke-width:0.8;" x="186.264743" xlink:href="#mcfc571e05a" y="273.312"/>
      </g>
     </g>
     <g id="text_4">
      <!-- 75 -->
      <defs>
       <path d="M 8.203125 72.90625 
L 55.078125 72.90625 
L 55.078125 68.703125 
L 28.609375 0 
L 18.3125 0 
L 43.21875 64.59375 
L 8.203125 64.59375 
z
" id="DejaVuSans-55"/>
      </defs>
      <g transform="translate(179.902243 287.910437)scale(0.1 -0.1)">
       <use xlink:href="#DejaVuSans-55"/>
       <use x="63.623047" xlink:href="#DejaVuSans-53"/>
      </g>
     </g>
    </g>
    <g id="xtick_5">
     <g id="line2d_5">
      <g>
       <use style="stroke:#000000;stroke-width:0.8;" x="230.375415" xlink:href="#mcfc571e05a" y="273.312"/>
      </g>
     </g>
     <g id="text_5">
      <!-- 100 -->
      <defs>
       <path d="M 12.40625 8.296875 
L 28.515625 8.296875 
L 28.515625 63.921875 
L 10.984375 60.40625 
L 10.984375 69.390625 
L 28.421875 72.90625 
L 38.28125 72.90625 
L 38.28125 8.296875 
L 54.390625 8.296875 
L 54.390625 0 
L 12.40625 0 
z
" id="DejaVuSans-49"/>
      </defs>
      <g transform="translate(220.831665 287.910437)scale(0.1 -0.1)">
       <use xlink:href="#DejaVuSans-49"/>
       <use x="63.623047" xlink:href="#DejaVuSans-48"/>
       <use x="127.246094" xlink:href="#DejaVuSans-48"/>
      </g>
     </g>
    </g>
    <g id="xtick_6">
     <g id="line2d_6">
      <g>
       <use style="stroke:#000000;stroke-width:0.8;" x="274.486087" xlink:href="#mcfc571e05a" y="273.312"/>
      </g>
     </g>
     <g id="text_6">
      <!-- 125 -->
      <g transform="translate(264.942337 287.910437)scale(0.1 -0.1)">
       <use xlink:href="#DejaVuSans-49"/>
       <use x="63.623047" xlink:href="#DejaVuSans-50"/>
       <use x="127.246094" xlink:href="#DejaVuSans-53"/>
      </g>
     </g>
    </g>
    <g id="xtick_7">
     <g id="line2d_7">
      <g>
       <use style="stroke:#000000;stroke-width:0.8;" x="318.596759" xlink:href="#mcfc571e05a" y="273.312"/>
      </g>
     </g>
     <g id="text_7">
      <!-- 150 -->
      <g transform="translate(309.053009 287.910437)scale(0.1 -0.1)">
       <use xlink:href="#DejaVuSans-49"/>
       <use x="63.623047" xlink:href="#DejaVuSans-53"/>
       <use x="127.246094" xlink:href="#DejaVuSans-48"/>
      </g>
     </g>
    </g>
    <g id="xtick_8">
     <g id="line2d_8">
      <g>
       <use style="stroke:#000000;stroke-width:0.8;" x="362.707431" xlink:href="#mcfc571e05a" y="273.312"/>
      </g>
     </g>
     <g id="text_8">
      <!-- 175 -->
      <g transform="translate(353.163681 287.910437)scale(0.1 -0.1)">
       <use xlink:href="#DejaVuSans-49"/>
       <use x="63.623047" xlink:href="#DejaVuSans-55"/>
       <use x="127.246094" xlink:href="#DejaVuSans-53"/>
      </g>
     </g>
    </g>
    <g id="text_9">
     <!-- $ k $ -->
     <defs>
      <path d="M 18.3125 75.984375 
L 27.296875 75.984375 
L 18.703125 31.6875 
L 49.515625 54.6875 
L 61.1875 54.6875 
L 26.8125 28.515625 
L 51.90625 0 
L 41.015625 0 
L 17.671875 26.703125 
L 12.5 0 
L 3.515625 0 
z
" id="DejaVuSans-Oblique-107"/>
     </defs>
     <g transform="translate(213.36 301.588562)scale(0.1 -0.1)">
      <use transform="translate(0 0.015625)" xlink:href="#DejaVuSans-Oblique-107"/>
     </g>
    </g>
   </g>
   <g id="matplotlib.axis_2">
    <g id="ytick_1">
     <g id="line2d_9">
      <defs>
       <path d="M 0 0 
L -3.5 0 
" id="m96e5a1880c" style="stroke:#000000;stroke-width:0.8;"/>
      </defs>
      <g>
       <use style="stroke:#000000;stroke-width:0.8;" x="37.7" xlink:href="#m96e5a1880c" y="248.532552"/>
      </g>
     </g>
     <g id="text_10">
      <!-- $\mathdefault{10^{-6}}$ -->
      <defs>
       <path d="M 10.59375 35.5 
L 73.1875 35.5 
L 73.1875 27.203125 
L 10.59375 27.203125 
z
" id="DejaVuSans-8722"/>
       <path d="M 33.015625 40.375 
Q 26.375 40.375 22.484375 35.828125 
Q 18.609375 31.296875 18.609375 23.390625 
Q 18.609375 15.53125 22.484375 10.953125 
Q 26.375 6.390625 33.015625 6.390625 
Q 39.65625 6.390625 43.53125 10.953125 
Q 47.40625 15.53125 47.40625 23.390625 
Q 47.40625 31.296875 43.53125 35.828125 
Q 39.65625 40.375 33.015625 40.375 
z
M 52.59375 71.296875 
L 52.59375 62.3125 
Q 48.875 64.0625 45.09375 64.984375 
Q 41.3125 65.921875 37.59375 65.921875 
Q 27.828125 65.921875 22.671875 59.328125 
Q 17.53125 52.734375 16.796875 39.40625 
Q 19.671875 43.65625 24.015625 45.921875 
Q 28.375 48.1875 33.59375 48.1875 
Q 44.578125 48.1875 50.953125 41.515625 
Q 57.328125 34.859375 57.328125 23.390625 
Q 57.328125 12.15625 50.6875 5.359375 
Q 44.046875 -1.421875 33.015625 -1.421875 
Q 20.359375 -1.421875 13.671875 8.265625 
Q 6.984375 17.96875 6.984375 36.375 
Q 6.984375 53.65625 15.1875 63.9375 
Q 23.390625 74.21875 37.203125 74.21875 
Q 40.921875 74.21875 44.703125 73.484375 
Q 48.484375 72.75 52.59375 71.296875 
z
" id="DejaVuSans-54"/>
      </defs>
      <g transform="translate(7.2 252.33177)scale(0.1 -0.1)">
       <use transform="translate(0 0.765625)" xlink:href="#DejaVuSans-49"/>
       <use transform="translate(63.623047 0.765625)" xlink:href="#DejaVuSans-48"/>
       <use transform="translate(128.203125 39.046875)scale(0.7)" xlink:href="#DejaVuSans-8722"/>
       <use transform="translate(186.855469 39.046875)scale(0.7)" xlink:href="#DejaVuSans-54"/>
      </g>
     </g>
    </g>
    <g id="ytick_2">
     <g id="line2d_10">
      <g>
       <use style="stroke:#000000;stroke-width:0.8;" x="37.7" xlink:href="#m96e5a1880c" y="217.136507"/>
      </g>
     </g>
     <g id="text_11">
      <!-- $\mathdefault{10^{-5}}$ -->
      <g transform="translate(7.2 220.935726)scale(0.1 -0.1)">
       <use transform="translate(0 0.684375)" xlink:href="#DejaVuSans-49"/>
       <use transform="translate(63.623047 0.684375)" xlink:href="#DejaVuSans-48"/>
       <use transform="translate(128.203125 38.965625)scale(0.7)" xlink:href="#DejaVuSans-8722"/>
       <use transform="translate(186.855469 38.965625)scale(0.7)" xlink:href="#DejaVuSans-53"/>
      </g>
     </g>
    </g>
    <g id="ytick_3">
     <g id="line2d_11">
      <g>
       <use style="stroke:#000000;stroke-width:0.8;" x="37.7" xlink:href="#m96e5a1880c" y="185.740462"/>
      </g>
     </g>
     <g id="text_12">
      <!-- $\mathdefault{10^{-4}}$ -->
      <defs>
       <path d="M 37.796875 64.3125 
L 12.890625 25.390625 
L 37.796875 25.390625 
z
M 35.203125 72.90625 
L 47.609375 72.90625 
L 47.609375 25.390625 
L 58.015625 25.390625 
L 58.015625 17.1875 
L 47.609375 17.1875 
L 47.609375 0 
L 37.796875 0 
L 37.796875 17.1875 
L 4.890625 17.1875 
L 4.890625 26.703125 
z
" id="DejaVuSans-52"/>
      </defs>
      <g transform="translate(7.2 189.539681)scale(0.1 -0.1)">
       <use transform="translate(0 0.684375)" xlink:href="#DejaVuSans-49"/>
       <use transform="translate(63.623047 0.684375)" xlink:href="#DejaVuSans-48"/>
       <use transform="translate(128.203125 38.965625)scale(0.7)" xlink:href="#DejaVuSans-8722"/>
       <use transform="translate(186.855469 38.965625)scale(0.7)" xlink:href="#DejaVuSans-52"/>
      </g>
     </g>
    </g>
    <g id="ytick_4">
     <g id="line2d_12">
      <g>
       <use style="stroke:#000000;stroke-width:0.8;" x="37.7" xlink:href="#m96e5a1880c" y="154.344418"/>
      </g>
     </g>
     <g id="text_13">
      <!-- $\mathdefault{10^{-3}}$ -->
      <defs>
       <path d="M 40.578125 39.3125 
Q 47.65625 37.796875 51.625 33 
Q 55.609375 28.21875 55.609375 21.1875 
Q 55.609375 10.40625 48.1875 4.484375 
Q 40.765625 -1.421875 27.09375 -1.421875 
Q 22.515625 -1.421875 17.65625 -0.515625 
Q 12.796875 0.390625 7.625 2.203125 
L 7.625 11.71875 
Q 11.71875 9.328125 16.59375 8.109375 
Q 21.484375 6.890625 26.8125 6.890625 
Q 36.078125 6.890625 40.9375 10.546875 
Q 45.796875 14.203125 45.796875 21.1875 
Q 45.796875 27.640625 41.28125 31.265625 
Q 36.765625 34.90625 28.71875 34.90625 
L 20.21875 34.90625 
L 20.21875 43.015625 
L 29.109375 43.015625 
Q 36.375 43.015625 40.234375 45.921875 
Q 44.09375 48.828125 44.09375 54.296875 
Q 44.09375 59.90625 40.109375 62.90625 
Q 36.140625 65.921875 28.71875 65.921875 
Q 24.65625 65.921875 20.015625 65.03125 
Q 15.375 64.15625 9.8125 62.3125 
L 9.8125 71.09375 
Q 15.4375 72.65625 20.34375 73.4375 
Q 25.25 74.21875 29.59375 74.21875 
Q 40.828125 74.21875 47.359375 69.109375 
Q 53.90625 64.015625 53.90625 55.328125 
Q 53.90625 49.265625 50.4375 45.09375 
Q 46.96875 40.921875 40.578125 39.3125 
z
" id="DejaVuSans-51"/>
      </defs>
      <g transform="translate(7.2 158.143637)scale(0.1 -0.1)">
       <use transform="translate(0 0.765625)" xlink:href="#DejaVuSans-49"/>
       <use transform="translate(63.623047 0.765625)" xlink:href="#DejaVuSans-48"/>
       <use transform="translate(128.203125 39.046875)scale(0.7)" xlink:href="#DejaVuSans-8722"/>
       <use transform="translate(186.855469 39.046875)scale(0.7)" xlink:href="#DejaVuSans-51"/>
      </g>
     </g>
    </g>
    <g id="ytick_5">
     <g id="line2d_13">
      <g>
       <use style="stroke:#000000;stroke-width:0.8;" x="37.7" xlink:href="#m96e5a1880c" y="122.948373"/>
      </g>
     </g>
     <g id="text_14">
      <!-- $\mathdefault{10^{-2}}$ -->
      <g transform="translate(7.2 126.747592)scale(0.1 -0.1)">
       <use transform="translate(0 0.765625)" xlink:href="#DejaVuSans-49"/>
       <use transform="translate(63.623047 0.765625)" xlink:href="#DejaVuSans-48"/>
       <use transform="translate(128.203125 39.046875)scale(0.7)" xlink:href="#DejaVuSans-8722"/>
       <use transform="translate(186.855469 39.046875)scale(0.7)" xlink:href="#DejaVuSans-50"/>
      </g>
     </g>
    </g>
    <g id="ytick_6">
     <g id="line2d_14">
      <g>
       <use style="stroke:#000000;stroke-width:0.8;" x="37.7" xlink:href="#m96e5a1880c" y="91.552329"/>
      </g>
     </g>
     <g id="text_15">
      <!-- $\mathdefault{10^{-1}}$ -->
      <g transform="translate(7.2 95.351547)scale(0.1 -0.1)">
       <use transform="translate(0 0.684375)" xlink:href="#DejaVuSans-49"/>
       <use transform="translate(63.623047 0.684375)" xlink:href="#DejaVuSans-48"/>
       <use transform="translate(128.203125 38.965625)scale(0.7)" xlink:href="#DejaVuSans-8722"/>
       <use transform="translate(186.855469 38.965625)scale(0.7)" xlink:href="#DejaVuSans-49"/>
      </g>
     </g>
    </g>
    <g id="ytick_7">
     <g id="line2d_15">
      <g>
       <use style="stroke:#000000;stroke-width:0.8;" x="37.7" xlink:href="#m96e5a1880c" y="60.156284"/>
      </g>
     </g>
     <g id="text_16">
      <!-- $\mathdefault{10^{0}}$ -->
      <g transform="translate(13.1 63.955503)scale(0.1 -0.1)">
       <use transform="translate(0 0.765625)" xlink:href="#DejaVuSans-49"/>
       <use transform="translate(63.623047 0.765625)" xlink:href="#DejaVuSans-48"/>
       <use transform="translate(128.203125 39.046875)scale(0.7)" xlink:href="#DejaVuSans-48"/>
      </g>
     </g>
    </g>
    <g id="ytick_8">
     <g id="line2d_16">
      <g>
       <use style="stroke:#000000;stroke-width:0.8;" x="37.7" xlink:href="#m96e5a1880c" y="28.760239"/>
      </g>
     </g>
     <g id="text_17">
      <!-- $\mathdefault{10^{1}}$ -->
      <g transform="translate(13.1 32.559458)scale(0.1 -0.1)">
       <use transform="translate(0 0.684375)" xlink:href="#DejaVuSans-49"/>
       <use transform="translate(63.623047 0.684375)" xlink:href="#DejaVuSans-48"/>
       <use transform="translate(128.203125 38.965625)scale(0.7)" xlink:href="#DejaVuSans-49"/>
      </g>
     </g>
    </g>
    <g id="ytick_9">
     <g id="line2d_17">
      <defs>
       <path d="M 0 0 
L -2 0 
" id="m52b787500a" style="stroke:#000000;stroke-width:0.6;"/>
      </defs>
      <g>
       <use style="stroke:#000000;stroke-width:0.6;" x="37.7" xlink:href="#m52b787500a" y="270.477445"/>
      </g>
     </g>
    </g>
    <g id="ytick_10">
     <g id="line2d_18">
      <g>
       <use style="stroke:#000000;stroke-width:0.6;" x="37.7" xlink:href="#m52b787500a" y="264.948876"/>
      </g>
     </g>
    </g>
    <g id="ytick_11">
     <g id="line2d_19">
      <g>
       <use style="stroke:#000000;stroke-width:0.6;" x="37.7" xlink:href="#m52b787500a" y="261.026294"/>
      </g>
     </g>
    </g>
    <g id="ytick_12">
     <g id="line2d_20">
      <g>
       <use style="stroke:#000000;stroke-width:0.6;" x="37.7" xlink:href="#m52b787500a" y="257.983703"/>
      </g>
     </g>
    </g>
    <g id="ytick_13">
     <g id="line2d_21">
      <g>
       <use style="stroke:#000000;stroke-width:0.6;" x="37.7" xlink:href="#m52b787500a" y="255.497725"/>
      </g>
     </g>
    </g>
    <g id="ytick_14">
     <g id="line2d_22">
      <g>
       <use style="stroke:#000000;stroke-width:0.6;" x="37.7" xlink:href="#m52b787500a" y="253.39586"/>
      </g>
     </g>
    </g>
    <g id="ytick_15">
     <g id="line2d_23">
      <g>
       <use style="stroke:#000000;stroke-width:0.6;" x="37.7" xlink:href="#m52b787500a" y="251.575143"/>
      </g>
     </g>
    </g>
    <g id="ytick_16">
     <g id="line2d_24">
      <g>
       <use style="stroke:#000000;stroke-width:0.6;" x="37.7" xlink:href="#m52b787500a" y="249.969156"/>
      </g>
     </g>
    </g>
    <g id="ytick_17">
     <g id="line2d_25">
      <g>
       <use style="stroke:#000000;stroke-width:0.6;" x="37.7" xlink:href="#m52b787500a" y="239.0814"/>
      </g>
     </g>
    </g>
    <g id="ytick_18">
     <g id="line2d_26">
      <g>
       <use style="stroke:#000000;stroke-width:0.6;" x="37.7" xlink:href="#m52b787500a" y="233.552831"/>
      </g>
     </g>
    </g>
    <g id="ytick_19">
     <g id="line2d_27">
      <g>
       <use style="stroke:#000000;stroke-width:0.6;" x="37.7" xlink:href="#m52b787500a" y="229.630249"/>
      </g>
     </g>
    </g>
    <g id="ytick_20">
     <g id="line2d_28">
      <g>
       <use style="stroke:#000000;stroke-width:0.6;" x="37.7" xlink:href="#m52b787500a" y="226.587658"/>
      </g>
     </g>
    </g>
    <g id="ytick_21">
     <g id="line2d_29">
      <g>
       <use style="stroke:#000000;stroke-width:0.6;" x="37.7" xlink:href="#m52b787500a" y="224.10168"/>
      </g>
     </g>
    </g>
    <g id="ytick_22">
     <g id="line2d_30">
      <g>
       <use style="stroke:#000000;stroke-width:0.6;" x="37.7" xlink:href="#m52b787500a" y="221.999816"/>
      </g>
     </g>
    </g>
    <g id="ytick_23">
     <g id="line2d_31">
      <g>
       <use style="stroke:#000000;stroke-width:0.6;" x="37.7" xlink:href="#m52b787500a" y="220.179098"/>
      </g>
     </g>
    </g>
    <g id="ytick_24">
     <g id="line2d_32">
      <g>
       <use style="stroke:#000000;stroke-width:0.6;" x="37.7" xlink:href="#m52b787500a" y="218.573111"/>
      </g>
     </g>
    </g>
    <g id="ytick_25">
     <g id="line2d_33">
      <g>
       <use style="stroke:#000000;stroke-width:0.6;" x="37.7" xlink:href="#m52b787500a" y="207.685356"/>
      </g>
     </g>
    </g>
    <g id="ytick_26">
     <g id="line2d_34">
      <g>
       <use style="stroke:#000000;stroke-width:0.6;" x="37.7" xlink:href="#m52b787500a" y="202.156787"/>
      </g>
     </g>
    </g>
    <g id="ytick_27">
     <g id="line2d_35">
      <g>
       <use style="stroke:#000000;stroke-width:0.6;" x="37.7" xlink:href="#m52b787500a" y="198.234205"/>
      </g>
     </g>
    </g>
    <g id="ytick_28">
     <g id="line2d_36">
      <g>
       <use style="stroke:#000000;stroke-width:0.6;" x="37.7" xlink:href="#m52b787500a" y="195.191614"/>
      </g>
     </g>
    </g>
    <g id="ytick_29">
     <g id="line2d_37">
      <g>
       <use style="stroke:#000000;stroke-width:0.6;" x="37.7" xlink:href="#m52b787500a" y="192.705636"/>
      </g>
     </g>
    </g>
    <g id="ytick_30">
     <g id="line2d_38">
      <g>
       <use style="stroke:#000000;stroke-width:0.6;" x="37.7" xlink:href="#m52b787500a" y="190.603771"/>
      </g>
     </g>
    </g>
    <g id="ytick_31">
     <g id="line2d_39">
      <g>
       <use style="stroke:#000000;stroke-width:0.6;" x="37.7" xlink:href="#m52b787500a" y="188.783053"/>
      </g>
     </g>
    </g>
    <g id="ytick_32">
     <g id="line2d_40">
      <g>
       <use style="stroke:#000000;stroke-width:0.6;" x="37.7" xlink:href="#m52b787500a" y="187.177067"/>
      </g>
     </g>
    </g>
    <g id="ytick_33">
     <g id="line2d_41">
      <g>
       <use style="stroke:#000000;stroke-width:0.6;" x="37.7" xlink:href="#m52b787500a" y="176.289311"/>
      </g>
     </g>
    </g>
    <g id="ytick_34">
     <g id="line2d_42">
      <g>
       <use style="stroke:#000000;stroke-width:0.6;" x="37.7" xlink:href="#m52b787500a" y="170.760742"/>
      </g>
     </g>
    </g>
    <g id="ytick_35">
     <g id="line2d_43">
      <g>
       <use style="stroke:#000000;stroke-width:0.6;" x="37.7" xlink:href="#m52b787500a" y="166.83816"/>
      </g>
     </g>
    </g>
    <g id="ytick_36">
     <g id="line2d_44">
      <g>
       <use style="stroke:#000000;stroke-width:0.6;" x="37.7" xlink:href="#m52b787500a" y="163.795569"/>
      </g>
     </g>
    </g>
    <g id="ytick_37">
     <g id="line2d_45">
      <g>
       <use style="stroke:#000000;stroke-width:0.6;" x="37.7" xlink:href="#m52b787500a" y="161.309591"/>
      </g>
     </g>
    </g>
    <g id="ytick_38">
     <g id="line2d_46">
      <g>
       <use style="stroke:#000000;stroke-width:0.6;" x="37.7" xlink:href="#m52b787500a" y="159.207727"/>
      </g>
     </g>
    </g>
    <g id="ytick_39">
     <g id="line2d_47">
      <g>
       <use style="stroke:#000000;stroke-width:0.6;" x="37.7" xlink:href="#m52b787500a" y="157.387009"/>
      </g>
     </g>
    </g>
    <g id="ytick_40">
     <g id="line2d_48">
      <g>
       <use style="stroke:#000000;stroke-width:0.6;" x="37.7" xlink:href="#m52b787500a" y="155.781022"/>
      </g>
     </g>
    </g>
    <g id="ytick_41">
     <g id="line2d_49">
      <g>
       <use style="stroke:#000000;stroke-width:0.6;" x="37.7" xlink:href="#m52b787500a" y="144.893267"/>
      </g>
     </g>
    </g>
    <g id="ytick_42">
     <g id="line2d_50">
      <g>
       <use style="stroke:#000000;stroke-width:0.6;" x="37.7" xlink:href="#m52b787500a" y="139.364698"/>
      </g>
     </g>
    </g>
    <g id="ytick_43">
     <g id="line2d_51">
      <g>
       <use style="stroke:#000000;stroke-width:0.6;" x="37.7" xlink:href="#m52b787500a" y="135.442115"/>
      </g>
     </g>
    </g>
    <g id="ytick_44">
     <g id="line2d_52">
      <g>
       <use style="stroke:#000000;stroke-width:0.6;" x="37.7" xlink:href="#m52b787500a" y="132.399524"/>
      </g>
     </g>
    </g>
    <g id="ytick_45">
     <g id="line2d_53">
      <g>
       <use style="stroke:#000000;stroke-width:0.6;" x="37.7" xlink:href="#m52b787500a" y="129.913546"/>
      </g>
     </g>
    </g>
    <g id="ytick_46">
     <g id="line2d_54">
      <g>
       <use style="stroke:#000000;stroke-width:0.6;" x="37.7" xlink:href="#m52b787500a" y="127.811682"/>
      </g>
     </g>
    </g>
    <g id="ytick_47">
     <g id="line2d_55">
      <g>
       <use style="stroke:#000000;stroke-width:0.6;" x="37.7" xlink:href="#m52b787500a" y="125.990964"/>
      </g>
     </g>
    </g>
    <g id="ytick_48">
     <g id="line2d_56">
      <g>
       <use style="stroke:#000000;stroke-width:0.6;" x="37.7" xlink:href="#m52b787500a" y="124.384977"/>
      </g>
     </g>
    </g>
    <g id="ytick_49">
     <g id="line2d_57">
      <g>
       <use style="stroke:#000000;stroke-width:0.6;" x="37.7" xlink:href="#m52b787500a" y="113.497222"/>
      </g>
     </g>
    </g>
    <g id="ytick_50">
     <g id="line2d_58">
      <g>
       <use style="stroke:#000000;stroke-width:0.6;" x="37.7" xlink:href="#m52b787500a" y="107.968653"/>
      </g>
     </g>
    </g>
    <g id="ytick_51">
     <g id="line2d_59">
      <g>
       <use style="stroke:#000000;stroke-width:0.6;" x="37.7" xlink:href="#m52b787500a" y="104.046071"/>
      </g>
     </g>
    </g>
    <g id="ytick_52">
     <g id="line2d_60">
      <g>
       <use style="stroke:#000000;stroke-width:0.6;" x="37.7" xlink:href="#m52b787500a" y="101.00348"/>
      </g>
     </g>
    </g>
    <g id="ytick_53">
     <g id="line2d_61">
      <g>
       <use style="stroke:#000000;stroke-width:0.6;" x="37.7" xlink:href="#m52b787500a" y="98.517502"/>
      </g>
     </g>
    </g>
    <g id="ytick_54">
     <g id="line2d_62">
      <g>
       <use style="stroke:#000000;stroke-width:0.6;" x="37.7" xlink:href="#m52b787500a" y="96.415637"/>
      </g>
     </g>
    </g>
    <g id="ytick_55">
     <g id="line2d_63">
      <g>
       <use style="stroke:#000000;stroke-width:0.6;" x="37.7" xlink:href="#m52b787500a" y="94.59492"/>
      </g>
     </g>
    </g>
    <g id="ytick_56">
     <g id="line2d_64">
      <g>
       <use style="stroke:#000000;stroke-width:0.6;" x="37.7" xlink:href="#m52b787500a" y="92.988933"/>
      </g>
     </g>
    </g>
    <g id="ytick_57">
     <g id="line2d_65">
      <g>
       <use style="stroke:#000000;stroke-width:0.6;" x="37.7" xlink:href="#m52b787500a" y="82.101177"/>
      </g>
     </g>
    </g>
    <g id="ytick_58">
     <g id="line2d_66">
      <g>
       <use style="stroke:#000000;stroke-width:0.6;" x="37.7" xlink:href="#m52b787500a" y="76.572608"/>
      </g>
     </g>
    </g>
    <g id="ytick_59">
     <g id="line2d_67">
      <g>
       <use style="stroke:#000000;stroke-width:0.6;" x="37.7" xlink:href="#m52b787500a" y="72.650026"/>
      </g>
     </g>
    </g>
    <g id="ytick_60">
     <g id="line2d_68">
      <g>
       <use style="stroke:#000000;stroke-width:0.6;" x="37.7" xlink:href="#m52b787500a" y="69.607435"/>
      </g>
     </g>
    </g>
    <g id="ytick_61">
     <g id="line2d_69">
      <g>
       <use style="stroke:#000000;stroke-width:0.6;" x="37.7" xlink:href="#m52b787500a" y="67.121457"/>
      </g>
     </g>
    </g>
    <g id="ytick_62">
     <g id="line2d_70">
      <g>
       <use style="stroke:#000000;stroke-width:0.6;" x="37.7" xlink:href="#m52b787500a" y="65.019593"/>
      </g>
     </g>
    </g>
    <g id="ytick_63">
     <g id="line2d_71">
      <g>
       <use style="stroke:#000000;stroke-width:0.6;" x="37.7" xlink:href="#m52b787500a" y="63.198875"/>
      </g>
     </g>
    </g>
    <g id="ytick_64">
     <g id="line2d_72">
      <g>
       <use style="stroke:#000000;stroke-width:0.6;" x="37.7" xlink:href="#m52b787500a" y="61.592888"/>
      </g>
     </g>
    </g>
    <g id="ytick_65">
     <g id="line2d_73">
      <g>
       <use style="stroke:#000000;stroke-width:0.6;" x="37.7" xlink:href="#m52b787500a" y="50.705133"/>
      </g>
     </g>
    </g>
    <g id="ytick_66">
     <g id="line2d_74">
      <g>
       <use style="stroke:#000000;stroke-width:0.6;" x="37.7" xlink:href="#m52b787500a" y="45.176564"/>
      </g>
     </g>
    </g>
    <g id="ytick_67">
     <g id="line2d_75">
      <g>
       <use style="stroke:#000000;stroke-width:0.6;" x="37.7" xlink:href="#m52b787500a" y="41.253982"/>
      </g>
     </g>
    </g>
    <g id="ytick_68">
     <g id="line2d_76">
      <g>
       <use style="stroke:#000000;stroke-width:0.6;" x="37.7" xlink:href="#m52b787500a" y="38.211391"/>
      </g>
     </g>
    </g>
    <g id="ytick_69">
     <g id="line2d_77">
      <g>
       <use style="stroke:#000000;stroke-width:0.6;" x="37.7" xlink:href="#m52b787500a" y="35.725413"/>
      </g>
     </g>
    </g>
    <g id="ytick_70">
     <g id="line2d_78">
      <g>
       <use style="stroke:#000000;stroke-width:0.6;" x="37.7" xlink:href="#m52b787500a" y="33.623548"/>
      </g>
     </g>
    </g>
    <g id="ytick_71">
     <g id="line2d_79">
      <g>
       <use style="stroke:#000000;stroke-width:0.6;" x="37.7" xlink:href="#m52b787500a" y="31.80283"/>
      </g>
     </g>
    </g>
    <g id="ytick_72">
     <g id="line2d_80">
      <g>
       <use style="stroke:#000000;stroke-width:0.6;" x="37.7" xlink:href="#m52b787500a" y="30.196844"/>
      </g>
     </g>
    </g>
    <g id="ytick_73">
     <g id="line2d_81">
      <g>
       <use style="stroke:#000000;stroke-width:0.6;" x="37.7" xlink:href="#m52b787500a" y="19.309088"/>
      </g>
     </g>
    </g>
    <g id="ytick_74">
     <g id="line2d_82">
      <g>
       <use style="stroke:#000000;stroke-width:0.6;" x="37.7" xlink:href="#m52b787500a" y="13.780519"/>
      </g>
     </g>
    </g>
    <g id="ytick_75">
     <g id="line2d_83">
      <g>
       <use style="stroke:#000000;stroke-width:0.6;" x="37.7" xlink:href="#m52b787500a" y="9.857937"/>
      </g>
     </g>
    </g>
   </g>
   <g id="line2d_84">
    <path clip-path="url(#pf42384f161)" d="M 53.932727 19.296 
L 55.697154 61.625185 
L 57.461581 95.860662 
L 59.226008 133.274154 
L 60.990435 161.334728 
L 62.754862 183.571196 
L 64.519289 159.129701 
L 66.283715 164.377634 
L 68.048142 154.843908 
L 69.812569 154.629745 
L 71.576996 182.258488 
L 73.341423 162.735812 
L 75.10585 140.906092 
L 76.870277 176.409505 
L 78.634704 191.647127 
L 80.39913 185.018035 
L 82.163557 157.67111 
L 83.927984 153.308274 
L 87.456838 177.647023 
L 89.221265 207.361297 
L 90.985692 160.059118 
L 92.750119 166.875726 
L 94.514545 168.743032 
L 96.278972 153.869306 
L 98.043399 165.012798 
L 99.807826 179.048855 
L 101.572253 172.841135 
L 103.33668 169.99148 
L 105.101107 162.82617 
L 106.865534 166.590445 
L 108.62996 167.335391 
L 110.394387 171.181138 
L 112.158814 169.497033 
L 113.923241 161.573983 
L 115.687668 208.995815 
L 117.452095 156.31224 
L 119.216522 160.586636 
L 120.980949 165.857934 
L 122.745375 155.99869 
L 124.509802 163.647886 
L 126.274229 170.059016 
L 128.038656 151.418248 
L 129.803083 164.035992 
L 131.56751 170.224541 
L 133.331937 165.472089 
L 135.096364 167.233386 
L 136.860791 242.541529 
L 138.625217 165.743502 
L 140.389644 147.392229 
L 142.154071 160.492321 
L 143.918498 154.993871 
L 145.682925 210.671325 
L 147.447352 158.145713 
L 149.211779 150.947386 
L 150.976206 188.021585 
L 152.740632 182.897038 
L 154.505059 152.968945 
L 156.269486 152.906845 
L 158.033913 154.526472 
L 159.79834 162.667453 
L 161.562767 157.380563 
L 163.327194 173.328621 
L 165.091621 158.317289 
L 166.856047 204.347528 
L 168.620474 163.340724 
L 170.384901 160.963173 
L 172.149328 160.022583 
L 173.913755 186.087874 
L 175.678182 205.263202 
L 177.442609 150.96741 
L 179.207036 162.214448 
L 180.971462 164.979956 
L 182.735889 152.310111 
L 184.500316 171.714941 
L 186.264743 176.066474 
L 188.02917 169.202035 
L 189.793597 182.519517 
L 191.558024 186.258927 
L 193.322451 178.909212 
L 195.086877 153.7941 
L 196.851304 183.911508 
L 198.615731 175.881085 
L 200.380158 174.67709 
L 202.144585 162.06398 
L 203.909012 156.623618 
L 205.673439 164.619184 
L 207.437866 148.70418 
L 209.202292 151.508695 
L 210.966719 158.381331 
L 212.731146 159.244833 
L 214.495573 166.608485 
L 216.26 166.279582 
L 218.024427 162.700709 
L 219.788854 160.534959 
L 221.553281 180.39411 
L 223.317708 146.100769 
L 225.082134 209.5851 
L 226.846561 194.357832 
L 228.610988 206.950323 
L 230.375415 164.24471 
L 232.139842 166.510024 
L 233.904269 161.831764 
L 235.668696 153.220601 
L 237.433123 152.794655 
L 239.197549 160.990182 
L 240.961976 209.008296 
L 242.726403 155.647053 
L 244.49083 185.979646 
L 246.255257 193.027543 
L 248.019684 159.039588 
L 249.784111 155.047817 
L 251.548538 188.010722 
L 253.312964 147.466005 
L 255.077391 152.476772 
L 256.841818 179.69295 
L 258.606245 217.752547 
L 260.370672 157.848902 
L 262.135099 152.159118 
L 263.899526 184.15775 
L 265.663953 181.978714 
L 267.428379 150.362158 
L 269.192806 155.256125 
L 270.957233 170.514821 
L 272.72166 165.983056 
L 274.486087 166.653406 
L 276.250514 145.522098 
L 278.014941 164.981387 
L 279.779368 174.040496 
L 281.543794 187.461586 
L 283.308221 155.290729 
L 285.072648 164.839991 
L 286.837075 146.329401 
L 288.601502 157.369827 
L 290.365929 155.552453 
L 292.130356 152.066984 
L 293.894783 169.393104 
L 295.659209 162.9635 
L 297.423636 168.244698 
L 299.188063 189.569188 
L 300.95249 179.561523 
L 302.716917 157.172614 
L 304.481344 165.942733 
L 306.245771 175.50841 
L 308.010198 175.396238 
L 309.774625 154.899474 
L 311.539051 152.610399 
L 313.303478 197.285533 
L 315.067905 179.417611 
L 316.832332 197.180456 
L 318.596759 147.482857 
L 320.361186 186.393149 
L 322.125613 261.216 
L 323.89004 153.258854 
L 325.654466 185.176862 
L 327.418893 171.183154 
L 329.18332 152.453893 
L 330.947747 194.890639 
L 332.712174 166.027719 
L 334.476601 156.467254 
L 336.241028 181.010292 
L 338.005455 168.146064 
L 339.769881 160.422165 
L 341.534308 180.191855 
L 343.298735 150.854603 
L 345.063162 170.382034 
L 346.827589 192.578642 
L 348.592016 155.641022 
L 350.356443 164.153532 
L 352.12087 166.492868 
L 355.649723 149.162424 
L 357.41415 173.395016 
L 359.178577 148.791665 
L 360.943004 178.635583 
L 362.707431 162.371962 
L 364.471858 161.759458 
L 366.236285 173.935535 
L 368.000711 154.390434 
L 369.765138 156.061572 
L 371.529565 167.864328 
L 373.293992 190.083305 
L 375.058419 184.822112 
L 375.065587 311.86825 
L 375.065587 311.86825 
" style="fill:none;stroke:#1f77b4;stroke-linecap:square;stroke-width:1.5;"/>
    <defs>
     <path d="M 0 3 
C 0.795609 3 1.55874 2.683901 2.12132 2.12132 
C 2.683901 1.55874 3 0.795609 3 0 
C 3 -0.795609 2.683901 -1.55874 2.12132 -2.12132 
C 1.55874 -2.683901 0.795609 -3 0 -3 
C -0.795609 -3 -1.55874 -2.683901 -2.12132 -2.12132 
C -2.683901 -1.55874 -3 -0.795609 -3 0 
C -3 0.795609 -2.683901 1.55874 -2.12132 2.12132 
C -1.55874 2.683901 -0.795609 3 0 3 
z
" id="m0c7d98d303" style="stroke:#1f77b4;"/>
    </defs>
    <g clip-path="url(#pf42384f161)">
     <use style="fill:#1f77b4;stroke:#1f77b4;" x="53.932727" xlink:href="#m0c7d98d303" y="19.296"/>
     <use style="fill:#1f77b4;stroke:#1f77b4;" x="55.697154" xlink:href="#m0c7d98d303" y="61.625185"/>
     <use style="fill:#1f77b4;stroke:#1f77b4;" x="57.461581" xlink:href="#m0c7d98d303" y="95.860662"/>
     <use style="fill:#1f77b4;stroke:#1f77b4;" x="59.226008" xlink:href="#m0c7d98d303" y="133.274154"/>
     <use style="fill:#1f77b4;stroke:#1f77b4;" x="60.990435" xlink:href="#m0c7d98d303" y="161.334728"/>
     <use style="fill:#1f77b4;stroke:#1f77b4;" x="62.754862" xlink:href="#m0c7d98d303" y="183.571196"/>
     <use style="fill:#1f77b4;stroke:#1f77b4;" x="64.519289" xlink:href="#m0c7d98d303" y="159.129701"/>
     <use style="fill:#1f77b4;stroke:#1f77b4;" x="66.283715" xlink:href="#m0c7d98d303" y="164.377634"/>
     <use style="fill:#1f77b4;stroke:#1f77b4;" x="68.048142" xlink:href="#m0c7d98d303" y="154.843908"/>
     <use style="fill:#1f77b4;stroke:#1f77b4;" x="69.812569" xlink:href="#m0c7d98d303" y="154.629745"/>
     <use style="fill:#1f77b4;stroke:#1f77b4;" x="71.576996" xlink:href="#m0c7d98d303" y="182.258488"/>
     <use style="fill:#1f77b4;stroke:#1f77b4;" x="73.341423" xlink:href="#m0c7d98d303" y="162.735812"/>
     <use style="fill:#1f77b4;stroke:#1f77b4;" x="75.10585" xlink:href="#m0c7d98d303" y="140.906092"/>
     <use style="fill:#1f77b4;stroke:#1f77b4;" x="76.870277" xlink:href="#m0c7d98d303" y="176.409505"/>
     <use style="fill:#1f77b4;stroke:#1f77b4;" x="78.634704" xlink:href="#m0c7d98d303" y="191.647127"/>
     <use style="fill:#1f77b4;stroke:#1f77b4;" x="80.39913" xlink:href="#m0c7d98d303" y="185.018035"/>
     <use style="fill:#1f77b4;stroke:#1f77b4;" x="82.163557" xlink:href="#m0c7d98d303" y="157.67111"/>
     <use style="fill:#1f77b4;stroke:#1f77b4;" x="83.927984" xlink:href="#m0c7d98d303" y="153.308274"/>
     <use style="fill:#1f77b4;stroke:#1f77b4;" x="85.692411" xlink:href="#m0c7d98d303" y="165.658211"/>
     <use style="fill:#1f77b4;stroke:#1f77b4;" x="87.456838" xlink:href="#m0c7d98d303" y="177.647023"/>
     <use style="fill:#1f77b4;stroke:#1f77b4;" x="89.221265" xlink:href="#m0c7d98d303" y="207.361297"/>
     <use style="fill:#1f77b4;stroke:#1f77b4;" x="90.985692" xlink:href="#m0c7d98d303" y="160.059118"/>
     <use style="fill:#1f77b4;stroke:#1f77b4;" x="92.750119" xlink:href="#m0c7d98d303" y="166.875726"/>
     <use style="fill:#1f77b4;stroke:#1f77b4;" x="94.514545" xlink:href="#m0c7d98d303" y="168.743032"/>
     <use style="fill:#1f77b4;stroke:#1f77b4;" x="96.278972" xlink:href="#m0c7d98d303" y="153.869306"/>
     <use style="fill:#1f77b4;stroke:#1f77b4;" x="98.043399" xlink:href="#m0c7d98d303" y="165.012798"/>
     <use style="fill:#1f77b4;stroke:#1f77b4;" x="99.807826" xlink:href="#m0c7d98d303" y="179.048855"/>
     <use style="fill:#1f77b4;stroke:#1f77b4;" x="101.572253" xlink:href="#m0c7d98d303" y="172.841135"/>
     <use style="fill:#1f77b4;stroke:#1f77b4;" x="103.33668" xlink:href="#m0c7d98d303" y="169.99148"/>
     <use style="fill:#1f77b4;stroke:#1f77b4;" x="105.101107" xlink:href="#m0c7d98d303" y="162.82617"/>
     <use style="fill:#1f77b4;stroke:#1f77b4;" x="106.865534" xlink:href="#m0c7d98d303" y="166.590445"/>
     <use style="fill:#1f77b4;stroke:#1f77b4;" x="108.62996" xlink:href="#m0c7d98d303" y="167.335391"/>
     <use style="fill:#1f77b4;stroke:#1f77b4;" x="110.394387" xlink:href="#m0c7d98d303" y="171.181138"/>
     <use style="fill:#1f77b4;stroke:#1f77b4;" x="112.158814" xlink:href="#m0c7d98d303" y="169.497033"/>
     <use style="fill:#1f77b4;stroke:#1f77b4;" x="113.923241" xlink:href="#m0c7d98d303" y="161.573983"/>
     <use style="fill:#1f77b4;stroke:#1f77b4;" x="115.687668" xlink:href="#m0c7d98d303" y="208.995815"/>
     <use style="fill:#1f77b4;stroke:#1f77b4;" x="117.452095" xlink:href="#m0c7d98d303" y="156.31224"/>
     <use style="fill:#1f77b4;stroke:#1f77b4;" x="119.216522" xlink:href="#m0c7d98d303" y="160.586636"/>
     <use style="fill:#1f77b4;stroke:#1f77b4;" x="120.980949" xlink:href="#m0c7d98d303" y="165.857934"/>
     <use style="fill:#1f77b4;stroke:#1f77b4;" x="122.745375" xlink:href="#m0c7d98d303" y="155.99869"/>
     <use style="fill:#1f77b4;stroke:#1f77b4;" x="124.509802" xlink:href="#m0c7d98d303" y="163.647886"/>
     <use style="fill:#1f77b4;stroke:#1f77b4;" x="126.274229" xlink:href="#m0c7d98d303" y="170.059016"/>
     <use style="fill:#1f77b4;stroke:#1f77b4;" x="128.038656" xlink:href="#m0c7d98d303" y="151.418248"/>
     <use style="fill:#1f77b4;stroke:#1f77b4;" x="129.803083" xlink:href="#m0c7d98d303" y="164.035992"/>
     <use style="fill:#1f77b4;stroke:#1f77b4;" x="131.56751" xlink:href="#m0c7d98d303" y="170.224541"/>
     <use style="fill:#1f77b4;stroke:#1f77b4;" x="133.331937" xlink:href="#m0c7d98d303" y="165.472089"/>
     <use style="fill:#1f77b4;stroke:#1f77b4;" x="135.096364" xlink:href="#m0c7d98d303" y="167.233386"/>
     <use style="fill:#1f77b4;stroke:#1f77b4;" x="136.860791" xlink:href="#m0c7d98d303" y="242.541529"/>
     <use style="fill:#1f77b4;stroke:#1f77b4;" x="138.625217" xlink:href="#m0c7d98d303" y="165.743502"/>
     <use style="fill:#1f77b4;stroke:#1f77b4;" x="140.389644" xlink:href="#m0c7d98d303" y="147.392229"/>
     <use style="fill:#1f77b4;stroke:#1f77b4;" x="142.154071" xlink:href="#m0c7d98d303" y="160.492321"/>
     <use style="fill:#1f77b4;stroke:#1f77b4;" x="143.918498" xlink:href="#m0c7d98d303" y="154.993871"/>
     <use style="fill:#1f77b4;stroke:#1f77b4;" x="145.682925" xlink:href="#m0c7d98d303" y="210.671325"/>
     <use style="fill:#1f77b4;stroke:#1f77b4;" x="147.447352" xlink:href="#m0c7d98d303" y="158.145713"/>
     <use style="fill:#1f77b4;stroke:#1f77b4;" x="149.211779" xlink:href="#m0c7d98d303" y="150.947386"/>
     <use style="fill:#1f77b4;stroke:#1f77b4;" x="150.976206" xlink:href="#m0c7d98d303" y="188.021585"/>
     <use style="fill:#1f77b4;stroke:#1f77b4;" x="152.740632" xlink:href="#m0c7d98d303" y="182.897038"/>
     <use style="fill:#1f77b4;stroke:#1f77b4;" x="154.505059" xlink:href="#m0c7d98d303" y="152.968945"/>
     <use style="fill:#1f77b4;stroke:#1f77b4;" x="156.269486" xlink:href="#m0c7d98d303" y="152.906845"/>
     <use style="fill:#1f77b4;stroke:#1f77b4;" x="158.033913" xlink:href="#m0c7d98d303" y="154.526472"/>
     <use style="fill:#1f77b4;stroke:#1f77b4;" x="159.79834" xlink:href="#m0c7d98d303" y="162.667453"/>
     <use style="fill:#1f77b4;stroke:#1f77b4;" x="161.562767" xlink:href="#m0c7d98d303" y="157.380563"/>
     <use style="fill:#1f77b4;stroke:#1f77b4;" x="163.327194" xlink:href="#m0c7d98d303" y="173.328621"/>
     <use style="fill:#1f77b4;stroke:#1f77b4;" x="165.091621" xlink:href="#m0c7d98d303" y="158.317289"/>
     <use style="fill:#1f77b4;stroke:#1f77b4;" x="166.856047" xlink:href="#m0c7d98d303" y="204.347528"/>
     <use style="fill:#1f77b4;stroke:#1f77b4;" x="168.620474" xlink:href="#m0c7d98d303" y="163.340724"/>
     <use style="fill:#1f77b4;stroke:#1f77b4;" x="170.384901" xlink:href="#m0c7d98d303" y="160.963173"/>
     <use style="fill:#1f77b4;stroke:#1f77b4;" x="172.149328" xlink:href="#m0c7d98d303" y="160.022583"/>
     <use style="fill:#1f77b4;stroke:#1f77b4;" x="173.913755" xlink:href="#m0c7d98d303" y="186.087874"/>
     <use style="fill:#1f77b4;stroke:#1f77b4;" x="175.678182" xlink:href="#m0c7d98d303" y="205.263202"/>
     <use style="fill:#1f77b4;stroke:#1f77b4;" x="177.442609" xlink:href="#m0c7d98d303" y="150.96741"/>
     <use style="fill:#1f77b4;stroke:#1f77b4;" x="179.207036" xlink:href="#m0c7d98d303" y="162.214448"/>
     <use style="fill:#1f77b4;stroke:#1f77b4;" x="180.971462" xlink:href="#m0c7d98d303" y="164.979956"/>
     <use style="fill:#1f77b4;stroke:#1f77b4;" x="182.735889" xlink:href="#m0c7d98d303" y="152.310111"/>
     <use style="fill:#1f77b4;stroke:#1f77b4;" x="184.500316" xlink:href="#m0c7d98d303" y="171.714941"/>
     <use style="fill:#1f77b4;stroke:#1f77b4;" x="186.264743" xlink:href="#m0c7d98d303" y="176.066474"/>
     <use style="fill:#1f77b4;stroke:#1f77b4;" x="188.02917" xlink:href="#m0c7d98d303" y="169.202035"/>
     <use style="fill:#1f77b4;stroke:#1f77b4;" x="189.793597" xlink:href="#m0c7d98d303" y="182.519517"/>
     <use style="fill:#1f77b4;stroke:#1f77b4;" x="191.558024" xlink:href="#m0c7d98d303" y="186.258927"/>
     <use style="fill:#1f77b4;stroke:#1f77b4;" x="193.322451" xlink:href="#m0c7d98d303" y="178.909212"/>
     <use style="fill:#1f77b4;stroke:#1f77b4;" x="195.086877" xlink:href="#m0c7d98d303" y="153.7941"/>
     <use style="fill:#1f77b4;stroke:#1f77b4;" x="196.851304" xlink:href="#m0c7d98d303" y="183.911508"/>
     <use style="fill:#1f77b4;stroke:#1f77b4;" x="198.615731" xlink:href="#m0c7d98d303" y="175.881085"/>
     <use style="fill:#1f77b4;stroke:#1f77b4;" x="200.380158" xlink:href="#m0c7d98d303" y="174.67709"/>
     <use style="fill:#1f77b4;stroke:#1f77b4;" x="202.144585" xlink:href="#m0c7d98d303" y="162.06398"/>
     <use style="fill:#1f77b4;stroke:#1f77b4;" x="203.909012" xlink:href="#m0c7d98d303" y="156.623618"/>
     <use style="fill:#1f77b4;stroke:#1f77b4;" x="205.673439" xlink:href="#m0c7d98d303" y="164.619184"/>
     <use style="fill:#1f77b4;stroke:#1f77b4;" x="207.437866" xlink:href="#m0c7d98d303" y="148.70418"/>
     <use style="fill:#1f77b4;stroke:#1f77b4;" x="209.202292" xlink:href="#m0c7d98d303" y="151.508695"/>
     <use style="fill:#1f77b4;stroke:#1f77b4;" x="210.966719" xlink:href="#m0c7d98d303" y="158.381331"/>
     <use style="fill:#1f77b4;stroke:#1f77b4;" x="212.731146" xlink:href="#m0c7d98d303" y="159.244833"/>
     <use style="fill:#1f77b4;stroke:#1f77b4;" x="214.495573" xlink:href="#m0c7d98d303" y="166.608485"/>
     <use style="fill:#1f77b4;stroke:#1f77b4;" x="216.26" xlink:href="#m0c7d98d303" y="166.279582"/>
     <use style="fill:#1f77b4;stroke:#1f77b4;" x="218.024427" xlink:href="#m0c7d98d303" y="162.700709"/>
     <use style="fill:#1f77b4;stroke:#1f77b4;" x="219.788854" xlink:href="#m0c7d98d303" y="160.534959"/>
     <use style="fill:#1f77b4;stroke:#1f77b4;" x="221.553281" xlink:href="#m0c7d98d303" y="180.39411"/>
     <use style="fill:#1f77b4;stroke:#1f77b4;" x="223.317708" xlink:href="#m0c7d98d303" y="146.100769"/>
     <use style="fill:#1f77b4;stroke:#1f77b4;" x="225.082134" xlink:href="#m0c7d98d303" y="209.5851"/>
     <use style="fill:#1f77b4;stroke:#1f77b4;" x="226.846561" xlink:href="#m0c7d98d303" y="194.357832"/>
     <use style="fill:#1f77b4;stroke:#1f77b4;" x="228.610988" xlink:href="#m0c7d98d303" y="206.950323"/>
     <use style="fill:#1f77b4;stroke:#1f77b4;" x="230.375415" xlink:href="#m0c7d98d303" y="164.24471"/>
     <use style="fill:#1f77b4;stroke:#1f77b4;" x="232.139842" xlink:href="#m0c7d98d303" y="166.510024"/>
     <use style="fill:#1f77b4;stroke:#1f77b4;" x="233.904269" xlink:href="#m0c7d98d303" y="161.831764"/>
     <use style="fill:#1f77b4;stroke:#1f77b4;" x="235.668696" xlink:href="#m0c7d98d303" y="153.220601"/>
     <use style="fill:#1f77b4;stroke:#1f77b4;" x="237.433123" xlink:href="#m0c7d98d303" y="152.794655"/>
     <use style="fill:#1f77b4;stroke:#1f77b4;" x="239.197549" xlink:href="#m0c7d98d303" y="160.990182"/>
     <use style="fill:#1f77b4;stroke:#1f77b4;" x="240.961976" xlink:href="#m0c7d98d303" y="209.008296"/>
     <use style="fill:#1f77b4;stroke:#1f77b4;" x="242.726403" xlink:href="#m0c7d98d303" y="155.647053"/>
     <use style="fill:#1f77b4;stroke:#1f77b4;" x="244.49083" xlink:href="#m0c7d98d303" y="185.979646"/>
     <use style="fill:#1f77b4;stroke:#1f77b4;" x="246.255257" xlink:href="#m0c7d98d303" y="193.027543"/>
     <use style="fill:#1f77b4;stroke:#1f77b4;" x="248.019684" xlink:href="#m0c7d98d303" y="159.039588"/>
     <use style="fill:#1f77b4;stroke:#1f77b4;" x="249.784111" xlink:href="#m0c7d98d303" y="155.047817"/>
     <use style="fill:#1f77b4;stroke:#1f77b4;" x="251.548538" xlink:href="#m0c7d98d303" y="188.010722"/>
     <use style="fill:#1f77b4;stroke:#1f77b4;" x="253.312964" xlink:href="#m0c7d98d303" y="147.466005"/>
     <use style="fill:#1f77b4;stroke:#1f77b4;" x="255.077391" xlink:href="#m0c7d98d303" y="152.476772"/>
     <use style="fill:#1f77b4;stroke:#1f77b4;" x="256.841818" xlink:href="#m0c7d98d303" y="179.69295"/>
     <use style="fill:#1f77b4;stroke:#1f77b4;" x="258.606245" xlink:href="#m0c7d98d303" y="217.752547"/>
     <use style="fill:#1f77b4;stroke:#1f77b4;" x="260.370672" xlink:href="#m0c7d98d303" y="157.848902"/>
     <use style="fill:#1f77b4;stroke:#1f77b4;" x="262.135099" xlink:href="#m0c7d98d303" y="152.159118"/>
     <use style="fill:#1f77b4;stroke:#1f77b4;" x="263.899526" xlink:href="#m0c7d98d303" y="184.15775"/>
     <use style="fill:#1f77b4;stroke:#1f77b4;" x="265.663953" xlink:href="#m0c7d98d303" y="181.978714"/>
     <use style="fill:#1f77b4;stroke:#1f77b4;" x="267.428379" xlink:href="#m0c7d98d303" y="150.362158"/>
     <use style="fill:#1f77b4;stroke:#1f77b4;" x="269.192806" xlink:href="#m0c7d98d303" y="155.256125"/>
     <use style="fill:#1f77b4;stroke:#1f77b4;" x="270.957233" xlink:href="#m0c7d98d303" y="170.514821"/>
     <use style="fill:#1f77b4;stroke:#1f77b4;" x="272.72166" xlink:href="#m0c7d98d303" y="165.983056"/>
     <use style="fill:#1f77b4;stroke:#1f77b4;" x="274.486087" xlink:href="#m0c7d98d303" y="166.653406"/>
     <use style="fill:#1f77b4;stroke:#1f77b4;" x="276.250514" xlink:href="#m0c7d98d303" y="145.522098"/>
     <use style="fill:#1f77b4;stroke:#1f77b4;" x="278.014941" xlink:href="#m0c7d98d303" y="164.981387"/>
     <use style="fill:#1f77b4;stroke:#1f77b4;" x="279.779368" xlink:href="#m0c7d98d303" y="174.040496"/>
     <use style="fill:#1f77b4;stroke:#1f77b4;" x="281.543794" xlink:href="#m0c7d98d303" y="187.461586"/>
     <use style="fill:#1f77b4;stroke:#1f77b4;" x="283.308221" xlink:href="#m0c7d98d303" y="155.290729"/>
     <use style="fill:#1f77b4;stroke:#1f77b4;" x="285.072648" xlink:href="#m0c7d98d303" y="164.839991"/>
     <use style="fill:#1f77b4;stroke:#1f77b4;" x="286.837075" xlink:href="#m0c7d98d303" y="146.329401"/>
     <use style="fill:#1f77b4;stroke:#1f77b4;" x="288.601502" xlink:href="#m0c7d98d303" y="157.369827"/>
     <use style="fill:#1f77b4;stroke:#1f77b4;" x="290.365929" xlink:href="#m0c7d98d303" y="155.552453"/>
     <use style="fill:#1f77b4;stroke:#1f77b4;" x="292.130356" xlink:href="#m0c7d98d303" y="152.066984"/>
     <use style="fill:#1f77b4;stroke:#1f77b4;" x="293.894783" xlink:href="#m0c7d98d303" y="169.393104"/>
     <use style="fill:#1f77b4;stroke:#1f77b4;" x="295.659209" xlink:href="#m0c7d98d303" y="162.9635"/>
     <use style="fill:#1f77b4;stroke:#1f77b4;" x="297.423636" xlink:href="#m0c7d98d303" y="168.244698"/>
     <use style="fill:#1f77b4;stroke:#1f77b4;" x="299.188063" xlink:href="#m0c7d98d303" y="189.569188"/>
     <use style="fill:#1f77b4;stroke:#1f77b4;" x="300.95249" xlink:href="#m0c7d98d303" y="179.561523"/>
     <use style="fill:#1f77b4;stroke:#1f77b4;" x="302.716917" xlink:href="#m0c7d98d303" y="157.172614"/>
     <use style="fill:#1f77b4;stroke:#1f77b4;" x="304.481344" xlink:href="#m0c7d98d303" y="165.942733"/>
     <use style="fill:#1f77b4;stroke:#1f77b4;" x="306.245771" xlink:href="#m0c7d98d303" y="175.50841"/>
     <use style="fill:#1f77b4;stroke:#1f77b4;" x="308.010198" xlink:href="#m0c7d98d303" y="175.396238"/>
     <use style="fill:#1f77b4;stroke:#1f77b4;" x="309.774625" xlink:href="#m0c7d98d303" y="154.899474"/>
     <use style="fill:#1f77b4;stroke:#1f77b4;" x="311.539051" xlink:href="#m0c7d98d303" y="152.610399"/>
     <use style="fill:#1f77b4;stroke:#1f77b4;" x="313.303478" xlink:href="#m0c7d98d303" y="197.285533"/>
     <use style="fill:#1f77b4;stroke:#1f77b4;" x="315.067905" xlink:href="#m0c7d98d303" y="179.417611"/>
     <use style="fill:#1f77b4;stroke:#1f77b4;" x="316.832332" xlink:href="#m0c7d98d303" y="197.180456"/>
     <use style="fill:#1f77b4;stroke:#1f77b4;" x="318.596759" xlink:href="#m0c7d98d303" y="147.482857"/>
     <use style="fill:#1f77b4;stroke:#1f77b4;" x="320.361186" xlink:href="#m0c7d98d303" y="186.393149"/>
     <use style="fill:#1f77b4;stroke:#1f77b4;" x="322.125613" xlink:href="#m0c7d98d303" y="261.216"/>
     <use style="fill:#1f77b4;stroke:#1f77b4;" x="323.89004" xlink:href="#m0c7d98d303" y="153.258854"/>
     <use style="fill:#1f77b4;stroke:#1f77b4;" x="325.654466" xlink:href="#m0c7d98d303" y="185.176862"/>
     <use style="fill:#1f77b4;stroke:#1f77b4;" x="327.418893" xlink:href="#m0c7d98d303" y="171.183154"/>
     <use style="fill:#1f77b4;stroke:#1f77b4;" x="329.18332" xlink:href="#m0c7d98d303" y="152.453893"/>
     <use style="fill:#1f77b4;stroke:#1f77b4;" x="330.947747" xlink:href="#m0c7d98d303" y="194.890639"/>
     <use style="fill:#1f77b4;stroke:#1f77b4;" x="332.712174" xlink:href="#m0c7d98d303" y="166.027719"/>
     <use style="fill:#1f77b4;stroke:#1f77b4;" x="334.476601" xlink:href="#m0c7d98d303" y="156.467254"/>
     <use style="fill:#1f77b4;stroke:#1f77b4;" x="336.241028" xlink:href="#m0c7d98d303" y="181.010292"/>
     <use style="fill:#1f77b4;stroke:#1f77b4;" x="338.005455" xlink:href="#m0c7d98d303" y="168.146064"/>
     <use style="fill:#1f77b4;stroke:#1f77b4;" x="339.769881" xlink:href="#m0c7d98d303" y="160.422165"/>
     <use style="fill:#1f77b4;stroke:#1f77b4;" x="341.534308" xlink:href="#m0c7d98d303" y="180.191855"/>
     <use style="fill:#1f77b4;stroke:#1f77b4;" x="343.298735" xlink:href="#m0c7d98d303" y="150.854603"/>
     <use style="fill:#1f77b4;stroke:#1f77b4;" x="345.063162" xlink:href="#m0c7d98d303" y="170.382034"/>
     <use style="fill:#1f77b4;stroke:#1f77b4;" x="346.827589" xlink:href="#m0c7d98d303" y="192.578642"/>
     <use style="fill:#1f77b4;stroke:#1f77b4;" x="348.592016" xlink:href="#m0c7d98d303" y="155.641022"/>
     <use style="fill:#1f77b4;stroke:#1f77b4;" x="350.356443" xlink:href="#m0c7d98d303" y="164.153532"/>
     <use style="fill:#1f77b4;stroke:#1f77b4;" x="352.12087" xlink:href="#m0c7d98d303" y="166.492868"/>
     <use style="fill:#1f77b4;stroke:#1f77b4;" x="353.885296" xlink:href="#m0c7d98d303" y="157.77065"/>
     <use style="fill:#1f77b4;stroke:#1f77b4;" x="355.649723" xlink:href="#m0c7d98d303" y="149.162424"/>
     <use style="fill:#1f77b4;stroke:#1f77b4;" x="357.41415" xlink:href="#m0c7d98d303" y="173.395016"/>
     <use style="fill:#1f77b4;stroke:#1f77b4;" x="359.178577" xlink:href="#m0c7d98d303" y="148.791665"/>
     <use style="fill:#1f77b4;stroke:#1f77b4;" x="360.943004" xlink:href="#m0c7d98d303" y="178.635583"/>
     <use style="fill:#1f77b4;stroke:#1f77b4;" x="362.707431" xlink:href="#m0c7d98d303" y="162.371962"/>
     <use style="fill:#1f77b4;stroke:#1f77b4;" x="364.471858" xlink:href="#m0c7d98d303" y="161.759458"/>
     <use style="fill:#1f77b4;stroke:#1f77b4;" x="366.236285" xlink:href="#m0c7d98d303" y="173.935535"/>
     <use style="fill:#1f77b4;stroke:#1f77b4;" x="368.000711" xlink:href="#m0c7d98d303" y="154.390434"/>
     <use style="fill:#1f77b4;stroke:#1f77b4;" x="369.765138" xlink:href="#m0c7d98d303" y="156.061572"/>
     <use style="fill:#1f77b4;stroke:#1f77b4;" x="371.529565" xlink:href="#m0c7d98d303" y="167.864328"/>
     <use style="fill:#1f77b4;stroke:#1f77b4;" x="373.293992" xlink:href="#m0c7d98d303" y="190.083305"/>
     <use style="fill:#1f77b4;stroke:#1f77b4;" x="375.058419" xlink:href="#m0c7d98d303" y="184.822112"/>
     <use style="fill:#1f77b4;stroke:#1f77b4;" x="376.310937" xlink:href="#m0c7d98d303" y="22383.514"/>
    </g>
   </g>
   <g id="line2d_85">
    <path clip-path="url(#pf42384f161)" d="M 53.932727 19.296 
L 55.697154 61.625185 
L 57.461581 95.860662 
L 59.226008 133.274154 
" style="fill:none;stroke:#2ca02c;stroke-dasharray:1.5,2.475;stroke-dashoffset:0;stroke-width:1.5;"/>
    <defs>
     <path d="M -3 3 
L 3 -3 
M -3 -3 
L 3 3 
" id="m1a70ffccde" style="stroke:#2ca02c;"/>
    </defs>
    <g clip-path="url(#pf42384f161)">
     <use style="fill:#2ca02c;stroke:#2ca02c;" x="53.932727" xlink:href="#m1a70ffccde" y="19.296"/>
     <use style="fill:#2ca02c;stroke:#2ca02c;" x="55.697154" xlink:href="#m1a70ffccde" y="61.625185"/>
     <use style="fill:#2ca02c;stroke:#2ca02c;" x="57.461581" xlink:href="#m1a70ffccde" y="95.860662"/>
     <use style="fill:#2ca02c;stroke:#2ca02c;" x="59.226008" xlink:href="#m1a70ffccde" y="133.274154"/>
    </g>
   </g>
   <g id="line2d_86">
    <path clip-path="url(#pf42384f161)" d="M 55.697154 97.773278 
L 65.739289 311.86825 
L 65.739289 311.86825 
" style="fill:none;stroke:#000000;stroke-dasharray:5.55,2.4;stroke-dashoffset:0;stroke-width:1.5;"/>
   </g>
   <g id="patch_3">
    <path d="M 37.7 273.312 
L 37.7 7.2 
" style="fill:none;stroke:#000000;stroke-linecap:square;stroke-linejoin:miter;stroke-width:0.8;"/>
   </g>
   <g id="patch_4">
    <path d="M 394.82 273.312 
L 394.82 7.2 
" style="fill:none;stroke:#000000;stroke-linecap:square;stroke-linejoin:miter;stroke-width:0.8;"/>
   </g>
   <g id="patch_5">
    <path d="M 37.7 273.312 
L 394.82 273.312 
" style="fill:none;stroke:#000000;stroke-linecap:square;stroke-linejoin:miter;stroke-width:0.8;"/>
   </g>
   <g id="patch_6">
    <path d="M 37.7 7.2 
L 394.82 7.2 
" style="fill:none;stroke:#000000;stroke-linecap:square;stroke-linejoin:miter;stroke-width:0.8;"/>
   </g>
   <g id="legend_1">
    <g id="patch_7">
     <path d="M 288.12 59.25625 
L 387.82 59.25625 
Q 389.82 59.25625 389.82 57.25625 
L 389.82 14.2 
Q 389.82 12.2 387.82 12.2 
L 288.12 12.2 
Q 286.12 12.2 286.12 14.2 
L 286.12 57.25625 
Q 286.12 59.25625 288.12 59.25625 
z
" style="fill:#ffffff;opacity:0.8;"/>
    </g>
    <g id="line2d_87">
     <path d="M 290.12 20.298437 
L 310.12 20.298437 
" style="fill:none;stroke:#1f77b4;stroke-linecap:square;stroke-width:1.5;"/>
    </g>
    <g id="line2d_88">
     <g>
      <use style="fill:#1f77b4;stroke:#1f77b4;" x="300.12" xlink:href="#m0c7d98d303" y="20.298437"/>
     </g>
    </g>
    <g id="text_18">
     <!-- APD$_n$ - APD$_\infty$ -->
     <defs>
      <path d="M 34.1875 63.1875 
L 20.796875 26.90625 
L 47.609375 26.90625 
z
M 28.609375 72.90625 
L 39.796875 72.90625 
L 67.578125 0 
L 57.328125 0 
L 50.6875 18.703125 
L 17.828125 18.703125 
L 11.1875 0 
L 0.78125 0 
z
" id="DejaVuSans-65"/>
      <path d="M 19.671875 64.796875 
L 19.671875 37.40625 
L 32.078125 37.40625 
Q 38.96875 37.40625 42.71875 40.96875 
Q 46.484375 44.53125 46.484375 51.125 
Q 46.484375 57.671875 42.71875 61.234375 
Q 38.96875 64.796875 32.078125 64.796875 
z
M 9.8125 72.90625 
L 32.078125 72.90625 
Q 44.34375 72.90625 50.609375 67.359375 
Q 56.890625 61.8125 56.890625 51.125 
Q 56.890625 40.328125 50.609375 34.8125 
Q 44.34375 29.296875 32.078125 29.296875 
L 19.671875 29.296875 
L 19.671875 0 
L 9.8125 0 
z
" id="DejaVuSans-80"/>
      <path d="M 19.671875 64.796875 
L 19.671875 8.109375 
L 31.59375 8.109375 
Q 46.6875 8.109375 53.6875 14.9375 
Q 60.6875 21.78125 60.6875 36.53125 
Q 60.6875 51.171875 53.6875 57.984375 
Q 46.6875 64.796875 31.59375 64.796875 
z
M 9.8125 72.90625 
L 30.078125 72.90625 
Q 51.265625 72.90625 61.171875 64.09375 
Q 71.09375 55.28125 71.09375 36.53125 
Q 71.09375 17.671875 61.125 8.828125 
Q 51.171875 0 30.078125 0 
L 9.8125 0 
z
" id="DejaVuSans-68"/>
      <path d="M 55.71875 33.015625 
L 49.3125 0 
L 40.28125 0 
L 46.6875 32.671875 
Q 47.125 34.96875 47.359375 36.71875 
Q 47.609375 38.484375 47.609375 39.5 
Q 47.609375 43.609375 45.015625 45.890625 
Q 42.4375 48.1875 37.796875 48.1875 
Q 30.5625 48.1875 25.34375 43.375 
Q 20.125 38.578125 18.5 30.328125 
L 12.5 0 
L 3.515625 0 
L 14.109375 54.6875 
L 23.09375 54.6875 
L 21.296875 46.09375 
Q 25.046875 50.828125 30.3125 53.40625 
Q 35.59375 56 41.40625 56 
Q 48.640625 56 52.609375 52.09375 
Q 56.59375 48.1875 56.59375 41.109375 
Q 56.59375 39.359375 56.375 37.359375 
Q 56.15625 35.359375 55.71875 33.015625 
z
" id="DejaVuSans-Oblique-110"/>
      <path id="DejaVuSans-32"/>
      <path d="M 4.890625 31.390625 
L 31.203125 31.390625 
L 31.203125 23.390625 
L 4.890625 23.390625 
z
" id="DejaVuSans-45"/>
      <path d="M 45.5625 17.046875 
Q 44.046875 18.796875 41.65625 22.90625 
Q 38.375 17.046875 35.5 14.453125 
Q 31.890625 11.328125 26.265625 11.328125 
Q 19.671875 11.328125 15.328125 16.265625 
Q 10.75 21.4375 10.75 29.984375 
Q 10.75 38.1875 15.328125 43.75 
Q 19.4375 48.6875 26.375 48.6875 
Q 29.9375 48.6875 32.5625 47.21875 
Q 35.640625 45.609375 37.75 42.828125 
Q 39.703125 40.328125 41.65625 36.96875 
Q 44.921875 42.828125 47.796875 45.40625 
Q 51.421875 48.53125 57.03125 48.53125 
Q 63.625 48.53125 67.96875 43.609375 
Q 72.5625 38.421875 72.5625 29.890625 
Q 72.5625 21.6875 67.96875 16.109375 
Q 63.875 11.1875 56.9375 11.1875 
Q 53.375 11.1875 50.734375 12.640625 
Q 48.09375 13.96875 45.5625 17.046875 
z
M 25.734375 17.71875 
Q 33.796875 17.71875 38.625 29.4375 
Q 32.421875 42.234375 25.734375 42.234375 
Q 20.84375 42.234375 18.359375 38.71875 
Q 15.671875 34.96875 15.671875 29.984375 
Q 15.671875 24.515625 18.359375 21.140625 
Q 21.09375 17.71875 25.734375 17.71875 
z
M 57.5625 42.140625 
Q 50.296875 42.140625 44.671875 30.421875 
Q 50.828125 17.625 57.5625 17.625 
Q 62.453125 17.625 64.9375 21.140625 
Q 67.625 24.90625 67.625 29.890625 
Q 67.625 35.359375 64.9375 38.71875 
Q 62.203125 42.140625 57.5625 42.140625 
z
" id="DejaVuSans-8734"/>
     </defs>
     <g transform="translate(318.12 23.798437)scale(0.1 -0.1)">
      <use transform="translate(0 0.09375)" xlink:href="#DejaVuSans-65"/>
      <use transform="translate(68.408203 0.09375)" xlink:href="#DejaVuSans-80"/>
      <use transform="translate(128.710938 0.09375)" xlink:href="#DejaVuSans-68"/>
      <use transform="translate(206.669922 -16.3125)scale(0.7)" xlink:href="#DejaVuSans-Oblique-110"/>
      <use transform="translate(253.769531 0.09375)" xlink:href="#DejaVuSans-32"/>
      <use transform="translate(285.556641 0.09375)" xlink:href="#DejaVuSans-45"/>
      <use transform="translate(321.640625 0.09375)" xlink:href="#DejaVuSans-32"/>
      <use transform="translate(353.427734 0.09375)" xlink:href="#DejaVuSans-65"/>
      <use transform="translate(421.835938 0.09375)" xlink:href="#DejaVuSans-80"/>
      <use transform="translate(482.138672 0.09375)" xlink:href="#DejaVuSans-68"/>
      <use transform="translate(560.097656 -16.3125)scale(0.7)" xlink:href="#DejaVuSans-8734"/>
     </g>
    </g>
    <g id="line2d_89">
     <path d="M 290.12 34.976562 
L 310.12 34.976562 
" style="fill:none;stroke:#2ca02c;stroke-dasharray:1.5,2.475;stroke-dashoffset:0;stroke-width:1.5;"/>
    </g>
    <g id="line2d_90">
     <g>
      <use style="fill:#2ca02c;stroke:#2ca02c;" x="300.12" xlink:href="#m1a70ffccde" y="34.976562"/>
     </g>
    </g>
    <g id="text_19">
     <!-- linear region -->
     <defs>
      <path d="M 9.421875 75.984375 
L 18.40625 75.984375 
L 18.40625 0 
L 9.421875 0 
z
" id="DejaVuSans-108"/>
      <path d="M 9.421875 54.6875 
L 18.40625 54.6875 
L 18.40625 0 
L 9.421875 0 
z
M 9.421875 75.984375 
L 18.40625 75.984375 
L 18.40625 64.59375 
L 9.421875 64.59375 
z
" id="DejaVuSans-105"/>
      <path d="M 54.890625 33.015625 
L 54.890625 0 
L 45.90625 0 
L 45.90625 32.71875 
Q 45.90625 40.484375 42.875 44.328125 
Q 39.84375 48.1875 33.796875 48.1875 
Q 26.515625 48.1875 22.3125 43.546875 
Q 18.109375 38.921875 18.109375 30.90625 
L 18.109375 0 
L 9.078125 0 
L 9.078125 54.6875 
L 18.109375 54.6875 
L 18.109375 46.1875 
Q 21.34375 51.125 25.703125 53.5625 
Q 30.078125 56 35.796875 56 
Q 45.21875 56 50.046875 50.171875 
Q 54.890625 44.34375 54.890625 33.015625 
z
" id="DejaVuSans-110"/>
      <path d="M 56.203125 29.59375 
L 56.203125 25.203125 
L 14.890625 25.203125 
Q 15.484375 15.921875 20.484375 11.0625 
Q 25.484375 6.203125 34.421875 6.203125 
Q 39.59375 6.203125 44.453125 7.46875 
Q 49.3125 8.734375 54.109375 11.28125 
L 54.109375 2.78125 
Q 49.265625 0.734375 44.1875 -0.34375 
Q 39.109375 -1.421875 33.890625 -1.421875 
Q 20.796875 -1.421875 13.15625 6.1875 
Q 5.515625 13.8125 5.515625 26.8125 
Q 5.515625 40.234375 12.765625 48.109375 
Q 20.015625 56 32.328125 56 
Q 43.359375 56 49.78125 48.890625 
Q 56.203125 41.796875 56.203125 29.59375 
z
M 47.21875 32.234375 
Q 47.125 39.59375 43.09375 43.984375 
Q 39.0625 48.390625 32.421875 48.390625 
Q 24.90625 48.390625 20.390625 44.140625 
Q 15.875 39.890625 15.1875 32.171875 
z
" id="DejaVuSans-101"/>
      <path d="M 34.28125 27.484375 
Q 23.390625 27.484375 19.1875 25 
Q 14.984375 22.515625 14.984375 16.5 
Q 14.984375 11.71875 18.140625 8.90625 
Q 21.296875 6.109375 26.703125 6.109375 
Q 34.1875 6.109375 38.703125 11.40625 
Q 43.21875 16.703125 43.21875 25.484375 
L 43.21875 27.484375 
z
M 52.203125 31.203125 
L 52.203125 0 
L 43.21875 0 
L 43.21875 8.296875 
Q 40.140625 3.328125 35.546875 0.953125 
Q 30.953125 -1.421875 24.3125 -1.421875 
Q 15.921875 -1.421875 10.953125 3.296875 
Q 6 8.015625 6 15.921875 
Q 6 25.140625 12.171875 29.828125 
Q 18.359375 34.515625 30.609375 34.515625 
L 43.21875 34.515625 
L 43.21875 35.40625 
Q 43.21875 41.609375 39.140625 45 
Q 35.0625 48.390625 27.6875 48.390625 
Q 23 48.390625 18.546875 47.265625 
Q 14.109375 46.140625 10.015625 43.890625 
L 10.015625 52.203125 
Q 14.9375 54.109375 19.578125 55.046875 
Q 24.21875 56 28.609375 56 
Q 40.484375 56 46.34375 49.84375 
Q 52.203125 43.703125 52.203125 31.203125 
z
" id="DejaVuSans-97"/>
      <path d="M 41.109375 46.296875 
Q 39.59375 47.171875 37.8125 47.578125 
Q 36.03125 48 33.890625 48 
Q 26.265625 48 22.1875 43.046875 
Q 18.109375 38.09375 18.109375 28.8125 
L 18.109375 0 
L 9.078125 0 
L 9.078125 54.6875 
L 18.109375 54.6875 
L 18.109375 46.1875 
Q 20.953125 51.171875 25.484375 53.578125 
Q 30.03125 56 36.53125 56 
Q 37.453125 56 38.578125 55.875 
Q 39.703125 55.765625 41.0625 55.515625 
z
" id="DejaVuSans-114"/>
      <path d="M 45.40625 27.984375 
Q 45.40625 37.75 41.375 43.109375 
Q 37.359375 48.484375 30.078125 48.484375 
Q 22.859375 48.484375 18.828125 43.109375 
Q 14.796875 37.75 14.796875 27.984375 
Q 14.796875 18.265625 18.828125 12.890625 
Q 22.859375 7.515625 30.078125 7.515625 
Q 37.359375 7.515625 41.375 12.890625 
Q 45.40625 18.265625 45.40625 27.984375 
z
M 54.390625 6.78125 
Q 54.390625 -7.171875 48.1875 -13.984375 
Q 42 -20.796875 29.203125 -20.796875 
Q 24.46875 -20.796875 20.265625 -20.09375 
Q 16.0625 -19.390625 12.109375 -17.921875 
L 12.109375 -9.1875 
Q 16.0625 -11.328125 19.921875 -12.34375 
Q 23.78125 -13.375 27.78125 -13.375 
Q 36.625 -13.375 41.015625 -8.765625 
Q 45.40625 -4.15625 45.40625 5.171875 
L 45.40625 9.625 
Q 42.625 4.78125 38.28125 2.390625 
Q 33.9375 0 27.875 0 
Q 17.828125 0 11.671875 7.65625 
Q 5.515625 15.328125 5.515625 27.984375 
Q 5.515625 40.671875 11.671875 48.328125 
Q 17.828125 56 27.875 56 
Q 33.9375 56 38.28125 53.609375 
Q 42.625 51.21875 45.40625 46.390625 
L 45.40625 54.6875 
L 54.390625 54.6875 
z
" id="DejaVuSans-103"/>
      <path d="M 30.609375 48.390625 
Q 23.390625 48.390625 19.1875 42.75 
Q 14.984375 37.109375 14.984375 27.296875 
Q 14.984375 17.484375 19.15625 11.84375 
Q 23.34375 6.203125 30.609375 6.203125 
Q 37.796875 6.203125 41.984375 11.859375 
Q 46.1875 17.53125 46.1875 27.296875 
Q 46.1875 37.015625 41.984375 42.703125 
Q 37.796875 48.390625 30.609375 48.390625 
z
M 30.609375 56 
Q 42.328125 56 49.015625 48.375 
Q 55.71875 40.765625 55.71875 27.296875 
Q 55.71875 13.875 49.015625 6.21875 
Q 42.328125 -1.421875 30.609375 -1.421875 
Q 18.84375 -1.421875 12.171875 6.21875 
Q 5.515625 13.875 5.515625 27.296875 
Q 5.515625 40.765625 12.171875 48.375 
Q 18.84375 56 30.609375 56 
z
" id="DejaVuSans-111"/>
     </defs>
     <g transform="translate(318.12 38.476562)scale(0.1 -0.1)">
      <use xlink:href="#DejaVuSans-108"/>
      <use x="27.783203" xlink:href="#DejaVuSans-105"/>
      <use x="55.566406" xlink:href="#DejaVuSans-110"/>
      <use x="118.945312" xlink:href="#DejaVuSans-101"/>
      <use x="180.46875" xlink:href="#DejaVuSans-97"/>
      <use x="241.748047" xlink:href="#DejaVuSans-114"/>
      <use x="282.861328" xlink:href="#DejaVuSans-32"/>
      <use x="314.648438" xlink:href="#DejaVuSans-114"/>
      <use x="353.511719" xlink:href="#DejaVuSans-101"/>
      <use x="415.035156" xlink:href="#DejaVuSans-103"/>
      <use x="478.511719" xlink:href="#DejaVuSans-105"/>
      <use x="506.294922" xlink:href="#DejaVuSans-111"/>
      <use x="567.476562" xlink:href="#DejaVuSans-110"/>
     </g>
    </g>
    <g id="line2d_91">
     <path d="M 290.12 49.65625 
L 310.12 49.65625 
" style="fill:none;stroke:#000000;stroke-dasharray:5.55,2.4;stroke-dashoffset:0;stroke-width:1.5;"/>
    </g>
    <g id="line2d_92"/>
    <g id="text_20">
     <!-- $ \exp(-2.759 k)$ -->
     <defs>
      <path d="M 54.890625 54.6875 
L 35.109375 28.078125 
L 55.90625 0 
L 45.3125 0 
L 29.390625 21.484375 
L 13.484375 0 
L 2.875 0 
L 24.125 28.609375 
L 4.6875 54.6875 
L 15.28125 54.6875 
L 29.78125 35.203125 
L 44.28125 54.6875 
z
" id="DejaVuSans-120"/>
      <path d="M 18.109375 8.203125 
L 18.109375 -20.796875 
L 9.078125 -20.796875 
L 9.078125 54.6875 
L 18.109375 54.6875 
L 18.109375 46.390625 
Q 20.953125 51.265625 25.265625 53.625 
Q 29.59375 56 35.59375 56 
Q 45.5625 56 51.78125 48.09375 
Q 58.015625 40.1875 58.015625 27.296875 
Q 58.015625 14.40625 51.78125 6.484375 
Q 45.5625 -1.421875 35.59375 -1.421875 
Q 29.59375 -1.421875 25.265625 0.953125 
Q 20.953125 3.328125 18.109375 8.203125 
z
M 48.6875 27.296875 
Q 48.6875 37.203125 44.609375 42.84375 
Q 40.53125 48.484375 33.40625 48.484375 
Q 26.265625 48.484375 22.1875 42.84375 
Q 18.109375 37.203125 18.109375 27.296875 
Q 18.109375 17.390625 22.1875 11.75 
Q 26.265625 6.109375 33.40625 6.109375 
Q 40.53125 6.109375 44.609375 11.75 
Q 48.6875 17.390625 48.6875 27.296875 
z
" id="DejaVuSans-112"/>
      <path d="M 31 75.875 
Q 24.46875 64.65625 21.28125 53.65625 
Q 18.109375 42.671875 18.109375 31.390625 
Q 18.109375 20.125 21.3125 9.0625 
Q 24.515625 -2 31 -13.1875 
L 23.1875 -13.1875 
Q 15.875 -1.703125 12.234375 9.375 
Q 8.59375 20.453125 8.59375 31.390625 
Q 8.59375 42.28125 12.203125 53.3125 
Q 15.828125 64.359375 23.1875 75.875 
z
" id="DejaVuSans-40"/>
      <path d="M 10.6875 12.40625 
L 21 12.40625 
L 21 0 
L 10.6875 0 
z
" id="DejaVuSans-46"/>
      <path d="M 10.984375 1.515625 
L 10.984375 10.5 
Q 14.703125 8.734375 18.5 7.8125 
Q 22.3125 6.890625 25.984375 6.890625 
Q 35.75 6.890625 40.890625 13.453125 
Q 46.046875 20.015625 46.78125 33.40625 
Q 43.953125 29.203125 39.59375 26.953125 
Q 35.25 24.703125 29.984375 24.703125 
Q 19.046875 24.703125 12.671875 31.3125 
Q 6.296875 37.9375 6.296875 49.421875 
Q 6.296875 60.640625 12.9375 67.421875 
Q 19.578125 74.21875 30.609375 74.21875 
Q 43.265625 74.21875 49.921875 64.515625 
Q 56.59375 54.828125 56.59375 36.375 
Q 56.59375 19.140625 48.40625 8.859375 
Q 40.234375 -1.421875 26.421875 -1.421875 
Q 22.703125 -1.421875 18.890625 -0.6875 
Q 15.09375 0.046875 10.984375 1.515625 
z
M 30.609375 32.421875 
Q 37.25 32.421875 41.125 36.953125 
Q 45.015625 41.5 45.015625 49.421875 
Q 45.015625 57.28125 41.125 61.84375 
Q 37.25 66.40625 30.609375 66.40625 
Q 23.96875 66.40625 20.09375 61.84375 
Q 16.21875 57.28125 16.21875 49.421875 
Q 16.21875 41.5 20.09375 36.953125 
Q 23.96875 32.421875 30.609375 32.421875 
z
" id="DejaVuSans-57"/>
      <path d="M 8.015625 75.875 
L 15.828125 75.875 
Q 23.140625 64.359375 26.78125 53.3125 
Q 30.421875 42.28125 30.421875 31.390625 
Q 30.421875 20.453125 26.78125 9.375 
Q 23.140625 -1.703125 15.828125 -13.1875 
L 8.015625 -13.1875 
Q 14.5 -2 17.703125 9.0625 
Q 20.90625 20.125 20.90625 31.390625 
Q 20.90625 42.671875 17.703125 53.65625 
Q 14.5 64.65625 8.015625 75.875 
z
" id="DejaVuSans-41"/>
     </defs>
     <g transform="translate(318.12 53.15625)scale(0.1 -0.1)">
      <use transform="translate(0 0.015625)" xlink:href="#DejaVuSans-101"/>
      <use transform="translate(61.523438 0.015625)" xlink:href="#DejaVuSans-120"/>
      <use transform="translate(120.703125 0.015625)" xlink:href="#DejaVuSans-112"/>
      <use transform="translate(184.179688 0.015625)" xlink:href="#DejaVuSans-40"/>
      <use transform="translate(223.193359 0.015625)" xlink:href="#DejaVuSans-8722"/>
      <use transform="translate(306.982422 0.015625)" xlink:href="#DejaVuSans-50"/>
      <use transform="translate(370.605469 0.015625)" xlink:href="#DejaVuSans-46"/>
      <use transform="translate(394.642578 0.015625)" xlink:href="#DejaVuSans-55"/>
      <use transform="translate(458.265625 0.015625)" xlink:href="#DejaVuSans-53"/>
      <use transform="translate(516.388672 0.015625)" xlink:href="#DejaVuSans-57"/>
      <use transform="translate(580.011719 0.015625)" xlink:href="#DejaVuSans-Oblique-107"/>
      <use transform="translate(637.921875 0.015625)" xlink:href="#DejaVuSans-41"/>
     </g>
    </g>
   </g>
  </g>
 </g>
 <defs>
  <clipPath id="pf42384f161">
   <rect height="266.112" width="357.12" x="37.7" y="7.2"/>
  </clipPath>
 </defs>
</svg>
