<?xml version="1.0" encoding="utf-8" standalone="no"?>
<!DOCTYPE svg PUBLIC "-//W3C//DTD SVG 1.1//EN"
  "http://www.w3.org/Graphics/SVG/1.1/DTD/svg11.dtd">
<!-- Created with matplotlib (https://matplotlib.org/) -->
<svg height="310.86825pt" version="1.1" viewBox="0 0 402.02 310.86825" width="402.02pt" xmlns="http://www.w3.org/2000/svg" xmlns:xlink="http://www.w3.org/1999/xlink">
 <defs>
  <style type="text/css">
*{stroke-linecap:butt;stroke-linejoin:round;}
  </style>
 </defs>
 <g id="figure_1">
  <g id="patch_1">
   <path d="M 0 310.86825 
L 402.02 310.86825 
L 402.02 0 
L 0 0 
z
" style="fill:#ffffff;"/>
  </g>
  <g id="axes_1">
   <g id="patch_2">
    <path d="M 37.7 273.312 
L 394.82 273.312 
L 394.82 7.2 
L 37.7 7.2 
z
" style="fill:#ffffff;"/>
   </g>
   <g id="matplotlib.axis_1">
    <g id="xtick_1">
     <g id="line2d_1">
      <defs>
       <path d="M 0 0 
L 0 3.5 
" id="m2951d7a453" style="stroke:#000000;stroke-width:0.8;"/>
      </defs>
      <g>
       <use style="stroke:#000000;stroke-width:0.8;" x="53.932727" xlink:href="#m2951d7a453" y="273.312"/>
      </g>
     </g>
     <g id="text_1">
      <!-- 0 -->
      <defs>
       <path d="M 31.78125 66.40625 
Q 24.171875 66.40625 20.328125 58.90625 
Q 16.5 51.421875 16.5 36.375 
Q 16.5 21.390625 20.328125 13.890625 
Q 24.171875 6.390625 31.78125 6.390625 
Q 39.453125 6.390625 43.28125 13.890625 
Q 47.125 21.390625 47.125 36.375 
Q 47.125 51.421875 43.28125 58.90625 
Q 39.453125 66.40625 31.78125 66.40625 
z
M 31.78125 74.21875 
Q 44.046875 74.21875 50.515625 64.515625 
Q 56.984375 54.828125 56.984375 36.375 
Q 56.984375 17.96875 50.515625 8.265625 
Q 44.046875 -1.421875 31.78125 -1.421875 
Q 19.53125 -1.421875 13.0625 8.265625 
Q 6.59375 17.96875 6.59375 36.375 
Q 6.59375 54.828125 13.0625 64.515625 
Q 19.53125 74.21875 31.78125 74.21875 
z
" id="DejaVuSans-48"/>
      </defs>
      <g transform="translate(50.751477 287.910437)scale(0.1 -0.1)">
       <use xlink:href="#DejaVuSans-48"/>
      </g>
     </g>
    </g>
    <g id="xtick_2">
     <g id="line2d_2">
      <g>
       <use style="stroke:#000000;stroke-width:0.8;" x="111.906753" xlink:href="#m2951d7a453" y="273.312"/>
      </g>
     </g>
     <g id="text_2">
      <!-- 50 -->
      <defs>
       <path d="M 10.796875 72.90625 
L 49.515625 72.90625 
L 49.515625 64.59375 
L 19.828125 64.59375 
L 19.828125 46.734375 
Q 21.96875 47.46875 24.109375 47.828125 
Q 26.265625 48.1875 28.421875 48.1875 
Q 40.625 48.1875 47.75 41.5 
Q 54.890625 34.8125 54.890625 23.390625 
Q 54.890625 11.625 47.5625 5.09375 
Q 40.234375 -1.421875 26.90625 -1.421875 
Q 22.3125 -1.421875 17.546875 -0.640625 
Q 12.796875 0.140625 7.71875 1.703125 
L 7.71875 11.625 
Q 12.109375 9.234375 16.796875 8.0625 
Q 21.484375 6.890625 26.703125 6.890625 
Q 35.15625 6.890625 40.078125 11.328125 
Q 45.015625 15.765625 45.015625 23.390625 
Q 45.015625 31 40.078125 35.4375 
Q 35.15625 39.890625 26.703125 39.890625 
Q 22.75 39.890625 18.8125 39.015625 
Q 14.890625 38.140625 10.796875 36.28125 
z
" id="DejaVuSans-53"/>
      </defs>
      <g transform="translate(105.544253 287.910437)scale(0.1 -0.1)">
       <use xlink:href="#DejaVuSans-53"/>
       <use x="63.623047" xlink:href="#DejaVuSans-48"/>
      </g>
     </g>
    </g>
    <g id="xtick_3">
     <g id="line2d_3">
      <g>
       <use style="stroke:#000000;stroke-width:0.8;" x="169.880779" xlink:href="#m2951d7a453" y="273.312"/>
      </g>
     </g>
     <g id="text_3">
      <!-- 100 -->
      <defs>
       <path d="M 12.40625 8.296875 
L 28.515625 8.296875 
L 28.515625 63.921875 
L 10.984375 60.40625 
L 10.984375 69.390625 
L 28.421875 72.90625 
L 38.28125 72.90625 
L 38.28125 8.296875 
L 54.390625 8.296875 
L 54.390625 0 
L 12.40625 0 
z
" id="DejaVuSans-49"/>
      </defs>
      <g transform="translate(160.337029 287.910437)scale(0.1 -0.1)">
       <use xlink:href="#DejaVuSans-49"/>
       <use x="63.623047" xlink:href="#DejaVuSans-48"/>
       <use x="127.246094" xlink:href="#DejaVuSans-48"/>
      </g>
     </g>
    </g>
    <g id="xtick_4">
     <g id="line2d_4">
      <g>
       <use style="stroke:#000000;stroke-width:0.8;" x="227.854805" xlink:href="#m2951d7a453" y="273.312"/>
      </g>
     </g>
     <g id="text_4">
      <!-- 150 -->
      <g transform="translate(218.311055 287.910437)scale(0.1 -0.1)">
       <use xlink:href="#DejaVuSans-49"/>
       <use x="63.623047" xlink:href="#DejaVuSans-53"/>
       <use x="127.246094" xlink:href="#DejaVuSans-48"/>
      </g>
     </g>
    </g>
    <g id="xtick_5">
     <g id="line2d_5">
      <g>
       <use style="stroke:#000000;stroke-width:0.8;" x="285.828831" xlink:href="#m2951d7a453" y="273.312"/>
      </g>
     </g>
     <g id="text_5">
      <!-- 200 -->
      <defs>
       <path d="M 19.1875 8.296875 
L 53.609375 8.296875 
L 53.609375 0 
L 7.328125 0 
L 7.328125 8.296875 
Q 12.9375 14.109375 22.625 23.890625 
Q 32.328125 33.6875 34.8125 36.53125 
Q 39.546875 41.84375 41.421875 45.53125 
Q 43.3125 49.21875 43.3125 52.78125 
Q 43.3125 58.59375 39.234375 62.25 
Q 35.15625 65.921875 28.609375 65.921875 
Q 23.96875 65.921875 18.8125 64.3125 
Q 13.671875 62.703125 7.8125 59.421875 
L 7.8125 69.390625 
Q 13.765625 71.78125 18.9375 73 
Q 24.125 74.21875 28.421875 74.21875 
Q 39.75 74.21875 46.484375 68.546875 
Q 53.21875 62.890625 53.21875 53.421875 
Q 53.21875 48.921875 51.53125 44.890625 
Q 49.859375 40.875 45.40625 35.40625 
Q 44.1875 33.984375 37.640625 27.21875 
Q 31.109375 20.453125 19.1875 8.296875 
z
" id="DejaVuSans-50"/>
      </defs>
      <g transform="translate(276.285081 287.910437)scale(0.1 -0.1)">
       <use xlink:href="#DejaVuSans-50"/>
       <use x="63.623047" xlink:href="#DejaVuSans-48"/>
       <use x="127.246094" xlink:href="#DejaVuSans-48"/>
      </g>
     </g>
    </g>
    <g id="xtick_6">
     <g id="line2d_6">
      <g>
       <use style="stroke:#000000;stroke-width:0.8;" x="343.802857" xlink:href="#m2951d7a453" y="273.312"/>
      </g>
     </g>
     <g id="text_6">
      <!-- 250 -->
      <g transform="translate(334.259107 287.910437)scale(0.1 -0.1)">
       <use xlink:href="#DejaVuSans-50"/>
       <use x="63.623047" xlink:href="#DejaVuSans-53"/>
       <use x="127.246094" xlink:href="#DejaVuSans-48"/>
      </g>
     </g>
    </g>
    <g id="text_7">
     <!-- $ k $ -->
     <defs>
      <path d="M 18.3125 75.984375 
L 27.296875 75.984375 
L 18.703125 31.6875 
L 49.515625 54.6875 
L 61.1875 54.6875 
L 26.8125 28.515625 
L 51.90625 0 
L 41.015625 0 
L 17.671875 26.703125 
L 12.5 0 
L 3.515625 0 
z
" id="DejaVuSans-Oblique-107"/>
     </defs>
     <g transform="translate(213.36 301.588562)scale(0.1 -0.1)">
      <use transform="translate(0 0.015625)" xlink:href="#DejaVuSans-Oblique-107"/>
     </g>
    </g>
   </g>
   <g id="matplotlib.axis_2">
    <g id="ytick_1">
     <g id="line2d_7">
      <defs>
       <path d="M 0 0 
L -3.5 0 
" id="m2512ecdf44" style="stroke:#000000;stroke-width:0.8;"/>
      </defs>
      <g>
       <use style="stroke:#000000;stroke-width:0.8;" x="37.7" xlink:href="#m2512ecdf44" y="237.836244"/>
      </g>
     </g>
     <g id="text_8">
      <!-- $\mathdefault{10^{-5}}$ -->
      <defs>
       <path d="M 10.59375 35.5 
L 73.1875 35.5 
L 73.1875 27.203125 
L 10.59375 27.203125 
z
" id="DejaVuSans-8722"/>
      </defs>
      <g transform="translate(7.2 241.635463)scale(0.1 -0.1)">
       <use transform="translate(0 0.684375)" xlink:href="#DejaVuSans-49"/>
       <use transform="translate(63.623047 0.684375)" xlink:href="#DejaVuSans-48"/>
       <use transform="translate(128.203125 38.965625)scale(0.7)" xlink:href="#DejaVuSans-8722"/>
       <use transform="translate(186.855469 38.965625)scale(0.7)" xlink:href="#DejaVuSans-53"/>
      </g>
     </g>
    </g>
    <g id="ytick_2">
     <g id="line2d_8">
      <g>
       <use style="stroke:#000000;stroke-width:0.8;" x="37.7" xlink:href="#m2512ecdf44" y="172.69141"/>
      </g>
     </g>
     <g id="text_9">
      <!-- $\mathdefault{10^{-3}}$ -->
      <defs>
       <path d="M 40.578125 39.3125 
Q 47.65625 37.796875 51.625 33 
Q 55.609375 28.21875 55.609375 21.1875 
Q 55.609375 10.40625 48.1875 4.484375 
Q 40.765625 -1.421875 27.09375 -1.421875 
Q 22.515625 -1.421875 17.65625 -0.515625 
Q 12.796875 0.390625 7.625 2.203125 
L 7.625 11.71875 
Q 11.71875 9.328125 16.59375 8.109375 
Q 21.484375 6.890625 26.8125 6.890625 
Q 36.078125 6.890625 40.9375 10.546875 
Q 45.796875 14.203125 45.796875 21.1875 
Q 45.796875 27.640625 41.28125 31.265625 
Q 36.765625 34.90625 28.71875 34.90625 
L 20.21875 34.90625 
L 20.21875 43.015625 
L 29.109375 43.015625 
Q 36.375 43.015625 40.234375 45.921875 
Q 44.09375 48.828125 44.09375 54.296875 
Q 44.09375 59.90625 40.109375 62.90625 
Q 36.140625 65.921875 28.71875 65.921875 
Q 24.65625 65.921875 20.015625 65.03125 
Q 15.375 64.15625 9.8125 62.3125 
L 9.8125 71.09375 
Q 15.4375 72.65625 20.34375 73.4375 
Q 25.25 74.21875 29.59375 74.21875 
Q 40.828125 74.21875 47.359375 69.109375 
Q 53.90625 64.015625 53.90625 55.328125 
Q 53.90625 49.265625 50.4375 45.09375 
Q 46.96875 40.921875 40.578125 39.3125 
z
" id="DejaVuSans-51"/>
      </defs>
      <g transform="translate(7.2 176.490629)scale(0.1 -0.1)">
       <use transform="translate(0 0.765625)" xlink:href="#DejaVuSans-49"/>
       <use transform="translate(63.623047 0.765625)" xlink:href="#DejaVuSans-48"/>
       <use transform="translate(128.203125 39.046875)scale(0.7)" xlink:href="#DejaVuSans-8722"/>
       <use transform="translate(186.855469 39.046875)scale(0.7)" xlink:href="#DejaVuSans-51"/>
      </g>
     </g>
    </g>
    <g id="ytick_3">
     <g id="line2d_9">
      <g>
       <use style="stroke:#000000;stroke-width:0.8;" x="37.7" xlink:href="#m2512ecdf44" y="107.546577"/>
      </g>
     </g>
     <g id="text_10">
      <!-- $\mathdefault{10^{-1}}$ -->
      <g transform="translate(7.2 111.345795)scale(0.1 -0.1)">
       <use transform="translate(0 0.684375)" xlink:href="#DejaVuSans-49"/>
       <use transform="translate(63.623047 0.684375)" xlink:href="#DejaVuSans-48"/>
       <use transform="translate(128.203125 38.965625)scale(0.7)" xlink:href="#DejaVuSans-8722"/>
       <use transform="translate(186.855469 38.965625)scale(0.7)" xlink:href="#DejaVuSans-49"/>
      </g>
     </g>
    </g>
    <g id="ytick_4">
     <g id="line2d_10">
      <g>
       <use style="stroke:#000000;stroke-width:0.8;" x="37.7" xlink:href="#m2512ecdf44" y="42.401743"/>
      </g>
     </g>
     <g id="text_11">
      <!-- $\mathdefault{10^{1}}$ -->
      <g transform="translate(13.1 46.200962)scale(0.1 -0.1)">
       <use transform="translate(0 0.684375)" xlink:href="#DejaVuSans-49"/>
       <use transform="translate(63.623047 0.684375)" xlink:href="#DejaVuSans-48"/>
       <use transform="translate(128.203125 38.965625)scale(0.7)" xlink:href="#DejaVuSans-49"/>
      </g>
     </g>
    </g>
   </g>
   <g id="line2d_11">
    <path clip-path="url(#p598ffc582e)" d="M 53.932727 19.296 
L 55.092208 27.31436 
L 56.251688 39.217527 
L 59.73013 77.840262 
L 66.687013 152.772877 
L 67.846494 169.474827 
L 69.005974 167.781523 
L 70.165455 184.88775 
L 71.324935 170.038372 
L 72.484416 220.137689 
L 73.643896 192.604303 
L 74.803377 191.444674 
L 75.962857 198.964048 
L 77.122338 171.732767 
L 78.281818 186.983336 
L 79.441299 183.246742 
L 80.600779 196.622391 
L 81.76026 168.98725 
L 82.91974 175.428099 
L 84.079221 176.131155 
L 85.238701 186.009585 
L 86.398182 223.506544 
L 87.557662 177.545675 
L 88.717143 203.808818 
L 89.876623 180.417877 
L 91.036104 180.654236 
L 92.195584 197.382197 
L 93.355065 195.853125 
L 94.514545 190.23003 
L 95.674026 169.431541 
L 96.833506 177.189859 
L 97.992987 178.064113 
L 99.152468 196.431975 
L 100.311948 218.373532 
L 101.471429 197.458976 
L 102.630909 229.889851 
L 103.79039 187.150995 
L 104.94987 219.988183 
L 106.109351 184.3245 
L 107.268831 199.898841 
L 108.428312 175.354881 
L 109.587792 179.715594 
L 110.747273 198.534179 
L 111.906753 180.625303 
L 113.066234 187.456097 
L 114.225714 183.245373 
L 115.385195 235.03774 
L 116.544675 196.652951 
L 117.704156 188.588698 
L 118.863636 211.942271 
L 120.023117 187.987841 
L 121.182597 194.369252 
L 122.342078 184.418459 
L 123.501558 192.011939 
L 124.661039 227.181334 
L 125.820519 196.865901 
L 126.98 184.140146 
L 128.139481 172.776983 
L 129.298961 170.230769 
L 130.458442 178.380183 
L 131.617922 204.566996 
L 132.777403 195.666283 
L 133.936883 172.927696 
L 135.096364 199.463853 
L 136.255844 174.010782 
L 137.415325 169.646232 
L 138.574805 178.980889 
L 139.734286 182.538031 
L 140.893766 185.391841 
L 142.053247 190.281388 
L 143.212727 205.849933 
L 144.372208 189.694288 
L 145.531688 202.565139 
L 146.691169 189.639489 
L 147.850649 196.580104 
L 149.01013 194.441089 
L 150.16961 188.893815 
L 151.329091 196.690222 
L 152.488571 181.452363 
L 153.648052 209.567377 
L 154.807532 173.281741 
L 155.967013 192.276576 
L 157.126494 178.435061 
L 158.285974 191.177693 
L 159.445455 201.477652 
L 160.604935 220.60801 
L 161.764416 207.124296 
L 162.923896 205.277272 
L 164.083377 184.754296 
L 165.242857 223.624029 
L 166.402338 202.738278 
L 167.561818 184.283837 
L 168.721299 211.438737 
L 169.880779 178.108477 
L 171.04026 203.131026 
L 172.19974 214.173774 
L 173.359221 181.157558 
L 174.518701 184.068716 
L 175.678182 194.774292 
L 176.837662 197.349524 
L 177.997143 188.248176 
L 179.156623 177.615624 
L 180.316104 182.820396 
L 181.475584 192.165143 
L 182.635065 192.924709 
L 183.794545 185.279797 
L 184.954026 214.486497 
L 186.113506 204.161295 
L 187.272987 204.136269 
L 188.432468 191.261938 
L 189.591948 191.072591 
L 190.751429 179.19206 
L 191.910909 185.755303 
L 193.07039 191.331408 
L 194.22987 198.812471 
L 195.389351 187.401498 
L 196.548831 206.201523 
L 197.708312 206.446832 
L 198.867792 188.080984 
L 200.027273 181.864139 
L 202.346234 200.808245 
L 203.505714 182.165796 
L 204.665195 175.279908 
L 205.824675 185.373867 
L 206.984156 189.27769 
L 208.143636 238.737236 
L 209.303117 180.739079 
L 210.462597 188.76058 
L 211.622078 178.169202 
L 212.781558 210.691823 
L 213.941039 185.202435 
L 215.100519 216.187669 
L 216.26 197.617053 
L 217.419481 168.1357 
L 218.578961 203.651734 
L 219.738442 218.343561 
L 220.897922 170.783467 
L 222.057403 187.330679 
L 223.216883 183.95628 
L 224.376364 182.146739 
L 225.535844 186.910124 
L 226.695325 195.33506 
L 229.014286 173.880057 
L 230.173766 195.086448 
L 231.333247 201.284388 
L 232.492727 220.804277 
L 233.652208 173.409717 
L 234.811688 180.505294 
L 235.971169 171.07802 
L 237.130649 178.460324 
L 238.29013 189.18768 
L 239.44961 186.985474 
L 240.609091 190.253812 
L 241.768571 187.679537 
L 242.928052 177.501696 
L 244.087532 191.245152 
L 245.247013 179.388347 
L 246.406494 198.95947 
L 247.565974 182.604487 
L 248.725455 170.613713 
L 249.884935 216.76089 
L 251.044416 207.467017 
L 252.203896 193.043254 
L 253.363377 180.499075 
L 254.522857 221.667802 
L 255.682338 192.589864 
L 256.841818 194.645783 
L 258.001299 185.963401 
L 259.160779 171.377665 
L 260.32026 209.240577 
L 261.47974 206.967643 
L 262.639221 179.506242 
L 263.798701 195.06315 
L 264.958182 187.400256 
L 266.117662 188.234901 
L 267.277143 185.017179 
L 268.436623 189.855781 
L 269.596104 190.323871 
L 270.755584 222.357289 
L 271.915065 192.274911 
L 273.074545 196.344186 
L 274.234026 206.427827 
L 275.393506 213.715645 
L 276.552987 183.458203 
L 277.712468 184.169176 
L 278.871948 180.95061 
L 280.031429 178.187451 
L 281.190909 189.343869 
L 282.35039 166.083688 
L 283.50987 181.364402 
L 284.669351 182.854592 
L 285.828831 164.904977 
L 286.988312 180.571876 
L 288.147792 180.727709 
L 289.307273 193.58427 
L 290.466753 247.016856 
L 291.626234 184.455024 
L 292.785714 197.793584 
L 293.945195 173.408015 
L 295.104675 176.952206 
L 296.264156 184.976511 
L 297.423636 187.018238 
L 298.583117 250.568601 
L 299.742597 191.471177 
L 300.902078 188.130526 
L 302.061558 175.848797 
L 303.221039 205.037916 
L 304.380519 176.682844 
L 305.54 185.745061 
L 306.699481 196.734087 
L 307.858961 176.423485 
L 309.018442 195.996891 
L 310.177922 190.306066 
L 311.337403 201.580942 
L 312.496883 201.709282 
L 313.656364 230.772434 
L 314.815844 198.833327 
L 315.975325 200.056201 
L 317.134805 166.014709 
L 318.294286 261.216 
L 319.453766 199.437462 
L 320.613247 200.920431 
L 321.772727 183.208749 
L 322.932208 195.263646 
L 324.091688 186.143987 
L 325.251169 187.321839 
L 326.410649 181.001756 
L 327.57013 191.959295 
L 328.72961 196.427278 
L 329.889091 188.500325 
L 331.048571 182.207224 
L 332.208052 195.413192 
L 333.367532 168.517284 
L 334.527013 187.578964 
L 335.686494 173.69118 
L 336.845974 209.038692 
L 338.005455 186.94956 
L 339.164935 193.230476 
L 340.324416 186.220949 
L 341.483896 213.044905 
L 342.643377 176.289652 
L 343.802857 242.810797 
L 344.962338 206.080534 
L 346.121818 182.068296 
L 347.281299 183.064795 
L 348.440779 212.020543 
L 349.60026 215.215209 
L 350.75974 180.911054 
L 351.919221 220.650932 
L 353.078701 236.533273 
L 354.238182 198.253577 
L 355.397662 188.112399 
L 356.557143 210.171623 
L 357.716623 203.263345 
L 358.876104 175.742005 
L 360.035584 195.654672 
L 361.195065 204.193119 
L 362.354545 193.583906 
L 363.514026 188.67295 
L 364.673506 196.548129 
L 365.832987 208.146048 
L 366.992468 185.363971 
L 368.151948 219.244761 
L 369.311429 184.813343 
L 370.470909 203.038955 
L 371.63039 201.078962 
L 372.78987 187.248476 
L 373.949351 176.510637 
L 375.108831 176.834739 
L 376.268312 206.585311 
L 376.272075 311.86825 
L 376.272075 311.86825 
" style="fill:none;stroke:#1f77b4;stroke-linecap:square;stroke-width:1.5;"/>
    <defs>
     <path d="M 0 3 
C 0.795609 3 1.55874 2.683901 2.12132 2.12132 
C 2.683901 1.55874 3 0.795609 3 0 
C 3 -0.795609 2.683901 -1.55874 2.12132 -2.12132 
C 1.55874 -2.683901 0.795609 -3 0 -3 
C -0.795609 -3 -1.55874 -2.683901 -2.12132 -2.12132 
C -2.683901 -1.55874 -3 -0.795609 -3 0 
C -3 0.795609 -2.683901 1.55874 -2.12132 2.12132 
C -1.55874 2.683901 -0.795609 3 0 3 
z
" id="mb32fc0c5f1" style="stroke:#1f77b4;"/>
    </defs>
    <g clip-path="url(#p598ffc582e)">
     <use style="fill:#1f77b4;stroke:#1f77b4;" x="53.932727" xlink:href="#mb32fc0c5f1" y="19.296"/>
     <use style="fill:#1f77b4;stroke:#1f77b4;" x="55.092208" xlink:href="#mb32fc0c5f1" y="27.31436"/>
     <use style="fill:#1f77b4;stroke:#1f77b4;" x="56.251688" xlink:href="#mb32fc0c5f1" y="39.217527"/>
     <use style="fill:#1f77b4;stroke:#1f77b4;" x="57.411169" xlink:href="#mb32fc0c5f1" y="52.513214"/>
     <use style="fill:#1f77b4;stroke:#1f77b4;" x="58.570649" xlink:href="#mb32fc0c5f1" y="64.692461"/>
     <use style="fill:#1f77b4;stroke:#1f77b4;" x="59.73013" xlink:href="#mb32fc0c5f1" y="77.840262"/>
     <use style="fill:#1f77b4;stroke:#1f77b4;" x="60.88961" xlink:href="#mb32fc0c5f1" y="90.529711"/>
     <use style="fill:#1f77b4;stroke:#1f77b4;" x="62.049091" xlink:href="#mb32fc0c5f1" y="103.394693"/>
     <use style="fill:#1f77b4;stroke:#1f77b4;" x="63.208571" xlink:href="#mb32fc0c5f1" y="116.303481"/>
     <use style="fill:#1f77b4;stroke:#1f77b4;" x="64.368052" xlink:href="#mb32fc0c5f1" y="129.057174"/>
     <use style="fill:#1f77b4;stroke:#1f77b4;" x="65.527532" xlink:href="#mb32fc0c5f1" y="141.583642"/>
     <use style="fill:#1f77b4;stroke:#1f77b4;" x="66.687013" xlink:href="#mb32fc0c5f1" y="152.772877"/>
     <use style="fill:#1f77b4;stroke:#1f77b4;" x="67.846494" xlink:href="#mb32fc0c5f1" y="169.474827"/>
     <use style="fill:#1f77b4;stroke:#1f77b4;" x="69.005974" xlink:href="#mb32fc0c5f1" y="167.781523"/>
     <use style="fill:#1f77b4;stroke:#1f77b4;" x="70.165455" xlink:href="#mb32fc0c5f1" y="184.88775"/>
     <use style="fill:#1f77b4;stroke:#1f77b4;" x="71.324935" xlink:href="#mb32fc0c5f1" y="170.038372"/>
     <use style="fill:#1f77b4;stroke:#1f77b4;" x="72.484416" xlink:href="#mb32fc0c5f1" y="220.137689"/>
     <use style="fill:#1f77b4;stroke:#1f77b4;" x="73.643896" xlink:href="#mb32fc0c5f1" y="192.604303"/>
     <use style="fill:#1f77b4;stroke:#1f77b4;" x="74.803377" xlink:href="#mb32fc0c5f1" y="191.444674"/>
     <use style="fill:#1f77b4;stroke:#1f77b4;" x="75.962857" xlink:href="#mb32fc0c5f1" y="198.964048"/>
     <use style="fill:#1f77b4;stroke:#1f77b4;" x="77.122338" xlink:href="#mb32fc0c5f1" y="171.732767"/>
     <use style="fill:#1f77b4;stroke:#1f77b4;" x="78.281818" xlink:href="#mb32fc0c5f1" y="186.983336"/>
     <use style="fill:#1f77b4;stroke:#1f77b4;" x="79.441299" xlink:href="#mb32fc0c5f1" y="183.246742"/>
     <use style="fill:#1f77b4;stroke:#1f77b4;" x="80.600779" xlink:href="#mb32fc0c5f1" y="196.622391"/>
     <use style="fill:#1f77b4;stroke:#1f77b4;" x="81.76026" xlink:href="#mb32fc0c5f1" y="168.98725"/>
     <use style="fill:#1f77b4;stroke:#1f77b4;" x="82.91974" xlink:href="#mb32fc0c5f1" y="175.428099"/>
     <use style="fill:#1f77b4;stroke:#1f77b4;" x="84.079221" xlink:href="#mb32fc0c5f1" y="176.131155"/>
     <use style="fill:#1f77b4;stroke:#1f77b4;" x="85.238701" xlink:href="#mb32fc0c5f1" y="186.009585"/>
     <use style="fill:#1f77b4;stroke:#1f77b4;" x="86.398182" xlink:href="#mb32fc0c5f1" y="223.506544"/>
     <use style="fill:#1f77b4;stroke:#1f77b4;" x="87.557662" xlink:href="#mb32fc0c5f1" y="177.545675"/>
     <use style="fill:#1f77b4;stroke:#1f77b4;" x="88.717143" xlink:href="#mb32fc0c5f1" y="203.808818"/>
     <use style="fill:#1f77b4;stroke:#1f77b4;" x="89.876623" xlink:href="#mb32fc0c5f1" y="180.417877"/>
     <use style="fill:#1f77b4;stroke:#1f77b4;" x="91.036104" xlink:href="#mb32fc0c5f1" y="180.654236"/>
     <use style="fill:#1f77b4;stroke:#1f77b4;" x="92.195584" xlink:href="#mb32fc0c5f1" y="197.382197"/>
     <use style="fill:#1f77b4;stroke:#1f77b4;" x="93.355065" xlink:href="#mb32fc0c5f1" y="195.853125"/>
     <use style="fill:#1f77b4;stroke:#1f77b4;" x="94.514545" xlink:href="#mb32fc0c5f1" y="190.23003"/>
     <use style="fill:#1f77b4;stroke:#1f77b4;" x="95.674026" xlink:href="#mb32fc0c5f1" y="169.431541"/>
     <use style="fill:#1f77b4;stroke:#1f77b4;" x="96.833506" xlink:href="#mb32fc0c5f1" y="177.189859"/>
     <use style="fill:#1f77b4;stroke:#1f77b4;" x="97.992987" xlink:href="#mb32fc0c5f1" y="178.064113"/>
     <use style="fill:#1f77b4;stroke:#1f77b4;" x="99.152468" xlink:href="#mb32fc0c5f1" y="196.431975"/>
     <use style="fill:#1f77b4;stroke:#1f77b4;" x="100.311948" xlink:href="#mb32fc0c5f1" y="218.373532"/>
     <use style="fill:#1f77b4;stroke:#1f77b4;" x="101.471429" xlink:href="#mb32fc0c5f1" y="197.458976"/>
     <use style="fill:#1f77b4;stroke:#1f77b4;" x="102.630909" xlink:href="#mb32fc0c5f1" y="229.889851"/>
     <use style="fill:#1f77b4;stroke:#1f77b4;" x="103.79039" xlink:href="#mb32fc0c5f1" y="187.150995"/>
     <use style="fill:#1f77b4;stroke:#1f77b4;" x="104.94987" xlink:href="#mb32fc0c5f1" y="219.988183"/>
     <use style="fill:#1f77b4;stroke:#1f77b4;" x="106.109351" xlink:href="#mb32fc0c5f1" y="184.3245"/>
     <use style="fill:#1f77b4;stroke:#1f77b4;" x="107.268831" xlink:href="#mb32fc0c5f1" y="199.898841"/>
     <use style="fill:#1f77b4;stroke:#1f77b4;" x="108.428312" xlink:href="#mb32fc0c5f1" y="175.354881"/>
     <use style="fill:#1f77b4;stroke:#1f77b4;" x="109.587792" xlink:href="#mb32fc0c5f1" y="179.715594"/>
     <use style="fill:#1f77b4;stroke:#1f77b4;" x="110.747273" xlink:href="#mb32fc0c5f1" y="198.534179"/>
     <use style="fill:#1f77b4;stroke:#1f77b4;" x="111.906753" xlink:href="#mb32fc0c5f1" y="180.625303"/>
     <use style="fill:#1f77b4;stroke:#1f77b4;" x="113.066234" xlink:href="#mb32fc0c5f1" y="187.456097"/>
     <use style="fill:#1f77b4;stroke:#1f77b4;" x="114.225714" xlink:href="#mb32fc0c5f1" y="183.245373"/>
     <use style="fill:#1f77b4;stroke:#1f77b4;" x="115.385195" xlink:href="#mb32fc0c5f1" y="235.03774"/>
     <use style="fill:#1f77b4;stroke:#1f77b4;" x="116.544675" xlink:href="#mb32fc0c5f1" y="196.652951"/>
     <use style="fill:#1f77b4;stroke:#1f77b4;" x="117.704156" xlink:href="#mb32fc0c5f1" y="188.588698"/>
     <use style="fill:#1f77b4;stroke:#1f77b4;" x="118.863636" xlink:href="#mb32fc0c5f1" y="211.942271"/>
     <use style="fill:#1f77b4;stroke:#1f77b4;" x="120.023117" xlink:href="#mb32fc0c5f1" y="187.987841"/>
     <use style="fill:#1f77b4;stroke:#1f77b4;" x="121.182597" xlink:href="#mb32fc0c5f1" y="194.369252"/>
     <use style="fill:#1f77b4;stroke:#1f77b4;" x="122.342078" xlink:href="#mb32fc0c5f1" y="184.418459"/>
     <use style="fill:#1f77b4;stroke:#1f77b4;" x="123.501558" xlink:href="#mb32fc0c5f1" y="192.011939"/>
     <use style="fill:#1f77b4;stroke:#1f77b4;" x="124.661039" xlink:href="#mb32fc0c5f1" y="227.181334"/>
     <use style="fill:#1f77b4;stroke:#1f77b4;" x="125.820519" xlink:href="#mb32fc0c5f1" y="196.865901"/>
     <use style="fill:#1f77b4;stroke:#1f77b4;" x="126.98" xlink:href="#mb32fc0c5f1" y="184.140146"/>
     <use style="fill:#1f77b4;stroke:#1f77b4;" x="128.139481" xlink:href="#mb32fc0c5f1" y="172.776983"/>
     <use style="fill:#1f77b4;stroke:#1f77b4;" x="129.298961" xlink:href="#mb32fc0c5f1" y="170.230769"/>
     <use style="fill:#1f77b4;stroke:#1f77b4;" x="130.458442" xlink:href="#mb32fc0c5f1" y="178.380183"/>
     <use style="fill:#1f77b4;stroke:#1f77b4;" x="131.617922" xlink:href="#mb32fc0c5f1" y="204.566996"/>
     <use style="fill:#1f77b4;stroke:#1f77b4;" x="132.777403" xlink:href="#mb32fc0c5f1" y="195.666283"/>
     <use style="fill:#1f77b4;stroke:#1f77b4;" x="133.936883" xlink:href="#mb32fc0c5f1" y="172.927696"/>
     <use style="fill:#1f77b4;stroke:#1f77b4;" x="135.096364" xlink:href="#mb32fc0c5f1" y="199.463853"/>
     <use style="fill:#1f77b4;stroke:#1f77b4;" x="136.255844" xlink:href="#mb32fc0c5f1" y="174.010782"/>
     <use style="fill:#1f77b4;stroke:#1f77b4;" x="137.415325" xlink:href="#mb32fc0c5f1" y="169.646232"/>
     <use style="fill:#1f77b4;stroke:#1f77b4;" x="138.574805" xlink:href="#mb32fc0c5f1" y="178.980889"/>
     <use style="fill:#1f77b4;stroke:#1f77b4;" x="139.734286" xlink:href="#mb32fc0c5f1" y="182.538031"/>
     <use style="fill:#1f77b4;stroke:#1f77b4;" x="140.893766" xlink:href="#mb32fc0c5f1" y="185.391841"/>
     <use style="fill:#1f77b4;stroke:#1f77b4;" x="142.053247" xlink:href="#mb32fc0c5f1" y="190.281388"/>
     <use style="fill:#1f77b4;stroke:#1f77b4;" x="143.212727" xlink:href="#mb32fc0c5f1" y="205.849933"/>
     <use style="fill:#1f77b4;stroke:#1f77b4;" x="144.372208" xlink:href="#mb32fc0c5f1" y="189.694288"/>
     <use style="fill:#1f77b4;stroke:#1f77b4;" x="145.531688" xlink:href="#mb32fc0c5f1" y="202.565139"/>
     <use style="fill:#1f77b4;stroke:#1f77b4;" x="146.691169" xlink:href="#mb32fc0c5f1" y="189.639489"/>
     <use style="fill:#1f77b4;stroke:#1f77b4;" x="147.850649" xlink:href="#mb32fc0c5f1" y="196.580104"/>
     <use style="fill:#1f77b4;stroke:#1f77b4;" x="149.01013" xlink:href="#mb32fc0c5f1" y="194.441089"/>
     <use style="fill:#1f77b4;stroke:#1f77b4;" x="150.16961" xlink:href="#mb32fc0c5f1" y="188.893815"/>
     <use style="fill:#1f77b4;stroke:#1f77b4;" x="151.329091" xlink:href="#mb32fc0c5f1" y="196.690222"/>
     <use style="fill:#1f77b4;stroke:#1f77b4;" x="152.488571" xlink:href="#mb32fc0c5f1" y="181.452363"/>
     <use style="fill:#1f77b4;stroke:#1f77b4;" x="153.648052" xlink:href="#mb32fc0c5f1" y="209.567377"/>
     <use style="fill:#1f77b4;stroke:#1f77b4;" x="154.807532" xlink:href="#mb32fc0c5f1" y="173.281741"/>
     <use style="fill:#1f77b4;stroke:#1f77b4;" x="155.967013" xlink:href="#mb32fc0c5f1" y="192.276576"/>
     <use style="fill:#1f77b4;stroke:#1f77b4;" x="157.126494" xlink:href="#mb32fc0c5f1" y="178.435061"/>
     <use style="fill:#1f77b4;stroke:#1f77b4;" x="158.285974" xlink:href="#mb32fc0c5f1" y="191.177693"/>
     <use style="fill:#1f77b4;stroke:#1f77b4;" x="159.445455" xlink:href="#mb32fc0c5f1" y="201.477652"/>
     <use style="fill:#1f77b4;stroke:#1f77b4;" x="160.604935" xlink:href="#mb32fc0c5f1" y="220.60801"/>
     <use style="fill:#1f77b4;stroke:#1f77b4;" x="161.764416" xlink:href="#mb32fc0c5f1" y="207.124296"/>
     <use style="fill:#1f77b4;stroke:#1f77b4;" x="162.923896" xlink:href="#mb32fc0c5f1" y="205.277272"/>
     <use style="fill:#1f77b4;stroke:#1f77b4;" x="164.083377" xlink:href="#mb32fc0c5f1" y="184.754296"/>
     <use style="fill:#1f77b4;stroke:#1f77b4;" x="165.242857" xlink:href="#mb32fc0c5f1" y="223.624029"/>
     <use style="fill:#1f77b4;stroke:#1f77b4;" x="166.402338" xlink:href="#mb32fc0c5f1" y="202.738278"/>
     <use style="fill:#1f77b4;stroke:#1f77b4;" x="167.561818" xlink:href="#mb32fc0c5f1" y="184.283837"/>
     <use style="fill:#1f77b4;stroke:#1f77b4;" x="168.721299" xlink:href="#mb32fc0c5f1" y="211.438737"/>
     <use style="fill:#1f77b4;stroke:#1f77b4;" x="169.880779" xlink:href="#mb32fc0c5f1" y="178.108477"/>
     <use style="fill:#1f77b4;stroke:#1f77b4;" x="171.04026" xlink:href="#mb32fc0c5f1" y="203.131026"/>
     <use style="fill:#1f77b4;stroke:#1f77b4;" x="172.19974" xlink:href="#mb32fc0c5f1" y="214.173774"/>
     <use style="fill:#1f77b4;stroke:#1f77b4;" x="173.359221" xlink:href="#mb32fc0c5f1" y="181.157558"/>
     <use style="fill:#1f77b4;stroke:#1f77b4;" x="174.518701" xlink:href="#mb32fc0c5f1" y="184.068716"/>
     <use style="fill:#1f77b4;stroke:#1f77b4;" x="175.678182" xlink:href="#mb32fc0c5f1" y="194.774292"/>
     <use style="fill:#1f77b4;stroke:#1f77b4;" x="176.837662" xlink:href="#mb32fc0c5f1" y="197.349524"/>
     <use style="fill:#1f77b4;stroke:#1f77b4;" x="177.997143" xlink:href="#mb32fc0c5f1" y="188.248176"/>
     <use style="fill:#1f77b4;stroke:#1f77b4;" x="179.156623" xlink:href="#mb32fc0c5f1" y="177.615624"/>
     <use style="fill:#1f77b4;stroke:#1f77b4;" x="180.316104" xlink:href="#mb32fc0c5f1" y="182.820396"/>
     <use style="fill:#1f77b4;stroke:#1f77b4;" x="181.475584" xlink:href="#mb32fc0c5f1" y="192.165143"/>
     <use style="fill:#1f77b4;stroke:#1f77b4;" x="182.635065" xlink:href="#mb32fc0c5f1" y="192.924709"/>
     <use style="fill:#1f77b4;stroke:#1f77b4;" x="183.794545" xlink:href="#mb32fc0c5f1" y="185.279797"/>
     <use style="fill:#1f77b4;stroke:#1f77b4;" x="184.954026" xlink:href="#mb32fc0c5f1" y="214.486497"/>
     <use style="fill:#1f77b4;stroke:#1f77b4;" x="186.113506" xlink:href="#mb32fc0c5f1" y="204.161295"/>
     <use style="fill:#1f77b4;stroke:#1f77b4;" x="187.272987" xlink:href="#mb32fc0c5f1" y="204.136269"/>
     <use style="fill:#1f77b4;stroke:#1f77b4;" x="188.432468" xlink:href="#mb32fc0c5f1" y="191.261938"/>
     <use style="fill:#1f77b4;stroke:#1f77b4;" x="189.591948" xlink:href="#mb32fc0c5f1" y="191.072591"/>
     <use style="fill:#1f77b4;stroke:#1f77b4;" x="190.751429" xlink:href="#mb32fc0c5f1" y="179.19206"/>
     <use style="fill:#1f77b4;stroke:#1f77b4;" x="191.910909" xlink:href="#mb32fc0c5f1" y="185.755303"/>
     <use style="fill:#1f77b4;stroke:#1f77b4;" x="193.07039" xlink:href="#mb32fc0c5f1" y="191.331408"/>
     <use style="fill:#1f77b4;stroke:#1f77b4;" x="194.22987" xlink:href="#mb32fc0c5f1" y="198.812471"/>
     <use style="fill:#1f77b4;stroke:#1f77b4;" x="195.389351" xlink:href="#mb32fc0c5f1" y="187.401498"/>
     <use style="fill:#1f77b4;stroke:#1f77b4;" x="196.548831" xlink:href="#mb32fc0c5f1" y="206.201523"/>
     <use style="fill:#1f77b4;stroke:#1f77b4;" x="197.708312" xlink:href="#mb32fc0c5f1" y="206.446832"/>
     <use style="fill:#1f77b4;stroke:#1f77b4;" x="198.867792" xlink:href="#mb32fc0c5f1" y="188.080984"/>
     <use style="fill:#1f77b4;stroke:#1f77b4;" x="200.027273" xlink:href="#mb32fc0c5f1" y="181.864139"/>
     <use style="fill:#1f77b4;stroke:#1f77b4;" x="201.186753" xlink:href="#mb32fc0c5f1" y="191.102681"/>
     <use style="fill:#1f77b4;stroke:#1f77b4;" x="202.346234" xlink:href="#mb32fc0c5f1" y="200.808245"/>
     <use style="fill:#1f77b4;stroke:#1f77b4;" x="203.505714" xlink:href="#mb32fc0c5f1" y="182.165796"/>
     <use style="fill:#1f77b4;stroke:#1f77b4;" x="204.665195" xlink:href="#mb32fc0c5f1" y="175.279908"/>
     <use style="fill:#1f77b4;stroke:#1f77b4;" x="205.824675" xlink:href="#mb32fc0c5f1" y="185.373867"/>
     <use style="fill:#1f77b4;stroke:#1f77b4;" x="206.984156" xlink:href="#mb32fc0c5f1" y="189.27769"/>
     <use style="fill:#1f77b4;stroke:#1f77b4;" x="208.143636" xlink:href="#mb32fc0c5f1" y="238.737236"/>
     <use style="fill:#1f77b4;stroke:#1f77b4;" x="209.303117" xlink:href="#mb32fc0c5f1" y="180.739079"/>
     <use style="fill:#1f77b4;stroke:#1f77b4;" x="210.462597" xlink:href="#mb32fc0c5f1" y="188.76058"/>
     <use style="fill:#1f77b4;stroke:#1f77b4;" x="211.622078" xlink:href="#mb32fc0c5f1" y="178.169202"/>
     <use style="fill:#1f77b4;stroke:#1f77b4;" x="212.781558" xlink:href="#mb32fc0c5f1" y="210.691823"/>
     <use style="fill:#1f77b4;stroke:#1f77b4;" x="213.941039" xlink:href="#mb32fc0c5f1" y="185.202435"/>
     <use style="fill:#1f77b4;stroke:#1f77b4;" x="215.100519" xlink:href="#mb32fc0c5f1" y="216.187669"/>
     <use style="fill:#1f77b4;stroke:#1f77b4;" x="216.26" xlink:href="#mb32fc0c5f1" y="197.617053"/>
     <use style="fill:#1f77b4;stroke:#1f77b4;" x="217.419481" xlink:href="#mb32fc0c5f1" y="168.1357"/>
     <use style="fill:#1f77b4;stroke:#1f77b4;" x="218.578961" xlink:href="#mb32fc0c5f1" y="203.651734"/>
     <use style="fill:#1f77b4;stroke:#1f77b4;" x="219.738442" xlink:href="#mb32fc0c5f1" y="218.343561"/>
     <use style="fill:#1f77b4;stroke:#1f77b4;" x="220.897922" xlink:href="#mb32fc0c5f1" y="170.783467"/>
     <use style="fill:#1f77b4;stroke:#1f77b4;" x="222.057403" xlink:href="#mb32fc0c5f1" y="187.330679"/>
     <use style="fill:#1f77b4;stroke:#1f77b4;" x="223.216883" xlink:href="#mb32fc0c5f1" y="183.95628"/>
     <use style="fill:#1f77b4;stroke:#1f77b4;" x="224.376364" xlink:href="#mb32fc0c5f1" y="182.146739"/>
     <use style="fill:#1f77b4;stroke:#1f77b4;" x="225.535844" xlink:href="#mb32fc0c5f1" y="186.910124"/>
     <use style="fill:#1f77b4;stroke:#1f77b4;" x="226.695325" xlink:href="#mb32fc0c5f1" y="195.33506"/>
     <use style="fill:#1f77b4;stroke:#1f77b4;" x="227.854805" xlink:href="#mb32fc0c5f1" y="184.317686"/>
     <use style="fill:#1f77b4;stroke:#1f77b4;" x="229.014286" xlink:href="#mb32fc0c5f1" y="173.880057"/>
     <use style="fill:#1f77b4;stroke:#1f77b4;" x="230.173766" xlink:href="#mb32fc0c5f1" y="195.086448"/>
     <use style="fill:#1f77b4;stroke:#1f77b4;" x="231.333247" xlink:href="#mb32fc0c5f1" y="201.284388"/>
     <use style="fill:#1f77b4;stroke:#1f77b4;" x="232.492727" xlink:href="#mb32fc0c5f1" y="220.804277"/>
     <use style="fill:#1f77b4;stroke:#1f77b4;" x="233.652208" xlink:href="#mb32fc0c5f1" y="173.409717"/>
     <use style="fill:#1f77b4;stroke:#1f77b4;" x="234.811688" xlink:href="#mb32fc0c5f1" y="180.505294"/>
     <use style="fill:#1f77b4;stroke:#1f77b4;" x="235.971169" xlink:href="#mb32fc0c5f1" y="171.07802"/>
     <use style="fill:#1f77b4;stroke:#1f77b4;" x="237.130649" xlink:href="#mb32fc0c5f1" y="178.460324"/>
     <use style="fill:#1f77b4;stroke:#1f77b4;" x="238.29013" xlink:href="#mb32fc0c5f1" y="189.18768"/>
     <use style="fill:#1f77b4;stroke:#1f77b4;" x="239.44961" xlink:href="#mb32fc0c5f1" y="186.985474"/>
     <use style="fill:#1f77b4;stroke:#1f77b4;" x="240.609091" xlink:href="#mb32fc0c5f1" y="190.253812"/>
     <use style="fill:#1f77b4;stroke:#1f77b4;" x="241.768571" xlink:href="#mb32fc0c5f1" y="187.679537"/>
     <use style="fill:#1f77b4;stroke:#1f77b4;" x="242.928052" xlink:href="#mb32fc0c5f1" y="177.501696"/>
     <use style="fill:#1f77b4;stroke:#1f77b4;" x="244.087532" xlink:href="#mb32fc0c5f1" y="191.245152"/>
     <use style="fill:#1f77b4;stroke:#1f77b4;" x="245.247013" xlink:href="#mb32fc0c5f1" y="179.388347"/>
     <use style="fill:#1f77b4;stroke:#1f77b4;" x="246.406494" xlink:href="#mb32fc0c5f1" y="198.95947"/>
     <use style="fill:#1f77b4;stroke:#1f77b4;" x="247.565974" xlink:href="#mb32fc0c5f1" y="182.604487"/>
     <use style="fill:#1f77b4;stroke:#1f77b4;" x="248.725455" xlink:href="#mb32fc0c5f1" y="170.613713"/>
     <use style="fill:#1f77b4;stroke:#1f77b4;" x="249.884935" xlink:href="#mb32fc0c5f1" y="216.76089"/>
     <use style="fill:#1f77b4;stroke:#1f77b4;" x="251.044416" xlink:href="#mb32fc0c5f1" y="207.467017"/>
     <use style="fill:#1f77b4;stroke:#1f77b4;" x="252.203896" xlink:href="#mb32fc0c5f1" y="193.043254"/>
     <use style="fill:#1f77b4;stroke:#1f77b4;" x="253.363377" xlink:href="#mb32fc0c5f1" y="180.499075"/>
     <use style="fill:#1f77b4;stroke:#1f77b4;" x="254.522857" xlink:href="#mb32fc0c5f1" y="221.667802"/>
     <use style="fill:#1f77b4;stroke:#1f77b4;" x="255.682338" xlink:href="#mb32fc0c5f1" y="192.589864"/>
     <use style="fill:#1f77b4;stroke:#1f77b4;" x="256.841818" xlink:href="#mb32fc0c5f1" y="194.645783"/>
     <use style="fill:#1f77b4;stroke:#1f77b4;" x="258.001299" xlink:href="#mb32fc0c5f1" y="185.963401"/>
     <use style="fill:#1f77b4;stroke:#1f77b4;" x="259.160779" xlink:href="#mb32fc0c5f1" y="171.377665"/>
     <use style="fill:#1f77b4;stroke:#1f77b4;" x="260.32026" xlink:href="#mb32fc0c5f1" y="209.240577"/>
     <use style="fill:#1f77b4;stroke:#1f77b4;" x="261.47974" xlink:href="#mb32fc0c5f1" y="206.967643"/>
     <use style="fill:#1f77b4;stroke:#1f77b4;" x="262.639221" xlink:href="#mb32fc0c5f1" y="179.506242"/>
     <use style="fill:#1f77b4;stroke:#1f77b4;" x="263.798701" xlink:href="#mb32fc0c5f1" y="195.06315"/>
     <use style="fill:#1f77b4;stroke:#1f77b4;" x="264.958182" xlink:href="#mb32fc0c5f1" y="187.400256"/>
     <use style="fill:#1f77b4;stroke:#1f77b4;" x="266.117662" xlink:href="#mb32fc0c5f1" y="188.234901"/>
     <use style="fill:#1f77b4;stroke:#1f77b4;" x="267.277143" xlink:href="#mb32fc0c5f1" y="185.017179"/>
     <use style="fill:#1f77b4;stroke:#1f77b4;" x="268.436623" xlink:href="#mb32fc0c5f1" y="189.855781"/>
     <use style="fill:#1f77b4;stroke:#1f77b4;" x="269.596104" xlink:href="#mb32fc0c5f1" y="190.323871"/>
     <use style="fill:#1f77b4;stroke:#1f77b4;" x="270.755584" xlink:href="#mb32fc0c5f1" y="222.357289"/>
     <use style="fill:#1f77b4;stroke:#1f77b4;" x="271.915065" xlink:href="#mb32fc0c5f1" y="192.274911"/>
     <use style="fill:#1f77b4;stroke:#1f77b4;" x="273.074545" xlink:href="#mb32fc0c5f1" y="196.344186"/>
     <use style="fill:#1f77b4;stroke:#1f77b4;" x="274.234026" xlink:href="#mb32fc0c5f1" y="206.427827"/>
     <use style="fill:#1f77b4;stroke:#1f77b4;" x="275.393506" xlink:href="#mb32fc0c5f1" y="213.715645"/>
     <use style="fill:#1f77b4;stroke:#1f77b4;" x="276.552987" xlink:href="#mb32fc0c5f1" y="183.458203"/>
     <use style="fill:#1f77b4;stroke:#1f77b4;" x="277.712468" xlink:href="#mb32fc0c5f1" y="184.169176"/>
     <use style="fill:#1f77b4;stroke:#1f77b4;" x="278.871948" xlink:href="#mb32fc0c5f1" y="180.95061"/>
     <use style="fill:#1f77b4;stroke:#1f77b4;" x="280.031429" xlink:href="#mb32fc0c5f1" y="178.187451"/>
     <use style="fill:#1f77b4;stroke:#1f77b4;" x="281.190909" xlink:href="#mb32fc0c5f1" y="189.343869"/>
     <use style="fill:#1f77b4;stroke:#1f77b4;" x="282.35039" xlink:href="#mb32fc0c5f1" y="166.083688"/>
     <use style="fill:#1f77b4;stroke:#1f77b4;" x="283.50987" xlink:href="#mb32fc0c5f1" y="181.364402"/>
     <use style="fill:#1f77b4;stroke:#1f77b4;" x="284.669351" xlink:href="#mb32fc0c5f1" y="182.854592"/>
     <use style="fill:#1f77b4;stroke:#1f77b4;" x="285.828831" xlink:href="#mb32fc0c5f1" y="164.904977"/>
     <use style="fill:#1f77b4;stroke:#1f77b4;" x="286.988312" xlink:href="#mb32fc0c5f1" y="180.571876"/>
     <use style="fill:#1f77b4;stroke:#1f77b4;" x="288.147792" xlink:href="#mb32fc0c5f1" y="180.727709"/>
     <use style="fill:#1f77b4;stroke:#1f77b4;" x="289.307273" xlink:href="#mb32fc0c5f1" y="193.58427"/>
     <use style="fill:#1f77b4;stroke:#1f77b4;" x="290.466753" xlink:href="#mb32fc0c5f1" y="247.016856"/>
     <use style="fill:#1f77b4;stroke:#1f77b4;" x="291.626234" xlink:href="#mb32fc0c5f1" y="184.455024"/>
     <use style="fill:#1f77b4;stroke:#1f77b4;" x="292.785714" xlink:href="#mb32fc0c5f1" y="197.793584"/>
     <use style="fill:#1f77b4;stroke:#1f77b4;" x="293.945195" xlink:href="#mb32fc0c5f1" y="173.408015"/>
     <use style="fill:#1f77b4;stroke:#1f77b4;" x="295.104675" xlink:href="#mb32fc0c5f1" y="176.952206"/>
     <use style="fill:#1f77b4;stroke:#1f77b4;" x="296.264156" xlink:href="#mb32fc0c5f1" y="184.976511"/>
     <use style="fill:#1f77b4;stroke:#1f77b4;" x="297.423636" xlink:href="#mb32fc0c5f1" y="187.018238"/>
     <use style="fill:#1f77b4;stroke:#1f77b4;" x="298.583117" xlink:href="#mb32fc0c5f1" y="250.568601"/>
     <use style="fill:#1f77b4;stroke:#1f77b4;" x="299.742597" xlink:href="#mb32fc0c5f1" y="191.471177"/>
     <use style="fill:#1f77b4;stroke:#1f77b4;" x="300.902078" xlink:href="#mb32fc0c5f1" y="188.130526"/>
     <use style="fill:#1f77b4;stroke:#1f77b4;" x="302.061558" xlink:href="#mb32fc0c5f1" y="175.848797"/>
     <use style="fill:#1f77b4;stroke:#1f77b4;" x="303.221039" xlink:href="#mb32fc0c5f1" y="205.037916"/>
     <use style="fill:#1f77b4;stroke:#1f77b4;" x="304.380519" xlink:href="#mb32fc0c5f1" y="176.682844"/>
     <use style="fill:#1f77b4;stroke:#1f77b4;" x="305.54" xlink:href="#mb32fc0c5f1" y="185.745061"/>
     <use style="fill:#1f77b4;stroke:#1f77b4;" x="306.699481" xlink:href="#mb32fc0c5f1" y="196.734087"/>
     <use style="fill:#1f77b4;stroke:#1f77b4;" x="307.858961" xlink:href="#mb32fc0c5f1" y="176.423485"/>
     <use style="fill:#1f77b4;stroke:#1f77b4;" x="309.018442" xlink:href="#mb32fc0c5f1" y="195.996891"/>
     <use style="fill:#1f77b4;stroke:#1f77b4;" x="310.177922" xlink:href="#mb32fc0c5f1" y="190.306066"/>
     <use style="fill:#1f77b4;stroke:#1f77b4;" x="311.337403" xlink:href="#mb32fc0c5f1" y="201.580942"/>
     <use style="fill:#1f77b4;stroke:#1f77b4;" x="312.496883" xlink:href="#mb32fc0c5f1" y="201.709282"/>
     <use style="fill:#1f77b4;stroke:#1f77b4;" x="313.656364" xlink:href="#mb32fc0c5f1" y="230.772434"/>
     <use style="fill:#1f77b4;stroke:#1f77b4;" x="314.815844" xlink:href="#mb32fc0c5f1" y="198.833327"/>
     <use style="fill:#1f77b4;stroke:#1f77b4;" x="315.975325" xlink:href="#mb32fc0c5f1" y="200.056201"/>
     <use style="fill:#1f77b4;stroke:#1f77b4;" x="317.134805" xlink:href="#mb32fc0c5f1" y="166.014709"/>
     <use style="fill:#1f77b4;stroke:#1f77b4;" x="318.294286" xlink:href="#mb32fc0c5f1" y="261.216"/>
     <use style="fill:#1f77b4;stroke:#1f77b4;" x="319.453766" xlink:href="#mb32fc0c5f1" y="199.437462"/>
     <use style="fill:#1f77b4;stroke:#1f77b4;" x="320.613247" xlink:href="#mb32fc0c5f1" y="200.920431"/>
     <use style="fill:#1f77b4;stroke:#1f77b4;" x="321.772727" xlink:href="#mb32fc0c5f1" y="183.208749"/>
     <use style="fill:#1f77b4;stroke:#1f77b4;" x="322.932208" xlink:href="#mb32fc0c5f1" y="195.263646"/>
     <use style="fill:#1f77b4;stroke:#1f77b4;" x="324.091688" xlink:href="#mb32fc0c5f1" y="186.143987"/>
     <use style="fill:#1f77b4;stroke:#1f77b4;" x="325.251169" xlink:href="#mb32fc0c5f1" y="187.321839"/>
     <use style="fill:#1f77b4;stroke:#1f77b4;" x="326.410649" xlink:href="#mb32fc0c5f1" y="181.001756"/>
     <use style="fill:#1f77b4;stroke:#1f77b4;" x="327.57013" xlink:href="#mb32fc0c5f1" y="191.959295"/>
     <use style="fill:#1f77b4;stroke:#1f77b4;" x="328.72961" xlink:href="#mb32fc0c5f1" y="196.427278"/>
     <use style="fill:#1f77b4;stroke:#1f77b4;" x="329.889091" xlink:href="#mb32fc0c5f1" y="188.500325"/>
     <use style="fill:#1f77b4;stroke:#1f77b4;" x="331.048571" xlink:href="#mb32fc0c5f1" y="182.207224"/>
     <use style="fill:#1f77b4;stroke:#1f77b4;" x="332.208052" xlink:href="#mb32fc0c5f1" y="195.413192"/>
     <use style="fill:#1f77b4;stroke:#1f77b4;" x="333.367532" xlink:href="#mb32fc0c5f1" y="168.517284"/>
     <use style="fill:#1f77b4;stroke:#1f77b4;" x="334.527013" xlink:href="#mb32fc0c5f1" y="187.578964"/>
     <use style="fill:#1f77b4;stroke:#1f77b4;" x="335.686494" xlink:href="#mb32fc0c5f1" y="173.69118"/>
     <use style="fill:#1f77b4;stroke:#1f77b4;" x="336.845974" xlink:href="#mb32fc0c5f1" y="209.038692"/>
     <use style="fill:#1f77b4;stroke:#1f77b4;" x="338.005455" xlink:href="#mb32fc0c5f1" y="186.94956"/>
     <use style="fill:#1f77b4;stroke:#1f77b4;" x="339.164935" xlink:href="#mb32fc0c5f1" y="193.230476"/>
     <use style="fill:#1f77b4;stroke:#1f77b4;" x="340.324416" xlink:href="#mb32fc0c5f1" y="186.220949"/>
     <use style="fill:#1f77b4;stroke:#1f77b4;" x="341.483896" xlink:href="#mb32fc0c5f1" y="213.044905"/>
     <use style="fill:#1f77b4;stroke:#1f77b4;" x="342.643377" xlink:href="#mb32fc0c5f1" y="176.289652"/>
     <use style="fill:#1f77b4;stroke:#1f77b4;" x="343.802857" xlink:href="#mb32fc0c5f1" y="242.810797"/>
     <use style="fill:#1f77b4;stroke:#1f77b4;" x="344.962338" xlink:href="#mb32fc0c5f1" y="206.080534"/>
     <use style="fill:#1f77b4;stroke:#1f77b4;" x="346.121818" xlink:href="#mb32fc0c5f1" y="182.068296"/>
     <use style="fill:#1f77b4;stroke:#1f77b4;" x="347.281299" xlink:href="#mb32fc0c5f1" y="183.064795"/>
     <use style="fill:#1f77b4;stroke:#1f77b4;" x="348.440779" xlink:href="#mb32fc0c5f1" y="212.020543"/>
     <use style="fill:#1f77b4;stroke:#1f77b4;" x="349.60026" xlink:href="#mb32fc0c5f1" y="215.215209"/>
     <use style="fill:#1f77b4;stroke:#1f77b4;" x="350.75974" xlink:href="#mb32fc0c5f1" y="180.911054"/>
     <use style="fill:#1f77b4;stroke:#1f77b4;" x="351.919221" xlink:href="#mb32fc0c5f1" y="220.650932"/>
     <use style="fill:#1f77b4;stroke:#1f77b4;" x="353.078701" xlink:href="#mb32fc0c5f1" y="236.533273"/>
     <use style="fill:#1f77b4;stroke:#1f77b4;" x="354.238182" xlink:href="#mb32fc0c5f1" y="198.253577"/>
     <use style="fill:#1f77b4;stroke:#1f77b4;" x="355.397662" xlink:href="#mb32fc0c5f1" y="188.112399"/>
     <use style="fill:#1f77b4;stroke:#1f77b4;" x="356.557143" xlink:href="#mb32fc0c5f1" y="210.171623"/>
     <use style="fill:#1f77b4;stroke:#1f77b4;" x="357.716623" xlink:href="#mb32fc0c5f1" y="203.263345"/>
     <use style="fill:#1f77b4;stroke:#1f77b4;" x="358.876104" xlink:href="#mb32fc0c5f1" y="175.742005"/>
     <use style="fill:#1f77b4;stroke:#1f77b4;" x="360.035584" xlink:href="#mb32fc0c5f1" y="195.654672"/>
     <use style="fill:#1f77b4;stroke:#1f77b4;" x="361.195065" xlink:href="#mb32fc0c5f1" y="204.193119"/>
     <use style="fill:#1f77b4;stroke:#1f77b4;" x="362.354545" xlink:href="#mb32fc0c5f1" y="193.583906"/>
     <use style="fill:#1f77b4;stroke:#1f77b4;" x="363.514026" xlink:href="#mb32fc0c5f1" y="188.67295"/>
     <use style="fill:#1f77b4;stroke:#1f77b4;" x="364.673506" xlink:href="#mb32fc0c5f1" y="196.548129"/>
     <use style="fill:#1f77b4;stroke:#1f77b4;" x="365.832987" xlink:href="#mb32fc0c5f1" y="208.146048"/>
     <use style="fill:#1f77b4;stroke:#1f77b4;" x="366.992468" xlink:href="#mb32fc0c5f1" y="185.363971"/>
     <use style="fill:#1f77b4;stroke:#1f77b4;" x="368.151948" xlink:href="#mb32fc0c5f1" y="219.244761"/>
     <use style="fill:#1f77b4;stroke:#1f77b4;" x="369.311429" xlink:href="#mb32fc0c5f1" y="184.813343"/>
     <use style="fill:#1f77b4;stroke:#1f77b4;" x="370.470909" xlink:href="#mb32fc0c5f1" y="203.038955"/>
     <use style="fill:#1f77b4;stroke:#1f77b4;" x="371.63039" xlink:href="#mb32fc0c5f1" y="201.078962"/>
     <use style="fill:#1f77b4;stroke:#1f77b4;" x="372.78987" xlink:href="#mb32fc0c5f1" y="187.248476"/>
     <use style="fill:#1f77b4;stroke:#1f77b4;" x="373.949351" xlink:href="#mb32fc0c5f1" y="176.510637"/>
     <use style="fill:#1f77b4;stroke:#1f77b4;" x="375.108831" xlink:href="#mb32fc0c5f1" y="176.834739"/>
     <use style="fill:#1f77b4;stroke:#1f77b4;" x="376.268312" xlink:href="#mb32fc0c5f1" y="206.585311"/>
     <use style="fill:#1f77b4;stroke:#1f77b4;" x="377.060947" xlink:href="#mb32fc0c5f1" y="22383.514"/>
    </g>
   </g>
   <g id="line2d_12">
    <path clip-path="url(#p598ffc582e)" d="M 55.092208 27.31436 
L 56.251688 39.217527 
L 57.411169 52.513214 
L 58.570649 64.692461 
L 59.73013 77.840262 
L 60.88961 90.529711 
L 62.049091 103.394693 
L 63.208571 116.303481 
L 64.368052 129.057174 
L 65.527532 141.583642 
L 66.687013 152.772877 
" style="fill:none;stroke:#2ca02c;stroke-dasharray:1.5,2.475;stroke-dashoffset:0;stroke-width:1.5;"/>
    <defs>
     <path d="M -3 3 
L 3 -3 
M -3 -3 
L 3 3 
" id="m2189d02697" style="stroke:#2ca02c;"/>
    </defs>
    <g clip-path="url(#p598ffc582e)">
     <use style="fill:#2ca02c;stroke:#2ca02c;" x="55.092208" xlink:href="#m2189d02697" y="27.31436"/>
     <use style="fill:#2ca02c;stroke:#2ca02c;" x="56.251688" xlink:href="#m2189d02697" y="39.217527"/>
     <use style="fill:#2ca02c;stroke:#2ca02c;" x="57.411169" xlink:href="#m2189d02697" y="52.513214"/>
     <use style="fill:#2ca02c;stroke:#2ca02c;" x="58.570649" xlink:href="#m2189d02697" y="64.692461"/>
     <use style="fill:#2ca02c;stroke:#2ca02c;" x="59.73013" xlink:href="#m2189d02697" y="77.840262"/>
     <use style="fill:#2ca02c;stroke:#2ca02c;" x="60.88961" xlink:href="#m2189d02697" y="90.529711"/>
     <use style="fill:#2ca02c;stroke:#2ca02c;" x="62.049091" xlink:href="#m2189d02697" y="103.394693"/>
     <use style="fill:#2ca02c;stroke:#2ca02c;" x="63.208571" xlink:href="#m2189d02697" y="116.303481"/>
     <use style="fill:#2ca02c;stroke:#2ca02c;" x="64.368052" xlink:href="#m2189d02697" y="129.057174"/>
     <use style="fill:#2ca02c;stroke:#2ca02c;" x="65.527532" xlink:href="#m2189d02697" y="141.583642"/>
     <use style="fill:#2ca02c;stroke:#2ca02c;" x="66.687013" xlink:href="#m2189d02697" y="152.772877"/>
    </g>
   </g>
   <g id="line2d_13">
    <path clip-path="url(#p598ffc582e)" d="M 55.092208 87.657482 
L 75.589048 311.86825 
L 75.589048 311.86825 
" style="fill:none;stroke:#000000;stroke-dasharray:5.55,2.4;stroke-dashoffset:0;stroke-width:1.5;"/>
   </g>
   <g id="patch_3">
    <path d="M 37.7 273.312 
L 37.7 7.2 
" style="fill:none;stroke:#000000;stroke-linecap:square;stroke-linejoin:miter;stroke-width:0.8;"/>
   </g>
   <g id="patch_4">
    <path d="M 394.82 273.312 
L 394.82 7.2 
" style="fill:none;stroke:#000000;stroke-linecap:square;stroke-linejoin:miter;stroke-width:0.8;"/>
   </g>
   <g id="patch_5">
    <path d="M 37.7 273.312 
L 394.82 273.312 
" style="fill:none;stroke:#000000;stroke-linecap:square;stroke-linejoin:miter;stroke-width:0.8;"/>
   </g>
   <g id="patch_6">
    <path d="M 37.7 7.2 
L 394.82 7.2 
" style="fill:none;stroke:#000000;stroke-linecap:square;stroke-linejoin:miter;stroke-width:0.8;"/>
   </g>
   <g id="legend_1">
    <g id="patch_7">
     <path d="M 287.02 59.25625 
L 387.82 59.25625 
Q 389.82 59.25625 389.82 57.25625 
L 389.82 14.2 
Q 389.82 12.2 387.82 12.2 
L 287.02 12.2 
Q 285.02 12.2 285.02 14.2 
L 285.02 57.25625 
Q 285.02 59.25625 287.02 59.25625 
z
" style="fill:#ffffff;opacity:0.8;"/>
    </g>
    <g id="line2d_14">
     <path d="M 289.02 20.298437 
L 309.02 20.298437 
" style="fill:none;stroke:#1f77b4;stroke-linecap:square;stroke-width:1.5;"/>
    </g>
    <g id="line2d_15">
     <g>
      <use style="fill:#1f77b4;stroke:#1f77b4;" x="299.02" xlink:href="#mb32fc0c5f1" y="20.298437"/>
     </g>
    </g>
    <g id="text_12">
     <!-- APD$_n$ - APD$_\infty$ -->
     <defs>
      <path d="M 34.1875 63.1875 
L 20.796875 26.90625 
L 47.609375 26.90625 
z
M 28.609375 72.90625 
L 39.796875 72.90625 
L 67.578125 0 
L 57.328125 0 
L 50.6875 18.703125 
L 17.828125 18.703125 
L 11.1875 0 
L 0.78125 0 
z
" id="DejaVuSans-65"/>
      <path d="M 19.671875 64.796875 
L 19.671875 37.40625 
L 32.078125 37.40625 
Q 38.96875 37.40625 42.71875 40.96875 
Q 46.484375 44.53125 46.484375 51.125 
Q 46.484375 57.671875 42.71875 61.234375 
Q 38.96875 64.796875 32.078125 64.796875 
z
M 9.8125 72.90625 
L 32.078125 72.90625 
Q 44.34375 72.90625 50.609375 67.359375 
Q 56.890625 61.8125 56.890625 51.125 
Q 56.890625 40.328125 50.609375 34.8125 
Q 44.34375 29.296875 32.078125 29.296875 
L 19.671875 29.296875 
L 19.671875 0 
L 9.8125 0 
z
" id="DejaVuSans-80"/>
      <path d="M 19.671875 64.796875 
L 19.671875 8.109375 
L 31.59375 8.109375 
Q 46.6875 8.109375 53.6875 14.9375 
Q 60.6875 21.78125 60.6875 36.53125 
Q 60.6875 51.171875 53.6875 57.984375 
Q 46.6875 64.796875 31.59375 64.796875 
z
M 9.8125 72.90625 
L 30.078125 72.90625 
Q 51.265625 72.90625 61.171875 64.09375 
Q 71.09375 55.28125 71.09375 36.53125 
Q 71.09375 17.671875 61.125 8.828125 
Q 51.171875 0 30.078125 0 
L 9.8125 0 
z
" id="DejaVuSans-68"/>
      <path d="M 55.71875 33.015625 
L 49.3125 0 
L 40.28125 0 
L 46.6875 32.671875 
Q 47.125 34.96875 47.359375 36.71875 
Q 47.609375 38.484375 47.609375 39.5 
Q 47.609375 43.609375 45.015625 45.890625 
Q 42.4375 48.1875 37.796875 48.1875 
Q 30.5625 48.1875 25.34375 43.375 
Q 20.125 38.578125 18.5 30.328125 
L 12.5 0 
L 3.515625 0 
L 14.109375 54.6875 
L 23.09375 54.6875 
L 21.296875 46.09375 
Q 25.046875 50.828125 30.3125 53.40625 
Q 35.59375 56 41.40625 56 
Q 48.640625 56 52.609375 52.09375 
Q 56.59375 48.1875 56.59375 41.109375 
Q 56.59375 39.359375 56.375 37.359375 
Q 56.15625 35.359375 55.71875 33.015625 
z
" id="DejaVuSans-Oblique-110"/>
      <path id="DejaVuSans-32"/>
      <path d="M 4.890625 31.390625 
L 31.203125 31.390625 
L 31.203125 23.390625 
L 4.890625 23.390625 
z
" id="DejaVuSans-45"/>
      <path d="M 45.5625 17.046875 
Q 44.046875 18.796875 41.65625 22.90625 
Q 38.375 17.046875 35.5 14.453125 
Q 31.890625 11.328125 26.265625 11.328125 
Q 19.671875 11.328125 15.328125 16.265625 
Q 10.75 21.4375 10.75 29.984375 
Q 10.75 38.1875 15.328125 43.75 
Q 19.4375 48.6875 26.375 48.6875 
Q 29.9375 48.6875 32.5625 47.21875 
Q 35.640625 45.609375 37.75 42.828125 
Q 39.703125 40.328125 41.65625 36.96875 
Q 44.921875 42.828125 47.796875 45.40625 
Q 51.421875 48.53125 57.03125 48.53125 
Q 63.625 48.53125 67.96875 43.609375 
Q 72.5625 38.421875 72.5625 29.890625 
Q 72.5625 21.6875 67.96875 16.109375 
Q 63.875 11.1875 56.9375 11.1875 
Q 53.375 11.1875 50.734375 12.640625 
Q 48.09375 13.96875 45.5625 17.046875 
z
M 25.734375 17.71875 
Q 33.796875 17.71875 38.625 29.4375 
Q 32.421875 42.234375 25.734375 42.234375 
Q 20.84375 42.234375 18.359375 38.71875 
Q 15.671875 34.96875 15.671875 29.984375 
Q 15.671875 24.515625 18.359375 21.140625 
Q 21.09375 17.71875 25.734375 17.71875 
z
M 57.5625 42.140625 
Q 50.296875 42.140625 44.671875 30.421875 
Q 50.828125 17.625 57.5625 17.625 
Q 62.453125 17.625 64.9375 21.140625 
Q 67.625 24.90625 67.625 29.890625 
Q 67.625 35.359375 64.9375 38.71875 
Q 62.203125 42.140625 57.5625 42.140625 
z
" id="DejaVuSans-8734"/>
     </defs>
     <g transform="translate(317.02 23.798437)scale(0.1 -0.1)">
      <use transform="translate(0 0.09375)" xlink:href="#DejaVuSans-65"/>
      <use transform="translate(68.408203 0.09375)" xlink:href="#DejaVuSans-80"/>
      <use transform="translate(128.710938 0.09375)" xlink:href="#DejaVuSans-68"/>
      <use transform="translate(206.669922 -16.3125)scale(0.7)" xlink:href="#DejaVuSans-Oblique-110"/>
      <use transform="translate(253.769531 0.09375)" xlink:href="#DejaVuSans-32"/>
      <use transform="translate(285.556641 0.09375)" xlink:href="#DejaVuSans-45"/>
      <use transform="translate(321.640625 0.09375)" xlink:href="#DejaVuSans-32"/>
      <use transform="translate(353.427734 0.09375)" xlink:href="#DejaVuSans-65"/>
      <use transform="translate(421.835938 0.09375)" xlink:href="#DejaVuSans-80"/>
      <use transform="translate(482.138672 0.09375)" xlink:href="#DejaVuSans-68"/>
      <use transform="translate(560.097656 -16.3125)scale(0.7)" xlink:href="#DejaVuSans-8734"/>
     </g>
    </g>
    <g id="line2d_16">
     <path d="M 289.02 34.976562 
L 309.02 34.976562 
" style="fill:none;stroke:#2ca02c;stroke-dasharray:1.5,2.475;stroke-dashoffset:0;stroke-width:1.5;"/>
    </g>
    <g id="line2d_17">
     <g>
      <use style="fill:#2ca02c;stroke:#2ca02c;" x="299.02" xlink:href="#m2189d02697" y="34.976562"/>
     </g>
    </g>
    <g id="text_13">
     <!-- linear region -->
     <defs>
      <path d="M 9.421875 75.984375 
L 18.40625 75.984375 
L 18.40625 0 
L 9.421875 0 
z
" id="DejaVuSans-108"/>
      <path d="M 9.421875 54.6875 
L 18.40625 54.6875 
L 18.40625 0 
L 9.421875 0 
z
M 9.421875 75.984375 
L 18.40625 75.984375 
L 18.40625 64.59375 
L 9.421875 64.59375 
z
" id="DejaVuSans-105"/>
      <path d="M 54.890625 33.015625 
L 54.890625 0 
L 45.90625 0 
L 45.90625 32.71875 
Q 45.90625 40.484375 42.875 44.328125 
Q 39.84375 48.1875 33.796875 48.1875 
Q 26.515625 48.1875 22.3125 43.546875 
Q 18.109375 38.921875 18.109375 30.90625 
L 18.109375 0 
L 9.078125 0 
L 9.078125 54.6875 
L 18.109375 54.6875 
L 18.109375 46.1875 
Q 21.34375 51.125 25.703125 53.5625 
Q 30.078125 56 35.796875 56 
Q 45.21875 56 50.046875 50.171875 
Q 54.890625 44.34375 54.890625 33.015625 
z
" id="DejaVuSans-110"/>
      <path d="M 56.203125 29.59375 
L 56.203125 25.203125 
L 14.890625 25.203125 
Q 15.484375 15.921875 20.484375 11.0625 
Q 25.484375 6.203125 34.421875 6.203125 
Q 39.59375 6.203125 44.453125 7.46875 
Q 49.3125 8.734375 54.109375 11.28125 
L 54.109375 2.78125 
Q 49.265625 0.734375 44.1875 -0.34375 
Q 39.109375 -1.421875 33.890625 -1.421875 
Q 20.796875 -1.421875 13.15625 6.1875 
Q 5.515625 13.8125 5.515625 26.8125 
Q 5.515625 40.234375 12.765625 48.109375 
Q 20.015625 56 32.328125 56 
Q 43.359375 56 49.78125 48.890625 
Q 56.203125 41.796875 56.203125 29.59375 
z
M 47.21875 32.234375 
Q 47.125 39.59375 43.09375 43.984375 
Q 39.0625 48.390625 32.421875 48.390625 
Q 24.90625 48.390625 20.390625 44.140625 
Q 15.875 39.890625 15.1875 32.171875 
z
" id="DejaVuSans-101"/>
      <path d="M 34.28125 27.484375 
Q 23.390625 27.484375 19.1875 25 
Q 14.984375 22.515625 14.984375 16.5 
Q 14.984375 11.71875 18.140625 8.90625 
Q 21.296875 6.109375 26.703125 6.109375 
Q 34.1875 6.109375 38.703125 11.40625 
Q 43.21875 16.703125 43.21875 25.484375 
L 43.21875 27.484375 
z
M 52.203125 31.203125 
L 52.203125 0 
L 43.21875 0 
L 43.21875 8.296875 
Q 40.140625 3.328125 35.546875 0.953125 
Q 30.953125 -1.421875 24.3125 -1.421875 
Q 15.921875 -1.421875 10.953125 3.296875 
Q 6 8.015625 6 15.921875 
Q 6 25.140625 12.171875 29.828125 
Q 18.359375 34.515625 30.609375 34.515625 
L 43.21875 34.515625 
L 43.21875 35.40625 
Q 43.21875 41.609375 39.140625 45 
Q 35.0625 48.390625 27.6875 48.390625 
Q 23 48.390625 18.546875 47.265625 
Q 14.109375 46.140625 10.015625 43.890625 
L 10.015625 52.203125 
Q 14.9375 54.109375 19.578125 55.046875 
Q 24.21875 56 28.609375 56 
Q 40.484375 56 46.34375 49.84375 
Q 52.203125 43.703125 52.203125 31.203125 
z
" id="DejaVuSans-97"/>
      <path d="M 41.109375 46.296875 
Q 39.59375 47.171875 37.8125 47.578125 
Q 36.03125 48 33.890625 48 
Q 26.265625 48 22.1875 43.046875 
Q 18.109375 38.09375 18.109375 28.8125 
L 18.109375 0 
L 9.078125 0 
L 9.078125 54.6875 
L 18.109375 54.6875 
L 18.109375 46.1875 
Q 20.953125 51.171875 25.484375 53.578125 
Q 30.03125 56 36.53125 56 
Q 37.453125 56 38.578125 55.875 
Q 39.703125 55.765625 41.0625 55.515625 
z
" id="DejaVuSans-114"/>
      <path d="M 45.40625 27.984375 
Q 45.40625 37.75 41.375 43.109375 
Q 37.359375 48.484375 30.078125 48.484375 
Q 22.859375 48.484375 18.828125 43.109375 
Q 14.796875 37.75 14.796875 27.984375 
Q 14.796875 18.265625 18.828125 12.890625 
Q 22.859375 7.515625 30.078125 7.515625 
Q 37.359375 7.515625 41.375 12.890625 
Q 45.40625 18.265625 45.40625 27.984375 
z
M 54.390625 6.78125 
Q 54.390625 -7.171875 48.1875 -13.984375 
Q 42 -20.796875 29.203125 -20.796875 
Q 24.46875 -20.796875 20.265625 -20.09375 
Q 16.0625 -19.390625 12.109375 -17.921875 
L 12.109375 -9.1875 
Q 16.0625 -11.328125 19.921875 -12.34375 
Q 23.78125 -13.375 27.78125 -13.375 
Q 36.625 -13.375 41.015625 -8.765625 
Q 45.40625 -4.15625 45.40625 5.171875 
L 45.40625 9.625 
Q 42.625 4.78125 38.28125 2.390625 
Q 33.9375 0 27.875 0 
Q 17.828125 0 11.671875 7.65625 
Q 5.515625 15.328125 5.515625 27.984375 
Q 5.515625 40.671875 11.671875 48.328125 
Q 17.828125 56 27.875 56 
Q 33.9375 56 38.28125 53.609375 
Q 42.625 51.21875 45.40625 46.390625 
L 45.40625 54.6875 
L 54.390625 54.6875 
z
" id="DejaVuSans-103"/>
      <path d="M 30.609375 48.390625 
Q 23.390625 48.390625 19.1875 42.75 
Q 14.984375 37.109375 14.984375 27.296875 
Q 14.984375 17.484375 19.15625 11.84375 
Q 23.34375 6.203125 30.609375 6.203125 
Q 37.796875 6.203125 41.984375 11.859375 
Q 46.1875 17.53125 46.1875 27.296875 
Q 46.1875 37.015625 41.984375 42.703125 
Q 37.796875 48.390625 30.609375 48.390625 
z
M 30.609375 56 
Q 42.328125 56 49.015625 48.375 
Q 55.71875 40.765625 55.71875 27.296875 
Q 55.71875 13.875 49.015625 6.21875 
Q 42.328125 -1.421875 30.609375 -1.421875 
Q 18.84375 -1.421875 12.171875 6.21875 
Q 5.515625 13.875 5.515625 27.296875 
Q 5.515625 40.765625 12.171875 48.375 
Q 18.84375 56 30.609375 56 
z
" id="DejaVuSans-111"/>
     </defs>
     <g transform="translate(317.02 38.476562)scale(0.1 -0.1)">
      <use xlink:href="#DejaVuSans-108"/>
      <use x="27.783203" xlink:href="#DejaVuSans-105"/>
      <use x="55.566406" xlink:href="#DejaVuSans-110"/>
      <use x="118.945312" xlink:href="#DejaVuSans-101"/>
      <use x="180.46875" xlink:href="#DejaVuSans-97"/>
      <use x="241.748047" xlink:href="#DejaVuSans-114"/>
      <use x="282.861328" xlink:href="#DejaVuSans-32"/>
      <use x="314.648438" xlink:href="#DejaVuSans-114"/>
      <use x="353.511719" xlink:href="#DejaVuSans-101"/>
      <use x="415.035156" xlink:href="#DejaVuSans-103"/>
      <use x="478.511719" xlink:href="#DejaVuSans-105"/>
      <use x="506.294922" xlink:href="#DejaVuSans-111"/>
      <use x="567.476562" xlink:href="#DejaVuSans-110"/>
     </g>
    </g>
    <g id="line2d_18">
     <path d="M 289.02 49.65625 
L 309.02 49.65625 
" style="fill:none;stroke:#000000;stroke-dasharray:5.55,2.4;stroke-dashoffset:0;stroke-width:1.5;"/>
    </g>
    <g id="line2d_19"/>
    <g id="text_14">
     <!-- $ \exp(-0.897 k)$ -->
     <defs>
      <path d="M 54.890625 54.6875 
L 35.109375 28.078125 
L 55.90625 0 
L 45.3125 0 
L 29.390625 21.484375 
L 13.484375 0 
L 2.875 0 
L 24.125 28.609375 
L 4.6875 54.6875 
L 15.28125 54.6875 
L 29.78125 35.203125 
L 44.28125 54.6875 
z
" id="DejaVuSans-120"/>
      <path d="M 18.109375 8.203125 
L 18.109375 -20.796875 
L 9.078125 -20.796875 
L 9.078125 54.6875 
L 18.109375 54.6875 
L 18.109375 46.390625 
Q 20.953125 51.265625 25.265625 53.625 
Q 29.59375 56 35.59375 56 
Q 45.5625 56 51.78125 48.09375 
Q 58.015625 40.1875 58.015625 27.296875 
Q 58.015625 14.40625 51.78125 6.484375 
Q 45.5625 -1.421875 35.59375 -1.421875 
Q 29.59375 -1.421875 25.265625 0.953125 
Q 20.953125 3.328125 18.109375 8.203125 
z
M 48.6875 27.296875 
Q 48.6875 37.203125 44.609375 42.84375 
Q 40.53125 48.484375 33.40625 48.484375 
Q 26.265625 48.484375 22.1875 42.84375 
Q 18.109375 37.203125 18.109375 27.296875 
Q 18.109375 17.390625 22.1875 11.75 
Q 26.265625 6.109375 33.40625 6.109375 
Q 40.53125 6.109375 44.609375 11.75 
Q 48.6875 17.390625 48.6875 27.296875 
z
" id="DejaVuSans-112"/>
      <path d="M 31 75.875 
Q 24.46875 64.65625 21.28125 53.65625 
Q 18.109375 42.671875 18.109375 31.390625 
Q 18.109375 20.125 21.3125 9.0625 
Q 24.515625 -2 31 -13.1875 
L 23.1875 -13.1875 
Q 15.875 -1.703125 12.234375 9.375 
Q 8.59375 20.453125 8.59375 31.390625 
Q 8.59375 42.28125 12.203125 53.3125 
Q 15.828125 64.359375 23.1875 75.875 
z
" id="DejaVuSans-40"/>
      <path d="M 10.6875 12.40625 
L 21 12.40625 
L 21 0 
L 10.6875 0 
z
" id="DejaVuSans-46"/>
      <path d="M 31.78125 34.625 
Q 24.75 34.625 20.71875 30.859375 
Q 16.703125 27.09375 16.703125 20.515625 
Q 16.703125 13.921875 20.71875 10.15625 
Q 24.75 6.390625 31.78125 6.390625 
Q 38.8125 6.390625 42.859375 10.171875 
Q 46.921875 13.96875 46.921875 20.515625 
Q 46.921875 27.09375 42.890625 30.859375 
Q 38.875 34.625 31.78125 34.625 
z
M 21.921875 38.8125 
Q 15.578125 40.375 12.03125 44.71875 
Q 8.5 49.078125 8.5 55.328125 
Q 8.5 64.0625 14.71875 69.140625 
Q 20.953125 74.21875 31.78125 74.21875 
Q 42.671875 74.21875 48.875 69.140625 
Q 55.078125 64.0625 55.078125 55.328125 
Q 55.078125 49.078125 51.53125 44.71875 
Q 48 40.375 41.703125 38.8125 
Q 48.828125 37.15625 52.796875 32.3125 
Q 56.78125 27.484375 56.78125 20.515625 
Q 56.78125 9.90625 50.3125 4.234375 
Q 43.84375 -1.421875 31.78125 -1.421875 
Q 19.734375 -1.421875 13.25 4.234375 
Q 6.78125 9.90625 6.78125 20.515625 
Q 6.78125 27.484375 10.78125 32.3125 
Q 14.796875 37.15625 21.921875 38.8125 
z
M 18.3125 54.390625 
Q 18.3125 48.734375 21.84375 45.5625 
Q 25.390625 42.390625 31.78125 42.390625 
Q 38.140625 42.390625 41.71875 45.5625 
Q 45.3125 48.734375 45.3125 54.390625 
Q 45.3125 60.0625 41.71875 63.234375 
Q 38.140625 66.40625 31.78125 66.40625 
Q 25.390625 66.40625 21.84375 63.234375 
Q 18.3125 60.0625 18.3125 54.390625 
z
" id="DejaVuSans-56"/>
      <path d="M 10.984375 1.515625 
L 10.984375 10.5 
Q 14.703125 8.734375 18.5 7.8125 
Q 22.3125 6.890625 25.984375 6.890625 
Q 35.75 6.890625 40.890625 13.453125 
Q 46.046875 20.015625 46.78125 33.40625 
Q 43.953125 29.203125 39.59375 26.953125 
Q 35.25 24.703125 29.984375 24.703125 
Q 19.046875 24.703125 12.671875 31.3125 
Q 6.296875 37.9375 6.296875 49.421875 
Q 6.296875 60.640625 12.9375 67.421875 
Q 19.578125 74.21875 30.609375 74.21875 
Q 43.265625 74.21875 49.921875 64.515625 
Q 56.59375 54.828125 56.59375 36.375 
Q 56.59375 19.140625 48.40625 8.859375 
Q 40.234375 -1.421875 26.421875 -1.421875 
Q 22.703125 -1.421875 18.890625 -0.6875 
Q 15.09375 0.046875 10.984375 1.515625 
z
M 30.609375 32.421875 
Q 37.25 32.421875 41.125 36.953125 
Q 45.015625 41.5 45.015625 49.421875 
Q 45.015625 57.28125 41.125 61.84375 
Q 37.25 66.40625 30.609375 66.40625 
Q 23.96875 66.40625 20.09375 61.84375 
Q 16.21875 57.28125 16.21875 49.421875 
Q 16.21875 41.5 20.09375 36.953125 
Q 23.96875 32.421875 30.609375 32.421875 
z
" id="DejaVuSans-57"/>
      <path d="M 8.203125 72.90625 
L 55.078125 72.90625 
L 55.078125 68.703125 
L 28.609375 0 
L 18.3125 0 
L 43.21875 64.59375 
L 8.203125 64.59375 
z
" id="DejaVuSans-55"/>
      <path d="M 8.015625 75.875 
L 15.828125 75.875 
Q 23.140625 64.359375 26.78125 53.3125 
Q 30.421875 42.28125 30.421875 31.390625 
Q 30.421875 20.453125 26.78125 9.375 
Q 23.140625 -1.703125 15.828125 -13.1875 
L 8.015625 -13.1875 
Q 14.5 -2 17.703125 9.0625 
Q 20.90625 20.125 20.90625 31.390625 
Q 20.90625 42.671875 17.703125 53.65625 
Q 14.5 64.65625 8.015625 75.875 
z
" id="DejaVuSans-41"/>
     </defs>
     <g transform="translate(317.02 53.15625)scale(0.1 -0.1)">
      <use transform="translate(0 0.015625)" xlink:href="#DejaVuSans-101"/>
      <use transform="translate(61.523438 0.015625)" xlink:href="#DejaVuSans-120"/>
      <use transform="translate(120.703125 0.015625)" xlink:href="#DejaVuSans-112"/>
      <use transform="translate(184.179688 0.015625)" xlink:href="#DejaVuSans-40"/>
      <use transform="translate(223.193359 0.015625)" xlink:href="#DejaVuSans-8722"/>
      <use transform="translate(306.982422 0.015625)" xlink:href="#DejaVuSans-48"/>
      <use transform="translate(370.605469 0.015625)" xlink:href="#DejaVuSans-46"/>
      <use transform="translate(399.767578 0.015625)" xlink:href="#DejaVuSans-56"/>
      <use transform="translate(463.390625 0.015625)" xlink:href="#DejaVuSans-57"/>
      <use transform="translate(527.013672 0.015625)" xlink:href="#DejaVuSans-55"/>
      <use transform="translate(590.636719 0.015625)" xlink:href="#DejaVuSans-Oblique-107"/>
      <use transform="translate(648.546875 0.015625)" xlink:href="#DejaVuSans-41"/>
     </g>
    </g>
   </g>
  </g>
 </g>
 <defs>
  <clipPath id="p598ffc582e">
   <rect height="266.112" width="357.12" x="37.7" y="7.2"/>
  </clipPath>
 </defs>
</svg>
