<?xml version="1.0" encoding="utf-8" standalone="no"?>
<!DOCTYPE svg PUBLIC "-//W3C//DTD SVG 1.1//EN"
  "http://www.w3.org/Graphics/SVG/1.1/DTD/svg11.dtd">
<!-- Created with matplotlib (https://matplotlib.org/) -->
<svg height="310.86825pt" version="1.1" viewBox="0 0 402.02 310.86825" width="402.02pt" xmlns="http://www.w3.org/2000/svg" xmlns:xlink="http://www.w3.org/1999/xlink">
 <defs>
  <style type="text/css">
*{stroke-linecap:butt;stroke-linejoin:round;}
  </style>
 </defs>
 <g id="figure_1">
  <g id="patch_1">
   <path d="M 0 310.86825 
L 402.02 310.86825 
L 402.02 0 
L 0 0 
z
" style="fill:#ffffff;"/>
  </g>
  <g id="axes_1">
   <g id="patch_2">
    <path d="M 37.7 273.312 
L 394.82 273.312 
L 394.82 7.2 
L 37.7 7.2 
z
" style="fill:#ffffff;"/>
   </g>
   <g id="matplotlib.axis_1">
    <g id="xtick_1">
     <g id="line2d_1">
      <defs>
       <path d="M 0 0 
L 0 3.5 
" id="m8a2911043e" style="stroke:#000000;stroke-width:0.8;"/>
      </defs>
      <g>
       <use style="stroke:#000000;stroke-width:0.8;" x="53.932727" xlink:href="#m8a2911043e" y="273.312"/>
      </g>
     </g>
     <g id="text_1">
      <!-- 0 -->
      <defs>
       <path d="M 31.78125 66.40625 
Q 24.171875 66.40625 20.328125 58.90625 
Q 16.5 51.421875 16.5 36.375 
Q 16.5 21.390625 20.328125 13.890625 
Q 24.171875 6.390625 31.78125 6.390625 
Q 39.453125 6.390625 43.28125 13.890625 
Q 47.125 21.390625 47.125 36.375 
Q 47.125 51.421875 43.28125 58.90625 
Q 39.453125 66.40625 31.78125 66.40625 
z
M 31.78125 74.21875 
Q 44.046875 74.21875 50.515625 64.515625 
Q 56.984375 54.828125 56.984375 36.375 
Q 56.984375 17.96875 50.515625 8.265625 
Q 44.046875 -1.421875 31.78125 -1.421875 
Q 19.53125 -1.421875 13.0625 8.265625 
Q 6.59375 17.96875 6.59375 36.375 
Q 6.59375 54.828125 13.0625 64.515625 
Q 19.53125 74.21875 31.78125 74.21875 
z
" id="DejaVuSans-48"/>
      </defs>
      <g transform="translate(50.751477 287.910437)scale(0.1 -0.1)">
       <use xlink:href="#DejaVuSans-48"/>
      </g>
     </g>
    </g>
    <g id="xtick_2">
     <g id="line2d_2">
      <g>
       <use style="stroke:#000000;stroke-width:0.8;" x="110.889665" xlink:href="#m8a2911043e" y="273.312"/>
      </g>
     </g>
     <g id="text_2">
      <!-- 50 -->
      <defs>
       <path d="M 10.796875 72.90625 
L 49.515625 72.90625 
L 49.515625 64.59375 
L 19.828125 64.59375 
L 19.828125 46.734375 
Q 21.96875 47.46875 24.109375 47.828125 
Q 26.265625 48.1875 28.421875 48.1875 
Q 40.625 48.1875 47.75 41.5 
Q 54.890625 34.8125 54.890625 23.390625 
Q 54.890625 11.625 47.5625 5.09375 
Q 40.234375 -1.421875 26.90625 -1.421875 
Q 22.3125 -1.421875 17.546875 -0.640625 
Q 12.796875 0.140625 7.71875 1.703125 
L 7.71875 11.625 
Q 12.109375 9.234375 16.796875 8.0625 
Q 21.484375 6.890625 26.703125 6.890625 
Q 35.15625 6.890625 40.078125 11.328125 
Q 45.015625 15.765625 45.015625 23.390625 
Q 45.015625 31 40.078125 35.4375 
Q 35.15625 39.890625 26.703125 39.890625 
Q 22.75 39.890625 18.8125 39.015625 
Q 14.890625 38.140625 10.796875 36.28125 
z
" id="DejaVuSans-53"/>
      </defs>
      <g transform="translate(104.527165 287.910437)scale(0.1 -0.1)">
       <use xlink:href="#DejaVuSans-53"/>
       <use x="63.623047" xlink:href="#DejaVuSans-48"/>
      </g>
     </g>
    </g>
    <g id="xtick_3">
     <g id="line2d_3">
      <g>
       <use style="stroke:#000000;stroke-width:0.8;" x="167.846603" xlink:href="#m8a2911043e" y="273.312"/>
      </g>
     </g>
     <g id="text_3">
      <!-- 100 -->
      <defs>
       <path d="M 12.40625 8.296875 
L 28.515625 8.296875 
L 28.515625 63.921875 
L 10.984375 60.40625 
L 10.984375 69.390625 
L 28.421875 72.90625 
L 38.28125 72.90625 
L 38.28125 8.296875 
L 54.390625 8.296875 
L 54.390625 0 
L 12.40625 0 
z
" id="DejaVuSans-49"/>
      </defs>
      <g transform="translate(158.302853 287.910437)scale(0.1 -0.1)">
       <use xlink:href="#DejaVuSans-49"/>
       <use x="63.623047" xlink:href="#DejaVuSans-48"/>
       <use x="127.246094" xlink:href="#DejaVuSans-48"/>
      </g>
     </g>
    </g>
    <g id="xtick_4">
     <g id="line2d_4">
      <g>
       <use style="stroke:#000000;stroke-width:0.8;" x="224.803541" xlink:href="#m8a2911043e" y="273.312"/>
      </g>
     </g>
     <g id="text_4">
      <!-- 150 -->
      <g transform="translate(215.259791 287.910437)scale(0.1 -0.1)">
       <use xlink:href="#DejaVuSans-49"/>
       <use x="63.623047" xlink:href="#DejaVuSans-53"/>
       <use x="127.246094" xlink:href="#DejaVuSans-48"/>
      </g>
     </g>
    </g>
    <g id="xtick_5">
     <g id="line2d_5">
      <g>
       <use style="stroke:#000000;stroke-width:0.8;" x="281.760478" xlink:href="#m8a2911043e" y="273.312"/>
      </g>
     </g>
     <g id="text_5">
      <!-- 200 -->
      <defs>
       <path d="M 19.1875 8.296875 
L 53.609375 8.296875 
L 53.609375 0 
L 7.328125 0 
L 7.328125 8.296875 
Q 12.9375 14.109375 22.625 23.890625 
Q 32.328125 33.6875 34.8125 36.53125 
Q 39.546875 41.84375 41.421875 45.53125 
Q 43.3125 49.21875 43.3125 52.78125 
Q 43.3125 58.59375 39.234375 62.25 
Q 35.15625 65.921875 28.609375 65.921875 
Q 23.96875 65.921875 18.8125 64.3125 
Q 13.671875 62.703125 7.8125 59.421875 
L 7.8125 69.390625 
Q 13.765625 71.78125 18.9375 73 
Q 24.125 74.21875 28.421875 74.21875 
Q 39.75 74.21875 46.484375 68.546875 
Q 53.21875 62.890625 53.21875 53.421875 
Q 53.21875 48.921875 51.53125 44.890625 
Q 49.859375 40.875 45.40625 35.40625 
Q 44.1875 33.984375 37.640625 27.21875 
Q 31.109375 20.453125 19.1875 8.296875 
z
" id="DejaVuSans-50"/>
      </defs>
      <g transform="translate(272.216728 287.910437)scale(0.1 -0.1)">
       <use xlink:href="#DejaVuSans-50"/>
       <use x="63.623047" xlink:href="#DejaVuSans-48"/>
       <use x="127.246094" xlink:href="#DejaVuSans-48"/>
      </g>
     </g>
    </g>
    <g id="xtick_6">
     <g id="line2d_6">
      <g>
       <use style="stroke:#000000;stroke-width:0.8;" x="338.717416" xlink:href="#m8a2911043e" y="273.312"/>
      </g>
     </g>
     <g id="text_6">
      <!-- 250 -->
      <g transform="translate(329.173666 287.910437)scale(0.1 -0.1)">
       <use xlink:href="#DejaVuSans-50"/>
       <use x="63.623047" xlink:href="#DejaVuSans-53"/>
       <use x="127.246094" xlink:href="#DejaVuSans-48"/>
      </g>
     </g>
    </g>
    <g id="text_7">
     <!-- $ k $ -->
     <defs>
      <path d="M 18.3125 75.984375 
L 27.296875 75.984375 
L 18.703125 31.6875 
L 49.515625 54.6875 
L 61.1875 54.6875 
L 26.8125 28.515625 
L 51.90625 0 
L 41.015625 0 
L 17.671875 26.703125 
L 12.5 0 
L 3.515625 0 
z
" id="DejaVuSans-Oblique-107"/>
     </defs>
     <g transform="translate(213.36 301.588562)scale(0.1 -0.1)">
      <use transform="translate(0 0.015625)" xlink:href="#DejaVuSans-Oblique-107"/>
     </g>
    </g>
   </g>
   <g id="matplotlib.axis_2">
    <g id="ytick_1">
     <g id="line2d_7">
      <defs>
       <path d="M 0 0 
L -3.5 0 
" id="mdc9fafb8e6" style="stroke:#000000;stroke-width:0.8;"/>
      </defs>
      <g>
       <use style="stroke:#000000;stroke-width:0.8;" x="37.7" xlink:href="#mdc9fafb8e6" y="241.087632"/>
      </g>
     </g>
     <g id="text_8">
      <!-- $\mathdefault{10^{-6}}$ -->
      <defs>
       <path d="M 10.59375 35.5 
L 73.1875 35.5 
L 73.1875 27.203125 
L 10.59375 27.203125 
z
" id="DejaVuSans-8722"/>
       <path d="M 33.015625 40.375 
Q 26.375 40.375 22.484375 35.828125 
Q 18.609375 31.296875 18.609375 23.390625 
Q 18.609375 15.53125 22.484375 10.953125 
Q 26.375 6.390625 33.015625 6.390625 
Q 39.65625 6.390625 43.53125 10.953125 
Q 47.40625 15.53125 47.40625 23.390625 
Q 47.40625 31.296875 43.53125 35.828125 
Q 39.65625 40.375 33.015625 40.375 
z
M 52.59375 71.296875 
L 52.59375 62.3125 
Q 48.875 64.0625 45.09375 64.984375 
Q 41.3125 65.921875 37.59375 65.921875 
Q 27.828125 65.921875 22.671875 59.328125 
Q 17.53125 52.734375 16.796875 39.40625 
Q 19.671875 43.65625 24.015625 45.921875 
Q 28.375 48.1875 33.59375 48.1875 
Q 44.578125 48.1875 50.953125 41.515625 
Q 57.328125 34.859375 57.328125 23.390625 
Q 57.328125 12.15625 50.6875 5.359375 
Q 44.046875 -1.421875 33.015625 -1.421875 
Q 20.359375 -1.421875 13.671875 8.265625 
Q 6.984375 17.96875 6.984375 36.375 
Q 6.984375 53.65625 15.1875 63.9375 
Q 23.390625 74.21875 37.203125 74.21875 
Q 40.921875 74.21875 44.703125 73.484375 
Q 48.484375 72.75 52.59375 71.296875 
z
" id="DejaVuSans-54"/>
      </defs>
      <g transform="translate(7.2 244.886851)scale(0.1 -0.1)">
       <use transform="translate(0 0.765625)" xlink:href="#DejaVuSans-49"/>
       <use transform="translate(63.623047 0.765625)" xlink:href="#DejaVuSans-48"/>
       <use transform="translate(128.203125 39.046875)scale(0.7)" xlink:href="#DejaVuSans-8722"/>
       <use transform="translate(186.855469 39.046875)scale(0.7)" xlink:href="#DejaVuSans-54"/>
      </g>
     </g>
    </g>
    <g id="ytick_2">
     <g id="line2d_8">
      <g>
       <use style="stroke:#000000;stroke-width:0.8;" x="37.7" xlink:href="#mdc9fafb8e6" y="183.654335"/>
      </g>
     </g>
     <g id="text_9">
      <!-- $\mathdefault{10^{-4}}$ -->
      <defs>
       <path d="M 37.796875 64.3125 
L 12.890625 25.390625 
L 37.796875 25.390625 
z
M 35.203125 72.90625 
L 47.609375 72.90625 
L 47.609375 25.390625 
L 58.015625 25.390625 
L 58.015625 17.1875 
L 47.609375 17.1875 
L 47.609375 0 
L 37.796875 0 
L 37.796875 17.1875 
L 4.890625 17.1875 
L 4.890625 26.703125 
z
" id="DejaVuSans-52"/>
      </defs>
      <g transform="translate(7.2 187.453553)scale(0.1 -0.1)">
       <use transform="translate(0 0.684375)" xlink:href="#DejaVuSans-49"/>
       <use transform="translate(63.623047 0.684375)" xlink:href="#DejaVuSans-48"/>
       <use transform="translate(128.203125 38.965625)scale(0.7)" xlink:href="#DejaVuSans-8722"/>
       <use transform="translate(186.855469 38.965625)scale(0.7)" xlink:href="#DejaVuSans-52"/>
      </g>
     </g>
    </g>
    <g id="ytick_3">
     <g id="line2d_9">
      <g>
       <use style="stroke:#000000;stroke-width:0.8;" x="37.7" xlink:href="#mdc9fafb8e6" y="126.221037"/>
      </g>
     </g>
     <g id="text_10">
      <!-- $\mathdefault{10^{-2}}$ -->
      <g transform="translate(7.2 130.020256)scale(0.1 -0.1)">
       <use transform="translate(0 0.765625)" xlink:href="#DejaVuSans-49"/>
       <use transform="translate(63.623047 0.765625)" xlink:href="#DejaVuSans-48"/>
       <use transform="translate(128.203125 39.046875)scale(0.7)" xlink:href="#DejaVuSans-8722"/>
       <use transform="translate(186.855469 39.046875)scale(0.7)" xlink:href="#DejaVuSans-50"/>
      </g>
     </g>
    </g>
    <g id="ytick_4">
     <g id="line2d_10">
      <g>
       <use style="stroke:#000000;stroke-width:0.8;" x="37.7" xlink:href="#mdc9fafb8e6" y="68.78774"/>
      </g>
     </g>
     <g id="text_11">
      <!-- $\mathdefault{10^{0}}$ -->
      <g transform="translate(13.1 72.586958)scale(0.1 -0.1)">
       <use transform="translate(0 0.765625)" xlink:href="#DejaVuSans-49"/>
       <use transform="translate(63.623047 0.765625)" xlink:href="#DejaVuSans-48"/>
       <use transform="translate(128.203125 39.046875)scale(0.7)" xlink:href="#DejaVuSans-48"/>
      </g>
     </g>
    </g>
    <g id="ytick_5">
     <g id="line2d_11">
      <g>
       <use style="stroke:#000000;stroke-width:0.8;" x="37.7" xlink:href="#mdc9fafb8e6" y="11.354442"/>
      </g>
     </g>
     <g id="text_12">
      <!-- $\mathdefault{10^{2}}$ -->
      <g transform="translate(13.1 15.153661)scale(0.1 -0.1)">
       <use transform="translate(0 0.765625)" xlink:href="#DejaVuSans-49"/>
       <use transform="translate(63.623047 0.765625)" xlink:href="#DejaVuSans-48"/>
       <use transform="translate(128.203125 39.046875)scale(0.7)" xlink:href="#DejaVuSans-50"/>
      </g>
     </g>
    </g>
   </g>
   <g id="line2d_12">
    <path clip-path="url(#p54178de652)" d="M 53.932727 19.296 
L 55.071866 23.112406 
L 57.350144 43.9463 
L 59.628421 64.351205 
L 65.324115 115.853119 
L 66.463254 126.736239 
L 67.602392 135.949211 
L 69.88067 150.532601 
L 71.019809 164.614747 
L 72.158947 162.69225 
L 73.298086 172.308954 
L 74.437225 156.820068 
L 75.576364 163.514132 
L 76.715502 171.800037 
L 77.854641 164.360332 
L 78.99378 184.792721 
L 80.132919 208.74904 
L 81.272057 162.962673 
L 82.411196 171.773667 
L 83.550335 164.743278 
L 84.689474 198.007806 
L 85.828612 170.09252 
L 86.967751 174.341874 
L 88.10689 166.978342 
L 89.246029 149.75389 
L 90.385167 203.701859 
L 91.524306 174.062736 
L 92.663445 165.808532 
L 93.802584 208.281711 
L 94.941722 180.282493 
L 96.080861 164.635945 
L 97.22 184.970546 
L 98.359139 164.321608 
L 99.498278 173.199485 
L 100.637416 183.750639 
L 101.776555 196.307102 
L 102.915694 162.631063 
L 104.054833 191.148458 
L 105.193971 163.150994 
L 106.33311 162.769335 
L 107.472249 166.951372 
L 109.750526 153.01343 
L 112.028804 179.012417 
L 113.167943 159.577627 
L 114.307081 163.486514 
L 115.44622 161.556989 
L 116.585359 164.264138 
L 117.724498 225.619316 
L 118.863636 146.443355 
L 121.141914 160.158966 
L 123.420191 179.99143 
L 124.55933 162.427807 
L 125.698469 185.350709 
L 126.837608 173.728295 
L 127.976746 172.560814 
L 129.115885 163.36722 
L 130.255024 205.852287 
L 131.394163 158.403945 
L 132.533301 160.277558 
L 133.67244 177.13055 
L 134.811579 188.117921 
L 135.950718 160.729909 
L 138.228995 173.077845 
L 139.368134 172.264957 
L 140.507273 174.658032 
L 141.646411 173.929412 
L 142.78555 164.398461 
L 143.924689 163.100367 
L 145.063828 186.448563 
L 146.202967 170.965627 
L 147.342105 189.549981 
L 148.481244 161.156029 
L 149.620383 166.078263 
L 150.759522 186.032175 
L 151.89866 178.443882 
L 153.037799 163.159511 
L 154.176938 164.656406 
L 155.316077 167.020312 
L 156.455215 177.21523 
L 157.594354 161.680204 
L 158.733493 163.44494 
L 159.872632 163.347673 
L 161.01177 168.678164 
L 162.150909 169.844941 
L 163.290048 205.420622 
L 164.429187 181.021343 
L 165.568325 154.029805 
L 166.707464 165.10397 
L 167.846603 179.247706 
L 168.985742 176.428633 
L 170.12488 180.195647 
L 171.264019 162.572422 
L 172.403158 161.676773 
L 173.542297 178.680614 
L 174.681435 175.449599 
L 175.820574 154.625287 
L 176.959713 186.880308 
L 178.098852 181.452888 
L 179.23799 175.433798 
L 180.377129 198.501127 
L 181.516268 192.118689 
L 182.655407 174.12974 
L 183.794545 175.768171 
L 184.933684 187.317073 
L 186.072823 209.934384 
L 187.211962 188.760439 
L 188.3511 174.31214 
L 189.490239 177.76828 
L 190.629378 172.885853 
L 191.768517 163.267844 
L 192.907656 179.638283 
L 194.046794 184.695596 
L 195.185933 167.370328 
L 196.325072 174.500378 
L 197.464211 179.103468 
L 198.603349 171.126985 
L 199.742488 168.567752 
L 200.881627 178.391506 
L 202.020766 175.710949 
L 203.159904 182.209103 
L 204.299043 162.951167 
L 205.438182 185.433649 
L 206.577321 261.216 
L 207.716459 171.146745 
L 208.855598 174.924205 
L 209.994737 170.112773 
L 211.133876 164.554755 
L 212.273014 186.404244 
L 213.412153 182.003362 
L 214.551292 169.997623 
L 215.690431 213.880973 
L 216.829569 159.613563 
L 217.968708 175.649488 
L 219.107847 179.510709 
L 220.246986 194.298912 
L 221.386124 194.085987 
L 222.525263 171.819092 
L 223.664402 171.459321 
L 224.803541 170.275737 
L 225.942679 159.7491 
L 227.081818 175.36252 
L 228.220957 180.3735 
L 229.360096 157.383742 
L 230.499234 190.469269 
L 231.638373 159.213204 
L 232.777512 163.919247 
L 233.916651 151.851587 
L 235.055789 160.710283 
L 236.194928 152.984698 
L 237.334067 154.151729 
L 238.473206 198.993306 
L 239.612344 170.757369 
L 240.751483 196.373397 
L 241.890622 165.361045 
L 243.029761 199.912708 
L 244.1689 172.542891 
L 246.447177 175.554399 
L 247.586316 149.756908 
L 248.725455 155.367278 
L 249.864593 198.690519 
L 251.003732 175.112601 
L 252.142871 183.350097 
L 253.28201 204.480201 
L 254.421148 209.284729 
L 255.560287 180.34476 
L 256.699426 200.475014 
L 257.838565 163.204221 
L 258.977703 200.556942 
L 260.116842 160.680549 
L 261.255981 165.944207 
L 262.39512 175.795889 
L 263.534258 177.28694 
L 264.673397 164.850649 
L 265.812536 166.17951 
L 266.951675 167.142874 
L 269.229952 183.575372 
L 270.369091 170.2704 
L 271.50823 172.792212 
L 272.647368 167.765078 
L 273.786507 165.249804 
L 274.925646 176.319501 
L 276.064785 161.52305 
L 277.203923 173.724287 
L 278.343062 164.408646 
L 279.482201 166.991671 
L 280.62134 163.17739 
L 281.760478 166.100371 
L 282.899617 158.315272 
L 284.038756 175.9311 
L 285.177895 170.973644 
L 286.317033 170.426672 
L 287.456172 178.23151 
L 288.595311 163.706546 
L 289.73445 172.609673 
L 290.873589 175.176381 
L 292.012727 188.871477 
L 293.151866 171.314581 
L 294.291005 178.364021 
L 295.430144 203.321966 
L 296.569282 170.515448 
L 297.708421 191.095527 
L 298.84756 151.317473 
L 299.986699 162.177778 
L 301.125837 165.636515 
L 302.264976 174.140185 
L 303.404115 178.23297 
L 304.543254 214.835048 
L 305.682392 170.671849 
L 306.821531 162.425154 
L 307.96067 161.533896 
L 309.099809 166.65647 
L 310.238947 163.641195 
L 311.378086 188.221865 
L 312.517225 171.659088 
L 313.656364 177.764643 
L 314.795502 190.634053 
L 315.934641 171.857616 
L 317.07378 168.274085 
L 318.212919 171.564309 
L 319.352057 165.887253 
L 320.491196 195.694425 
L 322.769474 152.467647 
L 323.908612 166.939061 
L 325.047751 190.768656 
L 326.18689 161.914363 
L 327.326029 164.587372 
L 328.465167 166.791312 
L 329.604306 163.608191 
L 330.743445 188.961139 
L 331.882584 189.495694 
L 333.021722 169.417541 
L 334.160861 178.292837 
L 335.3 158.049788 
L 336.439139 181.063481 
L 337.578278 170.935132 
L 338.717416 183.759436 
L 339.856555 175.16633 
L 340.995694 155.334267 
L 342.134833 170.867257 
L 343.273971 174.603996 
L 344.41311 184.306349 
L 346.691388 171.697466 
L 347.830526 195.436181 
L 348.969665 161.197941 
L 350.108804 152.480477 
L 351.247943 155.139179 
L 352.387081 163.824727 
L 354.665359 175.38895 
L 355.804498 197.307774 
L 356.943636 170.091086 
L 358.082775 171.786187 
L 359.221914 176.081603 
L 360.361053 182.518313 
L 361.500191 164.8323 
L 362.63933 169.031546 
L 363.778469 178.040276 
L 364.917608 163.93209 
L 366.056746 167.065523 
L 367.195885 167.924356 
L 368.335024 200.070808 
L 369.474163 167.293596 
L 370.613301 170.785702 
L 371.75244 170.463871 
L 372.891579 175.89927 
L 374.030718 176.247748 
L 375.169856 157.76815 
L 376.308995 188.015032 
L 376.313929 311.86825 
L 376.313929 311.86825 
" style="fill:none;stroke:#1f77b4;stroke-linecap:square;stroke-width:1.5;"/>
    <defs>
     <path d="M 0 3 
C 0.795609 3 1.55874 2.683901 2.12132 2.12132 
C 2.683901 1.55874 3 0.795609 3 0 
C 3 -0.795609 2.683901 -1.55874 2.12132 -2.12132 
C 1.55874 -2.683901 0.795609 -3 0 -3 
C -0.795609 -3 -1.55874 -2.683901 -2.12132 -2.12132 
C -2.683901 -1.55874 -3 -0.795609 -3 0 
C -3 0.795609 -2.683901 1.55874 -2.12132 2.12132 
C -1.55874 2.683901 -0.795609 3 0 3 
z
" id="md460a04081" style="stroke:#1f77b4;"/>
    </defs>
    <g clip-path="url(#p54178de652)">
     <use style="fill:#1f77b4;stroke:#1f77b4;" x="53.932727" xlink:href="#md460a04081" y="19.296"/>
     <use style="fill:#1f77b4;stroke:#1f77b4;" x="55.071866" xlink:href="#md460a04081" y="23.112406"/>
     <use style="fill:#1f77b4;stroke:#1f77b4;" x="56.211005" xlink:href="#md460a04081" y="33.691255"/>
     <use style="fill:#1f77b4;stroke:#1f77b4;" x="57.350144" xlink:href="#md460a04081" y="43.9463"/>
     <use style="fill:#1f77b4;stroke:#1f77b4;" x="58.489282" xlink:href="#md460a04081" y="53.789504"/>
     <use style="fill:#1f77b4;stroke:#1f77b4;" x="59.628421" xlink:href="#md460a04081" y="64.351205"/>
     <use style="fill:#1f77b4;stroke:#1f77b4;" x="60.76756" xlink:href="#md460a04081" y="74.500232"/>
     <use style="fill:#1f77b4;stroke:#1f77b4;" x="61.906699" xlink:href="#md460a04081" y="84.896524"/>
     <use style="fill:#1f77b4;stroke:#1f77b4;" x="63.045837" xlink:href="#md460a04081" y="95.236905"/>
     <use style="fill:#1f77b4;stroke:#1f77b4;" x="64.184976" xlink:href="#md460a04081" y="105.55136"/>
     <use style="fill:#1f77b4;stroke:#1f77b4;" x="65.324115" xlink:href="#md460a04081" y="115.853119"/>
     <use style="fill:#1f77b4;stroke:#1f77b4;" x="66.463254" xlink:href="#md460a04081" y="126.736239"/>
     <use style="fill:#1f77b4;stroke:#1f77b4;" x="67.602392" xlink:href="#md460a04081" y="135.949211"/>
     <use style="fill:#1f77b4;stroke:#1f77b4;" x="68.741531" xlink:href="#md460a04081" y="142.934418"/>
     <use style="fill:#1f77b4;stroke:#1f77b4;" x="69.88067" xlink:href="#md460a04081" y="150.532601"/>
     <use style="fill:#1f77b4;stroke:#1f77b4;" x="71.019809" xlink:href="#md460a04081" y="164.614747"/>
     <use style="fill:#1f77b4;stroke:#1f77b4;" x="72.158947" xlink:href="#md460a04081" y="162.69225"/>
     <use style="fill:#1f77b4;stroke:#1f77b4;" x="73.298086" xlink:href="#md460a04081" y="172.308954"/>
     <use style="fill:#1f77b4;stroke:#1f77b4;" x="74.437225" xlink:href="#md460a04081" y="156.820068"/>
     <use style="fill:#1f77b4;stroke:#1f77b4;" x="75.576364" xlink:href="#md460a04081" y="163.514132"/>
     <use style="fill:#1f77b4;stroke:#1f77b4;" x="76.715502" xlink:href="#md460a04081" y="171.800037"/>
     <use style="fill:#1f77b4;stroke:#1f77b4;" x="77.854641" xlink:href="#md460a04081" y="164.360332"/>
     <use style="fill:#1f77b4;stroke:#1f77b4;" x="78.99378" xlink:href="#md460a04081" y="184.792721"/>
     <use style="fill:#1f77b4;stroke:#1f77b4;" x="80.132919" xlink:href="#md460a04081" y="208.74904"/>
     <use style="fill:#1f77b4;stroke:#1f77b4;" x="81.272057" xlink:href="#md460a04081" y="162.962673"/>
     <use style="fill:#1f77b4;stroke:#1f77b4;" x="82.411196" xlink:href="#md460a04081" y="171.773667"/>
     <use style="fill:#1f77b4;stroke:#1f77b4;" x="83.550335" xlink:href="#md460a04081" y="164.743278"/>
     <use style="fill:#1f77b4;stroke:#1f77b4;" x="84.689474" xlink:href="#md460a04081" y="198.007806"/>
     <use style="fill:#1f77b4;stroke:#1f77b4;" x="85.828612" xlink:href="#md460a04081" y="170.09252"/>
     <use style="fill:#1f77b4;stroke:#1f77b4;" x="86.967751" xlink:href="#md460a04081" y="174.341874"/>
     <use style="fill:#1f77b4;stroke:#1f77b4;" x="88.10689" xlink:href="#md460a04081" y="166.978342"/>
     <use style="fill:#1f77b4;stroke:#1f77b4;" x="89.246029" xlink:href="#md460a04081" y="149.75389"/>
     <use style="fill:#1f77b4;stroke:#1f77b4;" x="90.385167" xlink:href="#md460a04081" y="203.701859"/>
     <use style="fill:#1f77b4;stroke:#1f77b4;" x="91.524306" xlink:href="#md460a04081" y="174.062736"/>
     <use style="fill:#1f77b4;stroke:#1f77b4;" x="92.663445" xlink:href="#md460a04081" y="165.808532"/>
     <use style="fill:#1f77b4;stroke:#1f77b4;" x="93.802584" xlink:href="#md460a04081" y="208.281711"/>
     <use style="fill:#1f77b4;stroke:#1f77b4;" x="94.941722" xlink:href="#md460a04081" y="180.282493"/>
     <use style="fill:#1f77b4;stroke:#1f77b4;" x="96.080861" xlink:href="#md460a04081" y="164.635945"/>
     <use style="fill:#1f77b4;stroke:#1f77b4;" x="97.22" xlink:href="#md460a04081" y="184.970546"/>
     <use style="fill:#1f77b4;stroke:#1f77b4;" x="98.359139" xlink:href="#md460a04081" y="164.321608"/>
     <use style="fill:#1f77b4;stroke:#1f77b4;" x="99.498278" xlink:href="#md460a04081" y="173.199485"/>
     <use style="fill:#1f77b4;stroke:#1f77b4;" x="100.637416" xlink:href="#md460a04081" y="183.750639"/>
     <use style="fill:#1f77b4;stroke:#1f77b4;" x="101.776555" xlink:href="#md460a04081" y="196.307102"/>
     <use style="fill:#1f77b4;stroke:#1f77b4;" x="102.915694" xlink:href="#md460a04081" y="162.631063"/>
     <use style="fill:#1f77b4;stroke:#1f77b4;" x="104.054833" xlink:href="#md460a04081" y="191.148458"/>
     <use style="fill:#1f77b4;stroke:#1f77b4;" x="105.193971" xlink:href="#md460a04081" y="163.150994"/>
     <use style="fill:#1f77b4;stroke:#1f77b4;" x="106.33311" xlink:href="#md460a04081" y="162.769335"/>
     <use style="fill:#1f77b4;stroke:#1f77b4;" x="107.472249" xlink:href="#md460a04081" y="166.951372"/>
     <use style="fill:#1f77b4;stroke:#1f77b4;" x="108.611388" xlink:href="#md460a04081" y="160.234247"/>
     <use style="fill:#1f77b4;stroke:#1f77b4;" x="109.750526" xlink:href="#md460a04081" y="153.01343"/>
     <use style="fill:#1f77b4;stroke:#1f77b4;" x="110.889665" xlink:href="#md460a04081" y="166.309758"/>
     <use style="fill:#1f77b4;stroke:#1f77b4;" x="112.028804" xlink:href="#md460a04081" y="179.012417"/>
     <use style="fill:#1f77b4;stroke:#1f77b4;" x="113.167943" xlink:href="#md460a04081" y="159.577627"/>
     <use style="fill:#1f77b4;stroke:#1f77b4;" x="114.307081" xlink:href="#md460a04081" y="163.486514"/>
     <use style="fill:#1f77b4;stroke:#1f77b4;" x="115.44622" xlink:href="#md460a04081" y="161.556989"/>
     <use style="fill:#1f77b4;stroke:#1f77b4;" x="116.585359" xlink:href="#md460a04081" y="164.264138"/>
     <use style="fill:#1f77b4;stroke:#1f77b4;" x="117.724498" xlink:href="#md460a04081" y="225.619316"/>
     <use style="fill:#1f77b4;stroke:#1f77b4;" x="118.863636" xlink:href="#md460a04081" y="146.443355"/>
     <use style="fill:#1f77b4;stroke:#1f77b4;" x="120.002775" xlink:href="#md460a04081" y="153.19333"/>
     <use style="fill:#1f77b4;stroke:#1f77b4;" x="121.141914" xlink:href="#md460a04081" y="160.158966"/>
     <use style="fill:#1f77b4;stroke:#1f77b4;" x="122.281053" xlink:href="#md460a04081" y="169.8699"/>
     <use style="fill:#1f77b4;stroke:#1f77b4;" x="123.420191" xlink:href="#md460a04081" y="179.99143"/>
     <use style="fill:#1f77b4;stroke:#1f77b4;" x="124.55933" xlink:href="#md460a04081" y="162.427807"/>
     <use style="fill:#1f77b4;stroke:#1f77b4;" x="125.698469" xlink:href="#md460a04081" y="185.350709"/>
     <use style="fill:#1f77b4;stroke:#1f77b4;" x="126.837608" xlink:href="#md460a04081" y="173.728295"/>
     <use style="fill:#1f77b4;stroke:#1f77b4;" x="127.976746" xlink:href="#md460a04081" y="172.560814"/>
     <use style="fill:#1f77b4;stroke:#1f77b4;" x="129.115885" xlink:href="#md460a04081" y="163.36722"/>
     <use style="fill:#1f77b4;stroke:#1f77b4;" x="130.255024" xlink:href="#md460a04081" y="205.852287"/>
     <use style="fill:#1f77b4;stroke:#1f77b4;" x="131.394163" xlink:href="#md460a04081" y="158.403945"/>
     <use style="fill:#1f77b4;stroke:#1f77b4;" x="132.533301" xlink:href="#md460a04081" y="160.277558"/>
     <use style="fill:#1f77b4;stroke:#1f77b4;" x="133.67244" xlink:href="#md460a04081" y="177.13055"/>
     <use style="fill:#1f77b4;stroke:#1f77b4;" x="134.811579" xlink:href="#md460a04081" y="188.117921"/>
     <use style="fill:#1f77b4;stroke:#1f77b4;" x="135.950718" xlink:href="#md460a04081" y="160.729909"/>
     <use style="fill:#1f77b4;stroke:#1f77b4;" x="137.089856" xlink:href="#md460a04081" y="167.089371"/>
     <use style="fill:#1f77b4;stroke:#1f77b4;" x="138.228995" xlink:href="#md460a04081" y="173.077845"/>
     <use style="fill:#1f77b4;stroke:#1f77b4;" x="139.368134" xlink:href="#md460a04081" y="172.264957"/>
     <use style="fill:#1f77b4;stroke:#1f77b4;" x="140.507273" xlink:href="#md460a04081" y="174.658032"/>
     <use style="fill:#1f77b4;stroke:#1f77b4;" x="141.646411" xlink:href="#md460a04081" y="173.929412"/>
     <use style="fill:#1f77b4;stroke:#1f77b4;" x="142.78555" xlink:href="#md460a04081" y="164.398461"/>
     <use style="fill:#1f77b4;stroke:#1f77b4;" x="143.924689" xlink:href="#md460a04081" y="163.100367"/>
     <use style="fill:#1f77b4;stroke:#1f77b4;" x="145.063828" xlink:href="#md460a04081" y="186.448563"/>
     <use style="fill:#1f77b4;stroke:#1f77b4;" x="146.202967" xlink:href="#md460a04081" y="170.965627"/>
     <use style="fill:#1f77b4;stroke:#1f77b4;" x="147.342105" xlink:href="#md460a04081" y="189.549981"/>
     <use style="fill:#1f77b4;stroke:#1f77b4;" x="148.481244" xlink:href="#md460a04081" y="161.156029"/>
     <use style="fill:#1f77b4;stroke:#1f77b4;" x="149.620383" xlink:href="#md460a04081" y="166.078263"/>
     <use style="fill:#1f77b4;stroke:#1f77b4;" x="150.759522" xlink:href="#md460a04081" y="186.032175"/>
     <use style="fill:#1f77b4;stroke:#1f77b4;" x="151.89866" xlink:href="#md460a04081" y="178.443882"/>
     <use style="fill:#1f77b4;stroke:#1f77b4;" x="153.037799" xlink:href="#md460a04081" y="163.159511"/>
     <use style="fill:#1f77b4;stroke:#1f77b4;" x="154.176938" xlink:href="#md460a04081" y="164.656406"/>
     <use style="fill:#1f77b4;stroke:#1f77b4;" x="155.316077" xlink:href="#md460a04081" y="167.020312"/>
     <use style="fill:#1f77b4;stroke:#1f77b4;" x="156.455215" xlink:href="#md460a04081" y="177.21523"/>
     <use style="fill:#1f77b4;stroke:#1f77b4;" x="157.594354" xlink:href="#md460a04081" y="161.680204"/>
     <use style="fill:#1f77b4;stroke:#1f77b4;" x="158.733493" xlink:href="#md460a04081" y="163.44494"/>
     <use style="fill:#1f77b4;stroke:#1f77b4;" x="159.872632" xlink:href="#md460a04081" y="163.347673"/>
     <use style="fill:#1f77b4;stroke:#1f77b4;" x="161.01177" xlink:href="#md460a04081" y="168.678164"/>
     <use style="fill:#1f77b4;stroke:#1f77b4;" x="162.150909" xlink:href="#md460a04081" y="169.844941"/>
     <use style="fill:#1f77b4;stroke:#1f77b4;" x="163.290048" xlink:href="#md460a04081" y="205.420622"/>
     <use style="fill:#1f77b4;stroke:#1f77b4;" x="164.429187" xlink:href="#md460a04081" y="181.021343"/>
     <use style="fill:#1f77b4;stroke:#1f77b4;" x="165.568325" xlink:href="#md460a04081" y="154.029805"/>
     <use style="fill:#1f77b4;stroke:#1f77b4;" x="166.707464" xlink:href="#md460a04081" y="165.10397"/>
     <use style="fill:#1f77b4;stroke:#1f77b4;" x="167.846603" xlink:href="#md460a04081" y="179.247706"/>
     <use style="fill:#1f77b4;stroke:#1f77b4;" x="168.985742" xlink:href="#md460a04081" y="176.428633"/>
     <use style="fill:#1f77b4;stroke:#1f77b4;" x="170.12488" xlink:href="#md460a04081" y="180.195647"/>
     <use style="fill:#1f77b4;stroke:#1f77b4;" x="171.264019" xlink:href="#md460a04081" y="162.572422"/>
     <use style="fill:#1f77b4;stroke:#1f77b4;" x="172.403158" xlink:href="#md460a04081" y="161.676773"/>
     <use style="fill:#1f77b4;stroke:#1f77b4;" x="173.542297" xlink:href="#md460a04081" y="178.680614"/>
     <use style="fill:#1f77b4;stroke:#1f77b4;" x="174.681435" xlink:href="#md460a04081" y="175.449599"/>
     <use style="fill:#1f77b4;stroke:#1f77b4;" x="175.820574" xlink:href="#md460a04081" y="154.625287"/>
     <use style="fill:#1f77b4;stroke:#1f77b4;" x="176.959713" xlink:href="#md460a04081" y="186.880308"/>
     <use style="fill:#1f77b4;stroke:#1f77b4;" x="178.098852" xlink:href="#md460a04081" y="181.452888"/>
     <use style="fill:#1f77b4;stroke:#1f77b4;" x="179.23799" xlink:href="#md460a04081" y="175.433798"/>
     <use style="fill:#1f77b4;stroke:#1f77b4;" x="180.377129" xlink:href="#md460a04081" y="198.501127"/>
     <use style="fill:#1f77b4;stroke:#1f77b4;" x="181.516268" xlink:href="#md460a04081" y="192.118689"/>
     <use style="fill:#1f77b4;stroke:#1f77b4;" x="182.655407" xlink:href="#md460a04081" y="174.12974"/>
     <use style="fill:#1f77b4;stroke:#1f77b4;" x="183.794545" xlink:href="#md460a04081" y="175.768171"/>
     <use style="fill:#1f77b4;stroke:#1f77b4;" x="184.933684" xlink:href="#md460a04081" y="187.317073"/>
     <use style="fill:#1f77b4;stroke:#1f77b4;" x="186.072823" xlink:href="#md460a04081" y="209.934384"/>
     <use style="fill:#1f77b4;stroke:#1f77b4;" x="187.211962" xlink:href="#md460a04081" y="188.760439"/>
     <use style="fill:#1f77b4;stroke:#1f77b4;" x="188.3511" xlink:href="#md460a04081" y="174.31214"/>
     <use style="fill:#1f77b4;stroke:#1f77b4;" x="189.490239" xlink:href="#md460a04081" y="177.76828"/>
     <use style="fill:#1f77b4;stroke:#1f77b4;" x="190.629378" xlink:href="#md460a04081" y="172.885853"/>
     <use style="fill:#1f77b4;stroke:#1f77b4;" x="191.768517" xlink:href="#md460a04081" y="163.267844"/>
     <use style="fill:#1f77b4;stroke:#1f77b4;" x="192.907656" xlink:href="#md460a04081" y="179.638283"/>
     <use style="fill:#1f77b4;stroke:#1f77b4;" x="194.046794" xlink:href="#md460a04081" y="184.695596"/>
     <use style="fill:#1f77b4;stroke:#1f77b4;" x="195.185933" xlink:href="#md460a04081" y="167.370328"/>
     <use style="fill:#1f77b4;stroke:#1f77b4;" x="196.325072" xlink:href="#md460a04081" y="174.500378"/>
     <use style="fill:#1f77b4;stroke:#1f77b4;" x="197.464211" xlink:href="#md460a04081" y="179.103468"/>
     <use style="fill:#1f77b4;stroke:#1f77b4;" x="198.603349" xlink:href="#md460a04081" y="171.126985"/>
     <use style="fill:#1f77b4;stroke:#1f77b4;" x="199.742488" xlink:href="#md460a04081" y="168.567752"/>
     <use style="fill:#1f77b4;stroke:#1f77b4;" x="200.881627" xlink:href="#md460a04081" y="178.391506"/>
     <use style="fill:#1f77b4;stroke:#1f77b4;" x="202.020766" xlink:href="#md460a04081" y="175.710949"/>
     <use style="fill:#1f77b4;stroke:#1f77b4;" x="203.159904" xlink:href="#md460a04081" y="182.209103"/>
     <use style="fill:#1f77b4;stroke:#1f77b4;" x="204.299043" xlink:href="#md460a04081" y="162.951167"/>
     <use style="fill:#1f77b4;stroke:#1f77b4;" x="205.438182" xlink:href="#md460a04081" y="185.433649"/>
     <use style="fill:#1f77b4;stroke:#1f77b4;" x="206.577321" xlink:href="#md460a04081" y="261.216"/>
     <use style="fill:#1f77b4;stroke:#1f77b4;" x="207.716459" xlink:href="#md460a04081" y="171.146745"/>
     <use style="fill:#1f77b4;stroke:#1f77b4;" x="208.855598" xlink:href="#md460a04081" y="174.924205"/>
     <use style="fill:#1f77b4;stroke:#1f77b4;" x="209.994737" xlink:href="#md460a04081" y="170.112773"/>
     <use style="fill:#1f77b4;stroke:#1f77b4;" x="211.133876" xlink:href="#md460a04081" y="164.554755"/>
     <use style="fill:#1f77b4;stroke:#1f77b4;" x="212.273014" xlink:href="#md460a04081" y="186.404244"/>
     <use style="fill:#1f77b4;stroke:#1f77b4;" x="213.412153" xlink:href="#md460a04081" y="182.003362"/>
     <use style="fill:#1f77b4;stroke:#1f77b4;" x="214.551292" xlink:href="#md460a04081" y="169.997623"/>
     <use style="fill:#1f77b4;stroke:#1f77b4;" x="215.690431" xlink:href="#md460a04081" y="213.880973"/>
     <use style="fill:#1f77b4;stroke:#1f77b4;" x="216.829569" xlink:href="#md460a04081" y="159.613563"/>
     <use style="fill:#1f77b4;stroke:#1f77b4;" x="217.968708" xlink:href="#md460a04081" y="175.649488"/>
     <use style="fill:#1f77b4;stroke:#1f77b4;" x="219.107847" xlink:href="#md460a04081" y="179.510709"/>
     <use style="fill:#1f77b4;stroke:#1f77b4;" x="220.246986" xlink:href="#md460a04081" y="194.298912"/>
     <use style="fill:#1f77b4;stroke:#1f77b4;" x="221.386124" xlink:href="#md460a04081" y="194.085987"/>
     <use style="fill:#1f77b4;stroke:#1f77b4;" x="222.525263" xlink:href="#md460a04081" y="171.819092"/>
     <use style="fill:#1f77b4;stroke:#1f77b4;" x="223.664402" xlink:href="#md460a04081" y="171.459321"/>
     <use style="fill:#1f77b4;stroke:#1f77b4;" x="224.803541" xlink:href="#md460a04081" y="170.275737"/>
     <use style="fill:#1f77b4;stroke:#1f77b4;" x="225.942679" xlink:href="#md460a04081" y="159.7491"/>
     <use style="fill:#1f77b4;stroke:#1f77b4;" x="227.081818" xlink:href="#md460a04081" y="175.36252"/>
     <use style="fill:#1f77b4;stroke:#1f77b4;" x="228.220957" xlink:href="#md460a04081" y="180.3735"/>
     <use style="fill:#1f77b4;stroke:#1f77b4;" x="229.360096" xlink:href="#md460a04081" y="157.383742"/>
     <use style="fill:#1f77b4;stroke:#1f77b4;" x="230.499234" xlink:href="#md460a04081" y="190.469269"/>
     <use style="fill:#1f77b4;stroke:#1f77b4;" x="231.638373" xlink:href="#md460a04081" y="159.213204"/>
     <use style="fill:#1f77b4;stroke:#1f77b4;" x="232.777512" xlink:href="#md460a04081" y="163.919247"/>
     <use style="fill:#1f77b4;stroke:#1f77b4;" x="233.916651" xlink:href="#md460a04081" y="151.851587"/>
     <use style="fill:#1f77b4;stroke:#1f77b4;" x="235.055789" xlink:href="#md460a04081" y="160.710283"/>
     <use style="fill:#1f77b4;stroke:#1f77b4;" x="236.194928" xlink:href="#md460a04081" y="152.984698"/>
     <use style="fill:#1f77b4;stroke:#1f77b4;" x="237.334067" xlink:href="#md460a04081" y="154.151729"/>
     <use style="fill:#1f77b4;stroke:#1f77b4;" x="238.473206" xlink:href="#md460a04081" y="198.993306"/>
     <use style="fill:#1f77b4;stroke:#1f77b4;" x="239.612344" xlink:href="#md460a04081" y="170.757369"/>
     <use style="fill:#1f77b4;stroke:#1f77b4;" x="240.751483" xlink:href="#md460a04081" y="196.373397"/>
     <use style="fill:#1f77b4;stroke:#1f77b4;" x="241.890622" xlink:href="#md460a04081" y="165.361045"/>
     <use style="fill:#1f77b4;stroke:#1f77b4;" x="243.029761" xlink:href="#md460a04081" y="199.912708"/>
     <use style="fill:#1f77b4;stroke:#1f77b4;" x="244.1689" xlink:href="#md460a04081" y="172.542891"/>
     <use style="fill:#1f77b4;stroke:#1f77b4;" x="245.308038" xlink:href="#md460a04081" y="173.993012"/>
     <use style="fill:#1f77b4;stroke:#1f77b4;" x="246.447177" xlink:href="#md460a04081" y="175.554399"/>
     <use style="fill:#1f77b4;stroke:#1f77b4;" x="247.586316" xlink:href="#md460a04081" y="149.756908"/>
     <use style="fill:#1f77b4;stroke:#1f77b4;" x="248.725455" xlink:href="#md460a04081" y="155.367278"/>
     <use style="fill:#1f77b4;stroke:#1f77b4;" x="249.864593" xlink:href="#md460a04081" y="198.690519"/>
     <use style="fill:#1f77b4;stroke:#1f77b4;" x="251.003732" xlink:href="#md460a04081" y="175.112601"/>
     <use style="fill:#1f77b4;stroke:#1f77b4;" x="252.142871" xlink:href="#md460a04081" y="183.350097"/>
     <use style="fill:#1f77b4;stroke:#1f77b4;" x="253.28201" xlink:href="#md460a04081" y="204.480201"/>
     <use style="fill:#1f77b4;stroke:#1f77b4;" x="254.421148" xlink:href="#md460a04081" y="209.284729"/>
     <use style="fill:#1f77b4;stroke:#1f77b4;" x="255.560287" xlink:href="#md460a04081" y="180.34476"/>
     <use style="fill:#1f77b4;stroke:#1f77b4;" x="256.699426" xlink:href="#md460a04081" y="200.475014"/>
     <use style="fill:#1f77b4;stroke:#1f77b4;" x="257.838565" xlink:href="#md460a04081" y="163.204221"/>
     <use style="fill:#1f77b4;stroke:#1f77b4;" x="258.977703" xlink:href="#md460a04081" y="200.556942"/>
     <use style="fill:#1f77b4;stroke:#1f77b4;" x="260.116842" xlink:href="#md460a04081" y="160.680549"/>
     <use style="fill:#1f77b4;stroke:#1f77b4;" x="261.255981" xlink:href="#md460a04081" y="165.944207"/>
     <use style="fill:#1f77b4;stroke:#1f77b4;" x="262.39512" xlink:href="#md460a04081" y="175.795889"/>
     <use style="fill:#1f77b4;stroke:#1f77b4;" x="263.534258" xlink:href="#md460a04081" y="177.28694"/>
     <use style="fill:#1f77b4;stroke:#1f77b4;" x="264.673397" xlink:href="#md460a04081" y="164.850649"/>
     <use style="fill:#1f77b4;stroke:#1f77b4;" x="265.812536" xlink:href="#md460a04081" y="166.17951"/>
     <use style="fill:#1f77b4;stroke:#1f77b4;" x="266.951675" xlink:href="#md460a04081" y="167.142874"/>
     <use style="fill:#1f77b4;stroke:#1f77b4;" x="268.090813" xlink:href="#md460a04081" y="175.302273"/>
     <use style="fill:#1f77b4;stroke:#1f77b4;" x="269.229952" xlink:href="#md460a04081" y="183.575372"/>
     <use style="fill:#1f77b4;stroke:#1f77b4;" x="270.369091" xlink:href="#md460a04081" y="170.2704"/>
     <use style="fill:#1f77b4;stroke:#1f77b4;" x="271.50823" xlink:href="#md460a04081" y="172.792212"/>
     <use style="fill:#1f77b4;stroke:#1f77b4;" x="272.647368" xlink:href="#md460a04081" y="167.765078"/>
     <use style="fill:#1f77b4;stroke:#1f77b4;" x="273.786507" xlink:href="#md460a04081" y="165.249804"/>
     <use style="fill:#1f77b4;stroke:#1f77b4;" x="274.925646" xlink:href="#md460a04081" y="176.319501"/>
     <use style="fill:#1f77b4;stroke:#1f77b4;" x="276.064785" xlink:href="#md460a04081" y="161.52305"/>
     <use style="fill:#1f77b4;stroke:#1f77b4;" x="277.203923" xlink:href="#md460a04081" y="173.724287"/>
     <use style="fill:#1f77b4;stroke:#1f77b4;" x="278.343062" xlink:href="#md460a04081" y="164.408646"/>
     <use style="fill:#1f77b4;stroke:#1f77b4;" x="279.482201" xlink:href="#md460a04081" y="166.991671"/>
     <use style="fill:#1f77b4;stroke:#1f77b4;" x="280.62134" xlink:href="#md460a04081" y="163.17739"/>
     <use style="fill:#1f77b4;stroke:#1f77b4;" x="281.760478" xlink:href="#md460a04081" y="166.100371"/>
     <use style="fill:#1f77b4;stroke:#1f77b4;" x="282.899617" xlink:href="#md460a04081" y="158.315272"/>
     <use style="fill:#1f77b4;stroke:#1f77b4;" x="284.038756" xlink:href="#md460a04081" y="175.9311"/>
     <use style="fill:#1f77b4;stroke:#1f77b4;" x="285.177895" xlink:href="#md460a04081" y="170.973644"/>
     <use style="fill:#1f77b4;stroke:#1f77b4;" x="286.317033" xlink:href="#md460a04081" y="170.426672"/>
     <use style="fill:#1f77b4;stroke:#1f77b4;" x="287.456172" xlink:href="#md460a04081" y="178.23151"/>
     <use style="fill:#1f77b4;stroke:#1f77b4;" x="288.595311" xlink:href="#md460a04081" y="163.706546"/>
     <use style="fill:#1f77b4;stroke:#1f77b4;" x="289.73445" xlink:href="#md460a04081" y="172.609673"/>
     <use style="fill:#1f77b4;stroke:#1f77b4;" x="290.873589" xlink:href="#md460a04081" y="175.176381"/>
     <use style="fill:#1f77b4;stroke:#1f77b4;" x="292.012727" xlink:href="#md460a04081" y="188.871477"/>
     <use style="fill:#1f77b4;stroke:#1f77b4;" x="293.151866" xlink:href="#md460a04081" y="171.314581"/>
     <use style="fill:#1f77b4;stroke:#1f77b4;" x="294.291005" xlink:href="#md460a04081" y="178.364021"/>
     <use style="fill:#1f77b4;stroke:#1f77b4;" x="295.430144" xlink:href="#md460a04081" y="203.321966"/>
     <use style="fill:#1f77b4;stroke:#1f77b4;" x="296.569282" xlink:href="#md460a04081" y="170.515448"/>
     <use style="fill:#1f77b4;stroke:#1f77b4;" x="297.708421" xlink:href="#md460a04081" y="191.095527"/>
     <use style="fill:#1f77b4;stroke:#1f77b4;" x="298.84756" xlink:href="#md460a04081" y="151.317473"/>
     <use style="fill:#1f77b4;stroke:#1f77b4;" x="299.986699" xlink:href="#md460a04081" y="162.177778"/>
     <use style="fill:#1f77b4;stroke:#1f77b4;" x="301.125837" xlink:href="#md460a04081" y="165.636515"/>
     <use style="fill:#1f77b4;stroke:#1f77b4;" x="302.264976" xlink:href="#md460a04081" y="174.140185"/>
     <use style="fill:#1f77b4;stroke:#1f77b4;" x="303.404115" xlink:href="#md460a04081" y="178.23297"/>
     <use style="fill:#1f77b4;stroke:#1f77b4;" x="304.543254" xlink:href="#md460a04081" y="214.835048"/>
     <use style="fill:#1f77b4;stroke:#1f77b4;" x="305.682392" xlink:href="#md460a04081" y="170.671849"/>
     <use style="fill:#1f77b4;stroke:#1f77b4;" x="306.821531" xlink:href="#md460a04081" y="162.425154"/>
     <use style="fill:#1f77b4;stroke:#1f77b4;" x="307.96067" xlink:href="#md460a04081" y="161.533896"/>
     <use style="fill:#1f77b4;stroke:#1f77b4;" x="309.099809" xlink:href="#md460a04081" y="166.65647"/>
     <use style="fill:#1f77b4;stroke:#1f77b4;" x="310.238947" xlink:href="#md460a04081" y="163.641195"/>
     <use style="fill:#1f77b4;stroke:#1f77b4;" x="311.378086" xlink:href="#md460a04081" y="188.221865"/>
     <use style="fill:#1f77b4;stroke:#1f77b4;" x="312.517225" xlink:href="#md460a04081" y="171.659088"/>
     <use style="fill:#1f77b4;stroke:#1f77b4;" x="313.656364" xlink:href="#md460a04081" y="177.764643"/>
     <use style="fill:#1f77b4;stroke:#1f77b4;" x="314.795502" xlink:href="#md460a04081" y="190.634053"/>
     <use style="fill:#1f77b4;stroke:#1f77b4;" x="315.934641" xlink:href="#md460a04081" y="171.857616"/>
     <use style="fill:#1f77b4;stroke:#1f77b4;" x="317.07378" xlink:href="#md460a04081" y="168.274085"/>
     <use style="fill:#1f77b4;stroke:#1f77b4;" x="318.212919" xlink:href="#md460a04081" y="171.564309"/>
     <use style="fill:#1f77b4;stroke:#1f77b4;" x="319.352057" xlink:href="#md460a04081" y="165.887253"/>
     <use style="fill:#1f77b4;stroke:#1f77b4;" x="320.491196" xlink:href="#md460a04081" y="195.694425"/>
     <use style="fill:#1f77b4;stroke:#1f77b4;" x="321.630335" xlink:href="#md460a04081" y="173.212218"/>
     <use style="fill:#1f77b4;stroke:#1f77b4;" x="322.769474" xlink:href="#md460a04081" y="152.467647"/>
     <use style="fill:#1f77b4;stroke:#1f77b4;" x="323.908612" xlink:href="#md460a04081" y="166.939061"/>
     <use style="fill:#1f77b4;stroke:#1f77b4;" x="325.047751" xlink:href="#md460a04081" y="190.768656"/>
     <use style="fill:#1f77b4;stroke:#1f77b4;" x="326.18689" xlink:href="#md460a04081" y="161.914363"/>
     <use style="fill:#1f77b4;stroke:#1f77b4;" x="327.326029" xlink:href="#md460a04081" y="164.587372"/>
     <use style="fill:#1f77b4;stroke:#1f77b4;" x="328.465167" xlink:href="#md460a04081" y="166.791312"/>
     <use style="fill:#1f77b4;stroke:#1f77b4;" x="329.604306" xlink:href="#md460a04081" y="163.608191"/>
     <use style="fill:#1f77b4;stroke:#1f77b4;" x="330.743445" xlink:href="#md460a04081" y="188.961139"/>
     <use style="fill:#1f77b4;stroke:#1f77b4;" x="331.882584" xlink:href="#md460a04081" y="189.495694"/>
     <use style="fill:#1f77b4;stroke:#1f77b4;" x="333.021722" xlink:href="#md460a04081" y="169.417541"/>
     <use style="fill:#1f77b4;stroke:#1f77b4;" x="334.160861" xlink:href="#md460a04081" y="178.292837"/>
     <use style="fill:#1f77b4;stroke:#1f77b4;" x="335.3" xlink:href="#md460a04081" y="158.049788"/>
     <use style="fill:#1f77b4;stroke:#1f77b4;" x="336.439139" xlink:href="#md460a04081" y="181.063481"/>
     <use style="fill:#1f77b4;stroke:#1f77b4;" x="337.578278" xlink:href="#md460a04081" y="170.935132"/>
     <use style="fill:#1f77b4;stroke:#1f77b4;" x="338.717416" xlink:href="#md460a04081" y="183.759436"/>
     <use style="fill:#1f77b4;stroke:#1f77b4;" x="339.856555" xlink:href="#md460a04081" y="175.16633"/>
     <use style="fill:#1f77b4;stroke:#1f77b4;" x="340.995694" xlink:href="#md460a04081" y="155.334267"/>
     <use style="fill:#1f77b4;stroke:#1f77b4;" x="342.134833" xlink:href="#md460a04081" y="170.867257"/>
     <use style="fill:#1f77b4;stroke:#1f77b4;" x="343.273971" xlink:href="#md460a04081" y="174.603996"/>
     <use style="fill:#1f77b4;stroke:#1f77b4;" x="344.41311" xlink:href="#md460a04081" y="184.306349"/>
     <use style="fill:#1f77b4;stroke:#1f77b4;" x="345.552249" xlink:href="#md460a04081" y="178.153482"/>
     <use style="fill:#1f77b4;stroke:#1f77b4;" x="346.691388" xlink:href="#md460a04081" y="171.697466"/>
     <use style="fill:#1f77b4;stroke:#1f77b4;" x="347.830526" xlink:href="#md460a04081" y="195.436181"/>
     <use style="fill:#1f77b4;stroke:#1f77b4;" x="348.969665" xlink:href="#md460a04081" y="161.197941"/>
     <use style="fill:#1f77b4;stroke:#1f77b4;" x="350.108804" xlink:href="#md460a04081" y="152.480477"/>
     <use style="fill:#1f77b4;stroke:#1f77b4;" x="351.247943" xlink:href="#md460a04081" y="155.139179"/>
     <use style="fill:#1f77b4;stroke:#1f77b4;" x="352.387081" xlink:href="#md460a04081" y="163.824727"/>
     <use style="fill:#1f77b4;stroke:#1f77b4;" x="353.52622" xlink:href="#md460a04081" y="169.338716"/>
     <use style="fill:#1f77b4;stroke:#1f77b4;" x="354.665359" xlink:href="#md460a04081" y="175.38895"/>
     <use style="fill:#1f77b4;stroke:#1f77b4;" x="355.804498" xlink:href="#md460a04081" y="197.307774"/>
     <use style="fill:#1f77b4;stroke:#1f77b4;" x="356.943636" xlink:href="#md460a04081" y="170.091086"/>
     <use style="fill:#1f77b4;stroke:#1f77b4;" x="358.082775" xlink:href="#md460a04081" y="171.786187"/>
     <use style="fill:#1f77b4;stroke:#1f77b4;" x="359.221914" xlink:href="#md460a04081" y="176.081603"/>
     <use style="fill:#1f77b4;stroke:#1f77b4;" x="360.361053" xlink:href="#md460a04081" y="182.518313"/>
     <use style="fill:#1f77b4;stroke:#1f77b4;" x="361.500191" xlink:href="#md460a04081" y="164.8323"/>
     <use style="fill:#1f77b4;stroke:#1f77b4;" x="362.63933" xlink:href="#md460a04081" y="169.031546"/>
     <use style="fill:#1f77b4;stroke:#1f77b4;" x="363.778469" xlink:href="#md460a04081" y="178.040276"/>
     <use style="fill:#1f77b4;stroke:#1f77b4;" x="364.917608" xlink:href="#md460a04081" y="163.93209"/>
     <use style="fill:#1f77b4;stroke:#1f77b4;" x="366.056746" xlink:href="#md460a04081" y="167.065523"/>
     <use style="fill:#1f77b4;stroke:#1f77b4;" x="367.195885" xlink:href="#md460a04081" y="167.924356"/>
     <use style="fill:#1f77b4;stroke:#1f77b4;" x="368.335024" xlink:href="#md460a04081" y="200.070808"/>
     <use style="fill:#1f77b4;stroke:#1f77b4;" x="369.474163" xlink:href="#md460a04081" y="167.293596"/>
     <use style="fill:#1f77b4;stroke:#1f77b4;" x="370.613301" xlink:href="#md460a04081" y="170.785702"/>
     <use style="fill:#1f77b4;stroke:#1f77b4;" x="371.75244" xlink:href="#md460a04081" y="170.463871"/>
     <use style="fill:#1f77b4;stroke:#1f77b4;" x="372.891579" xlink:href="#md460a04081" y="175.89927"/>
     <use style="fill:#1f77b4;stroke:#1f77b4;" x="374.030718" xlink:href="#md460a04081" y="176.247748"/>
     <use style="fill:#1f77b4;stroke:#1f77b4;" x="375.169856" xlink:href="#md460a04081" y="157.76815"/>
     <use style="fill:#1f77b4;stroke:#1f77b4;" x="376.308995" xlink:href="#md460a04081" y="188.015032"/>
     <use style="fill:#1f77b4;stroke:#1f77b4;" x="377.193122" xlink:href="#md460a04081" y="22383.514"/>
    </g>
   </g>
   <g id="line2d_13">
    <path clip-path="url(#p54178de652)" d="M 55.071866 23.112406 
L 56.211005 33.691255 
L 57.350144 43.9463 
L 58.489282 53.789504 
L 59.628421 64.351205 
L 60.76756 74.500232 
L 61.906699 84.896524 
L 63.045837 95.236905 
L 64.184976 105.55136 
L 65.324115 115.853119 
L 66.463254 126.736239 
L 67.602392 135.949211 
" style="fill:none;stroke:#2ca02c;stroke-dasharray:1.5,2.475;stroke-dashoffset:0;stroke-width:1.5;"/>
    <defs>
     <path d="M -3 3 
L 3 -3 
M -3 -3 
L 3 3 
" id="m932f018231" style="stroke:#2ca02c;"/>
    </defs>
    <g clip-path="url(#p54178de652)">
     <use style="fill:#2ca02c;stroke:#2ca02c;" x="55.071866" xlink:href="#m932f018231" y="23.112406"/>
     <use style="fill:#2ca02c;stroke:#2ca02c;" x="56.211005" xlink:href="#m932f018231" y="33.691255"/>
     <use style="fill:#2ca02c;stroke:#2ca02c;" x="57.350144" xlink:href="#m932f018231" y="43.9463"/>
     <use style="fill:#2ca02c;stroke:#2ca02c;" x="58.489282" xlink:href="#m932f018231" y="53.789504"/>
     <use style="fill:#2ca02c;stroke:#2ca02c;" x="59.628421" xlink:href="#m932f018231" y="64.351205"/>
     <use style="fill:#2ca02c;stroke:#2ca02c;" x="60.76756" xlink:href="#m932f018231" y="74.500232"/>
     <use style="fill:#2ca02c;stroke:#2ca02c;" x="61.906699" xlink:href="#m932f018231" y="84.896524"/>
     <use style="fill:#2ca02c;stroke:#2ca02c;" x="63.045837" xlink:href="#m932f018231" y="95.236905"/>
     <use style="fill:#2ca02c;stroke:#2ca02c;" x="64.184976" xlink:href="#m932f018231" y="105.55136"/>
     <use style="fill:#2ca02c;stroke:#2ca02c;" x="65.324115" xlink:href="#m932f018231" y="115.853119"/>
     <use style="fill:#2ca02c;stroke:#2ca02c;" x="66.463254" xlink:href="#m932f018231" y="126.736239"/>
     <use style="fill:#2ca02c;stroke:#2ca02c;" x="67.602392" xlink:href="#m932f018231" y="135.949211"/>
    </g>
   </g>
   <g id="line2d_14">
    <path clip-path="url(#p54178de652)" d="M 55.071866 79.080817 
L 80.834539 311.86825 
L 80.834539 311.86825 
" style="fill:none;stroke:#000000;stroke-dasharray:5.55,2.4;stroke-dashoffset:0;stroke-width:1.5;"/>
   </g>
   <g id="patch_3">
    <path d="M 37.7 273.312 
L 37.7 7.2 
" style="fill:none;stroke:#000000;stroke-linecap:square;stroke-linejoin:miter;stroke-width:0.8;"/>
   </g>
   <g id="patch_4">
    <path d="M 394.82 273.312 
L 394.82 7.2 
" style="fill:none;stroke:#000000;stroke-linecap:square;stroke-linejoin:miter;stroke-width:0.8;"/>
   </g>
   <g id="patch_5">
    <path d="M 37.7 273.312 
L 394.82 273.312 
" style="fill:none;stroke:#000000;stroke-linecap:square;stroke-linejoin:miter;stroke-width:0.8;"/>
   </g>
   <g id="patch_6">
    <path d="M 37.7 7.2 
L 394.82 7.2 
" style="fill:none;stroke:#000000;stroke-linecap:square;stroke-linejoin:miter;stroke-width:0.8;"/>
   </g>
   <g id="legend_1">
    <g id="patch_7">
     <path d="M 287.02 59.25625 
L 387.82 59.25625 
Q 389.82 59.25625 389.82 57.25625 
L 389.82 14.2 
Q 389.82 12.2 387.82 12.2 
L 287.02 12.2 
Q 285.02 12.2 285.02 14.2 
L 285.02 57.25625 
Q 285.02 59.25625 287.02 59.25625 
z
" style="fill:#ffffff;opacity:0.8;"/>
    </g>
    <g id="line2d_15">
     <path d="M 289.02 20.298437 
L 309.02 20.298437 
" style="fill:none;stroke:#1f77b4;stroke-linecap:square;stroke-width:1.5;"/>
    </g>
    <g id="line2d_16">
     <g>
      <use style="fill:#1f77b4;stroke:#1f77b4;" x="299.02" xlink:href="#md460a04081" y="20.298437"/>
     </g>
    </g>
    <g id="text_13">
     <!-- APD$_n$ - APD$_\infty$ -->
     <defs>
      <path d="M 34.1875 63.1875 
L 20.796875 26.90625 
L 47.609375 26.90625 
z
M 28.609375 72.90625 
L 39.796875 72.90625 
L 67.578125 0 
L 57.328125 0 
L 50.6875 18.703125 
L 17.828125 18.703125 
L 11.1875 0 
L 0.78125 0 
z
" id="DejaVuSans-65"/>
      <path d="M 19.671875 64.796875 
L 19.671875 37.40625 
L 32.078125 37.40625 
Q 38.96875 37.40625 42.71875 40.96875 
Q 46.484375 44.53125 46.484375 51.125 
Q 46.484375 57.671875 42.71875 61.234375 
Q 38.96875 64.796875 32.078125 64.796875 
z
M 9.8125 72.90625 
L 32.078125 72.90625 
Q 44.34375 72.90625 50.609375 67.359375 
Q 56.890625 61.8125 56.890625 51.125 
Q 56.890625 40.328125 50.609375 34.8125 
Q 44.34375 29.296875 32.078125 29.296875 
L 19.671875 29.296875 
L 19.671875 0 
L 9.8125 0 
z
" id="DejaVuSans-80"/>
      <path d="M 19.671875 64.796875 
L 19.671875 8.109375 
L 31.59375 8.109375 
Q 46.6875 8.109375 53.6875 14.9375 
Q 60.6875 21.78125 60.6875 36.53125 
Q 60.6875 51.171875 53.6875 57.984375 
Q 46.6875 64.796875 31.59375 64.796875 
z
M 9.8125 72.90625 
L 30.078125 72.90625 
Q 51.265625 72.90625 61.171875 64.09375 
Q 71.09375 55.28125 71.09375 36.53125 
Q 71.09375 17.671875 61.125 8.828125 
Q 51.171875 0 30.078125 0 
L 9.8125 0 
z
" id="DejaVuSans-68"/>
      <path d="M 55.71875 33.015625 
L 49.3125 0 
L 40.28125 0 
L 46.6875 32.671875 
Q 47.125 34.96875 47.359375 36.71875 
Q 47.609375 38.484375 47.609375 39.5 
Q 47.609375 43.609375 45.015625 45.890625 
Q 42.4375 48.1875 37.796875 48.1875 
Q 30.5625 48.1875 25.34375 43.375 
Q 20.125 38.578125 18.5 30.328125 
L 12.5 0 
L 3.515625 0 
L 14.109375 54.6875 
L 23.09375 54.6875 
L 21.296875 46.09375 
Q 25.046875 50.828125 30.3125 53.40625 
Q 35.59375 56 41.40625 56 
Q 48.640625 56 52.609375 52.09375 
Q 56.59375 48.1875 56.59375 41.109375 
Q 56.59375 39.359375 56.375 37.359375 
Q 56.15625 35.359375 55.71875 33.015625 
z
" id="DejaVuSans-Oblique-110"/>
      <path id="DejaVuSans-32"/>
      <path d="M 4.890625 31.390625 
L 31.203125 31.390625 
L 31.203125 23.390625 
L 4.890625 23.390625 
z
" id="DejaVuSans-45"/>
      <path d="M 45.5625 17.046875 
Q 44.046875 18.796875 41.65625 22.90625 
Q 38.375 17.046875 35.5 14.453125 
Q 31.890625 11.328125 26.265625 11.328125 
Q 19.671875 11.328125 15.328125 16.265625 
Q 10.75 21.4375 10.75 29.984375 
Q 10.75 38.1875 15.328125 43.75 
Q 19.4375 48.6875 26.375 48.6875 
Q 29.9375 48.6875 32.5625 47.21875 
Q 35.640625 45.609375 37.75 42.828125 
Q 39.703125 40.328125 41.65625 36.96875 
Q 44.921875 42.828125 47.796875 45.40625 
Q 51.421875 48.53125 57.03125 48.53125 
Q 63.625 48.53125 67.96875 43.609375 
Q 72.5625 38.421875 72.5625 29.890625 
Q 72.5625 21.6875 67.96875 16.109375 
Q 63.875 11.1875 56.9375 11.1875 
Q 53.375 11.1875 50.734375 12.640625 
Q 48.09375 13.96875 45.5625 17.046875 
z
M 25.734375 17.71875 
Q 33.796875 17.71875 38.625 29.4375 
Q 32.421875 42.234375 25.734375 42.234375 
Q 20.84375 42.234375 18.359375 38.71875 
Q 15.671875 34.96875 15.671875 29.984375 
Q 15.671875 24.515625 18.359375 21.140625 
Q 21.09375 17.71875 25.734375 17.71875 
z
M 57.5625 42.140625 
Q 50.296875 42.140625 44.671875 30.421875 
Q 50.828125 17.625 57.5625 17.625 
Q 62.453125 17.625 64.9375 21.140625 
Q 67.625 24.90625 67.625 29.890625 
Q 67.625 35.359375 64.9375 38.71875 
Q 62.203125 42.140625 57.5625 42.140625 
z
" id="DejaVuSans-8734"/>
     </defs>
     <g transform="translate(317.02 23.798437)scale(0.1 -0.1)">
      <use transform="translate(0 0.09375)" xlink:href="#DejaVuSans-65"/>
      <use transform="translate(68.408203 0.09375)" xlink:href="#DejaVuSans-80"/>
      <use transform="translate(128.710938 0.09375)" xlink:href="#DejaVuSans-68"/>
      <use transform="translate(206.669922 -16.3125)scale(0.7)" xlink:href="#DejaVuSans-Oblique-110"/>
      <use transform="translate(253.769531 0.09375)" xlink:href="#DejaVuSans-32"/>
      <use transform="translate(285.556641 0.09375)" xlink:href="#DejaVuSans-45"/>
      <use transform="translate(321.640625 0.09375)" xlink:href="#DejaVuSans-32"/>
      <use transform="translate(353.427734 0.09375)" xlink:href="#DejaVuSans-65"/>
      <use transform="translate(421.835938 0.09375)" xlink:href="#DejaVuSans-80"/>
      <use transform="translate(482.138672 0.09375)" xlink:href="#DejaVuSans-68"/>
      <use transform="translate(560.097656 -16.3125)scale(0.7)" xlink:href="#DejaVuSans-8734"/>
     </g>
    </g>
    <g id="line2d_17">
     <path d="M 289.02 34.976562 
L 309.02 34.976562 
" style="fill:none;stroke:#2ca02c;stroke-dasharray:1.5,2.475;stroke-dashoffset:0;stroke-width:1.5;"/>
    </g>
    <g id="line2d_18">
     <g>
      <use style="fill:#2ca02c;stroke:#2ca02c;" x="299.02" xlink:href="#m932f018231" y="34.976562"/>
     </g>
    </g>
    <g id="text_14">
     <!-- linear region -->
     <defs>
      <path d="M 9.421875 75.984375 
L 18.40625 75.984375 
L 18.40625 0 
L 9.421875 0 
z
" id="DejaVuSans-108"/>
      <path d="M 9.421875 54.6875 
L 18.40625 54.6875 
L 18.40625 0 
L 9.421875 0 
z
M 9.421875 75.984375 
L 18.40625 75.984375 
L 18.40625 64.59375 
L 9.421875 64.59375 
z
" id="DejaVuSans-105"/>
      <path d="M 54.890625 33.015625 
L 54.890625 0 
L 45.90625 0 
L 45.90625 32.71875 
Q 45.90625 40.484375 42.875 44.328125 
Q 39.84375 48.1875 33.796875 48.1875 
Q 26.515625 48.1875 22.3125 43.546875 
Q 18.109375 38.921875 18.109375 30.90625 
L 18.109375 0 
L 9.078125 0 
L 9.078125 54.6875 
L 18.109375 54.6875 
L 18.109375 46.1875 
Q 21.34375 51.125 25.703125 53.5625 
Q 30.078125 56 35.796875 56 
Q 45.21875 56 50.046875 50.171875 
Q 54.890625 44.34375 54.890625 33.015625 
z
" id="DejaVuSans-110"/>
      <path d="M 56.203125 29.59375 
L 56.203125 25.203125 
L 14.890625 25.203125 
Q 15.484375 15.921875 20.484375 11.0625 
Q 25.484375 6.203125 34.421875 6.203125 
Q 39.59375 6.203125 44.453125 7.46875 
Q 49.3125 8.734375 54.109375 11.28125 
L 54.109375 2.78125 
Q 49.265625 0.734375 44.1875 -0.34375 
Q 39.109375 -1.421875 33.890625 -1.421875 
Q 20.796875 -1.421875 13.15625 6.1875 
Q 5.515625 13.8125 5.515625 26.8125 
Q 5.515625 40.234375 12.765625 48.109375 
Q 20.015625 56 32.328125 56 
Q 43.359375 56 49.78125 48.890625 
Q 56.203125 41.796875 56.203125 29.59375 
z
M 47.21875 32.234375 
Q 47.125 39.59375 43.09375 43.984375 
Q 39.0625 48.390625 32.421875 48.390625 
Q 24.90625 48.390625 20.390625 44.140625 
Q 15.875 39.890625 15.1875 32.171875 
z
" id="DejaVuSans-101"/>
      <path d="M 34.28125 27.484375 
Q 23.390625 27.484375 19.1875 25 
Q 14.984375 22.515625 14.984375 16.5 
Q 14.984375 11.71875 18.140625 8.90625 
Q 21.296875 6.109375 26.703125 6.109375 
Q 34.1875 6.109375 38.703125 11.40625 
Q 43.21875 16.703125 43.21875 25.484375 
L 43.21875 27.484375 
z
M 52.203125 31.203125 
L 52.203125 0 
L 43.21875 0 
L 43.21875 8.296875 
Q 40.140625 3.328125 35.546875 0.953125 
Q 30.953125 -1.421875 24.3125 -1.421875 
Q 15.921875 -1.421875 10.953125 3.296875 
Q 6 8.015625 6 15.921875 
Q 6 25.140625 12.171875 29.828125 
Q 18.359375 34.515625 30.609375 34.515625 
L 43.21875 34.515625 
L 43.21875 35.40625 
Q 43.21875 41.609375 39.140625 45 
Q 35.0625 48.390625 27.6875 48.390625 
Q 23 48.390625 18.546875 47.265625 
Q 14.109375 46.140625 10.015625 43.890625 
L 10.015625 52.203125 
Q 14.9375 54.109375 19.578125 55.046875 
Q 24.21875 56 28.609375 56 
Q 40.484375 56 46.34375 49.84375 
Q 52.203125 43.703125 52.203125 31.203125 
z
" id="DejaVuSans-97"/>
      <path d="M 41.109375 46.296875 
Q 39.59375 47.171875 37.8125 47.578125 
Q 36.03125 48 33.890625 48 
Q 26.265625 48 22.1875 43.046875 
Q 18.109375 38.09375 18.109375 28.8125 
L 18.109375 0 
L 9.078125 0 
L 9.078125 54.6875 
L 18.109375 54.6875 
L 18.109375 46.1875 
Q 20.953125 51.171875 25.484375 53.578125 
Q 30.03125 56 36.53125 56 
Q 37.453125 56 38.578125 55.875 
Q 39.703125 55.765625 41.0625 55.515625 
z
" id="DejaVuSans-114"/>
      <path d="M 45.40625 27.984375 
Q 45.40625 37.75 41.375 43.109375 
Q 37.359375 48.484375 30.078125 48.484375 
Q 22.859375 48.484375 18.828125 43.109375 
Q 14.796875 37.75 14.796875 27.984375 
Q 14.796875 18.265625 18.828125 12.890625 
Q 22.859375 7.515625 30.078125 7.515625 
Q 37.359375 7.515625 41.375 12.890625 
Q 45.40625 18.265625 45.40625 27.984375 
z
M 54.390625 6.78125 
Q 54.390625 -7.171875 48.1875 -13.984375 
Q 42 -20.796875 29.203125 -20.796875 
Q 24.46875 -20.796875 20.265625 -20.09375 
Q 16.0625 -19.390625 12.109375 -17.921875 
L 12.109375 -9.1875 
Q 16.0625 -11.328125 19.921875 -12.34375 
Q 23.78125 -13.375 27.78125 -13.375 
Q 36.625 -13.375 41.015625 -8.765625 
Q 45.40625 -4.15625 45.40625 5.171875 
L 45.40625 9.625 
Q 42.625 4.78125 38.28125 2.390625 
Q 33.9375 0 27.875 0 
Q 17.828125 0 11.671875 7.65625 
Q 5.515625 15.328125 5.515625 27.984375 
Q 5.515625 40.671875 11.671875 48.328125 
Q 17.828125 56 27.875 56 
Q 33.9375 56 38.28125 53.609375 
Q 42.625 51.21875 45.40625 46.390625 
L 45.40625 54.6875 
L 54.390625 54.6875 
z
" id="DejaVuSans-103"/>
      <path d="M 30.609375 48.390625 
Q 23.390625 48.390625 19.1875 42.75 
Q 14.984375 37.109375 14.984375 27.296875 
Q 14.984375 17.484375 19.15625 11.84375 
Q 23.34375 6.203125 30.609375 6.203125 
Q 37.796875 6.203125 41.984375 11.859375 
Q 46.1875 17.53125 46.1875 27.296875 
Q 46.1875 37.015625 41.984375 42.703125 
Q 37.796875 48.390625 30.609375 48.390625 
z
M 30.609375 56 
Q 42.328125 56 49.015625 48.375 
Q 55.71875 40.765625 55.71875 27.296875 
Q 55.71875 13.875 49.015625 6.21875 
Q 42.328125 -1.421875 30.609375 -1.421875 
Q 18.84375 -1.421875 12.171875 6.21875 
Q 5.515625 13.875 5.515625 27.296875 
Q 5.515625 40.765625 12.171875 48.375 
Q 18.84375 56 30.609375 56 
z
" id="DejaVuSans-111"/>
     </defs>
     <g transform="translate(317.02 38.476562)scale(0.1 -0.1)">
      <use xlink:href="#DejaVuSans-108"/>
      <use x="27.783203" xlink:href="#DejaVuSans-105"/>
      <use x="55.566406" xlink:href="#DejaVuSans-110"/>
      <use x="118.945312" xlink:href="#DejaVuSans-101"/>
      <use x="180.46875" xlink:href="#DejaVuSans-97"/>
      <use x="241.748047" xlink:href="#DejaVuSans-114"/>
      <use x="282.861328" xlink:href="#DejaVuSans-32"/>
      <use x="314.648438" xlink:href="#DejaVuSans-114"/>
      <use x="353.511719" xlink:href="#DejaVuSans-101"/>
      <use x="415.035156" xlink:href="#DejaVuSans-103"/>
      <use x="478.511719" xlink:href="#DejaVuSans-105"/>
      <use x="506.294922" xlink:href="#DejaVuSans-111"/>
      <use x="567.476562" xlink:href="#DejaVuSans-110"/>
     </g>
    </g>
    <g id="line2d_19">
     <path d="M 289.02 49.65625 
L 309.02 49.65625 
" style="fill:none;stroke:#000000;stroke-dasharray:5.55,2.4;stroke-dashoffset:0;stroke-width:1.5;"/>
    </g>
    <g id="line2d_20"/>
    <g id="text_15">
     <!-- $ \exp(-0.825 k)$ -->
     <defs>
      <path d="M 54.890625 54.6875 
L 35.109375 28.078125 
L 55.90625 0 
L 45.3125 0 
L 29.390625 21.484375 
L 13.484375 0 
L 2.875 0 
L 24.125 28.609375 
L 4.6875 54.6875 
L 15.28125 54.6875 
L 29.78125 35.203125 
L 44.28125 54.6875 
z
" id="DejaVuSans-120"/>
      <path d="M 18.109375 8.203125 
L 18.109375 -20.796875 
L 9.078125 -20.796875 
L 9.078125 54.6875 
L 18.109375 54.6875 
L 18.109375 46.390625 
Q 20.953125 51.265625 25.265625 53.625 
Q 29.59375 56 35.59375 56 
Q 45.5625 56 51.78125 48.09375 
Q 58.015625 40.1875 58.015625 27.296875 
Q 58.015625 14.40625 51.78125 6.484375 
Q 45.5625 -1.421875 35.59375 -1.421875 
Q 29.59375 -1.421875 25.265625 0.953125 
Q 20.953125 3.328125 18.109375 8.203125 
z
M 48.6875 27.296875 
Q 48.6875 37.203125 44.609375 42.84375 
Q 40.53125 48.484375 33.40625 48.484375 
Q 26.265625 48.484375 22.1875 42.84375 
Q 18.109375 37.203125 18.109375 27.296875 
Q 18.109375 17.390625 22.1875 11.75 
Q 26.265625 6.109375 33.40625 6.109375 
Q 40.53125 6.109375 44.609375 11.75 
Q 48.6875 17.390625 48.6875 27.296875 
z
" id="DejaVuSans-112"/>
      <path d="M 31 75.875 
Q 24.46875 64.65625 21.28125 53.65625 
Q 18.109375 42.671875 18.109375 31.390625 
Q 18.109375 20.125 21.3125 9.0625 
Q 24.515625 -2 31 -13.1875 
L 23.1875 -13.1875 
Q 15.875 -1.703125 12.234375 9.375 
Q 8.59375 20.453125 8.59375 31.390625 
Q 8.59375 42.28125 12.203125 53.3125 
Q 15.828125 64.359375 23.1875 75.875 
z
" id="DejaVuSans-40"/>
      <path d="M 10.6875 12.40625 
L 21 12.40625 
L 21 0 
L 10.6875 0 
z
" id="DejaVuSans-46"/>
      <path d="M 31.78125 34.625 
Q 24.75 34.625 20.71875 30.859375 
Q 16.703125 27.09375 16.703125 20.515625 
Q 16.703125 13.921875 20.71875 10.15625 
Q 24.75 6.390625 31.78125 6.390625 
Q 38.8125 6.390625 42.859375 10.171875 
Q 46.921875 13.96875 46.921875 20.515625 
Q 46.921875 27.09375 42.890625 30.859375 
Q 38.875 34.625 31.78125 34.625 
z
M 21.921875 38.8125 
Q 15.578125 40.375 12.03125 44.71875 
Q 8.5 49.078125 8.5 55.328125 
Q 8.5 64.0625 14.71875 69.140625 
Q 20.953125 74.21875 31.78125 74.21875 
Q 42.671875 74.21875 48.875 69.140625 
Q 55.078125 64.0625 55.078125 55.328125 
Q 55.078125 49.078125 51.53125 44.71875 
Q 48 40.375 41.703125 38.8125 
Q 48.828125 37.15625 52.796875 32.3125 
Q 56.78125 27.484375 56.78125 20.515625 
Q 56.78125 9.90625 50.3125 4.234375 
Q 43.84375 -1.421875 31.78125 -1.421875 
Q 19.734375 -1.421875 13.25 4.234375 
Q 6.78125 9.90625 6.78125 20.515625 
Q 6.78125 27.484375 10.78125 32.3125 
Q 14.796875 37.15625 21.921875 38.8125 
z
M 18.3125 54.390625 
Q 18.3125 48.734375 21.84375 45.5625 
Q 25.390625 42.390625 31.78125 42.390625 
Q 38.140625 42.390625 41.71875 45.5625 
Q 45.3125 48.734375 45.3125 54.390625 
Q 45.3125 60.0625 41.71875 63.234375 
Q 38.140625 66.40625 31.78125 66.40625 
Q 25.390625 66.40625 21.84375 63.234375 
Q 18.3125 60.0625 18.3125 54.390625 
z
" id="DejaVuSans-56"/>
      <path d="M 8.015625 75.875 
L 15.828125 75.875 
Q 23.140625 64.359375 26.78125 53.3125 
Q 30.421875 42.28125 30.421875 31.390625 
Q 30.421875 20.453125 26.78125 9.375 
Q 23.140625 -1.703125 15.828125 -13.1875 
L 8.015625 -13.1875 
Q 14.5 -2 17.703125 9.0625 
Q 20.90625 20.125 20.90625 31.390625 
Q 20.90625 42.671875 17.703125 53.65625 
Q 14.5 64.65625 8.015625 75.875 
z
" id="DejaVuSans-41"/>
     </defs>
     <g transform="translate(317.02 53.15625)scale(0.1 -0.1)">
      <use transform="translate(0 0.015625)" xlink:href="#DejaVuSans-101"/>
      <use transform="translate(61.523438 0.015625)" xlink:href="#DejaVuSans-120"/>
      <use transform="translate(120.703125 0.015625)" xlink:href="#DejaVuSans-112"/>
      <use transform="translate(184.179688 0.015625)" xlink:href="#DejaVuSans-40"/>
      <use transform="translate(223.193359 0.015625)" xlink:href="#DejaVuSans-8722"/>
      <use transform="translate(306.982422 0.015625)" xlink:href="#DejaVuSans-48"/>
      <use transform="translate(370.605469 0.015625)" xlink:href="#DejaVuSans-46"/>
      <use transform="translate(399.767578 0.015625)" xlink:href="#DejaVuSans-56"/>
      <use transform="translate(463.390625 0.015625)" xlink:href="#DejaVuSans-50"/>
      <use transform="translate(527.013672 0.015625)" xlink:href="#DejaVuSans-53"/>
      <use transform="translate(590.636719 0.015625)" xlink:href="#DejaVuSans-Oblique-107"/>
      <use transform="translate(648.546875 0.015625)" xlink:href="#DejaVuSans-41"/>
     </g>
    </g>
   </g>
  </g>
 </g>
 <defs>
  <clipPath id="p54178de652">
   <rect height="266.112" width="357.12" x="37.7" y="7.2"/>
  </clipPath>
 </defs>
</svg>
