<?xml version="1.0" encoding="utf-8" standalone="no"?>
<!DOCTYPE svg PUBLIC "-//W3C//DTD SVG 1.1//EN"
  "http://www.w3.org/Graphics/SVG/1.1/DTD/svg11.dtd">
<!-- Created with matplotlib (https://matplotlib.org/) -->
<svg height="310.86825pt" version="1.1" viewBox="0 0 396.12 310.86825" width="396.12pt" xmlns="http://www.w3.org/2000/svg" xmlns:xlink="http://www.w3.org/1999/xlink">
 <defs>
  <style type="text/css">
*{stroke-linecap:butt;stroke-linejoin:round;}
  </style>
 </defs>
 <g id="figure_1">
  <g id="patch_1">
   <path d="M 0 310.86825 
L 396.12 310.86825 
L 396.12 0 
L 0 0 
z
" style="fill:#ffffff;"/>
  </g>
  <g id="axes_1">
   <g id="patch_2">
    <path d="M 31.8 273.312 
L 388.92 273.312 
L 388.92 7.2 
L 31.8 7.2 
z
" style="fill:#ffffff;"/>
   </g>
   <g id="matplotlib.axis_1">
    <g id="xtick_1">
     <g id="line2d_1">
      <defs>
       <path d="M 0 0 
L 0 3.5 
" id="me30b64fd6f" style="stroke:#000000;stroke-width:0.8;"/>
      </defs>
      <g>
       <use style="stroke:#000000;stroke-width:0.8;" x="48.032727" xlink:href="#me30b64fd6f" y="273.312"/>
      </g>
     </g>
     <g id="text_1">
      <!-- 0 -->
      <defs>
       <path d="M 31.78125 66.40625 
Q 24.171875 66.40625 20.328125 58.90625 
Q 16.5 51.421875 16.5 36.375 
Q 16.5 21.390625 20.328125 13.890625 
Q 24.171875 6.390625 31.78125 6.390625 
Q 39.453125 6.390625 43.28125 13.890625 
Q 47.125 21.390625 47.125 36.375 
Q 47.125 51.421875 43.28125 58.90625 
Q 39.453125 66.40625 31.78125 66.40625 
z
M 31.78125 74.21875 
Q 44.046875 74.21875 50.515625 64.515625 
Q 56.984375 54.828125 56.984375 36.375 
Q 56.984375 17.96875 50.515625 8.265625 
Q 44.046875 -1.421875 31.78125 -1.421875 
Q 19.53125 -1.421875 13.0625 8.265625 
Q 6.59375 17.96875 6.59375 36.375 
Q 6.59375 54.828125 13.0625 64.515625 
Q 19.53125 74.21875 31.78125 74.21875 
z
" id="DejaVuSans-48"/>
      </defs>
      <g transform="translate(44.851477 287.910437)scale(0.1 -0.1)">
       <use xlink:href="#DejaVuSans-48"/>
      </g>
     </g>
    </g>
    <g id="xtick_2">
     <g id="line2d_2">
      <g>
       <use style="stroke:#000000;stroke-width:0.8;" x="88.412646" xlink:href="#me30b64fd6f" y="273.312"/>
      </g>
     </g>
     <g id="text_2">
      <!-- 50 -->
      <defs>
       <path d="M 10.796875 72.90625 
L 49.515625 72.90625 
L 49.515625 64.59375 
L 19.828125 64.59375 
L 19.828125 46.734375 
Q 21.96875 47.46875 24.109375 47.828125 
Q 26.265625 48.1875 28.421875 48.1875 
Q 40.625 48.1875 47.75 41.5 
Q 54.890625 34.8125 54.890625 23.390625 
Q 54.890625 11.625 47.5625 5.09375 
Q 40.234375 -1.421875 26.90625 -1.421875 
Q 22.3125 -1.421875 17.546875 -0.640625 
Q 12.796875 0.140625 7.71875 1.703125 
L 7.71875 11.625 
Q 12.109375 9.234375 16.796875 8.0625 
Q 21.484375 6.890625 26.703125 6.890625 
Q 35.15625 6.890625 40.078125 11.328125 
Q 45.015625 15.765625 45.015625 23.390625 
Q 45.015625 31 40.078125 35.4375 
Q 35.15625 39.890625 26.703125 39.890625 
Q 22.75 39.890625 18.8125 39.015625 
Q 14.890625 38.140625 10.796875 36.28125 
z
" id="DejaVuSans-53"/>
      </defs>
      <g transform="translate(82.050146 287.910437)scale(0.1 -0.1)">
       <use xlink:href="#DejaVuSans-53"/>
       <use x="63.623047" xlink:href="#DejaVuSans-48"/>
      </g>
     </g>
    </g>
    <g id="xtick_3">
     <g id="line2d_3">
      <g>
       <use style="stroke:#000000;stroke-width:0.8;" x="128.792564" xlink:href="#me30b64fd6f" y="273.312"/>
      </g>
     </g>
     <g id="text_3">
      <!-- 100 -->
      <defs>
       <path d="M 12.40625 8.296875 
L 28.515625 8.296875 
L 28.515625 63.921875 
L 10.984375 60.40625 
L 10.984375 69.390625 
L 28.421875 72.90625 
L 38.28125 72.90625 
L 38.28125 8.296875 
L 54.390625 8.296875 
L 54.390625 0 
L 12.40625 0 
z
" id="DejaVuSans-49"/>
      </defs>
      <g transform="translate(119.248814 287.910437)scale(0.1 -0.1)">
       <use xlink:href="#DejaVuSans-49"/>
       <use x="63.623047" xlink:href="#DejaVuSans-48"/>
       <use x="127.246094" xlink:href="#DejaVuSans-48"/>
      </g>
     </g>
    </g>
    <g id="xtick_4">
     <g id="line2d_4">
      <g>
       <use style="stroke:#000000;stroke-width:0.8;" x="169.172483" xlink:href="#me30b64fd6f" y="273.312"/>
      </g>
     </g>
     <g id="text_4">
      <!-- 150 -->
      <g transform="translate(159.628733 287.910437)scale(0.1 -0.1)">
       <use xlink:href="#DejaVuSans-49"/>
       <use x="63.623047" xlink:href="#DejaVuSans-53"/>
       <use x="127.246094" xlink:href="#DejaVuSans-48"/>
      </g>
     </g>
    </g>
    <g id="xtick_5">
     <g id="line2d_5">
      <g>
       <use style="stroke:#000000;stroke-width:0.8;" x="209.552402" xlink:href="#me30b64fd6f" y="273.312"/>
      </g>
     </g>
     <g id="text_5">
      <!-- 200 -->
      <defs>
       <path d="M 19.1875 8.296875 
L 53.609375 8.296875 
L 53.609375 0 
L 7.328125 0 
L 7.328125 8.296875 
Q 12.9375 14.109375 22.625 23.890625 
Q 32.328125 33.6875 34.8125 36.53125 
Q 39.546875 41.84375 41.421875 45.53125 
Q 43.3125 49.21875 43.3125 52.78125 
Q 43.3125 58.59375 39.234375 62.25 
Q 35.15625 65.921875 28.609375 65.921875 
Q 23.96875 65.921875 18.8125 64.3125 
Q 13.671875 62.703125 7.8125 59.421875 
L 7.8125 69.390625 
Q 13.765625 71.78125 18.9375 73 
Q 24.125 74.21875 28.421875 74.21875 
Q 39.75 74.21875 46.484375 68.546875 
Q 53.21875 62.890625 53.21875 53.421875 
Q 53.21875 48.921875 51.53125 44.890625 
Q 49.859375 40.875 45.40625 35.40625 
Q 44.1875 33.984375 37.640625 27.21875 
Q 31.109375 20.453125 19.1875 8.296875 
z
" id="DejaVuSans-50"/>
      </defs>
      <g transform="translate(200.008652 287.910437)scale(0.1 -0.1)">
       <use xlink:href="#DejaVuSans-50"/>
       <use x="63.623047" xlink:href="#DejaVuSans-48"/>
       <use x="127.246094" xlink:href="#DejaVuSans-48"/>
      </g>
     </g>
    </g>
    <g id="xtick_6">
     <g id="line2d_6">
      <g>
       <use style="stroke:#000000;stroke-width:0.8;" x="249.93232" xlink:href="#me30b64fd6f" y="273.312"/>
      </g>
     </g>
     <g id="text_6">
      <!-- 250 -->
      <g transform="translate(240.38857 287.910437)scale(0.1 -0.1)">
       <use xlink:href="#DejaVuSans-50"/>
       <use x="63.623047" xlink:href="#DejaVuSans-53"/>
       <use x="127.246094" xlink:href="#DejaVuSans-48"/>
      </g>
     </g>
    </g>
    <g id="xtick_7">
     <g id="line2d_7">
      <g>
       <use style="stroke:#000000;stroke-width:0.8;" x="290.312239" xlink:href="#me30b64fd6f" y="273.312"/>
      </g>
     </g>
     <g id="text_7">
      <!-- 300 -->
      <defs>
       <path d="M 40.578125 39.3125 
Q 47.65625 37.796875 51.625 33 
Q 55.609375 28.21875 55.609375 21.1875 
Q 55.609375 10.40625 48.1875 4.484375 
Q 40.765625 -1.421875 27.09375 -1.421875 
Q 22.515625 -1.421875 17.65625 -0.515625 
Q 12.796875 0.390625 7.625 2.203125 
L 7.625 11.71875 
Q 11.71875 9.328125 16.59375 8.109375 
Q 21.484375 6.890625 26.8125 6.890625 
Q 36.078125 6.890625 40.9375 10.546875 
Q 45.796875 14.203125 45.796875 21.1875 
Q 45.796875 27.640625 41.28125 31.265625 
Q 36.765625 34.90625 28.71875 34.90625 
L 20.21875 34.90625 
L 20.21875 43.015625 
L 29.109375 43.015625 
Q 36.375 43.015625 40.234375 45.921875 
Q 44.09375 48.828125 44.09375 54.296875 
Q 44.09375 59.90625 40.109375 62.90625 
Q 36.140625 65.921875 28.71875 65.921875 
Q 24.65625 65.921875 20.015625 65.03125 
Q 15.375 64.15625 9.8125 62.3125 
L 9.8125 71.09375 
Q 15.4375 72.65625 20.34375 73.4375 
Q 25.25 74.21875 29.59375 74.21875 
Q 40.828125 74.21875 47.359375 69.109375 
Q 53.90625 64.015625 53.90625 55.328125 
Q 53.90625 49.265625 50.4375 45.09375 
Q 46.96875 40.921875 40.578125 39.3125 
z
" id="DejaVuSans-51"/>
      </defs>
      <g transform="translate(280.768489 287.910437)scale(0.1 -0.1)">
       <use xlink:href="#DejaVuSans-51"/>
       <use x="63.623047" xlink:href="#DejaVuSans-48"/>
       <use x="127.246094" xlink:href="#DejaVuSans-48"/>
      </g>
     </g>
    </g>
    <g id="xtick_8">
     <g id="line2d_8">
      <g>
       <use style="stroke:#000000;stroke-width:0.8;" x="330.692157" xlink:href="#me30b64fd6f" y="273.312"/>
      </g>
     </g>
     <g id="text_8">
      <!-- 350 -->
      <g transform="translate(321.148407 287.910437)scale(0.1 -0.1)">
       <use xlink:href="#DejaVuSans-51"/>
       <use x="63.623047" xlink:href="#DejaVuSans-53"/>
       <use x="127.246094" xlink:href="#DejaVuSans-48"/>
      </g>
     </g>
    </g>
    <g id="xtick_9">
     <g id="line2d_9">
      <g>
       <use style="stroke:#000000;stroke-width:0.8;" x="371.072076" xlink:href="#me30b64fd6f" y="273.312"/>
      </g>
     </g>
     <g id="text_9">
      <!-- 400 -->
      <defs>
       <path d="M 37.796875 64.3125 
L 12.890625 25.390625 
L 37.796875 25.390625 
z
M 35.203125 72.90625 
L 47.609375 72.90625 
L 47.609375 25.390625 
L 58.015625 25.390625 
L 58.015625 17.1875 
L 47.609375 17.1875 
L 47.609375 0 
L 37.796875 0 
L 37.796875 17.1875 
L 4.890625 17.1875 
L 4.890625 26.703125 
z
" id="DejaVuSans-52"/>
      </defs>
      <g transform="translate(361.528326 287.910437)scale(0.1 -0.1)">
       <use xlink:href="#DejaVuSans-52"/>
       <use x="63.623047" xlink:href="#DejaVuSans-48"/>
       <use x="127.246094" xlink:href="#DejaVuSans-48"/>
      </g>
     </g>
    </g>
    <g id="text_10">
     <!-- $ k $ -->
     <defs>
      <path d="M 18.3125 75.984375 
L 27.296875 75.984375 
L 18.703125 31.6875 
L 49.515625 54.6875 
L 61.1875 54.6875 
L 26.8125 28.515625 
L 51.90625 0 
L 41.015625 0 
L 17.671875 26.703125 
L 12.5 0 
L 3.515625 0 
z
" id="DejaVuSans-Oblique-107"/>
     </defs>
     <g transform="translate(207.46 301.588562)scale(0.1 -0.1)">
      <use transform="translate(0 0.015625)" xlink:href="#DejaVuSans-Oblique-107"/>
     </g>
    </g>
   </g>
   <g id="matplotlib.axis_2">
    <g id="ytick_1">
     <g id="line2d_10">
      <defs>
       <path d="M 0 0 
L -3.5 0 
" id="mf3df37e5fa" style="stroke:#000000;stroke-width:0.8;"/>
      </defs>
      <g>
       <use style="stroke:#000000;stroke-width:0.8;" x="31.8" xlink:href="#mf3df37e5fa" y="176.611671"/>
      </g>
     </g>
     <g id="text_11">
      <!-- $\mathdefault{10^{1}}$ -->
      <g transform="translate(7.2 180.41089)scale(0.1 -0.1)">
       <use transform="translate(0 0.684375)" xlink:href="#DejaVuSans-49"/>
       <use transform="translate(63.623047 0.684375)" xlink:href="#DejaVuSans-48"/>
       <use transform="translate(128.203125 38.965625)scale(0.7)" xlink:href="#DejaVuSans-49"/>
      </g>
     </g>
    </g>
    <g id="ytick_2">
     <g id="line2d_11">
      <g>
       <use style="stroke:#000000;stroke-width:0.8;" x="31.8" xlink:href="#mf3df37e5fa" y="58.153254"/>
      </g>
     </g>
     <g id="text_12">
      <!-- $\mathdefault{10^{2}}$ -->
      <g transform="translate(7.2 61.952473)scale(0.1 -0.1)">
       <use transform="translate(0 0.765625)" xlink:href="#DejaVuSans-49"/>
       <use transform="translate(63.623047 0.765625)" xlink:href="#DejaVuSans-48"/>
       <use transform="translate(128.203125 39.046875)scale(0.7)" xlink:href="#DejaVuSans-50"/>
      </g>
     </g>
    </g>
    <g id="ytick_3">
     <g id="line2d_12">
      <defs>
       <path d="M 0 0 
L -2 0 
" id="m5bb29a5e6e" style="stroke:#000000;stroke-width:0.6;"/>
      </defs>
      <g>
       <use style="stroke:#000000;stroke-width:0.6;" x="31.8" xlink:href="#m5bb29a5e6e" y="259.410552"/>
      </g>
     </g>
    </g>
    <g id="ytick_4">
     <g id="line2d_13">
      <g>
       <use style="stroke:#000000;stroke-width:0.6;" x="31.8" xlink:href="#m5bb29a5e6e" y="238.55106"/>
      </g>
     </g>
    </g>
    <g id="ytick_5">
     <g id="line2d_14">
      <g>
       <use style="stroke:#000000;stroke-width:0.6;" x="31.8" xlink:href="#m5bb29a5e6e" y="223.751015"/>
      </g>
     </g>
    </g>
    <g id="ytick_6">
     <g id="line2d_15">
      <g>
       <use style="stroke:#000000;stroke-width:0.6;" x="31.8" xlink:href="#m5bb29a5e6e" y="212.271208"/>
      </g>
     </g>
    </g>
    <g id="ytick_7">
     <g id="line2d_16">
      <g>
       <use style="stroke:#000000;stroke-width:0.6;" x="31.8" xlink:href="#m5bb29a5e6e" y="202.891523"/>
      </g>
     </g>
    </g>
    <g id="ytick_8">
     <g id="line2d_17">
      <g>
       <use style="stroke:#000000;stroke-width:0.6;" x="31.8" xlink:href="#m5bb29a5e6e" y="194.961113"/>
      </g>
     </g>
    </g>
    <g id="ytick_9">
     <g id="line2d_18">
      <g>
       <use style="stroke:#000000;stroke-width:0.6;" x="31.8" xlink:href="#m5bb29a5e6e" y="188.091478"/>
      </g>
     </g>
    </g>
    <g id="ytick_10">
     <g id="line2d_19">
      <g>
       <use style="stroke:#000000;stroke-width:0.6;" x="31.8" xlink:href="#m5bb29a5e6e" y="182.032031"/>
      </g>
     </g>
    </g>
    <g id="ytick_11">
     <g id="line2d_20">
      <g>
       <use style="stroke:#000000;stroke-width:0.6;" x="31.8" xlink:href="#m5bb29a5e6e" y="140.952135"/>
      </g>
     </g>
    </g>
    <g id="ytick_12">
     <g id="line2d_21">
      <g>
       <use style="stroke:#000000;stroke-width:0.6;" x="31.8" xlink:href="#m5bb29a5e6e" y="120.092643"/>
      </g>
     </g>
    </g>
    <g id="ytick_13">
     <g id="line2d_22">
      <g>
       <use style="stroke:#000000;stroke-width:0.6;" x="31.8" xlink:href="#m5bb29a5e6e" y="105.292598"/>
      </g>
     </g>
    </g>
    <g id="ytick_14">
     <g id="line2d_23">
      <g>
       <use style="stroke:#000000;stroke-width:0.6;" x="31.8" xlink:href="#m5bb29a5e6e" y="93.812791"/>
      </g>
     </g>
    </g>
    <g id="ytick_15">
     <g id="line2d_24">
      <g>
       <use style="stroke:#000000;stroke-width:0.6;" x="31.8" xlink:href="#m5bb29a5e6e" y="84.433106"/>
      </g>
     </g>
    </g>
    <g id="ytick_16">
     <g id="line2d_25">
      <g>
       <use style="stroke:#000000;stroke-width:0.6;" x="31.8" xlink:href="#m5bb29a5e6e" y="76.502695"/>
      </g>
     </g>
    </g>
    <g id="ytick_17">
     <g id="line2d_26">
      <g>
       <use style="stroke:#000000;stroke-width:0.6;" x="31.8" xlink:href="#m5bb29a5e6e" y="69.633061"/>
      </g>
     </g>
    </g>
    <g id="ytick_18">
     <g id="line2d_27">
      <g>
       <use style="stroke:#000000;stroke-width:0.6;" x="31.8" xlink:href="#m5bb29a5e6e" y="63.573614"/>
      </g>
     </g>
    </g>
    <g id="ytick_19">
     <g id="line2d_28">
      <g>
       <use style="stroke:#000000;stroke-width:0.6;" x="31.8" xlink:href="#m5bb29a5e6e" y="22.493717"/>
      </g>
     </g>
    </g>
   </g>
   <g id="line2d_29">
    <path clip-path="url(#pa7db5c95ad)" d="M 48.032727 19.296 
L 48.840326 52.758761 
L 49.647924 117.506078 
L 50.455522 29.790172 
L 51.263121 95.354922 
L 52.070719 204.958458 
L 52.878318 28.764621 
L 53.685916 92.999924 
L 54.493514 42.112798 
L 55.301113 86.523052 
L 56.108711 28.410537 
L 56.916309 36.002067 
L 57.723908 46.76245 
L 58.531506 73.978701 
L 59.339104 43.303425 
L 60.146703 116.44202 
L 60.954301 27.303948 
L 61.7619 135.826506 
L 62.569498 38.63731 
L 63.377096 41.134659 
L 64.184695 168.904358 
L 64.992293 35.609696 
L 65.799891 45.761282 
L 66.60749 90.606934 
L 67.415088 178.772368 
L 68.222687 28.359425 
L 69.030285 35.607222 
L 69.837883 50.545413 
L 70.645482 45.211198 
L 71.45308 35.57414 
L 72.260678 135.763173 
L 73.068277 54.205756 
L 73.875875 42.876134 
L 74.683474 40.955493 
L 75.491072 25.168616 
L 76.29867 255.068164 
L 77.106269 177.077186 
L 77.913867 86.544923 
L 78.721465 117.979592 
L 79.529064 27.913584 
L 80.336662 64.918986 
L 81.144261 30.33051 
L 81.951859 65.823398 
L 82.759457 38.422259 
L 83.567056 30.398367 
L 85.182252 166.430867 
L 85.989851 27.697353 
L 86.797449 35.932268 
L 88.412646 59.06959 
L 89.220244 37.138239 
L 90.027843 154.541886 
L 90.835441 74.283521 
L 92.450638 30.246698 
L 93.258236 96.832413 
L 94.065834 150.718332 
L 94.873433 27.400516 
L 95.681031 105.959564 
L 96.48863 29.070806 
L 97.296228 90.753391 
L 98.103826 37.780004 
L 98.911425 172.369545 
L 99.719023 29.299555 
L 100.526621 81.806992 
L 101.33422 32.744145 
L 102.141818 89.634159 
L 102.949417 30.046573 
L 103.757015 87.77035 
L 104.564613 36.019388 
L 105.372212 46.427025 
L 106.17981 72.012876 
L 106.987408 62.90463 
L 107.795007 26.156742 
L 108.602605 160.476559 
L 109.410204 39.806212 
L 110.217802 36.761742 
L 111.0254 50.491167 
L 111.832999 86.834101 
L 112.640597 29.510387 
L 113.448195 87.740265 
L 114.255794 44.553046 
L 115.063392 58.824819 
L 115.870991 31.317006 
L 116.678589 58.83561 
L 117.486187 44.986543 
L 118.293786 57.567772 
L 119.101384 32.86601 
L 119.908982 92.848801 
L 120.716581 30.579849 
L 121.524179 72.041966 
L 122.331777 33.906761 
L 123.139376 115.102988 
L 123.946974 50.159931 
L 124.754573 41.02811 
L 125.562171 40.203717 
L 126.369769 198.199617 
L 127.177368 36.666258 
L 127.984966 141.151864 
L 128.792564 28.138599 
L 129.600163 115.152636 
L 130.407761 63.925761 
L 131.21536 79.761357 
L 132.022958 28.036093 
L 132.830556 90.368816 
L 133.638155 30.66017 
L 134.445753 65.594587 
L 135.253351 37.870005 
L 136.06095 38.236536 
L 136.868548 45.705582 
L 137.676147 65.44544 
L 138.483745 40.705876 
L 139.291343 25.515748 
L 140.098942 162.205413 
L 140.90654 30.755514 
L 141.714138 67.217991 
L 142.521737 37.147515 
L 143.329335 38.963509 
L 144.136934 45.024956 
L 144.944532 34.886987 
L 145.75213 50.307851 
L 146.559729 50.465963 
L 147.367327 45.596994 
L 148.174925 95.277842 
L 148.982524 32.457097 
L 149.790122 71.175856 
L 150.59772 33.465579 
L 151.405319 116.467585 
L 152.212917 42.503633 
L 153.020516 37.146353 
L 153.828114 152.987994 
L 154.635712 77.037397 
L 155.443311 36.851029 
L 156.250909 45.692745 
L 157.058507 64.038265 
L 157.866106 40.495666 
L 158.673704 25.582921 
L 159.481303 155.775752 
L 160.288901 32.042427 
L 161.096499 78.878283 
L 161.904098 29.901268 
L 162.711696 88.176805 
L 163.519294 36.674506 
L 164.326893 153.446395 
L 165.134491 79.382613 
L 165.94209 31.154272 
L 166.749688 35.562193 
L 167.557286 45.829211 
L 168.364885 98.371938 
L 169.172483 32.390154 
L 169.980081 71.530224 
L 170.78768 32.753956 
L 171.595278 59.523473 
L 172.402877 36.784937 
L 173.210475 43.296129 
L 174.018073 128.589968 
L 174.825672 38.439988 
L 175.63327 43.103606 
L 176.440868 94.847668 
L 177.248467 32.64879 
L 178.056065 45.164292 
L 178.863664 38.101749 
L 179.671262 199.710938 
L 180.47886 30.804115 
L 181.286459 29.88785 
L 182.094057 89.042553 
L 182.901655 36.633634 
L 183.709254 144.578684 
L 184.516852 59.918742 
L 185.32445 35.537589 
L 186.132049 132.586744 
L 186.939647 48.235658 
L 187.747246 62.46284 
L 188.554844 34.763965 
L 189.362442 114.494492 
L 190.170041 31.504518 
L 190.977639 66.014996 
L 191.785237 40.984472 
L 192.592836 103.498034 
L 193.400434 27.516584 
L 194.208033 99.380359 
L 195.015631 29.743494 
L 195.823229 77.402931 
L 196.630828 32.095358 
L 197.438426 57.85344 
L 198.246024 41.978851 
L 199.053623 36.036645 
L 199.861221 45.321241 
L 200.66882 103.126375 
L 201.476418 32.317251 
L 202.284016 63.469859 
L 203.091615 35.120686 
L 203.899213 46.732648 
L 205.51441 123.15755 
L 206.322008 25.107191 
L 207.129607 201.950994 
L 207.937205 35.165706 
L 208.744803 46.191365 
L 209.552402 93.742331 
L 210.36 188.385607 
L 211.167598 30.978912 
L 211.975197 83.423676 
L 212.782795 25.40222 
L 213.590393 179.443503 
L 214.397992 43.771682 
L 215.20559 33.020184 
L 216.013189 77.858283 
L 216.820787 87.940219 
L 217.628385 29.970845 
L 218.435984 76.225489 
L 219.243582 25.169765 
L 220.05118 214.47741 
L 220.858779 34.606625 
L 221.666377 50.095672 
L 222.473976 51.7925 
L 223.281574 42.16771 
L 224.089172 37.181372 
L 224.896771 157.24446 
L 225.704369 81.580719 
L 226.511967 29.793417 
L 227.319566 83.651246 
L 228.127164 38.652329 
L 228.934763 191.319176 
L 229.742361 32.342592 
L 230.549959 68.913574 
L 231.357558 56.056644 
L 232.165156 31.285464 
L 232.972754 60.979399 
L 233.780353 39.208519 
L 234.587951 216.530531 
L 235.39555 27.579566 
L 236.203148 105.544143 
L 237.010746 29.079553 
L 237.818345 91.669536 
L 238.625943 36.541655 
L 239.433541 140.197159 
L 240.24114 31.584495 
L 241.048738 76.008428 
L 241.856336 40.808009 
L 242.663935 39.585914 
L 243.471533 261.216 
L 244.279132 40.247427 
L 245.08673 127.542423 
L 245.894328 26.803523 
L 246.701927 115.495524 
L 247.509525 39.391648 
L 248.317123 35.007295 
L 249.124722 63.497226 
L 249.93232 26.472237 
L 250.739919 151.299084 
L 251.547517 38.05807 
L 252.355115 168.411711 
L 253.162714 97.327812 
L 253.970312 126.640309 
L 254.77791 27.681105 
L 255.585509 35.765445 
L 256.393107 48.899265 
L 257.200706 52.149416 
L 258.008304 53.670479 
L 258.815902 37.266462 
L 259.623501 46.519982 
L 260.431099 59.379617 
L 261.238697 50.751047 
L 262.046296 95.098077 
L 262.853894 26.743622 
L 263.661493 29.810123 
L 264.469091 98.548534 
L 265.276689 138.349307 
L 266.084288 27.097307 
L 266.891886 123.34248 
L 267.699484 31.480659 
L 268.507083 70.621302 
L 269.314681 59.825063 
L 270.12228 246.807208 
L 270.929878 32.004992 
L 272.545075 100.802398 
L 273.352673 109.29077 
L 274.160271 26.561459 
L 274.96787 159.681986 
L 275.775468 110.996292 
L 276.583066 33.855683 
L 278.198263 63.737555 
L 279.005862 28.659363 
L 279.81346 108.959646 
L 280.621058 85.529871 
L 281.428657 124.063726 
L 282.236255 25.106557 
L 283.043853 186.181078 
L 283.851452 29.664776 
L 284.65905 90.767515 
L 285.466649 35.203524 
L 286.274247 49.235755 
L 287.081845 50.622917 
L 287.889444 58.525714 
L 288.697042 29.120681 
L 289.50464 108.945443 
L 290.312239 62.917951 
L 291.119837 40.638294 
L 291.927436 25.388189 
L 292.735034 168.759063 
L 293.542632 30.361516 
L 294.350231 74.615917 
L 295.157829 32.470224 
L 295.965427 56.844779 
L 296.773026 41.718452 
L 297.580624 119.570487 
L 298.388223 29.713515 
L 299.195821 40.589228 
L 300.003419 139.861497 
L 300.811018 26.61868 
L 301.618616 121.483472 
L 302.426214 35.743066 
L 303.233813 31.162657 
L 304.041411 89.656149 
L 304.849009 166.73956 
L 305.656608 26.081518 
L 306.464206 143.846176 
L 307.271805 30.784016 
L 308.079403 73.481547 
L 308.887001 62.532643 
L 309.6946 26.569189 
L 310.502198 139.900081 
L 311.309796 31.557137 
L 312.117395 79.763159 
L 312.924993 35.923172 
L 313.732592 46.380396 
L 315.347788 117.511414 
L 316.155387 35.376847 
L 316.962985 43.99365 
L 317.770583 116.044783 
L 318.578182 31.80149 
L 319.38578 60.544558 
L 321.000977 31.7917 
L 321.808575 80.228682 
L 322.616174 93.228441 
L 323.423772 28.324031 
L 324.23137 114.905109 
L 325.038969 51.400788 
L 325.846567 59.53091 
L 326.654166 122.445368 
L 327.461764 26.591998 
L 328.269362 111.852627 
L 329.076961 28.967045 
L 329.884559 87.312182 
L 330.692157 30.424719 
L 331.499756 76.362765 
L 332.307354 53.379529 
L 333.114953 39.445247 
L 333.922551 38.107413 
L 334.730149 50.630766 
L 335.537748 41.309863 
L 336.345346 42.143091 
L 337.152944 38.985461 
L 337.960543 38.201129 
L 338.768141 44.704984 
L 339.575739 89.366241 
L 340.383338 38.913425 
L 341.190936 37.13432 
L 341.998535 49.093825 
L 342.806133 79.972914 
L 343.613731 29.056436 
L 344.42133 103.378857 
L 345.228928 105.845914 
L 346.036526 31.499382 
L 346.844125 65.595628 
L 347.651723 34.043885 
L 348.459322 52.578831 
L 349.26692 43.206103 
L 350.074518 127.978872 
L 350.882117 30.716747 
L 351.689715 81.99857 
L 352.497313 37.370453 
L 353.304912 44.683514 
L 354.11251 81.561097 
L 354.920109 31.833648 
L 355.727707 81.444062 
L 356.535305 36.307203 
L 357.342904 140.48399 
L 358.150502 58.1921 
L 358.9581 38.241414 
L 359.765699 203.729419 
L 360.573297 33.649117 
L 361.380896 94.546509 
L 362.188494 26.189463 
L 362.996092 133.254573 
L 363.803691 28.102445 
L 364.611289 104.677989 
L 365.418887 33.840411 
L 366.226486 120.935821 
L 367.034084 45.046658 
L 367.841682 97.500474 
L 368.649281 28.026513 
L 369.456879 125.998771 
L 370.264478 40.56885 
L 371.072076 39.372587 
L 371.07393 311.86825 
L 371.07393 311.86825 
" style="fill:none;stroke:#1f77b4;stroke-linecap:square;stroke-width:1.5;"/>
    <defs>
     <path d="M 0 3 
C 0.795609 3 1.55874 2.683901 2.12132 2.12132 
C 2.683901 1.55874 3 0.795609 3 0 
C 3 -0.795609 2.683901 -1.55874 2.12132 -2.12132 
C 1.55874 -2.683901 0.795609 -3 0 -3 
C -0.795609 -3 -1.55874 -2.683901 -2.12132 -2.12132 
C -2.683901 -1.55874 -3 -0.795609 -3 0 
C -3 0.795609 -2.683901 1.55874 -2.12132 2.12132 
C -1.55874 2.683901 -0.795609 3 0 3 
z
" id="mdba37d780c" style="stroke:#1f77b4;"/>
    </defs>
    <g clip-path="url(#pa7db5c95ad)">
     <use style="fill:#1f77b4;stroke:#1f77b4;" x="48.032727" xlink:href="#mdba37d780c" y="19.296"/>
     <use style="fill:#1f77b4;stroke:#1f77b4;" x="48.840326" xlink:href="#mdba37d780c" y="52.758761"/>
     <use style="fill:#1f77b4;stroke:#1f77b4;" x="49.647924" xlink:href="#mdba37d780c" y="117.506078"/>
     <use style="fill:#1f77b4;stroke:#1f77b4;" x="50.455522" xlink:href="#mdba37d780c" y="29.790172"/>
     <use style="fill:#1f77b4;stroke:#1f77b4;" x="51.263121" xlink:href="#mdba37d780c" y="95.354922"/>
     <use style="fill:#1f77b4;stroke:#1f77b4;" x="52.070719" xlink:href="#mdba37d780c" y="204.958458"/>
     <use style="fill:#1f77b4;stroke:#1f77b4;" x="52.878318" xlink:href="#mdba37d780c" y="28.764621"/>
     <use style="fill:#1f77b4;stroke:#1f77b4;" x="53.685916" xlink:href="#mdba37d780c" y="92.999924"/>
     <use style="fill:#1f77b4;stroke:#1f77b4;" x="54.493514" xlink:href="#mdba37d780c" y="42.112798"/>
     <use style="fill:#1f77b4;stroke:#1f77b4;" x="55.301113" xlink:href="#mdba37d780c" y="86.523052"/>
     <use style="fill:#1f77b4;stroke:#1f77b4;" x="56.108711" xlink:href="#mdba37d780c" y="28.410537"/>
     <use style="fill:#1f77b4;stroke:#1f77b4;" x="56.916309" xlink:href="#mdba37d780c" y="36.002067"/>
     <use style="fill:#1f77b4;stroke:#1f77b4;" x="57.723908" xlink:href="#mdba37d780c" y="46.76245"/>
     <use style="fill:#1f77b4;stroke:#1f77b4;" x="58.531506" xlink:href="#mdba37d780c" y="73.978701"/>
     <use style="fill:#1f77b4;stroke:#1f77b4;" x="59.339104" xlink:href="#mdba37d780c" y="43.303425"/>
     <use style="fill:#1f77b4;stroke:#1f77b4;" x="60.146703" xlink:href="#mdba37d780c" y="116.44202"/>
     <use style="fill:#1f77b4;stroke:#1f77b4;" x="60.954301" xlink:href="#mdba37d780c" y="27.303948"/>
     <use style="fill:#1f77b4;stroke:#1f77b4;" x="61.7619" xlink:href="#mdba37d780c" y="135.826506"/>
     <use style="fill:#1f77b4;stroke:#1f77b4;" x="62.569498" xlink:href="#mdba37d780c" y="38.63731"/>
     <use style="fill:#1f77b4;stroke:#1f77b4;" x="63.377096" xlink:href="#mdba37d780c" y="41.134659"/>
     <use style="fill:#1f77b4;stroke:#1f77b4;" x="64.184695" xlink:href="#mdba37d780c" y="168.904358"/>
     <use style="fill:#1f77b4;stroke:#1f77b4;" x="64.992293" xlink:href="#mdba37d780c" y="35.609696"/>
     <use style="fill:#1f77b4;stroke:#1f77b4;" x="65.799891" xlink:href="#mdba37d780c" y="45.761282"/>
     <use style="fill:#1f77b4;stroke:#1f77b4;" x="66.60749" xlink:href="#mdba37d780c" y="90.606934"/>
     <use style="fill:#1f77b4;stroke:#1f77b4;" x="67.415088" xlink:href="#mdba37d780c" y="178.772368"/>
     <use style="fill:#1f77b4;stroke:#1f77b4;" x="68.222687" xlink:href="#mdba37d780c" y="28.359425"/>
     <use style="fill:#1f77b4;stroke:#1f77b4;" x="69.030285" xlink:href="#mdba37d780c" y="35.607222"/>
     <use style="fill:#1f77b4;stroke:#1f77b4;" x="69.837883" xlink:href="#mdba37d780c" y="50.545413"/>
     <use style="fill:#1f77b4;stroke:#1f77b4;" x="70.645482" xlink:href="#mdba37d780c" y="45.211198"/>
     <use style="fill:#1f77b4;stroke:#1f77b4;" x="71.45308" xlink:href="#mdba37d780c" y="35.57414"/>
     <use style="fill:#1f77b4;stroke:#1f77b4;" x="72.260678" xlink:href="#mdba37d780c" y="135.763173"/>
     <use style="fill:#1f77b4;stroke:#1f77b4;" x="73.068277" xlink:href="#mdba37d780c" y="54.205756"/>
     <use style="fill:#1f77b4;stroke:#1f77b4;" x="73.875875" xlink:href="#mdba37d780c" y="42.876134"/>
     <use style="fill:#1f77b4;stroke:#1f77b4;" x="74.683474" xlink:href="#mdba37d780c" y="40.955493"/>
     <use style="fill:#1f77b4;stroke:#1f77b4;" x="75.491072" xlink:href="#mdba37d780c" y="25.168616"/>
     <use style="fill:#1f77b4;stroke:#1f77b4;" x="76.29867" xlink:href="#mdba37d780c" y="255.068164"/>
     <use style="fill:#1f77b4;stroke:#1f77b4;" x="77.106269" xlink:href="#mdba37d780c" y="177.077186"/>
     <use style="fill:#1f77b4;stroke:#1f77b4;" x="77.913867" xlink:href="#mdba37d780c" y="86.544923"/>
     <use style="fill:#1f77b4;stroke:#1f77b4;" x="78.721465" xlink:href="#mdba37d780c" y="117.979592"/>
     <use style="fill:#1f77b4;stroke:#1f77b4;" x="79.529064" xlink:href="#mdba37d780c" y="27.913584"/>
     <use style="fill:#1f77b4;stroke:#1f77b4;" x="80.336662" xlink:href="#mdba37d780c" y="64.918986"/>
     <use style="fill:#1f77b4;stroke:#1f77b4;" x="81.144261" xlink:href="#mdba37d780c" y="30.33051"/>
     <use style="fill:#1f77b4;stroke:#1f77b4;" x="81.951859" xlink:href="#mdba37d780c" y="65.823398"/>
     <use style="fill:#1f77b4;stroke:#1f77b4;" x="82.759457" xlink:href="#mdba37d780c" y="38.422259"/>
     <use style="fill:#1f77b4;stroke:#1f77b4;" x="83.567056" xlink:href="#mdba37d780c" y="30.398367"/>
     <use style="fill:#1f77b4;stroke:#1f77b4;" x="84.374654" xlink:href="#mdba37d780c" y="95.836196"/>
     <use style="fill:#1f77b4;stroke:#1f77b4;" x="85.182252" xlink:href="#mdba37d780c" y="166.430867"/>
     <use style="fill:#1f77b4;stroke:#1f77b4;" x="85.989851" xlink:href="#mdba37d780c" y="27.697353"/>
     <use style="fill:#1f77b4;stroke:#1f77b4;" x="86.797449" xlink:href="#mdba37d780c" y="35.932268"/>
     <use style="fill:#1f77b4;stroke:#1f77b4;" x="87.605047" xlink:href="#mdba37d780c" y="47.96839"/>
     <use style="fill:#1f77b4;stroke:#1f77b4;" x="88.412646" xlink:href="#mdba37d780c" y="59.06959"/>
     <use style="fill:#1f77b4;stroke:#1f77b4;" x="89.220244" xlink:href="#mdba37d780c" y="37.138239"/>
     <use style="fill:#1f77b4;stroke:#1f77b4;" x="90.027843" xlink:href="#mdba37d780c" y="154.541886"/>
     <use style="fill:#1f77b4;stroke:#1f77b4;" x="90.835441" xlink:href="#mdba37d780c" y="74.283521"/>
     <use style="fill:#1f77b4;stroke:#1f77b4;" x="91.643039" xlink:href="#mdba37d780c" y="50.841877"/>
     <use style="fill:#1f77b4;stroke:#1f77b4;" x="92.450638" xlink:href="#mdba37d780c" y="30.246698"/>
     <use style="fill:#1f77b4;stroke:#1f77b4;" x="93.258236" xlink:href="#mdba37d780c" y="96.832413"/>
     <use style="fill:#1f77b4;stroke:#1f77b4;" x="94.065834" xlink:href="#mdba37d780c" y="150.718332"/>
     <use style="fill:#1f77b4;stroke:#1f77b4;" x="94.873433" xlink:href="#mdba37d780c" y="27.400516"/>
     <use style="fill:#1f77b4;stroke:#1f77b4;" x="95.681031" xlink:href="#mdba37d780c" y="105.959564"/>
     <use style="fill:#1f77b4;stroke:#1f77b4;" x="96.48863" xlink:href="#mdba37d780c" y="29.070806"/>
     <use style="fill:#1f77b4;stroke:#1f77b4;" x="97.296228" xlink:href="#mdba37d780c" y="90.753391"/>
     <use style="fill:#1f77b4;stroke:#1f77b4;" x="98.103826" xlink:href="#mdba37d780c" y="37.780004"/>
     <use style="fill:#1f77b4;stroke:#1f77b4;" x="98.911425" xlink:href="#mdba37d780c" y="172.369545"/>
     <use style="fill:#1f77b4;stroke:#1f77b4;" x="99.719023" xlink:href="#mdba37d780c" y="29.299555"/>
     <use style="fill:#1f77b4;stroke:#1f77b4;" x="100.526621" xlink:href="#mdba37d780c" y="81.806992"/>
     <use style="fill:#1f77b4;stroke:#1f77b4;" x="101.33422" xlink:href="#mdba37d780c" y="32.744145"/>
     <use style="fill:#1f77b4;stroke:#1f77b4;" x="102.141818" xlink:href="#mdba37d780c" y="89.634159"/>
     <use style="fill:#1f77b4;stroke:#1f77b4;" x="102.949417" xlink:href="#mdba37d780c" y="30.046573"/>
     <use style="fill:#1f77b4;stroke:#1f77b4;" x="103.757015" xlink:href="#mdba37d780c" y="87.77035"/>
     <use style="fill:#1f77b4;stroke:#1f77b4;" x="104.564613" xlink:href="#mdba37d780c" y="36.019388"/>
     <use style="fill:#1f77b4;stroke:#1f77b4;" x="105.372212" xlink:href="#mdba37d780c" y="46.427025"/>
     <use style="fill:#1f77b4;stroke:#1f77b4;" x="106.17981" xlink:href="#mdba37d780c" y="72.012876"/>
     <use style="fill:#1f77b4;stroke:#1f77b4;" x="106.987408" xlink:href="#mdba37d780c" y="62.90463"/>
     <use style="fill:#1f77b4;stroke:#1f77b4;" x="107.795007" xlink:href="#mdba37d780c" y="26.156742"/>
     <use style="fill:#1f77b4;stroke:#1f77b4;" x="108.602605" xlink:href="#mdba37d780c" y="160.476559"/>
     <use style="fill:#1f77b4;stroke:#1f77b4;" x="109.410204" xlink:href="#mdba37d780c" y="39.806212"/>
     <use style="fill:#1f77b4;stroke:#1f77b4;" x="110.217802" xlink:href="#mdba37d780c" y="36.761742"/>
     <use style="fill:#1f77b4;stroke:#1f77b4;" x="111.0254" xlink:href="#mdba37d780c" y="50.491167"/>
     <use style="fill:#1f77b4;stroke:#1f77b4;" x="111.832999" xlink:href="#mdba37d780c" y="86.834101"/>
     <use style="fill:#1f77b4;stroke:#1f77b4;" x="112.640597" xlink:href="#mdba37d780c" y="29.510387"/>
     <use style="fill:#1f77b4;stroke:#1f77b4;" x="113.448195" xlink:href="#mdba37d780c" y="87.740265"/>
     <use style="fill:#1f77b4;stroke:#1f77b4;" x="114.255794" xlink:href="#mdba37d780c" y="44.553046"/>
     <use style="fill:#1f77b4;stroke:#1f77b4;" x="115.063392" xlink:href="#mdba37d780c" y="58.824819"/>
     <use style="fill:#1f77b4;stroke:#1f77b4;" x="115.870991" xlink:href="#mdba37d780c" y="31.317006"/>
     <use style="fill:#1f77b4;stroke:#1f77b4;" x="116.678589" xlink:href="#mdba37d780c" y="58.83561"/>
     <use style="fill:#1f77b4;stroke:#1f77b4;" x="117.486187" xlink:href="#mdba37d780c" y="44.986543"/>
     <use style="fill:#1f77b4;stroke:#1f77b4;" x="118.293786" xlink:href="#mdba37d780c" y="57.567772"/>
     <use style="fill:#1f77b4;stroke:#1f77b4;" x="119.101384" xlink:href="#mdba37d780c" y="32.86601"/>
     <use style="fill:#1f77b4;stroke:#1f77b4;" x="119.908982" xlink:href="#mdba37d780c" y="92.848801"/>
     <use style="fill:#1f77b4;stroke:#1f77b4;" x="120.716581" xlink:href="#mdba37d780c" y="30.579849"/>
     <use style="fill:#1f77b4;stroke:#1f77b4;" x="121.524179" xlink:href="#mdba37d780c" y="72.041966"/>
     <use style="fill:#1f77b4;stroke:#1f77b4;" x="122.331777" xlink:href="#mdba37d780c" y="33.906761"/>
     <use style="fill:#1f77b4;stroke:#1f77b4;" x="123.139376" xlink:href="#mdba37d780c" y="115.102988"/>
     <use style="fill:#1f77b4;stroke:#1f77b4;" x="123.946974" xlink:href="#mdba37d780c" y="50.159931"/>
     <use style="fill:#1f77b4;stroke:#1f77b4;" x="124.754573" xlink:href="#mdba37d780c" y="41.02811"/>
     <use style="fill:#1f77b4;stroke:#1f77b4;" x="125.562171" xlink:href="#mdba37d780c" y="40.203717"/>
     <use style="fill:#1f77b4;stroke:#1f77b4;" x="126.369769" xlink:href="#mdba37d780c" y="198.199617"/>
     <use style="fill:#1f77b4;stroke:#1f77b4;" x="127.177368" xlink:href="#mdba37d780c" y="36.666258"/>
     <use style="fill:#1f77b4;stroke:#1f77b4;" x="127.984966" xlink:href="#mdba37d780c" y="141.151864"/>
     <use style="fill:#1f77b4;stroke:#1f77b4;" x="128.792564" xlink:href="#mdba37d780c" y="28.138599"/>
     <use style="fill:#1f77b4;stroke:#1f77b4;" x="129.600163" xlink:href="#mdba37d780c" y="115.152636"/>
     <use style="fill:#1f77b4;stroke:#1f77b4;" x="130.407761" xlink:href="#mdba37d780c" y="63.925761"/>
     <use style="fill:#1f77b4;stroke:#1f77b4;" x="131.21536" xlink:href="#mdba37d780c" y="79.761357"/>
     <use style="fill:#1f77b4;stroke:#1f77b4;" x="132.022958" xlink:href="#mdba37d780c" y="28.036093"/>
     <use style="fill:#1f77b4;stroke:#1f77b4;" x="132.830556" xlink:href="#mdba37d780c" y="90.368816"/>
     <use style="fill:#1f77b4;stroke:#1f77b4;" x="133.638155" xlink:href="#mdba37d780c" y="30.66017"/>
     <use style="fill:#1f77b4;stroke:#1f77b4;" x="134.445753" xlink:href="#mdba37d780c" y="65.594587"/>
     <use style="fill:#1f77b4;stroke:#1f77b4;" x="135.253351" xlink:href="#mdba37d780c" y="37.870005"/>
     <use style="fill:#1f77b4;stroke:#1f77b4;" x="136.06095" xlink:href="#mdba37d780c" y="38.236536"/>
     <use style="fill:#1f77b4;stroke:#1f77b4;" x="136.868548" xlink:href="#mdba37d780c" y="45.705582"/>
     <use style="fill:#1f77b4;stroke:#1f77b4;" x="137.676147" xlink:href="#mdba37d780c" y="65.44544"/>
     <use style="fill:#1f77b4;stroke:#1f77b4;" x="138.483745" xlink:href="#mdba37d780c" y="40.705876"/>
     <use style="fill:#1f77b4;stroke:#1f77b4;" x="139.291343" xlink:href="#mdba37d780c" y="25.515748"/>
     <use style="fill:#1f77b4;stroke:#1f77b4;" x="140.098942" xlink:href="#mdba37d780c" y="162.205413"/>
     <use style="fill:#1f77b4;stroke:#1f77b4;" x="140.90654" xlink:href="#mdba37d780c" y="30.755514"/>
     <use style="fill:#1f77b4;stroke:#1f77b4;" x="141.714138" xlink:href="#mdba37d780c" y="67.217991"/>
     <use style="fill:#1f77b4;stroke:#1f77b4;" x="142.521737" xlink:href="#mdba37d780c" y="37.147515"/>
     <use style="fill:#1f77b4;stroke:#1f77b4;" x="143.329335" xlink:href="#mdba37d780c" y="38.963509"/>
     <use style="fill:#1f77b4;stroke:#1f77b4;" x="144.136934" xlink:href="#mdba37d780c" y="45.024956"/>
     <use style="fill:#1f77b4;stroke:#1f77b4;" x="144.944532" xlink:href="#mdba37d780c" y="34.886987"/>
     <use style="fill:#1f77b4;stroke:#1f77b4;" x="145.75213" xlink:href="#mdba37d780c" y="50.307851"/>
     <use style="fill:#1f77b4;stroke:#1f77b4;" x="146.559729" xlink:href="#mdba37d780c" y="50.465963"/>
     <use style="fill:#1f77b4;stroke:#1f77b4;" x="147.367327" xlink:href="#mdba37d780c" y="45.596994"/>
     <use style="fill:#1f77b4;stroke:#1f77b4;" x="148.174925" xlink:href="#mdba37d780c" y="95.277842"/>
     <use style="fill:#1f77b4;stroke:#1f77b4;" x="148.982524" xlink:href="#mdba37d780c" y="32.457097"/>
     <use style="fill:#1f77b4;stroke:#1f77b4;" x="149.790122" xlink:href="#mdba37d780c" y="71.175856"/>
     <use style="fill:#1f77b4;stroke:#1f77b4;" x="150.59772" xlink:href="#mdba37d780c" y="33.465579"/>
     <use style="fill:#1f77b4;stroke:#1f77b4;" x="151.405319" xlink:href="#mdba37d780c" y="116.467585"/>
     <use style="fill:#1f77b4;stroke:#1f77b4;" x="152.212917" xlink:href="#mdba37d780c" y="42.503633"/>
     <use style="fill:#1f77b4;stroke:#1f77b4;" x="153.020516" xlink:href="#mdba37d780c" y="37.146353"/>
     <use style="fill:#1f77b4;stroke:#1f77b4;" x="153.828114" xlink:href="#mdba37d780c" y="152.987994"/>
     <use style="fill:#1f77b4;stroke:#1f77b4;" x="154.635712" xlink:href="#mdba37d780c" y="77.037397"/>
     <use style="fill:#1f77b4;stroke:#1f77b4;" x="155.443311" xlink:href="#mdba37d780c" y="36.851029"/>
     <use style="fill:#1f77b4;stroke:#1f77b4;" x="156.250909" xlink:href="#mdba37d780c" y="45.692745"/>
     <use style="fill:#1f77b4;stroke:#1f77b4;" x="157.058507" xlink:href="#mdba37d780c" y="64.038265"/>
     <use style="fill:#1f77b4;stroke:#1f77b4;" x="157.866106" xlink:href="#mdba37d780c" y="40.495666"/>
     <use style="fill:#1f77b4;stroke:#1f77b4;" x="158.673704" xlink:href="#mdba37d780c" y="25.582921"/>
     <use style="fill:#1f77b4;stroke:#1f77b4;" x="159.481303" xlink:href="#mdba37d780c" y="155.775752"/>
     <use style="fill:#1f77b4;stroke:#1f77b4;" x="160.288901" xlink:href="#mdba37d780c" y="32.042427"/>
     <use style="fill:#1f77b4;stroke:#1f77b4;" x="161.096499" xlink:href="#mdba37d780c" y="78.878283"/>
     <use style="fill:#1f77b4;stroke:#1f77b4;" x="161.904098" xlink:href="#mdba37d780c" y="29.901268"/>
     <use style="fill:#1f77b4;stroke:#1f77b4;" x="162.711696" xlink:href="#mdba37d780c" y="88.176805"/>
     <use style="fill:#1f77b4;stroke:#1f77b4;" x="163.519294" xlink:href="#mdba37d780c" y="36.674506"/>
     <use style="fill:#1f77b4;stroke:#1f77b4;" x="164.326893" xlink:href="#mdba37d780c" y="153.446395"/>
     <use style="fill:#1f77b4;stroke:#1f77b4;" x="165.134491" xlink:href="#mdba37d780c" y="79.382613"/>
     <use style="fill:#1f77b4;stroke:#1f77b4;" x="165.94209" xlink:href="#mdba37d780c" y="31.154272"/>
     <use style="fill:#1f77b4;stroke:#1f77b4;" x="166.749688" xlink:href="#mdba37d780c" y="35.562193"/>
     <use style="fill:#1f77b4;stroke:#1f77b4;" x="167.557286" xlink:href="#mdba37d780c" y="45.829211"/>
     <use style="fill:#1f77b4;stroke:#1f77b4;" x="168.364885" xlink:href="#mdba37d780c" y="98.371938"/>
     <use style="fill:#1f77b4;stroke:#1f77b4;" x="169.172483" xlink:href="#mdba37d780c" y="32.390154"/>
     <use style="fill:#1f77b4;stroke:#1f77b4;" x="169.980081" xlink:href="#mdba37d780c" y="71.530224"/>
     <use style="fill:#1f77b4;stroke:#1f77b4;" x="170.78768" xlink:href="#mdba37d780c" y="32.753956"/>
     <use style="fill:#1f77b4;stroke:#1f77b4;" x="171.595278" xlink:href="#mdba37d780c" y="59.523473"/>
     <use style="fill:#1f77b4;stroke:#1f77b4;" x="172.402877" xlink:href="#mdba37d780c" y="36.784937"/>
     <use style="fill:#1f77b4;stroke:#1f77b4;" x="173.210475" xlink:href="#mdba37d780c" y="43.296129"/>
     <use style="fill:#1f77b4;stroke:#1f77b4;" x="174.018073" xlink:href="#mdba37d780c" y="128.589968"/>
     <use style="fill:#1f77b4;stroke:#1f77b4;" x="174.825672" xlink:href="#mdba37d780c" y="38.439988"/>
     <use style="fill:#1f77b4;stroke:#1f77b4;" x="175.63327" xlink:href="#mdba37d780c" y="43.103606"/>
     <use style="fill:#1f77b4;stroke:#1f77b4;" x="176.440868" xlink:href="#mdba37d780c" y="94.847668"/>
     <use style="fill:#1f77b4;stroke:#1f77b4;" x="177.248467" xlink:href="#mdba37d780c" y="32.64879"/>
     <use style="fill:#1f77b4;stroke:#1f77b4;" x="178.056065" xlink:href="#mdba37d780c" y="45.164292"/>
     <use style="fill:#1f77b4;stroke:#1f77b4;" x="178.863664" xlink:href="#mdba37d780c" y="38.101749"/>
     <use style="fill:#1f77b4;stroke:#1f77b4;" x="179.671262" xlink:href="#mdba37d780c" y="199.710938"/>
     <use style="fill:#1f77b4;stroke:#1f77b4;" x="180.47886" xlink:href="#mdba37d780c" y="30.804115"/>
     <use style="fill:#1f77b4;stroke:#1f77b4;" x="181.286459" xlink:href="#mdba37d780c" y="29.88785"/>
     <use style="fill:#1f77b4;stroke:#1f77b4;" x="182.094057" xlink:href="#mdba37d780c" y="89.042553"/>
     <use style="fill:#1f77b4;stroke:#1f77b4;" x="182.901655" xlink:href="#mdba37d780c" y="36.633634"/>
     <use style="fill:#1f77b4;stroke:#1f77b4;" x="183.709254" xlink:href="#mdba37d780c" y="144.578684"/>
     <use style="fill:#1f77b4;stroke:#1f77b4;" x="184.516852" xlink:href="#mdba37d780c" y="59.918742"/>
     <use style="fill:#1f77b4;stroke:#1f77b4;" x="185.32445" xlink:href="#mdba37d780c" y="35.537589"/>
     <use style="fill:#1f77b4;stroke:#1f77b4;" x="186.132049" xlink:href="#mdba37d780c" y="132.586744"/>
     <use style="fill:#1f77b4;stroke:#1f77b4;" x="186.939647" xlink:href="#mdba37d780c" y="48.235658"/>
     <use style="fill:#1f77b4;stroke:#1f77b4;" x="187.747246" xlink:href="#mdba37d780c" y="62.46284"/>
     <use style="fill:#1f77b4;stroke:#1f77b4;" x="188.554844" xlink:href="#mdba37d780c" y="34.763965"/>
     <use style="fill:#1f77b4;stroke:#1f77b4;" x="189.362442" xlink:href="#mdba37d780c" y="114.494492"/>
     <use style="fill:#1f77b4;stroke:#1f77b4;" x="190.170041" xlink:href="#mdba37d780c" y="31.504518"/>
     <use style="fill:#1f77b4;stroke:#1f77b4;" x="190.977639" xlink:href="#mdba37d780c" y="66.014996"/>
     <use style="fill:#1f77b4;stroke:#1f77b4;" x="191.785237" xlink:href="#mdba37d780c" y="40.984472"/>
     <use style="fill:#1f77b4;stroke:#1f77b4;" x="192.592836" xlink:href="#mdba37d780c" y="103.498034"/>
     <use style="fill:#1f77b4;stroke:#1f77b4;" x="193.400434" xlink:href="#mdba37d780c" y="27.516584"/>
     <use style="fill:#1f77b4;stroke:#1f77b4;" x="194.208033" xlink:href="#mdba37d780c" y="99.380359"/>
     <use style="fill:#1f77b4;stroke:#1f77b4;" x="195.015631" xlink:href="#mdba37d780c" y="29.743494"/>
     <use style="fill:#1f77b4;stroke:#1f77b4;" x="195.823229" xlink:href="#mdba37d780c" y="77.402931"/>
     <use style="fill:#1f77b4;stroke:#1f77b4;" x="196.630828" xlink:href="#mdba37d780c" y="32.095358"/>
     <use style="fill:#1f77b4;stroke:#1f77b4;" x="197.438426" xlink:href="#mdba37d780c" y="57.85344"/>
     <use style="fill:#1f77b4;stroke:#1f77b4;" x="198.246024" xlink:href="#mdba37d780c" y="41.978851"/>
     <use style="fill:#1f77b4;stroke:#1f77b4;" x="199.053623" xlink:href="#mdba37d780c" y="36.036645"/>
     <use style="fill:#1f77b4;stroke:#1f77b4;" x="199.861221" xlink:href="#mdba37d780c" y="45.321241"/>
     <use style="fill:#1f77b4;stroke:#1f77b4;" x="200.66882" xlink:href="#mdba37d780c" y="103.126375"/>
     <use style="fill:#1f77b4;stroke:#1f77b4;" x="201.476418" xlink:href="#mdba37d780c" y="32.317251"/>
     <use style="fill:#1f77b4;stroke:#1f77b4;" x="202.284016" xlink:href="#mdba37d780c" y="63.469859"/>
     <use style="fill:#1f77b4;stroke:#1f77b4;" x="203.091615" xlink:href="#mdba37d780c" y="35.120686"/>
     <use style="fill:#1f77b4;stroke:#1f77b4;" x="203.899213" xlink:href="#mdba37d780c" y="46.732648"/>
     <use style="fill:#1f77b4;stroke:#1f77b4;" x="204.706811" xlink:href="#mdba37d780c" y="84.771463"/>
     <use style="fill:#1f77b4;stroke:#1f77b4;" x="205.51441" xlink:href="#mdba37d780c" y="123.15755"/>
     <use style="fill:#1f77b4;stroke:#1f77b4;" x="206.322008" xlink:href="#mdba37d780c" y="25.107191"/>
     <use style="fill:#1f77b4;stroke:#1f77b4;" x="207.129607" xlink:href="#mdba37d780c" y="201.950994"/>
     <use style="fill:#1f77b4;stroke:#1f77b4;" x="207.937205" xlink:href="#mdba37d780c" y="35.165706"/>
     <use style="fill:#1f77b4;stroke:#1f77b4;" x="208.744803" xlink:href="#mdba37d780c" y="46.191365"/>
     <use style="fill:#1f77b4;stroke:#1f77b4;" x="209.552402" xlink:href="#mdba37d780c" y="93.742331"/>
     <use style="fill:#1f77b4;stroke:#1f77b4;" x="210.36" xlink:href="#mdba37d780c" y="188.385607"/>
     <use style="fill:#1f77b4;stroke:#1f77b4;" x="211.167598" xlink:href="#mdba37d780c" y="30.978912"/>
     <use style="fill:#1f77b4;stroke:#1f77b4;" x="211.975197" xlink:href="#mdba37d780c" y="83.423676"/>
     <use style="fill:#1f77b4;stroke:#1f77b4;" x="212.782795" xlink:href="#mdba37d780c" y="25.40222"/>
     <use style="fill:#1f77b4;stroke:#1f77b4;" x="213.590393" xlink:href="#mdba37d780c" y="179.443503"/>
     <use style="fill:#1f77b4;stroke:#1f77b4;" x="214.397992" xlink:href="#mdba37d780c" y="43.771682"/>
     <use style="fill:#1f77b4;stroke:#1f77b4;" x="215.20559" xlink:href="#mdba37d780c" y="33.020184"/>
     <use style="fill:#1f77b4;stroke:#1f77b4;" x="216.013189" xlink:href="#mdba37d780c" y="77.858283"/>
     <use style="fill:#1f77b4;stroke:#1f77b4;" x="216.820787" xlink:href="#mdba37d780c" y="87.940219"/>
     <use style="fill:#1f77b4;stroke:#1f77b4;" x="217.628385" xlink:href="#mdba37d780c" y="29.970845"/>
     <use style="fill:#1f77b4;stroke:#1f77b4;" x="218.435984" xlink:href="#mdba37d780c" y="76.225489"/>
     <use style="fill:#1f77b4;stroke:#1f77b4;" x="219.243582" xlink:href="#mdba37d780c" y="25.169765"/>
     <use style="fill:#1f77b4;stroke:#1f77b4;" x="220.05118" xlink:href="#mdba37d780c" y="214.47741"/>
     <use style="fill:#1f77b4;stroke:#1f77b4;" x="220.858779" xlink:href="#mdba37d780c" y="34.606625"/>
     <use style="fill:#1f77b4;stroke:#1f77b4;" x="221.666377" xlink:href="#mdba37d780c" y="50.095672"/>
     <use style="fill:#1f77b4;stroke:#1f77b4;" x="222.473976" xlink:href="#mdba37d780c" y="51.7925"/>
     <use style="fill:#1f77b4;stroke:#1f77b4;" x="223.281574" xlink:href="#mdba37d780c" y="42.16771"/>
     <use style="fill:#1f77b4;stroke:#1f77b4;" x="224.089172" xlink:href="#mdba37d780c" y="37.181372"/>
     <use style="fill:#1f77b4;stroke:#1f77b4;" x="224.896771" xlink:href="#mdba37d780c" y="157.24446"/>
     <use style="fill:#1f77b4;stroke:#1f77b4;" x="225.704369" xlink:href="#mdba37d780c" y="81.580719"/>
     <use style="fill:#1f77b4;stroke:#1f77b4;" x="226.511967" xlink:href="#mdba37d780c" y="29.793417"/>
     <use style="fill:#1f77b4;stroke:#1f77b4;" x="227.319566" xlink:href="#mdba37d780c" y="83.651246"/>
     <use style="fill:#1f77b4;stroke:#1f77b4;" x="228.127164" xlink:href="#mdba37d780c" y="38.652329"/>
     <use style="fill:#1f77b4;stroke:#1f77b4;" x="228.934763" xlink:href="#mdba37d780c" y="191.319176"/>
     <use style="fill:#1f77b4;stroke:#1f77b4;" x="229.742361" xlink:href="#mdba37d780c" y="32.342592"/>
     <use style="fill:#1f77b4;stroke:#1f77b4;" x="230.549959" xlink:href="#mdba37d780c" y="68.913574"/>
     <use style="fill:#1f77b4;stroke:#1f77b4;" x="231.357558" xlink:href="#mdba37d780c" y="56.056644"/>
     <use style="fill:#1f77b4;stroke:#1f77b4;" x="232.165156" xlink:href="#mdba37d780c" y="31.285464"/>
     <use style="fill:#1f77b4;stroke:#1f77b4;" x="232.972754" xlink:href="#mdba37d780c" y="60.979399"/>
     <use style="fill:#1f77b4;stroke:#1f77b4;" x="233.780353" xlink:href="#mdba37d780c" y="39.208519"/>
     <use style="fill:#1f77b4;stroke:#1f77b4;" x="234.587951" xlink:href="#mdba37d780c" y="216.530531"/>
     <use style="fill:#1f77b4;stroke:#1f77b4;" x="235.39555" xlink:href="#mdba37d780c" y="27.579566"/>
     <use style="fill:#1f77b4;stroke:#1f77b4;" x="236.203148" xlink:href="#mdba37d780c" y="105.544143"/>
     <use style="fill:#1f77b4;stroke:#1f77b4;" x="237.010746" xlink:href="#mdba37d780c" y="29.079553"/>
     <use style="fill:#1f77b4;stroke:#1f77b4;" x="237.818345" xlink:href="#mdba37d780c" y="91.669536"/>
     <use style="fill:#1f77b4;stroke:#1f77b4;" x="238.625943" xlink:href="#mdba37d780c" y="36.541655"/>
     <use style="fill:#1f77b4;stroke:#1f77b4;" x="239.433541" xlink:href="#mdba37d780c" y="140.197159"/>
     <use style="fill:#1f77b4;stroke:#1f77b4;" x="240.24114" xlink:href="#mdba37d780c" y="31.584495"/>
     <use style="fill:#1f77b4;stroke:#1f77b4;" x="241.048738" xlink:href="#mdba37d780c" y="76.008428"/>
     <use style="fill:#1f77b4;stroke:#1f77b4;" x="241.856336" xlink:href="#mdba37d780c" y="40.808009"/>
     <use style="fill:#1f77b4;stroke:#1f77b4;" x="242.663935" xlink:href="#mdba37d780c" y="39.585914"/>
     <use style="fill:#1f77b4;stroke:#1f77b4;" x="243.471533" xlink:href="#mdba37d780c" y="261.216"/>
     <use style="fill:#1f77b4;stroke:#1f77b4;" x="244.279132" xlink:href="#mdba37d780c" y="40.247427"/>
     <use style="fill:#1f77b4;stroke:#1f77b4;" x="245.08673" xlink:href="#mdba37d780c" y="127.542423"/>
     <use style="fill:#1f77b4;stroke:#1f77b4;" x="245.894328" xlink:href="#mdba37d780c" y="26.803523"/>
     <use style="fill:#1f77b4;stroke:#1f77b4;" x="246.701927" xlink:href="#mdba37d780c" y="115.495524"/>
     <use style="fill:#1f77b4;stroke:#1f77b4;" x="247.509525" xlink:href="#mdba37d780c" y="39.391648"/>
     <use style="fill:#1f77b4;stroke:#1f77b4;" x="248.317123" xlink:href="#mdba37d780c" y="35.007295"/>
     <use style="fill:#1f77b4;stroke:#1f77b4;" x="249.124722" xlink:href="#mdba37d780c" y="63.497226"/>
     <use style="fill:#1f77b4;stroke:#1f77b4;" x="249.93232" xlink:href="#mdba37d780c" y="26.472237"/>
     <use style="fill:#1f77b4;stroke:#1f77b4;" x="250.739919" xlink:href="#mdba37d780c" y="151.299084"/>
     <use style="fill:#1f77b4;stroke:#1f77b4;" x="251.547517" xlink:href="#mdba37d780c" y="38.05807"/>
     <use style="fill:#1f77b4;stroke:#1f77b4;" x="252.355115" xlink:href="#mdba37d780c" y="168.411711"/>
     <use style="fill:#1f77b4;stroke:#1f77b4;" x="253.162714" xlink:href="#mdba37d780c" y="97.327812"/>
     <use style="fill:#1f77b4;stroke:#1f77b4;" x="253.970312" xlink:href="#mdba37d780c" y="126.640309"/>
     <use style="fill:#1f77b4;stroke:#1f77b4;" x="254.77791" xlink:href="#mdba37d780c" y="27.681105"/>
     <use style="fill:#1f77b4;stroke:#1f77b4;" x="255.585509" xlink:href="#mdba37d780c" y="35.765445"/>
     <use style="fill:#1f77b4;stroke:#1f77b4;" x="256.393107" xlink:href="#mdba37d780c" y="48.899265"/>
     <use style="fill:#1f77b4;stroke:#1f77b4;" x="257.200706" xlink:href="#mdba37d780c" y="52.149416"/>
     <use style="fill:#1f77b4;stroke:#1f77b4;" x="258.008304" xlink:href="#mdba37d780c" y="53.670479"/>
     <use style="fill:#1f77b4;stroke:#1f77b4;" x="258.815902" xlink:href="#mdba37d780c" y="37.266462"/>
     <use style="fill:#1f77b4;stroke:#1f77b4;" x="259.623501" xlink:href="#mdba37d780c" y="46.519982"/>
     <use style="fill:#1f77b4;stroke:#1f77b4;" x="260.431099" xlink:href="#mdba37d780c" y="59.379617"/>
     <use style="fill:#1f77b4;stroke:#1f77b4;" x="261.238697" xlink:href="#mdba37d780c" y="50.751047"/>
     <use style="fill:#1f77b4;stroke:#1f77b4;" x="262.046296" xlink:href="#mdba37d780c" y="95.098077"/>
     <use style="fill:#1f77b4;stroke:#1f77b4;" x="262.853894" xlink:href="#mdba37d780c" y="26.743622"/>
     <use style="fill:#1f77b4;stroke:#1f77b4;" x="263.661493" xlink:href="#mdba37d780c" y="29.810123"/>
     <use style="fill:#1f77b4;stroke:#1f77b4;" x="264.469091" xlink:href="#mdba37d780c" y="98.548534"/>
     <use style="fill:#1f77b4;stroke:#1f77b4;" x="265.276689" xlink:href="#mdba37d780c" y="138.349307"/>
     <use style="fill:#1f77b4;stroke:#1f77b4;" x="266.084288" xlink:href="#mdba37d780c" y="27.097307"/>
     <use style="fill:#1f77b4;stroke:#1f77b4;" x="266.891886" xlink:href="#mdba37d780c" y="123.34248"/>
     <use style="fill:#1f77b4;stroke:#1f77b4;" x="267.699484" xlink:href="#mdba37d780c" y="31.480659"/>
     <use style="fill:#1f77b4;stroke:#1f77b4;" x="268.507083" xlink:href="#mdba37d780c" y="70.621302"/>
     <use style="fill:#1f77b4;stroke:#1f77b4;" x="269.314681" xlink:href="#mdba37d780c" y="59.825063"/>
     <use style="fill:#1f77b4;stroke:#1f77b4;" x="270.12228" xlink:href="#mdba37d780c" y="246.807208"/>
     <use style="fill:#1f77b4;stroke:#1f77b4;" x="270.929878" xlink:href="#mdba37d780c" y="32.004992"/>
     <use style="fill:#1f77b4;stroke:#1f77b4;" x="271.737476" xlink:href="#mdba37d780c" y="65.271131"/>
     <use style="fill:#1f77b4;stroke:#1f77b4;" x="272.545075" xlink:href="#mdba37d780c" y="100.802398"/>
     <use style="fill:#1f77b4;stroke:#1f77b4;" x="273.352673" xlink:href="#mdba37d780c" y="109.29077"/>
     <use style="fill:#1f77b4;stroke:#1f77b4;" x="274.160271" xlink:href="#mdba37d780c" y="26.561459"/>
     <use style="fill:#1f77b4;stroke:#1f77b4;" x="274.96787" xlink:href="#mdba37d780c" y="159.681986"/>
     <use style="fill:#1f77b4;stroke:#1f77b4;" x="275.775468" xlink:href="#mdba37d780c" y="110.996292"/>
     <use style="fill:#1f77b4;stroke:#1f77b4;" x="276.583066" xlink:href="#mdba37d780c" y="33.855683"/>
     <use style="fill:#1f77b4;stroke:#1f77b4;" x="277.390665" xlink:href="#mdba37d780c" y="49.504147"/>
     <use style="fill:#1f77b4;stroke:#1f77b4;" x="278.198263" xlink:href="#mdba37d780c" y="63.737555"/>
     <use style="fill:#1f77b4;stroke:#1f77b4;" x="279.005862" xlink:href="#mdba37d780c" y="28.659363"/>
     <use style="fill:#1f77b4;stroke:#1f77b4;" x="279.81346" xlink:href="#mdba37d780c" y="108.959646"/>
     <use style="fill:#1f77b4;stroke:#1f77b4;" x="280.621058" xlink:href="#mdba37d780c" y="85.529871"/>
     <use style="fill:#1f77b4;stroke:#1f77b4;" x="281.428657" xlink:href="#mdba37d780c" y="124.063726"/>
     <use style="fill:#1f77b4;stroke:#1f77b4;" x="282.236255" xlink:href="#mdba37d780c" y="25.106557"/>
     <use style="fill:#1f77b4;stroke:#1f77b4;" x="283.043853" xlink:href="#mdba37d780c" y="186.181078"/>
     <use style="fill:#1f77b4;stroke:#1f77b4;" x="283.851452" xlink:href="#mdba37d780c" y="29.664776"/>
     <use style="fill:#1f77b4;stroke:#1f77b4;" x="284.65905" xlink:href="#mdba37d780c" y="90.767515"/>
     <use style="fill:#1f77b4;stroke:#1f77b4;" x="285.466649" xlink:href="#mdba37d780c" y="35.203524"/>
     <use style="fill:#1f77b4;stroke:#1f77b4;" x="286.274247" xlink:href="#mdba37d780c" y="49.235755"/>
     <use style="fill:#1f77b4;stroke:#1f77b4;" x="287.081845" xlink:href="#mdba37d780c" y="50.622917"/>
     <use style="fill:#1f77b4;stroke:#1f77b4;" x="287.889444" xlink:href="#mdba37d780c" y="58.525714"/>
     <use style="fill:#1f77b4;stroke:#1f77b4;" x="288.697042" xlink:href="#mdba37d780c" y="29.120681"/>
     <use style="fill:#1f77b4;stroke:#1f77b4;" x="289.50464" xlink:href="#mdba37d780c" y="108.945443"/>
     <use style="fill:#1f77b4;stroke:#1f77b4;" x="290.312239" xlink:href="#mdba37d780c" y="62.917951"/>
     <use style="fill:#1f77b4;stroke:#1f77b4;" x="291.119837" xlink:href="#mdba37d780c" y="40.638294"/>
     <use style="fill:#1f77b4;stroke:#1f77b4;" x="291.927436" xlink:href="#mdba37d780c" y="25.388189"/>
     <use style="fill:#1f77b4;stroke:#1f77b4;" x="292.735034" xlink:href="#mdba37d780c" y="168.759063"/>
     <use style="fill:#1f77b4;stroke:#1f77b4;" x="293.542632" xlink:href="#mdba37d780c" y="30.361516"/>
     <use style="fill:#1f77b4;stroke:#1f77b4;" x="294.350231" xlink:href="#mdba37d780c" y="74.615917"/>
     <use style="fill:#1f77b4;stroke:#1f77b4;" x="295.157829" xlink:href="#mdba37d780c" y="32.470224"/>
     <use style="fill:#1f77b4;stroke:#1f77b4;" x="295.965427" xlink:href="#mdba37d780c" y="56.844779"/>
     <use style="fill:#1f77b4;stroke:#1f77b4;" x="296.773026" xlink:href="#mdba37d780c" y="41.718452"/>
     <use style="fill:#1f77b4;stroke:#1f77b4;" x="297.580624" xlink:href="#mdba37d780c" y="119.570487"/>
     <use style="fill:#1f77b4;stroke:#1f77b4;" x="298.388223" xlink:href="#mdba37d780c" y="29.713515"/>
     <use style="fill:#1f77b4;stroke:#1f77b4;" x="299.195821" xlink:href="#mdba37d780c" y="40.589228"/>
     <use style="fill:#1f77b4;stroke:#1f77b4;" x="300.003419" xlink:href="#mdba37d780c" y="139.861497"/>
     <use style="fill:#1f77b4;stroke:#1f77b4;" x="300.811018" xlink:href="#mdba37d780c" y="26.61868"/>
     <use style="fill:#1f77b4;stroke:#1f77b4;" x="301.618616" xlink:href="#mdba37d780c" y="121.483472"/>
     <use style="fill:#1f77b4;stroke:#1f77b4;" x="302.426214" xlink:href="#mdba37d780c" y="35.743066"/>
     <use style="fill:#1f77b4;stroke:#1f77b4;" x="303.233813" xlink:href="#mdba37d780c" y="31.162657"/>
     <use style="fill:#1f77b4;stroke:#1f77b4;" x="304.041411" xlink:href="#mdba37d780c" y="89.656149"/>
     <use style="fill:#1f77b4;stroke:#1f77b4;" x="304.849009" xlink:href="#mdba37d780c" y="166.73956"/>
     <use style="fill:#1f77b4;stroke:#1f77b4;" x="305.656608" xlink:href="#mdba37d780c" y="26.081518"/>
     <use style="fill:#1f77b4;stroke:#1f77b4;" x="306.464206" xlink:href="#mdba37d780c" y="143.846176"/>
     <use style="fill:#1f77b4;stroke:#1f77b4;" x="307.271805" xlink:href="#mdba37d780c" y="30.784016"/>
     <use style="fill:#1f77b4;stroke:#1f77b4;" x="308.079403" xlink:href="#mdba37d780c" y="73.481547"/>
     <use style="fill:#1f77b4;stroke:#1f77b4;" x="308.887001" xlink:href="#mdba37d780c" y="62.532643"/>
     <use style="fill:#1f77b4;stroke:#1f77b4;" x="309.6946" xlink:href="#mdba37d780c" y="26.569189"/>
     <use style="fill:#1f77b4;stroke:#1f77b4;" x="310.502198" xlink:href="#mdba37d780c" y="139.900081"/>
     <use style="fill:#1f77b4;stroke:#1f77b4;" x="311.309796" xlink:href="#mdba37d780c" y="31.557137"/>
     <use style="fill:#1f77b4;stroke:#1f77b4;" x="312.117395" xlink:href="#mdba37d780c" y="79.763159"/>
     <use style="fill:#1f77b4;stroke:#1f77b4;" x="312.924993" xlink:href="#mdba37d780c" y="35.923172"/>
     <use style="fill:#1f77b4;stroke:#1f77b4;" x="313.732592" xlink:href="#mdba37d780c" y="46.380396"/>
     <use style="fill:#1f77b4;stroke:#1f77b4;" x="314.54019" xlink:href="#mdba37d780c" y="81.907449"/>
     <use style="fill:#1f77b4;stroke:#1f77b4;" x="315.347788" xlink:href="#mdba37d780c" y="117.511414"/>
     <use style="fill:#1f77b4;stroke:#1f77b4;" x="316.155387" xlink:href="#mdba37d780c" y="35.376847"/>
     <use style="fill:#1f77b4;stroke:#1f77b4;" x="316.962985" xlink:href="#mdba37d780c" y="43.99365"/>
     <use style="fill:#1f77b4;stroke:#1f77b4;" x="317.770583" xlink:href="#mdba37d780c" y="116.044783"/>
     <use style="fill:#1f77b4;stroke:#1f77b4;" x="318.578182" xlink:href="#mdba37d780c" y="31.80149"/>
     <use style="fill:#1f77b4;stroke:#1f77b4;" x="319.38578" xlink:href="#mdba37d780c" y="60.544558"/>
     <use style="fill:#1f77b4;stroke:#1f77b4;" x="320.193379" xlink:href="#mdba37d780c" y="46.817628"/>
     <use style="fill:#1f77b4;stroke:#1f77b4;" x="321.000977" xlink:href="#mdba37d780c" y="31.7917"/>
     <use style="fill:#1f77b4;stroke:#1f77b4;" x="321.808575" xlink:href="#mdba37d780c" y="80.228682"/>
     <use style="fill:#1f77b4;stroke:#1f77b4;" x="322.616174" xlink:href="#mdba37d780c" y="93.228441"/>
     <use style="fill:#1f77b4;stroke:#1f77b4;" x="323.423772" xlink:href="#mdba37d780c" y="28.324031"/>
     <use style="fill:#1f77b4;stroke:#1f77b4;" x="324.23137" xlink:href="#mdba37d780c" y="114.905109"/>
     <use style="fill:#1f77b4;stroke:#1f77b4;" x="325.038969" xlink:href="#mdba37d780c" y="51.400788"/>
     <use style="fill:#1f77b4;stroke:#1f77b4;" x="325.846567" xlink:href="#mdba37d780c" y="59.53091"/>
     <use style="fill:#1f77b4;stroke:#1f77b4;" x="326.654166" xlink:href="#mdba37d780c" y="122.445368"/>
     <use style="fill:#1f77b4;stroke:#1f77b4;" x="327.461764" xlink:href="#mdba37d780c" y="26.591998"/>
     <use style="fill:#1f77b4;stroke:#1f77b4;" x="328.269362" xlink:href="#mdba37d780c" y="111.852627"/>
     <use style="fill:#1f77b4;stroke:#1f77b4;" x="329.076961" xlink:href="#mdba37d780c" y="28.967045"/>
     <use style="fill:#1f77b4;stroke:#1f77b4;" x="329.884559" xlink:href="#mdba37d780c" y="87.312182"/>
     <use style="fill:#1f77b4;stroke:#1f77b4;" x="330.692157" xlink:href="#mdba37d780c" y="30.424719"/>
     <use style="fill:#1f77b4;stroke:#1f77b4;" x="331.499756" xlink:href="#mdba37d780c" y="76.362765"/>
     <use style="fill:#1f77b4;stroke:#1f77b4;" x="332.307354" xlink:href="#mdba37d780c" y="53.379529"/>
     <use style="fill:#1f77b4;stroke:#1f77b4;" x="333.114953" xlink:href="#mdba37d780c" y="39.445247"/>
     <use style="fill:#1f77b4;stroke:#1f77b4;" x="333.922551" xlink:href="#mdba37d780c" y="38.107413"/>
     <use style="fill:#1f77b4;stroke:#1f77b4;" x="334.730149" xlink:href="#mdba37d780c" y="50.630766"/>
     <use style="fill:#1f77b4;stroke:#1f77b4;" x="335.537748" xlink:href="#mdba37d780c" y="41.309863"/>
     <use style="fill:#1f77b4;stroke:#1f77b4;" x="336.345346" xlink:href="#mdba37d780c" y="42.143091"/>
     <use style="fill:#1f77b4;stroke:#1f77b4;" x="337.152944" xlink:href="#mdba37d780c" y="38.985461"/>
     <use style="fill:#1f77b4;stroke:#1f77b4;" x="337.960543" xlink:href="#mdba37d780c" y="38.201129"/>
     <use style="fill:#1f77b4;stroke:#1f77b4;" x="338.768141" xlink:href="#mdba37d780c" y="44.704984"/>
     <use style="fill:#1f77b4;stroke:#1f77b4;" x="339.575739" xlink:href="#mdba37d780c" y="89.366241"/>
     <use style="fill:#1f77b4;stroke:#1f77b4;" x="340.383338" xlink:href="#mdba37d780c" y="38.913425"/>
     <use style="fill:#1f77b4;stroke:#1f77b4;" x="341.190936" xlink:href="#mdba37d780c" y="37.13432"/>
     <use style="fill:#1f77b4;stroke:#1f77b4;" x="341.998535" xlink:href="#mdba37d780c" y="49.093825"/>
     <use style="fill:#1f77b4;stroke:#1f77b4;" x="342.806133" xlink:href="#mdba37d780c" y="79.972914"/>
     <use style="fill:#1f77b4;stroke:#1f77b4;" x="343.613731" xlink:href="#mdba37d780c" y="29.056436"/>
     <use style="fill:#1f77b4;stroke:#1f77b4;" x="344.42133" xlink:href="#mdba37d780c" y="103.378857"/>
     <use style="fill:#1f77b4;stroke:#1f77b4;" x="345.228928" xlink:href="#mdba37d780c" y="105.845914"/>
     <use style="fill:#1f77b4;stroke:#1f77b4;" x="346.036526" xlink:href="#mdba37d780c" y="31.499382"/>
     <use style="fill:#1f77b4;stroke:#1f77b4;" x="346.844125" xlink:href="#mdba37d780c" y="65.595628"/>
     <use style="fill:#1f77b4;stroke:#1f77b4;" x="347.651723" xlink:href="#mdba37d780c" y="34.043885"/>
     <use style="fill:#1f77b4;stroke:#1f77b4;" x="348.459322" xlink:href="#mdba37d780c" y="52.578831"/>
     <use style="fill:#1f77b4;stroke:#1f77b4;" x="349.26692" xlink:href="#mdba37d780c" y="43.206103"/>
     <use style="fill:#1f77b4;stroke:#1f77b4;" x="350.074518" xlink:href="#mdba37d780c" y="127.978872"/>
     <use style="fill:#1f77b4;stroke:#1f77b4;" x="350.882117" xlink:href="#mdba37d780c" y="30.716747"/>
     <use style="fill:#1f77b4;stroke:#1f77b4;" x="351.689715" xlink:href="#mdba37d780c" y="81.99857"/>
     <use style="fill:#1f77b4;stroke:#1f77b4;" x="352.497313" xlink:href="#mdba37d780c" y="37.370453"/>
     <use style="fill:#1f77b4;stroke:#1f77b4;" x="353.304912" xlink:href="#mdba37d780c" y="44.683514"/>
     <use style="fill:#1f77b4;stroke:#1f77b4;" x="354.11251" xlink:href="#mdba37d780c" y="81.561097"/>
     <use style="fill:#1f77b4;stroke:#1f77b4;" x="354.920109" xlink:href="#mdba37d780c" y="31.833648"/>
     <use style="fill:#1f77b4;stroke:#1f77b4;" x="355.727707" xlink:href="#mdba37d780c" y="81.444062"/>
     <use style="fill:#1f77b4;stroke:#1f77b4;" x="356.535305" xlink:href="#mdba37d780c" y="36.307203"/>
     <use style="fill:#1f77b4;stroke:#1f77b4;" x="357.342904" xlink:href="#mdba37d780c" y="140.48399"/>
     <use style="fill:#1f77b4;stroke:#1f77b4;" x="358.150502" xlink:href="#mdba37d780c" y="58.1921"/>
     <use style="fill:#1f77b4;stroke:#1f77b4;" x="358.9581" xlink:href="#mdba37d780c" y="38.241414"/>
     <use style="fill:#1f77b4;stroke:#1f77b4;" x="359.765699" xlink:href="#mdba37d780c" y="203.729419"/>
     <use style="fill:#1f77b4;stroke:#1f77b4;" x="360.573297" xlink:href="#mdba37d780c" y="33.649117"/>
     <use style="fill:#1f77b4;stroke:#1f77b4;" x="361.380896" xlink:href="#mdba37d780c" y="94.546509"/>
     <use style="fill:#1f77b4;stroke:#1f77b4;" x="362.188494" xlink:href="#mdba37d780c" y="26.189463"/>
     <use style="fill:#1f77b4;stroke:#1f77b4;" x="362.996092" xlink:href="#mdba37d780c" y="133.254573"/>
     <use style="fill:#1f77b4;stroke:#1f77b4;" x="363.803691" xlink:href="#mdba37d780c" y="28.102445"/>
     <use style="fill:#1f77b4;stroke:#1f77b4;" x="364.611289" xlink:href="#mdba37d780c" y="104.677989"/>
     <use style="fill:#1f77b4;stroke:#1f77b4;" x="365.418887" xlink:href="#mdba37d780c" y="33.840411"/>
     <use style="fill:#1f77b4;stroke:#1f77b4;" x="366.226486" xlink:href="#mdba37d780c" y="120.935821"/>
     <use style="fill:#1f77b4;stroke:#1f77b4;" x="367.034084" xlink:href="#mdba37d780c" y="45.046658"/>
     <use style="fill:#1f77b4;stroke:#1f77b4;" x="367.841682" xlink:href="#mdba37d780c" y="97.500474"/>
     <use style="fill:#1f77b4;stroke:#1f77b4;" x="368.649281" xlink:href="#mdba37d780c" y="28.026513"/>
     <use style="fill:#1f77b4;stroke:#1f77b4;" x="369.456879" xlink:href="#mdba37d780c" y="125.998771"/>
     <use style="fill:#1f77b4;stroke:#1f77b4;" x="370.264478" xlink:href="#mdba37d780c" y="40.56885"/>
     <use style="fill:#1f77b4;stroke:#1f77b4;" x="371.072076" xlink:href="#mdba37d780c" y="39.372587"/>
     <use style="fill:#1f77b4;stroke:#1f77b4;" x="371.224081" xlink:href="#mdba37d780c" y="22383.514"/>
    </g>
   </g>
   <g id="line2d_30">
    <path clip-path="url(#pa7db5c95ad)" d="M 77.106269 177.077186 
L 78.721465 117.979592 
L 80.336662 64.918986 
" style="fill:none;stroke:#2ca02c;stroke-dasharray:1.5,2.475;stroke-dashoffset:0;stroke-width:1.5;"/>
    <defs>
     <path d="M -3 3 
L 3 -3 
M -3 -3 
L 3 3 
" id="m9bb75df791" style="stroke:#2ca02c;"/>
    </defs>
    <g clip-path="url(#pa7db5c95ad)">
     <use style="fill:#2ca02c;stroke:#2ca02c;" x="77.106269" xlink:href="#m9bb75df791" y="177.077186"/>
     <use style="fill:#2ca02c;stroke:#2ca02c;" x="78.721465" xlink:href="#m9bb75df791" y="117.979592"/>
     <use style="fill:#2ca02c;stroke:#2ca02c;" x="80.336662" xlink:href="#m9bb75df791" y="64.918986"/>
    </g>
   </g>
   <g id="line2d_31">
    <path clip-path="url(#pa7db5c95ad)" d="M 48.840326 267.030539 
L 56.560172 -1 
L 56.560172 -1 
" style="fill:none;stroke:#000000;stroke-dasharray:5.55,2.4;stroke-dashoffset:0;stroke-width:1.5;"/>
   </g>
   <g id="patch_3">
    <path d="M 31.8 273.312 
L 31.8 7.2 
" style="fill:none;stroke:#000000;stroke-linecap:square;stroke-linejoin:miter;stroke-width:0.8;"/>
   </g>
   <g id="patch_4">
    <path d="M 388.92 273.312 
L 388.92 7.2 
" style="fill:none;stroke:#000000;stroke-linecap:square;stroke-linejoin:miter;stroke-width:0.8;"/>
   </g>
   <g id="patch_5">
    <path d="M 31.8 273.312 
L 388.92 273.312 
" style="fill:none;stroke:#000000;stroke-linecap:square;stroke-linejoin:miter;stroke-width:0.8;"/>
   </g>
   <g id="patch_6">
    <path d="M 31.8 7.2 
L 388.92 7.2 
" style="fill:none;stroke:#000000;stroke-linecap:square;stroke-linejoin:miter;stroke-width:0.8;"/>
   </g>
   <g id="legend_1">
    <g id="patch_7">
     <path d="M 286.834063 268.312 
L 381.92 268.312 
Q 383.92 268.312 383.92 266.312 
L 383.92 223.25575 
Q 383.92 221.25575 381.92 221.25575 
L 286.834063 221.25575 
Q 284.834063 221.25575 284.834063 223.25575 
L 284.834063 266.312 
Q 284.834063 268.312 286.834063 268.312 
z
" style="fill:#ffffff;opacity:0.8;"/>
    </g>
    <g id="line2d_32">
     <path d="M 288.834063 229.354187 
L 308.834063 229.354187 
" style="fill:none;stroke:#1f77b4;stroke-linecap:square;stroke-width:1.5;"/>
    </g>
    <g id="line2d_33">
     <g>
      <use style="fill:#1f77b4;stroke:#1f77b4;" x="298.834063" xlink:href="#mdba37d780c" y="229.354187"/>
     </g>
    </g>
    <g id="text_13">
     <!-- APD$_n$ - APD$_\infty$ -->
     <defs>
      <path d="M 34.1875 63.1875 
L 20.796875 26.90625 
L 47.609375 26.90625 
z
M 28.609375 72.90625 
L 39.796875 72.90625 
L 67.578125 0 
L 57.328125 0 
L 50.6875 18.703125 
L 17.828125 18.703125 
L 11.1875 0 
L 0.78125 0 
z
" id="DejaVuSans-65"/>
      <path d="M 19.671875 64.796875 
L 19.671875 37.40625 
L 32.078125 37.40625 
Q 38.96875 37.40625 42.71875 40.96875 
Q 46.484375 44.53125 46.484375 51.125 
Q 46.484375 57.671875 42.71875 61.234375 
Q 38.96875 64.796875 32.078125 64.796875 
z
M 9.8125 72.90625 
L 32.078125 72.90625 
Q 44.34375 72.90625 50.609375 67.359375 
Q 56.890625 61.8125 56.890625 51.125 
Q 56.890625 40.328125 50.609375 34.8125 
Q 44.34375 29.296875 32.078125 29.296875 
L 19.671875 29.296875 
L 19.671875 0 
L 9.8125 0 
z
" id="DejaVuSans-80"/>
      <path d="M 19.671875 64.796875 
L 19.671875 8.109375 
L 31.59375 8.109375 
Q 46.6875 8.109375 53.6875 14.9375 
Q 60.6875 21.78125 60.6875 36.53125 
Q 60.6875 51.171875 53.6875 57.984375 
Q 46.6875 64.796875 31.59375 64.796875 
z
M 9.8125 72.90625 
L 30.078125 72.90625 
Q 51.265625 72.90625 61.171875 64.09375 
Q 71.09375 55.28125 71.09375 36.53125 
Q 71.09375 17.671875 61.125 8.828125 
Q 51.171875 0 30.078125 0 
L 9.8125 0 
z
" id="DejaVuSans-68"/>
      <path d="M 55.71875 33.015625 
L 49.3125 0 
L 40.28125 0 
L 46.6875 32.671875 
Q 47.125 34.96875 47.359375 36.71875 
Q 47.609375 38.484375 47.609375 39.5 
Q 47.609375 43.609375 45.015625 45.890625 
Q 42.4375 48.1875 37.796875 48.1875 
Q 30.5625 48.1875 25.34375 43.375 
Q 20.125 38.578125 18.5 30.328125 
L 12.5 0 
L 3.515625 0 
L 14.109375 54.6875 
L 23.09375 54.6875 
L 21.296875 46.09375 
Q 25.046875 50.828125 30.3125 53.40625 
Q 35.59375 56 41.40625 56 
Q 48.640625 56 52.609375 52.09375 
Q 56.59375 48.1875 56.59375 41.109375 
Q 56.59375 39.359375 56.375 37.359375 
Q 56.15625 35.359375 55.71875 33.015625 
z
" id="DejaVuSans-Oblique-110"/>
      <path id="DejaVuSans-32"/>
      <path d="M 4.890625 31.390625 
L 31.203125 31.390625 
L 31.203125 23.390625 
L 4.890625 23.390625 
z
" id="DejaVuSans-45"/>
      <path d="M 45.5625 17.046875 
Q 44.046875 18.796875 41.65625 22.90625 
Q 38.375 17.046875 35.5 14.453125 
Q 31.890625 11.328125 26.265625 11.328125 
Q 19.671875 11.328125 15.328125 16.265625 
Q 10.75 21.4375 10.75 29.984375 
Q 10.75 38.1875 15.328125 43.75 
Q 19.4375 48.6875 26.375 48.6875 
Q 29.9375 48.6875 32.5625 47.21875 
Q 35.640625 45.609375 37.75 42.828125 
Q 39.703125 40.328125 41.65625 36.96875 
Q 44.921875 42.828125 47.796875 45.40625 
Q 51.421875 48.53125 57.03125 48.53125 
Q 63.625 48.53125 67.96875 43.609375 
Q 72.5625 38.421875 72.5625 29.890625 
Q 72.5625 21.6875 67.96875 16.109375 
Q 63.875 11.1875 56.9375 11.1875 
Q 53.375 11.1875 50.734375 12.640625 
Q 48.09375 13.96875 45.5625 17.046875 
z
M 25.734375 17.71875 
Q 33.796875 17.71875 38.625 29.4375 
Q 32.421875 42.234375 25.734375 42.234375 
Q 20.84375 42.234375 18.359375 38.71875 
Q 15.671875 34.96875 15.671875 29.984375 
Q 15.671875 24.515625 18.359375 21.140625 
Q 21.09375 17.71875 25.734375 17.71875 
z
M 57.5625 42.140625 
Q 50.296875 42.140625 44.671875 30.421875 
Q 50.828125 17.625 57.5625 17.625 
Q 62.453125 17.625 64.9375 21.140625 
Q 67.625 24.90625 67.625 29.890625 
Q 67.625 35.359375 64.9375 38.71875 
Q 62.203125 42.140625 57.5625 42.140625 
z
" id="DejaVuSans-8734"/>
     </defs>
     <g transform="translate(316.834063 232.854187)scale(0.1 -0.1)">
      <use transform="translate(0 0.09375)" xlink:href="#DejaVuSans-65"/>
      <use transform="translate(68.408203 0.09375)" xlink:href="#DejaVuSans-80"/>
      <use transform="translate(128.710938 0.09375)" xlink:href="#DejaVuSans-68"/>
      <use transform="translate(206.669922 -16.3125)scale(0.7)" xlink:href="#DejaVuSans-Oblique-110"/>
      <use transform="translate(253.769531 0.09375)" xlink:href="#DejaVuSans-32"/>
      <use transform="translate(285.556641 0.09375)" xlink:href="#DejaVuSans-45"/>
      <use transform="translate(321.640625 0.09375)" xlink:href="#DejaVuSans-32"/>
      <use transform="translate(353.427734 0.09375)" xlink:href="#DejaVuSans-65"/>
      <use transform="translate(421.835938 0.09375)" xlink:href="#DejaVuSans-80"/>
      <use transform="translate(482.138672 0.09375)" xlink:href="#DejaVuSans-68"/>
      <use transform="translate(560.097656 -16.3125)scale(0.7)" xlink:href="#DejaVuSans-8734"/>
     </g>
    </g>
    <g id="line2d_34">
     <path d="M 288.834063 244.032312 
L 308.834063 244.032312 
" style="fill:none;stroke:#2ca02c;stroke-dasharray:1.5,2.475;stroke-dashoffset:0;stroke-width:1.5;"/>
    </g>
    <g id="line2d_35">
     <g>
      <use style="fill:#2ca02c;stroke:#2ca02c;" x="298.834063" xlink:href="#m9bb75df791" y="244.032312"/>
     </g>
    </g>
    <g id="text_14">
     <!-- linear region -->
     <defs>
      <path d="M 9.421875 75.984375 
L 18.40625 75.984375 
L 18.40625 0 
L 9.421875 0 
z
" id="DejaVuSans-108"/>
      <path d="M 9.421875 54.6875 
L 18.40625 54.6875 
L 18.40625 0 
L 9.421875 0 
z
M 9.421875 75.984375 
L 18.40625 75.984375 
L 18.40625 64.59375 
L 9.421875 64.59375 
z
" id="DejaVuSans-105"/>
      <path d="M 54.890625 33.015625 
L 54.890625 0 
L 45.90625 0 
L 45.90625 32.71875 
Q 45.90625 40.484375 42.875 44.328125 
Q 39.84375 48.1875 33.796875 48.1875 
Q 26.515625 48.1875 22.3125 43.546875 
Q 18.109375 38.921875 18.109375 30.90625 
L 18.109375 0 
L 9.078125 0 
L 9.078125 54.6875 
L 18.109375 54.6875 
L 18.109375 46.1875 
Q 21.34375 51.125 25.703125 53.5625 
Q 30.078125 56 35.796875 56 
Q 45.21875 56 50.046875 50.171875 
Q 54.890625 44.34375 54.890625 33.015625 
z
" id="DejaVuSans-110"/>
      <path d="M 56.203125 29.59375 
L 56.203125 25.203125 
L 14.890625 25.203125 
Q 15.484375 15.921875 20.484375 11.0625 
Q 25.484375 6.203125 34.421875 6.203125 
Q 39.59375 6.203125 44.453125 7.46875 
Q 49.3125 8.734375 54.109375 11.28125 
L 54.109375 2.78125 
Q 49.265625 0.734375 44.1875 -0.34375 
Q 39.109375 -1.421875 33.890625 -1.421875 
Q 20.796875 -1.421875 13.15625 6.1875 
Q 5.515625 13.8125 5.515625 26.8125 
Q 5.515625 40.234375 12.765625 48.109375 
Q 20.015625 56 32.328125 56 
Q 43.359375 56 49.78125 48.890625 
Q 56.203125 41.796875 56.203125 29.59375 
z
M 47.21875 32.234375 
Q 47.125 39.59375 43.09375 43.984375 
Q 39.0625 48.390625 32.421875 48.390625 
Q 24.90625 48.390625 20.390625 44.140625 
Q 15.875 39.890625 15.1875 32.171875 
z
" id="DejaVuSans-101"/>
      <path d="M 34.28125 27.484375 
Q 23.390625 27.484375 19.1875 25 
Q 14.984375 22.515625 14.984375 16.5 
Q 14.984375 11.71875 18.140625 8.90625 
Q 21.296875 6.109375 26.703125 6.109375 
Q 34.1875 6.109375 38.703125 11.40625 
Q 43.21875 16.703125 43.21875 25.484375 
L 43.21875 27.484375 
z
M 52.203125 31.203125 
L 52.203125 0 
L 43.21875 0 
L 43.21875 8.296875 
Q 40.140625 3.328125 35.546875 0.953125 
Q 30.953125 -1.421875 24.3125 -1.421875 
Q 15.921875 -1.421875 10.953125 3.296875 
Q 6 8.015625 6 15.921875 
Q 6 25.140625 12.171875 29.828125 
Q 18.359375 34.515625 30.609375 34.515625 
L 43.21875 34.515625 
L 43.21875 35.40625 
Q 43.21875 41.609375 39.140625 45 
Q 35.0625 48.390625 27.6875 48.390625 
Q 23 48.390625 18.546875 47.265625 
Q 14.109375 46.140625 10.015625 43.890625 
L 10.015625 52.203125 
Q 14.9375 54.109375 19.578125 55.046875 
Q 24.21875 56 28.609375 56 
Q 40.484375 56 46.34375 49.84375 
Q 52.203125 43.703125 52.203125 31.203125 
z
" id="DejaVuSans-97"/>
      <path d="M 41.109375 46.296875 
Q 39.59375 47.171875 37.8125 47.578125 
Q 36.03125 48 33.890625 48 
Q 26.265625 48 22.1875 43.046875 
Q 18.109375 38.09375 18.109375 28.8125 
L 18.109375 0 
L 9.078125 0 
L 9.078125 54.6875 
L 18.109375 54.6875 
L 18.109375 46.1875 
Q 20.953125 51.171875 25.484375 53.578125 
Q 30.03125 56 36.53125 56 
Q 37.453125 56 38.578125 55.875 
Q 39.703125 55.765625 41.0625 55.515625 
z
" id="DejaVuSans-114"/>
      <path d="M 45.40625 27.984375 
Q 45.40625 37.75 41.375 43.109375 
Q 37.359375 48.484375 30.078125 48.484375 
Q 22.859375 48.484375 18.828125 43.109375 
Q 14.796875 37.75 14.796875 27.984375 
Q 14.796875 18.265625 18.828125 12.890625 
Q 22.859375 7.515625 30.078125 7.515625 
Q 37.359375 7.515625 41.375 12.890625 
Q 45.40625 18.265625 45.40625 27.984375 
z
M 54.390625 6.78125 
Q 54.390625 -7.171875 48.1875 -13.984375 
Q 42 -20.796875 29.203125 -20.796875 
Q 24.46875 -20.796875 20.265625 -20.09375 
Q 16.0625 -19.390625 12.109375 -17.921875 
L 12.109375 -9.1875 
Q 16.0625 -11.328125 19.921875 -12.34375 
Q 23.78125 -13.375 27.78125 -13.375 
Q 36.625 -13.375 41.015625 -8.765625 
Q 45.40625 -4.15625 45.40625 5.171875 
L 45.40625 9.625 
Q 42.625 4.78125 38.28125 2.390625 
Q 33.9375 0 27.875 0 
Q 17.828125 0 11.671875 7.65625 
Q 5.515625 15.328125 5.515625 27.984375 
Q 5.515625 40.671875 11.671875 48.328125 
Q 17.828125 56 27.875 56 
Q 33.9375 56 38.28125 53.609375 
Q 42.625 51.21875 45.40625 46.390625 
L 45.40625 54.6875 
L 54.390625 54.6875 
z
" id="DejaVuSans-103"/>
      <path d="M 30.609375 48.390625 
Q 23.390625 48.390625 19.1875 42.75 
Q 14.984375 37.109375 14.984375 27.296875 
Q 14.984375 17.484375 19.15625 11.84375 
Q 23.34375 6.203125 30.609375 6.203125 
Q 37.796875 6.203125 41.984375 11.859375 
Q 46.1875 17.53125 46.1875 27.296875 
Q 46.1875 37.015625 41.984375 42.703125 
Q 37.796875 48.390625 30.609375 48.390625 
z
M 30.609375 56 
Q 42.328125 56 49.015625 48.375 
Q 55.71875 40.765625 55.71875 27.296875 
Q 55.71875 13.875 49.015625 6.21875 
Q 42.328125 -1.421875 30.609375 -1.421875 
Q 18.84375 -1.421875 12.171875 6.21875 
Q 5.515625 13.875 5.515625 27.296875 
Q 5.515625 40.765625 12.171875 48.375 
Q 18.84375 56 30.609375 56 
z
" id="DejaVuSans-111"/>
     </defs>
     <g transform="translate(316.834063 247.532312)scale(0.1 -0.1)">
      <use xlink:href="#DejaVuSans-108"/>
      <use x="27.783203" xlink:href="#DejaVuSans-105"/>
      <use x="55.566406" xlink:href="#DejaVuSans-110"/>
      <use x="118.945312" xlink:href="#DejaVuSans-101"/>
      <use x="180.46875" xlink:href="#DejaVuSans-97"/>
      <use x="241.748047" xlink:href="#DejaVuSans-114"/>
      <use x="282.861328" xlink:href="#DejaVuSans-32"/>
      <use x="314.648438" xlink:href="#DejaVuSans-114"/>
      <use x="353.511719" xlink:href="#DejaVuSans-101"/>
      <use x="415.035156" xlink:href="#DejaVuSans-103"/>
      <use x="478.511719" xlink:href="#DejaVuSans-105"/>
      <use x="506.294922" xlink:href="#DejaVuSans-111"/>
      <use x="567.476562" xlink:href="#DejaVuSans-110"/>
     </g>
    </g>
    <g id="line2d_36">
     <path d="M 288.834063 258.712 
L 308.834063 258.712 
" style="fill:none;stroke:#000000;stroke-dasharray:5.55,2.4;stroke-dashoffset:0;stroke-width:1.5;"/>
    </g>
    <g id="line2d_37"/>
    <g id="text_15">
     <!-- $ \exp(0.545 k)$ -->
     <defs>
      <path d="M 54.890625 54.6875 
L 35.109375 28.078125 
L 55.90625 0 
L 45.3125 0 
L 29.390625 21.484375 
L 13.484375 0 
L 2.875 0 
L 24.125 28.609375 
L 4.6875 54.6875 
L 15.28125 54.6875 
L 29.78125 35.203125 
L 44.28125 54.6875 
z
" id="DejaVuSans-120"/>
      <path d="M 18.109375 8.203125 
L 18.109375 -20.796875 
L 9.078125 -20.796875 
L 9.078125 54.6875 
L 18.109375 54.6875 
L 18.109375 46.390625 
Q 20.953125 51.265625 25.265625 53.625 
Q 29.59375 56 35.59375 56 
Q 45.5625 56 51.78125 48.09375 
Q 58.015625 40.1875 58.015625 27.296875 
Q 58.015625 14.40625 51.78125 6.484375 
Q 45.5625 -1.421875 35.59375 -1.421875 
Q 29.59375 -1.421875 25.265625 0.953125 
Q 20.953125 3.328125 18.109375 8.203125 
z
M 48.6875 27.296875 
Q 48.6875 37.203125 44.609375 42.84375 
Q 40.53125 48.484375 33.40625 48.484375 
Q 26.265625 48.484375 22.1875 42.84375 
Q 18.109375 37.203125 18.109375 27.296875 
Q 18.109375 17.390625 22.1875 11.75 
Q 26.265625 6.109375 33.40625 6.109375 
Q 40.53125 6.109375 44.609375 11.75 
Q 48.6875 17.390625 48.6875 27.296875 
z
" id="DejaVuSans-112"/>
      <path d="M 31 75.875 
Q 24.46875 64.65625 21.28125 53.65625 
Q 18.109375 42.671875 18.109375 31.390625 
Q 18.109375 20.125 21.3125 9.0625 
Q 24.515625 -2 31 -13.1875 
L 23.1875 -13.1875 
Q 15.875 -1.703125 12.234375 9.375 
Q 8.59375 20.453125 8.59375 31.390625 
Q 8.59375 42.28125 12.203125 53.3125 
Q 15.828125 64.359375 23.1875 75.875 
z
" id="DejaVuSans-40"/>
      <path d="M 10.6875 12.40625 
L 21 12.40625 
L 21 0 
L 10.6875 0 
z
" id="DejaVuSans-46"/>
      <path d="M 8.015625 75.875 
L 15.828125 75.875 
Q 23.140625 64.359375 26.78125 53.3125 
Q 30.421875 42.28125 30.421875 31.390625 
Q 30.421875 20.453125 26.78125 9.375 
Q 23.140625 -1.703125 15.828125 -13.1875 
L 8.015625 -13.1875 
Q 14.5 -2 17.703125 9.0625 
Q 20.90625 20.125 20.90625 31.390625 
Q 20.90625 42.671875 17.703125 53.65625 
Q 14.5 64.65625 8.015625 75.875 
z
" id="DejaVuSans-41"/>
     </defs>
     <g transform="translate(316.834063 262.212)scale(0.1 -0.1)">
      <use transform="translate(0 0.015625)" xlink:href="#DejaVuSans-101"/>
      <use transform="translate(61.523438 0.015625)" xlink:href="#DejaVuSans-120"/>
      <use transform="translate(120.703125 0.015625)" xlink:href="#DejaVuSans-112"/>
      <use transform="translate(184.179688 0.015625)" xlink:href="#DejaVuSans-40"/>
      <use transform="translate(223.193359 0.015625)" xlink:href="#DejaVuSans-48"/>
      <use transform="translate(286.816406 0.015625)" xlink:href="#DejaVuSans-46"/>
      <use transform="translate(318.603516 0.015625)" xlink:href="#DejaVuSans-53"/>
      <use transform="translate(382.226562 0.015625)" xlink:href="#DejaVuSans-52"/>
      <use transform="translate(445.849609 0.015625)" xlink:href="#DejaVuSans-53"/>
      <use transform="translate(509.472656 0.015625)" xlink:href="#DejaVuSans-Oblique-107"/>
      <use transform="translate(567.382812 0.015625)" xlink:href="#DejaVuSans-41"/>
     </g>
    </g>
   </g>
  </g>
 </g>
 <defs>
  <clipPath id="pa7db5c95ad">
   <rect height="266.112" width="357.12" x="31.8" y="7.2"/>
  </clipPath>
 </defs>
</svg>
