<?xml version="1.0" encoding="utf-8" standalone="no"?>
<!DOCTYPE svg PUBLIC "-//W3C//DTD SVG 1.1//EN"
  "http://www.w3.org/Graphics/SVG/1.1/DTD/svg11.dtd">
<!-- Created with matplotlib (https://matplotlib.org/) -->
<svg height="310.86825pt" version="1.1" viewBox="0 0 402.02 310.86825" width="402.02pt" xmlns="http://www.w3.org/2000/svg" xmlns:xlink="http://www.w3.org/1999/xlink">
 <defs>
  <style type="text/css">
*{stroke-linecap:butt;stroke-linejoin:round;}
  </style>
 </defs>
 <g id="figure_1">
  <g id="patch_1">
   <path d="M 0 310.86825 
L 402.02 310.86825 
L 402.02 0 
L 0 0 
z
" style="fill:#ffffff;"/>
  </g>
  <g id="axes_1">
   <g id="patch_2">
    <path d="M 37.7 273.312 
L 394.82 273.312 
L 394.82 7.2 
L 37.7 7.2 
z
" style="fill:#ffffff;"/>
   </g>
   <g id="matplotlib.axis_1">
    <g id="xtick_1">
     <g id="line2d_1">
      <defs>
       <path d="M 0 0 
L 0 3.5 
" id="mc84cbe55b4" style="stroke:#000000;stroke-width:0.8;"/>
      </defs>
      <g>
       <use style="stroke:#000000;stroke-width:0.8;" x="53.932727" xlink:href="#mc84cbe55b4" y="273.312"/>
      </g>
     </g>
     <g id="text_1">
      <!-- 0 -->
      <defs>
       <path d="M 31.78125 66.40625 
Q 24.171875 66.40625 20.328125 58.90625 
Q 16.5 51.421875 16.5 36.375 
Q 16.5 21.390625 20.328125 13.890625 
Q 24.171875 6.390625 31.78125 6.390625 
Q 39.453125 6.390625 43.28125 13.890625 
Q 47.125 21.390625 47.125 36.375 
Q 47.125 51.421875 43.28125 58.90625 
Q 39.453125 66.40625 31.78125 66.40625 
z
M 31.78125 74.21875 
Q 44.046875 74.21875 50.515625 64.515625 
Q 56.984375 54.828125 56.984375 36.375 
Q 56.984375 17.96875 50.515625 8.265625 
Q 44.046875 -1.421875 31.78125 -1.421875 
Q 19.53125 -1.421875 13.0625 8.265625 
Q 6.59375 17.96875 6.59375 36.375 
Q 6.59375 54.828125 13.0625 64.515625 
Q 19.53125 74.21875 31.78125 74.21875 
z
" id="DejaVuSans-48"/>
      </defs>
      <g transform="translate(50.751477 287.910437)scale(0.1 -0.1)">
       <use xlink:href="#DejaVuSans-48"/>
      </g>
     </g>
    </g>
    <g id="xtick_2">
     <g id="line2d_2">
      <g>
       <use style="stroke:#000000;stroke-width:0.8;" x="97.569091" xlink:href="#mc84cbe55b4" y="273.312"/>
      </g>
     </g>
     <g id="text_2">
      <!-- 25 -->
      <defs>
       <path d="M 19.1875 8.296875 
L 53.609375 8.296875 
L 53.609375 0 
L 7.328125 0 
L 7.328125 8.296875 
Q 12.9375 14.109375 22.625 23.890625 
Q 32.328125 33.6875 34.8125 36.53125 
Q 39.546875 41.84375 41.421875 45.53125 
Q 43.3125 49.21875 43.3125 52.78125 
Q 43.3125 58.59375 39.234375 62.25 
Q 35.15625 65.921875 28.609375 65.921875 
Q 23.96875 65.921875 18.8125 64.3125 
Q 13.671875 62.703125 7.8125 59.421875 
L 7.8125 69.390625 
Q 13.765625 71.78125 18.9375 73 
Q 24.125 74.21875 28.421875 74.21875 
Q 39.75 74.21875 46.484375 68.546875 
Q 53.21875 62.890625 53.21875 53.421875 
Q 53.21875 48.921875 51.53125 44.890625 
Q 49.859375 40.875 45.40625 35.40625 
Q 44.1875 33.984375 37.640625 27.21875 
Q 31.109375 20.453125 19.1875 8.296875 
z
" id="DejaVuSans-50"/>
       <path d="M 10.796875 72.90625 
L 49.515625 72.90625 
L 49.515625 64.59375 
L 19.828125 64.59375 
L 19.828125 46.734375 
Q 21.96875 47.46875 24.109375 47.828125 
Q 26.265625 48.1875 28.421875 48.1875 
Q 40.625 48.1875 47.75 41.5 
Q 54.890625 34.8125 54.890625 23.390625 
Q 54.890625 11.625 47.5625 5.09375 
Q 40.234375 -1.421875 26.90625 -1.421875 
Q 22.3125 -1.421875 17.546875 -0.640625 
Q 12.796875 0.140625 7.71875 1.703125 
L 7.71875 11.625 
Q 12.109375 9.234375 16.796875 8.0625 
Q 21.484375 6.890625 26.703125 6.890625 
Q 35.15625 6.890625 40.078125 11.328125 
Q 45.015625 15.765625 45.015625 23.390625 
Q 45.015625 31 40.078125 35.4375 
Q 35.15625 39.890625 26.703125 39.890625 
Q 22.75 39.890625 18.8125 39.015625 
Q 14.890625 38.140625 10.796875 36.28125 
z
" id="DejaVuSans-53"/>
      </defs>
      <g transform="translate(91.206591 287.910437)scale(0.1 -0.1)">
       <use xlink:href="#DejaVuSans-50"/>
       <use x="63.623047" xlink:href="#DejaVuSans-53"/>
      </g>
     </g>
    </g>
    <g id="xtick_3">
     <g id="line2d_3">
      <g>
       <use style="stroke:#000000;stroke-width:0.8;" x="141.205455" xlink:href="#mc84cbe55b4" y="273.312"/>
      </g>
     </g>
     <g id="text_3">
      <!-- 50 -->
      <g transform="translate(134.842955 287.910437)scale(0.1 -0.1)">
       <use xlink:href="#DejaVuSans-53"/>
       <use x="63.623047" xlink:href="#DejaVuSans-48"/>
      </g>
     </g>
    </g>
    <g id="xtick_4">
     <g id="line2d_4">
      <g>
       <use style="stroke:#000000;stroke-width:0.8;" x="184.841818" xlink:href="#mc84cbe55b4" y="273.312"/>
      </g>
     </g>
     <g id="text_4">
      <!-- 75 -->
      <defs>
       <path d="M 8.203125 72.90625 
L 55.078125 72.90625 
L 55.078125 68.703125 
L 28.609375 0 
L 18.3125 0 
L 43.21875 64.59375 
L 8.203125 64.59375 
z
" id="DejaVuSans-55"/>
      </defs>
      <g transform="translate(178.479318 287.910437)scale(0.1 -0.1)">
       <use xlink:href="#DejaVuSans-55"/>
       <use x="63.623047" xlink:href="#DejaVuSans-53"/>
      </g>
     </g>
    </g>
    <g id="xtick_5">
     <g id="line2d_5">
      <g>
       <use style="stroke:#000000;stroke-width:0.8;" x="228.478182" xlink:href="#mc84cbe55b4" y="273.312"/>
      </g>
     </g>
     <g id="text_5">
      <!-- 100 -->
      <defs>
       <path d="M 12.40625 8.296875 
L 28.515625 8.296875 
L 28.515625 63.921875 
L 10.984375 60.40625 
L 10.984375 69.390625 
L 28.421875 72.90625 
L 38.28125 72.90625 
L 38.28125 8.296875 
L 54.390625 8.296875 
L 54.390625 0 
L 12.40625 0 
z
" id="DejaVuSans-49"/>
      </defs>
      <g transform="translate(218.934432 287.910437)scale(0.1 -0.1)">
       <use xlink:href="#DejaVuSans-49"/>
       <use x="63.623047" xlink:href="#DejaVuSans-48"/>
       <use x="127.246094" xlink:href="#DejaVuSans-48"/>
      </g>
     </g>
    </g>
    <g id="xtick_6">
     <g id="line2d_6">
      <g>
       <use style="stroke:#000000;stroke-width:0.8;" x="272.114545" xlink:href="#mc84cbe55b4" y="273.312"/>
      </g>
     </g>
     <g id="text_6">
      <!-- 125 -->
      <g transform="translate(262.570795 287.910437)scale(0.1 -0.1)">
       <use xlink:href="#DejaVuSans-49"/>
       <use x="63.623047" xlink:href="#DejaVuSans-50"/>
       <use x="127.246094" xlink:href="#DejaVuSans-53"/>
      </g>
     </g>
    </g>
    <g id="xtick_7">
     <g id="line2d_7">
      <g>
       <use style="stroke:#000000;stroke-width:0.8;" x="315.750909" xlink:href="#mc84cbe55b4" y="273.312"/>
      </g>
     </g>
     <g id="text_7">
      <!-- 150 -->
      <g transform="translate(306.207159 287.910437)scale(0.1 -0.1)">
       <use xlink:href="#DejaVuSans-49"/>
       <use x="63.623047" xlink:href="#DejaVuSans-53"/>
       <use x="127.246094" xlink:href="#DejaVuSans-48"/>
      </g>
     </g>
    </g>
    <g id="xtick_8">
     <g id="line2d_8">
      <g>
       <use style="stroke:#000000;stroke-width:0.8;" x="359.387273" xlink:href="#mc84cbe55b4" y="273.312"/>
      </g>
     </g>
     <g id="text_8">
      <!-- 175 -->
      <g transform="translate(349.843523 287.910437)scale(0.1 -0.1)">
       <use xlink:href="#DejaVuSans-49"/>
       <use x="63.623047" xlink:href="#DejaVuSans-55"/>
       <use x="127.246094" xlink:href="#DejaVuSans-53"/>
      </g>
     </g>
    </g>
    <g id="text_9">
     <!-- $ k $ -->
     <defs>
      <path d="M 18.3125 75.984375 
L 27.296875 75.984375 
L 18.703125 31.6875 
L 49.515625 54.6875 
L 61.1875 54.6875 
L 26.8125 28.515625 
L 51.90625 0 
L 41.015625 0 
L 17.671875 26.703125 
L 12.5 0 
L 3.515625 0 
z
" id="DejaVuSans-Oblique-107"/>
     </defs>
     <g transform="translate(213.36 301.588562)scale(0.1 -0.1)">
      <use transform="translate(0 0.015625)" xlink:href="#DejaVuSans-Oblique-107"/>
     </g>
    </g>
   </g>
   <g id="matplotlib.axis_2">
    <g id="ytick_1">
     <g id="line2d_9">
      <defs>
       <path d="M 0 0 
L -3.5 0 
" id="mde572f5092" style="stroke:#000000;stroke-width:0.8;"/>
      </defs>
      <g>
       <use style="stroke:#000000;stroke-width:0.8;" x="37.7" xlink:href="#mde572f5092" y="256.449902"/>
      </g>
     </g>
     <g id="text_10">
      <!-- $\mathdefault{10^{-5}}$ -->
      <defs>
       <path d="M 10.59375 35.5 
L 73.1875 35.5 
L 73.1875 27.203125 
L 10.59375 27.203125 
z
" id="DejaVuSans-8722"/>
      </defs>
      <g transform="translate(7.2 260.24912)scale(0.1 -0.1)">
       <use transform="translate(0 0.684375)" xlink:href="#DejaVuSans-49"/>
       <use transform="translate(63.623047 0.684375)" xlink:href="#DejaVuSans-48"/>
       <use transform="translate(128.203125 38.965625)scale(0.7)" xlink:href="#DejaVuSans-8722"/>
       <use transform="translate(186.855469 38.965625)scale(0.7)" xlink:href="#DejaVuSans-53"/>
      </g>
     </g>
    </g>
    <g id="ytick_2">
     <g id="line2d_10">
      <g>
       <use style="stroke:#000000;stroke-width:0.8;" x="37.7" xlink:href="#mde572f5092" y="218.865501"/>
      </g>
     </g>
     <g id="text_11">
      <!-- $\mathdefault{10^{-4}}$ -->
      <defs>
       <path d="M 37.796875 64.3125 
L 12.890625 25.390625 
L 37.796875 25.390625 
z
M 35.203125 72.90625 
L 47.609375 72.90625 
L 47.609375 25.390625 
L 58.015625 25.390625 
L 58.015625 17.1875 
L 47.609375 17.1875 
L 47.609375 0 
L 37.796875 0 
L 37.796875 17.1875 
L 4.890625 17.1875 
L 4.890625 26.703125 
z
" id="DejaVuSans-52"/>
      </defs>
      <g transform="translate(7.2 222.66472)scale(0.1 -0.1)">
       <use transform="translate(0 0.684375)" xlink:href="#DejaVuSans-49"/>
       <use transform="translate(63.623047 0.684375)" xlink:href="#DejaVuSans-48"/>
       <use transform="translate(128.203125 38.965625)scale(0.7)" xlink:href="#DejaVuSans-8722"/>
       <use transform="translate(186.855469 38.965625)scale(0.7)" xlink:href="#DejaVuSans-52"/>
      </g>
     </g>
    </g>
    <g id="ytick_3">
     <g id="line2d_11">
      <g>
       <use style="stroke:#000000;stroke-width:0.8;" x="37.7" xlink:href="#mde572f5092" y="181.281101"/>
      </g>
     </g>
     <g id="text_12">
      <!-- $\mathdefault{10^{-3}}$ -->
      <defs>
       <path d="M 40.578125 39.3125 
Q 47.65625 37.796875 51.625 33 
Q 55.609375 28.21875 55.609375 21.1875 
Q 55.609375 10.40625 48.1875 4.484375 
Q 40.765625 -1.421875 27.09375 -1.421875 
Q 22.515625 -1.421875 17.65625 -0.515625 
Q 12.796875 0.390625 7.625 2.203125 
L 7.625 11.71875 
Q 11.71875 9.328125 16.59375 8.109375 
Q 21.484375 6.890625 26.8125 6.890625 
Q 36.078125 6.890625 40.9375 10.546875 
Q 45.796875 14.203125 45.796875 21.1875 
Q 45.796875 27.640625 41.28125 31.265625 
Q 36.765625 34.90625 28.71875 34.90625 
L 20.21875 34.90625 
L 20.21875 43.015625 
L 29.109375 43.015625 
Q 36.375 43.015625 40.234375 45.921875 
Q 44.09375 48.828125 44.09375 54.296875 
Q 44.09375 59.90625 40.109375 62.90625 
Q 36.140625 65.921875 28.71875 65.921875 
Q 24.65625 65.921875 20.015625 65.03125 
Q 15.375 64.15625 9.8125 62.3125 
L 9.8125 71.09375 
Q 15.4375 72.65625 20.34375 73.4375 
Q 25.25 74.21875 29.59375 74.21875 
Q 40.828125 74.21875 47.359375 69.109375 
Q 53.90625 64.015625 53.90625 55.328125 
Q 53.90625 49.265625 50.4375 45.09375 
Q 46.96875 40.921875 40.578125 39.3125 
z
" id="DejaVuSans-51"/>
      </defs>
      <g transform="translate(7.2 185.08032)scale(0.1 -0.1)">
       <use transform="translate(0 0.765625)" xlink:href="#DejaVuSans-49"/>
       <use transform="translate(63.623047 0.765625)" xlink:href="#DejaVuSans-48"/>
       <use transform="translate(128.203125 39.046875)scale(0.7)" xlink:href="#DejaVuSans-8722"/>
       <use transform="translate(186.855469 39.046875)scale(0.7)" xlink:href="#DejaVuSans-51"/>
      </g>
     </g>
    </g>
    <g id="ytick_4">
     <g id="line2d_12">
      <g>
       <use style="stroke:#000000;stroke-width:0.8;" x="37.7" xlink:href="#mde572f5092" y="143.696701"/>
      </g>
     </g>
     <g id="text_13">
      <!-- $\mathdefault{10^{-2}}$ -->
      <g transform="translate(7.2 147.495919)scale(0.1 -0.1)">
       <use transform="translate(0 0.765625)" xlink:href="#DejaVuSans-49"/>
       <use transform="translate(63.623047 0.765625)" xlink:href="#DejaVuSans-48"/>
       <use transform="translate(128.203125 39.046875)scale(0.7)" xlink:href="#DejaVuSans-8722"/>
       <use transform="translate(186.855469 39.046875)scale(0.7)" xlink:href="#DejaVuSans-50"/>
      </g>
     </g>
    </g>
    <g id="ytick_5">
     <g id="line2d_13">
      <g>
       <use style="stroke:#000000;stroke-width:0.8;" x="37.7" xlink:href="#mde572f5092" y="106.1123"/>
      </g>
     </g>
     <g id="text_14">
      <!-- $\mathdefault{10^{-1}}$ -->
      <g transform="translate(7.2 109.911519)scale(0.1 -0.1)">
       <use transform="translate(0 0.684375)" xlink:href="#DejaVuSans-49"/>
       <use transform="translate(63.623047 0.684375)" xlink:href="#DejaVuSans-48"/>
       <use transform="translate(128.203125 38.965625)scale(0.7)" xlink:href="#DejaVuSans-8722"/>
       <use transform="translate(186.855469 38.965625)scale(0.7)" xlink:href="#DejaVuSans-49"/>
      </g>
     </g>
    </g>
    <g id="ytick_6">
     <g id="line2d_14">
      <g>
       <use style="stroke:#000000;stroke-width:0.8;" x="37.7" xlink:href="#mde572f5092" y="68.5279"/>
      </g>
     </g>
     <g id="text_15">
      <!-- $\mathdefault{10^{0}}$ -->
      <g transform="translate(13.1 72.327119)scale(0.1 -0.1)">
       <use transform="translate(0 0.765625)" xlink:href="#DejaVuSans-49"/>
       <use transform="translate(63.623047 0.765625)" xlink:href="#DejaVuSans-48"/>
       <use transform="translate(128.203125 39.046875)scale(0.7)" xlink:href="#DejaVuSans-48"/>
      </g>
     </g>
    </g>
    <g id="ytick_7">
     <g id="line2d_15">
      <g>
       <use style="stroke:#000000;stroke-width:0.8;" x="37.7" xlink:href="#mde572f5092" y="30.9435"/>
      </g>
     </g>
     <g id="text_16">
      <!-- $\mathdefault{10^{1}}$ -->
      <g transform="translate(13.1 34.742718)scale(0.1 -0.1)">
       <use transform="translate(0 0.684375)" xlink:href="#DejaVuSans-49"/>
       <use transform="translate(63.623047 0.684375)" xlink:href="#DejaVuSans-48"/>
       <use transform="translate(128.203125 38.965625)scale(0.7)" xlink:href="#DejaVuSans-49"/>
      </g>
     </g>
    </g>
    <g id="ytick_8">
     <g id="line2d_16">
      <defs>
       <path d="M 0 0 
L -2 0 
" id="m95ad663612" style="stroke:#000000;stroke-width:0.6;"/>
      </defs>
      <g>
       <use style="stroke:#000000;stroke-width:0.6;" x="37.7" xlink:href="#m95ad663612" y="271.406238"/>
      </g>
     </g>
    </g>
    <g id="ytick_9">
     <g id="line2d_17">
      <g>
       <use style="stroke:#000000;stroke-width:0.6;" x="37.7" xlink:href="#m95ad663612" y="267.763934"/>
      </g>
     </g>
    </g>
    <g id="ytick_10">
     <g id="line2d_18">
      <g>
       <use style="stroke:#000000;stroke-width:0.6;" x="37.7" xlink:href="#m95ad663612" y="264.787954"/>
      </g>
     </g>
    </g>
    <g id="ytick_11">
     <g id="line2d_19">
      <g>
       <use style="stroke:#000000;stroke-width:0.6;" x="37.7" xlink:href="#m95ad663612" y="262.271799"/>
      </g>
     </g>
    </g>
    <g id="ytick_12">
     <g id="line2d_20">
      <g>
       <use style="stroke:#000000;stroke-width:0.6;" x="37.7" xlink:href="#m95ad663612" y="260.092206"/>
      </g>
     </g>
    </g>
    <g id="ytick_13">
     <g id="line2d_21">
      <g>
       <use style="stroke:#000000;stroke-width:0.6;" x="37.7" xlink:href="#m95ad663612" y="258.16967"/>
      </g>
     </g>
    </g>
    <g id="ytick_14">
     <g id="line2d_22">
      <g>
       <use style="stroke:#000000;stroke-width:0.6;" x="37.7" xlink:href="#m95ad663612" y="245.13587"/>
      </g>
     </g>
    </g>
    <g id="ytick_15">
     <g id="line2d_23">
      <g>
       <use style="stroke:#000000;stroke-width:0.6;" x="37.7" xlink:href="#m95ad663612" y="238.517585"/>
      </g>
     </g>
    </g>
    <g id="ytick_16">
     <g id="line2d_24">
      <g>
       <use style="stroke:#000000;stroke-width:0.6;" x="37.7" xlink:href="#m95ad663612" y="233.821838"/>
      </g>
     </g>
    </g>
    <g id="ytick_17">
     <g id="line2d_25">
      <g>
       <use style="stroke:#000000;stroke-width:0.6;" x="37.7" xlink:href="#m95ad663612" y="230.179533"/>
      </g>
     </g>
    </g>
    <g id="ytick_18">
     <g id="line2d_26">
      <g>
       <use style="stroke:#000000;stroke-width:0.6;" x="37.7" xlink:href="#m95ad663612" y="227.203554"/>
      </g>
     </g>
    </g>
    <g id="ytick_19">
     <g id="line2d_27">
      <g>
       <use style="stroke:#000000;stroke-width:0.6;" x="37.7" xlink:href="#m95ad663612" y="224.687399"/>
      </g>
     </g>
    </g>
    <g id="ytick_20">
     <g id="line2d_28">
      <g>
       <use style="stroke:#000000;stroke-width:0.6;" x="37.7" xlink:href="#m95ad663612" y="222.507806"/>
      </g>
     </g>
    </g>
    <g id="ytick_21">
     <g id="line2d_29">
      <g>
       <use style="stroke:#000000;stroke-width:0.6;" x="37.7" xlink:href="#m95ad663612" y="220.585269"/>
      </g>
     </g>
    </g>
    <g id="ytick_22">
     <g id="line2d_30">
      <g>
       <use style="stroke:#000000;stroke-width:0.6;" x="37.7" xlink:href="#m95ad663612" y="207.551469"/>
      </g>
     </g>
    </g>
    <g id="ytick_23">
     <g id="line2d_31">
      <g>
       <use style="stroke:#000000;stroke-width:0.6;" x="37.7" xlink:href="#m95ad663612" y="200.933185"/>
      </g>
     </g>
    </g>
    <g id="ytick_24">
     <g id="line2d_32">
      <g>
       <use style="stroke:#000000;stroke-width:0.6;" x="37.7" xlink:href="#m95ad663612" y="196.237438"/>
      </g>
     </g>
    </g>
    <g id="ytick_25">
     <g id="line2d_33">
      <g>
       <use style="stroke:#000000;stroke-width:0.6;" x="37.7" xlink:href="#m95ad663612" y="192.595133"/>
      </g>
     </g>
    </g>
    <g id="ytick_26">
     <g id="line2d_34">
      <g>
       <use style="stroke:#000000;stroke-width:0.6;" x="37.7" xlink:href="#m95ad663612" y="189.619153"/>
      </g>
     </g>
    </g>
    <g id="ytick_27">
     <g id="line2d_35">
      <g>
       <use style="stroke:#000000;stroke-width:0.6;" x="37.7" xlink:href="#m95ad663612" y="187.102998"/>
      </g>
     </g>
    </g>
    <g id="ytick_28">
     <g id="line2d_36">
      <g>
       <use style="stroke:#000000;stroke-width:0.6;" x="37.7" xlink:href="#m95ad663612" y="184.923406"/>
      </g>
     </g>
    </g>
    <g id="ytick_29">
     <g id="line2d_37">
      <g>
       <use style="stroke:#000000;stroke-width:0.6;" x="37.7" xlink:href="#m95ad663612" y="183.000869"/>
      </g>
     </g>
    </g>
    <g id="ytick_30">
     <g id="line2d_38">
      <g>
       <use style="stroke:#000000;stroke-width:0.6;" x="37.7" xlink:href="#m95ad663612" y="169.967069"/>
      </g>
     </g>
    </g>
    <g id="ytick_31">
     <g id="line2d_39">
      <g>
       <use style="stroke:#000000;stroke-width:0.6;" x="37.7" xlink:href="#m95ad663612" y="163.348785"/>
      </g>
     </g>
    </g>
    <g id="ytick_32">
     <g id="line2d_40">
      <g>
       <use style="stroke:#000000;stroke-width:0.6;" x="37.7" xlink:href="#m95ad663612" y="158.653037"/>
      </g>
     </g>
    </g>
    <g id="ytick_33">
     <g id="line2d_41">
      <g>
       <use style="stroke:#000000;stroke-width:0.6;" x="37.7" xlink:href="#m95ad663612" y="155.010733"/>
      </g>
     </g>
    </g>
    <g id="ytick_34">
     <g id="line2d_42">
      <g>
       <use style="stroke:#000000;stroke-width:0.6;" x="37.7" xlink:href="#m95ad663612" y="152.034753"/>
      </g>
     </g>
    </g>
    <g id="ytick_35">
     <g id="line2d_43">
      <g>
       <use style="stroke:#000000;stroke-width:0.6;" x="37.7" xlink:href="#m95ad663612" y="149.518598"/>
      </g>
     </g>
    </g>
    <g id="ytick_36">
     <g id="line2d_44">
      <g>
       <use style="stroke:#000000;stroke-width:0.6;" x="37.7" xlink:href="#m95ad663612" y="147.339005"/>
      </g>
     </g>
    </g>
    <g id="ytick_37">
     <g id="line2d_45">
      <g>
       <use style="stroke:#000000;stroke-width:0.6;" x="37.7" xlink:href="#m95ad663612" y="145.416468"/>
      </g>
     </g>
    </g>
    <g id="ytick_38">
     <g id="line2d_46">
      <g>
       <use style="stroke:#000000;stroke-width:0.6;" x="37.7" xlink:href="#m95ad663612" y="132.382669"/>
      </g>
     </g>
    </g>
    <g id="ytick_39">
     <g id="line2d_47">
      <g>
       <use style="stroke:#000000;stroke-width:0.6;" x="37.7" xlink:href="#m95ad663612" y="125.764384"/>
      </g>
     </g>
    </g>
    <g id="ytick_40">
     <g id="line2d_48">
      <g>
       <use style="stroke:#000000;stroke-width:0.6;" x="37.7" xlink:href="#m95ad663612" y="121.068637"/>
      </g>
     </g>
    </g>
    <g id="ytick_41">
     <g id="line2d_49">
      <g>
       <use style="stroke:#000000;stroke-width:0.6;" x="37.7" xlink:href="#m95ad663612" y="117.426332"/>
      </g>
     </g>
    </g>
    <g id="ytick_42">
     <g id="line2d_50">
      <g>
       <use style="stroke:#000000;stroke-width:0.6;" x="37.7" xlink:href="#m95ad663612" y="114.450352"/>
      </g>
     </g>
    </g>
    <g id="ytick_43">
     <g id="line2d_51">
      <g>
       <use style="stroke:#000000;stroke-width:0.6;" x="37.7" xlink:href="#m95ad663612" y="111.934198"/>
      </g>
     </g>
    </g>
    <g id="ytick_44">
     <g id="line2d_52">
      <g>
       <use style="stroke:#000000;stroke-width:0.6;" x="37.7" xlink:href="#m95ad663612" y="109.754605"/>
      </g>
     </g>
    </g>
    <g id="ytick_45">
     <g id="line2d_53">
      <g>
       <use style="stroke:#000000;stroke-width:0.6;" x="37.7" xlink:href="#m95ad663612" y="107.832068"/>
      </g>
     </g>
    </g>
    <g id="ytick_46">
     <g id="line2d_54">
      <g>
       <use style="stroke:#000000;stroke-width:0.6;" x="37.7" xlink:href="#m95ad663612" y="94.798268"/>
      </g>
     </g>
    </g>
    <g id="ytick_47">
     <g id="line2d_55">
      <g>
       <use style="stroke:#000000;stroke-width:0.6;" x="37.7" xlink:href="#m95ad663612" y="88.179984"/>
      </g>
     </g>
    </g>
    <g id="ytick_48">
     <g id="line2d_56">
      <g>
       <use style="stroke:#000000;stroke-width:0.6;" x="37.7" xlink:href="#m95ad663612" y="83.484236"/>
      </g>
     </g>
    </g>
    <g id="ytick_49">
     <g id="line2d_57">
      <g>
       <use style="stroke:#000000;stroke-width:0.6;" x="37.7" xlink:href="#m95ad663612" y="79.841932"/>
      </g>
     </g>
    </g>
    <g id="ytick_50">
     <g id="line2d_58">
      <g>
       <use style="stroke:#000000;stroke-width:0.6;" x="37.7" xlink:href="#m95ad663612" y="76.865952"/>
      </g>
     </g>
    </g>
    <g id="ytick_51">
     <g id="line2d_59">
      <g>
       <use style="stroke:#000000;stroke-width:0.6;" x="37.7" xlink:href="#m95ad663612" y="74.349797"/>
      </g>
     </g>
    </g>
    <g id="ytick_52">
     <g id="line2d_60">
      <g>
       <use style="stroke:#000000;stroke-width:0.6;" x="37.7" xlink:href="#m95ad663612" y="72.170205"/>
      </g>
     </g>
    </g>
    <g id="ytick_53">
     <g id="line2d_61">
      <g>
       <use style="stroke:#000000;stroke-width:0.6;" x="37.7" xlink:href="#m95ad663612" y="70.247668"/>
      </g>
     </g>
    </g>
    <g id="ytick_54">
     <g id="line2d_62">
      <g>
       <use style="stroke:#000000;stroke-width:0.6;" x="37.7" xlink:href="#m95ad663612" y="57.213868"/>
      </g>
     </g>
    </g>
    <g id="ytick_55">
     <g id="line2d_63">
      <g>
       <use style="stroke:#000000;stroke-width:0.6;" x="37.7" xlink:href="#m95ad663612" y="50.595584"/>
      </g>
     </g>
    </g>
    <g id="ytick_56">
     <g id="line2d_64">
      <g>
       <use style="stroke:#000000;stroke-width:0.6;" x="37.7" xlink:href="#m95ad663612" y="45.899836"/>
      </g>
     </g>
    </g>
    <g id="ytick_57">
     <g id="line2d_65">
      <g>
       <use style="stroke:#000000;stroke-width:0.6;" x="37.7" xlink:href="#m95ad663612" y="42.257531"/>
      </g>
     </g>
    </g>
    <g id="ytick_58">
     <g id="line2d_66">
      <g>
       <use style="stroke:#000000;stroke-width:0.6;" x="37.7" xlink:href="#m95ad663612" y="39.281552"/>
      </g>
     </g>
    </g>
    <g id="ytick_59">
     <g id="line2d_67">
      <g>
       <use style="stroke:#000000;stroke-width:0.6;" x="37.7" xlink:href="#m95ad663612" y="36.765397"/>
      </g>
     </g>
    </g>
    <g id="ytick_60">
     <g id="line2d_68">
      <g>
       <use style="stroke:#000000;stroke-width:0.6;" x="37.7" xlink:href="#m95ad663612" y="34.585804"/>
      </g>
     </g>
    </g>
    <g id="ytick_61">
     <g id="line2d_69">
      <g>
       <use style="stroke:#000000;stroke-width:0.6;" x="37.7" xlink:href="#m95ad663612" y="32.663267"/>
      </g>
     </g>
    </g>
    <g id="ytick_62">
     <g id="line2d_70">
      <g>
       <use style="stroke:#000000;stroke-width:0.6;" x="37.7" xlink:href="#m95ad663612" y="19.629468"/>
      </g>
     </g>
    </g>
    <g id="ytick_63">
     <g id="line2d_71">
      <g>
       <use style="stroke:#000000;stroke-width:0.6;" x="37.7" xlink:href="#m95ad663612" y="13.011183"/>
      </g>
     </g>
    </g>
    <g id="ytick_64">
     <g id="line2d_72">
      <g>
       <use style="stroke:#000000;stroke-width:0.6;" x="37.7" xlink:href="#m95ad663612" y="8.315436"/>
      </g>
     </g>
    </g>
   </g>
   <g id="line2d_73">
    <path clip-path="url(#p4cf52179ad)" d="M 53.932727 19.296 
L 55.678182 69.313899 
L 57.423636 109.266743 
L 59.169091 153.766613 
L 60.914545 182.280833 
L 62.66 225.00657 
L 64.405455 222.243292 
L 66.150909 205.778204 
L 67.896364 188.071462 
L 69.641818 202.578271 
L 71.387273 206.316908 
L 73.132727 195.384451 
L 74.878182 174.578655 
L 76.623636 203.553017 
L 78.369091 197.786489 
L 80.114545 185.868377 
L 81.86 190.169737 
L 83.605455 229.237677 
L 85.350909 180.818713 
L 87.096364 199.297373 
L 88.841818 188.402308 
L 90.587273 187.683731 
L 92.332727 193.630963 
L 94.078182 191.825846 
L 95.823636 224.538693 
L 97.569091 183.779196 
L 99.314545 190.708399 
L 101.06 182.795162 
L 102.805455 208.594529 
L 104.550909 180.741189 
L 106.296364 196.878928 
L 108.041818 193.059839 
L 109.787273 188.487896 
L 111.532727 210.613275 
L 113.278182 197.29584 
L 115.023636 211.000107 
L 116.769091 180.682944 
L 118.514545 213.97792 
L 120.26 191.484851 
L 122.005455 175.849385 
L 123.750909 180.205149 
L 125.496364 197.640019 
L 127.241818 188.67847 
L 128.987273 187.49943 
L 130.732727 202.223076 
L 132.478182 187.012694 
L 134.223636 191.854971 
L 135.969091 207.204554 
L 137.714545 199.560247 
L 139.46 181.05691 
L 141.205455 175.600225 
L 142.950909 186.00632 
L 144.696364 184.044033 
L 146.441818 192.032045 
L 148.187273 209.014684 
L 149.932727 221.492003 
L 151.678182 181.376122 
L 153.423636 184.752137 
L 155.169091 186.012687 
L 156.914545 194.683275 
L 158.66 189.576896 
L 160.405455 188.453554 
L 162.150909 195.106353 
L 163.896364 183.371186 
L 165.641818 186.205571 
L 167.387273 213.89301 
L 169.132727 214.567397 
L 172.623636 180.150051 
L 174.369091 179.626146 
L 176.114545 261.216 
L 177.86 181.599463 
L 179.605455 190.165413 
L 181.350909 218.567489 
L 183.096364 210.259502 
L 184.841818 180.45975 
L 186.587273 183.879534 
L 188.332727 188.481074 
L 190.078182 187.514167 
L 191.823636 178.92563 
L 193.569091 192.130373 
L 195.314545 218.185318 
L 197.06 191.868072 
L 198.805455 185.917292 
L 200.550909 215.916283 
L 202.296364 178.534611 
L 204.041818 191.461118 
L 205.787273 199.035576 
L 207.532727 181.961658 
L 209.278182 192.242525 
L 211.023636 185.230939 
L 212.769091 202.665327 
L 214.514545 179.720433 
L 216.26 180.433211 
L 218.005455 189.354023 
L 219.750909 189.057301 
L 221.496364 180.903582 
L 223.241818 199.484497 
L 224.987273 212.365933 
L 226.732727 207.756674 
L 228.478182 217.007218 
L 230.223636 184.689141 
L 231.969091 194.003584 
L 233.714545 216.714717 
L 235.46 185.359797 
L 237.205455 181.871092 
L 238.950909 182.712278 
L 240.696364 206.586891 
L 242.441818 203.960451 
L 244.187273 202.861316 
L 245.932727 189.309761 
L 247.678182 219.497066 
L 249.423636 180.639052 
L 251.169091 177.936542 
L 252.914545 218.508683 
L 254.66 189.500843 
L 256.405455 181.69067 
L 258.150909 177.473847 
L 259.896364 185.561354 
L 261.641818 194.393007 
L 263.387273 184.242541 
L 265.132727 196.620267 
L 266.878182 180.89631 
L 268.623636 210.322518 
L 270.369091 198.113755 
L 272.114545 204.756431 
L 273.86 195.604035 
L 275.605455 178.753475 
L 277.350909 188.442684 
L 279.096364 187.749845 
L 280.841818 198.619691 
L 282.587273 217.054033 
L 284.332727 185.876587 
L 286.078182 199.644752 
L 287.823636 209.428219 
L 289.569091 234.505621 
L 291.314545 193.451183 
L 293.06 199.858958 
L 294.805455 182.089635 
L 296.550909 185.872649 
L 298.296364 198.704543 
L 300.041818 200.140361 
L 301.787273 183.743027 
L 303.532727 212.771912 
L 305.278182 187.703324 
L 307.023636 193.380447 
L 308.769091 188.102938 
L 310.514545 196.18915 
L 312.26 185.559395 
L 314.005455 194.985796 
L 315.750909 197.040147 
L 317.496364 190.392672 
L 319.241818 232.574681 
L 320.987273 195.091138 
L 322.732727 191.991548 
L 324.478182 187.719548 
L 326.223636 184.44028 
L 327.969091 182.041011 
L 329.714545 196.248837 
L 331.46 191.918737 
L 333.205455 196.949976 
L 334.950909 186.757733 
L 336.696364 181.760951 
L 338.441818 200.284452 
L 340.187273 188.570922 
L 341.932727 175.883689 
L 343.678182 189.510892 
L 345.423636 187.184745 
L 347.169091 193.983486 
L 348.914545 180.393588 
L 350.66 185.858255 
L 352.405455 183.627281 
L 354.150909 183.624358 
L 355.896364 192.645361 
L 357.641818 187.293606 
L 359.387273 188.484609 
L 361.132727 179.332529 
L 362.878182 187.224805 
L 364.623636 196.853935 
L 366.369091 209.469257 
L 368.114545 181.531375 
L 369.86 183.090536 
L 371.605455 192.689129 
L 373.350909 185.188365 
L 375.096364 188.144966 
L 375.102128 311.86825 
L 375.102128 311.86825 
" style="fill:none;stroke:#1f77b4;stroke-linecap:square;stroke-width:1.5;"/>
    <defs>
     <path d="M 0 3 
C 0.795609 3 1.55874 2.683901 2.12132 2.12132 
C 2.683901 1.55874 3 0.795609 3 0 
C 3 -0.795609 2.683901 -1.55874 2.12132 -2.12132 
C 1.55874 -2.683901 0.795609 -3 0 -3 
C -0.795609 -3 -1.55874 -2.683901 -2.12132 -2.12132 
C -2.683901 -1.55874 -3 -0.795609 -3 0 
C -3 0.795609 -2.683901 1.55874 -2.12132 2.12132 
C -1.55874 2.683901 -0.795609 3 0 3 
z
" id="m20843f92ca" style="stroke:#1f77b4;"/>
    </defs>
    <g clip-path="url(#p4cf52179ad)">
     <use style="fill:#1f77b4;stroke:#1f77b4;" x="53.932727" xlink:href="#m20843f92ca" y="19.296"/>
     <use style="fill:#1f77b4;stroke:#1f77b4;" x="55.678182" xlink:href="#m20843f92ca" y="69.313899"/>
     <use style="fill:#1f77b4;stroke:#1f77b4;" x="57.423636" xlink:href="#m20843f92ca" y="109.266743"/>
     <use style="fill:#1f77b4;stroke:#1f77b4;" x="59.169091" xlink:href="#m20843f92ca" y="153.766613"/>
     <use style="fill:#1f77b4;stroke:#1f77b4;" x="60.914545" xlink:href="#m20843f92ca" y="182.280833"/>
     <use style="fill:#1f77b4;stroke:#1f77b4;" x="62.66" xlink:href="#m20843f92ca" y="225.00657"/>
     <use style="fill:#1f77b4;stroke:#1f77b4;" x="64.405455" xlink:href="#m20843f92ca" y="222.243292"/>
     <use style="fill:#1f77b4;stroke:#1f77b4;" x="66.150909" xlink:href="#m20843f92ca" y="205.778204"/>
     <use style="fill:#1f77b4;stroke:#1f77b4;" x="67.896364" xlink:href="#m20843f92ca" y="188.071462"/>
     <use style="fill:#1f77b4;stroke:#1f77b4;" x="69.641818" xlink:href="#m20843f92ca" y="202.578271"/>
     <use style="fill:#1f77b4;stroke:#1f77b4;" x="71.387273" xlink:href="#m20843f92ca" y="206.316908"/>
     <use style="fill:#1f77b4;stroke:#1f77b4;" x="73.132727" xlink:href="#m20843f92ca" y="195.384451"/>
     <use style="fill:#1f77b4;stroke:#1f77b4;" x="74.878182" xlink:href="#m20843f92ca" y="174.578655"/>
     <use style="fill:#1f77b4;stroke:#1f77b4;" x="76.623636" xlink:href="#m20843f92ca" y="203.553017"/>
     <use style="fill:#1f77b4;stroke:#1f77b4;" x="78.369091" xlink:href="#m20843f92ca" y="197.786489"/>
     <use style="fill:#1f77b4;stroke:#1f77b4;" x="80.114545" xlink:href="#m20843f92ca" y="185.868377"/>
     <use style="fill:#1f77b4;stroke:#1f77b4;" x="81.86" xlink:href="#m20843f92ca" y="190.169737"/>
     <use style="fill:#1f77b4;stroke:#1f77b4;" x="83.605455" xlink:href="#m20843f92ca" y="229.237677"/>
     <use style="fill:#1f77b4;stroke:#1f77b4;" x="85.350909" xlink:href="#m20843f92ca" y="180.818713"/>
     <use style="fill:#1f77b4;stroke:#1f77b4;" x="87.096364" xlink:href="#m20843f92ca" y="199.297373"/>
     <use style="fill:#1f77b4;stroke:#1f77b4;" x="88.841818" xlink:href="#m20843f92ca" y="188.402308"/>
     <use style="fill:#1f77b4;stroke:#1f77b4;" x="90.587273" xlink:href="#m20843f92ca" y="187.683731"/>
     <use style="fill:#1f77b4;stroke:#1f77b4;" x="92.332727" xlink:href="#m20843f92ca" y="193.630963"/>
     <use style="fill:#1f77b4;stroke:#1f77b4;" x="94.078182" xlink:href="#m20843f92ca" y="191.825846"/>
     <use style="fill:#1f77b4;stroke:#1f77b4;" x="95.823636" xlink:href="#m20843f92ca" y="224.538693"/>
     <use style="fill:#1f77b4;stroke:#1f77b4;" x="97.569091" xlink:href="#m20843f92ca" y="183.779196"/>
     <use style="fill:#1f77b4;stroke:#1f77b4;" x="99.314545" xlink:href="#m20843f92ca" y="190.708399"/>
     <use style="fill:#1f77b4;stroke:#1f77b4;" x="101.06" xlink:href="#m20843f92ca" y="182.795162"/>
     <use style="fill:#1f77b4;stroke:#1f77b4;" x="102.805455" xlink:href="#m20843f92ca" y="208.594529"/>
     <use style="fill:#1f77b4;stroke:#1f77b4;" x="104.550909" xlink:href="#m20843f92ca" y="180.741189"/>
     <use style="fill:#1f77b4;stroke:#1f77b4;" x="106.296364" xlink:href="#m20843f92ca" y="196.878928"/>
     <use style="fill:#1f77b4;stroke:#1f77b4;" x="108.041818" xlink:href="#m20843f92ca" y="193.059839"/>
     <use style="fill:#1f77b4;stroke:#1f77b4;" x="109.787273" xlink:href="#m20843f92ca" y="188.487896"/>
     <use style="fill:#1f77b4;stroke:#1f77b4;" x="111.532727" xlink:href="#m20843f92ca" y="210.613275"/>
     <use style="fill:#1f77b4;stroke:#1f77b4;" x="113.278182" xlink:href="#m20843f92ca" y="197.29584"/>
     <use style="fill:#1f77b4;stroke:#1f77b4;" x="115.023636" xlink:href="#m20843f92ca" y="211.000107"/>
     <use style="fill:#1f77b4;stroke:#1f77b4;" x="116.769091" xlink:href="#m20843f92ca" y="180.682944"/>
     <use style="fill:#1f77b4;stroke:#1f77b4;" x="118.514545" xlink:href="#m20843f92ca" y="213.97792"/>
     <use style="fill:#1f77b4;stroke:#1f77b4;" x="120.26" xlink:href="#m20843f92ca" y="191.484851"/>
     <use style="fill:#1f77b4;stroke:#1f77b4;" x="122.005455" xlink:href="#m20843f92ca" y="175.849385"/>
     <use style="fill:#1f77b4;stroke:#1f77b4;" x="123.750909" xlink:href="#m20843f92ca" y="180.205149"/>
     <use style="fill:#1f77b4;stroke:#1f77b4;" x="125.496364" xlink:href="#m20843f92ca" y="197.640019"/>
     <use style="fill:#1f77b4;stroke:#1f77b4;" x="127.241818" xlink:href="#m20843f92ca" y="188.67847"/>
     <use style="fill:#1f77b4;stroke:#1f77b4;" x="128.987273" xlink:href="#m20843f92ca" y="187.49943"/>
     <use style="fill:#1f77b4;stroke:#1f77b4;" x="130.732727" xlink:href="#m20843f92ca" y="202.223076"/>
     <use style="fill:#1f77b4;stroke:#1f77b4;" x="132.478182" xlink:href="#m20843f92ca" y="187.012694"/>
     <use style="fill:#1f77b4;stroke:#1f77b4;" x="134.223636" xlink:href="#m20843f92ca" y="191.854971"/>
     <use style="fill:#1f77b4;stroke:#1f77b4;" x="135.969091" xlink:href="#m20843f92ca" y="207.204554"/>
     <use style="fill:#1f77b4;stroke:#1f77b4;" x="137.714545" xlink:href="#m20843f92ca" y="199.560247"/>
     <use style="fill:#1f77b4;stroke:#1f77b4;" x="139.46" xlink:href="#m20843f92ca" y="181.05691"/>
     <use style="fill:#1f77b4;stroke:#1f77b4;" x="141.205455" xlink:href="#m20843f92ca" y="175.600225"/>
     <use style="fill:#1f77b4;stroke:#1f77b4;" x="142.950909" xlink:href="#m20843f92ca" y="186.00632"/>
     <use style="fill:#1f77b4;stroke:#1f77b4;" x="144.696364" xlink:href="#m20843f92ca" y="184.044033"/>
     <use style="fill:#1f77b4;stroke:#1f77b4;" x="146.441818" xlink:href="#m20843f92ca" y="192.032045"/>
     <use style="fill:#1f77b4;stroke:#1f77b4;" x="148.187273" xlink:href="#m20843f92ca" y="209.014684"/>
     <use style="fill:#1f77b4;stroke:#1f77b4;" x="149.932727" xlink:href="#m20843f92ca" y="221.492003"/>
     <use style="fill:#1f77b4;stroke:#1f77b4;" x="151.678182" xlink:href="#m20843f92ca" y="181.376122"/>
     <use style="fill:#1f77b4;stroke:#1f77b4;" x="153.423636" xlink:href="#m20843f92ca" y="184.752137"/>
     <use style="fill:#1f77b4;stroke:#1f77b4;" x="155.169091" xlink:href="#m20843f92ca" y="186.012687"/>
     <use style="fill:#1f77b4;stroke:#1f77b4;" x="156.914545" xlink:href="#m20843f92ca" y="194.683275"/>
     <use style="fill:#1f77b4;stroke:#1f77b4;" x="158.66" xlink:href="#m20843f92ca" y="189.576896"/>
     <use style="fill:#1f77b4;stroke:#1f77b4;" x="160.405455" xlink:href="#m20843f92ca" y="188.453554"/>
     <use style="fill:#1f77b4;stroke:#1f77b4;" x="162.150909" xlink:href="#m20843f92ca" y="195.106353"/>
     <use style="fill:#1f77b4;stroke:#1f77b4;" x="163.896364" xlink:href="#m20843f92ca" y="183.371186"/>
     <use style="fill:#1f77b4;stroke:#1f77b4;" x="165.641818" xlink:href="#m20843f92ca" y="186.205571"/>
     <use style="fill:#1f77b4;stroke:#1f77b4;" x="167.387273" xlink:href="#m20843f92ca" y="213.89301"/>
     <use style="fill:#1f77b4;stroke:#1f77b4;" x="169.132727" xlink:href="#m20843f92ca" y="214.567397"/>
     <use style="fill:#1f77b4;stroke:#1f77b4;" x="170.878182" xlink:href="#m20843f92ca" y="197.190964"/>
     <use style="fill:#1f77b4;stroke:#1f77b4;" x="172.623636" xlink:href="#m20843f92ca" y="180.150051"/>
     <use style="fill:#1f77b4;stroke:#1f77b4;" x="174.369091" xlink:href="#m20843f92ca" y="179.626146"/>
     <use style="fill:#1f77b4;stroke:#1f77b4;" x="176.114545" xlink:href="#m20843f92ca" y="261.216"/>
     <use style="fill:#1f77b4;stroke:#1f77b4;" x="177.86" xlink:href="#m20843f92ca" y="181.599463"/>
     <use style="fill:#1f77b4;stroke:#1f77b4;" x="179.605455" xlink:href="#m20843f92ca" y="190.165413"/>
     <use style="fill:#1f77b4;stroke:#1f77b4;" x="181.350909" xlink:href="#m20843f92ca" y="218.567489"/>
     <use style="fill:#1f77b4;stroke:#1f77b4;" x="183.096364" xlink:href="#m20843f92ca" y="210.259502"/>
     <use style="fill:#1f77b4;stroke:#1f77b4;" x="184.841818" xlink:href="#m20843f92ca" y="180.45975"/>
     <use style="fill:#1f77b4;stroke:#1f77b4;" x="186.587273" xlink:href="#m20843f92ca" y="183.879534"/>
     <use style="fill:#1f77b4;stroke:#1f77b4;" x="188.332727" xlink:href="#m20843f92ca" y="188.481074"/>
     <use style="fill:#1f77b4;stroke:#1f77b4;" x="190.078182" xlink:href="#m20843f92ca" y="187.514167"/>
     <use style="fill:#1f77b4;stroke:#1f77b4;" x="191.823636" xlink:href="#m20843f92ca" y="178.92563"/>
     <use style="fill:#1f77b4;stroke:#1f77b4;" x="193.569091" xlink:href="#m20843f92ca" y="192.130373"/>
     <use style="fill:#1f77b4;stroke:#1f77b4;" x="195.314545" xlink:href="#m20843f92ca" y="218.185318"/>
     <use style="fill:#1f77b4;stroke:#1f77b4;" x="197.06" xlink:href="#m20843f92ca" y="191.868072"/>
     <use style="fill:#1f77b4;stroke:#1f77b4;" x="198.805455" xlink:href="#m20843f92ca" y="185.917292"/>
     <use style="fill:#1f77b4;stroke:#1f77b4;" x="200.550909" xlink:href="#m20843f92ca" y="215.916283"/>
     <use style="fill:#1f77b4;stroke:#1f77b4;" x="202.296364" xlink:href="#m20843f92ca" y="178.534611"/>
     <use style="fill:#1f77b4;stroke:#1f77b4;" x="204.041818" xlink:href="#m20843f92ca" y="191.461118"/>
     <use style="fill:#1f77b4;stroke:#1f77b4;" x="205.787273" xlink:href="#m20843f92ca" y="199.035576"/>
     <use style="fill:#1f77b4;stroke:#1f77b4;" x="207.532727" xlink:href="#m20843f92ca" y="181.961658"/>
     <use style="fill:#1f77b4;stroke:#1f77b4;" x="209.278182" xlink:href="#m20843f92ca" y="192.242525"/>
     <use style="fill:#1f77b4;stroke:#1f77b4;" x="211.023636" xlink:href="#m20843f92ca" y="185.230939"/>
     <use style="fill:#1f77b4;stroke:#1f77b4;" x="212.769091" xlink:href="#m20843f92ca" y="202.665327"/>
     <use style="fill:#1f77b4;stroke:#1f77b4;" x="214.514545" xlink:href="#m20843f92ca" y="179.720433"/>
     <use style="fill:#1f77b4;stroke:#1f77b4;" x="216.26" xlink:href="#m20843f92ca" y="180.433211"/>
     <use style="fill:#1f77b4;stroke:#1f77b4;" x="218.005455" xlink:href="#m20843f92ca" y="189.354023"/>
     <use style="fill:#1f77b4;stroke:#1f77b4;" x="219.750909" xlink:href="#m20843f92ca" y="189.057301"/>
     <use style="fill:#1f77b4;stroke:#1f77b4;" x="221.496364" xlink:href="#m20843f92ca" y="180.903582"/>
     <use style="fill:#1f77b4;stroke:#1f77b4;" x="223.241818" xlink:href="#m20843f92ca" y="199.484497"/>
     <use style="fill:#1f77b4;stroke:#1f77b4;" x="224.987273" xlink:href="#m20843f92ca" y="212.365933"/>
     <use style="fill:#1f77b4;stroke:#1f77b4;" x="226.732727" xlink:href="#m20843f92ca" y="207.756674"/>
     <use style="fill:#1f77b4;stroke:#1f77b4;" x="228.478182" xlink:href="#m20843f92ca" y="217.007218"/>
     <use style="fill:#1f77b4;stroke:#1f77b4;" x="230.223636" xlink:href="#m20843f92ca" y="184.689141"/>
     <use style="fill:#1f77b4;stroke:#1f77b4;" x="231.969091" xlink:href="#m20843f92ca" y="194.003584"/>
     <use style="fill:#1f77b4;stroke:#1f77b4;" x="233.714545" xlink:href="#m20843f92ca" y="216.714717"/>
     <use style="fill:#1f77b4;stroke:#1f77b4;" x="235.46" xlink:href="#m20843f92ca" y="185.359797"/>
     <use style="fill:#1f77b4;stroke:#1f77b4;" x="237.205455" xlink:href="#m20843f92ca" y="181.871092"/>
     <use style="fill:#1f77b4;stroke:#1f77b4;" x="238.950909" xlink:href="#m20843f92ca" y="182.712278"/>
     <use style="fill:#1f77b4;stroke:#1f77b4;" x="240.696364" xlink:href="#m20843f92ca" y="206.586891"/>
     <use style="fill:#1f77b4;stroke:#1f77b4;" x="242.441818" xlink:href="#m20843f92ca" y="203.960451"/>
     <use style="fill:#1f77b4;stroke:#1f77b4;" x="244.187273" xlink:href="#m20843f92ca" y="202.861316"/>
     <use style="fill:#1f77b4;stroke:#1f77b4;" x="245.932727" xlink:href="#m20843f92ca" y="189.309761"/>
     <use style="fill:#1f77b4;stroke:#1f77b4;" x="247.678182" xlink:href="#m20843f92ca" y="219.497066"/>
     <use style="fill:#1f77b4;stroke:#1f77b4;" x="249.423636" xlink:href="#m20843f92ca" y="180.639052"/>
     <use style="fill:#1f77b4;stroke:#1f77b4;" x="251.169091" xlink:href="#m20843f92ca" y="177.936542"/>
     <use style="fill:#1f77b4;stroke:#1f77b4;" x="252.914545" xlink:href="#m20843f92ca" y="218.508683"/>
     <use style="fill:#1f77b4;stroke:#1f77b4;" x="254.66" xlink:href="#m20843f92ca" y="189.500843"/>
     <use style="fill:#1f77b4;stroke:#1f77b4;" x="256.405455" xlink:href="#m20843f92ca" y="181.69067"/>
     <use style="fill:#1f77b4;stroke:#1f77b4;" x="258.150909" xlink:href="#m20843f92ca" y="177.473847"/>
     <use style="fill:#1f77b4;stroke:#1f77b4;" x="259.896364" xlink:href="#m20843f92ca" y="185.561354"/>
     <use style="fill:#1f77b4;stroke:#1f77b4;" x="261.641818" xlink:href="#m20843f92ca" y="194.393007"/>
     <use style="fill:#1f77b4;stroke:#1f77b4;" x="263.387273" xlink:href="#m20843f92ca" y="184.242541"/>
     <use style="fill:#1f77b4;stroke:#1f77b4;" x="265.132727" xlink:href="#m20843f92ca" y="196.620267"/>
     <use style="fill:#1f77b4;stroke:#1f77b4;" x="266.878182" xlink:href="#m20843f92ca" y="180.89631"/>
     <use style="fill:#1f77b4;stroke:#1f77b4;" x="268.623636" xlink:href="#m20843f92ca" y="210.322518"/>
     <use style="fill:#1f77b4;stroke:#1f77b4;" x="270.369091" xlink:href="#m20843f92ca" y="198.113755"/>
     <use style="fill:#1f77b4;stroke:#1f77b4;" x="272.114545" xlink:href="#m20843f92ca" y="204.756431"/>
     <use style="fill:#1f77b4;stroke:#1f77b4;" x="273.86" xlink:href="#m20843f92ca" y="195.604035"/>
     <use style="fill:#1f77b4;stroke:#1f77b4;" x="275.605455" xlink:href="#m20843f92ca" y="178.753475"/>
     <use style="fill:#1f77b4;stroke:#1f77b4;" x="277.350909" xlink:href="#m20843f92ca" y="188.442684"/>
     <use style="fill:#1f77b4;stroke:#1f77b4;" x="279.096364" xlink:href="#m20843f92ca" y="187.749845"/>
     <use style="fill:#1f77b4;stroke:#1f77b4;" x="280.841818" xlink:href="#m20843f92ca" y="198.619691"/>
     <use style="fill:#1f77b4;stroke:#1f77b4;" x="282.587273" xlink:href="#m20843f92ca" y="217.054033"/>
     <use style="fill:#1f77b4;stroke:#1f77b4;" x="284.332727" xlink:href="#m20843f92ca" y="185.876587"/>
     <use style="fill:#1f77b4;stroke:#1f77b4;" x="286.078182" xlink:href="#m20843f92ca" y="199.644752"/>
     <use style="fill:#1f77b4;stroke:#1f77b4;" x="287.823636" xlink:href="#m20843f92ca" y="209.428219"/>
     <use style="fill:#1f77b4;stroke:#1f77b4;" x="289.569091" xlink:href="#m20843f92ca" y="234.505621"/>
     <use style="fill:#1f77b4;stroke:#1f77b4;" x="291.314545" xlink:href="#m20843f92ca" y="193.451183"/>
     <use style="fill:#1f77b4;stroke:#1f77b4;" x="293.06" xlink:href="#m20843f92ca" y="199.858958"/>
     <use style="fill:#1f77b4;stroke:#1f77b4;" x="294.805455" xlink:href="#m20843f92ca" y="182.089635"/>
     <use style="fill:#1f77b4;stroke:#1f77b4;" x="296.550909" xlink:href="#m20843f92ca" y="185.872649"/>
     <use style="fill:#1f77b4;stroke:#1f77b4;" x="298.296364" xlink:href="#m20843f92ca" y="198.704543"/>
     <use style="fill:#1f77b4;stroke:#1f77b4;" x="300.041818" xlink:href="#m20843f92ca" y="200.140361"/>
     <use style="fill:#1f77b4;stroke:#1f77b4;" x="301.787273" xlink:href="#m20843f92ca" y="183.743027"/>
     <use style="fill:#1f77b4;stroke:#1f77b4;" x="303.532727" xlink:href="#m20843f92ca" y="212.771912"/>
     <use style="fill:#1f77b4;stroke:#1f77b4;" x="305.278182" xlink:href="#m20843f92ca" y="187.703324"/>
     <use style="fill:#1f77b4;stroke:#1f77b4;" x="307.023636" xlink:href="#m20843f92ca" y="193.380447"/>
     <use style="fill:#1f77b4;stroke:#1f77b4;" x="308.769091" xlink:href="#m20843f92ca" y="188.102938"/>
     <use style="fill:#1f77b4;stroke:#1f77b4;" x="310.514545" xlink:href="#m20843f92ca" y="196.18915"/>
     <use style="fill:#1f77b4;stroke:#1f77b4;" x="312.26" xlink:href="#m20843f92ca" y="185.559395"/>
     <use style="fill:#1f77b4;stroke:#1f77b4;" x="314.005455" xlink:href="#m20843f92ca" y="194.985796"/>
     <use style="fill:#1f77b4;stroke:#1f77b4;" x="315.750909" xlink:href="#m20843f92ca" y="197.040147"/>
     <use style="fill:#1f77b4;stroke:#1f77b4;" x="317.496364" xlink:href="#m20843f92ca" y="190.392672"/>
     <use style="fill:#1f77b4;stroke:#1f77b4;" x="319.241818" xlink:href="#m20843f92ca" y="232.574681"/>
     <use style="fill:#1f77b4;stroke:#1f77b4;" x="320.987273" xlink:href="#m20843f92ca" y="195.091138"/>
     <use style="fill:#1f77b4;stroke:#1f77b4;" x="322.732727" xlink:href="#m20843f92ca" y="191.991548"/>
     <use style="fill:#1f77b4;stroke:#1f77b4;" x="324.478182" xlink:href="#m20843f92ca" y="187.719548"/>
     <use style="fill:#1f77b4;stroke:#1f77b4;" x="326.223636" xlink:href="#m20843f92ca" y="184.44028"/>
     <use style="fill:#1f77b4;stroke:#1f77b4;" x="327.969091" xlink:href="#m20843f92ca" y="182.041011"/>
     <use style="fill:#1f77b4;stroke:#1f77b4;" x="329.714545" xlink:href="#m20843f92ca" y="196.248837"/>
     <use style="fill:#1f77b4;stroke:#1f77b4;" x="331.46" xlink:href="#m20843f92ca" y="191.918737"/>
     <use style="fill:#1f77b4;stroke:#1f77b4;" x="333.205455" xlink:href="#m20843f92ca" y="196.949976"/>
     <use style="fill:#1f77b4;stroke:#1f77b4;" x="334.950909" xlink:href="#m20843f92ca" y="186.757733"/>
     <use style="fill:#1f77b4;stroke:#1f77b4;" x="336.696364" xlink:href="#m20843f92ca" y="181.760951"/>
     <use style="fill:#1f77b4;stroke:#1f77b4;" x="338.441818" xlink:href="#m20843f92ca" y="200.284452"/>
     <use style="fill:#1f77b4;stroke:#1f77b4;" x="340.187273" xlink:href="#m20843f92ca" y="188.570922"/>
     <use style="fill:#1f77b4;stroke:#1f77b4;" x="341.932727" xlink:href="#m20843f92ca" y="175.883689"/>
     <use style="fill:#1f77b4;stroke:#1f77b4;" x="343.678182" xlink:href="#m20843f92ca" y="189.510892"/>
     <use style="fill:#1f77b4;stroke:#1f77b4;" x="345.423636" xlink:href="#m20843f92ca" y="187.184745"/>
     <use style="fill:#1f77b4;stroke:#1f77b4;" x="347.169091" xlink:href="#m20843f92ca" y="193.983486"/>
     <use style="fill:#1f77b4;stroke:#1f77b4;" x="348.914545" xlink:href="#m20843f92ca" y="180.393588"/>
     <use style="fill:#1f77b4;stroke:#1f77b4;" x="350.66" xlink:href="#m20843f92ca" y="185.858255"/>
     <use style="fill:#1f77b4;stroke:#1f77b4;" x="352.405455" xlink:href="#m20843f92ca" y="183.627281"/>
     <use style="fill:#1f77b4;stroke:#1f77b4;" x="354.150909" xlink:href="#m20843f92ca" y="183.624358"/>
     <use style="fill:#1f77b4;stroke:#1f77b4;" x="355.896364" xlink:href="#m20843f92ca" y="192.645361"/>
     <use style="fill:#1f77b4;stroke:#1f77b4;" x="357.641818" xlink:href="#m20843f92ca" y="187.293606"/>
     <use style="fill:#1f77b4;stroke:#1f77b4;" x="359.387273" xlink:href="#m20843f92ca" y="188.484609"/>
     <use style="fill:#1f77b4;stroke:#1f77b4;" x="361.132727" xlink:href="#m20843f92ca" y="179.332529"/>
     <use style="fill:#1f77b4;stroke:#1f77b4;" x="362.878182" xlink:href="#m20843f92ca" y="187.224805"/>
     <use style="fill:#1f77b4;stroke:#1f77b4;" x="364.623636" xlink:href="#m20843f92ca" y="196.853935"/>
     <use style="fill:#1f77b4;stroke:#1f77b4;" x="366.369091" xlink:href="#m20843f92ca" y="209.469257"/>
     <use style="fill:#1f77b4;stroke:#1f77b4;" x="368.114545" xlink:href="#m20843f92ca" y="181.531375"/>
     <use style="fill:#1f77b4;stroke:#1f77b4;" x="369.86" xlink:href="#m20843f92ca" y="183.090536"/>
     <use style="fill:#1f77b4;stroke:#1f77b4;" x="371.605455" xlink:href="#m20843f92ca" y="192.689129"/>
     <use style="fill:#1f77b4;stroke:#1f77b4;" x="373.350909" xlink:href="#m20843f92ca" y="185.188365"/>
     <use style="fill:#1f77b4;stroke:#1f77b4;" x="375.096364" xlink:href="#m20843f92ca" y="188.144966"/>
     <use style="fill:#1f77b4;stroke:#1f77b4;" x="376.130428" xlink:href="#m20843f92ca" y="22383.514"/>
    </g>
   </g>
   <g id="line2d_74">
    <path clip-path="url(#p4cf52179ad)" d="M 55.678182 69.313899 
L 57.423636 109.266743 
L 59.169091 153.766613 
" style="fill:none;stroke:#2ca02c;stroke-dasharray:1.5,2.475;stroke-dashoffset:0;stroke-width:1.5;"/>
    <defs>
     <path d="M -3 3 
L 3 -3 
M -3 -3 
L 3 3 
" id="m8da19fdf12" style="stroke:#2ca02c;"/>
    </defs>
    <g clip-path="url(#p4cf52179ad)">
     <use style="fill:#2ca02c;stroke:#2ca02c;" x="55.678182" xlink:href="#m8da19fdf12" y="69.313899"/>
     <use style="fill:#2ca02c;stroke:#2ca02c;" x="57.423636" xlink:href="#m8da19fdf12" y="109.266743"/>
     <use style="fill:#2ca02c;stroke:#2ca02c;" x="59.169091" xlink:href="#m8da19fdf12" y="153.766613"/>
    </g>
   </g>
   <g id="line2d_75">
    <path clip-path="url(#p4cf52179ad)" d="M 55.678182 110.754257 
L 63.991362 311.86825 
L 63.991362 311.86825 
" style="fill:none;stroke:#000000;stroke-dasharray:5.55,2.4;stroke-dashoffset:0;stroke-width:1.5;"/>
   </g>
   <g id="patch_3">
    <path d="M 37.7 273.312 
L 37.7 7.2 
" style="fill:none;stroke:#000000;stroke-linecap:square;stroke-linejoin:miter;stroke-width:0.8;"/>
   </g>
   <g id="patch_4">
    <path d="M 394.82 273.312 
L 394.82 7.2 
" style="fill:none;stroke:#000000;stroke-linecap:square;stroke-linejoin:miter;stroke-width:0.8;"/>
   </g>
   <g id="patch_5">
    <path d="M 37.7 273.312 
L 394.82 273.312 
" style="fill:none;stroke:#000000;stroke-linecap:square;stroke-linejoin:miter;stroke-width:0.8;"/>
   </g>
   <g id="patch_6">
    <path d="M 37.7 7.2 
L 394.82 7.2 
" style="fill:none;stroke:#000000;stroke-linecap:square;stroke-linejoin:miter;stroke-width:0.8;"/>
   </g>
   <g id="legend_1">
    <g id="patch_7">
     <path d="M 286.72 59.25625 
L 387.82 59.25625 
Q 389.82 59.25625 389.82 57.25625 
L 389.82 14.2 
Q 389.82 12.2 387.82 12.2 
L 286.72 12.2 
Q 284.72 12.2 284.72 14.2 
L 284.72 57.25625 
Q 284.72 59.25625 286.72 59.25625 
z
" style="fill:#ffffff;opacity:0.8;"/>
    </g>
    <g id="line2d_76">
     <path d="M 288.72 20.298437 
L 308.72 20.298437 
" style="fill:none;stroke:#1f77b4;stroke-linecap:square;stroke-width:1.5;"/>
    </g>
    <g id="line2d_77">
     <g>
      <use style="fill:#1f77b4;stroke:#1f77b4;" x="298.72" xlink:href="#m20843f92ca" y="20.298437"/>
     </g>
    </g>
    <g id="text_17">
     <!-- APD$_n$ - APD$_\infty$ -->
     <defs>
      <path d="M 34.1875 63.1875 
L 20.796875 26.90625 
L 47.609375 26.90625 
z
M 28.609375 72.90625 
L 39.796875 72.90625 
L 67.578125 0 
L 57.328125 0 
L 50.6875 18.703125 
L 17.828125 18.703125 
L 11.1875 0 
L 0.78125 0 
z
" id="DejaVuSans-65"/>
      <path d="M 19.671875 64.796875 
L 19.671875 37.40625 
L 32.078125 37.40625 
Q 38.96875 37.40625 42.71875 40.96875 
Q 46.484375 44.53125 46.484375 51.125 
Q 46.484375 57.671875 42.71875 61.234375 
Q 38.96875 64.796875 32.078125 64.796875 
z
M 9.8125 72.90625 
L 32.078125 72.90625 
Q 44.34375 72.90625 50.609375 67.359375 
Q 56.890625 61.8125 56.890625 51.125 
Q 56.890625 40.328125 50.609375 34.8125 
Q 44.34375 29.296875 32.078125 29.296875 
L 19.671875 29.296875 
L 19.671875 0 
L 9.8125 0 
z
" id="DejaVuSans-80"/>
      <path d="M 19.671875 64.796875 
L 19.671875 8.109375 
L 31.59375 8.109375 
Q 46.6875 8.109375 53.6875 14.9375 
Q 60.6875 21.78125 60.6875 36.53125 
Q 60.6875 51.171875 53.6875 57.984375 
Q 46.6875 64.796875 31.59375 64.796875 
z
M 9.8125 72.90625 
L 30.078125 72.90625 
Q 51.265625 72.90625 61.171875 64.09375 
Q 71.09375 55.28125 71.09375 36.53125 
Q 71.09375 17.671875 61.125 8.828125 
Q 51.171875 0 30.078125 0 
L 9.8125 0 
z
" id="DejaVuSans-68"/>
      <path d="M 55.71875 33.015625 
L 49.3125 0 
L 40.28125 0 
L 46.6875 32.671875 
Q 47.125 34.96875 47.359375 36.71875 
Q 47.609375 38.484375 47.609375 39.5 
Q 47.609375 43.609375 45.015625 45.890625 
Q 42.4375 48.1875 37.796875 48.1875 
Q 30.5625 48.1875 25.34375 43.375 
Q 20.125 38.578125 18.5 30.328125 
L 12.5 0 
L 3.515625 0 
L 14.109375 54.6875 
L 23.09375 54.6875 
L 21.296875 46.09375 
Q 25.046875 50.828125 30.3125 53.40625 
Q 35.59375 56 41.40625 56 
Q 48.640625 56 52.609375 52.09375 
Q 56.59375 48.1875 56.59375 41.109375 
Q 56.59375 39.359375 56.375 37.359375 
Q 56.15625 35.359375 55.71875 33.015625 
z
" id="DejaVuSans-Oblique-110"/>
      <path id="DejaVuSans-32"/>
      <path d="M 4.890625 31.390625 
L 31.203125 31.390625 
L 31.203125 23.390625 
L 4.890625 23.390625 
z
" id="DejaVuSans-45"/>
      <path d="M 45.5625 17.046875 
Q 44.046875 18.796875 41.65625 22.90625 
Q 38.375 17.046875 35.5 14.453125 
Q 31.890625 11.328125 26.265625 11.328125 
Q 19.671875 11.328125 15.328125 16.265625 
Q 10.75 21.4375 10.75 29.984375 
Q 10.75 38.1875 15.328125 43.75 
Q 19.4375 48.6875 26.375 48.6875 
Q 29.9375 48.6875 32.5625 47.21875 
Q 35.640625 45.609375 37.75 42.828125 
Q 39.703125 40.328125 41.65625 36.96875 
Q 44.921875 42.828125 47.796875 45.40625 
Q 51.421875 48.53125 57.03125 48.53125 
Q 63.625 48.53125 67.96875 43.609375 
Q 72.5625 38.421875 72.5625 29.890625 
Q 72.5625 21.6875 67.96875 16.109375 
Q 63.875 11.1875 56.9375 11.1875 
Q 53.375 11.1875 50.734375 12.640625 
Q 48.09375 13.96875 45.5625 17.046875 
z
M 25.734375 17.71875 
Q 33.796875 17.71875 38.625 29.4375 
Q 32.421875 42.234375 25.734375 42.234375 
Q 20.84375 42.234375 18.359375 38.71875 
Q 15.671875 34.96875 15.671875 29.984375 
Q 15.671875 24.515625 18.359375 21.140625 
Q 21.09375 17.71875 25.734375 17.71875 
z
M 57.5625 42.140625 
Q 50.296875 42.140625 44.671875 30.421875 
Q 50.828125 17.625 57.5625 17.625 
Q 62.453125 17.625 64.9375 21.140625 
Q 67.625 24.90625 67.625 29.890625 
Q 67.625 35.359375 64.9375 38.71875 
Q 62.203125 42.140625 57.5625 42.140625 
z
" id="DejaVuSans-8734"/>
     </defs>
     <g transform="translate(316.72 23.798437)scale(0.1 -0.1)">
      <use transform="translate(0 0.09375)" xlink:href="#DejaVuSans-65"/>
      <use transform="translate(68.408203 0.09375)" xlink:href="#DejaVuSans-80"/>
      <use transform="translate(128.710938 0.09375)" xlink:href="#DejaVuSans-68"/>
      <use transform="translate(206.669922 -16.3125)scale(0.7)" xlink:href="#DejaVuSans-Oblique-110"/>
      <use transform="translate(253.769531 0.09375)" xlink:href="#DejaVuSans-32"/>
      <use transform="translate(285.556641 0.09375)" xlink:href="#DejaVuSans-45"/>
      <use transform="translate(321.640625 0.09375)" xlink:href="#DejaVuSans-32"/>
      <use transform="translate(353.427734 0.09375)" xlink:href="#DejaVuSans-65"/>
      <use transform="translate(421.835938 0.09375)" xlink:href="#DejaVuSans-80"/>
      <use transform="translate(482.138672 0.09375)" xlink:href="#DejaVuSans-68"/>
      <use transform="translate(560.097656 -16.3125)scale(0.7)" xlink:href="#DejaVuSans-8734"/>
     </g>
    </g>
    <g id="line2d_78">
     <path d="M 288.72 34.976562 
L 308.72 34.976562 
" style="fill:none;stroke:#2ca02c;stroke-dasharray:1.5,2.475;stroke-dashoffset:0;stroke-width:1.5;"/>
    </g>
    <g id="line2d_79">
     <g>
      <use style="fill:#2ca02c;stroke:#2ca02c;" x="298.72" xlink:href="#m8da19fdf12" y="34.976562"/>
     </g>
    </g>
    <g id="text_18">
     <!-- linear region -->
     <defs>
      <path d="M 9.421875 75.984375 
L 18.40625 75.984375 
L 18.40625 0 
L 9.421875 0 
z
" id="DejaVuSans-108"/>
      <path d="M 9.421875 54.6875 
L 18.40625 54.6875 
L 18.40625 0 
L 9.421875 0 
z
M 9.421875 75.984375 
L 18.40625 75.984375 
L 18.40625 64.59375 
L 9.421875 64.59375 
z
" id="DejaVuSans-105"/>
      <path d="M 54.890625 33.015625 
L 54.890625 0 
L 45.90625 0 
L 45.90625 32.71875 
Q 45.90625 40.484375 42.875 44.328125 
Q 39.84375 48.1875 33.796875 48.1875 
Q 26.515625 48.1875 22.3125 43.546875 
Q 18.109375 38.921875 18.109375 30.90625 
L 18.109375 0 
L 9.078125 0 
L 9.078125 54.6875 
L 18.109375 54.6875 
L 18.109375 46.1875 
Q 21.34375 51.125 25.703125 53.5625 
Q 30.078125 56 35.796875 56 
Q 45.21875 56 50.046875 50.171875 
Q 54.890625 44.34375 54.890625 33.015625 
z
" id="DejaVuSans-110"/>
      <path d="M 56.203125 29.59375 
L 56.203125 25.203125 
L 14.890625 25.203125 
Q 15.484375 15.921875 20.484375 11.0625 
Q 25.484375 6.203125 34.421875 6.203125 
Q 39.59375 6.203125 44.453125 7.46875 
Q 49.3125 8.734375 54.109375 11.28125 
L 54.109375 2.78125 
Q 49.265625 0.734375 44.1875 -0.34375 
Q 39.109375 -1.421875 33.890625 -1.421875 
Q 20.796875 -1.421875 13.15625 6.1875 
Q 5.515625 13.8125 5.515625 26.8125 
Q 5.515625 40.234375 12.765625 48.109375 
Q 20.015625 56 32.328125 56 
Q 43.359375 56 49.78125 48.890625 
Q 56.203125 41.796875 56.203125 29.59375 
z
M 47.21875 32.234375 
Q 47.125 39.59375 43.09375 43.984375 
Q 39.0625 48.390625 32.421875 48.390625 
Q 24.90625 48.390625 20.390625 44.140625 
Q 15.875 39.890625 15.1875 32.171875 
z
" id="DejaVuSans-101"/>
      <path d="M 34.28125 27.484375 
Q 23.390625 27.484375 19.1875 25 
Q 14.984375 22.515625 14.984375 16.5 
Q 14.984375 11.71875 18.140625 8.90625 
Q 21.296875 6.109375 26.703125 6.109375 
Q 34.1875 6.109375 38.703125 11.40625 
Q 43.21875 16.703125 43.21875 25.484375 
L 43.21875 27.484375 
z
M 52.203125 31.203125 
L 52.203125 0 
L 43.21875 0 
L 43.21875 8.296875 
Q 40.140625 3.328125 35.546875 0.953125 
Q 30.953125 -1.421875 24.3125 -1.421875 
Q 15.921875 -1.421875 10.953125 3.296875 
Q 6 8.015625 6 15.921875 
Q 6 25.140625 12.171875 29.828125 
Q 18.359375 34.515625 30.609375 34.515625 
L 43.21875 34.515625 
L 43.21875 35.40625 
Q 43.21875 41.609375 39.140625 45 
Q 35.0625 48.390625 27.6875 48.390625 
Q 23 48.390625 18.546875 47.265625 
Q 14.109375 46.140625 10.015625 43.890625 
L 10.015625 52.203125 
Q 14.9375 54.109375 19.578125 55.046875 
Q 24.21875 56 28.609375 56 
Q 40.484375 56 46.34375 49.84375 
Q 52.203125 43.703125 52.203125 31.203125 
z
" id="DejaVuSans-97"/>
      <path d="M 41.109375 46.296875 
Q 39.59375 47.171875 37.8125 47.578125 
Q 36.03125 48 33.890625 48 
Q 26.265625 48 22.1875 43.046875 
Q 18.109375 38.09375 18.109375 28.8125 
L 18.109375 0 
L 9.078125 0 
L 9.078125 54.6875 
L 18.109375 54.6875 
L 18.109375 46.1875 
Q 20.953125 51.171875 25.484375 53.578125 
Q 30.03125 56 36.53125 56 
Q 37.453125 56 38.578125 55.875 
Q 39.703125 55.765625 41.0625 55.515625 
z
" id="DejaVuSans-114"/>
      <path d="M 45.40625 27.984375 
Q 45.40625 37.75 41.375 43.109375 
Q 37.359375 48.484375 30.078125 48.484375 
Q 22.859375 48.484375 18.828125 43.109375 
Q 14.796875 37.75 14.796875 27.984375 
Q 14.796875 18.265625 18.828125 12.890625 
Q 22.859375 7.515625 30.078125 7.515625 
Q 37.359375 7.515625 41.375 12.890625 
Q 45.40625 18.265625 45.40625 27.984375 
z
M 54.390625 6.78125 
Q 54.390625 -7.171875 48.1875 -13.984375 
Q 42 -20.796875 29.203125 -20.796875 
Q 24.46875 -20.796875 20.265625 -20.09375 
Q 16.0625 -19.390625 12.109375 -17.921875 
L 12.109375 -9.1875 
Q 16.0625 -11.328125 19.921875 -12.34375 
Q 23.78125 -13.375 27.78125 -13.375 
Q 36.625 -13.375 41.015625 -8.765625 
Q 45.40625 -4.15625 45.40625 5.171875 
L 45.40625 9.625 
Q 42.625 4.78125 38.28125 2.390625 
Q 33.9375 0 27.875 0 
Q 17.828125 0 11.671875 7.65625 
Q 5.515625 15.328125 5.515625 27.984375 
Q 5.515625 40.671875 11.671875 48.328125 
Q 17.828125 56 27.875 56 
Q 33.9375 56 38.28125 53.609375 
Q 42.625 51.21875 45.40625 46.390625 
L 45.40625 54.6875 
L 54.390625 54.6875 
z
" id="DejaVuSans-103"/>
      <path d="M 30.609375 48.390625 
Q 23.390625 48.390625 19.1875 42.75 
Q 14.984375 37.109375 14.984375 27.296875 
Q 14.984375 17.484375 19.15625 11.84375 
Q 23.34375 6.203125 30.609375 6.203125 
Q 37.796875 6.203125 41.984375 11.859375 
Q 46.1875 17.53125 46.1875 27.296875 
Q 46.1875 37.015625 41.984375 42.703125 
Q 37.796875 48.390625 30.609375 48.390625 
z
M 30.609375 56 
Q 42.328125 56 49.015625 48.375 
Q 55.71875 40.765625 55.71875 27.296875 
Q 55.71875 13.875 49.015625 6.21875 
Q 42.328125 -1.421875 30.609375 -1.421875 
Q 18.84375 -1.421875 12.171875 6.21875 
Q 5.515625 13.875 5.515625 27.296875 
Q 5.515625 40.765625 12.171875 48.375 
Q 18.84375 56 30.609375 56 
z
" id="DejaVuSans-111"/>
     </defs>
     <g transform="translate(316.72 38.476562)scale(0.1 -0.1)">
      <use xlink:href="#DejaVuSans-108"/>
      <use x="27.783203" xlink:href="#DejaVuSans-105"/>
      <use x="55.566406" xlink:href="#DejaVuSans-110"/>
      <use x="118.945312" xlink:href="#DejaVuSans-101"/>
      <use x="180.46875" xlink:href="#DejaVuSans-97"/>
      <use x="241.748047" xlink:href="#DejaVuSans-114"/>
      <use x="282.861328" xlink:href="#DejaVuSans-32"/>
      <use x="314.648438" xlink:href="#DejaVuSans-114"/>
      <use x="353.511719" xlink:href="#DejaVuSans-101"/>
      <use x="415.035156" xlink:href="#DejaVuSans-103"/>
      <use x="478.511719" xlink:href="#DejaVuSans-105"/>
      <use x="506.294922" xlink:href="#DejaVuSans-111"/>
      <use x="567.476562" xlink:href="#DejaVuSans-110"/>
     </g>
    </g>
    <g id="line2d_80">
     <path d="M 288.72 49.65625 
L 308.72 49.65625 
" style="fill:none;stroke:#000000;stroke-dasharray:5.55,2.4;stroke-dashoffset:0;stroke-width:1.5;"/>
    </g>
    <g id="line2d_81"/>
    <g id="text_19">
     <!-- $ \exp(-2.587 k)$ -->
     <defs>
      <path d="M 54.890625 54.6875 
L 35.109375 28.078125 
L 55.90625 0 
L 45.3125 0 
L 29.390625 21.484375 
L 13.484375 0 
L 2.875 0 
L 24.125 28.609375 
L 4.6875 54.6875 
L 15.28125 54.6875 
L 29.78125 35.203125 
L 44.28125 54.6875 
z
" id="DejaVuSans-120"/>
      <path d="M 18.109375 8.203125 
L 18.109375 -20.796875 
L 9.078125 -20.796875 
L 9.078125 54.6875 
L 18.109375 54.6875 
L 18.109375 46.390625 
Q 20.953125 51.265625 25.265625 53.625 
Q 29.59375 56 35.59375 56 
Q 45.5625 56 51.78125 48.09375 
Q 58.015625 40.1875 58.015625 27.296875 
Q 58.015625 14.40625 51.78125 6.484375 
Q 45.5625 -1.421875 35.59375 -1.421875 
Q 29.59375 -1.421875 25.265625 0.953125 
Q 20.953125 3.328125 18.109375 8.203125 
z
M 48.6875 27.296875 
Q 48.6875 37.203125 44.609375 42.84375 
Q 40.53125 48.484375 33.40625 48.484375 
Q 26.265625 48.484375 22.1875 42.84375 
Q 18.109375 37.203125 18.109375 27.296875 
Q 18.109375 17.390625 22.1875 11.75 
Q 26.265625 6.109375 33.40625 6.109375 
Q 40.53125 6.109375 44.609375 11.75 
Q 48.6875 17.390625 48.6875 27.296875 
z
" id="DejaVuSans-112"/>
      <path d="M 31 75.875 
Q 24.46875 64.65625 21.28125 53.65625 
Q 18.109375 42.671875 18.109375 31.390625 
Q 18.109375 20.125 21.3125 9.0625 
Q 24.515625 -2 31 -13.1875 
L 23.1875 -13.1875 
Q 15.875 -1.703125 12.234375 9.375 
Q 8.59375 20.453125 8.59375 31.390625 
Q 8.59375 42.28125 12.203125 53.3125 
Q 15.828125 64.359375 23.1875 75.875 
z
" id="DejaVuSans-40"/>
      <path d="M 10.6875 12.40625 
L 21 12.40625 
L 21 0 
L 10.6875 0 
z
" id="DejaVuSans-46"/>
      <path d="M 31.78125 34.625 
Q 24.75 34.625 20.71875 30.859375 
Q 16.703125 27.09375 16.703125 20.515625 
Q 16.703125 13.921875 20.71875 10.15625 
Q 24.75 6.390625 31.78125 6.390625 
Q 38.8125 6.390625 42.859375 10.171875 
Q 46.921875 13.96875 46.921875 20.515625 
Q 46.921875 27.09375 42.890625 30.859375 
Q 38.875 34.625 31.78125 34.625 
z
M 21.921875 38.8125 
Q 15.578125 40.375 12.03125 44.71875 
Q 8.5 49.078125 8.5 55.328125 
Q 8.5 64.0625 14.71875 69.140625 
Q 20.953125 74.21875 31.78125 74.21875 
Q 42.671875 74.21875 48.875 69.140625 
Q 55.078125 64.0625 55.078125 55.328125 
Q 55.078125 49.078125 51.53125 44.71875 
Q 48 40.375 41.703125 38.8125 
Q 48.828125 37.15625 52.796875 32.3125 
Q 56.78125 27.484375 56.78125 20.515625 
Q 56.78125 9.90625 50.3125 4.234375 
Q 43.84375 -1.421875 31.78125 -1.421875 
Q 19.734375 -1.421875 13.25 4.234375 
Q 6.78125 9.90625 6.78125 20.515625 
Q 6.78125 27.484375 10.78125 32.3125 
Q 14.796875 37.15625 21.921875 38.8125 
z
M 18.3125 54.390625 
Q 18.3125 48.734375 21.84375 45.5625 
Q 25.390625 42.390625 31.78125 42.390625 
Q 38.140625 42.390625 41.71875 45.5625 
Q 45.3125 48.734375 45.3125 54.390625 
Q 45.3125 60.0625 41.71875 63.234375 
Q 38.140625 66.40625 31.78125 66.40625 
Q 25.390625 66.40625 21.84375 63.234375 
Q 18.3125 60.0625 18.3125 54.390625 
z
" id="DejaVuSans-56"/>
      <path d="M 8.015625 75.875 
L 15.828125 75.875 
Q 23.140625 64.359375 26.78125 53.3125 
Q 30.421875 42.28125 30.421875 31.390625 
Q 30.421875 20.453125 26.78125 9.375 
Q 23.140625 -1.703125 15.828125 -13.1875 
L 8.015625 -13.1875 
Q 14.5 -2 17.703125 9.0625 
Q 20.90625 20.125 20.90625 31.390625 
Q 20.90625 42.671875 17.703125 53.65625 
Q 14.5 64.65625 8.015625 75.875 
z
" id="DejaVuSans-41"/>
     </defs>
     <g transform="translate(316.72 53.15625)scale(0.1 -0.1)">
      <use transform="translate(0 0.015625)" xlink:href="#DejaVuSans-101"/>
      <use transform="translate(61.523438 0.015625)" xlink:href="#DejaVuSans-120"/>
      <use transform="translate(120.703125 0.015625)" xlink:href="#DejaVuSans-112"/>
      <use transform="translate(184.179688 0.015625)" xlink:href="#DejaVuSans-40"/>
      <use transform="translate(223.193359 0.015625)" xlink:href="#DejaVuSans-8722"/>
      <use transform="translate(306.982422 0.015625)" xlink:href="#DejaVuSans-50"/>
      <use transform="translate(370.605469 0.015625)" xlink:href="#DejaVuSans-46"/>
      <use transform="translate(402.392578 0.015625)" xlink:href="#DejaVuSans-53"/>
      <use transform="translate(466.015625 0.015625)" xlink:href="#DejaVuSans-56"/>
      <use transform="translate(529.638672 0.015625)" xlink:href="#DejaVuSans-55"/>
      <use transform="translate(593.261719 0.015625)" xlink:href="#DejaVuSans-Oblique-107"/>
      <use transform="translate(651.171875 0.015625)" xlink:href="#DejaVuSans-41"/>
     </g>
    </g>
   </g>
  </g>
 </g>
 <defs>
  <clipPath id="p4cf52179ad">
   <rect height="266.112" width="357.12" x="37.7" y="7.2"/>
  </clipPath>
 </defs>
</svg>
