<?xml version="1.0" encoding="utf-8" standalone="no"?>
<!DOCTYPE svg PUBLIC "-//W3C//DTD SVG 1.1//EN"
  "http://www.w3.org/Graphics/SVG/1.1/DTD/svg11.dtd">
<!-- Created with matplotlib (https://matplotlib.org/) -->
<svg height="314.140241pt" version="1.1" viewBox="0 0 402.02 314.140241" width="402.02pt" xmlns="http://www.w3.org/2000/svg" xmlns:xlink="http://www.w3.org/1999/xlink">
 <defs>
  <style type="text/css">
*{stroke-linecap:butt;stroke-linejoin:round;}
  </style>
 </defs>
 <g id="figure_1">
  <g id="patch_1">
   <path d="M 0 314.140241 
L 402.02 314.140241 
L 402.02 0 
L 0 0 
z
" style="fill:#ffffff;"/>
  </g>
  <g id="axes_1">
   <g id="patch_2">
    <path d="M 37.7 276.583991 
L 394.82 276.583991 
L 394.82 10.471991 
L 37.7 10.471991 
z
" style="fill:#ffffff;"/>
   </g>
   <g id="matplotlib.axis_1">
    <g id="xtick_1">
     <g id="line2d_1">
      <defs>
       <path d="M 0 0 
L 0 3.5 
" id="m05321695f3" style="stroke:#000000;stroke-width:0.8;"/>
      </defs>
      <g>
       <use style="stroke:#000000;stroke-width:0.8;" x="53.932727" xlink:href="#m05321695f3" y="276.583991"/>
      </g>
     </g>
     <g id="text_1">
      <!-- 0 -->
      <defs>
       <path d="M 31.78125 66.40625 
Q 24.171875 66.40625 20.328125 58.90625 
Q 16.5 51.421875 16.5 36.375 
Q 16.5 21.390625 20.328125 13.890625 
Q 24.171875 6.390625 31.78125 6.390625 
Q 39.453125 6.390625 43.28125 13.890625 
Q 47.125 21.390625 47.125 36.375 
Q 47.125 51.421875 43.28125 58.90625 
Q 39.453125 66.40625 31.78125 66.40625 
z
M 31.78125 74.21875 
Q 44.046875 74.21875 50.515625 64.515625 
Q 56.984375 54.828125 56.984375 36.375 
Q 56.984375 17.96875 50.515625 8.265625 
Q 44.046875 -1.421875 31.78125 -1.421875 
Q 19.53125 -1.421875 13.0625 8.265625 
Q 6.59375 17.96875 6.59375 36.375 
Q 6.59375 54.828125 13.0625 64.515625 
Q 19.53125 74.21875 31.78125 74.21875 
z
" id="DejaVuSans-48"/>
      </defs>
      <g transform="translate(50.751477 291.182428)scale(0.1 -0.1)">
       <use xlink:href="#DejaVuSans-48"/>
      </g>
     </g>
    </g>
    <g id="xtick_2">
     <g id="line2d_2">
      <g>
       <use style="stroke:#000000;stroke-width:0.8;" x="115.420331" xlink:href="#m05321695f3" y="276.583991"/>
      </g>
     </g>
     <g id="text_2">
      <!-- 50 -->
      <defs>
       <path d="M 10.796875 72.90625 
L 49.515625 72.90625 
L 49.515625 64.59375 
L 19.828125 64.59375 
L 19.828125 46.734375 
Q 21.96875 47.46875 24.109375 47.828125 
Q 26.265625 48.1875 28.421875 48.1875 
Q 40.625 48.1875 47.75 41.5 
Q 54.890625 34.8125 54.890625 23.390625 
Q 54.890625 11.625 47.5625 5.09375 
Q 40.234375 -1.421875 26.90625 -1.421875 
Q 22.3125 -1.421875 17.546875 -0.640625 
Q 12.796875 0.140625 7.71875 1.703125 
L 7.71875 11.625 
Q 12.109375 9.234375 16.796875 8.0625 
Q 21.484375 6.890625 26.703125 6.890625 
Q 35.15625 6.890625 40.078125 11.328125 
Q 45.015625 15.765625 45.015625 23.390625 
Q 45.015625 31 40.078125 35.4375 
Q 35.15625 39.890625 26.703125 39.890625 
Q 22.75 39.890625 18.8125 39.015625 
Q 14.890625 38.140625 10.796875 36.28125 
z
" id="DejaVuSans-53"/>
      </defs>
      <g transform="translate(109.057831 291.182428)scale(0.1 -0.1)">
       <use xlink:href="#DejaVuSans-53"/>
       <use x="63.623047" xlink:href="#DejaVuSans-48"/>
      </g>
     </g>
    </g>
    <g id="xtick_3">
     <g id="line2d_3">
      <g>
       <use style="stroke:#000000;stroke-width:0.8;" x="176.907934" xlink:href="#m05321695f3" y="276.583991"/>
      </g>
     </g>
     <g id="text_3">
      <!-- 100 -->
      <defs>
       <path d="M 12.40625 8.296875 
L 28.515625 8.296875 
L 28.515625 63.921875 
L 10.984375 60.40625 
L 10.984375 69.390625 
L 28.421875 72.90625 
L 38.28125 72.90625 
L 38.28125 8.296875 
L 54.390625 8.296875 
L 54.390625 0 
L 12.40625 0 
z
" id="DejaVuSans-49"/>
      </defs>
      <g transform="translate(167.364184 291.182428)scale(0.1 -0.1)">
       <use xlink:href="#DejaVuSans-49"/>
       <use x="63.623047" xlink:href="#DejaVuSans-48"/>
       <use x="127.246094" xlink:href="#DejaVuSans-48"/>
      </g>
     </g>
    </g>
    <g id="xtick_4">
     <g id="line2d_4">
      <g>
       <use style="stroke:#000000;stroke-width:0.8;" x="238.395537" xlink:href="#m05321695f3" y="276.583991"/>
      </g>
     </g>
     <g id="text_4">
      <!-- 150 -->
      <g transform="translate(228.851787 291.182428)scale(0.1 -0.1)">
       <use xlink:href="#DejaVuSans-49"/>
       <use x="63.623047" xlink:href="#DejaVuSans-53"/>
       <use x="127.246094" xlink:href="#DejaVuSans-48"/>
      </g>
     </g>
    </g>
    <g id="xtick_5">
     <g id="line2d_5">
      <g>
       <use style="stroke:#000000;stroke-width:0.8;" x="299.88314" xlink:href="#m05321695f3" y="276.583991"/>
      </g>
     </g>
     <g id="text_5">
      <!-- 200 -->
      <defs>
       <path d="M 19.1875 8.296875 
L 53.609375 8.296875 
L 53.609375 0 
L 7.328125 0 
L 7.328125 8.296875 
Q 12.9375 14.109375 22.625 23.890625 
Q 32.328125 33.6875 34.8125 36.53125 
Q 39.546875 41.84375 41.421875 45.53125 
Q 43.3125 49.21875 43.3125 52.78125 
Q 43.3125 58.59375 39.234375 62.25 
Q 35.15625 65.921875 28.609375 65.921875 
Q 23.96875 65.921875 18.8125 64.3125 
Q 13.671875 62.703125 7.8125 59.421875 
L 7.8125 69.390625 
Q 13.765625 71.78125 18.9375 73 
Q 24.125 74.21875 28.421875 74.21875 
Q 39.75 74.21875 46.484375 68.546875 
Q 53.21875 62.890625 53.21875 53.421875 
Q 53.21875 48.921875 51.53125 44.890625 
Q 49.859375 40.875 45.40625 35.40625 
Q 44.1875 33.984375 37.640625 27.21875 
Q 31.109375 20.453125 19.1875 8.296875 
z
" id="DejaVuSans-50"/>
      </defs>
      <g transform="translate(290.33939 291.182428)scale(0.1 -0.1)">
       <use xlink:href="#DejaVuSans-50"/>
       <use x="63.623047" xlink:href="#DejaVuSans-48"/>
       <use x="127.246094" xlink:href="#DejaVuSans-48"/>
      </g>
     </g>
    </g>
    <g id="xtick_6">
     <g id="line2d_6">
      <g>
       <use style="stroke:#000000;stroke-width:0.8;" x="361.370744" xlink:href="#m05321695f3" y="276.583991"/>
      </g>
     </g>
     <g id="text_6">
      <!-- 250 -->
      <g transform="translate(351.826994 291.182428)scale(0.1 -0.1)">
       <use xlink:href="#DejaVuSans-50"/>
       <use x="63.623047" xlink:href="#DejaVuSans-53"/>
       <use x="127.246094" xlink:href="#DejaVuSans-48"/>
      </g>
     </g>
    </g>
    <g id="text_7">
     <!-- $ k $ -->
     <defs>
      <path d="M 18.3125 75.984375 
L 27.296875 75.984375 
L 18.703125 31.6875 
L 49.515625 54.6875 
L 61.1875 54.6875 
L 26.8125 28.515625 
L 51.90625 0 
L 41.015625 0 
L 17.671875 26.703125 
L 12.5 0 
L 3.515625 0 
z
" id="DejaVuSans-Oblique-107"/>
     </defs>
     <g transform="translate(213.36 304.860553)scale(0.1 -0.1)">
      <use transform="translate(0 0.015625)" xlink:href="#DejaVuSans-Oblique-107"/>
     </g>
    </g>
   </g>
   <g id="matplotlib.axis_2">
    <g id="ytick_1">
     <g id="line2d_7">
      <defs>
       <path d="M 0 0 
L -3.5 0 
" id="mc6920b28a3" style="stroke:#000000;stroke-width:0.8;"/>
      </defs>
      <g>
       <use style="stroke:#000000;stroke-width:0.8;" x="37.7" xlink:href="#mc6920b28a3" y="248.071284"/>
      </g>
     </g>
     <g id="text_8">
      <!-- $\mathdefault{10^{-5}}$ -->
      <defs>
       <path d="M 10.59375 35.5 
L 73.1875 35.5 
L 73.1875 27.203125 
L 10.59375 27.203125 
z
" id="DejaVuSans-8722"/>
      </defs>
      <g transform="translate(7.2 251.870502)scale(0.1 -0.1)">
       <use transform="translate(0 0.684375)" xlink:href="#DejaVuSans-49"/>
       <use transform="translate(63.623047 0.684375)" xlink:href="#DejaVuSans-48"/>
       <use transform="translate(128.203125 38.965625)scale(0.7)" xlink:href="#DejaVuSans-8722"/>
       <use transform="translate(186.855469 38.965625)scale(0.7)" xlink:href="#DejaVuSans-53"/>
      </g>
     </g>
    </g>
    <g id="ytick_2">
     <g id="line2d_8">
      <g>
       <use style="stroke:#000000;stroke-width:0.8;" x="37.7" xlink:href="#mc6920b28a3" y="214.203846"/>
      </g>
     </g>
     <g id="text_9">
      <!-- $\mathdefault{10^{-4}}$ -->
      <defs>
       <path d="M 37.796875 64.3125 
L 12.890625 25.390625 
L 37.796875 25.390625 
z
M 35.203125 72.90625 
L 47.609375 72.90625 
L 47.609375 25.390625 
L 58.015625 25.390625 
L 58.015625 17.1875 
L 47.609375 17.1875 
L 47.609375 0 
L 37.796875 0 
L 37.796875 17.1875 
L 4.890625 17.1875 
L 4.890625 26.703125 
z
" id="DejaVuSans-52"/>
      </defs>
      <g transform="translate(7.2 218.003065)scale(0.1 -0.1)">
       <use transform="translate(0 0.684375)" xlink:href="#DejaVuSans-49"/>
       <use transform="translate(63.623047 0.684375)" xlink:href="#DejaVuSans-48"/>
       <use transform="translate(128.203125 38.965625)scale(0.7)" xlink:href="#DejaVuSans-8722"/>
       <use transform="translate(186.855469 38.965625)scale(0.7)" xlink:href="#DejaVuSans-52"/>
      </g>
     </g>
    </g>
    <g id="ytick_3">
     <g id="line2d_9">
      <g>
       <use style="stroke:#000000;stroke-width:0.8;" x="37.7" xlink:href="#mc6920b28a3" y="180.336408"/>
      </g>
     </g>
     <g id="text_10">
      <!-- $\mathdefault{10^{-3}}$ -->
      <defs>
       <path d="M 40.578125 39.3125 
Q 47.65625 37.796875 51.625 33 
Q 55.609375 28.21875 55.609375 21.1875 
Q 55.609375 10.40625 48.1875 4.484375 
Q 40.765625 -1.421875 27.09375 -1.421875 
Q 22.515625 -1.421875 17.65625 -0.515625 
Q 12.796875 0.390625 7.625 2.203125 
L 7.625 11.71875 
Q 11.71875 9.328125 16.59375 8.109375 
Q 21.484375 6.890625 26.8125 6.890625 
Q 36.078125 6.890625 40.9375 10.546875 
Q 45.796875 14.203125 45.796875 21.1875 
Q 45.796875 27.640625 41.28125 31.265625 
Q 36.765625 34.90625 28.71875 34.90625 
L 20.21875 34.90625 
L 20.21875 43.015625 
L 29.109375 43.015625 
Q 36.375 43.015625 40.234375 45.921875 
Q 44.09375 48.828125 44.09375 54.296875 
Q 44.09375 59.90625 40.109375 62.90625 
Q 36.140625 65.921875 28.71875 65.921875 
Q 24.65625 65.921875 20.015625 65.03125 
Q 15.375 64.15625 9.8125 62.3125 
L 9.8125 71.09375 
Q 15.4375 72.65625 20.34375 73.4375 
Q 25.25 74.21875 29.59375 74.21875 
Q 40.828125 74.21875 47.359375 69.109375 
Q 53.90625 64.015625 53.90625 55.328125 
Q 53.90625 49.265625 50.4375 45.09375 
Q 46.96875 40.921875 40.578125 39.3125 
z
" id="DejaVuSans-51"/>
      </defs>
      <g transform="translate(7.2 184.135627)scale(0.1 -0.1)">
       <use transform="translate(0 0.765625)" xlink:href="#DejaVuSans-49"/>
       <use transform="translate(63.623047 0.765625)" xlink:href="#DejaVuSans-48"/>
       <use transform="translate(128.203125 39.046875)scale(0.7)" xlink:href="#DejaVuSans-8722"/>
       <use transform="translate(186.855469 39.046875)scale(0.7)" xlink:href="#DejaVuSans-51"/>
      </g>
     </g>
    </g>
    <g id="ytick_4">
     <g id="line2d_10">
      <g>
       <use style="stroke:#000000;stroke-width:0.8;" x="37.7" xlink:href="#mc6920b28a3" y="146.46897"/>
      </g>
     </g>
     <g id="text_11">
      <!-- $\mathdefault{10^{-2}}$ -->
      <g transform="translate(7.2 150.268189)scale(0.1 -0.1)">
       <use transform="translate(0 0.765625)" xlink:href="#DejaVuSans-49"/>
       <use transform="translate(63.623047 0.765625)" xlink:href="#DejaVuSans-48"/>
       <use transform="translate(128.203125 39.046875)scale(0.7)" xlink:href="#DejaVuSans-8722"/>
       <use transform="translate(186.855469 39.046875)scale(0.7)" xlink:href="#DejaVuSans-50"/>
      </g>
     </g>
    </g>
    <g id="ytick_5">
     <g id="line2d_11">
      <g>
       <use style="stroke:#000000;stroke-width:0.8;" x="37.7" xlink:href="#mc6920b28a3" y="112.601532"/>
      </g>
     </g>
     <g id="text_12">
      <!-- $\mathdefault{10^{-1}}$ -->
      <g transform="translate(7.2 116.400751)scale(0.1 -0.1)">
       <use transform="translate(0 0.684375)" xlink:href="#DejaVuSans-49"/>
       <use transform="translate(63.623047 0.684375)" xlink:href="#DejaVuSans-48"/>
       <use transform="translate(128.203125 38.965625)scale(0.7)" xlink:href="#DejaVuSans-8722"/>
       <use transform="translate(186.855469 38.965625)scale(0.7)" xlink:href="#DejaVuSans-49"/>
      </g>
     </g>
    </g>
    <g id="ytick_6">
     <g id="line2d_12">
      <g>
       <use style="stroke:#000000;stroke-width:0.8;" x="37.7" xlink:href="#mc6920b28a3" y="78.734094"/>
      </g>
     </g>
     <g id="text_13">
      <!-- $\mathdefault{10^{0}}$ -->
      <g transform="translate(13.1 82.533313)scale(0.1 -0.1)">
       <use transform="translate(0 0.765625)" xlink:href="#DejaVuSans-49"/>
       <use transform="translate(63.623047 0.765625)" xlink:href="#DejaVuSans-48"/>
       <use transform="translate(128.203125 39.046875)scale(0.7)" xlink:href="#DejaVuSans-48"/>
      </g>
     </g>
    </g>
    <g id="ytick_7">
     <g id="line2d_13">
      <g>
       <use style="stroke:#000000;stroke-width:0.8;" x="37.7" xlink:href="#mc6920b28a3" y="44.866657"/>
      </g>
     </g>
     <g id="text_14">
      <!-- $\mathdefault{10^{1}}$ -->
      <g transform="translate(13.1 48.665875)scale(0.1 -0.1)">
       <use transform="translate(0 0.684375)" xlink:href="#DejaVuSans-49"/>
       <use transform="translate(63.623047 0.684375)" xlink:href="#DejaVuSans-48"/>
       <use transform="translate(128.203125 38.965625)scale(0.7)" xlink:href="#DejaVuSans-49"/>
      </g>
     </g>
    </g>
    <g id="ytick_8">
     <g id="line2d_14">
      <g>
       <use style="stroke:#000000;stroke-width:0.8;" x="37.7" xlink:href="#mc6920b28a3" y="10.999219"/>
      </g>
     </g>
     <g id="text_15">
      <!-- $\mathdefault{10^{2}}$ -->
      <g transform="translate(13.1 14.798438)scale(0.1 -0.1)">
       <use transform="translate(0 0.765625)" xlink:href="#DejaVuSans-49"/>
       <use transform="translate(63.623047 0.765625)" xlink:href="#DejaVuSans-48"/>
       <use transform="translate(128.203125 39.046875)scale(0.7)" xlink:href="#DejaVuSans-50"/>
      </g>
     </g>
    </g>
    <g id="ytick_9">
     <g id="line2d_15">
      <defs>
       <path d="M 0 0 
L -2 0 
" id="me8de6ff520" style="stroke:#000000;stroke-width:0.6;"/>
      </defs>
      <g>
       <use style="stroke:#000000;stroke-width:0.6;" x="37.7" xlink:href="#me8de6ff520" y="271.743607"/>
      </g>
     </g>
    </g>
    <g id="ytick_10">
     <g id="line2d_16">
      <g>
       <use style="stroke:#000000;stroke-width:0.6;" x="37.7" xlink:href="#me8de6ff520" y="265.779847"/>
      </g>
     </g>
    </g>
    <g id="ytick_11">
     <g id="line2d_17">
      <g>
       <use style="stroke:#000000;stroke-width:0.6;" x="37.7" xlink:href="#me8de6ff520" y="261.548492"/>
      </g>
     </g>
    </g>
    <g id="ytick_12">
     <g id="line2d_18">
      <g>
       <use style="stroke:#000000;stroke-width:0.6;" x="37.7" xlink:href="#me8de6ff520" y="258.266398"/>
      </g>
     </g>
    </g>
    <g id="ytick_13">
     <g id="line2d_19">
      <g>
       <use style="stroke:#000000;stroke-width:0.6;" x="37.7" xlink:href="#me8de6ff520" y="255.584732"/>
      </g>
     </g>
    </g>
    <g id="ytick_14">
     <g id="line2d_20">
      <g>
       <use style="stroke:#000000;stroke-width:0.6;" x="37.7" xlink:href="#me8de6ff520" y="253.317416"/>
      </g>
     </g>
    </g>
    <g id="ytick_15">
     <g id="line2d_21">
      <g>
       <use style="stroke:#000000;stroke-width:0.6;" x="37.7" xlink:href="#me8de6ff520" y="251.353378"/>
      </g>
     </g>
    </g>
    <g id="ytick_16">
     <g id="line2d_22">
      <g>
       <use style="stroke:#000000;stroke-width:0.6;" x="37.7" xlink:href="#me8de6ff520" y="249.620973"/>
      </g>
     </g>
    </g>
    <g id="ytick_17">
     <g id="line2d_23">
      <g>
       <use style="stroke:#000000;stroke-width:0.6;" x="37.7" xlink:href="#me8de6ff520" y="237.876169"/>
      </g>
     </g>
    </g>
    <g id="ytick_18">
     <g id="line2d_24">
      <g>
       <use style="stroke:#000000;stroke-width:0.6;" x="37.7" xlink:href="#me8de6ff520" y="231.912409"/>
      </g>
     </g>
    </g>
    <g id="ytick_19">
     <g id="line2d_25">
      <g>
       <use style="stroke:#000000;stroke-width:0.6;" x="37.7" xlink:href="#me8de6ff520" y="227.681054"/>
      </g>
     </g>
    </g>
    <g id="ytick_20">
     <g id="line2d_26">
      <g>
       <use style="stroke:#000000;stroke-width:0.6;" x="37.7" xlink:href="#me8de6ff520" y="224.398961"/>
      </g>
     </g>
    </g>
    <g id="ytick_21">
     <g id="line2d_27">
      <g>
       <use style="stroke:#000000;stroke-width:0.6;" x="37.7" xlink:href="#me8de6ff520" y="221.717295"/>
      </g>
     </g>
    </g>
    <g id="ytick_22">
     <g id="line2d_28">
      <g>
       <use style="stroke:#000000;stroke-width:0.6;" x="37.7" xlink:href="#me8de6ff520" y="219.449978"/>
      </g>
     </g>
    </g>
    <g id="ytick_23">
     <g id="line2d_29">
      <g>
       <use style="stroke:#000000;stroke-width:0.6;" x="37.7" xlink:href="#me8de6ff520" y="217.48594"/>
      </g>
     </g>
    </g>
    <g id="ytick_24">
     <g id="line2d_30">
      <g>
       <use style="stroke:#000000;stroke-width:0.6;" x="37.7" xlink:href="#me8de6ff520" y="215.753535"/>
      </g>
     </g>
    </g>
    <g id="ytick_25">
     <g id="line2d_31">
      <g>
       <use style="stroke:#000000;stroke-width:0.6;" x="37.7" xlink:href="#me8de6ff520" y="204.008731"/>
      </g>
     </g>
    </g>
    <g id="ytick_26">
     <g id="line2d_32">
      <g>
       <use style="stroke:#000000;stroke-width:0.6;" x="37.7" xlink:href="#me8de6ff520" y="198.044971"/>
      </g>
     </g>
    </g>
    <g id="ytick_27">
     <g id="line2d_33">
      <g>
       <use style="stroke:#000000;stroke-width:0.6;" x="37.7" xlink:href="#me8de6ff520" y="193.813617"/>
      </g>
     </g>
    </g>
    <g id="ytick_28">
     <g id="line2d_34">
      <g>
       <use style="stroke:#000000;stroke-width:0.6;" x="37.7" xlink:href="#me8de6ff520" y="190.531523"/>
      </g>
     </g>
    </g>
    <g id="ytick_29">
     <g id="line2d_35">
      <g>
       <use style="stroke:#000000;stroke-width:0.6;" x="37.7" xlink:href="#me8de6ff520" y="187.849857"/>
      </g>
     </g>
    </g>
    <g id="ytick_30">
     <g id="line2d_36">
      <g>
       <use style="stroke:#000000;stroke-width:0.6;" x="37.7" xlink:href="#me8de6ff520" y="185.58254"/>
      </g>
     </g>
    </g>
    <g id="ytick_31">
     <g id="line2d_37">
      <g>
       <use style="stroke:#000000;stroke-width:0.6;" x="37.7" xlink:href="#me8de6ff520" y="183.618502"/>
      </g>
     </g>
    </g>
    <g id="ytick_32">
     <g id="line2d_38">
      <g>
       <use style="stroke:#000000;stroke-width:0.6;" x="37.7" xlink:href="#me8de6ff520" y="181.886097"/>
      </g>
     </g>
    </g>
    <g id="ytick_33">
     <g id="line2d_39">
      <g>
       <use style="stroke:#000000;stroke-width:0.6;" x="37.7" xlink:href="#me8de6ff520" y="170.141293"/>
      </g>
     </g>
    </g>
    <g id="ytick_34">
     <g id="line2d_40">
      <g>
       <use style="stroke:#000000;stroke-width:0.6;" x="37.7" xlink:href="#me8de6ff520" y="164.177534"/>
      </g>
     </g>
    </g>
    <g id="ytick_35">
     <g id="line2d_41">
      <g>
       <use style="stroke:#000000;stroke-width:0.6;" x="37.7" xlink:href="#me8de6ff520" y="159.946179"/>
      </g>
     </g>
    </g>
    <g id="ytick_36">
     <g id="line2d_42">
      <g>
       <use style="stroke:#000000;stroke-width:0.6;" x="37.7" xlink:href="#me8de6ff520" y="156.664085"/>
      </g>
     </g>
    </g>
    <g id="ytick_37">
     <g id="line2d_43">
      <g>
       <use style="stroke:#000000;stroke-width:0.6;" x="37.7" xlink:href="#me8de6ff520" y="153.982419"/>
      </g>
     </g>
    </g>
    <g id="ytick_38">
     <g id="line2d_44">
      <g>
       <use style="stroke:#000000;stroke-width:0.6;" x="37.7" xlink:href="#me8de6ff520" y="151.715103"/>
      </g>
     </g>
    </g>
    <g id="ytick_39">
     <g id="line2d_45">
      <g>
       <use style="stroke:#000000;stroke-width:0.6;" x="37.7" xlink:href="#me8de6ff520" y="149.751064"/>
      </g>
     </g>
    </g>
    <g id="ytick_40">
     <g id="line2d_46">
      <g>
       <use style="stroke:#000000;stroke-width:0.6;" x="37.7" xlink:href="#me8de6ff520" y="148.018659"/>
      </g>
     </g>
    </g>
    <g id="ytick_41">
     <g id="line2d_47">
      <g>
       <use style="stroke:#000000;stroke-width:0.6;" x="37.7" xlink:href="#me8de6ff520" y="136.273855"/>
      </g>
     </g>
    </g>
    <g id="ytick_42">
     <g id="line2d_48">
      <g>
       <use style="stroke:#000000;stroke-width:0.6;" x="37.7" xlink:href="#me8de6ff520" y="130.310096"/>
      </g>
     </g>
    </g>
    <g id="ytick_43">
     <g id="line2d_49">
      <g>
       <use style="stroke:#000000;stroke-width:0.6;" x="37.7" xlink:href="#me8de6ff520" y="126.078741"/>
      </g>
     </g>
    </g>
    <g id="ytick_44">
     <g id="line2d_50">
      <g>
       <use style="stroke:#000000;stroke-width:0.6;" x="37.7" xlink:href="#me8de6ff520" y="122.796647"/>
      </g>
     </g>
    </g>
    <g id="ytick_45">
     <g id="line2d_51">
      <g>
       <use style="stroke:#000000;stroke-width:0.6;" x="37.7" xlink:href="#me8de6ff520" y="120.114981"/>
      </g>
     </g>
    </g>
    <g id="ytick_46">
     <g id="line2d_52">
      <g>
       <use style="stroke:#000000;stroke-width:0.6;" x="37.7" xlink:href="#me8de6ff520" y="117.847665"/>
      </g>
     </g>
    </g>
    <g id="ytick_47">
     <g id="line2d_53">
      <g>
       <use style="stroke:#000000;stroke-width:0.6;" x="37.7" xlink:href="#me8de6ff520" y="115.883626"/>
      </g>
     </g>
    </g>
    <g id="ytick_48">
     <g id="line2d_54">
      <g>
       <use style="stroke:#000000;stroke-width:0.6;" x="37.7" xlink:href="#me8de6ff520" y="114.151221"/>
      </g>
     </g>
    </g>
    <g id="ytick_49">
     <g id="line2d_55">
      <g>
       <use style="stroke:#000000;stroke-width:0.6;" x="37.7" xlink:href="#me8de6ff520" y="102.406418"/>
      </g>
     </g>
    </g>
    <g id="ytick_50">
     <g id="line2d_56">
      <g>
       <use style="stroke:#000000;stroke-width:0.6;" x="37.7" xlink:href="#me8de6ff520" y="96.442658"/>
      </g>
     </g>
    </g>
    <g id="ytick_51">
     <g id="line2d_57">
      <g>
       <use style="stroke:#000000;stroke-width:0.6;" x="37.7" xlink:href="#me8de6ff520" y="92.211303"/>
      </g>
     </g>
    </g>
    <g id="ytick_52">
     <g id="line2d_58">
      <g>
       <use style="stroke:#000000;stroke-width:0.6;" x="37.7" xlink:href="#me8de6ff520" y="88.929209"/>
      </g>
     </g>
    </g>
    <g id="ytick_53">
     <g id="line2d_59">
      <g>
       <use style="stroke:#000000;stroke-width:0.6;" x="37.7" xlink:href="#me8de6ff520" y="86.247543"/>
      </g>
     </g>
    </g>
    <g id="ytick_54">
     <g id="line2d_60">
      <g>
       <use style="stroke:#000000;stroke-width:0.6;" x="37.7" xlink:href="#me8de6ff520" y="83.980227"/>
      </g>
     </g>
    </g>
    <g id="ytick_55">
     <g id="line2d_61">
      <g>
       <use style="stroke:#000000;stroke-width:0.6;" x="37.7" xlink:href="#me8de6ff520" y="82.016188"/>
      </g>
     </g>
    </g>
    <g id="ytick_56">
     <g id="line2d_62">
      <g>
       <use style="stroke:#000000;stroke-width:0.6;" x="37.7" xlink:href="#me8de6ff520" y="80.283783"/>
      </g>
     </g>
    </g>
    <g id="ytick_57">
     <g id="line2d_63">
      <g>
       <use style="stroke:#000000;stroke-width:0.6;" x="37.7" xlink:href="#me8de6ff520" y="68.53898"/>
      </g>
     </g>
    </g>
    <g id="ytick_58">
     <g id="line2d_64">
      <g>
       <use style="stroke:#000000;stroke-width:0.6;" x="37.7" xlink:href="#me8de6ff520" y="62.57522"/>
      </g>
     </g>
    </g>
    <g id="ytick_59">
     <g id="line2d_65">
      <g>
       <use style="stroke:#000000;stroke-width:0.6;" x="37.7" xlink:href="#me8de6ff520" y="58.343865"/>
      </g>
     </g>
    </g>
    <g id="ytick_60">
     <g id="line2d_66">
      <g>
       <use style="stroke:#000000;stroke-width:0.6;" x="37.7" xlink:href="#me8de6ff520" y="55.061771"/>
      </g>
     </g>
    </g>
    <g id="ytick_61">
     <g id="line2d_67">
      <g>
       <use style="stroke:#000000;stroke-width:0.6;" x="37.7" xlink:href="#me8de6ff520" y="52.380105"/>
      </g>
     </g>
    </g>
    <g id="ytick_62">
     <g id="line2d_68">
      <g>
       <use style="stroke:#000000;stroke-width:0.6;" x="37.7" xlink:href="#me8de6ff520" y="50.112789"/>
      </g>
     </g>
    </g>
    <g id="ytick_63">
     <g id="line2d_69">
      <g>
       <use style="stroke:#000000;stroke-width:0.6;" x="37.7" xlink:href="#me8de6ff520" y="48.14875"/>
      </g>
     </g>
    </g>
    <g id="ytick_64">
     <g id="line2d_70">
      <g>
       <use style="stroke:#000000;stroke-width:0.6;" x="37.7" xlink:href="#me8de6ff520" y="46.416346"/>
      </g>
     </g>
    </g>
    <g id="ytick_65">
     <g id="line2d_71">
      <g>
       <use style="stroke:#000000;stroke-width:0.6;" x="37.7" xlink:href="#me8de6ff520" y="34.671542"/>
      </g>
     </g>
    </g>
    <g id="ytick_66">
     <g id="line2d_72">
      <g>
       <use style="stroke:#000000;stroke-width:0.6;" x="37.7" xlink:href="#me8de6ff520" y="28.707782"/>
      </g>
     </g>
    </g>
    <g id="ytick_67">
     <g id="line2d_73">
      <g>
       <use style="stroke:#000000;stroke-width:0.6;" x="37.7" xlink:href="#me8de6ff520" y="24.476427"/>
      </g>
     </g>
    </g>
    <g id="ytick_68">
     <g id="line2d_74">
      <g>
       <use style="stroke:#000000;stroke-width:0.6;" x="37.7" xlink:href="#me8de6ff520" y="21.194333"/>
      </g>
     </g>
    </g>
    <g id="ytick_69">
     <g id="line2d_75">
      <g>
       <use style="stroke:#000000;stroke-width:0.6;" x="37.7" xlink:href="#me8de6ff520" y="18.512667"/>
      </g>
     </g>
    </g>
    <g id="ytick_70">
     <g id="line2d_76">
      <g>
       <use style="stroke:#000000;stroke-width:0.6;" x="37.7" xlink:href="#me8de6ff520" y="16.245351"/>
      </g>
     </g>
    </g>
    <g id="ytick_71">
     <g id="line2d_77">
      <g>
       <use style="stroke:#000000;stroke-width:0.6;" x="37.7" xlink:href="#me8de6ff520" y="14.281313"/>
      </g>
     </g>
    </g>
    <g id="ytick_72">
     <g id="line2d_78">
      <g>
       <use style="stroke:#000000;stroke-width:0.6;" x="37.7" xlink:href="#me8de6ff520" y="12.548908"/>
      </g>
     </g>
    </g>
   </g>
   <g id="line2d_79">
    <path clip-path="url(#p86d0eecbd4)" d="M 53.932727 22.567991 
L 55.162479 39.473678 
L 56.392231 54.070766 
L 57.621983 72.664578 
L 60.081488 107.041442 
L 65.000496 176.143395 
L 66.230248 192.183203 
L 67.46 202.01173 
L 68.689752 193.503991 
L 69.919504 220.502377 
L 71.149256 178.293768 
L 72.379008 190.54892 
L 73.60876 224.275226 
L 74.838512 176.318899 
L 76.068264 198.818126 
L 77.298017 182.322827 
L 78.527769 195.820532 
L 79.757521 195.022301 
L 80.987273 190.126157 
L 82.217025 200.190599 
L 83.446777 185.811212 
L 84.676529 188.37578 
L 85.906281 184.377439 
L 87.136033 201.152708 
L 88.365785 181.563893 
L 89.595537 207.952261 
L 90.825289 180.417778 
L 92.055041 189.662846 
L 93.284793 185.554018 
L 94.514545 198.452663 
L 95.744298 192.515066 
L 96.97405 195.574376 
L 98.203802 207.80788 
L 99.433554 192.108429 
L 100.663306 186.033424 
L 101.893058 193.804834 
L 103.12281 247.50174 
L 104.352562 186.444619 
L 105.582314 191.394777 
L 106.812066 208.456922 
L 108.041818 199.019289 
L 109.27157 192.453316 
L 110.501322 182.052407 
L 111.731074 197.733948 
L 112.960826 205.4362 
L 114.190579 217.220594 
L 115.420331 193.791993 
L 116.650083 219.072674 
L 117.879835 204.254743 
L 119.109587 175.853604 
L 120.339339 196.272186 
L 121.569091 184.040124 
L 122.798843 201.187462 
L 124.028595 190.190502 
L 125.258347 224.097329 
L 126.488099 189.490634 
L 128.947603 225.240344 
L 130.177355 179.963113 
L 131.407107 204.528664 
L 132.63686 191.248334 
L 133.866612 199.131813 
L 135.096364 195.261242 
L 136.326116 187.589135 
L 137.555868 194.222453 
L 138.78562 188.951936 
L 140.015372 215.645949 
L 141.245124 185.804352 
L 142.474876 211.872496 
L 143.704628 190.411636 
L 144.93438 181.126934 
L 146.164132 192.563365 
L 147.393884 187.904954 
L 148.623636 173.622909 
L 149.853388 179.544904 
L 151.08314 210.274001 
L 152.312893 180.721464 
L 153.542645 205.87287 
L 154.772397 219.752567 
L 156.002149 180.562967 
L 157.231901 213.777468 
L 158.461653 178.098757 
L 159.691405 182.018358 
L 160.921157 211.62405 
L 162.150909 200.220376 
L 163.380661 196.474778 
L 164.610413 185.73385 
L 165.840165 264.487991 
L 167.069917 192.302919 
L 168.299669 204.707229 
L 169.529421 200.505994 
L 170.759174 204.15497 
L 171.988926 183.388073 
L 173.218678 198.967404 
L 174.44843 188.24736 
L 175.678182 217.433902 
L 176.907934 197.55089 
L 178.137686 189.439287 
L 179.367438 191.267354 
L 180.59719 221.893364 
L 181.826942 203.114625 
L 183.056694 186.587653 
L 184.286446 212.945711 
L 185.516198 230.616274 
L 186.74595 229.657287 
L 187.975702 191.430968 
L 189.205455 173.702662 
L 190.435207 221.344133 
L 191.664959 182.984913 
L 192.894711 210.246409 
L 194.124463 173.980446 
L 195.354215 201.747361 
L 196.583967 181.484785 
L 197.813719 213.012267 
L 199.043471 188.245148 
L 200.273223 195.798952 
L 201.502975 177.952301 
L 202.732727 181.763715 
L 203.962479 190.199492 
L 205.192231 190.443284 
L 206.421983 196.532862 
L 207.651736 205.827205 
L 208.881488 200.956919 
L 210.11124 178.887267 
L 211.340992 196.751865 
L 212.570744 184.634421 
L 213.800496 207.68392 
L 215.030248 176.554394 
L 216.26 224.845091 
L 217.489752 188.733964 
L 218.719504 191.642432 
L 219.949256 229.684067 
L 221.179008 221.056004 
L 222.40876 219.132515 
L 223.638512 179.902081 
L 224.868264 185.754712 
L 226.098017 184.293811 
L 227.327769 185.371304 
L 228.557521 186.296772 
L 229.787273 188.235821 
L 231.017025 195.758735 
L 232.246777 199.042812 
L 233.476529 188.312631 
L 234.706281 192.155679 
L 235.936033 186.069294 
L 237.165785 187.891349 
L 238.395537 229.646461 
L 239.625289 176.599338 
L 240.855041 204.880481 
L 242.084793 176.063632 
L 243.314545 194.463701 
L 244.544298 203.139746 
L 245.77405 180.093534 
L 247.003802 255.661965 
L 248.233554 185.413193 
L 249.463306 202.698699 
L 250.693058 192.37493 
L 251.92281 199.837512 
L 253.152562 218.480589 
L 254.382314 187.6411 
L 255.612066 205.266778 
L 256.841818 217.748079 
L 258.07157 181.418235 
L 259.301322 184.931003 
L 260.531074 196.930763 
L 261.760826 169.875369 
L 262.990579 183.399923 
L 264.220331 199.652033 
L 265.450083 198.03 
L 266.679835 201.607629 
L 267.909587 212.108646 
L 269.139339 197.020869 
L 271.598843 222.476198 
L 272.828595 180.934514 
L 274.058347 188.969767 
L 275.288099 194.652691 
L 276.517851 190.282525 
L 277.747603 190.003968 
L 278.977355 177.048165 
L 280.207107 187.546479 
L 281.43686 169.800125 
L 282.666612 188.100957 
L 283.896364 179.662519 
L 285.126116 212.127905 
L 286.355868 207.497892 
L 287.58562 227.685395 
L 288.815372 258.032671 
L 290.045124 183.279757 
L 291.274876 261.811031 
L 292.504628 199.570472 
L 293.73438 200.176752 
L 294.964132 192.329245 
L 296.193884 175.892266 
L 297.423636 203.778941 
L 298.653388 190.865058 
L 299.88314 212.156954 
L 301.112893 180.926419 
L 302.342645 220.518333 
L 303.572397 194.52878 
L 304.802149 183.045903 
L 307.261653 193.828215 
L 308.491405 188.665505 
L 309.721157 218.835925 
L 310.950909 177.439954 
L 312.180661 211.529593 
L 313.410413 203.228913 
L 314.640165 207.746483 
L 315.869917 175.739662 
L 317.099669 201.550353 
L 318.329421 182.60332 
L 319.559174 181.25103 
L 320.788926 209.382374 
L 322.018678 174.114956 
L 323.24843 198.406392 
L 324.478182 203.134829 
L 325.707934 186.78142 
L 326.937686 197.509752 
L 328.167438 185.618894 
L 329.39719 185.252437 
L 330.626942 192.080575 
L 331.856694 188.835189 
L 333.086446 197.792833 
L 334.316198 169.350237 
L 335.54595 200.818122 
L 336.775702 172.530259 
L 338.005455 194.656675 
L 339.235207 189.532372 
L 340.464959 205.613664 
L 341.694711 234.723621 
L 342.924463 209.853109 
L 344.154215 197.706776 
L 345.383967 182.243418 
L 346.613719 200.163597 
L 347.843471 185.371536 
L 349.073223 189.842075 
L 350.302975 186.563918 
L 351.532727 184.754878 
L 352.762479 193.378568 
L 353.992231 214.715017 
L 355.221983 172.673492 
L 356.451736 239.813726 
L 357.681488 199.774267 
L 358.91124 181.020055 
L 360.140992 180.57677 
L 361.370744 202.170185 
L 362.600496 193.238331 
L 363.830248 176.183314 
L 365.06 192.507715 
L 366.289752 186.529913 
L 367.519504 217.243307 
L 368.749256 186.422742 
L 369.979008 199.235077 
L 371.20876 177.313162 
L 372.438512 185.156937 
L 373.668264 202.194694 
L 374.898017 189.529535 
L 376.127769 209.425828 
L 376.131622 315.140241 
L 376.131622 315.140241 
" style="fill:none;stroke:#1f77b4;stroke-linecap:square;stroke-width:1.5;"/>
    <defs>
     <path d="M 0 3 
C 0.795609 3 1.55874 2.683901 2.12132 2.12132 
C 2.683901 1.55874 3 0.795609 3 0 
C 3 -0.795609 2.683901 -1.55874 2.12132 -2.12132 
C 1.55874 -2.683901 0.795609 -3 0 -3 
C -0.795609 -3 -1.55874 -2.683901 -2.12132 -2.12132 
C -2.683901 -1.55874 -3 -0.795609 -3 0 
C -3 0.795609 -2.683901 1.55874 -2.12132 2.12132 
C -1.55874 2.683901 -0.795609 3 0 3 
z
" id="m6314aaced4" style="stroke:#1f77b4;"/>
    </defs>
    <g clip-path="url(#p86d0eecbd4)">
     <use style="fill:#1f77b4;stroke:#1f77b4;" x="53.932727" xlink:href="#m6314aaced4" y="22.567991"/>
     <use style="fill:#1f77b4;stroke:#1f77b4;" x="55.162479" xlink:href="#m6314aaced4" y="39.473678"/>
     <use style="fill:#1f77b4;stroke:#1f77b4;" x="56.392231" xlink:href="#m6314aaced4" y="54.070766"/>
     <use style="fill:#1f77b4;stroke:#1f77b4;" x="57.621983" xlink:href="#m6314aaced4" y="72.664578"/>
     <use style="fill:#1f77b4;stroke:#1f77b4;" x="58.851736" xlink:href="#m6314aaced4" y="89.327746"/>
     <use style="fill:#1f77b4;stroke:#1f77b4;" x="60.081488" xlink:href="#m6314aaced4" y="107.041442"/>
     <use style="fill:#1f77b4;stroke:#1f77b4;" x="61.31124" xlink:href="#m6314aaced4" y="124.476652"/>
     <use style="fill:#1f77b4;stroke:#1f77b4;" x="62.540992" xlink:href="#m6314aaced4" y="141.488789"/>
     <use style="fill:#1f77b4;stroke:#1f77b4;" x="63.770744" xlink:href="#m6314aaced4" y="159.588376"/>
     <use style="fill:#1f77b4;stroke:#1f77b4;" x="65.000496" xlink:href="#m6314aaced4" y="176.143395"/>
     <use style="fill:#1f77b4;stroke:#1f77b4;" x="66.230248" xlink:href="#m6314aaced4" y="192.183203"/>
     <use style="fill:#1f77b4;stroke:#1f77b4;" x="67.46" xlink:href="#m6314aaced4" y="202.01173"/>
     <use style="fill:#1f77b4;stroke:#1f77b4;" x="68.689752" xlink:href="#m6314aaced4" y="193.503991"/>
     <use style="fill:#1f77b4;stroke:#1f77b4;" x="69.919504" xlink:href="#m6314aaced4" y="220.502377"/>
     <use style="fill:#1f77b4;stroke:#1f77b4;" x="71.149256" xlink:href="#m6314aaced4" y="178.293768"/>
     <use style="fill:#1f77b4;stroke:#1f77b4;" x="72.379008" xlink:href="#m6314aaced4" y="190.54892"/>
     <use style="fill:#1f77b4;stroke:#1f77b4;" x="73.60876" xlink:href="#m6314aaced4" y="224.275226"/>
     <use style="fill:#1f77b4;stroke:#1f77b4;" x="74.838512" xlink:href="#m6314aaced4" y="176.318899"/>
     <use style="fill:#1f77b4;stroke:#1f77b4;" x="76.068264" xlink:href="#m6314aaced4" y="198.818126"/>
     <use style="fill:#1f77b4;stroke:#1f77b4;" x="77.298017" xlink:href="#m6314aaced4" y="182.322827"/>
     <use style="fill:#1f77b4;stroke:#1f77b4;" x="78.527769" xlink:href="#m6314aaced4" y="195.820532"/>
     <use style="fill:#1f77b4;stroke:#1f77b4;" x="79.757521" xlink:href="#m6314aaced4" y="195.022301"/>
     <use style="fill:#1f77b4;stroke:#1f77b4;" x="80.987273" xlink:href="#m6314aaced4" y="190.126157"/>
     <use style="fill:#1f77b4;stroke:#1f77b4;" x="82.217025" xlink:href="#m6314aaced4" y="200.190599"/>
     <use style="fill:#1f77b4;stroke:#1f77b4;" x="83.446777" xlink:href="#m6314aaced4" y="185.811212"/>
     <use style="fill:#1f77b4;stroke:#1f77b4;" x="84.676529" xlink:href="#m6314aaced4" y="188.37578"/>
     <use style="fill:#1f77b4;stroke:#1f77b4;" x="85.906281" xlink:href="#m6314aaced4" y="184.377439"/>
     <use style="fill:#1f77b4;stroke:#1f77b4;" x="87.136033" xlink:href="#m6314aaced4" y="201.152708"/>
     <use style="fill:#1f77b4;stroke:#1f77b4;" x="88.365785" xlink:href="#m6314aaced4" y="181.563893"/>
     <use style="fill:#1f77b4;stroke:#1f77b4;" x="89.595537" xlink:href="#m6314aaced4" y="207.952261"/>
     <use style="fill:#1f77b4;stroke:#1f77b4;" x="90.825289" xlink:href="#m6314aaced4" y="180.417778"/>
     <use style="fill:#1f77b4;stroke:#1f77b4;" x="92.055041" xlink:href="#m6314aaced4" y="189.662846"/>
     <use style="fill:#1f77b4;stroke:#1f77b4;" x="93.284793" xlink:href="#m6314aaced4" y="185.554018"/>
     <use style="fill:#1f77b4;stroke:#1f77b4;" x="94.514545" xlink:href="#m6314aaced4" y="198.452663"/>
     <use style="fill:#1f77b4;stroke:#1f77b4;" x="95.744298" xlink:href="#m6314aaced4" y="192.515066"/>
     <use style="fill:#1f77b4;stroke:#1f77b4;" x="96.97405" xlink:href="#m6314aaced4" y="195.574376"/>
     <use style="fill:#1f77b4;stroke:#1f77b4;" x="98.203802" xlink:href="#m6314aaced4" y="207.80788"/>
     <use style="fill:#1f77b4;stroke:#1f77b4;" x="99.433554" xlink:href="#m6314aaced4" y="192.108429"/>
     <use style="fill:#1f77b4;stroke:#1f77b4;" x="100.663306" xlink:href="#m6314aaced4" y="186.033424"/>
     <use style="fill:#1f77b4;stroke:#1f77b4;" x="101.893058" xlink:href="#m6314aaced4" y="193.804834"/>
     <use style="fill:#1f77b4;stroke:#1f77b4;" x="103.12281" xlink:href="#m6314aaced4" y="247.50174"/>
     <use style="fill:#1f77b4;stroke:#1f77b4;" x="104.352562" xlink:href="#m6314aaced4" y="186.444619"/>
     <use style="fill:#1f77b4;stroke:#1f77b4;" x="105.582314" xlink:href="#m6314aaced4" y="191.394777"/>
     <use style="fill:#1f77b4;stroke:#1f77b4;" x="106.812066" xlink:href="#m6314aaced4" y="208.456922"/>
     <use style="fill:#1f77b4;stroke:#1f77b4;" x="108.041818" xlink:href="#m6314aaced4" y="199.019289"/>
     <use style="fill:#1f77b4;stroke:#1f77b4;" x="109.27157" xlink:href="#m6314aaced4" y="192.453316"/>
     <use style="fill:#1f77b4;stroke:#1f77b4;" x="110.501322" xlink:href="#m6314aaced4" y="182.052407"/>
     <use style="fill:#1f77b4;stroke:#1f77b4;" x="111.731074" xlink:href="#m6314aaced4" y="197.733948"/>
     <use style="fill:#1f77b4;stroke:#1f77b4;" x="112.960826" xlink:href="#m6314aaced4" y="205.4362"/>
     <use style="fill:#1f77b4;stroke:#1f77b4;" x="114.190579" xlink:href="#m6314aaced4" y="217.220594"/>
     <use style="fill:#1f77b4;stroke:#1f77b4;" x="115.420331" xlink:href="#m6314aaced4" y="193.791993"/>
     <use style="fill:#1f77b4;stroke:#1f77b4;" x="116.650083" xlink:href="#m6314aaced4" y="219.072674"/>
     <use style="fill:#1f77b4;stroke:#1f77b4;" x="117.879835" xlink:href="#m6314aaced4" y="204.254743"/>
     <use style="fill:#1f77b4;stroke:#1f77b4;" x="119.109587" xlink:href="#m6314aaced4" y="175.853604"/>
     <use style="fill:#1f77b4;stroke:#1f77b4;" x="120.339339" xlink:href="#m6314aaced4" y="196.272186"/>
     <use style="fill:#1f77b4;stroke:#1f77b4;" x="121.569091" xlink:href="#m6314aaced4" y="184.040124"/>
     <use style="fill:#1f77b4;stroke:#1f77b4;" x="122.798843" xlink:href="#m6314aaced4" y="201.187462"/>
     <use style="fill:#1f77b4;stroke:#1f77b4;" x="124.028595" xlink:href="#m6314aaced4" y="190.190502"/>
     <use style="fill:#1f77b4;stroke:#1f77b4;" x="125.258347" xlink:href="#m6314aaced4" y="224.097329"/>
     <use style="fill:#1f77b4;stroke:#1f77b4;" x="126.488099" xlink:href="#m6314aaced4" y="189.490634"/>
     <use style="fill:#1f77b4;stroke:#1f77b4;" x="127.717851" xlink:href="#m6314aaced4" y="206.801637"/>
     <use style="fill:#1f77b4;stroke:#1f77b4;" x="128.947603" xlink:href="#m6314aaced4" y="225.240344"/>
     <use style="fill:#1f77b4;stroke:#1f77b4;" x="130.177355" xlink:href="#m6314aaced4" y="179.963113"/>
     <use style="fill:#1f77b4;stroke:#1f77b4;" x="131.407107" xlink:href="#m6314aaced4" y="204.528664"/>
     <use style="fill:#1f77b4;stroke:#1f77b4;" x="132.63686" xlink:href="#m6314aaced4" y="191.248334"/>
     <use style="fill:#1f77b4;stroke:#1f77b4;" x="133.866612" xlink:href="#m6314aaced4" y="199.131813"/>
     <use style="fill:#1f77b4;stroke:#1f77b4;" x="135.096364" xlink:href="#m6314aaced4" y="195.261242"/>
     <use style="fill:#1f77b4;stroke:#1f77b4;" x="136.326116" xlink:href="#m6314aaced4" y="187.589135"/>
     <use style="fill:#1f77b4;stroke:#1f77b4;" x="137.555868" xlink:href="#m6314aaced4" y="194.222453"/>
     <use style="fill:#1f77b4;stroke:#1f77b4;" x="138.78562" xlink:href="#m6314aaced4" y="188.951936"/>
     <use style="fill:#1f77b4;stroke:#1f77b4;" x="140.015372" xlink:href="#m6314aaced4" y="215.645949"/>
     <use style="fill:#1f77b4;stroke:#1f77b4;" x="141.245124" xlink:href="#m6314aaced4" y="185.804352"/>
     <use style="fill:#1f77b4;stroke:#1f77b4;" x="142.474876" xlink:href="#m6314aaced4" y="211.872496"/>
     <use style="fill:#1f77b4;stroke:#1f77b4;" x="143.704628" xlink:href="#m6314aaced4" y="190.411636"/>
     <use style="fill:#1f77b4;stroke:#1f77b4;" x="144.93438" xlink:href="#m6314aaced4" y="181.126934"/>
     <use style="fill:#1f77b4;stroke:#1f77b4;" x="146.164132" xlink:href="#m6314aaced4" y="192.563365"/>
     <use style="fill:#1f77b4;stroke:#1f77b4;" x="147.393884" xlink:href="#m6314aaced4" y="187.904954"/>
     <use style="fill:#1f77b4;stroke:#1f77b4;" x="148.623636" xlink:href="#m6314aaced4" y="173.622909"/>
     <use style="fill:#1f77b4;stroke:#1f77b4;" x="149.853388" xlink:href="#m6314aaced4" y="179.544904"/>
     <use style="fill:#1f77b4;stroke:#1f77b4;" x="151.08314" xlink:href="#m6314aaced4" y="210.274001"/>
     <use style="fill:#1f77b4;stroke:#1f77b4;" x="152.312893" xlink:href="#m6314aaced4" y="180.721464"/>
     <use style="fill:#1f77b4;stroke:#1f77b4;" x="153.542645" xlink:href="#m6314aaced4" y="205.87287"/>
     <use style="fill:#1f77b4;stroke:#1f77b4;" x="154.772397" xlink:href="#m6314aaced4" y="219.752567"/>
     <use style="fill:#1f77b4;stroke:#1f77b4;" x="156.002149" xlink:href="#m6314aaced4" y="180.562967"/>
     <use style="fill:#1f77b4;stroke:#1f77b4;" x="157.231901" xlink:href="#m6314aaced4" y="213.777468"/>
     <use style="fill:#1f77b4;stroke:#1f77b4;" x="158.461653" xlink:href="#m6314aaced4" y="178.098757"/>
     <use style="fill:#1f77b4;stroke:#1f77b4;" x="159.691405" xlink:href="#m6314aaced4" y="182.018358"/>
     <use style="fill:#1f77b4;stroke:#1f77b4;" x="160.921157" xlink:href="#m6314aaced4" y="211.62405"/>
     <use style="fill:#1f77b4;stroke:#1f77b4;" x="162.150909" xlink:href="#m6314aaced4" y="200.220376"/>
     <use style="fill:#1f77b4;stroke:#1f77b4;" x="163.380661" xlink:href="#m6314aaced4" y="196.474778"/>
     <use style="fill:#1f77b4;stroke:#1f77b4;" x="164.610413" xlink:href="#m6314aaced4" y="185.73385"/>
     <use style="fill:#1f77b4;stroke:#1f77b4;" x="165.840165" xlink:href="#m6314aaced4" y="264.487991"/>
     <use style="fill:#1f77b4;stroke:#1f77b4;" x="167.069917" xlink:href="#m6314aaced4" y="192.302919"/>
     <use style="fill:#1f77b4;stroke:#1f77b4;" x="168.299669" xlink:href="#m6314aaced4" y="204.707229"/>
     <use style="fill:#1f77b4;stroke:#1f77b4;" x="169.529421" xlink:href="#m6314aaced4" y="200.505994"/>
     <use style="fill:#1f77b4;stroke:#1f77b4;" x="170.759174" xlink:href="#m6314aaced4" y="204.15497"/>
     <use style="fill:#1f77b4;stroke:#1f77b4;" x="171.988926" xlink:href="#m6314aaced4" y="183.388073"/>
     <use style="fill:#1f77b4;stroke:#1f77b4;" x="173.218678" xlink:href="#m6314aaced4" y="198.967404"/>
     <use style="fill:#1f77b4;stroke:#1f77b4;" x="174.44843" xlink:href="#m6314aaced4" y="188.24736"/>
     <use style="fill:#1f77b4;stroke:#1f77b4;" x="175.678182" xlink:href="#m6314aaced4" y="217.433902"/>
     <use style="fill:#1f77b4;stroke:#1f77b4;" x="176.907934" xlink:href="#m6314aaced4" y="197.55089"/>
     <use style="fill:#1f77b4;stroke:#1f77b4;" x="178.137686" xlink:href="#m6314aaced4" y="189.439287"/>
     <use style="fill:#1f77b4;stroke:#1f77b4;" x="179.367438" xlink:href="#m6314aaced4" y="191.267354"/>
     <use style="fill:#1f77b4;stroke:#1f77b4;" x="180.59719" xlink:href="#m6314aaced4" y="221.893364"/>
     <use style="fill:#1f77b4;stroke:#1f77b4;" x="181.826942" xlink:href="#m6314aaced4" y="203.114625"/>
     <use style="fill:#1f77b4;stroke:#1f77b4;" x="183.056694" xlink:href="#m6314aaced4" y="186.587653"/>
     <use style="fill:#1f77b4;stroke:#1f77b4;" x="184.286446" xlink:href="#m6314aaced4" y="212.945711"/>
     <use style="fill:#1f77b4;stroke:#1f77b4;" x="185.516198" xlink:href="#m6314aaced4" y="230.616274"/>
     <use style="fill:#1f77b4;stroke:#1f77b4;" x="186.74595" xlink:href="#m6314aaced4" y="229.657287"/>
     <use style="fill:#1f77b4;stroke:#1f77b4;" x="187.975702" xlink:href="#m6314aaced4" y="191.430968"/>
     <use style="fill:#1f77b4;stroke:#1f77b4;" x="189.205455" xlink:href="#m6314aaced4" y="173.702662"/>
     <use style="fill:#1f77b4;stroke:#1f77b4;" x="190.435207" xlink:href="#m6314aaced4" y="221.344133"/>
     <use style="fill:#1f77b4;stroke:#1f77b4;" x="191.664959" xlink:href="#m6314aaced4" y="182.984913"/>
     <use style="fill:#1f77b4;stroke:#1f77b4;" x="192.894711" xlink:href="#m6314aaced4" y="210.246409"/>
     <use style="fill:#1f77b4;stroke:#1f77b4;" x="194.124463" xlink:href="#m6314aaced4" y="173.980446"/>
     <use style="fill:#1f77b4;stroke:#1f77b4;" x="195.354215" xlink:href="#m6314aaced4" y="201.747361"/>
     <use style="fill:#1f77b4;stroke:#1f77b4;" x="196.583967" xlink:href="#m6314aaced4" y="181.484785"/>
     <use style="fill:#1f77b4;stroke:#1f77b4;" x="197.813719" xlink:href="#m6314aaced4" y="213.012267"/>
     <use style="fill:#1f77b4;stroke:#1f77b4;" x="199.043471" xlink:href="#m6314aaced4" y="188.245148"/>
     <use style="fill:#1f77b4;stroke:#1f77b4;" x="200.273223" xlink:href="#m6314aaced4" y="195.798952"/>
     <use style="fill:#1f77b4;stroke:#1f77b4;" x="201.502975" xlink:href="#m6314aaced4" y="177.952301"/>
     <use style="fill:#1f77b4;stroke:#1f77b4;" x="202.732727" xlink:href="#m6314aaced4" y="181.763715"/>
     <use style="fill:#1f77b4;stroke:#1f77b4;" x="203.962479" xlink:href="#m6314aaced4" y="190.199492"/>
     <use style="fill:#1f77b4;stroke:#1f77b4;" x="205.192231" xlink:href="#m6314aaced4" y="190.443284"/>
     <use style="fill:#1f77b4;stroke:#1f77b4;" x="206.421983" xlink:href="#m6314aaced4" y="196.532862"/>
     <use style="fill:#1f77b4;stroke:#1f77b4;" x="207.651736" xlink:href="#m6314aaced4" y="205.827205"/>
     <use style="fill:#1f77b4;stroke:#1f77b4;" x="208.881488" xlink:href="#m6314aaced4" y="200.956919"/>
     <use style="fill:#1f77b4;stroke:#1f77b4;" x="210.11124" xlink:href="#m6314aaced4" y="178.887267"/>
     <use style="fill:#1f77b4;stroke:#1f77b4;" x="211.340992" xlink:href="#m6314aaced4" y="196.751865"/>
     <use style="fill:#1f77b4;stroke:#1f77b4;" x="212.570744" xlink:href="#m6314aaced4" y="184.634421"/>
     <use style="fill:#1f77b4;stroke:#1f77b4;" x="213.800496" xlink:href="#m6314aaced4" y="207.68392"/>
     <use style="fill:#1f77b4;stroke:#1f77b4;" x="215.030248" xlink:href="#m6314aaced4" y="176.554394"/>
     <use style="fill:#1f77b4;stroke:#1f77b4;" x="216.26" xlink:href="#m6314aaced4" y="224.845091"/>
     <use style="fill:#1f77b4;stroke:#1f77b4;" x="217.489752" xlink:href="#m6314aaced4" y="188.733964"/>
     <use style="fill:#1f77b4;stroke:#1f77b4;" x="218.719504" xlink:href="#m6314aaced4" y="191.642432"/>
     <use style="fill:#1f77b4;stroke:#1f77b4;" x="219.949256" xlink:href="#m6314aaced4" y="229.684067"/>
     <use style="fill:#1f77b4;stroke:#1f77b4;" x="221.179008" xlink:href="#m6314aaced4" y="221.056004"/>
     <use style="fill:#1f77b4;stroke:#1f77b4;" x="222.40876" xlink:href="#m6314aaced4" y="219.132515"/>
     <use style="fill:#1f77b4;stroke:#1f77b4;" x="223.638512" xlink:href="#m6314aaced4" y="179.902081"/>
     <use style="fill:#1f77b4;stroke:#1f77b4;" x="224.868264" xlink:href="#m6314aaced4" y="185.754712"/>
     <use style="fill:#1f77b4;stroke:#1f77b4;" x="226.098017" xlink:href="#m6314aaced4" y="184.293811"/>
     <use style="fill:#1f77b4;stroke:#1f77b4;" x="227.327769" xlink:href="#m6314aaced4" y="185.371304"/>
     <use style="fill:#1f77b4;stroke:#1f77b4;" x="228.557521" xlink:href="#m6314aaced4" y="186.296772"/>
     <use style="fill:#1f77b4;stroke:#1f77b4;" x="229.787273" xlink:href="#m6314aaced4" y="188.235821"/>
     <use style="fill:#1f77b4;stroke:#1f77b4;" x="231.017025" xlink:href="#m6314aaced4" y="195.758735"/>
     <use style="fill:#1f77b4;stroke:#1f77b4;" x="232.246777" xlink:href="#m6314aaced4" y="199.042812"/>
     <use style="fill:#1f77b4;stroke:#1f77b4;" x="233.476529" xlink:href="#m6314aaced4" y="188.312631"/>
     <use style="fill:#1f77b4;stroke:#1f77b4;" x="234.706281" xlink:href="#m6314aaced4" y="192.155679"/>
     <use style="fill:#1f77b4;stroke:#1f77b4;" x="235.936033" xlink:href="#m6314aaced4" y="186.069294"/>
     <use style="fill:#1f77b4;stroke:#1f77b4;" x="237.165785" xlink:href="#m6314aaced4" y="187.891349"/>
     <use style="fill:#1f77b4;stroke:#1f77b4;" x="238.395537" xlink:href="#m6314aaced4" y="229.646461"/>
     <use style="fill:#1f77b4;stroke:#1f77b4;" x="239.625289" xlink:href="#m6314aaced4" y="176.599338"/>
     <use style="fill:#1f77b4;stroke:#1f77b4;" x="240.855041" xlink:href="#m6314aaced4" y="204.880481"/>
     <use style="fill:#1f77b4;stroke:#1f77b4;" x="242.084793" xlink:href="#m6314aaced4" y="176.063632"/>
     <use style="fill:#1f77b4;stroke:#1f77b4;" x="243.314545" xlink:href="#m6314aaced4" y="194.463701"/>
     <use style="fill:#1f77b4;stroke:#1f77b4;" x="244.544298" xlink:href="#m6314aaced4" y="203.139746"/>
     <use style="fill:#1f77b4;stroke:#1f77b4;" x="245.77405" xlink:href="#m6314aaced4" y="180.093534"/>
     <use style="fill:#1f77b4;stroke:#1f77b4;" x="247.003802" xlink:href="#m6314aaced4" y="255.661965"/>
     <use style="fill:#1f77b4;stroke:#1f77b4;" x="248.233554" xlink:href="#m6314aaced4" y="185.413193"/>
     <use style="fill:#1f77b4;stroke:#1f77b4;" x="249.463306" xlink:href="#m6314aaced4" y="202.698699"/>
     <use style="fill:#1f77b4;stroke:#1f77b4;" x="250.693058" xlink:href="#m6314aaced4" y="192.37493"/>
     <use style="fill:#1f77b4;stroke:#1f77b4;" x="251.92281" xlink:href="#m6314aaced4" y="199.837512"/>
     <use style="fill:#1f77b4;stroke:#1f77b4;" x="253.152562" xlink:href="#m6314aaced4" y="218.480589"/>
     <use style="fill:#1f77b4;stroke:#1f77b4;" x="254.382314" xlink:href="#m6314aaced4" y="187.6411"/>
     <use style="fill:#1f77b4;stroke:#1f77b4;" x="255.612066" xlink:href="#m6314aaced4" y="205.266778"/>
     <use style="fill:#1f77b4;stroke:#1f77b4;" x="256.841818" xlink:href="#m6314aaced4" y="217.748079"/>
     <use style="fill:#1f77b4;stroke:#1f77b4;" x="258.07157" xlink:href="#m6314aaced4" y="181.418235"/>
     <use style="fill:#1f77b4;stroke:#1f77b4;" x="259.301322" xlink:href="#m6314aaced4" y="184.931003"/>
     <use style="fill:#1f77b4;stroke:#1f77b4;" x="260.531074" xlink:href="#m6314aaced4" y="196.930763"/>
     <use style="fill:#1f77b4;stroke:#1f77b4;" x="261.760826" xlink:href="#m6314aaced4" y="169.875369"/>
     <use style="fill:#1f77b4;stroke:#1f77b4;" x="262.990579" xlink:href="#m6314aaced4" y="183.399923"/>
     <use style="fill:#1f77b4;stroke:#1f77b4;" x="264.220331" xlink:href="#m6314aaced4" y="199.652033"/>
     <use style="fill:#1f77b4;stroke:#1f77b4;" x="265.450083" xlink:href="#m6314aaced4" y="198.03"/>
     <use style="fill:#1f77b4;stroke:#1f77b4;" x="266.679835" xlink:href="#m6314aaced4" y="201.607629"/>
     <use style="fill:#1f77b4;stroke:#1f77b4;" x="267.909587" xlink:href="#m6314aaced4" y="212.108646"/>
     <use style="fill:#1f77b4;stroke:#1f77b4;" x="269.139339" xlink:href="#m6314aaced4" y="197.020869"/>
     <use style="fill:#1f77b4;stroke:#1f77b4;" x="270.369091" xlink:href="#m6314aaced4" y="210.104965"/>
     <use style="fill:#1f77b4;stroke:#1f77b4;" x="271.598843" xlink:href="#m6314aaced4" y="222.476198"/>
     <use style="fill:#1f77b4;stroke:#1f77b4;" x="272.828595" xlink:href="#m6314aaced4" y="180.934514"/>
     <use style="fill:#1f77b4;stroke:#1f77b4;" x="274.058347" xlink:href="#m6314aaced4" y="188.969767"/>
     <use style="fill:#1f77b4;stroke:#1f77b4;" x="275.288099" xlink:href="#m6314aaced4" y="194.652691"/>
     <use style="fill:#1f77b4;stroke:#1f77b4;" x="276.517851" xlink:href="#m6314aaced4" y="190.282525"/>
     <use style="fill:#1f77b4;stroke:#1f77b4;" x="277.747603" xlink:href="#m6314aaced4" y="190.003968"/>
     <use style="fill:#1f77b4;stroke:#1f77b4;" x="278.977355" xlink:href="#m6314aaced4" y="177.048165"/>
     <use style="fill:#1f77b4;stroke:#1f77b4;" x="280.207107" xlink:href="#m6314aaced4" y="187.546479"/>
     <use style="fill:#1f77b4;stroke:#1f77b4;" x="281.43686" xlink:href="#m6314aaced4" y="169.800125"/>
     <use style="fill:#1f77b4;stroke:#1f77b4;" x="282.666612" xlink:href="#m6314aaced4" y="188.100957"/>
     <use style="fill:#1f77b4;stroke:#1f77b4;" x="283.896364" xlink:href="#m6314aaced4" y="179.662519"/>
     <use style="fill:#1f77b4;stroke:#1f77b4;" x="285.126116" xlink:href="#m6314aaced4" y="212.127905"/>
     <use style="fill:#1f77b4;stroke:#1f77b4;" x="286.355868" xlink:href="#m6314aaced4" y="207.497892"/>
     <use style="fill:#1f77b4;stroke:#1f77b4;" x="287.58562" xlink:href="#m6314aaced4" y="227.685395"/>
     <use style="fill:#1f77b4;stroke:#1f77b4;" x="288.815372" xlink:href="#m6314aaced4" y="258.032671"/>
     <use style="fill:#1f77b4;stroke:#1f77b4;" x="290.045124" xlink:href="#m6314aaced4" y="183.279757"/>
     <use style="fill:#1f77b4;stroke:#1f77b4;" x="291.274876" xlink:href="#m6314aaced4" y="261.811031"/>
     <use style="fill:#1f77b4;stroke:#1f77b4;" x="292.504628" xlink:href="#m6314aaced4" y="199.570472"/>
     <use style="fill:#1f77b4;stroke:#1f77b4;" x="293.73438" xlink:href="#m6314aaced4" y="200.176752"/>
     <use style="fill:#1f77b4;stroke:#1f77b4;" x="294.964132" xlink:href="#m6314aaced4" y="192.329245"/>
     <use style="fill:#1f77b4;stroke:#1f77b4;" x="296.193884" xlink:href="#m6314aaced4" y="175.892266"/>
     <use style="fill:#1f77b4;stroke:#1f77b4;" x="297.423636" xlink:href="#m6314aaced4" y="203.778941"/>
     <use style="fill:#1f77b4;stroke:#1f77b4;" x="298.653388" xlink:href="#m6314aaced4" y="190.865058"/>
     <use style="fill:#1f77b4;stroke:#1f77b4;" x="299.88314" xlink:href="#m6314aaced4" y="212.156954"/>
     <use style="fill:#1f77b4;stroke:#1f77b4;" x="301.112893" xlink:href="#m6314aaced4" y="180.926419"/>
     <use style="fill:#1f77b4;stroke:#1f77b4;" x="302.342645" xlink:href="#m6314aaced4" y="220.518333"/>
     <use style="fill:#1f77b4;stroke:#1f77b4;" x="303.572397" xlink:href="#m6314aaced4" y="194.52878"/>
     <use style="fill:#1f77b4;stroke:#1f77b4;" x="304.802149" xlink:href="#m6314aaced4" y="183.045903"/>
     <use style="fill:#1f77b4;stroke:#1f77b4;" x="306.031901" xlink:href="#m6314aaced4" y="188.360829"/>
     <use style="fill:#1f77b4;stroke:#1f77b4;" x="307.261653" xlink:href="#m6314aaced4" y="193.828215"/>
     <use style="fill:#1f77b4;stroke:#1f77b4;" x="308.491405" xlink:href="#m6314aaced4" y="188.665505"/>
     <use style="fill:#1f77b4;stroke:#1f77b4;" x="309.721157" xlink:href="#m6314aaced4" y="218.835925"/>
     <use style="fill:#1f77b4;stroke:#1f77b4;" x="310.950909" xlink:href="#m6314aaced4" y="177.439954"/>
     <use style="fill:#1f77b4;stroke:#1f77b4;" x="312.180661" xlink:href="#m6314aaced4" y="211.529593"/>
     <use style="fill:#1f77b4;stroke:#1f77b4;" x="313.410413" xlink:href="#m6314aaced4" y="203.228913"/>
     <use style="fill:#1f77b4;stroke:#1f77b4;" x="314.640165" xlink:href="#m6314aaced4" y="207.746483"/>
     <use style="fill:#1f77b4;stroke:#1f77b4;" x="315.869917" xlink:href="#m6314aaced4" y="175.739662"/>
     <use style="fill:#1f77b4;stroke:#1f77b4;" x="317.099669" xlink:href="#m6314aaced4" y="201.550353"/>
     <use style="fill:#1f77b4;stroke:#1f77b4;" x="318.329421" xlink:href="#m6314aaced4" y="182.60332"/>
     <use style="fill:#1f77b4;stroke:#1f77b4;" x="319.559174" xlink:href="#m6314aaced4" y="181.25103"/>
     <use style="fill:#1f77b4;stroke:#1f77b4;" x="320.788926" xlink:href="#m6314aaced4" y="209.382374"/>
     <use style="fill:#1f77b4;stroke:#1f77b4;" x="322.018678" xlink:href="#m6314aaced4" y="174.114956"/>
     <use style="fill:#1f77b4;stroke:#1f77b4;" x="323.24843" xlink:href="#m6314aaced4" y="198.406392"/>
     <use style="fill:#1f77b4;stroke:#1f77b4;" x="324.478182" xlink:href="#m6314aaced4" y="203.134829"/>
     <use style="fill:#1f77b4;stroke:#1f77b4;" x="325.707934" xlink:href="#m6314aaced4" y="186.78142"/>
     <use style="fill:#1f77b4;stroke:#1f77b4;" x="326.937686" xlink:href="#m6314aaced4" y="197.509752"/>
     <use style="fill:#1f77b4;stroke:#1f77b4;" x="328.167438" xlink:href="#m6314aaced4" y="185.618894"/>
     <use style="fill:#1f77b4;stroke:#1f77b4;" x="329.39719" xlink:href="#m6314aaced4" y="185.252437"/>
     <use style="fill:#1f77b4;stroke:#1f77b4;" x="330.626942" xlink:href="#m6314aaced4" y="192.080575"/>
     <use style="fill:#1f77b4;stroke:#1f77b4;" x="331.856694" xlink:href="#m6314aaced4" y="188.835189"/>
     <use style="fill:#1f77b4;stroke:#1f77b4;" x="333.086446" xlink:href="#m6314aaced4" y="197.792833"/>
     <use style="fill:#1f77b4;stroke:#1f77b4;" x="334.316198" xlink:href="#m6314aaced4" y="169.350237"/>
     <use style="fill:#1f77b4;stroke:#1f77b4;" x="335.54595" xlink:href="#m6314aaced4" y="200.818122"/>
     <use style="fill:#1f77b4;stroke:#1f77b4;" x="336.775702" xlink:href="#m6314aaced4" y="172.530259"/>
     <use style="fill:#1f77b4;stroke:#1f77b4;" x="338.005455" xlink:href="#m6314aaced4" y="194.656675"/>
     <use style="fill:#1f77b4;stroke:#1f77b4;" x="339.235207" xlink:href="#m6314aaced4" y="189.532372"/>
     <use style="fill:#1f77b4;stroke:#1f77b4;" x="340.464959" xlink:href="#m6314aaced4" y="205.613664"/>
     <use style="fill:#1f77b4;stroke:#1f77b4;" x="341.694711" xlink:href="#m6314aaced4" y="234.723621"/>
     <use style="fill:#1f77b4;stroke:#1f77b4;" x="342.924463" xlink:href="#m6314aaced4" y="209.853109"/>
     <use style="fill:#1f77b4;stroke:#1f77b4;" x="344.154215" xlink:href="#m6314aaced4" y="197.706776"/>
     <use style="fill:#1f77b4;stroke:#1f77b4;" x="345.383967" xlink:href="#m6314aaced4" y="182.243418"/>
     <use style="fill:#1f77b4;stroke:#1f77b4;" x="346.613719" xlink:href="#m6314aaced4" y="200.163597"/>
     <use style="fill:#1f77b4;stroke:#1f77b4;" x="347.843471" xlink:href="#m6314aaced4" y="185.371536"/>
     <use style="fill:#1f77b4;stroke:#1f77b4;" x="349.073223" xlink:href="#m6314aaced4" y="189.842075"/>
     <use style="fill:#1f77b4;stroke:#1f77b4;" x="350.302975" xlink:href="#m6314aaced4" y="186.563918"/>
     <use style="fill:#1f77b4;stroke:#1f77b4;" x="351.532727" xlink:href="#m6314aaced4" y="184.754878"/>
     <use style="fill:#1f77b4;stroke:#1f77b4;" x="352.762479" xlink:href="#m6314aaced4" y="193.378568"/>
     <use style="fill:#1f77b4;stroke:#1f77b4;" x="353.992231" xlink:href="#m6314aaced4" y="214.715017"/>
     <use style="fill:#1f77b4;stroke:#1f77b4;" x="355.221983" xlink:href="#m6314aaced4" y="172.673492"/>
     <use style="fill:#1f77b4;stroke:#1f77b4;" x="356.451736" xlink:href="#m6314aaced4" y="239.813726"/>
     <use style="fill:#1f77b4;stroke:#1f77b4;" x="357.681488" xlink:href="#m6314aaced4" y="199.774267"/>
     <use style="fill:#1f77b4;stroke:#1f77b4;" x="358.91124" xlink:href="#m6314aaced4" y="181.020055"/>
     <use style="fill:#1f77b4;stroke:#1f77b4;" x="360.140992" xlink:href="#m6314aaced4" y="180.57677"/>
     <use style="fill:#1f77b4;stroke:#1f77b4;" x="361.370744" xlink:href="#m6314aaced4" y="202.170185"/>
     <use style="fill:#1f77b4;stroke:#1f77b4;" x="362.600496" xlink:href="#m6314aaced4" y="193.238331"/>
     <use style="fill:#1f77b4;stroke:#1f77b4;" x="363.830248" xlink:href="#m6314aaced4" y="176.183314"/>
     <use style="fill:#1f77b4;stroke:#1f77b4;" x="365.06" xlink:href="#m6314aaced4" y="192.507715"/>
     <use style="fill:#1f77b4;stroke:#1f77b4;" x="366.289752" xlink:href="#m6314aaced4" y="186.529913"/>
     <use style="fill:#1f77b4;stroke:#1f77b4;" x="367.519504" xlink:href="#m6314aaced4" y="217.243307"/>
     <use style="fill:#1f77b4;stroke:#1f77b4;" x="368.749256" xlink:href="#m6314aaced4" y="186.422742"/>
     <use style="fill:#1f77b4;stroke:#1f77b4;" x="369.979008" xlink:href="#m6314aaced4" y="199.235077"/>
     <use style="fill:#1f77b4;stroke:#1f77b4;" x="371.20876" xlink:href="#m6314aaced4" y="177.313162"/>
     <use style="fill:#1f77b4;stroke:#1f77b4;" x="372.438512" xlink:href="#m6314aaced4" y="185.156937"/>
     <use style="fill:#1f77b4;stroke:#1f77b4;" x="373.668264" xlink:href="#m6314aaced4" y="202.194694"/>
     <use style="fill:#1f77b4;stroke:#1f77b4;" x="374.898017" xlink:href="#m6314aaced4" y="189.529535"/>
     <use style="fill:#1f77b4;stroke:#1f77b4;" x="376.127769" xlink:href="#m6314aaced4" y="209.425828"/>
     <use style="fill:#1f77b4;stroke:#1f77b4;" x="376.944633" xlink:href="#m6314aaced4" y="22619.097347"/>
    </g>
   </g>
   <g id="line2d_80">
    <path clip-path="url(#p86d0eecbd4)" d="M 53.932727 22.567991 
L 55.162479 39.473678 
L 56.392231 54.070766 
L 57.621983 72.664578 
L 58.851736 89.327746 
L 60.081488 107.041442 
L 61.31124 124.476652 
L 62.540992 141.488789 
L 63.770744 159.588376 
L 65.000496 176.143395 
L 66.230248 192.183203 
" style="fill:none;stroke:#2ca02c;stroke-dasharray:1.5,2.475;stroke-dashoffset:0;stroke-width:1.5;"/>
    <defs>
     <path d="M -3 3 
L 3 -3 
M -3 -3 
L 3 3 
" id="m2042b022d9" style="stroke:#2ca02c;"/>
    </defs>
    <g clip-path="url(#p86d0eecbd4)">
     <use style="fill:#2ca02c;stroke:#2ca02c;" x="53.932727" xlink:href="#m2042b022d9" y="22.567991"/>
     <use style="fill:#2ca02c;stroke:#2ca02c;" x="55.162479" xlink:href="#m2042b022d9" y="39.473678"/>
     <use style="fill:#2ca02c;stroke:#2ca02c;" x="56.392231" xlink:href="#m2042b022d9" y="54.070766"/>
     <use style="fill:#2ca02c;stroke:#2ca02c;" x="57.621983" xlink:href="#m2042b022d9" y="72.664578"/>
     <use style="fill:#2ca02c;stroke:#2ca02c;" x="58.851736" xlink:href="#m2042b022d9" y="89.327746"/>
     <use style="fill:#2ca02c;stroke:#2ca02c;" x="60.081488" xlink:href="#m2042b022d9" y="107.041442"/>
     <use style="fill:#2ca02c;stroke:#2ca02c;" x="61.31124" xlink:href="#m2042b022d9" y="124.476652"/>
     <use style="fill:#2ca02c;stroke:#2ca02c;" x="62.540992" xlink:href="#m2042b022d9" y="141.488789"/>
     <use style="fill:#2ca02c;stroke:#2ca02c;" x="63.770744" xlink:href="#m2042b022d9" y="159.588376"/>
     <use style="fill:#2ca02c;stroke:#2ca02c;" x="65.000496" xlink:href="#m2042b022d9" y="176.143395"/>
     <use style="fill:#2ca02c;stroke:#2ca02c;" x="66.230248" xlink:href="#m2042b022d9" y="192.183203"/>
    </g>
   </g>
   <g id="line2d_81">
    <path clip-path="url(#p86d0eecbd4)" d="M 55.162479 95.862323 
L 70.905933 315.140241 
L 70.905933 315.140241 
" style="fill:none;stroke:#000000;stroke-dasharray:5.55,2.4;stroke-dashoffset:0;stroke-width:1.5;"/>
   </g>
   <g id="patch_3">
    <path d="M 37.7 276.583991 
L 37.7 10.471991 
" style="fill:none;stroke:#000000;stroke-linecap:square;stroke-linejoin:miter;stroke-width:0.8;"/>
   </g>
   <g id="patch_4">
    <path d="M 394.82 276.583991 
L 394.82 10.471991 
" style="fill:none;stroke:#000000;stroke-linecap:square;stroke-linejoin:miter;stroke-width:0.8;"/>
   </g>
   <g id="patch_5">
    <path d="M 37.7 276.583991 
L 394.82 276.583991 
" style="fill:none;stroke:#000000;stroke-linecap:square;stroke-linejoin:miter;stroke-width:0.8;"/>
   </g>
   <g id="patch_6">
    <path d="M 37.7 10.471991 
L 394.82 10.471991 
" style="fill:none;stroke:#000000;stroke-linecap:square;stroke-linejoin:miter;stroke-width:0.8;"/>
   </g>
   <g id="legend_1">
    <g id="patch_7">
     <path d="M 286.72 62.528241 
L 387.82 62.528241 
Q 389.82 62.528241 389.82 60.528241 
L 389.82 17.471991 
Q 389.82 15.471991 387.82 15.471991 
L 286.72 15.471991 
Q 284.72 15.471991 284.72 17.471991 
L 284.72 60.528241 
Q 284.72 62.528241 286.72 62.528241 
z
" style="fill:#ffffff;opacity:0.8;"/>
    </g>
    <g id="line2d_82">
     <path d="M 288.72 23.570428 
L 308.72 23.570428 
" style="fill:none;stroke:#1f77b4;stroke-linecap:square;stroke-width:1.5;"/>
    </g>
    <g id="line2d_83">
     <g>
      <use style="fill:#1f77b4;stroke:#1f77b4;" x="298.72" xlink:href="#m6314aaced4" y="23.570428"/>
     </g>
    </g>
    <g id="text_16">
     <!-- APD$_n$ - APD$_\infty$ -->
     <defs>
      <path d="M 34.1875 63.1875 
L 20.796875 26.90625 
L 47.609375 26.90625 
z
M 28.609375 72.90625 
L 39.796875 72.90625 
L 67.578125 0 
L 57.328125 0 
L 50.6875 18.703125 
L 17.828125 18.703125 
L 11.1875 0 
L 0.78125 0 
z
" id="DejaVuSans-65"/>
      <path d="M 19.671875 64.796875 
L 19.671875 37.40625 
L 32.078125 37.40625 
Q 38.96875 37.40625 42.71875 40.96875 
Q 46.484375 44.53125 46.484375 51.125 
Q 46.484375 57.671875 42.71875 61.234375 
Q 38.96875 64.796875 32.078125 64.796875 
z
M 9.8125 72.90625 
L 32.078125 72.90625 
Q 44.34375 72.90625 50.609375 67.359375 
Q 56.890625 61.8125 56.890625 51.125 
Q 56.890625 40.328125 50.609375 34.8125 
Q 44.34375 29.296875 32.078125 29.296875 
L 19.671875 29.296875 
L 19.671875 0 
L 9.8125 0 
z
" id="DejaVuSans-80"/>
      <path d="M 19.671875 64.796875 
L 19.671875 8.109375 
L 31.59375 8.109375 
Q 46.6875 8.109375 53.6875 14.9375 
Q 60.6875 21.78125 60.6875 36.53125 
Q 60.6875 51.171875 53.6875 57.984375 
Q 46.6875 64.796875 31.59375 64.796875 
z
M 9.8125 72.90625 
L 30.078125 72.90625 
Q 51.265625 72.90625 61.171875 64.09375 
Q 71.09375 55.28125 71.09375 36.53125 
Q 71.09375 17.671875 61.125 8.828125 
Q 51.171875 0 30.078125 0 
L 9.8125 0 
z
" id="DejaVuSans-68"/>
      <path d="M 55.71875 33.015625 
L 49.3125 0 
L 40.28125 0 
L 46.6875 32.671875 
Q 47.125 34.96875 47.359375 36.71875 
Q 47.609375 38.484375 47.609375 39.5 
Q 47.609375 43.609375 45.015625 45.890625 
Q 42.4375 48.1875 37.796875 48.1875 
Q 30.5625 48.1875 25.34375 43.375 
Q 20.125 38.578125 18.5 30.328125 
L 12.5 0 
L 3.515625 0 
L 14.109375 54.6875 
L 23.09375 54.6875 
L 21.296875 46.09375 
Q 25.046875 50.828125 30.3125 53.40625 
Q 35.59375 56 41.40625 56 
Q 48.640625 56 52.609375 52.09375 
Q 56.59375 48.1875 56.59375 41.109375 
Q 56.59375 39.359375 56.375 37.359375 
Q 56.15625 35.359375 55.71875 33.015625 
z
" id="DejaVuSans-Oblique-110"/>
      <path id="DejaVuSans-32"/>
      <path d="M 4.890625 31.390625 
L 31.203125 31.390625 
L 31.203125 23.390625 
L 4.890625 23.390625 
z
" id="DejaVuSans-45"/>
      <path d="M 45.5625 17.046875 
Q 44.046875 18.796875 41.65625 22.90625 
Q 38.375 17.046875 35.5 14.453125 
Q 31.890625 11.328125 26.265625 11.328125 
Q 19.671875 11.328125 15.328125 16.265625 
Q 10.75 21.4375 10.75 29.984375 
Q 10.75 38.1875 15.328125 43.75 
Q 19.4375 48.6875 26.375 48.6875 
Q 29.9375 48.6875 32.5625 47.21875 
Q 35.640625 45.609375 37.75 42.828125 
Q 39.703125 40.328125 41.65625 36.96875 
Q 44.921875 42.828125 47.796875 45.40625 
Q 51.421875 48.53125 57.03125 48.53125 
Q 63.625 48.53125 67.96875 43.609375 
Q 72.5625 38.421875 72.5625 29.890625 
Q 72.5625 21.6875 67.96875 16.109375 
Q 63.875 11.1875 56.9375 11.1875 
Q 53.375 11.1875 50.734375 12.640625 
Q 48.09375 13.96875 45.5625 17.046875 
z
M 25.734375 17.71875 
Q 33.796875 17.71875 38.625 29.4375 
Q 32.421875 42.234375 25.734375 42.234375 
Q 20.84375 42.234375 18.359375 38.71875 
Q 15.671875 34.96875 15.671875 29.984375 
Q 15.671875 24.515625 18.359375 21.140625 
Q 21.09375 17.71875 25.734375 17.71875 
z
M 57.5625 42.140625 
Q 50.296875 42.140625 44.671875 30.421875 
Q 50.828125 17.625 57.5625 17.625 
Q 62.453125 17.625 64.9375 21.140625 
Q 67.625 24.90625 67.625 29.890625 
Q 67.625 35.359375 64.9375 38.71875 
Q 62.203125 42.140625 57.5625 42.140625 
z
" id="DejaVuSans-8734"/>
     </defs>
     <g transform="translate(316.72 27.070428)scale(0.1 -0.1)">
      <use transform="translate(0 0.09375)" xlink:href="#DejaVuSans-65"/>
      <use transform="translate(68.408203 0.09375)" xlink:href="#DejaVuSans-80"/>
      <use transform="translate(128.710938 0.09375)" xlink:href="#DejaVuSans-68"/>
      <use transform="translate(206.669922 -16.3125)scale(0.7)" xlink:href="#DejaVuSans-Oblique-110"/>
      <use transform="translate(253.769531 0.09375)" xlink:href="#DejaVuSans-32"/>
      <use transform="translate(285.556641 0.09375)" xlink:href="#DejaVuSans-45"/>
      <use transform="translate(321.640625 0.09375)" xlink:href="#DejaVuSans-32"/>
      <use transform="translate(353.427734 0.09375)" xlink:href="#DejaVuSans-65"/>
      <use transform="translate(421.835938 0.09375)" xlink:href="#DejaVuSans-80"/>
      <use transform="translate(482.138672 0.09375)" xlink:href="#DejaVuSans-68"/>
      <use transform="translate(560.097656 -16.3125)scale(0.7)" xlink:href="#DejaVuSans-8734"/>
     </g>
    </g>
    <g id="line2d_84">
     <path d="M 288.72 38.248553 
L 308.72 38.248553 
" style="fill:none;stroke:#2ca02c;stroke-dasharray:1.5,2.475;stroke-dashoffset:0;stroke-width:1.5;"/>
    </g>
    <g id="line2d_85">
     <g>
      <use style="fill:#2ca02c;stroke:#2ca02c;" x="298.72" xlink:href="#m2042b022d9" y="38.248553"/>
     </g>
    </g>
    <g id="text_17">
     <!-- linear region -->
     <defs>
      <path d="M 9.421875 75.984375 
L 18.40625 75.984375 
L 18.40625 0 
L 9.421875 0 
z
" id="DejaVuSans-108"/>
      <path d="M 9.421875 54.6875 
L 18.40625 54.6875 
L 18.40625 0 
L 9.421875 0 
z
M 9.421875 75.984375 
L 18.40625 75.984375 
L 18.40625 64.59375 
L 9.421875 64.59375 
z
" id="DejaVuSans-105"/>
      <path d="M 54.890625 33.015625 
L 54.890625 0 
L 45.90625 0 
L 45.90625 32.71875 
Q 45.90625 40.484375 42.875 44.328125 
Q 39.84375 48.1875 33.796875 48.1875 
Q 26.515625 48.1875 22.3125 43.546875 
Q 18.109375 38.921875 18.109375 30.90625 
L 18.109375 0 
L 9.078125 0 
L 9.078125 54.6875 
L 18.109375 54.6875 
L 18.109375 46.1875 
Q 21.34375 51.125 25.703125 53.5625 
Q 30.078125 56 35.796875 56 
Q 45.21875 56 50.046875 50.171875 
Q 54.890625 44.34375 54.890625 33.015625 
z
" id="DejaVuSans-110"/>
      <path d="M 56.203125 29.59375 
L 56.203125 25.203125 
L 14.890625 25.203125 
Q 15.484375 15.921875 20.484375 11.0625 
Q 25.484375 6.203125 34.421875 6.203125 
Q 39.59375 6.203125 44.453125 7.46875 
Q 49.3125 8.734375 54.109375 11.28125 
L 54.109375 2.78125 
Q 49.265625 0.734375 44.1875 -0.34375 
Q 39.109375 -1.421875 33.890625 -1.421875 
Q 20.796875 -1.421875 13.15625 6.1875 
Q 5.515625 13.8125 5.515625 26.8125 
Q 5.515625 40.234375 12.765625 48.109375 
Q 20.015625 56 32.328125 56 
Q 43.359375 56 49.78125 48.890625 
Q 56.203125 41.796875 56.203125 29.59375 
z
M 47.21875 32.234375 
Q 47.125 39.59375 43.09375 43.984375 
Q 39.0625 48.390625 32.421875 48.390625 
Q 24.90625 48.390625 20.390625 44.140625 
Q 15.875 39.890625 15.1875 32.171875 
z
" id="DejaVuSans-101"/>
      <path d="M 34.28125 27.484375 
Q 23.390625 27.484375 19.1875 25 
Q 14.984375 22.515625 14.984375 16.5 
Q 14.984375 11.71875 18.140625 8.90625 
Q 21.296875 6.109375 26.703125 6.109375 
Q 34.1875 6.109375 38.703125 11.40625 
Q 43.21875 16.703125 43.21875 25.484375 
L 43.21875 27.484375 
z
M 52.203125 31.203125 
L 52.203125 0 
L 43.21875 0 
L 43.21875 8.296875 
Q 40.140625 3.328125 35.546875 0.953125 
Q 30.953125 -1.421875 24.3125 -1.421875 
Q 15.921875 -1.421875 10.953125 3.296875 
Q 6 8.015625 6 15.921875 
Q 6 25.140625 12.171875 29.828125 
Q 18.359375 34.515625 30.609375 34.515625 
L 43.21875 34.515625 
L 43.21875 35.40625 
Q 43.21875 41.609375 39.140625 45 
Q 35.0625 48.390625 27.6875 48.390625 
Q 23 48.390625 18.546875 47.265625 
Q 14.109375 46.140625 10.015625 43.890625 
L 10.015625 52.203125 
Q 14.9375 54.109375 19.578125 55.046875 
Q 24.21875 56 28.609375 56 
Q 40.484375 56 46.34375 49.84375 
Q 52.203125 43.703125 52.203125 31.203125 
z
" id="DejaVuSans-97"/>
      <path d="M 41.109375 46.296875 
Q 39.59375 47.171875 37.8125 47.578125 
Q 36.03125 48 33.890625 48 
Q 26.265625 48 22.1875 43.046875 
Q 18.109375 38.09375 18.109375 28.8125 
L 18.109375 0 
L 9.078125 0 
L 9.078125 54.6875 
L 18.109375 54.6875 
L 18.109375 46.1875 
Q 20.953125 51.171875 25.484375 53.578125 
Q 30.03125 56 36.53125 56 
Q 37.453125 56 38.578125 55.875 
Q 39.703125 55.765625 41.0625 55.515625 
z
" id="DejaVuSans-114"/>
      <path d="M 45.40625 27.984375 
Q 45.40625 37.75 41.375 43.109375 
Q 37.359375 48.484375 30.078125 48.484375 
Q 22.859375 48.484375 18.828125 43.109375 
Q 14.796875 37.75 14.796875 27.984375 
Q 14.796875 18.265625 18.828125 12.890625 
Q 22.859375 7.515625 30.078125 7.515625 
Q 37.359375 7.515625 41.375 12.890625 
Q 45.40625 18.265625 45.40625 27.984375 
z
M 54.390625 6.78125 
Q 54.390625 -7.171875 48.1875 -13.984375 
Q 42 -20.796875 29.203125 -20.796875 
Q 24.46875 -20.796875 20.265625 -20.09375 
Q 16.0625 -19.390625 12.109375 -17.921875 
L 12.109375 -9.1875 
Q 16.0625 -11.328125 19.921875 -12.34375 
Q 23.78125 -13.375 27.78125 -13.375 
Q 36.625 -13.375 41.015625 -8.765625 
Q 45.40625 -4.15625 45.40625 5.171875 
L 45.40625 9.625 
Q 42.625 4.78125 38.28125 2.390625 
Q 33.9375 0 27.875 0 
Q 17.828125 0 11.671875 7.65625 
Q 5.515625 15.328125 5.515625 27.984375 
Q 5.515625 40.671875 11.671875 48.328125 
Q 17.828125 56 27.875 56 
Q 33.9375 56 38.28125 53.609375 
Q 42.625 51.21875 45.40625 46.390625 
L 45.40625 54.6875 
L 54.390625 54.6875 
z
" id="DejaVuSans-103"/>
      <path d="M 30.609375 48.390625 
Q 23.390625 48.390625 19.1875 42.75 
Q 14.984375 37.109375 14.984375 27.296875 
Q 14.984375 17.484375 19.15625 11.84375 
Q 23.34375 6.203125 30.609375 6.203125 
Q 37.796875 6.203125 41.984375 11.859375 
Q 46.1875 17.53125 46.1875 27.296875 
Q 46.1875 37.015625 41.984375 42.703125 
Q 37.796875 48.390625 30.609375 48.390625 
z
M 30.609375 56 
Q 42.328125 56 49.015625 48.375 
Q 55.71875 40.765625 55.71875 27.296875 
Q 55.71875 13.875 49.015625 6.21875 
Q 42.328125 -1.421875 30.609375 -1.421875 
Q 18.84375 -1.421875 12.171875 6.21875 
Q 5.515625 13.875 5.515625 27.296875 
Q 5.515625 40.765625 12.171875 48.375 
Q 18.84375 56 30.609375 56 
z
" id="DejaVuSans-111"/>
     </defs>
     <g transform="translate(316.72 41.748553)scale(0.1 -0.1)">
      <use xlink:href="#DejaVuSans-108"/>
      <use x="27.783203" xlink:href="#DejaVuSans-105"/>
      <use x="55.566406" xlink:href="#DejaVuSans-110"/>
      <use x="118.945312" xlink:href="#DejaVuSans-101"/>
      <use x="180.46875" xlink:href="#DejaVuSans-97"/>
      <use x="241.748047" xlink:href="#DejaVuSans-114"/>
      <use x="282.861328" xlink:href="#DejaVuSans-32"/>
      <use x="314.648438" xlink:href="#DejaVuSans-114"/>
      <use x="353.511719" xlink:href="#DejaVuSans-101"/>
      <use x="415.035156" xlink:href="#DejaVuSans-103"/>
      <use x="478.511719" xlink:href="#DejaVuSans-105"/>
      <use x="506.294922" xlink:href="#DejaVuSans-111"/>
      <use x="567.476562" xlink:href="#DejaVuSans-110"/>
     </g>
    </g>
    <g id="line2d_86">
     <path d="M 288.72 52.928241 
L 308.72 52.928241 
" style="fill:none;stroke:#000000;stroke-dasharray:5.55,2.4;stroke-dashoffset:0;stroke-width:1.5;"/>
    </g>
    <g id="line2d_87"/>
    <g id="text_18">
     <!-- $ \exp(-1.165 k)$ -->
     <defs>
      <path d="M 54.890625 54.6875 
L 35.109375 28.078125 
L 55.90625 0 
L 45.3125 0 
L 29.390625 21.484375 
L 13.484375 0 
L 2.875 0 
L 24.125 28.609375 
L 4.6875 54.6875 
L 15.28125 54.6875 
L 29.78125 35.203125 
L 44.28125 54.6875 
z
" id="DejaVuSans-120"/>
      <path d="M 18.109375 8.203125 
L 18.109375 -20.796875 
L 9.078125 -20.796875 
L 9.078125 54.6875 
L 18.109375 54.6875 
L 18.109375 46.390625 
Q 20.953125 51.265625 25.265625 53.625 
Q 29.59375 56 35.59375 56 
Q 45.5625 56 51.78125 48.09375 
Q 58.015625 40.1875 58.015625 27.296875 
Q 58.015625 14.40625 51.78125 6.484375 
Q 45.5625 -1.421875 35.59375 -1.421875 
Q 29.59375 -1.421875 25.265625 0.953125 
Q 20.953125 3.328125 18.109375 8.203125 
z
M 48.6875 27.296875 
Q 48.6875 37.203125 44.609375 42.84375 
Q 40.53125 48.484375 33.40625 48.484375 
Q 26.265625 48.484375 22.1875 42.84375 
Q 18.109375 37.203125 18.109375 27.296875 
Q 18.109375 17.390625 22.1875 11.75 
Q 26.265625 6.109375 33.40625 6.109375 
Q 40.53125 6.109375 44.609375 11.75 
Q 48.6875 17.390625 48.6875 27.296875 
z
" id="DejaVuSans-112"/>
      <path d="M 31 75.875 
Q 24.46875 64.65625 21.28125 53.65625 
Q 18.109375 42.671875 18.109375 31.390625 
Q 18.109375 20.125 21.3125 9.0625 
Q 24.515625 -2 31 -13.1875 
L 23.1875 -13.1875 
Q 15.875 -1.703125 12.234375 9.375 
Q 8.59375 20.453125 8.59375 31.390625 
Q 8.59375 42.28125 12.203125 53.3125 
Q 15.828125 64.359375 23.1875 75.875 
z
" id="DejaVuSans-40"/>
      <path d="M 10.6875 12.40625 
L 21 12.40625 
L 21 0 
L 10.6875 0 
z
" id="DejaVuSans-46"/>
      <path d="M 33.015625 40.375 
Q 26.375 40.375 22.484375 35.828125 
Q 18.609375 31.296875 18.609375 23.390625 
Q 18.609375 15.53125 22.484375 10.953125 
Q 26.375 6.390625 33.015625 6.390625 
Q 39.65625 6.390625 43.53125 10.953125 
Q 47.40625 15.53125 47.40625 23.390625 
Q 47.40625 31.296875 43.53125 35.828125 
Q 39.65625 40.375 33.015625 40.375 
z
M 52.59375 71.296875 
L 52.59375 62.3125 
Q 48.875 64.0625 45.09375 64.984375 
Q 41.3125 65.921875 37.59375 65.921875 
Q 27.828125 65.921875 22.671875 59.328125 
Q 17.53125 52.734375 16.796875 39.40625 
Q 19.671875 43.65625 24.015625 45.921875 
Q 28.375 48.1875 33.59375 48.1875 
Q 44.578125 48.1875 50.953125 41.515625 
Q 57.328125 34.859375 57.328125 23.390625 
Q 57.328125 12.15625 50.6875 5.359375 
Q 44.046875 -1.421875 33.015625 -1.421875 
Q 20.359375 -1.421875 13.671875 8.265625 
Q 6.984375 17.96875 6.984375 36.375 
Q 6.984375 53.65625 15.1875 63.9375 
Q 23.390625 74.21875 37.203125 74.21875 
Q 40.921875 74.21875 44.703125 73.484375 
Q 48.484375 72.75 52.59375 71.296875 
z
" id="DejaVuSans-54"/>
      <path d="M 8.015625 75.875 
L 15.828125 75.875 
Q 23.140625 64.359375 26.78125 53.3125 
Q 30.421875 42.28125 30.421875 31.390625 
Q 30.421875 20.453125 26.78125 9.375 
Q 23.140625 -1.703125 15.828125 -13.1875 
L 8.015625 -13.1875 
Q 14.5 -2 17.703125 9.0625 
Q 20.90625 20.125 20.90625 31.390625 
Q 20.90625 42.671875 17.703125 53.65625 
Q 14.5 64.65625 8.015625 75.875 
z
" id="DejaVuSans-41"/>
     </defs>
     <g transform="translate(316.72 56.428241)scale(0.1 -0.1)">
      <use transform="translate(0 0.015625)" xlink:href="#DejaVuSans-101"/>
      <use transform="translate(61.523438 0.015625)" xlink:href="#DejaVuSans-120"/>
      <use transform="translate(120.703125 0.015625)" xlink:href="#DejaVuSans-112"/>
      <use transform="translate(184.179688 0.015625)" xlink:href="#DejaVuSans-40"/>
      <use transform="translate(223.193359 0.015625)" xlink:href="#DejaVuSans-8722"/>
      <use transform="translate(306.982422 0.015625)" xlink:href="#DejaVuSans-49"/>
      <use transform="translate(370.605469 0.015625)" xlink:href="#DejaVuSans-46"/>
      <use transform="translate(402.392578 0.015625)" xlink:href="#DejaVuSans-49"/>
      <use transform="translate(466.015625 0.015625)" xlink:href="#DejaVuSans-54"/>
      <use transform="translate(529.638672 0.015625)" xlink:href="#DejaVuSans-53"/>
      <use transform="translate(593.261719 0.015625)" xlink:href="#DejaVuSans-Oblique-107"/>
      <use transform="translate(651.171875 0.015625)" xlink:href="#DejaVuSans-41"/>
     </g>
    </g>
   </g>
  </g>
 </g>
 <defs>
  <clipPath id="p86d0eecbd4">
   <rect height="266.112" width="357.12" x="37.7" y="10.471991"/>
  </clipPath>
 </defs>
</svg>
