<?xml version="1.0" encoding="utf-8" standalone="no"?>
<!DOCTYPE svg PUBLIC "-//W3C//DTD SVG 1.1//EN"
  "http://www.w3.org/Graphics/SVG/1.1/DTD/svg11.dtd">
<!-- Created with matplotlib (https://matplotlib.org/) -->
<svg height="310.86825pt" version="1.1" viewBox="0 0 402.02 310.86825" width="402.02pt" xmlns="http://www.w3.org/2000/svg" xmlns:xlink="http://www.w3.org/1999/xlink">
 <defs>
  <style type="text/css">
*{stroke-linecap:butt;stroke-linejoin:round;}
  </style>
 </defs>
 <g id="figure_1">
  <g id="patch_1">
   <path d="M 0 310.86825 
L 402.02 310.86825 
L 402.02 0 
L 0 0 
z
" style="fill:#ffffff;"/>
  </g>
  <g id="axes_1">
   <g id="patch_2">
    <path d="M 37.7 273.312 
L 394.82 273.312 
L 394.82 7.2 
L 37.7 7.2 
z
" style="fill:#ffffff;"/>
   </g>
   <g id="matplotlib.axis_1">
    <g id="xtick_1">
     <g id="line2d_1">
      <defs>
       <path d="M 0 0 
L 0 3.5 
" id="mf22822bf9a" style="stroke:#000000;stroke-width:0.8;"/>
      </defs>
      <g>
       <use style="stroke:#000000;stroke-width:0.8;" x="53.932727" xlink:href="#mf22822bf9a" y="273.312"/>
      </g>
     </g>
     <g id="text_1">
      <!-- 0 -->
      <defs>
       <path d="M 31.78125 66.40625 
Q 24.171875 66.40625 20.328125 58.90625 
Q 16.5 51.421875 16.5 36.375 
Q 16.5 21.390625 20.328125 13.890625 
Q 24.171875 6.390625 31.78125 6.390625 
Q 39.453125 6.390625 43.28125 13.890625 
Q 47.125 21.390625 47.125 36.375 
Q 47.125 51.421875 43.28125 58.90625 
Q 39.453125 66.40625 31.78125 66.40625 
z
M 31.78125 74.21875 
Q 44.046875 74.21875 50.515625 64.515625 
Q 56.984375 54.828125 56.984375 36.375 
Q 56.984375 17.96875 50.515625 8.265625 
Q 44.046875 -1.421875 31.78125 -1.421875 
Q 19.53125 -1.421875 13.0625 8.265625 
Q 6.59375 17.96875 6.59375 36.375 
Q 6.59375 54.828125 13.0625 64.515625 
Q 19.53125 74.21875 31.78125 74.21875 
z
" id="DejaVuSans-48"/>
      </defs>
      <g transform="translate(50.751477 287.910437)scale(0.1 -0.1)">
       <use xlink:href="#DejaVuSans-48"/>
      </g>
     </g>
    </g>
    <g id="xtick_2">
     <g id="line2d_2">
      <g>
       <use style="stroke:#000000;stroke-width:0.8;" x="114.053939" xlink:href="#mf22822bf9a" y="273.312"/>
      </g>
     </g>
     <g id="text_2">
      <!-- 50 -->
      <defs>
       <path d="M 10.796875 72.90625 
L 49.515625 72.90625 
L 49.515625 64.59375 
L 19.828125 64.59375 
L 19.828125 46.734375 
Q 21.96875 47.46875 24.109375 47.828125 
Q 26.265625 48.1875 28.421875 48.1875 
Q 40.625 48.1875 47.75 41.5 
Q 54.890625 34.8125 54.890625 23.390625 
Q 54.890625 11.625 47.5625 5.09375 
Q 40.234375 -1.421875 26.90625 -1.421875 
Q 22.3125 -1.421875 17.546875 -0.640625 
Q 12.796875 0.140625 7.71875 1.703125 
L 7.71875 11.625 
Q 12.109375 9.234375 16.796875 8.0625 
Q 21.484375 6.890625 26.703125 6.890625 
Q 35.15625 6.890625 40.078125 11.328125 
Q 45.015625 15.765625 45.015625 23.390625 
Q 45.015625 31 40.078125 35.4375 
Q 35.15625 39.890625 26.703125 39.890625 
Q 22.75 39.890625 18.8125 39.015625 
Q 14.890625 38.140625 10.796875 36.28125 
z
" id="DejaVuSans-53"/>
      </defs>
      <g transform="translate(107.691439 287.910437)scale(0.1 -0.1)">
       <use xlink:href="#DejaVuSans-53"/>
       <use x="63.623047" xlink:href="#DejaVuSans-48"/>
      </g>
     </g>
    </g>
    <g id="xtick_3">
     <g id="line2d_3">
      <g>
       <use style="stroke:#000000;stroke-width:0.8;" x="174.175152" xlink:href="#mf22822bf9a" y="273.312"/>
      </g>
     </g>
     <g id="text_3">
      <!-- 100 -->
      <defs>
       <path d="M 12.40625 8.296875 
L 28.515625 8.296875 
L 28.515625 63.921875 
L 10.984375 60.40625 
L 10.984375 69.390625 
L 28.421875 72.90625 
L 38.28125 72.90625 
L 38.28125 8.296875 
L 54.390625 8.296875 
L 54.390625 0 
L 12.40625 0 
z
" id="DejaVuSans-49"/>
      </defs>
      <g transform="translate(164.631402 287.910437)scale(0.1 -0.1)">
       <use xlink:href="#DejaVuSans-49"/>
       <use x="63.623047" xlink:href="#DejaVuSans-48"/>
       <use x="127.246094" xlink:href="#DejaVuSans-48"/>
      </g>
     </g>
    </g>
    <g id="xtick_4">
     <g id="line2d_4">
      <g>
       <use style="stroke:#000000;stroke-width:0.8;" x="234.296364" xlink:href="#mf22822bf9a" y="273.312"/>
      </g>
     </g>
     <g id="text_4">
      <!-- 150 -->
      <g transform="translate(224.752614 287.910437)scale(0.1 -0.1)">
       <use xlink:href="#DejaVuSans-49"/>
       <use x="63.623047" xlink:href="#DejaVuSans-53"/>
       <use x="127.246094" xlink:href="#DejaVuSans-48"/>
      </g>
     </g>
    </g>
    <g id="xtick_5">
     <g id="line2d_5">
      <g>
       <use style="stroke:#000000;stroke-width:0.8;" x="294.417576" xlink:href="#mf22822bf9a" y="273.312"/>
      </g>
     </g>
     <g id="text_5">
      <!-- 200 -->
      <defs>
       <path d="M 19.1875 8.296875 
L 53.609375 8.296875 
L 53.609375 0 
L 7.328125 0 
L 7.328125 8.296875 
Q 12.9375 14.109375 22.625 23.890625 
Q 32.328125 33.6875 34.8125 36.53125 
Q 39.546875 41.84375 41.421875 45.53125 
Q 43.3125 49.21875 43.3125 52.78125 
Q 43.3125 58.59375 39.234375 62.25 
Q 35.15625 65.921875 28.609375 65.921875 
Q 23.96875 65.921875 18.8125 64.3125 
Q 13.671875 62.703125 7.8125 59.421875 
L 7.8125 69.390625 
Q 13.765625 71.78125 18.9375 73 
Q 24.125 74.21875 28.421875 74.21875 
Q 39.75 74.21875 46.484375 68.546875 
Q 53.21875 62.890625 53.21875 53.421875 
Q 53.21875 48.921875 51.53125 44.890625 
Q 49.859375 40.875 45.40625 35.40625 
Q 44.1875 33.984375 37.640625 27.21875 
Q 31.109375 20.453125 19.1875 8.296875 
z
" id="DejaVuSans-50"/>
      </defs>
      <g transform="translate(284.873826 287.910437)scale(0.1 -0.1)">
       <use xlink:href="#DejaVuSans-50"/>
       <use x="63.623047" xlink:href="#DejaVuSans-48"/>
       <use x="127.246094" xlink:href="#DejaVuSans-48"/>
      </g>
     </g>
    </g>
    <g id="xtick_6">
     <g id="line2d_6">
      <g>
       <use style="stroke:#000000;stroke-width:0.8;" x="354.538788" xlink:href="#mf22822bf9a" y="273.312"/>
      </g>
     </g>
     <g id="text_6">
      <!-- 250 -->
      <g transform="translate(344.995038 287.910437)scale(0.1 -0.1)">
       <use xlink:href="#DejaVuSans-50"/>
       <use x="63.623047" xlink:href="#DejaVuSans-53"/>
       <use x="127.246094" xlink:href="#DejaVuSans-48"/>
      </g>
     </g>
    </g>
    <g id="text_7">
     <!-- $ k $ -->
     <defs>
      <path d="M 18.3125 75.984375 
L 27.296875 75.984375 
L 18.703125 31.6875 
L 49.515625 54.6875 
L 61.1875 54.6875 
L 26.8125 28.515625 
L 51.90625 0 
L 41.015625 0 
L 17.671875 26.703125 
L 12.5 0 
L 3.515625 0 
z
" id="DejaVuSans-Oblique-107"/>
     </defs>
     <g transform="translate(213.36 301.588562)scale(0.1 -0.1)">
      <use transform="translate(0 0.015625)" xlink:href="#DejaVuSans-Oblique-107"/>
     </g>
    </g>
   </g>
   <g id="matplotlib.axis_2">
    <g id="ytick_1">
     <g id="line2d_7">
      <defs>
       <path d="M 0 0 
L -3.5 0 
" id="m989b36ae81" style="stroke:#000000;stroke-width:0.8;"/>
      </defs>
      <g>
       <use style="stroke:#000000;stroke-width:0.8;" x="37.7" xlink:href="#m989b36ae81" y="235.313914"/>
      </g>
     </g>
     <g id="text_8">
      <!-- $\mathdefault{10^{-5}}$ -->
      <defs>
       <path d="M 10.59375 35.5 
L 73.1875 35.5 
L 73.1875 27.203125 
L 10.59375 27.203125 
z
" id="DejaVuSans-8722"/>
      </defs>
      <g transform="translate(7.2 239.113132)scale(0.1 -0.1)">
       <use transform="translate(0 0.684375)" xlink:href="#DejaVuSans-49"/>
       <use transform="translate(63.623047 0.684375)" xlink:href="#DejaVuSans-48"/>
       <use transform="translate(128.203125 38.965625)scale(0.7)" xlink:href="#DejaVuSans-8722"/>
       <use transform="translate(186.855469 38.965625)scale(0.7)" xlink:href="#DejaVuSans-53"/>
      </g>
     </g>
    </g>
    <g id="ytick_2">
     <g id="line2d_8">
      <g>
       <use style="stroke:#000000;stroke-width:0.8;" x="37.7" xlink:href="#m989b36ae81" y="170.619545"/>
      </g>
     </g>
     <g id="text_9">
      <!-- $\mathdefault{10^{-3}}$ -->
      <defs>
       <path d="M 40.578125 39.3125 
Q 47.65625 37.796875 51.625 33 
Q 55.609375 28.21875 55.609375 21.1875 
Q 55.609375 10.40625 48.1875 4.484375 
Q 40.765625 -1.421875 27.09375 -1.421875 
Q 22.515625 -1.421875 17.65625 -0.515625 
Q 12.796875 0.390625 7.625 2.203125 
L 7.625 11.71875 
Q 11.71875 9.328125 16.59375 8.109375 
Q 21.484375 6.890625 26.8125 6.890625 
Q 36.078125 6.890625 40.9375 10.546875 
Q 45.796875 14.203125 45.796875 21.1875 
Q 45.796875 27.640625 41.28125 31.265625 
Q 36.765625 34.90625 28.71875 34.90625 
L 20.21875 34.90625 
L 20.21875 43.015625 
L 29.109375 43.015625 
Q 36.375 43.015625 40.234375 45.921875 
Q 44.09375 48.828125 44.09375 54.296875 
Q 44.09375 59.90625 40.109375 62.90625 
Q 36.140625 65.921875 28.71875 65.921875 
Q 24.65625 65.921875 20.015625 65.03125 
Q 15.375 64.15625 9.8125 62.3125 
L 9.8125 71.09375 
Q 15.4375 72.65625 20.34375 73.4375 
Q 25.25 74.21875 29.59375 74.21875 
Q 40.828125 74.21875 47.359375 69.109375 
Q 53.90625 64.015625 53.90625 55.328125 
Q 53.90625 49.265625 50.4375 45.09375 
Q 46.96875 40.921875 40.578125 39.3125 
z
" id="DejaVuSans-51"/>
      </defs>
      <g transform="translate(7.2 174.418763)scale(0.1 -0.1)">
       <use transform="translate(0 0.765625)" xlink:href="#DejaVuSans-49"/>
       <use transform="translate(63.623047 0.765625)" xlink:href="#DejaVuSans-48"/>
       <use transform="translate(128.203125 39.046875)scale(0.7)" xlink:href="#DejaVuSans-8722"/>
       <use transform="translate(186.855469 39.046875)scale(0.7)" xlink:href="#DejaVuSans-51"/>
      </g>
     </g>
    </g>
    <g id="ytick_3">
     <g id="line2d_9">
      <g>
       <use style="stroke:#000000;stroke-width:0.8;" x="37.7" xlink:href="#m989b36ae81" y="105.925176"/>
      </g>
     </g>
     <g id="text_10">
      <!-- $\mathdefault{10^{-1}}$ -->
      <g transform="translate(7.2 109.724395)scale(0.1 -0.1)">
       <use transform="translate(0 0.684375)" xlink:href="#DejaVuSans-49"/>
       <use transform="translate(63.623047 0.684375)" xlink:href="#DejaVuSans-48"/>
       <use transform="translate(128.203125 38.965625)scale(0.7)" xlink:href="#DejaVuSans-8722"/>
       <use transform="translate(186.855469 38.965625)scale(0.7)" xlink:href="#DejaVuSans-49"/>
      </g>
     </g>
    </g>
    <g id="ytick_4">
     <g id="line2d_10">
      <g>
       <use style="stroke:#000000;stroke-width:0.8;" x="37.7" xlink:href="#m989b36ae81" y="41.230807"/>
      </g>
     </g>
     <g id="text_11">
      <!-- $\mathdefault{10^{1}}$ -->
      <g transform="translate(13.1 45.030026)scale(0.1 -0.1)">
       <use transform="translate(0 0.684375)" xlink:href="#DejaVuSans-49"/>
       <use transform="translate(63.623047 0.684375)" xlink:href="#DejaVuSans-48"/>
       <use transform="translate(128.203125 38.965625)scale(0.7)" xlink:href="#DejaVuSans-49"/>
      </g>
     </g>
    </g>
   </g>
   <g id="line2d_11">
    <path clip-path="url(#p9ae42999ab)" d="M 53.932727 19.296 
L 56.337576 44.015641 
L 57.54 58.438691 
L 61.147273 98.636512 
L 67.159394 165.283803 
L 68.361818 174.371918 
L 69.564242 189.866732 
L 70.766667 208.707952 
L 71.969091 191.066198 
L 73.171515 187.947914 
L 74.373939 222.070294 
L 75.576364 187.436368 
L 76.778788 188.263603 
L 77.981212 184.77064 
L 79.183636 200.212156 
L 80.386061 184.689917 
L 81.588485 185.598078 
L 82.790909 182.71707 
L 83.993333 186.555343 
L 85.195758 194.687819 
L 86.398182 194.730637 
L 87.600606 186.276355 
L 88.80303 198.66879 
L 90.005455 187.646767 
L 91.207879 180.40797 
L 92.410303 180.73189 
L 93.612727 182.651047 
L 94.815152 185.740746 
L 96.017576 198.667507 
L 97.22 216.730641 
L 98.422424 189.288268 
L 100.827273 180.983181 
L 102.029697 183.930721 
L 103.232121 201.465203 
L 104.434545 186.963691 
L 105.63697 181.699434 
L 106.839394 191.817974 
L 109.244242 208.455926 
L 110.446667 192.279718 
L 111.649091 190.119023 
L 112.851515 208.278388 
L 114.053939 194.320309 
L 115.256364 206.619694 
L 116.458788 189.06907 
L 118.863636 198.637026 
L 120.066061 248.516787 
L 121.268485 228.972451 
L 122.470909 191.993324 
L 123.673333 195.742602 
L 124.875758 239.24853 
L 126.078182 198.329202 
L 127.280606 199.92468 
L 128.48303 199.640551 
L 129.685455 197.757491 
L 130.887879 221.926955 
L 133.292727 195.212361 
L 134.495152 206.167587 
L 135.697576 192.468751 
L 136.9 183.742678 
L 138.102424 213.019543 
L 139.304848 203.295793 
L 140.507273 187.803702 
L 141.709697 185.24098 
L 142.912121 177.323759 
L 144.114545 177.301949 
L 145.31697 192.393648 
L 146.519394 227.498232 
L 147.721818 191.813128 
L 148.924242 167.815799 
L 150.126667 174.608482 
L 151.329091 184.175633 
L 152.531515 189.362758 
L 153.733939 198.185976 
L 154.936364 196.017786 
L 156.138788 192.380614 
L 157.341212 196.305218 
L 158.543636 175.425851 
L 159.746061 223.163496 
L 160.948485 195.642504 
L 162.150909 192.930685 
L 163.353333 206.03766 
L 164.555758 193.13714 
L 165.758182 192.546026 
L 166.960606 196.976718 
L 168.16303 185.947125 
L 169.365455 191.608875 
L 170.567879 193.062025 
L 171.770303 193.057763 
L 172.972727 195.584132 
L 174.175152 192.876971 
L 175.377576 183.166997 
L 176.58 213.565726 
L 177.782424 185.796418 
L 178.984848 177.221906 
L 180.187273 179.431289 
L 181.389697 209.681276 
L 182.592121 261.216 
L 183.794545 207.603547 
L 184.99697 201.440556 
L 186.199394 188.771761 
L 187.401818 186.267695 
L 188.604242 187.799567 
L 189.806667 200.508683 
L 191.009091 189.936612 
L 192.211515 209.921047 
L 193.413939 191.654433 
L 194.616364 203.703306 
L 195.818788 214.031255 
L 197.021212 196.386367 
L 198.223636 194.866381 
L 199.426061 202.258997 
L 200.628485 204.980784 
L 201.830909 204.697149 
L 203.033333 229.489852 
L 204.235758 203.811598 
L 205.438182 188.648896 
L 206.640606 199.103579 
L 207.84303 216.078499 
L 209.045455 177.149723 
L 210.247879 177.560083 
L 211.450303 181.846589 
L 212.652727 205.251689 
L 213.855152 189.545026 
L 215.057576 207.630792 
L 216.26 220.496773 
L 217.462424 197.367028 
L 218.664848 212.740065 
L 219.867273 218.568571 
L 221.069697 190.164014 
L 222.272121 187.502389 
L 223.474545 193.244092 
L 224.67697 171.694206 
L 225.879394 177.572565 
L 227.081818 186.062112 
L 228.284242 192.606727 
L 229.486667 235.865239 
L 230.689091 217.946048 
L 231.891515 226.804483 
L 233.093939 186.267615 
L 234.296364 189.291063 
L 235.498788 198.062653 
L 236.701212 190.898725 
L 237.903636 196.454176 
L 239.106061 183.475978 
L 240.308485 194.798805 
L 241.510909 193.667544 
L 242.713333 196.521851 
L 243.915758 185.700781 
L 245.118182 194.218062 
L 246.320606 197.187739 
L 247.52303 243.737435 
L 248.725455 186.920302 
L 249.927879 180.455834 
L 251.130303 203.300164 
L 252.332727 208.557378 
L 253.535152 191.008654 
L 254.737576 200.44384 
L 255.94 171.929455 
L 257.142424 178.065455 
L 258.344848 172.111215 
L 259.547273 190.562024 
L 260.749697 181.979827 
L 261.952121 199.540918 
L 263.154545 196.218475 
L 264.35697 203.05436 
L 265.559394 207.650879 
L 266.761818 192.274712 
L 267.964242 220.218939 
L 269.166667 194.638132 
L 270.369091 199.528718 
L 271.571515 189.025829 
L 272.773939 190.691429 
L 273.976364 201.290175 
L 275.178788 197.150267 
L 276.381212 189.909171 
L 277.583636 203.462346 
L 278.786061 195.601678 
L 279.988485 182.245321 
L 281.190909 183.21622 
L 282.393333 215.308658 
L 283.595758 180.103063 
L 284.798182 174.973757 
L 286.000606 167.824899 
L 287.20303 176.238969 
L 288.405455 179.111417 
L 289.607879 201.646301 
L 290.810303 197.764542 
L 292.012727 204.761195 
L 293.215152 203.158754 
L 294.417576 178.751021 
L 295.62 187.729813 
L 296.822424 190.614835 
L 298.024848 189.31646 
L 299.227273 193.182377 
L 300.429697 190.07852 
L 301.632121 195.764771 
L 302.834545 195.942268 
L 304.03697 205.941972 
L 305.239394 189.273483 
L 306.441818 220.619346 
L 307.644242 186.583294 
L 308.846667 181.766271 
L 310.049091 179.419411 
L 311.251515 175.215826 
L 312.453939 176.932046 
L 313.656364 187.937406 
L 314.858788 192.728924 
L 316.061212 204.454009 
L 317.263636 203.959915 
L 318.466061 189.551291 
L 319.668485 190.602497 
L 320.870909 201.837584 
L 322.073333 189.272878 
L 323.275758 184.871451 
L 324.478182 184.181982 
L 325.680606 183.793248 
L 326.88303 192.630841 
L 328.085455 258.579903 
L 329.287879 189.48507 
L 330.490303 174.903409 
L 331.692727 184.670939 
L 332.895152 191.46695 
L 334.097576 181.586181 
L 335.3 208.003242 
L 336.502424 178.603547 
L 337.704848 177.955576 
L 338.907273 190.075914 
L 340.109697 200.003565 
L 341.312121 217.63015 
L 342.514545 197.436115 
L 343.71697 194.862582 
L 344.919394 193.60216 
L 346.121818 212.318785 
L 347.324242 200.463249 
L 348.526667 194.083375 
L 349.729091 185.442042 
L 350.931515 232.724623 
L 352.133939 213.006129 
L 353.336364 189.658371 
L 355.741212 209.188807 
L 356.943636 195.385096 
L 358.146061 209.227587 
L 359.348485 197.278867 
L 360.550909 180.180382 
L 361.753333 191.660851 
L 362.955758 198.933131 
L 364.158182 190.214044 
L 365.360606 184.281784 
L 366.56303 167.514953 
L 367.765455 178.300376 
L 368.967879 173.355463 
L 370.170303 175.931947 
L 371.372727 178.104433 
L 372.575152 186.343691 
L 373.777576 195.435173 
L 374.98 193.213602 
L 376.182424 190.632069 
L 376.186947 311.86825 
L 376.186947 311.86825 
" style="fill:none;stroke:#1f77b4;stroke-linecap:square;stroke-width:1.5;"/>
    <defs>
     <path d="M 0 3 
C 0.795609 3 1.55874 2.683901 2.12132 2.12132 
C 2.683901 1.55874 3 0.795609 3 0 
C 3 -0.795609 2.683901 -1.55874 2.12132 -2.12132 
C 1.55874 -2.683901 0.795609 -3 0 -3 
C -0.795609 -3 -1.55874 -2.683901 -2.12132 -2.12132 
C -2.683901 -1.55874 -3 -0.795609 -3 0 
C -3 0.795609 -2.683901 1.55874 -2.12132 2.12132 
C -1.55874 2.683901 -0.795609 3 0 3 
z
" id="m115024b878" style="stroke:#1f77b4;"/>
    </defs>
    <g clip-path="url(#p9ae42999ab)">
     <use style="fill:#1f77b4;stroke:#1f77b4;" x="53.932727" xlink:href="#m115024b878" y="19.296"/>
     <use style="fill:#1f77b4;stroke:#1f77b4;" x="55.135152" xlink:href="#m115024b878" y="31.845775"/>
     <use style="fill:#1f77b4;stroke:#1f77b4;" x="56.337576" xlink:href="#m115024b878" y="44.015641"/>
     <use style="fill:#1f77b4;stroke:#1f77b4;" x="57.54" xlink:href="#m115024b878" y="58.438691"/>
     <use style="fill:#1f77b4;stroke:#1f77b4;" x="58.742424" xlink:href="#m115024b878" y="71.488611"/>
     <use style="fill:#1f77b4;stroke:#1f77b4;" x="59.944848" xlink:href="#m115024b878" y="85.237771"/>
     <use style="fill:#1f77b4;stroke:#1f77b4;" x="61.147273" xlink:href="#m115024b878" y="98.636512"/>
     <use style="fill:#1f77b4;stroke:#1f77b4;" x="62.349697" xlink:href="#m115024b878" y="112.18157"/>
     <use style="fill:#1f77b4;stroke:#1f77b4;" x="63.552121" xlink:href="#m115024b878" y="125.433674"/>
     <use style="fill:#1f77b4;stroke:#1f77b4;" x="64.754545" xlink:href="#m115024b878" y="139.052249"/>
     <use style="fill:#1f77b4;stroke:#1f77b4;" x="65.95697" xlink:href="#m115024b878" y="151.851104"/>
     <use style="fill:#1f77b4;stroke:#1f77b4;" x="67.159394" xlink:href="#m115024b878" y="165.283803"/>
     <use style="fill:#1f77b4;stroke:#1f77b4;" x="68.361818" xlink:href="#m115024b878" y="174.371918"/>
     <use style="fill:#1f77b4;stroke:#1f77b4;" x="69.564242" xlink:href="#m115024b878" y="189.866732"/>
     <use style="fill:#1f77b4;stroke:#1f77b4;" x="70.766667" xlink:href="#m115024b878" y="208.707952"/>
     <use style="fill:#1f77b4;stroke:#1f77b4;" x="71.969091" xlink:href="#m115024b878" y="191.066198"/>
     <use style="fill:#1f77b4;stroke:#1f77b4;" x="73.171515" xlink:href="#m115024b878" y="187.947914"/>
     <use style="fill:#1f77b4;stroke:#1f77b4;" x="74.373939" xlink:href="#m115024b878" y="222.070294"/>
     <use style="fill:#1f77b4;stroke:#1f77b4;" x="75.576364" xlink:href="#m115024b878" y="187.436368"/>
     <use style="fill:#1f77b4;stroke:#1f77b4;" x="76.778788" xlink:href="#m115024b878" y="188.263603"/>
     <use style="fill:#1f77b4;stroke:#1f77b4;" x="77.981212" xlink:href="#m115024b878" y="184.77064"/>
     <use style="fill:#1f77b4;stroke:#1f77b4;" x="79.183636" xlink:href="#m115024b878" y="200.212156"/>
     <use style="fill:#1f77b4;stroke:#1f77b4;" x="80.386061" xlink:href="#m115024b878" y="184.689917"/>
     <use style="fill:#1f77b4;stroke:#1f77b4;" x="81.588485" xlink:href="#m115024b878" y="185.598078"/>
     <use style="fill:#1f77b4;stroke:#1f77b4;" x="82.790909" xlink:href="#m115024b878" y="182.71707"/>
     <use style="fill:#1f77b4;stroke:#1f77b4;" x="83.993333" xlink:href="#m115024b878" y="186.555343"/>
     <use style="fill:#1f77b4;stroke:#1f77b4;" x="85.195758" xlink:href="#m115024b878" y="194.687819"/>
     <use style="fill:#1f77b4;stroke:#1f77b4;" x="86.398182" xlink:href="#m115024b878" y="194.730637"/>
     <use style="fill:#1f77b4;stroke:#1f77b4;" x="87.600606" xlink:href="#m115024b878" y="186.276355"/>
     <use style="fill:#1f77b4;stroke:#1f77b4;" x="88.80303" xlink:href="#m115024b878" y="198.66879"/>
     <use style="fill:#1f77b4;stroke:#1f77b4;" x="90.005455" xlink:href="#m115024b878" y="187.646767"/>
     <use style="fill:#1f77b4;stroke:#1f77b4;" x="91.207879" xlink:href="#m115024b878" y="180.40797"/>
     <use style="fill:#1f77b4;stroke:#1f77b4;" x="92.410303" xlink:href="#m115024b878" y="180.73189"/>
     <use style="fill:#1f77b4;stroke:#1f77b4;" x="93.612727" xlink:href="#m115024b878" y="182.651047"/>
     <use style="fill:#1f77b4;stroke:#1f77b4;" x="94.815152" xlink:href="#m115024b878" y="185.740746"/>
     <use style="fill:#1f77b4;stroke:#1f77b4;" x="96.017576" xlink:href="#m115024b878" y="198.667507"/>
     <use style="fill:#1f77b4;stroke:#1f77b4;" x="97.22" xlink:href="#m115024b878" y="216.730641"/>
     <use style="fill:#1f77b4;stroke:#1f77b4;" x="98.422424" xlink:href="#m115024b878" y="189.288268"/>
     <use style="fill:#1f77b4;stroke:#1f77b4;" x="99.624848" xlink:href="#m115024b878" y="185.043815"/>
     <use style="fill:#1f77b4;stroke:#1f77b4;" x="100.827273" xlink:href="#m115024b878" y="180.983181"/>
     <use style="fill:#1f77b4;stroke:#1f77b4;" x="102.029697" xlink:href="#m115024b878" y="183.930721"/>
     <use style="fill:#1f77b4;stroke:#1f77b4;" x="103.232121" xlink:href="#m115024b878" y="201.465203"/>
     <use style="fill:#1f77b4;stroke:#1f77b4;" x="104.434545" xlink:href="#m115024b878" y="186.963691"/>
     <use style="fill:#1f77b4;stroke:#1f77b4;" x="105.63697" xlink:href="#m115024b878" y="181.699434"/>
     <use style="fill:#1f77b4;stroke:#1f77b4;" x="106.839394" xlink:href="#m115024b878" y="191.817974"/>
     <use style="fill:#1f77b4;stroke:#1f77b4;" x="108.041818" xlink:href="#m115024b878" y="199.850268"/>
     <use style="fill:#1f77b4;stroke:#1f77b4;" x="109.244242" xlink:href="#m115024b878" y="208.455926"/>
     <use style="fill:#1f77b4;stroke:#1f77b4;" x="110.446667" xlink:href="#m115024b878" y="192.279718"/>
     <use style="fill:#1f77b4;stroke:#1f77b4;" x="111.649091" xlink:href="#m115024b878" y="190.119023"/>
     <use style="fill:#1f77b4;stroke:#1f77b4;" x="112.851515" xlink:href="#m115024b878" y="208.278388"/>
     <use style="fill:#1f77b4;stroke:#1f77b4;" x="114.053939" xlink:href="#m115024b878" y="194.320309"/>
     <use style="fill:#1f77b4;stroke:#1f77b4;" x="115.256364" xlink:href="#m115024b878" y="206.619694"/>
     <use style="fill:#1f77b4;stroke:#1f77b4;" x="116.458788" xlink:href="#m115024b878" y="189.06907"/>
     <use style="fill:#1f77b4;stroke:#1f77b4;" x="117.661212" xlink:href="#m115024b878" y="194.085102"/>
     <use style="fill:#1f77b4;stroke:#1f77b4;" x="118.863636" xlink:href="#m115024b878" y="198.637026"/>
     <use style="fill:#1f77b4;stroke:#1f77b4;" x="120.066061" xlink:href="#m115024b878" y="248.516787"/>
     <use style="fill:#1f77b4;stroke:#1f77b4;" x="121.268485" xlink:href="#m115024b878" y="228.972451"/>
     <use style="fill:#1f77b4;stroke:#1f77b4;" x="122.470909" xlink:href="#m115024b878" y="191.993324"/>
     <use style="fill:#1f77b4;stroke:#1f77b4;" x="123.673333" xlink:href="#m115024b878" y="195.742602"/>
     <use style="fill:#1f77b4;stroke:#1f77b4;" x="124.875758" xlink:href="#m115024b878" y="239.24853"/>
     <use style="fill:#1f77b4;stroke:#1f77b4;" x="126.078182" xlink:href="#m115024b878" y="198.329202"/>
     <use style="fill:#1f77b4;stroke:#1f77b4;" x="127.280606" xlink:href="#m115024b878" y="199.92468"/>
     <use style="fill:#1f77b4;stroke:#1f77b4;" x="128.48303" xlink:href="#m115024b878" y="199.640551"/>
     <use style="fill:#1f77b4;stroke:#1f77b4;" x="129.685455" xlink:href="#m115024b878" y="197.757491"/>
     <use style="fill:#1f77b4;stroke:#1f77b4;" x="130.887879" xlink:href="#m115024b878" y="221.926955"/>
     <use style="fill:#1f77b4;stroke:#1f77b4;" x="132.090303" xlink:href="#m115024b878" y="208.993934"/>
     <use style="fill:#1f77b4;stroke:#1f77b4;" x="133.292727" xlink:href="#m115024b878" y="195.212361"/>
     <use style="fill:#1f77b4;stroke:#1f77b4;" x="134.495152" xlink:href="#m115024b878" y="206.167587"/>
     <use style="fill:#1f77b4;stroke:#1f77b4;" x="135.697576" xlink:href="#m115024b878" y="192.468751"/>
     <use style="fill:#1f77b4;stroke:#1f77b4;" x="136.9" xlink:href="#m115024b878" y="183.742678"/>
     <use style="fill:#1f77b4;stroke:#1f77b4;" x="138.102424" xlink:href="#m115024b878" y="213.019543"/>
     <use style="fill:#1f77b4;stroke:#1f77b4;" x="139.304848" xlink:href="#m115024b878" y="203.295793"/>
     <use style="fill:#1f77b4;stroke:#1f77b4;" x="140.507273" xlink:href="#m115024b878" y="187.803702"/>
     <use style="fill:#1f77b4;stroke:#1f77b4;" x="141.709697" xlink:href="#m115024b878" y="185.24098"/>
     <use style="fill:#1f77b4;stroke:#1f77b4;" x="142.912121" xlink:href="#m115024b878" y="177.323759"/>
     <use style="fill:#1f77b4;stroke:#1f77b4;" x="144.114545" xlink:href="#m115024b878" y="177.301949"/>
     <use style="fill:#1f77b4;stroke:#1f77b4;" x="145.31697" xlink:href="#m115024b878" y="192.393648"/>
     <use style="fill:#1f77b4;stroke:#1f77b4;" x="146.519394" xlink:href="#m115024b878" y="227.498232"/>
     <use style="fill:#1f77b4;stroke:#1f77b4;" x="147.721818" xlink:href="#m115024b878" y="191.813128"/>
     <use style="fill:#1f77b4;stroke:#1f77b4;" x="148.924242" xlink:href="#m115024b878" y="167.815799"/>
     <use style="fill:#1f77b4;stroke:#1f77b4;" x="150.126667" xlink:href="#m115024b878" y="174.608482"/>
     <use style="fill:#1f77b4;stroke:#1f77b4;" x="151.329091" xlink:href="#m115024b878" y="184.175633"/>
     <use style="fill:#1f77b4;stroke:#1f77b4;" x="152.531515" xlink:href="#m115024b878" y="189.362758"/>
     <use style="fill:#1f77b4;stroke:#1f77b4;" x="153.733939" xlink:href="#m115024b878" y="198.185976"/>
     <use style="fill:#1f77b4;stroke:#1f77b4;" x="154.936364" xlink:href="#m115024b878" y="196.017786"/>
     <use style="fill:#1f77b4;stroke:#1f77b4;" x="156.138788" xlink:href="#m115024b878" y="192.380614"/>
     <use style="fill:#1f77b4;stroke:#1f77b4;" x="157.341212" xlink:href="#m115024b878" y="196.305218"/>
     <use style="fill:#1f77b4;stroke:#1f77b4;" x="158.543636" xlink:href="#m115024b878" y="175.425851"/>
     <use style="fill:#1f77b4;stroke:#1f77b4;" x="159.746061" xlink:href="#m115024b878" y="223.163496"/>
     <use style="fill:#1f77b4;stroke:#1f77b4;" x="160.948485" xlink:href="#m115024b878" y="195.642504"/>
     <use style="fill:#1f77b4;stroke:#1f77b4;" x="162.150909" xlink:href="#m115024b878" y="192.930685"/>
     <use style="fill:#1f77b4;stroke:#1f77b4;" x="163.353333" xlink:href="#m115024b878" y="206.03766"/>
     <use style="fill:#1f77b4;stroke:#1f77b4;" x="164.555758" xlink:href="#m115024b878" y="193.13714"/>
     <use style="fill:#1f77b4;stroke:#1f77b4;" x="165.758182" xlink:href="#m115024b878" y="192.546026"/>
     <use style="fill:#1f77b4;stroke:#1f77b4;" x="166.960606" xlink:href="#m115024b878" y="196.976718"/>
     <use style="fill:#1f77b4;stroke:#1f77b4;" x="168.16303" xlink:href="#m115024b878" y="185.947125"/>
     <use style="fill:#1f77b4;stroke:#1f77b4;" x="169.365455" xlink:href="#m115024b878" y="191.608875"/>
     <use style="fill:#1f77b4;stroke:#1f77b4;" x="170.567879" xlink:href="#m115024b878" y="193.062025"/>
     <use style="fill:#1f77b4;stroke:#1f77b4;" x="171.770303" xlink:href="#m115024b878" y="193.057763"/>
     <use style="fill:#1f77b4;stroke:#1f77b4;" x="172.972727" xlink:href="#m115024b878" y="195.584132"/>
     <use style="fill:#1f77b4;stroke:#1f77b4;" x="174.175152" xlink:href="#m115024b878" y="192.876971"/>
     <use style="fill:#1f77b4;stroke:#1f77b4;" x="175.377576" xlink:href="#m115024b878" y="183.166997"/>
     <use style="fill:#1f77b4;stroke:#1f77b4;" x="176.58" xlink:href="#m115024b878" y="213.565726"/>
     <use style="fill:#1f77b4;stroke:#1f77b4;" x="177.782424" xlink:href="#m115024b878" y="185.796418"/>
     <use style="fill:#1f77b4;stroke:#1f77b4;" x="178.984848" xlink:href="#m115024b878" y="177.221906"/>
     <use style="fill:#1f77b4;stroke:#1f77b4;" x="180.187273" xlink:href="#m115024b878" y="179.431289"/>
     <use style="fill:#1f77b4;stroke:#1f77b4;" x="181.389697" xlink:href="#m115024b878" y="209.681276"/>
     <use style="fill:#1f77b4;stroke:#1f77b4;" x="182.592121" xlink:href="#m115024b878" y="261.216"/>
     <use style="fill:#1f77b4;stroke:#1f77b4;" x="183.794545" xlink:href="#m115024b878" y="207.603547"/>
     <use style="fill:#1f77b4;stroke:#1f77b4;" x="184.99697" xlink:href="#m115024b878" y="201.440556"/>
     <use style="fill:#1f77b4;stroke:#1f77b4;" x="186.199394" xlink:href="#m115024b878" y="188.771761"/>
     <use style="fill:#1f77b4;stroke:#1f77b4;" x="187.401818" xlink:href="#m115024b878" y="186.267695"/>
     <use style="fill:#1f77b4;stroke:#1f77b4;" x="188.604242" xlink:href="#m115024b878" y="187.799567"/>
     <use style="fill:#1f77b4;stroke:#1f77b4;" x="189.806667" xlink:href="#m115024b878" y="200.508683"/>
     <use style="fill:#1f77b4;stroke:#1f77b4;" x="191.009091" xlink:href="#m115024b878" y="189.936612"/>
     <use style="fill:#1f77b4;stroke:#1f77b4;" x="192.211515" xlink:href="#m115024b878" y="209.921047"/>
     <use style="fill:#1f77b4;stroke:#1f77b4;" x="193.413939" xlink:href="#m115024b878" y="191.654433"/>
     <use style="fill:#1f77b4;stroke:#1f77b4;" x="194.616364" xlink:href="#m115024b878" y="203.703306"/>
     <use style="fill:#1f77b4;stroke:#1f77b4;" x="195.818788" xlink:href="#m115024b878" y="214.031255"/>
     <use style="fill:#1f77b4;stroke:#1f77b4;" x="197.021212" xlink:href="#m115024b878" y="196.386367"/>
     <use style="fill:#1f77b4;stroke:#1f77b4;" x="198.223636" xlink:href="#m115024b878" y="194.866381"/>
     <use style="fill:#1f77b4;stroke:#1f77b4;" x="199.426061" xlink:href="#m115024b878" y="202.258997"/>
     <use style="fill:#1f77b4;stroke:#1f77b4;" x="200.628485" xlink:href="#m115024b878" y="204.980784"/>
     <use style="fill:#1f77b4;stroke:#1f77b4;" x="201.830909" xlink:href="#m115024b878" y="204.697149"/>
     <use style="fill:#1f77b4;stroke:#1f77b4;" x="203.033333" xlink:href="#m115024b878" y="229.489852"/>
     <use style="fill:#1f77b4;stroke:#1f77b4;" x="204.235758" xlink:href="#m115024b878" y="203.811598"/>
     <use style="fill:#1f77b4;stroke:#1f77b4;" x="205.438182" xlink:href="#m115024b878" y="188.648896"/>
     <use style="fill:#1f77b4;stroke:#1f77b4;" x="206.640606" xlink:href="#m115024b878" y="199.103579"/>
     <use style="fill:#1f77b4;stroke:#1f77b4;" x="207.84303" xlink:href="#m115024b878" y="216.078499"/>
     <use style="fill:#1f77b4;stroke:#1f77b4;" x="209.045455" xlink:href="#m115024b878" y="177.149723"/>
     <use style="fill:#1f77b4;stroke:#1f77b4;" x="210.247879" xlink:href="#m115024b878" y="177.560083"/>
     <use style="fill:#1f77b4;stroke:#1f77b4;" x="211.450303" xlink:href="#m115024b878" y="181.846589"/>
     <use style="fill:#1f77b4;stroke:#1f77b4;" x="212.652727" xlink:href="#m115024b878" y="205.251689"/>
     <use style="fill:#1f77b4;stroke:#1f77b4;" x="213.855152" xlink:href="#m115024b878" y="189.545026"/>
     <use style="fill:#1f77b4;stroke:#1f77b4;" x="215.057576" xlink:href="#m115024b878" y="207.630792"/>
     <use style="fill:#1f77b4;stroke:#1f77b4;" x="216.26" xlink:href="#m115024b878" y="220.496773"/>
     <use style="fill:#1f77b4;stroke:#1f77b4;" x="217.462424" xlink:href="#m115024b878" y="197.367028"/>
     <use style="fill:#1f77b4;stroke:#1f77b4;" x="218.664848" xlink:href="#m115024b878" y="212.740065"/>
     <use style="fill:#1f77b4;stroke:#1f77b4;" x="219.867273" xlink:href="#m115024b878" y="218.568571"/>
     <use style="fill:#1f77b4;stroke:#1f77b4;" x="221.069697" xlink:href="#m115024b878" y="190.164014"/>
     <use style="fill:#1f77b4;stroke:#1f77b4;" x="222.272121" xlink:href="#m115024b878" y="187.502389"/>
     <use style="fill:#1f77b4;stroke:#1f77b4;" x="223.474545" xlink:href="#m115024b878" y="193.244092"/>
     <use style="fill:#1f77b4;stroke:#1f77b4;" x="224.67697" xlink:href="#m115024b878" y="171.694206"/>
     <use style="fill:#1f77b4;stroke:#1f77b4;" x="225.879394" xlink:href="#m115024b878" y="177.572565"/>
     <use style="fill:#1f77b4;stroke:#1f77b4;" x="227.081818" xlink:href="#m115024b878" y="186.062112"/>
     <use style="fill:#1f77b4;stroke:#1f77b4;" x="228.284242" xlink:href="#m115024b878" y="192.606727"/>
     <use style="fill:#1f77b4;stroke:#1f77b4;" x="229.486667" xlink:href="#m115024b878" y="235.865239"/>
     <use style="fill:#1f77b4;stroke:#1f77b4;" x="230.689091" xlink:href="#m115024b878" y="217.946048"/>
     <use style="fill:#1f77b4;stroke:#1f77b4;" x="231.891515" xlink:href="#m115024b878" y="226.804483"/>
     <use style="fill:#1f77b4;stroke:#1f77b4;" x="233.093939" xlink:href="#m115024b878" y="186.267615"/>
     <use style="fill:#1f77b4;stroke:#1f77b4;" x="234.296364" xlink:href="#m115024b878" y="189.291063"/>
     <use style="fill:#1f77b4;stroke:#1f77b4;" x="235.498788" xlink:href="#m115024b878" y="198.062653"/>
     <use style="fill:#1f77b4;stroke:#1f77b4;" x="236.701212" xlink:href="#m115024b878" y="190.898725"/>
     <use style="fill:#1f77b4;stroke:#1f77b4;" x="237.903636" xlink:href="#m115024b878" y="196.454176"/>
     <use style="fill:#1f77b4;stroke:#1f77b4;" x="239.106061" xlink:href="#m115024b878" y="183.475978"/>
     <use style="fill:#1f77b4;stroke:#1f77b4;" x="240.308485" xlink:href="#m115024b878" y="194.798805"/>
     <use style="fill:#1f77b4;stroke:#1f77b4;" x="241.510909" xlink:href="#m115024b878" y="193.667544"/>
     <use style="fill:#1f77b4;stroke:#1f77b4;" x="242.713333" xlink:href="#m115024b878" y="196.521851"/>
     <use style="fill:#1f77b4;stroke:#1f77b4;" x="243.915758" xlink:href="#m115024b878" y="185.700781"/>
     <use style="fill:#1f77b4;stroke:#1f77b4;" x="245.118182" xlink:href="#m115024b878" y="194.218062"/>
     <use style="fill:#1f77b4;stroke:#1f77b4;" x="246.320606" xlink:href="#m115024b878" y="197.187739"/>
     <use style="fill:#1f77b4;stroke:#1f77b4;" x="247.52303" xlink:href="#m115024b878" y="243.737435"/>
     <use style="fill:#1f77b4;stroke:#1f77b4;" x="248.725455" xlink:href="#m115024b878" y="186.920302"/>
     <use style="fill:#1f77b4;stroke:#1f77b4;" x="249.927879" xlink:href="#m115024b878" y="180.455834"/>
     <use style="fill:#1f77b4;stroke:#1f77b4;" x="251.130303" xlink:href="#m115024b878" y="203.300164"/>
     <use style="fill:#1f77b4;stroke:#1f77b4;" x="252.332727" xlink:href="#m115024b878" y="208.557378"/>
     <use style="fill:#1f77b4;stroke:#1f77b4;" x="253.535152" xlink:href="#m115024b878" y="191.008654"/>
     <use style="fill:#1f77b4;stroke:#1f77b4;" x="254.737576" xlink:href="#m115024b878" y="200.44384"/>
     <use style="fill:#1f77b4;stroke:#1f77b4;" x="255.94" xlink:href="#m115024b878" y="171.929455"/>
     <use style="fill:#1f77b4;stroke:#1f77b4;" x="257.142424" xlink:href="#m115024b878" y="178.065455"/>
     <use style="fill:#1f77b4;stroke:#1f77b4;" x="258.344848" xlink:href="#m115024b878" y="172.111215"/>
     <use style="fill:#1f77b4;stroke:#1f77b4;" x="259.547273" xlink:href="#m115024b878" y="190.562024"/>
     <use style="fill:#1f77b4;stroke:#1f77b4;" x="260.749697" xlink:href="#m115024b878" y="181.979827"/>
     <use style="fill:#1f77b4;stroke:#1f77b4;" x="261.952121" xlink:href="#m115024b878" y="199.540918"/>
     <use style="fill:#1f77b4;stroke:#1f77b4;" x="263.154545" xlink:href="#m115024b878" y="196.218475"/>
     <use style="fill:#1f77b4;stroke:#1f77b4;" x="264.35697" xlink:href="#m115024b878" y="203.05436"/>
     <use style="fill:#1f77b4;stroke:#1f77b4;" x="265.559394" xlink:href="#m115024b878" y="207.650879"/>
     <use style="fill:#1f77b4;stroke:#1f77b4;" x="266.761818" xlink:href="#m115024b878" y="192.274712"/>
     <use style="fill:#1f77b4;stroke:#1f77b4;" x="267.964242" xlink:href="#m115024b878" y="220.218939"/>
     <use style="fill:#1f77b4;stroke:#1f77b4;" x="269.166667" xlink:href="#m115024b878" y="194.638132"/>
     <use style="fill:#1f77b4;stroke:#1f77b4;" x="270.369091" xlink:href="#m115024b878" y="199.528718"/>
     <use style="fill:#1f77b4;stroke:#1f77b4;" x="271.571515" xlink:href="#m115024b878" y="189.025829"/>
     <use style="fill:#1f77b4;stroke:#1f77b4;" x="272.773939" xlink:href="#m115024b878" y="190.691429"/>
     <use style="fill:#1f77b4;stroke:#1f77b4;" x="273.976364" xlink:href="#m115024b878" y="201.290175"/>
     <use style="fill:#1f77b4;stroke:#1f77b4;" x="275.178788" xlink:href="#m115024b878" y="197.150267"/>
     <use style="fill:#1f77b4;stroke:#1f77b4;" x="276.381212" xlink:href="#m115024b878" y="189.909171"/>
     <use style="fill:#1f77b4;stroke:#1f77b4;" x="277.583636" xlink:href="#m115024b878" y="203.462346"/>
     <use style="fill:#1f77b4;stroke:#1f77b4;" x="278.786061" xlink:href="#m115024b878" y="195.601678"/>
     <use style="fill:#1f77b4;stroke:#1f77b4;" x="279.988485" xlink:href="#m115024b878" y="182.245321"/>
     <use style="fill:#1f77b4;stroke:#1f77b4;" x="281.190909" xlink:href="#m115024b878" y="183.21622"/>
     <use style="fill:#1f77b4;stroke:#1f77b4;" x="282.393333" xlink:href="#m115024b878" y="215.308658"/>
     <use style="fill:#1f77b4;stroke:#1f77b4;" x="283.595758" xlink:href="#m115024b878" y="180.103063"/>
     <use style="fill:#1f77b4;stroke:#1f77b4;" x="284.798182" xlink:href="#m115024b878" y="174.973757"/>
     <use style="fill:#1f77b4;stroke:#1f77b4;" x="286.000606" xlink:href="#m115024b878" y="167.824899"/>
     <use style="fill:#1f77b4;stroke:#1f77b4;" x="287.20303" xlink:href="#m115024b878" y="176.238969"/>
     <use style="fill:#1f77b4;stroke:#1f77b4;" x="288.405455" xlink:href="#m115024b878" y="179.111417"/>
     <use style="fill:#1f77b4;stroke:#1f77b4;" x="289.607879" xlink:href="#m115024b878" y="201.646301"/>
     <use style="fill:#1f77b4;stroke:#1f77b4;" x="290.810303" xlink:href="#m115024b878" y="197.764542"/>
     <use style="fill:#1f77b4;stroke:#1f77b4;" x="292.012727" xlink:href="#m115024b878" y="204.761195"/>
     <use style="fill:#1f77b4;stroke:#1f77b4;" x="293.215152" xlink:href="#m115024b878" y="203.158754"/>
     <use style="fill:#1f77b4;stroke:#1f77b4;" x="294.417576" xlink:href="#m115024b878" y="178.751021"/>
     <use style="fill:#1f77b4;stroke:#1f77b4;" x="295.62" xlink:href="#m115024b878" y="187.729813"/>
     <use style="fill:#1f77b4;stroke:#1f77b4;" x="296.822424" xlink:href="#m115024b878" y="190.614835"/>
     <use style="fill:#1f77b4;stroke:#1f77b4;" x="298.024848" xlink:href="#m115024b878" y="189.31646"/>
     <use style="fill:#1f77b4;stroke:#1f77b4;" x="299.227273" xlink:href="#m115024b878" y="193.182377"/>
     <use style="fill:#1f77b4;stroke:#1f77b4;" x="300.429697" xlink:href="#m115024b878" y="190.07852"/>
     <use style="fill:#1f77b4;stroke:#1f77b4;" x="301.632121" xlink:href="#m115024b878" y="195.764771"/>
     <use style="fill:#1f77b4;stroke:#1f77b4;" x="302.834545" xlink:href="#m115024b878" y="195.942268"/>
     <use style="fill:#1f77b4;stroke:#1f77b4;" x="304.03697" xlink:href="#m115024b878" y="205.941972"/>
     <use style="fill:#1f77b4;stroke:#1f77b4;" x="305.239394" xlink:href="#m115024b878" y="189.273483"/>
     <use style="fill:#1f77b4;stroke:#1f77b4;" x="306.441818" xlink:href="#m115024b878" y="220.619346"/>
     <use style="fill:#1f77b4;stroke:#1f77b4;" x="307.644242" xlink:href="#m115024b878" y="186.583294"/>
     <use style="fill:#1f77b4;stroke:#1f77b4;" x="308.846667" xlink:href="#m115024b878" y="181.766271"/>
     <use style="fill:#1f77b4;stroke:#1f77b4;" x="310.049091" xlink:href="#m115024b878" y="179.419411"/>
     <use style="fill:#1f77b4;stroke:#1f77b4;" x="311.251515" xlink:href="#m115024b878" y="175.215826"/>
     <use style="fill:#1f77b4;stroke:#1f77b4;" x="312.453939" xlink:href="#m115024b878" y="176.932046"/>
     <use style="fill:#1f77b4;stroke:#1f77b4;" x="313.656364" xlink:href="#m115024b878" y="187.937406"/>
     <use style="fill:#1f77b4;stroke:#1f77b4;" x="314.858788" xlink:href="#m115024b878" y="192.728924"/>
     <use style="fill:#1f77b4;stroke:#1f77b4;" x="316.061212" xlink:href="#m115024b878" y="204.454009"/>
     <use style="fill:#1f77b4;stroke:#1f77b4;" x="317.263636" xlink:href="#m115024b878" y="203.959915"/>
     <use style="fill:#1f77b4;stroke:#1f77b4;" x="318.466061" xlink:href="#m115024b878" y="189.551291"/>
     <use style="fill:#1f77b4;stroke:#1f77b4;" x="319.668485" xlink:href="#m115024b878" y="190.602497"/>
     <use style="fill:#1f77b4;stroke:#1f77b4;" x="320.870909" xlink:href="#m115024b878" y="201.837584"/>
     <use style="fill:#1f77b4;stroke:#1f77b4;" x="322.073333" xlink:href="#m115024b878" y="189.272878"/>
     <use style="fill:#1f77b4;stroke:#1f77b4;" x="323.275758" xlink:href="#m115024b878" y="184.871451"/>
     <use style="fill:#1f77b4;stroke:#1f77b4;" x="324.478182" xlink:href="#m115024b878" y="184.181982"/>
     <use style="fill:#1f77b4;stroke:#1f77b4;" x="325.680606" xlink:href="#m115024b878" y="183.793248"/>
     <use style="fill:#1f77b4;stroke:#1f77b4;" x="326.88303" xlink:href="#m115024b878" y="192.630841"/>
     <use style="fill:#1f77b4;stroke:#1f77b4;" x="328.085455" xlink:href="#m115024b878" y="258.579903"/>
     <use style="fill:#1f77b4;stroke:#1f77b4;" x="329.287879" xlink:href="#m115024b878" y="189.48507"/>
     <use style="fill:#1f77b4;stroke:#1f77b4;" x="330.490303" xlink:href="#m115024b878" y="174.903409"/>
     <use style="fill:#1f77b4;stroke:#1f77b4;" x="331.692727" xlink:href="#m115024b878" y="184.670939"/>
     <use style="fill:#1f77b4;stroke:#1f77b4;" x="332.895152" xlink:href="#m115024b878" y="191.46695"/>
     <use style="fill:#1f77b4;stroke:#1f77b4;" x="334.097576" xlink:href="#m115024b878" y="181.586181"/>
     <use style="fill:#1f77b4;stroke:#1f77b4;" x="335.3" xlink:href="#m115024b878" y="208.003242"/>
     <use style="fill:#1f77b4;stroke:#1f77b4;" x="336.502424" xlink:href="#m115024b878" y="178.603547"/>
     <use style="fill:#1f77b4;stroke:#1f77b4;" x="337.704848" xlink:href="#m115024b878" y="177.955576"/>
     <use style="fill:#1f77b4;stroke:#1f77b4;" x="338.907273" xlink:href="#m115024b878" y="190.075914"/>
     <use style="fill:#1f77b4;stroke:#1f77b4;" x="340.109697" xlink:href="#m115024b878" y="200.003565"/>
     <use style="fill:#1f77b4;stroke:#1f77b4;" x="341.312121" xlink:href="#m115024b878" y="217.63015"/>
     <use style="fill:#1f77b4;stroke:#1f77b4;" x="342.514545" xlink:href="#m115024b878" y="197.436115"/>
     <use style="fill:#1f77b4;stroke:#1f77b4;" x="343.71697" xlink:href="#m115024b878" y="194.862582"/>
     <use style="fill:#1f77b4;stroke:#1f77b4;" x="344.919394" xlink:href="#m115024b878" y="193.60216"/>
     <use style="fill:#1f77b4;stroke:#1f77b4;" x="346.121818" xlink:href="#m115024b878" y="212.318785"/>
     <use style="fill:#1f77b4;stroke:#1f77b4;" x="347.324242" xlink:href="#m115024b878" y="200.463249"/>
     <use style="fill:#1f77b4;stroke:#1f77b4;" x="348.526667" xlink:href="#m115024b878" y="194.083375"/>
     <use style="fill:#1f77b4;stroke:#1f77b4;" x="349.729091" xlink:href="#m115024b878" y="185.442042"/>
     <use style="fill:#1f77b4;stroke:#1f77b4;" x="350.931515" xlink:href="#m115024b878" y="232.724623"/>
     <use style="fill:#1f77b4;stroke:#1f77b4;" x="352.133939" xlink:href="#m115024b878" y="213.006129"/>
     <use style="fill:#1f77b4;stroke:#1f77b4;" x="353.336364" xlink:href="#m115024b878" y="189.658371"/>
     <use style="fill:#1f77b4;stroke:#1f77b4;" x="354.538788" xlink:href="#m115024b878" y="199.715718"/>
     <use style="fill:#1f77b4;stroke:#1f77b4;" x="355.741212" xlink:href="#m115024b878" y="209.188807"/>
     <use style="fill:#1f77b4;stroke:#1f77b4;" x="356.943636" xlink:href="#m115024b878" y="195.385096"/>
     <use style="fill:#1f77b4;stroke:#1f77b4;" x="358.146061" xlink:href="#m115024b878" y="209.227587"/>
     <use style="fill:#1f77b4;stroke:#1f77b4;" x="359.348485" xlink:href="#m115024b878" y="197.278867"/>
     <use style="fill:#1f77b4;stroke:#1f77b4;" x="360.550909" xlink:href="#m115024b878" y="180.180382"/>
     <use style="fill:#1f77b4;stroke:#1f77b4;" x="361.753333" xlink:href="#m115024b878" y="191.660851"/>
     <use style="fill:#1f77b4;stroke:#1f77b4;" x="362.955758" xlink:href="#m115024b878" y="198.933131"/>
     <use style="fill:#1f77b4;stroke:#1f77b4;" x="364.158182" xlink:href="#m115024b878" y="190.214044"/>
     <use style="fill:#1f77b4;stroke:#1f77b4;" x="365.360606" xlink:href="#m115024b878" y="184.281784"/>
     <use style="fill:#1f77b4;stroke:#1f77b4;" x="366.56303" xlink:href="#m115024b878" y="167.514953"/>
     <use style="fill:#1f77b4;stroke:#1f77b4;" x="367.765455" xlink:href="#m115024b878" y="178.300376"/>
     <use style="fill:#1f77b4;stroke:#1f77b4;" x="368.967879" xlink:href="#m115024b878" y="173.355463"/>
     <use style="fill:#1f77b4;stroke:#1f77b4;" x="370.170303" xlink:href="#m115024b878" y="175.931947"/>
     <use style="fill:#1f77b4;stroke:#1f77b4;" x="371.372727" xlink:href="#m115024b878" y="178.104433"/>
     <use style="fill:#1f77b4;stroke:#1f77b4;" x="372.575152" xlink:href="#m115024b878" y="186.343691"/>
     <use style="fill:#1f77b4;stroke:#1f77b4;" x="373.777576" xlink:href="#m115024b878" y="195.435173"/>
     <use style="fill:#1f77b4;stroke:#1f77b4;" x="374.98" xlink:href="#m115024b878" y="193.213602"/>
     <use style="fill:#1f77b4;stroke:#1f77b4;" x="376.182424" xlink:href="#m115024b878" y="190.632069"/>
     <use style="fill:#1f77b4;stroke:#1f77b4;" x="377.010384" xlink:href="#m115024b878" y="22383.514"/>
    </g>
   </g>
   <g id="line2d_12">
    <path clip-path="url(#p9ae42999ab)" d="M 53.932727 19.296 
L 55.135152 31.845775 
L 56.337576 44.015641 
L 57.54 58.438691 
L 58.742424 71.488611 
L 59.944848 85.237771 
L 61.147273 98.636512 
L 62.349697 112.18157 
L 63.552121 125.433674 
L 64.754545 139.052249 
L 65.95697 151.851104 
L 67.159394 165.283803 
" style="fill:none;stroke:#2ca02c;stroke-dasharray:1.5,2.475;stroke-dashoffset:0;stroke-width:1.5;"/>
    <defs>
     <path d="M -3 3 
L 3 -3 
M -3 -3 
L 3 3 
" id="mb36301f153" style="stroke:#2ca02c;"/>
    </defs>
    <g clip-path="url(#p9ae42999ab)">
     <use style="fill:#2ca02c;stroke:#2ca02c;" x="53.932727" xlink:href="#mb36301f153" y="19.296"/>
     <use style="fill:#2ca02c;stroke:#2ca02c;" x="55.135152" xlink:href="#mb36301f153" y="31.845775"/>
     <use style="fill:#2ca02c;stroke:#2ca02c;" x="56.337576" xlink:href="#mb36301f153" y="44.015641"/>
     <use style="fill:#2ca02c;stroke:#2ca02c;" x="57.54" xlink:href="#mb36301f153" y="58.438691"/>
     <use style="fill:#2ca02c;stroke:#2ca02c;" x="58.742424" xlink:href="#mb36301f153" y="71.488611"/>
     <use style="fill:#2ca02c;stroke:#2ca02c;" x="59.944848" xlink:href="#mb36301f153" y="85.237771"/>
     <use style="fill:#2ca02c;stroke:#2ca02c;" x="61.147273" xlink:href="#mb36301f153" y="98.636512"/>
     <use style="fill:#2ca02c;stroke:#2ca02c;" x="62.349697" xlink:href="#mb36301f153" y="112.18157"/>
     <use style="fill:#2ca02c;stroke:#2ca02c;" x="63.552121" xlink:href="#mb36301f153" y="125.433674"/>
     <use style="fill:#2ca02c;stroke:#2ca02c;" x="64.754545" xlink:href="#mb36301f153" y="139.052249"/>
     <use style="fill:#2ca02c;stroke:#2ca02c;" x="65.95697" xlink:href="#mb36301f153" y="151.851104"/>
     <use style="fill:#2ca02c;stroke:#2ca02c;" x="67.159394" xlink:href="#mb36301f153" y="165.283803"/>
    </g>
   </g>
   <g id="line2d_13">
    <path clip-path="url(#p9ae42999ab)" d="M 55.135152 86.940308 
L 75.375565 311.86825 
L 75.375565 311.86825 
" style="fill:none;stroke:#000000;stroke-dasharray:5.55,2.4;stroke-dashoffset:0;stroke-width:1.5;"/>
   </g>
   <g id="patch_3">
    <path d="M 37.7 273.312 
L 37.7 7.2 
" style="fill:none;stroke:#000000;stroke-linecap:square;stroke-linejoin:miter;stroke-width:0.8;"/>
   </g>
   <g id="patch_4">
    <path d="M 394.82 273.312 
L 394.82 7.2 
" style="fill:none;stroke:#000000;stroke-linecap:square;stroke-linejoin:miter;stroke-width:0.8;"/>
   </g>
   <g id="patch_5">
    <path d="M 37.7 273.312 
L 394.82 273.312 
" style="fill:none;stroke:#000000;stroke-linecap:square;stroke-linejoin:miter;stroke-width:0.8;"/>
   </g>
   <g id="patch_6">
    <path d="M 37.7 7.2 
L 394.82 7.2 
" style="fill:none;stroke:#000000;stroke-linecap:square;stroke-linejoin:miter;stroke-width:0.8;"/>
   </g>
   <g id="legend_1">
    <g id="patch_7">
     <path d="M 286.72 59.25625 
L 387.82 59.25625 
Q 389.82 59.25625 389.82 57.25625 
L 389.82 14.2 
Q 389.82 12.2 387.82 12.2 
L 286.72 12.2 
Q 284.72 12.2 284.72 14.2 
L 284.72 57.25625 
Q 284.72 59.25625 286.72 59.25625 
z
" style="fill:#ffffff;opacity:0.8;"/>
    </g>
    <g id="line2d_14">
     <path d="M 288.72 20.298437 
L 308.72 20.298437 
" style="fill:none;stroke:#1f77b4;stroke-linecap:square;stroke-width:1.5;"/>
    </g>
    <g id="line2d_15">
     <g>
      <use style="fill:#1f77b4;stroke:#1f77b4;" x="298.72" xlink:href="#m115024b878" y="20.298437"/>
     </g>
    </g>
    <g id="text_12">
     <!-- APD$_n$ - APD$_\infty$ -->
     <defs>
      <path d="M 34.1875 63.1875 
L 20.796875 26.90625 
L 47.609375 26.90625 
z
M 28.609375 72.90625 
L 39.796875 72.90625 
L 67.578125 0 
L 57.328125 0 
L 50.6875 18.703125 
L 17.828125 18.703125 
L 11.1875 0 
L 0.78125 0 
z
" id="DejaVuSans-65"/>
      <path d="M 19.671875 64.796875 
L 19.671875 37.40625 
L 32.078125 37.40625 
Q 38.96875 37.40625 42.71875 40.96875 
Q 46.484375 44.53125 46.484375 51.125 
Q 46.484375 57.671875 42.71875 61.234375 
Q 38.96875 64.796875 32.078125 64.796875 
z
M 9.8125 72.90625 
L 32.078125 72.90625 
Q 44.34375 72.90625 50.609375 67.359375 
Q 56.890625 61.8125 56.890625 51.125 
Q 56.890625 40.328125 50.609375 34.8125 
Q 44.34375 29.296875 32.078125 29.296875 
L 19.671875 29.296875 
L 19.671875 0 
L 9.8125 0 
z
" id="DejaVuSans-80"/>
      <path d="M 19.671875 64.796875 
L 19.671875 8.109375 
L 31.59375 8.109375 
Q 46.6875 8.109375 53.6875 14.9375 
Q 60.6875 21.78125 60.6875 36.53125 
Q 60.6875 51.171875 53.6875 57.984375 
Q 46.6875 64.796875 31.59375 64.796875 
z
M 9.8125 72.90625 
L 30.078125 72.90625 
Q 51.265625 72.90625 61.171875 64.09375 
Q 71.09375 55.28125 71.09375 36.53125 
Q 71.09375 17.671875 61.125 8.828125 
Q 51.171875 0 30.078125 0 
L 9.8125 0 
z
" id="DejaVuSans-68"/>
      <path d="M 55.71875 33.015625 
L 49.3125 0 
L 40.28125 0 
L 46.6875 32.671875 
Q 47.125 34.96875 47.359375 36.71875 
Q 47.609375 38.484375 47.609375 39.5 
Q 47.609375 43.609375 45.015625 45.890625 
Q 42.4375 48.1875 37.796875 48.1875 
Q 30.5625 48.1875 25.34375 43.375 
Q 20.125 38.578125 18.5 30.328125 
L 12.5 0 
L 3.515625 0 
L 14.109375 54.6875 
L 23.09375 54.6875 
L 21.296875 46.09375 
Q 25.046875 50.828125 30.3125 53.40625 
Q 35.59375 56 41.40625 56 
Q 48.640625 56 52.609375 52.09375 
Q 56.59375 48.1875 56.59375 41.109375 
Q 56.59375 39.359375 56.375 37.359375 
Q 56.15625 35.359375 55.71875 33.015625 
z
" id="DejaVuSans-Oblique-110"/>
      <path id="DejaVuSans-32"/>
      <path d="M 4.890625 31.390625 
L 31.203125 31.390625 
L 31.203125 23.390625 
L 4.890625 23.390625 
z
" id="DejaVuSans-45"/>
      <path d="M 45.5625 17.046875 
Q 44.046875 18.796875 41.65625 22.90625 
Q 38.375 17.046875 35.5 14.453125 
Q 31.890625 11.328125 26.265625 11.328125 
Q 19.671875 11.328125 15.328125 16.265625 
Q 10.75 21.4375 10.75 29.984375 
Q 10.75 38.1875 15.328125 43.75 
Q 19.4375 48.6875 26.375 48.6875 
Q 29.9375 48.6875 32.5625 47.21875 
Q 35.640625 45.609375 37.75 42.828125 
Q 39.703125 40.328125 41.65625 36.96875 
Q 44.921875 42.828125 47.796875 45.40625 
Q 51.421875 48.53125 57.03125 48.53125 
Q 63.625 48.53125 67.96875 43.609375 
Q 72.5625 38.421875 72.5625 29.890625 
Q 72.5625 21.6875 67.96875 16.109375 
Q 63.875 11.1875 56.9375 11.1875 
Q 53.375 11.1875 50.734375 12.640625 
Q 48.09375 13.96875 45.5625 17.046875 
z
M 25.734375 17.71875 
Q 33.796875 17.71875 38.625 29.4375 
Q 32.421875 42.234375 25.734375 42.234375 
Q 20.84375 42.234375 18.359375 38.71875 
Q 15.671875 34.96875 15.671875 29.984375 
Q 15.671875 24.515625 18.359375 21.140625 
Q 21.09375 17.71875 25.734375 17.71875 
z
M 57.5625 42.140625 
Q 50.296875 42.140625 44.671875 30.421875 
Q 50.828125 17.625 57.5625 17.625 
Q 62.453125 17.625 64.9375 21.140625 
Q 67.625 24.90625 67.625 29.890625 
Q 67.625 35.359375 64.9375 38.71875 
Q 62.203125 42.140625 57.5625 42.140625 
z
" id="DejaVuSans-8734"/>
     </defs>
     <g transform="translate(316.72 23.798437)scale(0.1 -0.1)">
      <use transform="translate(0 0.09375)" xlink:href="#DejaVuSans-65"/>
      <use transform="translate(68.408203 0.09375)" xlink:href="#DejaVuSans-80"/>
      <use transform="translate(128.710938 0.09375)" xlink:href="#DejaVuSans-68"/>
      <use transform="translate(206.669922 -16.3125)scale(0.7)" xlink:href="#DejaVuSans-Oblique-110"/>
      <use transform="translate(253.769531 0.09375)" xlink:href="#DejaVuSans-32"/>
      <use transform="translate(285.556641 0.09375)" xlink:href="#DejaVuSans-45"/>
      <use transform="translate(321.640625 0.09375)" xlink:href="#DejaVuSans-32"/>
      <use transform="translate(353.427734 0.09375)" xlink:href="#DejaVuSans-65"/>
      <use transform="translate(421.835938 0.09375)" xlink:href="#DejaVuSans-80"/>
      <use transform="translate(482.138672 0.09375)" xlink:href="#DejaVuSans-68"/>
      <use transform="translate(560.097656 -16.3125)scale(0.7)" xlink:href="#DejaVuSans-8734"/>
     </g>
    </g>
    <g id="line2d_16">
     <path d="M 288.72 34.976562 
L 308.72 34.976562 
" style="fill:none;stroke:#2ca02c;stroke-dasharray:1.5,2.475;stroke-dashoffset:0;stroke-width:1.5;"/>
    </g>
    <g id="line2d_17">
     <g>
      <use style="fill:#2ca02c;stroke:#2ca02c;" x="298.72" xlink:href="#mb36301f153" y="34.976562"/>
     </g>
    </g>
    <g id="text_13">
     <!-- linear region -->
     <defs>
      <path d="M 9.421875 75.984375 
L 18.40625 75.984375 
L 18.40625 0 
L 9.421875 0 
z
" id="DejaVuSans-108"/>
      <path d="M 9.421875 54.6875 
L 18.40625 54.6875 
L 18.40625 0 
L 9.421875 0 
z
M 9.421875 75.984375 
L 18.40625 75.984375 
L 18.40625 64.59375 
L 9.421875 64.59375 
z
" id="DejaVuSans-105"/>
      <path d="M 54.890625 33.015625 
L 54.890625 0 
L 45.90625 0 
L 45.90625 32.71875 
Q 45.90625 40.484375 42.875 44.328125 
Q 39.84375 48.1875 33.796875 48.1875 
Q 26.515625 48.1875 22.3125 43.546875 
Q 18.109375 38.921875 18.109375 30.90625 
L 18.109375 0 
L 9.078125 0 
L 9.078125 54.6875 
L 18.109375 54.6875 
L 18.109375 46.1875 
Q 21.34375 51.125 25.703125 53.5625 
Q 30.078125 56 35.796875 56 
Q 45.21875 56 50.046875 50.171875 
Q 54.890625 44.34375 54.890625 33.015625 
z
" id="DejaVuSans-110"/>
      <path d="M 56.203125 29.59375 
L 56.203125 25.203125 
L 14.890625 25.203125 
Q 15.484375 15.921875 20.484375 11.0625 
Q 25.484375 6.203125 34.421875 6.203125 
Q 39.59375 6.203125 44.453125 7.46875 
Q 49.3125 8.734375 54.109375 11.28125 
L 54.109375 2.78125 
Q 49.265625 0.734375 44.1875 -0.34375 
Q 39.109375 -1.421875 33.890625 -1.421875 
Q 20.796875 -1.421875 13.15625 6.1875 
Q 5.515625 13.8125 5.515625 26.8125 
Q 5.515625 40.234375 12.765625 48.109375 
Q 20.015625 56 32.328125 56 
Q 43.359375 56 49.78125 48.890625 
Q 56.203125 41.796875 56.203125 29.59375 
z
M 47.21875 32.234375 
Q 47.125 39.59375 43.09375 43.984375 
Q 39.0625 48.390625 32.421875 48.390625 
Q 24.90625 48.390625 20.390625 44.140625 
Q 15.875 39.890625 15.1875 32.171875 
z
" id="DejaVuSans-101"/>
      <path d="M 34.28125 27.484375 
Q 23.390625 27.484375 19.1875 25 
Q 14.984375 22.515625 14.984375 16.5 
Q 14.984375 11.71875 18.140625 8.90625 
Q 21.296875 6.109375 26.703125 6.109375 
Q 34.1875 6.109375 38.703125 11.40625 
Q 43.21875 16.703125 43.21875 25.484375 
L 43.21875 27.484375 
z
M 52.203125 31.203125 
L 52.203125 0 
L 43.21875 0 
L 43.21875 8.296875 
Q 40.140625 3.328125 35.546875 0.953125 
Q 30.953125 -1.421875 24.3125 -1.421875 
Q 15.921875 -1.421875 10.953125 3.296875 
Q 6 8.015625 6 15.921875 
Q 6 25.140625 12.171875 29.828125 
Q 18.359375 34.515625 30.609375 34.515625 
L 43.21875 34.515625 
L 43.21875 35.40625 
Q 43.21875 41.609375 39.140625 45 
Q 35.0625 48.390625 27.6875 48.390625 
Q 23 48.390625 18.546875 47.265625 
Q 14.109375 46.140625 10.015625 43.890625 
L 10.015625 52.203125 
Q 14.9375 54.109375 19.578125 55.046875 
Q 24.21875 56 28.609375 56 
Q 40.484375 56 46.34375 49.84375 
Q 52.203125 43.703125 52.203125 31.203125 
z
" id="DejaVuSans-97"/>
      <path d="M 41.109375 46.296875 
Q 39.59375 47.171875 37.8125 47.578125 
Q 36.03125 48 33.890625 48 
Q 26.265625 48 22.1875 43.046875 
Q 18.109375 38.09375 18.109375 28.8125 
L 18.109375 0 
L 9.078125 0 
L 9.078125 54.6875 
L 18.109375 54.6875 
L 18.109375 46.1875 
Q 20.953125 51.171875 25.484375 53.578125 
Q 30.03125 56 36.53125 56 
Q 37.453125 56 38.578125 55.875 
Q 39.703125 55.765625 41.0625 55.515625 
z
" id="DejaVuSans-114"/>
      <path d="M 45.40625 27.984375 
Q 45.40625 37.75 41.375 43.109375 
Q 37.359375 48.484375 30.078125 48.484375 
Q 22.859375 48.484375 18.828125 43.109375 
Q 14.796875 37.75 14.796875 27.984375 
Q 14.796875 18.265625 18.828125 12.890625 
Q 22.859375 7.515625 30.078125 7.515625 
Q 37.359375 7.515625 41.375 12.890625 
Q 45.40625 18.265625 45.40625 27.984375 
z
M 54.390625 6.78125 
Q 54.390625 -7.171875 48.1875 -13.984375 
Q 42 -20.796875 29.203125 -20.796875 
Q 24.46875 -20.796875 20.265625 -20.09375 
Q 16.0625 -19.390625 12.109375 -17.921875 
L 12.109375 -9.1875 
Q 16.0625 -11.328125 19.921875 -12.34375 
Q 23.78125 -13.375 27.78125 -13.375 
Q 36.625 -13.375 41.015625 -8.765625 
Q 45.40625 -4.15625 45.40625 5.171875 
L 45.40625 9.625 
Q 42.625 4.78125 38.28125 2.390625 
Q 33.9375 0 27.875 0 
Q 17.828125 0 11.671875 7.65625 
Q 5.515625 15.328125 5.515625 27.984375 
Q 5.515625 40.671875 11.671875 48.328125 
Q 17.828125 56 27.875 56 
Q 33.9375 56 38.28125 53.609375 
Q 42.625 51.21875 45.40625 46.390625 
L 45.40625 54.6875 
L 54.390625 54.6875 
z
" id="DejaVuSans-103"/>
      <path d="M 30.609375 48.390625 
Q 23.390625 48.390625 19.1875 42.75 
Q 14.984375 37.109375 14.984375 27.296875 
Q 14.984375 17.484375 19.15625 11.84375 
Q 23.34375 6.203125 30.609375 6.203125 
Q 37.796875 6.203125 41.984375 11.859375 
Q 46.1875 17.53125 46.1875 27.296875 
Q 46.1875 37.015625 41.984375 42.703125 
Q 37.796875 48.390625 30.609375 48.390625 
z
M 30.609375 56 
Q 42.328125 56 49.015625 48.375 
Q 55.71875 40.765625 55.71875 27.296875 
Q 55.71875 13.875 49.015625 6.21875 
Q 42.328125 -1.421875 30.609375 -1.421875 
Q 18.84375 -1.421875 12.171875 6.21875 
Q 5.515625 13.875 5.515625 27.296875 
Q 5.515625 40.765625 12.171875 48.375 
Q 18.84375 56 30.609375 56 
z
" id="DejaVuSans-111"/>
     </defs>
     <g transform="translate(316.72 38.476562)scale(0.1 -0.1)">
      <use xlink:href="#DejaVuSans-108"/>
      <use x="27.783203" xlink:href="#DejaVuSans-105"/>
      <use x="55.566406" xlink:href="#DejaVuSans-110"/>
      <use x="118.945312" xlink:href="#DejaVuSans-101"/>
      <use x="180.46875" xlink:href="#DejaVuSans-97"/>
      <use x="241.748047" xlink:href="#DejaVuSans-114"/>
      <use x="282.861328" xlink:href="#DejaVuSans-32"/>
      <use x="314.648438" xlink:href="#DejaVuSans-114"/>
      <use x="353.511719" xlink:href="#DejaVuSans-101"/>
      <use x="415.035156" xlink:href="#DejaVuSans-103"/>
      <use x="478.511719" xlink:href="#DejaVuSans-105"/>
      <use x="506.294922" xlink:href="#DejaVuSans-111"/>
      <use x="567.476562" xlink:href="#DejaVuSans-110"/>
     </g>
    </g>
    <g id="line2d_18">
     <path d="M 288.72 49.65625 
L 308.72 49.65625 
" style="fill:none;stroke:#000000;stroke-dasharray:5.55,2.4;stroke-dashoffset:0;stroke-width:1.5;"/>
    </g>
    <g id="line2d_19"/>
    <g id="text_14">
     <!-- $ \exp(-0.951 k)$ -->
     <defs>
      <path d="M 54.890625 54.6875 
L 35.109375 28.078125 
L 55.90625 0 
L 45.3125 0 
L 29.390625 21.484375 
L 13.484375 0 
L 2.875 0 
L 24.125 28.609375 
L 4.6875 54.6875 
L 15.28125 54.6875 
L 29.78125 35.203125 
L 44.28125 54.6875 
z
" id="DejaVuSans-120"/>
      <path d="M 18.109375 8.203125 
L 18.109375 -20.796875 
L 9.078125 -20.796875 
L 9.078125 54.6875 
L 18.109375 54.6875 
L 18.109375 46.390625 
Q 20.953125 51.265625 25.265625 53.625 
Q 29.59375 56 35.59375 56 
Q 45.5625 56 51.78125 48.09375 
Q 58.015625 40.1875 58.015625 27.296875 
Q 58.015625 14.40625 51.78125 6.484375 
Q 45.5625 -1.421875 35.59375 -1.421875 
Q 29.59375 -1.421875 25.265625 0.953125 
Q 20.953125 3.328125 18.109375 8.203125 
z
M 48.6875 27.296875 
Q 48.6875 37.203125 44.609375 42.84375 
Q 40.53125 48.484375 33.40625 48.484375 
Q 26.265625 48.484375 22.1875 42.84375 
Q 18.109375 37.203125 18.109375 27.296875 
Q 18.109375 17.390625 22.1875 11.75 
Q 26.265625 6.109375 33.40625 6.109375 
Q 40.53125 6.109375 44.609375 11.75 
Q 48.6875 17.390625 48.6875 27.296875 
z
" id="DejaVuSans-112"/>
      <path d="M 31 75.875 
Q 24.46875 64.65625 21.28125 53.65625 
Q 18.109375 42.671875 18.109375 31.390625 
Q 18.109375 20.125 21.3125 9.0625 
Q 24.515625 -2 31 -13.1875 
L 23.1875 -13.1875 
Q 15.875 -1.703125 12.234375 9.375 
Q 8.59375 20.453125 8.59375 31.390625 
Q 8.59375 42.28125 12.203125 53.3125 
Q 15.828125 64.359375 23.1875 75.875 
z
" id="DejaVuSans-40"/>
      <path d="M 10.6875 12.40625 
L 21 12.40625 
L 21 0 
L 10.6875 0 
z
" id="DejaVuSans-46"/>
      <path d="M 10.984375 1.515625 
L 10.984375 10.5 
Q 14.703125 8.734375 18.5 7.8125 
Q 22.3125 6.890625 25.984375 6.890625 
Q 35.75 6.890625 40.890625 13.453125 
Q 46.046875 20.015625 46.78125 33.40625 
Q 43.953125 29.203125 39.59375 26.953125 
Q 35.25 24.703125 29.984375 24.703125 
Q 19.046875 24.703125 12.671875 31.3125 
Q 6.296875 37.9375 6.296875 49.421875 
Q 6.296875 60.640625 12.9375 67.421875 
Q 19.578125 74.21875 30.609375 74.21875 
Q 43.265625 74.21875 49.921875 64.515625 
Q 56.59375 54.828125 56.59375 36.375 
Q 56.59375 19.140625 48.40625 8.859375 
Q 40.234375 -1.421875 26.421875 -1.421875 
Q 22.703125 -1.421875 18.890625 -0.6875 
Q 15.09375 0.046875 10.984375 1.515625 
z
M 30.609375 32.421875 
Q 37.25 32.421875 41.125 36.953125 
Q 45.015625 41.5 45.015625 49.421875 
Q 45.015625 57.28125 41.125 61.84375 
Q 37.25 66.40625 30.609375 66.40625 
Q 23.96875 66.40625 20.09375 61.84375 
Q 16.21875 57.28125 16.21875 49.421875 
Q 16.21875 41.5 20.09375 36.953125 
Q 23.96875 32.421875 30.609375 32.421875 
z
" id="DejaVuSans-57"/>
      <path d="M 8.015625 75.875 
L 15.828125 75.875 
Q 23.140625 64.359375 26.78125 53.3125 
Q 30.421875 42.28125 30.421875 31.390625 
Q 30.421875 20.453125 26.78125 9.375 
Q 23.140625 -1.703125 15.828125 -13.1875 
L 8.015625 -13.1875 
Q 14.5 -2 17.703125 9.0625 
Q 20.90625 20.125 20.90625 31.390625 
Q 20.90625 42.671875 17.703125 53.65625 
Q 14.5 64.65625 8.015625 75.875 
z
" id="DejaVuSans-41"/>
     </defs>
     <g transform="translate(316.72 53.15625)scale(0.1 -0.1)">
      <use transform="translate(0 0.015625)" xlink:href="#DejaVuSans-101"/>
      <use transform="translate(61.523438 0.015625)" xlink:href="#DejaVuSans-120"/>
      <use transform="translate(120.703125 0.015625)" xlink:href="#DejaVuSans-112"/>
      <use transform="translate(184.179688 0.015625)" xlink:href="#DejaVuSans-40"/>
      <use transform="translate(223.193359 0.015625)" xlink:href="#DejaVuSans-8722"/>
      <use transform="translate(306.982422 0.015625)" xlink:href="#DejaVuSans-48"/>
      <use transform="translate(370.605469 0.015625)" xlink:href="#DejaVuSans-46"/>
      <use transform="translate(402.392578 0.015625)" xlink:href="#DejaVuSans-57"/>
      <use transform="translate(466.015625 0.015625)" xlink:href="#DejaVuSans-53"/>
      <use transform="translate(529.638672 0.015625)" xlink:href="#DejaVuSans-49"/>
      <use transform="translate(593.261719 0.015625)" xlink:href="#DejaVuSans-Oblique-107"/>
      <use transform="translate(651.171875 0.015625)" xlink:href="#DejaVuSans-41"/>
     </g>
    </g>
   </g>
  </g>
 </g>
 <defs>
  <clipPath id="p9ae42999ab">
   <rect height="266.112" width="357.12" x="37.7" y="7.2"/>
  </clipPath>
 </defs>
</svg>
