<?xml version="1.0" encoding="utf-8" standalone="no"?>
<!DOCTYPE svg PUBLIC "-//W3C//DTD SVG 1.1//EN"
  "http://www.w3.org/Graphics/SVG/1.1/DTD/svg11.dtd">
<!-- Created with matplotlib (https://matplotlib.org/) -->
<svg height="310.86825pt" version="1.1" viewBox="0 0 396.12 310.86825" width="396.12pt" xmlns="http://www.w3.org/2000/svg" xmlns:xlink="http://www.w3.org/1999/xlink">
 <defs>
  <style type="text/css">
*{stroke-linecap:butt;stroke-linejoin:round;}
  </style>
 </defs>
 <g id="figure_1">
  <g id="patch_1">
   <path d="M 0 310.86825 
L 396.12 310.86825 
L 396.12 0 
L 0 0 
z
" style="fill:#ffffff;"/>
  </g>
  <g id="axes_1">
   <g id="patch_2">
    <path d="M 31.8 273.312 
L 388.92 273.312 
L 388.92 7.2 
L 31.8 7.2 
z
" style="fill:#ffffff;"/>
   </g>
   <g id="matplotlib.axis_1">
    <g id="xtick_1">
     <g id="line2d_1">
      <defs>
       <path d="M 0 0 
L 0 3.5 
" id="mc61ff26f94" style="stroke:#000000;stroke-width:0.8;"/>
      </defs>
      <g>
       <use style="stroke:#000000;stroke-width:0.8;" x="48.032727" xlink:href="#mc61ff26f94" y="273.312"/>
      </g>
     </g>
     <g id="text_1">
      <!-- 0 -->
      <defs>
       <path d="M 31.78125 66.40625 
Q 24.171875 66.40625 20.328125 58.90625 
Q 16.5 51.421875 16.5 36.375 
Q 16.5 21.390625 20.328125 13.890625 
Q 24.171875 6.390625 31.78125 6.390625 
Q 39.453125 6.390625 43.28125 13.890625 
Q 47.125 21.390625 47.125 36.375 
Q 47.125 51.421875 43.28125 58.90625 
Q 39.453125 66.40625 31.78125 66.40625 
z
M 31.78125 74.21875 
Q 44.046875 74.21875 50.515625 64.515625 
Q 56.984375 54.828125 56.984375 36.375 
Q 56.984375 17.96875 50.515625 8.265625 
Q 44.046875 -1.421875 31.78125 -1.421875 
Q 19.53125 -1.421875 13.0625 8.265625 
Q 6.59375 17.96875 6.59375 36.375 
Q 6.59375 54.828125 13.0625 64.515625 
Q 19.53125 74.21875 31.78125 74.21875 
z
" id="DejaVuSans-48"/>
      </defs>
      <g transform="translate(44.851477 287.910437)scale(0.1 -0.1)">
       <use xlink:href="#DejaVuSans-48"/>
      </g>
     </g>
    </g>
    <g id="xtick_2">
     <g id="line2d_2">
      <g>
       <use style="stroke:#000000;stroke-width:0.8;" x="122.15477" xlink:href="#mc61ff26f94" y="273.312"/>
      </g>
     </g>
     <g id="text_2">
      <!-- 100 -->
      <defs>
       <path d="M 12.40625 8.296875 
L 28.515625 8.296875 
L 28.515625 63.921875 
L 10.984375 60.40625 
L 10.984375 69.390625 
L 28.421875 72.90625 
L 38.28125 72.90625 
L 38.28125 8.296875 
L 54.390625 8.296875 
L 54.390625 0 
L 12.40625 0 
z
" id="DejaVuSans-49"/>
      </defs>
      <g transform="translate(112.61102 287.910437)scale(0.1 -0.1)">
       <use xlink:href="#DejaVuSans-49"/>
       <use x="63.623047" xlink:href="#DejaVuSans-48"/>
       <use x="127.246094" xlink:href="#DejaVuSans-48"/>
      </g>
     </g>
    </g>
    <g id="xtick_3">
     <g id="line2d_3">
      <g>
       <use style="stroke:#000000;stroke-width:0.8;" x="196.276812" xlink:href="#mc61ff26f94" y="273.312"/>
      </g>
     </g>
     <g id="text_3">
      <!-- 200 -->
      <defs>
       <path d="M 19.1875 8.296875 
L 53.609375 8.296875 
L 53.609375 0 
L 7.328125 0 
L 7.328125 8.296875 
Q 12.9375 14.109375 22.625 23.890625 
Q 32.328125 33.6875 34.8125 36.53125 
Q 39.546875 41.84375 41.421875 45.53125 
Q 43.3125 49.21875 43.3125 52.78125 
Q 43.3125 58.59375 39.234375 62.25 
Q 35.15625 65.921875 28.609375 65.921875 
Q 23.96875 65.921875 18.8125 64.3125 
Q 13.671875 62.703125 7.8125 59.421875 
L 7.8125 69.390625 
Q 13.765625 71.78125 18.9375 73 
Q 24.125 74.21875 28.421875 74.21875 
Q 39.75 74.21875 46.484375 68.546875 
Q 53.21875 62.890625 53.21875 53.421875 
Q 53.21875 48.921875 51.53125 44.890625 
Q 49.859375 40.875 45.40625 35.40625 
Q 44.1875 33.984375 37.640625 27.21875 
Q 31.109375 20.453125 19.1875 8.296875 
z
" id="DejaVuSans-50"/>
      </defs>
      <g transform="translate(186.733062 287.910437)scale(0.1 -0.1)">
       <use xlink:href="#DejaVuSans-50"/>
       <use x="63.623047" xlink:href="#DejaVuSans-48"/>
       <use x="127.246094" xlink:href="#DejaVuSans-48"/>
      </g>
     </g>
    </g>
    <g id="xtick_4">
     <g id="line2d_4">
      <g>
       <use style="stroke:#000000;stroke-width:0.8;" x="270.398854" xlink:href="#mc61ff26f94" y="273.312"/>
      </g>
     </g>
     <g id="text_4">
      <!-- 300 -->
      <defs>
       <path d="M 40.578125 39.3125 
Q 47.65625 37.796875 51.625 33 
Q 55.609375 28.21875 55.609375 21.1875 
Q 55.609375 10.40625 48.1875 4.484375 
Q 40.765625 -1.421875 27.09375 -1.421875 
Q 22.515625 -1.421875 17.65625 -0.515625 
Q 12.796875 0.390625 7.625 2.203125 
L 7.625 11.71875 
Q 11.71875 9.328125 16.59375 8.109375 
Q 21.484375 6.890625 26.8125 6.890625 
Q 36.078125 6.890625 40.9375 10.546875 
Q 45.796875 14.203125 45.796875 21.1875 
Q 45.796875 27.640625 41.28125 31.265625 
Q 36.765625 34.90625 28.71875 34.90625 
L 20.21875 34.90625 
L 20.21875 43.015625 
L 29.109375 43.015625 
Q 36.375 43.015625 40.234375 45.921875 
Q 44.09375 48.828125 44.09375 54.296875 
Q 44.09375 59.90625 40.109375 62.90625 
Q 36.140625 65.921875 28.71875 65.921875 
Q 24.65625 65.921875 20.015625 65.03125 
Q 15.375 64.15625 9.8125 62.3125 
L 9.8125 71.09375 
Q 15.4375 72.65625 20.34375 73.4375 
Q 25.25 74.21875 29.59375 74.21875 
Q 40.828125 74.21875 47.359375 69.109375 
Q 53.90625 64.015625 53.90625 55.328125 
Q 53.90625 49.265625 50.4375 45.09375 
Q 46.96875 40.921875 40.578125 39.3125 
z
" id="DejaVuSans-51"/>
      </defs>
      <g transform="translate(260.855104 287.910437)scale(0.1 -0.1)">
       <use xlink:href="#DejaVuSans-51"/>
       <use x="63.623047" xlink:href="#DejaVuSans-48"/>
       <use x="127.246094" xlink:href="#DejaVuSans-48"/>
      </g>
     </g>
    </g>
    <g id="xtick_5">
     <g id="line2d_5">
      <g>
       <use style="stroke:#000000;stroke-width:0.8;" x="344.520897" xlink:href="#mc61ff26f94" y="273.312"/>
      </g>
     </g>
     <g id="text_5">
      <!-- 400 -->
      <defs>
       <path d="M 37.796875 64.3125 
L 12.890625 25.390625 
L 37.796875 25.390625 
z
M 35.203125 72.90625 
L 47.609375 72.90625 
L 47.609375 25.390625 
L 58.015625 25.390625 
L 58.015625 17.1875 
L 47.609375 17.1875 
L 47.609375 0 
L 37.796875 0 
L 37.796875 17.1875 
L 4.890625 17.1875 
L 4.890625 26.703125 
z
" id="DejaVuSans-52"/>
      </defs>
      <g transform="translate(334.977147 287.910437)scale(0.1 -0.1)">
       <use xlink:href="#DejaVuSans-52"/>
       <use x="63.623047" xlink:href="#DejaVuSans-48"/>
       <use x="127.246094" xlink:href="#DejaVuSans-48"/>
      </g>
     </g>
    </g>
    <g id="text_6">
     <!-- $ k $ -->
     <defs>
      <path d="M 18.3125 75.984375 
L 27.296875 75.984375 
L 18.703125 31.6875 
L 49.515625 54.6875 
L 61.1875 54.6875 
L 26.8125 28.515625 
L 51.90625 0 
L 41.015625 0 
L 17.671875 26.703125 
L 12.5 0 
L 3.515625 0 
z
" id="DejaVuSans-Oblique-107"/>
     </defs>
     <g transform="translate(207.46 301.588562)scale(0.1 -0.1)">
      <use transform="translate(0 0.015625)" xlink:href="#DejaVuSans-Oblique-107"/>
     </g>
    </g>
   </g>
   <g id="matplotlib.axis_2">
    <g id="ytick_1">
     <g id="line2d_6">
      <defs>
       <path d="M 0 0 
L -3.5 0 
" id="mdbe259bd10" style="stroke:#000000;stroke-width:0.8;"/>
      </defs>
      <g>
       <use style="stroke:#000000;stroke-width:0.8;" x="31.8" xlink:href="#mdbe259bd10" y="164.117832"/>
      </g>
     </g>
     <g id="text_7">
      <!-- $\mathdefault{10^{1}}$ -->
      <g transform="translate(7.2 167.917051)scale(0.1 -0.1)">
       <use transform="translate(0 0.684375)" xlink:href="#DejaVuSans-49"/>
       <use transform="translate(63.623047 0.684375)" xlink:href="#DejaVuSans-48"/>
       <use transform="translate(128.203125 38.965625)scale(0.7)" xlink:href="#DejaVuSans-49"/>
      </g>
     </g>
    </g>
    <g id="ytick_2">
     <g id="line2d_7">
      <g>
       <use style="stroke:#000000;stroke-width:0.8;" x="31.8" xlink:href="#mdbe259bd10" y="40.843919"/>
      </g>
     </g>
     <g id="text_8">
      <!-- $\mathdefault{10^{2}}$ -->
      <g transform="translate(7.2 44.643138)scale(0.1 -0.1)">
       <use transform="translate(0 0.765625)" xlink:href="#DejaVuSans-49"/>
       <use transform="translate(63.623047 0.765625)" xlink:href="#DejaVuSans-48"/>
       <use transform="translate(128.203125 39.046875)scale(0.7)" xlink:href="#DejaVuSans-50"/>
      </g>
     </g>
    </g>
    <g id="ytick_3">
     <g id="line2d_8">
      <defs>
       <path d="M 0 0 
L -2 0 
" id="m0ad1de5223" style="stroke:#000000;stroke-width:0.6;"/>
      </defs>
      <g>
       <use style="stroke:#000000;stroke-width:0.6;" x="31.8" xlink:href="#m0ad1de5223" y="250.2826"/>
      </g>
     </g>
    </g>
    <g id="ytick_4">
     <g id="line2d_9">
      <g>
       <use style="stroke:#000000;stroke-width:0.6;" x="31.8" xlink:href="#m0ad1de5223" y="228.575141"/>
      </g>
     </g>
    </g>
    <g id="ytick_5">
     <g id="line2d_10">
      <g>
       <use style="stroke:#000000;stroke-width:0.6;" x="31.8" xlink:href="#m0ad1de5223" y="213.173454"/>
      </g>
     </g>
    </g>
    <g id="ytick_6">
     <g id="line2d_11">
      <g>
       <use style="stroke:#000000;stroke-width:0.6;" x="31.8" xlink:href="#m0ad1de5223" y="201.226978"/>
      </g>
     </g>
    </g>
    <g id="ytick_7">
     <g id="line2d_12">
      <g>
       <use style="stroke:#000000;stroke-width:0.6;" x="31.8" xlink:href="#m0ad1de5223" y="191.465996"/>
      </g>
     </g>
    </g>
    <g id="ytick_8">
     <g id="line2d_13">
      <g>
       <use style="stroke:#000000;stroke-width:0.6;" x="31.8" xlink:href="#m0ad1de5223" y="183.213203"/>
      </g>
     </g>
    </g>
    <g id="ytick_9">
     <g id="line2d_14">
      <g>
       <use style="stroke:#000000;stroke-width:0.6;" x="31.8" xlink:href="#m0ad1de5223" y="176.064309"/>
      </g>
     </g>
    </g>
    <g id="ytick_10">
     <g id="line2d_15">
      <g>
       <use style="stroke:#000000;stroke-width:0.6;" x="31.8" xlink:href="#m0ad1de5223" y="169.758537"/>
      </g>
     </g>
    </g>
    <g id="ytick_11">
     <g id="line2d_16">
      <g>
       <use style="stroke:#000000;stroke-width:0.6;" x="31.8" xlink:href="#m0ad1de5223" y="127.008687"/>
      </g>
     </g>
    </g>
    <g id="ytick_12">
     <g id="line2d_17">
      <g>
       <use style="stroke:#000000;stroke-width:0.6;" x="31.8" xlink:href="#m0ad1de5223" y="105.301228"/>
      </g>
     </g>
    </g>
    <g id="ytick_13">
     <g id="line2d_18">
      <g>
       <use style="stroke:#000000;stroke-width:0.6;" x="31.8" xlink:href="#m0ad1de5223" y="89.899541"/>
      </g>
     </g>
    </g>
    <g id="ytick_14">
     <g id="line2d_19">
      <g>
       <use style="stroke:#000000;stroke-width:0.6;" x="31.8" xlink:href="#m0ad1de5223" y="77.953065"/>
      </g>
     </g>
    </g>
    <g id="ytick_15">
     <g id="line2d_20">
      <g>
       <use style="stroke:#000000;stroke-width:0.6;" x="31.8" xlink:href="#m0ad1de5223" y="68.192083"/>
      </g>
     </g>
    </g>
    <g id="ytick_16">
     <g id="line2d_21">
      <g>
       <use style="stroke:#000000;stroke-width:0.6;" x="31.8" xlink:href="#m0ad1de5223" y="59.93929"/>
      </g>
     </g>
    </g>
    <g id="ytick_17">
     <g id="line2d_22">
      <g>
       <use style="stroke:#000000;stroke-width:0.6;" x="31.8" xlink:href="#m0ad1de5223" y="52.790396"/>
      </g>
     </g>
    </g>
    <g id="ytick_18">
     <g id="line2d_23">
      <g>
       <use style="stroke:#000000;stroke-width:0.6;" x="31.8" xlink:href="#m0ad1de5223" y="46.484624"/>
      </g>
     </g>
    </g>
   </g>
   <g id="line2d_24">
    <path clip-path="url(#pd0b4a09236)" d="M 48.032727 19.296 
L 48.773948 109.437097 
L 49.515168 110.856341 
L 50.256389 42.204047 
L 50.997609 123.35781 
L 51.738829 32.22359 
L 52.48005 48.265151 
L 53.22127 41.244281 
L 53.962491 72.116686 
L 54.703711 48.897009 
L 55.444932 137.47025 
L 56.186152 46.122063 
L 56.927372 40.669867 
L 57.668593 119.792936 
L 58.409813 42.591158 
L 59.151034 137.170886 
L 59.892254 54.56015 
L 60.633474 52.549156 
L 61.374695 96.312662 
L 62.115915 44.592666 
L 62.857136 191.765905 
L 63.598356 35.205063 
L 64.339577 55.510447 
L 65.080797 47.460188 
L 65.822017 146.187752 
L 66.563238 39.697498 
L 67.304458 81.444144 
L 68.045679 30.581805 
L 69.52812 58.988359 
L 70.26934 53.154038 
L 71.01056 63.182392 
L 71.751781 37.204318 
L 72.493001 60.910043 
L 73.234222 45.230697 
L 73.975442 101.051957 
L 74.716663 111.222186 
L 75.457883 42.8272 
L 76.199103 39.718772 
L 76.940324 67.020022 
L 77.681544 56.278944 
L 78.422765 30.357262 
L 79.163985 47.552762 
L 79.905205 32.443818 
L 80.646426 34.135329 
L 81.387646 53.788248 
L 82.128867 69.244903 
L 82.870087 32.496912 
L 83.611308 51.044122 
L 84.352528 177.611475 
L 85.093748 50.190033 
L 85.834969 182.64629 
L 86.576189 30.391421 
L 87.31741 29.454259 
L 88.05863 42.793646 
L 88.799851 39.869142 
L 89.541071 67.370498 
L 90.282291 46.627043 
L 91.023512 104.476393 
L 91.764732 109.027804 
L 92.505953 32.503831 
L 93.247173 48.941475 
L 93.988394 32.237265 
L 94.729614 49.602558 
L 95.470834 40.794755 
L 96.212055 35.364235 
L 96.953275 58.609074 
L 97.694496 65.327178 
L 98.435716 46.769546 
L 99.176936 91.828807 
L 99.918157 87.054377 
L 100.659377 59.521917 
L 101.400598 46.675121 
L 102.141818 94.93503 
L 102.883039 125.388851 
L 103.624259 45.461662 
L 104.365479 46.789093 
L 105.1067 132.192903 
L 105.84792 57.447973 
L 106.589141 33.382322 
L 107.330361 50.663087 
L 108.071582 169.862895 
L 108.812802 52.777509 
L 109.554022 118.261056 
L 110.295243 76.626998 
L 111.777684 31.463667 
L 112.518904 44.93796 
L 113.260125 40.540298 
L 114.001345 69.620019 
L 114.742565 47.822019 
L 115.483786 121.245197 
L 116.225006 59.360743 
L 116.966227 28.341846 
L 117.707447 41.333379 
L 118.448667 72.872743 
L 119.189888 46.288233 
L 119.931108 120.059365 
L 120.672329 37.997318 
L 121.413549 63.965742 
L 122.15477 55.40203 
L 122.89599 30.43223 
L 123.63721 46.799265 
L 124.378431 41.618172 
L 125.119651 35.651333 
L 125.860872 57.153116 
L 126.602092 63.014252 
L 127.343313 47.348969 
L 128.084533 42.143323 
L 128.825753 81.252336 
L 129.566974 72.104359 
L 130.308194 41.778237 
L 131.049415 36.772023 
L 131.790635 59.638842 
L 132.531856 54.325714 
L 133.273076 30.355006 
L 134.014296 52.352234 
L 134.755517 143.542607 
L 135.496737 55.988056 
L 136.237958 116.303041 
L 136.979178 36.513992 
L 137.720399 56.028215 
L 138.461619 42.640093 
L 139.202839 78.154668 
L 139.94406 52.639529 
L 140.68528 148.109161 
L 141.426501 29.623561 
L 142.167721 42.935278 
L 142.908941 39.862393 
L 143.650162 67.413158 
L 144.391382 46.660382 
L 145.132603 104.657204 
L 145.873823 107.796671 
L 146.615044 32.426299 
L 147.356264 48.716695 
L 148.097484 32.19489 
L 148.838705 49.76251 
L 149.579925 33.307844 
L 150.321146 34.115945 
L 151.062366 55.751358 
L 151.803587 33.302884 
L 152.544807 50.096051 
L 153.286027 258.784227 
L 154.027248 46.884584 
L 154.768468 112.888822 
L 156.250909 29.235865 
L 156.99213 42.228086 
L 157.73335 39.63381 
L 158.47457 66.75796 
L 159.215791 46.396465 
L 159.957011 102.88057 
L 160.698232 122.61839 
L 161.439452 33.195237 
L 162.180672 51.021472 
L 162.921893 32.659414 
L 163.663113 49.04395 
L 164.404334 46.02177 
L 165.145554 46.406174 
L 165.886775 33.813956 
L 166.627995 49.337029 
L 167.369215 218.715768 
L 168.110436 44.337329 
L 168.851656 88.744213 
L 169.592877 72.376297 
L 170.334097 62.885559 
L 171.075318 30.973178 
L 171.816538 35.762636 
L 172.557758 47.735158 
L 173.298979 136.826145 
L 174.040199 48.937046 
L 174.78142 36.590546 
L 175.52264 47.358718 
L 176.263861 136.465622 
L 177.005081 40.5056 
L 177.746301 70.096256 
L 178.487522 47.506352 
L 179.228742 114.411069 
L 180.711183 29.649732 
L 181.452403 42.503725 
L 182.193624 39.71808 
L 182.934844 67.087725 
L 183.676065 46.616853 
L 184.417285 106.285068 
L 185.158506 96.145826 
L 185.899726 31.34944 
L 186.640946 45.825993 
L 187.382167 41.168868 
L 188.123387 75.006936 
L 188.864608 57.918687 
L 189.605828 57.943061 
L 190.347049 106.544995 
L 191.088269 36.984275 
L 191.829489 58.314287 
L 192.57071 64.783333 
L 193.31193 31.590275 
L 194.053151 35.556138 
L 194.794371 48.189707 
L 195.535592 151.368318 
L 196.276812 41.342343 
L 197.018032 73.038241 
L 197.759253 48.837397 
L 198.500473 133.054095 
L 199.241694 49.167827 
L 199.982914 27.685874 
L 200.724134 40.832453 
L 201.465355 61.856734 
L 202.206575 39.857244 
L 202.947796 68.697833 
L 203.689016 48.551178 
L 204.430237 225.997805 
L 205.171457 45.955873 
L 205.912677 129.524327 
L 206.653898 40.414329 
L 207.395118 70.879778 
L 208.136339 48.544398 
L 208.877559 141.823349 
L 209.61878 44.204389 
L 210.36 30.934526 
L 211.10122 44.423238 
L 211.842441 40.200649 
L 212.583661 68.530267 
L 213.324882 47.150997 
L 214.066102 110.934453 
L 214.807323 78.757346 
L 215.548543 30.199931 
L 216.289763 43.459879 
L 217.030984 40.028799 
L 217.772204 68.328861 
L 218.513425 47.266525 
L 219.254645 115.044654 
L 219.995866 68.296253 
L 220.737086 29.027363 
L 221.478306 41.916656 
L 222.219527 39.56151 
L 222.960747 66.518399 
L 223.701968 46.30287 
L 224.443188 102.002881 
L 225.184408 133.104725 
L 225.925629 33.730486 
L 226.666849 52.856587 
L 227.40807 33.158243 
L 228.14929 49.354138 
L 228.890511 41.381562 
L 229.631731 72.930422 
L 230.372951 49.28048 
L 231.114172 142.965729 
L 231.855392 38.614734 
L 232.596613 38.839913 
L 233.337833 101.862555 
L 234.079054 40.381391 
L 234.820274 38.572471 
L 235.561494 46.958875 
L 236.302715 133.2685 
L 237.043935 40.462221 
L 237.785156 70.015063 
L 238.526376 47.538741 
L 239.267597 115.47407 
L 240.008817 68.528124 
L 240.750037 29.385442 
L 241.491258 42.139284 
L 242.232478 39.59631 
L 242.973699 66.63034 
L 243.714919 46.382646 
L 244.456139 103.396745 
L 245.19736 116.690289 
L 245.93858 32.732886 
L 246.679801 49.497127 
L 247.421021 32.2788 
L 248.162242 49.850673 
L 248.903462 33.507002 
L 249.644682 34.136775 
L 250.385903 56.018182 
L 251.127123 33.323952 
L 251.868344 50.087811 
L 252.609564 261.216 
L 253.350785 46.843686 
L 254.092005 112.344481 
L 254.833225 73.848432 
L 255.574446 29.349675 
L 256.315666 42.349034 
L 257.056887 39.65518 
L 257.798107 66.827415 
L 258.539328 46.426191 
L 259.280548 103.229353 
L 260.021768 119.010478 
L 260.762989 32.983073 
L 261.504209 50.332218 
L 262.24543 32.492222 
L 262.98665 49.169795 
L 263.72787 43.355468 
L 264.469091 59.969638 
L 265.210311 36.646807 
L 265.951532 60.990141 
L 266.692752 62.670116 
L 267.433973 47.892939 
L 268.175193 41.84985 
L 268.916413 79.415388 
L 269.657634 61.151738 
L 270.398854 55.498217 
L 271.140075 85.215918 
L 271.881295 58.347397 
L 272.622516 42.831654 
L 273.363736 94.592147 
L 274.104956 38.927494 
L 274.846177 69.307736 
L 275.587397 35.254329 
L 276.328618 54.087347 
L 277.069838 42.731657 
L 277.811059 79.523558 
L 278.552279 54.588817 
L 279.293499 124.231167 
L 280.03472 36.083382 
L 280.77594 54.992074 
L 281.517161 42.413551 
L 282.258381 77.167788 
L 282.999601 51.867007 
L 283.740822 147.43299 
L 284.482042 29.870357 
L 285.223263 42.681864 
L 285.964483 39.722758 
L 286.705704 66.891627 
L 287.446924 46.425515 
L 288.188144 102.643701 
L 288.929365 125.671463 
L 289.670585 33.481326 
L 290.411806 52.070627 
L 291.153026 33.005048 
L 291.894247 49.134233 
L 292.635467 41.329029 
L 293.376687 72.686638 
L 294.117908 49.132311 
L 294.859128 139.410199 
L 295.600349 40.799362 
L 296.341569 26.964288 
L 297.82401 53.758039 
L 298.56523 38.021551 
L 299.306451 62.564575 
L 300.047671 45.248967 
L 300.788892 96.305493 
L 301.530112 194.290845 
L 302.271333 35.069169 
L 303.012553 55.475569 
L 303.753773 49.174838 
L 304.494994 38.335782 
L 305.236214 46.814552 
L 305.977435 123.776626 
L 306.718655 63.856059 
L 307.459875 41.359626 
L 308.201096 72.633089 
L 308.942316 47.990554 
L 309.683537 123.236776 
L 310.424757 57.558628 
L 311.165978 28.459419 
L 311.907198 41.085999 
L 312.648418 39.320172 
L 313.389639 65.738337 
L 314.130859 46.00511 
L 314.87208 99.351703 
L 315.6133 201.67493 
L 316.354521 35.871732 
L 317.095741 62.354748 
L 317.836961 45.720881 
L 318.578182 100.88448 
L 319.319402 63.277393 
L 320.060623 32.552512 
L 320.801843 50.776836 
L 321.543064 188.990302 
L 322.284284 49.244169 
L 323.025504 151.783884 
L 323.766725 35.231705 
L 324.507945 30.585501 
L 325.249166 43.563027 
L 325.990386 40.365878 
L 326.731606 69.642563 
L 327.472827 48.363486 
L 328.214047 140.029015 
L 328.955268 45.445761 
L 329.696488 30.523576 
L 330.437709 44.493487 
L 331.178929 40.211875 
L 331.920149 68.601368 
L 332.66137 47.140357 
L 333.40259 109.666586 
L 334.143811 83.208046 
L 334.885031 30.672865 
L 335.626252 44.373081 
L 336.367472 40.522302 
L 337.108692 70.963831 
L 337.849913 49.383484 
L 338.591133 192.510556 
L 339.332354 27.373797 
L 340.073574 33.625506 
L 340.814795 52.065643 
L 341.556015 27.26851 
L 342.297235 84.185673 
L 343.038456 33.267835 
L 343.779676 48.593346 
L 344.520897 35.223979 
L 345.262117 55.76098 
L 346.003337 28.945616 
L 346.744558 43.702178 
L 347.485778 48.610012 
L 348.226999 37.020169 
L 348.968219 60.162695 
L 349.70944 53.043351 
L 350.45066 30.460587 
L 351.19188 52.828895 
L 351.933101 123.048283 
L 352.674321 77.462461 
L 353.415542 47.789491 
L 354.156762 132.641705 
L 354.897983 38.726235 
L 355.639203 69.603906 
L 356.380423 34.654503 
L 357.121644 53.133843 
L 357.862864 42.309653 
L 358.604085 76.70492 
L 359.345305 51.665858 
L 360.086526 147.9827 
L 360.827746 29.678774 
L 361.568966 42.689759 
L 362.310187 39.750355 
L 363.051407 67.06938 
L 363.792628 46.513843 
L 364.533848 103.329641 
L 365.275068 118.720919 
L 366.016289 33.098124 
L 366.757509 50.783682 
L 367.49873 32.65697 
L 368.23995 48.956701 
L 368.981171 47.246473 
L 369.722391 43.519693 
L 370.463611 33.310273 
L 371.204832 49.827705 
L 371.206404 311.86825 
L 371.206404 311.86825 
" style="fill:none;stroke:#1f77b4;stroke-linecap:square;stroke-width:1.5;"/>
    <defs>
     <path d="M 0 3 
C 0.795609 3 1.55874 2.683901 2.12132 2.12132 
C 2.683901 1.55874 3 0.795609 3 0 
C 3 -0.795609 2.683901 -1.55874 2.12132 -2.12132 
C 1.55874 -2.683901 0.795609 -3 0 -3 
C -0.795609 -3 -1.55874 -2.683901 -2.12132 -2.12132 
C -2.683901 -1.55874 -3 -0.795609 -3 0 
C -3 0.795609 -2.683901 1.55874 -2.12132 2.12132 
C -1.55874 2.683901 -0.795609 3 0 3 
z
" id="mf84af62820" style="stroke:#1f77b4;"/>
    </defs>
    <g clip-path="url(#pd0b4a09236)">
     <use style="fill:#1f77b4;stroke:#1f77b4;" x="48.032727" xlink:href="#mf84af62820" y="19.296"/>
     <use style="fill:#1f77b4;stroke:#1f77b4;" x="48.773948" xlink:href="#mf84af62820" y="109.437097"/>
     <use style="fill:#1f77b4;stroke:#1f77b4;" x="49.515168" xlink:href="#mf84af62820" y="110.856341"/>
     <use style="fill:#1f77b4;stroke:#1f77b4;" x="50.256389" xlink:href="#mf84af62820" y="42.204047"/>
     <use style="fill:#1f77b4;stroke:#1f77b4;" x="50.997609" xlink:href="#mf84af62820" y="123.35781"/>
     <use style="fill:#1f77b4;stroke:#1f77b4;" x="51.738829" xlink:href="#mf84af62820" y="32.22359"/>
     <use style="fill:#1f77b4;stroke:#1f77b4;" x="52.48005" xlink:href="#mf84af62820" y="48.265151"/>
     <use style="fill:#1f77b4;stroke:#1f77b4;" x="53.22127" xlink:href="#mf84af62820" y="41.244281"/>
     <use style="fill:#1f77b4;stroke:#1f77b4;" x="53.962491" xlink:href="#mf84af62820" y="72.116686"/>
     <use style="fill:#1f77b4;stroke:#1f77b4;" x="54.703711" xlink:href="#mf84af62820" y="48.897009"/>
     <use style="fill:#1f77b4;stroke:#1f77b4;" x="55.444932" xlink:href="#mf84af62820" y="137.47025"/>
     <use style="fill:#1f77b4;stroke:#1f77b4;" x="56.186152" xlink:href="#mf84af62820" y="46.122063"/>
     <use style="fill:#1f77b4;stroke:#1f77b4;" x="56.927372" xlink:href="#mf84af62820" y="40.669867"/>
     <use style="fill:#1f77b4;stroke:#1f77b4;" x="57.668593" xlink:href="#mf84af62820" y="119.792936"/>
     <use style="fill:#1f77b4;stroke:#1f77b4;" x="58.409813" xlink:href="#mf84af62820" y="42.591158"/>
     <use style="fill:#1f77b4;stroke:#1f77b4;" x="59.151034" xlink:href="#mf84af62820" y="137.170886"/>
     <use style="fill:#1f77b4;stroke:#1f77b4;" x="59.892254" xlink:href="#mf84af62820" y="54.56015"/>
     <use style="fill:#1f77b4;stroke:#1f77b4;" x="60.633474" xlink:href="#mf84af62820" y="52.549156"/>
     <use style="fill:#1f77b4;stroke:#1f77b4;" x="61.374695" xlink:href="#mf84af62820" y="96.312662"/>
     <use style="fill:#1f77b4;stroke:#1f77b4;" x="62.115915" xlink:href="#mf84af62820" y="44.592666"/>
     <use style="fill:#1f77b4;stroke:#1f77b4;" x="62.857136" xlink:href="#mf84af62820" y="191.765905"/>
     <use style="fill:#1f77b4;stroke:#1f77b4;" x="63.598356" xlink:href="#mf84af62820" y="35.205063"/>
     <use style="fill:#1f77b4;stroke:#1f77b4;" x="64.339577" xlink:href="#mf84af62820" y="55.510447"/>
     <use style="fill:#1f77b4;stroke:#1f77b4;" x="65.080797" xlink:href="#mf84af62820" y="47.460188"/>
     <use style="fill:#1f77b4;stroke:#1f77b4;" x="65.822017" xlink:href="#mf84af62820" y="146.187752"/>
     <use style="fill:#1f77b4;stroke:#1f77b4;" x="66.563238" xlink:href="#mf84af62820" y="39.697498"/>
     <use style="fill:#1f77b4;stroke:#1f77b4;" x="67.304458" xlink:href="#mf84af62820" y="81.444144"/>
     <use style="fill:#1f77b4;stroke:#1f77b4;" x="68.045679" xlink:href="#mf84af62820" y="30.581805"/>
     <use style="fill:#1f77b4;stroke:#1f77b4;" x="68.786899" xlink:href="#mf84af62820" y="44.951671"/>
     <use style="fill:#1f77b4;stroke:#1f77b4;" x="69.52812" xlink:href="#mf84af62820" y="58.988359"/>
     <use style="fill:#1f77b4;stroke:#1f77b4;" x="70.26934" xlink:href="#mf84af62820" y="53.154038"/>
     <use style="fill:#1f77b4;stroke:#1f77b4;" x="71.01056" xlink:href="#mf84af62820" y="63.182392"/>
     <use style="fill:#1f77b4;stroke:#1f77b4;" x="71.751781" xlink:href="#mf84af62820" y="37.204318"/>
     <use style="fill:#1f77b4;stroke:#1f77b4;" x="72.493001" xlink:href="#mf84af62820" y="60.910043"/>
     <use style="fill:#1f77b4;stroke:#1f77b4;" x="73.234222" xlink:href="#mf84af62820" y="45.230697"/>
     <use style="fill:#1f77b4;stroke:#1f77b4;" x="73.975442" xlink:href="#mf84af62820" y="101.051957"/>
     <use style="fill:#1f77b4;stroke:#1f77b4;" x="74.716663" xlink:href="#mf84af62820" y="111.222186"/>
     <use style="fill:#1f77b4;stroke:#1f77b4;" x="75.457883" xlink:href="#mf84af62820" y="42.8272"/>
     <use style="fill:#1f77b4;stroke:#1f77b4;" x="76.199103" xlink:href="#mf84af62820" y="39.718772"/>
     <use style="fill:#1f77b4;stroke:#1f77b4;" x="76.940324" xlink:href="#mf84af62820" y="67.020022"/>
     <use style="fill:#1f77b4;stroke:#1f77b4;" x="77.681544" xlink:href="#mf84af62820" y="56.278944"/>
     <use style="fill:#1f77b4;stroke:#1f77b4;" x="78.422765" xlink:href="#mf84af62820" y="30.357262"/>
     <use style="fill:#1f77b4;stroke:#1f77b4;" x="79.163985" xlink:href="#mf84af62820" y="47.552762"/>
     <use style="fill:#1f77b4;stroke:#1f77b4;" x="79.905205" xlink:href="#mf84af62820" y="32.443818"/>
     <use style="fill:#1f77b4;stroke:#1f77b4;" x="80.646426" xlink:href="#mf84af62820" y="34.135329"/>
     <use style="fill:#1f77b4;stroke:#1f77b4;" x="81.387646" xlink:href="#mf84af62820" y="53.788248"/>
     <use style="fill:#1f77b4;stroke:#1f77b4;" x="82.128867" xlink:href="#mf84af62820" y="69.244903"/>
     <use style="fill:#1f77b4;stroke:#1f77b4;" x="82.870087" xlink:href="#mf84af62820" y="32.496912"/>
     <use style="fill:#1f77b4;stroke:#1f77b4;" x="83.611308" xlink:href="#mf84af62820" y="51.044122"/>
     <use style="fill:#1f77b4;stroke:#1f77b4;" x="84.352528" xlink:href="#mf84af62820" y="177.611475"/>
     <use style="fill:#1f77b4;stroke:#1f77b4;" x="85.093748" xlink:href="#mf84af62820" y="50.190033"/>
     <use style="fill:#1f77b4;stroke:#1f77b4;" x="85.834969" xlink:href="#mf84af62820" y="182.64629"/>
     <use style="fill:#1f77b4;stroke:#1f77b4;" x="86.576189" xlink:href="#mf84af62820" y="30.391421"/>
     <use style="fill:#1f77b4;stroke:#1f77b4;" x="87.31741" xlink:href="#mf84af62820" y="29.454259"/>
     <use style="fill:#1f77b4;stroke:#1f77b4;" x="88.05863" xlink:href="#mf84af62820" y="42.793646"/>
     <use style="fill:#1f77b4;stroke:#1f77b4;" x="88.799851" xlink:href="#mf84af62820" y="39.869142"/>
     <use style="fill:#1f77b4;stroke:#1f77b4;" x="89.541071" xlink:href="#mf84af62820" y="67.370498"/>
     <use style="fill:#1f77b4;stroke:#1f77b4;" x="90.282291" xlink:href="#mf84af62820" y="46.627043"/>
     <use style="fill:#1f77b4;stroke:#1f77b4;" x="91.023512" xlink:href="#mf84af62820" y="104.476393"/>
     <use style="fill:#1f77b4;stroke:#1f77b4;" x="91.764732" xlink:href="#mf84af62820" y="109.027804"/>
     <use style="fill:#1f77b4;stroke:#1f77b4;" x="92.505953" xlink:href="#mf84af62820" y="32.503831"/>
     <use style="fill:#1f77b4;stroke:#1f77b4;" x="93.247173" xlink:href="#mf84af62820" y="48.941475"/>
     <use style="fill:#1f77b4;stroke:#1f77b4;" x="93.988394" xlink:href="#mf84af62820" y="32.237265"/>
     <use style="fill:#1f77b4;stroke:#1f77b4;" x="94.729614" xlink:href="#mf84af62820" y="49.602558"/>
     <use style="fill:#1f77b4;stroke:#1f77b4;" x="95.470834" xlink:href="#mf84af62820" y="40.794755"/>
     <use style="fill:#1f77b4;stroke:#1f77b4;" x="96.212055" xlink:href="#mf84af62820" y="35.364235"/>
     <use style="fill:#1f77b4;stroke:#1f77b4;" x="96.953275" xlink:href="#mf84af62820" y="58.609074"/>
     <use style="fill:#1f77b4;stroke:#1f77b4;" x="97.694496" xlink:href="#mf84af62820" y="65.327178"/>
     <use style="fill:#1f77b4;stroke:#1f77b4;" x="98.435716" xlink:href="#mf84af62820" y="46.769546"/>
     <use style="fill:#1f77b4;stroke:#1f77b4;" x="99.176936" xlink:href="#mf84af62820" y="91.828807"/>
     <use style="fill:#1f77b4;stroke:#1f77b4;" x="99.918157" xlink:href="#mf84af62820" y="87.054377"/>
     <use style="fill:#1f77b4;stroke:#1f77b4;" x="100.659377" xlink:href="#mf84af62820" y="59.521917"/>
     <use style="fill:#1f77b4;stroke:#1f77b4;" x="101.400598" xlink:href="#mf84af62820" y="46.675121"/>
     <use style="fill:#1f77b4;stroke:#1f77b4;" x="102.141818" xlink:href="#mf84af62820" y="94.93503"/>
     <use style="fill:#1f77b4;stroke:#1f77b4;" x="102.883039" xlink:href="#mf84af62820" y="125.388851"/>
     <use style="fill:#1f77b4;stroke:#1f77b4;" x="103.624259" xlink:href="#mf84af62820" y="45.461662"/>
     <use style="fill:#1f77b4;stroke:#1f77b4;" x="104.365479" xlink:href="#mf84af62820" y="46.789093"/>
     <use style="fill:#1f77b4;stroke:#1f77b4;" x="105.1067" xlink:href="#mf84af62820" y="132.192903"/>
     <use style="fill:#1f77b4;stroke:#1f77b4;" x="105.84792" xlink:href="#mf84af62820" y="57.447973"/>
     <use style="fill:#1f77b4;stroke:#1f77b4;" x="106.589141" xlink:href="#mf84af62820" y="33.382322"/>
     <use style="fill:#1f77b4;stroke:#1f77b4;" x="107.330361" xlink:href="#mf84af62820" y="50.663087"/>
     <use style="fill:#1f77b4;stroke:#1f77b4;" x="108.071582" xlink:href="#mf84af62820" y="169.862895"/>
     <use style="fill:#1f77b4;stroke:#1f77b4;" x="108.812802" xlink:href="#mf84af62820" y="52.777509"/>
     <use style="fill:#1f77b4;stroke:#1f77b4;" x="109.554022" xlink:href="#mf84af62820" y="118.261056"/>
     <use style="fill:#1f77b4;stroke:#1f77b4;" x="110.295243" xlink:href="#mf84af62820" y="76.626998"/>
     <use style="fill:#1f77b4;stroke:#1f77b4;" x="111.036463" xlink:href="#mf84af62820" y="52.367189"/>
     <use style="fill:#1f77b4;stroke:#1f77b4;" x="111.777684" xlink:href="#mf84af62820" y="31.463667"/>
     <use style="fill:#1f77b4;stroke:#1f77b4;" x="112.518904" xlink:href="#mf84af62820" y="44.93796"/>
     <use style="fill:#1f77b4;stroke:#1f77b4;" x="113.260125" xlink:href="#mf84af62820" y="40.540298"/>
     <use style="fill:#1f77b4;stroke:#1f77b4;" x="114.001345" xlink:href="#mf84af62820" y="69.620019"/>
     <use style="fill:#1f77b4;stroke:#1f77b4;" x="114.742565" xlink:href="#mf84af62820" y="47.822019"/>
     <use style="fill:#1f77b4;stroke:#1f77b4;" x="115.483786" xlink:href="#mf84af62820" y="121.245197"/>
     <use style="fill:#1f77b4;stroke:#1f77b4;" x="116.225006" xlink:href="#mf84af62820" y="59.360743"/>
     <use style="fill:#1f77b4;stroke:#1f77b4;" x="116.966227" xlink:href="#mf84af62820" y="28.341846"/>
     <use style="fill:#1f77b4;stroke:#1f77b4;" x="117.707447" xlink:href="#mf84af62820" y="41.333379"/>
     <use style="fill:#1f77b4;stroke:#1f77b4;" x="118.448667" xlink:href="#mf84af62820" y="72.872743"/>
     <use style="fill:#1f77b4;stroke:#1f77b4;" x="119.189888" xlink:href="#mf84af62820" y="46.288233"/>
     <use style="fill:#1f77b4;stroke:#1f77b4;" x="119.931108" xlink:href="#mf84af62820" y="120.059365"/>
     <use style="fill:#1f77b4;stroke:#1f77b4;" x="120.672329" xlink:href="#mf84af62820" y="37.997318"/>
     <use style="fill:#1f77b4;stroke:#1f77b4;" x="121.413549" xlink:href="#mf84af62820" y="63.965742"/>
     <use style="fill:#1f77b4;stroke:#1f77b4;" x="122.15477" xlink:href="#mf84af62820" y="55.40203"/>
     <use style="fill:#1f77b4;stroke:#1f77b4;" x="122.89599" xlink:href="#mf84af62820" y="30.43223"/>
     <use style="fill:#1f77b4;stroke:#1f77b4;" x="123.63721" xlink:href="#mf84af62820" y="46.799265"/>
     <use style="fill:#1f77b4;stroke:#1f77b4;" x="124.378431" xlink:href="#mf84af62820" y="41.618172"/>
     <use style="fill:#1f77b4;stroke:#1f77b4;" x="125.119651" xlink:href="#mf84af62820" y="35.651333"/>
     <use style="fill:#1f77b4;stroke:#1f77b4;" x="125.860872" xlink:href="#mf84af62820" y="57.153116"/>
     <use style="fill:#1f77b4;stroke:#1f77b4;" x="126.602092" xlink:href="#mf84af62820" y="63.014252"/>
     <use style="fill:#1f77b4;stroke:#1f77b4;" x="127.343313" xlink:href="#mf84af62820" y="47.348969"/>
     <use style="fill:#1f77b4;stroke:#1f77b4;" x="128.084533" xlink:href="#mf84af62820" y="42.143323"/>
     <use style="fill:#1f77b4;stroke:#1f77b4;" x="128.825753" xlink:href="#mf84af62820" y="81.252336"/>
     <use style="fill:#1f77b4;stroke:#1f77b4;" x="129.566974" xlink:href="#mf84af62820" y="72.104359"/>
     <use style="fill:#1f77b4;stroke:#1f77b4;" x="130.308194" xlink:href="#mf84af62820" y="41.778237"/>
     <use style="fill:#1f77b4;stroke:#1f77b4;" x="131.049415" xlink:href="#mf84af62820" y="36.772023"/>
     <use style="fill:#1f77b4;stroke:#1f77b4;" x="131.790635" xlink:href="#mf84af62820" y="59.638842"/>
     <use style="fill:#1f77b4;stroke:#1f77b4;" x="132.531856" xlink:href="#mf84af62820" y="54.325714"/>
     <use style="fill:#1f77b4;stroke:#1f77b4;" x="133.273076" xlink:href="#mf84af62820" y="30.355006"/>
     <use style="fill:#1f77b4;stroke:#1f77b4;" x="134.014296" xlink:href="#mf84af62820" y="52.352234"/>
     <use style="fill:#1f77b4;stroke:#1f77b4;" x="134.755517" xlink:href="#mf84af62820" y="143.542607"/>
     <use style="fill:#1f77b4;stroke:#1f77b4;" x="135.496737" xlink:href="#mf84af62820" y="55.988056"/>
     <use style="fill:#1f77b4;stroke:#1f77b4;" x="136.237958" xlink:href="#mf84af62820" y="116.303041"/>
     <use style="fill:#1f77b4;stroke:#1f77b4;" x="136.979178" xlink:href="#mf84af62820" y="36.513992"/>
     <use style="fill:#1f77b4;stroke:#1f77b4;" x="137.720399" xlink:href="#mf84af62820" y="56.028215"/>
     <use style="fill:#1f77b4;stroke:#1f77b4;" x="138.461619" xlink:href="#mf84af62820" y="42.640093"/>
     <use style="fill:#1f77b4;stroke:#1f77b4;" x="139.202839" xlink:href="#mf84af62820" y="78.154668"/>
     <use style="fill:#1f77b4;stroke:#1f77b4;" x="139.94406" xlink:href="#mf84af62820" y="52.639529"/>
     <use style="fill:#1f77b4;stroke:#1f77b4;" x="140.68528" xlink:href="#mf84af62820" y="148.109161"/>
     <use style="fill:#1f77b4;stroke:#1f77b4;" x="141.426501" xlink:href="#mf84af62820" y="29.623561"/>
     <use style="fill:#1f77b4;stroke:#1f77b4;" x="142.167721" xlink:href="#mf84af62820" y="42.935278"/>
     <use style="fill:#1f77b4;stroke:#1f77b4;" x="142.908941" xlink:href="#mf84af62820" y="39.862393"/>
     <use style="fill:#1f77b4;stroke:#1f77b4;" x="143.650162" xlink:href="#mf84af62820" y="67.413158"/>
     <use style="fill:#1f77b4;stroke:#1f77b4;" x="144.391382" xlink:href="#mf84af62820" y="46.660382"/>
     <use style="fill:#1f77b4;stroke:#1f77b4;" x="145.132603" xlink:href="#mf84af62820" y="104.657204"/>
     <use style="fill:#1f77b4;stroke:#1f77b4;" x="145.873823" xlink:href="#mf84af62820" y="107.796671"/>
     <use style="fill:#1f77b4;stroke:#1f77b4;" x="146.615044" xlink:href="#mf84af62820" y="32.426299"/>
     <use style="fill:#1f77b4;stroke:#1f77b4;" x="147.356264" xlink:href="#mf84af62820" y="48.716695"/>
     <use style="fill:#1f77b4;stroke:#1f77b4;" x="148.097484" xlink:href="#mf84af62820" y="32.19489"/>
     <use style="fill:#1f77b4;stroke:#1f77b4;" x="148.838705" xlink:href="#mf84af62820" y="49.76251"/>
     <use style="fill:#1f77b4;stroke:#1f77b4;" x="149.579925" xlink:href="#mf84af62820" y="33.307844"/>
     <use style="fill:#1f77b4;stroke:#1f77b4;" x="150.321146" xlink:href="#mf84af62820" y="34.115945"/>
     <use style="fill:#1f77b4;stroke:#1f77b4;" x="151.062366" xlink:href="#mf84af62820" y="55.751358"/>
     <use style="fill:#1f77b4;stroke:#1f77b4;" x="151.803587" xlink:href="#mf84af62820" y="33.302884"/>
     <use style="fill:#1f77b4;stroke:#1f77b4;" x="152.544807" xlink:href="#mf84af62820" y="50.096051"/>
     <use style="fill:#1f77b4;stroke:#1f77b4;" x="153.286027" xlink:href="#mf84af62820" y="258.784227"/>
     <use style="fill:#1f77b4;stroke:#1f77b4;" x="154.027248" xlink:href="#mf84af62820" y="46.884584"/>
     <use style="fill:#1f77b4;stroke:#1f77b4;" x="154.768468" xlink:href="#mf84af62820" y="112.888822"/>
     <use style="fill:#1f77b4;stroke:#1f77b4;" x="155.509689" xlink:href="#mf84af62820" y="72.556578"/>
     <use style="fill:#1f77b4;stroke:#1f77b4;" x="156.250909" xlink:href="#mf84af62820" y="29.235865"/>
     <use style="fill:#1f77b4;stroke:#1f77b4;" x="156.99213" xlink:href="#mf84af62820" y="42.228086"/>
     <use style="fill:#1f77b4;stroke:#1f77b4;" x="157.73335" xlink:href="#mf84af62820" y="39.63381"/>
     <use style="fill:#1f77b4;stroke:#1f77b4;" x="158.47457" xlink:href="#mf84af62820" y="66.75796"/>
     <use style="fill:#1f77b4;stroke:#1f77b4;" x="159.215791" xlink:href="#mf84af62820" y="46.396465"/>
     <use style="fill:#1f77b4;stroke:#1f77b4;" x="159.957011" xlink:href="#mf84af62820" y="102.88057"/>
     <use style="fill:#1f77b4;stroke:#1f77b4;" x="160.698232" xlink:href="#mf84af62820" y="122.61839"/>
     <use style="fill:#1f77b4;stroke:#1f77b4;" x="161.439452" xlink:href="#mf84af62820" y="33.195237"/>
     <use style="fill:#1f77b4;stroke:#1f77b4;" x="162.180672" xlink:href="#mf84af62820" y="51.021472"/>
     <use style="fill:#1f77b4;stroke:#1f77b4;" x="162.921893" xlink:href="#mf84af62820" y="32.659414"/>
     <use style="fill:#1f77b4;stroke:#1f77b4;" x="163.663113" xlink:href="#mf84af62820" y="49.04395"/>
     <use style="fill:#1f77b4;stroke:#1f77b4;" x="164.404334" xlink:href="#mf84af62820" y="46.02177"/>
     <use style="fill:#1f77b4;stroke:#1f77b4;" x="165.145554" xlink:href="#mf84af62820" y="46.406174"/>
     <use style="fill:#1f77b4;stroke:#1f77b4;" x="165.886775" xlink:href="#mf84af62820" y="33.813956"/>
     <use style="fill:#1f77b4;stroke:#1f77b4;" x="166.627995" xlink:href="#mf84af62820" y="49.337029"/>
     <use style="fill:#1f77b4;stroke:#1f77b4;" x="167.369215" xlink:href="#mf84af62820" y="218.715768"/>
     <use style="fill:#1f77b4;stroke:#1f77b4;" x="168.110436" xlink:href="#mf84af62820" y="44.337329"/>
     <use style="fill:#1f77b4;stroke:#1f77b4;" x="168.851656" xlink:href="#mf84af62820" y="88.744213"/>
     <use style="fill:#1f77b4;stroke:#1f77b4;" x="169.592877" xlink:href="#mf84af62820" y="72.376297"/>
     <use style="fill:#1f77b4;stroke:#1f77b4;" x="170.334097" xlink:href="#mf84af62820" y="62.885559"/>
     <use style="fill:#1f77b4;stroke:#1f77b4;" x="171.075318" xlink:href="#mf84af62820" y="30.973178"/>
     <use style="fill:#1f77b4;stroke:#1f77b4;" x="171.816538" xlink:href="#mf84af62820" y="35.762636"/>
     <use style="fill:#1f77b4;stroke:#1f77b4;" x="172.557758" xlink:href="#mf84af62820" y="47.735158"/>
     <use style="fill:#1f77b4;stroke:#1f77b4;" x="173.298979" xlink:href="#mf84af62820" y="136.826145"/>
     <use style="fill:#1f77b4;stroke:#1f77b4;" x="174.040199" xlink:href="#mf84af62820" y="48.937046"/>
     <use style="fill:#1f77b4;stroke:#1f77b4;" x="174.78142" xlink:href="#mf84af62820" y="36.590546"/>
     <use style="fill:#1f77b4;stroke:#1f77b4;" x="175.52264" xlink:href="#mf84af62820" y="47.358718"/>
     <use style="fill:#1f77b4;stroke:#1f77b4;" x="176.263861" xlink:href="#mf84af62820" y="136.465622"/>
     <use style="fill:#1f77b4;stroke:#1f77b4;" x="177.005081" xlink:href="#mf84af62820" y="40.5056"/>
     <use style="fill:#1f77b4;stroke:#1f77b4;" x="177.746301" xlink:href="#mf84af62820" y="70.096256"/>
     <use style="fill:#1f77b4;stroke:#1f77b4;" x="178.487522" xlink:href="#mf84af62820" y="47.506352"/>
     <use style="fill:#1f77b4;stroke:#1f77b4;" x="179.228742" xlink:href="#mf84af62820" y="114.411069"/>
     <use style="fill:#1f77b4;stroke:#1f77b4;" x="179.969963" xlink:href="#mf84af62820" y="70.806058"/>
     <use style="fill:#1f77b4;stroke:#1f77b4;" x="180.711183" xlink:href="#mf84af62820" y="29.649732"/>
     <use style="fill:#1f77b4;stroke:#1f77b4;" x="181.452403" xlink:href="#mf84af62820" y="42.503725"/>
     <use style="fill:#1f77b4;stroke:#1f77b4;" x="182.193624" xlink:href="#mf84af62820" y="39.71808"/>
     <use style="fill:#1f77b4;stroke:#1f77b4;" x="182.934844" xlink:href="#mf84af62820" y="67.087725"/>
     <use style="fill:#1f77b4;stroke:#1f77b4;" x="183.676065" xlink:href="#mf84af62820" y="46.616853"/>
     <use style="fill:#1f77b4;stroke:#1f77b4;" x="184.417285" xlink:href="#mf84af62820" y="106.285068"/>
     <use style="fill:#1f77b4;stroke:#1f77b4;" x="185.158506" xlink:href="#mf84af62820" y="96.145826"/>
     <use style="fill:#1f77b4;stroke:#1f77b4;" x="185.899726" xlink:href="#mf84af62820" y="31.34944"/>
     <use style="fill:#1f77b4;stroke:#1f77b4;" x="186.640946" xlink:href="#mf84af62820" y="45.825993"/>
     <use style="fill:#1f77b4;stroke:#1f77b4;" x="187.382167" xlink:href="#mf84af62820" y="41.168868"/>
     <use style="fill:#1f77b4;stroke:#1f77b4;" x="188.123387" xlink:href="#mf84af62820" y="75.006936"/>
     <use style="fill:#1f77b4;stroke:#1f77b4;" x="188.864608" xlink:href="#mf84af62820" y="57.918687"/>
     <use style="fill:#1f77b4;stroke:#1f77b4;" x="189.605828" xlink:href="#mf84af62820" y="57.943061"/>
     <use style="fill:#1f77b4;stroke:#1f77b4;" x="190.347049" xlink:href="#mf84af62820" y="106.544995"/>
     <use style="fill:#1f77b4;stroke:#1f77b4;" x="191.088269" xlink:href="#mf84af62820" y="36.984275"/>
     <use style="fill:#1f77b4;stroke:#1f77b4;" x="191.829489" xlink:href="#mf84af62820" y="58.314287"/>
     <use style="fill:#1f77b4;stroke:#1f77b4;" x="192.57071" xlink:href="#mf84af62820" y="64.783333"/>
     <use style="fill:#1f77b4;stroke:#1f77b4;" x="193.31193" xlink:href="#mf84af62820" y="31.590275"/>
     <use style="fill:#1f77b4;stroke:#1f77b4;" x="194.053151" xlink:href="#mf84af62820" y="35.556138"/>
     <use style="fill:#1f77b4;stroke:#1f77b4;" x="194.794371" xlink:href="#mf84af62820" y="48.189707"/>
     <use style="fill:#1f77b4;stroke:#1f77b4;" x="195.535592" xlink:href="#mf84af62820" y="151.368318"/>
     <use style="fill:#1f77b4;stroke:#1f77b4;" x="196.276812" xlink:href="#mf84af62820" y="41.342343"/>
     <use style="fill:#1f77b4;stroke:#1f77b4;" x="197.018032" xlink:href="#mf84af62820" y="73.038241"/>
     <use style="fill:#1f77b4;stroke:#1f77b4;" x="197.759253" xlink:href="#mf84af62820" y="48.837397"/>
     <use style="fill:#1f77b4;stroke:#1f77b4;" x="198.500473" xlink:href="#mf84af62820" y="133.054095"/>
     <use style="fill:#1f77b4;stroke:#1f77b4;" x="199.241694" xlink:href="#mf84af62820" y="49.167827"/>
     <use style="fill:#1f77b4;stroke:#1f77b4;" x="199.982914" xlink:href="#mf84af62820" y="27.685874"/>
     <use style="fill:#1f77b4;stroke:#1f77b4;" x="200.724134" xlink:href="#mf84af62820" y="40.832453"/>
     <use style="fill:#1f77b4;stroke:#1f77b4;" x="201.465355" xlink:href="#mf84af62820" y="61.856734"/>
     <use style="fill:#1f77b4;stroke:#1f77b4;" x="202.206575" xlink:href="#mf84af62820" y="39.857244"/>
     <use style="fill:#1f77b4;stroke:#1f77b4;" x="202.947796" xlink:href="#mf84af62820" y="68.697833"/>
     <use style="fill:#1f77b4;stroke:#1f77b4;" x="203.689016" xlink:href="#mf84af62820" y="48.551178"/>
     <use style="fill:#1f77b4;stroke:#1f77b4;" x="204.430237" xlink:href="#mf84af62820" y="225.997805"/>
     <use style="fill:#1f77b4;stroke:#1f77b4;" x="205.171457" xlink:href="#mf84af62820" y="45.955873"/>
     <use style="fill:#1f77b4;stroke:#1f77b4;" x="205.912677" xlink:href="#mf84af62820" y="129.524327"/>
     <use style="fill:#1f77b4;stroke:#1f77b4;" x="206.653898" xlink:href="#mf84af62820" y="40.414329"/>
     <use style="fill:#1f77b4;stroke:#1f77b4;" x="207.395118" xlink:href="#mf84af62820" y="70.879778"/>
     <use style="fill:#1f77b4;stroke:#1f77b4;" x="208.136339" xlink:href="#mf84af62820" y="48.544398"/>
     <use style="fill:#1f77b4;stroke:#1f77b4;" x="208.877559" xlink:href="#mf84af62820" y="141.823349"/>
     <use style="fill:#1f77b4;stroke:#1f77b4;" x="209.61878" xlink:href="#mf84af62820" y="44.204389"/>
     <use style="fill:#1f77b4;stroke:#1f77b4;" x="210.36" xlink:href="#mf84af62820" y="30.934526"/>
     <use style="fill:#1f77b4;stroke:#1f77b4;" x="211.10122" xlink:href="#mf84af62820" y="44.423238"/>
     <use style="fill:#1f77b4;stroke:#1f77b4;" x="211.842441" xlink:href="#mf84af62820" y="40.200649"/>
     <use style="fill:#1f77b4;stroke:#1f77b4;" x="212.583661" xlink:href="#mf84af62820" y="68.530267"/>
     <use style="fill:#1f77b4;stroke:#1f77b4;" x="213.324882" xlink:href="#mf84af62820" y="47.150997"/>
     <use style="fill:#1f77b4;stroke:#1f77b4;" x="214.066102" xlink:href="#mf84af62820" y="110.934453"/>
     <use style="fill:#1f77b4;stroke:#1f77b4;" x="214.807323" xlink:href="#mf84af62820" y="78.757346"/>
     <use style="fill:#1f77b4;stroke:#1f77b4;" x="215.548543" xlink:href="#mf84af62820" y="30.199931"/>
     <use style="fill:#1f77b4;stroke:#1f77b4;" x="216.289763" xlink:href="#mf84af62820" y="43.459879"/>
     <use style="fill:#1f77b4;stroke:#1f77b4;" x="217.030984" xlink:href="#mf84af62820" y="40.028799"/>
     <use style="fill:#1f77b4;stroke:#1f77b4;" x="217.772204" xlink:href="#mf84af62820" y="68.328861"/>
     <use style="fill:#1f77b4;stroke:#1f77b4;" x="218.513425" xlink:href="#mf84af62820" y="47.266525"/>
     <use style="fill:#1f77b4;stroke:#1f77b4;" x="219.254645" xlink:href="#mf84af62820" y="115.044654"/>
     <use style="fill:#1f77b4;stroke:#1f77b4;" x="219.995866" xlink:href="#mf84af62820" y="68.296253"/>
     <use style="fill:#1f77b4;stroke:#1f77b4;" x="220.737086" xlink:href="#mf84af62820" y="29.027363"/>
     <use style="fill:#1f77b4;stroke:#1f77b4;" x="221.478306" xlink:href="#mf84af62820" y="41.916656"/>
     <use style="fill:#1f77b4;stroke:#1f77b4;" x="222.219527" xlink:href="#mf84af62820" y="39.56151"/>
     <use style="fill:#1f77b4;stroke:#1f77b4;" x="222.960747" xlink:href="#mf84af62820" y="66.518399"/>
     <use style="fill:#1f77b4;stroke:#1f77b4;" x="223.701968" xlink:href="#mf84af62820" y="46.30287"/>
     <use style="fill:#1f77b4;stroke:#1f77b4;" x="224.443188" xlink:href="#mf84af62820" y="102.002881"/>
     <use style="fill:#1f77b4;stroke:#1f77b4;" x="225.184408" xlink:href="#mf84af62820" y="133.104725"/>
     <use style="fill:#1f77b4;stroke:#1f77b4;" x="225.925629" xlink:href="#mf84af62820" y="33.730486"/>
     <use style="fill:#1f77b4;stroke:#1f77b4;" x="226.666849" xlink:href="#mf84af62820" y="52.856587"/>
     <use style="fill:#1f77b4;stroke:#1f77b4;" x="227.40807" xlink:href="#mf84af62820" y="33.158243"/>
     <use style="fill:#1f77b4;stroke:#1f77b4;" x="228.14929" xlink:href="#mf84af62820" y="49.354138"/>
     <use style="fill:#1f77b4;stroke:#1f77b4;" x="228.890511" xlink:href="#mf84af62820" y="41.381562"/>
     <use style="fill:#1f77b4;stroke:#1f77b4;" x="229.631731" xlink:href="#mf84af62820" y="72.930422"/>
     <use style="fill:#1f77b4;stroke:#1f77b4;" x="230.372951" xlink:href="#mf84af62820" y="49.28048"/>
     <use style="fill:#1f77b4;stroke:#1f77b4;" x="231.114172" xlink:href="#mf84af62820" y="142.965729"/>
     <use style="fill:#1f77b4;stroke:#1f77b4;" x="231.855392" xlink:href="#mf84af62820" y="38.614734"/>
     <use style="fill:#1f77b4;stroke:#1f77b4;" x="232.596613" xlink:href="#mf84af62820" y="38.839913"/>
     <use style="fill:#1f77b4;stroke:#1f77b4;" x="233.337833" xlink:href="#mf84af62820" y="101.862555"/>
     <use style="fill:#1f77b4;stroke:#1f77b4;" x="234.079054" xlink:href="#mf84af62820" y="40.381391"/>
     <use style="fill:#1f77b4;stroke:#1f77b4;" x="234.820274" xlink:href="#mf84af62820" y="38.572471"/>
     <use style="fill:#1f77b4;stroke:#1f77b4;" x="235.561494" xlink:href="#mf84af62820" y="46.958875"/>
     <use style="fill:#1f77b4;stroke:#1f77b4;" x="236.302715" xlink:href="#mf84af62820" y="133.2685"/>
     <use style="fill:#1f77b4;stroke:#1f77b4;" x="237.043935" xlink:href="#mf84af62820" y="40.462221"/>
     <use style="fill:#1f77b4;stroke:#1f77b4;" x="237.785156" xlink:href="#mf84af62820" y="70.015063"/>
     <use style="fill:#1f77b4;stroke:#1f77b4;" x="238.526376" xlink:href="#mf84af62820" y="47.538741"/>
     <use style="fill:#1f77b4;stroke:#1f77b4;" x="239.267597" xlink:href="#mf84af62820" y="115.47407"/>
     <use style="fill:#1f77b4;stroke:#1f77b4;" x="240.008817" xlink:href="#mf84af62820" y="68.528124"/>
     <use style="fill:#1f77b4;stroke:#1f77b4;" x="240.750037" xlink:href="#mf84af62820" y="29.385442"/>
     <use style="fill:#1f77b4;stroke:#1f77b4;" x="241.491258" xlink:href="#mf84af62820" y="42.139284"/>
     <use style="fill:#1f77b4;stroke:#1f77b4;" x="242.232478" xlink:href="#mf84af62820" y="39.59631"/>
     <use style="fill:#1f77b4;stroke:#1f77b4;" x="242.973699" xlink:href="#mf84af62820" y="66.63034"/>
     <use style="fill:#1f77b4;stroke:#1f77b4;" x="243.714919" xlink:href="#mf84af62820" y="46.382646"/>
     <use style="fill:#1f77b4;stroke:#1f77b4;" x="244.456139" xlink:href="#mf84af62820" y="103.396745"/>
     <use style="fill:#1f77b4;stroke:#1f77b4;" x="245.19736" xlink:href="#mf84af62820" y="116.690289"/>
     <use style="fill:#1f77b4;stroke:#1f77b4;" x="245.93858" xlink:href="#mf84af62820" y="32.732886"/>
     <use style="fill:#1f77b4;stroke:#1f77b4;" x="246.679801" xlink:href="#mf84af62820" y="49.497127"/>
     <use style="fill:#1f77b4;stroke:#1f77b4;" x="247.421021" xlink:href="#mf84af62820" y="32.2788"/>
     <use style="fill:#1f77b4;stroke:#1f77b4;" x="248.162242" xlink:href="#mf84af62820" y="49.850673"/>
     <use style="fill:#1f77b4;stroke:#1f77b4;" x="248.903462" xlink:href="#mf84af62820" y="33.507002"/>
     <use style="fill:#1f77b4;stroke:#1f77b4;" x="249.644682" xlink:href="#mf84af62820" y="34.136775"/>
     <use style="fill:#1f77b4;stroke:#1f77b4;" x="250.385903" xlink:href="#mf84af62820" y="56.018182"/>
     <use style="fill:#1f77b4;stroke:#1f77b4;" x="251.127123" xlink:href="#mf84af62820" y="33.323952"/>
     <use style="fill:#1f77b4;stroke:#1f77b4;" x="251.868344" xlink:href="#mf84af62820" y="50.087811"/>
     <use style="fill:#1f77b4;stroke:#1f77b4;" x="252.609564" xlink:href="#mf84af62820" y="261.216"/>
     <use style="fill:#1f77b4;stroke:#1f77b4;" x="253.350785" xlink:href="#mf84af62820" y="46.843686"/>
     <use style="fill:#1f77b4;stroke:#1f77b4;" x="254.092005" xlink:href="#mf84af62820" y="112.344481"/>
     <use style="fill:#1f77b4;stroke:#1f77b4;" x="254.833225" xlink:href="#mf84af62820" y="73.848432"/>
     <use style="fill:#1f77b4;stroke:#1f77b4;" x="255.574446" xlink:href="#mf84af62820" y="29.349675"/>
     <use style="fill:#1f77b4;stroke:#1f77b4;" x="256.315666" xlink:href="#mf84af62820" y="42.349034"/>
     <use style="fill:#1f77b4;stroke:#1f77b4;" x="257.056887" xlink:href="#mf84af62820" y="39.65518"/>
     <use style="fill:#1f77b4;stroke:#1f77b4;" x="257.798107" xlink:href="#mf84af62820" y="66.827415"/>
     <use style="fill:#1f77b4;stroke:#1f77b4;" x="258.539328" xlink:href="#mf84af62820" y="46.426191"/>
     <use style="fill:#1f77b4;stroke:#1f77b4;" x="259.280548" xlink:href="#mf84af62820" y="103.229353"/>
     <use style="fill:#1f77b4;stroke:#1f77b4;" x="260.021768" xlink:href="#mf84af62820" y="119.010478"/>
     <use style="fill:#1f77b4;stroke:#1f77b4;" x="260.762989" xlink:href="#mf84af62820" y="32.983073"/>
     <use style="fill:#1f77b4;stroke:#1f77b4;" x="261.504209" xlink:href="#mf84af62820" y="50.332218"/>
     <use style="fill:#1f77b4;stroke:#1f77b4;" x="262.24543" xlink:href="#mf84af62820" y="32.492222"/>
     <use style="fill:#1f77b4;stroke:#1f77b4;" x="262.98665" xlink:href="#mf84af62820" y="49.169795"/>
     <use style="fill:#1f77b4;stroke:#1f77b4;" x="263.72787" xlink:href="#mf84af62820" y="43.355468"/>
     <use style="fill:#1f77b4;stroke:#1f77b4;" x="264.469091" xlink:href="#mf84af62820" y="59.969638"/>
     <use style="fill:#1f77b4;stroke:#1f77b4;" x="265.210311" xlink:href="#mf84af62820" y="36.646807"/>
     <use style="fill:#1f77b4;stroke:#1f77b4;" x="265.951532" xlink:href="#mf84af62820" y="60.990141"/>
     <use style="fill:#1f77b4;stroke:#1f77b4;" x="266.692752" xlink:href="#mf84af62820" y="62.670116"/>
     <use style="fill:#1f77b4;stroke:#1f77b4;" x="267.433973" xlink:href="#mf84af62820" y="47.892939"/>
     <use style="fill:#1f77b4;stroke:#1f77b4;" x="268.175193" xlink:href="#mf84af62820" y="41.84985"/>
     <use style="fill:#1f77b4;stroke:#1f77b4;" x="268.916413" xlink:href="#mf84af62820" y="79.415388"/>
     <use style="fill:#1f77b4;stroke:#1f77b4;" x="269.657634" xlink:href="#mf84af62820" y="61.151738"/>
     <use style="fill:#1f77b4;stroke:#1f77b4;" x="270.398854" xlink:href="#mf84af62820" y="55.498217"/>
     <use style="fill:#1f77b4;stroke:#1f77b4;" x="271.140075" xlink:href="#mf84af62820" y="85.215918"/>
     <use style="fill:#1f77b4;stroke:#1f77b4;" x="271.881295" xlink:href="#mf84af62820" y="58.347397"/>
     <use style="fill:#1f77b4;stroke:#1f77b4;" x="272.622516" xlink:href="#mf84af62820" y="42.831654"/>
     <use style="fill:#1f77b4;stroke:#1f77b4;" x="273.363736" xlink:href="#mf84af62820" y="94.592147"/>
     <use style="fill:#1f77b4;stroke:#1f77b4;" x="274.104956" xlink:href="#mf84af62820" y="38.927494"/>
     <use style="fill:#1f77b4;stroke:#1f77b4;" x="274.846177" xlink:href="#mf84af62820" y="69.307736"/>
     <use style="fill:#1f77b4;stroke:#1f77b4;" x="275.587397" xlink:href="#mf84af62820" y="35.254329"/>
     <use style="fill:#1f77b4;stroke:#1f77b4;" x="276.328618" xlink:href="#mf84af62820" y="54.087347"/>
     <use style="fill:#1f77b4;stroke:#1f77b4;" x="277.069838" xlink:href="#mf84af62820" y="42.731657"/>
     <use style="fill:#1f77b4;stroke:#1f77b4;" x="277.811059" xlink:href="#mf84af62820" y="79.523558"/>
     <use style="fill:#1f77b4;stroke:#1f77b4;" x="278.552279" xlink:href="#mf84af62820" y="54.588817"/>
     <use style="fill:#1f77b4;stroke:#1f77b4;" x="279.293499" xlink:href="#mf84af62820" y="124.231167"/>
     <use style="fill:#1f77b4;stroke:#1f77b4;" x="280.03472" xlink:href="#mf84af62820" y="36.083382"/>
     <use style="fill:#1f77b4;stroke:#1f77b4;" x="280.77594" xlink:href="#mf84af62820" y="54.992074"/>
     <use style="fill:#1f77b4;stroke:#1f77b4;" x="281.517161" xlink:href="#mf84af62820" y="42.413551"/>
     <use style="fill:#1f77b4;stroke:#1f77b4;" x="282.258381" xlink:href="#mf84af62820" y="77.167788"/>
     <use style="fill:#1f77b4;stroke:#1f77b4;" x="282.999601" xlink:href="#mf84af62820" y="51.867007"/>
     <use style="fill:#1f77b4;stroke:#1f77b4;" x="283.740822" xlink:href="#mf84af62820" y="147.43299"/>
     <use style="fill:#1f77b4;stroke:#1f77b4;" x="284.482042" xlink:href="#mf84af62820" y="29.870357"/>
     <use style="fill:#1f77b4;stroke:#1f77b4;" x="285.223263" xlink:href="#mf84af62820" y="42.681864"/>
     <use style="fill:#1f77b4;stroke:#1f77b4;" x="285.964483" xlink:href="#mf84af62820" y="39.722758"/>
     <use style="fill:#1f77b4;stroke:#1f77b4;" x="286.705704" xlink:href="#mf84af62820" y="66.891627"/>
     <use style="fill:#1f77b4;stroke:#1f77b4;" x="287.446924" xlink:href="#mf84af62820" y="46.425515"/>
     <use style="fill:#1f77b4;stroke:#1f77b4;" x="288.188144" xlink:href="#mf84af62820" y="102.643701"/>
     <use style="fill:#1f77b4;stroke:#1f77b4;" x="288.929365" xlink:href="#mf84af62820" y="125.671463"/>
     <use style="fill:#1f77b4;stroke:#1f77b4;" x="289.670585" xlink:href="#mf84af62820" y="33.481326"/>
     <use style="fill:#1f77b4;stroke:#1f77b4;" x="290.411806" xlink:href="#mf84af62820" y="52.070627"/>
     <use style="fill:#1f77b4;stroke:#1f77b4;" x="291.153026" xlink:href="#mf84af62820" y="33.005048"/>
     <use style="fill:#1f77b4;stroke:#1f77b4;" x="291.894247" xlink:href="#mf84af62820" y="49.134233"/>
     <use style="fill:#1f77b4;stroke:#1f77b4;" x="292.635467" xlink:href="#mf84af62820" y="41.329029"/>
     <use style="fill:#1f77b4;stroke:#1f77b4;" x="293.376687" xlink:href="#mf84af62820" y="72.686638"/>
     <use style="fill:#1f77b4;stroke:#1f77b4;" x="294.117908" xlink:href="#mf84af62820" y="49.132311"/>
     <use style="fill:#1f77b4;stroke:#1f77b4;" x="294.859128" xlink:href="#mf84af62820" y="139.410199"/>
     <use style="fill:#1f77b4;stroke:#1f77b4;" x="295.600349" xlink:href="#mf84af62820" y="40.799362"/>
     <use style="fill:#1f77b4;stroke:#1f77b4;" x="296.341569" xlink:href="#mf84af62820" y="26.964288"/>
     <use style="fill:#1f77b4;stroke:#1f77b4;" x="297.08279" xlink:href="#mf84af62820" y="41.003363"/>
     <use style="fill:#1f77b4;stroke:#1f77b4;" x="297.82401" xlink:href="#mf84af62820" y="53.758039"/>
     <use style="fill:#1f77b4;stroke:#1f77b4;" x="298.56523" xlink:href="#mf84af62820" y="38.021551"/>
     <use style="fill:#1f77b4;stroke:#1f77b4;" x="299.306451" xlink:href="#mf84af62820" y="62.564575"/>
     <use style="fill:#1f77b4;stroke:#1f77b4;" x="300.047671" xlink:href="#mf84af62820" y="45.248967"/>
     <use style="fill:#1f77b4;stroke:#1f77b4;" x="300.788892" xlink:href="#mf84af62820" y="96.305493"/>
     <use style="fill:#1f77b4;stroke:#1f77b4;" x="301.530112" xlink:href="#mf84af62820" y="194.290845"/>
     <use style="fill:#1f77b4;stroke:#1f77b4;" x="302.271333" xlink:href="#mf84af62820" y="35.069169"/>
     <use style="fill:#1f77b4;stroke:#1f77b4;" x="303.012553" xlink:href="#mf84af62820" y="55.475569"/>
     <use style="fill:#1f77b4;stroke:#1f77b4;" x="303.753773" xlink:href="#mf84af62820" y="49.174838"/>
     <use style="fill:#1f77b4;stroke:#1f77b4;" x="304.494994" xlink:href="#mf84af62820" y="38.335782"/>
     <use style="fill:#1f77b4;stroke:#1f77b4;" x="305.236214" xlink:href="#mf84af62820" y="46.814552"/>
     <use style="fill:#1f77b4;stroke:#1f77b4;" x="305.977435" xlink:href="#mf84af62820" y="123.776626"/>
     <use style="fill:#1f77b4;stroke:#1f77b4;" x="306.718655" xlink:href="#mf84af62820" y="63.856059"/>
     <use style="fill:#1f77b4;stroke:#1f77b4;" x="307.459875" xlink:href="#mf84af62820" y="41.359626"/>
     <use style="fill:#1f77b4;stroke:#1f77b4;" x="308.201096" xlink:href="#mf84af62820" y="72.633089"/>
     <use style="fill:#1f77b4;stroke:#1f77b4;" x="308.942316" xlink:href="#mf84af62820" y="47.990554"/>
     <use style="fill:#1f77b4;stroke:#1f77b4;" x="309.683537" xlink:href="#mf84af62820" y="123.236776"/>
     <use style="fill:#1f77b4;stroke:#1f77b4;" x="310.424757" xlink:href="#mf84af62820" y="57.558628"/>
     <use style="fill:#1f77b4;stroke:#1f77b4;" x="311.165978" xlink:href="#mf84af62820" y="28.459419"/>
     <use style="fill:#1f77b4;stroke:#1f77b4;" x="311.907198" xlink:href="#mf84af62820" y="41.085999"/>
     <use style="fill:#1f77b4;stroke:#1f77b4;" x="312.648418" xlink:href="#mf84af62820" y="39.320172"/>
     <use style="fill:#1f77b4;stroke:#1f77b4;" x="313.389639" xlink:href="#mf84af62820" y="65.738337"/>
     <use style="fill:#1f77b4;stroke:#1f77b4;" x="314.130859" xlink:href="#mf84af62820" y="46.00511"/>
     <use style="fill:#1f77b4;stroke:#1f77b4;" x="314.87208" xlink:href="#mf84af62820" y="99.351703"/>
     <use style="fill:#1f77b4;stroke:#1f77b4;" x="315.6133" xlink:href="#mf84af62820" y="201.67493"/>
     <use style="fill:#1f77b4;stroke:#1f77b4;" x="316.354521" xlink:href="#mf84af62820" y="35.871732"/>
     <use style="fill:#1f77b4;stroke:#1f77b4;" x="317.095741" xlink:href="#mf84af62820" y="62.354748"/>
     <use style="fill:#1f77b4;stroke:#1f77b4;" x="317.836961" xlink:href="#mf84af62820" y="45.720881"/>
     <use style="fill:#1f77b4;stroke:#1f77b4;" x="318.578182" xlink:href="#mf84af62820" y="100.88448"/>
     <use style="fill:#1f77b4;stroke:#1f77b4;" x="319.319402" xlink:href="#mf84af62820" y="63.277393"/>
     <use style="fill:#1f77b4;stroke:#1f77b4;" x="320.060623" xlink:href="#mf84af62820" y="32.552512"/>
     <use style="fill:#1f77b4;stroke:#1f77b4;" x="320.801843" xlink:href="#mf84af62820" y="50.776836"/>
     <use style="fill:#1f77b4;stroke:#1f77b4;" x="321.543064" xlink:href="#mf84af62820" y="188.990302"/>
     <use style="fill:#1f77b4;stroke:#1f77b4;" x="322.284284" xlink:href="#mf84af62820" y="49.244169"/>
     <use style="fill:#1f77b4;stroke:#1f77b4;" x="323.025504" xlink:href="#mf84af62820" y="151.783884"/>
     <use style="fill:#1f77b4;stroke:#1f77b4;" x="323.766725" xlink:href="#mf84af62820" y="35.231705"/>
     <use style="fill:#1f77b4;stroke:#1f77b4;" x="324.507945" xlink:href="#mf84af62820" y="30.585501"/>
     <use style="fill:#1f77b4;stroke:#1f77b4;" x="325.249166" xlink:href="#mf84af62820" y="43.563027"/>
     <use style="fill:#1f77b4;stroke:#1f77b4;" x="325.990386" xlink:href="#mf84af62820" y="40.365878"/>
     <use style="fill:#1f77b4;stroke:#1f77b4;" x="326.731606" xlink:href="#mf84af62820" y="69.642563"/>
     <use style="fill:#1f77b4;stroke:#1f77b4;" x="327.472827" xlink:href="#mf84af62820" y="48.363486"/>
     <use style="fill:#1f77b4;stroke:#1f77b4;" x="328.214047" xlink:href="#mf84af62820" y="140.029015"/>
     <use style="fill:#1f77b4;stroke:#1f77b4;" x="328.955268" xlink:href="#mf84af62820" y="45.445761"/>
     <use style="fill:#1f77b4;stroke:#1f77b4;" x="329.696488" xlink:href="#mf84af62820" y="30.523576"/>
     <use style="fill:#1f77b4;stroke:#1f77b4;" x="330.437709" xlink:href="#mf84af62820" y="44.493487"/>
     <use style="fill:#1f77b4;stroke:#1f77b4;" x="331.178929" xlink:href="#mf84af62820" y="40.211875"/>
     <use style="fill:#1f77b4;stroke:#1f77b4;" x="331.920149" xlink:href="#mf84af62820" y="68.601368"/>
     <use style="fill:#1f77b4;stroke:#1f77b4;" x="332.66137" xlink:href="#mf84af62820" y="47.140357"/>
     <use style="fill:#1f77b4;stroke:#1f77b4;" x="333.40259" xlink:href="#mf84af62820" y="109.666586"/>
     <use style="fill:#1f77b4;stroke:#1f77b4;" x="334.143811" xlink:href="#mf84af62820" y="83.208046"/>
     <use style="fill:#1f77b4;stroke:#1f77b4;" x="334.885031" xlink:href="#mf84af62820" y="30.672865"/>
     <use style="fill:#1f77b4;stroke:#1f77b4;" x="335.626252" xlink:href="#mf84af62820" y="44.373081"/>
     <use style="fill:#1f77b4;stroke:#1f77b4;" x="336.367472" xlink:href="#mf84af62820" y="40.522302"/>
     <use style="fill:#1f77b4;stroke:#1f77b4;" x="337.108692" xlink:href="#mf84af62820" y="70.963831"/>
     <use style="fill:#1f77b4;stroke:#1f77b4;" x="337.849913" xlink:href="#mf84af62820" y="49.383484"/>
     <use style="fill:#1f77b4;stroke:#1f77b4;" x="338.591133" xlink:href="#mf84af62820" y="192.510556"/>
     <use style="fill:#1f77b4;stroke:#1f77b4;" x="339.332354" xlink:href="#mf84af62820" y="27.373797"/>
     <use style="fill:#1f77b4;stroke:#1f77b4;" x="340.073574" xlink:href="#mf84af62820" y="33.625506"/>
     <use style="fill:#1f77b4;stroke:#1f77b4;" x="340.814795" xlink:href="#mf84af62820" y="52.065643"/>
     <use style="fill:#1f77b4;stroke:#1f77b4;" x="341.556015" xlink:href="#mf84af62820" y="27.26851"/>
     <use style="fill:#1f77b4;stroke:#1f77b4;" x="342.297235" xlink:href="#mf84af62820" y="84.185673"/>
     <use style="fill:#1f77b4;stroke:#1f77b4;" x="343.038456" xlink:href="#mf84af62820" y="33.267835"/>
     <use style="fill:#1f77b4;stroke:#1f77b4;" x="343.779676" xlink:href="#mf84af62820" y="48.593346"/>
     <use style="fill:#1f77b4;stroke:#1f77b4;" x="344.520897" xlink:href="#mf84af62820" y="35.223979"/>
     <use style="fill:#1f77b4;stroke:#1f77b4;" x="345.262117" xlink:href="#mf84af62820" y="55.76098"/>
     <use style="fill:#1f77b4;stroke:#1f77b4;" x="346.003337" xlink:href="#mf84af62820" y="28.945616"/>
     <use style="fill:#1f77b4;stroke:#1f77b4;" x="346.744558" xlink:href="#mf84af62820" y="43.702178"/>
     <use style="fill:#1f77b4;stroke:#1f77b4;" x="347.485778" xlink:href="#mf84af62820" y="48.610012"/>
     <use style="fill:#1f77b4;stroke:#1f77b4;" x="348.226999" xlink:href="#mf84af62820" y="37.020169"/>
     <use style="fill:#1f77b4;stroke:#1f77b4;" x="348.968219" xlink:href="#mf84af62820" y="60.162695"/>
     <use style="fill:#1f77b4;stroke:#1f77b4;" x="349.70944" xlink:href="#mf84af62820" y="53.043351"/>
     <use style="fill:#1f77b4;stroke:#1f77b4;" x="350.45066" xlink:href="#mf84af62820" y="30.460587"/>
     <use style="fill:#1f77b4;stroke:#1f77b4;" x="351.19188" xlink:href="#mf84af62820" y="52.828895"/>
     <use style="fill:#1f77b4;stroke:#1f77b4;" x="351.933101" xlink:href="#mf84af62820" y="123.048283"/>
     <use style="fill:#1f77b4;stroke:#1f77b4;" x="352.674321" xlink:href="#mf84af62820" y="77.462461"/>
     <use style="fill:#1f77b4;stroke:#1f77b4;" x="353.415542" xlink:href="#mf84af62820" y="47.789491"/>
     <use style="fill:#1f77b4;stroke:#1f77b4;" x="354.156762" xlink:href="#mf84af62820" y="132.641705"/>
     <use style="fill:#1f77b4;stroke:#1f77b4;" x="354.897983" xlink:href="#mf84af62820" y="38.726235"/>
     <use style="fill:#1f77b4;stroke:#1f77b4;" x="355.639203" xlink:href="#mf84af62820" y="69.603906"/>
     <use style="fill:#1f77b4;stroke:#1f77b4;" x="356.380423" xlink:href="#mf84af62820" y="34.654503"/>
     <use style="fill:#1f77b4;stroke:#1f77b4;" x="357.121644" xlink:href="#mf84af62820" y="53.133843"/>
     <use style="fill:#1f77b4;stroke:#1f77b4;" x="357.862864" xlink:href="#mf84af62820" y="42.309653"/>
     <use style="fill:#1f77b4;stroke:#1f77b4;" x="358.604085" xlink:href="#mf84af62820" y="76.70492"/>
     <use style="fill:#1f77b4;stroke:#1f77b4;" x="359.345305" xlink:href="#mf84af62820" y="51.665858"/>
     <use style="fill:#1f77b4;stroke:#1f77b4;" x="360.086526" xlink:href="#mf84af62820" y="147.9827"/>
     <use style="fill:#1f77b4;stroke:#1f77b4;" x="360.827746" xlink:href="#mf84af62820" y="29.678774"/>
     <use style="fill:#1f77b4;stroke:#1f77b4;" x="361.568966" xlink:href="#mf84af62820" y="42.689759"/>
     <use style="fill:#1f77b4;stroke:#1f77b4;" x="362.310187" xlink:href="#mf84af62820" y="39.750355"/>
     <use style="fill:#1f77b4;stroke:#1f77b4;" x="363.051407" xlink:href="#mf84af62820" y="67.06938"/>
     <use style="fill:#1f77b4;stroke:#1f77b4;" x="363.792628" xlink:href="#mf84af62820" y="46.513843"/>
     <use style="fill:#1f77b4;stroke:#1f77b4;" x="364.533848" xlink:href="#mf84af62820" y="103.329641"/>
     <use style="fill:#1f77b4;stroke:#1f77b4;" x="365.275068" xlink:href="#mf84af62820" y="118.720919"/>
     <use style="fill:#1f77b4;stroke:#1f77b4;" x="366.016289" xlink:href="#mf84af62820" y="33.098124"/>
     <use style="fill:#1f77b4;stroke:#1f77b4;" x="366.757509" xlink:href="#mf84af62820" y="50.783682"/>
     <use style="fill:#1f77b4;stroke:#1f77b4;" x="367.49873" xlink:href="#mf84af62820" y="32.65697"/>
     <use style="fill:#1f77b4;stroke:#1f77b4;" x="368.23995" xlink:href="#mf84af62820" y="48.956701"/>
     <use style="fill:#1f77b4;stroke:#1f77b4;" x="368.981171" xlink:href="#mf84af62820" y="47.246473"/>
     <use style="fill:#1f77b4;stroke:#1f77b4;" x="369.722391" xlink:href="#mf84af62820" y="43.519693"/>
     <use style="fill:#1f77b4;stroke:#1f77b4;" x="370.463611" xlink:href="#mf84af62820" y="33.310273"/>
     <use style="fill:#1f77b4;stroke:#1f77b4;" x="371.204832" xlink:href="#mf84af62820" y="49.827705"/>
     <use style="fill:#1f77b4;stroke:#1f77b4;" x="371.338861" xlink:href="#mf84af62820" y="22383.514"/>
    </g>
   </g>
   <g id="line2d_25">
    <path clip-path="url(#pd0b4a09236)" d="M 111.777684 31.463667 
L 113.260125 40.540298 
L 114.742565 47.822019 
" style="fill:none;stroke:#2ca02c;stroke-dasharray:1.5,2.475;stroke-dashoffset:0;stroke-width:1.5;"/>
    <defs>
     <path d="M -3 3 
L 3 -3 
M -3 -3 
L 3 3 
" id="m0abf5bb4c6" style="stroke:#2ca02c;"/>
    </defs>
    <g clip-path="url(#pd0b4a09236)">
     <use style="fill:#2ca02c;stroke:#2ca02c;" x="111.777684" xlink:href="#m0abf5bb4c6" y="31.463667"/>
     <use style="fill:#2ca02c;stroke:#2ca02c;" x="113.260125" xlink:href="#m0abf5bb4c6" y="40.540298"/>
     <use style="fill:#2ca02c;stroke:#2ca02c;" x="114.742565" xlink:href="#m0abf5bb4c6" y="47.822019"/>
    </g>
   </g>
   <g id="line2d_26">
    <path clip-path="url(#pd0b4a09236)" d="M 48.773948 291.481334 
L 52.468989 311.86825 
L 52.468989 311.86825 
" style="fill:none;stroke:#000000;stroke-dasharray:5.55,2.4;stroke-dashoffset:0;stroke-width:1.5;"/>
   </g>
   <g id="patch_3">
    <path d="M 31.8 273.312 
L 31.8 7.2 
" style="fill:none;stroke:#000000;stroke-linecap:square;stroke-linejoin:miter;stroke-width:0.8;"/>
   </g>
   <g id="patch_4">
    <path d="M 388.92 273.312 
L 388.92 7.2 
" style="fill:none;stroke:#000000;stroke-linecap:square;stroke-linejoin:miter;stroke-width:0.8;"/>
   </g>
   <g id="patch_5">
    <path d="M 31.8 273.312 
L 388.92 273.312 
" style="fill:none;stroke:#000000;stroke-linecap:square;stroke-linejoin:miter;stroke-width:0.8;"/>
   </g>
   <g id="patch_6">
    <path d="M 31.8 7.2 
L 388.92 7.2 
" style="fill:none;stroke:#000000;stroke-linecap:square;stroke-linejoin:miter;stroke-width:0.8;"/>
   </g>
   <g id="legend_1">
    <g id="patch_7">
     <path d="M 38.8 268.312 
L 139.9 268.312 
Q 141.9 268.312 141.9 266.312 
L 141.9 223.25575 
Q 141.9 221.25575 139.9 221.25575 
L 38.8 221.25575 
Q 36.8 221.25575 36.8 223.25575 
L 36.8 266.312 
Q 36.8 268.312 38.8 268.312 
z
" style="fill:#ffffff;opacity:0.8;"/>
    </g>
    <g id="line2d_27">
     <path d="M 40.8 229.354187 
L 60.8 229.354187 
" style="fill:none;stroke:#1f77b4;stroke-linecap:square;stroke-width:1.5;"/>
    </g>
    <g id="line2d_28">
     <g>
      <use style="fill:#1f77b4;stroke:#1f77b4;" x="50.8" xlink:href="#mf84af62820" y="229.354187"/>
     </g>
    </g>
    <g id="text_9">
     <!-- APD$_n$ - APD$_\infty$ -->
     <defs>
      <path d="M 34.1875 63.1875 
L 20.796875 26.90625 
L 47.609375 26.90625 
z
M 28.609375 72.90625 
L 39.796875 72.90625 
L 67.578125 0 
L 57.328125 0 
L 50.6875 18.703125 
L 17.828125 18.703125 
L 11.1875 0 
L 0.78125 0 
z
" id="DejaVuSans-65"/>
      <path d="M 19.671875 64.796875 
L 19.671875 37.40625 
L 32.078125 37.40625 
Q 38.96875 37.40625 42.71875 40.96875 
Q 46.484375 44.53125 46.484375 51.125 
Q 46.484375 57.671875 42.71875 61.234375 
Q 38.96875 64.796875 32.078125 64.796875 
z
M 9.8125 72.90625 
L 32.078125 72.90625 
Q 44.34375 72.90625 50.609375 67.359375 
Q 56.890625 61.8125 56.890625 51.125 
Q 56.890625 40.328125 50.609375 34.8125 
Q 44.34375 29.296875 32.078125 29.296875 
L 19.671875 29.296875 
L 19.671875 0 
L 9.8125 0 
z
" id="DejaVuSans-80"/>
      <path d="M 19.671875 64.796875 
L 19.671875 8.109375 
L 31.59375 8.109375 
Q 46.6875 8.109375 53.6875 14.9375 
Q 60.6875 21.78125 60.6875 36.53125 
Q 60.6875 51.171875 53.6875 57.984375 
Q 46.6875 64.796875 31.59375 64.796875 
z
M 9.8125 72.90625 
L 30.078125 72.90625 
Q 51.265625 72.90625 61.171875 64.09375 
Q 71.09375 55.28125 71.09375 36.53125 
Q 71.09375 17.671875 61.125 8.828125 
Q 51.171875 0 30.078125 0 
L 9.8125 0 
z
" id="DejaVuSans-68"/>
      <path d="M 55.71875 33.015625 
L 49.3125 0 
L 40.28125 0 
L 46.6875 32.671875 
Q 47.125 34.96875 47.359375 36.71875 
Q 47.609375 38.484375 47.609375 39.5 
Q 47.609375 43.609375 45.015625 45.890625 
Q 42.4375 48.1875 37.796875 48.1875 
Q 30.5625 48.1875 25.34375 43.375 
Q 20.125 38.578125 18.5 30.328125 
L 12.5 0 
L 3.515625 0 
L 14.109375 54.6875 
L 23.09375 54.6875 
L 21.296875 46.09375 
Q 25.046875 50.828125 30.3125 53.40625 
Q 35.59375 56 41.40625 56 
Q 48.640625 56 52.609375 52.09375 
Q 56.59375 48.1875 56.59375 41.109375 
Q 56.59375 39.359375 56.375 37.359375 
Q 56.15625 35.359375 55.71875 33.015625 
z
" id="DejaVuSans-Oblique-110"/>
      <path id="DejaVuSans-32"/>
      <path d="M 4.890625 31.390625 
L 31.203125 31.390625 
L 31.203125 23.390625 
L 4.890625 23.390625 
z
" id="DejaVuSans-45"/>
      <path d="M 45.5625 17.046875 
Q 44.046875 18.796875 41.65625 22.90625 
Q 38.375 17.046875 35.5 14.453125 
Q 31.890625 11.328125 26.265625 11.328125 
Q 19.671875 11.328125 15.328125 16.265625 
Q 10.75 21.4375 10.75 29.984375 
Q 10.75 38.1875 15.328125 43.75 
Q 19.4375 48.6875 26.375 48.6875 
Q 29.9375 48.6875 32.5625 47.21875 
Q 35.640625 45.609375 37.75 42.828125 
Q 39.703125 40.328125 41.65625 36.96875 
Q 44.921875 42.828125 47.796875 45.40625 
Q 51.421875 48.53125 57.03125 48.53125 
Q 63.625 48.53125 67.96875 43.609375 
Q 72.5625 38.421875 72.5625 29.890625 
Q 72.5625 21.6875 67.96875 16.109375 
Q 63.875 11.1875 56.9375 11.1875 
Q 53.375 11.1875 50.734375 12.640625 
Q 48.09375 13.96875 45.5625 17.046875 
z
M 25.734375 17.71875 
Q 33.796875 17.71875 38.625 29.4375 
Q 32.421875 42.234375 25.734375 42.234375 
Q 20.84375 42.234375 18.359375 38.71875 
Q 15.671875 34.96875 15.671875 29.984375 
Q 15.671875 24.515625 18.359375 21.140625 
Q 21.09375 17.71875 25.734375 17.71875 
z
M 57.5625 42.140625 
Q 50.296875 42.140625 44.671875 30.421875 
Q 50.828125 17.625 57.5625 17.625 
Q 62.453125 17.625 64.9375 21.140625 
Q 67.625 24.90625 67.625 29.890625 
Q 67.625 35.359375 64.9375 38.71875 
Q 62.203125 42.140625 57.5625 42.140625 
z
" id="DejaVuSans-8734"/>
     </defs>
     <g transform="translate(68.8 232.854187)scale(0.1 -0.1)">
      <use transform="translate(0 0.09375)" xlink:href="#DejaVuSans-65"/>
      <use transform="translate(68.408203 0.09375)" xlink:href="#DejaVuSans-80"/>
      <use transform="translate(128.710938 0.09375)" xlink:href="#DejaVuSans-68"/>
      <use transform="translate(206.669922 -16.3125)scale(0.7)" xlink:href="#DejaVuSans-Oblique-110"/>
      <use transform="translate(253.769531 0.09375)" xlink:href="#DejaVuSans-32"/>
      <use transform="translate(285.556641 0.09375)" xlink:href="#DejaVuSans-45"/>
      <use transform="translate(321.640625 0.09375)" xlink:href="#DejaVuSans-32"/>
      <use transform="translate(353.427734 0.09375)" xlink:href="#DejaVuSans-65"/>
      <use transform="translate(421.835938 0.09375)" xlink:href="#DejaVuSans-80"/>
      <use transform="translate(482.138672 0.09375)" xlink:href="#DejaVuSans-68"/>
      <use transform="translate(560.097656 -16.3125)scale(0.7)" xlink:href="#DejaVuSans-8734"/>
     </g>
    </g>
    <g id="line2d_29">
     <path d="M 40.8 244.032312 
L 60.8 244.032312 
" style="fill:none;stroke:#2ca02c;stroke-dasharray:1.5,2.475;stroke-dashoffset:0;stroke-width:1.5;"/>
    </g>
    <g id="line2d_30">
     <g>
      <use style="fill:#2ca02c;stroke:#2ca02c;" x="50.8" xlink:href="#m0abf5bb4c6" y="244.032312"/>
     </g>
    </g>
    <g id="text_10">
     <!-- linear region -->
     <defs>
      <path d="M 9.421875 75.984375 
L 18.40625 75.984375 
L 18.40625 0 
L 9.421875 0 
z
" id="DejaVuSans-108"/>
      <path d="M 9.421875 54.6875 
L 18.40625 54.6875 
L 18.40625 0 
L 9.421875 0 
z
M 9.421875 75.984375 
L 18.40625 75.984375 
L 18.40625 64.59375 
L 9.421875 64.59375 
z
" id="DejaVuSans-105"/>
      <path d="M 54.890625 33.015625 
L 54.890625 0 
L 45.90625 0 
L 45.90625 32.71875 
Q 45.90625 40.484375 42.875 44.328125 
Q 39.84375 48.1875 33.796875 48.1875 
Q 26.515625 48.1875 22.3125 43.546875 
Q 18.109375 38.921875 18.109375 30.90625 
L 18.109375 0 
L 9.078125 0 
L 9.078125 54.6875 
L 18.109375 54.6875 
L 18.109375 46.1875 
Q 21.34375 51.125 25.703125 53.5625 
Q 30.078125 56 35.796875 56 
Q 45.21875 56 50.046875 50.171875 
Q 54.890625 44.34375 54.890625 33.015625 
z
" id="DejaVuSans-110"/>
      <path d="M 56.203125 29.59375 
L 56.203125 25.203125 
L 14.890625 25.203125 
Q 15.484375 15.921875 20.484375 11.0625 
Q 25.484375 6.203125 34.421875 6.203125 
Q 39.59375 6.203125 44.453125 7.46875 
Q 49.3125 8.734375 54.109375 11.28125 
L 54.109375 2.78125 
Q 49.265625 0.734375 44.1875 -0.34375 
Q 39.109375 -1.421875 33.890625 -1.421875 
Q 20.796875 -1.421875 13.15625 6.1875 
Q 5.515625 13.8125 5.515625 26.8125 
Q 5.515625 40.234375 12.765625 48.109375 
Q 20.015625 56 32.328125 56 
Q 43.359375 56 49.78125 48.890625 
Q 56.203125 41.796875 56.203125 29.59375 
z
M 47.21875 32.234375 
Q 47.125 39.59375 43.09375 43.984375 
Q 39.0625 48.390625 32.421875 48.390625 
Q 24.90625 48.390625 20.390625 44.140625 
Q 15.875 39.890625 15.1875 32.171875 
z
" id="DejaVuSans-101"/>
      <path d="M 34.28125 27.484375 
Q 23.390625 27.484375 19.1875 25 
Q 14.984375 22.515625 14.984375 16.5 
Q 14.984375 11.71875 18.140625 8.90625 
Q 21.296875 6.109375 26.703125 6.109375 
Q 34.1875 6.109375 38.703125 11.40625 
Q 43.21875 16.703125 43.21875 25.484375 
L 43.21875 27.484375 
z
M 52.203125 31.203125 
L 52.203125 0 
L 43.21875 0 
L 43.21875 8.296875 
Q 40.140625 3.328125 35.546875 0.953125 
Q 30.953125 -1.421875 24.3125 -1.421875 
Q 15.921875 -1.421875 10.953125 3.296875 
Q 6 8.015625 6 15.921875 
Q 6 25.140625 12.171875 29.828125 
Q 18.359375 34.515625 30.609375 34.515625 
L 43.21875 34.515625 
L 43.21875 35.40625 
Q 43.21875 41.609375 39.140625 45 
Q 35.0625 48.390625 27.6875 48.390625 
Q 23 48.390625 18.546875 47.265625 
Q 14.109375 46.140625 10.015625 43.890625 
L 10.015625 52.203125 
Q 14.9375 54.109375 19.578125 55.046875 
Q 24.21875 56 28.609375 56 
Q 40.484375 56 46.34375 49.84375 
Q 52.203125 43.703125 52.203125 31.203125 
z
" id="DejaVuSans-97"/>
      <path d="M 41.109375 46.296875 
Q 39.59375 47.171875 37.8125 47.578125 
Q 36.03125 48 33.890625 48 
Q 26.265625 48 22.1875 43.046875 
Q 18.109375 38.09375 18.109375 28.8125 
L 18.109375 0 
L 9.078125 0 
L 9.078125 54.6875 
L 18.109375 54.6875 
L 18.109375 46.1875 
Q 20.953125 51.171875 25.484375 53.578125 
Q 30.03125 56 36.53125 56 
Q 37.453125 56 38.578125 55.875 
Q 39.703125 55.765625 41.0625 55.515625 
z
" id="DejaVuSans-114"/>
      <path d="M 45.40625 27.984375 
Q 45.40625 37.75 41.375 43.109375 
Q 37.359375 48.484375 30.078125 48.484375 
Q 22.859375 48.484375 18.828125 43.109375 
Q 14.796875 37.75 14.796875 27.984375 
Q 14.796875 18.265625 18.828125 12.890625 
Q 22.859375 7.515625 30.078125 7.515625 
Q 37.359375 7.515625 41.375 12.890625 
Q 45.40625 18.265625 45.40625 27.984375 
z
M 54.390625 6.78125 
Q 54.390625 -7.171875 48.1875 -13.984375 
Q 42 -20.796875 29.203125 -20.796875 
Q 24.46875 -20.796875 20.265625 -20.09375 
Q 16.0625 -19.390625 12.109375 -17.921875 
L 12.109375 -9.1875 
Q 16.0625 -11.328125 19.921875 -12.34375 
Q 23.78125 -13.375 27.78125 -13.375 
Q 36.625 -13.375 41.015625 -8.765625 
Q 45.40625 -4.15625 45.40625 5.171875 
L 45.40625 9.625 
Q 42.625 4.78125 38.28125 2.390625 
Q 33.9375 0 27.875 0 
Q 17.828125 0 11.671875 7.65625 
Q 5.515625 15.328125 5.515625 27.984375 
Q 5.515625 40.671875 11.671875 48.328125 
Q 17.828125 56 27.875 56 
Q 33.9375 56 38.28125 53.609375 
Q 42.625 51.21875 45.40625 46.390625 
L 45.40625 54.6875 
L 54.390625 54.6875 
z
" id="DejaVuSans-103"/>
      <path d="M 30.609375 48.390625 
Q 23.390625 48.390625 19.1875 42.75 
Q 14.984375 37.109375 14.984375 27.296875 
Q 14.984375 17.484375 19.15625 11.84375 
Q 23.34375 6.203125 30.609375 6.203125 
Q 37.796875 6.203125 41.984375 11.859375 
Q 46.1875 17.53125 46.1875 27.296875 
Q 46.1875 37.015625 41.984375 42.703125 
Q 37.796875 48.390625 30.609375 48.390625 
z
M 30.609375 56 
Q 42.328125 56 49.015625 48.375 
Q 55.71875 40.765625 55.71875 27.296875 
Q 55.71875 13.875 49.015625 6.21875 
Q 42.328125 -1.421875 30.609375 -1.421875 
Q 18.84375 -1.421875 12.171875 6.21875 
Q 5.515625 13.875 5.515625 27.296875 
Q 5.515625 40.765625 12.171875 48.375 
Q 18.84375 56 30.609375 56 
z
" id="DejaVuSans-111"/>
     </defs>
     <g transform="translate(68.8 247.532312)scale(0.1 -0.1)">
      <use xlink:href="#DejaVuSans-108"/>
      <use x="27.783203" xlink:href="#DejaVuSans-105"/>
      <use x="55.566406" xlink:href="#DejaVuSans-110"/>
      <use x="118.945312" xlink:href="#DejaVuSans-101"/>
      <use x="180.46875" xlink:href="#DejaVuSans-97"/>
      <use x="241.748047" xlink:href="#DejaVuSans-114"/>
      <use x="282.861328" xlink:href="#DejaVuSans-32"/>
      <use x="314.648438" xlink:href="#DejaVuSans-114"/>
      <use x="353.511719" xlink:href="#DejaVuSans-101"/>
      <use x="415.035156" xlink:href="#DejaVuSans-103"/>
      <use x="478.511719" xlink:href="#DejaVuSans-105"/>
      <use x="506.294922" xlink:href="#DejaVuSans-111"/>
      <use x="567.476562" xlink:href="#DejaVuSans-110"/>
     </g>
    </g>
    <g id="line2d_31">
     <path d="M 40.8 258.712 
L 60.8 258.712 
" style="fill:none;stroke:#000000;stroke-dasharray:5.55,2.4;stroke-dashoffset:0;stroke-width:1.5;"/>
    </g>
    <g id="line2d_32"/>
    <g id="text_11">
     <!-- $ \exp(-0.076 k)$ -->
     <defs>
      <path d="M 54.890625 54.6875 
L 35.109375 28.078125 
L 55.90625 0 
L 45.3125 0 
L 29.390625 21.484375 
L 13.484375 0 
L 2.875 0 
L 24.125 28.609375 
L 4.6875 54.6875 
L 15.28125 54.6875 
L 29.78125 35.203125 
L 44.28125 54.6875 
z
" id="DejaVuSans-120"/>
      <path d="M 18.109375 8.203125 
L 18.109375 -20.796875 
L 9.078125 -20.796875 
L 9.078125 54.6875 
L 18.109375 54.6875 
L 18.109375 46.390625 
Q 20.953125 51.265625 25.265625 53.625 
Q 29.59375 56 35.59375 56 
Q 45.5625 56 51.78125 48.09375 
Q 58.015625 40.1875 58.015625 27.296875 
Q 58.015625 14.40625 51.78125 6.484375 
Q 45.5625 -1.421875 35.59375 -1.421875 
Q 29.59375 -1.421875 25.265625 0.953125 
Q 20.953125 3.328125 18.109375 8.203125 
z
M 48.6875 27.296875 
Q 48.6875 37.203125 44.609375 42.84375 
Q 40.53125 48.484375 33.40625 48.484375 
Q 26.265625 48.484375 22.1875 42.84375 
Q 18.109375 37.203125 18.109375 27.296875 
Q 18.109375 17.390625 22.1875 11.75 
Q 26.265625 6.109375 33.40625 6.109375 
Q 40.53125 6.109375 44.609375 11.75 
Q 48.6875 17.390625 48.6875 27.296875 
z
" id="DejaVuSans-112"/>
      <path d="M 31 75.875 
Q 24.46875 64.65625 21.28125 53.65625 
Q 18.109375 42.671875 18.109375 31.390625 
Q 18.109375 20.125 21.3125 9.0625 
Q 24.515625 -2 31 -13.1875 
L 23.1875 -13.1875 
Q 15.875 -1.703125 12.234375 9.375 
Q 8.59375 20.453125 8.59375 31.390625 
Q 8.59375 42.28125 12.203125 53.3125 
Q 15.828125 64.359375 23.1875 75.875 
z
" id="DejaVuSans-40"/>
      <path d="M 10.59375 35.5 
L 73.1875 35.5 
L 73.1875 27.203125 
L 10.59375 27.203125 
z
" id="DejaVuSans-8722"/>
      <path d="M 10.6875 12.40625 
L 21 12.40625 
L 21 0 
L 10.6875 0 
z
" id="DejaVuSans-46"/>
      <path d="M 8.203125 72.90625 
L 55.078125 72.90625 
L 55.078125 68.703125 
L 28.609375 0 
L 18.3125 0 
L 43.21875 64.59375 
L 8.203125 64.59375 
z
" id="DejaVuSans-55"/>
      <path d="M 33.015625 40.375 
Q 26.375 40.375 22.484375 35.828125 
Q 18.609375 31.296875 18.609375 23.390625 
Q 18.609375 15.53125 22.484375 10.953125 
Q 26.375 6.390625 33.015625 6.390625 
Q 39.65625 6.390625 43.53125 10.953125 
Q 47.40625 15.53125 47.40625 23.390625 
Q 47.40625 31.296875 43.53125 35.828125 
Q 39.65625 40.375 33.015625 40.375 
z
M 52.59375 71.296875 
L 52.59375 62.3125 
Q 48.875 64.0625 45.09375 64.984375 
Q 41.3125 65.921875 37.59375 65.921875 
Q 27.828125 65.921875 22.671875 59.328125 
Q 17.53125 52.734375 16.796875 39.40625 
Q 19.671875 43.65625 24.015625 45.921875 
Q 28.375 48.1875 33.59375 48.1875 
Q 44.578125 48.1875 50.953125 41.515625 
Q 57.328125 34.859375 57.328125 23.390625 
Q 57.328125 12.15625 50.6875 5.359375 
Q 44.046875 -1.421875 33.015625 -1.421875 
Q 20.359375 -1.421875 13.671875 8.265625 
Q 6.984375 17.96875 6.984375 36.375 
Q 6.984375 53.65625 15.1875 63.9375 
Q 23.390625 74.21875 37.203125 74.21875 
Q 40.921875 74.21875 44.703125 73.484375 
Q 48.484375 72.75 52.59375 71.296875 
z
" id="DejaVuSans-54"/>
      <path d="M 8.015625 75.875 
L 15.828125 75.875 
Q 23.140625 64.359375 26.78125 53.3125 
Q 30.421875 42.28125 30.421875 31.390625 
Q 30.421875 20.453125 26.78125 9.375 
Q 23.140625 -1.703125 15.828125 -13.1875 
L 8.015625 -13.1875 
Q 14.5 -2 17.703125 9.0625 
Q 20.90625 20.125 20.90625 31.390625 
Q 20.90625 42.671875 17.703125 53.65625 
Q 14.5 64.65625 8.015625 75.875 
z
" id="DejaVuSans-41"/>
     </defs>
     <g transform="translate(68.8 262.212)scale(0.1 -0.1)">
      <use transform="translate(0 0.015625)" xlink:href="#DejaVuSans-101"/>
      <use transform="translate(61.523438 0.015625)" xlink:href="#DejaVuSans-120"/>
      <use transform="translate(120.703125 0.015625)" xlink:href="#DejaVuSans-112"/>
      <use transform="translate(184.179688 0.015625)" xlink:href="#DejaVuSans-40"/>
      <use transform="translate(223.193359 0.015625)" xlink:href="#DejaVuSans-8722"/>
      <use transform="translate(306.982422 0.015625)" xlink:href="#DejaVuSans-48"/>
      <use transform="translate(370.605469 0.015625)" xlink:href="#DejaVuSans-46"/>
      <use transform="translate(402.392578 0.015625)" xlink:href="#DejaVuSans-48"/>
      <use transform="translate(466.015625 0.015625)" xlink:href="#DejaVuSans-55"/>
      <use transform="translate(529.638672 0.015625)" xlink:href="#DejaVuSans-54"/>
      <use transform="translate(593.261719 0.015625)" xlink:href="#DejaVuSans-Oblique-107"/>
      <use transform="translate(651.171875 0.015625)" xlink:href="#DejaVuSans-41"/>
     </g>
    </g>
   </g>
  </g>
 </g>
 <defs>
  <clipPath id="pd0b4a09236">
   <rect height="266.112" width="357.12" x="31.8" y="7.2"/>
  </clipPath>
 </defs>
</svg>
