<?xml version="1.0" encoding="utf-8" standalone="no"?>
<!DOCTYPE svg PUBLIC "-//W3C//DTD SVG 1.1//EN"
  "http://www.w3.org/Graphics/SVG/1.1/DTD/svg11.dtd">
<!-- Created with matplotlib (https://matplotlib.org/) -->
<svg height="310.86825pt" version="1.1" viewBox="0 0 402.02 310.86825" width="402.02pt" xmlns="http://www.w3.org/2000/svg" xmlns:xlink="http://www.w3.org/1999/xlink">
 <defs>
  <style type="text/css">
*{stroke-linecap:butt;stroke-linejoin:round;}
  </style>
 </defs>
 <g id="figure_1">
  <g id="patch_1">
   <path d="M 0 310.86825 
L 402.02 310.86825 
L 402.02 0 
L 0 0 
z
" style="fill:#ffffff;"/>
  </g>
  <g id="axes_1">
   <g id="patch_2">
    <path d="M 37.7 273.312 
L 394.82 273.312 
L 394.82 7.2 
L 37.7 7.2 
z
" style="fill:#ffffff;"/>
   </g>
   <g id="matplotlib.axis_1">
    <g id="xtick_1">
     <g id="line2d_1">
      <defs>
       <path d="M 0 0 
L 0 3.5 
" id="m94b1b6df54" style="stroke:#000000;stroke-width:0.8;"/>
      </defs>
      <g>
       <use style="stroke:#000000;stroke-width:0.8;" x="53.932727" xlink:href="#m94b1b6df54" y="273.312"/>
      </g>
     </g>
     <g id="text_1">
      <!-- 0 -->
      <defs>
       <path d="M 31.78125 66.40625 
Q 24.171875 66.40625 20.328125 58.90625 
Q 16.5 51.421875 16.5 36.375 
Q 16.5 21.390625 20.328125 13.890625 
Q 24.171875 6.390625 31.78125 6.390625 
Q 39.453125 6.390625 43.28125 13.890625 
Q 47.125 21.390625 47.125 36.375 
Q 47.125 51.421875 43.28125 58.90625 
Q 39.453125 66.40625 31.78125 66.40625 
z
M 31.78125 74.21875 
Q 44.046875 74.21875 50.515625 64.515625 
Q 56.984375 54.828125 56.984375 36.375 
Q 56.984375 17.96875 50.515625 8.265625 
Q 44.046875 -1.421875 31.78125 -1.421875 
Q 19.53125 -1.421875 13.0625 8.265625 
Q 6.59375 17.96875 6.59375 36.375 
Q 6.59375 54.828125 13.0625 64.515625 
Q 19.53125 74.21875 31.78125 74.21875 
z
" id="DejaVuSans-48"/>
      </defs>
      <g transform="translate(50.751477 287.910437)scale(0.1 -0.1)">
       <use xlink:href="#DejaVuSans-48"/>
      </g>
     </g>
    </g>
    <g id="xtick_2">
     <g id="line2d_2">
      <g>
       <use style="stroke:#000000;stroke-width:0.8;" x="108.404966" xlink:href="#m94b1b6df54" y="273.312"/>
      </g>
     </g>
     <g id="text_2">
      <!-- 50 -->
      <defs>
       <path d="M 10.796875 72.90625 
L 49.515625 72.90625 
L 49.515625 64.59375 
L 19.828125 64.59375 
L 19.828125 46.734375 
Q 21.96875 47.46875 24.109375 47.828125 
Q 26.265625 48.1875 28.421875 48.1875 
Q 40.625 48.1875 47.75 41.5 
Q 54.890625 34.8125 54.890625 23.390625 
Q 54.890625 11.625 47.5625 5.09375 
Q 40.234375 -1.421875 26.90625 -1.421875 
Q 22.3125 -1.421875 17.546875 -0.640625 
Q 12.796875 0.140625 7.71875 1.703125 
L 7.71875 11.625 
Q 12.109375 9.234375 16.796875 8.0625 
Q 21.484375 6.890625 26.703125 6.890625 
Q 35.15625 6.890625 40.078125 11.328125 
Q 45.015625 15.765625 45.015625 23.390625 
Q 45.015625 31 40.078125 35.4375 
Q 35.15625 39.890625 26.703125 39.890625 
Q 22.75 39.890625 18.8125 39.015625 
Q 14.890625 38.140625 10.796875 36.28125 
z
" id="DejaVuSans-53"/>
      </defs>
      <g transform="translate(102.042466 287.910437)scale(0.1 -0.1)">
       <use xlink:href="#DejaVuSans-53"/>
       <use x="63.623047" xlink:href="#DejaVuSans-48"/>
      </g>
     </g>
    </g>
    <g id="xtick_3">
     <g id="line2d_3">
      <g>
       <use style="stroke:#000000;stroke-width:0.8;" x="162.877206" xlink:href="#m94b1b6df54" y="273.312"/>
      </g>
     </g>
     <g id="text_3">
      <!-- 100 -->
      <defs>
       <path d="M 12.40625 8.296875 
L 28.515625 8.296875 
L 28.515625 63.921875 
L 10.984375 60.40625 
L 10.984375 69.390625 
L 28.421875 72.90625 
L 38.28125 72.90625 
L 38.28125 8.296875 
L 54.390625 8.296875 
L 54.390625 0 
L 12.40625 0 
z
" id="DejaVuSans-49"/>
      </defs>
      <g transform="translate(153.333456 287.910437)scale(0.1 -0.1)">
       <use xlink:href="#DejaVuSans-49"/>
       <use x="63.623047" xlink:href="#DejaVuSans-48"/>
       <use x="127.246094" xlink:href="#DejaVuSans-48"/>
      </g>
     </g>
    </g>
    <g id="xtick_4">
     <g id="line2d_4">
      <g>
       <use style="stroke:#000000;stroke-width:0.8;" x="217.349445" xlink:href="#m94b1b6df54" y="273.312"/>
      </g>
     </g>
     <g id="text_4">
      <!-- 150 -->
      <g transform="translate(207.805695 287.910437)scale(0.1 -0.1)">
       <use xlink:href="#DejaVuSans-49"/>
       <use x="63.623047" xlink:href="#DejaVuSans-53"/>
       <use x="127.246094" xlink:href="#DejaVuSans-48"/>
      </g>
     </g>
    </g>
    <g id="xtick_5">
     <g id="line2d_5">
      <g>
       <use style="stroke:#000000;stroke-width:0.8;" x="271.821684" xlink:href="#m94b1b6df54" y="273.312"/>
      </g>
     </g>
     <g id="text_5">
      <!-- 200 -->
      <defs>
       <path d="M 19.1875 8.296875 
L 53.609375 8.296875 
L 53.609375 0 
L 7.328125 0 
L 7.328125 8.296875 
Q 12.9375 14.109375 22.625 23.890625 
Q 32.328125 33.6875 34.8125 36.53125 
Q 39.546875 41.84375 41.421875 45.53125 
Q 43.3125 49.21875 43.3125 52.78125 
Q 43.3125 58.59375 39.234375 62.25 
Q 35.15625 65.921875 28.609375 65.921875 
Q 23.96875 65.921875 18.8125 64.3125 
Q 13.671875 62.703125 7.8125 59.421875 
L 7.8125 69.390625 
Q 13.765625 71.78125 18.9375 73 
Q 24.125 74.21875 28.421875 74.21875 
Q 39.75 74.21875 46.484375 68.546875 
Q 53.21875 62.890625 53.21875 53.421875 
Q 53.21875 48.921875 51.53125 44.890625 
Q 49.859375 40.875 45.40625 35.40625 
Q 44.1875 33.984375 37.640625 27.21875 
Q 31.109375 20.453125 19.1875 8.296875 
z
" id="DejaVuSans-50"/>
      </defs>
      <g transform="translate(262.277934 287.910437)scale(0.1 -0.1)">
       <use xlink:href="#DejaVuSans-50"/>
       <use x="63.623047" xlink:href="#DejaVuSans-48"/>
       <use x="127.246094" xlink:href="#DejaVuSans-48"/>
      </g>
     </g>
    </g>
    <g id="xtick_6">
     <g id="line2d_6">
      <g>
       <use style="stroke:#000000;stroke-width:0.8;" x="326.293923" xlink:href="#m94b1b6df54" y="273.312"/>
      </g>
     </g>
     <g id="text_6">
      <!-- 250 -->
      <g transform="translate(316.750173 287.910437)scale(0.1 -0.1)">
       <use xlink:href="#DejaVuSans-50"/>
       <use x="63.623047" xlink:href="#DejaVuSans-53"/>
       <use x="127.246094" xlink:href="#DejaVuSans-48"/>
      </g>
     </g>
    </g>
    <g id="xtick_7">
     <g id="line2d_7">
      <g>
       <use style="stroke:#000000;stroke-width:0.8;" x="380.766162" xlink:href="#m94b1b6df54" y="273.312"/>
      </g>
     </g>
     <g id="text_7">
      <!-- 300 -->
      <defs>
       <path d="M 40.578125 39.3125 
Q 47.65625 37.796875 51.625 33 
Q 55.609375 28.21875 55.609375 21.1875 
Q 55.609375 10.40625 48.1875 4.484375 
Q 40.765625 -1.421875 27.09375 -1.421875 
Q 22.515625 -1.421875 17.65625 -0.515625 
Q 12.796875 0.390625 7.625 2.203125 
L 7.625 11.71875 
Q 11.71875 9.328125 16.59375 8.109375 
Q 21.484375 6.890625 26.8125 6.890625 
Q 36.078125 6.890625 40.9375 10.546875 
Q 45.796875 14.203125 45.796875 21.1875 
Q 45.796875 27.640625 41.28125 31.265625 
Q 36.765625 34.90625 28.71875 34.90625 
L 20.21875 34.90625 
L 20.21875 43.015625 
L 29.109375 43.015625 
Q 36.375 43.015625 40.234375 45.921875 
Q 44.09375 48.828125 44.09375 54.296875 
Q 44.09375 59.90625 40.109375 62.90625 
Q 36.140625 65.921875 28.71875 65.921875 
Q 24.65625 65.921875 20.015625 65.03125 
Q 15.375 64.15625 9.8125 62.3125 
L 9.8125 71.09375 
Q 15.4375 72.65625 20.34375 73.4375 
Q 25.25 74.21875 29.59375 74.21875 
Q 40.828125 74.21875 47.359375 69.109375 
Q 53.90625 64.015625 53.90625 55.328125 
Q 53.90625 49.265625 50.4375 45.09375 
Q 46.96875 40.921875 40.578125 39.3125 
z
" id="DejaVuSans-51"/>
      </defs>
      <g transform="translate(371.222412 287.910437)scale(0.1 -0.1)">
       <use xlink:href="#DejaVuSans-51"/>
       <use x="63.623047" xlink:href="#DejaVuSans-48"/>
       <use x="127.246094" xlink:href="#DejaVuSans-48"/>
      </g>
     </g>
    </g>
    <g id="text_8">
     <!-- $ k $ -->
     <defs>
      <path d="M 18.3125 75.984375 
L 27.296875 75.984375 
L 18.703125 31.6875 
L 49.515625 54.6875 
L 61.1875 54.6875 
L 26.8125 28.515625 
L 51.90625 0 
L 41.015625 0 
L 17.671875 26.703125 
L 12.5 0 
L 3.515625 0 
z
" id="DejaVuSans-Oblique-107"/>
     </defs>
     <g transform="translate(213.36 301.588562)scale(0.1 -0.1)">
      <use transform="translate(0 0.015625)" xlink:href="#DejaVuSans-Oblique-107"/>
     </g>
    </g>
   </g>
   <g id="matplotlib.axis_2">
    <g id="ytick_1">
     <g id="line2d_8">
      <defs>
       <path d="M 0 0 
L -3.5 0 
" id="m5f75a1c5b5" style="stroke:#000000;stroke-width:0.8;"/>
      </defs>
      <g>
       <use style="stroke:#000000;stroke-width:0.8;" x="37.7" xlink:href="#m5f75a1c5b5" y="272.254539"/>
      </g>
     </g>
     <g id="text_9">
      <!-- $\mathdefault{10^{-5}}$ -->
      <defs>
       <path d="M 10.59375 35.5 
L 73.1875 35.5 
L 73.1875 27.203125 
L 10.59375 27.203125 
z
" id="DejaVuSans-8722"/>
      </defs>
      <g transform="translate(7.2 276.053758)scale(0.1 -0.1)">
       <use transform="translate(0 0.684375)" xlink:href="#DejaVuSans-49"/>
       <use transform="translate(63.623047 0.684375)" xlink:href="#DejaVuSans-48"/>
       <use transform="translate(128.203125 38.965625)scale(0.7)" xlink:href="#DejaVuSans-8722"/>
       <use transform="translate(186.855469 38.965625)scale(0.7)" xlink:href="#DejaVuSans-53"/>
      </g>
     </g>
    </g>
    <g id="ytick_2">
     <g id="line2d_9">
      <g>
       <use style="stroke:#000000;stroke-width:0.8;" x="37.7" xlink:href="#m5f75a1c5b5" y="236.278889"/>
      </g>
     </g>
     <g id="text_10">
      <!-- $\mathdefault{10^{-4}}$ -->
      <defs>
       <path d="M 37.796875 64.3125 
L 12.890625 25.390625 
L 37.796875 25.390625 
z
M 35.203125 72.90625 
L 47.609375 72.90625 
L 47.609375 25.390625 
L 58.015625 25.390625 
L 58.015625 17.1875 
L 47.609375 17.1875 
L 47.609375 0 
L 37.796875 0 
L 37.796875 17.1875 
L 4.890625 17.1875 
L 4.890625 26.703125 
z
" id="DejaVuSans-52"/>
      </defs>
      <g transform="translate(7.2 240.078107)scale(0.1 -0.1)">
       <use transform="translate(0 0.684375)" xlink:href="#DejaVuSans-49"/>
       <use transform="translate(63.623047 0.684375)" xlink:href="#DejaVuSans-48"/>
       <use transform="translate(128.203125 38.965625)scale(0.7)" xlink:href="#DejaVuSans-8722"/>
       <use transform="translate(186.855469 38.965625)scale(0.7)" xlink:href="#DejaVuSans-52"/>
      </g>
     </g>
    </g>
    <g id="ytick_3">
     <g id="line2d_10">
      <g>
       <use style="stroke:#000000;stroke-width:0.8;" x="37.7" xlink:href="#m5f75a1c5b5" y="200.303238"/>
      </g>
     </g>
     <g id="text_11">
      <!-- $\mathdefault{10^{-3}}$ -->
      <g transform="translate(7.2 204.102456)scale(0.1 -0.1)">
       <use transform="translate(0 0.765625)" xlink:href="#DejaVuSans-49"/>
       <use transform="translate(63.623047 0.765625)" xlink:href="#DejaVuSans-48"/>
       <use transform="translate(128.203125 39.046875)scale(0.7)" xlink:href="#DejaVuSans-8722"/>
       <use transform="translate(186.855469 39.046875)scale(0.7)" xlink:href="#DejaVuSans-51"/>
      </g>
     </g>
    </g>
    <g id="ytick_4">
     <g id="line2d_11">
      <g>
       <use style="stroke:#000000;stroke-width:0.8;" x="37.7" xlink:href="#m5f75a1c5b5" y="164.327587"/>
      </g>
     </g>
     <g id="text_12">
      <!-- $\mathdefault{10^{-2}}$ -->
      <g transform="translate(7.2 168.126806)scale(0.1 -0.1)">
       <use transform="translate(0 0.765625)" xlink:href="#DejaVuSans-49"/>
       <use transform="translate(63.623047 0.765625)" xlink:href="#DejaVuSans-48"/>
       <use transform="translate(128.203125 39.046875)scale(0.7)" xlink:href="#DejaVuSans-8722"/>
       <use transform="translate(186.855469 39.046875)scale(0.7)" xlink:href="#DejaVuSans-50"/>
      </g>
     </g>
    </g>
    <g id="ytick_5">
     <g id="line2d_12">
      <g>
       <use style="stroke:#000000;stroke-width:0.8;" x="37.7" xlink:href="#m5f75a1c5b5" y="128.351936"/>
      </g>
     </g>
     <g id="text_13">
      <!-- $\mathdefault{10^{-1}}$ -->
      <g transform="translate(7.2 132.151155)scale(0.1 -0.1)">
       <use transform="translate(0 0.684375)" xlink:href="#DejaVuSans-49"/>
       <use transform="translate(63.623047 0.684375)" xlink:href="#DejaVuSans-48"/>
       <use transform="translate(128.203125 38.965625)scale(0.7)" xlink:href="#DejaVuSans-8722"/>
       <use transform="translate(186.855469 38.965625)scale(0.7)" xlink:href="#DejaVuSans-49"/>
      </g>
     </g>
    </g>
    <g id="ytick_6">
     <g id="line2d_13">
      <g>
       <use style="stroke:#000000;stroke-width:0.8;" x="37.7" xlink:href="#m5f75a1c5b5" y="92.376285"/>
      </g>
     </g>
     <g id="text_14">
      <!-- $\mathdefault{10^{0}}$ -->
      <g transform="translate(13.1 96.175504)scale(0.1 -0.1)">
       <use transform="translate(0 0.765625)" xlink:href="#DejaVuSans-49"/>
       <use transform="translate(63.623047 0.765625)" xlink:href="#DejaVuSans-48"/>
       <use transform="translate(128.203125 39.046875)scale(0.7)" xlink:href="#DejaVuSans-48"/>
      </g>
     </g>
    </g>
    <g id="ytick_7">
     <g id="line2d_14">
      <g>
       <use style="stroke:#000000;stroke-width:0.8;" x="37.7" xlink:href="#m5f75a1c5b5" y="56.400634"/>
      </g>
     </g>
     <g id="text_15">
      <!-- $\mathdefault{10^{1}}$ -->
      <g transform="translate(13.1 60.199853)scale(0.1 -0.1)">
       <use transform="translate(0 0.684375)" xlink:href="#DejaVuSans-49"/>
       <use transform="translate(63.623047 0.684375)" xlink:href="#DejaVuSans-48"/>
       <use transform="translate(128.203125 38.965625)scale(0.7)" xlink:href="#DejaVuSans-49"/>
      </g>
     </g>
    </g>
    <g id="ytick_8">
     <g id="line2d_15">
      <g>
       <use style="stroke:#000000;stroke-width:0.8;" x="37.7" xlink:href="#m5f75a1c5b5" y="20.424984"/>
      </g>
     </g>
     <g id="text_16">
      <!-- $\mathdefault{10^{2}}$ -->
      <g transform="translate(13.1 24.224202)scale(0.1 -0.1)">
       <use transform="translate(0 0.765625)" xlink:href="#DejaVuSans-49"/>
       <use transform="translate(63.623047 0.765625)" xlink:href="#DejaVuSans-48"/>
       <use transform="translate(128.203125 39.046875)scale(0.7)" xlink:href="#DejaVuSans-50"/>
      </g>
     </g>
    </g>
    <g id="ytick_9">
     <g id="line2d_16">
      <defs>
       <path d="M 0 0 
L -2 0 
" id="m9d18eabf14" style="stroke:#000000;stroke-width:0.6;"/>
      </defs>
      <g>
       <use style="stroke:#000000;stroke-width:0.6;" x="37.7" xlink:href="#m9d18eabf14" y="261.424789"/>
      </g>
     </g>
    </g>
    <g id="ytick_10">
     <g id="line2d_17">
      <g>
       <use style="stroke:#000000;stroke-width:0.6;" x="37.7" xlink:href="#m9d18eabf14" y="255.089792"/>
      </g>
     </g>
    </g>
    <g id="ytick_11">
     <g id="line2d_18">
      <g>
       <use style="stroke:#000000;stroke-width:0.6;" x="37.7" xlink:href="#m9d18eabf14" y="250.595039"/>
      </g>
     </g>
    </g>
    <g id="ytick_12">
     <g id="line2d_19">
      <g>
       <use style="stroke:#000000;stroke-width:0.6;" x="37.7" xlink:href="#m9d18eabf14" y="247.108639"/>
      </g>
     </g>
    </g>
    <g id="ytick_13">
     <g id="line2d_20">
      <g>
       <use style="stroke:#000000;stroke-width:0.6;" x="37.7" xlink:href="#m9d18eabf14" y="244.260042"/>
      </g>
     </g>
    </g>
    <g id="ytick_14">
     <g id="line2d_21">
      <g>
       <use style="stroke:#000000;stroke-width:0.6;" x="37.7" xlink:href="#m9d18eabf14" y="241.851587"/>
      </g>
     </g>
    </g>
    <g id="ytick_15">
     <g id="line2d_22">
      <g>
       <use style="stroke:#000000;stroke-width:0.6;" x="37.7" xlink:href="#m9d18eabf14" y="239.765289"/>
      </g>
     </g>
    </g>
    <g id="ytick_16">
     <g id="line2d_23">
      <g>
       <use style="stroke:#000000;stroke-width:0.6;" x="37.7" xlink:href="#m9d18eabf14" y="237.925044"/>
      </g>
     </g>
    </g>
    <g id="ytick_17">
     <g id="line2d_24">
      <g>
       <use style="stroke:#000000;stroke-width:0.6;" x="37.7" xlink:href="#m9d18eabf14" y="225.449139"/>
      </g>
     </g>
    </g>
    <g id="ytick_18">
     <g id="line2d_25">
      <g>
       <use style="stroke:#000000;stroke-width:0.6;" x="37.7" xlink:href="#m9d18eabf14" y="219.114141"/>
      </g>
     </g>
    </g>
    <g id="ytick_19">
     <g id="line2d_26">
      <g>
       <use style="stroke:#000000;stroke-width:0.6;" x="37.7" xlink:href="#m9d18eabf14" y="214.619388"/>
      </g>
     </g>
    </g>
    <g id="ytick_20">
     <g id="line2d_27">
      <g>
       <use style="stroke:#000000;stroke-width:0.6;" x="37.7" xlink:href="#m9d18eabf14" y="211.132988"/>
      </g>
     </g>
    </g>
    <g id="ytick_21">
     <g id="line2d_28">
      <g>
       <use style="stroke:#000000;stroke-width:0.6;" x="37.7" xlink:href="#m9d18eabf14" y="208.284391"/>
      </g>
     </g>
    </g>
    <g id="ytick_22">
     <g id="line2d_29">
      <g>
       <use style="stroke:#000000;stroke-width:0.6;" x="37.7" xlink:href="#m9d18eabf14" y="205.875937"/>
      </g>
     </g>
    </g>
    <g id="ytick_23">
     <g id="line2d_30">
      <g>
       <use style="stroke:#000000;stroke-width:0.6;" x="37.7" xlink:href="#m9d18eabf14" y="203.789638"/>
      </g>
     </g>
    </g>
    <g id="ytick_24">
     <g id="line2d_31">
      <g>
       <use style="stroke:#000000;stroke-width:0.6;" x="37.7" xlink:href="#m9d18eabf14" y="201.949393"/>
      </g>
     </g>
    </g>
    <g id="ytick_25">
     <g id="line2d_32">
      <g>
       <use style="stroke:#000000;stroke-width:0.6;" x="37.7" xlink:href="#m9d18eabf14" y="189.473488"/>
      </g>
     </g>
    </g>
    <g id="ytick_26">
     <g id="line2d_33">
      <g>
       <use style="stroke:#000000;stroke-width:0.6;" x="37.7" xlink:href="#m9d18eabf14" y="183.13849"/>
      </g>
     </g>
    </g>
    <g id="ytick_27">
     <g id="line2d_34">
      <g>
       <use style="stroke:#000000;stroke-width:0.6;" x="37.7" xlink:href="#m9d18eabf14" y="178.643738"/>
      </g>
     </g>
    </g>
    <g id="ytick_28">
     <g id="line2d_35">
      <g>
       <use style="stroke:#000000;stroke-width:0.6;" x="37.7" xlink:href="#m9d18eabf14" y="175.157337"/>
      </g>
     </g>
    </g>
    <g id="ytick_29">
     <g id="line2d_36">
      <g>
       <use style="stroke:#000000;stroke-width:0.6;" x="37.7" xlink:href="#m9d18eabf14" y="172.30874"/>
      </g>
     </g>
    </g>
    <g id="ytick_30">
     <g id="line2d_37">
      <g>
       <use style="stroke:#000000;stroke-width:0.6;" x="37.7" xlink:href="#m9d18eabf14" y="169.900286"/>
      </g>
     </g>
    </g>
    <g id="ytick_31">
     <g id="line2d_38">
      <g>
       <use style="stroke:#000000;stroke-width:0.6;" x="37.7" xlink:href="#m9d18eabf14" y="167.813988"/>
      </g>
     </g>
    </g>
    <g id="ytick_32">
     <g id="line2d_39">
      <g>
       <use style="stroke:#000000;stroke-width:0.6;" x="37.7" xlink:href="#m9d18eabf14" y="165.973742"/>
      </g>
     </g>
    </g>
    <g id="ytick_33">
     <g id="line2d_40">
      <g>
       <use style="stroke:#000000;stroke-width:0.6;" x="37.7" xlink:href="#m9d18eabf14" y="153.497837"/>
      </g>
     </g>
    </g>
    <g id="ytick_34">
     <g id="line2d_41">
      <g>
       <use style="stroke:#000000;stroke-width:0.6;" x="37.7" xlink:href="#m9d18eabf14" y="147.162839"/>
      </g>
     </g>
    </g>
    <g id="ytick_35">
     <g id="line2d_42">
      <g>
       <use style="stroke:#000000;stroke-width:0.6;" x="37.7" xlink:href="#m9d18eabf14" y="142.668087"/>
      </g>
     </g>
    </g>
    <g id="ytick_36">
     <g id="line2d_43">
      <g>
       <use style="stroke:#000000;stroke-width:0.6;" x="37.7" xlink:href="#m9d18eabf14" y="139.181686"/>
      </g>
     </g>
    </g>
    <g id="ytick_37">
     <g id="line2d_44">
      <g>
       <use style="stroke:#000000;stroke-width:0.6;" x="37.7" xlink:href="#m9d18eabf14" y="136.333089"/>
      </g>
     </g>
    </g>
    <g id="ytick_38">
     <g id="line2d_45">
      <g>
       <use style="stroke:#000000;stroke-width:0.6;" x="37.7" xlink:href="#m9d18eabf14" y="133.924635"/>
      </g>
     </g>
    </g>
    <g id="ytick_39">
     <g id="line2d_46">
      <g>
       <use style="stroke:#000000;stroke-width:0.6;" x="37.7" xlink:href="#m9d18eabf14" y="131.838337"/>
      </g>
     </g>
    </g>
    <g id="ytick_40">
     <g id="line2d_47">
      <g>
       <use style="stroke:#000000;stroke-width:0.6;" x="37.7" xlink:href="#m9d18eabf14" y="129.998092"/>
      </g>
     </g>
    </g>
    <g id="ytick_41">
     <g id="line2d_48">
      <g>
       <use style="stroke:#000000;stroke-width:0.6;" x="37.7" xlink:href="#m9d18eabf14" y="117.522186"/>
      </g>
     </g>
    </g>
    <g id="ytick_42">
     <g id="line2d_49">
      <g>
       <use style="stroke:#000000;stroke-width:0.6;" x="37.7" xlink:href="#m9d18eabf14" y="111.187188"/>
      </g>
     </g>
    </g>
    <g id="ytick_43">
     <g id="line2d_50">
      <g>
       <use style="stroke:#000000;stroke-width:0.6;" x="37.7" xlink:href="#m9d18eabf14" y="106.692436"/>
      </g>
     </g>
    </g>
    <g id="ytick_44">
     <g id="line2d_51">
      <g>
       <use style="stroke:#000000;stroke-width:0.6;" x="37.7" xlink:href="#m9d18eabf14" y="103.206035"/>
      </g>
     </g>
    </g>
    <g id="ytick_45">
     <g id="line2d_52">
      <g>
       <use style="stroke:#000000;stroke-width:0.6;" x="37.7" xlink:href="#m9d18eabf14" y="100.357438"/>
      </g>
     </g>
    </g>
    <g id="ytick_46">
     <g id="line2d_53">
      <g>
       <use style="stroke:#000000;stroke-width:0.6;" x="37.7" xlink:href="#m9d18eabf14" y="97.948984"/>
      </g>
     </g>
    </g>
    <g id="ytick_47">
     <g id="line2d_54">
      <g>
       <use style="stroke:#000000;stroke-width:0.6;" x="37.7" xlink:href="#m9d18eabf14" y="95.862686"/>
      </g>
     </g>
    </g>
    <g id="ytick_48">
     <g id="line2d_55">
      <g>
       <use style="stroke:#000000;stroke-width:0.6;" x="37.7" xlink:href="#m9d18eabf14" y="94.022441"/>
      </g>
     </g>
    </g>
    <g id="ytick_49">
     <g id="line2d_56">
      <g>
       <use style="stroke:#000000;stroke-width:0.6;" x="37.7" xlink:href="#m9d18eabf14" y="81.546535"/>
      </g>
     </g>
    </g>
    <g id="ytick_50">
     <g id="line2d_57">
      <g>
       <use style="stroke:#000000;stroke-width:0.6;" x="37.7" xlink:href="#m9d18eabf14" y="75.211538"/>
      </g>
     </g>
    </g>
    <g id="ytick_51">
     <g id="line2d_58">
      <g>
       <use style="stroke:#000000;stroke-width:0.6;" x="37.7" xlink:href="#m9d18eabf14" y="70.716785"/>
      </g>
     </g>
    </g>
    <g id="ytick_52">
     <g id="line2d_59">
      <g>
       <use style="stroke:#000000;stroke-width:0.6;" x="37.7" xlink:href="#m9d18eabf14" y="67.230384"/>
      </g>
     </g>
    </g>
    <g id="ytick_53">
     <g id="line2d_60">
      <g>
       <use style="stroke:#000000;stroke-width:0.6;" x="37.7" xlink:href="#m9d18eabf14" y="64.381788"/>
      </g>
     </g>
    </g>
    <g id="ytick_54">
     <g id="line2d_61">
      <g>
       <use style="stroke:#000000;stroke-width:0.6;" x="37.7" xlink:href="#m9d18eabf14" y="61.973333"/>
      </g>
     </g>
    </g>
    <g id="ytick_55">
     <g id="line2d_62">
      <g>
       <use style="stroke:#000000;stroke-width:0.6;" x="37.7" xlink:href="#m9d18eabf14" y="59.887035"/>
      </g>
     </g>
    </g>
    <g id="ytick_56">
     <g id="line2d_63">
      <g>
       <use style="stroke:#000000;stroke-width:0.6;" x="37.7" xlink:href="#m9d18eabf14" y="58.04679"/>
      </g>
     </g>
    </g>
    <g id="ytick_57">
     <g id="line2d_64">
      <g>
       <use style="stroke:#000000;stroke-width:0.6;" x="37.7" xlink:href="#m9d18eabf14" y="45.570884"/>
      </g>
     </g>
    </g>
    <g id="ytick_58">
     <g id="line2d_65">
      <g>
       <use style="stroke:#000000;stroke-width:0.6;" x="37.7" xlink:href="#m9d18eabf14" y="39.235887"/>
      </g>
     </g>
    </g>
    <g id="ytick_59">
     <g id="line2d_66">
      <g>
       <use style="stroke:#000000;stroke-width:0.6;" x="37.7" xlink:href="#m9d18eabf14" y="34.741134"/>
      </g>
     </g>
    </g>
    <g id="ytick_60">
     <g id="line2d_67">
      <g>
       <use style="stroke:#000000;stroke-width:0.6;" x="37.7" xlink:href="#m9d18eabf14" y="31.254734"/>
      </g>
     </g>
    </g>
    <g id="ytick_61">
     <g id="line2d_68">
      <g>
       <use style="stroke:#000000;stroke-width:0.6;" x="37.7" xlink:href="#m9d18eabf14" y="28.406137"/>
      </g>
     </g>
    </g>
    <g id="ytick_62">
     <g id="line2d_69">
      <g>
       <use style="stroke:#000000;stroke-width:0.6;" x="37.7" xlink:href="#m9d18eabf14" y="25.997682"/>
      </g>
     </g>
    </g>
    <g id="ytick_63">
     <g id="line2d_70">
      <g>
       <use style="stroke:#000000;stroke-width:0.6;" x="37.7" xlink:href="#m9d18eabf14" y="23.911384"/>
      </g>
     </g>
    </g>
    <g id="ytick_64">
     <g id="line2d_71">
      <g>
       <use style="stroke:#000000;stroke-width:0.6;" x="37.7" xlink:href="#m9d18eabf14" y="22.071139"/>
      </g>
     </g>
    </g>
    <g id="ytick_65">
     <g id="line2d_72">
      <g>
       <use style="stroke:#000000;stroke-width:0.6;" x="37.7" xlink:href="#m9d18eabf14" y="9.595234"/>
      </g>
     </g>
    </g>
   </g>
   <g id="line2d_73">
    <path clip-path="url(#p54e94bbde7)" d="M 53.932727 29.301813 
L 55.022172 19.296 
L 56.111617 45.235527 
L 57.201062 53.392892 
L 58.290506 66.130589 
L 60.469396 87.209785 
L 65.91662 138.211071 
L 67.006065 147.734676 
L 68.095509 158.848854 
L 69.184954 167.242034 
L 70.274399 182.343252 
L 71.363844 187.563812 
L 72.453289 227.366474 
L 73.542733 200.56206 
L 74.632178 212.052912 
L 75.721623 203.660795 
L 76.811068 208.66921 
L 77.900513 203.595576 
L 78.989957 205.375111 
L 80.079402 209.192218 
L 81.168847 205.221601 
L 82.258292 214.937774 
L 83.347736 207.261658 
L 84.437181 204.853941 
L 85.526626 201.822528 
L 86.616071 214.443046 
L 87.705516 205.018881 
L 88.79496 212.632753 
L 89.884405 207.290564 
L 90.97385 209.690442 
L 92.063295 209.100651 
L 93.152739 207.32857 
L 94.242184 206.633395 
L 95.331629 213.351237 
L 96.421074 206.438042 
L 97.510519 209.311253 
L 98.599963 213.109246 
L 99.689408 207.997532 
L 100.778853 206.35931 
L 101.868298 217.181771 
L 102.957743 203.594722 
L 104.047187 206.242167 
L 105.136632 227.705058 
L 106.226077 200.888521 
L 107.315522 210.280223 
L 108.404966 213.069479 
L 109.494411 204.151251 
L 110.583856 206.344726 
L 111.673301 221.39578 
L 112.762746 202.749455 
L 113.85219 211.571638 
L 114.941635 204.10393 
L 116.03108 207.05702 
L 117.120525 205.218915 
L 118.209969 214.208779 
L 119.299414 208.174432 
L 120.388859 212.602566 
L 121.478304 206.40138 
L 122.567749 212.016456 
L 123.657193 203.913615 
L 124.746638 206.272634 
L 125.836083 261.216 
L 126.925528 198.569087 
L 128.014973 209.4073 
L 129.104417 208.894025 
L 130.193862 204.485963 
L 131.283307 208.81032 
L 132.372752 208.80394 
L 133.462196 214.672472 
L 134.551641 204.21128 
L 135.641086 206.53359 
L 136.730531 209.318022 
L 137.819976 205.03737 
L 138.90942 214.723365 
L 139.998865 206.808933 
L 141.08831 216.915003 
L 142.177755 206.734394 
L 143.2672 207.478506 
L 144.356644 208.505678 
L 145.446089 213.364929 
L 146.535534 211.957365 
L 147.624979 209.461473 
L 148.714423 212.113498 
L 149.803868 207.773092 
L 150.893313 208.944248 
L 151.982758 207.878766 
L 153.072203 212.613225 
L 154.161647 204.480221 
L 155.251092 223.60078 
L 156.340537 203.322578 
L 157.429982 213.270179 
L 158.519426 204.786631 
L 159.608871 205.576122 
L 160.698316 214.891119 
L 161.787761 210.614103 
L 162.877206 203.836139 
L 163.96665 211.942103 
L 165.056095 212.889813 
L 166.14554 205.934278 
L 167.234985 206.126364 
L 168.32443 208.849291 
L 169.413874 207.053285 
L 170.503319 213.708777 
L 171.592764 202.434725 
L 172.682209 214.458001 
L 173.771653 204.440602 
L 174.861098 208.672993 
L 175.950543 206.374979 
L 177.039988 207.790875 
L 178.129433 213.323643 
L 179.218877 209.359983 
L 180.308322 204.531916 
L 181.397767 210.308465 
L 182.487212 203.72628 
L 183.576656 224.654505 
L 184.666101 200.550701 
L 185.755546 211.85923 
L 186.844991 207.250924 
L 187.934436 207.671905 
L 189.02388 220.145577 
L 190.113325 206.76792 
L 191.20277 208.761966 
L 192.292215 202.293238 
L 193.38166 221.069393 
L 194.471104 204.457741 
L 195.560549 211.888165 
L 196.649994 212.998751 
L 197.739439 208.382359 
L 198.828883 210.048048 
L 199.918328 207.145024 
L 201.007773 210.393514 
L 202.097218 209.454337 
L 203.186663 209.975723 
L 204.276107 207.542696 
L 205.365552 202.185962 
L 206.454997 251.629971 
L 207.544442 201.102233 
L 208.633887 212.5032 
L 209.723331 210.461664 
L 210.812776 207.054942 
L 211.902221 208.291729 
L 212.991666 204.827547 
L 214.08111 214.206266 
L 215.170555 206.093422 
L 216.26 210.427354 
L 217.349445 208.029777 
L 218.43889 213.941317 
L 219.528334 212.095019 
L 220.617779 211.177732 
L 221.707224 205.227976 
L 222.796669 204.98812 
L 223.886113 206.080912 
L 224.975558 211.208039 
L 226.065003 210.149543 
L 227.154448 206.682994 
L 228.243893 209.193141 
L 229.333337 207.456099 
L 230.422782 218.297305 
L 231.512227 204.579441 
L 232.601672 223.235651 
L 233.691117 206.898571 
L 234.780561 208.988062 
L 235.870006 212.808328 
L 236.959451 207.849209 
L 238.048896 207.597574 
L 239.13834 213.433451 
L 240.227785 207.713927 
L 241.31723 208.538753 
L 242.406675 206.652104 
L 243.49612 209.247969 
L 244.585564 209.253554 
L 245.675009 209.459551 
L 246.764454 205.088996 
L 247.853899 211.410585 
L 248.943344 201.609533 
L 250.032788 232.629967 
L 251.122233 202.78106 
L 252.211678 210.869213 
L 253.301123 204.234519 
L 254.390567 210.171201 
L 255.480012 208.804349 
L 256.569457 210.251542 
L 257.658902 219.14059 
L 258.748347 204.883418 
L 259.837791 206.722817 
L 260.927236 207.745137 
L 262.016681 207.754355 
L 263.106126 205.255589 
L 264.19557 207.59021 
L 265.285015 214.508928 
L 266.37446 205.300415 
L 267.463905 214.55901 
L 268.55335 212.495921 
L 269.642794 206.838944 
L 270.732239 206.753766 
L 271.821684 203.257292 
L 272.911129 213.91982 
L 275.090018 204.361365 
L 276.179463 239.826909 
L 277.268908 202.734097 
L 278.358353 213.387975 
L 279.447797 206.041119 
L 280.537242 205.459534 
L 281.626687 209.004582 
L 282.716132 206.931852 
L 283.805577 211.740006 
L 284.895021 212.297271 
L 285.984466 211.212579 
L 287.073911 204.364923 
L 288.163356 204.433339 
L 289.2528 209.855988 
L 290.342245 210.047071 
L 291.43169 212.680959 
L 292.521135 209.486785 
L 293.61058 205.086861 
L 294.700024 208.920565 
L 295.789469 208.210915 
L 296.878914 211.295981 
L 297.968359 209.952274 
L 299.057804 210.411082 
L 300.147248 206.127336 
L 301.236693 218.28908 
L 302.326138 210.00721 
L 303.415583 212.887153 
L 304.505027 207.869524 
L 305.594472 212.314569 
L 306.683917 206.019867 
L 307.773362 212.046872 
L 308.862807 210.849487 
L 309.952251 206.708397 
L 311.041696 212.432922 
L 312.131141 210.000677 
L 313.220586 204.757808 
L 314.310031 235.377444 
L 315.399475 202.199563 
L 316.48892 205.878646 
L 317.578365 206.84958 
L 318.66781 208.706585 
L 319.757254 215.823573 
L 320.846699 202.883383 
L 321.936144 209.660277 
L 323.025589 215.434097 
L 324.115034 206.799165 
L 325.204478 214.777332 
L 326.293923 206.393713 
L 327.383368 211.272433 
L 328.472813 205.362677 
L 329.562257 205.488006 
L 330.651702 212.608414 
L 331.741147 210.851514 
L 332.830592 208.62976 
L 333.920037 214.000702 
L 335.009481 208.72223 
L 336.098926 205.678162 
L 337.188371 207.550008 
L 339.367261 205.153356 
L 340.456705 210.038988 
L 341.54615 205.733213 
L 342.635595 205.044856 
L 343.72504 213.46226 
L 344.814484 205.925207 
L 345.903929 209.76617 
L 346.993374 209.524257 
L 348.082819 213.465937 
L 349.172264 206.69975 
L 350.261708 209.022709 
L 351.351153 224.139082 
L 352.440598 201.370791 
L 353.530043 210.07171 
L 354.619487 220.193377 
L 355.708932 205.094866 
L 356.798377 212.682246 
L 357.887822 208.723841 
L 358.977267 203.178912 
L 360.066711 235.11699 
L 361.156156 205.275272 
L 362.245601 208.571612 
L 363.335046 210.378903 
L 364.424491 204.944737 
L 365.513935 202.783775 
L 366.60338 235.810719 
L 367.692825 200.853932 
L 368.78227 214.086817 
L 369.871714 207.693968 
L 370.961159 215.112427 
L 372.050604 203.145568 
L 373.140049 211.910894 
L 374.229494 199.171363 
L 375.318938 213.600921 
L 376.408383 195.251364 
L 376.411925 311.86825 
L 376.411925 311.86825 
" style="fill:none;stroke:#1f77b4;stroke-linecap:square;stroke-width:1.5;"/>
    <defs>
     <path d="M 0 3 
C 0.795609 3 1.55874 2.683901 2.12132 2.12132 
C 2.683901 1.55874 3 0.795609 3 0 
C 3 -0.795609 2.683901 -1.55874 2.12132 -2.12132 
C 1.55874 -2.683901 0.795609 -3 0 -3 
C -0.795609 -3 -1.55874 -2.683901 -2.12132 -2.12132 
C -2.683901 -1.55874 -3 -0.795609 -3 0 
C -3 0.795609 -2.683901 1.55874 -2.12132 2.12132 
C -1.55874 2.683901 -0.795609 3 0 3 
z
" id="me204899baf" style="stroke:#1f77b4;"/>
    </defs>
    <g clip-path="url(#p54e94bbde7)">
     <use style="fill:#1f77b4;stroke:#1f77b4;" x="53.932727" xlink:href="#me204899baf" y="29.301813"/>
     <use style="fill:#1f77b4;stroke:#1f77b4;" x="55.022172" xlink:href="#me204899baf" y="19.296"/>
     <use style="fill:#1f77b4;stroke:#1f77b4;" x="56.111617" xlink:href="#me204899baf" y="45.235527"/>
     <use style="fill:#1f77b4;stroke:#1f77b4;" x="57.201062" xlink:href="#me204899baf" y="53.392892"/>
     <use style="fill:#1f77b4;stroke:#1f77b4;" x="58.290506" xlink:href="#me204899baf" y="66.130589"/>
     <use style="fill:#1f77b4;stroke:#1f77b4;" x="59.379951" xlink:href="#me204899baf" y="76.212255"/>
     <use style="fill:#1f77b4;stroke:#1f77b4;" x="60.469396" xlink:href="#me204899baf" y="87.209785"/>
     <use style="fill:#1f77b4;stroke:#1f77b4;" x="61.558841" xlink:href="#me204899baf" y="97.490545"/>
     <use style="fill:#1f77b4;stroke:#1f77b4;" x="62.648286" xlink:href="#me204899baf" y="107.703958"/>
     <use style="fill:#1f77b4;stroke:#1f77b4;" x="63.73773" xlink:href="#me204899baf" y="117.860327"/>
     <use style="fill:#1f77b4;stroke:#1f77b4;" x="64.827175" xlink:href="#me204899baf" y="127.800427"/>
     <use style="fill:#1f77b4;stroke:#1f77b4;" x="65.91662" xlink:href="#me204899baf" y="138.211071"/>
     <use style="fill:#1f77b4;stroke:#1f77b4;" x="67.006065" xlink:href="#me204899baf" y="147.734676"/>
     <use style="fill:#1f77b4;stroke:#1f77b4;" x="68.095509" xlink:href="#me204899baf" y="158.848854"/>
     <use style="fill:#1f77b4;stroke:#1f77b4;" x="69.184954" xlink:href="#me204899baf" y="167.242034"/>
     <use style="fill:#1f77b4;stroke:#1f77b4;" x="70.274399" xlink:href="#me204899baf" y="182.343252"/>
     <use style="fill:#1f77b4;stroke:#1f77b4;" x="71.363844" xlink:href="#me204899baf" y="187.563812"/>
     <use style="fill:#1f77b4;stroke:#1f77b4;" x="72.453289" xlink:href="#me204899baf" y="227.366474"/>
     <use style="fill:#1f77b4;stroke:#1f77b4;" x="73.542733" xlink:href="#me204899baf" y="200.56206"/>
     <use style="fill:#1f77b4;stroke:#1f77b4;" x="74.632178" xlink:href="#me204899baf" y="212.052912"/>
     <use style="fill:#1f77b4;stroke:#1f77b4;" x="75.721623" xlink:href="#me204899baf" y="203.660795"/>
     <use style="fill:#1f77b4;stroke:#1f77b4;" x="76.811068" xlink:href="#me204899baf" y="208.66921"/>
     <use style="fill:#1f77b4;stroke:#1f77b4;" x="77.900513" xlink:href="#me204899baf" y="203.595576"/>
     <use style="fill:#1f77b4;stroke:#1f77b4;" x="78.989957" xlink:href="#me204899baf" y="205.375111"/>
     <use style="fill:#1f77b4;stroke:#1f77b4;" x="80.079402" xlink:href="#me204899baf" y="209.192218"/>
     <use style="fill:#1f77b4;stroke:#1f77b4;" x="81.168847" xlink:href="#me204899baf" y="205.221601"/>
     <use style="fill:#1f77b4;stroke:#1f77b4;" x="82.258292" xlink:href="#me204899baf" y="214.937774"/>
     <use style="fill:#1f77b4;stroke:#1f77b4;" x="83.347736" xlink:href="#me204899baf" y="207.261658"/>
     <use style="fill:#1f77b4;stroke:#1f77b4;" x="84.437181" xlink:href="#me204899baf" y="204.853941"/>
     <use style="fill:#1f77b4;stroke:#1f77b4;" x="85.526626" xlink:href="#me204899baf" y="201.822528"/>
     <use style="fill:#1f77b4;stroke:#1f77b4;" x="86.616071" xlink:href="#me204899baf" y="214.443046"/>
     <use style="fill:#1f77b4;stroke:#1f77b4;" x="87.705516" xlink:href="#me204899baf" y="205.018881"/>
     <use style="fill:#1f77b4;stroke:#1f77b4;" x="88.79496" xlink:href="#me204899baf" y="212.632753"/>
     <use style="fill:#1f77b4;stroke:#1f77b4;" x="89.884405" xlink:href="#me204899baf" y="207.290564"/>
     <use style="fill:#1f77b4;stroke:#1f77b4;" x="90.97385" xlink:href="#me204899baf" y="209.690442"/>
     <use style="fill:#1f77b4;stroke:#1f77b4;" x="92.063295" xlink:href="#me204899baf" y="209.100651"/>
     <use style="fill:#1f77b4;stroke:#1f77b4;" x="93.152739" xlink:href="#me204899baf" y="207.32857"/>
     <use style="fill:#1f77b4;stroke:#1f77b4;" x="94.242184" xlink:href="#me204899baf" y="206.633395"/>
     <use style="fill:#1f77b4;stroke:#1f77b4;" x="95.331629" xlink:href="#me204899baf" y="213.351237"/>
     <use style="fill:#1f77b4;stroke:#1f77b4;" x="96.421074" xlink:href="#me204899baf" y="206.438042"/>
     <use style="fill:#1f77b4;stroke:#1f77b4;" x="97.510519" xlink:href="#me204899baf" y="209.311253"/>
     <use style="fill:#1f77b4;stroke:#1f77b4;" x="98.599963" xlink:href="#me204899baf" y="213.109246"/>
     <use style="fill:#1f77b4;stroke:#1f77b4;" x="99.689408" xlink:href="#me204899baf" y="207.997532"/>
     <use style="fill:#1f77b4;stroke:#1f77b4;" x="100.778853" xlink:href="#me204899baf" y="206.35931"/>
     <use style="fill:#1f77b4;stroke:#1f77b4;" x="101.868298" xlink:href="#me204899baf" y="217.181771"/>
     <use style="fill:#1f77b4;stroke:#1f77b4;" x="102.957743" xlink:href="#me204899baf" y="203.594722"/>
     <use style="fill:#1f77b4;stroke:#1f77b4;" x="104.047187" xlink:href="#me204899baf" y="206.242167"/>
     <use style="fill:#1f77b4;stroke:#1f77b4;" x="105.136632" xlink:href="#me204899baf" y="227.705058"/>
     <use style="fill:#1f77b4;stroke:#1f77b4;" x="106.226077" xlink:href="#me204899baf" y="200.888521"/>
     <use style="fill:#1f77b4;stroke:#1f77b4;" x="107.315522" xlink:href="#me204899baf" y="210.280223"/>
     <use style="fill:#1f77b4;stroke:#1f77b4;" x="108.404966" xlink:href="#me204899baf" y="213.069479"/>
     <use style="fill:#1f77b4;stroke:#1f77b4;" x="109.494411" xlink:href="#me204899baf" y="204.151251"/>
     <use style="fill:#1f77b4;stroke:#1f77b4;" x="110.583856" xlink:href="#me204899baf" y="206.344726"/>
     <use style="fill:#1f77b4;stroke:#1f77b4;" x="111.673301" xlink:href="#me204899baf" y="221.39578"/>
     <use style="fill:#1f77b4;stroke:#1f77b4;" x="112.762746" xlink:href="#me204899baf" y="202.749455"/>
     <use style="fill:#1f77b4;stroke:#1f77b4;" x="113.85219" xlink:href="#me204899baf" y="211.571638"/>
     <use style="fill:#1f77b4;stroke:#1f77b4;" x="114.941635" xlink:href="#me204899baf" y="204.10393"/>
     <use style="fill:#1f77b4;stroke:#1f77b4;" x="116.03108" xlink:href="#me204899baf" y="207.05702"/>
     <use style="fill:#1f77b4;stroke:#1f77b4;" x="117.120525" xlink:href="#me204899baf" y="205.218915"/>
     <use style="fill:#1f77b4;stroke:#1f77b4;" x="118.209969" xlink:href="#me204899baf" y="214.208779"/>
     <use style="fill:#1f77b4;stroke:#1f77b4;" x="119.299414" xlink:href="#me204899baf" y="208.174432"/>
     <use style="fill:#1f77b4;stroke:#1f77b4;" x="120.388859" xlink:href="#me204899baf" y="212.602566"/>
     <use style="fill:#1f77b4;stroke:#1f77b4;" x="121.478304" xlink:href="#me204899baf" y="206.40138"/>
     <use style="fill:#1f77b4;stroke:#1f77b4;" x="122.567749" xlink:href="#me204899baf" y="212.016456"/>
     <use style="fill:#1f77b4;stroke:#1f77b4;" x="123.657193" xlink:href="#me204899baf" y="203.913615"/>
     <use style="fill:#1f77b4;stroke:#1f77b4;" x="124.746638" xlink:href="#me204899baf" y="206.272634"/>
     <use style="fill:#1f77b4;stroke:#1f77b4;" x="125.836083" xlink:href="#me204899baf" y="261.216"/>
     <use style="fill:#1f77b4;stroke:#1f77b4;" x="126.925528" xlink:href="#me204899baf" y="198.569087"/>
     <use style="fill:#1f77b4;stroke:#1f77b4;" x="128.014973" xlink:href="#me204899baf" y="209.4073"/>
     <use style="fill:#1f77b4;stroke:#1f77b4;" x="129.104417" xlink:href="#me204899baf" y="208.894025"/>
     <use style="fill:#1f77b4;stroke:#1f77b4;" x="130.193862" xlink:href="#me204899baf" y="204.485963"/>
     <use style="fill:#1f77b4;stroke:#1f77b4;" x="131.283307" xlink:href="#me204899baf" y="208.81032"/>
     <use style="fill:#1f77b4;stroke:#1f77b4;" x="132.372752" xlink:href="#me204899baf" y="208.80394"/>
     <use style="fill:#1f77b4;stroke:#1f77b4;" x="133.462196" xlink:href="#me204899baf" y="214.672472"/>
     <use style="fill:#1f77b4;stroke:#1f77b4;" x="134.551641" xlink:href="#me204899baf" y="204.21128"/>
     <use style="fill:#1f77b4;stroke:#1f77b4;" x="135.641086" xlink:href="#me204899baf" y="206.53359"/>
     <use style="fill:#1f77b4;stroke:#1f77b4;" x="136.730531" xlink:href="#me204899baf" y="209.318022"/>
     <use style="fill:#1f77b4;stroke:#1f77b4;" x="137.819976" xlink:href="#me204899baf" y="205.03737"/>
     <use style="fill:#1f77b4;stroke:#1f77b4;" x="138.90942" xlink:href="#me204899baf" y="214.723365"/>
     <use style="fill:#1f77b4;stroke:#1f77b4;" x="139.998865" xlink:href="#me204899baf" y="206.808933"/>
     <use style="fill:#1f77b4;stroke:#1f77b4;" x="141.08831" xlink:href="#me204899baf" y="216.915003"/>
     <use style="fill:#1f77b4;stroke:#1f77b4;" x="142.177755" xlink:href="#me204899baf" y="206.734394"/>
     <use style="fill:#1f77b4;stroke:#1f77b4;" x="143.2672" xlink:href="#me204899baf" y="207.478506"/>
     <use style="fill:#1f77b4;stroke:#1f77b4;" x="144.356644" xlink:href="#me204899baf" y="208.505678"/>
     <use style="fill:#1f77b4;stroke:#1f77b4;" x="145.446089" xlink:href="#me204899baf" y="213.364929"/>
     <use style="fill:#1f77b4;stroke:#1f77b4;" x="146.535534" xlink:href="#me204899baf" y="211.957365"/>
     <use style="fill:#1f77b4;stroke:#1f77b4;" x="147.624979" xlink:href="#me204899baf" y="209.461473"/>
     <use style="fill:#1f77b4;stroke:#1f77b4;" x="148.714423" xlink:href="#me204899baf" y="212.113498"/>
     <use style="fill:#1f77b4;stroke:#1f77b4;" x="149.803868" xlink:href="#me204899baf" y="207.773092"/>
     <use style="fill:#1f77b4;stroke:#1f77b4;" x="150.893313" xlink:href="#me204899baf" y="208.944248"/>
     <use style="fill:#1f77b4;stroke:#1f77b4;" x="151.982758" xlink:href="#me204899baf" y="207.878766"/>
     <use style="fill:#1f77b4;stroke:#1f77b4;" x="153.072203" xlink:href="#me204899baf" y="212.613225"/>
     <use style="fill:#1f77b4;stroke:#1f77b4;" x="154.161647" xlink:href="#me204899baf" y="204.480221"/>
     <use style="fill:#1f77b4;stroke:#1f77b4;" x="155.251092" xlink:href="#me204899baf" y="223.60078"/>
     <use style="fill:#1f77b4;stroke:#1f77b4;" x="156.340537" xlink:href="#me204899baf" y="203.322578"/>
     <use style="fill:#1f77b4;stroke:#1f77b4;" x="157.429982" xlink:href="#me204899baf" y="213.270179"/>
     <use style="fill:#1f77b4;stroke:#1f77b4;" x="158.519426" xlink:href="#me204899baf" y="204.786631"/>
     <use style="fill:#1f77b4;stroke:#1f77b4;" x="159.608871" xlink:href="#me204899baf" y="205.576122"/>
     <use style="fill:#1f77b4;stroke:#1f77b4;" x="160.698316" xlink:href="#me204899baf" y="214.891119"/>
     <use style="fill:#1f77b4;stroke:#1f77b4;" x="161.787761" xlink:href="#me204899baf" y="210.614103"/>
     <use style="fill:#1f77b4;stroke:#1f77b4;" x="162.877206" xlink:href="#me204899baf" y="203.836139"/>
     <use style="fill:#1f77b4;stroke:#1f77b4;" x="163.96665" xlink:href="#me204899baf" y="211.942103"/>
     <use style="fill:#1f77b4;stroke:#1f77b4;" x="165.056095" xlink:href="#me204899baf" y="212.889813"/>
     <use style="fill:#1f77b4;stroke:#1f77b4;" x="166.14554" xlink:href="#me204899baf" y="205.934278"/>
     <use style="fill:#1f77b4;stroke:#1f77b4;" x="167.234985" xlink:href="#me204899baf" y="206.126364"/>
     <use style="fill:#1f77b4;stroke:#1f77b4;" x="168.32443" xlink:href="#me204899baf" y="208.849291"/>
     <use style="fill:#1f77b4;stroke:#1f77b4;" x="169.413874" xlink:href="#me204899baf" y="207.053285"/>
     <use style="fill:#1f77b4;stroke:#1f77b4;" x="170.503319" xlink:href="#me204899baf" y="213.708777"/>
     <use style="fill:#1f77b4;stroke:#1f77b4;" x="171.592764" xlink:href="#me204899baf" y="202.434725"/>
     <use style="fill:#1f77b4;stroke:#1f77b4;" x="172.682209" xlink:href="#me204899baf" y="214.458001"/>
     <use style="fill:#1f77b4;stroke:#1f77b4;" x="173.771653" xlink:href="#me204899baf" y="204.440602"/>
     <use style="fill:#1f77b4;stroke:#1f77b4;" x="174.861098" xlink:href="#me204899baf" y="208.672993"/>
     <use style="fill:#1f77b4;stroke:#1f77b4;" x="175.950543" xlink:href="#me204899baf" y="206.374979"/>
     <use style="fill:#1f77b4;stroke:#1f77b4;" x="177.039988" xlink:href="#me204899baf" y="207.790875"/>
     <use style="fill:#1f77b4;stroke:#1f77b4;" x="178.129433" xlink:href="#me204899baf" y="213.323643"/>
     <use style="fill:#1f77b4;stroke:#1f77b4;" x="179.218877" xlink:href="#me204899baf" y="209.359983"/>
     <use style="fill:#1f77b4;stroke:#1f77b4;" x="180.308322" xlink:href="#me204899baf" y="204.531916"/>
     <use style="fill:#1f77b4;stroke:#1f77b4;" x="181.397767" xlink:href="#me204899baf" y="210.308465"/>
     <use style="fill:#1f77b4;stroke:#1f77b4;" x="182.487212" xlink:href="#me204899baf" y="203.72628"/>
     <use style="fill:#1f77b4;stroke:#1f77b4;" x="183.576656" xlink:href="#me204899baf" y="224.654505"/>
     <use style="fill:#1f77b4;stroke:#1f77b4;" x="184.666101" xlink:href="#me204899baf" y="200.550701"/>
     <use style="fill:#1f77b4;stroke:#1f77b4;" x="185.755546" xlink:href="#me204899baf" y="211.85923"/>
     <use style="fill:#1f77b4;stroke:#1f77b4;" x="186.844991" xlink:href="#me204899baf" y="207.250924"/>
     <use style="fill:#1f77b4;stroke:#1f77b4;" x="187.934436" xlink:href="#me204899baf" y="207.671905"/>
     <use style="fill:#1f77b4;stroke:#1f77b4;" x="189.02388" xlink:href="#me204899baf" y="220.145577"/>
     <use style="fill:#1f77b4;stroke:#1f77b4;" x="190.113325" xlink:href="#me204899baf" y="206.76792"/>
     <use style="fill:#1f77b4;stroke:#1f77b4;" x="191.20277" xlink:href="#me204899baf" y="208.761966"/>
     <use style="fill:#1f77b4;stroke:#1f77b4;" x="192.292215" xlink:href="#me204899baf" y="202.293238"/>
     <use style="fill:#1f77b4;stroke:#1f77b4;" x="193.38166" xlink:href="#me204899baf" y="221.069393"/>
     <use style="fill:#1f77b4;stroke:#1f77b4;" x="194.471104" xlink:href="#me204899baf" y="204.457741"/>
     <use style="fill:#1f77b4;stroke:#1f77b4;" x="195.560549" xlink:href="#me204899baf" y="211.888165"/>
     <use style="fill:#1f77b4;stroke:#1f77b4;" x="196.649994" xlink:href="#me204899baf" y="212.998751"/>
     <use style="fill:#1f77b4;stroke:#1f77b4;" x="197.739439" xlink:href="#me204899baf" y="208.382359"/>
     <use style="fill:#1f77b4;stroke:#1f77b4;" x="198.828883" xlink:href="#me204899baf" y="210.048048"/>
     <use style="fill:#1f77b4;stroke:#1f77b4;" x="199.918328" xlink:href="#me204899baf" y="207.145024"/>
     <use style="fill:#1f77b4;stroke:#1f77b4;" x="201.007773" xlink:href="#me204899baf" y="210.393514"/>
     <use style="fill:#1f77b4;stroke:#1f77b4;" x="202.097218" xlink:href="#me204899baf" y="209.454337"/>
     <use style="fill:#1f77b4;stroke:#1f77b4;" x="203.186663" xlink:href="#me204899baf" y="209.975723"/>
     <use style="fill:#1f77b4;stroke:#1f77b4;" x="204.276107" xlink:href="#me204899baf" y="207.542696"/>
     <use style="fill:#1f77b4;stroke:#1f77b4;" x="205.365552" xlink:href="#me204899baf" y="202.185962"/>
     <use style="fill:#1f77b4;stroke:#1f77b4;" x="206.454997" xlink:href="#me204899baf" y="251.629971"/>
     <use style="fill:#1f77b4;stroke:#1f77b4;" x="207.544442" xlink:href="#me204899baf" y="201.102233"/>
     <use style="fill:#1f77b4;stroke:#1f77b4;" x="208.633887" xlink:href="#me204899baf" y="212.5032"/>
     <use style="fill:#1f77b4;stroke:#1f77b4;" x="209.723331" xlink:href="#me204899baf" y="210.461664"/>
     <use style="fill:#1f77b4;stroke:#1f77b4;" x="210.812776" xlink:href="#me204899baf" y="207.054942"/>
     <use style="fill:#1f77b4;stroke:#1f77b4;" x="211.902221" xlink:href="#me204899baf" y="208.291729"/>
     <use style="fill:#1f77b4;stroke:#1f77b4;" x="212.991666" xlink:href="#me204899baf" y="204.827547"/>
     <use style="fill:#1f77b4;stroke:#1f77b4;" x="214.08111" xlink:href="#me204899baf" y="214.206266"/>
     <use style="fill:#1f77b4;stroke:#1f77b4;" x="215.170555" xlink:href="#me204899baf" y="206.093422"/>
     <use style="fill:#1f77b4;stroke:#1f77b4;" x="216.26" xlink:href="#me204899baf" y="210.427354"/>
     <use style="fill:#1f77b4;stroke:#1f77b4;" x="217.349445" xlink:href="#me204899baf" y="208.029777"/>
     <use style="fill:#1f77b4;stroke:#1f77b4;" x="218.43889" xlink:href="#me204899baf" y="213.941317"/>
     <use style="fill:#1f77b4;stroke:#1f77b4;" x="219.528334" xlink:href="#me204899baf" y="212.095019"/>
     <use style="fill:#1f77b4;stroke:#1f77b4;" x="220.617779" xlink:href="#me204899baf" y="211.177732"/>
     <use style="fill:#1f77b4;stroke:#1f77b4;" x="221.707224" xlink:href="#me204899baf" y="205.227976"/>
     <use style="fill:#1f77b4;stroke:#1f77b4;" x="222.796669" xlink:href="#me204899baf" y="204.98812"/>
     <use style="fill:#1f77b4;stroke:#1f77b4;" x="223.886113" xlink:href="#me204899baf" y="206.080912"/>
     <use style="fill:#1f77b4;stroke:#1f77b4;" x="224.975558" xlink:href="#me204899baf" y="211.208039"/>
     <use style="fill:#1f77b4;stroke:#1f77b4;" x="226.065003" xlink:href="#me204899baf" y="210.149543"/>
     <use style="fill:#1f77b4;stroke:#1f77b4;" x="227.154448" xlink:href="#me204899baf" y="206.682994"/>
     <use style="fill:#1f77b4;stroke:#1f77b4;" x="228.243893" xlink:href="#me204899baf" y="209.193141"/>
     <use style="fill:#1f77b4;stroke:#1f77b4;" x="229.333337" xlink:href="#me204899baf" y="207.456099"/>
     <use style="fill:#1f77b4;stroke:#1f77b4;" x="230.422782" xlink:href="#me204899baf" y="218.297305"/>
     <use style="fill:#1f77b4;stroke:#1f77b4;" x="231.512227" xlink:href="#me204899baf" y="204.579441"/>
     <use style="fill:#1f77b4;stroke:#1f77b4;" x="232.601672" xlink:href="#me204899baf" y="223.235651"/>
     <use style="fill:#1f77b4;stroke:#1f77b4;" x="233.691117" xlink:href="#me204899baf" y="206.898571"/>
     <use style="fill:#1f77b4;stroke:#1f77b4;" x="234.780561" xlink:href="#me204899baf" y="208.988062"/>
     <use style="fill:#1f77b4;stroke:#1f77b4;" x="235.870006" xlink:href="#me204899baf" y="212.808328"/>
     <use style="fill:#1f77b4;stroke:#1f77b4;" x="236.959451" xlink:href="#me204899baf" y="207.849209"/>
     <use style="fill:#1f77b4;stroke:#1f77b4;" x="238.048896" xlink:href="#me204899baf" y="207.597574"/>
     <use style="fill:#1f77b4;stroke:#1f77b4;" x="239.13834" xlink:href="#me204899baf" y="213.433451"/>
     <use style="fill:#1f77b4;stroke:#1f77b4;" x="240.227785" xlink:href="#me204899baf" y="207.713927"/>
     <use style="fill:#1f77b4;stroke:#1f77b4;" x="241.31723" xlink:href="#me204899baf" y="208.538753"/>
     <use style="fill:#1f77b4;stroke:#1f77b4;" x="242.406675" xlink:href="#me204899baf" y="206.652104"/>
     <use style="fill:#1f77b4;stroke:#1f77b4;" x="243.49612" xlink:href="#me204899baf" y="209.247969"/>
     <use style="fill:#1f77b4;stroke:#1f77b4;" x="244.585564" xlink:href="#me204899baf" y="209.253554"/>
     <use style="fill:#1f77b4;stroke:#1f77b4;" x="245.675009" xlink:href="#me204899baf" y="209.459551"/>
     <use style="fill:#1f77b4;stroke:#1f77b4;" x="246.764454" xlink:href="#me204899baf" y="205.088996"/>
     <use style="fill:#1f77b4;stroke:#1f77b4;" x="247.853899" xlink:href="#me204899baf" y="211.410585"/>
     <use style="fill:#1f77b4;stroke:#1f77b4;" x="248.943344" xlink:href="#me204899baf" y="201.609533"/>
     <use style="fill:#1f77b4;stroke:#1f77b4;" x="250.032788" xlink:href="#me204899baf" y="232.629967"/>
     <use style="fill:#1f77b4;stroke:#1f77b4;" x="251.122233" xlink:href="#me204899baf" y="202.78106"/>
     <use style="fill:#1f77b4;stroke:#1f77b4;" x="252.211678" xlink:href="#me204899baf" y="210.869213"/>
     <use style="fill:#1f77b4;stroke:#1f77b4;" x="253.301123" xlink:href="#me204899baf" y="204.234519"/>
     <use style="fill:#1f77b4;stroke:#1f77b4;" x="254.390567" xlink:href="#me204899baf" y="210.171201"/>
     <use style="fill:#1f77b4;stroke:#1f77b4;" x="255.480012" xlink:href="#me204899baf" y="208.804349"/>
     <use style="fill:#1f77b4;stroke:#1f77b4;" x="256.569457" xlink:href="#me204899baf" y="210.251542"/>
     <use style="fill:#1f77b4;stroke:#1f77b4;" x="257.658902" xlink:href="#me204899baf" y="219.14059"/>
     <use style="fill:#1f77b4;stroke:#1f77b4;" x="258.748347" xlink:href="#me204899baf" y="204.883418"/>
     <use style="fill:#1f77b4;stroke:#1f77b4;" x="259.837791" xlink:href="#me204899baf" y="206.722817"/>
     <use style="fill:#1f77b4;stroke:#1f77b4;" x="260.927236" xlink:href="#me204899baf" y="207.745137"/>
     <use style="fill:#1f77b4;stroke:#1f77b4;" x="262.016681" xlink:href="#me204899baf" y="207.754355"/>
     <use style="fill:#1f77b4;stroke:#1f77b4;" x="263.106126" xlink:href="#me204899baf" y="205.255589"/>
     <use style="fill:#1f77b4;stroke:#1f77b4;" x="264.19557" xlink:href="#me204899baf" y="207.59021"/>
     <use style="fill:#1f77b4;stroke:#1f77b4;" x="265.285015" xlink:href="#me204899baf" y="214.508928"/>
     <use style="fill:#1f77b4;stroke:#1f77b4;" x="266.37446" xlink:href="#me204899baf" y="205.300415"/>
     <use style="fill:#1f77b4;stroke:#1f77b4;" x="267.463905" xlink:href="#me204899baf" y="214.55901"/>
     <use style="fill:#1f77b4;stroke:#1f77b4;" x="268.55335" xlink:href="#me204899baf" y="212.495921"/>
     <use style="fill:#1f77b4;stroke:#1f77b4;" x="269.642794" xlink:href="#me204899baf" y="206.838944"/>
     <use style="fill:#1f77b4;stroke:#1f77b4;" x="270.732239" xlink:href="#me204899baf" y="206.753766"/>
     <use style="fill:#1f77b4;stroke:#1f77b4;" x="271.821684" xlink:href="#me204899baf" y="203.257292"/>
     <use style="fill:#1f77b4;stroke:#1f77b4;" x="272.911129" xlink:href="#me204899baf" y="213.91982"/>
     <use style="fill:#1f77b4;stroke:#1f77b4;" x="274.000574" xlink:href="#me204899baf" y="208.885687"/>
     <use style="fill:#1f77b4;stroke:#1f77b4;" x="275.090018" xlink:href="#me204899baf" y="204.361365"/>
     <use style="fill:#1f77b4;stroke:#1f77b4;" x="276.179463" xlink:href="#me204899baf" y="239.826909"/>
     <use style="fill:#1f77b4;stroke:#1f77b4;" x="277.268908" xlink:href="#me204899baf" y="202.734097"/>
     <use style="fill:#1f77b4;stroke:#1f77b4;" x="278.358353" xlink:href="#me204899baf" y="213.387975"/>
     <use style="fill:#1f77b4;stroke:#1f77b4;" x="279.447797" xlink:href="#me204899baf" y="206.041119"/>
     <use style="fill:#1f77b4;stroke:#1f77b4;" x="280.537242" xlink:href="#me204899baf" y="205.459534"/>
     <use style="fill:#1f77b4;stroke:#1f77b4;" x="281.626687" xlink:href="#me204899baf" y="209.004582"/>
     <use style="fill:#1f77b4;stroke:#1f77b4;" x="282.716132" xlink:href="#me204899baf" y="206.931852"/>
     <use style="fill:#1f77b4;stroke:#1f77b4;" x="283.805577" xlink:href="#me204899baf" y="211.740006"/>
     <use style="fill:#1f77b4;stroke:#1f77b4;" x="284.895021" xlink:href="#me204899baf" y="212.297271"/>
     <use style="fill:#1f77b4;stroke:#1f77b4;" x="285.984466" xlink:href="#me204899baf" y="211.212579"/>
     <use style="fill:#1f77b4;stroke:#1f77b4;" x="287.073911" xlink:href="#me204899baf" y="204.364923"/>
     <use style="fill:#1f77b4;stroke:#1f77b4;" x="288.163356" xlink:href="#me204899baf" y="204.433339"/>
     <use style="fill:#1f77b4;stroke:#1f77b4;" x="289.2528" xlink:href="#me204899baf" y="209.855988"/>
     <use style="fill:#1f77b4;stroke:#1f77b4;" x="290.342245" xlink:href="#me204899baf" y="210.047071"/>
     <use style="fill:#1f77b4;stroke:#1f77b4;" x="291.43169" xlink:href="#me204899baf" y="212.680959"/>
     <use style="fill:#1f77b4;stroke:#1f77b4;" x="292.521135" xlink:href="#me204899baf" y="209.486785"/>
     <use style="fill:#1f77b4;stroke:#1f77b4;" x="293.61058" xlink:href="#me204899baf" y="205.086861"/>
     <use style="fill:#1f77b4;stroke:#1f77b4;" x="294.700024" xlink:href="#me204899baf" y="208.920565"/>
     <use style="fill:#1f77b4;stroke:#1f77b4;" x="295.789469" xlink:href="#me204899baf" y="208.210915"/>
     <use style="fill:#1f77b4;stroke:#1f77b4;" x="296.878914" xlink:href="#me204899baf" y="211.295981"/>
     <use style="fill:#1f77b4;stroke:#1f77b4;" x="297.968359" xlink:href="#me204899baf" y="209.952274"/>
     <use style="fill:#1f77b4;stroke:#1f77b4;" x="299.057804" xlink:href="#me204899baf" y="210.411082"/>
     <use style="fill:#1f77b4;stroke:#1f77b4;" x="300.147248" xlink:href="#me204899baf" y="206.127336"/>
     <use style="fill:#1f77b4;stroke:#1f77b4;" x="301.236693" xlink:href="#me204899baf" y="218.28908"/>
     <use style="fill:#1f77b4;stroke:#1f77b4;" x="302.326138" xlink:href="#me204899baf" y="210.00721"/>
     <use style="fill:#1f77b4;stroke:#1f77b4;" x="303.415583" xlink:href="#me204899baf" y="212.887153"/>
     <use style="fill:#1f77b4;stroke:#1f77b4;" x="304.505027" xlink:href="#me204899baf" y="207.869524"/>
     <use style="fill:#1f77b4;stroke:#1f77b4;" x="305.594472" xlink:href="#me204899baf" y="212.314569"/>
     <use style="fill:#1f77b4;stroke:#1f77b4;" x="306.683917" xlink:href="#me204899baf" y="206.019867"/>
     <use style="fill:#1f77b4;stroke:#1f77b4;" x="307.773362" xlink:href="#me204899baf" y="212.046872"/>
     <use style="fill:#1f77b4;stroke:#1f77b4;" x="308.862807" xlink:href="#me204899baf" y="210.849487"/>
     <use style="fill:#1f77b4;stroke:#1f77b4;" x="309.952251" xlink:href="#me204899baf" y="206.708397"/>
     <use style="fill:#1f77b4;stroke:#1f77b4;" x="311.041696" xlink:href="#me204899baf" y="212.432922"/>
     <use style="fill:#1f77b4;stroke:#1f77b4;" x="312.131141" xlink:href="#me204899baf" y="210.000677"/>
     <use style="fill:#1f77b4;stroke:#1f77b4;" x="313.220586" xlink:href="#me204899baf" y="204.757808"/>
     <use style="fill:#1f77b4;stroke:#1f77b4;" x="314.310031" xlink:href="#me204899baf" y="235.377444"/>
     <use style="fill:#1f77b4;stroke:#1f77b4;" x="315.399475" xlink:href="#me204899baf" y="202.199563"/>
     <use style="fill:#1f77b4;stroke:#1f77b4;" x="316.48892" xlink:href="#me204899baf" y="205.878646"/>
     <use style="fill:#1f77b4;stroke:#1f77b4;" x="317.578365" xlink:href="#me204899baf" y="206.84958"/>
     <use style="fill:#1f77b4;stroke:#1f77b4;" x="318.66781" xlink:href="#me204899baf" y="208.706585"/>
     <use style="fill:#1f77b4;stroke:#1f77b4;" x="319.757254" xlink:href="#me204899baf" y="215.823573"/>
     <use style="fill:#1f77b4;stroke:#1f77b4;" x="320.846699" xlink:href="#me204899baf" y="202.883383"/>
     <use style="fill:#1f77b4;stroke:#1f77b4;" x="321.936144" xlink:href="#me204899baf" y="209.660277"/>
     <use style="fill:#1f77b4;stroke:#1f77b4;" x="323.025589" xlink:href="#me204899baf" y="215.434097"/>
     <use style="fill:#1f77b4;stroke:#1f77b4;" x="324.115034" xlink:href="#me204899baf" y="206.799165"/>
     <use style="fill:#1f77b4;stroke:#1f77b4;" x="325.204478" xlink:href="#me204899baf" y="214.777332"/>
     <use style="fill:#1f77b4;stroke:#1f77b4;" x="326.293923" xlink:href="#me204899baf" y="206.393713"/>
     <use style="fill:#1f77b4;stroke:#1f77b4;" x="327.383368" xlink:href="#me204899baf" y="211.272433"/>
     <use style="fill:#1f77b4;stroke:#1f77b4;" x="328.472813" xlink:href="#me204899baf" y="205.362677"/>
     <use style="fill:#1f77b4;stroke:#1f77b4;" x="329.562257" xlink:href="#me204899baf" y="205.488006"/>
     <use style="fill:#1f77b4;stroke:#1f77b4;" x="330.651702" xlink:href="#me204899baf" y="212.608414"/>
     <use style="fill:#1f77b4;stroke:#1f77b4;" x="331.741147" xlink:href="#me204899baf" y="210.851514"/>
     <use style="fill:#1f77b4;stroke:#1f77b4;" x="332.830592" xlink:href="#me204899baf" y="208.62976"/>
     <use style="fill:#1f77b4;stroke:#1f77b4;" x="333.920037" xlink:href="#me204899baf" y="214.000702"/>
     <use style="fill:#1f77b4;stroke:#1f77b4;" x="335.009481" xlink:href="#me204899baf" y="208.72223"/>
     <use style="fill:#1f77b4;stroke:#1f77b4;" x="336.098926" xlink:href="#me204899baf" y="205.678162"/>
     <use style="fill:#1f77b4;stroke:#1f77b4;" x="337.188371" xlink:href="#me204899baf" y="207.550008"/>
     <use style="fill:#1f77b4;stroke:#1f77b4;" x="338.277816" xlink:href="#me204899baf" y="206.401533"/>
     <use style="fill:#1f77b4;stroke:#1f77b4;" x="339.367261" xlink:href="#me204899baf" y="205.153356"/>
     <use style="fill:#1f77b4;stroke:#1f77b4;" x="340.456705" xlink:href="#me204899baf" y="210.038988"/>
     <use style="fill:#1f77b4;stroke:#1f77b4;" x="341.54615" xlink:href="#me204899baf" y="205.733213"/>
     <use style="fill:#1f77b4;stroke:#1f77b4;" x="342.635595" xlink:href="#me204899baf" y="205.044856"/>
     <use style="fill:#1f77b4;stroke:#1f77b4;" x="343.72504" xlink:href="#me204899baf" y="213.46226"/>
     <use style="fill:#1f77b4;stroke:#1f77b4;" x="344.814484" xlink:href="#me204899baf" y="205.925207"/>
     <use style="fill:#1f77b4;stroke:#1f77b4;" x="345.903929" xlink:href="#me204899baf" y="209.76617"/>
     <use style="fill:#1f77b4;stroke:#1f77b4;" x="346.993374" xlink:href="#me204899baf" y="209.524257"/>
     <use style="fill:#1f77b4;stroke:#1f77b4;" x="348.082819" xlink:href="#me204899baf" y="213.465937"/>
     <use style="fill:#1f77b4;stroke:#1f77b4;" x="349.172264" xlink:href="#me204899baf" y="206.69975"/>
     <use style="fill:#1f77b4;stroke:#1f77b4;" x="350.261708" xlink:href="#me204899baf" y="209.022709"/>
     <use style="fill:#1f77b4;stroke:#1f77b4;" x="351.351153" xlink:href="#me204899baf" y="224.139082"/>
     <use style="fill:#1f77b4;stroke:#1f77b4;" x="352.440598" xlink:href="#me204899baf" y="201.370791"/>
     <use style="fill:#1f77b4;stroke:#1f77b4;" x="353.530043" xlink:href="#me204899baf" y="210.07171"/>
     <use style="fill:#1f77b4;stroke:#1f77b4;" x="354.619487" xlink:href="#me204899baf" y="220.193377"/>
     <use style="fill:#1f77b4;stroke:#1f77b4;" x="355.708932" xlink:href="#me204899baf" y="205.094866"/>
     <use style="fill:#1f77b4;stroke:#1f77b4;" x="356.798377" xlink:href="#me204899baf" y="212.682246"/>
     <use style="fill:#1f77b4;stroke:#1f77b4;" x="357.887822" xlink:href="#me204899baf" y="208.723841"/>
     <use style="fill:#1f77b4;stroke:#1f77b4;" x="358.977267" xlink:href="#me204899baf" y="203.178912"/>
     <use style="fill:#1f77b4;stroke:#1f77b4;" x="360.066711" xlink:href="#me204899baf" y="235.11699"/>
     <use style="fill:#1f77b4;stroke:#1f77b4;" x="361.156156" xlink:href="#me204899baf" y="205.275272"/>
     <use style="fill:#1f77b4;stroke:#1f77b4;" x="362.245601" xlink:href="#me204899baf" y="208.571612"/>
     <use style="fill:#1f77b4;stroke:#1f77b4;" x="363.335046" xlink:href="#me204899baf" y="210.378903"/>
     <use style="fill:#1f77b4;stroke:#1f77b4;" x="364.424491" xlink:href="#me204899baf" y="204.944737"/>
     <use style="fill:#1f77b4;stroke:#1f77b4;" x="365.513935" xlink:href="#me204899baf" y="202.783775"/>
     <use style="fill:#1f77b4;stroke:#1f77b4;" x="366.60338" xlink:href="#me204899baf" y="235.810719"/>
     <use style="fill:#1f77b4;stroke:#1f77b4;" x="367.692825" xlink:href="#me204899baf" y="200.853932"/>
     <use style="fill:#1f77b4;stroke:#1f77b4;" x="368.78227" xlink:href="#me204899baf" y="214.086817"/>
     <use style="fill:#1f77b4;stroke:#1f77b4;" x="369.871714" xlink:href="#me204899baf" y="207.693968"/>
     <use style="fill:#1f77b4;stroke:#1f77b4;" x="370.961159" xlink:href="#me204899baf" y="215.112427"/>
     <use style="fill:#1f77b4;stroke:#1f77b4;" x="372.050604" xlink:href="#me204899baf" y="203.145568"/>
     <use style="fill:#1f77b4;stroke:#1f77b4;" x="373.140049" xlink:href="#me204899baf" y="211.910894"/>
     <use style="fill:#1f77b4;stroke:#1f77b4;" x="374.229494" xlink:href="#me204899baf" y="199.171363"/>
     <use style="fill:#1f77b4;stroke:#1f77b4;" x="375.318938" xlink:href="#me204899baf" y="213.600921"/>
     <use style="fill:#1f77b4;stroke:#1f77b4;" x="376.408383" xlink:href="#me204899baf" y="195.251364"/>
     <use style="fill:#1f77b4;stroke:#1f77b4;" x="377.082234" xlink:href="#me204899baf" y="22383.514"/>
    </g>
   </g>
   <g id="line2d_74">
    <path clip-path="url(#p54e94bbde7)" d="M 58.290506 66.130589 
L 59.379951 76.212255 
L 60.469396 87.209785 
L 61.558841 97.490545 
L 62.648286 107.703958 
L 63.73773 117.860327 
L 64.827175 127.800427 
L 65.91662 138.211071 
L 67.006065 147.734676 
L 68.095509 158.848854 
L 69.184954 167.242034 
" style="fill:none;stroke:#2ca02c;stroke-dasharray:1.5,2.475;stroke-dashoffset:0;stroke-width:1.5;"/>
    <defs>
     <path d="M -3 3 
L 3 -3 
M -3 -3 
L 3 3 
" id="mbbb2145ea4" style="stroke:#2ca02c;"/>
    </defs>
    <g clip-path="url(#p54e94bbde7)">
     <use style="fill:#2ca02c;stroke:#2ca02c;" x="58.290506" xlink:href="#mbbb2145ea4" y="66.130589"/>
     <use style="fill:#2ca02c;stroke:#2ca02c;" x="59.379951" xlink:href="#mbbb2145ea4" y="76.212255"/>
     <use style="fill:#2ca02c;stroke:#2ca02c;" x="60.469396" xlink:href="#mbbb2145ea4" y="87.209785"/>
     <use style="fill:#2ca02c;stroke:#2ca02c;" x="61.558841" xlink:href="#mbbb2145ea4" y="97.490545"/>
     <use style="fill:#2ca02c;stroke:#2ca02c;" x="62.648286" xlink:href="#mbbb2145ea4" y="107.703958"/>
     <use style="fill:#2ca02c;stroke:#2ca02c;" x="63.73773" xlink:href="#mbbb2145ea4" y="117.860327"/>
     <use style="fill:#2ca02c;stroke:#2ca02c;" x="64.827175" xlink:href="#mbbb2145ea4" y="127.800427"/>
     <use style="fill:#2ca02c;stroke:#2ca02c;" x="65.91662" xlink:href="#mbbb2145ea4" y="138.211071"/>
     <use style="fill:#2ca02c;stroke:#2ca02c;" x="67.006065" xlink:href="#mbbb2145ea4" y="147.734676"/>
     <use style="fill:#2ca02c;stroke:#2ca02c;" x="68.095509" xlink:href="#mbbb2145ea4" y="158.848854"/>
     <use style="fill:#2ca02c;stroke:#2ca02c;" x="69.184954" xlink:href="#mbbb2145ea4" y="167.242034"/>
    </g>
   </g>
   <g id="line2d_75">
    <path clip-path="url(#p54e94bbde7)" d="M 55.022172 102.550974 
L 77.434612 311.86825 
L 77.434612 311.86825 
" style="fill:none;stroke:#000000;stroke-dasharray:5.55,2.4;stroke-dashoffset:0;stroke-width:1.5;"/>
   </g>
   <g id="patch_3">
    <path d="M 37.7 273.312 
L 37.7 7.2 
" style="fill:none;stroke:#000000;stroke-linecap:square;stroke-linejoin:miter;stroke-width:0.8;"/>
   </g>
   <g id="patch_4">
    <path d="M 394.82 273.312 
L 394.82 7.2 
" style="fill:none;stroke:#000000;stroke-linecap:square;stroke-linejoin:miter;stroke-width:0.8;"/>
   </g>
   <g id="patch_5">
    <path d="M 37.7 273.312 
L 394.82 273.312 
" style="fill:none;stroke:#000000;stroke-linecap:square;stroke-linejoin:miter;stroke-width:0.8;"/>
   </g>
   <g id="patch_6">
    <path d="M 37.7 7.2 
L 394.82 7.2 
" style="fill:none;stroke:#000000;stroke-linecap:square;stroke-linejoin:miter;stroke-width:0.8;"/>
   </g>
   <g id="legend_1">
    <g id="patch_7">
     <path d="M 286.72 59.25625 
L 387.82 59.25625 
Q 389.82 59.25625 389.82 57.25625 
L 389.82 14.2 
Q 389.82 12.2 387.82 12.2 
L 286.72 12.2 
Q 284.72 12.2 284.72 14.2 
L 284.72 57.25625 
Q 284.72 59.25625 286.72 59.25625 
z
" style="fill:#ffffff;opacity:0.8;"/>
    </g>
    <g id="line2d_76">
     <path d="M 288.72 20.298437 
L 308.72 20.298437 
" style="fill:none;stroke:#1f77b4;stroke-linecap:square;stroke-width:1.5;"/>
    </g>
    <g id="line2d_77">
     <g>
      <use style="fill:#1f77b4;stroke:#1f77b4;" x="298.72" xlink:href="#me204899baf" y="20.298437"/>
     </g>
    </g>
    <g id="text_17">
     <!-- APD$_n$ - APD$_\infty$ -->
     <defs>
      <path d="M 34.1875 63.1875 
L 20.796875 26.90625 
L 47.609375 26.90625 
z
M 28.609375 72.90625 
L 39.796875 72.90625 
L 67.578125 0 
L 57.328125 0 
L 50.6875 18.703125 
L 17.828125 18.703125 
L 11.1875 0 
L 0.78125 0 
z
" id="DejaVuSans-65"/>
      <path d="M 19.671875 64.796875 
L 19.671875 37.40625 
L 32.078125 37.40625 
Q 38.96875 37.40625 42.71875 40.96875 
Q 46.484375 44.53125 46.484375 51.125 
Q 46.484375 57.671875 42.71875 61.234375 
Q 38.96875 64.796875 32.078125 64.796875 
z
M 9.8125 72.90625 
L 32.078125 72.90625 
Q 44.34375 72.90625 50.609375 67.359375 
Q 56.890625 61.8125 56.890625 51.125 
Q 56.890625 40.328125 50.609375 34.8125 
Q 44.34375 29.296875 32.078125 29.296875 
L 19.671875 29.296875 
L 19.671875 0 
L 9.8125 0 
z
" id="DejaVuSans-80"/>
      <path d="M 19.671875 64.796875 
L 19.671875 8.109375 
L 31.59375 8.109375 
Q 46.6875 8.109375 53.6875 14.9375 
Q 60.6875 21.78125 60.6875 36.53125 
Q 60.6875 51.171875 53.6875 57.984375 
Q 46.6875 64.796875 31.59375 64.796875 
z
M 9.8125 72.90625 
L 30.078125 72.90625 
Q 51.265625 72.90625 61.171875 64.09375 
Q 71.09375 55.28125 71.09375 36.53125 
Q 71.09375 17.671875 61.125 8.828125 
Q 51.171875 0 30.078125 0 
L 9.8125 0 
z
" id="DejaVuSans-68"/>
      <path d="M 55.71875 33.015625 
L 49.3125 0 
L 40.28125 0 
L 46.6875 32.671875 
Q 47.125 34.96875 47.359375 36.71875 
Q 47.609375 38.484375 47.609375 39.5 
Q 47.609375 43.609375 45.015625 45.890625 
Q 42.4375 48.1875 37.796875 48.1875 
Q 30.5625 48.1875 25.34375 43.375 
Q 20.125 38.578125 18.5 30.328125 
L 12.5 0 
L 3.515625 0 
L 14.109375 54.6875 
L 23.09375 54.6875 
L 21.296875 46.09375 
Q 25.046875 50.828125 30.3125 53.40625 
Q 35.59375 56 41.40625 56 
Q 48.640625 56 52.609375 52.09375 
Q 56.59375 48.1875 56.59375 41.109375 
Q 56.59375 39.359375 56.375 37.359375 
Q 56.15625 35.359375 55.71875 33.015625 
z
" id="DejaVuSans-Oblique-110"/>
      <path id="DejaVuSans-32"/>
      <path d="M 4.890625 31.390625 
L 31.203125 31.390625 
L 31.203125 23.390625 
L 4.890625 23.390625 
z
" id="DejaVuSans-45"/>
      <path d="M 45.5625 17.046875 
Q 44.046875 18.796875 41.65625 22.90625 
Q 38.375 17.046875 35.5 14.453125 
Q 31.890625 11.328125 26.265625 11.328125 
Q 19.671875 11.328125 15.328125 16.265625 
Q 10.75 21.4375 10.75 29.984375 
Q 10.75 38.1875 15.328125 43.75 
Q 19.4375 48.6875 26.375 48.6875 
Q 29.9375 48.6875 32.5625 47.21875 
Q 35.640625 45.609375 37.75 42.828125 
Q 39.703125 40.328125 41.65625 36.96875 
Q 44.921875 42.828125 47.796875 45.40625 
Q 51.421875 48.53125 57.03125 48.53125 
Q 63.625 48.53125 67.96875 43.609375 
Q 72.5625 38.421875 72.5625 29.890625 
Q 72.5625 21.6875 67.96875 16.109375 
Q 63.875 11.1875 56.9375 11.1875 
Q 53.375 11.1875 50.734375 12.640625 
Q 48.09375 13.96875 45.5625 17.046875 
z
M 25.734375 17.71875 
Q 33.796875 17.71875 38.625 29.4375 
Q 32.421875 42.234375 25.734375 42.234375 
Q 20.84375 42.234375 18.359375 38.71875 
Q 15.671875 34.96875 15.671875 29.984375 
Q 15.671875 24.515625 18.359375 21.140625 
Q 21.09375 17.71875 25.734375 17.71875 
z
M 57.5625 42.140625 
Q 50.296875 42.140625 44.671875 30.421875 
Q 50.828125 17.625 57.5625 17.625 
Q 62.453125 17.625 64.9375 21.140625 
Q 67.625 24.90625 67.625 29.890625 
Q 67.625 35.359375 64.9375 38.71875 
Q 62.203125 42.140625 57.5625 42.140625 
z
" id="DejaVuSans-8734"/>
     </defs>
     <g transform="translate(316.72 23.798437)scale(0.1 -0.1)">
      <use transform="translate(0 0.09375)" xlink:href="#DejaVuSans-65"/>
      <use transform="translate(68.408203 0.09375)" xlink:href="#DejaVuSans-80"/>
      <use transform="translate(128.710938 0.09375)" xlink:href="#DejaVuSans-68"/>
      <use transform="translate(206.669922 -16.3125)scale(0.7)" xlink:href="#DejaVuSans-Oblique-110"/>
      <use transform="translate(253.769531 0.09375)" xlink:href="#DejaVuSans-32"/>
      <use transform="translate(285.556641 0.09375)" xlink:href="#DejaVuSans-45"/>
      <use transform="translate(321.640625 0.09375)" xlink:href="#DejaVuSans-32"/>
      <use transform="translate(353.427734 0.09375)" xlink:href="#DejaVuSans-65"/>
      <use transform="translate(421.835938 0.09375)" xlink:href="#DejaVuSans-80"/>
      <use transform="translate(482.138672 0.09375)" xlink:href="#DejaVuSans-68"/>
      <use transform="translate(560.097656 -16.3125)scale(0.7)" xlink:href="#DejaVuSans-8734"/>
     </g>
    </g>
    <g id="line2d_78">
     <path d="M 288.72 34.976562 
L 308.72 34.976562 
" style="fill:none;stroke:#2ca02c;stroke-dasharray:1.5,2.475;stroke-dashoffset:0;stroke-width:1.5;"/>
    </g>
    <g id="line2d_79">
     <g>
      <use style="fill:#2ca02c;stroke:#2ca02c;" x="298.72" xlink:href="#mbbb2145ea4" y="34.976562"/>
     </g>
    </g>
    <g id="text_18">
     <!-- linear region -->
     <defs>
      <path d="M 9.421875 75.984375 
L 18.40625 75.984375 
L 18.40625 0 
L 9.421875 0 
z
" id="DejaVuSans-108"/>
      <path d="M 9.421875 54.6875 
L 18.40625 54.6875 
L 18.40625 0 
L 9.421875 0 
z
M 9.421875 75.984375 
L 18.40625 75.984375 
L 18.40625 64.59375 
L 9.421875 64.59375 
z
" id="DejaVuSans-105"/>
      <path d="M 54.890625 33.015625 
L 54.890625 0 
L 45.90625 0 
L 45.90625 32.71875 
Q 45.90625 40.484375 42.875 44.328125 
Q 39.84375 48.1875 33.796875 48.1875 
Q 26.515625 48.1875 22.3125 43.546875 
Q 18.109375 38.921875 18.109375 30.90625 
L 18.109375 0 
L 9.078125 0 
L 9.078125 54.6875 
L 18.109375 54.6875 
L 18.109375 46.1875 
Q 21.34375 51.125 25.703125 53.5625 
Q 30.078125 56 35.796875 56 
Q 45.21875 56 50.046875 50.171875 
Q 54.890625 44.34375 54.890625 33.015625 
z
" id="DejaVuSans-110"/>
      <path d="M 56.203125 29.59375 
L 56.203125 25.203125 
L 14.890625 25.203125 
Q 15.484375 15.921875 20.484375 11.0625 
Q 25.484375 6.203125 34.421875 6.203125 
Q 39.59375 6.203125 44.453125 7.46875 
Q 49.3125 8.734375 54.109375 11.28125 
L 54.109375 2.78125 
Q 49.265625 0.734375 44.1875 -0.34375 
Q 39.109375 -1.421875 33.890625 -1.421875 
Q 20.796875 -1.421875 13.15625 6.1875 
Q 5.515625 13.8125 5.515625 26.8125 
Q 5.515625 40.234375 12.765625 48.109375 
Q 20.015625 56 32.328125 56 
Q 43.359375 56 49.78125 48.890625 
Q 56.203125 41.796875 56.203125 29.59375 
z
M 47.21875 32.234375 
Q 47.125 39.59375 43.09375 43.984375 
Q 39.0625 48.390625 32.421875 48.390625 
Q 24.90625 48.390625 20.390625 44.140625 
Q 15.875 39.890625 15.1875 32.171875 
z
" id="DejaVuSans-101"/>
      <path d="M 34.28125 27.484375 
Q 23.390625 27.484375 19.1875 25 
Q 14.984375 22.515625 14.984375 16.5 
Q 14.984375 11.71875 18.140625 8.90625 
Q 21.296875 6.109375 26.703125 6.109375 
Q 34.1875 6.109375 38.703125 11.40625 
Q 43.21875 16.703125 43.21875 25.484375 
L 43.21875 27.484375 
z
M 52.203125 31.203125 
L 52.203125 0 
L 43.21875 0 
L 43.21875 8.296875 
Q 40.140625 3.328125 35.546875 0.953125 
Q 30.953125 -1.421875 24.3125 -1.421875 
Q 15.921875 -1.421875 10.953125 3.296875 
Q 6 8.015625 6 15.921875 
Q 6 25.140625 12.171875 29.828125 
Q 18.359375 34.515625 30.609375 34.515625 
L 43.21875 34.515625 
L 43.21875 35.40625 
Q 43.21875 41.609375 39.140625 45 
Q 35.0625 48.390625 27.6875 48.390625 
Q 23 48.390625 18.546875 47.265625 
Q 14.109375 46.140625 10.015625 43.890625 
L 10.015625 52.203125 
Q 14.9375 54.109375 19.578125 55.046875 
Q 24.21875 56 28.609375 56 
Q 40.484375 56 46.34375 49.84375 
Q 52.203125 43.703125 52.203125 31.203125 
z
" id="DejaVuSans-97"/>
      <path d="M 41.109375 46.296875 
Q 39.59375 47.171875 37.8125 47.578125 
Q 36.03125 48 33.890625 48 
Q 26.265625 48 22.1875 43.046875 
Q 18.109375 38.09375 18.109375 28.8125 
L 18.109375 0 
L 9.078125 0 
L 9.078125 54.6875 
L 18.109375 54.6875 
L 18.109375 46.1875 
Q 20.953125 51.171875 25.484375 53.578125 
Q 30.03125 56 36.53125 56 
Q 37.453125 56 38.578125 55.875 
Q 39.703125 55.765625 41.0625 55.515625 
z
" id="DejaVuSans-114"/>
      <path d="M 45.40625 27.984375 
Q 45.40625 37.75 41.375 43.109375 
Q 37.359375 48.484375 30.078125 48.484375 
Q 22.859375 48.484375 18.828125 43.109375 
Q 14.796875 37.75 14.796875 27.984375 
Q 14.796875 18.265625 18.828125 12.890625 
Q 22.859375 7.515625 30.078125 7.515625 
Q 37.359375 7.515625 41.375 12.890625 
Q 45.40625 18.265625 45.40625 27.984375 
z
M 54.390625 6.78125 
Q 54.390625 -7.171875 48.1875 -13.984375 
Q 42 -20.796875 29.203125 -20.796875 
Q 24.46875 -20.796875 20.265625 -20.09375 
Q 16.0625 -19.390625 12.109375 -17.921875 
L 12.109375 -9.1875 
Q 16.0625 -11.328125 19.921875 -12.34375 
Q 23.78125 -13.375 27.78125 -13.375 
Q 36.625 -13.375 41.015625 -8.765625 
Q 45.40625 -4.15625 45.40625 5.171875 
L 45.40625 9.625 
Q 42.625 4.78125 38.28125 2.390625 
Q 33.9375 0 27.875 0 
Q 17.828125 0 11.671875 7.65625 
Q 5.515625 15.328125 5.515625 27.984375 
Q 5.515625 40.671875 11.671875 48.328125 
Q 17.828125 56 27.875 56 
Q 33.9375 56 38.28125 53.609375 
Q 42.625 51.21875 45.40625 46.390625 
L 45.40625 54.6875 
L 54.390625 54.6875 
z
" id="DejaVuSans-103"/>
      <path d="M 30.609375 48.390625 
Q 23.390625 48.390625 19.1875 42.75 
Q 14.984375 37.109375 14.984375 27.296875 
Q 14.984375 17.484375 19.15625 11.84375 
Q 23.34375 6.203125 30.609375 6.203125 
Q 37.796875 6.203125 41.984375 11.859375 
Q 46.1875 17.53125 46.1875 27.296875 
Q 46.1875 37.015625 41.984375 42.703125 
Q 37.796875 48.390625 30.609375 48.390625 
z
M 30.609375 56 
Q 42.328125 56 49.015625 48.375 
Q 55.71875 40.765625 55.71875 27.296875 
Q 55.71875 13.875 49.015625 6.21875 
Q 42.328125 -1.421875 30.609375 -1.421875 
Q 18.84375 -1.421875 12.171875 6.21875 
Q 5.515625 13.875 5.515625 27.296875 
Q 5.515625 40.765625 12.171875 48.375 
Q 18.84375 56 30.609375 56 
z
" id="DejaVuSans-111"/>
     </defs>
     <g transform="translate(316.72 38.476562)scale(0.1 -0.1)">
      <use xlink:href="#DejaVuSans-108"/>
      <use x="27.783203" xlink:href="#DejaVuSans-105"/>
      <use x="55.566406" xlink:href="#DejaVuSans-110"/>
      <use x="118.945312" xlink:href="#DejaVuSans-101"/>
      <use x="180.46875" xlink:href="#DejaVuSans-97"/>
      <use x="241.748047" xlink:href="#DejaVuSans-114"/>
      <use x="282.861328" xlink:href="#DejaVuSans-32"/>
      <use x="314.648438" xlink:href="#DejaVuSans-114"/>
      <use x="353.511719" xlink:href="#DejaVuSans-101"/>
      <use x="415.035156" xlink:href="#DejaVuSans-103"/>
      <use x="478.511719" xlink:href="#DejaVuSans-105"/>
      <use x="506.294922" xlink:href="#DejaVuSans-111"/>
      <use x="567.476562" xlink:href="#DejaVuSans-110"/>
     </g>
    </g>
    <g id="line2d_80">
     <path d="M 288.72 49.65625 
L 308.72 49.65625 
" style="fill:none;stroke:#000000;stroke-dasharray:5.55,2.4;stroke-dashoffset:0;stroke-width:1.5;"/>
    </g>
    <g id="line2d_81"/>
    <g id="text_19">
     <!-- $ \exp(-0.651 k)$ -->
     <defs>
      <path d="M 54.890625 54.6875 
L 35.109375 28.078125 
L 55.90625 0 
L 45.3125 0 
L 29.390625 21.484375 
L 13.484375 0 
L 2.875 0 
L 24.125 28.609375 
L 4.6875 54.6875 
L 15.28125 54.6875 
L 29.78125 35.203125 
L 44.28125 54.6875 
z
" id="DejaVuSans-120"/>
      <path d="M 18.109375 8.203125 
L 18.109375 -20.796875 
L 9.078125 -20.796875 
L 9.078125 54.6875 
L 18.109375 54.6875 
L 18.109375 46.390625 
Q 20.953125 51.265625 25.265625 53.625 
Q 29.59375 56 35.59375 56 
Q 45.5625 56 51.78125 48.09375 
Q 58.015625 40.1875 58.015625 27.296875 
Q 58.015625 14.40625 51.78125 6.484375 
Q 45.5625 -1.421875 35.59375 -1.421875 
Q 29.59375 -1.421875 25.265625 0.953125 
Q 20.953125 3.328125 18.109375 8.203125 
z
M 48.6875 27.296875 
Q 48.6875 37.203125 44.609375 42.84375 
Q 40.53125 48.484375 33.40625 48.484375 
Q 26.265625 48.484375 22.1875 42.84375 
Q 18.109375 37.203125 18.109375 27.296875 
Q 18.109375 17.390625 22.1875 11.75 
Q 26.265625 6.109375 33.40625 6.109375 
Q 40.53125 6.109375 44.609375 11.75 
Q 48.6875 17.390625 48.6875 27.296875 
z
" id="DejaVuSans-112"/>
      <path d="M 31 75.875 
Q 24.46875 64.65625 21.28125 53.65625 
Q 18.109375 42.671875 18.109375 31.390625 
Q 18.109375 20.125 21.3125 9.0625 
Q 24.515625 -2 31 -13.1875 
L 23.1875 -13.1875 
Q 15.875 -1.703125 12.234375 9.375 
Q 8.59375 20.453125 8.59375 31.390625 
Q 8.59375 42.28125 12.203125 53.3125 
Q 15.828125 64.359375 23.1875 75.875 
z
" id="DejaVuSans-40"/>
      <path d="M 10.6875 12.40625 
L 21 12.40625 
L 21 0 
L 10.6875 0 
z
" id="DejaVuSans-46"/>
      <path d="M 33.015625 40.375 
Q 26.375 40.375 22.484375 35.828125 
Q 18.609375 31.296875 18.609375 23.390625 
Q 18.609375 15.53125 22.484375 10.953125 
Q 26.375 6.390625 33.015625 6.390625 
Q 39.65625 6.390625 43.53125 10.953125 
Q 47.40625 15.53125 47.40625 23.390625 
Q 47.40625 31.296875 43.53125 35.828125 
Q 39.65625 40.375 33.015625 40.375 
z
M 52.59375 71.296875 
L 52.59375 62.3125 
Q 48.875 64.0625 45.09375 64.984375 
Q 41.3125 65.921875 37.59375 65.921875 
Q 27.828125 65.921875 22.671875 59.328125 
Q 17.53125 52.734375 16.796875 39.40625 
Q 19.671875 43.65625 24.015625 45.921875 
Q 28.375 48.1875 33.59375 48.1875 
Q 44.578125 48.1875 50.953125 41.515625 
Q 57.328125 34.859375 57.328125 23.390625 
Q 57.328125 12.15625 50.6875 5.359375 
Q 44.046875 -1.421875 33.015625 -1.421875 
Q 20.359375 -1.421875 13.671875 8.265625 
Q 6.984375 17.96875 6.984375 36.375 
Q 6.984375 53.65625 15.1875 63.9375 
Q 23.390625 74.21875 37.203125 74.21875 
Q 40.921875 74.21875 44.703125 73.484375 
Q 48.484375 72.75 52.59375 71.296875 
z
" id="DejaVuSans-54"/>
      <path d="M 8.015625 75.875 
L 15.828125 75.875 
Q 23.140625 64.359375 26.78125 53.3125 
Q 30.421875 42.28125 30.421875 31.390625 
Q 30.421875 20.453125 26.78125 9.375 
Q 23.140625 -1.703125 15.828125 -13.1875 
L 8.015625 -13.1875 
Q 14.5 -2 17.703125 9.0625 
Q 20.90625 20.125 20.90625 31.390625 
Q 20.90625 42.671875 17.703125 53.65625 
Q 14.5 64.65625 8.015625 75.875 
z
" id="DejaVuSans-41"/>
     </defs>
     <g transform="translate(316.72 53.15625)scale(0.1 -0.1)">
      <use transform="translate(0 0.015625)" xlink:href="#DejaVuSans-101"/>
      <use transform="translate(61.523438 0.015625)" xlink:href="#DejaVuSans-120"/>
      <use transform="translate(120.703125 0.015625)" xlink:href="#DejaVuSans-112"/>
      <use transform="translate(184.179688 0.015625)" xlink:href="#DejaVuSans-40"/>
      <use transform="translate(223.193359 0.015625)" xlink:href="#DejaVuSans-8722"/>
      <use transform="translate(306.982422 0.015625)" xlink:href="#DejaVuSans-48"/>
      <use transform="translate(370.605469 0.015625)" xlink:href="#DejaVuSans-46"/>
      <use transform="translate(402.392578 0.015625)" xlink:href="#DejaVuSans-54"/>
      <use transform="translate(466.015625 0.015625)" xlink:href="#DejaVuSans-53"/>
      <use transform="translate(529.638672 0.015625)" xlink:href="#DejaVuSans-49"/>
      <use transform="translate(593.261719 0.015625)" xlink:href="#DejaVuSans-Oblique-107"/>
      <use transform="translate(651.171875 0.015625)" xlink:href="#DejaVuSans-41"/>
     </g>
    </g>
   </g>
  </g>
 </g>
 <defs>
  <clipPath id="p54e94bbde7">
   <rect height="266.112" width="357.12" x="37.7" y="7.2"/>
  </clipPath>
 </defs>
</svg>
