<?xml version="1.0" encoding="utf-8" standalone="no"?>
<!DOCTYPE svg PUBLIC "-//W3C//DTD SVG 1.1//EN"
  "http://www.w3.org/Graphics/SVG/1.1/DTD/svg11.dtd">
<!-- Created with matplotlib (https://matplotlib.org/) -->
<svg height="310.86825pt" version="1.1" viewBox="0 0 403.087275 310.86825" width="403.087275pt" xmlns="http://www.w3.org/2000/svg" xmlns:xlink="http://www.w3.org/1999/xlink">
 <defs>
  <style type="text/css">
*{stroke-linecap:butt;stroke-linejoin:round;}
  </style>
 </defs>
 <g id="figure_1">
  <g id="patch_1">
   <path d="M 0 310.86825 
L 403.087275 310.86825 
L 403.087275 0 
L 0 0 
z
" style="fill:#ffffff;"/>
  </g>
  <g id="axes_1">
   <g id="patch_2">
    <path d="M 37.7 273.312 
L 394.82 273.312 
L 394.82 7.2 
L 37.7 7.2 
z
" style="fill:#ffffff;"/>
   </g>
   <g id="matplotlib.axis_1">
    <g id="xtick_1">
     <g id="line2d_1">
      <defs>
       <path d="M 0 0 
L 0 3.5 
" id="mfb8aa486b2" style="stroke:#000000;stroke-width:0.8;"/>
      </defs>
      <g>
       <use style="stroke:#000000;stroke-width:0.8;" x="53.932727" xlink:href="#mfb8aa486b2" y="273.312"/>
      </g>
     </g>
     <g id="text_1">
      <!-- 0 -->
      <defs>
       <path d="M 31.78125 66.40625 
Q 24.171875 66.40625 20.328125 58.90625 
Q 16.5 51.421875 16.5 36.375 
Q 16.5 21.390625 20.328125 13.890625 
Q 24.171875 6.390625 31.78125 6.390625 
Q 39.453125 6.390625 43.28125 13.890625 
Q 47.125 21.390625 47.125 36.375 
Q 47.125 51.421875 43.28125 58.90625 
Q 39.453125 66.40625 31.78125 66.40625 
z
M 31.78125 74.21875 
Q 44.046875 74.21875 50.515625 64.515625 
Q 56.984375 54.828125 56.984375 36.375 
Q 56.984375 17.96875 50.515625 8.265625 
Q 44.046875 -1.421875 31.78125 -1.421875 
Q 19.53125 -1.421875 13.0625 8.265625 
Q 6.59375 17.96875 6.59375 36.375 
Q 6.59375 54.828125 13.0625 64.515625 
Q 19.53125 74.21875 31.78125 74.21875 
z
" id="DejaVuSans-48"/>
      </defs>
      <g transform="translate(50.751477 287.910437)scale(0.1 -0.1)">
       <use xlink:href="#DejaVuSans-48"/>
      </g>
     </g>
    </g>
    <g id="xtick_2">
     <g id="line2d_2">
      <g>
       <use style="stroke:#000000;stroke-width:0.8;" x="109.334527" xlink:href="#mfb8aa486b2" y="273.312"/>
      </g>
     </g>
     <g id="text_2">
      <!-- 50 -->
      <defs>
       <path d="M 10.796875 72.90625 
L 49.515625 72.90625 
L 49.515625 64.59375 
L 19.828125 64.59375 
L 19.828125 46.734375 
Q 21.96875 47.46875 24.109375 47.828125 
Q 26.265625 48.1875 28.421875 48.1875 
Q 40.625 48.1875 47.75 41.5 
Q 54.890625 34.8125 54.890625 23.390625 
Q 54.890625 11.625 47.5625 5.09375 
Q 40.234375 -1.421875 26.90625 -1.421875 
Q 22.3125 -1.421875 17.546875 -0.640625 
Q 12.796875 0.140625 7.71875 1.703125 
L 7.71875 11.625 
Q 12.109375 9.234375 16.796875 8.0625 
Q 21.484375 6.890625 26.703125 6.890625 
Q 35.15625 6.890625 40.078125 11.328125 
Q 45.015625 15.765625 45.015625 23.390625 
Q 45.015625 31 40.078125 35.4375 
Q 35.15625 39.890625 26.703125 39.890625 
Q 22.75 39.890625 18.8125 39.015625 
Q 14.890625 38.140625 10.796875 36.28125 
z
" id="DejaVuSans-53"/>
      </defs>
      <g transform="translate(102.972027 287.910437)scale(0.1 -0.1)">
       <use xlink:href="#DejaVuSans-53"/>
       <use x="63.623047" xlink:href="#DejaVuSans-48"/>
      </g>
     </g>
    </g>
    <g id="xtick_3">
     <g id="line2d_3">
      <g>
       <use style="stroke:#000000;stroke-width:0.8;" x="164.736326" xlink:href="#mfb8aa486b2" y="273.312"/>
      </g>
     </g>
     <g id="text_3">
      <!-- 100 -->
      <defs>
       <path d="M 12.40625 8.296875 
L 28.515625 8.296875 
L 28.515625 63.921875 
L 10.984375 60.40625 
L 10.984375 69.390625 
L 28.421875 72.90625 
L 38.28125 72.90625 
L 38.28125 8.296875 
L 54.390625 8.296875 
L 54.390625 0 
L 12.40625 0 
z
" id="DejaVuSans-49"/>
      </defs>
      <g transform="translate(155.192576 287.910437)scale(0.1 -0.1)">
       <use xlink:href="#DejaVuSans-49"/>
       <use x="63.623047" xlink:href="#DejaVuSans-48"/>
       <use x="127.246094" xlink:href="#DejaVuSans-48"/>
      </g>
     </g>
    </g>
    <g id="xtick_4">
     <g id="line2d_4">
      <g>
       <use style="stroke:#000000;stroke-width:0.8;" x="220.138126" xlink:href="#mfb8aa486b2" y="273.312"/>
      </g>
     </g>
     <g id="text_4">
      <!-- 150 -->
      <g transform="translate(210.594376 287.910437)scale(0.1 -0.1)">
       <use xlink:href="#DejaVuSans-49"/>
       <use x="63.623047" xlink:href="#DejaVuSans-53"/>
       <use x="127.246094" xlink:href="#DejaVuSans-48"/>
      </g>
     </g>
    </g>
    <g id="xtick_5">
     <g id="line2d_5">
      <g>
       <use style="stroke:#000000;stroke-width:0.8;" x="275.539926" xlink:href="#mfb8aa486b2" y="273.312"/>
      </g>
     </g>
     <g id="text_5">
      <!-- 200 -->
      <defs>
       <path d="M 19.1875 8.296875 
L 53.609375 8.296875 
L 53.609375 0 
L 7.328125 0 
L 7.328125 8.296875 
Q 12.9375 14.109375 22.625 23.890625 
Q 32.328125 33.6875 34.8125 36.53125 
Q 39.546875 41.84375 41.421875 45.53125 
Q 43.3125 49.21875 43.3125 52.78125 
Q 43.3125 58.59375 39.234375 62.25 
Q 35.15625 65.921875 28.609375 65.921875 
Q 23.96875 65.921875 18.8125 64.3125 
Q 13.671875 62.703125 7.8125 59.421875 
L 7.8125 69.390625 
Q 13.765625 71.78125 18.9375 73 
Q 24.125 74.21875 28.421875 74.21875 
Q 39.75 74.21875 46.484375 68.546875 
Q 53.21875 62.890625 53.21875 53.421875 
Q 53.21875 48.921875 51.53125 44.890625 
Q 49.859375 40.875 45.40625 35.40625 
Q 44.1875 33.984375 37.640625 27.21875 
Q 31.109375 20.453125 19.1875 8.296875 
z
" id="DejaVuSans-50"/>
      </defs>
      <g transform="translate(265.996176 287.910437)scale(0.1 -0.1)">
       <use xlink:href="#DejaVuSans-50"/>
       <use x="63.623047" xlink:href="#DejaVuSans-48"/>
       <use x="127.246094" xlink:href="#DejaVuSans-48"/>
      </g>
     </g>
    </g>
    <g id="xtick_6">
     <g id="line2d_6">
      <g>
       <use style="stroke:#000000;stroke-width:0.8;" x="330.941725" xlink:href="#mfb8aa486b2" y="273.312"/>
      </g>
     </g>
     <g id="text_6">
      <!-- 250 -->
      <g transform="translate(321.397975 287.910437)scale(0.1 -0.1)">
       <use xlink:href="#DejaVuSans-50"/>
       <use x="63.623047" xlink:href="#DejaVuSans-53"/>
       <use x="127.246094" xlink:href="#DejaVuSans-48"/>
      </g>
     </g>
    </g>
    <g id="xtick_7">
     <g id="line2d_7">
      <g>
       <use style="stroke:#000000;stroke-width:0.8;" x="386.343525" xlink:href="#mfb8aa486b2" y="273.312"/>
      </g>
     </g>
     <g id="text_7">
      <!-- 300 -->
      <defs>
       <path d="M 40.578125 39.3125 
Q 47.65625 37.796875 51.625 33 
Q 55.609375 28.21875 55.609375 21.1875 
Q 55.609375 10.40625 48.1875 4.484375 
Q 40.765625 -1.421875 27.09375 -1.421875 
Q 22.515625 -1.421875 17.65625 -0.515625 
Q 12.796875 0.390625 7.625 2.203125 
L 7.625 11.71875 
Q 11.71875 9.328125 16.59375 8.109375 
Q 21.484375 6.890625 26.8125 6.890625 
Q 36.078125 6.890625 40.9375 10.546875 
Q 45.796875 14.203125 45.796875 21.1875 
Q 45.796875 27.640625 41.28125 31.265625 
Q 36.765625 34.90625 28.71875 34.90625 
L 20.21875 34.90625 
L 20.21875 43.015625 
L 29.109375 43.015625 
Q 36.375 43.015625 40.234375 45.921875 
Q 44.09375 48.828125 44.09375 54.296875 
Q 44.09375 59.90625 40.109375 62.90625 
Q 36.140625 65.921875 28.71875 65.921875 
Q 24.65625 65.921875 20.015625 65.03125 
Q 15.375 64.15625 9.8125 62.3125 
L 9.8125 71.09375 
Q 15.4375 72.65625 20.34375 73.4375 
Q 25.25 74.21875 29.59375 74.21875 
Q 40.828125 74.21875 47.359375 69.109375 
Q 53.90625 64.015625 53.90625 55.328125 
Q 53.90625 49.265625 50.4375 45.09375 
Q 46.96875 40.921875 40.578125 39.3125 
z
" id="DejaVuSans-51"/>
      </defs>
      <g transform="translate(376.799775 287.910437)scale(0.1 -0.1)">
       <use xlink:href="#DejaVuSans-51"/>
       <use x="63.623047" xlink:href="#DejaVuSans-48"/>
       <use x="127.246094" xlink:href="#DejaVuSans-48"/>
      </g>
     </g>
    </g>
    <g id="text_8">
     <!-- $ k $ -->
     <defs>
      <path d="M 18.3125 75.984375 
L 27.296875 75.984375 
L 18.703125 31.6875 
L 49.515625 54.6875 
L 61.1875 54.6875 
L 26.8125 28.515625 
L 51.90625 0 
L 41.015625 0 
L 17.671875 26.703125 
L 12.5 0 
L 3.515625 0 
z
" id="DejaVuSans-Oblique-107"/>
     </defs>
     <g transform="translate(213.36 301.588562)scale(0.1 -0.1)">
      <use transform="translate(0 0.015625)" xlink:href="#DejaVuSans-Oblique-107"/>
     </g>
    </g>
   </g>
   <g id="matplotlib.axis_2">
    <g id="ytick_1">
     <g id="line2d_8">
      <defs>
       <path d="M 0 0 
L -3.5 0 
" id="m5ca926d08c" style="stroke:#000000;stroke-width:0.8;"/>
      </defs>
      <g>
       <use style="stroke:#000000;stroke-width:0.8;" x="37.7" xlink:href="#m5ca926d08c" y="221.907218"/>
      </g>
     </g>
     <g id="text_9">
      <!-- $\mathdefault{10^{-5}}$ -->
      <defs>
       <path d="M 10.59375 35.5 
L 73.1875 35.5 
L 73.1875 27.203125 
L 10.59375 27.203125 
z
" id="DejaVuSans-8722"/>
      </defs>
      <g transform="translate(7.2 225.706437)scale(0.1 -0.1)">
       <use transform="translate(0 0.684375)" xlink:href="#DejaVuSans-49"/>
       <use transform="translate(63.623047 0.684375)" xlink:href="#DejaVuSans-48"/>
       <use transform="translate(128.203125 38.965625)scale(0.7)" xlink:href="#DejaVuSans-8722"/>
       <use transform="translate(186.855469 38.965625)scale(0.7)" xlink:href="#DejaVuSans-53"/>
      </g>
     </g>
    </g>
    <g id="ytick_2">
     <g id="line2d_9">
      <g>
       <use style="stroke:#000000;stroke-width:0.8;" x="37.7" xlink:href="#m5ca926d08c" y="162.907783"/>
      </g>
     </g>
     <g id="text_10">
      <!-- $\mathdefault{10^{-3}}$ -->
      <g transform="translate(7.2 166.707002)scale(0.1 -0.1)">
       <use transform="translate(0 0.765625)" xlink:href="#DejaVuSans-49"/>
       <use transform="translate(63.623047 0.765625)" xlink:href="#DejaVuSans-48"/>
       <use transform="translate(128.203125 39.046875)scale(0.7)" xlink:href="#DejaVuSans-8722"/>
       <use transform="translate(186.855469 39.046875)scale(0.7)" xlink:href="#DejaVuSans-51"/>
      </g>
     </g>
    </g>
    <g id="ytick_3">
     <g id="line2d_10">
      <g>
       <use style="stroke:#000000;stroke-width:0.8;" x="37.7" xlink:href="#m5ca926d08c" y="103.908348"/>
      </g>
     </g>
     <g id="text_11">
      <!-- $\mathdefault{10^{-1}}$ -->
      <g transform="translate(7.2 107.707567)scale(0.1 -0.1)">
       <use transform="translate(0 0.684375)" xlink:href="#DejaVuSans-49"/>
       <use transform="translate(63.623047 0.684375)" xlink:href="#DejaVuSans-48"/>
       <use transform="translate(128.203125 38.965625)scale(0.7)" xlink:href="#DejaVuSans-8722"/>
       <use transform="translate(186.855469 38.965625)scale(0.7)" xlink:href="#DejaVuSans-49"/>
      </g>
     </g>
    </g>
    <g id="ytick_4">
     <g id="line2d_11">
      <g>
       <use style="stroke:#000000;stroke-width:0.8;" x="37.7" xlink:href="#m5ca926d08c" y="44.908913"/>
      </g>
     </g>
     <g id="text_12">
      <!-- $\mathdefault{10^{1}}$ -->
      <g transform="translate(13.1 48.708132)scale(0.1 -0.1)">
       <use transform="translate(0 0.684375)" xlink:href="#DejaVuSans-49"/>
       <use transform="translate(63.623047 0.684375)" xlink:href="#DejaVuSans-48"/>
       <use transform="translate(128.203125 38.965625)scale(0.7)" xlink:href="#DejaVuSans-49"/>
      </g>
     </g>
    </g>
   </g>
   <g id="line2d_12">
    <path clip-path="url(#pdf313d1e9f)" d="M 53.932727 22.868565 
L 55.040763 19.296 
L 56.148799 31.982414 
L 57.256835 38.694199 
L 63.905051 91.36665 
L 71.661303 152.954996 
L 72.769339 156.879182 
L 73.877375 207.738866 
L 74.985411 177.575714 
L 76.093447 179.879211 
L 77.201483 170.057515 
L 78.309519 167.032187 
L 79.417555 214.18518 
L 80.525591 168.615049 
L 81.633627 173.175507 
L 82.741663 180.076143 
L 83.849699 205.011198 
L 84.957735 171.776816 
L 86.065771 174.110151 
L 89.389879 183.45998 
L 90.497915 185.410586 
L 91.605951 174.138318 
L 92.713987 155.156556 
L 93.822023 173.997258 
L 94.930059 153.080104 
L 96.038095 162.47246 
L 97.146131 163.706118 
L 98.254167 162.052954 
L 99.362203 183.38372 
L 100.470239 176.749356 
L 101.578275 168.52695 
L 102.686311 157.938352 
L 103.794347 191.400976 
L 104.902383 171.178894 
L 106.010419 170.569887 
L 107.118455 203.32623 
L 108.226491 173.495317 
L 109.334527 183.122799 
L 110.442563 177.195362 
L 111.550599 211.882804 
L 112.658635 221.282668 
L 113.766671 164.528988 
L 114.874707 183.607929 
L 115.982743 163.190469 
L 117.090779 209.315896 
L 118.198815 167.987666 
L 119.306851 236.924698 
L 120.414887 171.239133 
L 121.522923 170.645149 
L 122.630959 176.94014 
L 123.738995 196.818729 
L 124.847031 152.848794 
L 125.955067 167.182341 
L 127.063103 167.209409 
L 128.171139 173.889812 
L 129.279175 178.976186 
L 130.387211 175.275509 
L 131.495247 192.866431 
L 132.603283 192.182726 
L 133.711319 196.704149 
L 134.819355 174.854027 
L 135.927391 177.76055 
L 137.035427 196.282368 
L 138.143463 174.849152 
L 139.251499 190.437417 
L 140.359535 168.446193 
L 141.467571 172.127124 
L 142.575607 168.955424 
L 143.683643 172.121687 
L 144.791679 161.241371 
L 145.899715 181.862463 
L 147.007751 159.83635 
L 148.115787 173.474656 
L 149.223823 179.766628 
L 150.331859 213.020416 
L 151.439895 181.696472 
L 152.54793 243.777376 
L 153.655966 181.511382 
L 154.764002 177.660167 
L 155.872038 154.617277 
L 156.980074 171.849946 
L 158.08811 160.31415 
L 159.196146 169.212224 
L 160.304182 172.507826 
L 161.412218 174.59863 
L 162.520254 181.169607 
L 163.62829 162.146883 
L 164.736326 192.861153 
L 165.844362 151.25938 
L 166.952398 173.508574 
L 168.060434 164.155388 
L 169.16847 179.527019 
L 170.276506 166.41476 
L 171.384542 194.507587 
L 172.492578 190.114757 
L 173.600614 167.508942 
L 174.70865 183.99161 
L 175.816686 170.147404 
L 176.924722 235.394352 
L 178.032758 178.526889 
L 179.140794 177.757576 
L 180.24883 173.724177 
L 181.356866 165.543394 
L 182.464902 182.257967 
L 183.572938 166.784761 
L 184.680974 184.622011 
L 185.78901 177.605517 
L 186.897046 190.328911 
L 188.005082 163.967619 
L 189.113118 182.061238 
L 190.221154 158.327835 
L 191.32919 154.664463 
L 192.437226 163.792227 
L 193.545262 157.033292 
L 194.653298 167.79794 
L 195.761334 176.040435 
L 196.86937 182.221228 
L 197.977406 193.703294 
L 199.085442 197.602885 
L 200.193478 162.137472 
L 201.301514 174.628309 
L 202.40955 173.425079 
L 203.517586 186.885978 
L 204.625622 167.374593 
L 205.733658 179.533368 
L 206.841694 185.740343 
L 207.94973 170.102209 
L 209.057766 169.729564 
L 210.165802 154.931629 
L 211.273838 177.48194 
L 212.381874 157.930997 
L 213.48991 157.715968 
L 214.597946 153.069687 
L 215.705982 172.984833 
L 216.814018 181.696407 
L 217.922054 177.865486 
L 219.03009 198.509247 
L 220.138126 163.393615 
L 221.246162 169.541298 
L 222.354198 156.484696 
L 223.462234 171.892694 
L 224.57027 159.999588 
L 225.678306 175.370075 
L 226.786342 166.18673 
L 227.894378 178.678446 
L 229.002414 193.339693 
L 230.11045 180.887373 
L 231.218486 188.678233 
L 232.326522 163.297948 
L 233.434558 190.870824 
L 234.542594 171.980802 
L 235.65063 188.571883 
L 236.758666 222.546883 
L 237.866702 167.82369 
L 238.974738 177.58633 
L 240.082774 173.902598 
L 241.19081 158.243516 
L 242.298846 176.858918 
L 243.406882 184.841235 
L 244.514918 165.460368 
L 245.622954 171.709535 
L 246.73099 175.195303 
L 247.839026 219.481796 
L 248.947062 166.25533 
L 250.055098 178.852958 
L 251.163134 185.833796 
L 252.27117 181.968291 
L 253.379206 198.734372 
L 254.487242 178.825506 
L 255.595278 177.316676 
L 256.703314 156.036482 
L 257.81135 175.793162 
L 258.919386 165.735716 
L 260.027422 182.863844 
L 261.135458 180.914858 
L 262.243494 165.826874 
L 263.35153 157.188143 
L 264.459566 167.93982 
L 265.567602 163.332529 
L 266.675638 181.542265 
L 267.783674 261.216 
L 268.89171 168.046693 
L 269.999746 160.420061 
L 271.107782 181.548171 
L 272.215818 180.372021 
L 273.323854 200.660054 
L 274.43189 197.281217 
L 275.539926 151.880837 
L 276.647962 167.649612 
L 277.755998 164.5863 
L 278.864034 167.888057 
L 279.97207 174.124202 
L 281.080105 162.852832 
L 282.188141 175.574308 
L 283.296177 166.762948 
L 284.404213 185.650187 
L 285.512249 213.690426 
L 286.620285 154.409241 
L 287.728321 182.822458 
L 288.836357 173.628728 
L 289.944393 183.206767 
L 291.052429 175.171735 
L 292.160465 171.246295 
L 293.268501 183.258739 
L 294.376537 160.507926 
L 295.484573 174.731578 
L 296.592609 185.332293 
L 297.700645 168.760192 
L 298.808681 182.611396 
L 299.916717 189.795831 
L 302.132789 166.168282 
L 303.240825 177.060876 
L 304.348861 163.801125 
L 305.456897 186.711747 
L 306.564933 176.567447 
L 307.672969 180.242026 
L 308.781005 187.973095 
L 309.889041 184.992045 
L 310.997077 175.842592 
L 312.105113 170.11566 
L 313.213149 184.426352 
L 314.321185 201.821638 
L 315.429221 162.808345 
L 316.537257 178.039153 
L 317.645293 182.933892 
L 318.753329 172.323354 
L 319.861365 183.105431 
L 320.969401 163.205047 
L 322.077437 160.748137 
L 323.185473 181.027988 
L 325.401545 152.430663 
L 326.509581 161.66337 
L 327.617617 162.331221 
L 328.725653 165.476138 
L 329.833689 173.455016 
L 330.941725 175.478895 
L 332.049761 198.983331 
L 333.157797 164.9385 
L 334.265833 197.518417 
L 335.373869 176.813503 
L 336.481905 165.757359 
L 337.589941 165.712406 
L 338.697977 159.490248 
L 339.806013 163.461627 
L 340.914049 169.743263 
L 342.022085 183.404708 
L 343.130121 168.212152 
L 344.238157 193.265125 
L 345.346193 155.61377 
L 346.454229 163.389681 
L 347.562265 161.714531 
L 348.670301 185.865978 
L 349.778337 181.05924 
L 350.886373 169.805424 
L 351.994409 191.440442 
L 353.102445 165.538359 
L 354.210481 163.091417 
L 355.318517 183.236728 
L 356.426553 150.086608 
L 357.534589 164.127951 
L 358.642625 159.136777 
L 359.750661 167.505617 
L 360.858697 185.404724 
L 361.966733 177.31113 
L 363.074769 152.166306 
L 364.182805 178.333584 
L 365.290841 168.383303 
L 366.398877 184.644084 
L 367.506913 166.54269 
L 368.614949 161.867359 
L 369.722985 179.218236 
L 370.831021 175.791215 
L 371.939057 165.206374 
L 373.047093 171.003151 
L 374.155129 173.913614 
L 375.263165 177.910212 
L 376.371201 207.011522 
L 376.375157 311.86825 
L 376.375157 311.86825 
" style="fill:none;stroke:#1f77b4;stroke-linecap:square;stroke-width:1.5;"/>
    <defs>
     <path d="M 0 3 
C 0.795609 3 1.55874 2.683901 2.12132 2.12132 
C 2.683901 1.55874 3 0.795609 3 0 
C 3 -0.795609 2.683901 -1.55874 2.12132 -2.12132 
C 1.55874 -2.683901 0.795609 -3 0 -3 
C -0.795609 -3 -1.55874 -2.683901 -2.12132 -2.12132 
C -2.683901 -1.55874 -3 -0.795609 -3 0 
C -3 0.795609 -2.683901 1.55874 -2.12132 2.12132 
C -1.55874 2.683901 -0.795609 3 0 3 
z
" id="m4c4069749e" style="stroke:#1f77b4;"/>
    </defs>
    <g clip-path="url(#pdf313d1e9f)">
     <use style="fill:#1f77b4;stroke:#1f77b4;" x="53.932727" xlink:href="#m4c4069749e" y="22.868565"/>
     <use style="fill:#1f77b4;stroke:#1f77b4;" x="55.040763" xlink:href="#m4c4069749e" y="19.296"/>
     <use style="fill:#1f77b4;stroke:#1f77b4;" x="56.148799" xlink:href="#m4c4069749e" y="31.982414"/>
     <use style="fill:#1f77b4;stroke:#1f77b4;" x="57.256835" xlink:href="#m4c4069749e" y="38.694199"/>
     <use style="fill:#1f77b4;stroke:#1f77b4;" x="58.364871" xlink:href="#m4c4069749e" y="47.599889"/>
     <use style="fill:#1f77b4;stroke:#1f77b4;" x="59.472907" xlink:href="#m4c4069749e" y="56.343541"/>
     <use style="fill:#1f77b4;stroke:#1f77b4;" x="60.580943" xlink:href="#m4c4069749e" y="65.024223"/>
     <use style="fill:#1f77b4;stroke:#1f77b4;" x="61.688979" xlink:href="#m4c4069749e" y="73.849958"/>
     <use style="fill:#1f77b4;stroke:#1f77b4;" x="62.797015" xlink:href="#m4c4069749e" y="82.584754"/>
     <use style="fill:#1f77b4;stroke:#1f77b4;" x="63.905051" xlink:href="#m4c4069749e" y="91.36665"/>
     <use style="fill:#1f77b4;stroke:#1f77b4;" x="65.013087" xlink:href="#m4c4069749e" y="100.124281"/>
     <use style="fill:#1f77b4;stroke:#1f77b4;" x="66.121123" xlink:href="#m4c4069749e" y="108.906375"/>
     <use style="fill:#1f77b4;stroke:#1f77b4;" x="67.229159" xlink:href="#m4c4069749e" y="118.454825"/>
     <use style="fill:#1f77b4;stroke:#1f77b4;" x="68.337195" xlink:href="#m4c4069749e" y="127.111093"/>
     <use style="fill:#1f77b4;stroke:#1f77b4;" x="69.445231" xlink:href="#m4c4069749e" y="135.418704"/>
     <use style="fill:#1f77b4;stroke:#1f77b4;" x="70.553267" xlink:href="#m4c4069749e" y="143.197576"/>
     <use style="fill:#1f77b4;stroke:#1f77b4;" x="71.661303" xlink:href="#m4c4069749e" y="152.954996"/>
     <use style="fill:#1f77b4;stroke:#1f77b4;" x="72.769339" xlink:href="#m4c4069749e" y="156.879182"/>
     <use style="fill:#1f77b4;stroke:#1f77b4;" x="73.877375" xlink:href="#m4c4069749e" y="207.738866"/>
     <use style="fill:#1f77b4;stroke:#1f77b4;" x="74.985411" xlink:href="#m4c4069749e" y="177.575714"/>
     <use style="fill:#1f77b4;stroke:#1f77b4;" x="76.093447" xlink:href="#m4c4069749e" y="179.879211"/>
     <use style="fill:#1f77b4;stroke:#1f77b4;" x="77.201483" xlink:href="#m4c4069749e" y="170.057515"/>
     <use style="fill:#1f77b4;stroke:#1f77b4;" x="78.309519" xlink:href="#m4c4069749e" y="167.032187"/>
     <use style="fill:#1f77b4;stroke:#1f77b4;" x="79.417555" xlink:href="#m4c4069749e" y="214.18518"/>
     <use style="fill:#1f77b4;stroke:#1f77b4;" x="80.525591" xlink:href="#m4c4069749e" y="168.615049"/>
     <use style="fill:#1f77b4;stroke:#1f77b4;" x="81.633627" xlink:href="#m4c4069749e" y="173.175507"/>
     <use style="fill:#1f77b4;stroke:#1f77b4;" x="82.741663" xlink:href="#m4c4069749e" y="180.076143"/>
     <use style="fill:#1f77b4;stroke:#1f77b4;" x="83.849699" xlink:href="#m4c4069749e" y="205.011198"/>
     <use style="fill:#1f77b4;stroke:#1f77b4;" x="84.957735" xlink:href="#m4c4069749e" y="171.776816"/>
     <use style="fill:#1f77b4;stroke:#1f77b4;" x="86.065771" xlink:href="#m4c4069749e" y="174.110151"/>
     <use style="fill:#1f77b4;stroke:#1f77b4;" x="87.173807" xlink:href="#m4c4069749e" y="177.139605"/>
     <use style="fill:#1f77b4;stroke:#1f77b4;" x="88.281843" xlink:href="#m4c4069749e" y="180.016601"/>
     <use style="fill:#1f77b4;stroke:#1f77b4;" x="89.389879" xlink:href="#m4c4069749e" y="183.45998"/>
     <use style="fill:#1f77b4;stroke:#1f77b4;" x="90.497915" xlink:href="#m4c4069749e" y="185.410586"/>
     <use style="fill:#1f77b4;stroke:#1f77b4;" x="91.605951" xlink:href="#m4c4069749e" y="174.138318"/>
     <use style="fill:#1f77b4;stroke:#1f77b4;" x="92.713987" xlink:href="#m4c4069749e" y="155.156556"/>
     <use style="fill:#1f77b4;stroke:#1f77b4;" x="93.822023" xlink:href="#m4c4069749e" y="173.997258"/>
     <use style="fill:#1f77b4;stroke:#1f77b4;" x="94.930059" xlink:href="#m4c4069749e" y="153.080104"/>
     <use style="fill:#1f77b4;stroke:#1f77b4;" x="96.038095" xlink:href="#m4c4069749e" y="162.47246"/>
     <use style="fill:#1f77b4;stroke:#1f77b4;" x="97.146131" xlink:href="#m4c4069749e" y="163.706118"/>
     <use style="fill:#1f77b4;stroke:#1f77b4;" x="98.254167" xlink:href="#m4c4069749e" y="162.052954"/>
     <use style="fill:#1f77b4;stroke:#1f77b4;" x="99.362203" xlink:href="#m4c4069749e" y="183.38372"/>
     <use style="fill:#1f77b4;stroke:#1f77b4;" x="100.470239" xlink:href="#m4c4069749e" y="176.749356"/>
     <use style="fill:#1f77b4;stroke:#1f77b4;" x="101.578275" xlink:href="#m4c4069749e" y="168.52695"/>
     <use style="fill:#1f77b4;stroke:#1f77b4;" x="102.686311" xlink:href="#m4c4069749e" y="157.938352"/>
     <use style="fill:#1f77b4;stroke:#1f77b4;" x="103.794347" xlink:href="#m4c4069749e" y="191.400976"/>
     <use style="fill:#1f77b4;stroke:#1f77b4;" x="104.902383" xlink:href="#m4c4069749e" y="171.178894"/>
     <use style="fill:#1f77b4;stroke:#1f77b4;" x="106.010419" xlink:href="#m4c4069749e" y="170.569887"/>
     <use style="fill:#1f77b4;stroke:#1f77b4;" x="107.118455" xlink:href="#m4c4069749e" y="203.32623"/>
     <use style="fill:#1f77b4;stroke:#1f77b4;" x="108.226491" xlink:href="#m4c4069749e" y="173.495317"/>
     <use style="fill:#1f77b4;stroke:#1f77b4;" x="109.334527" xlink:href="#m4c4069749e" y="183.122799"/>
     <use style="fill:#1f77b4;stroke:#1f77b4;" x="110.442563" xlink:href="#m4c4069749e" y="177.195362"/>
     <use style="fill:#1f77b4;stroke:#1f77b4;" x="111.550599" xlink:href="#m4c4069749e" y="211.882804"/>
     <use style="fill:#1f77b4;stroke:#1f77b4;" x="112.658635" xlink:href="#m4c4069749e" y="221.282668"/>
     <use style="fill:#1f77b4;stroke:#1f77b4;" x="113.766671" xlink:href="#m4c4069749e" y="164.528988"/>
     <use style="fill:#1f77b4;stroke:#1f77b4;" x="114.874707" xlink:href="#m4c4069749e" y="183.607929"/>
     <use style="fill:#1f77b4;stroke:#1f77b4;" x="115.982743" xlink:href="#m4c4069749e" y="163.190469"/>
     <use style="fill:#1f77b4;stroke:#1f77b4;" x="117.090779" xlink:href="#m4c4069749e" y="209.315896"/>
     <use style="fill:#1f77b4;stroke:#1f77b4;" x="118.198815" xlink:href="#m4c4069749e" y="167.987666"/>
     <use style="fill:#1f77b4;stroke:#1f77b4;" x="119.306851" xlink:href="#m4c4069749e" y="236.924698"/>
     <use style="fill:#1f77b4;stroke:#1f77b4;" x="120.414887" xlink:href="#m4c4069749e" y="171.239133"/>
     <use style="fill:#1f77b4;stroke:#1f77b4;" x="121.522923" xlink:href="#m4c4069749e" y="170.645149"/>
     <use style="fill:#1f77b4;stroke:#1f77b4;" x="122.630959" xlink:href="#m4c4069749e" y="176.94014"/>
     <use style="fill:#1f77b4;stroke:#1f77b4;" x="123.738995" xlink:href="#m4c4069749e" y="196.818729"/>
     <use style="fill:#1f77b4;stroke:#1f77b4;" x="124.847031" xlink:href="#m4c4069749e" y="152.848794"/>
     <use style="fill:#1f77b4;stroke:#1f77b4;" x="125.955067" xlink:href="#m4c4069749e" y="167.182341"/>
     <use style="fill:#1f77b4;stroke:#1f77b4;" x="127.063103" xlink:href="#m4c4069749e" y="167.209409"/>
     <use style="fill:#1f77b4;stroke:#1f77b4;" x="128.171139" xlink:href="#m4c4069749e" y="173.889812"/>
     <use style="fill:#1f77b4;stroke:#1f77b4;" x="129.279175" xlink:href="#m4c4069749e" y="178.976186"/>
     <use style="fill:#1f77b4;stroke:#1f77b4;" x="130.387211" xlink:href="#m4c4069749e" y="175.275509"/>
     <use style="fill:#1f77b4;stroke:#1f77b4;" x="131.495247" xlink:href="#m4c4069749e" y="192.866431"/>
     <use style="fill:#1f77b4;stroke:#1f77b4;" x="132.603283" xlink:href="#m4c4069749e" y="192.182726"/>
     <use style="fill:#1f77b4;stroke:#1f77b4;" x="133.711319" xlink:href="#m4c4069749e" y="196.704149"/>
     <use style="fill:#1f77b4;stroke:#1f77b4;" x="134.819355" xlink:href="#m4c4069749e" y="174.854027"/>
     <use style="fill:#1f77b4;stroke:#1f77b4;" x="135.927391" xlink:href="#m4c4069749e" y="177.76055"/>
     <use style="fill:#1f77b4;stroke:#1f77b4;" x="137.035427" xlink:href="#m4c4069749e" y="196.282368"/>
     <use style="fill:#1f77b4;stroke:#1f77b4;" x="138.143463" xlink:href="#m4c4069749e" y="174.849152"/>
     <use style="fill:#1f77b4;stroke:#1f77b4;" x="139.251499" xlink:href="#m4c4069749e" y="190.437417"/>
     <use style="fill:#1f77b4;stroke:#1f77b4;" x="140.359535" xlink:href="#m4c4069749e" y="168.446193"/>
     <use style="fill:#1f77b4;stroke:#1f77b4;" x="141.467571" xlink:href="#m4c4069749e" y="172.127124"/>
     <use style="fill:#1f77b4;stroke:#1f77b4;" x="142.575607" xlink:href="#m4c4069749e" y="168.955424"/>
     <use style="fill:#1f77b4;stroke:#1f77b4;" x="143.683643" xlink:href="#m4c4069749e" y="172.121687"/>
     <use style="fill:#1f77b4;stroke:#1f77b4;" x="144.791679" xlink:href="#m4c4069749e" y="161.241371"/>
     <use style="fill:#1f77b4;stroke:#1f77b4;" x="145.899715" xlink:href="#m4c4069749e" y="181.862463"/>
     <use style="fill:#1f77b4;stroke:#1f77b4;" x="147.007751" xlink:href="#m4c4069749e" y="159.83635"/>
     <use style="fill:#1f77b4;stroke:#1f77b4;" x="148.115787" xlink:href="#m4c4069749e" y="173.474656"/>
     <use style="fill:#1f77b4;stroke:#1f77b4;" x="149.223823" xlink:href="#m4c4069749e" y="179.766628"/>
     <use style="fill:#1f77b4;stroke:#1f77b4;" x="150.331859" xlink:href="#m4c4069749e" y="213.020416"/>
     <use style="fill:#1f77b4;stroke:#1f77b4;" x="151.439895" xlink:href="#m4c4069749e" y="181.696472"/>
     <use style="fill:#1f77b4;stroke:#1f77b4;" x="152.54793" xlink:href="#m4c4069749e" y="243.777376"/>
     <use style="fill:#1f77b4;stroke:#1f77b4;" x="153.655966" xlink:href="#m4c4069749e" y="181.511382"/>
     <use style="fill:#1f77b4;stroke:#1f77b4;" x="154.764002" xlink:href="#m4c4069749e" y="177.660167"/>
     <use style="fill:#1f77b4;stroke:#1f77b4;" x="155.872038" xlink:href="#m4c4069749e" y="154.617277"/>
     <use style="fill:#1f77b4;stroke:#1f77b4;" x="156.980074" xlink:href="#m4c4069749e" y="171.849946"/>
     <use style="fill:#1f77b4;stroke:#1f77b4;" x="158.08811" xlink:href="#m4c4069749e" y="160.31415"/>
     <use style="fill:#1f77b4;stroke:#1f77b4;" x="159.196146" xlink:href="#m4c4069749e" y="169.212224"/>
     <use style="fill:#1f77b4;stroke:#1f77b4;" x="160.304182" xlink:href="#m4c4069749e" y="172.507826"/>
     <use style="fill:#1f77b4;stroke:#1f77b4;" x="161.412218" xlink:href="#m4c4069749e" y="174.59863"/>
     <use style="fill:#1f77b4;stroke:#1f77b4;" x="162.520254" xlink:href="#m4c4069749e" y="181.169607"/>
     <use style="fill:#1f77b4;stroke:#1f77b4;" x="163.62829" xlink:href="#m4c4069749e" y="162.146883"/>
     <use style="fill:#1f77b4;stroke:#1f77b4;" x="164.736326" xlink:href="#m4c4069749e" y="192.861153"/>
     <use style="fill:#1f77b4;stroke:#1f77b4;" x="165.844362" xlink:href="#m4c4069749e" y="151.25938"/>
     <use style="fill:#1f77b4;stroke:#1f77b4;" x="166.952398" xlink:href="#m4c4069749e" y="173.508574"/>
     <use style="fill:#1f77b4;stroke:#1f77b4;" x="168.060434" xlink:href="#m4c4069749e" y="164.155388"/>
     <use style="fill:#1f77b4;stroke:#1f77b4;" x="169.16847" xlink:href="#m4c4069749e" y="179.527019"/>
     <use style="fill:#1f77b4;stroke:#1f77b4;" x="170.276506" xlink:href="#m4c4069749e" y="166.41476"/>
     <use style="fill:#1f77b4;stroke:#1f77b4;" x="171.384542" xlink:href="#m4c4069749e" y="194.507587"/>
     <use style="fill:#1f77b4;stroke:#1f77b4;" x="172.492578" xlink:href="#m4c4069749e" y="190.114757"/>
     <use style="fill:#1f77b4;stroke:#1f77b4;" x="173.600614" xlink:href="#m4c4069749e" y="167.508942"/>
     <use style="fill:#1f77b4;stroke:#1f77b4;" x="174.70865" xlink:href="#m4c4069749e" y="183.99161"/>
     <use style="fill:#1f77b4;stroke:#1f77b4;" x="175.816686" xlink:href="#m4c4069749e" y="170.147404"/>
     <use style="fill:#1f77b4;stroke:#1f77b4;" x="176.924722" xlink:href="#m4c4069749e" y="235.394352"/>
     <use style="fill:#1f77b4;stroke:#1f77b4;" x="178.032758" xlink:href="#m4c4069749e" y="178.526889"/>
     <use style="fill:#1f77b4;stroke:#1f77b4;" x="179.140794" xlink:href="#m4c4069749e" y="177.757576"/>
     <use style="fill:#1f77b4;stroke:#1f77b4;" x="180.24883" xlink:href="#m4c4069749e" y="173.724177"/>
     <use style="fill:#1f77b4;stroke:#1f77b4;" x="181.356866" xlink:href="#m4c4069749e" y="165.543394"/>
     <use style="fill:#1f77b4;stroke:#1f77b4;" x="182.464902" xlink:href="#m4c4069749e" y="182.257967"/>
     <use style="fill:#1f77b4;stroke:#1f77b4;" x="183.572938" xlink:href="#m4c4069749e" y="166.784761"/>
     <use style="fill:#1f77b4;stroke:#1f77b4;" x="184.680974" xlink:href="#m4c4069749e" y="184.622011"/>
     <use style="fill:#1f77b4;stroke:#1f77b4;" x="185.78901" xlink:href="#m4c4069749e" y="177.605517"/>
     <use style="fill:#1f77b4;stroke:#1f77b4;" x="186.897046" xlink:href="#m4c4069749e" y="190.328911"/>
     <use style="fill:#1f77b4;stroke:#1f77b4;" x="188.005082" xlink:href="#m4c4069749e" y="163.967619"/>
     <use style="fill:#1f77b4;stroke:#1f77b4;" x="189.113118" xlink:href="#m4c4069749e" y="182.061238"/>
     <use style="fill:#1f77b4;stroke:#1f77b4;" x="190.221154" xlink:href="#m4c4069749e" y="158.327835"/>
     <use style="fill:#1f77b4;stroke:#1f77b4;" x="191.32919" xlink:href="#m4c4069749e" y="154.664463"/>
     <use style="fill:#1f77b4;stroke:#1f77b4;" x="192.437226" xlink:href="#m4c4069749e" y="163.792227"/>
     <use style="fill:#1f77b4;stroke:#1f77b4;" x="193.545262" xlink:href="#m4c4069749e" y="157.033292"/>
     <use style="fill:#1f77b4;stroke:#1f77b4;" x="194.653298" xlink:href="#m4c4069749e" y="167.79794"/>
     <use style="fill:#1f77b4;stroke:#1f77b4;" x="195.761334" xlink:href="#m4c4069749e" y="176.040435"/>
     <use style="fill:#1f77b4;stroke:#1f77b4;" x="196.86937" xlink:href="#m4c4069749e" y="182.221228"/>
     <use style="fill:#1f77b4;stroke:#1f77b4;" x="197.977406" xlink:href="#m4c4069749e" y="193.703294"/>
     <use style="fill:#1f77b4;stroke:#1f77b4;" x="199.085442" xlink:href="#m4c4069749e" y="197.602885"/>
     <use style="fill:#1f77b4;stroke:#1f77b4;" x="200.193478" xlink:href="#m4c4069749e" y="162.137472"/>
     <use style="fill:#1f77b4;stroke:#1f77b4;" x="201.301514" xlink:href="#m4c4069749e" y="174.628309"/>
     <use style="fill:#1f77b4;stroke:#1f77b4;" x="202.40955" xlink:href="#m4c4069749e" y="173.425079"/>
     <use style="fill:#1f77b4;stroke:#1f77b4;" x="203.517586" xlink:href="#m4c4069749e" y="186.885978"/>
     <use style="fill:#1f77b4;stroke:#1f77b4;" x="204.625622" xlink:href="#m4c4069749e" y="167.374593"/>
     <use style="fill:#1f77b4;stroke:#1f77b4;" x="205.733658" xlink:href="#m4c4069749e" y="179.533368"/>
     <use style="fill:#1f77b4;stroke:#1f77b4;" x="206.841694" xlink:href="#m4c4069749e" y="185.740343"/>
     <use style="fill:#1f77b4;stroke:#1f77b4;" x="207.94973" xlink:href="#m4c4069749e" y="170.102209"/>
     <use style="fill:#1f77b4;stroke:#1f77b4;" x="209.057766" xlink:href="#m4c4069749e" y="169.729564"/>
     <use style="fill:#1f77b4;stroke:#1f77b4;" x="210.165802" xlink:href="#m4c4069749e" y="154.931629"/>
     <use style="fill:#1f77b4;stroke:#1f77b4;" x="211.273838" xlink:href="#m4c4069749e" y="177.48194"/>
     <use style="fill:#1f77b4;stroke:#1f77b4;" x="212.381874" xlink:href="#m4c4069749e" y="157.930997"/>
     <use style="fill:#1f77b4;stroke:#1f77b4;" x="213.48991" xlink:href="#m4c4069749e" y="157.715968"/>
     <use style="fill:#1f77b4;stroke:#1f77b4;" x="214.597946" xlink:href="#m4c4069749e" y="153.069687"/>
     <use style="fill:#1f77b4;stroke:#1f77b4;" x="215.705982" xlink:href="#m4c4069749e" y="172.984833"/>
     <use style="fill:#1f77b4;stroke:#1f77b4;" x="216.814018" xlink:href="#m4c4069749e" y="181.696407"/>
     <use style="fill:#1f77b4;stroke:#1f77b4;" x="217.922054" xlink:href="#m4c4069749e" y="177.865486"/>
     <use style="fill:#1f77b4;stroke:#1f77b4;" x="219.03009" xlink:href="#m4c4069749e" y="198.509247"/>
     <use style="fill:#1f77b4;stroke:#1f77b4;" x="220.138126" xlink:href="#m4c4069749e" y="163.393615"/>
     <use style="fill:#1f77b4;stroke:#1f77b4;" x="221.246162" xlink:href="#m4c4069749e" y="169.541298"/>
     <use style="fill:#1f77b4;stroke:#1f77b4;" x="222.354198" xlink:href="#m4c4069749e" y="156.484696"/>
     <use style="fill:#1f77b4;stroke:#1f77b4;" x="223.462234" xlink:href="#m4c4069749e" y="171.892694"/>
     <use style="fill:#1f77b4;stroke:#1f77b4;" x="224.57027" xlink:href="#m4c4069749e" y="159.999588"/>
     <use style="fill:#1f77b4;stroke:#1f77b4;" x="225.678306" xlink:href="#m4c4069749e" y="175.370075"/>
     <use style="fill:#1f77b4;stroke:#1f77b4;" x="226.786342" xlink:href="#m4c4069749e" y="166.18673"/>
     <use style="fill:#1f77b4;stroke:#1f77b4;" x="227.894378" xlink:href="#m4c4069749e" y="178.678446"/>
     <use style="fill:#1f77b4;stroke:#1f77b4;" x="229.002414" xlink:href="#m4c4069749e" y="193.339693"/>
     <use style="fill:#1f77b4;stroke:#1f77b4;" x="230.11045" xlink:href="#m4c4069749e" y="180.887373"/>
     <use style="fill:#1f77b4;stroke:#1f77b4;" x="231.218486" xlink:href="#m4c4069749e" y="188.678233"/>
     <use style="fill:#1f77b4;stroke:#1f77b4;" x="232.326522" xlink:href="#m4c4069749e" y="163.297948"/>
     <use style="fill:#1f77b4;stroke:#1f77b4;" x="233.434558" xlink:href="#m4c4069749e" y="190.870824"/>
     <use style="fill:#1f77b4;stroke:#1f77b4;" x="234.542594" xlink:href="#m4c4069749e" y="171.980802"/>
     <use style="fill:#1f77b4;stroke:#1f77b4;" x="235.65063" xlink:href="#m4c4069749e" y="188.571883"/>
     <use style="fill:#1f77b4;stroke:#1f77b4;" x="236.758666" xlink:href="#m4c4069749e" y="222.546883"/>
     <use style="fill:#1f77b4;stroke:#1f77b4;" x="237.866702" xlink:href="#m4c4069749e" y="167.82369"/>
     <use style="fill:#1f77b4;stroke:#1f77b4;" x="238.974738" xlink:href="#m4c4069749e" y="177.58633"/>
     <use style="fill:#1f77b4;stroke:#1f77b4;" x="240.082774" xlink:href="#m4c4069749e" y="173.902598"/>
     <use style="fill:#1f77b4;stroke:#1f77b4;" x="241.19081" xlink:href="#m4c4069749e" y="158.243516"/>
     <use style="fill:#1f77b4;stroke:#1f77b4;" x="242.298846" xlink:href="#m4c4069749e" y="176.858918"/>
     <use style="fill:#1f77b4;stroke:#1f77b4;" x="243.406882" xlink:href="#m4c4069749e" y="184.841235"/>
     <use style="fill:#1f77b4;stroke:#1f77b4;" x="244.514918" xlink:href="#m4c4069749e" y="165.460368"/>
     <use style="fill:#1f77b4;stroke:#1f77b4;" x="245.622954" xlink:href="#m4c4069749e" y="171.709535"/>
     <use style="fill:#1f77b4;stroke:#1f77b4;" x="246.73099" xlink:href="#m4c4069749e" y="175.195303"/>
     <use style="fill:#1f77b4;stroke:#1f77b4;" x="247.839026" xlink:href="#m4c4069749e" y="219.481796"/>
     <use style="fill:#1f77b4;stroke:#1f77b4;" x="248.947062" xlink:href="#m4c4069749e" y="166.25533"/>
     <use style="fill:#1f77b4;stroke:#1f77b4;" x="250.055098" xlink:href="#m4c4069749e" y="178.852958"/>
     <use style="fill:#1f77b4;stroke:#1f77b4;" x="251.163134" xlink:href="#m4c4069749e" y="185.833796"/>
     <use style="fill:#1f77b4;stroke:#1f77b4;" x="252.27117" xlink:href="#m4c4069749e" y="181.968291"/>
     <use style="fill:#1f77b4;stroke:#1f77b4;" x="253.379206" xlink:href="#m4c4069749e" y="198.734372"/>
     <use style="fill:#1f77b4;stroke:#1f77b4;" x="254.487242" xlink:href="#m4c4069749e" y="178.825506"/>
     <use style="fill:#1f77b4;stroke:#1f77b4;" x="255.595278" xlink:href="#m4c4069749e" y="177.316676"/>
     <use style="fill:#1f77b4;stroke:#1f77b4;" x="256.703314" xlink:href="#m4c4069749e" y="156.036482"/>
     <use style="fill:#1f77b4;stroke:#1f77b4;" x="257.81135" xlink:href="#m4c4069749e" y="175.793162"/>
     <use style="fill:#1f77b4;stroke:#1f77b4;" x="258.919386" xlink:href="#m4c4069749e" y="165.735716"/>
     <use style="fill:#1f77b4;stroke:#1f77b4;" x="260.027422" xlink:href="#m4c4069749e" y="182.863844"/>
     <use style="fill:#1f77b4;stroke:#1f77b4;" x="261.135458" xlink:href="#m4c4069749e" y="180.914858"/>
     <use style="fill:#1f77b4;stroke:#1f77b4;" x="262.243494" xlink:href="#m4c4069749e" y="165.826874"/>
     <use style="fill:#1f77b4;stroke:#1f77b4;" x="263.35153" xlink:href="#m4c4069749e" y="157.188143"/>
     <use style="fill:#1f77b4;stroke:#1f77b4;" x="264.459566" xlink:href="#m4c4069749e" y="167.93982"/>
     <use style="fill:#1f77b4;stroke:#1f77b4;" x="265.567602" xlink:href="#m4c4069749e" y="163.332529"/>
     <use style="fill:#1f77b4;stroke:#1f77b4;" x="266.675638" xlink:href="#m4c4069749e" y="181.542265"/>
     <use style="fill:#1f77b4;stroke:#1f77b4;" x="267.783674" xlink:href="#m4c4069749e" y="261.216"/>
     <use style="fill:#1f77b4;stroke:#1f77b4;" x="268.89171" xlink:href="#m4c4069749e" y="168.046693"/>
     <use style="fill:#1f77b4;stroke:#1f77b4;" x="269.999746" xlink:href="#m4c4069749e" y="160.420061"/>
     <use style="fill:#1f77b4;stroke:#1f77b4;" x="271.107782" xlink:href="#m4c4069749e" y="181.548171"/>
     <use style="fill:#1f77b4;stroke:#1f77b4;" x="272.215818" xlink:href="#m4c4069749e" y="180.372021"/>
     <use style="fill:#1f77b4;stroke:#1f77b4;" x="273.323854" xlink:href="#m4c4069749e" y="200.660054"/>
     <use style="fill:#1f77b4;stroke:#1f77b4;" x="274.43189" xlink:href="#m4c4069749e" y="197.281217"/>
     <use style="fill:#1f77b4;stroke:#1f77b4;" x="275.539926" xlink:href="#m4c4069749e" y="151.880837"/>
     <use style="fill:#1f77b4;stroke:#1f77b4;" x="276.647962" xlink:href="#m4c4069749e" y="167.649612"/>
     <use style="fill:#1f77b4;stroke:#1f77b4;" x="277.755998" xlink:href="#m4c4069749e" y="164.5863"/>
     <use style="fill:#1f77b4;stroke:#1f77b4;" x="278.864034" xlink:href="#m4c4069749e" y="167.888057"/>
     <use style="fill:#1f77b4;stroke:#1f77b4;" x="279.97207" xlink:href="#m4c4069749e" y="174.124202"/>
     <use style="fill:#1f77b4;stroke:#1f77b4;" x="281.080105" xlink:href="#m4c4069749e" y="162.852832"/>
     <use style="fill:#1f77b4;stroke:#1f77b4;" x="282.188141" xlink:href="#m4c4069749e" y="175.574308"/>
     <use style="fill:#1f77b4;stroke:#1f77b4;" x="283.296177" xlink:href="#m4c4069749e" y="166.762948"/>
     <use style="fill:#1f77b4;stroke:#1f77b4;" x="284.404213" xlink:href="#m4c4069749e" y="185.650187"/>
     <use style="fill:#1f77b4;stroke:#1f77b4;" x="285.512249" xlink:href="#m4c4069749e" y="213.690426"/>
     <use style="fill:#1f77b4;stroke:#1f77b4;" x="286.620285" xlink:href="#m4c4069749e" y="154.409241"/>
     <use style="fill:#1f77b4;stroke:#1f77b4;" x="287.728321" xlink:href="#m4c4069749e" y="182.822458"/>
     <use style="fill:#1f77b4;stroke:#1f77b4;" x="288.836357" xlink:href="#m4c4069749e" y="173.628728"/>
     <use style="fill:#1f77b4;stroke:#1f77b4;" x="289.944393" xlink:href="#m4c4069749e" y="183.206767"/>
     <use style="fill:#1f77b4;stroke:#1f77b4;" x="291.052429" xlink:href="#m4c4069749e" y="175.171735"/>
     <use style="fill:#1f77b4;stroke:#1f77b4;" x="292.160465" xlink:href="#m4c4069749e" y="171.246295"/>
     <use style="fill:#1f77b4;stroke:#1f77b4;" x="293.268501" xlink:href="#m4c4069749e" y="183.258739"/>
     <use style="fill:#1f77b4;stroke:#1f77b4;" x="294.376537" xlink:href="#m4c4069749e" y="160.507926"/>
     <use style="fill:#1f77b4;stroke:#1f77b4;" x="295.484573" xlink:href="#m4c4069749e" y="174.731578"/>
     <use style="fill:#1f77b4;stroke:#1f77b4;" x="296.592609" xlink:href="#m4c4069749e" y="185.332293"/>
     <use style="fill:#1f77b4;stroke:#1f77b4;" x="297.700645" xlink:href="#m4c4069749e" y="168.760192"/>
     <use style="fill:#1f77b4;stroke:#1f77b4;" x="298.808681" xlink:href="#m4c4069749e" y="182.611396"/>
     <use style="fill:#1f77b4;stroke:#1f77b4;" x="299.916717" xlink:href="#m4c4069749e" y="189.795831"/>
     <use style="fill:#1f77b4;stroke:#1f77b4;" x="301.024753" xlink:href="#m4c4069749e" y="178.073852"/>
     <use style="fill:#1f77b4;stroke:#1f77b4;" x="302.132789" xlink:href="#m4c4069749e" y="166.168282"/>
     <use style="fill:#1f77b4;stroke:#1f77b4;" x="303.240825" xlink:href="#m4c4069749e" y="177.060876"/>
     <use style="fill:#1f77b4;stroke:#1f77b4;" x="304.348861" xlink:href="#m4c4069749e" y="163.801125"/>
     <use style="fill:#1f77b4;stroke:#1f77b4;" x="305.456897" xlink:href="#m4c4069749e" y="186.711747"/>
     <use style="fill:#1f77b4;stroke:#1f77b4;" x="306.564933" xlink:href="#m4c4069749e" y="176.567447"/>
     <use style="fill:#1f77b4;stroke:#1f77b4;" x="307.672969" xlink:href="#m4c4069749e" y="180.242026"/>
     <use style="fill:#1f77b4;stroke:#1f77b4;" x="308.781005" xlink:href="#m4c4069749e" y="187.973095"/>
     <use style="fill:#1f77b4;stroke:#1f77b4;" x="309.889041" xlink:href="#m4c4069749e" y="184.992045"/>
     <use style="fill:#1f77b4;stroke:#1f77b4;" x="310.997077" xlink:href="#m4c4069749e" y="175.842592"/>
     <use style="fill:#1f77b4;stroke:#1f77b4;" x="312.105113" xlink:href="#m4c4069749e" y="170.11566"/>
     <use style="fill:#1f77b4;stroke:#1f77b4;" x="313.213149" xlink:href="#m4c4069749e" y="184.426352"/>
     <use style="fill:#1f77b4;stroke:#1f77b4;" x="314.321185" xlink:href="#m4c4069749e" y="201.821638"/>
     <use style="fill:#1f77b4;stroke:#1f77b4;" x="315.429221" xlink:href="#m4c4069749e" y="162.808345"/>
     <use style="fill:#1f77b4;stroke:#1f77b4;" x="316.537257" xlink:href="#m4c4069749e" y="178.039153"/>
     <use style="fill:#1f77b4;stroke:#1f77b4;" x="317.645293" xlink:href="#m4c4069749e" y="182.933892"/>
     <use style="fill:#1f77b4;stroke:#1f77b4;" x="318.753329" xlink:href="#m4c4069749e" y="172.323354"/>
     <use style="fill:#1f77b4;stroke:#1f77b4;" x="319.861365" xlink:href="#m4c4069749e" y="183.105431"/>
     <use style="fill:#1f77b4;stroke:#1f77b4;" x="320.969401" xlink:href="#m4c4069749e" y="163.205047"/>
     <use style="fill:#1f77b4;stroke:#1f77b4;" x="322.077437" xlink:href="#m4c4069749e" y="160.748137"/>
     <use style="fill:#1f77b4;stroke:#1f77b4;" x="323.185473" xlink:href="#m4c4069749e" y="181.027988"/>
     <use style="fill:#1f77b4;stroke:#1f77b4;" x="324.293509" xlink:href="#m4c4069749e" y="167.092868"/>
     <use style="fill:#1f77b4;stroke:#1f77b4;" x="325.401545" xlink:href="#m4c4069749e" y="152.430663"/>
     <use style="fill:#1f77b4;stroke:#1f77b4;" x="326.509581" xlink:href="#m4c4069749e" y="161.66337"/>
     <use style="fill:#1f77b4;stroke:#1f77b4;" x="327.617617" xlink:href="#m4c4069749e" y="162.331221"/>
     <use style="fill:#1f77b4;stroke:#1f77b4;" x="328.725653" xlink:href="#m4c4069749e" y="165.476138"/>
     <use style="fill:#1f77b4;stroke:#1f77b4;" x="329.833689" xlink:href="#m4c4069749e" y="173.455016"/>
     <use style="fill:#1f77b4;stroke:#1f77b4;" x="330.941725" xlink:href="#m4c4069749e" y="175.478895"/>
     <use style="fill:#1f77b4;stroke:#1f77b4;" x="332.049761" xlink:href="#m4c4069749e" y="198.983331"/>
     <use style="fill:#1f77b4;stroke:#1f77b4;" x="333.157797" xlink:href="#m4c4069749e" y="164.9385"/>
     <use style="fill:#1f77b4;stroke:#1f77b4;" x="334.265833" xlink:href="#m4c4069749e" y="197.518417"/>
     <use style="fill:#1f77b4;stroke:#1f77b4;" x="335.373869" xlink:href="#m4c4069749e" y="176.813503"/>
     <use style="fill:#1f77b4;stroke:#1f77b4;" x="336.481905" xlink:href="#m4c4069749e" y="165.757359"/>
     <use style="fill:#1f77b4;stroke:#1f77b4;" x="337.589941" xlink:href="#m4c4069749e" y="165.712406"/>
     <use style="fill:#1f77b4;stroke:#1f77b4;" x="338.697977" xlink:href="#m4c4069749e" y="159.490248"/>
     <use style="fill:#1f77b4;stroke:#1f77b4;" x="339.806013" xlink:href="#m4c4069749e" y="163.461627"/>
     <use style="fill:#1f77b4;stroke:#1f77b4;" x="340.914049" xlink:href="#m4c4069749e" y="169.743263"/>
     <use style="fill:#1f77b4;stroke:#1f77b4;" x="342.022085" xlink:href="#m4c4069749e" y="183.404708"/>
     <use style="fill:#1f77b4;stroke:#1f77b4;" x="343.130121" xlink:href="#m4c4069749e" y="168.212152"/>
     <use style="fill:#1f77b4;stroke:#1f77b4;" x="344.238157" xlink:href="#m4c4069749e" y="193.265125"/>
     <use style="fill:#1f77b4;stroke:#1f77b4;" x="345.346193" xlink:href="#m4c4069749e" y="155.61377"/>
     <use style="fill:#1f77b4;stroke:#1f77b4;" x="346.454229" xlink:href="#m4c4069749e" y="163.389681"/>
     <use style="fill:#1f77b4;stroke:#1f77b4;" x="347.562265" xlink:href="#m4c4069749e" y="161.714531"/>
     <use style="fill:#1f77b4;stroke:#1f77b4;" x="348.670301" xlink:href="#m4c4069749e" y="185.865978"/>
     <use style="fill:#1f77b4;stroke:#1f77b4;" x="349.778337" xlink:href="#m4c4069749e" y="181.05924"/>
     <use style="fill:#1f77b4;stroke:#1f77b4;" x="350.886373" xlink:href="#m4c4069749e" y="169.805424"/>
     <use style="fill:#1f77b4;stroke:#1f77b4;" x="351.994409" xlink:href="#m4c4069749e" y="191.440442"/>
     <use style="fill:#1f77b4;stroke:#1f77b4;" x="353.102445" xlink:href="#m4c4069749e" y="165.538359"/>
     <use style="fill:#1f77b4;stroke:#1f77b4;" x="354.210481" xlink:href="#m4c4069749e" y="163.091417"/>
     <use style="fill:#1f77b4;stroke:#1f77b4;" x="355.318517" xlink:href="#m4c4069749e" y="183.236728"/>
     <use style="fill:#1f77b4;stroke:#1f77b4;" x="356.426553" xlink:href="#m4c4069749e" y="150.086608"/>
     <use style="fill:#1f77b4;stroke:#1f77b4;" x="357.534589" xlink:href="#m4c4069749e" y="164.127951"/>
     <use style="fill:#1f77b4;stroke:#1f77b4;" x="358.642625" xlink:href="#m4c4069749e" y="159.136777"/>
     <use style="fill:#1f77b4;stroke:#1f77b4;" x="359.750661" xlink:href="#m4c4069749e" y="167.505617"/>
     <use style="fill:#1f77b4;stroke:#1f77b4;" x="360.858697" xlink:href="#m4c4069749e" y="185.404724"/>
     <use style="fill:#1f77b4;stroke:#1f77b4;" x="361.966733" xlink:href="#m4c4069749e" y="177.31113"/>
     <use style="fill:#1f77b4;stroke:#1f77b4;" x="363.074769" xlink:href="#m4c4069749e" y="152.166306"/>
     <use style="fill:#1f77b4;stroke:#1f77b4;" x="364.182805" xlink:href="#m4c4069749e" y="178.333584"/>
     <use style="fill:#1f77b4;stroke:#1f77b4;" x="365.290841" xlink:href="#m4c4069749e" y="168.383303"/>
     <use style="fill:#1f77b4;stroke:#1f77b4;" x="366.398877" xlink:href="#m4c4069749e" y="184.644084"/>
     <use style="fill:#1f77b4;stroke:#1f77b4;" x="367.506913" xlink:href="#m4c4069749e" y="166.54269"/>
     <use style="fill:#1f77b4;stroke:#1f77b4;" x="368.614949" xlink:href="#m4c4069749e" y="161.867359"/>
     <use style="fill:#1f77b4;stroke:#1f77b4;" x="369.722985" xlink:href="#m4c4069749e" y="179.218236"/>
     <use style="fill:#1f77b4;stroke:#1f77b4;" x="370.831021" xlink:href="#m4c4069749e" y="175.791215"/>
     <use style="fill:#1f77b4;stroke:#1f77b4;" x="371.939057" xlink:href="#m4c4069749e" y="165.206374"/>
     <use style="fill:#1f77b4;stroke:#1f77b4;" x="373.047093" xlink:href="#m4c4069749e" y="171.003151"/>
     <use style="fill:#1f77b4;stroke:#1f77b4;" x="374.155129" xlink:href="#m4c4069749e" y="173.913614"/>
     <use style="fill:#1f77b4;stroke:#1f77b4;" x="375.263165" xlink:href="#m4c4069749e" y="177.910212"/>
     <use style="fill:#1f77b4;stroke:#1f77b4;" x="376.371201" xlink:href="#m4c4069749e" y="207.011522"/>
     <use style="fill:#1f77b4;stroke:#1f77b4;" x="377.207931" xlink:href="#m4c4069749e" y="22383.514"/>
    </g>
   </g>
   <g id="line2d_13">
    <path clip-path="url(#pdf313d1e9f)" d="M 57.256835 38.694199 
L 58.364871 47.599889 
L 59.472907 56.343541 
L 60.580943 65.024223 
L 61.688979 73.849958 
L 62.797015 82.584754 
L 63.905051 91.36665 
L 65.013087 100.124281 
L 66.121123 108.906375 
L 67.229159 118.454825 
L 68.337195 127.111093 
L 69.445231 135.418704 
L 70.553267 143.197576 
L 71.661303 152.954996 
" style="fill:none;stroke:#2ca02c;stroke-dasharray:1.5,2.475;stroke-dashoffset:0;stroke-width:1.5;"/>
    <defs>
     <path d="M -3 3 
L 3 -3 
M -3 -3 
L 3 3 
" id="m75e0c3be0c" style="stroke:#2ca02c;"/>
    </defs>
    <g clip-path="url(#pdf313d1e9f)">
     <use style="fill:#2ca02c;stroke:#2ca02c;" x="57.256835" xlink:href="#m75e0c3be0c" y="38.694199"/>
     <use style="fill:#2ca02c;stroke:#2ca02c;" x="58.364871" xlink:href="#m75e0c3be0c" y="47.599889"/>
     <use style="fill:#2ca02c;stroke:#2ca02c;" x="59.472907" xlink:href="#m75e0c3be0c" y="56.343541"/>
     <use style="fill:#2ca02c;stroke:#2ca02c;" x="60.580943" xlink:href="#m75e0c3be0c" y="65.024223"/>
     <use style="fill:#2ca02c;stroke:#2ca02c;" x="61.688979" xlink:href="#m75e0c3be0c" y="73.849958"/>
     <use style="fill:#2ca02c;stroke:#2ca02c;" x="62.797015" xlink:href="#m75e0c3be0c" y="82.584754"/>
     <use style="fill:#2ca02c;stroke:#2ca02c;" x="63.905051" xlink:href="#m75e0c3be0c" y="91.36665"/>
     <use style="fill:#2ca02c;stroke:#2ca02c;" x="65.013087" xlink:href="#m75e0c3be0c" y="100.124281"/>
     <use style="fill:#2ca02c;stroke:#2ca02c;" x="66.121123" xlink:href="#m75e0c3be0c" y="108.906375"/>
     <use style="fill:#2ca02c;stroke:#2ca02c;" x="67.229159" xlink:href="#m75e0c3be0c" y="118.454825"/>
     <use style="fill:#2ca02c;stroke:#2ca02c;" x="68.337195" xlink:href="#m75e0c3be0c" y="127.111093"/>
     <use style="fill:#2ca02c;stroke:#2ca02c;" x="69.445231" xlink:href="#m75e0c3be0c" y="135.418704"/>
     <use style="fill:#2ca02c;stroke:#2ca02c;" x="70.553267" xlink:href="#m75e0c3be0c" y="143.197576"/>
     <use style="fill:#2ca02c;stroke:#2ca02c;" x="71.661303" xlink:href="#m75e0c3be0c" y="152.954996"/>
    </g>
   </g>
   <g id="line2d_14">
    <path clip-path="url(#pdf313d1e9f)" d="M 55.040763 83.186644 
L 83.906912 311.86825 
L 83.906912 311.86825 
" style="fill:none;stroke:#000000;stroke-dasharray:5.55,2.4;stroke-dashoffset:0;stroke-width:1.5;"/>
   </g>
   <g id="patch_3">
    <path d="M 37.7 273.312 
L 37.7 7.2 
" style="fill:none;stroke:#000000;stroke-linecap:square;stroke-linejoin:miter;stroke-width:0.8;"/>
   </g>
   <g id="patch_4">
    <path d="M 394.82 273.312 
L 394.82 7.2 
" style="fill:none;stroke:#000000;stroke-linecap:square;stroke-linejoin:miter;stroke-width:0.8;"/>
   </g>
   <g id="patch_5">
    <path d="M 37.7 273.312 
L 394.82 273.312 
" style="fill:none;stroke:#000000;stroke-linecap:square;stroke-linejoin:miter;stroke-width:0.8;"/>
   </g>
   <g id="patch_6">
    <path d="M 37.7 7.2 
L 394.82 7.2 
" style="fill:none;stroke:#000000;stroke-linecap:square;stroke-linejoin:miter;stroke-width:0.8;"/>
   </g>
   <g id="legend_1">
    <g id="patch_7">
     <path d="M 286.72 59.25625 
L 387.82 59.25625 
Q 389.82 59.25625 389.82 57.25625 
L 389.82 14.2 
Q 389.82 12.2 387.82 12.2 
L 286.72 12.2 
Q 284.72 12.2 284.72 14.2 
L 284.72 57.25625 
Q 284.72 59.25625 286.72 59.25625 
z
" style="fill:#ffffff;opacity:0.8;"/>
    </g>
    <g id="line2d_15">
     <path d="M 288.72 20.298437 
L 308.72 20.298437 
" style="fill:none;stroke:#1f77b4;stroke-linecap:square;stroke-width:1.5;"/>
    </g>
    <g id="line2d_16">
     <g>
      <use style="fill:#1f77b4;stroke:#1f77b4;" x="298.72" xlink:href="#m4c4069749e" y="20.298437"/>
     </g>
    </g>
    <g id="text_13">
     <!-- APD$_n$ - APD$_\infty$ -->
     <defs>
      <path d="M 34.1875 63.1875 
L 20.796875 26.90625 
L 47.609375 26.90625 
z
M 28.609375 72.90625 
L 39.796875 72.90625 
L 67.578125 0 
L 57.328125 0 
L 50.6875 18.703125 
L 17.828125 18.703125 
L 11.1875 0 
L 0.78125 0 
z
" id="DejaVuSans-65"/>
      <path d="M 19.671875 64.796875 
L 19.671875 37.40625 
L 32.078125 37.40625 
Q 38.96875 37.40625 42.71875 40.96875 
Q 46.484375 44.53125 46.484375 51.125 
Q 46.484375 57.671875 42.71875 61.234375 
Q 38.96875 64.796875 32.078125 64.796875 
z
M 9.8125 72.90625 
L 32.078125 72.90625 
Q 44.34375 72.90625 50.609375 67.359375 
Q 56.890625 61.8125 56.890625 51.125 
Q 56.890625 40.328125 50.609375 34.8125 
Q 44.34375 29.296875 32.078125 29.296875 
L 19.671875 29.296875 
L 19.671875 0 
L 9.8125 0 
z
" id="DejaVuSans-80"/>
      <path d="M 19.671875 64.796875 
L 19.671875 8.109375 
L 31.59375 8.109375 
Q 46.6875 8.109375 53.6875 14.9375 
Q 60.6875 21.78125 60.6875 36.53125 
Q 60.6875 51.171875 53.6875 57.984375 
Q 46.6875 64.796875 31.59375 64.796875 
z
M 9.8125 72.90625 
L 30.078125 72.90625 
Q 51.265625 72.90625 61.171875 64.09375 
Q 71.09375 55.28125 71.09375 36.53125 
Q 71.09375 17.671875 61.125 8.828125 
Q 51.171875 0 30.078125 0 
L 9.8125 0 
z
" id="DejaVuSans-68"/>
      <path d="M 55.71875 33.015625 
L 49.3125 0 
L 40.28125 0 
L 46.6875 32.671875 
Q 47.125 34.96875 47.359375 36.71875 
Q 47.609375 38.484375 47.609375 39.5 
Q 47.609375 43.609375 45.015625 45.890625 
Q 42.4375 48.1875 37.796875 48.1875 
Q 30.5625 48.1875 25.34375 43.375 
Q 20.125 38.578125 18.5 30.328125 
L 12.5 0 
L 3.515625 0 
L 14.109375 54.6875 
L 23.09375 54.6875 
L 21.296875 46.09375 
Q 25.046875 50.828125 30.3125 53.40625 
Q 35.59375 56 41.40625 56 
Q 48.640625 56 52.609375 52.09375 
Q 56.59375 48.1875 56.59375 41.109375 
Q 56.59375 39.359375 56.375 37.359375 
Q 56.15625 35.359375 55.71875 33.015625 
z
" id="DejaVuSans-Oblique-110"/>
      <path id="DejaVuSans-32"/>
      <path d="M 4.890625 31.390625 
L 31.203125 31.390625 
L 31.203125 23.390625 
L 4.890625 23.390625 
z
" id="DejaVuSans-45"/>
      <path d="M 45.5625 17.046875 
Q 44.046875 18.796875 41.65625 22.90625 
Q 38.375 17.046875 35.5 14.453125 
Q 31.890625 11.328125 26.265625 11.328125 
Q 19.671875 11.328125 15.328125 16.265625 
Q 10.75 21.4375 10.75 29.984375 
Q 10.75 38.1875 15.328125 43.75 
Q 19.4375 48.6875 26.375 48.6875 
Q 29.9375 48.6875 32.5625 47.21875 
Q 35.640625 45.609375 37.75 42.828125 
Q 39.703125 40.328125 41.65625 36.96875 
Q 44.921875 42.828125 47.796875 45.40625 
Q 51.421875 48.53125 57.03125 48.53125 
Q 63.625 48.53125 67.96875 43.609375 
Q 72.5625 38.421875 72.5625 29.890625 
Q 72.5625 21.6875 67.96875 16.109375 
Q 63.875 11.1875 56.9375 11.1875 
Q 53.375 11.1875 50.734375 12.640625 
Q 48.09375 13.96875 45.5625 17.046875 
z
M 25.734375 17.71875 
Q 33.796875 17.71875 38.625 29.4375 
Q 32.421875 42.234375 25.734375 42.234375 
Q 20.84375 42.234375 18.359375 38.71875 
Q 15.671875 34.96875 15.671875 29.984375 
Q 15.671875 24.515625 18.359375 21.140625 
Q 21.09375 17.71875 25.734375 17.71875 
z
M 57.5625 42.140625 
Q 50.296875 42.140625 44.671875 30.421875 
Q 50.828125 17.625 57.5625 17.625 
Q 62.453125 17.625 64.9375 21.140625 
Q 67.625 24.90625 67.625 29.890625 
Q 67.625 35.359375 64.9375 38.71875 
Q 62.203125 42.140625 57.5625 42.140625 
z
" id="DejaVuSans-8734"/>
     </defs>
     <g transform="translate(316.72 23.798437)scale(0.1 -0.1)">
      <use transform="translate(0 0.09375)" xlink:href="#DejaVuSans-65"/>
      <use transform="translate(68.408203 0.09375)" xlink:href="#DejaVuSans-80"/>
      <use transform="translate(128.710938 0.09375)" xlink:href="#DejaVuSans-68"/>
      <use transform="translate(206.669922 -16.3125)scale(0.7)" xlink:href="#DejaVuSans-Oblique-110"/>
      <use transform="translate(253.769531 0.09375)" xlink:href="#DejaVuSans-32"/>
      <use transform="translate(285.556641 0.09375)" xlink:href="#DejaVuSans-45"/>
      <use transform="translate(321.640625 0.09375)" xlink:href="#DejaVuSans-32"/>
      <use transform="translate(353.427734 0.09375)" xlink:href="#DejaVuSans-65"/>
      <use transform="translate(421.835938 0.09375)" xlink:href="#DejaVuSans-80"/>
      <use transform="translate(482.138672 0.09375)" xlink:href="#DejaVuSans-68"/>
      <use transform="translate(560.097656 -16.3125)scale(0.7)" xlink:href="#DejaVuSans-8734"/>
     </g>
    </g>
    <g id="line2d_17">
     <path d="M 288.72 34.976562 
L 308.72 34.976562 
" style="fill:none;stroke:#2ca02c;stroke-dasharray:1.5,2.475;stroke-dashoffset:0;stroke-width:1.5;"/>
    </g>
    <g id="line2d_18">
     <g>
      <use style="fill:#2ca02c;stroke:#2ca02c;" x="298.72" xlink:href="#m75e0c3be0c" y="34.976562"/>
     </g>
    </g>
    <g id="text_14">
     <!-- linear region -->
     <defs>
      <path d="M 9.421875 75.984375 
L 18.40625 75.984375 
L 18.40625 0 
L 9.421875 0 
z
" id="DejaVuSans-108"/>
      <path d="M 9.421875 54.6875 
L 18.40625 54.6875 
L 18.40625 0 
L 9.421875 0 
z
M 9.421875 75.984375 
L 18.40625 75.984375 
L 18.40625 64.59375 
L 9.421875 64.59375 
z
" id="DejaVuSans-105"/>
      <path d="M 54.890625 33.015625 
L 54.890625 0 
L 45.90625 0 
L 45.90625 32.71875 
Q 45.90625 40.484375 42.875 44.328125 
Q 39.84375 48.1875 33.796875 48.1875 
Q 26.515625 48.1875 22.3125 43.546875 
Q 18.109375 38.921875 18.109375 30.90625 
L 18.109375 0 
L 9.078125 0 
L 9.078125 54.6875 
L 18.109375 54.6875 
L 18.109375 46.1875 
Q 21.34375 51.125 25.703125 53.5625 
Q 30.078125 56 35.796875 56 
Q 45.21875 56 50.046875 50.171875 
Q 54.890625 44.34375 54.890625 33.015625 
z
" id="DejaVuSans-110"/>
      <path d="M 56.203125 29.59375 
L 56.203125 25.203125 
L 14.890625 25.203125 
Q 15.484375 15.921875 20.484375 11.0625 
Q 25.484375 6.203125 34.421875 6.203125 
Q 39.59375 6.203125 44.453125 7.46875 
Q 49.3125 8.734375 54.109375 11.28125 
L 54.109375 2.78125 
Q 49.265625 0.734375 44.1875 -0.34375 
Q 39.109375 -1.421875 33.890625 -1.421875 
Q 20.796875 -1.421875 13.15625 6.1875 
Q 5.515625 13.8125 5.515625 26.8125 
Q 5.515625 40.234375 12.765625 48.109375 
Q 20.015625 56 32.328125 56 
Q 43.359375 56 49.78125 48.890625 
Q 56.203125 41.796875 56.203125 29.59375 
z
M 47.21875 32.234375 
Q 47.125 39.59375 43.09375 43.984375 
Q 39.0625 48.390625 32.421875 48.390625 
Q 24.90625 48.390625 20.390625 44.140625 
Q 15.875 39.890625 15.1875 32.171875 
z
" id="DejaVuSans-101"/>
      <path d="M 34.28125 27.484375 
Q 23.390625 27.484375 19.1875 25 
Q 14.984375 22.515625 14.984375 16.5 
Q 14.984375 11.71875 18.140625 8.90625 
Q 21.296875 6.109375 26.703125 6.109375 
Q 34.1875 6.109375 38.703125 11.40625 
Q 43.21875 16.703125 43.21875 25.484375 
L 43.21875 27.484375 
z
M 52.203125 31.203125 
L 52.203125 0 
L 43.21875 0 
L 43.21875 8.296875 
Q 40.140625 3.328125 35.546875 0.953125 
Q 30.953125 -1.421875 24.3125 -1.421875 
Q 15.921875 -1.421875 10.953125 3.296875 
Q 6 8.015625 6 15.921875 
Q 6 25.140625 12.171875 29.828125 
Q 18.359375 34.515625 30.609375 34.515625 
L 43.21875 34.515625 
L 43.21875 35.40625 
Q 43.21875 41.609375 39.140625 45 
Q 35.0625 48.390625 27.6875 48.390625 
Q 23 48.390625 18.546875 47.265625 
Q 14.109375 46.140625 10.015625 43.890625 
L 10.015625 52.203125 
Q 14.9375 54.109375 19.578125 55.046875 
Q 24.21875 56 28.609375 56 
Q 40.484375 56 46.34375 49.84375 
Q 52.203125 43.703125 52.203125 31.203125 
z
" id="DejaVuSans-97"/>
      <path d="M 41.109375 46.296875 
Q 39.59375 47.171875 37.8125 47.578125 
Q 36.03125 48 33.890625 48 
Q 26.265625 48 22.1875 43.046875 
Q 18.109375 38.09375 18.109375 28.8125 
L 18.109375 0 
L 9.078125 0 
L 9.078125 54.6875 
L 18.109375 54.6875 
L 18.109375 46.1875 
Q 20.953125 51.171875 25.484375 53.578125 
Q 30.03125 56 36.53125 56 
Q 37.453125 56 38.578125 55.875 
Q 39.703125 55.765625 41.0625 55.515625 
z
" id="DejaVuSans-114"/>
      <path d="M 45.40625 27.984375 
Q 45.40625 37.75 41.375 43.109375 
Q 37.359375 48.484375 30.078125 48.484375 
Q 22.859375 48.484375 18.828125 43.109375 
Q 14.796875 37.75 14.796875 27.984375 
Q 14.796875 18.265625 18.828125 12.890625 
Q 22.859375 7.515625 30.078125 7.515625 
Q 37.359375 7.515625 41.375 12.890625 
Q 45.40625 18.265625 45.40625 27.984375 
z
M 54.390625 6.78125 
Q 54.390625 -7.171875 48.1875 -13.984375 
Q 42 -20.796875 29.203125 -20.796875 
Q 24.46875 -20.796875 20.265625 -20.09375 
Q 16.0625 -19.390625 12.109375 -17.921875 
L 12.109375 -9.1875 
Q 16.0625 -11.328125 19.921875 -12.34375 
Q 23.78125 -13.375 27.78125 -13.375 
Q 36.625 -13.375 41.015625 -8.765625 
Q 45.40625 -4.15625 45.40625 5.171875 
L 45.40625 9.625 
Q 42.625 4.78125 38.28125 2.390625 
Q 33.9375 0 27.875 0 
Q 17.828125 0 11.671875 7.65625 
Q 5.515625 15.328125 5.515625 27.984375 
Q 5.515625 40.671875 11.671875 48.328125 
Q 17.828125 56 27.875 56 
Q 33.9375 56 38.28125 53.609375 
Q 42.625 51.21875 45.40625 46.390625 
L 45.40625 54.6875 
L 54.390625 54.6875 
z
" id="DejaVuSans-103"/>
      <path d="M 30.609375 48.390625 
Q 23.390625 48.390625 19.1875 42.75 
Q 14.984375 37.109375 14.984375 27.296875 
Q 14.984375 17.484375 19.15625 11.84375 
Q 23.34375 6.203125 30.609375 6.203125 
Q 37.796875 6.203125 41.984375 11.859375 
Q 46.1875 17.53125 46.1875 27.296875 
Q 46.1875 37.015625 41.984375 42.703125 
Q 37.796875 48.390625 30.609375 48.390625 
z
M 30.609375 56 
Q 42.328125 56 49.015625 48.375 
Q 55.71875 40.765625 55.71875 27.296875 
Q 55.71875 13.875 49.015625 6.21875 
Q 42.328125 -1.421875 30.609375 -1.421875 
Q 18.84375 -1.421875 12.171875 6.21875 
Q 5.515625 13.875 5.515625 27.296875 
Q 5.515625 40.765625 12.171875 48.375 
Q 18.84375 56 30.609375 56 
z
" id="DejaVuSans-111"/>
     </defs>
     <g transform="translate(316.72 38.476562)scale(0.1 -0.1)">
      <use xlink:href="#DejaVuSans-108"/>
      <use x="27.783203" xlink:href="#DejaVuSans-105"/>
      <use x="55.566406" xlink:href="#DejaVuSans-110"/>
      <use x="118.945312" xlink:href="#DejaVuSans-101"/>
      <use x="180.46875" xlink:href="#DejaVuSans-97"/>
      <use x="241.748047" xlink:href="#DejaVuSans-114"/>
      <use x="282.861328" xlink:href="#DejaVuSans-32"/>
      <use x="314.648438" xlink:href="#DejaVuSans-114"/>
      <use x="353.511719" xlink:href="#DejaVuSans-101"/>
      <use x="415.035156" xlink:href="#DejaVuSans-103"/>
      <use x="478.511719" xlink:href="#DejaVuSans-105"/>
      <use x="506.294922" xlink:href="#DejaVuSans-111"/>
      <use x="567.476562" xlink:href="#DejaVuSans-110"/>
     </g>
    </g>
    <g id="line2d_19">
     <path d="M 288.72 49.65625 
L 308.72 49.65625 
" style="fill:none;stroke:#000000;stroke-dasharray:5.55,2.4;stroke-dashoffset:0;stroke-width:1.5;"/>
    </g>
    <g id="line2d_20"/>
    <g id="text_15">
     <!-- $ \exp(-0.685 k)$ -->
     <defs>
      <path d="M 54.890625 54.6875 
L 35.109375 28.078125 
L 55.90625 0 
L 45.3125 0 
L 29.390625 21.484375 
L 13.484375 0 
L 2.875 0 
L 24.125 28.609375 
L 4.6875 54.6875 
L 15.28125 54.6875 
L 29.78125 35.203125 
L 44.28125 54.6875 
z
" id="DejaVuSans-120"/>
      <path d="M 18.109375 8.203125 
L 18.109375 -20.796875 
L 9.078125 -20.796875 
L 9.078125 54.6875 
L 18.109375 54.6875 
L 18.109375 46.390625 
Q 20.953125 51.265625 25.265625 53.625 
Q 29.59375 56 35.59375 56 
Q 45.5625 56 51.78125 48.09375 
Q 58.015625 40.1875 58.015625 27.296875 
Q 58.015625 14.40625 51.78125 6.484375 
Q 45.5625 -1.421875 35.59375 -1.421875 
Q 29.59375 -1.421875 25.265625 0.953125 
Q 20.953125 3.328125 18.109375 8.203125 
z
M 48.6875 27.296875 
Q 48.6875 37.203125 44.609375 42.84375 
Q 40.53125 48.484375 33.40625 48.484375 
Q 26.265625 48.484375 22.1875 42.84375 
Q 18.109375 37.203125 18.109375 27.296875 
Q 18.109375 17.390625 22.1875 11.75 
Q 26.265625 6.109375 33.40625 6.109375 
Q 40.53125 6.109375 44.609375 11.75 
Q 48.6875 17.390625 48.6875 27.296875 
z
" id="DejaVuSans-112"/>
      <path d="M 31 75.875 
Q 24.46875 64.65625 21.28125 53.65625 
Q 18.109375 42.671875 18.109375 31.390625 
Q 18.109375 20.125 21.3125 9.0625 
Q 24.515625 -2 31 -13.1875 
L 23.1875 -13.1875 
Q 15.875 -1.703125 12.234375 9.375 
Q 8.59375 20.453125 8.59375 31.390625 
Q 8.59375 42.28125 12.203125 53.3125 
Q 15.828125 64.359375 23.1875 75.875 
z
" id="DejaVuSans-40"/>
      <path d="M 10.6875 12.40625 
L 21 12.40625 
L 21 0 
L 10.6875 0 
z
" id="DejaVuSans-46"/>
      <path d="M 33.015625 40.375 
Q 26.375 40.375 22.484375 35.828125 
Q 18.609375 31.296875 18.609375 23.390625 
Q 18.609375 15.53125 22.484375 10.953125 
Q 26.375 6.390625 33.015625 6.390625 
Q 39.65625 6.390625 43.53125 10.953125 
Q 47.40625 15.53125 47.40625 23.390625 
Q 47.40625 31.296875 43.53125 35.828125 
Q 39.65625 40.375 33.015625 40.375 
z
M 52.59375 71.296875 
L 52.59375 62.3125 
Q 48.875 64.0625 45.09375 64.984375 
Q 41.3125 65.921875 37.59375 65.921875 
Q 27.828125 65.921875 22.671875 59.328125 
Q 17.53125 52.734375 16.796875 39.40625 
Q 19.671875 43.65625 24.015625 45.921875 
Q 28.375 48.1875 33.59375 48.1875 
Q 44.578125 48.1875 50.953125 41.515625 
Q 57.328125 34.859375 57.328125 23.390625 
Q 57.328125 12.15625 50.6875 5.359375 
Q 44.046875 -1.421875 33.015625 -1.421875 
Q 20.359375 -1.421875 13.671875 8.265625 
Q 6.984375 17.96875 6.984375 36.375 
Q 6.984375 53.65625 15.1875 63.9375 
Q 23.390625 74.21875 37.203125 74.21875 
Q 40.921875 74.21875 44.703125 73.484375 
Q 48.484375 72.75 52.59375 71.296875 
z
" id="DejaVuSans-54"/>
      <path d="M 31.78125 34.625 
Q 24.75 34.625 20.71875 30.859375 
Q 16.703125 27.09375 16.703125 20.515625 
Q 16.703125 13.921875 20.71875 10.15625 
Q 24.75 6.390625 31.78125 6.390625 
Q 38.8125 6.390625 42.859375 10.171875 
Q 46.921875 13.96875 46.921875 20.515625 
Q 46.921875 27.09375 42.890625 30.859375 
Q 38.875 34.625 31.78125 34.625 
z
M 21.921875 38.8125 
Q 15.578125 40.375 12.03125 44.71875 
Q 8.5 49.078125 8.5 55.328125 
Q 8.5 64.0625 14.71875 69.140625 
Q 20.953125 74.21875 31.78125 74.21875 
Q 42.671875 74.21875 48.875 69.140625 
Q 55.078125 64.0625 55.078125 55.328125 
Q 55.078125 49.078125 51.53125 44.71875 
Q 48 40.375 41.703125 38.8125 
Q 48.828125 37.15625 52.796875 32.3125 
Q 56.78125 27.484375 56.78125 20.515625 
Q 56.78125 9.90625 50.3125 4.234375 
Q 43.84375 -1.421875 31.78125 -1.421875 
Q 19.734375 -1.421875 13.25 4.234375 
Q 6.78125 9.90625 6.78125 20.515625 
Q 6.78125 27.484375 10.78125 32.3125 
Q 14.796875 37.15625 21.921875 38.8125 
z
M 18.3125 54.390625 
Q 18.3125 48.734375 21.84375 45.5625 
Q 25.390625 42.390625 31.78125 42.390625 
Q 38.140625 42.390625 41.71875 45.5625 
Q 45.3125 48.734375 45.3125 54.390625 
Q 45.3125 60.0625 41.71875 63.234375 
Q 38.140625 66.40625 31.78125 66.40625 
Q 25.390625 66.40625 21.84375 63.234375 
Q 18.3125 60.0625 18.3125 54.390625 
z
" id="DejaVuSans-56"/>
      <path d="M 8.015625 75.875 
L 15.828125 75.875 
Q 23.140625 64.359375 26.78125 53.3125 
Q 30.421875 42.28125 30.421875 31.390625 
Q 30.421875 20.453125 26.78125 9.375 
Q 23.140625 -1.703125 15.828125 -13.1875 
L 8.015625 -13.1875 
Q 14.5 -2 17.703125 9.0625 
Q 20.90625 20.125 20.90625 31.390625 
Q 20.90625 42.671875 17.703125 53.65625 
Q 14.5 64.65625 8.015625 75.875 
z
" id="DejaVuSans-41"/>
     </defs>
     <g transform="translate(316.72 53.15625)scale(0.1 -0.1)">
      <use transform="translate(0 0.015625)" xlink:href="#DejaVuSans-101"/>
      <use transform="translate(61.523438 0.015625)" xlink:href="#DejaVuSans-120"/>
      <use transform="translate(120.703125 0.015625)" xlink:href="#DejaVuSans-112"/>
      <use transform="translate(184.179688 0.015625)" xlink:href="#DejaVuSans-40"/>
      <use transform="translate(223.193359 0.015625)" xlink:href="#DejaVuSans-8722"/>
      <use transform="translate(306.982422 0.015625)" xlink:href="#DejaVuSans-48"/>
      <use transform="translate(370.605469 0.015625)" xlink:href="#DejaVuSans-46"/>
      <use transform="translate(402.392578 0.015625)" xlink:href="#DejaVuSans-54"/>
      <use transform="translate(466.015625 0.015625)" xlink:href="#DejaVuSans-56"/>
      <use transform="translate(529.638672 0.015625)" xlink:href="#DejaVuSans-53"/>
      <use transform="translate(593.261719 0.015625)" xlink:href="#DejaVuSans-Oblique-107"/>
      <use transform="translate(651.171875 0.015625)" xlink:href="#DejaVuSans-41"/>
     </g>
    </g>
   </g>
  </g>
 </g>
 <defs>
  <clipPath id="pdf313d1e9f">
   <rect height="266.112" width="357.12" x="37.7" y="7.2"/>
  </clipPath>
 </defs>
</svg>
