<?xml version="1.0" encoding="utf-8" standalone="no"?>
<!DOCTYPE svg PUBLIC "-//W3C//DTD SVG 1.1//EN"
  "http://www.w3.org/Graphics/SVG/1.1/DTD/svg11.dtd">
<!-- Created with matplotlib (https://matplotlib.org/) -->
<svg height="310.86825pt" version="1.1" viewBox="0 0 402.02 310.86825" width="402.02pt" xmlns="http://www.w3.org/2000/svg" xmlns:xlink="http://www.w3.org/1999/xlink">
 <defs>
  <style type="text/css">
*{stroke-linecap:butt;stroke-linejoin:round;}
  </style>
 </defs>
 <g id="figure_1">
  <g id="patch_1">
   <path d="M 0 310.86825 
L 402.02 310.86825 
L 402.02 0 
L 0 0 
z
" style="fill:#ffffff;"/>
  </g>
  <g id="axes_1">
   <g id="patch_2">
    <path d="M 37.7 273.312 
L 394.82 273.312 
L 394.82 7.2 
L 37.7 7.2 
z
" style="fill:#ffffff;"/>
   </g>
   <g id="matplotlib.axis_1">
    <g id="xtick_1">
     <g id="line2d_1">
      <defs>
       <path d="M 0 0 
L 0 3.5 
" id="m6c73a4e682" style="stroke:#000000;stroke-width:0.8;"/>
      </defs>
      <g>
       <use style="stroke:#000000;stroke-width:0.8;" x="53.932727" xlink:href="#m6c73a4e682" y="273.312"/>
      </g>
     </g>
     <g id="text_1">
      <!-- 0 -->
      <defs>
       <path d="M 31.78125 66.40625 
Q 24.171875 66.40625 20.328125 58.90625 
Q 16.5 51.421875 16.5 36.375 
Q 16.5 21.390625 20.328125 13.890625 
Q 24.171875 6.390625 31.78125 6.390625 
Q 39.453125 6.390625 43.28125 13.890625 
Q 47.125 21.390625 47.125 36.375 
Q 47.125 51.421875 43.28125 58.90625 
Q 39.453125 66.40625 31.78125 66.40625 
z
M 31.78125 74.21875 
Q 44.046875 74.21875 50.515625 64.515625 
Q 56.984375 54.828125 56.984375 36.375 
Q 56.984375 17.96875 50.515625 8.265625 
Q 44.046875 -1.421875 31.78125 -1.421875 
Q 19.53125 -1.421875 13.0625 8.265625 
Q 6.59375 17.96875 6.59375 36.375 
Q 6.59375 54.828125 13.0625 64.515625 
Q 19.53125 74.21875 31.78125 74.21875 
z
" id="DejaVuSans-48"/>
      </defs>
      <g transform="translate(50.751477 287.910437)scale(0.1 -0.1)">
       <use xlink:href="#DejaVuSans-48"/>
      </g>
     </g>
    </g>
    <g id="xtick_2">
     <g id="line2d_2">
      <g>
       <use style="stroke:#000000;stroke-width:0.8;" x="132.541576" xlink:href="#m6c73a4e682" y="273.312"/>
      </g>
     </g>
     <g id="text_2">
      <!-- 100 -->
      <defs>
       <path d="M 12.40625 8.296875 
L 28.515625 8.296875 
L 28.515625 63.921875 
L 10.984375 60.40625 
L 10.984375 69.390625 
L 28.421875 72.90625 
L 38.28125 72.90625 
L 38.28125 8.296875 
L 54.390625 8.296875 
L 54.390625 0 
L 12.40625 0 
z
" id="DejaVuSans-49"/>
      </defs>
      <g transform="translate(122.997826 287.910437)scale(0.1 -0.1)">
       <use xlink:href="#DejaVuSans-49"/>
       <use x="63.623047" xlink:href="#DejaVuSans-48"/>
       <use x="127.246094" xlink:href="#DejaVuSans-48"/>
      </g>
     </g>
    </g>
    <g id="xtick_3">
     <g id="line2d_3">
      <g>
       <use style="stroke:#000000;stroke-width:0.8;" x="211.150425" xlink:href="#m6c73a4e682" y="273.312"/>
      </g>
     </g>
     <g id="text_3">
      <!-- 200 -->
      <defs>
       <path d="M 19.1875 8.296875 
L 53.609375 8.296875 
L 53.609375 0 
L 7.328125 0 
L 7.328125 8.296875 
Q 12.9375 14.109375 22.625 23.890625 
Q 32.328125 33.6875 34.8125 36.53125 
Q 39.546875 41.84375 41.421875 45.53125 
Q 43.3125 49.21875 43.3125 52.78125 
Q 43.3125 58.59375 39.234375 62.25 
Q 35.15625 65.921875 28.609375 65.921875 
Q 23.96875 65.921875 18.8125 64.3125 
Q 13.671875 62.703125 7.8125 59.421875 
L 7.8125 69.390625 
Q 13.765625 71.78125 18.9375 73 
Q 24.125 74.21875 28.421875 74.21875 
Q 39.75 74.21875 46.484375 68.546875 
Q 53.21875 62.890625 53.21875 53.421875 
Q 53.21875 48.921875 51.53125 44.890625 
Q 49.859375 40.875 45.40625 35.40625 
Q 44.1875 33.984375 37.640625 27.21875 
Q 31.109375 20.453125 19.1875 8.296875 
z
" id="DejaVuSans-50"/>
      </defs>
      <g transform="translate(201.606675 287.910437)scale(0.1 -0.1)">
       <use xlink:href="#DejaVuSans-50"/>
       <use x="63.623047" xlink:href="#DejaVuSans-48"/>
       <use x="127.246094" xlink:href="#DejaVuSans-48"/>
      </g>
     </g>
    </g>
    <g id="xtick_4">
     <g id="line2d_4">
      <g>
       <use style="stroke:#000000;stroke-width:0.8;" x="289.759274" xlink:href="#m6c73a4e682" y="273.312"/>
      </g>
     </g>
     <g id="text_4">
      <!-- 300 -->
      <defs>
       <path d="M 40.578125 39.3125 
Q 47.65625 37.796875 51.625 33 
Q 55.609375 28.21875 55.609375 21.1875 
Q 55.609375 10.40625 48.1875 4.484375 
Q 40.765625 -1.421875 27.09375 -1.421875 
Q 22.515625 -1.421875 17.65625 -0.515625 
Q 12.796875 0.390625 7.625 2.203125 
L 7.625 11.71875 
Q 11.71875 9.328125 16.59375 8.109375 
Q 21.484375 6.890625 26.8125 6.890625 
Q 36.078125 6.890625 40.9375 10.546875 
Q 45.796875 14.203125 45.796875 21.1875 
Q 45.796875 27.640625 41.28125 31.265625 
Q 36.765625 34.90625 28.71875 34.90625 
L 20.21875 34.90625 
L 20.21875 43.015625 
L 29.109375 43.015625 
Q 36.375 43.015625 40.234375 45.921875 
Q 44.09375 48.828125 44.09375 54.296875 
Q 44.09375 59.90625 40.109375 62.90625 
Q 36.140625 65.921875 28.71875 65.921875 
Q 24.65625 65.921875 20.015625 65.03125 
Q 15.375 64.15625 9.8125 62.3125 
L 9.8125 71.09375 
Q 15.4375 72.65625 20.34375 73.4375 
Q 25.25 74.21875 29.59375 74.21875 
Q 40.828125 74.21875 47.359375 69.109375 
Q 53.90625 64.015625 53.90625 55.328125 
Q 53.90625 49.265625 50.4375 45.09375 
Q 46.96875 40.921875 40.578125 39.3125 
z
" id="DejaVuSans-51"/>
      </defs>
      <g transform="translate(280.215524 287.910437)scale(0.1 -0.1)">
       <use xlink:href="#DejaVuSans-51"/>
       <use x="63.623047" xlink:href="#DejaVuSans-48"/>
       <use x="127.246094" xlink:href="#DejaVuSans-48"/>
      </g>
     </g>
    </g>
    <g id="xtick_5">
     <g id="line2d_5">
      <g>
       <use style="stroke:#000000;stroke-width:0.8;" x="368.368122" xlink:href="#m6c73a4e682" y="273.312"/>
      </g>
     </g>
     <g id="text_5">
      <!-- 400 -->
      <defs>
       <path d="M 37.796875 64.3125 
L 12.890625 25.390625 
L 37.796875 25.390625 
z
M 35.203125 72.90625 
L 47.609375 72.90625 
L 47.609375 25.390625 
L 58.015625 25.390625 
L 58.015625 17.1875 
L 47.609375 17.1875 
L 47.609375 0 
L 37.796875 0 
L 37.796875 17.1875 
L 4.890625 17.1875 
L 4.890625 26.703125 
z
" id="DejaVuSans-52"/>
      </defs>
      <g transform="translate(358.824372 287.910437)scale(0.1 -0.1)">
       <use xlink:href="#DejaVuSans-52"/>
       <use x="63.623047" xlink:href="#DejaVuSans-48"/>
       <use x="127.246094" xlink:href="#DejaVuSans-48"/>
      </g>
     </g>
    </g>
    <g id="text_6">
     <!-- $ k $ -->
     <defs>
      <path d="M 18.3125 75.984375 
L 27.296875 75.984375 
L 18.703125 31.6875 
L 49.515625 54.6875 
L 61.1875 54.6875 
L 26.8125 28.515625 
L 51.90625 0 
L 41.015625 0 
L 17.671875 26.703125 
L 12.5 0 
L 3.515625 0 
z
" id="DejaVuSans-Oblique-107"/>
     </defs>
     <g transform="translate(213.36 301.588562)scale(0.1 -0.1)">
      <use transform="translate(0 0.015625)" xlink:href="#DejaVuSans-Oblique-107"/>
     </g>
    </g>
   </g>
   <g id="matplotlib.axis_2">
    <g id="ytick_1">
     <g id="line2d_6">
      <defs>
       <path d="M 0 0 
L -3.5 0 
" id="m1db5c97e43" style="stroke:#000000;stroke-width:0.8;"/>
      </defs>
      <g>
       <use style="stroke:#000000;stroke-width:0.8;" x="37.7" xlink:href="#m1db5c97e43" y="255.109763"/>
      </g>
     </g>
     <g id="text_7">
      <!-- $\mathdefault{10^{-3}}$ -->
      <defs>
       <path d="M 10.59375 35.5 
L 73.1875 35.5 
L 73.1875 27.203125 
L 10.59375 27.203125 
z
" id="DejaVuSans-8722"/>
      </defs>
      <g transform="translate(7.2 258.908982)scale(0.1 -0.1)">
       <use transform="translate(0 0.765625)" xlink:href="#DejaVuSans-49"/>
       <use transform="translate(63.623047 0.765625)" xlink:href="#DejaVuSans-48"/>
       <use transform="translate(128.203125 39.046875)scale(0.7)" xlink:href="#DejaVuSans-8722"/>
       <use transform="translate(186.855469 39.046875)scale(0.7)" xlink:href="#DejaVuSans-51"/>
      </g>
     </g>
    </g>
    <g id="ytick_2">
     <g id="line2d_7">
      <g>
       <use style="stroke:#000000;stroke-width:0.8;" x="37.7" xlink:href="#m1db5c97e43" y="210.627838"/>
      </g>
     </g>
     <g id="text_8">
      <!-- $\mathdefault{10^{-2}}$ -->
      <g transform="translate(7.2 214.427057)scale(0.1 -0.1)">
       <use transform="translate(0 0.765625)" xlink:href="#DejaVuSans-49"/>
       <use transform="translate(63.623047 0.765625)" xlink:href="#DejaVuSans-48"/>
       <use transform="translate(128.203125 39.046875)scale(0.7)" xlink:href="#DejaVuSans-8722"/>
       <use transform="translate(186.855469 39.046875)scale(0.7)" xlink:href="#DejaVuSans-50"/>
      </g>
     </g>
    </g>
    <g id="ytick_3">
     <g id="line2d_8">
      <g>
       <use style="stroke:#000000;stroke-width:0.8;" x="37.7" xlink:href="#m1db5c97e43" y="166.145913"/>
      </g>
     </g>
     <g id="text_9">
      <!-- $\mathdefault{10^{-1}}$ -->
      <g transform="translate(7.2 169.945131)scale(0.1 -0.1)">
       <use transform="translate(0 0.684375)" xlink:href="#DejaVuSans-49"/>
       <use transform="translate(63.623047 0.684375)" xlink:href="#DejaVuSans-48"/>
       <use transform="translate(128.203125 38.965625)scale(0.7)" xlink:href="#DejaVuSans-8722"/>
       <use transform="translate(186.855469 38.965625)scale(0.7)" xlink:href="#DejaVuSans-49"/>
      </g>
     </g>
    </g>
    <g id="ytick_4">
     <g id="line2d_9">
      <g>
       <use style="stroke:#000000;stroke-width:0.8;" x="37.7" xlink:href="#m1db5c97e43" y="121.663987"/>
      </g>
     </g>
     <g id="text_10">
      <!-- $\mathdefault{10^{0}}$ -->
      <g transform="translate(13.1 125.463206)scale(0.1 -0.1)">
       <use transform="translate(0 0.765625)" xlink:href="#DejaVuSans-49"/>
       <use transform="translate(63.623047 0.765625)" xlink:href="#DejaVuSans-48"/>
       <use transform="translate(128.203125 39.046875)scale(0.7)" xlink:href="#DejaVuSans-48"/>
      </g>
     </g>
    </g>
    <g id="ytick_5">
     <g id="line2d_10">
      <g>
       <use style="stroke:#000000;stroke-width:0.8;" x="37.7" xlink:href="#m1db5c97e43" y="77.182062"/>
      </g>
     </g>
     <g id="text_11">
      <!-- $\mathdefault{10^{1}}$ -->
      <g transform="translate(13.1 80.981281)scale(0.1 -0.1)">
       <use transform="translate(0 0.684375)" xlink:href="#DejaVuSans-49"/>
       <use transform="translate(63.623047 0.684375)" xlink:href="#DejaVuSans-48"/>
       <use transform="translate(128.203125 38.965625)scale(0.7)" xlink:href="#DejaVuSans-49"/>
      </g>
     </g>
    </g>
    <g id="ytick_6">
     <g id="line2d_11">
      <g>
       <use style="stroke:#000000;stroke-width:0.8;" x="37.7" xlink:href="#m1db5c97e43" y="32.700137"/>
      </g>
     </g>
     <g id="text_12">
      <!-- $\mathdefault{10^{2}}$ -->
      <g transform="translate(13.1 36.499356)scale(0.1 -0.1)">
       <use transform="translate(0 0.765625)" xlink:href="#DejaVuSans-49"/>
       <use transform="translate(63.623047 0.765625)" xlink:href="#DejaVuSans-48"/>
       <use transform="translate(128.203125 39.046875)scale(0.7)" xlink:href="#DejaVuSans-50"/>
      </g>
     </g>
    </g>
    <g id="ytick_7">
     <g id="line2d_12">
      <defs>
       <path d="M 0 0 
L -2 0 
" id="m6eec1f15f7" style="stroke:#000000;stroke-width:0.6;"/>
      </defs>
      <g>
       <use style="stroke:#000000;stroke-width:0.6;" x="37.7" xlink:href="#m6eec1f15f7" y="272.810901"/>
      </g>
     </g>
    </g>
    <g id="ytick_8">
     <g id="line2d_13">
      <g>
       <use style="stroke:#000000;stroke-width:0.6;" x="37.7" xlink:href="#m6eec1f15f7" y="268.500157"/>
      </g>
     </g>
    </g>
    <g id="ytick_9">
     <g id="line2d_14">
      <g>
       <use style="stroke:#000000;stroke-width:0.6;" x="37.7" xlink:href="#m6eec1f15f7" y="264.978023"/>
      </g>
     </g>
    </g>
    <g id="ytick_10">
     <g id="line2d_15">
      <g>
       <use style="stroke:#000000;stroke-width:0.6;" x="37.7" xlink:href="#m6eec1f15f7" y="262.0001"/>
      </g>
     </g>
    </g>
    <g id="ytick_11">
     <g id="line2d_16">
      <g>
       <use style="stroke:#000000;stroke-width:0.6;" x="37.7" xlink:href="#m6eec1f15f7" y="259.420507"/>
      </g>
     </g>
    </g>
    <g id="ytick_12">
     <g id="line2d_17">
      <g>
       <use style="stroke:#000000;stroke-width:0.6;" x="37.7" xlink:href="#m6eec1f15f7" y="257.145144"/>
      </g>
     </g>
    </g>
    <g id="ytick_13">
     <g id="line2d_18">
      <g>
       <use style="stroke:#000000;stroke-width:0.6;" x="37.7" xlink:href="#m6eec1f15f7" y="241.719369"/>
      </g>
     </g>
    </g>
    <g id="ytick_14">
     <g id="line2d_19">
      <g>
       <use style="stroke:#000000;stroke-width:0.6;" x="37.7" xlink:href="#m6eec1f15f7" y="233.886491"/>
      </g>
     </g>
    </g>
    <g id="ytick_15">
     <g id="line2d_20">
      <g>
       <use style="stroke:#000000;stroke-width:0.6;" x="37.7" xlink:href="#m6eec1f15f7" y="228.328976"/>
      </g>
     </g>
    </g>
    <g id="ytick_16">
     <g id="line2d_21">
      <g>
       <use style="stroke:#000000;stroke-width:0.6;" x="37.7" xlink:href="#m6eec1f15f7" y="224.018232"/>
      </g>
     </g>
    </g>
    <g id="ytick_17">
     <g id="line2d_22">
      <g>
       <use style="stroke:#000000;stroke-width:0.6;" x="37.7" xlink:href="#m6eec1f15f7" y="220.496097"/>
      </g>
     </g>
    </g>
    <g id="ytick_18">
     <g id="line2d_23">
      <g>
       <use style="stroke:#000000;stroke-width:0.6;" x="37.7" xlink:href="#m6eec1f15f7" y="217.518175"/>
      </g>
     </g>
    </g>
    <g id="ytick_19">
     <g id="line2d_24">
      <g>
       <use style="stroke:#000000;stroke-width:0.6;" x="37.7" xlink:href="#m6eec1f15f7" y="214.938582"/>
      </g>
     </g>
    </g>
    <g id="ytick_20">
     <g id="line2d_25">
      <g>
       <use style="stroke:#000000;stroke-width:0.6;" x="37.7" xlink:href="#m6eec1f15f7" y="212.663219"/>
      </g>
     </g>
    </g>
    <g id="ytick_21">
     <g id="line2d_26">
      <g>
       <use style="stroke:#000000;stroke-width:0.6;" x="37.7" xlink:href="#m6eec1f15f7" y="197.237444"/>
      </g>
     </g>
    </g>
    <g id="ytick_22">
     <g id="line2d_27">
      <g>
       <use style="stroke:#000000;stroke-width:0.6;" x="37.7" xlink:href="#m6eec1f15f7" y="189.404566"/>
      </g>
     </g>
    </g>
    <g id="ytick_23">
     <g id="line2d_28">
      <g>
       <use style="stroke:#000000;stroke-width:0.6;" x="37.7" xlink:href="#m6eec1f15f7" y="183.84705"/>
      </g>
     </g>
    </g>
    <g id="ytick_24">
     <g id="line2d_29">
      <g>
       <use style="stroke:#000000;stroke-width:0.6;" x="37.7" xlink:href="#m6eec1f15f7" y="179.536306"/>
      </g>
     </g>
    </g>
    <g id="ytick_25">
     <g id="line2d_30">
      <g>
       <use style="stroke:#000000;stroke-width:0.6;" x="37.7" xlink:href="#m6eec1f15f7" y="176.014172"/>
      </g>
     </g>
    </g>
    <g id="ytick_26">
     <g id="line2d_31">
      <g>
       <use style="stroke:#000000;stroke-width:0.6;" x="37.7" xlink:href="#m6eec1f15f7" y="173.03625"/>
      </g>
     </g>
    </g>
    <g id="ytick_27">
     <g id="line2d_32">
      <g>
       <use style="stroke:#000000;stroke-width:0.6;" x="37.7" xlink:href="#m6eec1f15f7" y="170.456657"/>
      </g>
     </g>
    </g>
    <g id="ytick_28">
     <g id="line2d_33">
      <g>
       <use style="stroke:#000000;stroke-width:0.6;" x="37.7" xlink:href="#m6eec1f15f7" y="168.181294"/>
      </g>
     </g>
    </g>
    <g id="ytick_29">
     <g id="line2d_34">
      <g>
       <use style="stroke:#000000;stroke-width:0.6;" x="37.7" xlink:href="#m6eec1f15f7" y="152.755519"/>
      </g>
     </g>
    </g>
    <g id="ytick_30">
     <g id="line2d_35">
      <g>
       <use style="stroke:#000000;stroke-width:0.6;" x="37.7" xlink:href="#m6eec1f15f7" y="144.922641"/>
      </g>
     </g>
    </g>
    <g id="ytick_31">
     <g id="line2d_36">
      <g>
       <use style="stroke:#000000;stroke-width:0.6;" x="37.7" xlink:href="#m6eec1f15f7" y="139.365125"/>
      </g>
     </g>
    </g>
    <g id="ytick_32">
     <g id="line2d_37">
      <g>
       <use style="stroke:#000000;stroke-width:0.6;" x="37.7" xlink:href="#m6eec1f15f7" y="135.054381"/>
      </g>
     </g>
    </g>
    <g id="ytick_33">
     <g id="line2d_38">
      <g>
       <use style="stroke:#000000;stroke-width:0.6;" x="37.7" xlink:href="#m6eec1f15f7" y="131.532247"/>
      </g>
     </g>
    </g>
    <g id="ytick_34">
     <g id="line2d_39">
      <g>
       <use style="stroke:#000000;stroke-width:0.6;" x="37.7" xlink:href="#m6eec1f15f7" y="128.554325"/>
      </g>
     </g>
    </g>
    <g id="ytick_35">
     <g id="line2d_40">
      <g>
       <use style="stroke:#000000;stroke-width:0.6;" x="37.7" xlink:href="#m6eec1f15f7" y="125.974731"/>
      </g>
     </g>
    </g>
    <g id="ytick_36">
     <g id="line2d_41">
      <g>
       <use style="stroke:#000000;stroke-width:0.6;" x="37.7" xlink:href="#m6eec1f15f7" y="123.699369"/>
      </g>
     </g>
    </g>
    <g id="ytick_37">
     <g id="line2d_42">
      <g>
       <use style="stroke:#000000;stroke-width:0.6;" x="37.7" xlink:href="#m6eec1f15f7" y="108.273594"/>
      </g>
     </g>
    </g>
    <g id="ytick_38">
     <g id="line2d_43">
      <g>
       <use style="stroke:#000000;stroke-width:0.6;" x="37.7" xlink:href="#m6eec1f15f7" y="100.440715"/>
      </g>
     </g>
    </g>
    <g id="ytick_39">
     <g id="line2d_44">
      <g>
       <use style="stroke:#000000;stroke-width:0.6;" x="37.7" xlink:href="#m6eec1f15f7" y="94.8832"/>
      </g>
     </g>
    </g>
    <g id="ytick_40">
     <g id="line2d_45">
      <g>
       <use style="stroke:#000000;stroke-width:0.6;" x="37.7" xlink:href="#m6eec1f15f7" y="90.572456"/>
      </g>
     </g>
    </g>
    <g id="ytick_41">
     <g id="line2d_46">
      <g>
       <use style="stroke:#000000;stroke-width:0.6;" x="37.7" xlink:href="#m6eec1f15f7" y="87.050322"/>
      </g>
     </g>
    </g>
    <g id="ytick_42">
     <g id="line2d_47">
      <g>
       <use style="stroke:#000000;stroke-width:0.6;" x="37.7" xlink:href="#m6eec1f15f7" y="84.0724"/>
      </g>
     </g>
    </g>
    <g id="ytick_43">
     <g id="line2d_48">
      <g>
       <use style="stroke:#000000;stroke-width:0.6;" x="37.7" xlink:href="#m6eec1f15f7" y="81.492806"/>
      </g>
     </g>
    </g>
    <g id="ytick_44">
     <g id="line2d_49">
      <g>
       <use style="stroke:#000000;stroke-width:0.6;" x="37.7" xlink:href="#m6eec1f15f7" y="79.217443"/>
      </g>
     </g>
    </g>
    <g id="ytick_45">
     <g id="line2d_50">
      <g>
       <use style="stroke:#000000;stroke-width:0.6;" x="37.7" xlink:href="#m6eec1f15f7" y="63.791668"/>
      </g>
     </g>
    </g>
    <g id="ytick_46">
     <g id="line2d_51">
      <g>
       <use style="stroke:#000000;stroke-width:0.6;" x="37.7" xlink:href="#m6eec1f15f7" y="55.95879"/>
      </g>
     </g>
    </g>
    <g id="ytick_47">
     <g id="line2d_52">
      <g>
       <use style="stroke:#000000;stroke-width:0.6;" x="37.7" xlink:href="#m6eec1f15f7" y="50.401275"/>
      </g>
     </g>
    </g>
    <g id="ytick_48">
     <g id="line2d_53">
      <g>
       <use style="stroke:#000000;stroke-width:0.6;" x="37.7" xlink:href="#m6eec1f15f7" y="46.090531"/>
      </g>
     </g>
    </g>
    <g id="ytick_49">
     <g id="line2d_54">
      <g>
       <use style="stroke:#000000;stroke-width:0.6;" x="37.7" xlink:href="#m6eec1f15f7" y="42.568396"/>
      </g>
     </g>
    </g>
    <g id="ytick_50">
     <g id="line2d_55">
      <g>
       <use style="stroke:#000000;stroke-width:0.6;" x="37.7" xlink:href="#m6eec1f15f7" y="39.590474"/>
      </g>
     </g>
    </g>
    <g id="ytick_51">
     <g id="line2d_56">
      <g>
       <use style="stroke:#000000;stroke-width:0.6;" x="37.7" xlink:href="#m6eec1f15f7" y="37.010881"/>
      </g>
     </g>
    </g>
    <g id="ytick_52">
     <g id="line2d_57">
      <g>
       <use style="stroke:#000000;stroke-width:0.6;" x="37.7" xlink:href="#m6eec1f15f7" y="34.735518"/>
      </g>
     </g>
    </g>
    <g id="ytick_53">
     <g id="line2d_58">
      <g>
       <use style="stroke:#000000;stroke-width:0.6;" x="37.7" xlink:href="#m6eec1f15f7" y="19.309743"/>
      </g>
     </g>
    </g>
    <g id="ytick_54">
     <g id="line2d_59">
      <g>
       <use style="stroke:#000000;stroke-width:0.6;" x="37.7" xlink:href="#m6eec1f15f7" y="11.476865"/>
      </g>
     </g>
    </g>
   </g>
   <g id="line2d_60">
    <path clip-path="url(#p557039fa00)" d="M 53.932727 19.296 
L 54.718816 24.066455 
L 55.504904 65.527814 
L 56.290993 25.664363 
L 57.077081 77.391639 
L 57.86317 33.169116 
L 58.649258 26.002909 
L 59.435347 44.756381 
L 60.221435 23.640257 
L 61.007524 61.531372 
L 61.793612 28.536543 
L 62.579701 27.8329 
L 63.365789 49.679046 
L 64.151878 41.370806 
L 64.937966 21.382586 
L 65.724055 23.802261 
L 66.510143 61.379003 
L 67.296232 25.517512 
L 68.08232 82.260448 
L 68.868409 31.737065 
L 69.654497 26.343372 
L 70.440586 45.073538 
L 71.226674 23.261541 
L 72.012762 55.849471 
L 72.798851 25.159728 
L 73.584939 188.536483 
L 74.371028 27.936878 
L 75.157116 35.205561 
L 75.943205 24.434649 
L 76.729293 72.159485 
L 77.515382 25.926175 
L 78.30147 69.39629 
L 79.087559 42.80961 
L 79.873647 23.720231 
L 80.659736 66.007388 
L 81.445824 21.790777 
L 82.231913 23.528097 
L 83.018001 58.776048 
L 83.80409 25.339131 
L 84.590178 105.285961 
L 85.376267 28.233352 
L 86.162355 35.418205 
L 86.948444 24.180379 
L 87.734532 71.373015 
L 88.520621 26.006868 
L 89.306709 68.754199 
L 90.092798 43.546166 
L 90.878886 23.851989 
L 91.664975 73.048745 
L 92.451063 21.967961 
L 93.237152 48.007554 
L 94.02324 24.671268 
L 94.809329 77.966919 
L 95.595417 26.362415 
L 96.381506 56.74382 
L 97.167594 59.44815 
L 97.953683 21.338467 
L 98.739771 23.607226 
L 99.52586 59.829583 
L 100.311948 25.394037 
L 101.098037 98.300207 
L 101.884125 28.514457 
L 102.670214 34.142701 
L 103.456302 24.512429 
L 104.24239 77.355767 
L 105.028479 26.219595 
L 105.814567 63.225396 
L 106.600656 66.315675 
L 107.386744 22.523354 
L 108.172833 50.338147 
L 108.958921 25.322775 
L 109.74501 66.69456 
L 110.531098 22.556887 
L 111.317187 50.42248 
L 112.103275 24.832996 
L 112.889364 86.498053 
L 113.675452 26.873051 
L 114.461541 46.194033 
L 115.247629 22.845311 
L 116.033718 23.356 
L 116.819806 57.413739 
L 117.605895 25.275853 
L 118.391983 122.488385 
L 119.178072 27.855639 
L 119.96416 38.109896 
L 120.750249 23.620885 
L 121.536337 23.214683 
L 122.322426 56.181873 
L 123.108514 25.206178 
L 123.894603 142.060581 
L 124.680691 27.580307 
L 125.46678 40.212661 
L 126.252868 23.375344 
L 127.038957 59.614132 
L 127.825045 25.400398 
L 128.611134 101.068437 
L 129.397222 28.219678 
L 130.183311 36.546853 
L 130.969399 23.877224 
L 131.755488 65.342411 
L 132.541576 25.67826 
L 133.327665 80.491758 
L 134.113753 30.906999 
L 135.68593 27.073545 
L 136.472018 54.979205 
L 137.258107 49.241147 
L 138.044195 21.612107 
L 138.830284 40.043551 
L 139.616372 23.989587 
L 140.402461 64.084209 
L 141.188549 25.743126 
L 141.974638 69.901634 
L 142.760726 51.055196 
L 143.546815 22.272699 
L 144.332903 23.448314 
L 145.118992 58.341596 
L 145.90508 25.324047 
L 146.691169 109.431825 
L 147.477257 28.075454 
L 148.263346 36.639516 
L 149.049434 23.884904 
L 149.835523 74.295209 
L 150.621611 26.52306 
L 151.4077 58.088189 
L 152.193788 69.674664 
L 152.979877 21.889908 
L 153.765965 46.712822 
L 154.552054 24.54333 
L 155.338142 75.51096 
L 156.124231 26.427212 
L 156.910319 52.308157 
L 157.696408 22.53906 
L 158.482496 23.412057 
L 159.268585 57.938169 
L 160.054673 25.304248 
L 160.840762 113.786108 
L 161.62685 27.984409 
L 162.412939 37.20473 
L 163.199027 23.778102 
L 163.985116 23.188813 
L 164.771204 55.886072 
L 165.557293 25.187347 
L 166.343381 129.559556 
L 167.12947 27.526325 
L 167.915558 40.571144 
L 168.701646 23.343204 
L 169.487735 59.064385 
L 170.273823 25.361895 
L 171.059912 106.392463 
L 171.846 28.036524 
L 172.632089 37.575371 
L 173.418177 23.712248 
L 174.204266 62.551095 
L 174.990354 25.515924 
L 175.776443 89.765295 
L 176.562531 29.020802 
L 177.34862 32.988153 
L 178.134708 24.786625 
L 178.920797 90.187061 
L 179.706885 26.775555 
L 180.492974 53.45713 
L 181.279062 46.451437 
L 182.065151 21.369812 
L 182.851239 36.145004 
L 183.637328 23.824972 
L 184.423416 61.760641 
L 185.209505 25.528954 
L 185.995593 82.376387 
L 186.781682 31.426893 
L 187.56777 26.744183 
L 188.353859 38.516284 
L 189.139947 24.348446 
L 189.926036 77.312548 
L 190.712124 31.444464 
L 191.498213 25.325633 
L 192.284301 99.170344 
L 193.07039 26.704318 
L 193.856478 52.494464 
L 194.642567 44.644577 
L 195.428655 21.163768 
L 196.214744 23.606071 
L 197.000832 59.792829 
L 197.786921 25.387182 
L 198.573009 99.076083 
L 199.359098 28.470708 
L 200.145186 34.336541 
L 200.931274 24.455629 
L 201.717363 76.170477 
L 202.503451 26.178894 
L 203.28954 64.193308 
L 204.075628 60.015065 
L 204.861717 22.700419 
L 205.647805 51.79679 
L 206.433894 27.429993 
L 207.219982 30.254895 
L 208.006071 36.881287 
L 208.792159 21.297823 
L 209.578248 23.634065 
L 210.364336 59.545958 
L 211.150425 25.374505 
L 211.936513 98.610585 
L 212.722602 28.594585 
L 213.50869 33.21991 
L 214.294779 24.890311 
L 215.080867 87.562369 
L 215.866956 26.510476 
L 216.653044 56.909699 
L 217.439133 62.122028 
L 218.225221 21.682758 
L 219.01131 46.301729 
L 219.797398 24.491491 
L 220.583487 73.154145 
L 221.369575 26.166564 
L 222.155664 60.064712 
L 222.941752 77.458927 
L 223.727841 21.489155 
L 224.513929 23.583385 
L 225.300018 59.593906 
L 226.086106 25.38362 
L 226.872195 99.642001 
L 227.658283 28.440513 
L 228.444372 34.512729 
L 229.23046 24.401961 
L 230.016549 75.304504 
L 230.802637 26.156055 
L 231.588726 64.790055 
L 232.374814 56.891772 
L 233.160902 22.822965 
L 233.946991 52.95284 
L 234.733079 29.065578 
L 235.519168 21.749007 
L 236.305256 23.612229 
L 237.091345 59.706883 
L 237.877433 25.394712 
L 238.663522 98.42054 
L 239.44961 28.519916 
L 240.235699 34.080717 
L 241.021787 24.536364 
L 241.807876 77.715497 
L 242.593964 26.225811 
L 243.380053 63.047132 
L 244.166141 67.753402 
L 244.95223 22.489455 
L 245.738318 50.082124 
L 246.524407 25.171163 
L 247.310495 77.806278 
L 248.096584 22.272536 
L 248.882672 49.59989 
L 249.668761 24.781478 
L 250.454849 81.956229 
L 251.240938 26.533509 
L 252.027026 53.678306 
L 252.813115 51.153418 
L 253.599203 24.344776 
L 254.385292 81.221337 
L 255.17138 22.027777 
L 255.957469 48.28831 
L 256.743557 24.690734 
L 257.529646 78.499771 
L 258.315734 26.381569 
L 259.101823 56.488399 
L 259.887911 58.60518 
L 260.674 21.331565 
L 261.460088 23.607077 
L 262.246177 59.830404 
L 263.032265 25.393936 
L 263.818354 98.318228 
L 264.604442 28.513046 
L 265.39053 34.151173 
L 266.176619 24.509655 
L 266.962707 77.303206 
L 267.748796 26.218075 
L 268.534884 63.262774 
L 269.320973 66.032341 
L 270.107061 22.529998 
L 270.89315 50.389024 
L 271.679238 25.358529 
L 272.465327 64.689285 
L 273.251415 22.631562 
L 274.037504 50.847339 
L 274.823592 24.876369 
L 275.609681 90.378548 
L 276.395769 27.123596 
L 277.181858 41.783073 
L 277.967946 23.30714 
L 278.754035 58.104887 
L 279.540123 25.289925 
L 280.326212 122.607372 
L 281.1123 27.761928 
L 281.898389 39.273203 
L 282.684477 23.484019 
L 283.470566 59.612097 
L 284.256654 25.353803 
L 285.042743 107.090469 
L 285.828831 28.028987 
L 286.61492 37.503493 
L 287.401008 23.72082 
L 288.187097 63.234935 
L 288.973185 25.57258 
L 289.759274 86.177425 
L 290.545362 29.506049 
L 291.331451 31.661169 
L 292.117539 25.318709 
L 292.903628 113.970806 
L 293.689716 27.843167 
L 294.475805 40.337564 
L 295.261893 21.10215 
L 296.047982 23.646297 
L 296.83407 60.199305 
L 297.620158 25.409736 
L 298.406247 96.541186 
L 299.192335 28.623097 
L 299.978424 33.636838 
L 300.764512 24.675622 
L 301.550601 81.28875 
L 302.336689 26.34779 
L 303.122778 60.391047 
L 303.908866 118.394791 
L 304.694955 22.096318 
L 305.481043 47.659624 
L 306.267132 24.650018 
L 307.05322 80.234514 
L 307.839309 26.88108 
L 308.625397 42.458927 
L 309.411486 23.383182 
L 310.197574 57.193865 
L 310.983663 25.204829 
L 311.769751 175.289801 
L 312.55584 27.717281 
L 313.341928 38.523363 
L 314.128017 23.593036 
L 314.914105 23.235937 
L 315.700194 56.091169 
L 316.486282 25.196104 
L 317.272371 139.008424 
L 318.058459 27.59534 
L 318.844548 39.963206 
L 319.630636 23.365694 
L 320.416725 23.261557 
L 321.202813 56.596561 
L 321.988902 25.230347 
L 322.77499 167.266847 
L 323.561079 27.667384 
L 324.347167 39.603668 
L 325.133256 23.404481 
L 325.919344 23.256922 
L 326.705433 56.475837 
L 327.491521 25.22173 
L 328.27761 184.265047 
L 329.063698 27.646582 
L 329.849786 39.720703 
L 330.635875 23.390216 
L 331.421963 23.258453 
L 332.208052 56.523117 
L 332.99414 25.225122 
L 333.780229 206.729973 
L 334.566317 27.654169 
L 335.352406 39.681993 
L 336.138494 23.394886 
L 336.924583 23.258078 
L 337.710671 56.505452 
L 338.49676 25.223829 
L 339.282848 218.047045 
L 340.068937 27.651563 
L 340.855025 39.693347 
L 341.641114 23.393454 
L 342.427202 23.258038 
L 343.213291 56.512621 
L 343.999379 25.224398 
L 344.785468 255.744183 
L 345.571556 27.652466 
L 346.357645 39.691433 
L 347.143733 23.393658 
L 347.929822 23.258115 
L 348.71591 56.509049 
L 349.501999 25.224216 
L 350.288087 258.543017 
L 351.074176 27.652526 
L 351.860264 39.687597 
L 352.646353 23.394155 
L 353.432441 23.257916 
L 354.21853 56.510442 
L 355.004618 25.224264 
L 355.790707 261.216 
L 356.576795 27.65223 
L 357.362884 39.692641 
L 358.148972 23.393508 
L 358.935061 23.258188 
L 359.721149 56.509831 
L 360.507238 25.224164 
L 361.293326 243.669564 
L 362.079414 27.652205 
L 362.865503 39.690838 
L 363.651591 23.393742 
L 364.43768 23.258076 
L 365.223768 56.510719 
L 366.009857 25.22426 
L 366.795945 258.807585 
L 367.582034 27.652263 
L 368.368122 39.691477 
L 369.154211 23.393648 
L 369.940299 23.258089 
L 370.726388 56.509792 
L 371.512476 25.224161 
L 372.298565 235.368773 
L 373.084653 27.65196 
L 373.870742 39.693331 
L 374.65683 23.393417 
L 375.442919 23.258137 
L 376.229007 56.510553 
L 377.015096 25.224329 
L 377.02015 311.86825 
L 377.02015 311.86825 
" style="fill:none;stroke:#1f77b4;stroke-linecap:square;stroke-width:1.5;"/>
    <defs>
     <path d="M 0 3 
C 0.795609 3 1.55874 2.683901 2.12132 2.12132 
C 2.683901 1.55874 3 0.795609 3 0 
C 3 -0.795609 2.683901 -1.55874 2.12132 -2.12132 
C 1.55874 -2.683901 0.795609 -3 0 -3 
C -0.795609 -3 -1.55874 -2.683901 -2.12132 -2.12132 
C -2.683901 -1.55874 -3 -0.795609 -3 0 
C -3 0.795609 -2.683901 1.55874 -2.12132 2.12132 
C -1.55874 2.683901 -0.795609 3 0 3 
z
" id="mb72aa91839" style="stroke:#1f77b4;"/>
    </defs>
    <g clip-path="url(#p557039fa00)">
     <use style="fill:#1f77b4;stroke:#1f77b4;" x="53.932727" xlink:href="#mb72aa91839" y="19.296"/>
     <use style="fill:#1f77b4;stroke:#1f77b4;" x="54.718816" xlink:href="#mb72aa91839" y="24.066455"/>
     <use style="fill:#1f77b4;stroke:#1f77b4;" x="55.504904" xlink:href="#mb72aa91839" y="65.527814"/>
     <use style="fill:#1f77b4;stroke:#1f77b4;" x="56.290993" xlink:href="#mb72aa91839" y="25.664363"/>
     <use style="fill:#1f77b4;stroke:#1f77b4;" x="57.077081" xlink:href="#mb72aa91839" y="77.391639"/>
     <use style="fill:#1f77b4;stroke:#1f77b4;" x="57.86317" xlink:href="#mb72aa91839" y="33.169116"/>
     <use style="fill:#1f77b4;stroke:#1f77b4;" x="58.649258" xlink:href="#mb72aa91839" y="26.002909"/>
     <use style="fill:#1f77b4;stroke:#1f77b4;" x="59.435347" xlink:href="#mb72aa91839" y="44.756381"/>
     <use style="fill:#1f77b4;stroke:#1f77b4;" x="60.221435" xlink:href="#mb72aa91839" y="23.640257"/>
     <use style="fill:#1f77b4;stroke:#1f77b4;" x="61.007524" xlink:href="#mb72aa91839" y="61.531372"/>
     <use style="fill:#1f77b4;stroke:#1f77b4;" x="61.793612" xlink:href="#mb72aa91839" y="28.536543"/>
     <use style="fill:#1f77b4;stroke:#1f77b4;" x="62.579701" xlink:href="#mb72aa91839" y="27.8329"/>
     <use style="fill:#1f77b4;stroke:#1f77b4;" x="63.365789" xlink:href="#mb72aa91839" y="49.679046"/>
     <use style="fill:#1f77b4;stroke:#1f77b4;" x="64.151878" xlink:href="#mb72aa91839" y="41.370806"/>
     <use style="fill:#1f77b4;stroke:#1f77b4;" x="64.937966" xlink:href="#mb72aa91839" y="21.382586"/>
     <use style="fill:#1f77b4;stroke:#1f77b4;" x="65.724055" xlink:href="#mb72aa91839" y="23.802261"/>
     <use style="fill:#1f77b4;stroke:#1f77b4;" x="66.510143" xlink:href="#mb72aa91839" y="61.379003"/>
     <use style="fill:#1f77b4;stroke:#1f77b4;" x="67.296232" xlink:href="#mb72aa91839" y="25.517512"/>
     <use style="fill:#1f77b4;stroke:#1f77b4;" x="68.08232" xlink:href="#mb72aa91839" y="82.260448"/>
     <use style="fill:#1f77b4;stroke:#1f77b4;" x="68.868409" xlink:href="#mb72aa91839" y="31.737065"/>
     <use style="fill:#1f77b4;stroke:#1f77b4;" x="69.654497" xlink:href="#mb72aa91839" y="26.343372"/>
     <use style="fill:#1f77b4;stroke:#1f77b4;" x="70.440586" xlink:href="#mb72aa91839" y="45.073538"/>
     <use style="fill:#1f77b4;stroke:#1f77b4;" x="71.226674" xlink:href="#mb72aa91839" y="23.261541"/>
     <use style="fill:#1f77b4;stroke:#1f77b4;" x="72.012762" xlink:href="#mb72aa91839" y="55.849471"/>
     <use style="fill:#1f77b4;stroke:#1f77b4;" x="72.798851" xlink:href="#mb72aa91839" y="25.159728"/>
     <use style="fill:#1f77b4;stroke:#1f77b4;" x="73.584939" xlink:href="#mb72aa91839" y="188.536483"/>
     <use style="fill:#1f77b4;stroke:#1f77b4;" x="74.371028" xlink:href="#mb72aa91839" y="27.936878"/>
     <use style="fill:#1f77b4;stroke:#1f77b4;" x="75.157116" xlink:href="#mb72aa91839" y="35.205561"/>
     <use style="fill:#1f77b4;stroke:#1f77b4;" x="75.943205" xlink:href="#mb72aa91839" y="24.434649"/>
     <use style="fill:#1f77b4;stroke:#1f77b4;" x="76.729293" xlink:href="#mb72aa91839" y="72.159485"/>
     <use style="fill:#1f77b4;stroke:#1f77b4;" x="77.515382" xlink:href="#mb72aa91839" y="25.926175"/>
     <use style="fill:#1f77b4;stroke:#1f77b4;" x="78.30147" xlink:href="#mb72aa91839" y="69.39629"/>
     <use style="fill:#1f77b4;stroke:#1f77b4;" x="79.087559" xlink:href="#mb72aa91839" y="42.80961"/>
     <use style="fill:#1f77b4;stroke:#1f77b4;" x="79.873647" xlink:href="#mb72aa91839" y="23.720231"/>
     <use style="fill:#1f77b4;stroke:#1f77b4;" x="80.659736" xlink:href="#mb72aa91839" y="66.007388"/>
     <use style="fill:#1f77b4;stroke:#1f77b4;" x="81.445824" xlink:href="#mb72aa91839" y="21.790777"/>
     <use style="fill:#1f77b4;stroke:#1f77b4;" x="82.231913" xlink:href="#mb72aa91839" y="23.528097"/>
     <use style="fill:#1f77b4;stroke:#1f77b4;" x="83.018001" xlink:href="#mb72aa91839" y="58.776048"/>
     <use style="fill:#1f77b4;stroke:#1f77b4;" x="83.80409" xlink:href="#mb72aa91839" y="25.339131"/>
     <use style="fill:#1f77b4;stroke:#1f77b4;" x="84.590178" xlink:href="#mb72aa91839" y="105.285961"/>
     <use style="fill:#1f77b4;stroke:#1f77b4;" x="85.376267" xlink:href="#mb72aa91839" y="28.233352"/>
     <use style="fill:#1f77b4;stroke:#1f77b4;" x="86.162355" xlink:href="#mb72aa91839" y="35.418205"/>
     <use style="fill:#1f77b4;stroke:#1f77b4;" x="86.948444" xlink:href="#mb72aa91839" y="24.180379"/>
     <use style="fill:#1f77b4;stroke:#1f77b4;" x="87.734532" xlink:href="#mb72aa91839" y="71.373015"/>
     <use style="fill:#1f77b4;stroke:#1f77b4;" x="88.520621" xlink:href="#mb72aa91839" y="26.006868"/>
     <use style="fill:#1f77b4;stroke:#1f77b4;" x="89.306709" xlink:href="#mb72aa91839" y="68.754199"/>
     <use style="fill:#1f77b4;stroke:#1f77b4;" x="90.092798" xlink:href="#mb72aa91839" y="43.546166"/>
     <use style="fill:#1f77b4;stroke:#1f77b4;" x="90.878886" xlink:href="#mb72aa91839" y="23.851989"/>
     <use style="fill:#1f77b4;stroke:#1f77b4;" x="91.664975" xlink:href="#mb72aa91839" y="73.048745"/>
     <use style="fill:#1f77b4;stroke:#1f77b4;" x="92.451063" xlink:href="#mb72aa91839" y="21.967961"/>
     <use style="fill:#1f77b4;stroke:#1f77b4;" x="93.237152" xlink:href="#mb72aa91839" y="48.007554"/>
     <use style="fill:#1f77b4;stroke:#1f77b4;" x="94.02324" xlink:href="#mb72aa91839" y="24.671268"/>
     <use style="fill:#1f77b4;stroke:#1f77b4;" x="94.809329" xlink:href="#mb72aa91839" y="77.966919"/>
     <use style="fill:#1f77b4;stroke:#1f77b4;" x="95.595417" xlink:href="#mb72aa91839" y="26.362415"/>
     <use style="fill:#1f77b4;stroke:#1f77b4;" x="96.381506" xlink:href="#mb72aa91839" y="56.74382"/>
     <use style="fill:#1f77b4;stroke:#1f77b4;" x="97.167594" xlink:href="#mb72aa91839" y="59.44815"/>
     <use style="fill:#1f77b4;stroke:#1f77b4;" x="97.953683" xlink:href="#mb72aa91839" y="21.338467"/>
     <use style="fill:#1f77b4;stroke:#1f77b4;" x="98.739771" xlink:href="#mb72aa91839" y="23.607226"/>
     <use style="fill:#1f77b4;stroke:#1f77b4;" x="99.52586" xlink:href="#mb72aa91839" y="59.829583"/>
     <use style="fill:#1f77b4;stroke:#1f77b4;" x="100.311948" xlink:href="#mb72aa91839" y="25.394037"/>
     <use style="fill:#1f77b4;stroke:#1f77b4;" x="101.098037" xlink:href="#mb72aa91839" y="98.300207"/>
     <use style="fill:#1f77b4;stroke:#1f77b4;" x="101.884125" xlink:href="#mb72aa91839" y="28.514457"/>
     <use style="fill:#1f77b4;stroke:#1f77b4;" x="102.670214" xlink:href="#mb72aa91839" y="34.142701"/>
     <use style="fill:#1f77b4;stroke:#1f77b4;" x="103.456302" xlink:href="#mb72aa91839" y="24.512429"/>
     <use style="fill:#1f77b4;stroke:#1f77b4;" x="104.24239" xlink:href="#mb72aa91839" y="77.355767"/>
     <use style="fill:#1f77b4;stroke:#1f77b4;" x="105.028479" xlink:href="#mb72aa91839" y="26.219595"/>
     <use style="fill:#1f77b4;stroke:#1f77b4;" x="105.814567" xlink:href="#mb72aa91839" y="63.225396"/>
     <use style="fill:#1f77b4;stroke:#1f77b4;" x="106.600656" xlink:href="#mb72aa91839" y="66.315675"/>
     <use style="fill:#1f77b4;stroke:#1f77b4;" x="107.386744" xlink:href="#mb72aa91839" y="22.523354"/>
     <use style="fill:#1f77b4;stroke:#1f77b4;" x="108.172833" xlink:href="#mb72aa91839" y="50.338147"/>
     <use style="fill:#1f77b4;stroke:#1f77b4;" x="108.958921" xlink:href="#mb72aa91839" y="25.322775"/>
     <use style="fill:#1f77b4;stroke:#1f77b4;" x="109.74501" xlink:href="#mb72aa91839" y="66.69456"/>
     <use style="fill:#1f77b4;stroke:#1f77b4;" x="110.531098" xlink:href="#mb72aa91839" y="22.556887"/>
     <use style="fill:#1f77b4;stroke:#1f77b4;" x="111.317187" xlink:href="#mb72aa91839" y="50.42248"/>
     <use style="fill:#1f77b4;stroke:#1f77b4;" x="112.103275" xlink:href="#mb72aa91839" y="24.832996"/>
     <use style="fill:#1f77b4;stroke:#1f77b4;" x="112.889364" xlink:href="#mb72aa91839" y="86.498053"/>
     <use style="fill:#1f77b4;stroke:#1f77b4;" x="113.675452" xlink:href="#mb72aa91839" y="26.873051"/>
     <use style="fill:#1f77b4;stroke:#1f77b4;" x="114.461541" xlink:href="#mb72aa91839" y="46.194033"/>
     <use style="fill:#1f77b4;stroke:#1f77b4;" x="115.247629" xlink:href="#mb72aa91839" y="22.845311"/>
     <use style="fill:#1f77b4;stroke:#1f77b4;" x="116.033718" xlink:href="#mb72aa91839" y="23.356"/>
     <use style="fill:#1f77b4;stroke:#1f77b4;" x="116.819806" xlink:href="#mb72aa91839" y="57.413739"/>
     <use style="fill:#1f77b4;stroke:#1f77b4;" x="117.605895" xlink:href="#mb72aa91839" y="25.275853"/>
     <use style="fill:#1f77b4;stroke:#1f77b4;" x="118.391983" xlink:href="#mb72aa91839" y="122.488385"/>
     <use style="fill:#1f77b4;stroke:#1f77b4;" x="119.178072" xlink:href="#mb72aa91839" y="27.855639"/>
     <use style="fill:#1f77b4;stroke:#1f77b4;" x="119.96416" xlink:href="#mb72aa91839" y="38.109896"/>
     <use style="fill:#1f77b4;stroke:#1f77b4;" x="120.750249" xlink:href="#mb72aa91839" y="23.620885"/>
     <use style="fill:#1f77b4;stroke:#1f77b4;" x="121.536337" xlink:href="#mb72aa91839" y="23.214683"/>
     <use style="fill:#1f77b4;stroke:#1f77b4;" x="122.322426" xlink:href="#mb72aa91839" y="56.181873"/>
     <use style="fill:#1f77b4;stroke:#1f77b4;" x="123.108514" xlink:href="#mb72aa91839" y="25.206178"/>
     <use style="fill:#1f77b4;stroke:#1f77b4;" x="123.894603" xlink:href="#mb72aa91839" y="142.060581"/>
     <use style="fill:#1f77b4;stroke:#1f77b4;" x="124.680691" xlink:href="#mb72aa91839" y="27.580307"/>
     <use style="fill:#1f77b4;stroke:#1f77b4;" x="125.46678" xlink:href="#mb72aa91839" y="40.212661"/>
     <use style="fill:#1f77b4;stroke:#1f77b4;" x="126.252868" xlink:href="#mb72aa91839" y="23.375344"/>
     <use style="fill:#1f77b4;stroke:#1f77b4;" x="127.038957" xlink:href="#mb72aa91839" y="59.614132"/>
     <use style="fill:#1f77b4;stroke:#1f77b4;" x="127.825045" xlink:href="#mb72aa91839" y="25.400398"/>
     <use style="fill:#1f77b4;stroke:#1f77b4;" x="128.611134" xlink:href="#mb72aa91839" y="101.068437"/>
     <use style="fill:#1f77b4;stroke:#1f77b4;" x="129.397222" xlink:href="#mb72aa91839" y="28.219678"/>
     <use style="fill:#1f77b4;stroke:#1f77b4;" x="130.183311" xlink:href="#mb72aa91839" y="36.546853"/>
     <use style="fill:#1f77b4;stroke:#1f77b4;" x="130.969399" xlink:href="#mb72aa91839" y="23.877224"/>
     <use style="fill:#1f77b4;stroke:#1f77b4;" x="131.755488" xlink:href="#mb72aa91839" y="65.342411"/>
     <use style="fill:#1f77b4;stroke:#1f77b4;" x="132.541576" xlink:href="#mb72aa91839" y="25.67826"/>
     <use style="fill:#1f77b4;stroke:#1f77b4;" x="133.327665" xlink:href="#mb72aa91839" y="80.491758"/>
     <use style="fill:#1f77b4;stroke:#1f77b4;" x="134.113753" xlink:href="#mb72aa91839" y="30.906999"/>
     <use style="fill:#1f77b4;stroke:#1f77b4;" x="134.899842" xlink:href="#mb72aa91839" y="29.121779"/>
     <use style="fill:#1f77b4;stroke:#1f77b4;" x="135.68593" xlink:href="#mb72aa91839" y="27.073545"/>
     <use style="fill:#1f77b4;stroke:#1f77b4;" x="136.472018" xlink:href="#mb72aa91839" y="54.979205"/>
     <use style="fill:#1f77b4;stroke:#1f77b4;" x="137.258107" xlink:href="#mb72aa91839" y="49.241147"/>
     <use style="fill:#1f77b4;stroke:#1f77b4;" x="138.044195" xlink:href="#mb72aa91839" y="21.612107"/>
     <use style="fill:#1f77b4;stroke:#1f77b4;" x="138.830284" xlink:href="#mb72aa91839" y="40.043551"/>
     <use style="fill:#1f77b4;stroke:#1f77b4;" x="139.616372" xlink:href="#mb72aa91839" y="23.989587"/>
     <use style="fill:#1f77b4;stroke:#1f77b4;" x="140.402461" xlink:href="#mb72aa91839" y="64.084209"/>
     <use style="fill:#1f77b4;stroke:#1f77b4;" x="141.188549" xlink:href="#mb72aa91839" y="25.743126"/>
     <use style="fill:#1f77b4;stroke:#1f77b4;" x="141.974638" xlink:href="#mb72aa91839" y="69.901634"/>
     <use style="fill:#1f77b4;stroke:#1f77b4;" x="142.760726" xlink:href="#mb72aa91839" y="51.055196"/>
     <use style="fill:#1f77b4;stroke:#1f77b4;" x="143.546815" xlink:href="#mb72aa91839" y="22.272699"/>
     <use style="fill:#1f77b4;stroke:#1f77b4;" x="144.332903" xlink:href="#mb72aa91839" y="23.448314"/>
     <use style="fill:#1f77b4;stroke:#1f77b4;" x="145.118992" xlink:href="#mb72aa91839" y="58.341596"/>
     <use style="fill:#1f77b4;stroke:#1f77b4;" x="145.90508" xlink:href="#mb72aa91839" y="25.324047"/>
     <use style="fill:#1f77b4;stroke:#1f77b4;" x="146.691169" xlink:href="#mb72aa91839" y="109.431825"/>
     <use style="fill:#1f77b4;stroke:#1f77b4;" x="147.477257" xlink:href="#mb72aa91839" y="28.075454"/>
     <use style="fill:#1f77b4;stroke:#1f77b4;" x="148.263346" xlink:href="#mb72aa91839" y="36.639516"/>
     <use style="fill:#1f77b4;stroke:#1f77b4;" x="149.049434" xlink:href="#mb72aa91839" y="23.884904"/>
     <use style="fill:#1f77b4;stroke:#1f77b4;" x="149.835523" xlink:href="#mb72aa91839" y="74.295209"/>
     <use style="fill:#1f77b4;stroke:#1f77b4;" x="150.621611" xlink:href="#mb72aa91839" y="26.52306"/>
     <use style="fill:#1f77b4;stroke:#1f77b4;" x="151.4077" xlink:href="#mb72aa91839" y="58.088189"/>
     <use style="fill:#1f77b4;stroke:#1f77b4;" x="152.193788" xlink:href="#mb72aa91839" y="69.674664"/>
     <use style="fill:#1f77b4;stroke:#1f77b4;" x="152.979877" xlink:href="#mb72aa91839" y="21.889908"/>
     <use style="fill:#1f77b4;stroke:#1f77b4;" x="153.765965" xlink:href="#mb72aa91839" y="46.712822"/>
     <use style="fill:#1f77b4;stroke:#1f77b4;" x="154.552054" xlink:href="#mb72aa91839" y="24.54333"/>
     <use style="fill:#1f77b4;stroke:#1f77b4;" x="155.338142" xlink:href="#mb72aa91839" y="75.51096"/>
     <use style="fill:#1f77b4;stroke:#1f77b4;" x="156.124231" xlink:href="#mb72aa91839" y="26.427212"/>
     <use style="fill:#1f77b4;stroke:#1f77b4;" x="156.910319" xlink:href="#mb72aa91839" y="52.308157"/>
     <use style="fill:#1f77b4;stroke:#1f77b4;" x="157.696408" xlink:href="#mb72aa91839" y="22.53906"/>
     <use style="fill:#1f77b4;stroke:#1f77b4;" x="158.482496" xlink:href="#mb72aa91839" y="23.412057"/>
     <use style="fill:#1f77b4;stroke:#1f77b4;" x="159.268585" xlink:href="#mb72aa91839" y="57.938169"/>
     <use style="fill:#1f77b4;stroke:#1f77b4;" x="160.054673" xlink:href="#mb72aa91839" y="25.304248"/>
     <use style="fill:#1f77b4;stroke:#1f77b4;" x="160.840762" xlink:href="#mb72aa91839" y="113.786108"/>
     <use style="fill:#1f77b4;stroke:#1f77b4;" x="161.62685" xlink:href="#mb72aa91839" y="27.984409"/>
     <use style="fill:#1f77b4;stroke:#1f77b4;" x="162.412939" xlink:href="#mb72aa91839" y="37.20473"/>
     <use style="fill:#1f77b4;stroke:#1f77b4;" x="163.199027" xlink:href="#mb72aa91839" y="23.778102"/>
     <use style="fill:#1f77b4;stroke:#1f77b4;" x="163.985116" xlink:href="#mb72aa91839" y="23.188813"/>
     <use style="fill:#1f77b4;stroke:#1f77b4;" x="164.771204" xlink:href="#mb72aa91839" y="55.886072"/>
     <use style="fill:#1f77b4;stroke:#1f77b4;" x="165.557293" xlink:href="#mb72aa91839" y="25.187347"/>
     <use style="fill:#1f77b4;stroke:#1f77b4;" x="166.343381" xlink:href="#mb72aa91839" y="129.559556"/>
     <use style="fill:#1f77b4;stroke:#1f77b4;" x="167.12947" xlink:href="#mb72aa91839" y="27.526325"/>
     <use style="fill:#1f77b4;stroke:#1f77b4;" x="167.915558" xlink:href="#mb72aa91839" y="40.571144"/>
     <use style="fill:#1f77b4;stroke:#1f77b4;" x="168.701646" xlink:href="#mb72aa91839" y="23.343204"/>
     <use style="fill:#1f77b4;stroke:#1f77b4;" x="169.487735" xlink:href="#mb72aa91839" y="59.064385"/>
     <use style="fill:#1f77b4;stroke:#1f77b4;" x="170.273823" xlink:href="#mb72aa91839" y="25.361895"/>
     <use style="fill:#1f77b4;stroke:#1f77b4;" x="171.059912" xlink:href="#mb72aa91839" y="106.392463"/>
     <use style="fill:#1f77b4;stroke:#1f77b4;" x="171.846" xlink:href="#mb72aa91839" y="28.036524"/>
     <use style="fill:#1f77b4;stroke:#1f77b4;" x="172.632089" xlink:href="#mb72aa91839" y="37.575371"/>
     <use style="fill:#1f77b4;stroke:#1f77b4;" x="173.418177" xlink:href="#mb72aa91839" y="23.712248"/>
     <use style="fill:#1f77b4;stroke:#1f77b4;" x="174.204266" xlink:href="#mb72aa91839" y="62.551095"/>
     <use style="fill:#1f77b4;stroke:#1f77b4;" x="174.990354" xlink:href="#mb72aa91839" y="25.515924"/>
     <use style="fill:#1f77b4;stroke:#1f77b4;" x="175.776443" xlink:href="#mb72aa91839" y="89.765295"/>
     <use style="fill:#1f77b4;stroke:#1f77b4;" x="176.562531" xlink:href="#mb72aa91839" y="29.020802"/>
     <use style="fill:#1f77b4;stroke:#1f77b4;" x="177.34862" xlink:href="#mb72aa91839" y="32.988153"/>
     <use style="fill:#1f77b4;stroke:#1f77b4;" x="178.134708" xlink:href="#mb72aa91839" y="24.786625"/>
     <use style="fill:#1f77b4;stroke:#1f77b4;" x="178.920797" xlink:href="#mb72aa91839" y="90.187061"/>
     <use style="fill:#1f77b4;stroke:#1f77b4;" x="179.706885" xlink:href="#mb72aa91839" y="26.775555"/>
     <use style="fill:#1f77b4;stroke:#1f77b4;" x="180.492974" xlink:href="#mb72aa91839" y="53.45713"/>
     <use style="fill:#1f77b4;stroke:#1f77b4;" x="181.279062" xlink:href="#mb72aa91839" y="46.451437"/>
     <use style="fill:#1f77b4;stroke:#1f77b4;" x="182.065151" xlink:href="#mb72aa91839" y="21.369812"/>
     <use style="fill:#1f77b4;stroke:#1f77b4;" x="182.851239" xlink:href="#mb72aa91839" y="36.145004"/>
     <use style="fill:#1f77b4;stroke:#1f77b4;" x="183.637328" xlink:href="#mb72aa91839" y="23.824972"/>
     <use style="fill:#1f77b4;stroke:#1f77b4;" x="184.423416" xlink:href="#mb72aa91839" y="61.760641"/>
     <use style="fill:#1f77b4;stroke:#1f77b4;" x="185.209505" xlink:href="#mb72aa91839" y="25.528954"/>
     <use style="fill:#1f77b4;stroke:#1f77b4;" x="185.995593" xlink:href="#mb72aa91839" y="82.376387"/>
     <use style="fill:#1f77b4;stroke:#1f77b4;" x="186.781682" xlink:href="#mb72aa91839" y="31.426893"/>
     <use style="fill:#1f77b4;stroke:#1f77b4;" x="187.56777" xlink:href="#mb72aa91839" y="26.744183"/>
     <use style="fill:#1f77b4;stroke:#1f77b4;" x="188.353859" xlink:href="#mb72aa91839" y="38.516284"/>
     <use style="fill:#1f77b4;stroke:#1f77b4;" x="189.139947" xlink:href="#mb72aa91839" y="24.348446"/>
     <use style="fill:#1f77b4;stroke:#1f77b4;" x="189.926036" xlink:href="#mb72aa91839" y="77.312548"/>
     <use style="fill:#1f77b4;stroke:#1f77b4;" x="190.712124" xlink:href="#mb72aa91839" y="31.444464"/>
     <use style="fill:#1f77b4;stroke:#1f77b4;" x="191.498213" xlink:href="#mb72aa91839" y="25.325633"/>
     <use style="fill:#1f77b4;stroke:#1f77b4;" x="192.284301" xlink:href="#mb72aa91839" y="99.170344"/>
     <use style="fill:#1f77b4;stroke:#1f77b4;" x="193.07039" xlink:href="#mb72aa91839" y="26.704318"/>
     <use style="fill:#1f77b4;stroke:#1f77b4;" x="193.856478" xlink:href="#mb72aa91839" y="52.494464"/>
     <use style="fill:#1f77b4;stroke:#1f77b4;" x="194.642567" xlink:href="#mb72aa91839" y="44.644577"/>
     <use style="fill:#1f77b4;stroke:#1f77b4;" x="195.428655" xlink:href="#mb72aa91839" y="21.163768"/>
     <use style="fill:#1f77b4;stroke:#1f77b4;" x="196.214744" xlink:href="#mb72aa91839" y="23.606071"/>
     <use style="fill:#1f77b4;stroke:#1f77b4;" x="197.000832" xlink:href="#mb72aa91839" y="59.792829"/>
     <use style="fill:#1f77b4;stroke:#1f77b4;" x="197.786921" xlink:href="#mb72aa91839" y="25.387182"/>
     <use style="fill:#1f77b4;stroke:#1f77b4;" x="198.573009" xlink:href="#mb72aa91839" y="99.076083"/>
     <use style="fill:#1f77b4;stroke:#1f77b4;" x="199.359098" xlink:href="#mb72aa91839" y="28.470708"/>
     <use style="fill:#1f77b4;stroke:#1f77b4;" x="200.145186" xlink:href="#mb72aa91839" y="34.336541"/>
     <use style="fill:#1f77b4;stroke:#1f77b4;" x="200.931274" xlink:href="#mb72aa91839" y="24.455629"/>
     <use style="fill:#1f77b4;stroke:#1f77b4;" x="201.717363" xlink:href="#mb72aa91839" y="76.170477"/>
     <use style="fill:#1f77b4;stroke:#1f77b4;" x="202.503451" xlink:href="#mb72aa91839" y="26.178894"/>
     <use style="fill:#1f77b4;stroke:#1f77b4;" x="203.28954" xlink:href="#mb72aa91839" y="64.193308"/>
     <use style="fill:#1f77b4;stroke:#1f77b4;" x="204.075628" xlink:href="#mb72aa91839" y="60.015065"/>
     <use style="fill:#1f77b4;stroke:#1f77b4;" x="204.861717" xlink:href="#mb72aa91839" y="22.700419"/>
     <use style="fill:#1f77b4;stroke:#1f77b4;" x="205.647805" xlink:href="#mb72aa91839" y="51.79679"/>
     <use style="fill:#1f77b4;stroke:#1f77b4;" x="206.433894" xlink:href="#mb72aa91839" y="27.429993"/>
     <use style="fill:#1f77b4;stroke:#1f77b4;" x="207.219982" xlink:href="#mb72aa91839" y="30.254895"/>
     <use style="fill:#1f77b4;stroke:#1f77b4;" x="208.006071" xlink:href="#mb72aa91839" y="36.881287"/>
     <use style="fill:#1f77b4;stroke:#1f77b4;" x="208.792159" xlink:href="#mb72aa91839" y="21.297823"/>
     <use style="fill:#1f77b4;stroke:#1f77b4;" x="209.578248" xlink:href="#mb72aa91839" y="23.634065"/>
     <use style="fill:#1f77b4;stroke:#1f77b4;" x="210.364336" xlink:href="#mb72aa91839" y="59.545958"/>
     <use style="fill:#1f77b4;stroke:#1f77b4;" x="211.150425" xlink:href="#mb72aa91839" y="25.374505"/>
     <use style="fill:#1f77b4;stroke:#1f77b4;" x="211.936513" xlink:href="#mb72aa91839" y="98.610585"/>
     <use style="fill:#1f77b4;stroke:#1f77b4;" x="212.722602" xlink:href="#mb72aa91839" y="28.594585"/>
     <use style="fill:#1f77b4;stroke:#1f77b4;" x="213.50869" xlink:href="#mb72aa91839" y="33.21991"/>
     <use style="fill:#1f77b4;stroke:#1f77b4;" x="214.294779" xlink:href="#mb72aa91839" y="24.890311"/>
     <use style="fill:#1f77b4;stroke:#1f77b4;" x="215.080867" xlink:href="#mb72aa91839" y="87.562369"/>
     <use style="fill:#1f77b4;stroke:#1f77b4;" x="215.866956" xlink:href="#mb72aa91839" y="26.510476"/>
     <use style="fill:#1f77b4;stroke:#1f77b4;" x="216.653044" xlink:href="#mb72aa91839" y="56.909699"/>
     <use style="fill:#1f77b4;stroke:#1f77b4;" x="217.439133" xlink:href="#mb72aa91839" y="62.122028"/>
     <use style="fill:#1f77b4;stroke:#1f77b4;" x="218.225221" xlink:href="#mb72aa91839" y="21.682758"/>
     <use style="fill:#1f77b4;stroke:#1f77b4;" x="219.01131" xlink:href="#mb72aa91839" y="46.301729"/>
     <use style="fill:#1f77b4;stroke:#1f77b4;" x="219.797398" xlink:href="#mb72aa91839" y="24.491491"/>
     <use style="fill:#1f77b4;stroke:#1f77b4;" x="220.583487" xlink:href="#mb72aa91839" y="73.154145"/>
     <use style="fill:#1f77b4;stroke:#1f77b4;" x="221.369575" xlink:href="#mb72aa91839" y="26.166564"/>
     <use style="fill:#1f77b4;stroke:#1f77b4;" x="222.155664" xlink:href="#mb72aa91839" y="60.064712"/>
     <use style="fill:#1f77b4;stroke:#1f77b4;" x="222.941752" xlink:href="#mb72aa91839" y="77.458927"/>
     <use style="fill:#1f77b4;stroke:#1f77b4;" x="223.727841" xlink:href="#mb72aa91839" y="21.489155"/>
     <use style="fill:#1f77b4;stroke:#1f77b4;" x="224.513929" xlink:href="#mb72aa91839" y="23.583385"/>
     <use style="fill:#1f77b4;stroke:#1f77b4;" x="225.300018" xlink:href="#mb72aa91839" y="59.593906"/>
     <use style="fill:#1f77b4;stroke:#1f77b4;" x="226.086106" xlink:href="#mb72aa91839" y="25.38362"/>
     <use style="fill:#1f77b4;stroke:#1f77b4;" x="226.872195" xlink:href="#mb72aa91839" y="99.642001"/>
     <use style="fill:#1f77b4;stroke:#1f77b4;" x="227.658283" xlink:href="#mb72aa91839" y="28.440513"/>
     <use style="fill:#1f77b4;stroke:#1f77b4;" x="228.444372" xlink:href="#mb72aa91839" y="34.512729"/>
     <use style="fill:#1f77b4;stroke:#1f77b4;" x="229.23046" xlink:href="#mb72aa91839" y="24.401961"/>
     <use style="fill:#1f77b4;stroke:#1f77b4;" x="230.016549" xlink:href="#mb72aa91839" y="75.304504"/>
     <use style="fill:#1f77b4;stroke:#1f77b4;" x="230.802637" xlink:href="#mb72aa91839" y="26.156055"/>
     <use style="fill:#1f77b4;stroke:#1f77b4;" x="231.588726" xlink:href="#mb72aa91839" y="64.790055"/>
     <use style="fill:#1f77b4;stroke:#1f77b4;" x="232.374814" xlink:href="#mb72aa91839" y="56.891772"/>
     <use style="fill:#1f77b4;stroke:#1f77b4;" x="233.160902" xlink:href="#mb72aa91839" y="22.822965"/>
     <use style="fill:#1f77b4;stroke:#1f77b4;" x="233.946991" xlink:href="#mb72aa91839" y="52.95284"/>
     <use style="fill:#1f77b4;stroke:#1f77b4;" x="234.733079" xlink:href="#mb72aa91839" y="29.065578"/>
     <use style="fill:#1f77b4;stroke:#1f77b4;" x="235.519168" xlink:href="#mb72aa91839" y="21.749007"/>
     <use style="fill:#1f77b4;stroke:#1f77b4;" x="236.305256" xlink:href="#mb72aa91839" y="23.612229"/>
     <use style="fill:#1f77b4;stroke:#1f77b4;" x="237.091345" xlink:href="#mb72aa91839" y="59.706883"/>
     <use style="fill:#1f77b4;stroke:#1f77b4;" x="237.877433" xlink:href="#mb72aa91839" y="25.394712"/>
     <use style="fill:#1f77b4;stroke:#1f77b4;" x="238.663522" xlink:href="#mb72aa91839" y="98.42054"/>
     <use style="fill:#1f77b4;stroke:#1f77b4;" x="239.44961" xlink:href="#mb72aa91839" y="28.519916"/>
     <use style="fill:#1f77b4;stroke:#1f77b4;" x="240.235699" xlink:href="#mb72aa91839" y="34.080717"/>
     <use style="fill:#1f77b4;stroke:#1f77b4;" x="241.021787" xlink:href="#mb72aa91839" y="24.536364"/>
     <use style="fill:#1f77b4;stroke:#1f77b4;" x="241.807876" xlink:href="#mb72aa91839" y="77.715497"/>
     <use style="fill:#1f77b4;stroke:#1f77b4;" x="242.593964" xlink:href="#mb72aa91839" y="26.225811"/>
     <use style="fill:#1f77b4;stroke:#1f77b4;" x="243.380053" xlink:href="#mb72aa91839" y="63.047132"/>
     <use style="fill:#1f77b4;stroke:#1f77b4;" x="244.166141" xlink:href="#mb72aa91839" y="67.753402"/>
     <use style="fill:#1f77b4;stroke:#1f77b4;" x="244.95223" xlink:href="#mb72aa91839" y="22.489455"/>
     <use style="fill:#1f77b4;stroke:#1f77b4;" x="245.738318" xlink:href="#mb72aa91839" y="50.082124"/>
     <use style="fill:#1f77b4;stroke:#1f77b4;" x="246.524407" xlink:href="#mb72aa91839" y="25.171163"/>
     <use style="fill:#1f77b4;stroke:#1f77b4;" x="247.310495" xlink:href="#mb72aa91839" y="77.806278"/>
     <use style="fill:#1f77b4;stroke:#1f77b4;" x="248.096584" xlink:href="#mb72aa91839" y="22.272536"/>
     <use style="fill:#1f77b4;stroke:#1f77b4;" x="248.882672" xlink:href="#mb72aa91839" y="49.59989"/>
     <use style="fill:#1f77b4;stroke:#1f77b4;" x="249.668761" xlink:href="#mb72aa91839" y="24.781478"/>
     <use style="fill:#1f77b4;stroke:#1f77b4;" x="250.454849" xlink:href="#mb72aa91839" y="81.956229"/>
     <use style="fill:#1f77b4;stroke:#1f77b4;" x="251.240938" xlink:href="#mb72aa91839" y="26.533509"/>
     <use style="fill:#1f77b4;stroke:#1f77b4;" x="252.027026" xlink:href="#mb72aa91839" y="53.678306"/>
     <use style="fill:#1f77b4;stroke:#1f77b4;" x="252.813115" xlink:href="#mb72aa91839" y="51.153418"/>
     <use style="fill:#1f77b4;stroke:#1f77b4;" x="253.599203" xlink:href="#mb72aa91839" y="24.344776"/>
     <use style="fill:#1f77b4;stroke:#1f77b4;" x="254.385292" xlink:href="#mb72aa91839" y="81.221337"/>
     <use style="fill:#1f77b4;stroke:#1f77b4;" x="255.17138" xlink:href="#mb72aa91839" y="22.027777"/>
     <use style="fill:#1f77b4;stroke:#1f77b4;" x="255.957469" xlink:href="#mb72aa91839" y="48.28831"/>
     <use style="fill:#1f77b4;stroke:#1f77b4;" x="256.743557" xlink:href="#mb72aa91839" y="24.690734"/>
     <use style="fill:#1f77b4;stroke:#1f77b4;" x="257.529646" xlink:href="#mb72aa91839" y="78.499771"/>
     <use style="fill:#1f77b4;stroke:#1f77b4;" x="258.315734" xlink:href="#mb72aa91839" y="26.381569"/>
     <use style="fill:#1f77b4;stroke:#1f77b4;" x="259.101823" xlink:href="#mb72aa91839" y="56.488399"/>
     <use style="fill:#1f77b4;stroke:#1f77b4;" x="259.887911" xlink:href="#mb72aa91839" y="58.60518"/>
     <use style="fill:#1f77b4;stroke:#1f77b4;" x="260.674" xlink:href="#mb72aa91839" y="21.331565"/>
     <use style="fill:#1f77b4;stroke:#1f77b4;" x="261.460088" xlink:href="#mb72aa91839" y="23.607077"/>
     <use style="fill:#1f77b4;stroke:#1f77b4;" x="262.246177" xlink:href="#mb72aa91839" y="59.830404"/>
     <use style="fill:#1f77b4;stroke:#1f77b4;" x="263.032265" xlink:href="#mb72aa91839" y="25.393936"/>
     <use style="fill:#1f77b4;stroke:#1f77b4;" x="263.818354" xlink:href="#mb72aa91839" y="98.318228"/>
     <use style="fill:#1f77b4;stroke:#1f77b4;" x="264.604442" xlink:href="#mb72aa91839" y="28.513046"/>
     <use style="fill:#1f77b4;stroke:#1f77b4;" x="265.39053" xlink:href="#mb72aa91839" y="34.151173"/>
     <use style="fill:#1f77b4;stroke:#1f77b4;" x="266.176619" xlink:href="#mb72aa91839" y="24.509655"/>
     <use style="fill:#1f77b4;stroke:#1f77b4;" x="266.962707" xlink:href="#mb72aa91839" y="77.303206"/>
     <use style="fill:#1f77b4;stroke:#1f77b4;" x="267.748796" xlink:href="#mb72aa91839" y="26.218075"/>
     <use style="fill:#1f77b4;stroke:#1f77b4;" x="268.534884" xlink:href="#mb72aa91839" y="63.262774"/>
     <use style="fill:#1f77b4;stroke:#1f77b4;" x="269.320973" xlink:href="#mb72aa91839" y="66.032341"/>
     <use style="fill:#1f77b4;stroke:#1f77b4;" x="270.107061" xlink:href="#mb72aa91839" y="22.529998"/>
     <use style="fill:#1f77b4;stroke:#1f77b4;" x="270.89315" xlink:href="#mb72aa91839" y="50.389024"/>
     <use style="fill:#1f77b4;stroke:#1f77b4;" x="271.679238" xlink:href="#mb72aa91839" y="25.358529"/>
     <use style="fill:#1f77b4;stroke:#1f77b4;" x="272.465327" xlink:href="#mb72aa91839" y="64.689285"/>
     <use style="fill:#1f77b4;stroke:#1f77b4;" x="273.251415" xlink:href="#mb72aa91839" y="22.631562"/>
     <use style="fill:#1f77b4;stroke:#1f77b4;" x="274.037504" xlink:href="#mb72aa91839" y="50.847339"/>
     <use style="fill:#1f77b4;stroke:#1f77b4;" x="274.823592" xlink:href="#mb72aa91839" y="24.876369"/>
     <use style="fill:#1f77b4;stroke:#1f77b4;" x="275.609681" xlink:href="#mb72aa91839" y="90.378548"/>
     <use style="fill:#1f77b4;stroke:#1f77b4;" x="276.395769" xlink:href="#mb72aa91839" y="27.123596"/>
     <use style="fill:#1f77b4;stroke:#1f77b4;" x="277.181858" xlink:href="#mb72aa91839" y="41.783073"/>
     <use style="fill:#1f77b4;stroke:#1f77b4;" x="277.967946" xlink:href="#mb72aa91839" y="23.30714"/>
     <use style="fill:#1f77b4;stroke:#1f77b4;" x="278.754035" xlink:href="#mb72aa91839" y="58.104887"/>
     <use style="fill:#1f77b4;stroke:#1f77b4;" x="279.540123" xlink:href="#mb72aa91839" y="25.289925"/>
     <use style="fill:#1f77b4;stroke:#1f77b4;" x="280.326212" xlink:href="#mb72aa91839" y="122.607372"/>
     <use style="fill:#1f77b4;stroke:#1f77b4;" x="281.1123" xlink:href="#mb72aa91839" y="27.761928"/>
     <use style="fill:#1f77b4;stroke:#1f77b4;" x="281.898389" xlink:href="#mb72aa91839" y="39.273203"/>
     <use style="fill:#1f77b4;stroke:#1f77b4;" x="282.684477" xlink:href="#mb72aa91839" y="23.484019"/>
     <use style="fill:#1f77b4;stroke:#1f77b4;" x="283.470566" xlink:href="#mb72aa91839" y="59.612097"/>
     <use style="fill:#1f77b4;stroke:#1f77b4;" x="284.256654" xlink:href="#mb72aa91839" y="25.353803"/>
     <use style="fill:#1f77b4;stroke:#1f77b4;" x="285.042743" xlink:href="#mb72aa91839" y="107.090469"/>
     <use style="fill:#1f77b4;stroke:#1f77b4;" x="285.828831" xlink:href="#mb72aa91839" y="28.028987"/>
     <use style="fill:#1f77b4;stroke:#1f77b4;" x="286.61492" xlink:href="#mb72aa91839" y="37.503493"/>
     <use style="fill:#1f77b4;stroke:#1f77b4;" x="287.401008" xlink:href="#mb72aa91839" y="23.72082"/>
     <use style="fill:#1f77b4;stroke:#1f77b4;" x="288.187097" xlink:href="#mb72aa91839" y="63.234935"/>
     <use style="fill:#1f77b4;stroke:#1f77b4;" x="288.973185" xlink:href="#mb72aa91839" y="25.57258"/>
     <use style="fill:#1f77b4;stroke:#1f77b4;" x="289.759274" xlink:href="#mb72aa91839" y="86.177425"/>
     <use style="fill:#1f77b4;stroke:#1f77b4;" x="290.545362" xlink:href="#mb72aa91839" y="29.506049"/>
     <use style="fill:#1f77b4;stroke:#1f77b4;" x="291.331451" xlink:href="#mb72aa91839" y="31.661169"/>
     <use style="fill:#1f77b4;stroke:#1f77b4;" x="292.117539" xlink:href="#mb72aa91839" y="25.318709"/>
     <use style="fill:#1f77b4;stroke:#1f77b4;" x="292.903628" xlink:href="#mb72aa91839" y="113.970806"/>
     <use style="fill:#1f77b4;stroke:#1f77b4;" x="293.689716" xlink:href="#mb72aa91839" y="27.843167"/>
     <use style="fill:#1f77b4;stroke:#1f77b4;" x="294.475805" xlink:href="#mb72aa91839" y="40.337564"/>
     <use style="fill:#1f77b4;stroke:#1f77b4;" x="295.261893" xlink:href="#mb72aa91839" y="21.10215"/>
     <use style="fill:#1f77b4;stroke:#1f77b4;" x="296.047982" xlink:href="#mb72aa91839" y="23.646297"/>
     <use style="fill:#1f77b4;stroke:#1f77b4;" x="296.83407" xlink:href="#mb72aa91839" y="60.199305"/>
     <use style="fill:#1f77b4;stroke:#1f77b4;" x="297.620158" xlink:href="#mb72aa91839" y="25.409736"/>
     <use style="fill:#1f77b4;stroke:#1f77b4;" x="298.406247" xlink:href="#mb72aa91839" y="96.541186"/>
     <use style="fill:#1f77b4;stroke:#1f77b4;" x="299.192335" xlink:href="#mb72aa91839" y="28.623097"/>
     <use style="fill:#1f77b4;stroke:#1f77b4;" x="299.978424" xlink:href="#mb72aa91839" y="33.636838"/>
     <use style="fill:#1f77b4;stroke:#1f77b4;" x="300.764512" xlink:href="#mb72aa91839" y="24.675622"/>
     <use style="fill:#1f77b4;stroke:#1f77b4;" x="301.550601" xlink:href="#mb72aa91839" y="81.28875"/>
     <use style="fill:#1f77b4;stroke:#1f77b4;" x="302.336689" xlink:href="#mb72aa91839" y="26.34779"/>
     <use style="fill:#1f77b4;stroke:#1f77b4;" x="303.122778" xlink:href="#mb72aa91839" y="60.391047"/>
     <use style="fill:#1f77b4;stroke:#1f77b4;" x="303.908866" xlink:href="#mb72aa91839" y="118.394791"/>
     <use style="fill:#1f77b4;stroke:#1f77b4;" x="304.694955" xlink:href="#mb72aa91839" y="22.096318"/>
     <use style="fill:#1f77b4;stroke:#1f77b4;" x="305.481043" xlink:href="#mb72aa91839" y="47.659624"/>
     <use style="fill:#1f77b4;stroke:#1f77b4;" x="306.267132" xlink:href="#mb72aa91839" y="24.650018"/>
     <use style="fill:#1f77b4;stroke:#1f77b4;" x="307.05322" xlink:href="#mb72aa91839" y="80.234514"/>
     <use style="fill:#1f77b4;stroke:#1f77b4;" x="307.839309" xlink:href="#mb72aa91839" y="26.88108"/>
     <use style="fill:#1f77b4;stroke:#1f77b4;" x="308.625397" xlink:href="#mb72aa91839" y="42.458927"/>
     <use style="fill:#1f77b4;stroke:#1f77b4;" x="309.411486" xlink:href="#mb72aa91839" y="23.383182"/>
     <use style="fill:#1f77b4;stroke:#1f77b4;" x="310.197574" xlink:href="#mb72aa91839" y="57.193865"/>
     <use style="fill:#1f77b4;stroke:#1f77b4;" x="310.983663" xlink:href="#mb72aa91839" y="25.204829"/>
     <use style="fill:#1f77b4;stroke:#1f77b4;" x="311.769751" xlink:href="#mb72aa91839" y="175.289801"/>
     <use style="fill:#1f77b4;stroke:#1f77b4;" x="312.55584" xlink:href="#mb72aa91839" y="27.717281"/>
     <use style="fill:#1f77b4;stroke:#1f77b4;" x="313.341928" xlink:href="#mb72aa91839" y="38.523363"/>
     <use style="fill:#1f77b4;stroke:#1f77b4;" x="314.128017" xlink:href="#mb72aa91839" y="23.593036"/>
     <use style="fill:#1f77b4;stroke:#1f77b4;" x="314.914105" xlink:href="#mb72aa91839" y="23.235937"/>
     <use style="fill:#1f77b4;stroke:#1f77b4;" x="315.700194" xlink:href="#mb72aa91839" y="56.091169"/>
     <use style="fill:#1f77b4;stroke:#1f77b4;" x="316.486282" xlink:href="#mb72aa91839" y="25.196104"/>
     <use style="fill:#1f77b4;stroke:#1f77b4;" x="317.272371" xlink:href="#mb72aa91839" y="139.008424"/>
     <use style="fill:#1f77b4;stroke:#1f77b4;" x="318.058459" xlink:href="#mb72aa91839" y="27.59534"/>
     <use style="fill:#1f77b4;stroke:#1f77b4;" x="318.844548" xlink:href="#mb72aa91839" y="39.963206"/>
     <use style="fill:#1f77b4;stroke:#1f77b4;" x="319.630636" xlink:href="#mb72aa91839" y="23.365694"/>
     <use style="fill:#1f77b4;stroke:#1f77b4;" x="320.416725" xlink:href="#mb72aa91839" y="23.261557"/>
     <use style="fill:#1f77b4;stroke:#1f77b4;" x="321.202813" xlink:href="#mb72aa91839" y="56.596561"/>
     <use style="fill:#1f77b4;stroke:#1f77b4;" x="321.988902" xlink:href="#mb72aa91839" y="25.230347"/>
     <use style="fill:#1f77b4;stroke:#1f77b4;" x="322.77499" xlink:href="#mb72aa91839" y="167.266847"/>
     <use style="fill:#1f77b4;stroke:#1f77b4;" x="323.561079" xlink:href="#mb72aa91839" y="27.667384"/>
     <use style="fill:#1f77b4;stroke:#1f77b4;" x="324.347167" xlink:href="#mb72aa91839" y="39.603668"/>
     <use style="fill:#1f77b4;stroke:#1f77b4;" x="325.133256" xlink:href="#mb72aa91839" y="23.404481"/>
     <use style="fill:#1f77b4;stroke:#1f77b4;" x="325.919344" xlink:href="#mb72aa91839" y="23.256922"/>
     <use style="fill:#1f77b4;stroke:#1f77b4;" x="326.705433" xlink:href="#mb72aa91839" y="56.475837"/>
     <use style="fill:#1f77b4;stroke:#1f77b4;" x="327.491521" xlink:href="#mb72aa91839" y="25.22173"/>
     <use style="fill:#1f77b4;stroke:#1f77b4;" x="328.27761" xlink:href="#mb72aa91839" y="184.265047"/>
     <use style="fill:#1f77b4;stroke:#1f77b4;" x="329.063698" xlink:href="#mb72aa91839" y="27.646582"/>
     <use style="fill:#1f77b4;stroke:#1f77b4;" x="329.849786" xlink:href="#mb72aa91839" y="39.720703"/>
     <use style="fill:#1f77b4;stroke:#1f77b4;" x="330.635875" xlink:href="#mb72aa91839" y="23.390216"/>
     <use style="fill:#1f77b4;stroke:#1f77b4;" x="331.421963" xlink:href="#mb72aa91839" y="23.258453"/>
     <use style="fill:#1f77b4;stroke:#1f77b4;" x="332.208052" xlink:href="#mb72aa91839" y="56.523117"/>
     <use style="fill:#1f77b4;stroke:#1f77b4;" x="332.99414" xlink:href="#mb72aa91839" y="25.225122"/>
     <use style="fill:#1f77b4;stroke:#1f77b4;" x="333.780229" xlink:href="#mb72aa91839" y="206.729973"/>
     <use style="fill:#1f77b4;stroke:#1f77b4;" x="334.566317" xlink:href="#mb72aa91839" y="27.654169"/>
     <use style="fill:#1f77b4;stroke:#1f77b4;" x="335.352406" xlink:href="#mb72aa91839" y="39.681993"/>
     <use style="fill:#1f77b4;stroke:#1f77b4;" x="336.138494" xlink:href="#mb72aa91839" y="23.394886"/>
     <use style="fill:#1f77b4;stroke:#1f77b4;" x="336.924583" xlink:href="#mb72aa91839" y="23.258078"/>
     <use style="fill:#1f77b4;stroke:#1f77b4;" x="337.710671" xlink:href="#mb72aa91839" y="56.505452"/>
     <use style="fill:#1f77b4;stroke:#1f77b4;" x="338.49676" xlink:href="#mb72aa91839" y="25.223829"/>
     <use style="fill:#1f77b4;stroke:#1f77b4;" x="339.282848" xlink:href="#mb72aa91839" y="218.047045"/>
     <use style="fill:#1f77b4;stroke:#1f77b4;" x="340.068937" xlink:href="#mb72aa91839" y="27.651563"/>
     <use style="fill:#1f77b4;stroke:#1f77b4;" x="340.855025" xlink:href="#mb72aa91839" y="39.693347"/>
     <use style="fill:#1f77b4;stroke:#1f77b4;" x="341.641114" xlink:href="#mb72aa91839" y="23.393454"/>
     <use style="fill:#1f77b4;stroke:#1f77b4;" x="342.427202" xlink:href="#mb72aa91839" y="23.258038"/>
     <use style="fill:#1f77b4;stroke:#1f77b4;" x="343.213291" xlink:href="#mb72aa91839" y="56.512621"/>
     <use style="fill:#1f77b4;stroke:#1f77b4;" x="343.999379" xlink:href="#mb72aa91839" y="25.224398"/>
     <use style="fill:#1f77b4;stroke:#1f77b4;" x="344.785468" xlink:href="#mb72aa91839" y="255.744183"/>
     <use style="fill:#1f77b4;stroke:#1f77b4;" x="345.571556" xlink:href="#mb72aa91839" y="27.652466"/>
     <use style="fill:#1f77b4;stroke:#1f77b4;" x="346.357645" xlink:href="#mb72aa91839" y="39.691433"/>
     <use style="fill:#1f77b4;stroke:#1f77b4;" x="347.143733" xlink:href="#mb72aa91839" y="23.393658"/>
     <use style="fill:#1f77b4;stroke:#1f77b4;" x="347.929822" xlink:href="#mb72aa91839" y="23.258115"/>
     <use style="fill:#1f77b4;stroke:#1f77b4;" x="348.71591" xlink:href="#mb72aa91839" y="56.509049"/>
     <use style="fill:#1f77b4;stroke:#1f77b4;" x="349.501999" xlink:href="#mb72aa91839" y="25.224216"/>
     <use style="fill:#1f77b4;stroke:#1f77b4;" x="350.288087" xlink:href="#mb72aa91839" y="258.543017"/>
     <use style="fill:#1f77b4;stroke:#1f77b4;" x="351.074176" xlink:href="#mb72aa91839" y="27.652526"/>
     <use style="fill:#1f77b4;stroke:#1f77b4;" x="351.860264" xlink:href="#mb72aa91839" y="39.687597"/>
     <use style="fill:#1f77b4;stroke:#1f77b4;" x="352.646353" xlink:href="#mb72aa91839" y="23.394155"/>
     <use style="fill:#1f77b4;stroke:#1f77b4;" x="353.432441" xlink:href="#mb72aa91839" y="23.257916"/>
     <use style="fill:#1f77b4;stroke:#1f77b4;" x="354.21853" xlink:href="#mb72aa91839" y="56.510442"/>
     <use style="fill:#1f77b4;stroke:#1f77b4;" x="355.004618" xlink:href="#mb72aa91839" y="25.224264"/>
     <use style="fill:#1f77b4;stroke:#1f77b4;" x="355.790707" xlink:href="#mb72aa91839" y="261.216"/>
     <use style="fill:#1f77b4;stroke:#1f77b4;" x="356.576795" xlink:href="#mb72aa91839" y="27.65223"/>
     <use style="fill:#1f77b4;stroke:#1f77b4;" x="357.362884" xlink:href="#mb72aa91839" y="39.692641"/>
     <use style="fill:#1f77b4;stroke:#1f77b4;" x="358.148972" xlink:href="#mb72aa91839" y="23.393508"/>
     <use style="fill:#1f77b4;stroke:#1f77b4;" x="358.935061" xlink:href="#mb72aa91839" y="23.258188"/>
     <use style="fill:#1f77b4;stroke:#1f77b4;" x="359.721149" xlink:href="#mb72aa91839" y="56.509831"/>
     <use style="fill:#1f77b4;stroke:#1f77b4;" x="360.507238" xlink:href="#mb72aa91839" y="25.224164"/>
     <use style="fill:#1f77b4;stroke:#1f77b4;" x="361.293326" xlink:href="#mb72aa91839" y="243.669564"/>
     <use style="fill:#1f77b4;stroke:#1f77b4;" x="362.079414" xlink:href="#mb72aa91839" y="27.652205"/>
     <use style="fill:#1f77b4;stroke:#1f77b4;" x="362.865503" xlink:href="#mb72aa91839" y="39.690838"/>
     <use style="fill:#1f77b4;stroke:#1f77b4;" x="363.651591" xlink:href="#mb72aa91839" y="23.393742"/>
     <use style="fill:#1f77b4;stroke:#1f77b4;" x="364.43768" xlink:href="#mb72aa91839" y="23.258076"/>
     <use style="fill:#1f77b4;stroke:#1f77b4;" x="365.223768" xlink:href="#mb72aa91839" y="56.510719"/>
     <use style="fill:#1f77b4;stroke:#1f77b4;" x="366.009857" xlink:href="#mb72aa91839" y="25.22426"/>
     <use style="fill:#1f77b4;stroke:#1f77b4;" x="366.795945" xlink:href="#mb72aa91839" y="258.807585"/>
     <use style="fill:#1f77b4;stroke:#1f77b4;" x="367.582034" xlink:href="#mb72aa91839" y="27.652263"/>
     <use style="fill:#1f77b4;stroke:#1f77b4;" x="368.368122" xlink:href="#mb72aa91839" y="39.691477"/>
     <use style="fill:#1f77b4;stroke:#1f77b4;" x="369.154211" xlink:href="#mb72aa91839" y="23.393648"/>
     <use style="fill:#1f77b4;stroke:#1f77b4;" x="369.940299" xlink:href="#mb72aa91839" y="23.258089"/>
     <use style="fill:#1f77b4;stroke:#1f77b4;" x="370.726388" xlink:href="#mb72aa91839" y="56.509792"/>
     <use style="fill:#1f77b4;stroke:#1f77b4;" x="371.512476" xlink:href="#mb72aa91839" y="25.224161"/>
     <use style="fill:#1f77b4;stroke:#1f77b4;" x="372.298565" xlink:href="#mb72aa91839" y="235.368773"/>
     <use style="fill:#1f77b4;stroke:#1f77b4;" x="373.084653" xlink:href="#mb72aa91839" y="27.65196"/>
     <use style="fill:#1f77b4;stroke:#1f77b4;" x="373.870742" xlink:href="#mb72aa91839" y="39.693331"/>
     <use style="fill:#1f77b4;stroke:#1f77b4;" x="374.65683" xlink:href="#mb72aa91839" y="23.393417"/>
     <use style="fill:#1f77b4;stroke:#1f77b4;" x="375.442919" xlink:href="#mb72aa91839" y="23.258137"/>
     <use style="fill:#1f77b4;stroke:#1f77b4;" x="376.229007" xlink:href="#mb72aa91839" y="56.510553"/>
     <use style="fill:#1f77b4;stroke:#1f77b4;" x="377.015096" xlink:href="#mb72aa91839" y="25.224329"/>
     <use style="fill:#1f77b4;stroke:#1f77b4;" x="377.409359" xlink:href="#mb72aa91839" y="22383.514"/>
    </g>
   </g>
   <g id="line2d_61">
    <path clip-path="url(#p557039fa00)" d="M 97.953683 21.338467 
L 99.52586 59.829583 
L 101.098037 98.300207 
" style="fill:none;stroke:#2ca02c;stroke-dasharray:1.5,2.475;stroke-dashoffset:0;stroke-width:1.5;"/>
    <defs>
     <path d="M -3 3 
L 3 -3 
M -3 -3 
L 3 3 
" id="m8dee316091" style="stroke:#2ca02c;"/>
    </defs>
    <g clip-path="url(#p557039fa00)">
     <use style="fill:#2ca02c;stroke:#2ca02c;" x="97.953683" xlink:href="#m8dee316091" y="21.338467"/>
     <use style="fill:#2ca02c;stroke:#2ca02c;" x="99.52586" xlink:href="#m8dee316091" y="59.829583"/>
     <use style="fill:#2ca02c;stroke:#2ca02c;" x="101.098037" xlink:href="#m8dee316091" y="98.300207"/>
    </g>
   </g>
   <g id="line2d_62">
    <path clip-path="url(#p557039fa00)" d="M 54.718816 140.904423 
L 61.703725 311.86825 
L 61.703725 311.86825 
" style="fill:none;stroke:#000000;stroke-dasharray:5.55,2.4;stroke-dashoffset:0;stroke-width:1.5;"/>
   </g>
   <g id="patch_3">
    <path d="M 37.7 273.312 
L 37.7 7.2 
" style="fill:none;stroke:#000000;stroke-linecap:square;stroke-linejoin:miter;stroke-width:0.8;"/>
   </g>
   <g id="patch_4">
    <path d="M 394.82 273.312 
L 394.82 7.2 
" style="fill:none;stroke:#000000;stroke-linecap:square;stroke-linejoin:miter;stroke-width:0.8;"/>
   </g>
   <g id="patch_5">
    <path d="M 37.7 273.312 
L 394.82 273.312 
" style="fill:none;stroke:#000000;stroke-linecap:square;stroke-linejoin:miter;stroke-width:0.8;"/>
   </g>
   <g id="patch_6">
    <path d="M 37.7 7.2 
L 394.82 7.2 
" style="fill:none;stroke:#000000;stroke-linecap:square;stroke-linejoin:miter;stroke-width:0.8;"/>
   </g>
   <g id="legend_1">
    <g id="patch_7">
     <path d="M 165.71 268.312 
L 266.81 268.312 
Q 268.81 268.312 268.81 266.312 
L 268.81 223.25575 
Q 268.81 221.25575 266.81 221.25575 
L 165.71 221.25575 
Q 163.71 221.25575 163.71 223.25575 
L 163.71 266.312 
Q 163.71 268.312 165.71 268.312 
z
" style="fill:#ffffff;opacity:0.8;"/>
    </g>
    <g id="line2d_63">
     <path d="M 167.71 229.354187 
L 187.71 229.354187 
" style="fill:none;stroke:#1f77b4;stroke-linecap:square;stroke-width:1.5;"/>
    </g>
    <g id="line2d_64">
     <g>
      <use style="fill:#1f77b4;stroke:#1f77b4;" x="177.71" xlink:href="#mb72aa91839" y="229.354187"/>
     </g>
    </g>
    <g id="text_13">
     <!-- APD$_n$ - APD$_\infty$ -->
     <defs>
      <path d="M 34.1875 63.1875 
L 20.796875 26.90625 
L 47.609375 26.90625 
z
M 28.609375 72.90625 
L 39.796875 72.90625 
L 67.578125 0 
L 57.328125 0 
L 50.6875 18.703125 
L 17.828125 18.703125 
L 11.1875 0 
L 0.78125 0 
z
" id="DejaVuSans-65"/>
      <path d="M 19.671875 64.796875 
L 19.671875 37.40625 
L 32.078125 37.40625 
Q 38.96875 37.40625 42.71875 40.96875 
Q 46.484375 44.53125 46.484375 51.125 
Q 46.484375 57.671875 42.71875 61.234375 
Q 38.96875 64.796875 32.078125 64.796875 
z
M 9.8125 72.90625 
L 32.078125 72.90625 
Q 44.34375 72.90625 50.609375 67.359375 
Q 56.890625 61.8125 56.890625 51.125 
Q 56.890625 40.328125 50.609375 34.8125 
Q 44.34375 29.296875 32.078125 29.296875 
L 19.671875 29.296875 
L 19.671875 0 
L 9.8125 0 
z
" id="DejaVuSans-80"/>
      <path d="M 19.671875 64.796875 
L 19.671875 8.109375 
L 31.59375 8.109375 
Q 46.6875 8.109375 53.6875 14.9375 
Q 60.6875 21.78125 60.6875 36.53125 
Q 60.6875 51.171875 53.6875 57.984375 
Q 46.6875 64.796875 31.59375 64.796875 
z
M 9.8125 72.90625 
L 30.078125 72.90625 
Q 51.265625 72.90625 61.171875 64.09375 
Q 71.09375 55.28125 71.09375 36.53125 
Q 71.09375 17.671875 61.125 8.828125 
Q 51.171875 0 30.078125 0 
L 9.8125 0 
z
" id="DejaVuSans-68"/>
      <path d="M 55.71875 33.015625 
L 49.3125 0 
L 40.28125 0 
L 46.6875 32.671875 
Q 47.125 34.96875 47.359375 36.71875 
Q 47.609375 38.484375 47.609375 39.5 
Q 47.609375 43.609375 45.015625 45.890625 
Q 42.4375 48.1875 37.796875 48.1875 
Q 30.5625 48.1875 25.34375 43.375 
Q 20.125 38.578125 18.5 30.328125 
L 12.5 0 
L 3.515625 0 
L 14.109375 54.6875 
L 23.09375 54.6875 
L 21.296875 46.09375 
Q 25.046875 50.828125 30.3125 53.40625 
Q 35.59375 56 41.40625 56 
Q 48.640625 56 52.609375 52.09375 
Q 56.59375 48.1875 56.59375 41.109375 
Q 56.59375 39.359375 56.375 37.359375 
Q 56.15625 35.359375 55.71875 33.015625 
z
" id="DejaVuSans-Oblique-110"/>
      <path id="DejaVuSans-32"/>
      <path d="M 4.890625 31.390625 
L 31.203125 31.390625 
L 31.203125 23.390625 
L 4.890625 23.390625 
z
" id="DejaVuSans-45"/>
      <path d="M 45.5625 17.046875 
Q 44.046875 18.796875 41.65625 22.90625 
Q 38.375 17.046875 35.5 14.453125 
Q 31.890625 11.328125 26.265625 11.328125 
Q 19.671875 11.328125 15.328125 16.265625 
Q 10.75 21.4375 10.75 29.984375 
Q 10.75 38.1875 15.328125 43.75 
Q 19.4375 48.6875 26.375 48.6875 
Q 29.9375 48.6875 32.5625 47.21875 
Q 35.640625 45.609375 37.75 42.828125 
Q 39.703125 40.328125 41.65625 36.96875 
Q 44.921875 42.828125 47.796875 45.40625 
Q 51.421875 48.53125 57.03125 48.53125 
Q 63.625 48.53125 67.96875 43.609375 
Q 72.5625 38.421875 72.5625 29.890625 
Q 72.5625 21.6875 67.96875 16.109375 
Q 63.875 11.1875 56.9375 11.1875 
Q 53.375 11.1875 50.734375 12.640625 
Q 48.09375 13.96875 45.5625 17.046875 
z
M 25.734375 17.71875 
Q 33.796875 17.71875 38.625 29.4375 
Q 32.421875 42.234375 25.734375 42.234375 
Q 20.84375 42.234375 18.359375 38.71875 
Q 15.671875 34.96875 15.671875 29.984375 
Q 15.671875 24.515625 18.359375 21.140625 
Q 21.09375 17.71875 25.734375 17.71875 
z
M 57.5625 42.140625 
Q 50.296875 42.140625 44.671875 30.421875 
Q 50.828125 17.625 57.5625 17.625 
Q 62.453125 17.625 64.9375 21.140625 
Q 67.625 24.90625 67.625 29.890625 
Q 67.625 35.359375 64.9375 38.71875 
Q 62.203125 42.140625 57.5625 42.140625 
z
" id="DejaVuSans-8734"/>
     </defs>
     <g transform="translate(195.71 232.854187)scale(0.1 -0.1)">
      <use transform="translate(0 0.09375)" xlink:href="#DejaVuSans-65"/>
      <use transform="translate(68.408203 0.09375)" xlink:href="#DejaVuSans-80"/>
      <use transform="translate(128.710938 0.09375)" xlink:href="#DejaVuSans-68"/>
      <use transform="translate(206.669922 -16.3125)scale(0.7)" xlink:href="#DejaVuSans-Oblique-110"/>
      <use transform="translate(253.769531 0.09375)" xlink:href="#DejaVuSans-32"/>
      <use transform="translate(285.556641 0.09375)" xlink:href="#DejaVuSans-45"/>
      <use transform="translate(321.640625 0.09375)" xlink:href="#DejaVuSans-32"/>
      <use transform="translate(353.427734 0.09375)" xlink:href="#DejaVuSans-65"/>
      <use transform="translate(421.835938 0.09375)" xlink:href="#DejaVuSans-80"/>
      <use transform="translate(482.138672 0.09375)" xlink:href="#DejaVuSans-68"/>
      <use transform="translate(560.097656 -16.3125)scale(0.7)" xlink:href="#DejaVuSans-8734"/>
     </g>
    </g>
    <g id="line2d_65">
     <path d="M 167.71 244.032312 
L 187.71 244.032312 
" style="fill:none;stroke:#2ca02c;stroke-dasharray:1.5,2.475;stroke-dashoffset:0;stroke-width:1.5;"/>
    </g>
    <g id="line2d_66">
     <g>
      <use style="fill:#2ca02c;stroke:#2ca02c;" x="177.71" xlink:href="#m8dee316091" y="244.032312"/>
     </g>
    </g>
    <g id="text_14">
     <!-- linear region -->
     <defs>
      <path d="M 9.421875 75.984375 
L 18.40625 75.984375 
L 18.40625 0 
L 9.421875 0 
z
" id="DejaVuSans-108"/>
      <path d="M 9.421875 54.6875 
L 18.40625 54.6875 
L 18.40625 0 
L 9.421875 0 
z
M 9.421875 75.984375 
L 18.40625 75.984375 
L 18.40625 64.59375 
L 9.421875 64.59375 
z
" id="DejaVuSans-105"/>
      <path d="M 54.890625 33.015625 
L 54.890625 0 
L 45.90625 0 
L 45.90625 32.71875 
Q 45.90625 40.484375 42.875 44.328125 
Q 39.84375 48.1875 33.796875 48.1875 
Q 26.515625 48.1875 22.3125 43.546875 
Q 18.109375 38.921875 18.109375 30.90625 
L 18.109375 0 
L 9.078125 0 
L 9.078125 54.6875 
L 18.109375 54.6875 
L 18.109375 46.1875 
Q 21.34375 51.125 25.703125 53.5625 
Q 30.078125 56 35.796875 56 
Q 45.21875 56 50.046875 50.171875 
Q 54.890625 44.34375 54.890625 33.015625 
z
" id="DejaVuSans-110"/>
      <path d="M 56.203125 29.59375 
L 56.203125 25.203125 
L 14.890625 25.203125 
Q 15.484375 15.921875 20.484375 11.0625 
Q 25.484375 6.203125 34.421875 6.203125 
Q 39.59375 6.203125 44.453125 7.46875 
Q 49.3125 8.734375 54.109375 11.28125 
L 54.109375 2.78125 
Q 49.265625 0.734375 44.1875 -0.34375 
Q 39.109375 -1.421875 33.890625 -1.421875 
Q 20.796875 -1.421875 13.15625 6.1875 
Q 5.515625 13.8125 5.515625 26.8125 
Q 5.515625 40.234375 12.765625 48.109375 
Q 20.015625 56 32.328125 56 
Q 43.359375 56 49.78125 48.890625 
Q 56.203125 41.796875 56.203125 29.59375 
z
M 47.21875 32.234375 
Q 47.125 39.59375 43.09375 43.984375 
Q 39.0625 48.390625 32.421875 48.390625 
Q 24.90625 48.390625 20.390625 44.140625 
Q 15.875 39.890625 15.1875 32.171875 
z
" id="DejaVuSans-101"/>
      <path d="M 34.28125 27.484375 
Q 23.390625 27.484375 19.1875 25 
Q 14.984375 22.515625 14.984375 16.5 
Q 14.984375 11.71875 18.140625 8.90625 
Q 21.296875 6.109375 26.703125 6.109375 
Q 34.1875 6.109375 38.703125 11.40625 
Q 43.21875 16.703125 43.21875 25.484375 
L 43.21875 27.484375 
z
M 52.203125 31.203125 
L 52.203125 0 
L 43.21875 0 
L 43.21875 8.296875 
Q 40.140625 3.328125 35.546875 0.953125 
Q 30.953125 -1.421875 24.3125 -1.421875 
Q 15.921875 -1.421875 10.953125 3.296875 
Q 6 8.015625 6 15.921875 
Q 6 25.140625 12.171875 29.828125 
Q 18.359375 34.515625 30.609375 34.515625 
L 43.21875 34.515625 
L 43.21875 35.40625 
Q 43.21875 41.609375 39.140625 45 
Q 35.0625 48.390625 27.6875 48.390625 
Q 23 48.390625 18.546875 47.265625 
Q 14.109375 46.140625 10.015625 43.890625 
L 10.015625 52.203125 
Q 14.9375 54.109375 19.578125 55.046875 
Q 24.21875 56 28.609375 56 
Q 40.484375 56 46.34375 49.84375 
Q 52.203125 43.703125 52.203125 31.203125 
z
" id="DejaVuSans-97"/>
      <path d="M 41.109375 46.296875 
Q 39.59375 47.171875 37.8125 47.578125 
Q 36.03125 48 33.890625 48 
Q 26.265625 48 22.1875 43.046875 
Q 18.109375 38.09375 18.109375 28.8125 
L 18.109375 0 
L 9.078125 0 
L 9.078125 54.6875 
L 18.109375 54.6875 
L 18.109375 46.1875 
Q 20.953125 51.171875 25.484375 53.578125 
Q 30.03125 56 36.53125 56 
Q 37.453125 56 38.578125 55.875 
Q 39.703125 55.765625 41.0625 55.515625 
z
" id="DejaVuSans-114"/>
      <path d="M 45.40625 27.984375 
Q 45.40625 37.75 41.375 43.109375 
Q 37.359375 48.484375 30.078125 48.484375 
Q 22.859375 48.484375 18.828125 43.109375 
Q 14.796875 37.75 14.796875 27.984375 
Q 14.796875 18.265625 18.828125 12.890625 
Q 22.859375 7.515625 30.078125 7.515625 
Q 37.359375 7.515625 41.375 12.890625 
Q 45.40625 18.265625 45.40625 27.984375 
z
M 54.390625 6.78125 
Q 54.390625 -7.171875 48.1875 -13.984375 
Q 42 -20.796875 29.203125 -20.796875 
Q 24.46875 -20.796875 20.265625 -20.09375 
Q 16.0625 -19.390625 12.109375 -17.921875 
L 12.109375 -9.1875 
Q 16.0625 -11.328125 19.921875 -12.34375 
Q 23.78125 -13.375 27.78125 -13.375 
Q 36.625 -13.375 41.015625 -8.765625 
Q 45.40625 -4.15625 45.40625 5.171875 
L 45.40625 9.625 
Q 42.625 4.78125 38.28125 2.390625 
Q 33.9375 0 27.875 0 
Q 17.828125 0 11.671875 7.65625 
Q 5.515625 15.328125 5.515625 27.984375 
Q 5.515625 40.671875 11.671875 48.328125 
Q 17.828125 56 27.875 56 
Q 33.9375 56 38.28125 53.609375 
Q 42.625 51.21875 45.40625 46.390625 
L 45.40625 54.6875 
L 54.390625 54.6875 
z
" id="DejaVuSans-103"/>
      <path d="M 30.609375 48.390625 
Q 23.390625 48.390625 19.1875 42.75 
Q 14.984375 37.109375 14.984375 27.296875 
Q 14.984375 17.484375 19.15625 11.84375 
Q 23.34375 6.203125 30.609375 6.203125 
Q 37.796875 6.203125 41.984375 11.859375 
Q 46.1875 17.53125 46.1875 27.296875 
Q 46.1875 37.015625 41.984375 42.703125 
Q 37.796875 48.390625 30.609375 48.390625 
z
M 30.609375 56 
Q 42.328125 56 49.015625 48.375 
Q 55.71875 40.765625 55.71875 27.296875 
Q 55.71875 13.875 49.015625 6.21875 
Q 42.328125 -1.421875 30.609375 -1.421875 
Q 18.84375 -1.421875 12.171875 6.21875 
Q 5.515625 13.875 5.515625 27.296875 
Q 5.515625 40.765625 12.171875 48.375 
Q 18.84375 56 30.609375 56 
z
" id="DejaVuSans-111"/>
     </defs>
     <g transform="translate(195.71 247.532312)scale(0.1 -0.1)">
      <use xlink:href="#DejaVuSans-108"/>
      <use x="27.783203" xlink:href="#DejaVuSans-105"/>
      <use x="55.566406" xlink:href="#DejaVuSans-110"/>
      <use x="118.945312" xlink:href="#DejaVuSans-101"/>
      <use x="180.46875" xlink:href="#DejaVuSans-97"/>
      <use x="241.748047" xlink:href="#DejaVuSans-114"/>
      <use x="282.861328" xlink:href="#DejaVuSans-32"/>
      <use x="314.648438" xlink:href="#DejaVuSans-114"/>
      <use x="353.511719" xlink:href="#DejaVuSans-101"/>
      <use x="415.035156" xlink:href="#DejaVuSans-103"/>
      <use x="478.511719" xlink:href="#DejaVuSans-105"/>
      <use x="506.294922" xlink:href="#DejaVuSans-111"/>
      <use x="567.476562" xlink:href="#DejaVuSans-110"/>
     </g>
    </g>
    <g id="line2d_67">
     <path d="M 167.71 258.712 
L 187.71 258.712 
" style="fill:none;stroke:#000000;stroke-dasharray:5.55,2.4;stroke-dashoffset:0;stroke-width:1.5;"/>
    </g>
    <g id="line2d_68"/>
    <g id="text_15">
     <!-- $ \exp(-0.996 k)$ -->
     <defs>
      <path d="M 54.890625 54.6875 
L 35.109375 28.078125 
L 55.90625 0 
L 45.3125 0 
L 29.390625 21.484375 
L 13.484375 0 
L 2.875 0 
L 24.125 28.609375 
L 4.6875 54.6875 
L 15.28125 54.6875 
L 29.78125 35.203125 
L 44.28125 54.6875 
z
" id="DejaVuSans-120"/>
      <path d="M 18.109375 8.203125 
L 18.109375 -20.796875 
L 9.078125 -20.796875 
L 9.078125 54.6875 
L 18.109375 54.6875 
L 18.109375 46.390625 
Q 20.953125 51.265625 25.265625 53.625 
Q 29.59375 56 35.59375 56 
Q 45.5625 56 51.78125 48.09375 
Q 58.015625 40.1875 58.015625 27.296875 
Q 58.015625 14.40625 51.78125 6.484375 
Q 45.5625 -1.421875 35.59375 -1.421875 
Q 29.59375 -1.421875 25.265625 0.953125 
Q 20.953125 3.328125 18.109375 8.203125 
z
M 48.6875 27.296875 
Q 48.6875 37.203125 44.609375 42.84375 
Q 40.53125 48.484375 33.40625 48.484375 
Q 26.265625 48.484375 22.1875 42.84375 
Q 18.109375 37.203125 18.109375 27.296875 
Q 18.109375 17.390625 22.1875 11.75 
Q 26.265625 6.109375 33.40625 6.109375 
Q 40.53125 6.109375 44.609375 11.75 
Q 48.6875 17.390625 48.6875 27.296875 
z
" id="DejaVuSans-112"/>
      <path d="M 31 75.875 
Q 24.46875 64.65625 21.28125 53.65625 
Q 18.109375 42.671875 18.109375 31.390625 
Q 18.109375 20.125 21.3125 9.0625 
Q 24.515625 -2 31 -13.1875 
L 23.1875 -13.1875 
Q 15.875 -1.703125 12.234375 9.375 
Q 8.59375 20.453125 8.59375 31.390625 
Q 8.59375 42.28125 12.203125 53.3125 
Q 15.828125 64.359375 23.1875 75.875 
z
" id="DejaVuSans-40"/>
      <path d="M 10.6875 12.40625 
L 21 12.40625 
L 21 0 
L 10.6875 0 
z
" id="DejaVuSans-46"/>
      <path d="M 10.984375 1.515625 
L 10.984375 10.5 
Q 14.703125 8.734375 18.5 7.8125 
Q 22.3125 6.890625 25.984375 6.890625 
Q 35.75 6.890625 40.890625 13.453125 
Q 46.046875 20.015625 46.78125 33.40625 
Q 43.953125 29.203125 39.59375 26.953125 
Q 35.25 24.703125 29.984375 24.703125 
Q 19.046875 24.703125 12.671875 31.3125 
Q 6.296875 37.9375 6.296875 49.421875 
Q 6.296875 60.640625 12.9375 67.421875 
Q 19.578125 74.21875 30.609375 74.21875 
Q 43.265625 74.21875 49.921875 64.515625 
Q 56.59375 54.828125 56.59375 36.375 
Q 56.59375 19.140625 48.40625 8.859375 
Q 40.234375 -1.421875 26.421875 -1.421875 
Q 22.703125 -1.421875 18.890625 -0.6875 
Q 15.09375 0.046875 10.984375 1.515625 
z
M 30.609375 32.421875 
Q 37.25 32.421875 41.125 36.953125 
Q 45.015625 41.5 45.015625 49.421875 
Q 45.015625 57.28125 41.125 61.84375 
Q 37.25 66.40625 30.609375 66.40625 
Q 23.96875 66.40625 20.09375 61.84375 
Q 16.21875 57.28125 16.21875 49.421875 
Q 16.21875 41.5 20.09375 36.953125 
Q 23.96875 32.421875 30.609375 32.421875 
z
" id="DejaVuSans-57"/>
      <path d="M 33.015625 40.375 
Q 26.375 40.375 22.484375 35.828125 
Q 18.609375 31.296875 18.609375 23.390625 
Q 18.609375 15.53125 22.484375 10.953125 
Q 26.375 6.390625 33.015625 6.390625 
Q 39.65625 6.390625 43.53125 10.953125 
Q 47.40625 15.53125 47.40625 23.390625 
Q 47.40625 31.296875 43.53125 35.828125 
Q 39.65625 40.375 33.015625 40.375 
z
M 52.59375 71.296875 
L 52.59375 62.3125 
Q 48.875 64.0625 45.09375 64.984375 
Q 41.3125 65.921875 37.59375 65.921875 
Q 27.828125 65.921875 22.671875 59.328125 
Q 17.53125 52.734375 16.796875 39.40625 
Q 19.671875 43.65625 24.015625 45.921875 
Q 28.375 48.1875 33.59375 48.1875 
Q 44.578125 48.1875 50.953125 41.515625 
Q 57.328125 34.859375 57.328125 23.390625 
Q 57.328125 12.15625 50.6875 5.359375 
Q 44.046875 -1.421875 33.015625 -1.421875 
Q 20.359375 -1.421875 13.671875 8.265625 
Q 6.984375 17.96875 6.984375 36.375 
Q 6.984375 53.65625 15.1875 63.9375 
Q 23.390625 74.21875 37.203125 74.21875 
Q 40.921875 74.21875 44.703125 73.484375 
Q 48.484375 72.75 52.59375 71.296875 
z
" id="DejaVuSans-54"/>
      <path d="M 8.015625 75.875 
L 15.828125 75.875 
Q 23.140625 64.359375 26.78125 53.3125 
Q 30.421875 42.28125 30.421875 31.390625 
Q 30.421875 20.453125 26.78125 9.375 
Q 23.140625 -1.703125 15.828125 -13.1875 
L 8.015625 -13.1875 
Q 14.5 -2 17.703125 9.0625 
Q 20.90625 20.125 20.90625 31.390625 
Q 20.90625 42.671875 17.703125 53.65625 
Q 14.5 64.65625 8.015625 75.875 
z
" id="DejaVuSans-41"/>
     </defs>
     <g transform="translate(195.71 262.212)scale(0.1 -0.1)">
      <use transform="translate(0 0.015625)" xlink:href="#DejaVuSans-101"/>
      <use transform="translate(61.523438 0.015625)" xlink:href="#DejaVuSans-120"/>
      <use transform="translate(120.703125 0.015625)" xlink:href="#DejaVuSans-112"/>
      <use transform="translate(184.179688 0.015625)" xlink:href="#DejaVuSans-40"/>
      <use transform="translate(223.193359 0.015625)" xlink:href="#DejaVuSans-8722"/>
      <use transform="translate(306.982422 0.015625)" xlink:href="#DejaVuSans-48"/>
      <use transform="translate(370.605469 0.015625)" xlink:href="#DejaVuSans-46"/>
      <use transform="translate(402.392578 0.015625)" xlink:href="#DejaVuSans-57"/>
      <use transform="translate(466.015625 0.015625)" xlink:href="#DejaVuSans-57"/>
      <use transform="translate(529.638672 0.015625)" xlink:href="#DejaVuSans-54"/>
      <use transform="translate(593.261719 0.015625)" xlink:href="#DejaVuSans-Oblique-107"/>
      <use transform="translate(651.171875 0.015625)" xlink:href="#DejaVuSans-41"/>
     </g>
    </g>
   </g>
  </g>
 </g>
 <defs>
  <clipPath id="p557039fa00">
   <rect height="266.112" width="357.12" x="37.7" y="7.2"/>
  </clipPath>
 </defs>
</svg>
