<?xml version="1.0" encoding="utf-8" standalone="no"?>
<!DOCTYPE svg PUBLIC "-//W3C//DTD SVG 1.1//EN"
  "http://www.w3.org/Graphics/SVG/1.1/DTD/svg11.dtd">
<!-- Created with matplotlib (https://matplotlib.org/) -->
<svg height="310.86825pt" version="1.1" viewBox="0 0 402.02 310.86825" width="402.02pt" xmlns="http://www.w3.org/2000/svg" xmlns:xlink="http://www.w3.org/1999/xlink">
 <defs>
  <style type="text/css">
*{stroke-linecap:butt;stroke-linejoin:round;}
  </style>
 </defs>
 <g id="figure_1">
  <g id="patch_1">
   <path d="M 0 310.86825 
L 402.02 310.86825 
L 402.02 0 
L 0 0 
z
" style="fill:#ffffff;"/>
  </g>
  <g id="axes_1">
   <g id="patch_2">
    <path d="M 37.7 273.312 
L 394.82 273.312 
L 394.82 7.2 
L 37.7 7.2 
z
" style="fill:#ffffff;"/>
   </g>
   <g id="matplotlib.axis_1">
    <g id="xtick_1">
     <g id="line2d_1">
      <defs>
       <path d="M 0 0 
L 0 3.5 
" id="mdce30ae091" style="stroke:#000000;stroke-width:0.8;"/>
      </defs>
      <g>
       <use style="stroke:#000000;stroke-width:0.8;" x="53.932727" xlink:href="#mdce30ae091" y="273.312"/>
      </g>
     </g>
     <g id="text_1">
      <!-- 0 -->
      <defs>
       <path d="M 31.78125 66.40625 
Q 24.171875 66.40625 20.328125 58.90625 
Q 16.5 51.421875 16.5 36.375 
Q 16.5 21.390625 20.328125 13.890625 
Q 24.171875 6.390625 31.78125 6.390625 
Q 39.453125 6.390625 43.28125 13.890625 
Q 47.125 21.390625 47.125 36.375 
Q 47.125 51.421875 43.28125 58.90625 
Q 39.453125 66.40625 31.78125 66.40625 
z
M 31.78125 74.21875 
Q 44.046875 74.21875 50.515625 64.515625 
Q 56.984375 54.828125 56.984375 36.375 
Q 56.984375 17.96875 50.515625 8.265625 
Q 44.046875 -1.421875 31.78125 -1.421875 
Q 19.53125 -1.421875 13.0625 8.265625 
Q 6.59375 17.96875 6.59375 36.375 
Q 6.59375 54.828125 13.0625 64.515625 
Q 19.53125 74.21875 31.78125 74.21875 
z
" id="DejaVuSans-48"/>
      </defs>
      <g transform="translate(50.751477 287.910437)scale(0.1 -0.1)">
       <use xlink:href="#DejaVuSans-48"/>
      </g>
     </g>
    </g>
    <g id="xtick_2">
     <g id="line2d_2">
      <g>
       <use style="stroke:#000000;stroke-width:0.8;" x="106.465825" xlink:href="#mdce30ae091" y="273.312"/>
      </g>
     </g>
     <g id="text_2">
      <!-- 50 -->
      <defs>
       <path d="M 10.796875 72.90625 
L 49.515625 72.90625 
L 49.515625 64.59375 
L 19.828125 64.59375 
L 19.828125 46.734375 
Q 21.96875 47.46875 24.109375 47.828125 
Q 26.265625 48.1875 28.421875 48.1875 
Q 40.625 48.1875 47.75 41.5 
Q 54.890625 34.8125 54.890625 23.390625 
Q 54.890625 11.625 47.5625 5.09375 
Q 40.234375 -1.421875 26.90625 -1.421875 
Q 22.3125 -1.421875 17.546875 -0.640625 
Q 12.796875 0.140625 7.71875 1.703125 
L 7.71875 11.625 
Q 12.109375 9.234375 16.796875 8.0625 
Q 21.484375 6.890625 26.703125 6.890625 
Q 35.15625 6.890625 40.078125 11.328125 
Q 45.015625 15.765625 45.015625 23.390625 
Q 45.015625 31 40.078125 35.4375 
Q 35.15625 39.890625 26.703125 39.890625 
Q 22.75 39.890625 18.8125 39.015625 
Q 14.890625 38.140625 10.796875 36.28125 
z
" id="DejaVuSans-53"/>
      </defs>
      <g transform="translate(100.103325 287.910437)scale(0.1 -0.1)">
       <use xlink:href="#DejaVuSans-53"/>
       <use x="63.623047" xlink:href="#DejaVuSans-48"/>
      </g>
     </g>
    </g>
    <g id="xtick_3">
     <g id="line2d_3">
      <g>
       <use style="stroke:#000000;stroke-width:0.8;" x="158.998923" xlink:href="#mdce30ae091" y="273.312"/>
      </g>
     </g>
     <g id="text_3">
      <!-- 100 -->
      <defs>
       <path d="M 12.40625 8.296875 
L 28.515625 8.296875 
L 28.515625 63.921875 
L 10.984375 60.40625 
L 10.984375 69.390625 
L 28.421875 72.90625 
L 38.28125 72.90625 
L 38.28125 8.296875 
L 54.390625 8.296875 
L 54.390625 0 
L 12.40625 0 
z
" id="DejaVuSans-49"/>
      </defs>
      <g transform="translate(149.455173 287.910437)scale(0.1 -0.1)">
       <use xlink:href="#DejaVuSans-49"/>
       <use x="63.623047" xlink:href="#DejaVuSans-48"/>
       <use x="127.246094" xlink:href="#DejaVuSans-48"/>
      </g>
     </g>
    </g>
    <g id="xtick_4">
     <g id="line2d_4">
      <g>
       <use style="stroke:#000000;stroke-width:0.8;" x="211.532021" xlink:href="#mdce30ae091" y="273.312"/>
      </g>
     </g>
     <g id="text_4">
      <!-- 150 -->
      <g transform="translate(201.988271 287.910437)scale(0.1 -0.1)">
       <use xlink:href="#DejaVuSans-49"/>
       <use x="63.623047" xlink:href="#DejaVuSans-53"/>
       <use x="127.246094" xlink:href="#DejaVuSans-48"/>
      </g>
     </g>
    </g>
    <g id="xtick_5">
     <g id="line2d_5">
      <g>
       <use style="stroke:#000000;stroke-width:0.8;" x="264.065119" xlink:href="#mdce30ae091" y="273.312"/>
      </g>
     </g>
     <g id="text_5">
      <!-- 200 -->
      <defs>
       <path d="M 19.1875 8.296875 
L 53.609375 8.296875 
L 53.609375 0 
L 7.328125 0 
L 7.328125 8.296875 
Q 12.9375 14.109375 22.625 23.890625 
Q 32.328125 33.6875 34.8125 36.53125 
Q 39.546875 41.84375 41.421875 45.53125 
Q 43.3125 49.21875 43.3125 52.78125 
Q 43.3125 58.59375 39.234375 62.25 
Q 35.15625 65.921875 28.609375 65.921875 
Q 23.96875 65.921875 18.8125 64.3125 
Q 13.671875 62.703125 7.8125 59.421875 
L 7.8125 69.390625 
Q 13.765625 71.78125 18.9375 73 
Q 24.125 74.21875 28.421875 74.21875 
Q 39.75 74.21875 46.484375 68.546875 
Q 53.21875 62.890625 53.21875 53.421875 
Q 53.21875 48.921875 51.53125 44.890625 
Q 49.859375 40.875 45.40625 35.40625 
Q 44.1875 33.984375 37.640625 27.21875 
Q 31.109375 20.453125 19.1875 8.296875 
z
" id="DejaVuSans-50"/>
      </defs>
      <g transform="translate(254.521369 287.910437)scale(0.1 -0.1)">
       <use xlink:href="#DejaVuSans-50"/>
       <use x="63.623047" xlink:href="#DejaVuSans-48"/>
       <use x="127.246094" xlink:href="#DejaVuSans-48"/>
      </g>
     </g>
    </g>
    <g id="xtick_6">
     <g id="line2d_6">
      <g>
       <use style="stroke:#000000;stroke-width:0.8;" x="316.598217" xlink:href="#mdce30ae091" y="273.312"/>
      </g>
     </g>
     <g id="text_6">
      <!-- 250 -->
      <g transform="translate(307.054467 287.910437)scale(0.1 -0.1)">
       <use xlink:href="#DejaVuSans-50"/>
       <use x="63.623047" xlink:href="#DejaVuSans-53"/>
       <use x="127.246094" xlink:href="#DejaVuSans-48"/>
      </g>
     </g>
    </g>
    <g id="xtick_7">
     <g id="line2d_7">
      <g>
       <use style="stroke:#000000;stroke-width:0.8;" x="369.131315" xlink:href="#mdce30ae091" y="273.312"/>
      </g>
     </g>
     <g id="text_7">
      <!-- 300 -->
      <defs>
       <path d="M 40.578125 39.3125 
Q 47.65625 37.796875 51.625 33 
Q 55.609375 28.21875 55.609375 21.1875 
Q 55.609375 10.40625 48.1875 4.484375 
Q 40.765625 -1.421875 27.09375 -1.421875 
Q 22.515625 -1.421875 17.65625 -0.515625 
Q 12.796875 0.390625 7.625 2.203125 
L 7.625 11.71875 
Q 11.71875 9.328125 16.59375 8.109375 
Q 21.484375 6.890625 26.8125 6.890625 
Q 36.078125 6.890625 40.9375 10.546875 
Q 45.796875 14.203125 45.796875 21.1875 
Q 45.796875 27.640625 41.28125 31.265625 
Q 36.765625 34.90625 28.71875 34.90625 
L 20.21875 34.90625 
L 20.21875 43.015625 
L 29.109375 43.015625 
Q 36.375 43.015625 40.234375 45.921875 
Q 44.09375 48.828125 44.09375 54.296875 
Q 44.09375 59.90625 40.109375 62.90625 
Q 36.140625 65.921875 28.71875 65.921875 
Q 24.65625 65.921875 20.015625 65.03125 
Q 15.375 64.15625 9.8125 62.3125 
L 9.8125 71.09375 
Q 15.4375 72.65625 20.34375 73.4375 
Q 25.25 74.21875 29.59375 74.21875 
Q 40.828125 74.21875 47.359375 69.109375 
Q 53.90625 64.015625 53.90625 55.328125 
Q 53.90625 49.265625 50.4375 45.09375 
Q 46.96875 40.921875 40.578125 39.3125 
z
" id="DejaVuSans-51"/>
      </defs>
      <g transform="translate(359.587565 287.910437)scale(0.1 -0.1)">
       <use xlink:href="#DejaVuSans-51"/>
       <use x="63.623047" xlink:href="#DejaVuSans-48"/>
       <use x="127.246094" xlink:href="#DejaVuSans-48"/>
      </g>
     </g>
    </g>
    <g id="text_8">
     <!-- $ k $ -->
     <defs>
      <path d="M 18.3125 75.984375 
L 27.296875 75.984375 
L 18.703125 31.6875 
L 49.515625 54.6875 
L 61.1875 54.6875 
L 26.8125 28.515625 
L 51.90625 0 
L 41.015625 0 
L 17.671875 26.703125 
L 12.5 0 
L 3.515625 0 
z
" id="DejaVuSans-Oblique-107"/>
     </defs>
     <g transform="translate(213.36 301.588562)scale(0.1 -0.1)">
      <use transform="translate(0 0.015625)" xlink:href="#DejaVuSans-Oblique-107"/>
     </g>
    </g>
   </g>
   <g id="matplotlib.axis_2">
    <g id="ytick_1">
     <g id="line2d_8">
      <defs>
       <path d="M 0 0 
L -3.5 0 
" id="mbb7a974c14" style="stroke:#000000;stroke-width:0.8;"/>
      </defs>
      <g>
       <use style="stroke:#000000;stroke-width:0.8;" x="37.7" xlink:href="#mbb7a974c14" y="237.483637"/>
      </g>
     </g>
     <g id="text_9">
      <!-- $\mathdefault{10^{-5}}$ -->
      <defs>
       <path d="M 10.59375 35.5 
L 73.1875 35.5 
L 73.1875 27.203125 
L 10.59375 27.203125 
z
" id="DejaVuSans-8722"/>
      </defs>
      <g transform="translate(7.2 241.282856)scale(0.1 -0.1)">
       <use transform="translate(0 0.684375)" xlink:href="#DejaVuSans-49"/>
       <use transform="translate(63.623047 0.684375)" xlink:href="#DejaVuSans-48"/>
       <use transform="translate(128.203125 38.965625)scale(0.7)" xlink:href="#DejaVuSans-8722"/>
       <use transform="translate(186.855469 38.965625)scale(0.7)" xlink:href="#DejaVuSans-53"/>
      </g>
     </g>
    </g>
    <g id="ytick_2">
     <g id="line2d_9">
      <g>
       <use style="stroke:#000000;stroke-width:0.8;" x="37.7" xlink:href="#mbb7a974c14" y="176.477326"/>
      </g>
     </g>
     <g id="text_10">
      <!-- $\mathdefault{10^{-3}}$ -->
      <g transform="translate(7.2 180.276545)scale(0.1 -0.1)">
       <use transform="translate(0 0.765625)" xlink:href="#DejaVuSans-49"/>
       <use transform="translate(63.623047 0.765625)" xlink:href="#DejaVuSans-48"/>
       <use transform="translate(128.203125 39.046875)scale(0.7)" xlink:href="#DejaVuSans-8722"/>
       <use transform="translate(186.855469 39.046875)scale(0.7)" xlink:href="#DejaVuSans-51"/>
      </g>
     </g>
    </g>
    <g id="ytick_3">
     <g id="line2d_10">
      <g>
       <use style="stroke:#000000;stroke-width:0.8;" x="37.7" xlink:href="#mbb7a974c14" y="115.471015"/>
      </g>
     </g>
     <g id="text_11">
      <!-- $\mathdefault{10^{-1}}$ -->
      <g transform="translate(7.2 119.270234)scale(0.1 -0.1)">
       <use transform="translate(0 0.684375)" xlink:href="#DejaVuSans-49"/>
       <use transform="translate(63.623047 0.684375)" xlink:href="#DejaVuSans-48"/>
       <use transform="translate(128.203125 38.965625)scale(0.7)" xlink:href="#DejaVuSans-8722"/>
       <use transform="translate(186.855469 38.965625)scale(0.7)" xlink:href="#DejaVuSans-49"/>
      </g>
     </g>
    </g>
    <g id="ytick_4">
     <g id="line2d_11">
      <g>
       <use style="stroke:#000000;stroke-width:0.8;" x="37.7" xlink:href="#mbb7a974c14" y="54.464705"/>
      </g>
     </g>
     <g id="text_12">
      <!-- $\mathdefault{10^{1}}$ -->
      <g transform="translate(13.1 58.263923)scale(0.1 -0.1)">
       <use transform="translate(0 0.684375)" xlink:href="#DejaVuSans-49"/>
       <use transform="translate(63.623047 0.684375)" xlink:href="#DejaVuSans-48"/>
       <use transform="translate(128.203125 38.965625)scale(0.7)" xlink:href="#DejaVuSans-49"/>
      </g>
     </g>
    </g>
   </g>
   <g id="line2d_12">
    <path clip-path="url(#p1f87d91d72)" d="M 53.932727 30.591727 
L 54.983389 19.296 
L 56.034051 53.608311 
L 57.084713 62.094641 
L 59.186037 75.994446 
L 60.236699 81.862957 
L 62.338023 91.524854 
L 65.490009 103.598233 
L 68.641995 115.109383 
L 71.793981 126.171025 
L 72.844643 130.249176 
L 73.895305 133.727698 
L 74.945966 138.020992 
L 75.996628 141.200711 
L 77.04729 145.995385 
L 78.097952 148.610073 
L 79.148614 153.636515 
L 80.199276 155.689856 
L 81.249938 162.138804 
L 82.3006 163.057069 
L 83.351262 171.954743 
L 84.401924 170.015973 
L 85.452586 183.718798 
L 86.503248 173.686818 
L 87.55391 188.242023 
L 88.604572 175.977659 
L 89.655234 187.069712 
L 90.705896 176.640601 
L 91.756558 237.719794 
L 92.80722 185.018818 
L 93.857882 188.849891 
L 94.908544 202.115999 
L 95.959206 183.141547 
L 97.009868 213.623864 
L 98.06053 182.827479 
L 99.111192 204.356733 
L 100.161853 186.847685 
L 101.212515 197.514468 
L 102.263177 187.616537 
L 103.313839 198.482429 
L 105.415163 192.871571 
L 106.465825 187.810261 
L 107.516487 190.677477 
L 108.567149 199.699894 
L 109.617811 190.190427 
L 110.668473 191.803591 
L 111.719135 183.71146 
L 112.769797 193.712763 
L 113.820459 188.381656 
L 114.871121 187.105006 
L 115.921783 189.652687 
L 116.972445 200.494698 
L 118.023107 187.041315 
L 119.073769 187.321061 
L 120.124431 193.795561 
L 121.175093 190.948984 
L 122.225755 189.513821 
L 123.276417 190.812235 
L 124.327079 202.111664 
L 125.377741 179.979729 
L 126.428402 184.373605 
L 127.479064 176.700963 
L 128.529726 185.930935 
L 129.580388 176.75498 
L 130.63105 192.494542 
L 131.681712 180.950575 
L 132.732374 212.401038 
L 133.783036 186.055883 
L 134.833698 188.330817 
L 135.88436 243.265038 
L 136.935022 186.922881 
L 137.985684 187.510949 
L 139.036346 190.782366 
L 140.087008 182.18758 
L 141.13767 205.614717 
L 142.188332 179.937909 
L 143.238994 254.301599 
L 144.289656 184.712808 
L 145.340318 194.889094 
L 146.39098 185.206333 
L 147.441642 204.865564 
L 148.492304 181.653391 
L 149.542966 201.294463 
L 150.593628 187.884532 
L 151.644289 193.582956 
L 152.694951 185.949214 
L 153.745613 195.324732 
L 154.796275 187.95376 
L 155.846937 190.552791 
L 156.897599 197.840131 
L 157.948261 187.469481 
L 158.998923 185.27817 
L 160.049585 195.686759 
L 161.100247 178.975982 
L 162.150909 205.503125 
L 163.201571 178.411837 
L 164.252233 208.405629 
L 165.302895 180.877341 
L 166.353557 212.345811 
L 167.404219 184.530309 
L 168.454881 200.2984 
L 169.505543 182.218173 
L 170.556205 200.817535 
L 171.606867 196.228049 
L 172.657529 179.842024 
L 173.708191 197.799211 
L 174.758853 181.77402 
L 175.809515 226.783327 
L 176.860177 182.634723 
L 177.910838 190.805694 
L 178.9615 190.598579 
L 180.012162 196.385548 
L 181.062824 183.777075 
L 182.113486 195.844494 
L 183.164148 192.622668 
L 184.21481 186.999156 
L 185.265472 191.210979 
L 186.316134 191.892018 
L 187.366796 187.334132 
L 188.417458 201.949334 
L 189.46812 186.009366 
L 190.518782 203.686208 
L 191.569444 177.945171 
L 192.620106 205.006986 
L 193.670768 182.263174 
L 194.72143 209.938126 
L 195.772092 184.615176 
L 196.822754 199.52603 
L 197.873416 174.3197 
L 198.924078 180.461617 
L 199.97474 174.101474 
L 201.025402 195.574628 
L 202.076064 176.12309 
L 203.126726 188.808088 
L 204.177387 178.237967 
L 205.228049 197.017414 
L 206.278711 197.544003 
L 207.329373 179.026096 
L 208.380035 196.735136 
L 209.430697 177.100215 
L 210.481359 176.481072 
L 211.532021 172.093382 
L 212.582683 188.005372 
L 213.633345 180.965733 
L 214.684007 195.172855 
L 215.734669 181.983402 
L 216.785331 208.04384 
L 217.835993 183.476305 
L 218.886655 213.107456 
L 219.937317 183.006117 
L 220.987979 191.385274 
L 222.038641 192.209199 
L 223.089303 261.216 
L 224.139965 182.993287 
L 225.190627 202.234284 
L 226.241289 189.522763 
L 227.291951 185.733834 
L 228.342613 187.788155 
L 229.393274 193.578278 
L 230.443936 195.807157 
L 231.494598 187.01033 
L 232.54526 187.082995 
L 233.595922 205.420198 
L 234.646584 183.45843 
L 235.697246 225.922559 
L 236.747908 184.355564 
L 237.79857 184.926396 
L 238.849232 199.029786 
L 239.899894 181.249886 
L 240.950556 198.094183 
L 242.001218 186.950708 
L 243.05188 189.078243 
L 244.102542 189.394473 
L 245.153204 186.309924 
L 246.203866 200.616759 
L 247.254528 180.35722 
L 248.30519 195.849054 
L 249.355852 207.257012 
L 250.406514 206.128054 
L 251.457176 193.312242 
L 252.507838 194.242719 
L 253.5585 192.210639 
L 254.609162 188.024073 
L 255.659823 196.26302 
L 256.710485 186.943048 
L 257.761147 203.233537 
L 258.811809 180.174382 
L 259.862471 189.984437 
L 260.913133 177.969005 
L 261.963795 198.112874 
L 263.014457 179.861907 
L 264.065119 249.976276 
L 265.115781 189.032658 
L 266.166443 188.740902 
L 267.217105 193.193768 
L 268.267767 195.781909 
L 269.318429 186.71139 
L 270.369091 198.197484 
L 271.419753 191.553516 
L 272.470415 192.664776 
L 273.521077 187.52125 
L 274.571739 186.630654 
L 275.622401 186.490556 
L 276.673063 193.981528 
L 277.723725 179.13073 
L 278.774387 212.408921 
L 279.825049 184.950365 
L 280.875711 190.923652 
L 281.926372 200.114034 
L 282.977034 181.514584 
L 284.027696 188.641002 
L 285.078358 179.551182 
L 286.12902 204.648946 
L 287.179682 176.039083 
L 288.230344 187.845754 
L 289.281006 179.140699 
L 290.331668 193.498486 
L 291.38233 177.452448 
L 292.432992 221.441546 
L 293.483654 217.640042 
L 294.534316 188.563438 
L 295.584978 185.626241 
L 296.63564 195.974632 
L 297.686302 197.798983 
L 298.736964 181.471242 
L 299.787626 192.213642 
L 300.838288 178.535251 
L 301.88895 207.262028 
L 302.939612 183.041062 
L 303.990274 193.532445 
L 305.040936 193.236635 
L 306.091598 227.559878 
L 307.142259 186.617164 
L 308.192921 197.271187 
L 309.243583 187.084363 
L 310.294245 184.115334 
L 311.344907 188.273467 
L 312.395569 193.39679 
L 313.446231 181.141535 
L 314.496893 197.374963 
L 315.547555 178.766491 
L 316.598217 200.252727 
L 317.648879 184.442912 
L 318.699541 195.388376 
L 319.750203 189.391679 
L 320.800865 182.69075 
L 321.851527 196.537911 
L 322.902189 177.490301 
L 323.952851 205.812401 
L 325.003513 181.388625 
L 326.054175 232.571823 
L 327.104837 178.742054 
L 328.155499 206.477083 
L 329.206161 188.137234 
L 330.256823 192.482334 
L 331.307485 191.823479 
L 332.358147 184.978649 
L 333.408808 204.701201 
L 334.45947 187.174378 
L 335.510132 191.53687 
L 336.560794 190.210307 
L 337.611456 188.546906 
L 338.662118 212.702333 
L 339.71278 179.188489 
L 340.763442 184.42656 
L 341.814104 177.266763 
L 342.864766 203.742767 
L 343.915428 182.231132 
L 344.96609 197.922095 
L 346.016752 200.753266 
L 347.067414 185.292322 
L 348.118076 202.827677 
L 349.168738 186.030913 
L 350.2194 193.114883 
L 351.270062 181.11973 
L 352.320724 192.846192 
L 353.371386 193.698815 
L 354.422048 188.369322 
L 355.47271 187.31384 
L 356.523372 206.833886 
L 357.574034 185.625967 
L 358.624695 195.231648 
L 359.675357 188.982589 
L 360.726019 184.460538 
L 361.776681 191.448287 
L 362.827343 183.917867 
L 363.878005 194.649426 
L 364.928667 178.173341 
L 365.979329 201.40357 
L 367.029991 182.19767 
L 368.080653 258.117016 
L 369.131315 182.270134 
L 370.181977 201.541995 
L 371.232639 185.970181 
L 372.283301 189.147152 
L 373.333963 200.064731 
L 374.384625 187.821301 
L 375.435287 189.867973 
L 376.485949 186.772371 
L 376.490272 311.86825 
L 376.490272 311.86825 
" style="fill:none;stroke:#1f77b4;stroke-linecap:square;stroke-width:1.5;"/>
    <defs>
     <path d="M 0 3 
C 0.795609 3 1.55874 2.683901 2.12132 2.12132 
C 2.683901 1.55874 3 0.795609 3 0 
C 3 -0.795609 2.683901 -1.55874 2.12132 -2.12132 
C 1.55874 -2.683901 0.795609 -3 0 -3 
C -0.795609 -3 -1.55874 -2.683901 -2.12132 -2.12132 
C -2.683901 -1.55874 -3 -0.795609 -3 0 
C -3 0.795609 -2.683901 1.55874 -2.12132 2.12132 
C -1.55874 2.683901 -0.795609 3 0 3 
z
" id="m34cebedb8c" style="stroke:#1f77b4;"/>
    </defs>
    <g clip-path="url(#p1f87d91d72)">
     <use style="fill:#1f77b4;stroke:#1f77b4;" x="53.932727" xlink:href="#m34cebedb8c" y="30.591727"/>
     <use style="fill:#1f77b4;stroke:#1f77b4;" x="54.983389" xlink:href="#m34cebedb8c" y="19.296"/>
     <use style="fill:#1f77b4;stroke:#1f77b4;" x="56.034051" xlink:href="#m34cebedb8c" y="53.608311"/>
     <use style="fill:#1f77b4;stroke:#1f77b4;" x="57.084713" xlink:href="#m34cebedb8c" y="62.094641"/>
     <use style="fill:#1f77b4;stroke:#1f77b4;" x="58.135375" xlink:href="#m34cebedb8c" y="69.047045"/>
     <use style="fill:#1f77b4;stroke:#1f77b4;" x="59.186037" xlink:href="#m34cebedb8c" y="75.994446"/>
     <use style="fill:#1f77b4;stroke:#1f77b4;" x="60.236699" xlink:href="#m34cebedb8c" y="81.862957"/>
     <use style="fill:#1f77b4;stroke:#1f77b4;" x="61.287361" xlink:href="#m34cebedb8c" y="86.871781"/>
     <use style="fill:#1f77b4;stroke:#1f77b4;" x="62.338023" xlink:href="#m34cebedb8c" y="91.524854"/>
     <use style="fill:#1f77b4;stroke:#1f77b4;" x="63.388685" xlink:href="#m34cebedb8c" y="95.665776"/>
     <use style="fill:#1f77b4;stroke:#1f77b4;" x="64.439347" xlink:href="#m34cebedb8c" y="99.770817"/>
     <use style="fill:#1f77b4;stroke:#1f77b4;" x="65.490009" xlink:href="#m34cebedb8c" y="103.598233"/>
     <use style="fill:#1f77b4;stroke:#1f77b4;" x="66.540671" xlink:href="#m34cebedb8c" y="107.516574"/>
     <use style="fill:#1f77b4;stroke:#1f77b4;" x="67.591333" xlink:href="#m34cebedb8c" y="111.243657"/>
     <use style="fill:#1f77b4;stroke:#1f77b4;" x="68.641995" xlink:href="#m34cebedb8c" y="115.109383"/>
     <use style="fill:#1f77b4;stroke:#1f77b4;" x="69.692657" xlink:href="#m34cebedb8c" y="118.750125"/>
     <use style="fill:#1f77b4;stroke:#1f77b4;" x="70.743319" xlink:href="#m34cebedb8c" y="122.625072"/>
     <use style="fill:#1f77b4;stroke:#1f77b4;" x="71.793981" xlink:href="#m34cebedb8c" y="126.171025"/>
     <use style="fill:#1f77b4;stroke:#1f77b4;" x="72.844643" xlink:href="#m34cebedb8c" y="130.249176"/>
     <use style="fill:#1f77b4;stroke:#1f77b4;" x="73.895305" xlink:href="#m34cebedb8c" y="133.727698"/>
     <use style="fill:#1f77b4;stroke:#1f77b4;" x="74.945966" xlink:href="#m34cebedb8c" y="138.020992"/>
     <use style="fill:#1f77b4;stroke:#1f77b4;" x="75.996628" xlink:href="#m34cebedb8c" y="141.200711"/>
     <use style="fill:#1f77b4;stroke:#1f77b4;" x="77.04729" xlink:href="#m34cebedb8c" y="145.995385"/>
     <use style="fill:#1f77b4;stroke:#1f77b4;" x="78.097952" xlink:href="#m34cebedb8c" y="148.610073"/>
     <use style="fill:#1f77b4;stroke:#1f77b4;" x="79.148614" xlink:href="#m34cebedb8c" y="153.636515"/>
     <use style="fill:#1f77b4;stroke:#1f77b4;" x="80.199276" xlink:href="#m34cebedb8c" y="155.689856"/>
     <use style="fill:#1f77b4;stroke:#1f77b4;" x="81.249938" xlink:href="#m34cebedb8c" y="162.138804"/>
     <use style="fill:#1f77b4;stroke:#1f77b4;" x="82.3006" xlink:href="#m34cebedb8c" y="163.057069"/>
     <use style="fill:#1f77b4;stroke:#1f77b4;" x="83.351262" xlink:href="#m34cebedb8c" y="171.954743"/>
     <use style="fill:#1f77b4;stroke:#1f77b4;" x="84.401924" xlink:href="#m34cebedb8c" y="170.015973"/>
     <use style="fill:#1f77b4;stroke:#1f77b4;" x="85.452586" xlink:href="#m34cebedb8c" y="183.718798"/>
     <use style="fill:#1f77b4;stroke:#1f77b4;" x="86.503248" xlink:href="#m34cebedb8c" y="173.686818"/>
     <use style="fill:#1f77b4;stroke:#1f77b4;" x="87.55391" xlink:href="#m34cebedb8c" y="188.242023"/>
     <use style="fill:#1f77b4;stroke:#1f77b4;" x="88.604572" xlink:href="#m34cebedb8c" y="175.977659"/>
     <use style="fill:#1f77b4;stroke:#1f77b4;" x="89.655234" xlink:href="#m34cebedb8c" y="187.069712"/>
     <use style="fill:#1f77b4;stroke:#1f77b4;" x="90.705896" xlink:href="#m34cebedb8c" y="176.640601"/>
     <use style="fill:#1f77b4;stroke:#1f77b4;" x="91.756558" xlink:href="#m34cebedb8c" y="237.719794"/>
     <use style="fill:#1f77b4;stroke:#1f77b4;" x="92.80722" xlink:href="#m34cebedb8c" y="185.018818"/>
     <use style="fill:#1f77b4;stroke:#1f77b4;" x="93.857882" xlink:href="#m34cebedb8c" y="188.849891"/>
     <use style="fill:#1f77b4;stroke:#1f77b4;" x="94.908544" xlink:href="#m34cebedb8c" y="202.115999"/>
     <use style="fill:#1f77b4;stroke:#1f77b4;" x="95.959206" xlink:href="#m34cebedb8c" y="183.141547"/>
     <use style="fill:#1f77b4;stroke:#1f77b4;" x="97.009868" xlink:href="#m34cebedb8c" y="213.623864"/>
     <use style="fill:#1f77b4;stroke:#1f77b4;" x="98.06053" xlink:href="#m34cebedb8c" y="182.827479"/>
     <use style="fill:#1f77b4;stroke:#1f77b4;" x="99.111192" xlink:href="#m34cebedb8c" y="204.356733"/>
     <use style="fill:#1f77b4;stroke:#1f77b4;" x="100.161853" xlink:href="#m34cebedb8c" y="186.847685"/>
     <use style="fill:#1f77b4;stroke:#1f77b4;" x="101.212515" xlink:href="#m34cebedb8c" y="197.514468"/>
     <use style="fill:#1f77b4;stroke:#1f77b4;" x="102.263177" xlink:href="#m34cebedb8c" y="187.616537"/>
     <use style="fill:#1f77b4;stroke:#1f77b4;" x="103.313839" xlink:href="#m34cebedb8c" y="198.482429"/>
     <use style="fill:#1f77b4;stroke:#1f77b4;" x="104.364501" xlink:href="#m34cebedb8c" y="195.626819"/>
     <use style="fill:#1f77b4;stroke:#1f77b4;" x="105.415163" xlink:href="#m34cebedb8c" y="192.871571"/>
     <use style="fill:#1f77b4;stroke:#1f77b4;" x="106.465825" xlink:href="#m34cebedb8c" y="187.810261"/>
     <use style="fill:#1f77b4;stroke:#1f77b4;" x="107.516487" xlink:href="#m34cebedb8c" y="190.677477"/>
     <use style="fill:#1f77b4;stroke:#1f77b4;" x="108.567149" xlink:href="#m34cebedb8c" y="199.699894"/>
     <use style="fill:#1f77b4;stroke:#1f77b4;" x="109.617811" xlink:href="#m34cebedb8c" y="190.190427"/>
     <use style="fill:#1f77b4;stroke:#1f77b4;" x="110.668473" xlink:href="#m34cebedb8c" y="191.803591"/>
     <use style="fill:#1f77b4;stroke:#1f77b4;" x="111.719135" xlink:href="#m34cebedb8c" y="183.71146"/>
     <use style="fill:#1f77b4;stroke:#1f77b4;" x="112.769797" xlink:href="#m34cebedb8c" y="193.712763"/>
     <use style="fill:#1f77b4;stroke:#1f77b4;" x="113.820459" xlink:href="#m34cebedb8c" y="188.381656"/>
     <use style="fill:#1f77b4;stroke:#1f77b4;" x="114.871121" xlink:href="#m34cebedb8c" y="187.105006"/>
     <use style="fill:#1f77b4;stroke:#1f77b4;" x="115.921783" xlink:href="#m34cebedb8c" y="189.652687"/>
     <use style="fill:#1f77b4;stroke:#1f77b4;" x="116.972445" xlink:href="#m34cebedb8c" y="200.494698"/>
     <use style="fill:#1f77b4;stroke:#1f77b4;" x="118.023107" xlink:href="#m34cebedb8c" y="187.041315"/>
     <use style="fill:#1f77b4;stroke:#1f77b4;" x="119.073769" xlink:href="#m34cebedb8c" y="187.321061"/>
     <use style="fill:#1f77b4;stroke:#1f77b4;" x="120.124431" xlink:href="#m34cebedb8c" y="193.795561"/>
     <use style="fill:#1f77b4;stroke:#1f77b4;" x="121.175093" xlink:href="#m34cebedb8c" y="190.948984"/>
     <use style="fill:#1f77b4;stroke:#1f77b4;" x="122.225755" xlink:href="#m34cebedb8c" y="189.513821"/>
     <use style="fill:#1f77b4;stroke:#1f77b4;" x="123.276417" xlink:href="#m34cebedb8c" y="190.812235"/>
     <use style="fill:#1f77b4;stroke:#1f77b4;" x="124.327079" xlink:href="#m34cebedb8c" y="202.111664"/>
     <use style="fill:#1f77b4;stroke:#1f77b4;" x="125.377741" xlink:href="#m34cebedb8c" y="179.979729"/>
     <use style="fill:#1f77b4;stroke:#1f77b4;" x="126.428402" xlink:href="#m34cebedb8c" y="184.373605"/>
     <use style="fill:#1f77b4;stroke:#1f77b4;" x="127.479064" xlink:href="#m34cebedb8c" y="176.700963"/>
     <use style="fill:#1f77b4;stroke:#1f77b4;" x="128.529726" xlink:href="#m34cebedb8c" y="185.930935"/>
     <use style="fill:#1f77b4;stroke:#1f77b4;" x="129.580388" xlink:href="#m34cebedb8c" y="176.75498"/>
     <use style="fill:#1f77b4;stroke:#1f77b4;" x="130.63105" xlink:href="#m34cebedb8c" y="192.494542"/>
     <use style="fill:#1f77b4;stroke:#1f77b4;" x="131.681712" xlink:href="#m34cebedb8c" y="180.950575"/>
     <use style="fill:#1f77b4;stroke:#1f77b4;" x="132.732374" xlink:href="#m34cebedb8c" y="212.401038"/>
     <use style="fill:#1f77b4;stroke:#1f77b4;" x="133.783036" xlink:href="#m34cebedb8c" y="186.055883"/>
     <use style="fill:#1f77b4;stroke:#1f77b4;" x="134.833698" xlink:href="#m34cebedb8c" y="188.330817"/>
     <use style="fill:#1f77b4;stroke:#1f77b4;" x="135.88436" xlink:href="#m34cebedb8c" y="243.265038"/>
     <use style="fill:#1f77b4;stroke:#1f77b4;" x="136.935022" xlink:href="#m34cebedb8c" y="186.922881"/>
     <use style="fill:#1f77b4;stroke:#1f77b4;" x="137.985684" xlink:href="#m34cebedb8c" y="187.510949"/>
     <use style="fill:#1f77b4;stroke:#1f77b4;" x="139.036346" xlink:href="#m34cebedb8c" y="190.782366"/>
     <use style="fill:#1f77b4;stroke:#1f77b4;" x="140.087008" xlink:href="#m34cebedb8c" y="182.18758"/>
     <use style="fill:#1f77b4;stroke:#1f77b4;" x="141.13767" xlink:href="#m34cebedb8c" y="205.614717"/>
     <use style="fill:#1f77b4;stroke:#1f77b4;" x="142.188332" xlink:href="#m34cebedb8c" y="179.937909"/>
     <use style="fill:#1f77b4;stroke:#1f77b4;" x="143.238994" xlink:href="#m34cebedb8c" y="254.301599"/>
     <use style="fill:#1f77b4;stroke:#1f77b4;" x="144.289656" xlink:href="#m34cebedb8c" y="184.712808"/>
     <use style="fill:#1f77b4;stroke:#1f77b4;" x="145.340318" xlink:href="#m34cebedb8c" y="194.889094"/>
     <use style="fill:#1f77b4;stroke:#1f77b4;" x="146.39098" xlink:href="#m34cebedb8c" y="185.206333"/>
     <use style="fill:#1f77b4;stroke:#1f77b4;" x="147.441642" xlink:href="#m34cebedb8c" y="204.865564"/>
     <use style="fill:#1f77b4;stroke:#1f77b4;" x="148.492304" xlink:href="#m34cebedb8c" y="181.653391"/>
     <use style="fill:#1f77b4;stroke:#1f77b4;" x="149.542966" xlink:href="#m34cebedb8c" y="201.294463"/>
     <use style="fill:#1f77b4;stroke:#1f77b4;" x="150.593628" xlink:href="#m34cebedb8c" y="187.884532"/>
     <use style="fill:#1f77b4;stroke:#1f77b4;" x="151.644289" xlink:href="#m34cebedb8c" y="193.582956"/>
     <use style="fill:#1f77b4;stroke:#1f77b4;" x="152.694951" xlink:href="#m34cebedb8c" y="185.949214"/>
     <use style="fill:#1f77b4;stroke:#1f77b4;" x="153.745613" xlink:href="#m34cebedb8c" y="195.324732"/>
     <use style="fill:#1f77b4;stroke:#1f77b4;" x="154.796275" xlink:href="#m34cebedb8c" y="187.95376"/>
     <use style="fill:#1f77b4;stroke:#1f77b4;" x="155.846937" xlink:href="#m34cebedb8c" y="190.552791"/>
     <use style="fill:#1f77b4;stroke:#1f77b4;" x="156.897599" xlink:href="#m34cebedb8c" y="197.840131"/>
     <use style="fill:#1f77b4;stroke:#1f77b4;" x="157.948261" xlink:href="#m34cebedb8c" y="187.469481"/>
     <use style="fill:#1f77b4;stroke:#1f77b4;" x="158.998923" xlink:href="#m34cebedb8c" y="185.27817"/>
     <use style="fill:#1f77b4;stroke:#1f77b4;" x="160.049585" xlink:href="#m34cebedb8c" y="195.686759"/>
     <use style="fill:#1f77b4;stroke:#1f77b4;" x="161.100247" xlink:href="#m34cebedb8c" y="178.975982"/>
     <use style="fill:#1f77b4;stroke:#1f77b4;" x="162.150909" xlink:href="#m34cebedb8c" y="205.503125"/>
     <use style="fill:#1f77b4;stroke:#1f77b4;" x="163.201571" xlink:href="#m34cebedb8c" y="178.411837"/>
     <use style="fill:#1f77b4;stroke:#1f77b4;" x="164.252233" xlink:href="#m34cebedb8c" y="208.405629"/>
     <use style="fill:#1f77b4;stroke:#1f77b4;" x="165.302895" xlink:href="#m34cebedb8c" y="180.877341"/>
     <use style="fill:#1f77b4;stroke:#1f77b4;" x="166.353557" xlink:href="#m34cebedb8c" y="212.345811"/>
     <use style="fill:#1f77b4;stroke:#1f77b4;" x="167.404219" xlink:href="#m34cebedb8c" y="184.530309"/>
     <use style="fill:#1f77b4;stroke:#1f77b4;" x="168.454881" xlink:href="#m34cebedb8c" y="200.2984"/>
     <use style="fill:#1f77b4;stroke:#1f77b4;" x="169.505543" xlink:href="#m34cebedb8c" y="182.218173"/>
     <use style="fill:#1f77b4;stroke:#1f77b4;" x="170.556205" xlink:href="#m34cebedb8c" y="200.817535"/>
     <use style="fill:#1f77b4;stroke:#1f77b4;" x="171.606867" xlink:href="#m34cebedb8c" y="196.228049"/>
     <use style="fill:#1f77b4;stroke:#1f77b4;" x="172.657529" xlink:href="#m34cebedb8c" y="179.842024"/>
     <use style="fill:#1f77b4;stroke:#1f77b4;" x="173.708191" xlink:href="#m34cebedb8c" y="197.799211"/>
     <use style="fill:#1f77b4;stroke:#1f77b4;" x="174.758853" xlink:href="#m34cebedb8c" y="181.77402"/>
     <use style="fill:#1f77b4;stroke:#1f77b4;" x="175.809515" xlink:href="#m34cebedb8c" y="226.783327"/>
     <use style="fill:#1f77b4;stroke:#1f77b4;" x="176.860177" xlink:href="#m34cebedb8c" y="182.634723"/>
     <use style="fill:#1f77b4;stroke:#1f77b4;" x="177.910838" xlink:href="#m34cebedb8c" y="190.805694"/>
     <use style="fill:#1f77b4;stroke:#1f77b4;" x="178.9615" xlink:href="#m34cebedb8c" y="190.598579"/>
     <use style="fill:#1f77b4;stroke:#1f77b4;" x="180.012162" xlink:href="#m34cebedb8c" y="196.385548"/>
     <use style="fill:#1f77b4;stroke:#1f77b4;" x="181.062824" xlink:href="#m34cebedb8c" y="183.777075"/>
     <use style="fill:#1f77b4;stroke:#1f77b4;" x="182.113486" xlink:href="#m34cebedb8c" y="195.844494"/>
     <use style="fill:#1f77b4;stroke:#1f77b4;" x="183.164148" xlink:href="#m34cebedb8c" y="192.622668"/>
     <use style="fill:#1f77b4;stroke:#1f77b4;" x="184.21481" xlink:href="#m34cebedb8c" y="186.999156"/>
     <use style="fill:#1f77b4;stroke:#1f77b4;" x="185.265472" xlink:href="#m34cebedb8c" y="191.210979"/>
     <use style="fill:#1f77b4;stroke:#1f77b4;" x="186.316134" xlink:href="#m34cebedb8c" y="191.892018"/>
     <use style="fill:#1f77b4;stroke:#1f77b4;" x="187.366796" xlink:href="#m34cebedb8c" y="187.334132"/>
     <use style="fill:#1f77b4;stroke:#1f77b4;" x="188.417458" xlink:href="#m34cebedb8c" y="201.949334"/>
     <use style="fill:#1f77b4;stroke:#1f77b4;" x="189.46812" xlink:href="#m34cebedb8c" y="186.009366"/>
     <use style="fill:#1f77b4;stroke:#1f77b4;" x="190.518782" xlink:href="#m34cebedb8c" y="203.686208"/>
     <use style="fill:#1f77b4;stroke:#1f77b4;" x="191.569444" xlink:href="#m34cebedb8c" y="177.945171"/>
     <use style="fill:#1f77b4;stroke:#1f77b4;" x="192.620106" xlink:href="#m34cebedb8c" y="205.006986"/>
     <use style="fill:#1f77b4;stroke:#1f77b4;" x="193.670768" xlink:href="#m34cebedb8c" y="182.263174"/>
     <use style="fill:#1f77b4;stroke:#1f77b4;" x="194.72143" xlink:href="#m34cebedb8c" y="209.938126"/>
     <use style="fill:#1f77b4;stroke:#1f77b4;" x="195.772092" xlink:href="#m34cebedb8c" y="184.615176"/>
     <use style="fill:#1f77b4;stroke:#1f77b4;" x="196.822754" xlink:href="#m34cebedb8c" y="199.52603"/>
     <use style="fill:#1f77b4;stroke:#1f77b4;" x="197.873416" xlink:href="#m34cebedb8c" y="174.3197"/>
     <use style="fill:#1f77b4;stroke:#1f77b4;" x="198.924078" xlink:href="#m34cebedb8c" y="180.461617"/>
     <use style="fill:#1f77b4;stroke:#1f77b4;" x="199.97474" xlink:href="#m34cebedb8c" y="174.101474"/>
     <use style="fill:#1f77b4;stroke:#1f77b4;" x="201.025402" xlink:href="#m34cebedb8c" y="195.574628"/>
     <use style="fill:#1f77b4;stroke:#1f77b4;" x="202.076064" xlink:href="#m34cebedb8c" y="176.12309"/>
     <use style="fill:#1f77b4;stroke:#1f77b4;" x="203.126726" xlink:href="#m34cebedb8c" y="188.808088"/>
     <use style="fill:#1f77b4;stroke:#1f77b4;" x="204.177387" xlink:href="#m34cebedb8c" y="178.237967"/>
     <use style="fill:#1f77b4;stroke:#1f77b4;" x="205.228049" xlink:href="#m34cebedb8c" y="197.017414"/>
     <use style="fill:#1f77b4;stroke:#1f77b4;" x="206.278711" xlink:href="#m34cebedb8c" y="197.544003"/>
     <use style="fill:#1f77b4;stroke:#1f77b4;" x="207.329373" xlink:href="#m34cebedb8c" y="179.026096"/>
     <use style="fill:#1f77b4;stroke:#1f77b4;" x="208.380035" xlink:href="#m34cebedb8c" y="196.735136"/>
     <use style="fill:#1f77b4;stroke:#1f77b4;" x="209.430697" xlink:href="#m34cebedb8c" y="177.100215"/>
     <use style="fill:#1f77b4;stroke:#1f77b4;" x="210.481359" xlink:href="#m34cebedb8c" y="176.481072"/>
     <use style="fill:#1f77b4;stroke:#1f77b4;" x="211.532021" xlink:href="#m34cebedb8c" y="172.093382"/>
     <use style="fill:#1f77b4;stroke:#1f77b4;" x="212.582683" xlink:href="#m34cebedb8c" y="188.005372"/>
     <use style="fill:#1f77b4;stroke:#1f77b4;" x="213.633345" xlink:href="#m34cebedb8c" y="180.965733"/>
     <use style="fill:#1f77b4;stroke:#1f77b4;" x="214.684007" xlink:href="#m34cebedb8c" y="195.172855"/>
     <use style="fill:#1f77b4;stroke:#1f77b4;" x="215.734669" xlink:href="#m34cebedb8c" y="181.983402"/>
     <use style="fill:#1f77b4;stroke:#1f77b4;" x="216.785331" xlink:href="#m34cebedb8c" y="208.04384"/>
     <use style="fill:#1f77b4;stroke:#1f77b4;" x="217.835993" xlink:href="#m34cebedb8c" y="183.476305"/>
     <use style="fill:#1f77b4;stroke:#1f77b4;" x="218.886655" xlink:href="#m34cebedb8c" y="213.107456"/>
     <use style="fill:#1f77b4;stroke:#1f77b4;" x="219.937317" xlink:href="#m34cebedb8c" y="183.006117"/>
     <use style="fill:#1f77b4;stroke:#1f77b4;" x="220.987979" xlink:href="#m34cebedb8c" y="191.385274"/>
     <use style="fill:#1f77b4;stroke:#1f77b4;" x="222.038641" xlink:href="#m34cebedb8c" y="192.209199"/>
     <use style="fill:#1f77b4;stroke:#1f77b4;" x="223.089303" xlink:href="#m34cebedb8c" y="261.216"/>
     <use style="fill:#1f77b4;stroke:#1f77b4;" x="224.139965" xlink:href="#m34cebedb8c" y="182.993287"/>
     <use style="fill:#1f77b4;stroke:#1f77b4;" x="225.190627" xlink:href="#m34cebedb8c" y="202.234284"/>
     <use style="fill:#1f77b4;stroke:#1f77b4;" x="226.241289" xlink:href="#m34cebedb8c" y="189.522763"/>
     <use style="fill:#1f77b4;stroke:#1f77b4;" x="227.291951" xlink:href="#m34cebedb8c" y="185.733834"/>
     <use style="fill:#1f77b4;stroke:#1f77b4;" x="228.342613" xlink:href="#m34cebedb8c" y="187.788155"/>
     <use style="fill:#1f77b4;stroke:#1f77b4;" x="229.393274" xlink:href="#m34cebedb8c" y="193.578278"/>
     <use style="fill:#1f77b4;stroke:#1f77b4;" x="230.443936" xlink:href="#m34cebedb8c" y="195.807157"/>
     <use style="fill:#1f77b4;stroke:#1f77b4;" x="231.494598" xlink:href="#m34cebedb8c" y="187.01033"/>
     <use style="fill:#1f77b4;stroke:#1f77b4;" x="232.54526" xlink:href="#m34cebedb8c" y="187.082995"/>
     <use style="fill:#1f77b4;stroke:#1f77b4;" x="233.595922" xlink:href="#m34cebedb8c" y="205.420198"/>
     <use style="fill:#1f77b4;stroke:#1f77b4;" x="234.646584" xlink:href="#m34cebedb8c" y="183.45843"/>
     <use style="fill:#1f77b4;stroke:#1f77b4;" x="235.697246" xlink:href="#m34cebedb8c" y="225.922559"/>
     <use style="fill:#1f77b4;stroke:#1f77b4;" x="236.747908" xlink:href="#m34cebedb8c" y="184.355564"/>
     <use style="fill:#1f77b4;stroke:#1f77b4;" x="237.79857" xlink:href="#m34cebedb8c" y="184.926396"/>
     <use style="fill:#1f77b4;stroke:#1f77b4;" x="238.849232" xlink:href="#m34cebedb8c" y="199.029786"/>
     <use style="fill:#1f77b4;stroke:#1f77b4;" x="239.899894" xlink:href="#m34cebedb8c" y="181.249886"/>
     <use style="fill:#1f77b4;stroke:#1f77b4;" x="240.950556" xlink:href="#m34cebedb8c" y="198.094183"/>
     <use style="fill:#1f77b4;stroke:#1f77b4;" x="242.001218" xlink:href="#m34cebedb8c" y="186.950708"/>
     <use style="fill:#1f77b4;stroke:#1f77b4;" x="243.05188" xlink:href="#m34cebedb8c" y="189.078243"/>
     <use style="fill:#1f77b4;stroke:#1f77b4;" x="244.102542" xlink:href="#m34cebedb8c" y="189.394473"/>
     <use style="fill:#1f77b4;stroke:#1f77b4;" x="245.153204" xlink:href="#m34cebedb8c" y="186.309924"/>
     <use style="fill:#1f77b4;stroke:#1f77b4;" x="246.203866" xlink:href="#m34cebedb8c" y="200.616759"/>
     <use style="fill:#1f77b4;stroke:#1f77b4;" x="247.254528" xlink:href="#m34cebedb8c" y="180.35722"/>
     <use style="fill:#1f77b4;stroke:#1f77b4;" x="248.30519" xlink:href="#m34cebedb8c" y="195.849054"/>
     <use style="fill:#1f77b4;stroke:#1f77b4;" x="249.355852" xlink:href="#m34cebedb8c" y="207.257012"/>
     <use style="fill:#1f77b4;stroke:#1f77b4;" x="250.406514" xlink:href="#m34cebedb8c" y="206.128054"/>
     <use style="fill:#1f77b4;stroke:#1f77b4;" x="251.457176" xlink:href="#m34cebedb8c" y="193.312242"/>
     <use style="fill:#1f77b4;stroke:#1f77b4;" x="252.507838" xlink:href="#m34cebedb8c" y="194.242719"/>
     <use style="fill:#1f77b4;stroke:#1f77b4;" x="253.5585" xlink:href="#m34cebedb8c" y="192.210639"/>
     <use style="fill:#1f77b4;stroke:#1f77b4;" x="254.609162" xlink:href="#m34cebedb8c" y="188.024073"/>
     <use style="fill:#1f77b4;stroke:#1f77b4;" x="255.659823" xlink:href="#m34cebedb8c" y="196.26302"/>
     <use style="fill:#1f77b4;stroke:#1f77b4;" x="256.710485" xlink:href="#m34cebedb8c" y="186.943048"/>
     <use style="fill:#1f77b4;stroke:#1f77b4;" x="257.761147" xlink:href="#m34cebedb8c" y="203.233537"/>
     <use style="fill:#1f77b4;stroke:#1f77b4;" x="258.811809" xlink:href="#m34cebedb8c" y="180.174382"/>
     <use style="fill:#1f77b4;stroke:#1f77b4;" x="259.862471" xlink:href="#m34cebedb8c" y="189.984437"/>
     <use style="fill:#1f77b4;stroke:#1f77b4;" x="260.913133" xlink:href="#m34cebedb8c" y="177.969005"/>
     <use style="fill:#1f77b4;stroke:#1f77b4;" x="261.963795" xlink:href="#m34cebedb8c" y="198.112874"/>
     <use style="fill:#1f77b4;stroke:#1f77b4;" x="263.014457" xlink:href="#m34cebedb8c" y="179.861907"/>
     <use style="fill:#1f77b4;stroke:#1f77b4;" x="264.065119" xlink:href="#m34cebedb8c" y="249.976276"/>
     <use style="fill:#1f77b4;stroke:#1f77b4;" x="265.115781" xlink:href="#m34cebedb8c" y="189.032658"/>
     <use style="fill:#1f77b4;stroke:#1f77b4;" x="266.166443" xlink:href="#m34cebedb8c" y="188.740902"/>
     <use style="fill:#1f77b4;stroke:#1f77b4;" x="267.217105" xlink:href="#m34cebedb8c" y="193.193768"/>
     <use style="fill:#1f77b4;stroke:#1f77b4;" x="268.267767" xlink:href="#m34cebedb8c" y="195.781909"/>
     <use style="fill:#1f77b4;stroke:#1f77b4;" x="269.318429" xlink:href="#m34cebedb8c" y="186.71139"/>
     <use style="fill:#1f77b4;stroke:#1f77b4;" x="270.369091" xlink:href="#m34cebedb8c" y="198.197484"/>
     <use style="fill:#1f77b4;stroke:#1f77b4;" x="271.419753" xlink:href="#m34cebedb8c" y="191.553516"/>
     <use style="fill:#1f77b4;stroke:#1f77b4;" x="272.470415" xlink:href="#m34cebedb8c" y="192.664776"/>
     <use style="fill:#1f77b4;stroke:#1f77b4;" x="273.521077" xlink:href="#m34cebedb8c" y="187.52125"/>
     <use style="fill:#1f77b4;stroke:#1f77b4;" x="274.571739" xlink:href="#m34cebedb8c" y="186.630654"/>
     <use style="fill:#1f77b4;stroke:#1f77b4;" x="275.622401" xlink:href="#m34cebedb8c" y="186.490556"/>
     <use style="fill:#1f77b4;stroke:#1f77b4;" x="276.673063" xlink:href="#m34cebedb8c" y="193.981528"/>
     <use style="fill:#1f77b4;stroke:#1f77b4;" x="277.723725" xlink:href="#m34cebedb8c" y="179.13073"/>
     <use style="fill:#1f77b4;stroke:#1f77b4;" x="278.774387" xlink:href="#m34cebedb8c" y="212.408921"/>
     <use style="fill:#1f77b4;stroke:#1f77b4;" x="279.825049" xlink:href="#m34cebedb8c" y="184.950365"/>
     <use style="fill:#1f77b4;stroke:#1f77b4;" x="280.875711" xlink:href="#m34cebedb8c" y="190.923652"/>
     <use style="fill:#1f77b4;stroke:#1f77b4;" x="281.926372" xlink:href="#m34cebedb8c" y="200.114034"/>
     <use style="fill:#1f77b4;stroke:#1f77b4;" x="282.977034" xlink:href="#m34cebedb8c" y="181.514584"/>
     <use style="fill:#1f77b4;stroke:#1f77b4;" x="284.027696" xlink:href="#m34cebedb8c" y="188.641002"/>
     <use style="fill:#1f77b4;stroke:#1f77b4;" x="285.078358" xlink:href="#m34cebedb8c" y="179.551182"/>
     <use style="fill:#1f77b4;stroke:#1f77b4;" x="286.12902" xlink:href="#m34cebedb8c" y="204.648946"/>
     <use style="fill:#1f77b4;stroke:#1f77b4;" x="287.179682" xlink:href="#m34cebedb8c" y="176.039083"/>
     <use style="fill:#1f77b4;stroke:#1f77b4;" x="288.230344" xlink:href="#m34cebedb8c" y="187.845754"/>
     <use style="fill:#1f77b4;stroke:#1f77b4;" x="289.281006" xlink:href="#m34cebedb8c" y="179.140699"/>
     <use style="fill:#1f77b4;stroke:#1f77b4;" x="290.331668" xlink:href="#m34cebedb8c" y="193.498486"/>
     <use style="fill:#1f77b4;stroke:#1f77b4;" x="291.38233" xlink:href="#m34cebedb8c" y="177.452448"/>
     <use style="fill:#1f77b4;stroke:#1f77b4;" x="292.432992" xlink:href="#m34cebedb8c" y="221.441546"/>
     <use style="fill:#1f77b4;stroke:#1f77b4;" x="293.483654" xlink:href="#m34cebedb8c" y="217.640042"/>
     <use style="fill:#1f77b4;stroke:#1f77b4;" x="294.534316" xlink:href="#m34cebedb8c" y="188.563438"/>
     <use style="fill:#1f77b4;stroke:#1f77b4;" x="295.584978" xlink:href="#m34cebedb8c" y="185.626241"/>
     <use style="fill:#1f77b4;stroke:#1f77b4;" x="296.63564" xlink:href="#m34cebedb8c" y="195.974632"/>
     <use style="fill:#1f77b4;stroke:#1f77b4;" x="297.686302" xlink:href="#m34cebedb8c" y="197.798983"/>
     <use style="fill:#1f77b4;stroke:#1f77b4;" x="298.736964" xlink:href="#m34cebedb8c" y="181.471242"/>
     <use style="fill:#1f77b4;stroke:#1f77b4;" x="299.787626" xlink:href="#m34cebedb8c" y="192.213642"/>
     <use style="fill:#1f77b4;stroke:#1f77b4;" x="300.838288" xlink:href="#m34cebedb8c" y="178.535251"/>
     <use style="fill:#1f77b4;stroke:#1f77b4;" x="301.88895" xlink:href="#m34cebedb8c" y="207.262028"/>
     <use style="fill:#1f77b4;stroke:#1f77b4;" x="302.939612" xlink:href="#m34cebedb8c" y="183.041062"/>
     <use style="fill:#1f77b4;stroke:#1f77b4;" x="303.990274" xlink:href="#m34cebedb8c" y="193.532445"/>
     <use style="fill:#1f77b4;stroke:#1f77b4;" x="305.040936" xlink:href="#m34cebedb8c" y="193.236635"/>
     <use style="fill:#1f77b4;stroke:#1f77b4;" x="306.091598" xlink:href="#m34cebedb8c" y="227.559878"/>
     <use style="fill:#1f77b4;stroke:#1f77b4;" x="307.142259" xlink:href="#m34cebedb8c" y="186.617164"/>
     <use style="fill:#1f77b4;stroke:#1f77b4;" x="308.192921" xlink:href="#m34cebedb8c" y="197.271187"/>
     <use style="fill:#1f77b4;stroke:#1f77b4;" x="309.243583" xlink:href="#m34cebedb8c" y="187.084363"/>
     <use style="fill:#1f77b4;stroke:#1f77b4;" x="310.294245" xlink:href="#m34cebedb8c" y="184.115334"/>
     <use style="fill:#1f77b4;stroke:#1f77b4;" x="311.344907" xlink:href="#m34cebedb8c" y="188.273467"/>
     <use style="fill:#1f77b4;stroke:#1f77b4;" x="312.395569" xlink:href="#m34cebedb8c" y="193.39679"/>
     <use style="fill:#1f77b4;stroke:#1f77b4;" x="313.446231" xlink:href="#m34cebedb8c" y="181.141535"/>
     <use style="fill:#1f77b4;stroke:#1f77b4;" x="314.496893" xlink:href="#m34cebedb8c" y="197.374963"/>
     <use style="fill:#1f77b4;stroke:#1f77b4;" x="315.547555" xlink:href="#m34cebedb8c" y="178.766491"/>
     <use style="fill:#1f77b4;stroke:#1f77b4;" x="316.598217" xlink:href="#m34cebedb8c" y="200.252727"/>
     <use style="fill:#1f77b4;stroke:#1f77b4;" x="317.648879" xlink:href="#m34cebedb8c" y="184.442912"/>
     <use style="fill:#1f77b4;stroke:#1f77b4;" x="318.699541" xlink:href="#m34cebedb8c" y="195.388376"/>
     <use style="fill:#1f77b4;stroke:#1f77b4;" x="319.750203" xlink:href="#m34cebedb8c" y="189.391679"/>
     <use style="fill:#1f77b4;stroke:#1f77b4;" x="320.800865" xlink:href="#m34cebedb8c" y="182.69075"/>
     <use style="fill:#1f77b4;stroke:#1f77b4;" x="321.851527" xlink:href="#m34cebedb8c" y="196.537911"/>
     <use style="fill:#1f77b4;stroke:#1f77b4;" x="322.902189" xlink:href="#m34cebedb8c" y="177.490301"/>
     <use style="fill:#1f77b4;stroke:#1f77b4;" x="323.952851" xlink:href="#m34cebedb8c" y="205.812401"/>
     <use style="fill:#1f77b4;stroke:#1f77b4;" x="325.003513" xlink:href="#m34cebedb8c" y="181.388625"/>
     <use style="fill:#1f77b4;stroke:#1f77b4;" x="326.054175" xlink:href="#m34cebedb8c" y="232.571823"/>
     <use style="fill:#1f77b4;stroke:#1f77b4;" x="327.104837" xlink:href="#m34cebedb8c" y="178.742054"/>
     <use style="fill:#1f77b4;stroke:#1f77b4;" x="328.155499" xlink:href="#m34cebedb8c" y="206.477083"/>
     <use style="fill:#1f77b4;stroke:#1f77b4;" x="329.206161" xlink:href="#m34cebedb8c" y="188.137234"/>
     <use style="fill:#1f77b4;stroke:#1f77b4;" x="330.256823" xlink:href="#m34cebedb8c" y="192.482334"/>
     <use style="fill:#1f77b4;stroke:#1f77b4;" x="331.307485" xlink:href="#m34cebedb8c" y="191.823479"/>
     <use style="fill:#1f77b4;stroke:#1f77b4;" x="332.358147" xlink:href="#m34cebedb8c" y="184.978649"/>
     <use style="fill:#1f77b4;stroke:#1f77b4;" x="333.408808" xlink:href="#m34cebedb8c" y="204.701201"/>
     <use style="fill:#1f77b4;stroke:#1f77b4;" x="334.45947" xlink:href="#m34cebedb8c" y="187.174378"/>
     <use style="fill:#1f77b4;stroke:#1f77b4;" x="335.510132" xlink:href="#m34cebedb8c" y="191.53687"/>
     <use style="fill:#1f77b4;stroke:#1f77b4;" x="336.560794" xlink:href="#m34cebedb8c" y="190.210307"/>
     <use style="fill:#1f77b4;stroke:#1f77b4;" x="337.611456" xlink:href="#m34cebedb8c" y="188.546906"/>
     <use style="fill:#1f77b4;stroke:#1f77b4;" x="338.662118" xlink:href="#m34cebedb8c" y="212.702333"/>
     <use style="fill:#1f77b4;stroke:#1f77b4;" x="339.71278" xlink:href="#m34cebedb8c" y="179.188489"/>
     <use style="fill:#1f77b4;stroke:#1f77b4;" x="340.763442" xlink:href="#m34cebedb8c" y="184.42656"/>
     <use style="fill:#1f77b4;stroke:#1f77b4;" x="341.814104" xlink:href="#m34cebedb8c" y="177.266763"/>
     <use style="fill:#1f77b4;stroke:#1f77b4;" x="342.864766" xlink:href="#m34cebedb8c" y="203.742767"/>
     <use style="fill:#1f77b4;stroke:#1f77b4;" x="343.915428" xlink:href="#m34cebedb8c" y="182.231132"/>
     <use style="fill:#1f77b4;stroke:#1f77b4;" x="344.96609" xlink:href="#m34cebedb8c" y="197.922095"/>
     <use style="fill:#1f77b4;stroke:#1f77b4;" x="346.016752" xlink:href="#m34cebedb8c" y="200.753266"/>
     <use style="fill:#1f77b4;stroke:#1f77b4;" x="347.067414" xlink:href="#m34cebedb8c" y="185.292322"/>
     <use style="fill:#1f77b4;stroke:#1f77b4;" x="348.118076" xlink:href="#m34cebedb8c" y="202.827677"/>
     <use style="fill:#1f77b4;stroke:#1f77b4;" x="349.168738" xlink:href="#m34cebedb8c" y="186.030913"/>
     <use style="fill:#1f77b4;stroke:#1f77b4;" x="350.2194" xlink:href="#m34cebedb8c" y="193.114883"/>
     <use style="fill:#1f77b4;stroke:#1f77b4;" x="351.270062" xlink:href="#m34cebedb8c" y="181.11973"/>
     <use style="fill:#1f77b4;stroke:#1f77b4;" x="352.320724" xlink:href="#m34cebedb8c" y="192.846192"/>
     <use style="fill:#1f77b4;stroke:#1f77b4;" x="353.371386" xlink:href="#m34cebedb8c" y="193.698815"/>
     <use style="fill:#1f77b4;stroke:#1f77b4;" x="354.422048" xlink:href="#m34cebedb8c" y="188.369322"/>
     <use style="fill:#1f77b4;stroke:#1f77b4;" x="355.47271" xlink:href="#m34cebedb8c" y="187.31384"/>
     <use style="fill:#1f77b4;stroke:#1f77b4;" x="356.523372" xlink:href="#m34cebedb8c" y="206.833886"/>
     <use style="fill:#1f77b4;stroke:#1f77b4;" x="357.574034" xlink:href="#m34cebedb8c" y="185.625967"/>
     <use style="fill:#1f77b4;stroke:#1f77b4;" x="358.624695" xlink:href="#m34cebedb8c" y="195.231648"/>
     <use style="fill:#1f77b4;stroke:#1f77b4;" x="359.675357" xlink:href="#m34cebedb8c" y="188.982589"/>
     <use style="fill:#1f77b4;stroke:#1f77b4;" x="360.726019" xlink:href="#m34cebedb8c" y="184.460538"/>
     <use style="fill:#1f77b4;stroke:#1f77b4;" x="361.776681" xlink:href="#m34cebedb8c" y="191.448287"/>
     <use style="fill:#1f77b4;stroke:#1f77b4;" x="362.827343" xlink:href="#m34cebedb8c" y="183.917867"/>
     <use style="fill:#1f77b4;stroke:#1f77b4;" x="363.878005" xlink:href="#m34cebedb8c" y="194.649426"/>
     <use style="fill:#1f77b4;stroke:#1f77b4;" x="364.928667" xlink:href="#m34cebedb8c" y="178.173341"/>
     <use style="fill:#1f77b4;stroke:#1f77b4;" x="365.979329" xlink:href="#m34cebedb8c" y="201.40357"/>
     <use style="fill:#1f77b4;stroke:#1f77b4;" x="367.029991" xlink:href="#m34cebedb8c" y="182.19767"/>
     <use style="fill:#1f77b4;stroke:#1f77b4;" x="368.080653" xlink:href="#m34cebedb8c" y="258.117016"/>
     <use style="fill:#1f77b4;stroke:#1f77b4;" x="369.131315" xlink:href="#m34cebedb8c" y="182.270134"/>
     <use style="fill:#1f77b4;stroke:#1f77b4;" x="370.181977" xlink:href="#m34cebedb8c" y="201.541995"/>
     <use style="fill:#1f77b4;stroke:#1f77b4;" x="371.232639" xlink:href="#m34cebedb8c" y="185.970181"/>
     <use style="fill:#1f77b4;stroke:#1f77b4;" x="372.283301" xlink:href="#m34cebedb8c" y="189.147152"/>
     <use style="fill:#1f77b4;stroke:#1f77b4;" x="373.333963" xlink:href="#m34cebedb8c" y="200.064731"/>
     <use style="fill:#1f77b4;stroke:#1f77b4;" x="374.384625" xlink:href="#m34cebedb8c" y="187.821301"/>
     <use style="fill:#1f77b4;stroke:#1f77b4;" x="375.435287" xlink:href="#m34cebedb8c" y="189.867973"/>
     <use style="fill:#1f77b4;stroke:#1f77b4;" x="376.485949" xlink:href="#m34cebedb8c" y="186.772371"/>
     <use style="fill:#1f77b4;stroke:#1f77b4;" x="377.253062" xlink:href="#m34cebedb8c" y="22383.514"/>
    </g>
   </g>
   <g id="line2d_13">
    <path clip-path="url(#p1f87d91d72)" d="M 61.287361 86.871781 
L 62.338023 91.524854 
L 63.388685 95.665776 
L 64.439347 99.770817 
L 65.490009 103.598233 
L 66.540671 107.516574 
L 67.591333 111.243657 
L 68.641995 115.109383 
" style="fill:none;stroke:#2ca02c;stroke-dasharray:1.5,2.475;stroke-dashoffset:0;stroke-width:1.5;"/>
    <defs>
     <path d="M -3 3 
L 3 -3 
M -3 -3 
L 3 3 
" id="m8481f4363b" style="stroke:#2ca02c;"/>
    </defs>
    <g clip-path="url(#p1f87d91d72)">
     <use style="fill:#2ca02c;stroke:#2ca02c;" x="61.287361" xlink:href="#m8481f4363b" y="86.871781"/>
     <use style="fill:#2ca02c;stroke:#2ca02c;" x="62.338023" xlink:href="#m8481f4363b" y="91.524854"/>
     <use style="fill:#2ca02c;stroke:#2ca02c;" x="63.388685" xlink:href="#m8481f4363b" y="95.665776"/>
     <use style="fill:#2ca02c;stroke:#2ca02c;" x="64.439347" xlink:href="#m8481f4363b" y="99.770817"/>
     <use style="fill:#2ca02c;stroke:#2ca02c;" x="65.490009" xlink:href="#m8481f4363b" y="103.598233"/>
     <use style="fill:#2ca02c;stroke:#2ca02c;" x="66.540671" xlink:href="#m8481f4363b" y="107.516574"/>
     <use style="fill:#2ca02c;stroke:#2ca02c;" x="67.591333" xlink:href="#m8481f4363b" y="111.243657"/>
     <use style="fill:#2ca02c;stroke:#2ca02c;" x="68.641995" xlink:href="#m8481f4363b" y="115.109383"/>
    </g>
   </g>
   <g id="line2d_14">
    <path clip-path="url(#p1f87d91d72)" d="M 54.983389 88.963539 
L 113.596082 311.86825 
L 113.596082 311.86825 
" style="fill:none;stroke:#000000;stroke-dasharray:5.55,2.4;stroke-dashoffset:0;stroke-width:1.5;"/>
   </g>
   <g id="patch_3">
    <path d="M 37.7 273.312 
L 37.7 7.2 
" style="fill:none;stroke:#000000;stroke-linecap:square;stroke-linejoin:miter;stroke-width:0.8;"/>
   </g>
   <g id="patch_4">
    <path d="M 394.82 273.312 
L 394.82 7.2 
" style="fill:none;stroke:#000000;stroke-linecap:square;stroke-linejoin:miter;stroke-width:0.8;"/>
   </g>
   <g id="patch_5">
    <path d="M 37.7 273.312 
L 394.82 273.312 
" style="fill:none;stroke:#000000;stroke-linecap:square;stroke-linejoin:miter;stroke-width:0.8;"/>
   </g>
   <g id="patch_6">
    <path d="M 37.7 7.2 
L 394.82 7.2 
" style="fill:none;stroke:#000000;stroke-linecap:square;stroke-linejoin:miter;stroke-width:0.8;"/>
   </g>
   <g id="legend_1">
    <g id="patch_7">
     <path d="M 286.72 59.25625 
L 387.82 59.25625 
Q 389.82 59.25625 389.82 57.25625 
L 389.82 14.2 
Q 389.82 12.2 387.82 12.2 
L 286.72 12.2 
Q 284.72 12.2 284.72 14.2 
L 284.72 57.25625 
Q 284.72 59.25625 286.72 59.25625 
z
" style="fill:#ffffff;opacity:0.8;"/>
    </g>
    <g id="line2d_15">
     <path d="M 288.72 20.298437 
L 308.72 20.298437 
" style="fill:none;stroke:#1f77b4;stroke-linecap:square;stroke-width:1.5;"/>
    </g>
    <g id="line2d_16">
     <g>
      <use style="fill:#1f77b4;stroke:#1f77b4;" x="298.72" xlink:href="#m34cebedb8c" y="20.298437"/>
     </g>
    </g>
    <g id="text_13">
     <!-- APD$_n$ - APD$_\infty$ -->
     <defs>
      <path d="M 34.1875 63.1875 
L 20.796875 26.90625 
L 47.609375 26.90625 
z
M 28.609375 72.90625 
L 39.796875 72.90625 
L 67.578125 0 
L 57.328125 0 
L 50.6875 18.703125 
L 17.828125 18.703125 
L 11.1875 0 
L 0.78125 0 
z
" id="DejaVuSans-65"/>
      <path d="M 19.671875 64.796875 
L 19.671875 37.40625 
L 32.078125 37.40625 
Q 38.96875 37.40625 42.71875 40.96875 
Q 46.484375 44.53125 46.484375 51.125 
Q 46.484375 57.671875 42.71875 61.234375 
Q 38.96875 64.796875 32.078125 64.796875 
z
M 9.8125 72.90625 
L 32.078125 72.90625 
Q 44.34375 72.90625 50.609375 67.359375 
Q 56.890625 61.8125 56.890625 51.125 
Q 56.890625 40.328125 50.609375 34.8125 
Q 44.34375 29.296875 32.078125 29.296875 
L 19.671875 29.296875 
L 19.671875 0 
L 9.8125 0 
z
" id="DejaVuSans-80"/>
      <path d="M 19.671875 64.796875 
L 19.671875 8.109375 
L 31.59375 8.109375 
Q 46.6875 8.109375 53.6875 14.9375 
Q 60.6875 21.78125 60.6875 36.53125 
Q 60.6875 51.171875 53.6875 57.984375 
Q 46.6875 64.796875 31.59375 64.796875 
z
M 9.8125 72.90625 
L 30.078125 72.90625 
Q 51.265625 72.90625 61.171875 64.09375 
Q 71.09375 55.28125 71.09375 36.53125 
Q 71.09375 17.671875 61.125 8.828125 
Q 51.171875 0 30.078125 0 
L 9.8125 0 
z
" id="DejaVuSans-68"/>
      <path d="M 55.71875 33.015625 
L 49.3125 0 
L 40.28125 0 
L 46.6875 32.671875 
Q 47.125 34.96875 47.359375 36.71875 
Q 47.609375 38.484375 47.609375 39.5 
Q 47.609375 43.609375 45.015625 45.890625 
Q 42.4375 48.1875 37.796875 48.1875 
Q 30.5625 48.1875 25.34375 43.375 
Q 20.125 38.578125 18.5 30.328125 
L 12.5 0 
L 3.515625 0 
L 14.109375 54.6875 
L 23.09375 54.6875 
L 21.296875 46.09375 
Q 25.046875 50.828125 30.3125 53.40625 
Q 35.59375 56 41.40625 56 
Q 48.640625 56 52.609375 52.09375 
Q 56.59375 48.1875 56.59375 41.109375 
Q 56.59375 39.359375 56.375 37.359375 
Q 56.15625 35.359375 55.71875 33.015625 
z
" id="DejaVuSans-Oblique-110"/>
      <path id="DejaVuSans-32"/>
      <path d="M 4.890625 31.390625 
L 31.203125 31.390625 
L 31.203125 23.390625 
L 4.890625 23.390625 
z
" id="DejaVuSans-45"/>
      <path d="M 45.5625 17.046875 
Q 44.046875 18.796875 41.65625 22.90625 
Q 38.375 17.046875 35.5 14.453125 
Q 31.890625 11.328125 26.265625 11.328125 
Q 19.671875 11.328125 15.328125 16.265625 
Q 10.75 21.4375 10.75 29.984375 
Q 10.75 38.1875 15.328125 43.75 
Q 19.4375 48.6875 26.375 48.6875 
Q 29.9375 48.6875 32.5625 47.21875 
Q 35.640625 45.609375 37.75 42.828125 
Q 39.703125 40.328125 41.65625 36.96875 
Q 44.921875 42.828125 47.796875 45.40625 
Q 51.421875 48.53125 57.03125 48.53125 
Q 63.625 48.53125 67.96875 43.609375 
Q 72.5625 38.421875 72.5625 29.890625 
Q 72.5625 21.6875 67.96875 16.109375 
Q 63.875 11.1875 56.9375 11.1875 
Q 53.375 11.1875 50.734375 12.640625 
Q 48.09375 13.96875 45.5625 17.046875 
z
M 25.734375 17.71875 
Q 33.796875 17.71875 38.625 29.4375 
Q 32.421875 42.234375 25.734375 42.234375 
Q 20.84375 42.234375 18.359375 38.71875 
Q 15.671875 34.96875 15.671875 29.984375 
Q 15.671875 24.515625 18.359375 21.140625 
Q 21.09375 17.71875 25.734375 17.71875 
z
M 57.5625 42.140625 
Q 50.296875 42.140625 44.671875 30.421875 
Q 50.828125 17.625 57.5625 17.625 
Q 62.453125 17.625 64.9375 21.140625 
Q 67.625 24.90625 67.625 29.890625 
Q 67.625 35.359375 64.9375 38.71875 
Q 62.203125 42.140625 57.5625 42.140625 
z
" id="DejaVuSans-8734"/>
     </defs>
     <g transform="translate(316.72 23.798437)scale(0.1 -0.1)">
      <use transform="translate(0 0.09375)" xlink:href="#DejaVuSans-65"/>
      <use transform="translate(68.408203 0.09375)" xlink:href="#DejaVuSans-80"/>
      <use transform="translate(128.710938 0.09375)" xlink:href="#DejaVuSans-68"/>
      <use transform="translate(206.669922 -16.3125)scale(0.7)" xlink:href="#DejaVuSans-Oblique-110"/>
      <use transform="translate(253.769531 0.09375)" xlink:href="#DejaVuSans-32"/>
      <use transform="translate(285.556641 0.09375)" xlink:href="#DejaVuSans-45"/>
      <use transform="translate(321.640625 0.09375)" xlink:href="#DejaVuSans-32"/>
      <use transform="translate(353.427734 0.09375)" xlink:href="#DejaVuSans-65"/>
      <use transform="translate(421.835938 0.09375)" xlink:href="#DejaVuSans-80"/>
      <use transform="translate(482.138672 0.09375)" xlink:href="#DejaVuSans-68"/>
      <use transform="translate(560.097656 -16.3125)scale(0.7)" xlink:href="#DejaVuSans-8734"/>
     </g>
    </g>
    <g id="line2d_17">
     <path d="M 288.72 34.976562 
L 308.72 34.976562 
" style="fill:none;stroke:#2ca02c;stroke-dasharray:1.5,2.475;stroke-dashoffset:0;stroke-width:1.5;"/>
    </g>
    <g id="line2d_18">
     <g>
      <use style="fill:#2ca02c;stroke:#2ca02c;" x="298.72" xlink:href="#m8481f4363b" y="34.976562"/>
     </g>
    </g>
    <g id="text_14">
     <!-- linear region -->
     <defs>
      <path d="M 9.421875 75.984375 
L 18.40625 75.984375 
L 18.40625 0 
L 9.421875 0 
z
" id="DejaVuSans-108"/>
      <path d="M 9.421875 54.6875 
L 18.40625 54.6875 
L 18.40625 0 
L 9.421875 0 
z
M 9.421875 75.984375 
L 18.40625 75.984375 
L 18.40625 64.59375 
L 9.421875 64.59375 
z
" id="DejaVuSans-105"/>
      <path d="M 54.890625 33.015625 
L 54.890625 0 
L 45.90625 0 
L 45.90625 32.71875 
Q 45.90625 40.484375 42.875 44.328125 
Q 39.84375 48.1875 33.796875 48.1875 
Q 26.515625 48.1875 22.3125 43.546875 
Q 18.109375 38.921875 18.109375 30.90625 
L 18.109375 0 
L 9.078125 0 
L 9.078125 54.6875 
L 18.109375 54.6875 
L 18.109375 46.1875 
Q 21.34375 51.125 25.703125 53.5625 
Q 30.078125 56 35.796875 56 
Q 45.21875 56 50.046875 50.171875 
Q 54.890625 44.34375 54.890625 33.015625 
z
" id="DejaVuSans-110"/>
      <path d="M 56.203125 29.59375 
L 56.203125 25.203125 
L 14.890625 25.203125 
Q 15.484375 15.921875 20.484375 11.0625 
Q 25.484375 6.203125 34.421875 6.203125 
Q 39.59375 6.203125 44.453125 7.46875 
Q 49.3125 8.734375 54.109375 11.28125 
L 54.109375 2.78125 
Q 49.265625 0.734375 44.1875 -0.34375 
Q 39.109375 -1.421875 33.890625 -1.421875 
Q 20.796875 -1.421875 13.15625 6.1875 
Q 5.515625 13.8125 5.515625 26.8125 
Q 5.515625 40.234375 12.765625 48.109375 
Q 20.015625 56 32.328125 56 
Q 43.359375 56 49.78125 48.890625 
Q 56.203125 41.796875 56.203125 29.59375 
z
M 47.21875 32.234375 
Q 47.125 39.59375 43.09375 43.984375 
Q 39.0625 48.390625 32.421875 48.390625 
Q 24.90625 48.390625 20.390625 44.140625 
Q 15.875 39.890625 15.1875 32.171875 
z
" id="DejaVuSans-101"/>
      <path d="M 34.28125 27.484375 
Q 23.390625 27.484375 19.1875 25 
Q 14.984375 22.515625 14.984375 16.5 
Q 14.984375 11.71875 18.140625 8.90625 
Q 21.296875 6.109375 26.703125 6.109375 
Q 34.1875 6.109375 38.703125 11.40625 
Q 43.21875 16.703125 43.21875 25.484375 
L 43.21875 27.484375 
z
M 52.203125 31.203125 
L 52.203125 0 
L 43.21875 0 
L 43.21875 8.296875 
Q 40.140625 3.328125 35.546875 0.953125 
Q 30.953125 -1.421875 24.3125 -1.421875 
Q 15.921875 -1.421875 10.953125 3.296875 
Q 6 8.015625 6 15.921875 
Q 6 25.140625 12.171875 29.828125 
Q 18.359375 34.515625 30.609375 34.515625 
L 43.21875 34.515625 
L 43.21875 35.40625 
Q 43.21875 41.609375 39.140625 45 
Q 35.0625 48.390625 27.6875 48.390625 
Q 23 48.390625 18.546875 47.265625 
Q 14.109375 46.140625 10.015625 43.890625 
L 10.015625 52.203125 
Q 14.9375 54.109375 19.578125 55.046875 
Q 24.21875 56 28.609375 56 
Q 40.484375 56 46.34375 49.84375 
Q 52.203125 43.703125 52.203125 31.203125 
z
" id="DejaVuSans-97"/>
      <path d="M 41.109375 46.296875 
Q 39.59375 47.171875 37.8125 47.578125 
Q 36.03125 48 33.890625 48 
Q 26.265625 48 22.1875 43.046875 
Q 18.109375 38.09375 18.109375 28.8125 
L 18.109375 0 
L 9.078125 0 
L 9.078125 54.6875 
L 18.109375 54.6875 
L 18.109375 46.1875 
Q 20.953125 51.171875 25.484375 53.578125 
Q 30.03125 56 36.53125 56 
Q 37.453125 56 38.578125 55.875 
Q 39.703125 55.765625 41.0625 55.515625 
z
" id="DejaVuSans-114"/>
      <path d="M 45.40625 27.984375 
Q 45.40625 37.75 41.375 43.109375 
Q 37.359375 48.484375 30.078125 48.484375 
Q 22.859375 48.484375 18.828125 43.109375 
Q 14.796875 37.75 14.796875 27.984375 
Q 14.796875 18.265625 18.828125 12.890625 
Q 22.859375 7.515625 30.078125 7.515625 
Q 37.359375 7.515625 41.375 12.890625 
Q 45.40625 18.265625 45.40625 27.984375 
z
M 54.390625 6.78125 
Q 54.390625 -7.171875 48.1875 -13.984375 
Q 42 -20.796875 29.203125 -20.796875 
Q 24.46875 -20.796875 20.265625 -20.09375 
Q 16.0625 -19.390625 12.109375 -17.921875 
L 12.109375 -9.1875 
Q 16.0625 -11.328125 19.921875 -12.34375 
Q 23.78125 -13.375 27.78125 -13.375 
Q 36.625 -13.375 41.015625 -8.765625 
Q 45.40625 -4.15625 45.40625 5.171875 
L 45.40625 9.625 
Q 42.625 4.78125 38.28125 2.390625 
Q 33.9375 0 27.875 0 
Q 17.828125 0 11.671875 7.65625 
Q 5.515625 15.328125 5.515625 27.984375 
Q 5.515625 40.671875 11.671875 48.328125 
Q 17.828125 56 27.875 56 
Q 33.9375 56 38.28125 53.609375 
Q 42.625 51.21875 45.40625 46.390625 
L 45.40625 54.6875 
L 54.390625 54.6875 
z
" id="DejaVuSans-103"/>
      <path d="M 30.609375 48.390625 
Q 23.390625 48.390625 19.1875 42.75 
Q 14.984375 37.109375 14.984375 27.296875 
Q 14.984375 17.484375 19.15625 11.84375 
Q 23.34375 6.203125 30.609375 6.203125 
Q 37.796875 6.203125 41.984375 11.859375 
Q 46.1875 17.53125 46.1875 27.296875 
Q 46.1875 37.015625 41.984375 42.703125 
Q 37.796875 48.390625 30.609375 48.390625 
z
M 30.609375 56 
Q 42.328125 56 49.015625 48.375 
Q 55.71875 40.765625 55.71875 27.296875 
Q 55.71875 13.875 49.015625 6.21875 
Q 42.328125 -1.421875 30.609375 -1.421875 
Q 18.84375 -1.421875 12.171875 6.21875 
Q 5.515625 13.875 5.515625 27.296875 
Q 5.515625 40.765625 12.171875 48.375 
Q 18.84375 56 30.609375 56 
z
" id="DejaVuSans-111"/>
     </defs>
     <g transform="translate(316.72 38.476562)scale(0.1 -0.1)">
      <use xlink:href="#DejaVuSans-108"/>
      <use x="27.783203" xlink:href="#DejaVuSans-105"/>
      <use x="55.566406" xlink:href="#DejaVuSans-110"/>
      <use x="118.945312" xlink:href="#DejaVuSans-101"/>
      <use x="180.46875" xlink:href="#DejaVuSans-97"/>
      <use x="241.748047" xlink:href="#DejaVuSans-114"/>
      <use x="282.861328" xlink:href="#DejaVuSans-32"/>
      <use x="314.648438" xlink:href="#DejaVuSans-114"/>
      <use x="353.511719" xlink:href="#DejaVuSans-101"/>
      <use x="415.035156" xlink:href="#DejaVuSans-103"/>
      <use x="478.511719" xlink:href="#DejaVuSans-105"/>
      <use x="506.294922" xlink:href="#DejaVuSans-111"/>
      <use x="567.476562" xlink:href="#DejaVuSans-110"/>
     </g>
    </g>
    <g id="line2d_19">
     <path d="M 288.72 49.65625 
L 308.72 49.65625 
" style="fill:none;stroke:#000000;stroke-dasharray:5.55,2.4;stroke-dashoffset:0;stroke-width:1.5;"/>
    </g>
    <g id="line2d_20"/>
    <g id="text_15">
     <!-- $ \exp(-0.302 k)$ -->
     <defs>
      <path d="M 54.890625 54.6875 
L 35.109375 28.078125 
L 55.90625 0 
L 45.3125 0 
L 29.390625 21.484375 
L 13.484375 0 
L 2.875 0 
L 24.125 28.609375 
L 4.6875 54.6875 
L 15.28125 54.6875 
L 29.78125 35.203125 
L 44.28125 54.6875 
z
" id="DejaVuSans-120"/>
      <path d="M 18.109375 8.203125 
L 18.109375 -20.796875 
L 9.078125 -20.796875 
L 9.078125 54.6875 
L 18.109375 54.6875 
L 18.109375 46.390625 
Q 20.953125 51.265625 25.265625 53.625 
Q 29.59375 56 35.59375 56 
Q 45.5625 56 51.78125 48.09375 
Q 58.015625 40.1875 58.015625 27.296875 
Q 58.015625 14.40625 51.78125 6.484375 
Q 45.5625 -1.421875 35.59375 -1.421875 
Q 29.59375 -1.421875 25.265625 0.953125 
Q 20.953125 3.328125 18.109375 8.203125 
z
M 48.6875 27.296875 
Q 48.6875 37.203125 44.609375 42.84375 
Q 40.53125 48.484375 33.40625 48.484375 
Q 26.265625 48.484375 22.1875 42.84375 
Q 18.109375 37.203125 18.109375 27.296875 
Q 18.109375 17.390625 22.1875 11.75 
Q 26.265625 6.109375 33.40625 6.109375 
Q 40.53125 6.109375 44.609375 11.75 
Q 48.6875 17.390625 48.6875 27.296875 
z
" id="DejaVuSans-112"/>
      <path d="M 31 75.875 
Q 24.46875 64.65625 21.28125 53.65625 
Q 18.109375 42.671875 18.109375 31.390625 
Q 18.109375 20.125 21.3125 9.0625 
Q 24.515625 -2 31 -13.1875 
L 23.1875 -13.1875 
Q 15.875 -1.703125 12.234375 9.375 
Q 8.59375 20.453125 8.59375 31.390625 
Q 8.59375 42.28125 12.203125 53.3125 
Q 15.828125 64.359375 23.1875 75.875 
z
" id="DejaVuSans-40"/>
      <path d="M 10.6875 12.40625 
L 21 12.40625 
L 21 0 
L 10.6875 0 
z
" id="DejaVuSans-46"/>
      <path d="M 8.015625 75.875 
L 15.828125 75.875 
Q 23.140625 64.359375 26.78125 53.3125 
Q 30.421875 42.28125 30.421875 31.390625 
Q 30.421875 20.453125 26.78125 9.375 
Q 23.140625 -1.703125 15.828125 -13.1875 
L 8.015625 -13.1875 
Q 14.5 -2 17.703125 9.0625 
Q 20.90625 20.125 20.90625 31.390625 
Q 20.90625 42.671875 17.703125 53.65625 
Q 14.5 64.65625 8.015625 75.875 
z
" id="DejaVuSans-41"/>
     </defs>
     <g transform="translate(316.72 53.15625)scale(0.1 -0.1)">
      <use transform="translate(0 0.015625)" xlink:href="#DejaVuSans-101"/>
      <use transform="translate(61.523438 0.015625)" xlink:href="#DejaVuSans-120"/>
      <use transform="translate(120.703125 0.015625)" xlink:href="#DejaVuSans-112"/>
      <use transform="translate(184.179688 0.015625)" xlink:href="#DejaVuSans-40"/>
      <use transform="translate(223.193359 0.015625)" xlink:href="#DejaVuSans-8722"/>
      <use transform="translate(306.982422 0.015625)" xlink:href="#DejaVuSans-48"/>
      <use transform="translate(370.605469 0.015625)" xlink:href="#DejaVuSans-46"/>
      <use transform="translate(402.392578 0.015625)" xlink:href="#DejaVuSans-51"/>
      <use transform="translate(466.015625 0.015625)" xlink:href="#DejaVuSans-48"/>
      <use transform="translate(529.638672 0.015625)" xlink:href="#DejaVuSans-50"/>
      <use transform="translate(593.261719 0.015625)" xlink:href="#DejaVuSans-Oblique-107"/>
      <use transform="translate(651.171875 0.015625)" xlink:href="#DejaVuSans-41"/>
     </g>
    </g>
   </g>
  </g>
 </g>
 <defs>
  <clipPath id="p1f87d91d72">
   <rect height="266.112" width="357.12" x="37.7" y="7.2"/>
  </clipPath>
 </defs>
</svg>
