<?xml version="1.0" encoding="utf-8" standalone="no"?>
<!DOCTYPE svg PUBLIC "-//W3C//DTD SVG 1.1//EN"
  "http://www.w3.org/Graphics/SVG/1.1/DTD/svg11.dtd">
<!-- Created with matplotlib (https://matplotlib.org/) -->
<svg height="310.86825pt" version="1.1" viewBox="0 0 396.12 310.86825" width="396.12pt" xmlns="http://www.w3.org/2000/svg" xmlns:xlink="http://www.w3.org/1999/xlink">
 <defs>
  <style type="text/css">
*{stroke-linecap:butt;stroke-linejoin:round;}
  </style>
 </defs>
 <g id="figure_1">
  <g id="patch_1">
   <path d="M 0 310.86825 
L 396.12 310.86825 
L 396.12 0 
L 0 0 
z
" style="fill:#ffffff;"/>
  </g>
  <g id="axes_1">
   <g id="patch_2">
    <path d="M 31.8 273.312 
L 388.92 273.312 
L 388.92 7.2 
L 31.8 7.2 
z
" style="fill:#ffffff;"/>
   </g>
   <g id="matplotlib.axis_1">
    <g id="xtick_1">
     <g id="line2d_1">
      <defs>
       <path d="M 0 0 
L 0 3.5 
" id="m2eaaf75b99" style="stroke:#000000;stroke-width:0.8;"/>
      </defs>
      <g>
       <use style="stroke:#000000;stroke-width:0.8;" x="48.032727" xlink:href="#m2eaaf75b99" y="273.312"/>
      </g>
     </g>
     <g id="text_1">
      <!-- 0 -->
      <defs>
       <path d="M 31.78125 66.40625 
Q 24.171875 66.40625 20.328125 58.90625 
Q 16.5 51.421875 16.5 36.375 
Q 16.5 21.390625 20.328125 13.890625 
Q 24.171875 6.390625 31.78125 6.390625 
Q 39.453125 6.390625 43.28125 13.890625 
Q 47.125 21.390625 47.125 36.375 
Q 47.125 51.421875 43.28125 58.90625 
Q 39.453125 66.40625 31.78125 66.40625 
z
M 31.78125 74.21875 
Q 44.046875 74.21875 50.515625 64.515625 
Q 56.984375 54.828125 56.984375 36.375 
Q 56.984375 17.96875 50.515625 8.265625 
Q 44.046875 -1.421875 31.78125 -1.421875 
Q 19.53125 -1.421875 13.0625 8.265625 
Q 6.59375 17.96875 6.59375 36.375 
Q 6.59375 54.828125 13.0625 64.515625 
Q 19.53125 74.21875 31.78125 74.21875 
z
" id="DejaVuSans-48"/>
      </defs>
      <g transform="translate(44.851477 287.910437)scale(0.1 -0.1)">
       <use xlink:href="#DejaVuSans-48"/>
      </g>
     </g>
    </g>
    <g id="xtick_2">
     <g id="line2d_2">
      <g>
       <use style="stroke:#000000;stroke-width:0.8;" x="90.750431" xlink:href="#m2eaaf75b99" y="273.312"/>
      </g>
     </g>
     <g id="text_2">
      <!-- 50 -->
      <defs>
       <path d="M 10.796875 72.90625 
L 49.515625 72.90625 
L 49.515625 64.59375 
L 19.828125 64.59375 
L 19.828125 46.734375 
Q 21.96875 47.46875 24.109375 47.828125 
Q 26.265625 48.1875 28.421875 48.1875 
Q 40.625 48.1875 47.75 41.5 
Q 54.890625 34.8125 54.890625 23.390625 
Q 54.890625 11.625 47.5625 5.09375 
Q 40.234375 -1.421875 26.90625 -1.421875 
Q 22.3125 -1.421875 17.546875 -0.640625 
Q 12.796875 0.140625 7.71875 1.703125 
L 7.71875 11.625 
Q 12.109375 9.234375 16.796875 8.0625 
Q 21.484375 6.890625 26.703125 6.890625 
Q 35.15625 6.890625 40.078125 11.328125 
Q 45.015625 15.765625 45.015625 23.390625 
Q 45.015625 31 40.078125 35.4375 
Q 35.15625 39.890625 26.703125 39.890625 
Q 22.75 39.890625 18.8125 39.015625 
Q 14.890625 38.140625 10.796875 36.28125 
z
" id="DejaVuSans-53"/>
      </defs>
      <g transform="translate(84.387931 287.910437)scale(0.1 -0.1)">
       <use xlink:href="#DejaVuSans-53"/>
       <use x="63.623047" xlink:href="#DejaVuSans-48"/>
      </g>
     </g>
    </g>
    <g id="xtick_3">
     <g id="line2d_3">
      <g>
       <use style="stroke:#000000;stroke-width:0.8;" x="133.468134" xlink:href="#m2eaaf75b99" y="273.312"/>
      </g>
     </g>
     <g id="text_3">
      <!-- 100 -->
      <defs>
       <path d="M 12.40625 8.296875 
L 28.515625 8.296875 
L 28.515625 63.921875 
L 10.984375 60.40625 
L 10.984375 69.390625 
L 28.421875 72.90625 
L 38.28125 72.90625 
L 38.28125 8.296875 
L 54.390625 8.296875 
L 54.390625 0 
L 12.40625 0 
z
" id="DejaVuSans-49"/>
      </defs>
      <g transform="translate(123.924384 287.910437)scale(0.1 -0.1)">
       <use xlink:href="#DejaVuSans-49"/>
       <use x="63.623047" xlink:href="#DejaVuSans-48"/>
       <use x="127.246094" xlink:href="#DejaVuSans-48"/>
      </g>
     </g>
    </g>
    <g id="xtick_4">
     <g id="line2d_4">
      <g>
       <use style="stroke:#000000;stroke-width:0.8;" x="176.185837" xlink:href="#m2eaaf75b99" y="273.312"/>
      </g>
     </g>
     <g id="text_4">
      <!-- 150 -->
      <g transform="translate(166.642087 287.910437)scale(0.1 -0.1)">
       <use xlink:href="#DejaVuSans-49"/>
       <use x="63.623047" xlink:href="#DejaVuSans-53"/>
       <use x="127.246094" xlink:href="#DejaVuSans-48"/>
      </g>
     </g>
    </g>
    <g id="xtick_5">
     <g id="line2d_5">
      <g>
       <use style="stroke:#000000;stroke-width:0.8;" x="218.903541" xlink:href="#m2eaaf75b99" y="273.312"/>
      </g>
     </g>
     <g id="text_5">
      <!-- 200 -->
      <defs>
       <path d="M 19.1875 8.296875 
L 53.609375 8.296875 
L 53.609375 0 
L 7.328125 0 
L 7.328125 8.296875 
Q 12.9375 14.109375 22.625 23.890625 
Q 32.328125 33.6875 34.8125 36.53125 
Q 39.546875 41.84375 41.421875 45.53125 
Q 43.3125 49.21875 43.3125 52.78125 
Q 43.3125 58.59375 39.234375 62.25 
Q 35.15625 65.921875 28.609375 65.921875 
Q 23.96875 65.921875 18.8125 64.3125 
Q 13.671875 62.703125 7.8125 59.421875 
L 7.8125 69.390625 
Q 13.765625 71.78125 18.9375 73 
Q 24.125 74.21875 28.421875 74.21875 
Q 39.75 74.21875 46.484375 68.546875 
Q 53.21875 62.890625 53.21875 53.421875 
Q 53.21875 48.921875 51.53125 44.890625 
Q 49.859375 40.875 45.40625 35.40625 
Q 44.1875 33.984375 37.640625 27.21875 
Q 31.109375 20.453125 19.1875 8.296875 
z
" id="DejaVuSans-50"/>
      </defs>
      <g transform="translate(209.359791 287.910437)scale(0.1 -0.1)">
       <use xlink:href="#DejaVuSans-50"/>
       <use x="63.623047" xlink:href="#DejaVuSans-48"/>
       <use x="127.246094" xlink:href="#DejaVuSans-48"/>
      </g>
     </g>
    </g>
    <g id="xtick_6">
     <g id="line2d_6">
      <g>
       <use style="stroke:#000000;stroke-width:0.8;" x="261.621244" xlink:href="#m2eaaf75b99" y="273.312"/>
      </g>
     </g>
     <g id="text_6">
      <!-- 250 -->
      <g transform="translate(252.077494 287.910437)scale(0.1 -0.1)">
       <use xlink:href="#DejaVuSans-50"/>
       <use x="63.623047" xlink:href="#DejaVuSans-53"/>
       <use x="127.246094" xlink:href="#DejaVuSans-48"/>
      </g>
     </g>
    </g>
    <g id="xtick_7">
     <g id="line2d_7">
      <g>
       <use style="stroke:#000000;stroke-width:0.8;" x="304.338947" xlink:href="#m2eaaf75b99" y="273.312"/>
      </g>
     </g>
     <g id="text_7">
      <!-- 300 -->
      <defs>
       <path d="M 40.578125 39.3125 
Q 47.65625 37.796875 51.625 33 
Q 55.609375 28.21875 55.609375 21.1875 
Q 55.609375 10.40625 48.1875 4.484375 
Q 40.765625 -1.421875 27.09375 -1.421875 
Q 22.515625 -1.421875 17.65625 -0.515625 
Q 12.796875 0.390625 7.625 2.203125 
L 7.625 11.71875 
Q 11.71875 9.328125 16.59375 8.109375 
Q 21.484375 6.890625 26.8125 6.890625 
Q 36.078125 6.890625 40.9375 10.546875 
Q 45.796875 14.203125 45.796875 21.1875 
Q 45.796875 27.640625 41.28125 31.265625 
Q 36.765625 34.90625 28.71875 34.90625 
L 20.21875 34.90625 
L 20.21875 43.015625 
L 29.109375 43.015625 
Q 36.375 43.015625 40.234375 45.921875 
Q 44.09375 48.828125 44.09375 54.296875 
Q 44.09375 59.90625 40.109375 62.90625 
Q 36.140625 65.921875 28.71875 65.921875 
Q 24.65625 65.921875 20.015625 65.03125 
Q 15.375 64.15625 9.8125 62.3125 
L 9.8125 71.09375 
Q 15.4375 72.65625 20.34375 73.4375 
Q 25.25 74.21875 29.59375 74.21875 
Q 40.828125 74.21875 47.359375 69.109375 
Q 53.90625 64.015625 53.90625 55.328125 
Q 53.90625 49.265625 50.4375 45.09375 
Q 46.96875 40.921875 40.578125 39.3125 
z
" id="DejaVuSans-51"/>
      </defs>
      <g transform="translate(294.795197 287.910437)scale(0.1 -0.1)">
       <use xlink:href="#DejaVuSans-51"/>
       <use x="63.623047" xlink:href="#DejaVuSans-48"/>
       <use x="127.246094" xlink:href="#DejaVuSans-48"/>
      </g>
     </g>
    </g>
    <g id="xtick_8">
     <g id="line2d_8">
      <g>
       <use style="stroke:#000000;stroke-width:0.8;" x="347.056651" xlink:href="#m2eaaf75b99" y="273.312"/>
      </g>
     </g>
     <g id="text_8">
      <!-- 350 -->
      <g transform="translate(337.512901 287.910437)scale(0.1 -0.1)">
       <use xlink:href="#DejaVuSans-51"/>
       <use x="63.623047" xlink:href="#DejaVuSans-53"/>
       <use x="127.246094" xlink:href="#DejaVuSans-48"/>
      </g>
     </g>
    </g>
    <g id="text_9">
     <!-- $ k $ -->
     <defs>
      <path d="M 18.3125 75.984375 
L 27.296875 75.984375 
L 18.703125 31.6875 
L 49.515625 54.6875 
L 61.1875 54.6875 
L 26.8125 28.515625 
L 51.90625 0 
L 41.015625 0 
L 17.671875 26.703125 
L 12.5 0 
L 3.515625 0 
z
" id="DejaVuSans-Oblique-107"/>
     </defs>
     <g transform="translate(207.46 301.588562)scale(0.1 -0.1)">
      <use transform="translate(0 0.015625)" xlink:href="#DejaVuSans-Oblique-107"/>
     </g>
    </g>
   </g>
   <g id="matplotlib.axis_2">
    <g id="ytick_1">
     <g id="line2d_9">
      <defs>
       <path d="M 0 0 
L -3.5 0 
" id="mdda92c738c" style="stroke:#000000;stroke-width:0.8;"/>
      </defs>
      <g>
       <use style="stroke:#000000;stroke-width:0.8;" x="31.8" xlink:href="#mdda92c738c" y="217.858689"/>
      </g>
     </g>
     <g id="text_10">
      <!-- $\mathdefault{10^{0}}$ -->
      <g transform="translate(7.2 221.657908)scale(0.1 -0.1)">
       <use transform="translate(0 0.765625)" xlink:href="#DejaVuSans-49"/>
       <use transform="translate(63.623047 0.765625)" xlink:href="#DejaVuSans-48"/>
       <use transform="translate(128.203125 39.046875)scale(0.7)" xlink:href="#DejaVuSans-48"/>
      </g>
     </g>
    </g>
    <g id="ytick_2">
     <g id="line2d_10">
      <g>
       <use style="stroke:#000000;stroke-width:0.8;" x="31.8" xlink:href="#mdda92c738c" y="133.3266"/>
      </g>
     </g>
     <g id="text_11">
      <!-- $\mathdefault{10^{1}}$ -->
      <g transform="translate(7.2 137.125819)scale(0.1 -0.1)">
       <use transform="translate(0 0.684375)" xlink:href="#DejaVuSans-49"/>
       <use transform="translate(63.623047 0.684375)" xlink:href="#DejaVuSans-48"/>
       <use transform="translate(128.203125 38.965625)scale(0.7)" xlink:href="#DejaVuSans-49"/>
      </g>
     </g>
    </g>
    <g id="ytick_3">
     <g id="line2d_11">
      <g>
       <use style="stroke:#000000;stroke-width:0.8;" x="31.8" xlink:href="#mdda92c738c" y="48.794512"/>
      </g>
     </g>
     <g id="text_12">
      <!-- $\mathdefault{10^{2}}$ -->
      <g transform="translate(7.2 52.59373)scale(0.1 -0.1)">
       <use transform="translate(0 0.765625)" xlink:href="#DejaVuSans-49"/>
       <use transform="translate(63.623047 0.765625)" xlink:href="#DejaVuSans-48"/>
       <use transform="translate(128.203125 39.046875)scale(0.7)" xlink:href="#DejaVuSans-50"/>
      </g>
     </g>
    </g>
    <g id="ytick_4">
     <g id="line2d_12">
      <defs>
       <path d="M 0 0 
L -2 0 
" id="mcf26059f8c" style="stroke:#000000;stroke-width:0.6;"/>
      </defs>
      <g>
       <use style="stroke:#000000;stroke-width:0.6;" x="31.8" xlink:href="#mcf26059f8c" y="262.058722"/>
      </g>
     </g>
    </g>
    <g id="ytick_5">
     <g id="line2d_13">
      <g>
       <use style="stroke:#000000;stroke-width:0.6;" x="31.8" xlink:href="#mcf26059f8c" y="251.497389"/>
      </g>
     </g>
    </g>
    <g id="ytick_6">
     <g id="line2d_14">
      <g>
       <use style="stroke:#000000;stroke-width:0.6;" x="31.8" xlink:href="#mcf26059f8c" y="243.305383"/>
      </g>
     </g>
    </g>
    <g id="ytick_7">
     <g id="line2d_15">
      <g>
       <use style="stroke:#000000;stroke-width:0.6;" x="31.8" xlink:href="#mcf26059f8c" y="236.612027"/>
      </g>
     </g>
    </g>
    <g id="ytick_8">
     <g id="line2d_16">
      <g>
       <use style="stroke:#000000;stroke-width:0.6;" x="31.8" xlink:href="#mcf26059f8c" y="230.952875"/>
      </g>
     </g>
    </g>
    <g id="ytick_9">
     <g id="line2d_17">
      <g>
       <use style="stroke:#000000;stroke-width:0.6;" x="31.8" xlink:href="#mcf26059f8c" y="226.050695"/>
      </g>
     </g>
    </g>
    <g id="ytick_10">
     <g id="line2d_18">
      <g>
       <use style="stroke:#000000;stroke-width:0.6;" x="31.8" xlink:href="#mcf26059f8c" y="221.726665"/>
      </g>
     </g>
    </g>
    <g id="ytick_11">
     <g id="line2d_19">
      <g>
       <use style="stroke:#000000;stroke-width:0.6;" x="31.8" xlink:href="#mcf26059f8c" y="192.411995"/>
      </g>
     </g>
    </g>
    <g id="ytick_12">
     <g id="line2d_20">
      <g>
       <use style="stroke:#000000;stroke-width:0.6;" x="31.8" xlink:href="#mcf26059f8c" y="177.526633"/>
      </g>
     </g>
    </g>
    <g id="ytick_13">
     <g id="line2d_21">
      <g>
       <use style="stroke:#000000;stroke-width:0.6;" x="31.8" xlink:href="#mcf26059f8c" y="166.9653"/>
      </g>
     </g>
    </g>
    <g id="ytick_14">
     <g id="line2d_22">
      <g>
       <use style="stroke:#000000;stroke-width:0.6;" x="31.8" xlink:href="#mcf26059f8c" y="158.773295"/>
      </g>
     </g>
    </g>
    <g id="ytick_15">
     <g id="line2d_23">
      <g>
       <use style="stroke:#000000;stroke-width:0.6;" x="31.8" xlink:href="#mcf26059f8c" y="152.079939"/>
      </g>
     </g>
    </g>
    <g id="ytick_16">
     <g id="line2d_24">
      <g>
       <use style="stroke:#000000;stroke-width:0.6;" x="31.8" xlink:href="#mcf26059f8c" y="146.420787"/>
      </g>
     </g>
    </g>
    <g id="ytick_17">
     <g id="line2d_25">
      <g>
       <use style="stroke:#000000;stroke-width:0.6;" x="31.8" xlink:href="#mcf26059f8c" y="141.518606"/>
      </g>
     </g>
    </g>
    <g id="ytick_18">
     <g id="line2d_26">
      <g>
       <use style="stroke:#000000;stroke-width:0.6;" x="31.8" xlink:href="#mcf26059f8c" y="137.194577"/>
      </g>
     </g>
    </g>
    <g id="ytick_19">
     <g id="line2d_27">
      <g>
       <use style="stroke:#000000;stroke-width:0.6;" x="31.8" xlink:href="#mcf26059f8c" y="107.879906"/>
      </g>
     </g>
    </g>
    <g id="ytick_20">
     <g id="line2d_28">
      <g>
       <use style="stroke:#000000;stroke-width:0.6;" x="31.8" xlink:href="#mcf26059f8c" y="92.994544"/>
      </g>
     </g>
    </g>
    <g id="ytick_21">
     <g id="line2d_29">
      <g>
       <use style="stroke:#000000;stroke-width:0.6;" x="31.8" xlink:href="#mcf26059f8c" y="82.433212"/>
      </g>
     </g>
    </g>
    <g id="ytick_22">
     <g id="line2d_30">
      <g>
       <use style="stroke:#000000;stroke-width:0.6;" x="31.8" xlink:href="#mcf26059f8c" y="74.241206"/>
      </g>
     </g>
    </g>
    <g id="ytick_23">
     <g id="line2d_31">
      <g>
       <use style="stroke:#000000;stroke-width:0.6;" x="31.8" xlink:href="#mcf26059f8c" y="67.54785"/>
      </g>
     </g>
    </g>
    <g id="ytick_24">
     <g id="line2d_32">
      <g>
       <use style="stroke:#000000;stroke-width:0.6;" x="31.8" xlink:href="#mcf26059f8c" y="61.888698"/>
      </g>
     </g>
    </g>
    <g id="ytick_25">
     <g id="line2d_33">
      <g>
       <use style="stroke:#000000;stroke-width:0.6;" x="31.8" xlink:href="#mcf26059f8c" y="56.986517"/>
      </g>
     </g>
    </g>
    <g id="ytick_26">
     <g id="line2d_34">
      <g>
       <use style="stroke:#000000;stroke-width:0.6;" x="31.8" xlink:href="#mcf26059f8c" y="52.662488"/>
      </g>
     </g>
    </g>
    <g id="ytick_27">
     <g id="line2d_35">
      <g>
       <use style="stroke:#000000;stroke-width:0.6;" x="31.8" xlink:href="#mcf26059f8c" y="23.347817"/>
      </g>
     </g>
    </g>
    <g id="ytick_28">
     <g id="line2d_36">
      <g>
       <use style="stroke:#000000;stroke-width:0.6;" x="31.8" xlink:href="#mcf26059f8c" y="8.462455"/>
      </g>
     </g>
    </g>
   </g>
   <g id="line2d_37">
    <path clip-path="url(#pc7a200bda3)" d="M 48.032727 77.677153 
L 48.887081 139.359284 
L 49.741435 33.261205 
L 50.595789 110.047403 
L 51.450144 76.95849 
L 52.304498 140.701615 
L 53.158852 51.839821 
L 54.013206 129.690172 
L 54.86756 31.560905 
L 55.721914 124.4963 
L 56.576268 60.703497 
L 57.430622 159.366195 
L 58.284976 35.262654 
L 59.13933 93.469946 
L 59.993684 98.899578 
L 60.848038 97.725927 
L 61.702392 89.54496 
L 62.556746 108.739507 
L 63.4111 76.446562 
L 64.265455 140.063717 
L 65.119809 52.274225 
L 65.974163 130.984487 
L 66.828517 31.776974 
L 67.682871 122.65791 
L 68.537225 62.383527 
L 69.391579 170.426133 
L 70.245933 36.260103 
L 71.954641 123.648922 
L 72.808995 72.728943 
L 73.663349 143.805027 
L 74.517703 55.96849 
L 75.372057 147.633381 
L 76.226411 34.84307 
L 77.080766 89.184105 
L 77.93512 115.439061 
L 78.789474 69.470039 
L 79.643828 191.564871 
L 80.498182 41.939841 
L 81.352536 28.683973 
L 82.20689 254.411246 
L 83.061244 43.401897 
L 83.915598 116.261855 
L 84.769952 29.457145 
L 85.624306 140.736286 
L 86.47866 52.035736 
L 87.333014 130.5978 
L 88.187368 31.738063 
L 89.041722 122.831488 
L 89.896077 62.375782 
L 90.750431 170.755726 
L 91.604785 36.309222 
L 93.313493 126.097189 
L 94.167847 70.679832 
L 95.022201 153.932512 
L 95.876555 52.13633 
L 96.730909 134.50647 
L 97.585263 32.764189 
L 98.439617 111.427183 
L 99.293971 78.14565 
L 100.148325 132.159699 
L 101.002679 58.415168 
L 101.857033 153.58979 
L 102.711388 35.077498 
L 103.565742 92.556132 
L 104.420096 103.712452 
L 105.27445 88.772743 
L 106.128804 105.741408 
L 106.983158 84.107714 
L 107.837512 114.915597 
L 108.691866 73.289577 
L 109.54622 148.528842 
L 110.400574 50.857979 
L 111.254928 128.927607 
L 112.109282 31.564447 
L 112.963636 123.540635 
L 113.81799 62.434723 
L 114.672344 173.157825 
L 115.526699 36.611041 
L 116.381053 75.282412 
L 117.235407 145.658261 
L 118.089761 58.310712 
L 118.944115 161.436776 
L 119.798469 37.049236 
L 120.652823 54.734329 
L 121.507177 93.908296 
L 122.361531 24.834174 
L 123.215885 236.384982 
L 124.070239 41.161646 
L 124.924593 30.650326 
L 125.778947 200.827426 
L 126.633301 41.381983 
L 127.487656 30.754351 
L 128.34201 100.114499 
L 129.196364 26.294887 
L 130.050718 182.155686 
L 130.905072 43.396641 
L 131.759426 27.378111 
L 132.61378 179.064681 
L 133.468134 36.831952 
L 134.322488 75.35119 
L 135.176842 139.136232 
L 136.031196 64.85361 
L 136.88555 203.534253 
L 137.739904 45.786754 
L 138.594258 121.152371 
L 139.448612 30.438782 
L 140.302967 130.881783 
L 141.157321 58.407249 
L 142.011675 152.324198 
L 142.866029 34.849054 
L 143.720383 95.621005 
L 144.574737 97.857732 
L 145.429091 96.801841 
L 146.283445 92.738494 
L 147.137799 101.976833 
L 147.992153 86.179433 
L 148.846507 112.750584 
L 149.700861 73.801649 
L 150.555215 148.730479 
L 151.409569 49.9172 
L 152.263923 126.280773 
L 153.118278 31.075368 
L 153.972632 127.949017 
L 154.826986 58.450038 
L 155.68134 149.364561 
L 156.535694 34.233235 
L 157.390048 103.077193 
L 158.244402 84.722642 
L 159.098756 120.689356 
L 159.95311 63.341881 
L 160.807464 180.773721 
L 161.661818 36.988022 
L 162.516172 70.246644 
L 163.370526 173.748647 
L 164.22488 51.285926 
L 165.079234 134.26197 
L 165.933589 33.093678 
L 166.787943 103.940951 
L 167.642297 91.917554 
L 168.496651 98.271643 
L 170.205359 93.095884 
L 171.059713 101.899762 
L 171.914067 85.7777 
L 172.768421 113.937525 
L 173.622775 72.179131 
L 174.477129 158.081508 
L 175.331483 47.182963 
L 176.185837 120.954965 
L 177.040191 30.171259 
L 177.894545 135.669132 
L 178.7489 53.496262 
L 179.603254 133.309148 
L 180.457608 32.083442 
L 181.311962 120.565123 
L 182.166316 63.956144 
L 183.02067 183.511598 
L 183.875024 37.107246 
L 184.729378 68.781773 
L 185.583732 187.241442 
L 186.438086 49.721721 
L 187.29244 130.514897 
L 188.146794 32.443037 
L 189.001148 110.231038 
L 189.855502 83.015512 
L 190.709856 115.374283 
L 191.564211 75.20869 
L 192.418565 137.578588 
L 193.272919 56.860914 
L 194.127273 148.817304 
L 194.981627 34.702102 
L 195.835981 94.728349 
L 196.690335 101.626697 
L 197.544689 89.617453 
L 198.399043 105.555071 
L 199.253397 83.249349 
L 200.107751 117.675121 
L 200.962105 69.78059 
L 201.816459 172.693405 
L 202.670813 45.082994 
L 203.525167 117.787903 
L 204.379522 29.637584 
L 205.233876 140.249024 
L 206.08823 51.401413 
L 206.942584 128.493252 
L 207.796938 31.358534 
L 208.651292 126.226286 
L 209.505646 59.221631 
L 210.36 151.880035 
L 211.214354 34.463664 
L 212.068708 101.329493 
L 212.923062 86.786867 
L 213.777416 116.831957 
L 214.63177 66.536864 
L 215.486124 261.216 
L 216.340478 39.202522 
L 217.194833 40.804031 
L 218.049187 109.770963 
L 218.903541 28.412004 
L 219.757895 148.831529 
L 220.612249 50.760818 
L 221.466603 129.152512 
L 222.320957 31.642934 
L 223.175311 122.580965 
L 224.029665 63.627361 
L 224.884019 186.120475 
L 225.738373 37.553778 
L 226.592727 59.467808 
L 227.447081 151.762276 
L 228.301435 36.79989 
L 229.155789 54.846879 
L 230.010144 95.727071 
L 230.864498 25.181744 
L 231.718852 204.465187 
L 232.573206 43.170774 
L 233.42756 115.904817 
L 234.281914 29.343334 
L 235.136268 142.320111 
L 235.990622 50.947191 
L 236.844976 127.839854 
L 237.69933 31.278576 
L 238.553684 126.689922 
L 239.408038 59.03295 
L 240.262392 151.308924 
L 241.116746 34.418406 
L 241.9711 101.639038 
L 242.825455 86.475763 
L 243.679809 117.313429 
L 244.534163 66.188058 
L 245.388517 239.257024 
L 246.242871 38.972532 
L 247.097225 42.734332 
L 247.951579 112.412845 
L 248.805933 29.02954 
L 249.660287 141.261037 
L 250.514641 54.636449 
L 251.368995 140.654293 
L 252.223349 33.575708 
L 253.077703 105.568941 
L 253.932057 84.919303 
L 254.786411 116.21269 
L 255.640766 70.741374 
L 256.49512 166.704518 
L 257.349474 45.758279 
L 258.203828 118.720697 
L 259.058182 29.793832 
L 259.912536 138.913616 
L 260.76689 51.949272 
L 261.621244 129.662533 
L 262.475598 31.536851 
L 263.329952 124.836752 
L 264.184306 60.283534 
L 265.03866 156.870391 
L 265.893014 34.993899 
L 266.747368 96.325931 
L 267.601722 94.20381 
L 268.456077 104.28088 
L 269.310431 80.69556 
L 270.164785 128.114483 
L 271.019139 58.065225 
L 271.873493 148.507867 
L 272.727847 34.133612 
L 273.582201 103.87104 
L 274.436555 83.667773 
L 275.290909 123.000112 
L 276.145263 61.456742 
L 276.999617 165.24178 
L 277.853971 35.815578 
L 278.708325 87.044286 
L 279.562679 110.607679 
L 280.417033 84.389689 
L 281.271388 111.324954 
L 282.125742 79.945789 
L 282.980096 122.665012 
L 283.83445 67.482856 
L 284.688804 191.338294 
L 285.543158 43.886682 
L 286.397512 116.378345 
L 287.251866 29.40824 
L 288.10622 142.106243 
L 288.960574 50.791496 
L 289.814928 127.323703 
L 290.669282 31.18362 
L 291.523636 127.558663 
L 292.37799 58.293181 
L 293.232344 148.100614 
L 294.086699 34.035151 
L 294.941053 105.053688 
L 295.795407 81.667197 
L 296.649761 128.449855 
L 297.504115 57.171317 
L 298.358469 144.039669 
L 299.212823 33.507748 
L 300.067177 109.543376 
L 300.921531 75.669894 
L 301.775885 149.253716 
L 302.630239 47.801415 
L 303.484593 121.48745 
L 304.338947 30.224594 
L 305.193301 135.170587 
L 306.047656 53.829534 
L 306.90201 134.24755 
L 307.756364 32.227188 
L 308.610718 119.400052 
L 309.465072 65.106636 
L 310.319426 199.106293 
L 311.17378 37.892039 
L 312.028134 56.156977 
L 312.882488 143.168726 
L 313.736842 36.060741 
L 314.591196 107.740694 
L 315.44555 27.837886 
L 316.299904 158.096006 
L 317.154258 46.403907 
L 318.008612 119.582988 
L 318.862967 29.925239 
L 319.717321 137.895003 
L 320.571675 52.309835 
L 321.426029 130.391793 
L 322.280383 31.641933 
L 323.134737 124.054397 
L 323.989091 60.871138 
L 324.843445 159.904417 
L 325.697799 35.288975 
L 326.552153 93.329906 
L 327.406507 98.948781 
L 328.260861 97.825445 
L 329.115215 89.26266 
L 329.969569 109.352112 
L 330.823923 75.617267 
L 331.678278 143.504916 
L 332.532632 50.792823 
L 333.386986 127.534461 
L 334.24134 31.230277 
L 335.095694 127.070867 
L 335.950048 58.751953 
L 336.804402 150.116962 
L 337.658756 34.282618 
L 338.51311 102.846593 
L 339.367464 84.775581 
L 340.221818 120.875805 
L 341.076172 62.95246 
L 341.930526 176.35362 
L 342.78488 36.657102 
L 343.639234 75.669978 
L 344.493589 141.287023 
L 345.347943 61.664244 
L 346.202297 199.500917 
L 347.056651 40.639304 
L 347.911005 112.667991 
L 348.765359 28.762262 
L 349.619713 147.92288 
L 350.474067 48.989264 
L 351.328421 123.976 
L 352.182775 30.657349 
L 353.037129 131.726318 
L 353.891483 55.60484 
L 354.745837 138.982249 
L 355.600191 32.879348 
L 356.454545 114.404962 
L 357.3089 70.178545 
L 358.163254 188.834125 
L 359.017608 41.907131 
L 359.871962 28.825038 
L 360.726316 186.551862 
L 361.58067 49.765143 
L 362.435024 132.784533 
L 363.289378 33.232457 
L 364.143732 87.019031 
L 364.998086 131.176686 
L 365.85244 47.329717 
L 366.706794 19.296 
L 367.561148 95.152981 
L 368.415502 25.158674 
L 369.269856 216.14342 
L 370.124211 41.574683 
L 370.978565 29.683939 
L 370.98141 311.86825 
L 370.98141 311.86825 
" style="fill:none;stroke:#1f77b4;stroke-linecap:square;stroke-width:1.5;"/>
    <defs>
     <path d="M 0 3 
C 0.795609 3 1.55874 2.683901 2.12132 2.12132 
C 2.683901 1.55874 3 0.795609 3 0 
C 3 -0.795609 2.683901 -1.55874 2.12132 -2.12132 
C 1.55874 -2.683901 0.795609 -3 0 -3 
C -0.795609 -3 -1.55874 -2.683901 -2.12132 -2.12132 
C -2.683901 -1.55874 -3 -0.795609 -3 0 
C -3 0.795609 -2.683901 1.55874 -2.12132 2.12132 
C -1.55874 2.683901 -0.795609 3 0 3 
z
" id="m2a4005aad9" style="stroke:#1f77b4;"/>
    </defs>
    <g clip-path="url(#pc7a200bda3)">
     <use style="fill:#1f77b4;stroke:#1f77b4;" x="48.032727" xlink:href="#m2a4005aad9" y="77.677153"/>
     <use style="fill:#1f77b4;stroke:#1f77b4;" x="48.887081" xlink:href="#m2a4005aad9" y="139.359284"/>
     <use style="fill:#1f77b4;stroke:#1f77b4;" x="49.741435" xlink:href="#m2a4005aad9" y="33.261205"/>
     <use style="fill:#1f77b4;stroke:#1f77b4;" x="50.595789" xlink:href="#m2a4005aad9" y="110.047403"/>
     <use style="fill:#1f77b4;stroke:#1f77b4;" x="51.450144" xlink:href="#m2a4005aad9" y="76.95849"/>
     <use style="fill:#1f77b4;stroke:#1f77b4;" x="52.304498" xlink:href="#m2a4005aad9" y="140.701615"/>
     <use style="fill:#1f77b4;stroke:#1f77b4;" x="53.158852" xlink:href="#m2a4005aad9" y="51.839821"/>
     <use style="fill:#1f77b4;stroke:#1f77b4;" x="54.013206" xlink:href="#m2a4005aad9" y="129.690172"/>
     <use style="fill:#1f77b4;stroke:#1f77b4;" x="54.86756" xlink:href="#m2a4005aad9" y="31.560905"/>
     <use style="fill:#1f77b4;stroke:#1f77b4;" x="55.721914" xlink:href="#m2a4005aad9" y="124.4963"/>
     <use style="fill:#1f77b4;stroke:#1f77b4;" x="56.576268" xlink:href="#m2a4005aad9" y="60.703497"/>
     <use style="fill:#1f77b4;stroke:#1f77b4;" x="57.430622" xlink:href="#m2a4005aad9" y="159.366195"/>
     <use style="fill:#1f77b4;stroke:#1f77b4;" x="58.284976" xlink:href="#m2a4005aad9" y="35.262654"/>
     <use style="fill:#1f77b4;stroke:#1f77b4;" x="59.13933" xlink:href="#m2a4005aad9" y="93.469946"/>
     <use style="fill:#1f77b4;stroke:#1f77b4;" x="59.993684" xlink:href="#m2a4005aad9" y="98.899578"/>
     <use style="fill:#1f77b4;stroke:#1f77b4;" x="60.848038" xlink:href="#m2a4005aad9" y="97.725927"/>
     <use style="fill:#1f77b4;stroke:#1f77b4;" x="61.702392" xlink:href="#m2a4005aad9" y="89.54496"/>
     <use style="fill:#1f77b4;stroke:#1f77b4;" x="62.556746" xlink:href="#m2a4005aad9" y="108.739507"/>
     <use style="fill:#1f77b4;stroke:#1f77b4;" x="63.4111" xlink:href="#m2a4005aad9" y="76.446562"/>
     <use style="fill:#1f77b4;stroke:#1f77b4;" x="64.265455" xlink:href="#m2a4005aad9" y="140.063717"/>
     <use style="fill:#1f77b4;stroke:#1f77b4;" x="65.119809" xlink:href="#m2a4005aad9" y="52.274225"/>
     <use style="fill:#1f77b4;stroke:#1f77b4;" x="65.974163" xlink:href="#m2a4005aad9" y="130.984487"/>
     <use style="fill:#1f77b4;stroke:#1f77b4;" x="66.828517" xlink:href="#m2a4005aad9" y="31.776974"/>
     <use style="fill:#1f77b4;stroke:#1f77b4;" x="67.682871" xlink:href="#m2a4005aad9" y="122.65791"/>
     <use style="fill:#1f77b4;stroke:#1f77b4;" x="68.537225" xlink:href="#m2a4005aad9" y="62.383527"/>
     <use style="fill:#1f77b4;stroke:#1f77b4;" x="69.391579" xlink:href="#m2a4005aad9" y="170.426133"/>
     <use style="fill:#1f77b4;stroke:#1f77b4;" x="70.245933" xlink:href="#m2a4005aad9" y="36.260103"/>
     <use style="fill:#1f77b4;stroke:#1f77b4;" x="71.100287" xlink:href="#m2a4005aad9" y="81.312808"/>
     <use style="fill:#1f77b4;stroke:#1f77b4;" x="71.954641" xlink:href="#m2a4005aad9" y="123.648922"/>
     <use style="fill:#1f77b4;stroke:#1f77b4;" x="72.808995" xlink:href="#m2a4005aad9" y="72.728943"/>
     <use style="fill:#1f77b4;stroke:#1f77b4;" x="73.663349" xlink:href="#m2a4005aad9" y="143.805027"/>
     <use style="fill:#1f77b4;stroke:#1f77b4;" x="74.517703" xlink:href="#m2a4005aad9" y="55.96849"/>
     <use style="fill:#1f77b4;stroke:#1f77b4;" x="75.372057" xlink:href="#m2a4005aad9" y="147.633381"/>
     <use style="fill:#1f77b4;stroke:#1f77b4;" x="76.226411" xlink:href="#m2a4005aad9" y="34.84307"/>
     <use style="fill:#1f77b4;stroke:#1f77b4;" x="77.080766" xlink:href="#m2a4005aad9" y="89.184105"/>
     <use style="fill:#1f77b4;stroke:#1f77b4;" x="77.93512" xlink:href="#m2a4005aad9" y="115.439061"/>
     <use style="fill:#1f77b4;stroke:#1f77b4;" x="78.789474" xlink:href="#m2a4005aad9" y="69.470039"/>
     <use style="fill:#1f77b4;stroke:#1f77b4;" x="79.643828" xlink:href="#m2a4005aad9" y="191.564871"/>
     <use style="fill:#1f77b4;stroke:#1f77b4;" x="80.498182" xlink:href="#m2a4005aad9" y="41.939841"/>
     <use style="fill:#1f77b4;stroke:#1f77b4;" x="81.352536" xlink:href="#m2a4005aad9" y="28.683973"/>
     <use style="fill:#1f77b4;stroke:#1f77b4;" x="82.20689" xlink:href="#m2a4005aad9" y="254.411246"/>
     <use style="fill:#1f77b4;stroke:#1f77b4;" x="83.061244" xlink:href="#m2a4005aad9" y="43.401897"/>
     <use style="fill:#1f77b4;stroke:#1f77b4;" x="83.915598" xlink:href="#m2a4005aad9" y="116.261855"/>
     <use style="fill:#1f77b4;stroke:#1f77b4;" x="84.769952" xlink:href="#m2a4005aad9" y="29.457145"/>
     <use style="fill:#1f77b4;stroke:#1f77b4;" x="85.624306" xlink:href="#m2a4005aad9" y="140.736286"/>
     <use style="fill:#1f77b4;stroke:#1f77b4;" x="86.47866" xlink:href="#m2a4005aad9" y="52.035736"/>
     <use style="fill:#1f77b4;stroke:#1f77b4;" x="87.333014" xlink:href="#m2a4005aad9" y="130.5978"/>
     <use style="fill:#1f77b4;stroke:#1f77b4;" x="88.187368" xlink:href="#m2a4005aad9" y="31.738063"/>
     <use style="fill:#1f77b4;stroke:#1f77b4;" x="89.041722" xlink:href="#m2a4005aad9" y="122.831488"/>
     <use style="fill:#1f77b4;stroke:#1f77b4;" x="89.896077" xlink:href="#m2a4005aad9" y="62.375782"/>
     <use style="fill:#1f77b4;stroke:#1f77b4;" x="90.750431" xlink:href="#m2a4005aad9" y="170.755726"/>
     <use style="fill:#1f77b4;stroke:#1f77b4;" x="91.604785" xlink:href="#m2a4005aad9" y="36.309222"/>
     <use style="fill:#1f77b4;stroke:#1f77b4;" x="92.459139" xlink:href="#m2a4005aad9" y="80.488973"/>
     <use style="fill:#1f77b4;stroke:#1f77b4;" x="93.313493" xlink:href="#m2a4005aad9" y="126.097189"/>
     <use style="fill:#1f77b4;stroke:#1f77b4;" x="94.167847" xlink:href="#m2a4005aad9" y="70.679832"/>
     <use style="fill:#1f77b4;stroke:#1f77b4;" x="95.022201" xlink:href="#m2a4005aad9" y="153.932512"/>
     <use style="fill:#1f77b4;stroke:#1f77b4;" x="95.876555" xlink:href="#m2a4005aad9" y="52.13633"/>
     <use style="fill:#1f77b4;stroke:#1f77b4;" x="96.730909" xlink:href="#m2a4005aad9" y="134.50647"/>
     <use style="fill:#1f77b4;stroke:#1f77b4;" x="97.585263" xlink:href="#m2a4005aad9" y="32.764189"/>
     <use style="fill:#1f77b4;stroke:#1f77b4;" x="98.439617" xlink:href="#m2a4005aad9" y="111.427183"/>
     <use style="fill:#1f77b4;stroke:#1f77b4;" x="99.293971" xlink:href="#m2a4005aad9" y="78.14565"/>
     <use style="fill:#1f77b4;stroke:#1f77b4;" x="100.148325" xlink:href="#m2a4005aad9" y="132.159699"/>
     <use style="fill:#1f77b4;stroke:#1f77b4;" x="101.002679" xlink:href="#m2a4005aad9" y="58.415168"/>
     <use style="fill:#1f77b4;stroke:#1f77b4;" x="101.857033" xlink:href="#m2a4005aad9" y="153.58979"/>
     <use style="fill:#1f77b4;stroke:#1f77b4;" x="102.711388" xlink:href="#m2a4005aad9" y="35.077498"/>
     <use style="fill:#1f77b4;stroke:#1f77b4;" x="103.565742" xlink:href="#m2a4005aad9" y="92.556132"/>
     <use style="fill:#1f77b4;stroke:#1f77b4;" x="104.420096" xlink:href="#m2a4005aad9" y="103.712452"/>
     <use style="fill:#1f77b4;stroke:#1f77b4;" x="105.27445" xlink:href="#m2a4005aad9" y="88.772743"/>
     <use style="fill:#1f77b4;stroke:#1f77b4;" x="106.128804" xlink:href="#m2a4005aad9" y="105.741408"/>
     <use style="fill:#1f77b4;stroke:#1f77b4;" x="106.983158" xlink:href="#m2a4005aad9" y="84.107714"/>
     <use style="fill:#1f77b4;stroke:#1f77b4;" x="107.837512" xlink:href="#m2a4005aad9" y="114.915597"/>
     <use style="fill:#1f77b4;stroke:#1f77b4;" x="108.691866" xlink:href="#m2a4005aad9" y="73.289577"/>
     <use style="fill:#1f77b4;stroke:#1f77b4;" x="109.54622" xlink:href="#m2a4005aad9" y="148.528842"/>
     <use style="fill:#1f77b4;stroke:#1f77b4;" x="110.400574" xlink:href="#m2a4005aad9" y="50.857979"/>
     <use style="fill:#1f77b4;stroke:#1f77b4;" x="111.254928" xlink:href="#m2a4005aad9" y="128.927607"/>
     <use style="fill:#1f77b4;stroke:#1f77b4;" x="112.109282" xlink:href="#m2a4005aad9" y="31.564447"/>
     <use style="fill:#1f77b4;stroke:#1f77b4;" x="112.963636" xlink:href="#m2a4005aad9" y="123.540635"/>
     <use style="fill:#1f77b4;stroke:#1f77b4;" x="113.81799" xlink:href="#m2a4005aad9" y="62.434723"/>
     <use style="fill:#1f77b4;stroke:#1f77b4;" x="114.672344" xlink:href="#m2a4005aad9" y="173.157825"/>
     <use style="fill:#1f77b4;stroke:#1f77b4;" x="115.526699" xlink:href="#m2a4005aad9" y="36.611041"/>
     <use style="fill:#1f77b4;stroke:#1f77b4;" x="116.381053" xlink:href="#m2a4005aad9" y="75.282412"/>
     <use style="fill:#1f77b4;stroke:#1f77b4;" x="117.235407" xlink:href="#m2a4005aad9" y="145.658261"/>
     <use style="fill:#1f77b4;stroke:#1f77b4;" x="118.089761" xlink:href="#m2a4005aad9" y="58.310712"/>
     <use style="fill:#1f77b4;stroke:#1f77b4;" x="118.944115" xlink:href="#m2a4005aad9" y="161.436776"/>
     <use style="fill:#1f77b4;stroke:#1f77b4;" x="119.798469" xlink:href="#m2a4005aad9" y="37.049236"/>
     <use style="fill:#1f77b4;stroke:#1f77b4;" x="120.652823" xlink:href="#m2a4005aad9" y="54.734329"/>
     <use style="fill:#1f77b4;stroke:#1f77b4;" x="121.507177" xlink:href="#m2a4005aad9" y="93.908296"/>
     <use style="fill:#1f77b4;stroke:#1f77b4;" x="122.361531" xlink:href="#m2a4005aad9" y="24.834174"/>
     <use style="fill:#1f77b4;stroke:#1f77b4;" x="123.215885" xlink:href="#m2a4005aad9" y="236.384982"/>
     <use style="fill:#1f77b4;stroke:#1f77b4;" x="124.070239" xlink:href="#m2a4005aad9" y="41.161646"/>
     <use style="fill:#1f77b4;stroke:#1f77b4;" x="124.924593" xlink:href="#m2a4005aad9" y="30.650326"/>
     <use style="fill:#1f77b4;stroke:#1f77b4;" x="125.778947" xlink:href="#m2a4005aad9" y="200.827426"/>
     <use style="fill:#1f77b4;stroke:#1f77b4;" x="126.633301" xlink:href="#m2a4005aad9" y="41.381983"/>
     <use style="fill:#1f77b4;stroke:#1f77b4;" x="127.487656" xlink:href="#m2a4005aad9" y="30.754351"/>
     <use style="fill:#1f77b4;stroke:#1f77b4;" x="128.34201" xlink:href="#m2a4005aad9" y="100.114499"/>
     <use style="fill:#1f77b4;stroke:#1f77b4;" x="129.196364" xlink:href="#m2a4005aad9" y="26.294887"/>
     <use style="fill:#1f77b4;stroke:#1f77b4;" x="130.050718" xlink:href="#m2a4005aad9" y="182.155686"/>
     <use style="fill:#1f77b4;stroke:#1f77b4;" x="130.905072" xlink:href="#m2a4005aad9" y="43.396641"/>
     <use style="fill:#1f77b4;stroke:#1f77b4;" x="131.759426" xlink:href="#m2a4005aad9" y="27.378111"/>
     <use style="fill:#1f77b4;stroke:#1f77b4;" x="132.61378" xlink:href="#m2a4005aad9" y="179.064681"/>
     <use style="fill:#1f77b4;stroke:#1f77b4;" x="133.468134" xlink:href="#m2a4005aad9" y="36.831952"/>
     <use style="fill:#1f77b4;stroke:#1f77b4;" x="134.322488" xlink:href="#m2a4005aad9" y="75.35119"/>
     <use style="fill:#1f77b4;stroke:#1f77b4;" x="135.176842" xlink:href="#m2a4005aad9" y="139.136232"/>
     <use style="fill:#1f77b4;stroke:#1f77b4;" x="136.031196" xlink:href="#m2a4005aad9" y="64.85361"/>
     <use style="fill:#1f77b4;stroke:#1f77b4;" x="136.88555" xlink:href="#m2a4005aad9" y="203.534253"/>
     <use style="fill:#1f77b4;stroke:#1f77b4;" x="137.739904" xlink:href="#m2a4005aad9" y="45.786754"/>
     <use style="fill:#1f77b4;stroke:#1f77b4;" x="138.594258" xlink:href="#m2a4005aad9" y="121.152371"/>
     <use style="fill:#1f77b4;stroke:#1f77b4;" x="139.448612" xlink:href="#m2a4005aad9" y="30.438782"/>
     <use style="fill:#1f77b4;stroke:#1f77b4;" x="140.302967" xlink:href="#m2a4005aad9" y="130.881783"/>
     <use style="fill:#1f77b4;stroke:#1f77b4;" x="141.157321" xlink:href="#m2a4005aad9" y="58.407249"/>
     <use style="fill:#1f77b4;stroke:#1f77b4;" x="142.011675" xlink:href="#m2a4005aad9" y="152.324198"/>
     <use style="fill:#1f77b4;stroke:#1f77b4;" x="142.866029" xlink:href="#m2a4005aad9" y="34.849054"/>
     <use style="fill:#1f77b4;stroke:#1f77b4;" x="143.720383" xlink:href="#m2a4005aad9" y="95.621005"/>
     <use style="fill:#1f77b4;stroke:#1f77b4;" x="144.574737" xlink:href="#m2a4005aad9" y="97.857732"/>
     <use style="fill:#1f77b4;stroke:#1f77b4;" x="145.429091" xlink:href="#m2a4005aad9" y="96.801841"/>
     <use style="fill:#1f77b4;stroke:#1f77b4;" x="146.283445" xlink:href="#m2a4005aad9" y="92.738494"/>
     <use style="fill:#1f77b4;stroke:#1f77b4;" x="147.137799" xlink:href="#m2a4005aad9" y="101.976833"/>
     <use style="fill:#1f77b4;stroke:#1f77b4;" x="147.992153" xlink:href="#m2a4005aad9" y="86.179433"/>
     <use style="fill:#1f77b4;stroke:#1f77b4;" x="148.846507" xlink:href="#m2a4005aad9" y="112.750584"/>
     <use style="fill:#1f77b4;stroke:#1f77b4;" x="149.700861" xlink:href="#m2a4005aad9" y="73.801649"/>
     <use style="fill:#1f77b4;stroke:#1f77b4;" x="150.555215" xlink:href="#m2a4005aad9" y="148.730479"/>
     <use style="fill:#1f77b4;stroke:#1f77b4;" x="151.409569" xlink:href="#m2a4005aad9" y="49.9172"/>
     <use style="fill:#1f77b4;stroke:#1f77b4;" x="152.263923" xlink:href="#m2a4005aad9" y="126.280773"/>
     <use style="fill:#1f77b4;stroke:#1f77b4;" x="153.118278" xlink:href="#m2a4005aad9" y="31.075368"/>
     <use style="fill:#1f77b4;stroke:#1f77b4;" x="153.972632" xlink:href="#m2a4005aad9" y="127.949017"/>
     <use style="fill:#1f77b4;stroke:#1f77b4;" x="154.826986" xlink:href="#m2a4005aad9" y="58.450038"/>
     <use style="fill:#1f77b4;stroke:#1f77b4;" x="155.68134" xlink:href="#m2a4005aad9" y="149.364561"/>
     <use style="fill:#1f77b4;stroke:#1f77b4;" x="156.535694" xlink:href="#m2a4005aad9" y="34.233235"/>
     <use style="fill:#1f77b4;stroke:#1f77b4;" x="157.390048" xlink:href="#m2a4005aad9" y="103.077193"/>
     <use style="fill:#1f77b4;stroke:#1f77b4;" x="158.244402" xlink:href="#m2a4005aad9" y="84.722642"/>
     <use style="fill:#1f77b4;stroke:#1f77b4;" x="159.098756" xlink:href="#m2a4005aad9" y="120.689356"/>
     <use style="fill:#1f77b4;stroke:#1f77b4;" x="159.95311" xlink:href="#m2a4005aad9" y="63.341881"/>
     <use style="fill:#1f77b4;stroke:#1f77b4;" x="160.807464" xlink:href="#m2a4005aad9" y="180.773721"/>
     <use style="fill:#1f77b4;stroke:#1f77b4;" x="161.661818" xlink:href="#m2a4005aad9" y="36.988022"/>
     <use style="fill:#1f77b4;stroke:#1f77b4;" x="162.516172" xlink:href="#m2a4005aad9" y="70.246644"/>
     <use style="fill:#1f77b4;stroke:#1f77b4;" x="163.370526" xlink:href="#m2a4005aad9" y="173.748647"/>
     <use style="fill:#1f77b4;stroke:#1f77b4;" x="164.22488" xlink:href="#m2a4005aad9" y="51.285926"/>
     <use style="fill:#1f77b4;stroke:#1f77b4;" x="165.079234" xlink:href="#m2a4005aad9" y="134.26197"/>
     <use style="fill:#1f77b4;stroke:#1f77b4;" x="165.933589" xlink:href="#m2a4005aad9" y="33.093678"/>
     <use style="fill:#1f77b4;stroke:#1f77b4;" x="166.787943" xlink:href="#m2a4005aad9" y="103.940951"/>
     <use style="fill:#1f77b4;stroke:#1f77b4;" x="167.642297" xlink:href="#m2a4005aad9" y="91.917554"/>
     <use style="fill:#1f77b4;stroke:#1f77b4;" x="168.496651" xlink:href="#m2a4005aad9" y="98.271643"/>
     <use style="fill:#1f77b4;stroke:#1f77b4;" x="169.351005" xlink:href="#m2a4005aad9" y="95.842121"/>
     <use style="fill:#1f77b4;stroke:#1f77b4;" x="170.205359" xlink:href="#m2a4005aad9" y="93.095884"/>
     <use style="fill:#1f77b4;stroke:#1f77b4;" x="171.059713" xlink:href="#m2a4005aad9" y="101.899762"/>
     <use style="fill:#1f77b4;stroke:#1f77b4;" x="171.914067" xlink:href="#m2a4005aad9" y="85.7777"/>
     <use style="fill:#1f77b4;stroke:#1f77b4;" x="172.768421" xlink:href="#m2a4005aad9" y="113.937525"/>
     <use style="fill:#1f77b4;stroke:#1f77b4;" x="173.622775" xlink:href="#m2a4005aad9" y="72.179131"/>
     <use style="fill:#1f77b4;stroke:#1f77b4;" x="174.477129" xlink:href="#m2a4005aad9" y="158.081508"/>
     <use style="fill:#1f77b4;stroke:#1f77b4;" x="175.331483" xlink:href="#m2a4005aad9" y="47.182963"/>
     <use style="fill:#1f77b4;stroke:#1f77b4;" x="176.185837" xlink:href="#m2a4005aad9" y="120.954965"/>
     <use style="fill:#1f77b4;stroke:#1f77b4;" x="177.040191" xlink:href="#m2a4005aad9" y="30.171259"/>
     <use style="fill:#1f77b4;stroke:#1f77b4;" x="177.894545" xlink:href="#m2a4005aad9" y="135.669132"/>
     <use style="fill:#1f77b4;stroke:#1f77b4;" x="178.7489" xlink:href="#m2a4005aad9" y="53.496262"/>
     <use style="fill:#1f77b4;stroke:#1f77b4;" x="179.603254" xlink:href="#m2a4005aad9" y="133.309148"/>
     <use style="fill:#1f77b4;stroke:#1f77b4;" x="180.457608" xlink:href="#m2a4005aad9" y="32.083442"/>
     <use style="fill:#1f77b4;stroke:#1f77b4;" x="181.311962" xlink:href="#m2a4005aad9" y="120.565123"/>
     <use style="fill:#1f77b4;stroke:#1f77b4;" x="182.166316" xlink:href="#m2a4005aad9" y="63.956144"/>
     <use style="fill:#1f77b4;stroke:#1f77b4;" x="183.02067" xlink:href="#m2a4005aad9" y="183.511598"/>
     <use style="fill:#1f77b4;stroke:#1f77b4;" x="183.875024" xlink:href="#m2a4005aad9" y="37.107246"/>
     <use style="fill:#1f77b4;stroke:#1f77b4;" x="184.729378" xlink:href="#m2a4005aad9" y="68.781773"/>
     <use style="fill:#1f77b4;stroke:#1f77b4;" x="185.583732" xlink:href="#m2a4005aad9" y="187.241442"/>
     <use style="fill:#1f77b4;stroke:#1f77b4;" x="186.438086" xlink:href="#m2a4005aad9" y="49.721721"/>
     <use style="fill:#1f77b4;stroke:#1f77b4;" x="187.29244" xlink:href="#m2a4005aad9" y="130.514897"/>
     <use style="fill:#1f77b4;stroke:#1f77b4;" x="188.146794" xlink:href="#m2a4005aad9" y="32.443037"/>
     <use style="fill:#1f77b4;stroke:#1f77b4;" x="189.001148" xlink:href="#m2a4005aad9" y="110.231038"/>
     <use style="fill:#1f77b4;stroke:#1f77b4;" x="189.855502" xlink:href="#m2a4005aad9" y="83.015512"/>
     <use style="fill:#1f77b4;stroke:#1f77b4;" x="190.709856" xlink:href="#m2a4005aad9" y="115.374283"/>
     <use style="fill:#1f77b4;stroke:#1f77b4;" x="191.564211" xlink:href="#m2a4005aad9" y="75.20869"/>
     <use style="fill:#1f77b4;stroke:#1f77b4;" x="192.418565" xlink:href="#m2a4005aad9" y="137.578588"/>
     <use style="fill:#1f77b4;stroke:#1f77b4;" x="193.272919" xlink:href="#m2a4005aad9" y="56.860914"/>
     <use style="fill:#1f77b4;stroke:#1f77b4;" x="194.127273" xlink:href="#m2a4005aad9" y="148.817304"/>
     <use style="fill:#1f77b4;stroke:#1f77b4;" x="194.981627" xlink:href="#m2a4005aad9" y="34.702102"/>
     <use style="fill:#1f77b4;stroke:#1f77b4;" x="195.835981" xlink:href="#m2a4005aad9" y="94.728349"/>
     <use style="fill:#1f77b4;stroke:#1f77b4;" x="196.690335" xlink:href="#m2a4005aad9" y="101.626697"/>
     <use style="fill:#1f77b4;stroke:#1f77b4;" x="197.544689" xlink:href="#m2a4005aad9" y="89.617453"/>
     <use style="fill:#1f77b4;stroke:#1f77b4;" x="198.399043" xlink:href="#m2a4005aad9" y="105.555071"/>
     <use style="fill:#1f77b4;stroke:#1f77b4;" x="199.253397" xlink:href="#m2a4005aad9" y="83.249349"/>
     <use style="fill:#1f77b4;stroke:#1f77b4;" x="200.107751" xlink:href="#m2a4005aad9" y="117.675121"/>
     <use style="fill:#1f77b4;stroke:#1f77b4;" x="200.962105" xlink:href="#m2a4005aad9" y="69.78059"/>
     <use style="fill:#1f77b4;stroke:#1f77b4;" x="201.816459" xlink:href="#m2a4005aad9" y="172.693405"/>
     <use style="fill:#1f77b4;stroke:#1f77b4;" x="202.670813" xlink:href="#m2a4005aad9" y="45.082994"/>
     <use style="fill:#1f77b4;stroke:#1f77b4;" x="203.525167" xlink:href="#m2a4005aad9" y="117.787903"/>
     <use style="fill:#1f77b4;stroke:#1f77b4;" x="204.379522" xlink:href="#m2a4005aad9" y="29.637584"/>
     <use style="fill:#1f77b4;stroke:#1f77b4;" x="205.233876" xlink:href="#m2a4005aad9" y="140.249024"/>
     <use style="fill:#1f77b4;stroke:#1f77b4;" x="206.08823" xlink:href="#m2a4005aad9" y="51.401413"/>
     <use style="fill:#1f77b4;stroke:#1f77b4;" x="206.942584" xlink:href="#m2a4005aad9" y="128.493252"/>
     <use style="fill:#1f77b4;stroke:#1f77b4;" x="207.796938" xlink:href="#m2a4005aad9" y="31.358534"/>
     <use style="fill:#1f77b4;stroke:#1f77b4;" x="208.651292" xlink:href="#m2a4005aad9" y="126.226286"/>
     <use style="fill:#1f77b4;stroke:#1f77b4;" x="209.505646" xlink:href="#m2a4005aad9" y="59.221631"/>
     <use style="fill:#1f77b4;stroke:#1f77b4;" x="210.36" xlink:href="#m2a4005aad9" y="151.880035"/>
     <use style="fill:#1f77b4;stroke:#1f77b4;" x="211.214354" xlink:href="#m2a4005aad9" y="34.463664"/>
     <use style="fill:#1f77b4;stroke:#1f77b4;" x="212.068708" xlink:href="#m2a4005aad9" y="101.329493"/>
     <use style="fill:#1f77b4;stroke:#1f77b4;" x="212.923062" xlink:href="#m2a4005aad9" y="86.786867"/>
     <use style="fill:#1f77b4;stroke:#1f77b4;" x="213.777416" xlink:href="#m2a4005aad9" y="116.831957"/>
     <use style="fill:#1f77b4;stroke:#1f77b4;" x="214.63177" xlink:href="#m2a4005aad9" y="66.536864"/>
     <use style="fill:#1f77b4;stroke:#1f77b4;" x="215.486124" xlink:href="#m2a4005aad9" y="261.216"/>
     <use style="fill:#1f77b4;stroke:#1f77b4;" x="216.340478" xlink:href="#m2a4005aad9" y="39.202522"/>
     <use style="fill:#1f77b4;stroke:#1f77b4;" x="217.194833" xlink:href="#m2a4005aad9" y="40.804031"/>
     <use style="fill:#1f77b4;stroke:#1f77b4;" x="218.049187" xlink:href="#m2a4005aad9" y="109.770963"/>
     <use style="fill:#1f77b4;stroke:#1f77b4;" x="218.903541" xlink:href="#m2a4005aad9" y="28.412004"/>
     <use style="fill:#1f77b4;stroke:#1f77b4;" x="219.757895" xlink:href="#m2a4005aad9" y="148.831529"/>
     <use style="fill:#1f77b4;stroke:#1f77b4;" x="220.612249" xlink:href="#m2a4005aad9" y="50.760818"/>
     <use style="fill:#1f77b4;stroke:#1f77b4;" x="221.466603" xlink:href="#m2a4005aad9" y="129.152512"/>
     <use style="fill:#1f77b4;stroke:#1f77b4;" x="222.320957" xlink:href="#m2a4005aad9" y="31.642934"/>
     <use style="fill:#1f77b4;stroke:#1f77b4;" x="223.175311" xlink:href="#m2a4005aad9" y="122.580965"/>
     <use style="fill:#1f77b4;stroke:#1f77b4;" x="224.029665" xlink:href="#m2a4005aad9" y="63.627361"/>
     <use style="fill:#1f77b4;stroke:#1f77b4;" x="224.884019" xlink:href="#m2a4005aad9" y="186.120475"/>
     <use style="fill:#1f77b4;stroke:#1f77b4;" x="225.738373" xlink:href="#m2a4005aad9" y="37.553778"/>
     <use style="fill:#1f77b4;stroke:#1f77b4;" x="226.592727" xlink:href="#m2a4005aad9" y="59.467808"/>
     <use style="fill:#1f77b4;stroke:#1f77b4;" x="227.447081" xlink:href="#m2a4005aad9" y="151.762276"/>
     <use style="fill:#1f77b4;stroke:#1f77b4;" x="228.301435" xlink:href="#m2a4005aad9" y="36.79989"/>
     <use style="fill:#1f77b4;stroke:#1f77b4;" x="229.155789" xlink:href="#m2a4005aad9" y="54.846879"/>
     <use style="fill:#1f77b4;stroke:#1f77b4;" x="230.010144" xlink:href="#m2a4005aad9" y="95.727071"/>
     <use style="fill:#1f77b4;stroke:#1f77b4;" x="230.864498" xlink:href="#m2a4005aad9" y="25.181744"/>
     <use style="fill:#1f77b4;stroke:#1f77b4;" x="231.718852" xlink:href="#m2a4005aad9" y="204.465187"/>
     <use style="fill:#1f77b4;stroke:#1f77b4;" x="232.573206" xlink:href="#m2a4005aad9" y="43.170774"/>
     <use style="fill:#1f77b4;stroke:#1f77b4;" x="233.42756" xlink:href="#m2a4005aad9" y="115.904817"/>
     <use style="fill:#1f77b4;stroke:#1f77b4;" x="234.281914" xlink:href="#m2a4005aad9" y="29.343334"/>
     <use style="fill:#1f77b4;stroke:#1f77b4;" x="235.136268" xlink:href="#m2a4005aad9" y="142.320111"/>
     <use style="fill:#1f77b4;stroke:#1f77b4;" x="235.990622" xlink:href="#m2a4005aad9" y="50.947191"/>
     <use style="fill:#1f77b4;stroke:#1f77b4;" x="236.844976" xlink:href="#m2a4005aad9" y="127.839854"/>
     <use style="fill:#1f77b4;stroke:#1f77b4;" x="237.69933" xlink:href="#m2a4005aad9" y="31.278576"/>
     <use style="fill:#1f77b4;stroke:#1f77b4;" x="238.553684" xlink:href="#m2a4005aad9" y="126.689922"/>
     <use style="fill:#1f77b4;stroke:#1f77b4;" x="239.408038" xlink:href="#m2a4005aad9" y="59.03295"/>
     <use style="fill:#1f77b4;stroke:#1f77b4;" x="240.262392" xlink:href="#m2a4005aad9" y="151.308924"/>
     <use style="fill:#1f77b4;stroke:#1f77b4;" x="241.116746" xlink:href="#m2a4005aad9" y="34.418406"/>
     <use style="fill:#1f77b4;stroke:#1f77b4;" x="241.9711" xlink:href="#m2a4005aad9" y="101.639038"/>
     <use style="fill:#1f77b4;stroke:#1f77b4;" x="242.825455" xlink:href="#m2a4005aad9" y="86.475763"/>
     <use style="fill:#1f77b4;stroke:#1f77b4;" x="243.679809" xlink:href="#m2a4005aad9" y="117.313429"/>
     <use style="fill:#1f77b4;stroke:#1f77b4;" x="244.534163" xlink:href="#m2a4005aad9" y="66.188058"/>
     <use style="fill:#1f77b4;stroke:#1f77b4;" x="245.388517" xlink:href="#m2a4005aad9" y="239.257024"/>
     <use style="fill:#1f77b4;stroke:#1f77b4;" x="246.242871" xlink:href="#m2a4005aad9" y="38.972532"/>
     <use style="fill:#1f77b4;stroke:#1f77b4;" x="247.097225" xlink:href="#m2a4005aad9" y="42.734332"/>
     <use style="fill:#1f77b4;stroke:#1f77b4;" x="247.951579" xlink:href="#m2a4005aad9" y="112.412845"/>
     <use style="fill:#1f77b4;stroke:#1f77b4;" x="248.805933" xlink:href="#m2a4005aad9" y="29.02954"/>
     <use style="fill:#1f77b4;stroke:#1f77b4;" x="249.660287" xlink:href="#m2a4005aad9" y="141.261037"/>
     <use style="fill:#1f77b4;stroke:#1f77b4;" x="250.514641" xlink:href="#m2a4005aad9" y="54.636449"/>
     <use style="fill:#1f77b4;stroke:#1f77b4;" x="251.368995" xlink:href="#m2a4005aad9" y="140.654293"/>
     <use style="fill:#1f77b4;stroke:#1f77b4;" x="252.223349" xlink:href="#m2a4005aad9" y="33.575708"/>
     <use style="fill:#1f77b4;stroke:#1f77b4;" x="253.077703" xlink:href="#m2a4005aad9" y="105.568941"/>
     <use style="fill:#1f77b4;stroke:#1f77b4;" x="253.932057" xlink:href="#m2a4005aad9" y="84.919303"/>
     <use style="fill:#1f77b4;stroke:#1f77b4;" x="254.786411" xlink:href="#m2a4005aad9" y="116.21269"/>
     <use style="fill:#1f77b4;stroke:#1f77b4;" x="255.640766" xlink:href="#m2a4005aad9" y="70.741374"/>
     <use style="fill:#1f77b4;stroke:#1f77b4;" x="256.49512" xlink:href="#m2a4005aad9" y="166.704518"/>
     <use style="fill:#1f77b4;stroke:#1f77b4;" x="257.349474" xlink:href="#m2a4005aad9" y="45.758279"/>
     <use style="fill:#1f77b4;stroke:#1f77b4;" x="258.203828" xlink:href="#m2a4005aad9" y="118.720697"/>
     <use style="fill:#1f77b4;stroke:#1f77b4;" x="259.058182" xlink:href="#m2a4005aad9" y="29.793832"/>
     <use style="fill:#1f77b4;stroke:#1f77b4;" x="259.912536" xlink:href="#m2a4005aad9" y="138.913616"/>
     <use style="fill:#1f77b4;stroke:#1f77b4;" x="260.76689" xlink:href="#m2a4005aad9" y="51.949272"/>
     <use style="fill:#1f77b4;stroke:#1f77b4;" x="261.621244" xlink:href="#m2a4005aad9" y="129.662533"/>
     <use style="fill:#1f77b4;stroke:#1f77b4;" x="262.475598" xlink:href="#m2a4005aad9" y="31.536851"/>
     <use style="fill:#1f77b4;stroke:#1f77b4;" x="263.329952" xlink:href="#m2a4005aad9" y="124.836752"/>
     <use style="fill:#1f77b4;stroke:#1f77b4;" x="264.184306" xlink:href="#m2a4005aad9" y="60.283534"/>
     <use style="fill:#1f77b4;stroke:#1f77b4;" x="265.03866" xlink:href="#m2a4005aad9" y="156.870391"/>
     <use style="fill:#1f77b4;stroke:#1f77b4;" x="265.893014" xlink:href="#m2a4005aad9" y="34.993899"/>
     <use style="fill:#1f77b4;stroke:#1f77b4;" x="266.747368" xlink:href="#m2a4005aad9" y="96.325931"/>
     <use style="fill:#1f77b4;stroke:#1f77b4;" x="267.601722" xlink:href="#m2a4005aad9" y="94.20381"/>
     <use style="fill:#1f77b4;stroke:#1f77b4;" x="268.456077" xlink:href="#m2a4005aad9" y="104.28088"/>
     <use style="fill:#1f77b4;stroke:#1f77b4;" x="269.310431" xlink:href="#m2a4005aad9" y="80.69556"/>
     <use style="fill:#1f77b4;stroke:#1f77b4;" x="270.164785" xlink:href="#m2a4005aad9" y="128.114483"/>
     <use style="fill:#1f77b4;stroke:#1f77b4;" x="271.019139" xlink:href="#m2a4005aad9" y="58.065225"/>
     <use style="fill:#1f77b4;stroke:#1f77b4;" x="271.873493" xlink:href="#m2a4005aad9" y="148.507867"/>
     <use style="fill:#1f77b4;stroke:#1f77b4;" x="272.727847" xlink:href="#m2a4005aad9" y="34.133612"/>
     <use style="fill:#1f77b4;stroke:#1f77b4;" x="273.582201" xlink:href="#m2a4005aad9" y="103.87104"/>
     <use style="fill:#1f77b4;stroke:#1f77b4;" x="274.436555" xlink:href="#m2a4005aad9" y="83.667773"/>
     <use style="fill:#1f77b4;stroke:#1f77b4;" x="275.290909" xlink:href="#m2a4005aad9" y="123.000112"/>
     <use style="fill:#1f77b4;stroke:#1f77b4;" x="276.145263" xlink:href="#m2a4005aad9" y="61.456742"/>
     <use style="fill:#1f77b4;stroke:#1f77b4;" x="276.999617" xlink:href="#m2a4005aad9" y="165.24178"/>
     <use style="fill:#1f77b4;stroke:#1f77b4;" x="277.853971" xlink:href="#m2a4005aad9" y="35.815578"/>
     <use style="fill:#1f77b4;stroke:#1f77b4;" x="278.708325" xlink:href="#m2a4005aad9" y="87.044286"/>
     <use style="fill:#1f77b4;stroke:#1f77b4;" x="279.562679" xlink:href="#m2a4005aad9" y="110.607679"/>
     <use style="fill:#1f77b4;stroke:#1f77b4;" x="280.417033" xlink:href="#m2a4005aad9" y="84.389689"/>
     <use style="fill:#1f77b4;stroke:#1f77b4;" x="281.271388" xlink:href="#m2a4005aad9" y="111.324954"/>
     <use style="fill:#1f77b4;stroke:#1f77b4;" x="282.125742" xlink:href="#m2a4005aad9" y="79.945789"/>
     <use style="fill:#1f77b4;stroke:#1f77b4;" x="282.980096" xlink:href="#m2a4005aad9" y="122.665012"/>
     <use style="fill:#1f77b4;stroke:#1f77b4;" x="283.83445" xlink:href="#m2a4005aad9" y="67.482856"/>
     <use style="fill:#1f77b4;stroke:#1f77b4;" x="284.688804" xlink:href="#m2a4005aad9" y="191.338294"/>
     <use style="fill:#1f77b4;stroke:#1f77b4;" x="285.543158" xlink:href="#m2a4005aad9" y="43.886682"/>
     <use style="fill:#1f77b4;stroke:#1f77b4;" x="286.397512" xlink:href="#m2a4005aad9" y="116.378345"/>
     <use style="fill:#1f77b4;stroke:#1f77b4;" x="287.251866" xlink:href="#m2a4005aad9" y="29.40824"/>
     <use style="fill:#1f77b4;stroke:#1f77b4;" x="288.10622" xlink:href="#m2a4005aad9" y="142.106243"/>
     <use style="fill:#1f77b4;stroke:#1f77b4;" x="288.960574" xlink:href="#m2a4005aad9" y="50.791496"/>
     <use style="fill:#1f77b4;stroke:#1f77b4;" x="289.814928" xlink:href="#m2a4005aad9" y="127.323703"/>
     <use style="fill:#1f77b4;stroke:#1f77b4;" x="290.669282" xlink:href="#m2a4005aad9" y="31.18362"/>
     <use style="fill:#1f77b4;stroke:#1f77b4;" x="291.523636" xlink:href="#m2a4005aad9" y="127.558663"/>
     <use style="fill:#1f77b4;stroke:#1f77b4;" x="292.37799" xlink:href="#m2a4005aad9" y="58.293181"/>
     <use style="fill:#1f77b4;stroke:#1f77b4;" x="293.232344" xlink:href="#m2a4005aad9" y="148.100614"/>
     <use style="fill:#1f77b4;stroke:#1f77b4;" x="294.086699" xlink:href="#m2a4005aad9" y="34.035151"/>
     <use style="fill:#1f77b4;stroke:#1f77b4;" x="294.941053" xlink:href="#m2a4005aad9" y="105.053688"/>
     <use style="fill:#1f77b4;stroke:#1f77b4;" x="295.795407" xlink:href="#m2a4005aad9" y="81.667197"/>
     <use style="fill:#1f77b4;stroke:#1f77b4;" x="296.649761" xlink:href="#m2a4005aad9" y="128.449855"/>
     <use style="fill:#1f77b4;stroke:#1f77b4;" x="297.504115" xlink:href="#m2a4005aad9" y="57.171317"/>
     <use style="fill:#1f77b4;stroke:#1f77b4;" x="298.358469" xlink:href="#m2a4005aad9" y="144.039669"/>
     <use style="fill:#1f77b4;stroke:#1f77b4;" x="299.212823" xlink:href="#m2a4005aad9" y="33.507748"/>
     <use style="fill:#1f77b4;stroke:#1f77b4;" x="300.067177" xlink:href="#m2a4005aad9" y="109.543376"/>
     <use style="fill:#1f77b4;stroke:#1f77b4;" x="300.921531" xlink:href="#m2a4005aad9" y="75.669894"/>
     <use style="fill:#1f77b4;stroke:#1f77b4;" x="301.775885" xlink:href="#m2a4005aad9" y="149.253716"/>
     <use style="fill:#1f77b4;stroke:#1f77b4;" x="302.630239" xlink:href="#m2a4005aad9" y="47.801415"/>
     <use style="fill:#1f77b4;stroke:#1f77b4;" x="303.484593" xlink:href="#m2a4005aad9" y="121.48745"/>
     <use style="fill:#1f77b4;stroke:#1f77b4;" x="304.338947" xlink:href="#m2a4005aad9" y="30.224594"/>
     <use style="fill:#1f77b4;stroke:#1f77b4;" x="305.193301" xlink:href="#m2a4005aad9" y="135.170587"/>
     <use style="fill:#1f77b4;stroke:#1f77b4;" x="306.047656" xlink:href="#m2a4005aad9" y="53.829534"/>
     <use style="fill:#1f77b4;stroke:#1f77b4;" x="306.90201" xlink:href="#m2a4005aad9" y="134.24755"/>
     <use style="fill:#1f77b4;stroke:#1f77b4;" x="307.756364" xlink:href="#m2a4005aad9" y="32.227188"/>
     <use style="fill:#1f77b4;stroke:#1f77b4;" x="308.610718" xlink:href="#m2a4005aad9" y="119.400052"/>
     <use style="fill:#1f77b4;stroke:#1f77b4;" x="309.465072" xlink:href="#m2a4005aad9" y="65.106636"/>
     <use style="fill:#1f77b4;stroke:#1f77b4;" x="310.319426" xlink:href="#m2a4005aad9" y="199.106293"/>
     <use style="fill:#1f77b4;stroke:#1f77b4;" x="311.17378" xlink:href="#m2a4005aad9" y="37.892039"/>
     <use style="fill:#1f77b4;stroke:#1f77b4;" x="312.028134" xlink:href="#m2a4005aad9" y="56.156977"/>
     <use style="fill:#1f77b4;stroke:#1f77b4;" x="312.882488" xlink:href="#m2a4005aad9" y="143.168726"/>
     <use style="fill:#1f77b4;stroke:#1f77b4;" x="313.736842" xlink:href="#m2a4005aad9" y="36.060741"/>
     <use style="fill:#1f77b4;stroke:#1f77b4;" x="314.591196" xlink:href="#m2a4005aad9" y="107.740694"/>
     <use style="fill:#1f77b4;stroke:#1f77b4;" x="315.44555" xlink:href="#m2a4005aad9" y="27.837886"/>
     <use style="fill:#1f77b4;stroke:#1f77b4;" x="316.299904" xlink:href="#m2a4005aad9" y="158.096006"/>
     <use style="fill:#1f77b4;stroke:#1f77b4;" x="317.154258" xlink:href="#m2a4005aad9" y="46.403907"/>
     <use style="fill:#1f77b4;stroke:#1f77b4;" x="318.008612" xlink:href="#m2a4005aad9" y="119.582988"/>
     <use style="fill:#1f77b4;stroke:#1f77b4;" x="318.862967" xlink:href="#m2a4005aad9" y="29.925239"/>
     <use style="fill:#1f77b4;stroke:#1f77b4;" x="319.717321" xlink:href="#m2a4005aad9" y="137.895003"/>
     <use style="fill:#1f77b4;stroke:#1f77b4;" x="320.571675" xlink:href="#m2a4005aad9" y="52.309835"/>
     <use style="fill:#1f77b4;stroke:#1f77b4;" x="321.426029" xlink:href="#m2a4005aad9" y="130.391793"/>
     <use style="fill:#1f77b4;stroke:#1f77b4;" x="322.280383" xlink:href="#m2a4005aad9" y="31.641933"/>
     <use style="fill:#1f77b4;stroke:#1f77b4;" x="323.134737" xlink:href="#m2a4005aad9" y="124.054397"/>
     <use style="fill:#1f77b4;stroke:#1f77b4;" x="323.989091" xlink:href="#m2a4005aad9" y="60.871138"/>
     <use style="fill:#1f77b4;stroke:#1f77b4;" x="324.843445" xlink:href="#m2a4005aad9" y="159.904417"/>
     <use style="fill:#1f77b4;stroke:#1f77b4;" x="325.697799" xlink:href="#m2a4005aad9" y="35.288975"/>
     <use style="fill:#1f77b4;stroke:#1f77b4;" x="326.552153" xlink:href="#m2a4005aad9" y="93.329906"/>
     <use style="fill:#1f77b4;stroke:#1f77b4;" x="327.406507" xlink:href="#m2a4005aad9" y="98.948781"/>
     <use style="fill:#1f77b4;stroke:#1f77b4;" x="328.260861" xlink:href="#m2a4005aad9" y="97.825445"/>
     <use style="fill:#1f77b4;stroke:#1f77b4;" x="329.115215" xlink:href="#m2a4005aad9" y="89.26266"/>
     <use style="fill:#1f77b4;stroke:#1f77b4;" x="329.969569" xlink:href="#m2a4005aad9" y="109.352112"/>
     <use style="fill:#1f77b4;stroke:#1f77b4;" x="330.823923" xlink:href="#m2a4005aad9" y="75.617267"/>
     <use style="fill:#1f77b4;stroke:#1f77b4;" x="331.678278" xlink:href="#m2a4005aad9" y="143.504916"/>
     <use style="fill:#1f77b4;stroke:#1f77b4;" x="332.532632" xlink:href="#m2a4005aad9" y="50.792823"/>
     <use style="fill:#1f77b4;stroke:#1f77b4;" x="333.386986" xlink:href="#m2a4005aad9" y="127.534461"/>
     <use style="fill:#1f77b4;stroke:#1f77b4;" x="334.24134" xlink:href="#m2a4005aad9" y="31.230277"/>
     <use style="fill:#1f77b4;stroke:#1f77b4;" x="335.095694" xlink:href="#m2a4005aad9" y="127.070867"/>
     <use style="fill:#1f77b4;stroke:#1f77b4;" x="335.950048" xlink:href="#m2a4005aad9" y="58.751953"/>
     <use style="fill:#1f77b4;stroke:#1f77b4;" x="336.804402" xlink:href="#m2a4005aad9" y="150.116962"/>
     <use style="fill:#1f77b4;stroke:#1f77b4;" x="337.658756" xlink:href="#m2a4005aad9" y="34.282618"/>
     <use style="fill:#1f77b4;stroke:#1f77b4;" x="338.51311" xlink:href="#m2a4005aad9" y="102.846593"/>
     <use style="fill:#1f77b4;stroke:#1f77b4;" x="339.367464" xlink:href="#m2a4005aad9" y="84.775581"/>
     <use style="fill:#1f77b4;stroke:#1f77b4;" x="340.221818" xlink:href="#m2a4005aad9" y="120.875805"/>
     <use style="fill:#1f77b4;stroke:#1f77b4;" x="341.076172" xlink:href="#m2a4005aad9" y="62.95246"/>
     <use style="fill:#1f77b4;stroke:#1f77b4;" x="341.930526" xlink:href="#m2a4005aad9" y="176.35362"/>
     <use style="fill:#1f77b4;stroke:#1f77b4;" x="342.78488" xlink:href="#m2a4005aad9" y="36.657102"/>
     <use style="fill:#1f77b4;stroke:#1f77b4;" x="343.639234" xlink:href="#m2a4005aad9" y="75.669978"/>
     <use style="fill:#1f77b4;stroke:#1f77b4;" x="344.493589" xlink:href="#m2a4005aad9" y="141.287023"/>
     <use style="fill:#1f77b4;stroke:#1f77b4;" x="345.347943" xlink:href="#m2a4005aad9" y="61.664244"/>
     <use style="fill:#1f77b4;stroke:#1f77b4;" x="346.202297" xlink:href="#m2a4005aad9" y="199.500917"/>
     <use style="fill:#1f77b4;stroke:#1f77b4;" x="347.056651" xlink:href="#m2a4005aad9" y="40.639304"/>
     <use style="fill:#1f77b4;stroke:#1f77b4;" x="347.911005" xlink:href="#m2a4005aad9" y="112.667991"/>
     <use style="fill:#1f77b4;stroke:#1f77b4;" x="348.765359" xlink:href="#m2a4005aad9" y="28.762262"/>
     <use style="fill:#1f77b4;stroke:#1f77b4;" x="349.619713" xlink:href="#m2a4005aad9" y="147.92288"/>
     <use style="fill:#1f77b4;stroke:#1f77b4;" x="350.474067" xlink:href="#m2a4005aad9" y="48.989264"/>
     <use style="fill:#1f77b4;stroke:#1f77b4;" x="351.328421" xlink:href="#m2a4005aad9" y="123.976"/>
     <use style="fill:#1f77b4;stroke:#1f77b4;" x="352.182775" xlink:href="#m2a4005aad9" y="30.657349"/>
     <use style="fill:#1f77b4;stroke:#1f77b4;" x="353.037129" xlink:href="#m2a4005aad9" y="131.726318"/>
     <use style="fill:#1f77b4;stroke:#1f77b4;" x="353.891483" xlink:href="#m2a4005aad9" y="55.60484"/>
     <use style="fill:#1f77b4;stroke:#1f77b4;" x="354.745837" xlink:href="#m2a4005aad9" y="138.982249"/>
     <use style="fill:#1f77b4;stroke:#1f77b4;" x="355.600191" xlink:href="#m2a4005aad9" y="32.879348"/>
     <use style="fill:#1f77b4;stroke:#1f77b4;" x="356.454545" xlink:href="#m2a4005aad9" y="114.404962"/>
     <use style="fill:#1f77b4;stroke:#1f77b4;" x="357.3089" xlink:href="#m2a4005aad9" y="70.178545"/>
     <use style="fill:#1f77b4;stroke:#1f77b4;" x="358.163254" xlink:href="#m2a4005aad9" y="188.834125"/>
     <use style="fill:#1f77b4;stroke:#1f77b4;" x="359.017608" xlink:href="#m2a4005aad9" y="41.907131"/>
     <use style="fill:#1f77b4;stroke:#1f77b4;" x="359.871962" xlink:href="#m2a4005aad9" y="28.825038"/>
     <use style="fill:#1f77b4;stroke:#1f77b4;" x="360.726316" xlink:href="#m2a4005aad9" y="186.551862"/>
     <use style="fill:#1f77b4;stroke:#1f77b4;" x="361.58067" xlink:href="#m2a4005aad9" y="49.765143"/>
     <use style="fill:#1f77b4;stroke:#1f77b4;" x="362.435024" xlink:href="#m2a4005aad9" y="132.784533"/>
     <use style="fill:#1f77b4;stroke:#1f77b4;" x="363.289378" xlink:href="#m2a4005aad9" y="33.232457"/>
     <use style="fill:#1f77b4;stroke:#1f77b4;" x="364.143732" xlink:href="#m2a4005aad9" y="87.019031"/>
     <use style="fill:#1f77b4;stroke:#1f77b4;" x="364.998086" xlink:href="#m2a4005aad9" y="131.176686"/>
     <use style="fill:#1f77b4;stroke:#1f77b4;" x="365.85244" xlink:href="#m2a4005aad9" y="47.329717"/>
     <use style="fill:#1f77b4;stroke:#1f77b4;" x="366.706794" xlink:href="#m2a4005aad9" y="19.296"/>
     <use style="fill:#1f77b4;stroke:#1f77b4;" x="367.561148" xlink:href="#m2a4005aad9" y="95.152981"/>
     <use style="fill:#1f77b4;stroke:#1f77b4;" x="368.415502" xlink:href="#m2a4005aad9" y="25.158674"/>
     <use style="fill:#1f77b4;stroke:#1f77b4;" x="369.269856" xlink:href="#m2a4005aad9" y="216.14342"/>
     <use style="fill:#1f77b4;stroke:#1f77b4;" x="370.124211" xlink:href="#m2a4005aad9" y="41.574683"/>
     <use style="fill:#1f77b4;stroke:#1f77b4;" x="370.978565" xlink:href="#m2a4005aad9" y="29.683939"/>
     <use style="fill:#1f77b4;stroke:#1f77b4;" x="371.20399" xlink:href="#m2a4005aad9" y="22383.514"/>
    </g>
   </g>
   <g id="line2d_38">
    <path clip-path="url(#pc7a200bda3)" d="M 51.450144 76.95849 
L 53.158852 51.839821 
L 54.86756 31.560905 
" style="fill:none;stroke:#2ca02c;stroke-dasharray:1.5,2.475;stroke-dashoffset:0;stroke-width:1.5;"/>
    <defs>
     <path d="M -3 3 
L 3 -3 
M -3 -3 
L 3 3 
" id="mbc209ea448" style="stroke:#2ca02c;"/>
    </defs>
    <g clip-path="url(#pc7a200bda3)">
     <use style="fill:#2ca02c;stroke:#2ca02c;" x="51.450144" xlink:href="#mbc209ea448" y="76.95849"/>
     <use style="fill:#2ca02c;stroke:#2ca02c;" x="53.158852" xlink:href="#mbc209ea448" y="51.839821"/>
     <use style="fill:#2ca02c;stroke:#2ca02c;" x="54.86756" xlink:href="#mbc209ea448" y="31.560905"/>
    </g>
   </g>
   <g id="line2d_39">
    <path clip-path="url(#pc7a200bda3)" d="M 48.887081 206.509293 
L 64.50786 -1 
L 64.50786 -1 
" style="fill:none;stroke:#000000;stroke-dasharray:5.55,2.4;stroke-dashoffset:0;stroke-width:1.5;"/>
   </g>
   <g id="patch_3">
    <path d="M 31.8 273.312 
L 31.8 7.2 
" style="fill:none;stroke:#000000;stroke-linecap:square;stroke-linejoin:miter;stroke-width:0.8;"/>
   </g>
   <g id="patch_4">
    <path d="M 388.92 273.312 
L 388.92 7.2 
" style="fill:none;stroke:#000000;stroke-linecap:square;stroke-linejoin:miter;stroke-width:0.8;"/>
   </g>
   <g id="patch_5">
    <path d="M 31.8 273.312 
L 388.92 273.312 
" style="fill:none;stroke:#000000;stroke-linecap:square;stroke-linejoin:miter;stroke-width:0.8;"/>
   </g>
   <g id="patch_6">
    <path d="M 31.8 7.2 
L 388.92 7.2 
" style="fill:none;stroke:#000000;stroke-linecap:square;stroke-linejoin:miter;stroke-width:0.8;"/>
   </g>
   <g id="legend_1">
    <g id="patch_7">
     <path d="M 286.834063 268.312 
L 381.92 268.312 
Q 383.92 268.312 383.92 266.312 
L 383.92 223.25575 
Q 383.92 221.25575 381.92 221.25575 
L 286.834063 221.25575 
Q 284.834063 221.25575 284.834063 223.25575 
L 284.834063 266.312 
Q 284.834063 268.312 286.834063 268.312 
z
" style="fill:#ffffff;opacity:0.8;"/>
    </g>
    <g id="line2d_40">
     <path d="M 288.834063 229.354187 
L 308.834063 229.354187 
" style="fill:none;stroke:#1f77b4;stroke-linecap:square;stroke-width:1.5;"/>
    </g>
    <g id="line2d_41">
     <g>
      <use style="fill:#1f77b4;stroke:#1f77b4;" x="298.834063" xlink:href="#m2a4005aad9" y="229.354187"/>
     </g>
    </g>
    <g id="text_13">
     <!-- APD$_n$ - APD$_\infty$ -->
     <defs>
      <path d="M 34.1875 63.1875 
L 20.796875 26.90625 
L 47.609375 26.90625 
z
M 28.609375 72.90625 
L 39.796875 72.90625 
L 67.578125 0 
L 57.328125 0 
L 50.6875 18.703125 
L 17.828125 18.703125 
L 11.1875 0 
L 0.78125 0 
z
" id="DejaVuSans-65"/>
      <path d="M 19.671875 64.796875 
L 19.671875 37.40625 
L 32.078125 37.40625 
Q 38.96875 37.40625 42.71875 40.96875 
Q 46.484375 44.53125 46.484375 51.125 
Q 46.484375 57.671875 42.71875 61.234375 
Q 38.96875 64.796875 32.078125 64.796875 
z
M 9.8125 72.90625 
L 32.078125 72.90625 
Q 44.34375 72.90625 50.609375 67.359375 
Q 56.890625 61.8125 56.890625 51.125 
Q 56.890625 40.328125 50.609375 34.8125 
Q 44.34375 29.296875 32.078125 29.296875 
L 19.671875 29.296875 
L 19.671875 0 
L 9.8125 0 
z
" id="DejaVuSans-80"/>
      <path d="M 19.671875 64.796875 
L 19.671875 8.109375 
L 31.59375 8.109375 
Q 46.6875 8.109375 53.6875 14.9375 
Q 60.6875 21.78125 60.6875 36.53125 
Q 60.6875 51.171875 53.6875 57.984375 
Q 46.6875 64.796875 31.59375 64.796875 
z
M 9.8125 72.90625 
L 30.078125 72.90625 
Q 51.265625 72.90625 61.171875 64.09375 
Q 71.09375 55.28125 71.09375 36.53125 
Q 71.09375 17.671875 61.125 8.828125 
Q 51.171875 0 30.078125 0 
L 9.8125 0 
z
" id="DejaVuSans-68"/>
      <path d="M 55.71875 33.015625 
L 49.3125 0 
L 40.28125 0 
L 46.6875 32.671875 
Q 47.125 34.96875 47.359375 36.71875 
Q 47.609375 38.484375 47.609375 39.5 
Q 47.609375 43.609375 45.015625 45.890625 
Q 42.4375 48.1875 37.796875 48.1875 
Q 30.5625 48.1875 25.34375 43.375 
Q 20.125 38.578125 18.5 30.328125 
L 12.5 0 
L 3.515625 0 
L 14.109375 54.6875 
L 23.09375 54.6875 
L 21.296875 46.09375 
Q 25.046875 50.828125 30.3125 53.40625 
Q 35.59375 56 41.40625 56 
Q 48.640625 56 52.609375 52.09375 
Q 56.59375 48.1875 56.59375 41.109375 
Q 56.59375 39.359375 56.375 37.359375 
Q 56.15625 35.359375 55.71875 33.015625 
z
" id="DejaVuSans-Oblique-110"/>
      <path id="DejaVuSans-32"/>
      <path d="M 4.890625 31.390625 
L 31.203125 31.390625 
L 31.203125 23.390625 
L 4.890625 23.390625 
z
" id="DejaVuSans-45"/>
      <path d="M 45.5625 17.046875 
Q 44.046875 18.796875 41.65625 22.90625 
Q 38.375 17.046875 35.5 14.453125 
Q 31.890625 11.328125 26.265625 11.328125 
Q 19.671875 11.328125 15.328125 16.265625 
Q 10.75 21.4375 10.75 29.984375 
Q 10.75 38.1875 15.328125 43.75 
Q 19.4375 48.6875 26.375 48.6875 
Q 29.9375 48.6875 32.5625 47.21875 
Q 35.640625 45.609375 37.75 42.828125 
Q 39.703125 40.328125 41.65625 36.96875 
Q 44.921875 42.828125 47.796875 45.40625 
Q 51.421875 48.53125 57.03125 48.53125 
Q 63.625 48.53125 67.96875 43.609375 
Q 72.5625 38.421875 72.5625 29.890625 
Q 72.5625 21.6875 67.96875 16.109375 
Q 63.875 11.1875 56.9375 11.1875 
Q 53.375 11.1875 50.734375 12.640625 
Q 48.09375 13.96875 45.5625 17.046875 
z
M 25.734375 17.71875 
Q 33.796875 17.71875 38.625 29.4375 
Q 32.421875 42.234375 25.734375 42.234375 
Q 20.84375 42.234375 18.359375 38.71875 
Q 15.671875 34.96875 15.671875 29.984375 
Q 15.671875 24.515625 18.359375 21.140625 
Q 21.09375 17.71875 25.734375 17.71875 
z
M 57.5625 42.140625 
Q 50.296875 42.140625 44.671875 30.421875 
Q 50.828125 17.625 57.5625 17.625 
Q 62.453125 17.625 64.9375 21.140625 
Q 67.625 24.90625 67.625 29.890625 
Q 67.625 35.359375 64.9375 38.71875 
Q 62.203125 42.140625 57.5625 42.140625 
z
" id="DejaVuSans-8734"/>
     </defs>
     <g transform="translate(316.834063 232.854187)scale(0.1 -0.1)">
      <use transform="translate(0 0.09375)" xlink:href="#DejaVuSans-65"/>
      <use transform="translate(68.408203 0.09375)" xlink:href="#DejaVuSans-80"/>
      <use transform="translate(128.710938 0.09375)" xlink:href="#DejaVuSans-68"/>
      <use transform="translate(206.669922 -16.3125)scale(0.7)" xlink:href="#DejaVuSans-Oblique-110"/>
      <use transform="translate(253.769531 0.09375)" xlink:href="#DejaVuSans-32"/>
      <use transform="translate(285.556641 0.09375)" xlink:href="#DejaVuSans-45"/>
      <use transform="translate(321.640625 0.09375)" xlink:href="#DejaVuSans-32"/>
      <use transform="translate(353.427734 0.09375)" xlink:href="#DejaVuSans-65"/>
      <use transform="translate(421.835938 0.09375)" xlink:href="#DejaVuSans-80"/>
      <use transform="translate(482.138672 0.09375)" xlink:href="#DejaVuSans-68"/>
      <use transform="translate(560.097656 -16.3125)scale(0.7)" xlink:href="#DejaVuSans-8734"/>
     </g>
    </g>
    <g id="line2d_42">
     <path d="M 288.834063 244.032312 
L 308.834063 244.032312 
" style="fill:none;stroke:#2ca02c;stroke-dasharray:1.5,2.475;stroke-dashoffset:0;stroke-width:1.5;"/>
    </g>
    <g id="line2d_43">
     <g>
      <use style="fill:#2ca02c;stroke:#2ca02c;" x="298.834063" xlink:href="#mbc209ea448" y="244.032312"/>
     </g>
    </g>
    <g id="text_14">
     <!-- linear region -->
     <defs>
      <path d="M 9.421875 75.984375 
L 18.40625 75.984375 
L 18.40625 0 
L 9.421875 0 
z
" id="DejaVuSans-108"/>
      <path d="M 9.421875 54.6875 
L 18.40625 54.6875 
L 18.40625 0 
L 9.421875 0 
z
M 9.421875 75.984375 
L 18.40625 75.984375 
L 18.40625 64.59375 
L 9.421875 64.59375 
z
" id="DejaVuSans-105"/>
      <path d="M 54.890625 33.015625 
L 54.890625 0 
L 45.90625 0 
L 45.90625 32.71875 
Q 45.90625 40.484375 42.875 44.328125 
Q 39.84375 48.1875 33.796875 48.1875 
Q 26.515625 48.1875 22.3125 43.546875 
Q 18.109375 38.921875 18.109375 30.90625 
L 18.109375 0 
L 9.078125 0 
L 9.078125 54.6875 
L 18.109375 54.6875 
L 18.109375 46.1875 
Q 21.34375 51.125 25.703125 53.5625 
Q 30.078125 56 35.796875 56 
Q 45.21875 56 50.046875 50.171875 
Q 54.890625 44.34375 54.890625 33.015625 
z
" id="DejaVuSans-110"/>
      <path d="M 56.203125 29.59375 
L 56.203125 25.203125 
L 14.890625 25.203125 
Q 15.484375 15.921875 20.484375 11.0625 
Q 25.484375 6.203125 34.421875 6.203125 
Q 39.59375 6.203125 44.453125 7.46875 
Q 49.3125 8.734375 54.109375 11.28125 
L 54.109375 2.78125 
Q 49.265625 0.734375 44.1875 -0.34375 
Q 39.109375 -1.421875 33.890625 -1.421875 
Q 20.796875 -1.421875 13.15625 6.1875 
Q 5.515625 13.8125 5.515625 26.8125 
Q 5.515625 40.234375 12.765625 48.109375 
Q 20.015625 56 32.328125 56 
Q 43.359375 56 49.78125 48.890625 
Q 56.203125 41.796875 56.203125 29.59375 
z
M 47.21875 32.234375 
Q 47.125 39.59375 43.09375 43.984375 
Q 39.0625 48.390625 32.421875 48.390625 
Q 24.90625 48.390625 20.390625 44.140625 
Q 15.875 39.890625 15.1875 32.171875 
z
" id="DejaVuSans-101"/>
      <path d="M 34.28125 27.484375 
Q 23.390625 27.484375 19.1875 25 
Q 14.984375 22.515625 14.984375 16.5 
Q 14.984375 11.71875 18.140625 8.90625 
Q 21.296875 6.109375 26.703125 6.109375 
Q 34.1875 6.109375 38.703125 11.40625 
Q 43.21875 16.703125 43.21875 25.484375 
L 43.21875 27.484375 
z
M 52.203125 31.203125 
L 52.203125 0 
L 43.21875 0 
L 43.21875 8.296875 
Q 40.140625 3.328125 35.546875 0.953125 
Q 30.953125 -1.421875 24.3125 -1.421875 
Q 15.921875 -1.421875 10.953125 3.296875 
Q 6 8.015625 6 15.921875 
Q 6 25.140625 12.171875 29.828125 
Q 18.359375 34.515625 30.609375 34.515625 
L 43.21875 34.515625 
L 43.21875 35.40625 
Q 43.21875 41.609375 39.140625 45 
Q 35.0625 48.390625 27.6875 48.390625 
Q 23 48.390625 18.546875 47.265625 
Q 14.109375 46.140625 10.015625 43.890625 
L 10.015625 52.203125 
Q 14.9375 54.109375 19.578125 55.046875 
Q 24.21875 56 28.609375 56 
Q 40.484375 56 46.34375 49.84375 
Q 52.203125 43.703125 52.203125 31.203125 
z
" id="DejaVuSans-97"/>
      <path d="M 41.109375 46.296875 
Q 39.59375 47.171875 37.8125 47.578125 
Q 36.03125 48 33.890625 48 
Q 26.265625 48 22.1875 43.046875 
Q 18.109375 38.09375 18.109375 28.8125 
L 18.109375 0 
L 9.078125 0 
L 9.078125 54.6875 
L 18.109375 54.6875 
L 18.109375 46.1875 
Q 20.953125 51.171875 25.484375 53.578125 
Q 30.03125 56 36.53125 56 
Q 37.453125 56 38.578125 55.875 
Q 39.703125 55.765625 41.0625 55.515625 
z
" id="DejaVuSans-114"/>
      <path d="M 45.40625 27.984375 
Q 45.40625 37.75 41.375 43.109375 
Q 37.359375 48.484375 30.078125 48.484375 
Q 22.859375 48.484375 18.828125 43.109375 
Q 14.796875 37.75 14.796875 27.984375 
Q 14.796875 18.265625 18.828125 12.890625 
Q 22.859375 7.515625 30.078125 7.515625 
Q 37.359375 7.515625 41.375 12.890625 
Q 45.40625 18.265625 45.40625 27.984375 
z
M 54.390625 6.78125 
Q 54.390625 -7.171875 48.1875 -13.984375 
Q 42 -20.796875 29.203125 -20.796875 
Q 24.46875 -20.796875 20.265625 -20.09375 
Q 16.0625 -19.390625 12.109375 -17.921875 
L 12.109375 -9.1875 
Q 16.0625 -11.328125 19.921875 -12.34375 
Q 23.78125 -13.375 27.78125 -13.375 
Q 36.625 -13.375 41.015625 -8.765625 
Q 45.40625 -4.15625 45.40625 5.171875 
L 45.40625 9.625 
Q 42.625 4.78125 38.28125 2.390625 
Q 33.9375 0 27.875 0 
Q 17.828125 0 11.671875 7.65625 
Q 5.515625 15.328125 5.515625 27.984375 
Q 5.515625 40.671875 11.671875 48.328125 
Q 17.828125 56 27.875 56 
Q 33.9375 56 38.28125 53.609375 
Q 42.625 51.21875 45.40625 46.390625 
L 45.40625 54.6875 
L 54.390625 54.6875 
z
" id="DejaVuSans-103"/>
      <path d="M 30.609375 48.390625 
Q 23.390625 48.390625 19.1875 42.75 
Q 14.984375 37.109375 14.984375 27.296875 
Q 14.984375 17.484375 19.15625 11.84375 
Q 23.34375 6.203125 30.609375 6.203125 
Q 37.796875 6.203125 41.984375 11.859375 
Q 46.1875 17.53125 46.1875 27.296875 
Q 46.1875 37.015625 41.984375 42.703125 
Q 37.796875 48.390625 30.609375 48.390625 
z
M 30.609375 56 
Q 42.328125 56 49.015625 48.375 
Q 55.71875 40.765625 55.71875 27.296875 
Q 55.71875 13.875 49.015625 6.21875 
Q 42.328125 -1.421875 30.609375 -1.421875 
Q 18.84375 -1.421875 12.171875 6.21875 
Q 5.515625 13.875 5.515625 27.296875 
Q 5.515625 40.765625 12.171875 48.375 
Q 18.84375 56 30.609375 56 
z
" id="DejaVuSans-111"/>
     </defs>
     <g transform="translate(316.834063 247.532312)scale(0.1 -0.1)">
      <use xlink:href="#DejaVuSans-108"/>
      <use x="27.783203" xlink:href="#DejaVuSans-105"/>
      <use x="55.566406" xlink:href="#DejaVuSans-110"/>
      <use x="118.945312" xlink:href="#DejaVuSans-101"/>
      <use x="180.46875" xlink:href="#DejaVuSans-97"/>
      <use x="241.748047" xlink:href="#DejaVuSans-114"/>
      <use x="282.861328" xlink:href="#DejaVuSans-32"/>
      <use x="314.648438" xlink:href="#DejaVuSans-114"/>
      <use x="353.511719" xlink:href="#DejaVuSans-101"/>
      <use x="415.035156" xlink:href="#DejaVuSans-103"/>
      <use x="478.511719" xlink:href="#DejaVuSans-105"/>
      <use x="506.294922" xlink:href="#DejaVuSans-111"/>
      <use x="567.476562" xlink:href="#DejaVuSans-110"/>
     </g>
    </g>
    <g id="line2d_44">
     <path d="M 288.834063 258.712 
L 308.834063 258.712 
" style="fill:none;stroke:#000000;stroke-dasharray:5.55,2.4;stroke-dashoffset:0;stroke-width:1.5;"/>
    </g>
    <g id="line2d_45"/>
    <g id="text_15">
     <!-- $ \exp(0.309 k)$ -->
     <defs>
      <path d="M 54.890625 54.6875 
L 35.109375 28.078125 
L 55.90625 0 
L 45.3125 0 
L 29.390625 21.484375 
L 13.484375 0 
L 2.875 0 
L 24.125 28.609375 
L 4.6875 54.6875 
L 15.28125 54.6875 
L 29.78125 35.203125 
L 44.28125 54.6875 
z
" id="DejaVuSans-120"/>
      <path d="M 18.109375 8.203125 
L 18.109375 -20.796875 
L 9.078125 -20.796875 
L 9.078125 54.6875 
L 18.109375 54.6875 
L 18.109375 46.390625 
Q 20.953125 51.265625 25.265625 53.625 
Q 29.59375 56 35.59375 56 
Q 45.5625 56 51.78125 48.09375 
Q 58.015625 40.1875 58.015625 27.296875 
Q 58.015625 14.40625 51.78125 6.484375 
Q 45.5625 -1.421875 35.59375 -1.421875 
Q 29.59375 -1.421875 25.265625 0.953125 
Q 20.953125 3.328125 18.109375 8.203125 
z
M 48.6875 27.296875 
Q 48.6875 37.203125 44.609375 42.84375 
Q 40.53125 48.484375 33.40625 48.484375 
Q 26.265625 48.484375 22.1875 42.84375 
Q 18.109375 37.203125 18.109375 27.296875 
Q 18.109375 17.390625 22.1875 11.75 
Q 26.265625 6.109375 33.40625 6.109375 
Q 40.53125 6.109375 44.609375 11.75 
Q 48.6875 17.390625 48.6875 27.296875 
z
" id="DejaVuSans-112"/>
      <path d="M 31 75.875 
Q 24.46875 64.65625 21.28125 53.65625 
Q 18.109375 42.671875 18.109375 31.390625 
Q 18.109375 20.125 21.3125 9.0625 
Q 24.515625 -2 31 -13.1875 
L 23.1875 -13.1875 
Q 15.875 -1.703125 12.234375 9.375 
Q 8.59375 20.453125 8.59375 31.390625 
Q 8.59375 42.28125 12.203125 53.3125 
Q 15.828125 64.359375 23.1875 75.875 
z
" id="DejaVuSans-40"/>
      <path d="M 10.6875 12.40625 
L 21 12.40625 
L 21 0 
L 10.6875 0 
z
" id="DejaVuSans-46"/>
      <path d="M 10.984375 1.515625 
L 10.984375 10.5 
Q 14.703125 8.734375 18.5 7.8125 
Q 22.3125 6.890625 25.984375 6.890625 
Q 35.75 6.890625 40.890625 13.453125 
Q 46.046875 20.015625 46.78125 33.40625 
Q 43.953125 29.203125 39.59375 26.953125 
Q 35.25 24.703125 29.984375 24.703125 
Q 19.046875 24.703125 12.671875 31.3125 
Q 6.296875 37.9375 6.296875 49.421875 
Q 6.296875 60.640625 12.9375 67.421875 
Q 19.578125 74.21875 30.609375 74.21875 
Q 43.265625 74.21875 49.921875 64.515625 
Q 56.59375 54.828125 56.59375 36.375 
Q 56.59375 19.140625 48.40625 8.859375 
Q 40.234375 -1.421875 26.421875 -1.421875 
Q 22.703125 -1.421875 18.890625 -0.6875 
Q 15.09375 0.046875 10.984375 1.515625 
z
M 30.609375 32.421875 
Q 37.25 32.421875 41.125 36.953125 
Q 45.015625 41.5 45.015625 49.421875 
Q 45.015625 57.28125 41.125 61.84375 
Q 37.25 66.40625 30.609375 66.40625 
Q 23.96875 66.40625 20.09375 61.84375 
Q 16.21875 57.28125 16.21875 49.421875 
Q 16.21875 41.5 20.09375 36.953125 
Q 23.96875 32.421875 30.609375 32.421875 
z
" id="DejaVuSans-57"/>
      <path d="M 8.015625 75.875 
L 15.828125 75.875 
Q 23.140625 64.359375 26.78125 53.3125 
Q 30.421875 42.28125 30.421875 31.390625 
Q 30.421875 20.453125 26.78125 9.375 
Q 23.140625 -1.703125 15.828125 -13.1875 
L 8.015625 -13.1875 
Q 14.5 -2 17.703125 9.0625 
Q 20.90625 20.125 20.90625 31.390625 
Q 20.90625 42.671875 17.703125 53.65625 
Q 14.5 64.65625 8.015625 75.875 
z
" id="DejaVuSans-41"/>
     </defs>
     <g transform="translate(316.834063 262.212)scale(0.1 -0.1)">
      <use transform="translate(0 0.015625)" xlink:href="#DejaVuSans-101"/>
      <use transform="translate(61.523438 0.015625)" xlink:href="#DejaVuSans-120"/>
      <use transform="translate(120.703125 0.015625)" xlink:href="#DejaVuSans-112"/>
      <use transform="translate(184.179688 0.015625)" xlink:href="#DejaVuSans-40"/>
      <use transform="translate(223.193359 0.015625)" xlink:href="#DejaVuSans-48"/>
      <use transform="translate(286.816406 0.015625)" xlink:href="#DejaVuSans-46"/>
      <use transform="translate(318.603516 0.015625)" xlink:href="#DejaVuSans-51"/>
      <use transform="translate(382.226562 0.015625)" xlink:href="#DejaVuSans-48"/>
      <use transform="translate(445.849609 0.015625)" xlink:href="#DejaVuSans-57"/>
      <use transform="translate(509.472656 0.015625)" xlink:href="#DejaVuSans-Oblique-107"/>
      <use transform="translate(567.382812 0.015625)" xlink:href="#DejaVuSans-41"/>
     </g>
    </g>
   </g>
  </g>
 </g>
 <defs>
  <clipPath id="pc7a200bda3">
   <rect height="266.112" width="357.12" x="31.8" y="7.2"/>
  </clipPath>
 </defs>
</svg>
