<?xml version="1.0" encoding="utf-8" standalone="no"?>
<!DOCTYPE svg PUBLIC "-//W3C//DTD SVG 1.1//EN"
  "http://www.w3.org/Graphics/SVG/1.1/DTD/svg11.dtd">
<!-- Created with matplotlib (https://matplotlib.org/) -->
<svg height="310.86825pt" version="1.1" viewBox="0 0 402.02 310.86825" width="402.02pt" xmlns="http://www.w3.org/2000/svg" xmlns:xlink="http://www.w3.org/1999/xlink">
 <defs>
  <style type="text/css">
*{stroke-linecap:butt;stroke-linejoin:round;}
  </style>
 </defs>
 <g id="figure_1">
  <g id="patch_1">
   <path d="M 0 310.86825 
L 402.02 310.86825 
L 402.02 0 
L 0 0 
z
" style="fill:#ffffff;"/>
  </g>
  <g id="axes_1">
   <g id="patch_2">
    <path d="M 37.7 273.312 
L 394.82 273.312 
L 394.82 7.2 
L 37.7 7.2 
z
" style="fill:#ffffff;"/>
   </g>
   <g id="matplotlib.axis_1">
    <g id="xtick_1">
     <g id="line2d_1">
      <defs>
       <path d="M 0 0 
L 0 3.5 
" id="m4b64a92552" style="stroke:#000000;stroke-width:0.8;"/>
      </defs>
      <g>
       <use style="stroke:#000000;stroke-width:0.8;" x="53.932727" xlink:href="#m4b64a92552" y="273.312"/>
      </g>
     </g>
     <g id="text_1">
      <!-- 0 -->
      <defs>
       <path d="M 31.78125 66.40625 
Q 24.171875 66.40625 20.328125 58.90625 
Q 16.5 51.421875 16.5 36.375 
Q 16.5 21.390625 20.328125 13.890625 
Q 24.171875 6.390625 31.78125 6.390625 
Q 39.453125 6.390625 43.28125 13.890625 
Q 47.125 21.390625 47.125 36.375 
Q 47.125 51.421875 43.28125 58.90625 
Q 39.453125 66.40625 31.78125 66.40625 
z
M 31.78125 74.21875 
Q 44.046875 74.21875 50.515625 64.515625 
Q 56.984375 54.828125 56.984375 36.375 
Q 56.984375 17.96875 50.515625 8.265625 
Q 44.046875 -1.421875 31.78125 -1.421875 
Q 19.53125 -1.421875 13.0625 8.265625 
Q 6.59375 17.96875 6.59375 36.375 
Q 6.59375 54.828125 13.0625 64.515625 
Q 19.53125 74.21875 31.78125 74.21875 
z
" id="DejaVuSans-48"/>
      </defs>
      <g transform="translate(50.751477 287.910437)scale(0.1 -0.1)">
       <use xlink:href="#DejaVuSans-48"/>
      </g>
     </g>
    </g>
    <g id="xtick_2">
     <g id="line2d_2">
      <g>
       <use style="stroke:#000000;stroke-width:0.8;" x="129.084242" xlink:href="#m4b64a92552" y="273.312"/>
      </g>
     </g>
     <g id="text_2">
      <!-- 50 -->
      <defs>
       <path d="M 10.796875 72.90625 
L 49.515625 72.90625 
L 49.515625 64.59375 
L 19.828125 64.59375 
L 19.828125 46.734375 
Q 21.96875 47.46875 24.109375 47.828125 
Q 26.265625 48.1875 28.421875 48.1875 
Q 40.625 48.1875 47.75 41.5 
Q 54.890625 34.8125 54.890625 23.390625 
Q 54.890625 11.625 47.5625 5.09375 
Q 40.234375 -1.421875 26.90625 -1.421875 
Q 22.3125 -1.421875 17.546875 -0.640625 
Q 12.796875 0.140625 7.71875 1.703125 
L 7.71875 11.625 
Q 12.109375 9.234375 16.796875 8.0625 
Q 21.484375 6.890625 26.703125 6.890625 
Q 35.15625 6.890625 40.078125 11.328125 
Q 45.015625 15.765625 45.015625 23.390625 
Q 45.015625 31 40.078125 35.4375 
Q 35.15625 39.890625 26.703125 39.890625 
Q 22.75 39.890625 18.8125 39.015625 
Q 14.890625 38.140625 10.796875 36.28125 
z
" id="DejaVuSans-53"/>
      </defs>
      <g transform="translate(122.721742 287.910437)scale(0.1 -0.1)">
       <use xlink:href="#DejaVuSans-53"/>
       <use x="63.623047" xlink:href="#DejaVuSans-48"/>
      </g>
     </g>
    </g>
    <g id="xtick_3">
     <g id="line2d_3">
      <g>
       <use style="stroke:#000000;stroke-width:0.8;" x="204.235758" xlink:href="#m4b64a92552" y="273.312"/>
      </g>
     </g>
     <g id="text_3">
      <!-- 100 -->
      <defs>
       <path d="M 12.40625 8.296875 
L 28.515625 8.296875 
L 28.515625 63.921875 
L 10.984375 60.40625 
L 10.984375 69.390625 
L 28.421875 72.90625 
L 38.28125 72.90625 
L 38.28125 8.296875 
L 54.390625 8.296875 
L 54.390625 0 
L 12.40625 0 
z
" id="DejaVuSans-49"/>
      </defs>
      <g transform="translate(194.692008 287.910437)scale(0.1 -0.1)">
       <use xlink:href="#DejaVuSans-49"/>
       <use x="63.623047" xlink:href="#DejaVuSans-48"/>
       <use x="127.246094" xlink:href="#DejaVuSans-48"/>
      </g>
     </g>
    </g>
    <g id="xtick_4">
     <g id="line2d_4">
      <g>
       <use style="stroke:#000000;stroke-width:0.8;" x="279.387273" xlink:href="#m4b64a92552" y="273.312"/>
      </g>
     </g>
     <g id="text_4">
      <!-- 150 -->
      <g transform="translate(269.843523 287.910437)scale(0.1 -0.1)">
       <use xlink:href="#DejaVuSans-49"/>
       <use x="63.623047" xlink:href="#DejaVuSans-53"/>
       <use x="127.246094" xlink:href="#DejaVuSans-48"/>
      </g>
     </g>
    </g>
    <g id="xtick_5">
     <g id="line2d_5">
      <g>
       <use style="stroke:#000000;stroke-width:0.8;" x="354.538788" xlink:href="#m4b64a92552" y="273.312"/>
      </g>
     </g>
     <g id="text_5">
      <!-- 200 -->
      <defs>
       <path d="M 19.1875 8.296875 
L 53.609375 8.296875 
L 53.609375 0 
L 7.328125 0 
L 7.328125 8.296875 
Q 12.9375 14.109375 22.625 23.890625 
Q 32.328125 33.6875 34.8125 36.53125 
Q 39.546875 41.84375 41.421875 45.53125 
Q 43.3125 49.21875 43.3125 52.78125 
Q 43.3125 58.59375 39.234375 62.25 
Q 35.15625 65.921875 28.609375 65.921875 
Q 23.96875 65.921875 18.8125 64.3125 
Q 13.671875 62.703125 7.8125 59.421875 
L 7.8125 69.390625 
Q 13.765625 71.78125 18.9375 73 
Q 24.125 74.21875 28.421875 74.21875 
Q 39.75 74.21875 46.484375 68.546875 
Q 53.21875 62.890625 53.21875 53.421875 
Q 53.21875 48.921875 51.53125 44.890625 
Q 49.859375 40.875 45.40625 35.40625 
Q 44.1875 33.984375 37.640625 27.21875 
Q 31.109375 20.453125 19.1875 8.296875 
z
" id="DejaVuSans-50"/>
      </defs>
      <g transform="translate(344.995038 287.910437)scale(0.1 -0.1)">
       <use xlink:href="#DejaVuSans-50"/>
       <use x="63.623047" xlink:href="#DejaVuSans-48"/>
       <use x="127.246094" xlink:href="#DejaVuSans-48"/>
      </g>
     </g>
    </g>
    <g id="text_6">
     <!-- $ k $ -->
     <defs>
      <path d="M 18.3125 75.984375 
L 27.296875 75.984375 
L 18.703125 31.6875 
L 49.515625 54.6875 
L 61.1875 54.6875 
L 26.8125 28.515625 
L 51.90625 0 
L 41.015625 0 
L 17.671875 26.703125 
L 12.5 0 
L 3.515625 0 
z
" id="DejaVuSans-Oblique-107"/>
     </defs>
     <g transform="translate(213.36 301.588562)scale(0.1 -0.1)">
      <use transform="translate(0 0.015625)" xlink:href="#DejaVuSans-Oblique-107"/>
     </g>
    </g>
   </g>
   <g id="matplotlib.axis_2">
    <g id="ytick_1">
     <g id="line2d_6">
      <defs>
       <path d="M 0 0 
L -3.5 0 
" id="m4f3a3aa6e1" style="stroke:#000000;stroke-width:0.8;"/>
      </defs>
      <g>
       <use style="stroke:#000000;stroke-width:0.8;" x="37.7" xlink:href="#m4f3a3aa6e1" y="244.979327"/>
      </g>
     </g>
     <g id="text_7">
      <!-- $\mathdefault{10^{-5}}$ -->
      <defs>
       <path d="M 10.59375 35.5 
L 73.1875 35.5 
L 73.1875 27.203125 
L 10.59375 27.203125 
z
" id="DejaVuSans-8722"/>
      </defs>
      <g transform="translate(7.2 248.778546)scale(0.1 -0.1)">
       <use transform="translate(0 0.684375)" xlink:href="#DejaVuSans-49"/>
       <use transform="translate(63.623047 0.684375)" xlink:href="#DejaVuSans-48"/>
       <use transform="translate(128.203125 38.965625)scale(0.7)" xlink:href="#DejaVuSans-8722"/>
       <use transform="translate(186.855469 38.965625)scale(0.7)" xlink:href="#DejaVuSans-53"/>
      </g>
     </g>
    </g>
    <g id="ytick_2">
     <g id="line2d_7">
      <g>
       <use style="stroke:#000000;stroke-width:0.8;" x="37.7" xlink:href="#m4f3a3aa6e1" y="210.1297"/>
      </g>
     </g>
     <g id="text_8">
      <!-- $\mathdefault{10^{-4}}$ -->
      <defs>
       <path d="M 37.796875 64.3125 
L 12.890625 25.390625 
L 37.796875 25.390625 
z
M 35.203125 72.90625 
L 47.609375 72.90625 
L 47.609375 25.390625 
L 58.015625 25.390625 
L 58.015625 17.1875 
L 47.609375 17.1875 
L 47.609375 0 
L 37.796875 0 
L 37.796875 17.1875 
L 4.890625 17.1875 
L 4.890625 26.703125 
z
" id="DejaVuSans-52"/>
      </defs>
      <g transform="translate(7.2 213.928919)scale(0.1 -0.1)">
       <use transform="translate(0 0.684375)" xlink:href="#DejaVuSans-49"/>
       <use transform="translate(63.623047 0.684375)" xlink:href="#DejaVuSans-48"/>
       <use transform="translate(128.203125 38.965625)scale(0.7)" xlink:href="#DejaVuSans-8722"/>
       <use transform="translate(186.855469 38.965625)scale(0.7)" xlink:href="#DejaVuSans-52"/>
      </g>
     </g>
    </g>
    <g id="ytick_3">
     <g id="line2d_8">
      <g>
       <use style="stroke:#000000;stroke-width:0.8;" x="37.7" xlink:href="#m4f3a3aa6e1" y="175.280073"/>
      </g>
     </g>
     <g id="text_9">
      <!-- $\mathdefault{10^{-3}}$ -->
      <defs>
       <path d="M 40.578125 39.3125 
Q 47.65625 37.796875 51.625 33 
Q 55.609375 28.21875 55.609375 21.1875 
Q 55.609375 10.40625 48.1875 4.484375 
Q 40.765625 -1.421875 27.09375 -1.421875 
Q 22.515625 -1.421875 17.65625 -0.515625 
Q 12.796875 0.390625 7.625 2.203125 
L 7.625 11.71875 
Q 11.71875 9.328125 16.59375 8.109375 
Q 21.484375 6.890625 26.8125 6.890625 
Q 36.078125 6.890625 40.9375 10.546875 
Q 45.796875 14.203125 45.796875 21.1875 
Q 45.796875 27.640625 41.28125 31.265625 
Q 36.765625 34.90625 28.71875 34.90625 
L 20.21875 34.90625 
L 20.21875 43.015625 
L 29.109375 43.015625 
Q 36.375 43.015625 40.234375 45.921875 
Q 44.09375 48.828125 44.09375 54.296875 
Q 44.09375 59.90625 40.109375 62.90625 
Q 36.140625 65.921875 28.71875 65.921875 
Q 24.65625 65.921875 20.015625 65.03125 
Q 15.375 64.15625 9.8125 62.3125 
L 9.8125 71.09375 
Q 15.4375 72.65625 20.34375 73.4375 
Q 25.25 74.21875 29.59375 74.21875 
Q 40.828125 74.21875 47.359375 69.109375 
Q 53.90625 64.015625 53.90625 55.328125 
Q 53.90625 49.265625 50.4375 45.09375 
Q 46.96875 40.921875 40.578125 39.3125 
z
" id="DejaVuSans-51"/>
      </defs>
      <g transform="translate(7.2 179.079291)scale(0.1 -0.1)">
       <use transform="translate(0 0.765625)" xlink:href="#DejaVuSans-49"/>
       <use transform="translate(63.623047 0.765625)" xlink:href="#DejaVuSans-48"/>
       <use transform="translate(128.203125 39.046875)scale(0.7)" xlink:href="#DejaVuSans-8722"/>
       <use transform="translate(186.855469 39.046875)scale(0.7)" xlink:href="#DejaVuSans-51"/>
      </g>
     </g>
    </g>
    <g id="ytick_4">
     <g id="line2d_9">
      <g>
       <use style="stroke:#000000;stroke-width:0.8;" x="37.7" xlink:href="#m4f3a3aa6e1" y="140.430446"/>
      </g>
     </g>
     <g id="text_10">
      <!-- $\mathdefault{10^{-2}}$ -->
      <g transform="translate(7.2 144.229664)scale(0.1 -0.1)">
       <use transform="translate(0 0.765625)" xlink:href="#DejaVuSans-49"/>
       <use transform="translate(63.623047 0.765625)" xlink:href="#DejaVuSans-48"/>
       <use transform="translate(128.203125 39.046875)scale(0.7)" xlink:href="#DejaVuSans-8722"/>
       <use transform="translate(186.855469 39.046875)scale(0.7)" xlink:href="#DejaVuSans-50"/>
      </g>
     </g>
    </g>
    <g id="ytick_5">
     <g id="line2d_10">
      <g>
       <use style="stroke:#000000;stroke-width:0.8;" x="37.7" xlink:href="#m4f3a3aa6e1" y="105.580819"/>
      </g>
     </g>
     <g id="text_11">
      <!-- $\mathdefault{10^{-1}}$ -->
      <g transform="translate(7.2 109.380037)scale(0.1 -0.1)">
       <use transform="translate(0 0.684375)" xlink:href="#DejaVuSans-49"/>
       <use transform="translate(63.623047 0.684375)" xlink:href="#DejaVuSans-48"/>
       <use transform="translate(128.203125 38.965625)scale(0.7)" xlink:href="#DejaVuSans-8722"/>
       <use transform="translate(186.855469 38.965625)scale(0.7)" xlink:href="#DejaVuSans-49"/>
      </g>
     </g>
    </g>
    <g id="ytick_6">
     <g id="line2d_11">
      <g>
       <use style="stroke:#000000;stroke-width:0.8;" x="37.7" xlink:href="#m4f3a3aa6e1" y="70.731192"/>
      </g>
     </g>
     <g id="text_12">
      <!-- $\mathdefault{10^{0}}$ -->
      <g transform="translate(13.1 74.53041)scale(0.1 -0.1)">
       <use transform="translate(0 0.765625)" xlink:href="#DejaVuSans-49"/>
       <use transform="translate(63.623047 0.765625)" xlink:href="#DejaVuSans-48"/>
       <use transform="translate(128.203125 39.046875)scale(0.7)" xlink:href="#DejaVuSans-48"/>
      </g>
     </g>
    </g>
    <g id="ytick_7">
     <g id="line2d_12">
      <g>
       <use style="stroke:#000000;stroke-width:0.8;" x="37.7" xlink:href="#m4f3a3aa6e1" y="35.881564"/>
      </g>
     </g>
     <g id="text_13">
      <!-- $\mathdefault{10^{1}}$ -->
      <g transform="translate(13.1 39.680783)scale(0.1 -0.1)">
       <use transform="translate(0 0.684375)" xlink:href="#DejaVuSans-49"/>
       <use transform="translate(63.623047 0.684375)" xlink:href="#DejaVuSans-48"/>
       <use transform="translate(128.203125 38.965625)scale(0.7)" xlink:href="#DejaVuSans-49"/>
      </g>
     </g>
    </g>
    <g id="ytick_8">
     <g id="line2d_13">
      <defs>
       <path d="M 0 0 
L -2 0 
" id="mfa7f8b9a6b" style="stroke:#000000;stroke-width:0.6;"/>
      </defs>
      <g>
       <use style="stroke:#000000;stroke-width:0.6;" x="37.7" xlink:href="#mfa7f8b9a6b" y="269.338171"/>
      </g>
     </g>
    </g>
    <g id="ytick_9">
     <g id="line2d_14">
      <g>
       <use style="stroke:#000000;stroke-width:0.6;" x="37.7" xlink:href="#mfa7f8b9a6b" y="263.201456"/>
      </g>
     </g>
    </g>
    <g id="ytick_10">
     <g id="line2d_15">
      <g>
       <use style="stroke:#000000;stroke-width:0.6;" x="37.7" xlink:href="#mfa7f8b9a6b" y="258.847388"/>
      </g>
     </g>
    </g>
    <g id="ytick_11">
     <g id="line2d_16">
      <g>
       <use style="stroke:#000000;stroke-width:0.6;" x="37.7" xlink:href="#mfa7f8b9a6b" y="255.47011"/>
      </g>
     </g>
    </g>
    <g id="ytick_12">
     <g id="line2d_17">
      <g>
       <use style="stroke:#000000;stroke-width:0.6;" x="37.7" xlink:href="#mfa7f8b9a6b" y="252.710673"/>
      </g>
     </g>
    </g>
    <g id="ytick_13">
     <g id="line2d_18">
      <g>
       <use style="stroke:#000000;stroke-width:0.6;" x="37.7" xlink:href="#mfa7f8b9a6b" y="250.377602"/>
      </g>
     </g>
    </g>
    <g id="ytick_14">
     <g id="line2d_19">
      <g>
       <use style="stroke:#000000;stroke-width:0.6;" x="37.7" xlink:href="#mfa7f8b9a6b" y="248.356605"/>
      </g>
     </g>
    </g>
    <g id="ytick_15">
     <g id="line2d_20">
      <g>
       <use style="stroke:#000000;stroke-width:0.6;" x="37.7" xlink:href="#mfa7f8b9a6b" y="246.573958"/>
      </g>
     </g>
    </g>
    <g id="ytick_16">
     <g id="line2d_21">
      <g>
       <use style="stroke:#000000;stroke-width:0.6;" x="37.7" xlink:href="#mfa7f8b9a6b" y="234.488544"/>
      </g>
     </g>
    </g>
    <g id="ytick_17">
     <g id="line2d_22">
      <g>
       <use style="stroke:#000000;stroke-width:0.6;" x="37.7" xlink:href="#mfa7f8b9a6b" y="228.351829"/>
      </g>
     </g>
    </g>
    <g id="ytick_18">
     <g id="line2d_23">
      <g>
       <use style="stroke:#000000;stroke-width:0.6;" x="37.7" xlink:href="#mfa7f8b9a6b" y="223.997761"/>
      </g>
     </g>
    </g>
    <g id="ytick_19">
     <g id="line2d_24">
      <g>
       <use style="stroke:#000000;stroke-width:0.6;" x="37.7" xlink:href="#mfa7f8b9a6b" y="220.620483"/>
      </g>
     </g>
    </g>
    <g id="ytick_20">
     <g id="line2d_25">
      <g>
       <use style="stroke:#000000;stroke-width:0.6;" x="37.7" xlink:href="#mfa7f8b9a6b" y="217.861046"/>
      </g>
     </g>
    </g>
    <g id="ytick_21">
     <g id="line2d_26">
      <g>
       <use style="stroke:#000000;stroke-width:0.6;" x="37.7" xlink:href="#mfa7f8b9a6b" y="215.527975"/>
      </g>
     </g>
    </g>
    <g id="ytick_22">
     <g id="line2d_27">
      <g>
       <use style="stroke:#000000;stroke-width:0.6;" x="37.7" xlink:href="#mfa7f8b9a6b" y="213.506978"/>
      </g>
     </g>
    </g>
    <g id="ytick_23">
     <g id="line2d_28">
      <g>
       <use style="stroke:#000000;stroke-width:0.6;" x="37.7" xlink:href="#mfa7f8b9a6b" y="211.724331"/>
      </g>
     </g>
    </g>
    <g id="ytick_24">
     <g id="line2d_29">
      <g>
       <use style="stroke:#000000;stroke-width:0.6;" x="37.7" xlink:href="#mfa7f8b9a6b" y="199.638917"/>
      </g>
     </g>
    </g>
    <g id="ytick_25">
     <g id="line2d_30">
      <g>
       <use style="stroke:#000000;stroke-width:0.6;" x="37.7" xlink:href="#mfa7f8b9a6b" y="193.502202"/>
      </g>
     </g>
    </g>
    <g id="ytick_26">
     <g id="line2d_31">
      <g>
       <use style="stroke:#000000;stroke-width:0.6;" x="37.7" xlink:href="#mfa7f8b9a6b" y="189.148134"/>
      </g>
     </g>
    </g>
    <g id="ytick_27">
     <g id="line2d_32">
      <g>
       <use style="stroke:#000000;stroke-width:0.6;" x="37.7" xlink:href="#mfa7f8b9a6b" y="185.770856"/>
      </g>
     </g>
    </g>
    <g id="ytick_28">
     <g id="line2d_33">
      <g>
       <use style="stroke:#000000;stroke-width:0.6;" x="37.7" xlink:href="#mfa7f8b9a6b" y="183.011419"/>
      </g>
     </g>
    </g>
    <g id="ytick_29">
     <g id="line2d_34">
      <g>
       <use style="stroke:#000000;stroke-width:0.6;" x="37.7" xlink:href="#mfa7f8b9a6b" y="180.678348"/>
      </g>
     </g>
    </g>
    <g id="ytick_30">
     <g id="line2d_35">
      <g>
       <use style="stroke:#000000;stroke-width:0.6;" x="37.7" xlink:href="#mfa7f8b9a6b" y="178.657351"/>
      </g>
     </g>
    </g>
    <g id="ytick_31">
     <g id="line2d_36">
      <g>
       <use style="stroke:#000000;stroke-width:0.6;" x="37.7" xlink:href="#mfa7f8b9a6b" y="176.874704"/>
      </g>
     </g>
    </g>
    <g id="ytick_32">
     <g id="line2d_37">
      <g>
       <use style="stroke:#000000;stroke-width:0.6;" x="37.7" xlink:href="#mfa7f8b9a6b" y="164.78929"/>
      </g>
     </g>
    </g>
    <g id="ytick_33">
     <g id="line2d_38">
      <g>
       <use style="stroke:#000000;stroke-width:0.6;" x="37.7" xlink:href="#mfa7f8b9a6b" y="158.652575"/>
      </g>
     </g>
    </g>
    <g id="ytick_34">
     <g id="line2d_39">
      <g>
       <use style="stroke:#000000;stroke-width:0.6;" x="37.7" xlink:href="#mfa7f8b9a6b" y="154.298507"/>
      </g>
     </g>
    </g>
    <g id="ytick_35">
     <g id="line2d_40">
      <g>
       <use style="stroke:#000000;stroke-width:0.6;" x="37.7" xlink:href="#mfa7f8b9a6b" y="150.921229"/>
      </g>
     </g>
    </g>
    <g id="ytick_36">
     <g id="line2d_41">
      <g>
       <use style="stroke:#000000;stroke-width:0.6;" x="37.7" xlink:href="#mfa7f8b9a6b" y="148.161792"/>
      </g>
     </g>
    </g>
    <g id="ytick_37">
     <g id="line2d_42">
      <g>
       <use style="stroke:#000000;stroke-width:0.6;" x="37.7" xlink:href="#mfa7f8b9a6b" y="145.828721"/>
      </g>
     </g>
    </g>
    <g id="ytick_38">
     <g id="line2d_43">
      <g>
       <use style="stroke:#000000;stroke-width:0.6;" x="37.7" xlink:href="#mfa7f8b9a6b" y="143.807723"/>
      </g>
     </g>
    </g>
    <g id="ytick_39">
     <g id="line2d_44">
      <g>
       <use style="stroke:#000000;stroke-width:0.6;" x="37.7" xlink:href="#mfa7f8b9a6b" y="142.025077"/>
      </g>
     </g>
    </g>
    <g id="ytick_40">
     <g id="line2d_45">
      <g>
       <use style="stroke:#000000;stroke-width:0.6;" x="37.7" xlink:href="#mfa7f8b9a6b" y="129.939663"/>
      </g>
     </g>
    </g>
    <g id="ytick_41">
     <g id="line2d_46">
      <g>
       <use style="stroke:#000000;stroke-width:0.6;" x="37.7" xlink:href="#mfa7f8b9a6b" y="123.802948"/>
      </g>
     </g>
    </g>
    <g id="ytick_42">
     <g id="line2d_47">
      <g>
       <use style="stroke:#000000;stroke-width:0.6;" x="37.7" xlink:href="#mfa7f8b9a6b" y="119.448879"/>
      </g>
     </g>
    </g>
    <g id="ytick_43">
     <g id="line2d_48">
      <g>
       <use style="stroke:#000000;stroke-width:0.6;" x="37.7" xlink:href="#mfa7f8b9a6b" y="116.071602"/>
      </g>
     </g>
    </g>
    <g id="ytick_44">
     <g id="line2d_49">
      <g>
       <use style="stroke:#000000;stroke-width:0.6;" x="37.7" xlink:href="#mfa7f8b9a6b" y="113.312165"/>
      </g>
     </g>
    </g>
    <g id="ytick_45">
     <g id="line2d_50">
      <g>
       <use style="stroke:#000000;stroke-width:0.6;" x="37.7" xlink:href="#mfa7f8b9a6b" y="110.979094"/>
      </g>
     </g>
    </g>
    <g id="ytick_46">
     <g id="line2d_51">
      <g>
       <use style="stroke:#000000;stroke-width:0.6;" x="37.7" xlink:href="#mfa7f8b9a6b" y="108.958096"/>
      </g>
     </g>
    </g>
    <g id="ytick_47">
     <g id="line2d_52">
      <g>
       <use style="stroke:#000000;stroke-width:0.6;" x="37.7" xlink:href="#mfa7f8b9a6b" y="107.17545"/>
      </g>
     </g>
    </g>
    <g id="ytick_48">
     <g id="line2d_53">
      <g>
       <use style="stroke:#000000;stroke-width:0.6;" x="37.7" xlink:href="#mfa7f8b9a6b" y="95.090036"/>
      </g>
     </g>
    </g>
    <g id="ytick_49">
     <g id="line2d_54">
      <g>
       <use style="stroke:#000000;stroke-width:0.6;" x="37.7" xlink:href="#mfa7f8b9a6b" y="88.953321"/>
      </g>
     </g>
    </g>
    <g id="ytick_50">
     <g id="line2d_55">
      <g>
       <use style="stroke:#000000;stroke-width:0.6;" x="37.7" xlink:href="#mfa7f8b9a6b" y="84.599252"/>
      </g>
     </g>
    </g>
    <g id="ytick_51">
     <g id="line2d_56">
      <g>
       <use style="stroke:#000000;stroke-width:0.6;" x="37.7" xlink:href="#mfa7f8b9a6b" y="81.221975"/>
      </g>
     </g>
    </g>
    <g id="ytick_52">
     <g id="line2d_57">
      <g>
       <use style="stroke:#000000;stroke-width:0.6;" x="37.7" xlink:href="#mfa7f8b9a6b" y="78.462538"/>
      </g>
     </g>
    </g>
    <g id="ytick_53">
     <g id="line2d_58">
      <g>
       <use style="stroke:#000000;stroke-width:0.6;" x="37.7" xlink:href="#mfa7f8b9a6b" y="76.129467"/>
      </g>
     </g>
    </g>
    <g id="ytick_54">
     <g id="line2d_59">
      <g>
       <use style="stroke:#000000;stroke-width:0.6;" x="37.7" xlink:href="#mfa7f8b9a6b" y="74.108469"/>
      </g>
     </g>
    </g>
    <g id="ytick_55">
     <g id="line2d_60">
      <g>
       <use style="stroke:#000000;stroke-width:0.6;" x="37.7" xlink:href="#mfa7f8b9a6b" y="72.325823"/>
      </g>
     </g>
    </g>
    <g id="ytick_56">
     <g id="line2d_61">
      <g>
       <use style="stroke:#000000;stroke-width:0.6;" x="37.7" xlink:href="#mfa7f8b9a6b" y="60.240408"/>
      </g>
     </g>
    </g>
    <g id="ytick_57">
     <g id="line2d_62">
      <g>
       <use style="stroke:#000000;stroke-width:0.6;" x="37.7" xlink:href="#mfa7f8b9a6b" y="54.103694"/>
      </g>
     </g>
    </g>
    <g id="ytick_58">
     <g id="line2d_63">
      <g>
       <use style="stroke:#000000;stroke-width:0.6;" x="37.7" xlink:href="#mfa7f8b9a6b" y="49.749625"/>
      </g>
     </g>
    </g>
    <g id="ytick_59">
     <g id="line2d_64">
      <g>
       <use style="stroke:#000000;stroke-width:0.6;" x="37.7" xlink:href="#mfa7f8b9a6b" y="46.372348"/>
      </g>
     </g>
    </g>
    <g id="ytick_60">
     <g id="line2d_65">
      <g>
       <use style="stroke:#000000;stroke-width:0.6;" x="37.7" xlink:href="#mfa7f8b9a6b" y="43.612911"/>
      </g>
     </g>
    </g>
    <g id="ytick_61">
     <g id="line2d_66">
      <g>
       <use style="stroke:#000000;stroke-width:0.6;" x="37.7" xlink:href="#mfa7f8b9a6b" y="41.27984"/>
      </g>
     </g>
    </g>
    <g id="ytick_62">
     <g id="line2d_67">
      <g>
       <use style="stroke:#000000;stroke-width:0.6;" x="37.7" xlink:href="#mfa7f8b9a6b" y="39.258842"/>
      </g>
     </g>
    </g>
    <g id="ytick_63">
     <g id="line2d_68">
      <g>
       <use style="stroke:#000000;stroke-width:0.6;" x="37.7" xlink:href="#mfa7f8b9a6b" y="37.476196"/>
      </g>
     </g>
    </g>
    <g id="ytick_64">
     <g id="line2d_69">
      <g>
       <use style="stroke:#000000;stroke-width:0.6;" x="37.7" xlink:href="#mfa7f8b9a6b" y="25.390781"/>
      </g>
     </g>
    </g>
    <g id="ytick_65">
     <g id="line2d_70">
      <g>
       <use style="stroke:#000000;stroke-width:0.6;" x="37.7" xlink:href="#mfa7f8b9a6b" y="19.254067"/>
      </g>
     </g>
    </g>
    <g id="ytick_66">
     <g id="line2d_71">
      <g>
       <use style="stroke:#000000;stroke-width:0.6;" x="37.7" xlink:href="#mfa7f8b9a6b" y="14.899998"/>
      </g>
     </g>
    </g>
    <g id="ytick_67">
     <g id="line2d_72">
      <g>
       <use style="stroke:#000000;stroke-width:0.6;" x="37.7" xlink:href="#mfa7f8b9a6b" y="11.52272"/>
      </g>
     </g>
    </g>
    <g id="ytick_68">
     <g id="line2d_73">
      <g>
       <use style="stroke:#000000;stroke-width:0.6;" x="37.7" xlink:href="#mfa7f8b9a6b" y="8.763284"/>
      </g>
     </g>
    </g>
   </g>
   <g id="line2d_74">
    <path clip-path="url(#p95bf9a7674)" d="M 53.932727 19.296 
L 55.435758 53.717774 
L 56.938788 79.255435 
L 59.944848 136.090747 
L 61.447879 159.549405 
L 62.950909 207.948387 
L 64.453939 201.00558 
L 65.95697 185.594347 
L 67.46 191.184096 
L 68.96303 179.638418 
L 70.466061 185.002791 
L 71.969091 210.895359 
L 73.472121 174.544875 
L 74.975152 187.909799 
L 76.478182 193.818786 
L 77.981212 203.950743 
L 79.484242 184.538406 
L 80.987273 177.235437 
L 82.490303 201.752286 
L 83.993333 197.338385 
L 85.496364 196.836217 
L 86.999394 185.876766 
L 88.502424 195.541164 
L 90.005455 198.512475 
L 91.508485 179.201628 
L 93.011515 208.568949 
L 94.514545 182.386836 
L 96.017576 190.521448 
L 97.520606 184.825709 
L 99.023636 180.039378 
L 100.526667 168.56639 
L 102.029697 199.142311 
L 103.532727 215.401837 
L 105.035758 187.513167 
L 106.538788 190.980994 
L 108.041818 186.503613 
L 109.544848 174.086185 
L 111.047879 171.265889 
L 112.550909 198.812388 
L 114.053939 197.429519 
L 115.55697 180.89356 
L 117.06 188.176864 
L 118.56303 179.451935 
L 120.066061 193.738605 
L 121.569091 166.25052 
L 123.072121 185.628897 
L 124.575152 191.566893 
L 126.078182 218.312334 
L 127.581212 205.898367 
L 129.084242 205.399113 
L 130.587273 184.7947 
L 132.090303 237.535046 
L 133.593333 189.179686 
L 135.096364 178.643291 
L 136.599394 194.249557 
L 138.102424 175.523522 
L 139.605455 184.963127 
L 141.108485 212.200895 
L 142.611515 190.534234 
L 144.114545 235.337569 
L 145.617576 172.361642 
L 147.120606 188.138669 
L 148.623636 189.66005 
L 150.126667 194.015172 
L 151.629697 216.495103 
L 153.132727 209.283755 
L 154.635758 191.403556 
L 156.138788 192.281542 
L 157.641818 207.462639 
L 159.144848 224.130261 
L 160.647879 190.120971 
L 162.150909 186.594602 
L 163.653939 251.316151 
L 165.15697 186.335485 
L 166.66 181.428016 
L 168.16303 187.47771 
L 169.666061 176.352312 
L 171.169091 169.411485 
L 172.672121 202.022648 
L 174.175152 201.060349 
L 175.678182 179.040187 
L 177.181212 176.501303 
L 178.684242 172.541243 
L 180.187273 178.918015 
L 181.690303 189.473717 
L 183.193333 202.658035 
L 184.696364 177.731533 
L 186.199394 167.169745 
L 187.702424 185.210374 
L 189.205455 193.868562 
L 190.708485 197.282389 
L 192.211515 178.139439 
L 193.714545 184.361791 
L 195.217576 208.63729 
L 196.720606 182.56472 
L 198.223636 177.042002 
L 199.726667 181.049426 
L 201.229697 185.905112 
L 202.732727 201.984349 
L 204.235758 178.456747 
L 205.738788 188.065227 
L 207.241818 204.104616 
L 208.744848 224.893901 
L 210.247879 205.682107 
L 211.750909 184.988605 
L 213.253939 187.563104 
L 214.75697 206.181589 
L 216.26 232.32899 
L 219.266061 181.857005 
L 220.769091 200.428453 
L 222.272121 204.208892 
L 223.775152 208.733328 
L 225.278182 199.992098 
L 226.781212 178.072454 
L 228.284242 190.167979 
L 229.787273 207.655406 
L 231.290303 190.123608 
L 232.793333 177.520329 
L 234.296364 223.419287 
L 235.799394 217.412188 
L 237.302424 216.042698 
L 238.805455 183.583062 
L 240.308485 186.714297 
L 241.811515 214.19227 
L 243.314545 181.752124 
L 244.817576 186.355976 
L 246.320606 228.960816 
L 247.823636 195.538275 
L 249.326667 182.668508 
L 250.829697 186.888815 
L 252.332727 183.73647 
L 253.835758 184.30189 
L 255.338788 189.399766 
L 256.841818 235.894411 
L 258.344848 186.885066 
L 259.847879 166.504683 
L 261.350909 185.146478 
L 262.853939 178.412225 
L 264.35697 214.478641 
L 265.86 187.624428 
L 267.36303 183.339998 
L 268.866061 178.302436 
L 271.872121 189.334662 
L 273.375152 183.691772 
L 274.878182 193.17415 
L 276.381212 191.483662 
L 277.884242 181.879108 
L 279.387273 203.144936 
L 280.890303 183.521777 
L 282.393333 196.088841 
L 283.896364 192.255264 
L 285.399394 185.318533 
L 286.902424 198.648667 
L 288.405455 209.517308 
L 289.908485 197.299996 
L 291.411515 179.022609 
L 292.914545 188.472213 
L 294.417576 200.774055 
L 295.920606 171.814949 
L 297.423636 192.566166 
L 298.926667 203.581056 
L 300.429697 170.485119 
L 301.932727 189.063893 
L 303.435758 184.57993 
L 304.938788 206.227017 
L 306.441818 204.909573 
L 307.944848 193.923947 
L 309.447879 211.279422 
L 310.950909 181.755743 
L 312.453939 181.117794 
L 313.95697 179.325862 
L 315.46 203.076788 
L 316.96303 183.196236 
L 318.466061 201.810476 
L 319.969091 202.198294 
L 321.472121 208.142106 
L 322.975152 175.56306 
L 324.478182 200.232337 
L 325.981212 202.797449 
L 327.484242 210.111252 
L 328.987273 187.847785 
L 330.490303 214.841045 
L 331.993333 198.518865 
L 334.999394 179.079192 
L 336.502424 206.340845 
L 338.005455 200.302555 
L 339.508485 182.236938 
L 341.011515 203.653715 
L 342.514545 216.277543 
L 344.017576 194.848753 
L 345.520606 189.628293 
L 347.023636 192.680334 
L 348.526667 173.964837 
L 350.029697 184.60244 
L 351.532727 175.835607 
L 353.035758 205.777313 
L 354.538788 261.216 
L 356.041818 208.362208 
L 357.544848 177.078893 
L 359.047879 191.682526 
L 360.550909 198.09875 
L 362.053939 203.820551 
L 363.55697 170.533501 
L 365.06 175.106664 
L 366.56303 204.740273 
L 368.066061 204.781044 
L 369.569091 196.42149 
L 371.072121 191.417708 
L 372.575152 199.796427 
L 375.581212 178.60712 
L 375.586977 311.86825 
L 375.586977 311.86825 
" style="fill:none;stroke:#1f77b4;stroke-linecap:square;stroke-width:1.5;"/>
    <defs>
     <path d="M 0 3 
C 0.795609 3 1.55874 2.683901 2.12132 2.12132 
C 2.683901 1.55874 3 0.795609 3 0 
C 3 -0.795609 2.683901 -1.55874 2.12132 -2.12132 
C 1.55874 -2.683901 0.795609 -3 0 -3 
C -0.795609 -3 -1.55874 -2.683901 -2.12132 -2.12132 
C -2.683901 -1.55874 -3 -0.795609 -3 0 
C -3 0.795609 -2.683901 1.55874 -2.12132 2.12132 
C -1.55874 2.683901 -0.795609 3 0 3 
z
" id="m7f32c6703e" style="stroke:#1f77b4;"/>
    </defs>
    <g clip-path="url(#p95bf9a7674)">
     <use style="fill:#1f77b4;stroke:#1f77b4;" x="53.932727" xlink:href="#m7f32c6703e" y="19.296"/>
     <use style="fill:#1f77b4;stroke:#1f77b4;" x="55.435758" xlink:href="#m7f32c6703e" y="53.717774"/>
     <use style="fill:#1f77b4;stroke:#1f77b4;" x="56.938788" xlink:href="#m7f32c6703e" y="79.255435"/>
     <use style="fill:#1f77b4;stroke:#1f77b4;" x="58.441818" xlink:href="#m7f32c6703e" y="108.707971"/>
     <use style="fill:#1f77b4;stroke:#1f77b4;" x="59.944848" xlink:href="#m7f32c6703e" y="136.090747"/>
     <use style="fill:#1f77b4;stroke:#1f77b4;" x="61.447879" xlink:href="#m7f32c6703e" y="159.549405"/>
     <use style="fill:#1f77b4;stroke:#1f77b4;" x="62.950909" xlink:href="#m7f32c6703e" y="207.948387"/>
     <use style="fill:#1f77b4;stroke:#1f77b4;" x="64.453939" xlink:href="#m7f32c6703e" y="201.00558"/>
     <use style="fill:#1f77b4;stroke:#1f77b4;" x="65.95697" xlink:href="#m7f32c6703e" y="185.594347"/>
     <use style="fill:#1f77b4;stroke:#1f77b4;" x="67.46" xlink:href="#m7f32c6703e" y="191.184096"/>
     <use style="fill:#1f77b4;stroke:#1f77b4;" x="68.96303" xlink:href="#m7f32c6703e" y="179.638418"/>
     <use style="fill:#1f77b4;stroke:#1f77b4;" x="70.466061" xlink:href="#m7f32c6703e" y="185.002791"/>
     <use style="fill:#1f77b4;stroke:#1f77b4;" x="71.969091" xlink:href="#m7f32c6703e" y="210.895359"/>
     <use style="fill:#1f77b4;stroke:#1f77b4;" x="73.472121" xlink:href="#m7f32c6703e" y="174.544875"/>
     <use style="fill:#1f77b4;stroke:#1f77b4;" x="74.975152" xlink:href="#m7f32c6703e" y="187.909799"/>
     <use style="fill:#1f77b4;stroke:#1f77b4;" x="76.478182" xlink:href="#m7f32c6703e" y="193.818786"/>
     <use style="fill:#1f77b4;stroke:#1f77b4;" x="77.981212" xlink:href="#m7f32c6703e" y="203.950743"/>
     <use style="fill:#1f77b4;stroke:#1f77b4;" x="79.484242" xlink:href="#m7f32c6703e" y="184.538406"/>
     <use style="fill:#1f77b4;stroke:#1f77b4;" x="80.987273" xlink:href="#m7f32c6703e" y="177.235437"/>
     <use style="fill:#1f77b4;stroke:#1f77b4;" x="82.490303" xlink:href="#m7f32c6703e" y="201.752286"/>
     <use style="fill:#1f77b4;stroke:#1f77b4;" x="83.993333" xlink:href="#m7f32c6703e" y="197.338385"/>
     <use style="fill:#1f77b4;stroke:#1f77b4;" x="85.496364" xlink:href="#m7f32c6703e" y="196.836217"/>
     <use style="fill:#1f77b4;stroke:#1f77b4;" x="86.999394" xlink:href="#m7f32c6703e" y="185.876766"/>
     <use style="fill:#1f77b4;stroke:#1f77b4;" x="88.502424" xlink:href="#m7f32c6703e" y="195.541164"/>
     <use style="fill:#1f77b4;stroke:#1f77b4;" x="90.005455" xlink:href="#m7f32c6703e" y="198.512475"/>
     <use style="fill:#1f77b4;stroke:#1f77b4;" x="91.508485" xlink:href="#m7f32c6703e" y="179.201628"/>
     <use style="fill:#1f77b4;stroke:#1f77b4;" x="93.011515" xlink:href="#m7f32c6703e" y="208.568949"/>
     <use style="fill:#1f77b4;stroke:#1f77b4;" x="94.514545" xlink:href="#m7f32c6703e" y="182.386836"/>
     <use style="fill:#1f77b4;stroke:#1f77b4;" x="96.017576" xlink:href="#m7f32c6703e" y="190.521448"/>
     <use style="fill:#1f77b4;stroke:#1f77b4;" x="97.520606" xlink:href="#m7f32c6703e" y="184.825709"/>
     <use style="fill:#1f77b4;stroke:#1f77b4;" x="99.023636" xlink:href="#m7f32c6703e" y="180.039378"/>
     <use style="fill:#1f77b4;stroke:#1f77b4;" x="100.526667" xlink:href="#m7f32c6703e" y="168.56639"/>
     <use style="fill:#1f77b4;stroke:#1f77b4;" x="102.029697" xlink:href="#m7f32c6703e" y="199.142311"/>
     <use style="fill:#1f77b4;stroke:#1f77b4;" x="103.532727" xlink:href="#m7f32c6703e" y="215.401837"/>
     <use style="fill:#1f77b4;stroke:#1f77b4;" x="105.035758" xlink:href="#m7f32c6703e" y="187.513167"/>
     <use style="fill:#1f77b4;stroke:#1f77b4;" x="106.538788" xlink:href="#m7f32c6703e" y="190.980994"/>
     <use style="fill:#1f77b4;stroke:#1f77b4;" x="108.041818" xlink:href="#m7f32c6703e" y="186.503613"/>
     <use style="fill:#1f77b4;stroke:#1f77b4;" x="109.544848" xlink:href="#m7f32c6703e" y="174.086185"/>
     <use style="fill:#1f77b4;stroke:#1f77b4;" x="111.047879" xlink:href="#m7f32c6703e" y="171.265889"/>
     <use style="fill:#1f77b4;stroke:#1f77b4;" x="112.550909" xlink:href="#m7f32c6703e" y="198.812388"/>
     <use style="fill:#1f77b4;stroke:#1f77b4;" x="114.053939" xlink:href="#m7f32c6703e" y="197.429519"/>
     <use style="fill:#1f77b4;stroke:#1f77b4;" x="115.55697" xlink:href="#m7f32c6703e" y="180.89356"/>
     <use style="fill:#1f77b4;stroke:#1f77b4;" x="117.06" xlink:href="#m7f32c6703e" y="188.176864"/>
     <use style="fill:#1f77b4;stroke:#1f77b4;" x="118.56303" xlink:href="#m7f32c6703e" y="179.451935"/>
     <use style="fill:#1f77b4;stroke:#1f77b4;" x="120.066061" xlink:href="#m7f32c6703e" y="193.738605"/>
     <use style="fill:#1f77b4;stroke:#1f77b4;" x="121.569091" xlink:href="#m7f32c6703e" y="166.25052"/>
     <use style="fill:#1f77b4;stroke:#1f77b4;" x="123.072121" xlink:href="#m7f32c6703e" y="185.628897"/>
     <use style="fill:#1f77b4;stroke:#1f77b4;" x="124.575152" xlink:href="#m7f32c6703e" y="191.566893"/>
     <use style="fill:#1f77b4;stroke:#1f77b4;" x="126.078182" xlink:href="#m7f32c6703e" y="218.312334"/>
     <use style="fill:#1f77b4;stroke:#1f77b4;" x="127.581212" xlink:href="#m7f32c6703e" y="205.898367"/>
     <use style="fill:#1f77b4;stroke:#1f77b4;" x="129.084242" xlink:href="#m7f32c6703e" y="205.399113"/>
     <use style="fill:#1f77b4;stroke:#1f77b4;" x="130.587273" xlink:href="#m7f32c6703e" y="184.7947"/>
     <use style="fill:#1f77b4;stroke:#1f77b4;" x="132.090303" xlink:href="#m7f32c6703e" y="237.535046"/>
     <use style="fill:#1f77b4;stroke:#1f77b4;" x="133.593333" xlink:href="#m7f32c6703e" y="189.179686"/>
     <use style="fill:#1f77b4;stroke:#1f77b4;" x="135.096364" xlink:href="#m7f32c6703e" y="178.643291"/>
     <use style="fill:#1f77b4;stroke:#1f77b4;" x="136.599394" xlink:href="#m7f32c6703e" y="194.249557"/>
     <use style="fill:#1f77b4;stroke:#1f77b4;" x="138.102424" xlink:href="#m7f32c6703e" y="175.523522"/>
     <use style="fill:#1f77b4;stroke:#1f77b4;" x="139.605455" xlink:href="#m7f32c6703e" y="184.963127"/>
     <use style="fill:#1f77b4;stroke:#1f77b4;" x="141.108485" xlink:href="#m7f32c6703e" y="212.200895"/>
     <use style="fill:#1f77b4;stroke:#1f77b4;" x="142.611515" xlink:href="#m7f32c6703e" y="190.534234"/>
     <use style="fill:#1f77b4;stroke:#1f77b4;" x="144.114545" xlink:href="#m7f32c6703e" y="235.337569"/>
     <use style="fill:#1f77b4;stroke:#1f77b4;" x="145.617576" xlink:href="#m7f32c6703e" y="172.361642"/>
     <use style="fill:#1f77b4;stroke:#1f77b4;" x="147.120606" xlink:href="#m7f32c6703e" y="188.138669"/>
     <use style="fill:#1f77b4;stroke:#1f77b4;" x="148.623636" xlink:href="#m7f32c6703e" y="189.66005"/>
     <use style="fill:#1f77b4;stroke:#1f77b4;" x="150.126667" xlink:href="#m7f32c6703e" y="194.015172"/>
     <use style="fill:#1f77b4;stroke:#1f77b4;" x="151.629697" xlink:href="#m7f32c6703e" y="216.495103"/>
     <use style="fill:#1f77b4;stroke:#1f77b4;" x="153.132727" xlink:href="#m7f32c6703e" y="209.283755"/>
     <use style="fill:#1f77b4;stroke:#1f77b4;" x="154.635758" xlink:href="#m7f32c6703e" y="191.403556"/>
     <use style="fill:#1f77b4;stroke:#1f77b4;" x="156.138788" xlink:href="#m7f32c6703e" y="192.281542"/>
     <use style="fill:#1f77b4;stroke:#1f77b4;" x="157.641818" xlink:href="#m7f32c6703e" y="207.462639"/>
     <use style="fill:#1f77b4;stroke:#1f77b4;" x="159.144848" xlink:href="#m7f32c6703e" y="224.130261"/>
     <use style="fill:#1f77b4;stroke:#1f77b4;" x="160.647879" xlink:href="#m7f32c6703e" y="190.120971"/>
     <use style="fill:#1f77b4;stroke:#1f77b4;" x="162.150909" xlink:href="#m7f32c6703e" y="186.594602"/>
     <use style="fill:#1f77b4;stroke:#1f77b4;" x="163.653939" xlink:href="#m7f32c6703e" y="251.316151"/>
     <use style="fill:#1f77b4;stroke:#1f77b4;" x="165.15697" xlink:href="#m7f32c6703e" y="186.335485"/>
     <use style="fill:#1f77b4;stroke:#1f77b4;" x="166.66" xlink:href="#m7f32c6703e" y="181.428016"/>
     <use style="fill:#1f77b4;stroke:#1f77b4;" x="168.16303" xlink:href="#m7f32c6703e" y="187.47771"/>
     <use style="fill:#1f77b4;stroke:#1f77b4;" x="169.666061" xlink:href="#m7f32c6703e" y="176.352312"/>
     <use style="fill:#1f77b4;stroke:#1f77b4;" x="171.169091" xlink:href="#m7f32c6703e" y="169.411485"/>
     <use style="fill:#1f77b4;stroke:#1f77b4;" x="172.672121" xlink:href="#m7f32c6703e" y="202.022648"/>
     <use style="fill:#1f77b4;stroke:#1f77b4;" x="174.175152" xlink:href="#m7f32c6703e" y="201.060349"/>
     <use style="fill:#1f77b4;stroke:#1f77b4;" x="175.678182" xlink:href="#m7f32c6703e" y="179.040187"/>
     <use style="fill:#1f77b4;stroke:#1f77b4;" x="177.181212" xlink:href="#m7f32c6703e" y="176.501303"/>
     <use style="fill:#1f77b4;stroke:#1f77b4;" x="178.684242" xlink:href="#m7f32c6703e" y="172.541243"/>
     <use style="fill:#1f77b4;stroke:#1f77b4;" x="180.187273" xlink:href="#m7f32c6703e" y="178.918015"/>
     <use style="fill:#1f77b4;stroke:#1f77b4;" x="181.690303" xlink:href="#m7f32c6703e" y="189.473717"/>
     <use style="fill:#1f77b4;stroke:#1f77b4;" x="183.193333" xlink:href="#m7f32c6703e" y="202.658035"/>
     <use style="fill:#1f77b4;stroke:#1f77b4;" x="184.696364" xlink:href="#m7f32c6703e" y="177.731533"/>
     <use style="fill:#1f77b4;stroke:#1f77b4;" x="186.199394" xlink:href="#m7f32c6703e" y="167.169745"/>
     <use style="fill:#1f77b4;stroke:#1f77b4;" x="187.702424" xlink:href="#m7f32c6703e" y="185.210374"/>
     <use style="fill:#1f77b4;stroke:#1f77b4;" x="189.205455" xlink:href="#m7f32c6703e" y="193.868562"/>
     <use style="fill:#1f77b4;stroke:#1f77b4;" x="190.708485" xlink:href="#m7f32c6703e" y="197.282389"/>
     <use style="fill:#1f77b4;stroke:#1f77b4;" x="192.211515" xlink:href="#m7f32c6703e" y="178.139439"/>
     <use style="fill:#1f77b4;stroke:#1f77b4;" x="193.714545" xlink:href="#m7f32c6703e" y="184.361791"/>
     <use style="fill:#1f77b4;stroke:#1f77b4;" x="195.217576" xlink:href="#m7f32c6703e" y="208.63729"/>
     <use style="fill:#1f77b4;stroke:#1f77b4;" x="196.720606" xlink:href="#m7f32c6703e" y="182.56472"/>
     <use style="fill:#1f77b4;stroke:#1f77b4;" x="198.223636" xlink:href="#m7f32c6703e" y="177.042002"/>
     <use style="fill:#1f77b4;stroke:#1f77b4;" x="199.726667" xlink:href="#m7f32c6703e" y="181.049426"/>
     <use style="fill:#1f77b4;stroke:#1f77b4;" x="201.229697" xlink:href="#m7f32c6703e" y="185.905112"/>
     <use style="fill:#1f77b4;stroke:#1f77b4;" x="202.732727" xlink:href="#m7f32c6703e" y="201.984349"/>
     <use style="fill:#1f77b4;stroke:#1f77b4;" x="204.235758" xlink:href="#m7f32c6703e" y="178.456747"/>
     <use style="fill:#1f77b4;stroke:#1f77b4;" x="205.738788" xlink:href="#m7f32c6703e" y="188.065227"/>
     <use style="fill:#1f77b4;stroke:#1f77b4;" x="207.241818" xlink:href="#m7f32c6703e" y="204.104616"/>
     <use style="fill:#1f77b4;stroke:#1f77b4;" x="208.744848" xlink:href="#m7f32c6703e" y="224.893901"/>
     <use style="fill:#1f77b4;stroke:#1f77b4;" x="210.247879" xlink:href="#m7f32c6703e" y="205.682107"/>
     <use style="fill:#1f77b4;stroke:#1f77b4;" x="211.750909" xlink:href="#m7f32c6703e" y="184.988605"/>
     <use style="fill:#1f77b4;stroke:#1f77b4;" x="213.253939" xlink:href="#m7f32c6703e" y="187.563104"/>
     <use style="fill:#1f77b4;stroke:#1f77b4;" x="214.75697" xlink:href="#m7f32c6703e" y="206.181589"/>
     <use style="fill:#1f77b4;stroke:#1f77b4;" x="216.26" xlink:href="#m7f32c6703e" y="232.32899"/>
     <use style="fill:#1f77b4;stroke:#1f77b4;" x="217.76303" xlink:href="#m7f32c6703e" y="206.205725"/>
     <use style="fill:#1f77b4;stroke:#1f77b4;" x="219.266061" xlink:href="#m7f32c6703e" y="181.857005"/>
     <use style="fill:#1f77b4;stroke:#1f77b4;" x="220.769091" xlink:href="#m7f32c6703e" y="200.428453"/>
     <use style="fill:#1f77b4;stroke:#1f77b4;" x="222.272121" xlink:href="#m7f32c6703e" y="204.208892"/>
     <use style="fill:#1f77b4;stroke:#1f77b4;" x="223.775152" xlink:href="#m7f32c6703e" y="208.733328"/>
     <use style="fill:#1f77b4;stroke:#1f77b4;" x="225.278182" xlink:href="#m7f32c6703e" y="199.992098"/>
     <use style="fill:#1f77b4;stroke:#1f77b4;" x="226.781212" xlink:href="#m7f32c6703e" y="178.072454"/>
     <use style="fill:#1f77b4;stroke:#1f77b4;" x="228.284242" xlink:href="#m7f32c6703e" y="190.167979"/>
     <use style="fill:#1f77b4;stroke:#1f77b4;" x="229.787273" xlink:href="#m7f32c6703e" y="207.655406"/>
     <use style="fill:#1f77b4;stroke:#1f77b4;" x="231.290303" xlink:href="#m7f32c6703e" y="190.123608"/>
     <use style="fill:#1f77b4;stroke:#1f77b4;" x="232.793333" xlink:href="#m7f32c6703e" y="177.520329"/>
     <use style="fill:#1f77b4;stroke:#1f77b4;" x="234.296364" xlink:href="#m7f32c6703e" y="223.419287"/>
     <use style="fill:#1f77b4;stroke:#1f77b4;" x="235.799394" xlink:href="#m7f32c6703e" y="217.412188"/>
     <use style="fill:#1f77b4;stroke:#1f77b4;" x="237.302424" xlink:href="#m7f32c6703e" y="216.042698"/>
     <use style="fill:#1f77b4;stroke:#1f77b4;" x="238.805455" xlink:href="#m7f32c6703e" y="183.583062"/>
     <use style="fill:#1f77b4;stroke:#1f77b4;" x="240.308485" xlink:href="#m7f32c6703e" y="186.714297"/>
     <use style="fill:#1f77b4;stroke:#1f77b4;" x="241.811515" xlink:href="#m7f32c6703e" y="214.19227"/>
     <use style="fill:#1f77b4;stroke:#1f77b4;" x="243.314545" xlink:href="#m7f32c6703e" y="181.752124"/>
     <use style="fill:#1f77b4;stroke:#1f77b4;" x="244.817576" xlink:href="#m7f32c6703e" y="186.355976"/>
     <use style="fill:#1f77b4;stroke:#1f77b4;" x="246.320606" xlink:href="#m7f32c6703e" y="228.960816"/>
     <use style="fill:#1f77b4;stroke:#1f77b4;" x="247.823636" xlink:href="#m7f32c6703e" y="195.538275"/>
     <use style="fill:#1f77b4;stroke:#1f77b4;" x="249.326667" xlink:href="#m7f32c6703e" y="182.668508"/>
     <use style="fill:#1f77b4;stroke:#1f77b4;" x="250.829697" xlink:href="#m7f32c6703e" y="186.888815"/>
     <use style="fill:#1f77b4;stroke:#1f77b4;" x="252.332727" xlink:href="#m7f32c6703e" y="183.73647"/>
     <use style="fill:#1f77b4;stroke:#1f77b4;" x="253.835758" xlink:href="#m7f32c6703e" y="184.30189"/>
     <use style="fill:#1f77b4;stroke:#1f77b4;" x="255.338788" xlink:href="#m7f32c6703e" y="189.399766"/>
     <use style="fill:#1f77b4;stroke:#1f77b4;" x="256.841818" xlink:href="#m7f32c6703e" y="235.894411"/>
     <use style="fill:#1f77b4;stroke:#1f77b4;" x="258.344848" xlink:href="#m7f32c6703e" y="186.885066"/>
     <use style="fill:#1f77b4;stroke:#1f77b4;" x="259.847879" xlink:href="#m7f32c6703e" y="166.504683"/>
     <use style="fill:#1f77b4;stroke:#1f77b4;" x="261.350909" xlink:href="#m7f32c6703e" y="185.146478"/>
     <use style="fill:#1f77b4;stroke:#1f77b4;" x="262.853939" xlink:href="#m7f32c6703e" y="178.412225"/>
     <use style="fill:#1f77b4;stroke:#1f77b4;" x="264.35697" xlink:href="#m7f32c6703e" y="214.478641"/>
     <use style="fill:#1f77b4;stroke:#1f77b4;" x="265.86" xlink:href="#m7f32c6703e" y="187.624428"/>
     <use style="fill:#1f77b4;stroke:#1f77b4;" x="267.36303" xlink:href="#m7f32c6703e" y="183.339998"/>
     <use style="fill:#1f77b4;stroke:#1f77b4;" x="268.866061" xlink:href="#m7f32c6703e" y="178.302436"/>
     <use style="fill:#1f77b4;stroke:#1f77b4;" x="270.369091" xlink:href="#m7f32c6703e" y="183.866152"/>
     <use style="fill:#1f77b4;stroke:#1f77b4;" x="271.872121" xlink:href="#m7f32c6703e" y="189.334662"/>
     <use style="fill:#1f77b4;stroke:#1f77b4;" x="273.375152" xlink:href="#m7f32c6703e" y="183.691772"/>
     <use style="fill:#1f77b4;stroke:#1f77b4;" x="274.878182" xlink:href="#m7f32c6703e" y="193.17415"/>
     <use style="fill:#1f77b4;stroke:#1f77b4;" x="276.381212" xlink:href="#m7f32c6703e" y="191.483662"/>
     <use style="fill:#1f77b4;stroke:#1f77b4;" x="277.884242" xlink:href="#m7f32c6703e" y="181.879108"/>
     <use style="fill:#1f77b4;stroke:#1f77b4;" x="279.387273" xlink:href="#m7f32c6703e" y="203.144936"/>
     <use style="fill:#1f77b4;stroke:#1f77b4;" x="280.890303" xlink:href="#m7f32c6703e" y="183.521777"/>
     <use style="fill:#1f77b4;stroke:#1f77b4;" x="282.393333" xlink:href="#m7f32c6703e" y="196.088841"/>
     <use style="fill:#1f77b4;stroke:#1f77b4;" x="283.896364" xlink:href="#m7f32c6703e" y="192.255264"/>
     <use style="fill:#1f77b4;stroke:#1f77b4;" x="285.399394" xlink:href="#m7f32c6703e" y="185.318533"/>
     <use style="fill:#1f77b4;stroke:#1f77b4;" x="286.902424" xlink:href="#m7f32c6703e" y="198.648667"/>
     <use style="fill:#1f77b4;stroke:#1f77b4;" x="288.405455" xlink:href="#m7f32c6703e" y="209.517308"/>
     <use style="fill:#1f77b4;stroke:#1f77b4;" x="289.908485" xlink:href="#m7f32c6703e" y="197.299996"/>
     <use style="fill:#1f77b4;stroke:#1f77b4;" x="291.411515" xlink:href="#m7f32c6703e" y="179.022609"/>
     <use style="fill:#1f77b4;stroke:#1f77b4;" x="292.914545" xlink:href="#m7f32c6703e" y="188.472213"/>
     <use style="fill:#1f77b4;stroke:#1f77b4;" x="294.417576" xlink:href="#m7f32c6703e" y="200.774055"/>
     <use style="fill:#1f77b4;stroke:#1f77b4;" x="295.920606" xlink:href="#m7f32c6703e" y="171.814949"/>
     <use style="fill:#1f77b4;stroke:#1f77b4;" x="297.423636" xlink:href="#m7f32c6703e" y="192.566166"/>
     <use style="fill:#1f77b4;stroke:#1f77b4;" x="298.926667" xlink:href="#m7f32c6703e" y="203.581056"/>
     <use style="fill:#1f77b4;stroke:#1f77b4;" x="300.429697" xlink:href="#m7f32c6703e" y="170.485119"/>
     <use style="fill:#1f77b4;stroke:#1f77b4;" x="301.932727" xlink:href="#m7f32c6703e" y="189.063893"/>
     <use style="fill:#1f77b4;stroke:#1f77b4;" x="303.435758" xlink:href="#m7f32c6703e" y="184.57993"/>
     <use style="fill:#1f77b4;stroke:#1f77b4;" x="304.938788" xlink:href="#m7f32c6703e" y="206.227017"/>
     <use style="fill:#1f77b4;stroke:#1f77b4;" x="306.441818" xlink:href="#m7f32c6703e" y="204.909573"/>
     <use style="fill:#1f77b4;stroke:#1f77b4;" x="307.944848" xlink:href="#m7f32c6703e" y="193.923947"/>
     <use style="fill:#1f77b4;stroke:#1f77b4;" x="309.447879" xlink:href="#m7f32c6703e" y="211.279422"/>
     <use style="fill:#1f77b4;stroke:#1f77b4;" x="310.950909" xlink:href="#m7f32c6703e" y="181.755743"/>
     <use style="fill:#1f77b4;stroke:#1f77b4;" x="312.453939" xlink:href="#m7f32c6703e" y="181.117794"/>
     <use style="fill:#1f77b4;stroke:#1f77b4;" x="313.95697" xlink:href="#m7f32c6703e" y="179.325862"/>
     <use style="fill:#1f77b4;stroke:#1f77b4;" x="315.46" xlink:href="#m7f32c6703e" y="203.076788"/>
     <use style="fill:#1f77b4;stroke:#1f77b4;" x="316.96303" xlink:href="#m7f32c6703e" y="183.196236"/>
     <use style="fill:#1f77b4;stroke:#1f77b4;" x="318.466061" xlink:href="#m7f32c6703e" y="201.810476"/>
     <use style="fill:#1f77b4;stroke:#1f77b4;" x="319.969091" xlink:href="#m7f32c6703e" y="202.198294"/>
     <use style="fill:#1f77b4;stroke:#1f77b4;" x="321.472121" xlink:href="#m7f32c6703e" y="208.142106"/>
     <use style="fill:#1f77b4;stroke:#1f77b4;" x="322.975152" xlink:href="#m7f32c6703e" y="175.56306"/>
     <use style="fill:#1f77b4;stroke:#1f77b4;" x="324.478182" xlink:href="#m7f32c6703e" y="200.232337"/>
     <use style="fill:#1f77b4;stroke:#1f77b4;" x="325.981212" xlink:href="#m7f32c6703e" y="202.797449"/>
     <use style="fill:#1f77b4;stroke:#1f77b4;" x="327.484242" xlink:href="#m7f32c6703e" y="210.111252"/>
     <use style="fill:#1f77b4;stroke:#1f77b4;" x="328.987273" xlink:href="#m7f32c6703e" y="187.847785"/>
     <use style="fill:#1f77b4;stroke:#1f77b4;" x="330.490303" xlink:href="#m7f32c6703e" y="214.841045"/>
     <use style="fill:#1f77b4;stroke:#1f77b4;" x="331.993333" xlink:href="#m7f32c6703e" y="198.518865"/>
     <use style="fill:#1f77b4;stroke:#1f77b4;" x="333.496364" xlink:href="#m7f32c6703e" y="188.454992"/>
     <use style="fill:#1f77b4;stroke:#1f77b4;" x="334.999394" xlink:href="#m7f32c6703e" y="179.079192"/>
     <use style="fill:#1f77b4;stroke:#1f77b4;" x="336.502424" xlink:href="#m7f32c6703e" y="206.340845"/>
     <use style="fill:#1f77b4;stroke:#1f77b4;" x="338.005455" xlink:href="#m7f32c6703e" y="200.302555"/>
     <use style="fill:#1f77b4;stroke:#1f77b4;" x="339.508485" xlink:href="#m7f32c6703e" y="182.236938"/>
     <use style="fill:#1f77b4;stroke:#1f77b4;" x="341.011515" xlink:href="#m7f32c6703e" y="203.653715"/>
     <use style="fill:#1f77b4;stroke:#1f77b4;" x="342.514545" xlink:href="#m7f32c6703e" y="216.277543"/>
     <use style="fill:#1f77b4;stroke:#1f77b4;" x="344.017576" xlink:href="#m7f32c6703e" y="194.848753"/>
     <use style="fill:#1f77b4;stroke:#1f77b4;" x="345.520606" xlink:href="#m7f32c6703e" y="189.628293"/>
     <use style="fill:#1f77b4;stroke:#1f77b4;" x="347.023636" xlink:href="#m7f32c6703e" y="192.680334"/>
     <use style="fill:#1f77b4;stroke:#1f77b4;" x="348.526667" xlink:href="#m7f32c6703e" y="173.964837"/>
     <use style="fill:#1f77b4;stroke:#1f77b4;" x="350.029697" xlink:href="#m7f32c6703e" y="184.60244"/>
     <use style="fill:#1f77b4;stroke:#1f77b4;" x="351.532727" xlink:href="#m7f32c6703e" y="175.835607"/>
     <use style="fill:#1f77b4;stroke:#1f77b4;" x="353.035758" xlink:href="#m7f32c6703e" y="205.777313"/>
     <use style="fill:#1f77b4;stroke:#1f77b4;" x="354.538788" xlink:href="#m7f32c6703e" y="261.216"/>
     <use style="fill:#1f77b4;stroke:#1f77b4;" x="356.041818" xlink:href="#m7f32c6703e" y="208.362208"/>
     <use style="fill:#1f77b4;stroke:#1f77b4;" x="357.544848" xlink:href="#m7f32c6703e" y="177.078893"/>
     <use style="fill:#1f77b4;stroke:#1f77b4;" x="359.047879" xlink:href="#m7f32c6703e" y="191.682526"/>
     <use style="fill:#1f77b4;stroke:#1f77b4;" x="360.550909" xlink:href="#m7f32c6703e" y="198.09875"/>
     <use style="fill:#1f77b4;stroke:#1f77b4;" x="362.053939" xlink:href="#m7f32c6703e" y="203.820551"/>
     <use style="fill:#1f77b4;stroke:#1f77b4;" x="363.55697" xlink:href="#m7f32c6703e" y="170.533501"/>
     <use style="fill:#1f77b4;stroke:#1f77b4;" x="365.06" xlink:href="#m7f32c6703e" y="175.106664"/>
     <use style="fill:#1f77b4;stroke:#1f77b4;" x="366.56303" xlink:href="#m7f32c6703e" y="204.740273"/>
     <use style="fill:#1f77b4;stroke:#1f77b4;" x="368.066061" xlink:href="#m7f32c6703e" y="204.781044"/>
     <use style="fill:#1f77b4;stroke:#1f77b4;" x="369.569091" xlink:href="#m7f32c6703e" y="196.42149"/>
     <use style="fill:#1f77b4;stroke:#1f77b4;" x="371.072121" xlink:href="#m7f32c6703e" y="191.417708"/>
     <use style="fill:#1f77b4;stroke:#1f77b4;" x="372.575152" xlink:href="#m7f32c6703e" y="199.796427"/>
     <use style="fill:#1f77b4;stroke:#1f77b4;" x="374.078182" xlink:href="#m7f32c6703e" y="188.934105"/>
     <use style="fill:#1f77b4;stroke:#1f77b4;" x="375.581212" xlink:href="#m7f32c6703e" y="178.60712"/>
     <use style="fill:#1f77b4;stroke:#1f77b4;" x="376.541862" xlink:href="#m7f32c6703e" y="22383.514"/>
    </g>
   </g>
   <g id="line2d_75">
    <path clip-path="url(#p95bf9a7674)" d="M 55.435758 53.717774 
L 56.938788 79.255435 
L 58.441818 108.707971 
L 59.944848 136.090747 
L 61.447879 159.549405 
" style="fill:none;stroke:#2ca02c;stroke-dasharray:1.5,2.475;stroke-dashoffset:0;stroke-width:1.5;"/>
    <defs>
     <path d="M -3 3 
L 3 -3 
M -3 -3 
L 3 3 
" id="mb0a8e965bc" style="stroke:#2ca02c;"/>
    </defs>
    <g clip-path="url(#p95bf9a7674)">
     <use style="fill:#2ca02c;stroke:#2ca02c;" x="55.435758" xlink:href="#mb0a8e965bc" y="53.717774"/>
     <use style="fill:#2ca02c;stroke:#2ca02c;" x="56.938788" xlink:href="#mb0a8e965bc" y="79.255435"/>
     <use style="fill:#2ca02c;stroke:#2ca02c;" x="58.441818" xlink:href="#mb0a8e965bc" y="108.707971"/>
     <use style="fill:#2ca02c;stroke:#2ca02c;" x="59.944848" xlink:href="#mb0a8e965bc" y="136.090747"/>
     <use style="fill:#2ca02c;stroke:#2ca02c;" x="61.447879" xlink:href="#mb0a8e965bc" y="159.549405"/>
    </g>
   </g>
   <g id="line2d_76">
    <path clip-path="url(#p95bf9a7674)" d="M 55.435758 97.581049 
L 67.431358 311.86825 
L 67.431358 311.86825 
" style="fill:none;stroke:#000000;stroke-dasharray:5.55,2.4;stroke-dashoffset:0;stroke-width:1.5;"/>
   </g>
   <g id="patch_3">
    <path d="M 37.7 273.312 
L 37.7 7.2 
" style="fill:none;stroke:#000000;stroke-linecap:square;stroke-linejoin:miter;stroke-width:0.8;"/>
   </g>
   <g id="patch_4">
    <path d="M 394.82 273.312 
L 394.82 7.2 
" style="fill:none;stroke:#000000;stroke-linecap:square;stroke-linejoin:miter;stroke-width:0.8;"/>
   </g>
   <g id="patch_5">
    <path d="M 37.7 273.312 
L 394.82 273.312 
" style="fill:none;stroke:#000000;stroke-linecap:square;stroke-linejoin:miter;stroke-width:0.8;"/>
   </g>
   <g id="patch_6">
    <path d="M 37.7 7.2 
L 394.82 7.2 
" style="fill:none;stroke:#000000;stroke-linecap:square;stroke-linejoin:miter;stroke-width:0.8;"/>
   </g>
   <g id="legend_1">
    <g id="patch_7">
     <path d="M 287.72 59.25625 
L 387.82 59.25625 
Q 389.82 59.25625 389.82 57.25625 
L 389.82 14.2 
Q 389.82 12.2 387.82 12.2 
L 287.72 12.2 
Q 285.72 12.2 285.72 14.2 
L 285.72 57.25625 
Q 285.72 59.25625 287.72 59.25625 
z
" style="fill:#ffffff;opacity:0.8;"/>
    </g>
    <g id="line2d_77">
     <path d="M 289.72 20.298437 
L 309.72 20.298437 
" style="fill:none;stroke:#1f77b4;stroke-linecap:square;stroke-width:1.5;"/>
    </g>
    <g id="line2d_78">
     <g>
      <use style="fill:#1f77b4;stroke:#1f77b4;" x="299.72" xlink:href="#m7f32c6703e" y="20.298437"/>
     </g>
    </g>
    <g id="text_14">
     <!-- APD$_n$ - APD$_\infty$ -->
     <defs>
      <path d="M 34.1875 63.1875 
L 20.796875 26.90625 
L 47.609375 26.90625 
z
M 28.609375 72.90625 
L 39.796875 72.90625 
L 67.578125 0 
L 57.328125 0 
L 50.6875 18.703125 
L 17.828125 18.703125 
L 11.1875 0 
L 0.78125 0 
z
" id="DejaVuSans-65"/>
      <path d="M 19.671875 64.796875 
L 19.671875 37.40625 
L 32.078125 37.40625 
Q 38.96875 37.40625 42.71875 40.96875 
Q 46.484375 44.53125 46.484375 51.125 
Q 46.484375 57.671875 42.71875 61.234375 
Q 38.96875 64.796875 32.078125 64.796875 
z
M 9.8125 72.90625 
L 32.078125 72.90625 
Q 44.34375 72.90625 50.609375 67.359375 
Q 56.890625 61.8125 56.890625 51.125 
Q 56.890625 40.328125 50.609375 34.8125 
Q 44.34375 29.296875 32.078125 29.296875 
L 19.671875 29.296875 
L 19.671875 0 
L 9.8125 0 
z
" id="DejaVuSans-80"/>
      <path d="M 19.671875 64.796875 
L 19.671875 8.109375 
L 31.59375 8.109375 
Q 46.6875 8.109375 53.6875 14.9375 
Q 60.6875 21.78125 60.6875 36.53125 
Q 60.6875 51.171875 53.6875 57.984375 
Q 46.6875 64.796875 31.59375 64.796875 
z
M 9.8125 72.90625 
L 30.078125 72.90625 
Q 51.265625 72.90625 61.171875 64.09375 
Q 71.09375 55.28125 71.09375 36.53125 
Q 71.09375 17.671875 61.125 8.828125 
Q 51.171875 0 30.078125 0 
L 9.8125 0 
z
" id="DejaVuSans-68"/>
      <path d="M 55.71875 33.015625 
L 49.3125 0 
L 40.28125 0 
L 46.6875 32.671875 
Q 47.125 34.96875 47.359375 36.71875 
Q 47.609375 38.484375 47.609375 39.5 
Q 47.609375 43.609375 45.015625 45.890625 
Q 42.4375 48.1875 37.796875 48.1875 
Q 30.5625 48.1875 25.34375 43.375 
Q 20.125 38.578125 18.5 30.328125 
L 12.5 0 
L 3.515625 0 
L 14.109375 54.6875 
L 23.09375 54.6875 
L 21.296875 46.09375 
Q 25.046875 50.828125 30.3125 53.40625 
Q 35.59375 56 41.40625 56 
Q 48.640625 56 52.609375 52.09375 
Q 56.59375 48.1875 56.59375 41.109375 
Q 56.59375 39.359375 56.375 37.359375 
Q 56.15625 35.359375 55.71875 33.015625 
z
" id="DejaVuSans-Oblique-110"/>
      <path id="DejaVuSans-32"/>
      <path d="M 4.890625 31.390625 
L 31.203125 31.390625 
L 31.203125 23.390625 
L 4.890625 23.390625 
z
" id="DejaVuSans-45"/>
      <path d="M 45.5625 17.046875 
Q 44.046875 18.796875 41.65625 22.90625 
Q 38.375 17.046875 35.5 14.453125 
Q 31.890625 11.328125 26.265625 11.328125 
Q 19.671875 11.328125 15.328125 16.265625 
Q 10.75 21.4375 10.75 29.984375 
Q 10.75 38.1875 15.328125 43.75 
Q 19.4375 48.6875 26.375 48.6875 
Q 29.9375 48.6875 32.5625 47.21875 
Q 35.640625 45.609375 37.75 42.828125 
Q 39.703125 40.328125 41.65625 36.96875 
Q 44.921875 42.828125 47.796875 45.40625 
Q 51.421875 48.53125 57.03125 48.53125 
Q 63.625 48.53125 67.96875 43.609375 
Q 72.5625 38.421875 72.5625 29.890625 
Q 72.5625 21.6875 67.96875 16.109375 
Q 63.875 11.1875 56.9375 11.1875 
Q 53.375 11.1875 50.734375 12.640625 
Q 48.09375 13.96875 45.5625 17.046875 
z
M 25.734375 17.71875 
Q 33.796875 17.71875 38.625 29.4375 
Q 32.421875 42.234375 25.734375 42.234375 
Q 20.84375 42.234375 18.359375 38.71875 
Q 15.671875 34.96875 15.671875 29.984375 
Q 15.671875 24.515625 18.359375 21.140625 
Q 21.09375 17.71875 25.734375 17.71875 
z
M 57.5625 42.140625 
Q 50.296875 42.140625 44.671875 30.421875 
Q 50.828125 17.625 57.5625 17.625 
Q 62.453125 17.625 64.9375 21.140625 
Q 67.625 24.90625 67.625 29.890625 
Q 67.625 35.359375 64.9375 38.71875 
Q 62.203125 42.140625 57.5625 42.140625 
z
" id="DejaVuSans-8734"/>
     </defs>
     <g transform="translate(317.72 23.798437)scale(0.1 -0.1)">
      <use transform="translate(0 0.09375)" xlink:href="#DejaVuSans-65"/>
      <use transform="translate(68.408203 0.09375)" xlink:href="#DejaVuSans-80"/>
      <use transform="translate(128.710938 0.09375)" xlink:href="#DejaVuSans-68"/>
      <use transform="translate(206.669922 -16.3125)scale(0.7)" xlink:href="#DejaVuSans-Oblique-110"/>
      <use transform="translate(253.769531 0.09375)" xlink:href="#DejaVuSans-32"/>
      <use transform="translate(285.556641 0.09375)" xlink:href="#DejaVuSans-45"/>
      <use transform="translate(321.640625 0.09375)" xlink:href="#DejaVuSans-32"/>
      <use transform="translate(353.427734 0.09375)" xlink:href="#DejaVuSans-65"/>
      <use transform="translate(421.835938 0.09375)" xlink:href="#DejaVuSans-80"/>
      <use transform="translate(482.138672 0.09375)" xlink:href="#DejaVuSans-68"/>
      <use transform="translate(560.097656 -16.3125)scale(0.7)" xlink:href="#DejaVuSans-8734"/>
     </g>
    </g>
    <g id="line2d_79">
     <path d="M 289.72 34.976562 
L 309.72 34.976562 
" style="fill:none;stroke:#2ca02c;stroke-dasharray:1.5,2.475;stroke-dashoffset:0;stroke-width:1.5;"/>
    </g>
    <g id="line2d_80">
     <g>
      <use style="fill:#2ca02c;stroke:#2ca02c;" x="299.72" xlink:href="#mb0a8e965bc" y="34.976562"/>
     </g>
    </g>
    <g id="text_15">
     <!-- linear region -->
     <defs>
      <path d="M 9.421875 75.984375 
L 18.40625 75.984375 
L 18.40625 0 
L 9.421875 0 
z
" id="DejaVuSans-108"/>
      <path d="M 9.421875 54.6875 
L 18.40625 54.6875 
L 18.40625 0 
L 9.421875 0 
z
M 9.421875 75.984375 
L 18.40625 75.984375 
L 18.40625 64.59375 
L 9.421875 64.59375 
z
" id="DejaVuSans-105"/>
      <path d="M 54.890625 33.015625 
L 54.890625 0 
L 45.90625 0 
L 45.90625 32.71875 
Q 45.90625 40.484375 42.875 44.328125 
Q 39.84375 48.1875 33.796875 48.1875 
Q 26.515625 48.1875 22.3125 43.546875 
Q 18.109375 38.921875 18.109375 30.90625 
L 18.109375 0 
L 9.078125 0 
L 9.078125 54.6875 
L 18.109375 54.6875 
L 18.109375 46.1875 
Q 21.34375 51.125 25.703125 53.5625 
Q 30.078125 56 35.796875 56 
Q 45.21875 56 50.046875 50.171875 
Q 54.890625 44.34375 54.890625 33.015625 
z
" id="DejaVuSans-110"/>
      <path d="M 56.203125 29.59375 
L 56.203125 25.203125 
L 14.890625 25.203125 
Q 15.484375 15.921875 20.484375 11.0625 
Q 25.484375 6.203125 34.421875 6.203125 
Q 39.59375 6.203125 44.453125 7.46875 
Q 49.3125 8.734375 54.109375 11.28125 
L 54.109375 2.78125 
Q 49.265625 0.734375 44.1875 -0.34375 
Q 39.109375 -1.421875 33.890625 -1.421875 
Q 20.796875 -1.421875 13.15625 6.1875 
Q 5.515625 13.8125 5.515625 26.8125 
Q 5.515625 40.234375 12.765625 48.109375 
Q 20.015625 56 32.328125 56 
Q 43.359375 56 49.78125 48.890625 
Q 56.203125 41.796875 56.203125 29.59375 
z
M 47.21875 32.234375 
Q 47.125 39.59375 43.09375 43.984375 
Q 39.0625 48.390625 32.421875 48.390625 
Q 24.90625 48.390625 20.390625 44.140625 
Q 15.875 39.890625 15.1875 32.171875 
z
" id="DejaVuSans-101"/>
      <path d="M 34.28125 27.484375 
Q 23.390625 27.484375 19.1875 25 
Q 14.984375 22.515625 14.984375 16.5 
Q 14.984375 11.71875 18.140625 8.90625 
Q 21.296875 6.109375 26.703125 6.109375 
Q 34.1875 6.109375 38.703125 11.40625 
Q 43.21875 16.703125 43.21875 25.484375 
L 43.21875 27.484375 
z
M 52.203125 31.203125 
L 52.203125 0 
L 43.21875 0 
L 43.21875 8.296875 
Q 40.140625 3.328125 35.546875 0.953125 
Q 30.953125 -1.421875 24.3125 -1.421875 
Q 15.921875 -1.421875 10.953125 3.296875 
Q 6 8.015625 6 15.921875 
Q 6 25.140625 12.171875 29.828125 
Q 18.359375 34.515625 30.609375 34.515625 
L 43.21875 34.515625 
L 43.21875 35.40625 
Q 43.21875 41.609375 39.140625 45 
Q 35.0625 48.390625 27.6875 48.390625 
Q 23 48.390625 18.546875 47.265625 
Q 14.109375 46.140625 10.015625 43.890625 
L 10.015625 52.203125 
Q 14.9375 54.109375 19.578125 55.046875 
Q 24.21875 56 28.609375 56 
Q 40.484375 56 46.34375 49.84375 
Q 52.203125 43.703125 52.203125 31.203125 
z
" id="DejaVuSans-97"/>
      <path d="M 41.109375 46.296875 
Q 39.59375 47.171875 37.8125 47.578125 
Q 36.03125 48 33.890625 48 
Q 26.265625 48 22.1875 43.046875 
Q 18.109375 38.09375 18.109375 28.8125 
L 18.109375 0 
L 9.078125 0 
L 9.078125 54.6875 
L 18.109375 54.6875 
L 18.109375 46.1875 
Q 20.953125 51.171875 25.484375 53.578125 
Q 30.03125 56 36.53125 56 
Q 37.453125 56 38.578125 55.875 
Q 39.703125 55.765625 41.0625 55.515625 
z
" id="DejaVuSans-114"/>
      <path d="M 45.40625 27.984375 
Q 45.40625 37.75 41.375 43.109375 
Q 37.359375 48.484375 30.078125 48.484375 
Q 22.859375 48.484375 18.828125 43.109375 
Q 14.796875 37.75 14.796875 27.984375 
Q 14.796875 18.265625 18.828125 12.890625 
Q 22.859375 7.515625 30.078125 7.515625 
Q 37.359375 7.515625 41.375 12.890625 
Q 45.40625 18.265625 45.40625 27.984375 
z
M 54.390625 6.78125 
Q 54.390625 -7.171875 48.1875 -13.984375 
Q 42 -20.796875 29.203125 -20.796875 
Q 24.46875 -20.796875 20.265625 -20.09375 
Q 16.0625 -19.390625 12.109375 -17.921875 
L 12.109375 -9.1875 
Q 16.0625 -11.328125 19.921875 -12.34375 
Q 23.78125 -13.375 27.78125 -13.375 
Q 36.625 -13.375 41.015625 -8.765625 
Q 45.40625 -4.15625 45.40625 5.171875 
L 45.40625 9.625 
Q 42.625 4.78125 38.28125 2.390625 
Q 33.9375 0 27.875 0 
Q 17.828125 0 11.671875 7.65625 
Q 5.515625 15.328125 5.515625 27.984375 
Q 5.515625 40.671875 11.671875 48.328125 
Q 17.828125 56 27.875 56 
Q 33.9375 56 38.28125 53.609375 
Q 42.625 51.21875 45.40625 46.390625 
L 45.40625 54.6875 
L 54.390625 54.6875 
z
" id="DejaVuSans-103"/>
      <path d="M 30.609375 48.390625 
Q 23.390625 48.390625 19.1875 42.75 
Q 14.984375 37.109375 14.984375 27.296875 
Q 14.984375 17.484375 19.15625 11.84375 
Q 23.34375 6.203125 30.609375 6.203125 
Q 37.796875 6.203125 41.984375 11.859375 
Q 46.1875 17.53125 46.1875 27.296875 
Q 46.1875 37.015625 41.984375 42.703125 
Q 37.796875 48.390625 30.609375 48.390625 
z
M 30.609375 56 
Q 42.328125 56 49.015625 48.375 
Q 55.71875 40.765625 55.71875 27.296875 
Q 55.71875 13.875 49.015625 6.21875 
Q 42.328125 -1.421875 30.609375 -1.421875 
Q 18.84375 -1.421875 12.171875 6.21875 
Q 5.515625 13.875 5.515625 27.296875 
Q 5.515625 40.765625 12.171875 48.375 
Q 18.84375 56 30.609375 56 
z
" id="DejaVuSans-111"/>
     </defs>
     <g transform="translate(317.72 38.476562)scale(0.1 -0.1)">
      <use xlink:href="#DejaVuSans-108"/>
      <use x="27.783203" xlink:href="#DejaVuSans-105"/>
      <use x="55.566406" xlink:href="#DejaVuSans-110"/>
      <use x="118.945312" xlink:href="#DejaVuSans-101"/>
      <use x="180.46875" xlink:href="#DejaVuSans-97"/>
      <use x="241.748047" xlink:href="#DejaVuSans-114"/>
      <use x="282.861328" xlink:href="#DejaVuSans-32"/>
      <use x="314.648438" xlink:href="#DejaVuSans-114"/>
      <use x="353.511719" xlink:href="#DejaVuSans-101"/>
      <use x="415.035156" xlink:href="#DejaVuSans-103"/>
      <use x="478.511719" xlink:href="#DejaVuSans-105"/>
      <use x="506.294922" xlink:href="#DejaVuSans-111"/>
      <use x="567.476562" xlink:href="#DejaVuSans-110"/>
     </g>
    </g>
    <g id="line2d_81">
     <path d="M 289.72 49.65625 
L 309.72 49.65625 
" style="fill:none;stroke:#000000;stroke-dasharray:5.55,2.4;stroke-dashoffset:0;stroke-width:1.5;"/>
    </g>
    <g id="line2d_82"/>
    <g id="text_16">
     <!-- $ \exp(-1.774 k)$ -->
     <defs>
      <path d="M 54.890625 54.6875 
L 35.109375 28.078125 
L 55.90625 0 
L 45.3125 0 
L 29.390625 21.484375 
L 13.484375 0 
L 2.875 0 
L 24.125 28.609375 
L 4.6875 54.6875 
L 15.28125 54.6875 
L 29.78125 35.203125 
L 44.28125 54.6875 
z
" id="DejaVuSans-120"/>
      <path d="M 18.109375 8.203125 
L 18.109375 -20.796875 
L 9.078125 -20.796875 
L 9.078125 54.6875 
L 18.109375 54.6875 
L 18.109375 46.390625 
Q 20.953125 51.265625 25.265625 53.625 
Q 29.59375 56 35.59375 56 
Q 45.5625 56 51.78125 48.09375 
Q 58.015625 40.1875 58.015625 27.296875 
Q 58.015625 14.40625 51.78125 6.484375 
Q 45.5625 -1.421875 35.59375 -1.421875 
Q 29.59375 -1.421875 25.265625 0.953125 
Q 20.953125 3.328125 18.109375 8.203125 
z
M 48.6875 27.296875 
Q 48.6875 37.203125 44.609375 42.84375 
Q 40.53125 48.484375 33.40625 48.484375 
Q 26.265625 48.484375 22.1875 42.84375 
Q 18.109375 37.203125 18.109375 27.296875 
Q 18.109375 17.390625 22.1875 11.75 
Q 26.265625 6.109375 33.40625 6.109375 
Q 40.53125 6.109375 44.609375 11.75 
Q 48.6875 17.390625 48.6875 27.296875 
z
" id="DejaVuSans-112"/>
      <path d="M 31 75.875 
Q 24.46875 64.65625 21.28125 53.65625 
Q 18.109375 42.671875 18.109375 31.390625 
Q 18.109375 20.125 21.3125 9.0625 
Q 24.515625 -2 31 -13.1875 
L 23.1875 -13.1875 
Q 15.875 -1.703125 12.234375 9.375 
Q 8.59375 20.453125 8.59375 31.390625 
Q 8.59375 42.28125 12.203125 53.3125 
Q 15.828125 64.359375 23.1875 75.875 
z
" id="DejaVuSans-40"/>
      <path d="M 10.6875 12.40625 
L 21 12.40625 
L 21 0 
L 10.6875 0 
z
" id="DejaVuSans-46"/>
      <path d="M 8.203125 72.90625 
L 55.078125 72.90625 
L 55.078125 68.703125 
L 28.609375 0 
L 18.3125 0 
L 43.21875 64.59375 
L 8.203125 64.59375 
z
" id="DejaVuSans-55"/>
      <path d="M 8.015625 75.875 
L 15.828125 75.875 
Q 23.140625 64.359375 26.78125 53.3125 
Q 30.421875 42.28125 30.421875 31.390625 
Q 30.421875 20.453125 26.78125 9.375 
Q 23.140625 -1.703125 15.828125 -13.1875 
L 8.015625 -13.1875 
Q 14.5 -2 17.703125 9.0625 
Q 20.90625 20.125 20.90625 31.390625 
Q 20.90625 42.671875 17.703125 53.65625 
Q 14.5 64.65625 8.015625 75.875 
z
" id="DejaVuSans-41"/>
     </defs>
     <g transform="translate(317.72 53.15625)scale(0.1 -0.1)">
      <use transform="translate(0 0.015625)" xlink:href="#DejaVuSans-101"/>
      <use transform="translate(61.523438 0.015625)" xlink:href="#DejaVuSans-120"/>
      <use transform="translate(120.703125 0.015625)" xlink:href="#DejaVuSans-112"/>
      <use transform="translate(184.179688 0.015625)" xlink:href="#DejaVuSans-40"/>
      <use transform="translate(223.193359 0.015625)" xlink:href="#DejaVuSans-8722"/>
      <use transform="translate(306.982422 0.015625)" xlink:href="#DejaVuSans-49"/>
      <use transform="translate(370.605469 0.015625)" xlink:href="#DejaVuSans-46"/>
      <use transform="translate(394.642578 0.015625)" xlink:href="#DejaVuSans-55"/>
      <use transform="translate(456.515625 0.015625)" xlink:href="#DejaVuSans-55"/>
      <use transform="translate(520.138672 0.015625)" xlink:href="#DejaVuSans-52"/>
      <use transform="translate(583.761719 0.015625)" xlink:href="#DejaVuSans-Oblique-107"/>
      <use transform="translate(641.671875 0.015625)" xlink:href="#DejaVuSans-41"/>
     </g>
    </g>
   </g>
  </g>
 </g>
 <defs>
  <clipPath id="p95bf9a7674">
   <rect height="266.112" width="357.12" x="37.7" y="7.2"/>
  </clipPath>
 </defs>
</svg>
