<?xml version="1.0" encoding="utf-8" standalone="no"?>
<!DOCTYPE svg PUBLIC "-//W3C//DTD SVG 1.1//EN"
  "http://www.w3.org/Graphics/SVG/1.1/DTD/svg11.dtd">
<!-- Created with matplotlib (https://matplotlib.org/) -->
<svg height="310.86825pt" version="1.1" viewBox="0 0 402.02 310.86825" width="402.02pt" xmlns="http://www.w3.org/2000/svg" xmlns:xlink="http://www.w3.org/1999/xlink">
 <defs>
  <style type="text/css">
*{stroke-linecap:butt;stroke-linejoin:round;}
  </style>
 </defs>
 <g id="figure_1">
  <g id="patch_1">
   <path d="M 0 310.86825 
L 402.02 310.86825 
L 402.02 0 
L 0 0 
z
" style="fill:#ffffff;"/>
  </g>
  <g id="axes_1">
   <g id="patch_2">
    <path d="M 37.7 273.312 
L 394.82 273.312 
L 394.82 7.2 
L 37.7 7.2 
z
" style="fill:#ffffff;"/>
   </g>
   <g id="matplotlib.axis_1">
    <g id="xtick_1">
     <g id="line2d_1">
      <defs>
       <path d="M 0 0 
L 0 3.5 
" id="m3ca1186925" style="stroke:#000000;stroke-width:0.8;"/>
      </defs>
      <g>
       <use style="stroke:#000000;stroke-width:0.8;" x="53.932727" xlink:href="#m3ca1186925" y="273.312"/>
      </g>
     </g>
     <g id="text_1">
      <!-- 0 -->
      <defs>
       <path d="M 31.78125 66.40625 
Q 24.171875 66.40625 20.328125 58.90625 
Q 16.5 51.421875 16.5 36.375 
Q 16.5 21.390625 20.328125 13.890625 
Q 24.171875 6.390625 31.78125 6.390625 
Q 39.453125 6.390625 43.28125 13.890625 
Q 47.125 21.390625 47.125 36.375 
Q 47.125 51.421875 43.28125 58.90625 
Q 39.453125 66.40625 31.78125 66.40625 
z
M 31.78125 74.21875 
Q 44.046875 74.21875 50.515625 64.515625 
Q 56.984375 54.828125 56.984375 36.375 
Q 56.984375 17.96875 50.515625 8.265625 
Q 44.046875 -1.421875 31.78125 -1.421875 
Q 19.53125 -1.421875 13.0625 8.265625 
Q 6.59375 17.96875 6.59375 36.375 
Q 6.59375 54.828125 13.0625 64.515625 
Q 19.53125 74.21875 31.78125 74.21875 
z
" id="DejaVuSans-48"/>
      </defs>
      <g transform="translate(50.751477 287.910437)scale(0.1 -0.1)">
       <use xlink:href="#DejaVuSans-48"/>
      </g>
     </g>
    </g>
    <g id="xtick_2">
     <g id="line2d_2">
      <g>
       <use style="stroke:#000000;stroke-width:0.8;" x="117.09509" xlink:href="#m3ca1186925" y="273.312"/>
      </g>
     </g>
     <g id="text_2">
      <!-- 50 -->
      <defs>
       <path d="M 10.796875 72.90625 
L 49.515625 72.90625 
L 49.515625 64.59375 
L 19.828125 64.59375 
L 19.828125 46.734375 
Q 21.96875 47.46875 24.109375 47.828125 
Q 26.265625 48.1875 28.421875 48.1875 
Q 40.625 48.1875 47.75 41.5 
Q 54.890625 34.8125 54.890625 23.390625 
Q 54.890625 11.625 47.5625 5.09375 
Q 40.234375 -1.421875 26.90625 -1.421875 
Q 22.3125 -1.421875 17.546875 -0.640625 
Q 12.796875 0.140625 7.71875 1.703125 
L 7.71875 11.625 
Q 12.109375 9.234375 16.796875 8.0625 
Q 21.484375 6.890625 26.703125 6.890625 
Q 35.15625 6.890625 40.078125 11.328125 
Q 45.015625 15.765625 45.015625 23.390625 
Q 45.015625 31 40.078125 35.4375 
Q 35.15625 39.890625 26.703125 39.890625 
Q 22.75 39.890625 18.8125 39.015625 
Q 14.890625 38.140625 10.796875 36.28125 
z
" id="DejaVuSans-53"/>
      </defs>
      <g transform="translate(110.73259 287.910437)scale(0.1 -0.1)">
       <use xlink:href="#DejaVuSans-53"/>
       <use x="63.623047" xlink:href="#DejaVuSans-48"/>
      </g>
     </g>
    </g>
    <g id="xtick_3">
     <g id="line2d_3">
      <g>
       <use style="stroke:#000000;stroke-width:0.8;" x="180.257453" xlink:href="#m3ca1186925" y="273.312"/>
      </g>
     </g>
     <g id="text_3">
      <!-- 100 -->
      <defs>
       <path d="M 12.40625 8.296875 
L 28.515625 8.296875 
L 28.515625 63.921875 
L 10.984375 60.40625 
L 10.984375 69.390625 
L 28.421875 72.90625 
L 38.28125 72.90625 
L 38.28125 8.296875 
L 54.390625 8.296875 
L 54.390625 0 
L 12.40625 0 
z
" id="DejaVuSans-49"/>
      </defs>
      <g transform="translate(170.713703 287.910437)scale(0.1 -0.1)">
       <use xlink:href="#DejaVuSans-49"/>
       <use x="63.623047" xlink:href="#DejaVuSans-48"/>
       <use x="127.246094" xlink:href="#DejaVuSans-48"/>
      </g>
     </g>
    </g>
    <g id="xtick_4">
     <g id="line2d_4">
      <g>
       <use style="stroke:#000000;stroke-width:0.8;" x="243.419816" xlink:href="#m3ca1186925" y="273.312"/>
      </g>
     </g>
     <g id="text_4">
      <!-- 150 -->
      <g transform="translate(233.876066 287.910437)scale(0.1 -0.1)">
       <use xlink:href="#DejaVuSans-49"/>
       <use x="63.623047" xlink:href="#DejaVuSans-53"/>
       <use x="127.246094" xlink:href="#DejaVuSans-48"/>
      </g>
     </g>
    </g>
    <g id="xtick_5">
     <g id="line2d_5">
      <g>
       <use style="stroke:#000000;stroke-width:0.8;" x="306.582179" xlink:href="#m3ca1186925" y="273.312"/>
      </g>
     </g>
     <g id="text_5">
      <!-- 200 -->
      <defs>
       <path d="M 19.1875 8.296875 
L 53.609375 8.296875 
L 53.609375 0 
L 7.328125 0 
L 7.328125 8.296875 
Q 12.9375 14.109375 22.625 23.890625 
Q 32.328125 33.6875 34.8125 36.53125 
Q 39.546875 41.84375 41.421875 45.53125 
Q 43.3125 49.21875 43.3125 52.78125 
Q 43.3125 58.59375 39.234375 62.25 
Q 35.15625 65.921875 28.609375 65.921875 
Q 23.96875 65.921875 18.8125 64.3125 
Q 13.671875 62.703125 7.8125 59.421875 
L 7.8125 69.390625 
Q 13.765625 71.78125 18.9375 73 
Q 24.125 74.21875 28.421875 74.21875 
Q 39.75 74.21875 46.484375 68.546875 
Q 53.21875 62.890625 53.21875 53.421875 
Q 53.21875 48.921875 51.53125 44.890625 
Q 49.859375 40.875 45.40625 35.40625 
Q 44.1875 33.984375 37.640625 27.21875 
Q 31.109375 20.453125 19.1875 8.296875 
z
" id="DejaVuSans-50"/>
      </defs>
      <g transform="translate(297.038429 287.910437)scale(0.1 -0.1)">
       <use xlink:href="#DejaVuSans-50"/>
       <use x="63.623047" xlink:href="#DejaVuSans-48"/>
       <use x="127.246094" xlink:href="#DejaVuSans-48"/>
      </g>
     </g>
    </g>
    <g id="xtick_6">
     <g id="line2d_6">
      <g>
       <use style="stroke:#000000;stroke-width:0.8;" x="369.744542" xlink:href="#m3ca1186925" y="273.312"/>
      </g>
     </g>
     <g id="text_6">
      <!-- 250 -->
      <g transform="translate(360.200792 287.910437)scale(0.1 -0.1)">
       <use xlink:href="#DejaVuSans-50"/>
       <use x="63.623047" xlink:href="#DejaVuSans-53"/>
       <use x="127.246094" xlink:href="#DejaVuSans-48"/>
      </g>
     </g>
    </g>
    <g id="text_7">
     <!-- $ k $ -->
     <defs>
      <path d="M 18.3125 75.984375 
L 27.296875 75.984375 
L 18.703125 31.6875 
L 49.515625 54.6875 
L 61.1875 54.6875 
L 26.8125 28.515625 
L 51.90625 0 
L 41.015625 0 
L 17.671875 26.703125 
L 12.5 0 
L 3.515625 0 
z
" id="DejaVuSans-Oblique-107"/>
     </defs>
     <g transform="translate(213.36 301.588562)scale(0.1 -0.1)">
      <use transform="translate(0 0.015625)" xlink:href="#DejaVuSans-Oblique-107"/>
     </g>
    </g>
   </g>
   <g id="matplotlib.axis_2">
    <g id="ytick_1">
     <g id="line2d_7">
      <defs>
       <path d="M 0 0 
L -3.5 0 
" id="m0d363695a8" style="stroke:#000000;stroke-width:0.8;"/>
      </defs>
      <g>
       <use style="stroke:#000000;stroke-width:0.8;" x="37.7" xlink:href="#m0d363695a8" y="243.863653"/>
      </g>
     </g>
     <g id="text_8">
      <!-- $\mathdefault{10^{-5}}$ -->
      <defs>
       <path d="M 10.59375 35.5 
L 73.1875 35.5 
L 73.1875 27.203125 
L 10.59375 27.203125 
z
" id="DejaVuSans-8722"/>
      </defs>
      <g transform="translate(7.2 247.662872)scale(0.1 -0.1)">
       <use transform="translate(0 0.684375)" xlink:href="#DejaVuSans-49"/>
       <use transform="translate(63.623047 0.684375)" xlink:href="#DejaVuSans-48"/>
       <use transform="translate(128.203125 38.965625)scale(0.7)" xlink:href="#DejaVuSans-8722"/>
       <use transform="translate(186.855469 38.965625)scale(0.7)" xlink:href="#DejaVuSans-53"/>
      </g>
     </g>
    </g>
    <g id="ytick_2">
     <g id="line2d_8">
      <g>
       <use style="stroke:#000000;stroke-width:0.8;" x="37.7" xlink:href="#m0d363695a8" y="210.020806"/>
      </g>
     </g>
     <g id="text_9">
      <!-- $\mathdefault{10^{-4}}$ -->
      <defs>
       <path d="M 37.796875 64.3125 
L 12.890625 25.390625 
L 37.796875 25.390625 
z
M 35.203125 72.90625 
L 47.609375 72.90625 
L 47.609375 25.390625 
L 58.015625 25.390625 
L 58.015625 17.1875 
L 47.609375 17.1875 
L 47.609375 0 
L 37.796875 0 
L 37.796875 17.1875 
L 4.890625 17.1875 
L 4.890625 26.703125 
z
" id="DejaVuSans-52"/>
      </defs>
      <g transform="translate(7.2 213.820025)scale(0.1 -0.1)">
       <use transform="translate(0 0.684375)" xlink:href="#DejaVuSans-49"/>
       <use transform="translate(63.623047 0.684375)" xlink:href="#DejaVuSans-48"/>
       <use transform="translate(128.203125 38.965625)scale(0.7)" xlink:href="#DejaVuSans-8722"/>
       <use transform="translate(186.855469 38.965625)scale(0.7)" xlink:href="#DejaVuSans-52"/>
      </g>
     </g>
    </g>
    <g id="ytick_3">
     <g id="line2d_9">
      <g>
       <use style="stroke:#000000;stroke-width:0.8;" x="37.7" xlink:href="#m0d363695a8" y="176.177959"/>
      </g>
     </g>
     <g id="text_10">
      <!-- $\mathdefault{10^{-3}}$ -->
      <defs>
       <path d="M 40.578125 39.3125 
Q 47.65625 37.796875 51.625 33 
Q 55.609375 28.21875 55.609375 21.1875 
Q 55.609375 10.40625 48.1875 4.484375 
Q 40.765625 -1.421875 27.09375 -1.421875 
Q 22.515625 -1.421875 17.65625 -0.515625 
Q 12.796875 0.390625 7.625 2.203125 
L 7.625 11.71875 
Q 11.71875 9.328125 16.59375 8.109375 
Q 21.484375 6.890625 26.8125 6.890625 
Q 36.078125 6.890625 40.9375 10.546875 
Q 45.796875 14.203125 45.796875 21.1875 
Q 45.796875 27.640625 41.28125 31.265625 
Q 36.765625 34.90625 28.71875 34.90625 
L 20.21875 34.90625 
L 20.21875 43.015625 
L 29.109375 43.015625 
Q 36.375 43.015625 40.234375 45.921875 
Q 44.09375 48.828125 44.09375 54.296875 
Q 44.09375 59.90625 40.109375 62.90625 
Q 36.140625 65.921875 28.71875 65.921875 
Q 24.65625 65.921875 20.015625 65.03125 
Q 15.375 64.15625 9.8125 62.3125 
L 9.8125 71.09375 
Q 15.4375 72.65625 20.34375 73.4375 
Q 25.25 74.21875 29.59375 74.21875 
Q 40.828125 74.21875 47.359375 69.109375 
Q 53.90625 64.015625 53.90625 55.328125 
Q 53.90625 49.265625 50.4375 45.09375 
Q 46.96875 40.921875 40.578125 39.3125 
z
" id="DejaVuSans-51"/>
      </defs>
      <g transform="translate(7.2 179.977177)scale(0.1 -0.1)">
       <use transform="translate(0 0.765625)" xlink:href="#DejaVuSans-49"/>
       <use transform="translate(63.623047 0.765625)" xlink:href="#DejaVuSans-48"/>
       <use transform="translate(128.203125 39.046875)scale(0.7)" xlink:href="#DejaVuSans-8722"/>
       <use transform="translate(186.855469 39.046875)scale(0.7)" xlink:href="#DejaVuSans-51"/>
      </g>
     </g>
    </g>
    <g id="ytick_4">
     <g id="line2d_10">
      <g>
       <use style="stroke:#000000;stroke-width:0.8;" x="37.7" xlink:href="#m0d363695a8" y="142.335111"/>
      </g>
     </g>
     <g id="text_11">
      <!-- $\mathdefault{10^{-2}}$ -->
      <g transform="translate(7.2 146.13433)scale(0.1 -0.1)">
       <use transform="translate(0 0.765625)" xlink:href="#DejaVuSans-49"/>
       <use transform="translate(63.623047 0.765625)" xlink:href="#DejaVuSans-48"/>
       <use transform="translate(128.203125 39.046875)scale(0.7)" xlink:href="#DejaVuSans-8722"/>
       <use transform="translate(186.855469 39.046875)scale(0.7)" xlink:href="#DejaVuSans-50"/>
      </g>
     </g>
    </g>
    <g id="ytick_5">
     <g id="line2d_11">
      <g>
       <use style="stroke:#000000;stroke-width:0.8;" x="37.7" xlink:href="#m0d363695a8" y="108.492264"/>
      </g>
     </g>
     <g id="text_12">
      <!-- $\mathdefault{10^{-1}}$ -->
      <g transform="translate(7.2 112.291483)scale(0.1 -0.1)">
       <use transform="translate(0 0.684375)" xlink:href="#DejaVuSans-49"/>
       <use transform="translate(63.623047 0.684375)" xlink:href="#DejaVuSans-48"/>
       <use transform="translate(128.203125 38.965625)scale(0.7)" xlink:href="#DejaVuSans-8722"/>
       <use transform="translate(186.855469 38.965625)scale(0.7)" xlink:href="#DejaVuSans-49"/>
      </g>
     </g>
    </g>
    <g id="ytick_6">
     <g id="line2d_12">
      <g>
       <use style="stroke:#000000;stroke-width:0.8;" x="37.7" xlink:href="#m0d363695a8" y="74.649417"/>
      </g>
     </g>
     <g id="text_13">
      <!-- $\mathdefault{10^{0}}$ -->
      <g transform="translate(13.1 78.448636)scale(0.1 -0.1)">
       <use transform="translate(0 0.765625)" xlink:href="#DejaVuSans-49"/>
       <use transform="translate(63.623047 0.765625)" xlink:href="#DejaVuSans-48"/>
       <use transform="translate(128.203125 39.046875)scale(0.7)" xlink:href="#DejaVuSans-48"/>
      </g>
     </g>
    </g>
    <g id="ytick_7">
     <g id="line2d_13">
      <g>
       <use style="stroke:#000000;stroke-width:0.8;" x="37.7" xlink:href="#m0d363695a8" y="40.80657"/>
      </g>
     </g>
     <g id="text_14">
      <!-- $\mathdefault{10^{1}}$ -->
      <g transform="translate(13.1 44.605789)scale(0.1 -0.1)">
       <use transform="translate(0 0.684375)" xlink:href="#DejaVuSans-49"/>
       <use transform="translate(63.623047 0.684375)" xlink:href="#DejaVuSans-48"/>
       <use transform="translate(128.203125 38.965625)scale(0.7)" xlink:href="#DejaVuSans-49"/>
      </g>
     </g>
    </g>
    <g id="ytick_8">
     <g id="line2d_14">
      <defs>
       <path d="M 0 0 
L -2 0 
" id="m478db6520e" style="stroke:#000000;stroke-width:0.6;"/>
      </defs>
      <g>
       <use style="stroke:#000000;stroke-width:0.6;" x="37.7" xlink:href="#m478db6520e" y="267.518788"/>
      </g>
     </g>
    </g>
    <g id="ytick_9">
     <g id="line2d_15">
      <g>
       <use style="stroke:#000000;stroke-width:0.6;" x="37.7" xlink:href="#m478db6520e" y="261.559358"/>
      </g>
     </g>
    </g>
    <g id="ytick_10">
     <g id="line2d_16">
      <g>
       <use style="stroke:#000000;stroke-width:0.6;" x="37.7" xlink:href="#m478db6520e" y="257.331076"/>
      </g>
     </g>
    </g>
    <g id="ytick_11">
     <g id="line2d_17">
      <g>
       <use style="stroke:#000000;stroke-width:0.6;" x="37.7" xlink:href="#m478db6520e" y="254.051365"/>
      </g>
     </g>
    </g>
    <g id="ytick_12">
     <g id="line2d_18">
      <g>
       <use style="stroke:#000000;stroke-width:0.6;" x="37.7" xlink:href="#m478db6520e" y="251.371646"/>
      </g>
     </g>
    </g>
    <g id="ytick_13">
     <g id="line2d_19">
      <g>
       <use style="stroke:#000000;stroke-width:0.6;" x="37.7" xlink:href="#m478db6520e" y="249.105976"/>
      </g>
     </g>
    </g>
    <g id="ytick_14">
     <g id="line2d_20">
      <g>
       <use style="stroke:#000000;stroke-width:0.6;" x="37.7" xlink:href="#m478db6520e" y="247.143364"/>
      </g>
     </g>
    </g>
    <g id="ytick_15">
     <g id="line2d_21">
      <g>
       <use style="stroke:#000000;stroke-width:0.6;" x="37.7" xlink:href="#m478db6520e" y="245.412217"/>
      </g>
     </g>
    </g>
    <g id="ytick_16">
     <g id="line2d_22">
      <g>
       <use style="stroke:#000000;stroke-width:0.6;" x="37.7" xlink:href="#m478db6520e" y="233.675941"/>
      </g>
     </g>
    </g>
    <g id="ytick_17">
     <g id="line2d_23">
      <g>
       <use style="stroke:#000000;stroke-width:0.6;" x="37.7" xlink:href="#m478db6520e" y="227.716511"/>
      </g>
     </g>
    </g>
    <g id="ytick_18">
     <g id="line2d_24">
      <g>
       <use style="stroke:#000000;stroke-width:0.6;" x="37.7" xlink:href="#m478db6520e" y="223.488229"/>
      </g>
     </g>
    </g>
    <g id="ytick_19">
     <g id="line2d_25">
      <g>
       <use style="stroke:#000000;stroke-width:0.6;" x="37.7" xlink:href="#m478db6520e" y="220.208518"/>
      </g>
     </g>
    </g>
    <g id="ytick_20">
     <g id="line2d_26">
      <g>
       <use style="stroke:#000000;stroke-width:0.6;" x="37.7" xlink:href="#m478db6520e" y="217.528799"/>
      </g>
     </g>
    </g>
    <g id="ytick_21">
     <g id="line2d_27">
      <g>
       <use style="stroke:#000000;stroke-width:0.6;" x="37.7" xlink:href="#m478db6520e" y="215.263129"/>
      </g>
     </g>
    </g>
    <g id="ytick_22">
     <g id="line2d_28">
      <g>
       <use style="stroke:#000000;stroke-width:0.6;" x="37.7" xlink:href="#m478db6520e" y="213.300517"/>
      </g>
     </g>
    </g>
    <g id="ytick_23">
     <g id="line2d_29">
      <g>
       <use style="stroke:#000000;stroke-width:0.6;" x="37.7" xlink:href="#m478db6520e" y="211.56937"/>
      </g>
     </g>
    </g>
    <g id="ytick_24">
     <g id="line2d_30">
      <g>
       <use style="stroke:#000000;stroke-width:0.6;" x="37.7" xlink:href="#m478db6520e" y="199.833094"/>
      </g>
     </g>
    </g>
    <g id="ytick_25">
     <g id="line2d_31">
      <g>
       <use style="stroke:#000000;stroke-width:0.6;" x="37.7" xlink:href="#m478db6520e" y="193.873664"/>
      </g>
     </g>
    </g>
    <g id="ytick_26">
     <g id="line2d_32">
      <g>
       <use style="stroke:#000000;stroke-width:0.6;" x="37.7" xlink:href="#m478db6520e" y="189.645382"/>
      </g>
     </g>
    </g>
    <g id="ytick_27">
     <g id="line2d_33">
      <g>
       <use style="stroke:#000000;stroke-width:0.6;" x="37.7" xlink:href="#m478db6520e" y="186.365671"/>
      </g>
     </g>
    </g>
    <g id="ytick_28">
     <g id="line2d_34">
      <g>
       <use style="stroke:#000000;stroke-width:0.6;" x="37.7" xlink:href="#m478db6520e" y="183.685952"/>
      </g>
     </g>
    </g>
    <g id="ytick_29">
     <g id="line2d_35">
      <g>
       <use style="stroke:#000000;stroke-width:0.6;" x="37.7" xlink:href="#m478db6520e" y="181.420282"/>
      </g>
     </g>
    </g>
    <g id="ytick_30">
     <g id="line2d_36">
      <g>
       <use style="stroke:#000000;stroke-width:0.6;" x="37.7" xlink:href="#m478db6520e" y="179.457669"/>
      </g>
     </g>
    </g>
    <g id="ytick_31">
     <g id="line2d_37">
      <g>
       <use style="stroke:#000000;stroke-width:0.6;" x="37.7" xlink:href="#m478db6520e" y="177.726522"/>
      </g>
     </g>
    </g>
    <g id="ytick_32">
     <g id="line2d_38">
      <g>
       <use style="stroke:#000000;stroke-width:0.6;" x="37.7" xlink:href="#m478db6520e" y="165.990247"/>
      </g>
     </g>
    </g>
    <g id="ytick_33">
     <g id="line2d_39">
      <g>
       <use style="stroke:#000000;stroke-width:0.6;" x="37.7" xlink:href="#m478db6520e" y="160.030817"/>
      </g>
     </g>
    </g>
    <g id="ytick_34">
     <g id="line2d_40">
      <g>
       <use style="stroke:#000000;stroke-width:0.6;" x="37.7" xlink:href="#m478db6520e" y="155.802534"/>
      </g>
     </g>
    </g>
    <g id="ytick_35">
     <g id="line2d_41">
      <g>
       <use style="stroke:#000000;stroke-width:0.6;" x="37.7" xlink:href="#m478db6520e" y="152.522824"/>
      </g>
     </g>
    </g>
    <g id="ytick_36">
     <g id="line2d_42">
      <g>
       <use style="stroke:#000000;stroke-width:0.6;" x="37.7" xlink:href="#m478db6520e" y="149.843105"/>
      </g>
     </g>
    </g>
    <g id="ytick_37">
     <g id="line2d_43">
      <g>
       <use style="stroke:#000000;stroke-width:0.6;" x="37.7" xlink:href="#m478db6520e" y="147.577435"/>
      </g>
     </g>
    </g>
    <g id="ytick_38">
     <g id="line2d_44">
      <g>
       <use style="stroke:#000000;stroke-width:0.6;" x="37.7" xlink:href="#m478db6520e" y="145.614822"/>
      </g>
     </g>
    </g>
    <g id="ytick_39">
     <g id="line2d_45">
      <g>
       <use style="stroke:#000000;stroke-width:0.6;" x="37.7" xlink:href="#m478db6520e" y="143.883675"/>
      </g>
     </g>
    </g>
    <g id="ytick_40">
     <g id="line2d_46">
      <g>
       <use style="stroke:#000000;stroke-width:0.6;" x="37.7" xlink:href="#m478db6520e" y="132.147399"/>
      </g>
     </g>
    </g>
    <g id="ytick_41">
     <g id="line2d_47">
      <g>
       <use style="stroke:#000000;stroke-width:0.6;" x="37.7" xlink:href="#m478db6520e" y="126.18797"/>
      </g>
     </g>
    </g>
    <g id="ytick_42">
     <g id="line2d_48">
      <g>
       <use style="stroke:#000000;stroke-width:0.6;" x="37.7" xlink:href="#m478db6520e" y="121.959687"/>
      </g>
     </g>
    </g>
    <g id="ytick_43">
     <g id="line2d_49">
      <g>
       <use style="stroke:#000000;stroke-width:0.6;" x="37.7" xlink:href="#m478db6520e" y="118.679976"/>
      </g>
     </g>
    </g>
    <g id="ytick_44">
     <g id="line2d_50">
      <g>
       <use style="stroke:#000000;stroke-width:0.6;" x="37.7" xlink:href="#m478db6520e" y="116.000258"/>
      </g>
     </g>
    </g>
    <g id="ytick_45">
     <g id="line2d_51">
      <g>
       <use style="stroke:#000000;stroke-width:0.6;" x="37.7" xlink:href="#m478db6520e" y="113.734588"/>
      </g>
     </g>
    </g>
    <g id="ytick_46">
     <g id="line2d_52">
      <g>
       <use style="stroke:#000000;stroke-width:0.6;" x="37.7" xlink:href="#m478db6520e" y="111.771975"/>
      </g>
     </g>
    </g>
    <g id="ytick_47">
     <g id="line2d_53">
      <g>
       <use style="stroke:#000000;stroke-width:0.6;" x="37.7" xlink:href="#m478db6520e" y="110.040828"/>
      </g>
     </g>
    </g>
    <g id="ytick_48">
     <g id="line2d_54">
      <g>
       <use style="stroke:#000000;stroke-width:0.6;" x="37.7" xlink:href="#m478db6520e" y="98.304552"/>
      </g>
     </g>
    </g>
    <g id="ytick_49">
     <g id="line2d_55">
      <g>
       <use style="stroke:#000000;stroke-width:0.6;" x="37.7" xlink:href="#m478db6520e" y="92.345123"/>
      </g>
     </g>
    </g>
    <g id="ytick_50">
     <g id="line2d_56">
      <g>
       <use style="stroke:#000000;stroke-width:0.6;" x="37.7" xlink:href="#m478db6520e" y="88.11684"/>
      </g>
     </g>
    </g>
    <g id="ytick_51">
     <g id="line2d_57">
      <g>
       <use style="stroke:#000000;stroke-width:0.6;" x="37.7" xlink:href="#m478db6520e" y="84.837129"/>
      </g>
     </g>
    </g>
    <g id="ytick_52">
     <g id="line2d_58">
      <g>
       <use style="stroke:#000000;stroke-width:0.6;" x="37.7" xlink:href="#m478db6520e" y="82.15741"/>
      </g>
     </g>
    </g>
    <g id="ytick_53">
     <g id="line2d_59">
      <g>
       <use style="stroke:#000000;stroke-width:0.6;" x="37.7" xlink:href="#m478db6520e" y="79.891741"/>
      </g>
     </g>
    </g>
    <g id="ytick_54">
     <g id="line2d_60">
      <g>
       <use style="stroke:#000000;stroke-width:0.6;" x="37.7" xlink:href="#m478db6520e" y="77.929128"/>
      </g>
     </g>
    </g>
    <g id="ytick_55">
     <g id="line2d_61">
      <g>
       <use style="stroke:#000000;stroke-width:0.6;" x="37.7" xlink:href="#m478db6520e" y="76.197981"/>
      </g>
     </g>
    </g>
    <g id="ytick_56">
     <g id="line2d_62">
      <g>
       <use style="stroke:#000000;stroke-width:0.6;" x="37.7" xlink:href="#m478db6520e" y="64.461705"/>
      </g>
     </g>
    </g>
    <g id="ytick_57">
     <g id="line2d_63">
      <g>
       <use style="stroke:#000000;stroke-width:0.6;" x="37.7" xlink:href="#m478db6520e" y="58.502275"/>
      </g>
     </g>
    </g>
    <g id="ytick_58">
     <g id="line2d_64">
      <g>
       <use style="stroke:#000000;stroke-width:0.6;" x="37.7" xlink:href="#m478db6520e" y="54.273993"/>
      </g>
     </g>
    </g>
    <g id="ytick_59">
     <g id="line2d_65">
      <g>
       <use style="stroke:#000000;stroke-width:0.6;" x="37.7" xlink:href="#m478db6520e" y="50.994282"/>
      </g>
     </g>
    </g>
    <g id="ytick_60">
     <g id="line2d_66">
      <g>
       <use style="stroke:#000000;stroke-width:0.6;" x="37.7" xlink:href="#m478db6520e" y="48.314563"/>
      </g>
     </g>
    </g>
    <g id="ytick_61">
     <g id="line2d_67">
      <g>
       <use style="stroke:#000000;stroke-width:0.6;" x="37.7" xlink:href="#m478db6520e" y="46.048893"/>
      </g>
     </g>
    </g>
    <g id="ytick_62">
     <g id="line2d_68">
      <g>
       <use style="stroke:#000000;stroke-width:0.6;" x="37.7" xlink:href="#m478db6520e" y="44.086281"/>
      </g>
     </g>
    </g>
    <g id="ytick_63">
     <g id="line2d_69">
      <g>
       <use style="stroke:#000000;stroke-width:0.6;" x="37.7" xlink:href="#m478db6520e" y="42.355134"/>
      </g>
     </g>
    </g>
    <g id="ytick_64">
     <g id="line2d_70">
      <g>
       <use style="stroke:#000000;stroke-width:0.6;" x="37.7" xlink:href="#m478db6520e" y="30.618858"/>
      </g>
     </g>
    </g>
    <g id="ytick_65">
     <g id="line2d_71">
      <g>
       <use style="stroke:#000000;stroke-width:0.6;" x="37.7" xlink:href="#m478db6520e" y="24.659428"/>
      </g>
     </g>
    </g>
    <g id="ytick_66">
     <g id="line2d_72">
      <g>
       <use style="stroke:#000000;stroke-width:0.6;" x="37.7" xlink:href="#m478db6520e" y="20.431146"/>
      </g>
     </g>
    </g>
    <g id="ytick_67">
     <g id="line2d_73">
      <g>
       <use style="stroke:#000000;stroke-width:0.6;" x="37.7" xlink:href="#m478db6520e" y="17.151435"/>
      </g>
     </g>
    </g>
    <g id="ytick_68">
     <g id="line2d_74">
      <g>
       <use style="stroke:#000000;stroke-width:0.6;" x="37.7" xlink:href="#m478db6520e" y="14.471716"/>
      </g>
     </g>
    </g>
    <g id="ytick_69">
     <g id="line2d_75">
      <g>
       <use style="stroke:#000000;stroke-width:0.6;" x="37.7" xlink:href="#m478db6520e" y="12.206046"/>
      </g>
     </g>
    </g>
    <g id="ytick_70">
     <g id="line2d_76">
      <g>
       <use style="stroke:#000000;stroke-width:0.6;" x="37.7" xlink:href="#m478db6520e" y="10.243434"/>
      </g>
     </g>
    </g>
    <g id="ytick_71">
     <g id="line2d_77">
      <g>
       <use style="stroke:#000000;stroke-width:0.6;" x="37.7" xlink:href="#m478db6520e" y="8.512287"/>
      </g>
     </g>
    </g>
   </g>
   <g id="line2d_78">
    <path clip-path="url(#pcfbb6d10c3)" d="M 53.932727 19.296 
L 55.195975 38.94402 
L 56.459222 54.89273 
L 57.722469 75.354976 
L 60.248964 113.303953 
L 62.775458 152.563227 
L 64.038705 167.301311 
L 65.301953 192.378898 
L 66.5652 194.684901 
L 67.828447 215.901217 
L 69.091694 191.443288 
L 70.354942 184.137121 
L 71.618189 207.332442 
L 72.881436 182.392561 
L 74.144683 211.305412 
L 75.407931 190.219802 
L 76.671178 192.303604 
L 77.934425 193.426776 
L 79.197672 198.267478 
L 80.46092 188.469982 
L 81.724167 216.244868 
L 82.987414 204.584049 
L 84.250661 183.362786 
L 85.513909 213.182137 
L 86.777156 214.872968 
L 88.040403 179.187605 
L 89.303651 190.839279 
L 90.566898 183.33509 
L 91.830145 180.511981 
L 93.093392 198.291252 
L 94.35664 193.319699 
L 95.619887 197.046436 
L 96.883134 221.592808 
L 98.146381 184.952616 
L 99.409629 220.779566 
L 100.672876 191.050328 
L 104.462618 211.415685 
L 105.725865 180.940519 
L 106.989112 198.392786 
L 108.252359 193.410664 
L 109.515607 180.508484 
L 110.778854 252.502864 
L 112.042101 179.28335 
L 113.305348 199.441913 
L 114.568596 211.72491 
L 115.831843 181.629354 
L 117.09509 182.972704 
L 118.358337 186.616883 
L 119.621585 184.261616 
L 120.884832 199.905105 
L 122.148079 218.02517 
L 123.411326 188.369665 
L 124.674574 187.950057 
L 125.937821 261.216 
L 127.201068 179.935524 
L 128.464316 204.867437 
L 129.727563 238.457107 
L 130.99081 177.697867 
L 132.254057 177.870767 
L 133.517305 198.062607 
L 134.780552 195.054591 
L 136.043799 184.407537 
L 137.307046 187.496614 
L 138.570294 195.325068 
L 139.833541 190.381847 
L 141.096788 195.698089 
L 142.360035 200.495827 
L 143.623283 194.074844 
L 144.88653 196.521538 
L 146.149777 171.211802 
L 147.413024 179.369142 
L 148.676272 227.338756 
L 149.939519 188.467999 
L 151.202766 240.764574 
L 152.466013 181.113709 
L 153.729261 201.794664 
L 154.992508 199.561676 
L 156.255755 189.330318 
L 157.519002 238.125383 
L 158.78225 189.31889 
L 160.045497 199.581099 
L 161.308744 191.508627 
L 162.571992 198.943861 
L 163.835239 182.184784 
L 165.098486 177.433544 
L 166.361733 198.439062 
L 168.888228 179.121306 
L 170.151475 182.165906 
L 171.414722 188.128383 
L 172.67797 189.551971 
L 173.941217 178.241293 
L 175.204464 181.531561 
L 176.467711 198.538599 
L 177.730959 212.8154 
L 178.994206 181.040381 
L 180.257453 170.545402 
L 181.5207 182.110341 
L 182.783948 186.33596 
L 184.047195 204.447322 
L 185.310442 240.731772 
L 186.573689 173.001139 
L 187.836937 185.319879 
L 189.100184 180.038861 
L 190.363431 182.503202 
L 191.626678 188.166707 
L 192.889926 189.985337 
L 194.153173 196.322479 
L 195.41642 189.426279 
L 196.679667 190.582285 
L 197.942915 174.512491 
L 199.206162 180.42683 
L 200.469409 213.376498 
L 201.732657 185.659048 
L 202.995904 206.608633 
L 204.259151 186.558905 
L 205.522398 209.549684 
L 206.785646 212.309041 
L 208.048893 194.0262 
L 209.31214 180.787971 
L 210.575387 217.054148 
L 211.838635 191.773134 
L 213.101882 207.071745 
L 214.365129 195.364989 
L 215.628376 206.113875 
L 216.891624 193.443929 
L 219.418118 216.887947 
L 220.681365 206.118695 
L 221.944613 197.133677 
L 223.20786 196.355318 
L 224.471107 213.544767 
L 225.734354 182.623428 
L 226.997602 190.00251 
L 228.260849 211.04689 
L 229.524096 248.871604 
L 230.787343 210.647855 
L 232.050591 218.243994 
L 233.313838 185.244042 
L 234.577085 211.85678 
L 235.840333 197.947713 
L 237.10358 193.001492 
L 238.366827 190.530462 
L 239.630074 204.574651 
L 240.893322 194.207981 
L 242.156569 193.88069 
L 243.419816 178.331214 
L 244.683063 194.123141 
L 245.946311 195.587736 
L 247.209558 188.230415 
L 248.472805 179.361565 
L 249.736052 176.029492 
L 250.9993 195.26068 
L 252.262547 182.423749 
L 253.525794 196.972851 
L 254.789041 189.495392 
L 256.052289 188.992384 
L 257.315536 182.159633 
L 258.578783 205.772795 
L 259.84203 184.811562 
L 261.105278 190.359767 
L 262.368525 195.247276 
L 263.631772 221.12406 
L 264.895019 170.125102 
L 266.158267 174.826426 
L 267.421514 179.078766 
L 268.684761 189.692404 
L 269.948008 236.105124 
L 271.211256 191.139978 
L 272.474503 185.391288 
L 273.73775 184.010057 
L 275.000998 166.687165 
L 276.264245 174.620463 
L 277.527492 193.555374 
L 278.790739 181.784905 
L 281.317234 256.286228 
L 282.580481 239.48908 
L 283.843728 203.605769 
L 285.106976 206.355679 
L 286.370223 182.419858 
L 287.63347 183.84119 
L 288.896717 196.763526 
L 290.159965 177.070536 
L 291.423212 183.912376 
L 292.686459 224.590128 
L 293.949706 191.421282 
L 295.212954 208.695536 
L 296.476201 180.584005 
L 297.739448 190.58295 
L 299.002695 193.169846 
L 300.265943 182.535221 
L 301.52919 201.742508 
L 302.792437 177.349576 
L 304.055684 218.549692 
L 305.318932 212.375371 
L 306.582179 180.224875 
L 307.845426 181.675382 
L 309.108674 169.590587 
L 310.371921 182.73839 
L 311.635168 194.367802 
L 312.898415 196.297598 
L 314.161663 195.101372 
L 315.42491 218.084766 
L 316.688157 177.542192 
L 317.951404 197.679708 
L 319.214652 190.218659 
L 320.477899 194.520892 
L 321.741146 221.487482 
L 323.004393 211.698748 
L 324.267641 173.350849 
L 325.530888 187.80095 
L 326.794135 179.965375 
L 329.32063 203.337702 
L 330.583877 186.994515 
L 331.847124 185.400737 
L 333.110371 184.189467 
L 334.373619 199.188986 
L 335.636866 188.924305 
L 336.900113 200.661022 
L 338.16336 188.623083 
L 339.426608 182.558377 
L 340.689855 184.074448 
L 341.953102 181.407654 
L 343.216349 201.822114 
L 344.479597 176.34715 
L 345.742844 200.745067 
L 347.006091 200.945785 
L 348.269339 171.783728 
L 349.532586 176.560467 
L 350.795833 196.445491 
L 352.05908 180.719934 
L 353.322328 197.43639 
L 355.848822 180.898439 
L 357.112069 181.433886 
L 358.375317 183.708998 
L 359.638564 176.696132 
L 360.901811 190.635915 
L 362.165058 187.940259 
L 363.428306 176.611227 
L 364.691553 191.626146 
L 365.9548 176.55443 
L 367.218047 192.709865 
L 368.481295 187.370862 
L 369.744542 221.552012 
L 372.271036 181.939151 
L 373.534284 196.315359 
L 374.797531 204.873907 
L 376.060778 216.078947 
L 376.064369 311.86825 
L 376.064369 311.86825 
" style="fill:none;stroke:#1f77b4;stroke-linecap:square;stroke-width:1.5;"/>
    <defs>
     <path d="M 0 3 
C 0.795609 3 1.55874 2.683901 2.12132 2.12132 
C 2.683901 1.55874 3 0.795609 3 0 
C 3 -0.795609 2.683901 -1.55874 2.12132 -2.12132 
C 1.55874 -2.683901 0.795609 -3 0 -3 
C -0.795609 -3 -1.55874 -2.683901 -2.12132 -2.12132 
C -2.683901 -1.55874 -3 -0.795609 -3 0 
C -3 0.795609 -2.683901 1.55874 -2.12132 2.12132 
C -1.55874 2.683901 -0.795609 3 0 3 
z
" id="ma42d5274d0" style="stroke:#1f77b4;"/>
    </defs>
    <g clip-path="url(#pcfbb6d10c3)">
     <use style="fill:#1f77b4;stroke:#1f77b4;" x="53.932727" xlink:href="#ma42d5274d0" y="19.296"/>
     <use style="fill:#1f77b4;stroke:#1f77b4;" x="55.195975" xlink:href="#ma42d5274d0" y="38.94402"/>
     <use style="fill:#1f77b4;stroke:#1f77b4;" x="56.459222" xlink:href="#ma42d5274d0" y="54.89273"/>
     <use style="fill:#1f77b4;stroke:#1f77b4;" x="57.722469" xlink:href="#ma42d5274d0" y="75.354976"/>
     <use style="fill:#1f77b4;stroke:#1f77b4;" x="58.985716" xlink:href="#ma42d5274d0" y="93.756534"/>
     <use style="fill:#1f77b4;stroke:#1f77b4;" x="60.248964" xlink:href="#ma42d5274d0" y="113.303953"/>
     <use style="fill:#1f77b4;stroke:#1f77b4;" x="61.512211" xlink:href="#ma42d5274d0" y="132.464596"/>
     <use style="fill:#1f77b4;stroke:#1f77b4;" x="62.775458" xlink:href="#ma42d5274d0" y="152.563227"/>
     <use style="fill:#1f77b4;stroke:#1f77b4;" x="64.038705" xlink:href="#ma42d5274d0" y="167.301311"/>
     <use style="fill:#1f77b4;stroke:#1f77b4;" x="65.301953" xlink:href="#ma42d5274d0" y="192.378898"/>
     <use style="fill:#1f77b4;stroke:#1f77b4;" x="66.5652" xlink:href="#ma42d5274d0" y="194.684901"/>
     <use style="fill:#1f77b4;stroke:#1f77b4;" x="67.828447" xlink:href="#ma42d5274d0" y="215.901217"/>
     <use style="fill:#1f77b4;stroke:#1f77b4;" x="69.091694" xlink:href="#ma42d5274d0" y="191.443288"/>
     <use style="fill:#1f77b4;stroke:#1f77b4;" x="70.354942" xlink:href="#ma42d5274d0" y="184.137121"/>
     <use style="fill:#1f77b4;stroke:#1f77b4;" x="71.618189" xlink:href="#ma42d5274d0" y="207.332442"/>
     <use style="fill:#1f77b4;stroke:#1f77b4;" x="72.881436" xlink:href="#ma42d5274d0" y="182.392561"/>
     <use style="fill:#1f77b4;stroke:#1f77b4;" x="74.144683" xlink:href="#ma42d5274d0" y="211.305412"/>
     <use style="fill:#1f77b4;stroke:#1f77b4;" x="75.407931" xlink:href="#ma42d5274d0" y="190.219802"/>
     <use style="fill:#1f77b4;stroke:#1f77b4;" x="76.671178" xlink:href="#ma42d5274d0" y="192.303604"/>
     <use style="fill:#1f77b4;stroke:#1f77b4;" x="77.934425" xlink:href="#ma42d5274d0" y="193.426776"/>
     <use style="fill:#1f77b4;stroke:#1f77b4;" x="79.197672" xlink:href="#ma42d5274d0" y="198.267478"/>
     <use style="fill:#1f77b4;stroke:#1f77b4;" x="80.46092" xlink:href="#ma42d5274d0" y="188.469982"/>
     <use style="fill:#1f77b4;stroke:#1f77b4;" x="81.724167" xlink:href="#ma42d5274d0" y="216.244868"/>
     <use style="fill:#1f77b4;stroke:#1f77b4;" x="82.987414" xlink:href="#ma42d5274d0" y="204.584049"/>
     <use style="fill:#1f77b4;stroke:#1f77b4;" x="84.250661" xlink:href="#ma42d5274d0" y="183.362786"/>
     <use style="fill:#1f77b4;stroke:#1f77b4;" x="85.513909" xlink:href="#ma42d5274d0" y="213.182137"/>
     <use style="fill:#1f77b4;stroke:#1f77b4;" x="86.777156" xlink:href="#ma42d5274d0" y="214.872968"/>
     <use style="fill:#1f77b4;stroke:#1f77b4;" x="88.040403" xlink:href="#ma42d5274d0" y="179.187605"/>
     <use style="fill:#1f77b4;stroke:#1f77b4;" x="89.303651" xlink:href="#ma42d5274d0" y="190.839279"/>
     <use style="fill:#1f77b4;stroke:#1f77b4;" x="90.566898" xlink:href="#ma42d5274d0" y="183.33509"/>
     <use style="fill:#1f77b4;stroke:#1f77b4;" x="91.830145" xlink:href="#ma42d5274d0" y="180.511981"/>
     <use style="fill:#1f77b4;stroke:#1f77b4;" x="93.093392" xlink:href="#ma42d5274d0" y="198.291252"/>
     <use style="fill:#1f77b4;stroke:#1f77b4;" x="94.35664" xlink:href="#ma42d5274d0" y="193.319699"/>
     <use style="fill:#1f77b4;stroke:#1f77b4;" x="95.619887" xlink:href="#ma42d5274d0" y="197.046436"/>
     <use style="fill:#1f77b4;stroke:#1f77b4;" x="96.883134" xlink:href="#ma42d5274d0" y="221.592808"/>
     <use style="fill:#1f77b4;stroke:#1f77b4;" x="98.146381" xlink:href="#ma42d5274d0" y="184.952616"/>
     <use style="fill:#1f77b4;stroke:#1f77b4;" x="99.409629" xlink:href="#ma42d5274d0" y="220.779566"/>
     <use style="fill:#1f77b4;stroke:#1f77b4;" x="100.672876" xlink:href="#ma42d5274d0" y="191.050328"/>
     <use style="fill:#1f77b4;stroke:#1f77b4;" x="101.936123" xlink:href="#ma42d5274d0" y="197.704259"/>
     <use style="fill:#1f77b4;stroke:#1f77b4;" x="103.19937" xlink:href="#ma42d5274d0" y="204.791415"/>
     <use style="fill:#1f77b4;stroke:#1f77b4;" x="104.462618" xlink:href="#ma42d5274d0" y="211.415685"/>
     <use style="fill:#1f77b4;stroke:#1f77b4;" x="105.725865" xlink:href="#ma42d5274d0" y="180.940519"/>
     <use style="fill:#1f77b4;stroke:#1f77b4;" x="106.989112" xlink:href="#ma42d5274d0" y="198.392786"/>
     <use style="fill:#1f77b4;stroke:#1f77b4;" x="108.252359" xlink:href="#ma42d5274d0" y="193.410664"/>
     <use style="fill:#1f77b4;stroke:#1f77b4;" x="109.515607" xlink:href="#ma42d5274d0" y="180.508484"/>
     <use style="fill:#1f77b4;stroke:#1f77b4;" x="110.778854" xlink:href="#ma42d5274d0" y="252.502864"/>
     <use style="fill:#1f77b4;stroke:#1f77b4;" x="112.042101" xlink:href="#ma42d5274d0" y="179.28335"/>
     <use style="fill:#1f77b4;stroke:#1f77b4;" x="113.305348" xlink:href="#ma42d5274d0" y="199.441913"/>
     <use style="fill:#1f77b4;stroke:#1f77b4;" x="114.568596" xlink:href="#ma42d5274d0" y="211.72491"/>
     <use style="fill:#1f77b4;stroke:#1f77b4;" x="115.831843" xlink:href="#ma42d5274d0" y="181.629354"/>
     <use style="fill:#1f77b4;stroke:#1f77b4;" x="117.09509" xlink:href="#ma42d5274d0" y="182.972704"/>
     <use style="fill:#1f77b4;stroke:#1f77b4;" x="118.358337" xlink:href="#ma42d5274d0" y="186.616883"/>
     <use style="fill:#1f77b4;stroke:#1f77b4;" x="119.621585" xlink:href="#ma42d5274d0" y="184.261616"/>
     <use style="fill:#1f77b4;stroke:#1f77b4;" x="120.884832" xlink:href="#ma42d5274d0" y="199.905105"/>
     <use style="fill:#1f77b4;stroke:#1f77b4;" x="122.148079" xlink:href="#ma42d5274d0" y="218.02517"/>
     <use style="fill:#1f77b4;stroke:#1f77b4;" x="123.411326" xlink:href="#ma42d5274d0" y="188.369665"/>
     <use style="fill:#1f77b4;stroke:#1f77b4;" x="124.674574" xlink:href="#ma42d5274d0" y="187.950057"/>
     <use style="fill:#1f77b4;stroke:#1f77b4;" x="125.937821" xlink:href="#ma42d5274d0" y="261.216"/>
     <use style="fill:#1f77b4;stroke:#1f77b4;" x="127.201068" xlink:href="#ma42d5274d0" y="179.935524"/>
     <use style="fill:#1f77b4;stroke:#1f77b4;" x="128.464316" xlink:href="#ma42d5274d0" y="204.867437"/>
     <use style="fill:#1f77b4;stroke:#1f77b4;" x="129.727563" xlink:href="#ma42d5274d0" y="238.457107"/>
     <use style="fill:#1f77b4;stroke:#1f77b4;" x="130.99081" xlink:href="#ma42d5274d0" y="177.697867"/>
     <use style="fill:#1f77b4;stroke:#1f77b4;" x="132.254057" xlink:href="#ma42d5274d0" y="177.870767"/>
     <use style="fill:#1f77b4;stroke:#1f77b4;" x="133.517305" xlink:href="#ma42d5274d0" y="198.062607"/>
     <use style="fill:#1f77b4;stroke:#1f77b4;" x="134.780552" xlink:href="#ma42d5274d0" y="195.054591"/>
     <use style="fill:#1f77b4;stroke:#1f77b4;" x="136.043799" xlink:href="#ma42d5274d0" y="184.407537"/>
     <use style="fill:#1f77b4;stroke:#1f77b4;" x="137.307046" xlink:href="#ma42d5274d0" y="187.496614"/>
     <use style="fill:#1f77b4;stroke:#1f77b4;" x="138.570294" xlink:href="#ma42d5274d0" y="195.325068"/>
     <use style="fill:#1f77b4;stroke:#1f77b4;" x="139.833541" xlink:href="#ma42d5274d0" y="190.381847"/>
     <use style="fill:#1f77b4;stroke:#1f77b4;" x="141.096788" xlink:href="#ma42d5274d0" y="195.698089"/>
     <use style="fill:#1f77b4;stroke:#1f77b4;" x="142.360035" xlink:href="#ma42d5274d0" y="200.495827"/>
     <use style="fill:#1f77b4;stroke:#1f77b4;" x="143.623283" xlink:href="#ma42d5274d0" y="194.074844"/>
     <use style="fill:#1f77b4;stroke:#1f77b4;" x="144.88653" xlink:href="#ma42d5274d0" y="196.521538"/>
     <use style="fill:#1f77b4;stroke:#1f77b4;" x="146.149777" xlink:href="#ma42d5274d0" y="171.211802"/>
     <use style="fill:#1f77b4;stroke:#1f77b4;" x="147.413024" xlink:href="#ma42d5274d0" y="179.369142"/>
     <use style="fill:#1f77b4;stroke:#1f77b4;" x="148.676272" xlink:href="#ma42d5274d0" y="227.338756"/>
     <use style="fill:#1f77b4;stroke:#1f77b4;" x="149.939519" xlink:href="#ma42d5274d0" y="188.467999"/>
     <use style="fill:#1f77b4;stroke:#1f77b4;" x="151.202766" xlink:href="#ma42d5274d0" y="240.764574"/>
     <use style="fill:#1f77b4;stroke:#1f77b4;" x="152.466013" xlink:href="#ma42d5274d0" y="181.113709"/>
     <use style="fill:#1f77b4;stroke:#1f77b4;" x="153.729261" xlink:href="#ma42d5274d0" y="201.794664"/>
     <use style="fill:#1f77b4;stroke:#1f77b4;" x="154.992508" xlink:href="#ma42d5274d0" y="199.561676"/>
     <use style="fill:#1f77b4;stroke:#1f77b4;" x="156.255755" xlink:href="#ma42d5274d0" y="189.330318"/>
     <use style="fill:#1f77b4;stroke:#1f77b4;" x="157.519002" xlink:href="#ma42d5274d0" y="238.125383"/>
     <use style="fill:#1f77b4;stroke:#1f77b4;" x="158.78225" xlink:href="#ma42d5274d0" y="189.31889"/>
     <use style="fill:#1f77b4;stroke:#1f77b4;" x="160.045497" xlink:href="#ma42d5274d0" y="199.581099"/>
     <use style="fill:#1f77b4;stroke:#1f77b4;" x="161.308744" xlink:href="#ma42d5274d0" y="191.508627"/>
     <use style="fill:#1f77b4;stroke:#1f77b4;" x="162.571992" xlink:href="#ma42d5274d0" y="198.943861"/>
     <use style="fill:#1f77b4;stroke:#1f77b4;" x="163.835239" xlink:href="#ma42d5274d0" y="182.184784"/>
     <use style="fill:#1f77b4;stroke:#1f77b4;" x="165.098486" xlink:href="#ma42d5274d0" y="177.433544"/>
     <use style="fill:#1f77b4;stroke:#1f77b4;" x="166.361733" xlink:href="#ma42d5274d0" y="198.439062"/>
     <use style="fill:#1f77b4;stroke:#1f77b4;" x="167.624981" xlink:href="#ma42d5274d0" y="188.743296"/>
     <use style="fill:#1f77b4;stroke:#1f77b4;" x="168.888228" xlink:href="#ma42d5274d0" y="179.121306"/>
     <use style="fill:#1f77b4;stroke:#1f77b4;" x="170.151475" xlink:href="#ma42d5274d0" y="182.165906"/>
     <use style="fill:#1f77b4;stroke:#1f77b4;" x="171.414722" xlink:href="#ma42d5274d0" y="188.128383"/>
     <use style="fill:#1f77b4;stroke:#1f77b4;" x="172.67797" xlink:href="#ma42d5274d0" y="189.551971"/>
     <use style="fill:#1f77b4;stroke:#1f77b4;" x="173.941217" xlink:href="#ma42d5274d0" y="178.241293"/>
     <use style="fill:#1f77b4;stroke:#1f77b4;" x="175.204464" xlink:href="#ma42d5274d0" y="181.531561"/>
     <use style="fill:#1f77b4;stroke:#1f77b4;" x="176.467711" xlink:href="#ma42d5274d0" y="198.538599"/>
     <use style="fill:#1f77b4;stroke:#1f77b4;" x="177.730959" xlink:href="#ma42d5274d0" y="212.8154"/>
     <use style="fill:#1f77b4;stroke:#1f77b4;" x="178.994206" xlink:href="#ma42d5274d0" y="181.040381"/>
     <use style="fill:#1f77b4;stroke:#1f77b4;" x="180.257453" xlink:href="#ma42d5274d0" y="170.545402"/>
     <use style="fill:#1f77b4;stroke:#1f77b4;" x="181.5207" xlink:href="#ma42d5274d0" y="182.110341"/>
     <use style="fill:#1f77b4;stroke:#1f77b4;" x="182.783948" xlink:href="#ma42d5274d0" y="186.33596"/>
     <use style="fill:#1f77b4;stroke:#1f77b4;" x="184.047195" xlink:href="#ma42d5274d0" y="204.447322"/>
     <use style="fill:#1f77b4;stroke:#1f77b4;" x="185.310442" xlink:href="#ma42d5274d0" y="240.731772"/>
     <use style="fill:#1f77b4;stroke:#1f77b4;" x="186.573689" xlink:href="#ma42d5274d0" y="173.001139"/>
     <use style="fill:#1f77b4;stroke:#1f77b4;" x="187.836937" xlink:href="#ma42d5274d0" y="185.319879"/>
     <use style="fill:#1f77b4;stroke:#1f77b4;" x="189.100184" xlink:href="#ma42d5274d0" y="180.038861"/>
     <use style="fill:#1f77b4;stroke:#1f77b4;" x="190.363431" xlink:href="#ma42d5274d0" y="182.503202"/>
     <use style="fill:#1f77b4;stroke:#1f77b4;" x="191.626678" xlink:href="#ma42d5274d0" y="188.166707"/>
     <use style="fill:#1f77b4;stroke:#1f77b4;" x="192.889926" xlink:href="#ma42d5274d0" y="189.985337"/>
     <use style="fill:#1f77b4;stroke:#1f77b4;" x="194.153173" xlink:href="#ma42d5274d0" y="196.322479"/>
     <use style="fill:#1f77b4;stroke:#1f77b4;" x="195.41642" xlink:href="#ma42d5274d0" y="189.426279"/>
     <use style="fill:#1f77b4;stroke:#1f77b4;" x="196.679667" xlink:href="#ma42d5274d0" y="190.582285"/>
     <use style="fill:#1f77b4;stroke:#1f77b4;" x="197.942915" xlink:href="#ma42d5274d0" y="174.512491"/>
     <use style="fill:#1f77b4;stroke:#1f77b4;" x="199.206162" xlink:href="#ma42d5274d0" y="180.42683"/>
     <use style="fill:#1f77b4;stroke:#1f77b4;" x="200.469409" xlink:href="#ma42d5274d0" y="213.376498"/>
     <use style="fill:#1f77b4;stroke:#1f77b4;" x="201.732657" xlink:href="#ma42d5274d0" y="185.659048"/>
     <use style="fill:#1f77b4;stroke:#1f77b4;" x="202.995904" xlink:href="#ma42d5274d0" y="206.608633"/>
     <use style="fill:#1f77b4;stroke:#1f77b4;" x="204.259151" xlink:href="#ma42d5274d0" y="186.558905"/>
     <use style="fill:#1f77b4;stroke:#1f77b4;" x="205.522398" xlink:href="#ma42d5274d0" y="209.549684"/>
     <use style="fill:#1f77b4;stroke:#1f77b4;" x="206.785646" xlink:href="#ma42d5274d0" y="212.309041"/>
     <use style="fill:#1f77b4;stroke:#1f77b4;" x="208.048893" xlink:href="#ma42d5274d0" y="194.0262"/>
     <use style="fill:#1f77b4;stroke:#1f77b4;" x="209.31214" xlink:href="#ma42d5274d0" y="180.787971"/>
     <use style="fill:#1f77b4;stroke:#1f77b4;" x="210.575387" xlink:href="#ma42d5274d0" y="217.054148"/>
     <use style="fill:#1f77b4;stroke:#1f77b4;" x="211.838635" xlink:href="#ma42d5274d0" y="191.773134"/>
     <use style="fill:#1f77b4;stroke:#1f77b4;" x="213.101882" xlink:href="#ma42d5274d0" y="207.071745"/>
     <use style="fill:#1f77b4;stroke:#1f77b4;" x="214.365129" xlink:href="#ma42d5274d0" y="195.364989"/>
     <use style="fill:#1f77b4;stroke:#1f77b4;" x="215.628376" xlink:href="#ma42d5274d0" y="206.113875"/>
     <use style="fill:#1f77b4;stroke:#1f77b4;" x="216.891624" xlink:href="#ma42d5274d0" y="193.443929"/>
     <use style="fill:#1f77b4;stroke:#1f77b4;" x="218.154871" xlink:href="#ma42d5274d0" y="204.85292"/>
     <use style="fill:#1f77b4;stroke:#1f77b4;" x="219.418118" xlink:href="#ma42d5274d0" y="216.887947"/>
     <use style="fill:#1f77b4;stroke:#1f77b4;" x="220.681365" xlink:href="#ma42d5274d0" y="206.118695"/>
     <use style="fill:#1f77b4;stroke:#1f77b4;" x="221.944613" xlink:href="#ma42d5274d0" y="197.133677"/>
     <use style="fill:#1f77b4;stroke:#1f77b4;" x="223.20786" xlink:href="#ma42d5274d0" y="196.355318"/>
     <use style="fill:#1f77b4;stroke:#1f77b4;" x="224.471107" xlink:href="#ma42d5274d0" y="213.544767"/>
     <use style="fill:#1f77b4;stroke:#1f77b4;" x="225.734354" xlink:href="#ma42d5274d0" y="182.623428"/>
     <use style="fill:#1f77b4;stroke:#1f77b4;" x="226.997602" xlink:href="#ma42d5274d0" y="190.00251"/>
     <use style="fill:#1f77b4;stroke:#1f77b4;" x="228.260849" xlink:href="#ma42d5274d0" y="211.04689"/>
     <use style="fill:#1f77b4;stroke:#1f77b4;" x="229.524096" xlink:href="#ma42d5274d0" y="248.871604"/>
     <use style="fill:#1f77b4;stroke:#1f77b4;" x="230.787343" xlink:href="#ma42d5274d0" y="210.647855"/>
     <use style="fill:#1f77b4;stroke:#1f77b4;" x="232.050591" xlink:href="#ma42d5274d0" y="218.243994"/>
     <use style="fill:#1f77b4;stroke:#1f77b4;" x="233.313838" xlink:href="#ma42d5274d0" y="185.244042"/>
     <use style="fill:#1f77b4;stroke:#1f77b4;" x="234.577085" xlink:href="#ma42d5274d0" y="211.85678"/>
     <use style="fill:#1f77b4;stroke:#1f77b4;" x="235.840333" xlink:href="#ma42d5274d0" y="197.947713"/>
     <use style="fill:#1f77b4;stroke:#1f77b4;" x="237.10358" xlink:href="#ma42d5274d0" y="193.001492"/>
     <use style="fill:#1f77b4;stroke:#1f77b4;" x="238.366827" xlink:href="#ma42d5274d0" y="190.530462"/>
     <use style="fill:#1f77b4;stroke:#1f77b4;" x="239.630074" xlink:href="#ma42d5274d0" y="204.574651"/>
     <use style="fill:#1f77b4;stroke:#1f77b4;" x="240.893322" xlink:href="#ma42d5274d0" y="194.207981"/>
     <use style="fill:#1f77b4;stroke:#1f77b4;" x="242.156569" xlink:href="#ma42d5274d0" y="193.88069"/>
     <use style="fill:#1f77b4;stroke:#1f77b4;" x="243.419816" xlink:href="#ma42d5274d0" y="178.331214"/>
     <use style="fill:#1f77b4;stroke:#1f77b4;" x="244.683063" xlink:href="#ma42d5274d0" y="194.123141"/>
     <use style="fill:#1f77b4;stroke:#1f77b4;" x="245.946311" xlink:href="#ma42d5274d0" y="195.587736"/>
     <use style="fill:#1f77b4;stroke:#1f77b4;" x="247.209558" xlink:href="#ma42d5274d0" y="188.230415"/>
     <use style="fill:#1f77b4;stroke:#1f77b4;" x="248.472805" xlink:href="#ma42d5274d0" y="179.361565"/>
     <use style="fill:#1f77b4;stroke:#1f77b4;" x="249.736052" xlink:href="#ma42d5274d0" y="176.029492"/>
     <use style="fill:#1f77b4;stroke:#1f77b4;" x="250.9993" xlink:href="#ma42d5274d0" y="195.26068"/>
     <use style="fill:#1f77b4;stroke:#1f77b4;" x="252.262547" xlink:href="#ma42d5274d0" y="182.423749"/>
     <use style="fill:#1f77b4;stroke:#1f77b4;" x="253.525794" xlink:href="#ma42d5274d0" y="196.972851"/>
     <use style="fill:#1f77b4;stroke:#1f77b4;" x="254.789041" xlink:href="#ma42d5274d0" y="189.495392"/>
     <use style="fill:#1f77b4;stroke:#1f77b4;" x="256.052289" xlink:href="#ma42d5274d0" y="188.992384"/>
     <use style="fill:#1f77b4;stroke:#1f77b4;" x="257.315536" xlink:href="#ma42d5274d0" y="182.159633"/>
     <use style="fill:#1f77b4;stroke:#1f77b4;" x="258.578783" xlink:href="#ma42d5274d0" y="205.772795"/>
     <use style="fill:#1f77b4;stroke:#1f77b4;" x="259.84203" xlink:href="#ma42d5274d0" y="184.811562"/>
     <use style="fill:#1f77b4;stroke:#1f77b4;" x="261.105278" xlink:href="#ma42d5274d0" y="190.359767"/>
     <use style="fill:#1f77b4;stroke:#1f77b4;" x="262.368525" xlink:href="#ma42d5274d0" y="195.247276"/>
     <use style="fill:#1f77b4;stroke:#1f77b4;" x="263.631772" xlink:href="#ma42d5274d0" y="221.12406"/>
     <use style="fill:#1f77b4;stroke:#1f77b4;" x="264.895019" xlink:href="#ma42d5274d0" y="170.125102"/>
     <use style="fill:#1f77b4;stroke:#1f77b4;" x="266.158267" xlink:href="#ma42d5274d0" y="174.826426"/>
     <use style="fill:#1f77b4;stroke:#1f77b4;" x="267.421514" xlink:href="#ma42d5274d0" y="179.078766"/>
     <use style="fill:#1f77b4;stroke:#1f77b4;" x="268.684761" xlink:href="#ma42d5274d0" y="189.692404"/>
     <use style="fill:#1f77b4;stroke:#1f77b4;" x="269.948008" xlink:href="#ma42d5274d0" y="236.105124"/>
     <use style="fill:#1f77b4;stroke:#1f77b4;" x="271.211256" xlink:href="#ma42d5274d0" y="191.139978"/>
     <use style="fill:#1f77b4;stroke:#1f77b4;" x="272.474503" xlink:href="#ma42d5274d0" y="185.391288"/>
     <use style="fill:#1f77b4;stroke:#1f77b4;" x="273.73775" xlink:href="#ma42d5274d0" y="184.010057"/>
     <use style="fill:#1f77b4;stroke:#1f77b4;" x="275.000998" xlink:href="#ma42d5274d0" y="166.687165"/>
     <use style="fill:#1f77b4;stroke:#1f77b4;" x="276.264245" xlink:href="#ma42d5274d0" y="174.620463"/>
     <use style="fill:#1f77b4;stroke:#1f77b4;" x="277.527492" xlink:href="#ma42d5274d0" y="193.555374"/>
     <use style="fill:#1f77b4;stroke:#1f77b4;" x="278.790739" xlink:href="#ma42d5274d0" y="181.784905"/>
     <use style="fill:#1f77b4;stroke:#1f77b4;" x="280.053987" xlink:href="#ma42d5274d0" y="219.156954"/>
     <use style="fill:#1f77b4;stroke:#1f77b4;" x="281.317234" xlink:href="#ma42d5274d0" y="256.286228"/>
     <use style="fill:#1f77b4;stroke:#1f77b4;" x="282.580481" xlink:href="#ma42d5274d0" y="239.48908"/>
     <use style="fill:#1f77b4;stroke:#1f77b4;" x="283.843728" xlink:href="#ma42d5274d0" y="203.605769"/>
     <use style="fill:#1f77b4;stroke:#1f77b4;" x="285.106976" xlink:href="#ma42d5274d0" y="206.355679"/>
     <use style="fill:#1f77b4;stroke:#1f77b4;" x="286.370223" xlink:href="#ma42d5274d0" y="182.419858"/>
     <use style="fill:#1f77b4;stroke:#1f77b4;" x="287.63347" xlink:href="#ma42d5274d0" y="183.84119"/>
     <use style="fill:#1f77b4;stroke:#1f77b4;" x="288.896717" xlink:href="#ma42d5274d0" y="196.763526"/>
     <use style="fill:#1f77b4;stroke:#1f77b4;" x="290.159965" xlink:href="#ma42d5274d0" y="177.070536"/>
     <use style="fill:#1f77b4;stroke:#1f77b4;" x="291.423212" xlink:href="#ma42d5274d0" y="183.912376"/>
     <use style="fill:#1f77b4;stroke:#1f77b4;" x="292.686459" xlink:href="#ma42d5274d0" y="224.590128"/>
     <use style="fill:#1f77b4;stroke:#1f77b4;" x="293.949706" xlink:href="#ma42d5274d0" y="191.421282"/>
     <use style="fill:#1f77b4;stroke:#1f77b4;" x="295.212954" xlink:href="#ma42d5274d0" y="208.695536"/>
     <use style="fill:#1f77b4;stroke:#1f77b4;" x="296.476201" xlink:href="#ma42d5274d0" y="180.584005"/>
     <use style="fill:#1f77b4;stroke:#1f77b4;" x="297.739448" xlink:href="#ma42d5274d0" y="190.58295"/>
     <use style="fill:#1f77b4;stroke:#1f77b4;" x="299.002695" xlink:href="#ma42d5274d0" y="193.169846"/>
     <use style="fill:#1f77b4;stroke:#1f77b4;" x="300.265943" xlink:href="#ma42d5274d0" y="182.535221"/>
     <use style="fill:#1f77b4;stroke:#1f77b4;" x="301.52919" xlink:href="#ma42d5274d0" y="201.742508"/>
     <use style="fill:#1f77b4;stroke:#1f77b4;" x="302.792437" xlink:href="#ma42d5274d0" y="177.349576"/>
     <use style="fill:#1f77b4;stroke:#1f77b4;" x="304.055684" xlink:href="#ma42d5274d0" y="218.549692"/>
     <use style="fill:#1f77b4;stroke:#1f77b4;" x="305.318932" xlink:href="#ma42d5274d0" y="212.375371"/>
     <use style="fill:#1f77b4;stroke:#1f77b4;" x="306.582179" xlink:href="#ma42d5274d0" y="180.224875"/>
     <use style="fill:#1f77b4;stroke:#1f77b4;" x="307.845426" xlink:href="#ma42d5274d0" y="181.675382"/>
     <use style="fill:#1f77b4;stroke:#1f77b4;" x="309.108674" xlink:href="#ma42d5274d0" y="169.590587"/>
     <use style="fill:#1f77b4;stroke:#1f77b4;" x="310.371921" xlink:href="#ma42d5274d0" y="182.73839"/>
     <use style="fill:#1f77b4;stroke:#1f77b4;" x="311.635168" xlink:href="#ma42d5274d0" y="194.367802"/>
     <use style="fill:#1f77b4;stroke:#1f77b4;" x="312.898415" xlink:href="#ma42d5274d0" y="196.297598"/>
     <use style="fill:#1f77b4;stroke:#1f77b4;" x="314.161663" xlink:href="#ma42d5274d0" y="195.101372"/>
     <use style="fill:#1f77b4;stroke:#1f77b4;" x="315.42491" xlink:href="#ma42d5274d0" y="218.084766"/>
     <use style="fill:#1f77b4;stroke:#1f77b4;" x="316.688157" xlink:href="#ma42d5274d0" y="177.542192"/>
     <use style="fill:#1f77b4;stroke:#1f77b4;" x="317.951404" xlink:href="#ma42d5274d0" y="197.679708"/>
     <use style="fill:#1f77b4;stroke:#1f77b4;" x="319.214652" xlink:href="#ma42d5274d0" y="190.218659"/>
     <use style="fill:#1f77b4;stroke:#1f77b4;" x="320.477899" xlink:href="#ma42d5274d0" y="194.520892"/>
     <use style="fill:#1f77b4;stroke:#1f77b4;" x="321.741146" xlink:href="#ma42d5274d0" y="221.487482"/>
     <use style="fill:#1f77b4;stroke:#1f77b4;" x="323.004393" xlink:href="#ma42d5274d0" y="211.698748"/>
     <use style="fill:#1f77b4;stroke:#1f77b4;" x="324.267641" xlink:href="#ma42d5274d0" y="173.350849"/>
     <use style="fill:#1f77b4;stroke:#1f77b4;" x="325.530888" xlink:href="#ma42d5274d0" y="187.80095"/>
     <use style="fill:#1f77b4;stroke:#1f77b4;" x="326.794135" xlink:href="#ma42d5274d0" y="179.965375"/>
     <use style="fill:#1f77b4;stroke:#1f77b4;" x="328.057382" xlink:href="#ma42d5274d0" y="191.801629"/>
     <use style="fill:#1f77b4;stroke:#1f77b4;" x="329.32063" xlink:href="#ma42d5274d0" y="203.337702"/>
     <use style="fill:#1f77b4;stroke:#1f77b4;" x="330.583877" xlink:href="#ma42d5274d0" y="186.994515"/>
     <use style="fill:#1f77b4;stroke:#1f77b4;" x="331.847124" xlink:href="#ma42d5274d0" y="185.400737"/>
     <use style="fill:#1f77b4;stroke:#1f77b4;" x="333.110371" xlink:href="#ma42d5274d0" y="184.189467"/>
     <use style="fill:#1f77b4;stroke:#1f77b4;" x="334.373619" xlink:href="#ma42d5274d0" y="199.188986"/>
     <use style="fill:#1f77b4;stroke:#1f77b4;" x="335.636866" xlink:href="#ma42d5274d0" y="188.924305"/>
     <use style="fill:#1f77b4;stroke:#1f77b4;" x="336.900113" xlink:href="#ma42d5274d0" y="200.661022"/>
     <use style="fill:#1f77b4;stroke:#1f77b4;" x="338.16336" xlink:href="#ma42d5274d0" y="188.623083"/>
     <use style="fill:#1f77b4;stroke:#1f77b4;" x="339.426608" xlink:href="#ma42d5274d0" y="182.558377"/>
     <use style="fill:#1f77b4;stroke:#1f77b4;" x="340.689855" xlink:href="#ma42d5274d0" y="184.074448"/>
     <use style="fill:#1f77b4;stroke:#1f77b4;" x="341.953102" xlink:href="#ma42d5274d0" y="181.407654"/>
     <use style="fill:#1f77b4;stroke:#1f77b4;" x="343.216349" xlink:href="#ma42d5274d0" y="201.822114"/>
     <use style="fill:#1f77b4;stroke:#1f77b4;" x="344.479597" xlink:href="#ma42d5274d0" y="176.34715"/>
     <use style="fill:#1f77b4;stroke:#1f77b4;" x="345.742844" xlink:href="#ma42d5274d0" y="200.745067"/>
     <use style="fill:#1f77b4;stroke:#1f77b4;" x="347.006091" xlink:href="#ma42d5274d0" y="200.945785"/>
     <use style="fill:#1f77b4;stroke:#1f77b4;" x="348.269339" xlink:href="#ma42d5274d0" y="171.783728"/>
     <use style="fill:#1f77b4;stroke:#1f77b4;" x="349.532586" xlink:href="#ma42d5274d0" y="176.560467"/>
     <use style="fill:#1f77b4;stroke:#1f77b4;" x="350.795833" xlink:href="#ma42d5274d0" y="196.445491"/>
     <use style="fill:#1f77b4;stroke:#1f77b4;" x="352.05908" xlink:href="#ma42d5274d0" y="180.719934"/>
     <use style="fill:#1f77b4;stroke:#1f77b4;" x="353.322328" xlink:href="#ma42d5274d0" y="197.43639"/>
     <use style="fill:#1f77b4;stroke:#1f77b4;" x="354.585575" xlink:href="#ma42d5274d0" y="188.886035"/>
     <use style="fill:#1f77b4;stroke:#1f77b4;" x="355.848822" xlink:href="#ma42d5274d0" y="180.898439"/>
     <use style="fill:#1f77b4;stroke:#1f77b4;" x="357.112069" xlink:href="#ma42d5274d0" y="181.433886"/>
     <use style="fill:#1f77b4;stroke:#1f77b4;" x="358.375317" xlink:href="#ma42d5274d0" y="183.708998"/>
     <use style="fill:#1f77b4;stroke:#1f77b4;" x="359.638564" xlink:href="#ma42d5274d0" y="176.696132"/>
     <use style="fill:#1f77b4;stroke:#1f77b4;" x="360.901811" xlink:href="#ma42d5274d0" y="190.635915"/>
     <use style="fill:#1f77b4;stroke:#1f77b4;" x="362.165058" xlink:href="#ma42d5274d0" y="187.940259"/>
     <use style="fill:#1f77b4;stroke:#1f77b4;" x="363.428306" xlink:href="#ma42d5274d0" y="176.611227"/>
     <use style="fill:#1f77b4;stroke:#1f77b4;" x="364.691553" xlink:href="#ma42d5274d0" y="191.626146"/>
     <use style="fill:#1f77b4;stroke:#1f77b4;" x="365.9548" xlink:href="#ma42d5274d0" y="176.55443"/>
     <use style="fill:#1f77b4;stroke:#1f77b4;" x="367.218047" xlink:href="#ma42d5274d0" y="192.709865"/>
     <use style="fill:#1f77b4;stroke:#1f77b4;" x="368.481295" xlink:href="#ma42d5274d0" y="187.370862"/>
     <use style="fill:#1f77b4;stroke:#1f77b4;" x="369.744542" xlink:href="#ma42d5274d0" y="221.552012"/>
     <use style="fill:#1f77b4;stroke:#1f77b4;" x="371.007789" xlink:href="#ma42d5274d0" y="202.475665"/>
     <use style="fill:#1f77b4;stroke:#1f77b4;" x="372.271036" xlink:href="#ma42d5274d0" y="181.939151"/>
     <use style="fill:#1f77b4;stroke:#1f77b4;" x="373.534284" xlink:href="#ma42d5274d0" y="196.315359"/>
     <use style="fill:#1f77b4;stroke:#1f77b4;" x="374.797531" xlink:href="#ma42d5274d0" y="204.873907"/>
     <use style="fill:#1f77b4;stroke:#1f77b4;" x="376.060778" xlink:href="#ma42d5274d0" y="216.078947"/>
     <use style="fill:#1f77b4;stroke:#1f77b4;" x="376.891691" xlink:href="#ma42d5274d0" y="22383.514"/>
    </g>
   </g>
   <g id="line2d_79">
    <path clip-path="url(#pcfbb6d10c3)" d="M 53.932727 19.296 
L 55.195975 38.94402 
L 56.459222 54.89273 
L 57.722469 75.354976 
L 58.985716 93.756534 
L 60.248964 113.303953 
L 61.512211 132.464596 
L 62.775458 152.563227 
" style="fill:none;stroke:#2ca02c;stroke-dasharray:1.5,2.475;stroke-dashoffset:0;stroke-width:1.5;"/>
    <defs>
     <path d="M -3 3 
L 3 -3 
M -3 -3 
L 3 3 
" id="m28f51ce0c4" style="stroke:#2ca02c;"/>
    </defs>
    <g clip-path="url(#pcfbb6d10c3)">
     <use style="fill:#2ca02c;stroke:#2ca02c;" x="53.932727" xlink:href="#m28f51ce0c4" y="19.296"/>
     <use style="fill:#2ca02c;stroke:#2ca02c;" x="55.195975" xlink:href="#m28f51ce0c4" y="38.94402"/>
     <use style="fill:#2ca02c;stroke:#2ca02c;" x="56.459222" xlink:href="#m28f51ce0c4" y="54.89273"/>
     <use style="fill:#2ca02c;stroke:#2ca02c;" x="57.722469" xlink:href="#m28f51ce0c4" y="75.354976"/>
     <use style="fill:#2ca02c;stroke:#2ca02c;" x="58.985716" xlink:href="#m28f51ce0c4" y="93.756534"/>
     <use style="fill:#2ca02c;stroke:#2ca02c;" x="60.248964" xlink:href="#m28f51ce0c4" y="113.303953"/>
     <use style="fill:#2ca02c;stroke:#2ca02c;" x="61.512211" xlink:href="#m28f51ce0c4" y="132.464596"/>
     <use style="fill:#2ca02c;stroke:#2ca02c;" x="62.775458" xlink:href="#m28f51ce0c4" y="152.563227"/>
    </g>
   </g>
   <g id="line2d_80">
    <path clip-path="url(#pcfbb6d10c3)" d="M 55.195975 93.626902 
L 69.723336 311.86825 
L 69.723336 311.86825 
" style="fill:none;stroke:#000000;stroke-dasharray:5.55,2.4;stroke-dashoffset:0;stroke-width:1.5;"/>
   </g>
   <g id="patch_3">
    <path d="M 37.7 273.312 
L 37.7 7.2 
" style="fill:none;stroke:#000000;stroke-linecap:square;stroke-linejoin:miter;stroke-width:0.8;"/>
   </g>
   <g id="patch_4">
    <path d="M 394.82 273.312 
L 394.82 7.2 
" style="fill:none;stroke:#000000;stroke-linecap:square;stroke-linejoin:miter;stroke-width:0.8;"/>
   </g>
   <g id="patch_5">
    <path d="M 37.7 273.312 
L 394.82 273.312 
" style="fill:none;stroke:#000000;stroke-linecap:square;stroke-linejoin:miter;stroke-width:0.8;"/>
   </g>
   <g id="patch_6">
    <path d="M 37.7 7.2 
L 394.82 7.2 
" style="fill:none;stroke:#000000;stroke-linecap:square;stroke-linejoin:miter;stroke-width:0.8;"/>
   </g>
   <g id="legend_1">
    <g id="patch_7">
     <path d="M 287.52 59.25625 
L 387.82 59.25625 
Q 389.82 59.25625 389.82 57.25625 
L 389.82 14.2 
Q 389.82 12.2 387.82 12.2 
L 287.52 12.2 
Q 285.52 12.2 285.52 14.2 
L 285.52 57.25625 
Q 285.52 59.25625 287.52 59.25625 
z
" style="fill:#ffffff;opacity:0.8;"/>
    </g>
    <g id="line2d_81">
     <path d="M 289.52 20.298437 
L 309.52 20.298437 
" style="fill:none;stroke:#1f77b4;stroke-linecap:square;stroke-width:1.5;"/>
    </g>
    <g id="line2d_82">
     <g>
      <use style="fill:#1f77b4;stroke:#1f77b4;" x="299.52" xlink:href="#ma42d5274d0" y="20.298437"/>
     </g>
    </g>
    <g id="text_15">
     <!-- APD$_n$ - APD$_\infty$ -->
     <defs>
      <path d="M 34.1875 63.1875 
L 20.796875 26.90625 
L 47.609375 26.90625 
z
M 28.609375 72.90625 
L 39.796875 72.90625 
L 67.578125 0 
L 57.328125 0 
L 50.6875 18.703125 
L 17.828125 18.703125 
L 11.1875 0 
L 0.78125 0 
z
" id="DejaVuSans-65"/>
      <path d="M 19.671875 64.796875 
L 19.671875 37.40625 
L 32.078125 37.40625 
Q 38.96875 37.40625 42.71875 40.96875 
Q 46.484375 44.53125 46.484375 51.125 
Q 46.484375 57.671875 42.71875 61.234375 
Q 38.96875 64.796875 32.078125 64.796875 
z
M 9.8125 72.90625 
L 32.078125 72.90625 
Q 44.34375 72.90625 50.609375 67.359375 
Q 56.890625 61.8125 56.890625 51.125 
Q 56.890625 40.328125 50.609375 34.8125 
Q 44.34375 29.296875 32.078125 29.296875 
L 19.671875 29.296875 
L 19.671875 0 
L 9.8125 0 
z
" id="DejaVuSans-80"/>
      <path d="M 19.671875 64.796875 
L 19.671875 8.109375 
L 31.59375 8.109375 
Q 46.6875 8.109375 53.6875 14.9375 
Q 60.6875 21.78125 60.6875 36.53125 
Q 60.6875 51.171875 53.6875 57.984375 
Q 46.6875 64.796875 31.59375 64.796875 
z
M 9.8125 72.90625 
L 30.078125 72.90625 
Q 51.265625 72.90625 61.171875 64.09375 
Q 71.09375 55.28125 71.09375 36.53125 
Q 71.09375 17.671875 61.125 8.828125 
Q 51.171875 0 30.078125 0 
L 9.8125 0 
z
" id="DejaVuSans-68"/>
      <path d="M 55.71875 33.015625 
L 49.3125 0 
L 40.28125 0 
L 46.6875 32.671875 
Q 47.125 34.96875 47.359375 36.71875 
Q 47.609375 38.484375 47.609375 39.5 
Q 47.609375 43.609375 45.015625 45.890625 
Q 42.4375 48.1875 37.796875 48.1875 
Q 30.5625 48.1875 25.34375 43.375 
Q 20.125 38.578125 18.5 30.328125 
L 12.5 0 
L 3.515625 0 
L 14.109375 54.6875 
L 23.09375 54.6875 
L 21.296875 46.09375 
Q 25.046875 50.828125 30.3125 53.40625 
Q 35.59375 56 41.40625 56 
Q 48.640625 56 52.609375 52.09375 
Q 56.59375 48.1875 56.59375 41.109375 
Q 56.59375 39.359375 56.375 37.359375 
Q 56.15625 35.359375 55.71875 33.015625 
z
" id="DejaVuSans-Oblique-110"/>
      <path id="DejaVuSans-32"/>
      <path d="M 4.890625 31.390625 
L 31.203125 31.390625 
L 31.203125 23.390625 
L 4.890625 23.390625 
z
" id="DejaVuSans-45"/>
      <path d="M 45.5625 17.046875 
Q 44.046875 18.796875 41.65625 22.90625 
Q 38.375 17.046875 35.5 14.453125 
Q 31.890625 11.328125 26.265625 11.328125 
Q 19.671875 11.328125 15.328125 16.265625 
Q 10.75 21.4375 10.75 29.984375 
Q 10.75 38.1875 15.328125 43.75 
Q 19.4375 48.6875 26.375 48.6875 
Q 29.9375 48.6875 32.5625 47.21875 
Q 35.640625 45.609375 37.75 42.828125 
Q 39.703125 40.328125 41.65625 36.96875 
Q 44.921875 42.828125 47.796875 45.40625 
Q 51.421875 48.53125 57.03125 48.53125 
Q 63.625 48.53125 67.96875 43.609375 
Q 72.5625 38.421875 72.5625 29.890625 
Q 72.5625 21.6875 67.96875 16.109375 
Q 63.875 11.1875 56.9375 11.1875 
Q 53.375 11.1875 50.734375 12.640625 
Q 48.09375 13.96875 45.5625 17.046875 
z
M 25.734375 17.71875 
Q 33.796875 17.71875 38.625 29.4375 
Q 32.421875 42.234375 25.734375 42.234375 
Q 20.84375 42.234375 18.359375 38.71875 
Q 15.671875 34.96875 15.671875 29.984375 
Q 15.671875 24.515625 18.359375 21.140625 
Q 21.09375 17.71875 25.734375 17.71875 
z
M 57.5625 42.140625 
Q 50.296875 42.140625 44.671875 30.421875 
Q 50.828125 17.625 57.5625 17.625 
Q 62.453125 17.625 64.9375 21.140625 
Q 67.625 24.90625 67.625 29.890625 
Q 67.625 35.359375 64.9375 38.71875 
Q 62.203125 42.140625 57.5625 42.140625 
z
" id="DejaVuSans-8734"/>
     </defs>
     <g transform="translate(317.52 23.798437)scale(0.1 -0.1)">
      <use transform="translate(0 0.09375)" xlink:href="#DejaVuSans-65"/>
      <use transform="translate(68.408203 0.09375)" xlink:href="#DejaVuSans-80"/>
      <use transform="translate(128.710938 0.09375)" xlink:href="#DejaVuSans-68"/>
      <use transform="translate(206.669922 -16.3125)scale(0.7)" xlink:href="#DejaVuSans-Oblique-110"/>
      <use transform="translate(253.769531 0.09375)" xlink:href="#DejaVuSans-32"/>
      <use transform="translate(285.556641 0.09375)" xlink:href="#DejaVuSans-45"/>
      <use transform="translate(321.640625 0.09375)" xlink:href="#DejaVuSans-32"/>
      <use transform="translate(353.427734 0.09375)" xlink:href="#DejaVuSans-65"/>
      <use transform="translate(421.835938 0.09375)" xlink:href="#DejaVuSans-80"/>
      <use transform="translate(482.138672 0.09375)" xlink:href="#DejaVuSans-68"/>
      <use transform="translate(560.097656 -16.3125)scale(0.7)" xlink:href="#DejaVuSans-8734"/>
     </g>
    </g>
    <g id="line2d_83">
     <path d="M 289.52 34.976562 
L 309.52 34.976562 
" style="fill:none;stroke:#2ca02c;stroke-dasharray:1.5,2.475;stroke-dashoffset:0;stroke-width:1.5;"/>
    </g>
    <g id="line2d_84">
     <g>
      <use style="fill:#2ca02c;stroke:#2ca02c;" x="299.52" xlink:href="#m28f51ce0c4" y="34.976562"/>
     </g>
    </g>
    <g id="text_16">
     <!-- linear region -->
     <defs>
      <path d="M 9.421875 75.984375 
L 18.40625 75.984375 
L 18.40625 0 
L 9.421875 0 
z
" id="DejaVuSans-108"/>
      <path d="M 9.421875 54.6875 
L 18.40625 54.6875 
L 18.40625 0 
L 9.421875 0 
z
M 9.421875 75.984375 
L 18.40625 75.984375 
L 18.40625 64.59375 
L 9.421875 64.59375 
z
" id="DejaVuSans-105"/>
      <path d="M 54.890625 33.015625 
L 54.890625 0 
L 45.90625 0 
L 45.90625 32.71875 
Q 45.90625 40.484375 42.875 44.328125 
Q 39.84375 48.1875 33.796875 48.1875 
Q 26.515625 48.1875 22.3125 43.546875 
Q 18.109375 38.921875 18.109375 30.90625 
L 18.109375 0 
L 9.078125 0 
L 9.078125 54.6875 
L 18.109375 54.6875 
L 18.109375 46.1875 
Q 21.34375 51.125 25.703125 53.5625 
Q 30.078125 56 35.796875 56 
Q 45.21875 56 50.046875 50.171875 
Q 54.890625 44.34375 54.890625 33.015625 
z
" id="DejaVuSans-110"/>
      <path d="M 56.203125 29.59375 
L 56.203125 25.203125 
L 14.890625 25.203125 
Q 15.484375 15.921875 20.484375 11.0625 
Q 25.484375 6.203125 34.421875 6.203125 
Q 39.59375 6.203125 44.453125 7.46875 
Q 49.3125 8.734375 54.109375 11.28125 
L 54.109375 2.78125 
Q 49.265625 0.734375 44.1875 -0.34375 
Q 39.109375 -1.421875 33.890625 -1.421875 
Q 20.796875 -1.421875 13.15625 6.1875 
Q 5.515625 13.8125 5.515625 26.8125 
Q 5.515625 40.234375 12.765625 48.109375 
Q 20.015625 56 32.328125 56 
Q 43.359375 56 49.78125 48.890625 
Q 56.203125 41.796875 56.203125 29.59375 
z
M 47.21875 32.234375 
Q 47.125 39.59375 43.09375 43.984375 
Q 39.0625 48.390625 32.421875 48.390625 
Q 24.90625 48.390625 20.390625 44.140625 
Q 15.875 39.890625 15.1875 32.171875 
z
" id="DejaVuSans-101"/>
      <path d="M 34.28125 27.484375 
Q 23.390625 27.484375 19.1875 25 
Q 14.984375 22.515625 14.984375 16.5 
Q 14.984375 11.71875 18.140625 8.90625 
Q 21.296875 6.109375 26.703125 6.109375 
Q 34.1875 6.109375 38.703125 11.40625 
Q 43.21875 16.703125 43.21875 25.484375 
L 43.21875 27.484375 
z
M 52.203125 31.203125 
L 52.203125 0 
L 43.21875 0 
L 43.21875 8.296875 
Q 40.140625 3.328125 35.546875 0.953125 
Q 30.953125 -1.421875 24.3125 -1.421875 
Q 15.921875 -1.421875 10.953125 3.296875 
Q 6 8.015625 6 15.921875 
Q 6 25.140625 12.171875 29.828125 
Q 18.359375 34.515625 30.609375 34.515625 
L 43.21875 34.515625 
L 43.21875 35.40625 
Q 43.21875 41.609375 39.140625 45 
Q 35.0625 48.390625 27.6875 48.390625 
Q 23 48.390625 18.546875 47.265625 
Q 14.109375 46.140625 10.015625 43.890625 
L 10.015625 52.203125 
Q 14.9375 54.109375 19.578125 55.046875 
Q 24.21875 56 28.609375 56 
Q 40.484375 56 46.34375 49.84375 
Q 52.203125 43.703125 52.203125 31.203125 
z
" id="DejaVuSans-97"/>
      <path d="M 41.109375 46.296875 
Q 39.59375 47.171875 37.8125 47.578125 
Q 36.03125 48 33.890625 48 
Q 26.265625 48 22.1875 43.046875 
Q 18.109375 38.09375 18.109375 28.8125 
L 18.109375 0 
L 9.078125 0 
L 9.078125 54.6875 
L 18.109375 54.6875 
L 18.109375 46.1875 
Q 20.953125 51.171875 25.484375 53.578125 
Q 30.03125 56 36.53125 56 
Q 37.453125 56 38.578125 55.875 
Q 39.703125 55.765625 41.0625 55.515625 
z
" id="DejaVuSans-114"/>
      <path d="M 45.40625 27.984375 
Q 45.40625 37.75 41.375 43.109375 
Q 37.359375 48.484375 30.078125 48.484375 
Q 22.859375 48.484375 18.828125 43.109375 
Q 14.796875 37.75 14.796875 27.984375 
Q 14.796875 18.265625 18.828125 12.890625 
Q 22.859375 7.515625 30.078125 7.515625 
Q 37.359375 7.515625 41.375 12.890625 
Q 45.40625 18.265625 45.40625 27.984375 
z
M 54.390625 6.78125 
Q 54.390625 -7.171875 48.1875 -13.984375 
Q 42 -20.796875 29.203125 -20.796875 
Q 24.46875 -20.796875 20.265625 -20.09375 
Q 16.0625 -19.390625 12.109375 -17.921875 
L 12.109375 -9.1875 
Q 16.0625 -11.328125 19.921875 -12.34375 
Q 23.78125 -13.375 27.78125 -13.375 
Q 36.625 -13.375 41.015625 -8.765625 
Q 45.40625 -4.15625 45.40625 5.171875 
L 45.40625 9.625 
Q 42.625 4.78125 38.28125 2.390625 
Q 33.9375 0 27.875 0 
Q 17.828125 0 11.671875 7.65625 
Q 5.515625 15.328125 5.515625 27.984375 
Q 5.515625 40.671875 11.671875 48.328125 
Q 17.828125 56 27.875 56 
Q 33.9375 56 38.28125 53.609375 
Q 42.625 51.21875 45.40625 46.390625 
L 45.40625 54.6875 
L 54.390625 54.6875 
z
" id="DejaVuSans-103"/>
      <path d="M 30.609375 48.390625 
Q 23.390625 48.390625 19.1875 42.75 
Q 14.984375 37.109375 14.984375 27.296875 
Q 14.984375 17.484375 19.15625 11.84375 
Q 23.34375 6.203125 30.609375 6.203125 
Q 37.796875 6.203125 41.984375 11.859375 
Q 46.1875 17.53125 46.1875 27.296875 
Q 46.1875 37.015625 41.984375 42.703125 
Q 37.796875 48.390625 30.609375 48.390625 
z
M 30.609375 56 
Q 42.328125 56 49.015625 48.375 
Q 55.71875 40.765625 55.71875 27.296875 
Q 55.71875 13.875 49.015625 6.21875 
Q 42.328125 -1.421875 30.609375 -1.421875 
Q 18.84375 -1.421875 12.171875 6.21875 
Q 5.515625 13.875 5.515625 27.296875 
Q 5.515625 40.765625 12.171875 48.375 
Q 18.84375 56 30.609375 56 
z
" id="DejaVuSans-111"/>
     </defs>
     <g transform="translate(317.52 38.476562)scale(0.1 -0.1)">
      <use xlink:href="#DejaVuSans-108"/>
      <use x="27.783203" xlink:href="#DejaVuSans-105"/>
      <use x="55.566406" xlink:href="#DejaVuSans-110"/>
      <use x="118.945312" xlink:href="#DejaVuSans-101"/>
      <use x="180.46875" xlink:href="#DejaVuSans-97"/>
      <use x="241.748047" xlink:href="#DejaVuSans-114"/>
      <use x="282.861328" xlink:href="#DejaVuSans-32"/>
      <use x="314.648438" xlink:href="#DejaVuSans-114"/>
      <use x="353.511719" xlink:href="#DejaVuSans-101"/>
      <use x="415.035156" xlink:href="#DejaVuSans-103"/>
      <use x="478.511719" xlink:href="#DejaVuSans-105"/>
      <use x="506.294922" xlink:href="#DejaVuSans-111"/>
      <use x="567.476562" xlink:href="#DejaVuSans-110"/>
     </g>
    </g>
    <g id="line2d_85">
     <path d="M 289.52 49.65625 
L 309.52 49.65625 
" style="fill:none;stroke:#000000;stroke-dasharray:5.55,2.4;stroke-dashoffset:0;stroke-width:1.5;"/>
    </g>
    <g id="line2d_86"/>
    <g id="text_17">
     <!-- $ \exp(-1.291 k)$ -->
     <defs>
      <path d="M 54.890625 54.6875 
L 35.109375 28.078125 
L 55.90625 0 
L 45.3125 0 
L 29.390625 21.484375 
L 13.484375 0 
L 2.875 0 
L 24.125 28.609375 
L 4.6875 54.6875 
L 15.28125 54.6875 
L 29.78125 35.203125 
L 44.28125 54.6875 
z
" id="DejaVuSans-120"/>
      <path d="M 18.109375 8.203125 
L 18.109375 -20.796875 
L 9.078125 -20.796875 
L 9.078125 54.6875 
L 18.109375 54.6875 
L 18.109375 46.390625 
Q 20.953125 51.265625 25.265625 53.625 
Q 29.59375 56 35.59375 56 
Q 45.5625 56 51.78125 48.09375 
Q 58.015625 40.1875 58.015625 27.296875 
Q 58.015625 14.40625 51.78125 6.484375 
Q 45.5625 -1.421875 35.59375 -1.421875 
Q 29.59375 -1.421875 25.265625 0.953125 
Q 20.953125 3.328125 18.109375 8.203125 
z
M 48.6875 27.296875 
Q 48.6875 37.203125 44.609375 42.84375 
Q 40.53125 48.484375 33.40625 48.484375 
Q 26.265625 48.484375 22.1875 42.84375 
Q 18.109375 37.203125 18.109375 27.296875 
Q 18.109375 17.390625 22.1875 11.75 
Q 26.265625 6.109375 33.40625 6.109375 
Q 40.53125 6.109375 44.609375 11.75 
Q 48.6875 17.390625 48.6875 27.296875 
z
" id="DejaVuSans-112"/>
      <path d="M 31 75.875 
Q 24.46875 64.65625 21.28125 53.65625 
Q 18.109375 42.671875 18.109375 31.390625 
Q 18.109375 20.125 21.3125 9.0625 
Q 24.515625 -2 31 -13.1875 
L 23.1875 -13.1875 
Q 15.875 -1.703125 12.234375 9.375 
Q 8.59375 20.453125 8.59375 31.390625 
Q 8.59375 42.28125 12.203125 53.3125 
Q 15.828125 64.359375 23.1875 75.875 
z
" id="DejaVuSans-40"/>
      <path d="M 10.6875 12.40625 
L 21 12.40625 
L 21 0 
L 10.6875 0 
z
" id="DejaVuSans-46"/>
      <path d="M 10.984375 1.515625 
L 10.984375 10.5 
Q 14.703125 8.734375 18.5 7.8125 
Q 22.3125 6.890625 25.984375 6.890625 
Q 35.75 6.890625 40.890625 13.453125 
Q 46.046875 20.015625 46.78125 33.40625 
Q 43.953125 29.203125 39.59375 26.953125 
Q 35.25 24.703125 29.984375 24.703125 
Q 19.046875 24.703125 12.671875 31.3125 
Q 6.296875 37.9375 6.296875 49.421875 
Q 6.296875 60.640625 12.9375 67.421875 
Q 19.578125 74.21875 30.609375 74.21875 
Q 43.265625 74.21875 49.921875 64.515625 
Q 56.59375 54.828125 56.59375 36.375 
Q 56.59375 19.140625 48.40625 8.859375 
Q 40.234375 -1.421875 26.421875 -1.421875 
Q 22.703125 -1.421875 18.890625 -0.6875 
Q 15.09375 0.046875 10.984375 1.515625 
z
M 30.609375 32.421875 
Q 37.25 32.421875 41.125 36.953125 
Q 45.015625 41.5 45.015625 49.421875 
Q 45.015625 57.28125 41.125 61.84375 
Q 37.25 66.40625 30.609375 66.40625 
Q 23.96875 66.40625 20.09375 61.84375 
Q 16.21875 57.28125 16.21875 49.421875 
Q 16.21875 41.5 20.09375 36.953125 
Q 23.96875 32.421875 30.609375 32.421875 
z
" id="DejaVuSans-57"/>
      <path d="M 8.015625 75.875 
L 15.828125 75.875 
Q 23.140625 64.359375 26.78125 53.3125 
Q 30.421875 42.28125 30.421875 31.390625 
Q 30.421875 20.453125 26.78125 9.375 
Q 23.140625 -1.703125 15.828125 -13.1875 
L 8.015625 -13.1875 
Q 14.5 -2 17.703125 9.0625 
Q 20.90625 20.125 20.90625 31.390625 
Q 20.90625 42.671875 17.703125 53.65625 
Q 14.5 64.65625 8.015625 75.875 
z
" id="DejaVuSans-41"/>
     </defs>
     <g transform="translate(317.52 53.15625)scale(0.1 -0.1)">
      <use transform="translate(0 0.015625)" xlink:href="#DejaVuSans-101"/>
      <use transform="translate(61.523438 0.015625)" xlink:href="#DejaVuSans-120"/>
      <use transform="translate(120.703125 0.015625)" xlink:href="#DejaVuSans-112"/>
      <use transform="translate(184.179688 0.015625)" xlink:href="#DejaVuSans-40"/>
      <use transform="translate(223.193359 0.015625)" xlink:href="#DejaVuSans-8722"/>
      <use transform="translate(306.982422 0.015625)" xlink:href="#DejaVuSans-49"/>
      <use transform="translate(370.605469 0.015625)" xlink:href="#DejaVuSans-46"/>
      <use transform="translate(396.892578 0.015625)" xlink:href="#DejaVuSans-50"/>
      <use transform="translate(458.765625 0.015625)" xlink:href="#DejaVuSans-57"/>
      <use transform="translate(522.388672 0.015625)" xlink:href="#DejaVuSans-49"/>
      <use transform="translate(586.011719 0.015625)" xlink:href="#DejaVuSans-Oblique-107"/>
      <use transform="translate(643.921875 0.015625)" xlink:href="#DejaVuSans-41"/>
     </g>
    </g>
   </g>
  </g>
 </g>
 <defs>
  <clipPath id="pcfbb6d10c3">
   <rect height="266.112" width="357.12" x="37.7" y="7.2"/>
  </clipPath>
 </defs>
</svg>
