<?xml version="1.0" encoding="utf-8" standalone="no"?>
<!DOCTYPE svg PUBLIC "-//W3C//DTD SVG 1.1//EN"
  "http://www.w3.org/Graphics/SVG/1.1/DTD/svg11.dtd">
<!-- Created with matplotlib (https://matplotlib.org/) -->
<svg height="288pt" version="1.1" viewBox="0 0 432 288" width="432pt" xmlns="http://www.w3.org/2000/svg" xmlns:xlink="http://www.w3.org/1999/xlink">
 <metadata>
  <rdf:RDF xmlns:cc="http://creativecommons.org/ns#" xmlns:dc="http://purl.org/dc/elements/1.1/" xmlns:rdf="http://www.w3.org/1999/02/22-rdf-syntax-ns#">
   <cc:Work>
    <dc:type rdf:resource="http://purl.org/dc/dcmitype/StillImage"/>
    <dc:date>2020-09-05T11:48:00.685307</dc:date>
    <dc:format>image/svg+xml</dc:format>
    <dc:creator>
     <cc:Agent>
      <dc:title>Matplotlib v3.3.1, https://matplotlib.org/</dc:title>
     </cc:Agent>
    </dc:creator>
   </cc:Work>
  </rdf:RDF>
 </metadata>
 <defs>
  <style type="text/css">*{stroke-linecap:butt;stroke-linejoin:round;}</style>
 </defs>
 <g id="figure_1">
  <g id="patch_1">
   <path d="M 0 288 
L 432 288 
L 432 0 
L 0 0 
z
" style="fill:#ffffff;"/>
  </g>
  <g id="axes_1">
   <g id="patch_2">
    <path d="M 48.115483 254.829354 
L 429.165354 254.829354 
L 429.165354 2.834646 
L 48.115483 2.834646 
z
" style="fill:#ffffff;"/>
   </g>
   <g id="matplotlib.axis_1">
    <g id="xtick_1">
     <g id="line2d_1">
      <path clip-path="url(#pf406f05ac6)" d="M 87.336192 254.829354 
L 87.336192 2.834646 
" style="fill:none;stroke:#000000;stroke-linecap:square;stroke-opacity:0.1;stroke-width:0.5;"/>
     </g>
     <g id="line2d_2">
      <defs>
       <path d="M 0 0 
L 0 -2.5 
" id="m399f48f2db" style="stroke:#000000;stroke-width:0.5;"/>
      </defs>
      <g>
       <use style="stroke:#000000;stroke-width:0.5;" x="87.336192" xlink:href="#m399f48f2db" y="254.829354"/>
      </g>
     </g>
     <g id="text_1">
      <!-- $\mathregular{10^{-10.0}}$ -->
      <g transform="translate(73.496192 266.508104)scale(0.08 -0.08)">
       <defs>
        <path d="M 12.40625 8.296875 
L 28.515625 8.296875 
L 28.515625 63.921875 
L 10.984375 60.40625 
L 10.984375 69.390625 
L 28.421875 72.90625 
L 38.28125 72.90625 
L 38.28125 8.296875 
L 54.390625 8.296875 
L 54.390625 0 
L 12.40625 0 
z
" id="DejaVuSans-49"/>
        <path d="M 31.78125 66.40625 
Q 24.171875 66.40625 20.328125 58.90625 
Q 16.5 51.421875 16.5 36.375 
Q 16.5 21.390625 20.328125 13.890625 
Q 24.171875 6.390625 31.78125 6.390625 
Q 39.453125 6.390625 43.28125 13.890625 
Q 47.125 21.390625 47.125 36.375 
Q 47.125 51.421875 43.28125 58.90625 
Q 39.453125 66.40625 31.78125 66.40625 
z
M 31.78125 74.21875 
Q 44.046875 74.21875 50.515625 64.515625 
Q 56.984375 54.828125 56.984375 36.375 
Q 56.984375 17.96875 50.515625 8.265625 
Q 44.046875 -1.421875 31.78125 -1.421875 
Q 19.53125 -1.421875 13.0625 8.265625 
Q 6.59375 17.96875 6.59375 36.375 
Q 6.59375 54.828125 13.0625 64.515625 
Q 19.53125 74.21875 31.78125 74.21875 
z
" id="DejaVuSans-48"/>
        <path d="M 10.59375 35.5 
L 73.1875 35.5 
L 73.1875 27.203125 
L 10.59375 27.203125 
z
" id="DejaVuSans-8722"/>
        <path d="M 10.6875 12.40625 
L 21 12.40625 
L 21 0 
L 10.6875 0 
z
" id="DejaVuSans-46"/>
       </defs>
       <use transform="translate(0 0.765625)" xlink:href="#DejaVuSans-49"/>
       <use transform="translate(63.623047 0.765625)" xlink:href="#DejaVuSans-48"/>
       <use transform="translate(128.203125 39.046875)scale(0.7)" xlink:href="#DejaVuSans-8722"/>
       <use transform="translate(186.855469 39.046875)scale(0.7)" xlink:href="#DejaVuSans-49"/>
       <use transform="translate(231.391602 39.046875)scale(0.7)" xlink:href="#DejaVuSans-48"/>
       <use transform="translate(275.927734 39.046875)scale(0.7)" xlink:href="#DejaVuSans-46"/>
       <use transform="translate(298.178711 39.046875)scale(0.7)" xlink:href="#DejaVuSans-48"/>
      </g>
     </g>
    </g>
    <g id="xtick_2">
     <g id="line2d_3">
      <path clip-path="url(#pf406f05ac6)" d="M 169.866296 254.829354 
L 169.866296 2.834646 
" style="fill:none;stroke:#000000;stroke-linecap:square;stroke-opacity:0.1;stroke-width:0.5;"/>
     </g>
     <g id="line2d_4">
      <g>
       <use style="stroke:#000000;stroke-width:0.5;" x="169.866296" xlink:href="#m399f48f2db" y="254.829354"/>
      </g>
     </g>
     <g id="text_2">
      <!-- $\mathregular{10^{-7.5}}$ -->
      <g transform="translate(157.826296 266.508104)scale(0.08 -0.08)">
       <defs>
        <path d="M 8.203125 72.90625 
L 55.078125 72.90625 
L 55.078125 68.703125 
L 28.609375 0 
L 18.3125 0 
L 43.21875 64.59375 
L 8.203125 64.59375 
z
" id="DejaVuSans-55"/>
        <path d="M 10.796875 72.90625 
L 49.515625 72.90625 
L 49.515625 64.59375 
L 19.828125 64.59375 
L 19.828125 46.734375 
Q 21.96875 47.46875 24.109375 47.828125 
Q 26.265625 48.1875 28.421875 48.1875 
Q 40.625 48.1875 47.75 41.5 
Q 54.890625 34.8125 54.890625 23.390625 
Q 54.890625 11.625 47.5625 5.09375 
Q 40.234375 -1.421875 26.90625 -1.421875 
Q 22.3125 -1.421875 17.546875 -0.640625 
Q 12.796875 0.140625 7.71875 1.703125 
L 7.71875 11.625 
Q 12.109375 9.234375 16.796875 8.0625 
Q 21.484375 6.890625 26.703125 6.890625 
Q 35.15625 6.890625 40.078125 11.328125 
Q 45.015625 15.765625 45.015625 23.390625 
Q 45.015625 31 40.078125 35.4375 
Q 35.15625 39.890625 26.703125 39.890625 
Q 22.75 39.890625 18.8125 39.015625 
Q 14.890625 38.140625 10.796875 36.28125 
z
" id="DejaVuSans-53"/>
       </defs>
       <use transform="translate(0 0.684375)" xlink:href="#DejaVuSans-49"/>
       <use transform="translate(63.623047 0.684375)" xlink:href="#DejaVuSans-48"/>
       <use transform="translate(128.203125 38.965625)scale(0.7)" xlink:href="#DejaVuSans-8722"/>
       <use transform="translate(186.855469 38.965625)scale(0.7)" xlink:href="#DejaVuSans-55"/>
       <use transform="translate(231.391602 38.965625)scale(0.7)" xlink:href="#DejaVuSans-46"/>
       <use transform="translate(253.642578 38.965625)scale(0.7)" xlink:href="#DejaVuSans-53"/>
      </g>
     </g>
    </g>
    <g id="xtick_3">
     <g id="line2d_5">
      <path clip-path="url(#pf406f05ac6)" d="M 252.3964 254.829354 
L 252.3964 2.834646 
" style="fill:none;stroke:#000000;stroke-linecap:square;stroke-opacity:0.1;stroke-width:0.5;"/>
     </g>
     <g id="line2d_6">
      <g>
       <use style="stroke:#000000;stroke-width:0.5;" x="252.3964" xlink:href="#m399f48f2db" y="254.829354"/>
      </g>
     </g>
     <g id="text_3">
      <!-- $\mathregular{10^{-5.0}}$ -->
      <g transform="translate(240.3564 266.508104)scale(0.08 -0.08)">
       <use transform="translate(0 0.765625)" xlink:href="#DejaVuSans-49"/>
       <use transform="translate(63.623047 0.765625)" xlink:href="#DejaVuSans-48"/>
       <use transform="translate(128.203125 39.046875)scale(0.7)" xlink:href="#DejaVuSans-8722"/>
       <use transform="translate(186.855469 39.046875)scale(0.7)" xlink:href="#DejaVuSans-53"/>
       <use transform="translate(231.391602 39.046875)scale(0.7)" xlink:href="#DejaVuSans-46"/>
       <use transform="translate(253.642578 39.046875)scale(0.7)" xlink:href="#DejaVuSans-48"/>
      </g>
     </g>
    </g>
    <g id="xtick_4">
     <g id="line2d_7">
      <path clip-path="url(#pf406f05ac6)" d="M 334.926503 254.829354 
L 334.926503 2.834646 
" style="fill:none;stroke:#000000;stroke-linecap:square;stroke-opacity:0.1;stroke-width:0.5;"/>
     </g>
     <g id="line2d_8">
      <g>
       <use style="stroke:#000000;stroke-width:0.5;" x="334.926503" xlink:href="#m399f48f2db" y="254.829354"/>
      </g>
     </g>
     <g id="text_4">
      <!-- $\mathregular{10^{-2.5}}$ -->
      <g transform="translate(322.886503 266.508104)scale(0.08 -0.08)">
       <defs>
        <path d="M 19.1875 8.296875 
L 53.609375 8.296875 
L 53.609375 0 
L 7.328125 0 
L 7.328125 8.296875 
Q 12.9375 14.109375 22.625 23.890625 
Q 32.328125 33.6875 34.8125 36.53125 
Q 39.546875 41.84375 41.421875 45.53125 
Q 43.3125 49.21875 43.3125 52.78125 
Q 43.3125 58.59375 39.234375 62.25 
Q 35.15625 65.921875 28.609375 65.921875 
Q 23.96875 65.921875 18.8125 64.3125 
Q 13.671875 62.703125 7.8125 59.421875 
L 7.8125 69.390625 
Q 13.765625 71.78125 18.9375 73 
Q 24.125 74.21875 28.421875 74.21875 
Q 39.75 74.21875 46.484375 68.546875 
Q 53.21875 62.890625 53.21875 53.421875 
Q 53.21875 48.921875 51.53125 44.890625 
Q 49.859375 40.875 45.40625 35.40625 
Q 44.1875 33.984375 37.640625 27.21875 
Q 31.109375 20.453125 19.1875 8.296875 
z
" id="DejaVuSans-50"/>
       </defs>
       <use transform="translate(0 0.765625)" xlink:href="#DejaVuSans-49"/>
       <use transform="translate(63.623047 0.765625)" xlink:href="#DejaVuSans-48"/>
       <use transform="translate(128.203125 39.046875)scale(0.7)" xlink:href="#DejaVuSans-8722"/>
       <use transform="translate(186.855469 39.046875)scale(0.7)" xlink:href="#DejaVuSans-50"/>
       <use transform="translate(231.391602 39.046875)scale(0.7)" xlink:href="#DejaVuSans-46"/>
       <use transform="translate(253.642578 39.046875)scale(0.7)" xlink:href="#DejaVuSans-53"/>
      </g>
     </g>
    </g>
    <g id="xtick_5">
     <g id="line2d_9">
      <path clip-path="url(#pf406f05ac6)" d="M 417.456607 254.829354 
L 417.456607 2.834646 
" style="fill:none;stroke:#000000;stroke-linecap:square;stroke-opacity:0.1;stroke-width:0.5;"/>
     </g>
     <g id="line2d_10">
      <g>
       <use style="stroke:#000000;stroke-width:0.5;" x="417.456607" xlink:href="#m399f48f2db" y="254.829354"/>
      </g>
     </g>
     <g id="text_5">
      <!-- $\mathregular{10^{0.0}}$ -->
      <g transform="translate(407.736607 266.508104)scale(0.08 -0.08)">
       <use transform="translate(0 0.765625)" xlink:href="#DejaVuSans-49"/>
       <use transform="translate(63.623047 0.765625)" xlink:href="#DejaVuSans-48"/>
       <use transform="translate(128.203125 39.046875)scale(0.7)" xlink:href="#DejaVuSans-48"/>
       <use transform="translate(172.739258 39.046875)scale(0.7)" xlink:href="#DejaVuSans-46"/>
       <use transform="translate(194.990234 39.046875)scale(0.7)" xlink:href="#DejaVuSans-48"/>
      </g>
     </g>
    </g>
    <g id="xtick_6">
     <g id="line2d_11">
      <defs>
       <path d="M 0 0 
L 0 2 
" id="m4a632804a3" style="stroke:#000000;stroke-width:0.4;"/>
      </defs>
      <g>
       <use style="stroke:#000000;stroke-width:0.4;" x="54.32415" xlink:href="#m4a632804a3" y="254.829354"/>
      </g>
     </g>
    </g>
    <g id="xtick_7">
     <g id="line2d_12">
      <g>
       <use style="stroke:#000000;stroke-width:0.4;" x="120.348234" xlink:href="#m4a632804a3" y="254.829354"/>
      </g>
     </g>
    </g>
    <g id="xtick_8">
     <g id="line2d_13">
      <g>
       <use style="stroke:#000000;stroke-width:0.4;" x="153.360275" xlink:href="#m4a632804a3" y="254.829354"/>
      </g>
     </g>
    </g>
    <g id="xtick_9">
     <g id="line2d_14">
      <g>
       <use style="stroke:#000000;stroke-width:0.4;" x="186.372317" xlink:href="#m4a632804a3" y="254.829354"/>
      </g>
     </g>
    </g>
    <g id="xtick_10">
     <g id="line2d_15">
      <g>
       <use style="stroke:#000000;stroke-width:0.4;" x="219.384358" xlink:href="#m4a632804a3" y="254.829354"/>
      </g>
     </g>
    </g>
    <g id="xtick_11">
     <g id="line2d_16">
      <g>
       <use style="stroke:#000000;stroke-width:0.4;" x="285.408441" xlink:href="#m4a632804a3" y="254.829354"/>
      </g>
     </g>
    </g>
    <g id="xtick_12">
     <g id="line2d_17">
      <g>
       <use style="stroke:#000000;stroke-width:0.4;" x="318.420483" xlink:href="#m4a632804a3" y="254.829354"/>
      </g>
     </g>
    </g>
    <g id="xtick_13">
     <g id="line2d_18">
      <g>
       <use style="stroke:#000000;stroke-width:0.4;" x="351.432524" xlink:href="#m4a632804a3" y="254.829354"/>
      </g>
     </g>
    </g>
    <g id="xtick_14">
     <g id="line2d_19">
      <g>
       <use style="stroke:#000000;stroke-width:0.4;" x="384.444566" xlink:href="#m4a632804a3" y="254.829354"/>
      </g>
     </g>
    </g>
    <g id="text_6">
     <!-- Error -->
     <g transform="translate(225.236747 280.530136)scale(0.11 -0.11)">
      <defs>
       <path d="M 9.8125 72.90625 
L 55.90625 72.90625 
L 55.90625 64.59375 
L 19.671875 64.59375 
L 19.671875 43.015625 
L 54.390625 43.015625 
L 54.390625 34.71875 
L 19.671875 34.71875 
L 19.671875 8.296875 
L 56.78125 8.296875 
L 56.78125 0 
L 9.8125 0 
z
" id="DejaVuSans-69"/>
       <path d="M 41.109375 46.296875 
Q 39.59375 47.171875 37.8125 47.578125 
Q 36.03125 48 33.890625 48 
Q 26.265625 48 22.1875 43.046875 
Q 18.109375 38.09375 18.109375 28.8125 
L 18.109375 0 
L 9.078125 0 
L 9.078125 54.6875 
L 18.109375 54.6875 
L 18.109375 46.1875 
Q 20.953125 51.171875 25.484375 53.578125 
Q 30.03125 56 36.53125 56 
Q 37.453125 56 38.578125 55.875 
Q 39.703125 55.765625 41.0625 55.515625 
z
" id="DejaVuSans-114"/>
       <path d="M 30.609375 48.390625 
Q 23.390625 48.390625 19.1875 42.75 
Q 14.984375 37.109375 14.984375 27.296875 
Q 14.984375 17.484375 19.15625 11.84375 
Q 23.34375 6.203125 30.609375 6.203125 
Q 37.796875 6.203125 41.984375 11.859375 
Q 46.1875 17.53125 46.1875 27.296875 
Q 46.1875 37.015625 41.984375 42.703125 
Q 37.796875 48.390625 30.609375 48.390625 
z
M 30.609375 56 
Q 42.328125 56 49.015625 48.375 
Q 55.71875 40.765625 55.71875 27.296875 
Q 55.71875 13.875 49.015625 6.21875 
Q 42.328125 -1.421875 30.609375 -1.421875 
Q 18.84375 -1.421875 12.171875 6.21875 
Q 5.515625 13.875 5.515625 27.296875 
Q 5.515625 40.765625 12.171875 48.375 
Q 18.84375 56 30.609375 56 
z
" id="DejaVuSans-111"/>
      </defs>
      <use xlink:href="#DejaVuSans-69"/>
      <use x="63.183594" xlink:href="#DejaVuSans-114"/>
      <use x="102.546875" xlink:href="#DejaVuSans-114"/>
      <use x="141.410156" xlink:href="#DejaVuSans-111"/>
      <use x="202.591797" xlink:href="#DejaVuSans-114"/>
     </g>
    </g>
   </g>
   <g id="matplotlib.axis_2">
    <g id="ytick_1">
     <g id="line2d_20">
      <path clip-path="url(#pf406f05ac6)" d="M 48.115483 201.736124 
L 429.165354 201.736124 
" style="fill:none;stroke:#000000;stroke-linecap:square;stroke-opacity:0.1;stroke-width:0.5;"/>
     </g>
     <g id="line2d_21">
      <defs>
       <path d="M 0 0 
L 2.5 0 
" id="m7a7d28627a" style="stroke:#000000;stroke-width:0.5;"/>
      </defs>
      <g>
       <use style="stroke:#000000;stroke-width:0.5;" x="48.115483" xlink:href="#m7a7d28627a" y="201.736124"/>
      </g>
     </g>
     <g id="text_7">
      <!-- $\mathregular{10^{-1.0}}$ -->
      <g transform="translate(18.435483 204.775499)scale(0.08 -0.08)">
       <use transform="translate(0 0.765625)" xlink:href="#DejaVuSans-49"/>
       <use transform="translate(63.623047 0.765625)" xlink:href="#DejaVuSans-48"/>
       <use transform="translate(128.203125 39.046875)scale(0.7)" xlink:href="#DejaVuSans-8722"/>
       <use transform="translate(186.855469 39.046875)scale(0.7)" xlink:href="#DejaVuSans-49"/>
       <use transform="translate(231.391602 39.046875)scale(0.7)" xlink:href="#DejaVuSans-46"/>
       <use transform="translate(253.642578 39.046875)scale(0.7)" xlink:href="#DejaVuSans-48"/>
      </g>
     </g>
    </g>
    <g id="ytick_2">
     <g id="line2d_22">
      <path clip-path="url(#pf406f05ac6)" d="M 48.115483 139.196298 
L 429.165354 139.196298 
" style="fill:none;stroke:#000000;stroke-linecap:square;stroke-opacity:0.1;stroke-width:0.5;"/>
     </g>
     <g id="line2d_23">
      <g>
       <use style="stroke:#000000;stroke-width:0.5;" x="48.115483" xlink:href="#m7a7d28627a" y="139.196298"/>
      </g>
     </g>
     <g id="text_8">
      <!-- $\mathregular{10^{-0.5}}$ -->
      <g transform="translate(18.435483 142.235673)scale(0.08 -0.08)">
       <use transform="translate(0 0.765625)" xlink:href="#DejaVuSans-49"/>
       <use transform="translate(63.623047 0.765625)" xlink:href="#DejaVuSans-48"/>
       <use transform="translate(128.203125 39.046875)scale(0.7)" xlink:href="#DejaVuSans-8722"/>
       <use transform="translate(186.855469 39.046875)scale(0.7)" xlink:href="#DejaVuSans-48"/>
       <use transform="translate(231.391602 39.046875)scale(0.7)" xlink:href="#DejaVuSans-46"/>
       <use transform="translate(253.642578 39.046875)scale(0.7)" xlink:href="#DejaVuSans-53"/>
      </g>
     </g>
    </g>
    <g id="ytick_3">
     <g id="line2d_24">
      <path clip-path="url(#pf406f05ac6)" d="M 48.115483 76.656472 
L 429.165354 76.656472 
" style="fill:none;stroke:#000000;stroke-linecap:square;stroke-opacity:0.1;stroke-width:0.5;"/>
     </g>
     <g id="line2d_25">
      <g>
       <use style="stroke:#000000;stroke-width:0.5;" x="48.115483" xlink:href="#m7a7d28627a" y="76.656472"/>
      </g>
     </g>
     <g id="text_9">
      <!-- $\mathregular{10^{0.0}}$ -->
      <g transform="translate(23.075483 79.695847)scale(0.08 -0.08)">
       <use transform="translate(0 0.765625)" xlink:href="#DejaVuSans-49"/>
       <use transform="translate(63.623047 0.765625)" xlink:href="#DejaVuSans-48"/>
       <use transform="translate(128.203125 39.046875)scale(0.7)" xlink:href="#DejaVuSans-48"/>
       <use transform="translate(172.739258 39.046875)scale(0.7)" xlink:href="#DejaVuSans-46"/>
       <use transform="translate(194.990234 39.046875)scale(0.7)" xlink:href="#DejaVuSans-48"/>
      </g>
     </g>
    </g>
    <g id="ytick_4">
     <g id="line2d_26">
      <path clip-path="url(#pf406f05ac6)" d="M 48.115483 14.116645 
L 429.165354 14.116645 
" style="fill:none;stroke:#000000;stroke-linecap:square;stroke-opacity:0.1;stroke-width:0.5;"/>
     </g>
     <g id="line2d_27">
      <g>
       <use style="stroke:#000000;stroke-width:0.5;" x="48.115483" xlink:href="#m7a7d28627a" y="14.116645"/>
      </g>
     </g>
     <g id="text_10">
      <!-- $\mathregular{10^{0.5}}$ -->
      <g transform="translate(23.075483 17.15602)scale(0.08 -0.08)">
       <use transform="translate(0 0.765625)" xlink:href="#DejaVuSans-49"/>
       <use transform="translate(63.623047 0.765625)" xlink:href="#DejaVuSans-48"/>
       <use transform="translate(128.203125 39.046875)scale(0.7)" xlink:href="#DejaVuSans-48"/>
       <use transform="translate(172.739258 39.046875)scale(0.7)" xlink:href="#DejaVuSans-46"/>
       <use transform="translate(194.990234 39.046875)scale(0.7)" xlink:href="#DejaVuSans-53"/>
      </g>
     </g>
    </g>
    <g id="text_11">
     <!-- Time (s) -->
     <g transform="translate(12.147826 151.193797)rotate(-90)scale(0.11 -0.11)">
      <defs>
       <path d="M -0.296875 72.90625 
L 61.375 72.90625 
L 61.375 64.59375 
L 35.5 64.59375 
L 35.5 0 
L 25.59375 0 
L 25.59375 64.59375 
L -0.296875 64.59375 
z
" id="DejaVuSans-84"/>
       <path d="M 9.421875 54.6875 
L 18.40625 54.6875 
L 18.40625 0 
L 9.421875 0 
z
M 9.421875 75.984375 
L 18.40625 75.984375 
L 18.40625 64.59375 
L 9.421875 64.59375 
z
" id="DejaVuSans-105"/>
       <path d="M 52 44.1875 
Q 55.375 50.25 60.0625 53.125 
Q 64.75 56 71.09375 56 
Q 79.640625 56 84.28125 50.015625 
Q 88.921875 44.046875 88.921875 33.015625 
L 88.921875 0 
L 79.890625 0 
L 79.890625 32.71875 
Q 79.890625 40.578125 77.09375 44.375 
Q 74.3125 48.1875 68.609375 48.1875 
Q 61.625 48.1875 57.5625 43.546875 
Q 53.515625 38.921875 53.515625 30.90625 
L 53.515625 0 
L 44.484375 0 
L 44.484375 32.71875 
Q 44.484375 40.625 41.703125 44.40625 
Q 38.921875 48.1875 33.109375 48.1875 
Q 26.21875 48.1875 22.15625 43.53125 
Q 18.109375 38.875 18.109375 30.90625 
L 18.109375 0 
L 9.078125 0 
L 9.078125 54.6875 
L 18.109375 54.6875 
L 18.109375 46.1875 
Q 21.1875 51.21875 25.484375 53.609375 
Q 29.78125 56 35.6875 56 
Q 41.65625 56 45.828125 52.96875 
Q 50 49.953125 52 44.1875 
z
" id="DejaVuSans-109"/>
       <path d="M 56.203125 29.59375 
L 56.203125 25.203125 
L 14.890625 25.203125 
Q 15.484375 15.921875 20.484375 11.0625 
Q 25.484375 6.203125 34.421875 6.203125 
Q 39.59375 6.203125 44.453125 7.46875 
Q 49.3125 8.734375 54.109375 11.28125 
L 54.109375 2.78125 
Q 49.265625 0.734375 44.1875 -0.34375 
Q 39.109375 -1.421875 33.890625 -1.421875 
Q 20.796875 -1.421875 13.15625 6.1875 
Q 5.515625 13.8125 5.515625 26.8125 
Q 5.515625 40.234375 12.765625 48.109375 
Q 20.015625 56 32.328125 56 
Q 43.359375 56 49.78125 48.890625 
Q 56.203125 41.796875 56.203125 29.59375 
z
M 47.21875 32.234375 
Q 47.125 39.59375 43.09375 43.984375 
Q 39.0625 48.390625 32.421875 48.390625 
Q 24.90625 48.390625 20.390625 44.140625 
Q 15.875 39.890625 15.1875 32.171875 
z
" id="DejaVuSans-101"/>
       <path id="DejaVuSans-32"/>
       <path d="M 31 75.875 
Q 24.46875 64.65625 21.28125 53.65625 
Q 18.109375 42.671875 18.109375 31.390625 
Q 18.109375 20.125 21.3125 9.0625 
Q 24.515625 -2 31 -13.1875 
L 23.1875 -13.1875 
Q 15.875 -1.703125 12.234375 9.375 
Q 8.59375 20.453125 8.59375 31.390625 
Q 8.59375 42.28125 12.203125 53.3125 
Q 15.828125 64.359375 23.1875 75.875 
z
" id="DejaVuSans-40"/>
       <path d="M 44.28125 53.078125 
L 44.28125 44.578125 
Q 40.484375 46.53125 36.375 47.5 
Q 32.28125 48.484375 27.875 48.484375 
Q 21.1875 48.484375 17.84375 46.4375 
Q 14.5 44.390625 14.5 40.28125 
Q 14.5 37.15625 16.890625 35.375 
Q 19.28125 33.59375 26.515625 31.984375 
L 29.59375 31.296875 
Q 39.15625 29.25 43.1875 25.515625 
Q 47.21875 21.78125 47.21875 15.09375 
Q 47.21875 7.46875 41.1875 3.015625 
Q 35.15625 -1.421875 24.609375 -1.421875 
Q 20.21875 -1.421875 15.453125 -0.5625 
Q 10.6875 0.296875 5.421875 2 
L 5.421875 11.28125 
Q 10.40625 8.6875 15.234375 7.390625 
Q 20.0625 6.109375 24.8125 6.109375 
Q 31.15625 6.109375 34.5625 8.28125 
Q 37.984375 10.453125 37.984375 14.40625 
Q 37.984375 18.0625 35.515625 20.015625 
Q 33.0625 21.96875 24.703125 23.78125 
L 21.578125 24.515625 
Q 13.234375 26.265625 9.515625 29.90625 
Q 5.8125 33.546875 5.8125 39.890625 
Q 5.8125 47.609375 11.28125 51.796875 
Q 16.75 56 26.8125 56 
Q 31.78125 56 36.171875 55.265625 
Q 40.578125 54.546875 44.28125 53.078125 
z
" id="DejaVuSans-115"/>
       <path d="M 8.015625 75.875 
L 15.828125 75.875 
Q 23.140625 64.359375 26.78125 53.3125 
Q 30.421875 42.28125 30.421875 31.390625 
Q 30.421875 20.453125 26.78125 9.375 
Q 23.140625 -1.703125 15.828125 -13.1875 
L 8.015625 -13.1875 
Q 14.5 -2 17.703125 9.0625 
Q 20.90625 20.125 20.90625 31.390625 
Q 20.90625 42.671875 17.703125 53.65625 
Q 14.5 64.65625 8.015625 75.875 
z
" id="DejaVuSans-41"/>
      </defs>
      <use xlink:href="#DejaVuSans-84"/>
      <use x="57.958984" xlink:href="#DejaVuSans-105"/>
      <use x="85.742188" xlink:href="#DejaVuSans-109"/>
      <use x="183.154297" xlink:href="#DejaVuSans-101"/>
      <use x="244.677734" xlink:href="#DejaVuSans-32"/>
      <use x="276.464844" xlink:href="#DejaVuSans-40"/>
      <use x="315.478516" xlink:href="#DejaVuSans-115"/>
      <use x="367.578125" xlink:href="#DejaVuSans-41"/>
     </g>
    </g>
   </g>
   <g id="line2d_28">
    <path clip-path="url(#pf406f05ac6)" d="M 314.251337 106.248648 
L 268.270042 106.226631 
L 239.615838 104.69361 
L 204.427821 101.147612 
L 168.386772 94.411958 
L 130.554673 80.569173 
L 94.514681 67.600023 
L 58.899913 44.477272 
" style="fill:none;stroke:#009afa;stroke-width:3;"/>
   </g>
   <g id="PathCollection_1">
    <defs>
     <path d="M 0 2 
C 0.530406 2 1.03916 1.789267 1.414214 1.414214 
C 1.789267 1.03916 2 0.530406 2 0 
C 2 -0.530406 1.789267 -1.03916 1.414214 -1.414214 
C 1.03916 -1.789267 0.530406 -2 0 -2 
C -0.530406 -2 -1.03916 -1.789267 -1.414214 -1.414214 
C -1.789267 -1.03916 -2 -0.530406 -2 0 
C -2 0.530406 -1.789267 1.03916 -1.414214 1.414214 
C -1.03916 1.789267 -0.530406 2 0 2 
z
" id="mde2b35ef32" style="stroke:#000000;"/>
    </defs>
    <g clip-path="url(#pf406f05ac6)">
     <use style="fill:#009afa;stroke:#000000;" x="314.251337" xlink:href="#mde2b35ef32" y="106.248648"/>
     <use style="fill:#009afa;stroke:#000000;" x="268.270042" xlink:href="#mde2b35ef32" y="106.226631"/>
     <use style="fill:#009afa;stroke:#000000;" x="239.615838" xlink:href="#mde2b35ef32" y="104.69361"/>
     <use style="fill:#009afa;stroke:#000000;" x="204.427821" xlink:href="#mde2b35ef32" y="101.147612"/>
     <use style="fill:#009afa;stroke:#000000;" x="168.386772" xlink:href="#mde2b35ef32" y="94.411958"/>
     <use style="fill:#009afa;stroke:#000000;" x="130.554673" xlink:href="#mde2b35ef32" y="80.569173"/>
     <use style="fill:#009afa;stroke:#000000;" x="94.514681" xlink:href="#mde2b35ef32" y="67.600023"/>
     <use style="fill:#009afa;stroke:#000000;" x="58.899913" xlink:href="#mde2b35ef32" y="44.477272"/>
    </g>
   </g>
   <g id="line2d_29">
    <path clip-path="url(#pf406f05ac6)" d="M 357.879214 172.826892 
L 307.934259 152.112283 
L 293.216971 135.500446 
L 262.755555 113.894536 
L 225.908941 95.337217 
L 202.226751 65.350154 
L 178.383021 38.874591 
L 146.962757 9.966571 
" style="fill:none;stroke:#e36f47;stroke-width:3;"/>
   </g>
   <g id="PathCollection_2">
    <defs>
     <path d="M -2 2 
L 2 2 
L 2 -2 
L -2 -2 
z
" id="m0f37ca6970" style="stroke:#000000;"/>
    </defs>
    <g clip-path="url(#pf406f05ac6)">
     <use style="fill:#e36f47;stroke:#000000;" x="357.879214" xlink:href="#m0f37ca6970" y="172.826892"/>
     <use style="fill:#e36f47;stroke:#000000;" x="307.934259" xlink:href="#m0f37ca6970" y="152.112283"/>
     <use style="fill:#e36f47;stroke:#000000;" x="293.216971" xlink:href="#m0f37ca6970" y="135.500446"/>
     <use style="fill:#e36f47;stroke:#000000;" x="262.755555" xlink:href="#m0f37ca6970" y="113.894536"/>
     <use style="fill:#e36f47;stroke:#000000;" x="225.908941" xlink:href="#m0f37ca6970" y="95.337217"/>
     <use style="fill:#e36f47;stroke:#000000;" x="202.226751" xlink:href="#m0f37ca6970" y="65.350154"/>
     <use style="fill:#e36f47;stroke:#000000;" x="178.383021" xlink:href="#m0f37ca6970" y="38.874591"/>
     <use style="fill:#e36f47;stroke:#000000;" x="146.962757" xlink:href="#m0f37ca6970" y="9.966571"/>
    </g>
   </g>
   <g id="patch_3">
    <path d="M 48.115483 254.829354 
L 48.115483 2.834646 
" style="fill:none;stroke:#000000;stroke-linecap:square;stroke-linejoin:miter;"/>
   </g>
   <g id="patch_4">
    <path d="M 48.115483 254.829354 
L 429.165354 254.829354 
" style="fill:none;stroke:#000000;stroke-linecap:square;stroke-linejoin:miter;"/>
   </g>
   <g id="line2d_30">
    <path clip-path="url(#pf406f05ac6)" d="M 418.380924 247.697429 
L 343.599225 230.938413 
L 351.939483 220.214233 
L 290.117679 213.960728 
L 272.498163 191.110972 
L 250.712658 178.41705 
L 231.60681 161.759562 
L 197.021814 143.273852 
" style="fill:none;stroke:#3ea44e;stroke-width:3;"/>
   </g>
   <g id="PathCollection_3">
    <defs>
     <path d="M 0 -2 
L -0.449028 -0.618034 
L -1.902113 -0.618034 
L -0.726543 0.236068 
L -1.175571 1.618034 
L -0 0.763932 
L 1.175571 1.618034 
L 0.726543 0.236068 
L 1.902113 -0.618034 
L 0.449028 -0.618034 
z
" id="m3c2b619646" style="stroke:#000000;"/>
    </defs>
    <g clip-path="url(#pf406f05ac6)">
     <use style="fill:#3ea44e;stroke:#000000;" x="418.380924" xlink:href="#m3c2b619646" y="247.697429"/>
     <use style="fill:#3ea44e;stroke:#000000;" x="343.599225" xlink:href="#m3c2b619646" y="230.938413"/>
     <use style="fill:#3ea44e;stroke:#000000;" x="351.939483" xlink:href="#m3c2b619646" y="220.214233"/>
     <use style="fill:#3ea44e;stroke:#000000;" x="290.117679" xlink:href="#m3c2b619646" y="213.960728"/>
     <use style="fill:#3ea44e;stroke:#000000;" x="272.498163" xlink:href="#m3c2b619646" y="191.110972"/>
     <use style="fill:#3ea44e;stroke:#000000;" x="250.712658" xlink:href="#m3c2b619646" y="178.41705"/>
     <use style="fill:#3ea44e;stroke:#000000;" x="231.60681" xlink:href="#m3c2b619646" y="161.759562"/>
     <use style="fill:#3ea44e;stroke:#000000;" x="197.021814" xlink:href="#m3c2b619646" y="143.273852"/>
    </g>
   </g>
   <g id="line2d_31">
    <path clip-path="url(#pf406f05ac6)" d="M 403.220085 239.391482 
L 369.91508 220.109265 
L 334.008702 197.922248 
L 299.934291 167.50562 
L 262.638455 134.935667 
L 224.337583 94.803631 
L 190.515867 61.285703 
L 155.170881 25.555644 
" style="fill:none;stroke:#c371d2;stroke-width:3;"/>
   </g>
   <g id="PathCollection_4">
    <defs>
     <path d="M -0 2.828427 
L 2.828427 0 
L 0 -2.828427 
L -2.828427 -0 
z
" id="ma920f83fb3" style="stroke:#000000;"/>
    </defs>
    <g clip-path="url(#pf406f05ac6)">
     <use style="fill:#c371d2;stroke:#000000;" x="403.220085" xlink:href="#ma920f83fb3" y="239.391482"/>
     <use style="fill:#c371d2;stroke:#000000;" x="369.91508" xlink:href="#ma920f83fb3" y="220.109265"/>
     <use style="fill:#c371d2;stroke:#000000;" x="334.008702" xlink:href="#ma920f83fb3" y="197.922248"/>
     <use style="fill:#c371d2;stroke:#000000;" x="299.934291" xlink:href="#ma920f83fb3" y="167.50562"/>
     <use style="fill:#c371d2;stroke:#000000;" x="262.638455" xlink:href="#ma920f83fb3" y="134.935667"/>
     <use style="fill:#c371d2;stroke:#000000;" x="224.337583" xlink:href="#ma920f83fb3" y="94.803631"/>
     <use style="fill:#c371d2;stroke:#000000;" x="190.515867" xlink:href="#ma920f83fb3" y="61.285703"/>
     <use style="fill:#c371d2;stroke:#000000;" x="155.170881" xlink:href="#ma920f83fb3" y="25.555644"/>
    </g>
   </g>
   <g id="line2d_32">
    <path clip-path="url(#pf406f05ac6)" d="M 391.841261 236.265263 
L 351.201866 210.294791 
L 320.34861 182.053711 
L 252.121351 147.325743 
L 205.880497 114.942911 
L 168.289667 76.385725 
L 131.163047 45.477246 
L 100.176461 10.452108 
" style="fill:none;stroke:#ac8e18;stroke-width:3;"/>
   </g>
   <g id="PathCollection_5">
    <defs>
     <path d="M 0 -2 
L -1.732051 -1 
L -1.732051 1 
L -0 2 
L 1.732051 1 
L 1.732051 -1 
z
" id="m0c100ab374" style="stroke:#000000;"/>
    </defs>
    <g clip-path="url(#pf406f05ac6)">
     <use style="fill:#ac8e18;stroke:#000000;" x="391.841261" xlink:href="#m0c100ab374" y="236.265263"/>
     <use style="fill:#ac8e18;stroke:#000000;" x="351.201866" xlink:href="#m0c100ab374" y="210.294791"/>
     <use style="fill:#ac8e18;stroke:#000000;" x="320.34861" xlink:href="#m0c100ab374" y="182.053711"/>
     <use style="fill:#ac8e18;stroke:#000000;" x="252.121351" xlink:href="#m0c100ab374" y="147.325743"/>
     <use style="fill:#ac8e18;stroke:#000000;" x="205.880497" xlink:href="#m0c100ab374" y="114.942911"/>
     <use style="fill:#ac8e18;stroke:#000000;" x="168.289667" xlink:href="#m0c100ab374" y="76.385725"/>
     <use style="fill:#ac8e18;stroke:#000000;" x="131.163047" xlink:href="#m0c100ab374" y="45.477246"/>
     <use style="fill:#ac8e18;stroke:#000000;" x="100.176461" xlink:href="#m0c100ab374" y="10.452108"/>
    </g>
   </g>
   <g id="line2d_33">
    <path clip-path="url(#pf406f05ac6)" d="M 372.855735 203.897567 
L 356.455015 189.468756 
L 347.434049 176.58327 
L 322.378864 164.97307 
L 285.340027 142.085882 
L 255.626771 120.856262 
L 229.925104 96.802952 
L 201.245432 67.796056 
" style="fill:none;stroke:#00aaae;stroke-width:3;"/>
   </g>
   <g id="PathCollection_6">
    <defs>
     <path d="M 0.828427 2 
L 0.765367 0.765367 
L 2 0.828427 
L 2 -0.828427 
L 0.765367 -0.765367 
L 0.828427 -2 
L -0.828427 -2 
L -0.765367 -0.765367 
L -2 -0.828427 
L -2 0.828427 
L -0.765367 0.765367 
L -0.828427 2 
L 0.828427 2 
L 0.765367 0.765367 
L 0.828427 2 
" id="mcfca4680a1" style="stroke:#000000;"/>
    </defs>
    <g clip-path="url(#pf406f05ac6)">
     <use style="fill:#00aaae;stroke:#000000;" x="372.855735" xlink:href="#mcfca4680a1" y="203.897567"/>
     <use style="fill:#00aaae;stroke:#000000;" x="356.455015" xlink:href="#mcfca4680a1" y="189.468756"/>
     <use style="fill:#00aaae;stroke:#000000;" x="347.434049" xlink:href="#mcfca4680a1" y="176.58327"/>
     <use style="fill:#00aaae;stroke:#000000;" x="322.378864" xlink:href="#mcfca4680a1" y="164.97307"/>
     <use style="fill:#00aaae;stroke:#000000;" x="285.340027" xlink:href="#mcfca4680a1" y="142.085882"/>
     <use style="fill:#00aaae;stroke:#000000;" x="255.626771" xlink:href="#mcfca4680a1" y="120.856262"/>
     <use style="fill:#00aaae;stroke:#000000;" x="229.925104" xlink:href="#mcfca4680a1" y="96.802952"/>
     <use style="fill:#00aaae;stroke:#000000;" x="201.245432" xlink:href="#mcfca4680a1" y="67.796056"/>
    </g>
   </g>
   <g id="line2d_34">
    <path clip-path="url(#pf406f05ac6)" d="M 399.474993 198.479515 
L 359.004573 190.197397 
L 334.070682 181.522344 
L 312.982511 164.744543 
L 286.442594 149.119815 
L 257.775345 131.144345 
L 244.421719 107.78936 
L 204.61783 78.834577 
" style="fill:none;stroke:#ed5e93;stroke-width:3;"/>
   </g>
   <g id="PathCollection_7">
    <defs>
     <path d="M -0.828427 2 
L 0 1.082392 
L 0.828427 2 
L 2 0.828427 
L 1.082392 0 
L 2 -0.828427 
L 0.828427 -2 
L 0 -1.082392 
L -0.828427 -2 
L -2 -0.828427 
L -1.082392 -0 
L -2 0.828427 
L -0.828427 2 
L -0 1.082392 
L -0.828427 2 
" id="mdc6b2c5639" style="stroke:#000000;"/>
    </defs>
    <g clip-path="url(#pf406f05ac6)">
     <use style="fill:#ed5e93;stroke:#000000;" x="399.474993" xlink:href="#mdc6b2c5639" y="198.479515"/>
     <use style="fill:#ed5e93;stroke:#000000;" x="359.004573" xlink:href="#mdc6b2c5639" y="190.197397"/>
     <use style="fill:#ed5e93;stroke:#000000;" x="334.070682" xlink:href="#mdc6b2c5639" y="181.522344"/>
     <use style="fill:#ed5e93;stroke:#000000;" x="312.982511" xlink:href="#mdc6b2c5639" y="164.744543"/>
     <use style="fill:#ed5e93;stroke:#000000;" x="286.442594" xlink:href="#mdc6b2c5639" y="149.119815"/>
     <use style="fill:#ed5e93;stroke:#000000;" x="257.775345" xlink:href="#mdc6b2c5639" y="131.144345"/>
     <use style="fill:#ed5e93;stroke:#000000;" x="244.421719" xlink:href="#mdc6b2c5639" y="107.78936"/>
     <use style="fill:#ed5e93;stroke:#000000;" x="204.61783" xlink:href="#mdc6b2c5639" y="78.834577"/>
    </g>
   </g>
   <g id="line2d_35">
    <path clip-path="url(#pf406f05ac6)" d="M 401.009304 246.329969 
L 367.464328 226.798333 
L 333.040906 201.44848 
L 298.694797 169.890767 
L 259.454168 130.935172 
L 221.623972 87.853909 
L 187.786713 57.191922 
L 151.762063 23.207544 
" style="fill:none;stroke:#c68225;stroke-width:3;"/>
   </g>
   <g id="PathCollection_8">
    <defs>
     <path d="M 0 -2 
L -2 2 
L 2 2 
z
" id="m164ca2449e" style="stroke:#000000;"/>
    </defs>
    <g clip-path="url(#pf406f05ac6)">
     <use style="fill:#c68225;stroke:#000000;" x="401.009304" xlink:href="#m164ca2449e" y="246.329969"/>
     <use style="fill:#c68225;stroke:#000000;" x="367.464328" xlink:href="#m164ca2449e" y="226.798333"/>
     <use style="fill:#c68225;stroke:#000000;" x="333.040906" xlink:href="#m164ca2449e" y="201.44848"/>
     <use style="fill:#c68225;stroke:#000000;" x="298.694797" xlink:href="#m164ca2449e" y="169.890767"/>
     <use style="fill:#c68225;stroke:#000000;" x="259.454168" xlink:href="#m164ca2449e" y="130.935172"/>
     <use style="fill:#c68225;stroke:#000000;" x="221.623972" xlink:href="#m164ca2449e" y="87.853909"/>
     <use style="fill:#c68225;stroke:#000000;" x="187.786713" xlink:href="#m164ca2449e" y="57.191922"/>
     <use style="fill:#c68225;stroke:#000000;" x="151.762063" xlink:href="#m164ca2449e" y="23.207544"/>
    </g>
   </g>
   <g id="legend_1">
    <g id="patch_5">
     <path d="M 52.115483 250.829354 
L 171.032983 250.829354 
L 171.032983 147.866854 
L 52.115483 147.866854 
z
" style="fill:#ffffff;stroke:#000000;stroke-linejoin:miter;"/>
    </g>
    <g id="line2d_36">
     <path d="M 58.515483 157.545604 
L 74.515483 157.545604 
" style="fill:none;stroke:#009afa;stroke-linejoin:miter;"/>
    </g>
    <g id="line2d_37">
     <defs>
      <path d="M 0 3.2 
C 0.84865 3.2 1.662656 2.862828 2.262742 2.262742 
C 2.862828 1.662656 3.2 0.84865 3.2 0 
C 3.2 -0.84865 2.862828 -1.662656 2.262742 -2.262742 
C 1.662656 -2.862828 0.84865 -3.2 0 -3.2 
C -0.84865 -3.2 -1.662656 -2.862828 -2.262742 -2.262742 
C -2.862828 -1.662656 -3.2 -0.84865 -3.2 0 
C -3.2 0.84865 -2.862828 1.662656 -2.262742 2.262742 
C -1.662656 2.862828 -0.84865 3.2 0 3.2 
z
" id="mf9c836d80f" style="stroke:#000000;stroke-width:1.6;"/>
     </defs>
     <g>
      <use style="fill:#009afa;stroke:#000000;stroke-width:1.6;" x="66.515483" xlink:href="#mf9c836d80f" y="157.545604"/>
     </g>
    </g>
    <g id="text_12">
     <!-- Tsit5 -->
     <g transform="translate(80.915483 160.345604)scale(0.08 -0.08)">
      <defs>
       <path d="M 18.3125 70.21875 
L 18.3125 54.6875 
L 36.8125 54.6875 
L 36.8125 47.703125 
L 18.3125 47.703125 
L 18.3125 18.015625 
Q 18.3125 11.328125 20.140625 9.421875 
Q 21.96875 7.515625 27.59375 7.515625 
L 36.8125 7.515625 
L 36.8125 0 
L 27.59375 0 
Q 17.1875 0 13.234375 3.875 
Q 9.28125 7.765625 9.28125 18.015625 
L 9.28125 47.703125 
L 2.6875 47.703125 
L 2.6875 54.6875 
L 9.28125 54.6875 
L 9.28125 70.21875 
z
" id="DejaVuSans-116"/>
      </defs>
      <use xlink:href="#DejaVuSans-84"/>
      <use x="44.583984" xlink:href="#DejaVuSans-115"/>
      <use x="96.683594" xlink:href="#DejaVuSans-105"/>
      <use x="124.466797" xlink:href="#DejaVuSans-116"/>
      <use x="163.675781" xlink:href="#DejaVuSans-53"/>
     </g>
    </g>
    <g id="line2d_38">
     <path d="M 58.515483 169.288104 
L 74.515483 169.288104 
" style="fill:none;stroke:#e36f47;stroke-linejoin:miter;"/>
    </g>
    <g id="line2d_39">
     <defs>
      <path d="M -3.2 3.2 
L 3.2 3.2 
L 3.2 -3.2 
L -3.2 -3.2 
z
" id="m7face226d3" style="stroke:#000000;stroke-linejoin:miter;stroke-width:1.6;"/>
     </defs>
     <g>
      <use style="fill:#e36f47;stroke:#000000;stroke-linejoin:miter;stroke-width:1.6;" x="66.515483" xlink:href="#m7face226d3" y="169.288104"/>
     </g>
    </g>
    <g id="text_13">
     <!-- ROCK4 -->
     <g transform="translate(80.915483 172.088104)scale(0.08 -0.08)">
      <defs>
       <path d="M 44.390625 34.1875 
Q 47.5625 33.109375 50.5625 29.59375 
Q 53.5625 26.078125 56.59375 19.921875 
L 66.609375 0 
L 56 0 
L 46.6875 18.703125 
Q 43.0625 26.03125 39.671875 28.421875 
Q 36.28125 30.8125 30.421875 30.8125 
L 19.671875 30.8125 
L 19.671875 0 
L 9.8125 0 
L 9.8125 72.90625 
L 32.078125 72.90625 
Q 44.578125 72.90625 50.734375 67.671875 
Q 56.890625 62.453125 56.890625 51.90625 
Q 56.890625 45.015625 53.6875 40.46875 
Q 50.484375 35.9375 44.390625 34.1875 
z
M 19.671875 64.796875 
L 19.671875 38.921875 
L 32.078125 38.921875 
Q 39.203125 38.921875 42.84375 42.21875 
Q 46.484375 45.515625 46.484375 51.90625 
Q 46.484375 58.296875 42.84375 61.546875 
Q 39.203125 64.796875 32.078125 64.796875 
z
" id="DejaVuSans-82"/>
       <path d="M 39.40625 66.21875 
Q 28.65625 66.21875 22.328125 58.203125 
Q 16.015625 50.203125 16.015625 36.375 
Q 16.015625 22.609375 22.328125 14.59375 
Q 28.65625 6.59375 39.40625 6.59375 
Q 50.140625 6.59375 56.421875 14.59375 
Q 62.703125 22.609375 62.703125 36.375 
Q 62.703125 50.203125 56.421875 58.203125 
Q 50.140625 66.21875 39.40625 66.21875 
z
M 39.40625 74.21875 
Q 54.734375 74.21875 63.90625 63.9375 
Q 73.09375 53.65625 73.09375 36.375 
Q 73.09375 19.140625 63.90625 8.859375 
Q 54.734375 -1.421875 39.40625 -1.421875 
Q 24.03125 -1.421875 14.8125 8.828125 
Q 5.609375 19.09375 5.609375 36.375 
Q 5.609375 53.65625 14.8125 63.9375 
Q 24.03125 74.21875 39.40625 74.21875 
z
" id="DejaVuSans-79"/>
       <path d="M 64.40625 67.28125 
L 64.40625 56.890625 
Q 59.421875 61.53125 53.78125 63.8125 
Q 48.140625 66.109375 41.796875 66.109375 
Q 29.296875 66.109375 22.65625 58.46875 
Q 16.015625 50.828125 16.015625 36.375 
Q 16.015625 21.96875 22.65625 14.328125 
Q 29.296875 6.6875 41.796875 6.6875 
Q 48.140625 6.6875 53.78125 8.984375 
Q 59.421875 11.28125 64.40625 15.921875 
L 64.40625 5.609375 
Q 59.234375 2.09375 53.4375 0.328125 
Q 47.65625 -1.421875 41.21875 -1.421875 
Q 24.65625 -1.421875 15.125 8.703125 
Q 5.609375 18.84375 5.609375 36.375 
Q 5.609375 53.953125 15.125 64.078125 
Q 24.65625 74.21875 41.21875 74.21875 
Q 47.75 74.21875 53.53125 72.484375 
Q 59.328125 70.75 64.40625 67.28125 
z
" id="DejaVuSans-67"/>
       <path d="M 9.8125 72.90625 
L 19.671875 72.90625 
L 19.671875 42.09375 
L 52.390625 72.90625 
L 65.09375 72.90625 
L 28.90625 38.921875 
L 67.671875 0 
L 54.6875 0 
L 19.671875 35.109375 
L 19.671875 0 
L 9.8125 0 
z
" id="DejaVuSans-75"/>
       <path d="M 37.796875 64.3125 
L 12.890625 25.390625 
L 37.796875 25.390625 
z
M 35.203125 72.90625 
L 47.609375 72.90625 
L 47.609375 25.390625 
L 58.015625 25.390625 
L 58.015625 17.1875 
L 47.609375 17.1875 
L 47.609375 0 
L 37.796875 0 
L 37.796875 17.1875 
L 4.890625 17.1875 
L 4.890625 26.703125 
z
" id="DejaVuSans-52"/>
      </defs>
      <use xlink:href="#DejaVuSans-82"/>
      <use x="69.482422" xlink:href="#DejaVuSans-79"/>
      <use x="148.193359" xlink:href="#DejaVuSans-67"/>
      <use x="218.017578" xlink:href="#DejaVuSans-75"/>
      <use x="283.59375" xlink:href="#DejaVuSans-52"/>
     </g>
    </g>
    <g id="line2d_40">
     <path d="M 58.515483 181.030604 
L 74.515483 181.030604 
" style="fill:none;stroke:#3ea44e;stroke-linejoin:miter;"/>
    </g>
    <g id="line2d_41">
     <defs>
      <path d="M 0 -3.2 
L -0.718445 -0.988854 
L -3.043381 -0.988854 
L -1.162468 0.377709 
L -1.880913 2.588854 
L -0 1.222291 
L 1.880913 2.588854 
L 1.162468 0.377709 
L 3.043381 -0.988854 
L 0.718445 -0.988854 
z
" id="m84a59e5285" style="stroke:#000000;stroke-linejoin:bevel;stroke-width:1.6;"/>
     </defs>
     <g>
      <use style="fill:#3ea44e;stroke:#000000;stroke-linejoin:bevel;stroke-width:1.6;" x="66.515483" xlink:href="#m84a59e5285" y="181.030604"/>
     </g>
    </g>
    <g id="text_14">
     <!-- CVODE_BDF(GMRES) -->
     <g transform="translate(80.915483 183.830604)scale(0.08 -0.08)">
      <defs>
       <path d="M 28.609375 0 
L 0.78125 72.90625 
L 11.078125 72.90625 
L 34.1875 11.53125 
L 57.328125 72.90625 
L 67.578125 72.90625 
L 39.796875 0 
z
" id="DejaVuSans-86"/>
       <path d="M 19.671875 64.796875 
L 19.671875 8.109375 
L 31.59375 8.109375 
Q 46.6875 8.109375 53.6875 14.9375 
Q 60.6875 21.78125 60.6875 36.53125 
Q 60.6875 51.171875 53.6875 57.984375 
Q 46.6875 64.796875 31.59375 64.796875 
z
M 9.8125 72.90625 
L 30.078125 72.90625 
Q 51.265625 72.90625 61.171875 64.09375 
Q 71.09375 55.28125 71.09375 36.53125 
Q 71.09375 17.671875 61.125 8.828125 
Q 51.171875 0 30.078125 0 
L 9.8125 0 
z
" id="DejaVuSans-68"/>
       <path d="M 50.984375 -16.609375 
L 50.984375 -23.578125 
L -0.984375 -23.578125 
L -0.984375 -16.609375 
z
" id="DejaVuSans-95"/>
       <path d="M 19.671875 34.8125 
L 19.671875 8.109375 
L 35.5 8.109375 
Q 43.453125 8.109375 47.28125 11.40625 
Q 51.125 14.703125 51.125 21.484375 
Q 51.125 28.328125 47.28125 31.5625 
Q 43.453125 34.8125 35.5 34.8125 
z
M 19.671875 64.796875 
L 19.671875 42.828125 
L 34.28125 42.828125 
Q 41.5 42.828125 45.03125 45.53125 
Q 48.578125 48.25 48.578125 53.8125 
Q 48.578125 59.328125 45.03125 62.0625 
Q 41.5 64.796875 34.28125 64.796875 
z
M 9.8125 72.90625 
L 35.015625 72.90625 
Q 46.296875 72.90625 52.390625 68.21875 
Q 58.5 63.53125 58.5 54.890625 
Q 58.5 48.1875 55.375 44.234375 
Q 52.25 40.28125 46.1875 39.3125 
Q 53.46875 37.75 57.5 32.78125 
Q 61.53125 27.828125 61.53125 20.40625 
Q 61.53125 10.640625 54.890625 5.3125 
Q 48.25 0 35.984375 0 
L 9.8125 0 
z
" id="DejaVuSans-66"/>
       <path d="M 9.8125 72.90625 
L 51.703125 72.90625 
L 51.703125 64.59375 
L 19.671875 64.59375 
L 19.671875 43.109375 
L 48.578125 43.109375 
L 48.578125 34.8125 
L 19.671875 34.8125 
L 19.671875 0 
L 9.8125 0 
z
" id="DejaVuSans-70"/>
       <path d="M 59.515625 10.40625 
L 59.515625 29.984375 
L 43.40625 29.984375 
L 43.40625 38.09375 
L 69.28125 38.09375 
L 69.28125 6.78125 
Q 63.578125 2.734375 56.6875 0.65625 
Q 49.8125 -1.421875 42 -1.421875 
Q 24.90625 -1.421875 15.25 8.5625 
Q 5.609375 18.5625 5.609375 36.375 
Q 5.609375 54.25 15.25 64.234375 
Q 24.90625 74.21875 42 74.21875 
Q 49.125 74.21875 55.546875 72.453125 
Q 61.96875 70.703125 67.390625 67.28125 
L 67.390625 56.78125 
Q 61.921875 61.421875 55.765625 63.765625 
Q 49.609375 66.109375 42.828125 66.109375 
Q 29.4375 66.109375 22.71875 58.640625 
Q 16.015625 51.171875 16.015625 36.375 
Q 16.015625 21.625 22.71875 14.15625 
Q 29.4375 6.6875 42.828125 6.6875 
Q 48.046875 6.6875 52.140625 7.59375 
Q 56.25 8.5 59.515625 10.40625 
z
" id="DejaVuSans-71"/>
       <path d="M 9.8125 72.90625 
L 24.515625 72.90625 
L 43.109375 23.296875 
L 61.8125 72.90625 
L 76.515625 72.90625 
L 76.515625 0 
L 66.890625 0 
L 66.890625 64.015625 
L 48.09375 14.015625 
L 38.1875 14.015625 
L 19.390625 64.015625 
L 19.390625 0 
L 9.8125 0 
z
" id="DejaVuSans-77"/>
       <path d="M 53.515625 70.515625 
L 53.515625 60.890625 
Q 47.90625 63.578125 42.921875 64.890625 
Q 37.9375 66.21875 33.296875 66.21875 
Q 25.25 66.21875 20.875 63.09375 
Q 16.5 59.96875 16.5 54.203125 
Q 16.5 49.359375 19.40625 46.890625 
Q 22.3125 44.4375 30.421875 42.921875 
L 36.375 41.703125 
Q 47.40625 39.59375 52.65625 34.296875 
Q 57.90625 29 57.90625 20.125 
Q 57.90625 9.515625 50.796875 4.046875 
Q 43.703125 -1.421875 29.984375 -1.421875 
Q 24.8125 -1.421875 18.96875 -0.25 
Q 13.140625 0.921875 6.890625 3.21875 
L 6.890625 13.375 
Q 12.890625 10.015625 18.65625 8.296875 
Q 24.421875 6.59375 29.984375 6.59375 
Q 38.421875 6.59375 43.015625 9.90625 
Q 47.609375 13.234375 47.609375 19.390625 
Q 47.609375 24.75 44.3125 27.78125 
Q 41.015625 30.8125 33.5 32.328125 
L 27.484375 33.5 
Q 16.453125 35.6875 11.515625 40.375 
Q 6.59375 45.0625 6.59375 53.421875 
Q 6.59375 63.09375 13.40625 68.65625 
Q 20.21875 74.21875 32.171875 74.21875 
Q 37.3125 74.21875 42.625 73.28125 
Q 47.953125 72.359375 53.515625 70.515625 
z
" id="DejaVuSans-83"/>
      </defs>
      <use xlink:href="#DejaVuSans-67"/>
      <use x="69.824219" xlink:href="#DejaVuSans-86"/>
      <use x="136.482422" xlink:href="#DejaVuSans-79"/>
      <use x="215.193359" xlink:href="#DejaVuSans-68"/>
      <use x="292.195312" xlink:href="#DejaVuSans-69"/>
      <use x="355.378906" xlink:href="#DejaVuSans-95"/>
      <use x="405.378906" xlink:href="#DejaVuSans-66"/>
      <use x="473.982422" xlink:href="#DejaVuSans-68"/>
      <use x="550.984375" xlink:href="#DejaVuSans-70"/>
      <use x="608.503906" xlink:href="#DejaVuSans-40"/>
      <use x="647.517578" xlink:href="#DejaVuSans-71"/>
      <use x="725.007812" xlink:href="#DejaVuSans-77"/>
      <use x="811.287109" xlink:href="#DejaVuSans-82"/>
      <use x="880.769531" xlink:href="#DejaVuSans-69"/>
      <use x="943.953125" xlink:href="#DejaVuSans-83"/>
      <use x="1007.429688" xlink:href="#DejaVuSans-41"/>
     </g>
    </g>
    <g id="line2d_42">
     <path d="M 58.515483 192.995604 
L 74.515483 192.995604 
" style="fill:none;stroke:#c371d2;stroke-linejoin:miter;"/>
    </g>
    <g id="line2d_43">
     <defs>
      <path d="M -0 4.525483 
L 4.525483 0 
L 0 -4.525483 
L -4.525483 -0 
z
" id="m61192bfe6b" style="stroke:#000000;stroke-linejoin:miter;stroke-width:1.6;"/>
     </defs>
     <g>
      <use style="fill:#c371d2;stroke:#000000;stroke-linejoin:miter;stroke-width:1.6;" x="66.515483" xlink:href="#m61192bfe6b" y="192.995604"/>
     </g>
    </g>
    <g id="text_15">
     <!-- Rodas5 -->
     <g transform="translate(80.915483 195.795604)scale(0.08 -0.08)">
      <defs>
       <path d="M 45.40625 46.390625 
L 45.40625 75.984375 
L 54.390625 75.984375 
L 54.390625 0 
L 45.40625 0 
L 45.40625 8.203125 
Q 42.578125 3.328125 38.25 0.953125 
Q 33.9375 -1.421875 27.875 -1.421875 
Q 17.96875 -1.421875 11.734375 6.484375 
Q 5.515625 14.40625 5.515625 27.296875 
Q 5.515625 40.1875 11.734375 48.09375 
Q 17.96875 56 27.875 56 
Q 33.9375 56 38.25 53.625 
Q 42.578125 51.265625 45.40625 46.390625 
z
M 14.796875 27.296875 
Q 14.796875 17.390625 18.875 11.75 
Q 22.953125 6.109375 30.078125 6.109375 
Q 37.203125 6.109375 41.296875 11.75 
Q 45.40625 17.390625 45.40625 27.296875 
Q 45.40625 37.203125 41.296875 42.84375 
Q 37.203125 48.484375 30.078125 48.484375 
Q 22.953125 48.484375 18.875 42.84375 
Q 14.796875 37.203125 14.796875 27.296875 
z
" id="DejaVuSans-100"/>
       <path d="M 34.28125 27.484375 
Q 23.390625 27.484375 19.1875 25 
Q 14.984375 22.515625 14.984375 16.5 
Q 14.984375 11.71875 18.140625 8.90625 
Q 21.296875 6.109375 26.703125 6.109375 
Q 34.1875 6.109375 38.703125 11.40625 
Q 43.21875 16.703125 43.21875 25.484375 
L 43.21875 27.484375 
z
M 52.203125 31.203125 
L 52.203125 0 
L 43.21875 0 
L 43.21875 8.296875 
Q 40.140625 3.328125 35.546875 0.953125 
Q 30.953125 -1.421875 24.3125 -1.421875 
Q 15.921875 -1.421875 10.953125 3.296875 
Q 6 8.015625 6 15.921875 
Q 6 25.140625 12.171875 29.828125 
Q 18.359375 34.515625 30.609375 34.515625 
L 43.21875 34.515625 
L 43.21875 35.40625 
Q 43.21875 41.609375 39.140625 45 
Q 35.0625 48.390625 27.6875 48.390625 
Q 23 48.390625 18.546875 47.265625 
Q 14.109375 46.140625 10.015625 43.890625 
L 10.015625 52.203125 
Q 14.9375 54.109375 19.578125 55.046875 
Q 24.21875 56 28.609375 56 
Q 40.484375 56 46.34375 49.84375 
Q 52.203125 43.703125 52.203125 31.203125 
z
" id="DejaVuSans-97"/>
      </defs>
      <use xlink:href="#DejaVuSans-82"/>
      <use x="64.982422" xlink:href="#DejaVuSans-111"/>
      <use x="126.164062" xlink:href="#DejaVuSans-100"/>
      <use x="189.640625" xlink:href="#DejaVuSans-97"/>
      <use x="250.919922" xlink:href="#DejaVuSans-115"/>
      <use x="303.019531" xlink:href="#DejaVuSans-53"/>
     </g>
    </g>
    <g id="line2d_44">
     <path d="M 58.515483 204.738104 
L 74.515483 204.738104 
" style="fill:none;stroke:#ac8e18;stroke-linejoin:miter;"/>
    </g>
    <g id="line2d_45">
     <defs>
      <path d="M 0 -3.2 
L -2.771281 -1.6 
L -2.771281 1.6 
L -0 3.2 
L 2.771281 1.6 
L 2.771281 -1.6 
z
" id="m3b83353f7e" style="stroke:#000000;stroke-linejoin:miter;stroke-width:1.6;"/>
     </defs>
     <g>
      <use style="fill:#ac8e18;stroke:#000000;stroke-linejoin:miter;stroke-width:1.6;" x="66.515483" xlink:href="#m3b83353f7e" y="204.738104"/>
     </g>
    </g>
    <g id="text_16">
     <!-- Rodas4P -->
     <g transform="translate(80.915483 207.538104)scale(0.08 -0.08)">
      <defs>
       <path d="M 19.671875 64.796875 
L 19.671875 37.40625 
L 32.078125 37.40625 
Q 38.96875 37.40625 42.71875 40.96875 
Q 46.484375 44.53125 46.484375 51.125 
Q 46.484375 57.671875 42.71875 61.234375 
Q 38.96875 64.796875 32.078125 64.796875 
z
M 9.8125 72.90625 
L 32.078125 72.90625 
Q 44.34375 72.90625 50.609375 67.359375 
Q 56.890625 61.8125 56.890625 51.125 
Q 56.890625 40.328125 50.609375 34.8125 
Q 44.34375 29.296875 32.078125 29.296875 
L 19.671875 29.296875 
L 19.671875 0 
L 9.8125 0 
z
" id="DejaVuSans-80"/>
      </defs>
      <use xlink:href="#DejaVuSans-82"/>
      <use x="64.982422" xlink:href="#DejaVuSans-111"/>
      <use x="126.164062" xlink:href="#DejaVuSans-100"/>
      <use x="189.640625" xlink:href="#DejaVuSans-97"/>
      <use x="250.919922" xlink:href="#DejaVuSans-115"/>
      <use x="303.019531" xlink:href="#DejaVuSans-52"/>
      <use x="366.642578" xlink:href="#DejaVuSans-80"/>
     </g>
    </g>
    <g id="line2d_46">
     <path d="M 58.515483 216.480604 
L 74.515483 216.480604 
" style="fill:none;stroke:#00aaae;stroke-linejoin:miter;"/>
    </g>
    <g id="line2d_47">
     <defs>
      <path d="M 1.325483 3.2 
L 1.224587 1.224587 
L 3.2 1.325483 
L 3.2 -1.325483 
L 1.224587 -1.224587 
L 1.325483 -3.2 
L -1.325483 -3.2 
L -1.224587 -1.224587 
L -3.2 -1.325483 
L -3.2 1.325483 
L -1.224587 1.224587 
L -1.325483 3.2 
L 1.325483 3.2 
L 1.224587 1.224587 
L 1.325483 3.2 
" id="m45b8e2495b" style="stroke:#000000;stroke-width:1.6;"/>
     </defs>
     <g>
      <use style="fill:#00aaae;stroke:#000000;stroke-width:1.6;" x="66.515483" xlink:href="#m45b8e2495b" y="216.480604"/>
     </g>
    </g>
    <g id="text_17">
     <!-- Kvaerno5 -->
     <g transform="translate(80.915483 219.280604)scale(0.08 -0.08)">
      <defs>
       <path d="M 2.984375 54.6875 
L 12.5 54.6875 
L 29.59375 8.796875 
L 46.6875 54.6875 
L 56.203125 54.6875 
L 35.6875 0 
L 23.484375 0 
z
" id="DejaVuSans-118"/>
       <path d="M 54.890625 33.015625 
L 54.890625 0 
L 45.90625 0 
L 45.90625 32.71875 
Q 45.90625 40.484375 42.875 44.328125 
Q 39.84375 48.1875 33.796875 48.1875 
Q 26.515625 48.1875 22.3125 43.546875 
Q 18.109375 38.921875 18.109375 30.90625 
L 18.109375 0 
L 9.078125 0 
L 9.078125 54.6875 
L 18.109375 54.6875 
L 18.109375 46.1875 
Q 21.34375 51.125 25.703125 53.5625 
Q 30.078125 56 35.796875 56 
Q 45.21875 56 50.046875 50.171875 
Q 54.890625 44.34375 54.890625 33.015625 
z
" id="DejaVuSans-110"/>
      </defs>
      <use xlink:href="#DejaVuSans-75"/>
      <use x="65.576172" xlink:href="#DejaVuSans-118"/>
      <use x="124.755859" xlink:href="#DejaVuSans-97"/>
      <use x="186.035156" xlink:href="#DejaVuSans-101"/>
      <use x="247.558594" xlink:href="#DejaVuSans-114"/>
      <use x="286.921875" xlink:href="#DejaVuSans-110"/>
      <use x="350.300781" xlink:href="#DejaVuSans-111"/>
      <use x="411.482422" xlink:href="#DejaVuSans-53"/>
     </g>
    </g>
    <g id="line2d_48">
     <path d="M 58.515483 228.223104 
L 74.515483 228.223104 
" style="fill:none;stroke:#ed5e93;stroke-linejoin:miter;"/>
    </g>
    <g id="line2d_49">
     <defs>
      <path d="M -1.325483 3.2 
L 0 1.731828 
L 1.325483 3.2 
L 3.2 1.325483 
L 1.731828 0 
L 3.2 -1.325483 
L 1.325483 -3.2 
L 0 -1.731828 
L -1.325483 -3.2 
L -3.2 -1.325483 
L -1.731828 -0 
L -3.2 1.325483 
L -1.325483 3.2 
L -0 1.731828 
L -1.325483 3.2 
" id="mf45a619f5d" style="stroke:#000000;stroke-width:1.6;"/>
     </defs>
     <g>
      <use style="fill:#ed5e93;stroke:#000000;stroke-width:1.6;" x="66.515483" xlink:href="#mf45a619f5d" y="228.223104"/>
     </g>
    </g>
    <g id="text_18">
     <!-- KenCarp5 -->
     <g transform="translate(80.915483 231.023104)scale(0.08 -0.08)">
      <defs>
       <path d="M 18.109375 8.203125 
L 18.109375 -20.796875 
L 9.078125 -20.796875 
L 9.078125 54.6875 
L 18.109375 54.6875 
L 18.109375 46.390625 
Q 20.953125 51.265625 25.265625 53.625 
Q 29.59375 56 35.59375 56 
Q 45.5625 56 51.78125 48.09375 
Q 58.015625 40.1875 58.015625 27.296875 
Q 58.015625 14.40625 51.78125 6.484375 
Q 45.5625 -1.421875 35.59375 -1.421875 
Q 29.59375 -1.421875 25.265625 0.953125 
Q 20.953125 3.328125 18.109375 8.203125 
z
M 48.6875 27.296875 
Q 48.6875 37.203125 44.609375 42.84375 
Q 40.53125 48.484375 33.40625 48.484375 
Q 26.265625 48.484375 22.1875 42.84375 
Q 18.109375 37.203125 18.109375 27.296875 
Q 18.109375 17.390625 22.1875 11.75 
Q 26.265625 6.109375 33.40625 6.109375 
Q 40.53125 6.109375 44.609375 11.75 
Q 48.6875 17.390625 48.6875 27.296875 
z
" id="DejaVuSans-112"/>
      </defs>
      <use xlink:href="#DejaVuSans-75"/>
      <use x="60.576172" xlink:href="#DejaVuSans-101"/>
      <use x="122.099609" xlink:href="#DejaVuSans-110"/>
      <use x="185.478516" xlink:href="#DejaVuSans-67"/>
      <use x="255.302734" xlink:href="#DejaVuSans-97"/>
      <use x="316.582031" xlink:href="#DejaVuSans-114"/>
      <use x="357.695312" xlink:href="#DejaVuSans-112"/>
      <use x="421.171875" xlink:href="#DejaVuSans-53"/>
     </g>
    </g>
    <g id="line2d_50">
     <path d="M 58.515483 239.965604 
L 74.515483 239.965604 
" style="fill:none;stroke:#c68225;stroke-linejoin:miter;"/>
    </g>
    <g id="line2d_51">
     <defs>
      <path d="M 0 -3.2 
L -3.2 3.2 
L 3.2 3.2 
z
" id="mab0b44af6c" style="stroke:#000000;stroke-linejoin:miter;stroke-width:1.6;"/>
     </defs>
     <g>
      <use style="fill:#c68225;stroke:#000000;stroke-linejoin:miter;stroke-width:1.6;" x="66.515483" xlink:href="#mab0b44af6c" y="239.965604"/>
     </g>
    </g>
    <g id="text_19">
     <!-- AutoTsit5(Rodas5) -->
     <g transform="translate(80.915483 242.765604)scale(0.08 -0.08)">
      <defs>
       <path d="M 34.1875 63.1875 
L 20.796875 26.90625 
L 47.609375 26.90625 
z
M 28.609375 72.90625 
L 39.796875 72.90625 
L 67.578125 0 
L 57.328125 0 
L 50.6875 18.703125 
L 17.828125 18.703125 
L 11.1875 0 
L 0.78125 0 
z
" id="DejaVuSans-65"/>
       <path d="M 8.5 21.578125 
L 8.5 54.6875 
L 17.484375 54.6875 
L 17.484375 21.921875 
Q 17.484375 14.15625 20.5 10.265625 
Q 23.53125 6.390625 29.59375 6.390625 
Q 36.859375 6.390625 41.078125 11.03125 
Q 45.3125 15.671875 45.3125 23.6875 
L 45.3125 54.6875 
L 54.296875 54.6875 
L 54.296875 0 
L 45.3125 0 
L 45.3125 8.40625 
Q 42.046875 3.421875 37.71875 1 
Q 33.40625 -1.421875 27.6875 -1.421875 
Q 18.265625 -1.421875 13.375 4.4375 
Q 8.5 10.296875 8.5 21.578125 
z
M 31.109375 56 
z
" id="DejaVuSans-117"/>
      </defs>
      <use xlink:href="#DejaVuSans-65"/>
      <use x="68.408203" xlink:href="#DejaVuSans-117"/>
      <use x="131.787109" xlink:href="#DejaVuSans-116"/>
      <use x="170.996094" xlink:href="#DejaVuSans-111"/>
      <use x="232.177734" xlink:href="#DejaVuSans-84"/>
      <use x="276.761719" xlink:href="#DejaVuSans-115"/>
      <use x="328.861328" xlink:href="#DejaVuSans-105"/>
      <use x="356.644531" xlink:href="#DejaVuSans-116"/>
      <use x="395.853516" xlink:href="#DejaVuSans-53"/>
      <use x="459.476562" xlink:href="#DejaVuSans-40"/>
      <use x="498.490234" xlink:href="#DejaVuSans-82"/>
      <use x="563.472656" xlink:href="#DejaVuSans-111"/>
      <use x="624.654297" xlink:href="#DejaVuSans-100"/>
      <use x="688.130859" xlink:href="#DejaVuSans-97"/>
      <use x="749.410156" xlink:href="#DejaVuSans-115"/>
      <use x="801.509766" xlink:href="#DejaVuSans-53"/>
      <use x="865.132812" xlink:href="#DejaVuSans-41"/>
     </g>
    </g>
   </g>
  </g>
 </g>
 <defs>
  <clipPath id="pf406f05ac6">
   <rect height="251.994709" width="381.049872" x="48.115483" y="2.834646"/>
  </clipPath>
 </defs>
</svg>
