<?xml version="1.0" encoding="utf-8" standalone="no"?>
<!DOCTYPE svg PUBLIC "-//W3C//DTD SVG 1.1//EN"
  "http://www.w3.org/Graphics/SVG/1.1/DTD/svg11.dtd">
<!-- Created with matplotlib (https://matplotlib.org/) -->
<svg height="288pt" version="1.1" viewBox="0 0 432 288" width="432pt" xmlns="http://www.w3.org/2000/svg" xmlns:xlink="http://www.w3.org/1999/xlink">
 <metadata>
  <rdf:RDF xmlns:cc="http://creativecommons.org/ns#" xmlns:dc="http://purl.org/dc/elements/1.1/" xmlns:rdf="http://www.w3.org/1999/02/22-rdf-syntax-ns#">
   <cc:Work>
    <dc:type rdf:resource="http://purl.org/dc/dcmitype/StillImage"/>
    <dc:date>2020-09-23T13:04:57.735859</dc:date>
    <dc:format>image/svg+xml</dc:format>
    <dc:creator>
     <cc:Agent>
      <dc:title>Matplotlib v3.3.1, https://matplotlib.org/</dc:title>
     </cc:Agent>
    </dc:creator>
   </cc:Work>
  </rdf:RDF>
 </metadata>
 <defs>
  <style type="text/css">*{stroke-linecap:butt;stroke-linejoin:round;}</style>
 </defs>
 <g id="figure_1">
  <g id="patch_1">
   <path d="M 0 288 
L 432 288 
L 432 0 
L 0 0 
z
" style="fill:#ffffff;"/>
  </g>
  <g id="axes_1">
   <g id="patch_2">
    <path d="M 48.115483 254.829354 
L 429.165354 254.829354 
L 429.165354 2.834646 
L 48.115483 2.834646 
z
" style="fill:#ffffff;"/>
   </g>
   <g id="matplotlib.axis_1">
    <g id="xtick_1">
     <g id="line2d_1">
      <path clip-path="url(#pd4f584954c)" d="M 106.675386 254.829354 
L 106.675386 2.834646 
" style="fill:none;stroke:#000000;stroke-linecap:square;stroke-opacity:0.1;stroke-width:0.5;"/>
     </g>
     <g id="line2d_2">
      <defs>
       <path d="M 0 0 
L 0 -2.5 
" id="mddcb291cc8" style="stroke:#000000;stroke-width:0.5;"/>
      </defs>
      <g>
       <use style="stroke:#000000;stroke-width:0.5;" x="106.675386" xlink:href="#mddcb291cc8" y="254.829354"/>
      </g>
     </g>
     <g id="text_1">
      <!-- $\mathregular{10^{-10}}$ -->
      <g transform="translate(95.515386 266.508104)scale(0.08 -0.08)">
       <defs>
        <path d="M 12.40625 8.296875 
L 28.515625 8.296875 
L 28.515625 63.921875 
L 10.984375 60.40625 
L 10.984375 69.390625 
L 28.421875 72.90625 
L 38.28125 72.90625 
L 38.28125 8.296875 
L 54.390625 8.296875 
L 54.390625 0 
L 12.40625 0 
z
" id="DejaVuSans-49"/>
        <path d="M 31.78125 66.40625 
Q 24.171875 66.40625 20.328125 58.90625 
Q 16.5 51.421875 16.5 36.375 
Q 16.5 21.390625 20.328125 13.890625 
Q 24.171875 6.390625 31.78125 6.390625 
Q 39.453125 6.390625 43.28125 13.890625 
Q 47.125 21.390625 47.125 36.375 
Q 47.125 51.421875 43.28125 58.90625 
Q 39.453125 66.40625 31.78125 66.40625 
z
M 31.78125 74.21875 
Q 44.046875 74.21875 50.515625 64.515625 
Q 56.984375 54.828125 56.984375 36.375 
Q 56.984375 17.96875 50.515625 8.265625 
Q 44.046875 -1.421875 31.78125 -1.421875 
Q 19.53125 -1.421875 13.0625 8.265625 
Q 6.59375 17.96875 6.59375 36.375 
Q 6.59375 54.828125 13.0625 64.515625 
Q 19.53125 74.21875 31.78125 74.21875 
z
" id="DejaVuSans-48"/>
        <path d="M 10.59375 35.5 
L 73.1875 35.5 
L 73.1875 27.203125 
L 10.59375 27.203125 
z
" id="DejaVuSans-8722"/>
       </defs>
       <use transform="translate(0 0.765625)" xlink:href="#DejaVuSans-49"/>
       <use transform="translate(63.623047 0.765625)" xlink:href="#DejaVuSans-48"/>
       <use transform="translate(128.203125 39.046875)scale(0.7)" xlink:href="#DejaVuSans-8722"/>
       <use transform="translate(186.855469 39.046875)scale(0.7)" xlink:href="#DejaVuSans-49"/>
       <use transform="translate(231.391602 39.046875)scale(0.7)" xlink:href="#DejaVuSans-48"/>
      </g>
     </g>
    </g>
    <g id="xtick_2">
     <g id="line2d_3">
      <path clip-path="url(#pd4f584954c)" d="M 183.471037 254.829354 
L 183.471037 2.834646 
" style="fill:none;stroke:#000000;stroke-linecap:square;stroke-opacity:0.1;stroke-width:0.5;"/>
     </g>
     <g id="line2d_4">
      <g>
       <use style="stroke:#000000;stroke-width:0.5;" x="183.471037" xlink:href="#mddcb291cc8" y="254.829354"/>
      </g>
     </g>
     <g id="text_2">
      <!-- $\mathregular{10^{-8}}$ -->
      <g transform="translate(174.071037 266.508104)scale(0.08 -0.08)">
       <defs>
        <path d="M 31.78125 34.625 
Q 24.75 34.625 20.71875 30.859375 
Q 16.703125 27.09375 16.703125 20.515625 
Q 16.703125 13.921875 20.71875 10.15625 
Q 24.75 6.390625 31.78125 6.390625 
Q 38.8125 6.390625 42.859375 10.171875 
Q 46.921875 13.96875 46.921875 20.515625 
Q 46.921875 27.09375 42.890625 30.859375 
Q 38.875 34.625 31.78125 34.625 
z
M 21.921875 38.8125 
Q 15.578125 40.375 12.03125 44.71875 
Q 8.5 49.078125 8.5 55.328125 
Q 8.5 64.0625 14.71875 69.140625 
Q 20.953125 74.21875 31.78125 74.21875 
Q 42.671875 74.21875 48.875 69.140625 
Q 55.078125 64.0625 55.078125 55.328125 
Q 55.078125 49.078125 51.53125 44.71875 
Q 48 40.375 41.703125 38.8125 
Q 48.828125 37.15625 52.796875 32.3125 
Q 56.78125 27.484375 56.78125 20.515625 
Q 56.78125 9.90625 50.3125 4.234375 
Q 43.84375 -1.421875 31.78125 -1.421875 
Q 19.734375 -1.421875 13.25 4.234375 
Q 6.78125 9.90625 6.78125 20.515625 
Q 6.78125 27.484375 10.78125 32.3125 
Q 14.796875 37.15625 21.921875 38.8125 
z
M 18.3125 54.390625 
Q 18.3125 48.734375 21.84375 45.5625 
Q 25.390625 42.390625 31.78125 42.390625 
Q 38.140625 42.390625 41.71875 45.5625 
Q 45.3125 48.734375 45.3125 54.390625 
Q 45.3125 60.0625 41.71875 63.234375 
Q 38.140625 66.40625 31.78125 66.40625 
Q 25.390625 66.40625 21.84375 63.234375 
Q 18.3125 60.0625 18.3125 54.390625 
z
" id="DejaVuSans-56"/>
       </defs>
       <use transform="translate(0 0.765625)" xlink:href="#DejaVuSans-49"/>
       <use transform="translate(63.623047 0.765625)" xlink:href="#DejaVuSans-48"/>
       <use transform="translate(128.203125 39.046875)scale(0.7)" xlink:href="#DejaVuSans-8722"/>
       <use transform="translate(186.855469 39.046875)scale(0.7)" xlink:href="#DejaVuSans-56"/>
      </g>
     </g>
    </g>
    <g id="xtick_3">
     <g id="line2d_5">
      <path clip-path="url(#pd4f584954c)" d="M 260.266687 254.829354 
L 260.266687 2.834646 
" style="fill:none;stroke:#000000;stroke-linecap:square;stroke-opacity:0.1;stroke-width:0.5;"/>
     </g>
     <g id="line2d_6">
      <g>
       <use style="stroke:#000000;stroke-width:0.5;" x="260.266687" xlink:href="#mddcb291cc8" y="254.829354"/>
      </g>
     </g>
     <g id="text_3">
      <!-- $\mathregular{10^{-6}}$ -->
      <g transform="translate(250.866687 266.508104)scale(0.08 -0.08)">
       <defs>
        <path d="M 33.015625 40.375 
Q 26.375 40.375 22.484375 35.828125 
Q 18.609375 31.296875 18.609375 23.390625 
Q 18.609375 15.53125 22.484375 10.953125 
Q 26.375 6.390625 33.015625 6.390625 
Q 39.65625 6.390625 43.53125 10.953125 
Q 47.40625 15.53125 47.40625 23.390625 
Q 47.40625 31.296875 43.53125 35.828125 
Q 39.65625 40.375 33.015625 40.375 
z
M 52.59375 71.296875 
L 52.59375 62.3125 
Q 48.875 64.0625 45.09375 64.984375 
Q 41.3125 65.921875 37.59375 65.921875 
Q 27.828125 65.921875 22.671875 59.328125 
Q 17.53125 52.734375 16.796875 39.40625 
Q 19.671875 43.65625 24.015625 45.921875 
Q 28.375 48.1875 33.59375 48.1875 
Q 44.578125 48.1875 50.953125 41.515625 
Q 57.328125 34.859375 57.328125 23.390625 
Q 57.328125 12.15625 50.6875 5.359375 
Q 44.046875 -1.421875 33.015625 -1.421875 
Q 20.359375 -1.421875 13.671875 8.265625 
Q 6.984375 17.96875 6.984375 36.375 
Q 6.984375 53.65625 15.1875 63.9375 
Q 23.390625 74.21875 37.203125 74.21875 
Q 40.921875 74.21875 44.703125 73.484375 
Q 48.484375 72.75 52.59375 71.296875 
z
" id="DejaVuSans-54"/>
       </defs>
       <use transform="translate(0 0.765625)" xlink:href="#DejaVuSans-49"/>
       <use transform="translate(63.623047 0.765625)" xlink:href="#DejaVuSans-48"/>
       <use transform="translate(128.203125 39.046875)scale(0.7)" xlink:href="#DejaVuSans-8722"/>
       <use transform="translate(186.855469 39.046875)scale(0.7)" xlink:href="#DejaVuSans-54"/>
      </g>
     </g>
    </g>
    <g id="xtick_4">
     <g id="line2d_7">
      <path clip-path="url(#pd4f584954c)" d="M 337.062338 254.829354 
L 337.062338 2.834646 
" style="fill:none;stroke:#000000;stroke-linecap:square;stroke-opacity:0.1;stroke-width:0.5;"/>
     </g>
     <g id="line2d_8">
      <g>
       <use style="stroke:#000000;stroke-width:0.5;" x="337.062338" xlink:href="#mddcb291cc8" y="254.829354"/>
      </g>
     </g>
     <g id="text_4">
      <!-- $\mathregular{10^{-4}}$ -->
      <g transform="translate(327.662338 266.508104)scale(0.08 -0.08)">
       <defs>
        <path d="M 37.796875 64.3125 
L 12.890625 25.390625 
L 37.796875 25.390625 
z
M 35.203125 72.90625 
L 47.609375 72.90625 
L 47.609375 25.390625 
L 58.015625 25.390625 
L 58.015625 17.1875 
L 47.609375 17.1875 
L 47.609375 0 
L 37.796875 0 
L 37.796875 17.1875 
L 4.890625 17.1875 
L 4.890625 26.703125 
z
" id="DejaVuSans-52"/>
       </defs>
       <use transform="translate(0 0.684375)" xlink:href="#DejaVuSans-49"/>
       <use transform="translate(63.623047 0.684375)" xlink:href="#DejaVuSans-48"/>
       <use transform="translate(128.203125 38.965625)scale(0.7)" xlink:href="#DejaVuSans-8722"/>
       <use transform="translate(186.855469 38.965625)scale(0.7)" xlink:href="#DejaVuSans-52"/>
      </g>
     </g>
    </g>
    <g id="xtick_5">
     <g id="line2d_9">
      <path clip-path="url(#pd4f584954c)" d="M 413.857989 254.829354 
L 413.857989 2.834646 
" style="fill:none;stroke:#000000;stroke-linecap:square;stroke-opacity:0.1;stroke-width:0.5;"/>
     </g>
     <g id="line2d_10">
      <g>
       <use style="stroke:#000000;stroke-width:0.5;" x="413.857989" xlink:href="#mddcb291cc8" y="254.829354"/>
      </g>
     </g>
     <g id="text_5">
      <!-- $\mathregular{10^{-2}}$ -->
      <g transform="translate(404.457989 266.508104)scale(0.08 -0.08)">
       <defs>
        <path d="M 19.1875 8.296875 
L 53.609375 8.296875 
L 53.609375 0 
L 7.328125 0 
L 7.328125 8.296875 
Q 12.9375 14.109375 22.625 23.890625 
Q 32.328125 33.6875 34.8125 36.53125 
Q 39.546875 41.84375 41.421875 45.53125 
Q 43.3125 49.21875 43.3125 52.78125 
Q 43.3125 58.59375 39.234375 62.25 
Q 35.15625 65.921875 28.609375 65.921875 
Q 23.96875 65.921875 18.8125 64.3125 
Q 13.671875 62.703125 7.8125 59.421875 
L 7.8125 69.390625 
Q 13.765625 71.78125 18.9375 73 
Q 24.125 74.21875 28.421875 74.21875 
Q 39.75 74.21875 46.484375 68.546875 
Q 53.21875 62.890625 53.21875 53.421875 
Q 53.21875 48.921875 51.53125 44.890625 
Q 49.859375 40.875 45.40625 35.40625 
Q 44.1875 33.984375 37.640625 27.21875 
Q 31.109375 20.453125 19.1875 8.296875 
z
" id="DejaVuSans-50"/>
       </defs>
       <use transform="translate(0 0.765625)" xlink:href="#DejaVuSans-49"/>
       <use transform="translate(63.623047 0.765625)" xlink:href="#DejaVuSans-48"/>
       <use transform="translate(128.203125 39.046875)scale(0.7)" xlink:href="#DejaVuSans-8722"/>
       <use transform="translate(186.855469 39.046875)scale(0.7)" xlink:href="#DejaVuSans-50"/>
      </g>
     </g>
    </g>
    <g id="xtick_6">
     <g id="line2d_11">
      <defs>
       <path d="M 0 0 
L 0 2 
" id="m85054d6888" style="stroke:#000000;stroke-width:0.4;"/>
      </defs>
      <g>
       <use style="stroke:#000000;stroke-width:0.4;" x="68.27756" xlink:href="#m85054d6888" y="254.829354"/>
      </g>
     </g>
    </g>
    <g id="xtick_7">
     <g id="line2d_12">
      <g>
       <use style="stroke:#000000;stroke-width:0.4;" x="145.073211" xlink:href="#m85054d6888" y="254.829354"/>
      </g>
     </g>
    </g>
    <g id="xtick_8">
     <g id="line2d_13">
      <g>
       <use style="stroke:#000000;stroke-width:0.4;" x="221.868862" xlink:href="#m85054d6888" y="254.829354"/>
      </g>
     </g>
    </g>
    <g id="xtick_9">
     <g id="line2d_14">
      <g>
       <use style="stroke:#000000;stroke-width:0.4;" x="298.664513" xlink:href="#m85054d6888" y="254.829354"/>
      </g>
     </g>
    </g>
    <g id="xtick_10">
     <g id="line2d_15">
      <g>
       <use style="stroke:#000000;stroke-width:0.4;" x="375.460164" xlink:href="#m85054d6888" y="254.829354"/>
      </g>
     </g>
    </g>
    <g id="text_6">
     <!-- Error -->
     <g transform="translate(225.236747 280.530136)scale(0.11 -0.11)">
      <defs>
       <path d="M 9.8125 72.90625 
L 55.90625 72.90625 
L 55.90625 64.59375 
L 19.671875 64.59375 
L 19.671875 43.015625 
L 54.390625 43.015625 
L 54.390625 34.71875 
L 19.671875 34.71875 
L 19.671875 8.296875 
L 56.78125 8.296875 
L 56.78125 0 
L 9.8125 0 
z
" id="DejaVuSans-69"/>
       <path d="M 41.109375 46.296875 
Q 39.59375 47.171875 37.8125 47.578125 
Q 36.03125 48 33.890625 48 
Q 26.265625 48 22.1875 43.046875 
Q 18.109375 38.09375 18.109375 28.8125 
L 18.109375 0 
L 9.078125 0 
L 9.078125 54.6875 
L 18.109375 54.6875 
L 18.109375 46.1875 
Q 20.953125 51.171875 25.484375 53.578125 
Q 30.03125 56 36.53125 56 
Q 37.453125 56 38.578125 55.875 
Q 39.703125 55.765625 41.0625 55.515625 
z
" id="DejaVuSans-114"/>
       <path d="M 30.609375 48.390625 
Q 23.390625 48.390625 19.1875 42.75 
Q 14.984375 37.109375 14.984375 27.296875 
Q 14.984375 17.484375 19.15625 11.84375 
Q 23.34375 6.203125 30.609375 6.203125 
Q 37.796875 6.203125 41.984375 11.859375 
Q 46.1875 17.53125 46.1875 27.296875 
Q 46.1875 37.015625 41.984375 42.703125 
Q 37.796875 48.390625 30.609375 48.390625 
z
M 30.609375 56 
Q 42.328125 56 49.015625 48.375 
Q 55.71875 40.765625 55.71875 27.296875 
Q 55.71875 13.875 49.015625 6.21875 
Q 42.328125 -1.421875 30.609375 -1.421875 
Q 18.84375 -1.421875 12.171875 6.21875 
Q 5.515625 13.875 5.515625 27.296875 
Q 5.515625 40.765625 12.171875 48.375 
Q 18.84375 56 30.609375 56 
z
" id="DejaVuSans-111"/>
      </defs>
      <use xlink:href="#DejaVuSans-69"/>
      <use x="63.183594" xlink:href="#DejaVuSans-114"/>
      <use x="102.546875" xlink:href="#DejaVuSans-114"/>
      <use x="141.410156" xlink:href="#DejaVuSans-111"/>
      <use x="202.591797" xlink:href="#DejaVuSans-114"/>
     </g>
    </g>
   </g>
   <g id="matplotlib.axis_2">
    <g id="ytick_1">
     <g id="line2d_16">
      <path clip-path="url(#pd4f584954c)" d="M 48.115483 205.483259 
L 429.165354 205.483259 
" style="fill:none;stroke:#000000;stroke-linecap:square;stroke-opacity:0.1;stroke-width:0.5;"/>
     </g>
     <g id="line2d_17">
      <defs>
       <path d="M 0 0 
L 2.5 0 
" id="m0a03bcc10c" style="stroke:#000000;stroke-width:0.5;"/>
      </defs>
      <g>
       <use style="stroke:#000000;stroke-width:0.5;" x="48.115483" xlink:href="#m0a03bcc10c" y="205.483259"/>
      </g>
     </g>
     <g id="text_7">
      <!-- $\mathregular{10^{-2.0}}$ -->
      <g transform="translate(18.435483 208.522634)scale(0.08 -0.08)">
       <defs>
        <path d="M 10.6875 12.40625 
L 21 12.40625 
L 21 0 
L 10.6875 0 
z
" id="DejaVuSans-46"/>
       </defs>
       <use transform="translate(0 0.765625)" xlink:href="#DejaVuSans-49"/>
       <use transform="translate(63.623047 0.765625)" xlink:href="#DejaVuSans-48"/>
       <use transform="translate(128.203125 39.046875)scale(0.7)" xlink:href="#DejaVuSans-8722"/>
       <use transform="translate(186.855469 39.046875)scale(0.7)" xlink:href="#DejaVuSans-50"/>
       <use transform="translate(231.391602 39.046875)scale(0.7)" xlink:href="#DejaVuSans-46"/>
       <use transform="translate(253.642578 39.046875)scale(0.7)" xlink:href="#DejaVuSans-48"/>
      </g>
     </g>
    </g>
    <g id="ytick_2">
     <g id="line2d_18">
      <path clip-path="url(#pd4f584954c)" d="M 48.115483 144.560722 
L 429.165354 144.560722 
" style="fill:none;stroke:#000000;stroke-linecap:square;stroke-opacity:0.1;stroke-width:0.5;"/>
     </g>
     <g id="line2d_19">
      <g>
       <use style="stroke:#000000;stroke-width:0.5;" x="48.115483" xlink:href="#m0a03bcc10c" y="144.560722"/>
      </g>
     </g>
     <g id="text_8">
      <!-- $\mathregular{10^{-1.5}}$ -->
      <g transform="translate(18.435483 147.600097)scale(0.08 -0.08)">
       <defs>
        <path d="M 10.796875 72.90625 
L 49.515625 72.90625 
L 49.515625 64.59375 
L 19.828125 64.59375 
L 19.828125 46.734375 
Q 21.96875 47.46875 24.109375 47.828125 
Q 26.265625 48.1875 28.421875 48.1875 
Q 40.625 48.1875 47.75 41.5 
Q 54.890625 34.8125 54.890625 23.390625 
Q 54.890625 11.625 47.5625 5.09375 
Q 40.234375 -1.421875 26.90625 -1.421875 
Q 22.3125 -1.421875 17.546875 -0.640625 
Q 12.796875 0.140625 7.71875 1.703125 
L 7.71875 11.625 
Q 12.109375 9.234375 16.796875 8.0625 
Q 21.484375 6.890625 26.703125 6.890625 
Q 35.15625 6.890625 40.078125 11.328125 
Q 45.015625 15.765625 45.015625 23.390625 
Q 45.015625 31 40.078125 35.4375 
Q 35.15625 39.890625 26.703125 39.890625 
Q 22.75 39.890625 18.8125 39.015625 
Q 14.890625 38.140625 10.796875 36.28125 
z
" id="DejaVuSans-53"/>
       </defs>
       <use transform="translate(0 0.684375)" xlink:href="#DejaVuSans-49"/>
       <use transform="translate(63.623047 0.684375)" xlink:href="#DejaVuSans-48"/>
       <use transform="translate(128.203125 38.965625)scale(0.7)" xlink:href="#DejaVuSans-8722"/>
       <use transform="translate(186.855469 38.965625)scale(0.7)" xlink:href="#DejaVuSans-49"/>
       <use transform="translate(231.391602 38.965625)scale(0.7)" xlink:href="#DejaVuSans-46"/>
       <use transform="translate(253.642578 38.965625)scale(0.7)" xlink:href="#DejaVuSans-53"/>
      </g>
     </g>
    </g>
    <g id="ytick_3">
     <g id="line2d_20">
      <path clip-path="url(#pd4f584954c)" d="M 48.115483 83.638185 
L 429.165354 83.638185 
" style="fill:none;stroke:#000000;stroke-linecap:square;stroke-opacity:0.1;stroke-width:0.5;"/>
     </g>
     <g id="line2d_21">
      <g>
       <use style="stroke:#000000;stroke-width:0.5;" x="48.115483" xlink:href="#m0a03bcc10c" y="83.638185"/>
      </g>
     </g>
     <g id="text_9">
      <!-- $\mathregular{10^{-1.0}}$ -->
      <g transform="translate(18.435483 86.67756)scale(0.08 -0.08)">
       <use transform="translate(0 0.765625)" xlink:href="#DejaVuSans-49"/>
       <use transform="translate(63.623047 0.765625)" xlink:href="#DejaVuSans-48"/>
       <use transform="translate(128.203125 39.046875)scale(0.7)" xlink:href="#DejaVuSans-8722"/>
       <use transform="translate(186.855469 39.046875)scale(0.7)" xlink:href="#DejaVuSans-49"/>
       <use transform="translate(231.391602 39.046875)scale(0.7)" xlink:href="#DejaVuSans-46"/>
       <use transform="translate(253.642578 39.046875)scale(0.7)" xlink:href="#DejaVuSans-48"/>
      </g>
     </g>
    </g>
    <g id="ytick_4">
     <g id="line2d_22">
      <path clip-path="url(#pd4f584954c)" d="M 48.115483 22.715647 
L 429.165354 22.715647 
" style="fill:none;stroke:#000000;stroke-linecap:square;stroke-opacity:0.1;stroke-width:0.5;"/>
     </g>
     <g id="line2d_23">
      <g>
       <use style="stroke:#000000;stroke-width:0.5;" x="48.115483" xlink:href="#m0a03bcc10c" y="22.715647"/>
      </g>
     </g>
     <g id="text_10">
      <!-- $\mathregular{10^{-0.5}}$ -->
      <g transform="translate(18.435483 25.755022)scale(0.08 -0.08)">
       <use transform="translate(0 0.765625)" xlink:href="#DejaVuSans-49"/>
       <use transform="translate(63.623047 0.765625)" xlink:href="#DejaVuSans-48"/>
       <use transform="translate(128.203125 39.046875)scale(0.7)" xlink:href="#DejaVuSans-8722"/>
       <use transform="translate(186.855469 39.046875)scale(0.7)" xlink:href="#DejaVuSans-48"/>
       <use transform="translate(231.391602 39.046875)scale(0.7)" xlink:href="#DejaVuSans-46"/>
       <use transform="translate(253.642578 39.046875)scale(0.7)" xlink:href="#DejaVuSans-53"/>
      </g>
     </g>
    </g>
    <g id="text_11">
     <!-- Time (s) -->
     <g transform="translate(12.147826 151.193797)rotate(-90)scale(0.11 -0.11)">
      <defs>
       <path d="M -0.296875 72.90625 
L 61.375 72.90625 
L 61.375 64.59375 
L 35.5 64.59375 
L 35.5 0 
L 25.59375 0 
L 25.59375 64.59375 
L -0.296875 64.59375 
z
" id="DejaVuSans-84"/>
       <path d="M 9.421875 54.6875 
L 18.40625 54.6875 
L 18.40625 0 
L 9.421875 0 
z
M 9.421875 75.984375 
L 18.40625 75.984375 
L 18.40625 64.59375 
L 9.421875 64.59375 
z
" id="DejaVuSans-105"/>
       <path d="M 52 44.1875 
Q 55.375 50.25 60.0625 53.125 
Q 64.75 56 71.09375 56 
Q 79.640625 56 84.28125 50.015625 
Q 88.921875 44.046875 88.921875 33.015625 
L 88.921875 0 
L 79.890625 0 
L 79.890625 32.71875 
Q 79.890625 40.578125 77.09375 44.375 
Q 74.3125 48.1875 68.609375 48.1875 
Q 61.625 48.1875 57.5625 43.546875 
Q 53.515625 38.921875 53.515625 30.90625 
L 53.515625 0 
L 44.484375 0 
L 44.484375 32.71875 
Q 44.484375 40.625 41.703125 44.40625 
Q 38.921875 48.1875 33.109375 48.1875 
Q 26.21875 48.1875 22.15625 43.53125 
Q 18.109375 38.875 18.109375 30.90625 
L 18.109375 0 
L 9.078125 0 
L 9.078125 54.6875 
L 18.109375 54.6875 
L 18.109375 46.1875 
Q 21.1875 51.21875 25.484375 53.609375 
Q 29.78125 56 35.6875 56 
Q 41.65625 56 45.828125 52.96875 
Q 50 49.953125 52 44.1875 
z
" id="DejaVuSans-109"/>
       <path d="M 56.203125 29.59375 
L 56.203125 25.203125 
L 14.890625 25.203125 
Q 15.484375 15.921875 20.484375 11.0625 
Q 25.484375 6.203125 34.421875 6.203125 
Q 39.59375 6.203125 44.453125 7.46875 
Q 49.3125 8.734375 54.109375 11.28125 
L 54.109375 2.78125 
Q 49.265625 0.734375 44.1875 -0.34375 
Q 39.109375 -1.421875 33.890625 -1.421875 
Q 20.796875 -1.421875 13.15625 6.1875 
Q 5.515625 13.8125 5.515625 26.8125 
Q 5.515625 40.234375 12.765625 48.109375 
Q 20.015625 56 32.328125 56 
Q 43.359375 56 49.78125 48.890625 
Q 56.203125 41.796875 56.203125 29.59375 
z
M 47.21875 32.234375 
Q 47.125 39.59375 43.09375 43.984375 
Q 39.0625 48.390625 32.421875 48.390625 
Q 24.90625 48.390625 20.390625 44.140625 
Q 15.875 39.890625 15.1875 32.171875 
z
" id="DejaVuSans-101"/>
       <path id="DejaVuSans-32"/>
       <path d="M 31 75.875 
Q 24.46875 64.65625 21.28125 53.65625 
Q 18.109375 42.671875 18.109375 31.390625 
Q 18.109375 20.125 21.3125 9.0625 
Q 24.515625 -2 31 -13.1875 
L 23.1875 -13.1875 
Q 15.875 -1.703125 12.234375 9.375 
Q 8.59375 20.453125 8.59375 31.390625 
Q 8.59375 42.28125 12.203125 53.3125 
Q 15.828125 64.359375 23.1875 75.875 
z
" id="DejaVuSans-40"/>
       <path d="M 44.28125 53.078125 
L 44.28125 44.578125 
Q 40.484375 46.53125 36.375 47.5 
Q 32.28125 48.484375 27.875 48.484375 
Q 21.1875 48.484375 17.84375 46.4375 
Q 14.5 44.390625 14.5 40.28125 
Q 14.5 37.15625 16.890625 35.375 
Q 19.28125 33.59375 26.515625 31.984375 
L 29.59375 31.296875 
Q 39.15625 29.25 43.1875 25.515625 
Q 47.21875 21.78125 47.21875 15.09375 
Q 47.21875 7.46875 41.1875 3.015625 
Q 35.15625 -1.421875 24.609375 -1.421875 
Q 20.21875 -1.421875 15.453125 -0.5625 
Q 10.6875 0.296875 5.421875 2 
L 5.421875 11.28125 
Q 10.40625 8.6875 15.234375 7.390625 
Q 20.0625 6.109375 24.8125 6.109375 
Q 31.15625 6.109375 34.5625 8.28125 
Q 37.984375 10.453125 37.984375 14.40625 
Q 37.984375 18.0625 35.515625 20.015625 
Q 33.0625 21.96875 24.703125 23.78125 
L 21.578125 24.515625 
Q 13.234375 26.265625 9.515625 29.90625 
Q 5.8125 33.546875 5.8125 39.890625 
Q 5.8125 47.609375 11.28125 51.796875 
Q 16.75 56 26.8125 56 
Q 31.78125 56 36.171875 55.265625 
Q 40.578125 54.546875 44.28125 53.078125 
z
" id="DejaVuSans-115"/>
       <path d="M 8.015625 75.875 
L 15.828125 75.875 
Q 23.140625 64.359375 26.78125 53.3125 
Q 30.421875 42.28125 30.421875 31.390625 
Q 30.421875 20.453125 26.78125 9.375 
Q 23.140625 -1.703125 15.828125 -13.1875 
L 8.015625 -13.1875 
Q 14.5 -2 17.703125 9.0625 
Q 20.90625 20.125 20.90625 31.390625 
Q 20.90625 42.671875 17.703125 53.65625 
Q 14.5 64.65625 8.015625 75.875 
z
" id="DejaVuSans-41"/>
      </defs>
      <use xlink:href="#DejaVuSans-84"/>
      <use x="57.958984" xlink:href="#DejaVuSans-105"/>
      <use x="85.742188" xlink:href="#DejaVuSans-109"/>
      <use x="183.154297" xlink:href="#DejaVuSans-101"/>
      <use x="244.677734" xlink:href="#DejaVuSans-32"/>
      <use x="276.464844" xlink:href="#DejaVuSans-40"/>
      <use x="315.478516" xlink:href="#DejaVuSans-115"/>
      <use x="367.578125" xlink:href="#DejaVuSans-41"/>
     </g>
    </g>
   </g>
   <g id="line2d_24">
    <path clip-path="url(#pd4f584954c)" d="M 312.164711 99.96027 
L 273.732339 102.352444 
L 233.670386 103.629645 
L 190.45656 99.70745 
L 150.104948 90.910283 
L 109.368447 70.268169 
L 66.921729 53.191265 
" style="fill:none;stroke:#009afa;stroke-width:3;"/>
   </g>
   <g id="PathCollection_1">
    <defs>
     <path d="M 0 2 
C 0.530406 2 1.03916 1.789267 1.414214 1.414214 
C 1.789267 1.03916 2 0.530406 2 0 
C 2 -0.530406 1.789267 -1.03916 1.414214 -1.414214 
C 1.03916 -1.789267 0.530406 -2 0 -2 
C -0.530406 -2 -1.03916 -1.789267 -1.414214 -1.414214 
C -1.789267 -1.03916 -2 -0.530406 -2 0 
C -2 0.530406 -1.789267 1.03916 -1.414214 1.414214 
C -1.03916 1.789267 -0.530406 2 0 2 
z
" id="md1b9eabc2d" style="stroke:#000000;"/>
    </defs>
    <g clip-path="url(#pd4f584954c)">
     <use style="fill:#009afa;stroke:#000000;" x="312.164711" xlink:href="#md1b9eabc2d" y="99.96027"/>
     <use style="fill:#009afa;stroke:#000000;" x="273.732339" xlink:href="#md1b9eabc2d" y="102.352444"/>
     <use style="fill:#009afa;stroke:#000000;" x="233.670386" xlink:href="#md1b9eabc2d" y="103.629645"/>
     <use style="fill:#009afa;stroke:#000000;" x="190.45656" xlink:href="#md1b9eabc2d" y="99.70745"/>
     <use style="fill:#009afa;stroke:#000000;" x="150.104948" xlink:href="#md1b9eabc2d" y="90.910283"/>
     <use style="fill:#009afa;stroke:#000000;" x="109.368447" xlink:href="#md1b9eabc2d" y="70.268169"/>
     <use style="fill:#009afa;stroke:#000000;" x="66.921729" xlink:href="#md1b9eabc2d" y="53.191265"/>
    </g>
   </g>
   <g id="line2d_25">
    <path clip-path="url(#pd4f584954c)" d="M 362.848397 136.86399 
L 331.206865 118.812851 
L 295.673908 101.055518 
L 252.197737 81.318571 
L 222.323289 55.149356 
L 189.013132 34.522983 
L 152.89243 9.966571 
" style="fill:none;stroke:#e36f47;stroke-width:3;"/>
   </g>
   <g id="PathCollection_2">
    <defs>
     <path d="M -2 2 
L 2 2 
L 2 -2 
L -2 -2 
z
" id="m3c97f42359" style="stroke:#000000;"/>
    </defs>
    <g clip-path="url(#pd4f584954c)">
     <use style="fill:#e36f47;stroke:#000000;" x="362.848397" xlink:href="#m3c97f42359" y="136.86399"/>
     <use style="fill:#e36f47;stroke:#000000;" x="331.206865" xlink:href="#m3c97f42359" y="118.812851"/>
     <use style="fill:#e36f47;stroke:#000000;" x="295.673908" xlink:href="#m3c97f42359" y="101.055518"/>
     <use style="fill:#e36f47;stroke:#000000;" x="252.197737" xlink:href="#m3c97f42359" y="81.318571"/>
     <use style="fill:#e36f47;stroke:#000000;" x="222.323289" xlink:href="#m3c97f42359" y="55.149356"/>
     <use style="fill:#e36f47;stroke:#000000;" x="189.013132" xlink:href="#m3c97f42359" y="34.522983"/>
     <use style="fill:#e36f47;stroke:#000000;" x="152.89243" xlink:href="#m3c97f42359" y="9.966571"/>
    </g>
   </g>
   <g id="patch_3">
    <path d="M 48.115483 254.829354 
L 48.115483 2.834646 
" style="fill:none;stroke:#000000;stroke-linecap:square;stroke-linejoin:miter;"/>
   </g>
   <g id="patch_4">
    <path d="M 48.115483 254.829354 
L 429.165354 254.829354 
" style="fill:none;stroke:#000000;stroke-linecap:square;stroke-linejoin:miter;"/>
   </g>
   <g id="line2d_26">
    <path clip-path="url(#pd4f584954c)" d="M 416.35929 247.697429 
L 368.054346 233.111312 
L 351.039055 213.807635 
L 314.910977 195.298905 
L 286.886597 180.012064 
L 227.231234 160.346044 
L 208.271505 140.494032 
" style="fill:none;stroke:#3ea44e;stroke-width:3;"/>
   </g>
   <g id="PathCollection_3">
    <defs>
     <path d="M 0 -2 
L -0.449028 -0.618034 
L -1.902113 -0.618034 
L -0.726543 0.236068 
L -1.175571 1.618034 
L -0 0.763932 
L 1.175571 1.618034 
L 0.726543 0.236068 
L 1.902113 -0.618034 
L 0.449028 -0.618034 
z
" id="m4711caac3c" style="stroke:#000000;"/>
    </defs>
    <g clip-path="url(#pd4f584954c)">
     <use style="fill:#3ea44e;stroke:#000000;" x="416.35929" xlink:href="#m4711caac3c" y="247.697429"/>
     <use style="fill:#3ea44e;stroke:#000000;" x="368.054346" xlink:href="#m4711caac3c" y="233.111312"/>
     <use style="fill:#3ea44e;stroke:#000000;" x="351.039055" xlink:href="#m4711caac3c" y="213.807635"/>
     <use style="fill:#3ea44e;stroke:#000000;" x="314.910977" xlink:href="#m4711caac3c" y="195.298905"/>
     <use style="fill:#3ea44e;stroke:#000000;" x="286.886597" xlink:href="#m4711caac3c" y="180.012064"/>
     <use style="fill:#3ea44e;stroke:#000000;" x="227.231234" xlink:href="#m4711caac3c" y="160.346044"/>
     <use style="fill:#3ea44e;stroke:#000000;" x="208.271505" xlink:href="#m4711caac3c" y="140.494032"/>
    </g>
   </g>
   <g id="line2d_27">
    <path clip-path="url(#pd4f584954c)" d="M 411.726951 203.215924 
L 368.223863 171.151977 
L 327.190699 142.896723 
L 299.658808 114.108535 
L 288.613999 79.507349 
L 276.707555 41.78036 
L 266.168906 12.249955 
" style="fill:none;stroke:#c371d2;stroke-width:3;"/>
   </g>
   <g id="PathCollection_4">
    <defs>
     <path d="M -0 2.828427 
L 2.828427 0 
L 0 -2.828427 
L -2.828427 -0 
z
" id="me2e4ea8cc0" style="stroke:#000000;"/>
    </defs>
    <g clip-path="url(#pd4f584954c)">
     <use style="fill:#c371d2;stroke:#000000;" x="411.726951" xlink:href="#me2e4ea8cc0" y="203.215924"/>
     <use style="fill:#c371d2;stroke:#000000;" x="368.223863" xlink:href="#me2e4ea8cc0" y="171.151977"/>
     <use style="fill:#c371d2;stroke:#000000;" x="327.190699" xlink:href="#me2e4ea8cc0" y="142.896723"/>
     <use style="fill:#c371d2;stroke:#000000;" x="299.658808" xlink:href="#me2e4ea8cc0" y="114.108535"/>
     <use style="fill:#c371d2;stroke:#000000;" x="288.613999" xlink:href="#me2e4ea8cc0" y="79.507349"/>
     <use style="fill:#c371d2;stroke:#000000;" x="276.707555" xlink:href="#me2e4ea8cc0" y="41.78036"/>
     <use style="fill:#c371d2;stroke:#000000;" x="266.168906" xlink:href="#me2e4ea8cc0" y="12.249955"/>
    </g>
   </g>
   <g id="line2d_28">
    <path clip-path="url(#pd4f584954c)" d="M 396.159534 182.415671 
L 368.453535 176.018802 
L 355.203181 156.44197 
L 319.619477 138.850733 
L 298.692271 121.539056 
L 274.73908 97.51501 
L 218.064413 73.878006 
" style="fill:none;stroke:#ac8e18;stroke-width:3;"/>
   </g>
   <g id="PathCollection_5">
    <defs>
     <path d="M 0 -2 
L -1.732051 -1 
L -1.732051 1 
L -0 2 
L 1.732051 1 
L 1.732051 -1 
z
" id="m737eb487b8" style="stroke:#000000;"/>
    </defs>
    <g clip-path="url(#pd4f584954c)">
     <use style="fill:#ac8e18;stroke:#000000;" x="396.159534" xlink:href="#m737eb487b8" y="182.415671"/>
     <use style="fill:#ac8e18;stroke:#000000;" x="368.453535" xlink:href="#m737eb487b8" y="176.018802"/>
     <use style="fill:#ac8e18;stroke:#000000;" x="355.203181" xlink:href="#m737eb487b8" y="156.44197"/>
     <use style="fill:#ac8e18;stroke:#000000;" x="319.619477" xlink:href="#m737eb487b8" y="138.850733"/>
     <use style="fill:#ac8e18;stroke:#000000;" x="298.692271" xlink:href="#m737eb487b8" y="121.539056"/>
     <use style="fill:#ac8e18;stroke:#000000;" x="274.73908" xlink:href="#m737eb487b8" y="97.51501"/>
     <use style="fill:#ac8e18;stroke:#000000;" x="218.064413" xlink:href="#m737eb487b8" y="73.878006"/>
    </g>
   </g>
   <g id="line2d_29">
    <path clip-path="url(#pd4f584954c)" d="M 416.892047 172.365221 
L 387.970766 164.542938 
L 371.991291 160.116394 
L 348.823833 141.002823 
L 323.489829 122.319986 
L 291.351901 101.311228 
L 260.439975 78.234344 
" style="fill:none;stroke:#00aaae;stroke-width:3;"/>
   </g>
   <g id="PathCollection_6">
    <defs>
     <path d="M 0.828427 2 
L 0.765367 0.765367 
L 2 0.828427 
L 2 -0.828427 
L 0.765367 -0.765367 
L 0.828427 -2 
L -0.828427 -2 
L -0.765367 -0.765367 
L -2 -0.828427 
L -2 0.828427 
L -0.765367 0.765367 
L -0.828427 2 
L 0.828427 2 
L 0.765367 0.765367 
L 0.828427 2 
" id="mbdab4eaf00" style="stroke:#000000;"/>
    </defs>
    <g clip-path="url(#pd4f584954c)">
     <use style="fill:#00aaae;stroke:#000000;" x="416.892047" xlink:href="#mbdab4eaf00" y="172.365221"/>
     <use style="fill:#00aaae;stroke:#000000;" x="387.970766" xlink:href="#mbdab4eaf00" y="164.542938"/>
     <use style="fill:#00aaae;stroke:#000000;" x="371.991291" xlink:href="#mbdab4eaf00" y="160.116394"/>
     <use style="fill:#00aaae;stroke:#000000;" x="348.823833" xlink:href="#mbdab4eaf00" y="141.002823"/>
     <use style="fill:#00aaae;stroke:#000000;" x="323.489829" xlink:href="#mbdab4eaf00" y="122.319986"/>
     <use style="fill:#00aaae;stroke:#000000;" x="291.351901" xlink:href="#mbdab4eaf00" y="101.311228"/>
     <use style="fill:#00aaae;stroke:#000000;" x="260.439975" xlink:href="#mbdab4eaf00" y="78.234344"/>
    </g>
   </g>
   <g id="line2d_30">
    <path clip-path="url(#pd4f584954c)" d="M 291.598935 78.909292 
L 243.248301 77.65453 
L 203.54227 76.725606 
L 157.46656 72.990426 
L 118.99519 65.631537 
L 85.801219 55.307434 
L 58.899913 40.347292 
" style="fill:none;stroke:#ed5e93;stroke-width:3;"/>
   </g>
   <g id="PathCollection_7">
    <defs>
     <path d="M -0.828427 2 
L 0 1.082392 
L 0.828427 2 
L 2 0.828427 
L 1.082392 0 
L 2 -0.828427 
L 0.828427 -2 
L 0 -1.082392 
L -0.828427 -2 
L -2 -0.828427 
L -1.082392 -0 
L -2 0.828427 
L -0.828427 2 
L -0 1.082392 
L -0.828427 2 
" id="m09e4ae880b" style="stroke:#000000;"/>
    </defs>
    <g clip-path="url(#pd4f584954c)">
     <use style="fill:#ed5e93;stroke:#000000;" x="291.598935" xlink:href="#m09e4ae880b" y="78.909292"/>
     <use style="fill:#ed5e93;stroke:#000000;" x="243.248301" xlink:href="#m09e4ae880b" y="77.65453"/>
     <use style="fill:#ed5e93;stroke:#000000;" x="203.54227" xlink:href="#m09e4ae880b" y="76.725606"/>
     <use style="fill:#ed5e93;stroke:#000000;" x="157.46656" xlink:href="#m09e4ae880b" y="72.990426"/>
     <use style="fill:#ed5e93;stroke:#000000;" x="118.99519" xlink:href="#m09e4ae880b" y="65.631537"/>
     <use style="fill:#ed5e93;stroke:#000000;" x="85.801219" xlink:href="#m09e4ae880b" y="55.307434"/>
     <use style="fill:#ed5e93;stroke:#000000;" x="58.899913" xlink:href="#m09e4ae880b" y="40.347292"/>
    </g>
   </g>
   <g id="line2d_31">
    <path clip-path="url(#pd4f584954c)" d="M 341.022565 77.220301 
L 288.649607 77.116342 
L 238.060035 76.715623 
L 199.468301 73.963179 
L 163.188075 67.460037 
L 117.408645 58.514039 
L 76.043847 41.288721 
" style="fill:none;stroke:#c68225;stroke-width:3;"/>
   </g>
   <g id="PathCollection_8">
    <defs>
     <path d="M 0 -2 
L -2 2 
L 2 2 
z
" id="mde28b5a433" style="stroke:#000000;"/>
    </defs>
    <g clip-path="url(#pd4f584954c)">
     <use style="fill:#c68225;stroke:#000000;" x="341.022565" xlink:href="#mde28b5a433" y="77.220301"/>
     <use style="fill:#c68225;stroke:#000000;" x="288.649607" xlink:href="#mde28b5a433" y="77.116342"/>
     <use style="fill:#c68225;stroke:#000000;" x="238.060035" xlink:href="#mde28b5a433" y="76.715623"/>
     <use style="fill:#c68225;stroke:#000000;" x="199.468301" xlink:href="#mde28b5a433" y="73.963179"/>
     <use style="fill:#c68225;stroke:#000000;" x="163.188075" xlink:href="#mde28b5a433" y="67.460037"/>
     <use style="fill:#c68225;stroke:#000000;" x="117.408645" xlink:href="#mde28b5a433" y="58.514039"/>
     <use style="fill:#c68225;stroke:#000000;" x="76.043847" xlink:href="#mde28b5a433" y="41.288721"/>
    </g>
   </g>
   <g id="line2d_32">
    <path clip-path="url(#pd4f584954c)" d="M 418.380924 240.422214 
L 380.357145 221.761646 
L 361.759649 202.528248 
L 346.127645 181.23429 
L 346.166434 167.984808 
L 335.412504 149.946281 
L 321.362255 135.51184 
" style="fill:none;stroke:#00a98d;stroke-width:3;"/>
   </g>
   <g id="PathCollection_9">
    <defs>
     <path d="M -0 2 
L 2 -2 
L -2 -2 
z
" id="m9b7eb80d40" style="stroke:#000000;"/>
    </defs>
    <g clip-path="url(#pd4f584954c)">
     <use style="fill:#00a98d;stroke:#000000;" x="418.380924" xlink:href="#m9b7eb80d40" y="240.422214"/>
     <use style="fill:#00a98d;stroke:#000000;" x="380.357145" xlink:href="#m9b7eb80d40" y="221.761646"/>
     <use style="fill:#00a98d;stroke:#000000;" x="361.759649" xlink:href="#m9b7eb80d40" y="202.528248"/>
     <use style="fill:#00a98d;stroke:#000000;" x="346.127645" xlink:href="#m9b7eb80d40" y="181.23429"/>
     <use style="fill:#00a98d;stroke:#000000;" x="346.166434" xlink:href="#m9b7eb80d40" y="167.984808"/>
     <use style="fill:#00a98d;stroke:#000000;" x="335.412504" xlink:href="#m9b7eb80d40" y="149.946281"/>
     <use style="fill:#00a98d;stroke:#000000;" x="321.362255" xlink:href="#m9b7eb80d40" y="135.51184"/>
    </g>
   </g>
   <g id="legend_1">
    <g id="patch_5">
     <path d="M 341.284104 121.539646 
L 425.165354 121.539646 
L 425.165354 6.834646 
L 341.284104 6.834646 
z
" style="fill:#ffffff;stroke:#000000;stroke-linejoin:miter;"/>
    </g>
    <g id="line2d_33">
     <path d="M 347.684104 16.513396 
L 363.684104 16.513396 
" style="fill:none;stroke:#009afa;stroke-linejoin:miter;"/>
    </g>
    <g id="line2d_34">
     <defs>
      <path d="M 0 3.2 
C 0.84865 3.2 1.662656 2.862828 2.262742 2.262742 
C 2.862828 1.662656 3.2 0.84865 3.2 0 
C 3.2 -0.84865 2.862828 -1.662656 2.262742 -2.262742 
C 1.662656 -2.862828 0.84865 -3.2 0 -3.2 
C -0.84865 -3.2 -1.662656 -2.862828 -2.262742 -2.262742 
C -2.862828 -1.662656 -3.2 -0.84865 -3.2 0 
C -3.2 0.84865 -2.862828 1.662656 -2.262742 2.262742 
C -1.662656 2.862828 -0.84865 3.2 0 3.2 
z
" id="mfc5de30b40" style="stroke:#000000;stroke-width:1.6;"/>
     </defs>
     <g>
      <use style="fill:#009afa;stroke:#000000;stroke-width:1.6;" x="355.684104" xlink:href="#mfc5de30b40" y="16.513396"/>
     </g>
    </g>
    <g id="text_12">
     <!-- Tsit5 -->
     <g transform="translate(370.084104 19.313396)scale(0.08 -0.08)">
      <defs>
       <path d="M 18.3125 70.21875 
L 18.3125 54.6875 
L 36.8125 54.6875 
L 36.8125 47.703125 
L 18.3125 47.703125 
L 18.3125 18.015625 
Q 18.3125 11.328125 20.140625 9.421875 
Q 21.96875 7.515625 27.59375 7.515625 
L 36.8125 7.515625 
L 36.8125 0 
L 27.59375 0 
Q 17.1875 0 13.234375 3.875 
Q 9.28125 7.765625 9.28125 18.015625 
L 9.28125 47.703125 
L 2.6875 47.703125 
L 2.6875 54.6875 
L 9.28125 54.6875 
L 9.28125 70.21875 
z
" id="DejaVuSans-116"/>
      </defs>
      <use xlink:href="#DejaVuSans-84"/>
      <use x="44.583984" xlink:href="#DejaVuSans-115"/>
      <use x="96.683594" xlink:href="#DejaVuSans-105"/>
      <use x="124.466797" xlink:href="#DejaVuSans-116"/>
      <use x="163.675781" xlink:href="#DejaVuSans-53"/>
     </g>
    </g>
    <g id="line2d_35">
     <path d="M 347.684104 28.255896 
L 363.684104 28.255896 
" style="fill:none;stroke:#e36f47;stroke-linejoin:miter;"/>
    </g>
    <g id="line2d_36">
     <defs>
      <path d="M -3.2 3.2 
L 3.2 3.2 
L 3.2 -3.2 
L -3.2 -3.2 
z
" id="m72e0f4914e" style="stroke:#000000;stroke-linejoin:miter;stroke-width:1.6;"/>
     </defs>
     <g>
      <use style="fill:#e36f47;stroke:#000000;stroke-linejoin:miter;stroke-width:1.6;" x="355.684104" xlink:href="#m72e0f4914e" y="28.255896"/>
     </g>
    </g>
    <g id="text_13">
     <!-- ROCK4 -->
     <g transform="translate(370.084104 31.055896)scale(0.08 -0.08)">
      <defs>
       <path d="M 44.390625 34.1875 
Q 47.5625 33.109375 50.5625 29.59375 
Q 53.5625 26.078125 56.59375 19.921875 
L 66.609375 0 
L 56 0 
L 46.6875 18.703125 
Q 43.0625 26.03125 39.671875 28.421875 
Q 36.28125 30.8125 30.421875 30.8125 
L 19.671875 30.8125 
L 19.671875 0 
L 9.8125 0 
L 9.8125 72.90625 
L 32.078125 72.90625 
Q 44.578125 72.90625 50.734375 67.671875 
Q 56.890625 62.453125 56.890625 51.90625 
Q 56.890625 45.015625 53.6875 40.46875 
Q 50.484375 35.9375 44.390625 34.1875 
z
M 19.671875 64.796875 
L 19.671875 38.921875 
L 32.078125 38.921875 
Q 39.203125 38.921875 42.84375 42.21875 
Q 46.484375 45.515625 46.484375 51.90625 
Q 46.484375 58.296875 42.84375 61.546875 
Q 39.203125 64.796875 32.078125 64.796875 
z
" id="DejaVuSans-82"/>
       <path d="M 39.40625 66.21875 
Q 28.65625 66.21875 22.328125 58.203125 
Q 16.015625 50.203125 16.015625 36.375 
Q 16.015625 22.609375 22.328125 14.59375 
Q 28.65625 6.59375 39.40625 6.59375 
Q 50.140625 6.59375 56.421875 14.59375 
Q 62.703125 22.609375 62.703125 36.375 
Q 62.703125 50.203125 56.421875 58.203125 
Q 50.140625 66.21875 39.40625 66.21875 
z
M 39.40625 74.21875 
Q 54.734375 74.21875 63.90625 63.9375 
Q 73.09375 53.65625 73.09375 36.375 
Q 73.09375 19.140625 63.90625 8.859375 
Q 54.734375 -1.421875 39.40625 -1.421875 
Q 24.03125 -1.421875 14.8125 8.828125 
Q 5.609375 19.09375 5.609375 36.375 
Q 5.609375 53.65625 14.8125 63.9375 
Q 24.03125 74.21875 39.40625 74.21875 
z
" id="DejaVuSans-79"/>
       <path d="M 64.40625 67.28125 
L 64.40625 56.890625 
Q 59.421875 61.53125 53.78125 63.8125 
Q 48.140625 66.109375 41.796875 66.109375 
Q 29.296875 66.109375 22.65625 58.46875 
Q 16.015625 50.828125 16.015625 36.375 
Q 16.015625 21.96875 22.65625 14.328125 
Q 29.296875 6.6875 41.796875 6.6875 
Q 48.140625 6.6875 53.78125 8.984375 
Q 59.421875 11.28125 64.40625 15.921875 
L 64.40625 5.609375 
Q 59.234375 2.09375 53.4375 0.328125 
Q 47.65625 -1.421875 41.21875 -1.421875 
Q 24.65625 -1.421875 15.125 8.703125 
Q 5.609375 18.84375 5.609375 36.375 
Q 5.609375 53.953125 15.125 64.078125 
Q 24.65625 74.21875 41.21875 74.21875 
Q 47.75 74.21875 53.53125 72.484375 
Q 59.328125 70.75 64.40625 67.28125 
z
" id="DejaVuSans-67"/>
       <path d="M 9.8125 72.90625 
L 19.671875 72.90625 
L 19.671875 42.09375 
L 52.390625 72.90625 
L 65.09375 72.90625 
L 28.90625 38.921875 
L 67.671875 0 
L 54.6875 0 
L 19.671875 35.109375 
L 19.671875 0 
L 9.8125 0 
z
" id="DejaVuSans-75"/>
      </defs>
      <use xlink:href="#DejaVuSans-82"/>
      <use x="69.482422" xlink:href="#DejaVuSans-79"/>
      <use x="148.193359" xlink:href="#DejaVuSans-67"/>
      <use x="218.017578" xlink:href="#DejaVuSans-75"/>
      <use x="283.59375" xlink:href="#DejaVuSans-52"/>
     </g>
    </g>
    <g id="line2d_37">
     <path d="M 347.684104 39.998396 
L 363.684104 39.998396 
" style="fill:none;stroke:#3ea44e;stroke-linejoin:miter;"/>
    </g>
    <g id="line2d_38">
     <defs>
      <path d="M 0 -3.2 
L -0.718445 -0.988854 
L -3.043381 -0.988854 
L -1.162468 0.377709 
L -1.880913 2.588854 
L -0 1.222291 
L 1.880913 2.588854 
L 1.162468 0.377709 
L 3.043381 -0.988854 
L 0.718445 -0.988854 
z
" id="m4986b349a6" style="stroke:#000000;stroke-linejoin:bevel;stroke-width:1.6;"/>
     </defs>
     <g>
      <use style="fill:#3ea44e;stroke:#000000;stroke-linejoin:bevel;stroke-width:1.6;" x="355.684104" xlink:href="#m4986b349a6" y="39.998396"/>
     </g>
    </g>
    <g id="text_14">
     <!-- CVODE_BDF -->
     <g transform="translate(370.084104 42.798396)scale(0.08 -0.08)">
      <defs>
       <path d="M 28.609375 0 
L 0.78125 72.90625 
L 11.078125 72.90625 
L 34.1875 11.53125 
L 57.328125 72.90625 
L 67.578125 72.90625 
L 39.796875 0 
z
" id="DejaVuSans-86"/>
       <path d="M 19.671875 64.796875 
L 19.671875 8.109375 
L 31.59375 8.109375 
Q 46.6875 8.109375 53.6875 14.9375 
Q 60.6875 21.78125 60.6875 36.53125 
Q 60.6875 51.171875 53.6875 57.984375 
Q 46.6875 64.796875 31.59375 64.796875 
z
M 9.8125 72.90625 
L 30.078125 72.90625 
Q 51.265625 72.90625 61.171875 64.09375 
Q 71.09375 55.28125 71.09375 36.53125 
Q 71.09375 17.671875 61.125 8.828125 
Q 51.171875 0 30.078125 0 
L 9.8125 0 
z
" id="DejaVuSans-68"/>
       <path d="M 50.984375 -16.609375 
L 50.984375 -23.578125 
L -0.984375 -23.578125 
L -0.984375 -16.609375 
z
" id="DejaVuSans-95"/>
       <path d="M 19.671875 34.8125 
L 19.671875 8.109375 
L 35.5 8.109375 
Q 43.453125 8.109375 47.28125 11.40625 
Q 51.125 14.703125 51.125 21.484375 
Q 51.125 28.328125 47.28125 31.5625 
Q 43.453125 34.8125 35.5 34.8125 
z
M 19.671875 64.796875 
L 19.671875 42.828125 
L 34.28125 42.828125 
Q 41.5 42.828125 45.03125 45.53125 
Q 48.578125 48.25 48.578125 53.8125 
Q 48.578125 59.328125 45.03125 62.0625 
Q 41.5 64.796875 34.28125 64.796875 
z
M 9.8125 72.90625 
L 35.015625 72.90625 
Q 46.296875 72.90625 52.390625 68.21875 
Q 58.5 63.53125 58.5 54.890625 
Q 58.5 48.1875 55.375 44.234375 
Q 52.25 40.28125 46.1875 39.3125 
Q 53.46875 37.75 57.5 32.78125 
Q 61.53125 27.828125 61.53125 20.40625 
Q 61.53125 10.640625 54.890625 5.3125 
Q 48.25 0 35.984375 0 
L 9.8125 0 
z
" id="DejaVuSans-66"/>
       <path d="M 9.8125 72.90625 
L 51.703125 72.90625 
L 51.703125 64.59375 
L 19.671875 64.59375 
L 19.671875 43.109375 
L 48.578125 43.109375 
L 48.578125 34.8125 
L 19.671875 34.8125 
L 19.671875 0 
L 9.8125 0 
z
" id="DejaVuSans-70"/>
      </defs>
      <use xlink:href="#DejaVuSans-67"/>
      <use x="69.824219" xlink:href="#DejaVuSans-86"/>
      <use x="136.482422" xlink:href="#DejaVuSans-79"/>
      <use x="215.193359" xlink:href="#DejaVuSans-68"/>
      <use x="292.195312" xlink:href="#DejaVuSans-69"/>
      <use x="355.378906" xlink:href="#DejaVuSans-95"/>
      <use x="405.378906" xlink:href="#DejaVuSans-66"/>
      <use x="473.982422" xlink:href="#DejaVuSans-68"/>
      <use x="550.984375" xlink:href="#DejaVuSans-70"/>
     </g>
    </g>
    <g id="line2d_39">
     <path d="M 347.684104 51.963396 
L 363.684104 51.963396 
" style="fill:none;stroke:#c371d2;stroke-linejoin:miter;"/>
    </g>
    <g id="line2d_40">
     <defs>
      <path d="M -0 4.525483 
L 4.525483 0 
L 0 -4.525483 
L -4.525483 -0 
z
" id="ma7d38bcf31" style="stroke:#000000;stroke-linejoin:miter;stroke-width:1.6;"/>
     </defs>
     <g>
      <use style="fill:#c371d2;stroke:#000000;stroke-linejoin:miter;stroke-width:1.6;" x="355.684104" xlink:href="#ma7d38bcf31" y="51.963396"/>
     </g>
    </g>
    <g id="text_15">
     <!-- Rodas5 -->
     <g transform="translate(370.084104 54.763396)scale(0.08 -0.08)">
      <defs>
       <path d="M 45.40625 46.390625 
L 45.40625 75.984375 
L 54.390625 75.984375 
L 54.390625 0 
L 45.40625 0 
L 45.40625 8.203125 
Q 42.578125 3.328125 38.25 0.953125 
Q 33.9375 -1.421875 27.875 -1.421875 
Q 17.96875 -1.421875 11.734375 6.484375 
Q 5.515625 14.40625 5.515625 27.296875 
Q 5.515625 40.1875 11.734375 48.09375 
Q 17.96875 56 27.875 56 
Q 33.9375 56 38.25 53.625 
Q 42.578125 51.265625 45.40625 46.390625 
z
M 14.796875 27.296875 
Q 14.796875 17.390625 18.875 11.75 
Q 22.953125 6.109375 30.078125 6.109375 
Q 37.203125 6.109375 41.296875 11.75 
Q 45.40625 17.390625 45.40625 27.296875 
Q 45.40625 37.203125 41.296875 42.84375 
Q 37.203125 48.484375 30.078125 48.484375 
Q 22.953125 48.484375 18.875 42.84375 
Q 14.796875 37.203125 14.796875 27.296875 
z
" id="DejaVuSans-100"/>
       <path d="M 34.28125 27.484375 
Q 23.390625 27.484375 19.1875 25 
Q 14.984375 22.515625 14.984375 16.5 
Q 14.984375 11.71875 18.140625 8.90625 
Q 21.296875 6.109375 26.703125 6.109375 
Q 34.1875 6.109375 38.703125 11.40625 
Q 43.21875 16.703125 43.21875 25.484375 
L 43.21875 27.484375 
z
M 52.203125 31.203125 
L 52.203125 0 
L 43.21875 0 
L 43.21875 8.296875 
Q 40.140625 3.328125 35.546875 0.953125 
Q 30.953125 -1.421875 24.3125 -1.421875 
Q 15.921875 -1.421875 10.953125 3.296875 
Q 6 8.015625 6 15.921875 
Q 6 25.140625 12.171875 29.828125 
Q 18.359375 34.515625 30.609375 34.515625 
L 43.21875 34.515625 
L 43.21875 35.40625 
Q 43.21875 41.609375 39.140625 45 
Q 35.0625 48.390625 27.6875 48.390625 
Q 23 48.390625 18.546875 47.265625 
Q 14.109375 46.140625 10.015625 43.890625 
L 10.015625 52.203125 
Q 14.9375 54.109375 19.578125 55.046875 
Q 24.21875 56 28.609375 56 
Q 40.484375 56 46.34375 49.84375 
Q 52.203125 43.703125 52.203125 31.203125 
z
" id="DejaVuSans-97"/>
      </defs>
      <use xlink:href="#DejaVuSans-82"/>
      <use x="64.982422" xlink:href="#DejaVuSans-111"/>
      <use x="126.164062" xlink:href="#DejaVuSans-100"/>
      <use x="189.640625" xlink:href="#DejaVuSans-97"/>
      <use x="250.919922" xlink:href="#DejaVuSans-115"/>
      <use x="303.019531" xlink:href="#DejaVuSans-53"/>
     </g>
    </g>
    <g id="line2d_41">
     <path d="M 347.684104 63.705896 
L 363.684104 63.705896 
" style="fill:none;stroke:#ac8e18;stroke-linejoin:miter;"/>
    </g>
    <g id="line2d_42">
     <defs>
      <path d="M 0 -3.2 
L -2.771281 -1.6 
L -2.771281 1.6 
L -0 3.2 
L 2.771281 1.6 
L 2.771281 -1.6 
z
" id="m28442b4be2" style="stroke:#000000;stroke-linejoin:miter;stroke-width:1.6;"/>
     </defs>
     <g>
      <use style="fill:#ac8e18;stroke:#000000;stroke-linejoin:miter;stroke-width:1.6;" x="355.684104" xlink:href="#m28442b4be2" y="63.705896"/>
     </g>
    </g>
    <g id="text_16">
     <!-- Kvaerno5 -->
     <g transform="translate(370.084104 66.505896)scale(0.08 -0.08)">
      <defs>
       <path d="M 2.984375 54.6875 
L 12.5 54.6875 
L 29.59375 8.796875 
L 46.6875 54.6875 
L 56.203125 54.6875 
L 35.6875 0 
L 23.484375 0 
z
" id="DejaVuSans-118"/>
       <path d="M 54.890625 33.015625 
L 54.890625 0 
L 45.90625 0 
L 45.90625 32.71875 
Q 45.90625 40.484375 42.875 44.328125 
Q 39.84375 48.1875 33.796875 48.1875 
Q 26.515625 48.1875 22.3125 43.546875 
Q 18.109375 38.921875 18.109375 30.90625 
L 18.109375 0 
L 9.078125 0 
L 9.078125 54.6875 
L 18.109375 54.6875 
L 18.109375 46.1875 
Q 21.34375 51.125 25.703125 53.5625 
Q 30.078125 56 35.796875 56 
Q 45.21875 56 50.046875 50.171875 
Q 54.890625 44.34375 54.890625 33.015625 
z
" id="DejaVuSans-110"/>
      </defs>
      <use xlink:href="#DejaVuSans-75"/>
      <use x="65.576172" xlink:href="#DejaVuSans-118"/>
      <use x="124.755859" xlink:href="#DejaVuSans-97"/>
      <use x="186.035156" xlink:href="#DejaVuSans-101"/>
      <use x="247.558594" xlink:href="#DejaVuSans-114"/>
      <use x="286.921875" xlink:href="#DejaVuSans-110"/>
      <use x="350.300781" xlink:href="#DejaVuSans-111"/>
      <use x="411.482422" xlink:href="#DejaVuSans-53"/>
     </g>
    </g>
    <g id="line2d_43">
     <path d="M 347.684104 75.448396 
L 363.684104 75.448396 
" style="fill:none;stroke:#00aaae;stroke-linejoin:miter;"/>
    </g>
    <g id="line2d_44">
     <defs>
      <path d="M 1.325483 3.2 
L 1.224587 1.224587 
L 3.2 1.325483 
L 3.2 -1.325483 
L 1.224587 -1.224587 
L 1.325483 -3.2 
L -1.325483 -3.2 
L -1.224587 -1.224587 
L -3.2 -1.325483 
L -3.2 1.325483 
L -1.224587 1.224587 
L -1.325483 3.2 
L 1.325483 3.2 
L 1.224587 1.224587 
L 1.325483 3.2 
" id="m072194de94" style="stroke:#000000;stroke-width:1.6;"/>
     </defs>
     <g>
      <use style="fill:#00aaae;stroke:#000000;stroke-width:1.6;" x="355.684104" xlink:href="#m072194de94" y="75.448396"/>
     </g>
    </g>
    <g id="text_17">
     <!-- KenCarp5 -->
     <g transform="translate(370.084104 78.248396)scale(0.08 -0.08)">
      <defs>
       <path d="M 18.109375 8.203125 
L 18.109375 -20.796875 
L 9.078125 -20.796875 
L 9.078125 54.6875 
L 18.109375 54.6875 
L 18.109375 46.390625 
Q 20.953125 51.265625 25.265625 53.625 
Q 29.59375 56 35.59375 56 
Q 45.5625 56 51.78125 48.09375 
Q 58.015625 40.1875 58.015625 27.296875 
Q 58.015625 14.40625 51.78125 6.484375 
Q 45.5625 -1.421875 35.59375 -1.421875 
Q 29.59375 -1.421875 25.265625 0.953125 
Q 20.953125 3.328125 18.109375 8.203125 
z
M 48.6875 27.296875 
Q 48.6875 37.203125 44.609375 42.84375 
Q 40.53125 48.484375 33.40625 48.484375 
Q 26.265625 48.484375 22.1875 42.84375 
Q 18.109375 37.203125 18.109375 27.296875 
Q 18.109375 17.390625 22.1875 11.75 
Q 26.265625 6.109375 33.40625 6.109375 
Q 40.53125 6.109375 44.609375 11.75 
Q 48.6875 17.390625 48.6875 27.296875 
z
" id="DejaVuSans-112"/>
      </defs>
      <use xlink:href="#DejaVuSans-75"/>
      <use x="60.576172" xlink:href="#DejaVuSans-101"/>
      <use x="122.099609" xlink:href="#DejaVuSans-110"/>
      <use x="185.478516" xlink:href="#DejaVuSans-67"/>
      <use x="255.302734" xlink:href="#DejaVuSans-97"/>
      <use x="316.582031" xlink:href="#DejaVuSans-114"/>
      <use x="357.695312" xlink:href="#DejaVuSans-112"/>
      <use x="421.171875" xlink:href="#DejaVuSans-53"/>
     </g>
    </g>
    <g id="line2d_45">
     <path d="M 347.684104 87.190896 
L 363.684104 87.190896 
" style="fill:none;stroke:#ed5e93;stroke-linejoin:miter;"/>
    </g>
    <g id="line2d_46">
     <defs>
      <path d="M -1.325483 3.2 
L 0 1.731828 
L 1.325483 3.2 
L 3.2 1.325483 
L 1.731828 0 
L 3.2 -1.325483 
L 1.325483 -3.2 
L 0 -1.731828 
L -1.325483 -3.2 
L -3.2 -1.325483 
L -1.731828 -0 
L -3.2 1.325483 
L -1.325483 3.2 
L -0 1.731828 
L -1.325483 3.2 
" id="mdfd43faab2" style="stroke:#000000;stroke-width:1.6;"/>
     </defs>
     <g>
      <use style="fill:#ed5e93;stroke:#000000;stroke-width:1.6;" x="355.684104" xlink:href="#mdfd43faab2" y="87.190896"/>
     </g>
    </g>
    <g id="text_18">
     <!-- Vern7 -->
     <g transform="translate(370.084104 89.990896)scale(0.08 -0.08)">
      <defs>
       <path d="M 8.203125 72.90625 
L 55.078125 72.90625 
L 55.078125 68.703125 
L 28.609375 0 
L 18.3125 0 
L 43.21875 64.59375 
L 8.203125 64.59375 
z
" id="DejaVuSans-55"/>
      </defs>
      <use xlink:href="#DejaVuSans-86"/>
      <use x="60.658203" xlink:href="#DejaVuSans-101"/>
      <use x="122.181641" xlink:href="#DejaVuSans-114"/>
      <use x="161.544922" xlink:href="#DejaVuSans-110"/>
      <use x="224.923828" xlink:href="#DejaVuSans-55"/>
     </g>
    </g>
    <g id="line2d_47">
     <path d="M 347.684104 98.933396 
L 363.684104 98.933396 
" style="fill:none;stroke:#c68225;stroke-linejoin:miter;"/>
    </g>
    <g id="line2d_48">
     <defs>
      <path d="M 0 -3.2 
L -3.2 3.2 
L 3.2 3.2 
z
" id="mb6ab9a8f35" style="stroke:#000000;stroke-linejoin:miter;stroke-width:1.6;"/>
     </defs>
     <g>
      <use style="fill:#c68225;stroke:#000000;stroke-linejoin:miter;stroke-width:1.6;" x="355.684104" xlink:href="#mb6ab9a8f35" y="98.933396"/>
     </g>
    </g>
    <g id="text_19">
     <!-- Vern8 -->
     <g transform="translate(370.084104 101.733396)scale(0.08 -0.08)">
      <use xlink:href="#DejaVuSans-86"/>
      <use x="60.658203" xlink:href="#DejaVuSans-101"/>
      <use x="122.181641" xlink:href="#DejaVuSans-114"/>
      <use x="161.544922" xlink:href="#DejaVuSans-110"/>
      <use x="224.923828" xlink:href="#DejaVuSans-56"/>
     </g>
    </g>
    <g id="line2d_49">
     <path d="M 347.684104 110.675896 
L 363.684104 110.675896 
" style="fill:none;stroke:#00a98d;stroke-linejoin:miter;"/>
    </g>
    <g id="line2d_50">
     <defs>
      <path d="M -0 3.2 
L 3.2 -3.2 
L -3.2 -3.2 
z
" id="m728ce5b85e" style="stroke:#000000;stroke-linejoin:miter;stroke-width:1.6;"/>
     </defs>
     <g>
      <use style="fill:#00a98d;stroke:#000000;stroke-linejoin:miter;stroke-width:1.6;" x="355.684104" xlink:href="#m728ce5b85e" y="110.675896"/>
     </g>
    </g>
    <g id="text_20">
     <!-- lsoda -->
     <g transform="translate(370.084104 113.475896)scale(0.08 -0.08)">
      <defs>
       <path d="M 9.421875 75.984375 
L 18.40625 75.984375 
L 18.40625 0 
L 9.421875 0 
z
" id="DejaVuSans-108"/>
      </defs>
      <use xlink:href="#DejaVuSans-108"/>
      <use x="27.783203" xlink:href="#DejaVuSans-115"/>
      <use x="79.882812" xlink:href="#DejaVuSans-111"/>
      <use x="141.064453" xlink:href="#DejaVuSans-100"/>
      <use x="204.541016" xlink:href="#DejaVuSans-97"/>
     </g>
    </g>
   </g>
  </g>
 </g>
 <defs>
  <clipPath id="pd4f584954c">
   <rect height="251.994709" width="381.049872" x="48.115483" y="2.834646"/>
  </clipPath>
 </defs>
</svg>
