<?xml version="1.0" encoding="utf-8" standalone="no"?>
<!DOCTYPE svg PUBLIC "-//W3C//DTD SVG 1.1//EN"
  "http://www.w3.org/Graphics/SVG/1.1/DTD/svg11.dtd">
<!-- Created with matplotlib (https://matplotlib.org/) -->
<svg height="288pt" version="1.1" viewBox="0 0 432 288" width="432pt" xmlns="http://www.w3.org/2000/svg" xmlns:xlink="http://www.w3.org/1999/xlink">
 <metadata>
  <rdf:RDF xmlns:cc="http://creativecommons.org/ns#" xmlns:dc="http://purl.org/dc/elements/1.1/" xmlns:rdf="http://www.w3.org/1999/02/22-rdf-syntax-ns#">
   <cc:Work>
    <dc:type rdf:resource="http://purl.org/dc/dcmitype/StillImage"/>
    <dc:date>2020-09-23T13:13:21.570234</dc:date>
    <dc:format>image/svg+xml</dc:format>
    <dc:creator>
     <cc:Agent>
      <dc:title>Matplotlib v3.3.1, https://matplotlib.org/</dc:title>
     </cc:Agent>
    </dc:creator>
   </cc:Work>
  </rdf:RDF>
 </metadata>
 <defs>
  <style type="text/css">*{stroke-linecap:butt;stroke-linejoin:round;}</style>
 </defs>
 <g id="figure_1">
  <g id="patch_1">
   <path d="M 0 288 
L 432 288 
L 432 0 
L 0 0 
z
" style="fill:#ffffff;"/>
  </g>
  <g id="axes_1">
   <g id="patch_2">
    <path d="M 48.115483 254.829354 
L 429.165354 254.829354 
L 429.165354 2.834646 
L 48.115483 2.834646 
z
" style="fill:#ffffff;"/>
   </g>
   <g id="matplotlib.axis_1">
    <g id="xtick_1">
     <g id="line2d_1">
      <path clip-path="url(#pb4115e5205)" d="M 123.635363 254.829354 
L 123.635363 2.834646 
" style="fill:none;stroke:#000000;stroke-linecap:square;stroke-opacity:0.1;stroke-width:0.5;"/>
     </g>
     <g id="line2d_2">
      <defs>
       <path d="M 0 0 
L 0 -2.5 
" id="m58348fafe7" style="stroke:#000000;stroke-width:0.5;"/>
      </defs>
      <g>
       <use style="stroke:#000000;stroke-width:0.5;" x="123.635363" xlink:href="#m58348fafe7" y="254.829354"/>
      </g>
     </g>
     <g id="text_1">
      <!-- $\mathregular{10^{-10.0}}$ -->
      <g transform="translate(109.795363 266.508104)scale(0.08 -0.08)">
       <defs>
        <path d="M 12.40625 8.296875 
L 28.515625 8.296875 
L 28.515625 63.921875 
L 10.984375 60.40625 
L 10.984375 69.390625 
L 28.421875 72.90625 
L 38.28125 72.90625 
L 38.28125 8.296875 
L 54.390625 8.296875 
L 54.390625 0 
L 12.40625 0 
z
" id="DejaVuSans-49"/>
        <path d="M 31.78125 66.40625 
Q 24.171875 66.40625 20.328125 58.90625 
Q 16.5 51.421875 16.5 36.375 
Q 16.5 21.390625 20.328125 13.890625 
Q 24.171875 6.390625 31.78125 6.390625 
Q 39.453125 6.390625 43.28125 13.890625 
Q 47.125 21.390625 47.125 36.375 
Q 47.125 51.421875 43.28125 58.90625 
Q 39.453125 66.40625 31.78125 66.40625 
z
M 31.78125 74.21875 
Q 44.046875 74.21875 50.515625 64.515625 
Q 56.984375 54.828125 56.984375 36.375 
Q 56.984375 17.96875 50.515625 8.265625 
Q 44.046875 -1.421875 31.78125 -1.421875 
Q 19.53125 -1.421875 13.0625 8.265625 
Q 6.59375 17.96875 6.59375 36.375 
Q 6.59375 54.828125 13.0625 64.515625 
Q 19.53125 74.21875 31.78125 74.21875 
z
" id="DejaVuSans-48"/>
        <path d="M 10.59375 35.5 
L 73.1875 35.5 
L 73.1875 27.203125 
L 10.59375 27.203125 
z
" id="DejaVuSans-8722"/>
        <path d="M 10.6875 12.40625 
L 21 12.40625 
L 21 0 
L 10.6875 0 
z
" id="DejaVuSans-46"/>
       </defs>
       <use transform="translate(0 0.765625)" xlink:href="#DejaVuSans-49"/>
       <use transform="translate(63.623047 0.765625)" xlink:href="#DejaVuSans-48"/>
       <use transform="translate(128.203125 39.046875)scale(0.7)" xlink:href="#DejaVuSans-8722"/>
       <use transform="translate(186.855469 39.046875)scale(0.7)" xlink:href="#DejaVuSans-49"/>
       <use transform="translate(231.391602 39.046875)scale(0.7)" xlink:href="#DejaVuSans-48"/>
       <use transform="translate(275.927734 39.046875)scale(0.7)" xlink:href="#DejaVuSans-46"/>
       <use transform="translate(298.178711 39.046875)scale(0.7)" xlink:href="#DejaVuSans-48"/>
      </g>
     </g>
    </g>
    <g id="xtick_2">
     <g id="line2d_3">
      <path clip-path="url(#pb4115e5205)" d="M 214.842485 254.829354 
L 214.842485 2.834646 
" style="fill:none;stroke:#000000;stroke-linecap:square;stroke-opacity:0.1;stroke-width:0.5;"/>
     </g>
     <g id="line2d_4">
      <g>
       <use style="stroke:#000000;stroke-width:0.5;" x="214.842485" xlink:href="#m58348fafe7" y="254.829354"/>
      </g>
     </g>
     <g id="text_2">
      <!-- $\mathregular{10^{-7.5}}$ -->
      <g transform="translate(202.802485 266.508104)scale(0.08 -0.08)">
       <defs>
        <path d="M 8.203125 72.90625 
L 55.078125 72.90625 
L 55.078125 68.703125 
L 28.609375 0 
L 18.3125 0 
L 43.21875 64.59375 
L 8.203125 64.59375 
z
" id="DejaVuSans-55"/>
        <path d="M 10.796875 72.90625 
L 49.515625 72.90625 
L 49.515625 64.59375 
L 19.828125 64.59375 
L 19.828125 46.734375 
Q 21.96875 47.46875 24.109375 47.828125 
Q 26.265625 48.1875 28.421875 48.1875 
Q 40.625 48.1875 47.75 41.5 
Q 54.890625 34.8125 54.890625 23.390625 
Q 54.890625 11.625 47.5625 5.09375 
Q 40.234375 -1.421875 26.90625 -1.421875 
Q 22.3125 -1.421875 17.546875 -0.640625 
Q 12.796875 0.140625 7.71875 1.703125 
L 7.71875 11.625 
Q 12.109375 9.234375 16.796875 8.0625 
Q 21.484375 6.890625 26.703125 6.890625 
Q 35.15625 6.890625 40.078125 11.328125 
Q 45.015625 15.765625 45.015625 23.390625 
Q 45.015625 31 40.078125 35.4375 
Q 35.15625 39.890625 26.703125 39.890625 
Q 22.75 39.890625 18.8125 39.015625 
Q 14.890625 38.140625 10.796875 36.28125 
z
" id="DejaVuSans-53"/>
       </defs>
       <use transform="translate(0 0.684375)" xlink:href="#DejaVuSans-49"/>
       <use transform="translate(63.623047 0.684375)" xlink:href="#DejaVuSans-48"/>
       <use transform="translate(128.203125 38.965625)scale(0.7)" xlink:href="#DejaVuSans-8722"/>
       <use transform="translate(186.855469 38.965625)scale(0.7)" xlink:href="#DejaVuSans-55"/>
       <use transform="translate(231.391602 38.965625)scale(0.7)" xlink:href="#DejaVuSans-46"/>
       <use transform="translate(253.642578 38.965625)scale(0.7)" xlink:href="#DejaVuSans-53"/>
      </g>
     </g>
    </g>
    <g id="xtick_3">
     <g id="line2d_5">
      <path clip-path="url(#pb4115e5205)" d="M 306.049608 254.829354 
L 306.049608 2.834646 
" style="fill:none;stroke:#000000;stroke-linecap:square;stroke-opacity:0.1;stroke-width:0.5;"/>
     </g>
     <g id="line2d_6">
      <g>
       <use style="stroke:#000000;stroke-width:0.5;" x="306.049608" xlink:href="#m58348fafe7" y="254.829354"/>
      </g>
     </g>
     <g id="text_3">
      <!-- $\mathregular{10^{-5.0}}$ -->
      <g transform="translate(294.009608 266.508104)scale(0.08 -0.08)">
       <use transform="translate(0 0.765625)" xlink:href="#DejaVuSans-49"/>
       <use transform="translate(63.623047 0.765625)" xlink:href="#DejaVuSans-48"/>
       <use transform="translate(128.203125 39.046875)scale(0.7)" xlink:href="#DejaVuSans-8722"/>
       <use transform="translate(186.855469 39.046875)scale(0.7)" xlink:href="#DejaVuSans-53"/>
       <use transform="translate(231.391602 39.046875)scale(0.7)" xlink:href="#DejaVuSans-46"/>
       <use transform="translate(253.642578 39.046875)scale(0.7)" xlink:href="#DejaVuSans-48"/>
      </g>
     </g>
    </g>
    <g id="xtick_4">
     <g id="line2d_7">
      <path clip-path="url(#pb4115e5205)" d="M 397.25673 254.829354 
L 397.25673 2.834646 
" style="fill:none;stroke:#000000;stroke-linecap:square;stroke-opacity:0.1;stroke-width:0.5;"/>
     </g>
     <g id="line2d_8">
      <g>
       <use style="stroke:#000000;stroke-width:0.5;" x="397.25673" xlink:href="#m58348fafe7" y="254.829354"/>
      </g>
     </g>
     <g id="text_4">
      <!-- $\mathregular{10^{-2.5}}$ -->
      <g transform="translate(385.21673 266.508104)scale(0.08 -0.08)">
       <defs>
        <path d="M 19.1875 8.296875 
L 53.609375 8.296875 
L 53.609375 0 
L 7.328125 0 
L 7.328125 8.296875 
Q 12.9375 14.109375 22.625 23.890625 
Q 32.328125 33.6875 34.8125 36.53125 
Q 39.546875 41.84375 41.421875 45.53125 
Q 43.3125 49.21875 43.3125 52.78125 
Q 43.3125 58.59375 39.234375 62.25 
Q 35.15625 65.921875 28.609375 65.921875 
Q 23.96875 65.921875 18.8125 64.3125 
Q 13.671875 62.703125 7.8125 59.421875 
L 7.8125 69.390625 
Q 13.765625 71.78125 18.9375 73 
Q 24.125 74.21875 28.421875 74.21875 
Q 39.75 74.21875 46.484375 68.546875 
Q 53.21875 62.890625 53.21875 53.421875 
Q 53.21875 48.921875 51.53125 44.890625 
Q 49.859375 40.875 45.40625 35.40625 
Q 44.1875 33.984375 37.640625 27.21875 
Q 31.109375 20.453125 19.1875 8.296875 
z
" id="DejaVuSans-50"/>
       </defs>
       <use transform="translate(0 0.765625)" xlink:href="#DejaVuSans-49"/>
       <use transform="translate(63.623047 0.765625)" xlink:href="#DejaVuSans-48"/>
       <use transform="translate(128.203125 39.046875)scale(0.7)" xlink:href="#DejaVuSans-8722"/>
       <use transform="translate(186.855469 39.046875)scale(0.7)" xlink:href="#DejaVuSans-50"/>
       <use transform="translate(231.391602 39.046875)scale(0.7)" xlink:href="#DejaVuSans-46"/>
       <use transform="translate(253.642578 39.046875)scale(0.7)" xlink:href="#DejaVuSans-53"/>
      </g>
     </g>
    </g>
    <g id="xtick_5">
     <g id="line2d_9">
      <defs>
       <path d="M 0 0 
L 0 2 
" id="m49725b7d58" style="stroke:#000000;stroke-width:0.4;"/>
      </defs>
      <g>
       <use style="stroke:#000000;stroke-width:0.4;" x="50.669664" xlink:href="#m49725b7d58" y="254.829354"/>
      </g>
     </g>
    </g>
    <g id="xtick_6">
     <g id="line2d_10">
      <g>
       <use style="stroke:#000000;stroke-width:0.4;" x="87.152513" xlink:href="#m49725b7d58" y="254.829354"/>
      </g>
     </g>
    </g>
    <g id="xtick_7">
     <g id="line2d_11">
      <g>
       <use style="stroke:#000000;stroke-width:0.4;" x="160.118212" xlink:href="#m49725b7d58" y="254.829354"/>
      </g>
     </g>
    </g>
    <g id="xtick_8">
     <g id="line2d_12">
      <g>
       <use style="stroke:#000000;stroke-width:0.4;" x="196.601061" xlink:href="#m49725b7d58" y="254.829354"/>
      </g>
     </g>
    </g>
    <g id="xtick_9">
     <g id="line2d_13">
      <g>
       <use style="stroke:#000000;stroke-width:0.4;" x="233.08391" xlink:href="#m49725b7d58" y="254.829354"/>
      </g>
     </g>
    </g>
    <g id="xtick_10">
     <g id="line2d_14">
      <g>
       <use style="stroke:#000000;stroke-width:0.4;" x="269.566759" xlink:href="#m49725b7d58" y="254.829354"/>
      </g>
     </g>
    </g>
    <g id="xtick_11">
     <g id="line2d_15">
      <g>
       <use style="stroke:#000000;stroke-width:0.4;" x="342.532457" xlink:href="#m49725b7d58" y="254.829354"/>
      </g>
     </g>
    </g>
    <g id="xtick_12">
     <g id="line2d_16">
      <g>
       <use style="stroke:#000000;stroke-width:0.4;" x="379.015306" xlink:href="#m49725b7d58" y="254.829354"/>
      </g>
     </g>
    </g>
    <g id="xtick_13">
     <g id="line2d_17">
      <g>
       <use style="stroke:#000000;stroke-width:0.4;" x="415.498155" xlink:href="#m49725b7d58" y="254.829354"/>
      </g>
     </g>
    </g>
    <g id="text_5">
     <!-- Error -->
     <g transform="translate(225.236747 280.530136)scale(0.11 -0.11)">
      <defs>
       <path d="M 9.8125 72.90625 
L 55.90625 72.90625 
L 55.90625 64.59375 
L 19.671875 64.59375 
L 19.671875 43.015625 
L 54.390625 43.015625 
L 54.390625 34.71875 
L 19.671875 34.71875 
L 19.671875 8.296875 
L 56.78125 8.296875 
L 56.78125 0 
L 9.8125 0 
z
" id="DejaVuSans-69"/>
       <path d="M 41.109375 46.296875 
Q 39.59375 47.171875 37.8125 47.578125 
Q 36.03125 48 33.890625 48 
Q 26.265625 48 22.1875 43.046875 
Q 18.109375 38.09375 18.109375 28.8125 
L 18.109375 0 
L 9.078125 0 
L 9.078125 54.6875 
L 18.109375 54.6875 
L 18.109375 46.1875 
Q 20.953125 51.171875 25.484375 53.578125 
Q 30.03125 56 36.53125 56 
Q 37.453125 56 38.578125 55.875 
Q 39.703125 55.765625 41.0625 55.515625 
z
" id="DejaVuSans-114"/>
       <path d="M 30.609375 48.390625 
Q 23.390625 48.390625 19.1875 42.75 
Q 14.984375 37.109375 14.984375 27.296875 
Q 14.984375 17.484375 19.15625 11.84375 
Q 23.34375 6.203125 30.609375 6.203125 
Q 37.796875 6.203125 41.984375 11.859375 
Q 46.1875 17.53125 46.1875 27.296875 
Q 46.1875 37.015625 41.984375 42.703125 
Q 37.796875 48.390625 30.609375 48.390625 
z
M 30.609375 56 
Q 42.328125 56 49.015625 48.375 
Q 55.71875 40.765625 55.71875 27.296875 
Q 55.71875 13.875 49.015625 6.21875 
Q 42.328125 -1.421875 30.609375 -1.421875 
Q 18.84375 -1.421875 12.171875 6.21875 
Q 5.515625 13.875 5.515625 27.296875 
Q 5.515625 40.765625 12.171875 48.375 
Q 18.84375 56 30.609375 56 
z
" id="DejaVuSans-111"/>
      </defs>
      <use xlink:href="#DejaVuSans-69"/>
      <use x="63.183594" xlink:href="#DejaVuSans-114"/>
      <use x="102.546875" xlink:href="#DejaVuSans-114"/>
      <use x="141.410156" xlink:href="#DejaVuSans-111"/>
      <use x="202.591797" xlink:href="#DejaVuSans-114"/>
     </g>
    </g>
   </g>
   <g id="matplotlib.axis_2">
    <g id="ytick_1">
     <g id="line2d_18">
      <path clip-path="url(#pb4115e5205)" d="M 48.115483 233.849711 
L 429.165354 233.849711 
" style="fill:none;stroke:#000000;stroke-linecap:square;stroke-opacity:0.1;stroke-width:0.5;"/>
     </g>
     <g id="line2d_19">
      <defs>
       <path d="M 0 0 
L 2.5 0 
" id="m40c557569c" style="stroke:#000000;stroke-width:0.5;"/>
      </defs>
      <g>
       <use style="stroke:#000000;stroke-width:0.5;" x="48.115483" xlink:href="#m40c557569c" y="233.849711"/>
      </g>
     </g>
     <g id="text_6">
      <!-- $\mathregular{10^{-2.0}}$ -->
      <g transform="translate(18.435483 236.889086)scale(0.08 -0.08)">
       <use transform="translate(0 0.765625)" xlink:href="#DejaVuSans-49"/>
       <use transform="translate(63.623047 0.765625)" xlink:href="#DejaVuSans-48"/>
       <use transform="translate(128.203125 39.046875)scale(0.7)" xlink:href="#DejaVuSans-8722"/>
       <use transform="translate(186.855469 39.046875)scale(0.7)" xlink:href="#DejaVuSans-50"/>
       <use transform="translate(231.391602 39.046875)scale(0.7)" xlink:href="#DejaVuSans-46"/>
       <use transform="translate(253.642578 39.046875)scale(0.7)" xlink:href="#DejaVuSans-48"/>
      </g>
     </g>
    </g>
    <g id="ytick_2">
     <g id="line2d_20">
      <path clip-path="url(#pb4115e5205)" d="M 48.115483 170.183531 
L 429.165354 170.183531 
" style="fill:none;stroke:#000000;stroke-linecap:square;stroke-opacity:0.1;stroke-width:0.5;"/>
     </g>
     <g id="line2d_21">
      <g>
       <use style="stroke:#000000;stroke-width:0.5;" x="48.115483" xlink:href="#m40c557569c" y="170.183531"/>
      </g>
     </g>
     <g id="text_7">
      <!-- $\mathregular{10^{-1.5}}$ -->
      <g transform="translate(18.435483 173.222906)scale(0.08 -0.08)">
       <use transform="translate(0 0.684375)" xlink:href="#DejaVuSans-49"/>
       <use transform="translate(63.623047 0.684375)" xlink:href="#DejaVuSans-48"/>
       <use transform="translate(128.203125 38.965625)scale(0.7)" xlink:href="#DejaVuSans-8722"/>
       <use transform="translate(186.855469 38.965625)scale(0.7)" xlink:href="#DejaVuSans-49"/>
       <use transform="translate(231.391602 38.965625)scale(0.7)" xlink:href="#DejaVuSans-46"/>
       <use transform="translate(253.642578 38.965625)scale(0.7)" xlink:href="#DejaVuSans-53"/>
      </g>
     </g>
    </g>
    <g id="ytick_3">
     <g id="line2d_22">
      <path clip-path="url(#pb4115e5205)" d="M 48.115483 106.517351 
L 429.165354 106.517351 
" style="fill:none;stroke:#000000;stroke-linecap:square;stroke-opacity:0.1;stroke-width:0.5;"/>
     </g>
     <g id="line2d_23">
      <g>
       <use style="stroke:#000000;stroke-width:0.5;" x="48.115483" xlink:href="#m40c557569c" y="106.517351"/>
      </g>
     </g>
     <g id="text_8">
      <!-- $\mathregular{10^{-1.0}}$ -->
      <g transform="translate(18.435483 109.556726)scale(0.08 -0.08)">
       <use transform="translate(0 0.765625)" xlink:href="#DejaVuSans-49"/>
       <use transform="translate(63.623047 0.765625)" xlink:href="#DejaVuSans-48"/>
       <use transform="translate(128.203125 39.046875)scale(0.7)" xlink:href="#DejaVuSans-8722"/>
       <use transform="translate(186.855469 39.046875)scale(0.7)" xlink:href="#DejaVuSans-49"/>
       <use transform="translate(231.391602 39.046875)scale(0.7)" xlink:href="#DejaVuSans-46"/>
       <use transform="translate(253.642578 39.046875)scale(0.7)" xlink:href="#DejaVuSans-48"/>
      </g>
     </g>
    </g>
    <g id="ytick_4">
     <g id="line2d_24">
      <path clip-path="url(#pb4115e5205)" d="M 48.115483 42.851171 
L 429.165354 42.851171 
" style="fill:none;stroke:#000000;stroke-linecap:square;stroke-opacity:0.1;stroke-width:0.5;"/>
     </g>
     <g id="line2d_25">
      <g>
       <use style="stroke:#000000;stroke-width:0.5;" x="48.115483" xlink:href="#m40c557569c" y="42.851171"/>
      </g>
     </g>
     <g id="text_9">
      <!-- $\mathregular{10^{-0.5}}$ -->
      <g transform="translate(18.435483 45.890546)scale(0.08 -0.08)">
       <use transform="translate(0 0.765625)" xlink:href="#DejaVuSans-49"/>
       <use transform="translate(63.623047 0.765625)" xlink:href="#DejaVuSans-48"/>
       <use transform="translate(128.203125 39.046875)scale(0.7)" xlink:href="#DejaVuSans-8722"/>
       <use transform="translate(186.855469 39.046875)scale(0.7)" xlink:href="#DejaVuSans-48"/>
       <use transform="translate(231.391602 39.046875)scale(0.7)" xlink:href="#DejaVuSans-46"/>
       <use transform="translate(253.642578 39.046875)scale(0.7)" xlink:href="#DejaVuSans-53"/>
      </g>
     </g>
    </g>
    <g id="text_10">
     <!-- Time (s) -->
     <g transform="translate(12.147826 151.193797)rotate(-90)scale(0.11 -0.11)">
      <defs>
       <path d="M -0.296875 72.90625 
L 61.375 72.90625 
L 61.375 64.59375 
L 35.5 64.59375 
L 35.5 0 
L 25.59375 0 
L 25.59375 64.59375 
L -0.296875 64.59375 
z
" id="DejaVuSans-84"/>
       <path d="M 9.421875 54.6875 
L 18.40625 54.6875 
L 18.40625 0 
L 9.421875 0 
z
M 9.421875 75.984375 
L 18.40625 75.984375 
L 18.40625 64.59375 
L 9.421875 64.59375 
z
" id="DejaVuSans-105"/>
       <path d="M 52 44.1875 
Q 55.375 50.25 60.0625 53.125 
Q 64.75 56 71.09375 56 
Q 79.640625 56 84.28125 50.015625 
Q 88.921875 44.046875 88.921875 33.015625 
L 88.921875 0 
L 79.890625 0 
L 79.890625 32.71875 
Q 79.890625 40.578125 77.09375 44.375 
Q 74.3125 48.1875 68.609375 48.1875 
Q 61.625 48.1875 57.5625 43.546875 
Q 53.515625 38.921875 53.515625 30.90625 
L 53.515625 0 
L 44.484375 0 
L 44.484375 32.71875 
Q 44.484375 40.625 41.703125 44.40625 
Q 38.921875 48.1875 33.109375 48.1875 
Q 26.21875 48.1875 22.15625 43.53125 
Q 18.109375 38.875 18.109375 30.90625 
L 18.109375 0 
L 9.078125 0 
L 9.078125 54.6875 
L 18.109375 54.6875 
L 18.109375 46.1875 
Q 21.1875 51.21875 25.484375 53.609375 
Q 29.78125 56 35.6875 56 
Q 41.65625 56 45.828125 52.96875 
Q 50 49.953125 52 44.1875 
z
" id="DejaVuSans-109"/>
       <path d="M 56.203125 29.59375 
L 56.203125 25.203125 
L 14.890625 25.203125 
Q 15.484375 15.921875 20.484375 11.0625 
Q 25.484375 6.203125 34.421875 6.203125 
Q 39.59375 6.203125 44.453125 7.46875 
Q 49.3125 8.734375 54.109375 11.28125 
L 54.109375 2.78125 
Q 49.265625 0.734375 44.1875 -0.34375 
Q 39.109375 -1.421875 33.890625 -1.421875 
Q 20.796875 -1.421875 13.15625 6.1875 
Q 5.515625 13.8125 5.515625 26.8125 
Q 5.515625 40.234375 12.765625 48.109375 
Q 20.015625 56 32.328125 56 
Q 43.359375 56 49.78125 48.890625 
Q 56.203125 41.796875 56.203125 29.59375 
z
M 47.21875 32.234375 
Q 47.125 39.59375 43.09375 43.984375 
Q 39.0625 48.390625 32.421875 48.390625 
Q 24.90625 48.390625 20.390625 44.140625 
Q 15.875 39.890625 15.1875 32.171875 
z
" id="DejaVuSans-101"/>
       <path id="DejaVuSans-32"/>
       <path d="M 31 75.875 
Q 24.46875 64.65625 21.28125 53.65625 
Q 18.109375 42.671875 18.109375 31.390625 
Q 18.109375 20.125 21.3125 9.0625 
Q 24.515625 -2 31 -13.1875 
L 23.1875 -13.1875 
Q 15.875 -1.703125 12.234375 9.375 
Q 8.59375 20.453125 8.59375 31.390625 
Q 8.59375 42.28125 12.203125 53.3125 
Q 15.828125 64.359375 23.1875 75.875 
z
" id="DejaVuSans-40"/>
       <path d="M 44.28125 53.078125 
L 44.28125 44.578125 
Q 40.484375 46.53125 36.375 47.5 
Q 32.28125 48.484375 27.875 48.484375 
Q 21.1875 48.484375 17.84375 46.4375 
Q 14.5 44.390625 14.5 40.28125 
Q 14.5 37.15625 16.890625 35.375 
Q 19.28125 33.59375 26.515625 31.984375 
L 29.59375 31.296875 
Q 39.15625 29.25 43.1875 25.515625 
Q 47.21875 21.78125 47.21875 15.09375 
Q 47.21875 7.46875 41.1875 3.015625 
Q 35.15625 -1.421875 24.609375 -1.421875 
Q 20.21875 -1.421875 15.453125 -0.5625 
Q 10.6875 0.296875 5.421875 2 
L 5.421875 11.28125 
Q 10.40625 8.6875 15.234375 7.390625 
Q 20.0625 6.109375 24.8125 6.109375 
Q 31.15625 6.109375 34.5625 8.28125 
Q 37.984375 10.453125 37.984375 14.40625 
Q 37.984375 18.0625 35.515625 20.015625 
Q 33.0625 21.96875 24.703125 23.78125 
L 21.578125 24.515625 
Q 13.234375 26.265625 9.515625 29.90625 
Q 5.8125 33.546875 5.8125 39.890625 
Q 5.8125 47.609375 11.28125 51.796875 
Q 16.75 56 26.8125 56 
Q 31.78125 56 36.171875 55.265625 
Q 40.578125 54.546875 44.28125 53.078125 
z
" id="DejaVuSans-115"/>
       <path d="M 8.015625 75.875 
L 15.828125 75.875 
Q 23.140625 64.359375 26.78125 53.3125 
Q 30.421875 42.28125 30.421875 31.390625 
Q 30.421875 20.453125 26.78125 9.375 
Q 23.140625 -1.703125 15.828125 -13.1875 
L 8.015625 -13.1875 
Q 14.5 -2 17.703125 9.0625 
Q 20.90625 20.125 20.90625 31.390625 
Q 20.90625 42.671875 17.703125 53.65625 
Q 14.5 64.65625 8.015625 75.875 
z
" id="DejaVuSans-41"/>
      </defs>
      <use xlink:href="#DejaVuSans-84"/>
      <use x="57.958984" xlink:href="#DejaVuSans-105"/>
      <use x="85.742188" xlink:href="#DejaVuSans-109"/>
      <use x="183.154297" xlink:href="#DejaVuSans-101"/>
      <use x="244.677734" xlink:href="#DejaVuSans-32"/>
      <use x="276.464844" xlink:href="#DejaVuSans-40"/>
      <use x="315.478516" xlink:href="#DejaVuSans-115"/>
      <use x="367.578125" xlink:href="#DejaVuSans-41"/>
     </g>
    </g>
   </g>
   <g id="line2d_26">
    <path clip-path="url(#pb4115e5205)" d="M 318.876435 89.298081 
L 282.360799 88.875457 
L 244.296784 87.472574 
L 203.238501 82.763882 
L 164.893551 74.223395 
L 126.189448 60.492424 
L 84.733897 41.928983 
" style="fill:none;stroke:#009afa;stroke-width:3;"/>
   </g>
   <g id="PathCollection_1">
    <defs>
     <path d="M 0 2 
C 0.530406 2 1.03916 1.789267 1.414214 1.414214 
C 1.789267 1.03916 2 0.530406 2 0 
C 2 -0.530406 1.789267 -1.03916 1.414214 -1.414214 
C 1.03916 -1.789267 0.530406 -2 0 -2 
C -0.530406 -2 -1.03916 -1.789267 -1.414214 -1.414214 
C -1.789267 -1.03916 -2 -0.530406 -2 0 
C -2 0.530406 -1.789267 1.03916 -1.414214 1.414214 
C -1.03916 1.789267 -0.530406 2 0 2 
z
" id="me67b9643fb" style="stroke:#000000;"/>
    </defs>
    <g clip-path="url(#pb4115e5205)">
     <use style="fill:#009afa;stroke:#000000;" x="318.876435" xlink:href="#me67b9643fb" y="89.298081"/>
     <use style="fill:#009afa;stroke:#000000;" x="282.360799" xlink:href="#me67b9643fb" y="88.875457"/>
     <use style="fill:#009afa;stroke:#000000;" x="244.296784" xlink:href="#me67b9643fb" y="87.472574"/>
     <use style="fill:#009afa;stroke:#000000;" x="203.238501" xlink:href="#me67b9643fb" y="82.763882"/>
     <use style="fill:#009afa;stroke:#000000;" x="164.893551" xlink:href="#me67b9643fb" y="74.223395"/>
     <use style="fill:#009afa;stroke:#000000;" x="126.189448" xlink:href="#me67b9643fb" y="60.492424"/>
     <use style="fill:#009afa;stroke:#000000;" x="84.733897" xlink:href="#me67b9643fb" y="41.928983"/>
    </g>
   </g>
   <g id="line2d_27">
    <path clip-path="url(#pb4115e5205)" d="M 371.181724 139.8973 
L 342.215048 122.909228 
L 302.114072 104.751012 
L 262.320475 84.365107 
L 233.505688 63.409221 
L 201.823906 38.003237 
L 167.523632 9.966571 
" style="fill:none;stroke:#e36f47;stroke-width:3;"/>
   </g>
   <g id="PathCollection_2">
    <defs>
     <path d="M -2 2 
L 2 2 
L 2 -2 
L -2 -2 
z
" id="m2ae20ecfb9" style="stroke:#000000;"/>
    </defs>
    <g clip-path="url(#pb4115e5205)">
     <use style="fill:#e36f47;stroke:#000000;" x="371.181724" xlink:href="#m2ae20ecfb9" y="139.8973"/>
     <use style="fill:#e36f47;stroke:#000000;" x="342.215048" xlink:href="#m2ae20ecfb9" y="122.909228"/>
     <use style="fill:#e36f47;stroke:#000000;" x="302.114072" xlink:href="#m2ae20ecfb9" y="104.751012"/>
     <use style="fill:#e36f47;stroke:#000000;" x="262.320475" xlink:href="#m2ae20ecfb9" y="84.365107"/>
     <use style="fill:#e36f47;stroke:#000000;" x="233.505688" xlink:href="#m2ae20ecfb9" y="63.409221"/>
     <use style="fill:#e36f47;stroke:#000000;" x="201.823906" xlink:href="#m2ae20ecfb9" y="38.003237"/>
     <use style="fill:#e36f47;stroke:#000000;" x="167.523632" xlink:href="#m2ae20ecfb9" y="9.966571"/>
    </g>
   </g>
   <g id="patch_3">
    <path d="M 48.115483 254.829354 
L 48.115483 2.834646 
" style="fill:none;stroke:#000000;stroke-linecap:square;stroke-linejoin:miter;"/>
   </g>
   <g id="patch_4">
    <path d="M 48.115483 254.829354 
L 429.165354 254.829354 
" style="fill:none;stroke:#000000;stroke-linecap:square;stroke-linejoin:miter;"/>
   </g>
   <g id="line2d_28">
    <path clip-path="url(#pb4115e5205)" d="M 413.031367 247.697429 
L 378.440903 232.152835 
L 350.400974 215.277571 
L 317.375601 199.613229 
L 280.42702 182.145544 
L 263.35634 163.948468 
L 207.649456 144.279872 
" style="fill:none;stroke:#3ea44e;stroke-width:3;"/>
   </g>
   <g id="PathCollection_3">
    <defs>
     <path d="M 0 -2 
L -0.449028 -0.618034 
L -1.902113 -0.618034 
L -0.726543 0.236068 
L -1.175571 1.618034 
L -0 0.763932 
L 1.175571 1.618034 
L 0.726543 0.236068 
L 1.902113 -0.618034 
L 0.449028 -0.618034 
z
" id="mf2ac02319b" style="stroke:#000000;"/>
    </defs>
    <g clip-path="url(#pb4115e5205)">
     <use style="fill:#3ea44e;stroke:#000000;" x="413.031367" xlink:href="#mf2ac02319b" y="247.697429"/>
     <use style="fill:#3ea44e;stroke:#000000;" x="378.440903" xlink:href="#mf2ac02319b" y="232.152835"/>
     <use style="fill:#3ea44e;stroke:#000000;" x="350.400974" xlink:href="#mf2ac02319b" y="215.277571"/>
     <use style="fill:#3ea44e;stroke:#000000;" x="317.375601" xlink:href="#mf2ac02319b" y="199.613229"/>
     <use style="fill:#3ea44e;stroke:#000000;" x="280.42702" xlink:href="#mf2ac02319b" y="182.145544"/>
     <use style="fill:#3ea44e;stroke:#000000;" x="263.35634" xlink:href="#mf2ac02319b" y="163.948468"/>
     <use style="fill:#3ea44e;stroke:#000000;" x="207.649456" xlink:href="#mf2ac02319b" y="144.279872"/>
    </g>
   </g>
   <g id="line2d_29">
    <path clip-path="url(#pb4115e5205)" d="M 413.497386 200.849238 
L 372.13986 175.439638 
L 333.15338 147.776123 
L 306.989663 115.559289 
L 296.491568 80.921827 
L 285.192751 47.461786 
L 275.176307 13.758517 
" style="fill:none;stroke:#c371d2;stroke-width:3;"/>
   </g>
   <g id="PathCollection_4">
    <defs>
     <path d="M -0 2.828427 
L 2.828427 0 
L 0 -2.828427 
L -2.828427 -0 
z
" id="mc86f92af71" style="stroke:#000000;"/>
    </defs>
    <g clip-path="url(#pb4115e5205)">
     <use style="fill:#c371d2;stroke:#000000;" x="413.497386" xlink:href="#mc86f92af71" y="200.849238"/>
     <use style="fill:#c371d2;stroke:#000000;" x="372.13986" xlink:href="#mc86f92af71" y="175.439638"/>
     <use style="fill:#c371d2;stroke:#000000;" x="333.15338" xlink:href="#mc86f92af71" y="147.776123"/>
     <use style="fill:#c371d2;stroke:#000000;" x="306.989663" xlink:href="#mc86f92af71" y="115.559289"/>
     <use style="fill:#c371d2;stroke:#000000;" x="296.491568" xlink:href="#mc86f92af71" y="80.921827"/>
     <use style="fill:#c371d2;stroke:#000000;" x="285.192751" xlink:href="#mc86f92af71" y="47.461786"/>
     <use style="fill:#c371d2;stroke:#000000;" x="275.176307" xlink:href="#mc86f92af71" y="13.758517"/>
    </g>
   </g>
   <g id="line2d_30">
    <path clip-path="url(#pb4115e5205)" d="M 400.066884 193.512923 
L 372.358051 181.460588 
L 359.769676 164.645451 
L 325.959506 146.682372 
L 306.083378 124.21006 
L 283.317165 100.069055 
L 229.376625 75.687696 
" style="fill:none;stroke:#ac8e18;stroke-width:3;"/>
   </g>
   <g id="PathCollection_5">
    <defs>
     <path d="M 0 -2 
L -1.732051 -1 
L -1.732051 1 
L -0 2 
L 1.732051 1 
L 1.732051 -1 
z
" id="m06943f8cd0" style="stroke:#000000;"/>
    </defs>
    <g clip-path="url(#pb4115e5205)">
     <use style="fill:#ac8e18;stroke:#000000;" x="400.066884" xlink:href="#m06943f8cd0" y="193.512923"/>
     <use style="fill:#ac8e18;stroke:#000000;" x="372.358051" xlink:href="#m06943f8cd0" y="181.460588"/>
     <use style="fill:#ac8e18;stroke:#000000;" x="359.769676" xlink:href="#m06943f8cd0" y="164.645451"/>
     <use style="fill:#ac8e18;stroke:#000000;" x="325.959506" xlink:href="#m06943f8cd0" y="146.682372"/>
     <use style="fill:#ac8e18;stroke:#000000;" x="306.083378" xlink:href="#m06943f8cd0" y="124.21006"/>
     <use style="fill:#ac8e18;stroke:#000000;" x="283.317165" xlink:href="#m06943f8cd0" y="100.069055"/>
     <use style="fill:#ac8e18;stroke:#000000;" x="229.376625" xlink:href="#m06943f8cd0" y="75.687696"/>
    </g>
   </g>
   <g id="line2d_31">
    <path clip-path="url(#pb4115e5205)" d="M 418.380924 182.138929 
L 388.342827 172.376449 
L 375.719392 164.479761 
L 353.70746 145.582095 
L 329.636839 126.664343 
L 299.10172 103.471508 
L 269.730677 79.544787 
" style="fill:none;stroke:#00aaae;stroke-width:3;"/>
   </g>
   <g id="PathCollection_6">
    <defs>
     <path d="M 0.828427 2 
L 0.765367 0.765367 
L 2 0.828427 
L 2 -0.828427 
L 0.765367 -0.765367 
L 0.828427 -2 
L -0.828427 -2 
L -0.765367 -0.765367 
L -2 -0.828427 
L -2 0.828427 
L -0.765367 0.765367 
L -0.828427 2 
L 0.828427 2 
L 0.765367 0.765367 
L 0.828427 2 
" id="m574d7dacbe" style="stroke:#000000;"/>
    </defs>
    <g clip-path="url(#pb4115e5205)">
     <use style="fill:#00aaae;stroke:#000000;" x="418.380924" xlink:href="#m574d7dacbe" y="182.138929"/>
     <use style="fill:#00aaae;stroke:#000000;" x="388.342827" xlink:href="#m574d7dacbe" y="172.376449"/>
     <use style="fill:#00aaae;stroke:#000000;" x="375.719392" xlink:href="#m574d7dacbe" y="164.479761"/>
     <use style="fill:#00aaae;stroke:#000000;" x="353.70746" xlink:href="#m574d7dacbe" y="145.582095"/>
     <use style="fill:#00aaae;stroke:#000000;" x="329.636839" xlink:href="#m574d7dacbe" y="126.664343"/>
     <use style="fill:#00aaae;stroke:#000000;" x="299.10172" xlink:href="#m574d7dacbe" y="103.471508"/>
     <use style="fill:#00aaae;stroke:#000000;" x="269.730677" xlink:href="#m574d7dacbe" y="79.544787"/>
    </g>
   </g>
   <g id="line2d_32">
    <path clip-path="url(#pb4115e5205)" d="M 299.323454 78.376787 
L 250.783069 78.087367 
L 211.505836 76.20507 
L 174.417607 72.556851 
L 133.485459 65.933089 
L 105.105874 57.192235 
L 58.899913 41.881812 
" style="fill:none;stroke:#ed5e93;stroke-width:3;"/>
   </g>
   <g id="PathCollection_7">
    <defs>
     <path d="M -0.828427 2 
L 0 1.082392 
L 0.828427 2 
L 2 0.828427 
L 1.082392 0 
L 2 -0.828427 
L 0.828427 -2 
L 0 -1.082392 
L -0.828427 -2 
L -2 -0.828427 
L -1.082392 -0 
L -2 0.828427 
L -0.828427 2 
L -0 1.082392 
L -0.828427 2 
" id="mebe83d85c2" style="stroke:#000000;"/>
    </defs>
    <g clip-path="url(#pb4115e5205)">
     <use style="fill:#ed5e93;stroke:#000000;" x="299.323454" xlink:href="#mebe83d85c2" y="78.376787"/>
     <use style="fill:#ed5e93;stroke:#000000;" x="250.783069" xlink:href="#mebe83d85c2" y="78.087367"/>
     <use style="fill:#ed5e93;stroke:#000000;" x="211.505836" xlink:href="#mebe83d85c2" y="76.20507"/>
     <use style="fill:#ed5e93;stroke:#000000;" x="174.417607" xlink:href="#mebe83d85c2" y="72.556851"/>
     <use style="fill:#ed5e93;stroke:#000000;" x="133.485459" xlink:href="#mebe83d85c2" y="65.933089"/>
     <use style="fill:#ed5e93;stroke:#000000;" x="105.105874" xlink:href="#mebe83d85c2" y="57.192235"/>
     <use style="fill:#ed5e93;stroke:#000000;" x="58.899913" xlink:href="#mebe83d85c2" y="41.881812"/>
    </g>
   </g>
   <g id="line2d_33">
    <path clip-path="url(#pb4115e5205)" d="M 346.295083 79.631095 
L 296.556926 78.330612 
L 246.804147 77.316048 
L 206.855729 74.012449 
L 168.608472 68.482188 
L 132.594792 59.256082 
L 93.471447 45.582115 
" style="fill:none;stroke:#c68225;stroke-width:3;"/>
   </g>
   <g id="PathCollection_8">
    <defs>
     <path d="M 0 -2 
L -2 2 
L 2 2 
z
" id="mf0b3e414e5" style="stroke:#000000;"/>
    </defs>
    <g clip-path="url(#pb4115e5205)">
     <use style="fill:#c68225;stroke:#000000;" x="346.295083" xlink:href="#mf0b3e414e5" y="79.631095"/>
     <use style="fill:#c68225;stroke:#000000;" x="296.556926" xlink:href="#mf0b3e414e5" y="78.330612"/>
     <use style="fill:#c68225;stroke:#000000;" x="246.804147" xlink:href="#mf0b3e414e5" y="77.316048"/>
     <use style="fill:#c68225;stroke:#000000;" x="206.855729" xlink:href="#mf0b3e414e5" y="74.012449"/>
     <use style="fill:#c68225;stroke:#000000;" x="168.608472" xlink:href="#mf0b3e414e5" y="68.482188"/>
     <use style="fill:#c68225;stroke:#000000;" x="132.594792" xlink:href="#mf0b3e414e5" y="59.256082"/>
     <use style="fill:#c68225;stroke:#000000;" x="93.471447" xlink:href="#mf0b3e414e5" y="45.582115"/>
    </g>
   </g>
   <g id="line2d_34">
    <path clip-path="url(#pb4115e5205)" d="M 415.115723 238.246227 
L 388.327867 215.733373 
L 370.324416 198.935462 
L 360.678669 179.720515 
L 348.115863 160.893787 
L 337.778567 146.947824 
L 324.203187 135.065734 
" style="fill:none;stroke:#00a98d;stroke-width:3;"/>
   </g>
   <g id="PathCollection_9">
    <defs>
     <path d="M -0 2 
L 2 -2 
L -2 -2 
z
" id="ma448dba0ad" style="stroke:#000000;"/>
    </defs>
    <g clip-path="url(#pb4115e5205)">
     <use style="fill:#00a98d;stroke:#000000;" x="415.115723" xlink:href="#ma448dba0ad" y="238.246227"/>
     <use style="fill:#00a98d;stroke:#000000;" x="388.327867" xlink:href="#ma448dba0ad" y="215.733373"/>
     <use style="fill:#00a98d;stroke:#000000;" x="370.324416" xlink:href="#ma448dba0ad" y="198.935462"/>
     <use style="fill:#00a98d;stroke:#000000;" x="360.678669" xlink:href="#ma448dba0ad" y="179.720515"/>
     <use style="fill:#00a98d;stroke:#000000;" x="348.115863" xlink:href="#ma448dba0ad" y="160.893787"/>
     <use style="fill:#00a98d;stroke:#000000;" x="337.778567" xlink:href="#ma448dba0ad" y="146.947824"/>
     <use style="fill:#00a98d;stroke:#000000;" x="324.203187" xlink:href="#ma448dba0ad" y="135.065734"/>
    </g>
   </g>
   <g id="legend_1">
    <g id="patch_5">
     <path d="M 52.115483 250.829354 
L 135.996733 250.829354 
L 135.996733 136.124354 
L 52.115483 136.124354 
z
" style="fill:#ffffff;stroke:#000000;stroke-linejoin:miter;"/>
    </g>
    <g id="line2d_35">
     <path d="M 58.515483 145.803104 
L 74.515483 145.803104 
" style="fill:none;stroke:#009afa;stroke-linejoin:miter;"/>
    </g>
    <g id="line2d_36">
     <defs>
      <path d="M 0 3.2 
C 0.84865 3.2 1.662656 2.862828 2.262742 2.262742 
C 2.862828 1.662656 3.2 0.84865 3.2 0 
C 3.2 -0.84865 2.862828 -1.662656 2.262742 -2.262742 
C 1.662656 -2.862828 0.84865 -3.2 0 -3.2 
C -0.84865 -3.2 -1.662656 -2.862828 -2.262742 -2.262742 
C -2.862828 -1.662656 -3.2 -0.84865 -3.2 0 
C -3.2 0.84865 -2.862828 1.662656 -2.262742 2.262742 
C -1.662656 2.862828 -0.84865 3.2 0 3.2 
z
" id="m104e4a5095" style="stroke:#000000;stroke-width:1.6;"/>
     </defs>
     <g>
      <use style="fill:#009afa;stroke:#000000;stroke-width:1.6;" x="66.515483" xlink:href="#m104e4a5095" y="145.803104"/>
     </g>
    </g>
    <g id="text_11">
     <!-- Tsit5 -->
     <g transform="translate(80.915483 148.603104)scale(0.08 -0.08)">
      <defs>
       <path d="M 18.3125 70.21875 
L 18.3125 54.6875 
L 36.8125 54.6875 
L 36.8125 47.703125 
L 18.3125 47.703125 
L 18.3125 18.015625 
Q 18.3125 11.328125 20.140625 9.421875 
Q 21.96875 7.515625 27.59375 7.515625 
L 36.8125 7.515625 
L 36.8125 0 
L 27.59375 0 
Q 17.1875 0 13.234375 3.875 
Q 9.28125 7.765625 9.28125 18.015625 
L 9.28125 47.703125 
L 2.6875 47.703125 
L 2.6875 54.6875 
L 9.28125 54.6875 
L 9.28125 70.21875 
z
" id="DejaVuSans-116"/>
      </defs>
      <use xlink:href="#DejaVuSans-84"/>
      <use x="44.583984" xlink:href="#DejaVuSans-115"/>
      <use x="96.683594" xlink:href="#DejaVuSans-105"/>
      <use x="124.466797" xlink:href="#DejaVuSans-116"/>
      <use x="163.675781" xlink:href="#DejaVuSans-53"/>
     </g>
    </g>
    <g id="line2d_37">
     <path d="M 58.515483 157.545604 
L 74.515483 157.545604 
" style="fill:none;stroke:#e36f47;stroke-linejoin:miter;"/>
    </g>
    <g id="line2d_38">
     <defs>
      <path d="M -3.2 3.2 
L 3.2 3.2 
L 3.2 -3.2 
L -3.2 -3.2 
z
" id="m3d4ca14a7f" style="stroke:#000000;stroke-linejoin:miter;stroke-width:1.6;"/>
     </defs>
     <g>
      <use style="fill:#e36f47;stroke:#000000;stroke-linejoin:miter;stroke-width:1.6;" x="66.515483" xlink:href="#m3d4ca14a7f" y="157.545604"/>
     </g>
    </g>
    <g id="text_12">
     <!-- ROCK4 -->
     <g transform="translate(80.915483 160.345604)scale(0.08 -0.08)">
      <defs>
       <path d="M 44.390625 34.1875 
Q 47.5625 33.109375 50.5625 29.59375 
Q 53.5625 26.078125 56.59375 19.921875 
L 66.609375 0 
L 56 0 
L 46.6875 18.703125 
Q 43.0625 26.03125 39.671875 28.421875 
Q 36.28125 30.8125 30.421875 30.8125 
L 19.671875 30.8125 
L 19.671875 0 
L 9.8125 0 
L 9.8125 72.90625 
L 32.078125 72.90625 
Q 44.578125 72.90625 50.734375 67.671875 
Q 56.890625 62.453125 56.890625 51.90625 
Q 56.890625 45.015625 53.6875 40.46875 
Q 50.484375 35.9375 44.390625 34.1875 
z
M 19.671875 64.796875 
L 19.671875 38.921875 
L 32.078125 38.921875 
Q 39.203125 38.921875 42.84375 42.21875 
Q 46.484375 45.515625 46.484375 51.90625 
Q 46.484375 58.296875 42.84375 61.546875 
Q 39.203125 64.796875 32.078125 64.796875 
z
" id="DejaVuSans-82"/>
       <path d="M 39.40625 66.21875 
Q 28.65625 66.21875 22.328125 58.203125 
Q 16.015625 50.203125 16.015625 36.375 
Q 16.015625 22.609375 22.328125 14.59375 
Q 28.65625 6.59375 39.40625 6.59375 
Q 50.140625 6.59375 56.421875 14.59375 
Q 62.703125 22.609375 62.703125 36.375 
Q 62.703125 50.203125 56.421875 58.203125 
Q 50.140625 66.21875 39.40625 66.21875 
z
M 39.40625 74.21875 
Q 54.734375 74.21875 63.90625 63.9375 
Q 73.09375 53.65625 73.09375 36.375 
Q 73.09375 19.140625 63.90625 8.859375 
Q 54.734375 -1.421875 39.40625 -1.421875 
Q 24.03125 -1.421875 14.8125 8.828125 
Q 5.609375 19.09375 5.609375 36.375 
Q 5.609375 53.65625 14.8125 63.9375 
Q 24.03125 74.21875 39.40625 74.21875 
z
" id="DejaVuSans-79"/>
       <path d="M 64.40625 67.28125 
L 64.40625 56.890625 
Q 59.421875 61.53125 53.78125 63.8125 
Q 48.140625 66.109375 41.796875 66.109375 
Q 29.296875 66.109375 22.65625 58.46875 
Q 16.015625 50.828125 16.015625 36.375 
Q 16.015625 21.96875 22.65625 14.328125 
Q 29.296875 6.6875 41.796875 6.6875 
Q 48.140625 6.6875 53.78125 8.984375 
Q 59.421875 11.28125 64.40625 15.921875 
L 64.40625 5.609375 
Q 59.234375 2.09375 53.4375 0.328125 
Q 47.65625 -1.421875 41.21875 -1.421875 
Q 24.65625 -1.421875 15.125 8.703125 
Q 5.609375 18.84375 5.609375 36.375 
Q 5.609375 53.953125 15.125 64.078125 
Q 24.65625 74.21875 41.21875 74.21875 
Q 47.75 74.21875 53.53125 72.484375 
Q 59.328125 70.75 64.40625 67.28125 
z
" id="DejaVuSans-67"/>
       <path d="M 9.8125 72.90625 
L 19.671875 72.90625 
L 19.671875 42.09375 
L 52.390625 72.90625 
L 65.09375 72.90625 
L 28.90625 38.921875 
L 67.671875 0 
L 54.6875 0 
L 19.671875 35.109375 
L 19.671875 0 
L 9.8125 0 
z
" id="DejaVuSans-75"/>
       <path d="M 37.796875 64.3125 
L 12.890625 25.390625 
L 37.796875 25.390625 
z
M 35.203125 72.90625 
L 47.609375 72.90625 
L 47.609375 25.390625 
L 58.015625 25.390625 
L 58.015625 17.1875 
L 47.609375 17.1875 
L 47.609375 0 
L 37.796875 0 
L 37.796875 17.1875 
L 4.890625 17.1875 
L 4.890625 26.703125 
z
" id="DejaVuSans-52"/>
      </defs>
      <use xlink:href="#DejaVuSans-82"/>
      <use x="69.482422" xlink:href="#DejaVuSans-79"/>
      <use x="148.193359" xlink:href="#DejaVuSans-67"/>
      <use x="218.017578" xlink:href="#DejaVuSans-75"/>
      <use x="283.59375" xlink:href="#DejaVuSans-52"/>
     </g>
    </g>
    <g id="line2d_39">
     <path d="M 58.515483 169.288104 
L 74.515483 169.288104 
" style="fill:none;stroke:#3ea44e;stroke-linejoin:miter;"/>
    </g>
    <g id="line2d_40">
     <defs>
      <path d="M 0 -3.2 
L -0.718445 -0.988854 
L -3.043381 -0.988854 
L -1.162468 0.377709 
L -1.880913 2.588854 
L -0 1.222291 
L 1.880913 2.588854 
L 1.162468 0.377709 
L 3.043381 -0.988854 
L 0.718445 -0.988854 
z
" id="m13c56a2624" style="stroke:#000000;stroke-linejoin:bevel;stroke-width:1.6;"/>
     </defs>
     <g>
      <use style="fill:#3ea44e;stroke:#000000;stroke-linejoin:bevel;stroke-width:1.6;" x="66.515483" xlink:href="#m13c56a2624" y="169.288104"/>
     </g>
    </g>
    <g id="text_13">
     <!-- CVODE_BDF -->
     <g transform="translate(80.915483 172.088104)scale(0.08 -0.08)">
      <defs>
       <path d="M 28.609375 0 
L 0.78125 72.90625 
L 11.078125 72.90625 
L 34.1875 11.53125 
L 57.328125 72.90625 
L 67.578125 72.90625 
L 39.796875 0 
z
" id="DejaVuSans-86"/>
       <path d="M 19.671875 64.796875 
L 19.671875 8.109375 
L 31.59375 8.109375 
Q 46.6875 8.109375 53.6875 14.9375 
Q 60.6875 21.78125 60.6875 36.53125 
Q 60.6875 51.171875 53.6875 57.984375 
Q 46.6875 64.796875 31.59375 64.796875 
z
M 9.8125 72.90625 
L 30.078125 72.90625 
Q 51.265625 72.90625 61.171875 64.09375 
Q 71.09375 55.28125 71.09375 36.53125 
Q 71.09375 17.671875 61.125 8.828125 
Q 51.171875 0 30.078125 0 
L 9.8125 0 
z
" id="DejaVuSans-68"/>
       <path d="M 50.984375 -16.609375 
L 50.984375 -23.578125 
L -0.984375 -23.578125 
L -0.984375 -16.609375 
z
" id="DejaVuSans-95"/>
       <path d="M 19.671875 34.8125 
L 19.671875 8.109375 
L 35.5 8.109375 
Q 43.453125 8.109375 47.28125 11.40625 
Q 51.125 14.703125 51.125 21.484375 
Q 51.125 28.328125 47.28125 31.5625 
Q 43.453125 34.8125 35.5 34.8125 
z
M 19.671875 64.796875 
L 19.671875 42.828125 
L 34.28125 42.828125 
Q 41.5 42.828125 45.03125 45.53125 
Q 48.578125 48.25 48.578125 53.8125 
Q 48.578125 59.328125 45.03125 62.0625 
Q 41.5 64.796875 34.28125 64.796875 
z
M 9.8125 72.90625 
L 35.015625 72.90625 
Q 46.296875 72.90625 52.390625 68.21875 
Q 58.5 63.53125 58.5 54.890625 
Q 58.5 48.1875 55.375 44.234375 
Q 52.25 40.28125 46.1875 39.3125 
Q 53.46875 37.75 57.5 32.78125 
Q 61.53125 27.828125 61.53125 20.40625 
Q 61.53125 10.640625 54.890625 5.3125 
Q 48.25 0 35.984375 0 
L 9.8125 0 
z
" id="DejaVuSans-66"/>
       <path d="M 9.8125 72.90625 
L 51.703125 72.90625 
L 51.703125 64.59375 
L 19.671875 64.59375 
L 19.671875 43.109375 
L 48.578125 43.109375 
L 48.578125 34.8125 
L 19.671875 34.8125 
L 19.671875 0 
L 9.8125 0 
z
" id="DejaVuSans-70"/>
      </defs>
      <use xlink:href="#DejaVuSans-67"/>
      <use x="69.824219" xlink:href="#DejaVuSans-86"/>
      <use x="136.482422" xlink:href="#DejaVuSans-79"/>
      <use x="215.193359" xlink:href="#DejaVuSans-68"/>
      <use x="292.195312" xlink:href="#DejaVuSans-69"/>
      <use x="355.378906" xlink:href="#DejaVuSans-95"/>
      <use x="405.378906" xlink:href="#DejaVuSans-66"/>
      <use x="473.982422" xlink:href="#DejaVuSans-68"/>
      <use x="550.984375" xlink:href="#DejaVuSans-70"/>
     </g>
    </g>
    <g id="line2d_41">
     <path d="M 58.515483 181.253104 
L 74.515483 181.253104 
" style="fill:none;stroke:#c371d2;stroke-linejoin:miter;"/>
    </g>
    <g id="line2d_42">
     <defs>
      <path d="M -0 4.525483 
L 4.525483 0 
L 0 -4.525483 
L -4.525483 -0 
z
" id="m6457aed13d" style="stroke:#000000;stroke-linejoin:miter;stroke-width:1.6;"/>
     </defs>
     <g>
      <use style="fill:#c371d2;stroke:#000000;stroke-linejoin:miter;stroke-width:1.6;" x="66.515483" xlink:href="#m6457aed13d" y="181.253104"/>
     </g>
    </g>
    <g id="text_14">
     <!-- Rodas5 -->
     <g transform="translate(80.915483 184.053104)scale(0.08 -0.08)">
      <defs>
       <path d="M 45.40625 46.390625 
L 45.40625 75.984375 
L 54.390625 75.984375 
L 54.390625 0 
L 45.40625 0 
L 45.40625 8.203125 
Q 42.578125 3.328125 38.25 0.953125 
Q 33.9375 -1.421875 27.875 -1.421875 
Q 17.96875 -1.421875 11.734375 6.484375 
Q 5.515625 14.40625 5.515625 27.296875 
Q 5.515625 40.1875 11.734375 48.09375 
Q 17.96875 56 27.875 56 
Q 33.9375 56 38.25 53.625 
Q 42.578125 51.265625 45.40625 46.390625 
z
M 14.796875 27.296875 
Q 14.796875 17.390625 18.875 11.75 
Q 22.953125 6.109375 30.078125 6.109375 
Q 37.203125 6.109375 41.296875 11.75 
Q 45.40625 17.390625 45.40625 27.296875 
Q 45.40625 37.203125 41.296875 42.84375 
Q 37.203125 48.484375 30.078125 48.484375 
Q 22.953125 48.484375 18.875 42.84375 
Q 14.796875 37.203125 14.796875 27.296875 
z
" id="DejaVuSans-100"/>
       <path d="M 34.28125 27.484375 
Q 23.390625 27.484375 19.1875 25 
Q 14.984375 22.515625 14.984375 16.5 
Q 14.984375 11.71875 18.140625 8.90625 
Q 21.296875 6.109375 26.703125 6.109375 
Q 34.1875 6.109375 38.703125 11.40625 
Q 43.21875 16.703125 43.21875 25.484375 
L 43.21875 27.484375 
z
M 52.203125 31.203125 
L 52.203125 0 
L 43.21875 0 
L 43.21875 8.296875 
Q 40.140625 3.328125 35.546875 0.953125 
Q 30.953125 -1.421875 24.3125 -1.421875 
Q 15.921875 -1.421875 10.953125 3.296875 
Q 6 8.015625 6 15.921875 
Q 6 25.140625 12.171875 29.828125 
Q 18.359375 34.515625 30.609375 34.515625 
L 43.21875 34.515625 
L 43.21875 35.40625 
Q 43.21875 41.609375 39.140625 45 
Q 35.0625 48.390625 27.6875 48.390625 
Q 23 48.390625 18.546875 47.265625 
Q 14.109375 46.140625 10.015625 43.890625 
L 10.015625 52.203125 
Q 14.9375 54.109375 19.578125 55.046875 
Q 24.21875 56 28.609375 56 
Q 40.484375 56 46.34375 49.84375 
Q 52.203125 43.703125 52.203125 31.203125 
z
" id="DejaVuSans-97"/>
      </defs>
      <use xlink:href="#DejaVuSans-82"/>
      <use x="64.982422" xlink:href="#DejaVuSans-111"/>
      <use x="126.164062" xlink:href="#DejaVuSans-100"/>
      <use x="189.640625" xlink:href="#DejaVuSans-97"/>
      <use x="250.919922" xlink:href="#DejaVuSans-115"/>
      <use x="303.019531" xlink:href="#DejaVuSans-53"/>
     </g>
    </g>
    <g id="line2d_43">
     <path d="M 58.515483 192.995604 
L 74.515483 192.995604 
" style="fill:none;stroke:#ac8e18;stroke-linejoin:miter;"/>
    </g>
    <g id="line2d_44">
     <defs>
      <path d="M 0 -3.2 
L -2.771281 -1.6 
L -2.771281 1.6 
L -0 3.2 
L 2.771281 1.6 
L 2.771281 -1.6 
z
" id="m57b601c361" style="stroke:#000000;stroke-linejoin:miter;stroke-width:1.6;"/>
     </defs>
     <g>
      <use style="fill:#ac8e18;stroke:#000000;stroke-linejoin:miter;stroke-width:1.6;" x="66.515483" xlink:href="#m57b601c361" y="192.995604"/>
     </g>
    </g>
    <g id="text_15">
     <!-- Kvaerno5 -->
     <g transform="translate(80.915483 195.795604)scale(0.08 -0.08)">
      <defs>
       <path d="M 2.984375 54.6875 
L 12.5 54.6875 
L 29.59375 8.796875 
L 46.6875 54.6875 
L 56.203125 54.6875 
L 35.6875 0 
L 23.484375 0 
z
" id="DejaVuSans-118"/>
       <path d="M 54.890625 33.015625 
L 54.890625 0 
L 45.90625 0 
L 45.90625 32.71875 
Q 45.90625 40.484375 42.875 44.328125 
Q 39.84375 48.1875 33.796875 48.1875 
Q 26.515625 48.1875 22.3125 43.546875 
Q 18.109375 38.921875 18.109375 30.90625 
L 18.109375 0 
L 9.078125 0 
L 9.078125 54.6875 
L 18.109375 54.6875 
L 18.109375 46.1875 
Q 21.34375 51.125 25.703125 53.5625 
Q 30.078125 56 35.796875 56 
Q 45.21875 56 50.046875 50.171875 
Q 54.890625 44.34375 54.890625 33.015625 
z
" id="DejaVuSans-110"/>
      </defs>
      <use xlink:href="#DejaVuSans-75"/>
      <use x="65.576172" xlink:href="#DejaVuSans-118"/>
      <use x="124.755859" xlink:href="#DejaVuSans-97"/>
      <use x="186.035156" xlink:href="#DejaVuSans-101"/>
      <use x="247.558594" xlink:href="#DejaVuSans-114"/>
      <use x="286.921875" xlink:href="#DejaVuSans-110"/>
      <use x="350.300781" xlink:href="#DejaVuSans-111"/>
      <use x="411.482422" xlink:href="#DejaVuSans-53"/>
     </g>
    </g>
    <g id="line2d_45">
     <path d="M 58.515483 204.738104 
L 74.515483 204.738104 
" style="fill:none;stroke:#00aaae;stroke-linejoin:miter;"/>
    </g>
    <g id="line2d_46">
     <defs>
      <path d="M 1.325483 3.2 
L 1.224587 1.224587 
L 3.2 1.325483 
L 3.2 -1.325483 
L 1.224587 -1.224587 
L 1.325483 -3.2 
L -1.325483 -3.2 
L -1.224587 -1.224587 
L -3.2 -1.325483 
L -3.2 1.325483 
L -1.224587 1.224587 
L -1.325483 3.2 
L 1.325483 3.2 
L 1.224587 1.224587 
L 1.325483 3.2 
" id="m5a76ea5e56" style="stroke:#000000;stroke-width:1.6;"/>
     </defs>
     <g>
      <use style="fill:#00aaae;stroke:#000000;stroke-width:1.6;" x="66.515483" xlink:href="#m5a76ea5e56" y="204.738104"/>
     </g>
    </g>
    <g id="text_16">
     <!-- KenCarp5 -->
     <g transform="translate(80.915483 207.538104)scale(0.08 -0.08)">
      <defs>
       <path d="M 18.109375 8.203125 
L 18.109375 -20.796875 
L 9.078125 -20.796875 
L 9.078125 54.6875 
L 18.109375 54.6875 
L 18.109375 46.390625 
Q 20.953125 51.265625 25.265625 53.625 
Q 29.59375 56 35.59375 56 
Q 45.5625 56 51.78125 48.09375 
Q 58.015625 40.1875 58.015625 27.296875 
Q 58.015625 14.40625 51.78125 6.484375 
Q 45.5625 -1.421875 35.59375 -1.421875 
Q 29.59375 -1.421875 25.265625 0.953125 
Q 20.953125 3.328125 18.109375 8.203125 
z
M 48.6875 27.296875 
Q 48.6875 37.203125 44.609375 42.84375 
Q 40.53125 48.484375 33.40625 48.484375 
Q 26.265625 48.484375 22.1875 42.84375 
Q 18.109375 37.203125 18.109375 27.296875 
Q 18.109375 17.390625 22.1875 11.75 
Q 26.265625 6.109375 33.40625 6.109375 
Q 40.53125 6.109375 44.609375 11.75 
Q 48.6875 17.390625 48.6875 27.296875 
z
" id="DejaVuSans-112"/>
      </defs>
      <use xlink:href="#DejaVuSans-75"/>
      <use x="60.576172" xlink:href="#DejaVuSans-101"/>
      <use x="122.099609" xlink:href="#DejaVuSans-110"/>
      <use x="185.478516" xlink:href="#DejaVuSans-67"/>
      <use x="255.302734" xlink:href="#DejaVuSans-97"/>
      <use x="316.582031" xlink:href="#DejaVuSans-114"/>
      <use x="357.695312" xlink:href="#DejaVuSans-112"/>
      <use x="421.171875" xlink:href="#DejaVuSans-53"/>
     </g>
    </g>
    <g id="line2d_47">
     <path d="M 58.515483 216.480604 
L 74.515483 216.480604 
" style="fill:none;stroke:#ed5e93;stroke-linejoin:miter;"/>
    </g>
    <g id="line2d_48">
     <defs>
      <path d="M -1.325483 3.2 
L 0 1.731828 
L 1.325483 3.2 
L 3.2 1.325483 
L 1.731828 0 
L 3.2 -1.325483 
L 1.325483 -3.2 
L 0 -1.731828 
L -1.325483 -3.2 
L -3.2 -1.325483 
L -1.731828 -0 
L -3.2 1.325483 
L -1.325483 3.2 
L -0 1.731828 
L -1.325483 3.2 
" id="m6289209491" style="stroke:#000000;stroke-width:1.6;"/>
     </defs>
     <g>
      <use style="fill:#ed5e93;stroke:#000000;stroke-width:1.6;" x="66.515483" xlink:href="#m6289209491" y="216.480604"/>
     </g>
    </g>
    <g id="text_17">
     <!-- Vern7 -->
     <g transform="translate(80.915483 219.280604)scale(0.08 -0.08)">
      <use xlink:href="#DejaVuSans-86"/>
      <use x="60.658203" xlink:href="#DejaVuSans-101"/>
      <use x="122.181641" xlink:href="#DejaVuSans-114"/>
      <use x="161.544922" xlink:href="#DejaVuSans-110"/>
      <use x="224.923828" xlink:href="#DejaVuSans-55"/>
     </g>
    </g>
    <g id="line2d_49">
     <path d="M 58.515483 228.223104 
L 74.515483 228.223104 
" style="fill:none;stroke:#c68225;stroke-linejoin:miter;"/>
    </g>
    <g id="line2d_50">
     <defs>
      <path d="M 0 -3.2 
L -3.2 3.2 
L 3.2 3.2 
z
" id="mb09ecc0183" style="stroke:#000000;stroke-linejoin:miter;stroke-width:1.6;"/>
     </defs>
     <g>
      <use style="fill:#c68225;stroke:#000000;stroke-linejoin:miter;stroke-width:1.6;" x="66.515483" xlink:href="#mb09ecc0183" y="228.223104"/>
     </g>
    </g>
    <g id="text_18">
     <!-- Vern8 -->
     <g transform="translate(80.915483 231.023104)scale(0.08 -0.08)">
      <defs>
       <path d="M 31.78125 34.625 
Q 24.75 34.625 20.71875 30.859375 
Q 16.703125 27.09375 16.703125 20.515625 
Q 16.703125 13.921875 20.71875 10.15625 
Q 24.75 6.390625 31.78125 6.390625 
Q 38.8125 6.390625 42.859375 10.171875 
Q 46.921875 13.96875 46.921875 20.515625 
Q 46.921875 27.09375 42.890625 30.859375 
Q 38.875 34.625 31.78125 34.625 
z
M 21.921875 38.8125 
Q 15.578125 40.375 12.03125 44.71875 
Q 8.5 49.078125 8.5 55.328125 
Q 8.5 64.0625 14.71875 69.140625 
Q 20.953125 74.21875 31.78125 74.21875 
Q 42.671875 74.21875 48.875 69.140625 
Q 55.078125 64.0625 55.078125 55.328125 
Q 55.078125 49.078125 51.53125 44.71875 
Q 48 40.375 41.703125 38.8125 
Q 48.828125 37.15625 52.796875 32.3125 
Q 56.78125 27.484375 56.78125 20.515625 
Q 56.78125 9.90625 50.3125 4.234375 
Q 43.84375 -1.421875 31.78125 -1.421875 
Q 19.734375 -1.421875 13.25 4.234375 
Q 6.78125 9.90625 6.78125 20.515625 
Q 6.78125 27.484375 10.78125 32.3125 
Q 14.796875 37.15625 21.921875 38.8125 
z
M 18.3125 54.390625 
Q 18.3125 48.734375 21.84375 45.5625 
Q 25.390625 42.390625 31.78125 42.390625 
Q 38.140625 42.390625 41.71875 45.5625 
Q 45.3125 48.734375 45.3125 54.390625 
Q 45.3125 60.0625 41.71875 63.234375 
Q 38.140625 66.40625 31.78125 66.40625 
Q 25.390625 66.40625 21.84375 63.234375 
Q 18.3125 60.0625 18.3125 54.390625 
z
" id="DejaVuSans-56"/>
      </defs>
      <use xlink:href="#DejaVuSans-86"/>
      <use x="60.658203" xlink:href="#DejaVuSans-101"/>
      <use x="122.181641" xlink:href="#DejaVuSans-114"/>
      <use x="161.544922" xlink:href="#DejaVuSans-110"/>
      <use x="224.923828" xlink:href="#DejaVuSans-56"/>
     </g>
    </g>
    <g id="line2d_51">
     <path d="M 58.515483 239.965604 
L 74.515483 239.965604 
" style="fill:none;stroke:#00a98d;stroke-linejoin:miter;"/>
    </g>
    <g id="line2d_52">
     <defs>
      <path d="M -0 3.2 
L 3.2 -3.2 
L -3.2 -3.2 
z
" id="m8d9f22c493" style="stroke:#000000;stroke-linejoin:miter;stroke-width:1.6;"/>
     </defs>
     <g>
      <use style="fill:#00a98d;stroke:#000000;stroke-linejoin:miter;stroke-width:1.6;" x="66.515483" xlink:href="#m8d9f22c493" y="239.965604"/>
     </g>
    </g>
    <g id="text_19">
     <!-- lsoda -->
     <g transform="translate(80.915483 242.765604)scale(0.08 -0.08)">
      <defs>
       <path d="M 9.421875 75.984375 
L 18.40625 75.984375 
L 18.40625 0 
L 9.421875 0 
z
" id="DejaVuSans-108"/>
      </defs>
      <use xlink:href="#DejaVuSans-108"/>
      <use x="27.783203" xlink:href="#DejaVuSans-115"/>
      <use x="79.882812" xlink:href="#DejaVuSans-111"/>
      <use x="141.064453" xlink:href="#DejaVuSans-100"/>
      <use x="204.541016" xlink:href="#DejaVuSans-97"/>
     </g>
    </g>
   </g>
  </g>
 </g>
 <defs>
  <clipPath id="pb4115e5205">
   <rect height="251.994709" width="381.049872" x="48.115483" y="2.834646"/>
  </clipPath>
 </defs>
</svg>
