<?xml version="1.0" encoding="utf-8" standalone="no"?>
<!DOCTYPE svg PUBLIC "-//W3C//DTD SVG 1.1//EN"
  "http://www.w3.org/Graphics/SVG/1.1/DTD/svg11.dtd">
<!-- Created with matplotlib (https://matplotlib.org/) -->
<svg height="288pt" version="1.1" viewBox="0 0 432 288" width="432pt" xmlns="http://www.w3.org/2000/svg" xmlns:xlink="http://www.w3.org/1999/xlink">
 <metadata>
  <rdf:RDF xmlns:cc="http://creativecommons.org/ns#" xmlns:dc="http://purl.org/dc/elements/1.1/" xmlns:rdf="http://www.w3.org/1999/02/22-rdf-syntax-ns#">
   <cc:Work>
    <dc:type rdf:resource="http://purl.org/dc/dcmitype/StillImage"/>
    <dc:date>2020-09-23T15:46:27.369381</dc:date>
    <dc:format>image/svg+xml</dc:format>
    <dc:creator>
     <cc:Agent>
      <dc:title>Matplotlib v3.3.1, https://matplotlib.org/</dc:title>
     </cc:Agent>
    </dc:creator>
   </cc:Work>
  </rdf:RDF>
 </metadata>
 <defs>
  <style type="text/css">*{stroke-linecap:butt;stroke-linejoin:round;}</style>
 </defs>
 <g id="figure_1">
  <g id="patch_1">
   <path d="M 0 288 
L 432 288 
L 432 0 
L 0 0 
z
" style="fill:#ffffff;"/>
  </g>
  <g id="axes_1">
   <g id="patch_2">
    <path d="M 43.423206 254.829354 
L 429.165354 254.829354 
L 429.165354 2.834646 
L 43.423206 2.834646 
z
" style="fill:#ffffff;"/>
   </g>
   <g id="matplotlib.axis_1">
    <g id="xtick_1">
     <g id="line2d_1">
      <path clip-path="url(#p760407be98)" d="M 76.054807 254.829354 
L 76.054807 2.834646 
" style="fill:none;stroke:#000000;stroke-linecap:square;stroke-opacity:0.1;stroke-width:0.5;"/>
     </g>
     <g id="line2d_2">
      <defs>
       <path d="M 0 0 
L 0 -2.5 
" id="me961f4cced" style="stroke:#000000;stroke-width:0.5;"/>
      </defs>
      <g>
       <use style="stroke:#000000;stroke-width:0.5;" x="76.054807" xlink:href="#me961f4cced" y="254.829354"/>
      </g>
     </g>
     <g id="text_1">
      <!-- $\mathregular{10^{-10}}$ -->
      <g transform="translate(64.894807 266.508104)scale(0.08 -0.08)">
       <defs>
        <path d="M 12.40625 8.296875 
L 28.515625 8.296875 
L 28.515625 63.921875 
L 10.984375 60.40625 
L 10.984375 69.390625 
L 28.421875 72.90625 
L 38.28125 72.90625 
L 38.28125 8.296875 
L 54.390625 8.296875 
L 54.390625 0 
L 12.40625 0 
z
" id="DejaVuSans-49"/>
        <path d="M 31.78125 66.40625 
Q 24.171875 66.40625 20.328125 58.90625 
Q 16.5 51.421875 16.5 36.375 
Q 16.5 21.390625 20.328125 13.890625 
Q 24.171875 6.390625 31.78125 6.390625 
Q 39.453125 6.390625 43.28125 13.890625 
Q 47.125 21.390625 47.125 36.375 
Q 47.125 51.421875 43.28125 58.90625 
Q 39.453125 66.40625 31.78125 66.40625 
z
M 31.78125 74.21875 
Q 44.046875 74.21875 50.515625 64.515625 
Q 56.984375 54.828125 56.984375 36.375 
Q 56.984375 17.96875 50.515625 8.265625 
Q 44.046875 -1.421875 31.78125 -1.421875 
Q 19.53125 -1.421875 13.0625 8.265625 
Q 6.59375 17.96875 6.59375 36.375 
Q 6.59375 54.828125 13.0625 64.515625 
Q 19.53125 74.21875 31.78125 74.21875 
z
" id="DejaVuSans-48"/>
        <path d="M 10.59375 35.5 
L 73.1875 35.5 
L 73.1875 27.203125 
L 10.59375 27.203125 
z
" id="DejaVuSans-8722"/>
       </defs>
       <use transform="translate(0 0.765625)" xlink:href="#DejaVuSans-49"/>
       <use transform="translate(63.623047 0.765625)" xlink:href="#DejaVuSans-48"/>
       <use transform="translate(128.203125 39.046875)scale(0.7)" xlink:href="#DejaVuSans-8722"/>
       <use transform="translate(186.855469 39.046875)scale(0.7)" xlink:href="#DejaVuSans-49"/>
       <use transform="translate(231.391602 39.046875)scale(0.7)" xlink:href="#DejaVuSans-48"/>
      </g>
     </g>
    </g>
    <g id="xtick_2">
     <g id="line2d_3">
      <path clip-path="url(#p760407be98)" d="M 148.199478 254.829354 
L 148.199478 2.834646 
" style="fill:none;stroke:#000000;stroke-linecap:square;stroke-opacity:0.1;stroke-width:0.5;"/>
     </g>
     <g id="line2d_4">
      <g>
       <use style="stroke:#000000;stroke-width:0.5;" x="148.199478" xlink:href="#me961f4cced" y="254.829354"/>
      </g>
     </g>
     <g id="text_2">
      <!-- $\mathregular{10^{-8}}$ -->
      <g transform="translate(138.799478 266.508104)scale(0.08 -0.08)">
       <defs>
        <path d="M 31.78125 34.625 
Q 24.75 34.625 20.71875 30.859375 
Q 16.703125 27.09375 16.703125 20.515625 
Q 16.703125 13.921875 20.71875 10.15625 
Q 24.75 6.390625 31.78125 6.390625 
Q 38.8125 6.390625 42.859375 10.171875 
Q 46.921875 13.96875 46.921875 20.515625 
Q 46.921875 27.09375 42.890625 30.859375 
Q 38.875 34.625 31.78125 34.625 
z
M 21.921875 38.8125 
Q 15.578125 40.375 12.03125 44.71875 
Q 8.5 49.078125 8.5 55.328125 
Q 8.5 64.0625 14.71875 69.140625 
Q 20.953125 74.21875 31.78125 74.21875 
Q 42.671875 74.21875 48.875 69.140625 
Q 55.078125 64.0625 55.078125 55.328125 
Q 55.078125 49.078125 51.53125 44.71875 
Q 48 40.375 41.703125 38.8125 
Q 48.828125 37.15625 52.796875 32.3125 
Q 56.78125 27.484375 56.78125 20.515625 
Q 56.78125 9.90625 50.3125 4.234375 
Q 43.84375 -1.421875 31.78125 -1.421875 
Q 19.734375 -1.421875 13.25 4.234375 
Q 6.78125 9.90625 6.78125 20.515625 
Q 6.78125 27.484375 10.78125 32.3125 
Q 14.796875 37.15625 21.921875 38.8125 
z
M 18.3125 54.390625 
Q 18.3125 48.734375 21.84375 45.5625 
Q 25.390625 42.390625 31.78125 42.390625 
Q 38.140625 42.390625 41.71875 45.5625 
Q 45.3125 48.734375 45.3125 54.390625 
Q 45.3125 60.0625 41.71875 63.234375 
Q 38.140625 66.40625 31.78125 66.40625 
Q 25.390625 66.40625 21.84375 63.234375 
Q 18.3125 60.0625 18.3125 54.390625 
z
" id="DejaVuSans-56"/>
       </defs>
       <use transform="translate(0 0.765625)" xlink:href="#DejaVuSans-49"/>
       <use transform="translate(63.623047 0.765625)" xlink:href="#DejaVuSans-48"/>
       <use transform="translate(128.203125 39.046875)scale(0.7)" xlink:href="#DejaVuSans-8722"/>
       <use transform="translate(186.855469 39.046875)scale(0.7)" xlink:href="#DejaVuSans-56"/>
      </g>
     </g>
    </g>
    <g id="xtick_3">
     <g id="line2d_5">
      <path clip-path="url(#p760407be98)" d="M 220.344149 254.829354 
L 220.344149 2.834646 
" style="fill:none;stroke:#000000;stroke-linecap:square;stroke-opacity:0.1;stroke-width:0.5;"/>
     </g>
     <g id="line2d_6">
      <g>
       <use style="stroke:#000000;stroke-width:0.5;" x="220.344149" xlink:href="#me961f4cced" y="254.829354"/>
      </g>
     </g>
     <g id="text_3">
      <!-- $\mathregular{10^{-6}}$ -->
      <g transform="translate(210.944149 266.508104)scale(0.08 -0.08)">
       <defs>
        <path d="M 33.015625 40.375 
Q 26.375 40.375 22.484375 35.828125 
Q 18.609375 31.296875 18.609375 23.390625 
Q 18.609375 15.53125 22.484375 10.953125 
Q 26.375 6.390625 33.015625 6.390625 
Q 39.65625 6.390625 43.53125 10.953125 
Q 47.40625 15.53125 47.40625 23.390625 
Q 47.40625 31.296875 43.53125 35.828125 
Q 39.65625 40.375 33.015625 40.375 
z
M 52.59375 71.296875 
L 52.59375 62.3125 
Q 48.875 64.0625 45.09375 64.984375 
Q 41.3125 65.921875 37.59375 65.921875 
Q 27.828125 65.921875 22.671875 59.328125 
Q 17.53125 52.734375 16.796875 39.40625 
Q 19.671875 43.65625 24.015625 45.921875 
Q 28.375 48.1875 33.59375 48.1875 
Q 44.578125 48.1875 50.953125 41.515625 
Q 57.328125 34.859375 57.328125 23.390625 
Q 57.328125 12.15625 50.6875 5.359375 
Q 44.046875 -1.421875 33.015625 -1.421875 
Q 20.359375 -1.421875 13.671875 8.265625 
Q 6.984375 17.96875 6.984375 36.375 
Q 6.984375 53.65625 15.1875 63.9375 
Q 23.390625 74.21875 37.203125 74.21875 
Q 40.921875 74.21875 44.703125 73.484375 
Q 48.484375 72.75 52.59375 71.296875 
z
" id="DejaVuSans-54"/>
       </defs>
       <use transform="translate(0 0.765625)" xlink:href="#DejaVuSans-49"/>
       <use transform="translate(63.623047 0.765625)" xlink:href="#DejaVuSans-48"/>
       <use transform="translate(128.203125 39.046875)scale(0.7)" xlink:href="#DejaVuSans-8722"/>
       <use transform="translate(186.855469 39.046875)scale(0.7)" xlink:href="#DejaVuSans-54"/>
      </g>
     </g>
    </g>
    <g id="xtick_4">
     <g id="line2d_7">
      <path clip-path="url(#p760407be98)" d="M 292.488821 254.829354 
L 292.488821 2.834646 
" style="fill:none;stroke:#000000;stroke-linecap:square;stroke-opacity:0.1;stroke-width:0.5;"/>
     </g>
     <g id="line2d_8">
      <g>
       <use style="stroke:#000000;stroke-width:0.5;" x="292.488821" xlink:href="#me961f4cced" y="254.829354"/>
      </g>
     </g>
     <g id="text_4">
      <!-- $\mathregular{10^{-4}}$ -->
      <g transform="translate(283.088821 266.508104)scale(0.08 -0.08)">
       <defs>
        <path d="M 37.796875 64.3125 
L 12.890625 25.390625 
L 37.796875 25.390625 
z
M 35.203125 72.90625 
L 47.609375 72.90625 
L 47.609375 25.390625 
L 58.015625 25.390625 
L 58.015625 17.1875 
L 47.609375 17.1875 
L 47.609375 0 
L 37.796875 0 
L 37.796875 17.1875 
L 4.890625 17.1875 
L 4.890625 26.703125 
z
" id="DejaVuSans-52"/>
       </defs>
       <use transform="translate(0 0.684375)" xlink:href="#DejaVuSans-49"/>
       <use transform="translate(63.623047 0.684375)" xlink:href="#DejaVuSans-48"/>
       <use transform="translate(128.203125 38.965625)scale(0.7)" xlink:href="#DejaVuSans-8722"/>
       <use transform="translate(186.855469 38.965625)scale(0.7)" xlink:href="#DejaVuSans-52"/>
      </g>
     </g>
    </g>
    <g id="xtick_5">
     <g id="line2d_9">
      <path clip-path="url(#p760407be98)" d="M 364.633492 254.829354 
L 364.633492 2.834646 
" style="fill:none;stroke:#000000;stroke-linecap:square;stroke-opacity:0.1;stroke-width:0.5;"/>
     </g>
     <g id="line2d_10">
      <g>
       <use style="stroke:#000000;stroke-width:0.5;" x="364.633492" xlink:href="#me961f4cced" y="254.829354"/>
      </g>
     </g>
     <g id="text_5">
      <!-- $\mathregular{10^{-2}}$ -->
      <g transform="translate(355.233492 266.508104)scale(0.08 -0.08)">
       <defs>
        <path d="M 19.1875 8.296875 
L 53.609375 8.296875 
L 53.609375 0 
L 7.328125 0 
L 7.328125 8.296875 
Q 12.9375 14.109375 22.625 23.890625 
Q 32.328125 33.6875 34.8125 36.53125 
Q 39.546875 41.84375 41.421875 45.53125 
Q 43.3125 49.21875 43.3125 52.78125 
Q 43.3125 58.59375 39.234375 62.25 
Q 35.15625 65.921875 28.609375 65.921875 
Q 23.96875 65.921875 18.8125 64.3125 
Q 13.671875 62.703125 7.8125 59.421875 
L 7.8125 69.390625 
Q 13.765625 71.78125 18.9375 73 
Q 24.125 74.21875 28.421875 74.21875 
Q 39.75 74.21875 46.484375 68.546875 
Q 53.21875 62.890625 53.21875 53.421875 
Q 53.21875 48.921875 51.53125 44.890625 
Q 49.859375 40.875 45.40625 35.40625 
Q 44.1875 33.984375 37.640625 27.21875 
Q 31.109375 20.453125 19.1875 8.296875 
z
" id="DejaVuSans-50"/>
       </defs>
       <use transform="translate(0 0.765625)" xlink:href="#DejaVuSans-49"/>
       <use transform="translate(63.623047 0.765625)" xlink:href="#DejaVuSans-48"/>
       <use transform="translate(128.203125 39.046875)scale(0.7)" xlink:href="#DejaVuSans-8722"/>
       <use transform="translate(186.855469 39.046875)scale(0.7)" xlink:href="#DejaVuSans-50"/>
      </g>
     </g>
    </g>
    <g id="xtick_6">
     <g id="line2d_11">
      <defs>
       <path d="M 0 0 
L 0 2 
" id="me747d66780" style="stroke:#000000;stroke-width:0.4;"/>
      </defs>
      <g>
       <use style="stroke:#000000;stroke-width:0.4;" x="112.127142" xlink:href="#me747d66780" y="254.829354"/>
      </g>
     </g>
    </g>
    <g id="xtick_7">
     <g id="line2d_12">
      <g>
       <use style="stroke:#000000;stroke-width:0.4;" x="184.271814" xlink:href="#me747d66780" y="254.829354"/>
      </g>
     </g>
    </g>
    <g id="xtick_8">
     <g id="line2d_13">
      <g>
       <use style="stroke:#000000;stroke-width:0.4;" x="256.416485" xlink:href="#me747d66780" y="254.829354"/>
      </g>
     </g>
    </g>
    <g id="xtick_9">
     <g id="line2d_14">
      <g>
       <use style="stroke:#000000;stroke-width:0.4;" x="328.561156" xlink:href="#me747d66780" y="254.829354"/>
      </g>
     </g>
    </g>
    <g id="xtick_10">
     <g id="line2d_15">
      <g>
       <use style="stroke:#000000;stroke-width:0.4;" x="400.705827" xlink:href="#me747d66780" y="254.829354"/>
      </g>
     </g>
    </g>
    <g id="text_6">
     <!-- Error -->
     <g transform="translate(222.890608 280.530136)scale(0.11 -0.11)">
      <defs>
       <path d="M 9.8125 72.90625 
L 55.90625 72.90625 
L 55.90625 64.59375 
L 19.671875 64.59375 
L 19.671875 43.015625 
L 54.390625 43.015625 
L 54.390625 34.71875 
L 19.671875 34.71875 
L 19.671875 8.296875 
L 56.78125 8.296875 
L 56.78125 0 
L 9.8125 0 
z
" id="DejaVuSans-69"/>
       <path d="M 41.109375 46.296875 
Q 39.59375 47.171875 37.8125 47.578125 
Q 36.03125 48 33.890625 48 
Q 26.265625 48 22.1875 43.046875 
Q 18.109375 38.09375 18.109375 28.8125 
L 18.109375 0 
L 9.078125 0 
L 9.078125 54.6875 
L 18.109375 54.6875 
L 18.109375 46.1875 
Q 20.953125 51.171875 25.484375 53.578125 
Q 30.03125 56 36.53125 56 
Q 37.453125 56 38.578125 55.875 
Q 39.703125 55.765625 41.0625 55.515625 
z
" id="DejaVuSans-114"/>
       <path d="M 30.609375 48.390625 
Q 23.390625 48.390625 19.1875 42.75 
Q 14.984375 37.109375 14.984375 27.296875 
Q 14.984375 17.484375 19.15625 11.84375 
Q 23.34375 6.203125 30.609375 6.203125 
Q 37.796875 6.203125 41.984375 11.859375 
Q 46.1875 17.53125 46.1875 27.296875 
Q 46.1875 37.015625 41.984375 42.703125 
Q 37.796875 48.390625 30.609375 48.390625 
z
M 30.609375 56 
Q 42.328125 56 49.015625 48.375 
Q 55.71875 40.765625 55.71875 27.296875 
Q 55.71875 13.875 49.015625 6.21875 
Q 42.328125 -1.421875 30.609375 -1.421875 
Q 18.84375 -1.421875 12.171875 6.21875 
Q 5.515625 13.875 5.515625 27.296875 
Q 5.515625 40.765625 12.171875 48.375 
Q 18.84375 56 30.609375 56 
z
" id="DejaVuSans-111"/>
      </defs>
      <use xlink:href="#DejaVuSans-69"/>
      <use x="63.183594" xlink:href="#DejaVuSans-114"/>
      <use x="102.546875" xlink:href="#DejaVuSans-114"/>
      <use x="141.410156" xlink:href="#DejaVuSans-111"/>
      <use x="202.591797" xlink:href="#DejaVuSans-114"/>
     </g>
    </g>
   </g>
   <g id="matplotlib.axis_2">
    <g id="ytick_1">
     <g id="line2d_16">
      <path clip-path="url(#p760407be98)" d="M 43.423206 245.476567 
L 429.165354 245.476567 
" style="fill:none;stroke:#000000;stroke-linecap:square;stroke-opacity:0.1;stroke-width:0.5;"/>
     </g>
     <g id="line2d_17">
      <defs>
       <path d="M 0 0 
L 2.5 0 
" id="mca9bac6a7e" style="stroke:#000000;stroke-width:0.5;"/>
      </defs>
      <g>
       <use style="stroke:#000000;stroke-width:0.5;" x="43.423206" xlink:href="#mca9bac6a7e" y="245.476567"/>
      </g>
     </g>
     <g id="text_7">
      <!-- $\mathregular{10^{0.0}}$ -->
      <g transform="translate(18.383206 248.515942)scale(0.08 -0.08)">
       <defs>
        <path d="M 10.6875 12.40625 
L 21 12.40625 
L 21 0 
L 10.6875 0 
z
" id="DejaVuSans-46"/>
       </defs>
       <use transform="translate(0 0.765625)" xlink:href="#DejaVuSans-49"/>
       <use transform="translate(63.623047 0.765625)" xlink:href="#DejaVuSans-48"/>
       <use transform="translate(128.203125 39.046875)scale(0.7)" xlink:href="#DejaVuSans-48"/>
       <use transform="translate(172.739258 39.046875)scale(0.7)" xlink:href="#DejaVuSans-46"/>
       <use transform="translate(194.990234 39.046875)scale(0.7)" xlink:href="#DejaVuSans-48"/>
      </g>
     </g>
    </g>
    <g id="ytick_2">
     <g id="line2d_18">
      <path clip-path="url(#p760407be98)" d="M 43.423206 203.381705 
L 429.165354 203.381705 
" style="fill:none;stroke:#000000;stroke-linecap:square;stroke-opacity:0.1;stroke-width:0.5;"/>
     </g>
     <g id="line2d_19">
      <g>
       <use style="stroke:#000000;stroke-width:0.5;" x="43.423206" xlink:href="#mca9bac6a7e" y="203.381705"/>
      </g>
     </g>
     <g id="text_8">
      <!-- $\mathregular{10^{0.5}}$ -->
      <g transform="translate(18.383206 206.42108)scale(0.08 -0.08)">
       <defs>
        <path d="M 10.796875 72.90625 
L 49.515625 72.90625 
L 49.515625 64.59375 
L 19.828125 64.59375 
L 19.828125 46.734375 
Q 21.96875 47.46875 24.109375 47.828125 
Q 26.265625 48.1875 28.421875 48.1875 
Q 40.625 48.1875 47.75 41.5 
Q 54.890625 34.8125 54.890625 23.390625 
Q 54.890625 11.625 47.5625 5.09375 
Q 40.234375 -1.421875 26.90625 -1.421875 
Q 22.3125 -1.421875 17.546875 -0.640625 
Q 12.796875 0.140625 7.71875 1.703125 
L 7.71875 11.625 
Q 12.109375 9.234375 16.796875 8.0625 
Q 21.484375 6.890625 26.703125 6.890625 
Q 35.15625 6.890625 40.078125 11.328125 
Q 45.015625 15.765625 45.015625 23.390625 
Q 45.015625 31 40.078125 35.4375 
Q 35.15625 39.890625 26.703125 39.890625 
Q 22.75 39.890625 18.8125 39.015625 
Q 14.890625 38.140625 10.796875 36.28125 
z
" id="DejaVuSans-53"/>
       </defs>
       <use transform="translate(0 0.765625)" xlink:href="#DejaVuSans-49"/>
       <use transform="translate(63.623047 0.765625)" xlink:href="#DejaVuSans-48"/>
       <use transform="translate(128.203125 39.046875)scale(0.7)" xlink:href="#DejaVuSans-48"/>
       <use transform="translate(172.739258 39.046875)scale(0.7)" xlink:href="#DejaVuSans-46"/>
       <use transform="translate(194.990234 39.046875)scale(0.7)" xlink:href="#DejaVuSans-53"/>
      </g>
     </g>
    </g>
    <g id="ytick_3">
     <g id="line2d_20">
      <path clip-path="url(#p760407be98)" d="M 43.423206 161.286844 
L 429.165354 161.286844 
" style="fill:none;stroke:#000000;stroke-linecap:square;stroke-opacity:0.1;stroke-width:0.5;"/>
     </g>
     <g id="line2d_21">
      <g>
       <use style="stroke:#000000;stroke-width:0.5;" x="43.423206" xlink:href="#mca9bac6a7e" y="161.286844"/>
      </g>
     </g>
     <g id="text_9">
      <!-- $\mathregular{10^{1.0}}$ -->
      <g transform="translate(18.383206 164.326219)scale(0.08 -0.08)">
       <use transform="translate(0 0.765625)" xlink:href="#DejaVuSans-49"/>
       <use transform="translate(63.623047 0.765625)" xlink:href="#DejaVuSans-48"/>
       <use transform="translate(128.203125 39.046875)scale(0.7)" xlink:href="#DejaVuSans-49"/>
       <use transform="translate(172.739258 39.046875)scale(0.7)" xlink:href="#DejaVuSans-46"/>
       <use transform="translate(194.990234 39.046875)scale(0.7)" xlink:href="#DejaVuSans-48"/>
      </g>
     </g>
    </g>
    <g id="ytick_4">
     <g id="line2d_22">
      <path clip-path="url(#p760407be98)" d="M 43.423206 119.191982 
L 429.165354 119.191982 
" style="fill:none;stroke:#000000;stroke-linecap:square;stroke-opacity:0.1;stroke-width:0.5;"/>
     </g>
     <g id="line2d_23">
      <g>
       <use style="stroke:#000000;stroke-width:0.5;" x="43.423206" xlink:href="#mca9bac6a7e" y="119.191982"/>
      </g>
     </g>
     <g id="text_10">
      <!-- $\mathregular{10^{1.5}}$ -->
      <g transform="translate(18.383206 122.231357)scale(0.08 -0.08)">
       <use transform="translate(0 0.684375)" xlink:href="#DejaVuSans-49"/>
       <use transform="translate(63.623047 0.684375)" xlink:href="#DejaVuSans-48"/>
       <use transform="translate(128.203125 38.965625)scale(0.7)" xlink:href="#DejaVuSans-49"/>
       <use transform="translate(172.739258 38.965625)scale(0.7)" xlink:href="#DejaVuSans-46"/>
       <use transform="translate(194.990234 38.965625)scale(0.7)" xlink:href="#DejaVuSans-53"/>
      </g>
     </g>
    </g>
    <g id="ytick_5">
     <g id="line2d_24">
      <path clip-path="url(#p760407be98)" d="M 43.423206 77.097121 
L 429.165354 77.097121 
" style="fill:none;stroke:#000000;stroke-linecap:square;stroke-opacity:0.1;stroke-width:0.5;"/>
     </g>
     <g id="line2d_25">
      <g>
       <use style="stroke:#000000;stroke-width:0.5;" x="43.423206" xlink:href="#mca9bac6a7e" y="77.097121"/>
      </g>
     </g>
     <g id="text_11">
      <!-- $\mathregular{10^{2.0}}$ -->
      <g transform="translate(18.383206 80.136496)scale(0.08 -0.08)">
       <use transform="translate(0 0.765625)" xlink:href="#DejaVuSans-49"/>
       <use transform="translate(63.623047 0.765625)" xlink:href="#DejaVuSans-48"/>
       <use transform="translate(128.203125 39.046875)scale(0.7)" xlink:href="#DejaVuSans-50"/>
       <use transform="translate(172.739258 39.046875)scale(0.7)" xlink:href="#DejaVuSans-46"/>
       <use transform="translate(194.990234 39.046875)scale(0.7)" xlink:href="#DejaVuSans-48"/>
      </g>
     </g>
    </g>
    <g id="ytick_6">
     <g id="line2d_26">
      <path clip-path="url(#p760407be98)" d="M 43.423206 35.002259 
L 429.165354 35.002259 
" style="fill:none;stroke:#000000;stroke-linecap:square;stroke-opacity:0.1;stroke-width:0.5;"/>
     </g>
     <g id="line2d_27">
      <g>
       <use style="stroke:#000000;stroke-width:0.5;" x="43.423206" xlink:href="#mca9bac6a7e" y="35.002259"/>
      </g>
     </g>
     <g id="text_12">
      <!-- $\mathregular{10^{2.5}}$ -->
      <g transform="translate(18.383206 38.041634)scale(0.08 -0.08)">
       <use transform="translate(0 0.765625)" xlink:href="#DejaVuSans-49"/>
       <use transform="translate(63.623047 0.765625)" xlink:href="#DejaVuSans-48"/>
       <use transform="translate(128.203125 39.046875)scale(0.7)" xlink:href="#DejaVuSans-50"/>
       <use transform="translate(172.739258 39.046875)scale(0.7)" xlink:href="#DejaVuSans-46"/>
       <use transform="translate(194.990234 39.046875)scale(0.7)" xlink:href="#DejaVuSans-53"/>
      </g>
     </g>
    </g>
    <g id="text_13">
     <!-- Time (s) -->
     <g transform="translate(12.095549 151.193797)rotate(-90)scale(0.11 -0.11)">
      <defs>
       <path d="M -0.296875 72.90625 
L 61.375 72.90625 
L 61.375 64.59375 
L 35.5 64.59375 
L 35.5 0 
L 25.59375 0 
L 25.59375 64.59375 
L -0.296875 64.59375 
z
" id="DejaVuSans-84"/>
       <path d="M 9.421875 54.6875 
L 18.40625 54.6875 
L 18.40625 0 
L 9.421875 0 
z
M 9.421875 75.984375 
L 18.40625 75.984375 
L 18.40625 64.59375 
L 9.421875 64.59375 
z
" id="DejaVuSans-105"/>
       <path d="M 52 44.1875 
Q 55.375 50.25 60.0625 53.125 
Q 64.75 56 71.09375 56 
Q 79.640625 56 84.28125 50.015625 
Q 88.921875 44.046875 88.921875 33.015625 
L 88.921875 0 
L 79.890625 0 
L 79.890625 32.71875 
Q 79.890625 40.578125 77.09375 44.375 
Q 74.3125 48.1875 68.609375 48.1875 
Q 61.625 48.1875 57.5625 43.546875 
Q 53.515625 38.921875 53.515625 30.90625 
L 53.515625 0 
L 44.484375 0 
L 44.484375 32.71875 
Q 44.484375 40.625 41.703125 44.40625 
Q 38.921875 48.1875 33.109375 48.1875 
Q 26.21875 48.1875 22.15625 43.53125 
Q 18.109375 38.875 18.109375 30.90625 
L 18.109375 0 
L 9.078125 0 
L 9.078125 54.6875 
L 18.109375 54.6875 
L 18.109375 46.1875 
Q 21.1875 51.21875 25.484375 53.609375 
Q 29.78125 56 35.6875 56 
Q 41.65625 56 45.828125 52.96875 
Q 50 49.953125 52 44.1875 
z
" id="DejaVuSans-109"/>
       <path d="M 56.203125 29.59375 
L 56.203125 25.203125 
L 14.890625 25.203125 
Q 15.484375 15.921875 20.484375 11.0625 
Q 25.484375 6.203125 34.421875 6.203125 
Q 39.59375 6.203125 44.453125 7.46875 
Q 49.3125 8.734375 54.109375 11.28125 
L 54.109375 2.78125 
Q 49.265625 0.734375 44.1875 -0.34375 
Q 39.109375 -1.421875 33.890625 -1.421875 
Q 20.796875 -1.421875 13.15625 6.1875 
Q 5.515625 13.8125 5.515625 26.8125 
Q 5.515625 40.234375 12.765625 48.109375 
Q 20.015625 56 32.328125 56 
Q 43.359375 56 49.78125 48.890625 
Q 56.203125 41.796875 56.203125 29.59375 
z
M 47.21875 32.234375 
Q 47.125 39.59375 43.09375 43.984375 
Q 39.0625 48.390625 32.421875 48.390625 
Q 24.90625 48.390625 20.390625 44.140625 
Q 15.875 39.890625 15.1875 32.171875 
z
" id="DejaVuSans-101"/>
       <path id="DejaVuSans-32"/>
       <path d="M 31 75.875 
Q 24.46875 64.65625 21.28125 53.65625 
Q 18.109375 42.671875 18.109375 31.390625 
Q 18.109375 20.125 21.3125 9.0625 
Q 24.515625 -2 31 -13.1875 
L 23.1875 -13.1875 
Q 15.875 -1.703125 12.234375 9.375 
Q 8.59375 20.453125 8.59375 31.390625 
Q 8.59375 42.28125 12.203125 53.3125 
Q 15.828125 64.359375 23.1875 75.875 
z
" id="DejaVuSans-40"/>
       <path d="M 44.28125 53.078125 
L 44.28125 44.578125 
Q 40.484375 46.53125 36.375 47.5 
Q 32.28125 48.484375 27.875 48.484375 
Q 21.1875 48.484375 17.84375 46.4375 
Q 14.5 44.390625 14.5 40.28125 
Q 14.5 37.15625 16.890625 35.375 
Q 19.28125 33.59375 26.515625 31.984375 
L 29.59375 31.296875 
Q 39.15625 29.25 43.1875 25.515625 
Q 47.21875 21.78125 47.21875 15.09375 
Q 47.21875 7.46875 41.1875 3.015625 
Q 35.15625 -1.421875 24.609375 -1.421875 
Q 20.21875 -1.421875 15.453125 -0.5625 
Q 10.6875 0.296875 5.421875 2 
L 5.421875 11.28125 
Q 10.40625 8.6875 15.234375 7.390625 
Q 20.0625 6.109375 24.8125 6.109375 
Q 31.15625 6.109375 34.5625 8.28125 
Q 37.984375 10.453125 37.984375 14.40625 
Q 37.984375 18.0625 35.515625 20.015625 
Q 33.0625 21.96875 24.703125 23.78125 
L 21.578125 24.515625 
Q 13.234375 26.265625 9.515625 29.90625 
Q 5.8125 33.546875 5.8125 39.890625 
Q 5.8125 47.609375 11.28125 51.796875 
Q 16.75 56 26.8125 56 
Q 31.78125 56 36.171875 55.265625 
Q 40.578125 54.546875 44.28125 53.078125 
z
" id="DejaVuSans-115"/>
       <path d="M 8.015625 75.875 
L 15.828125 75.875 
Q 23.140625 64.359375 26.78125 53.3125 
Q 30.421875 42.28125 30.421875 31.390625 
Q 30.421875 20.453125 26.78125 9.375 
Q 23.140625 -1.703125 15.828125 -13.1875 
L 8.015625 -13.1875 
Q 14.5 -2 17.703125 9.0625 
Q 20.90625 20.125 20.90625 31.390625 
Q 20.90625 42.671875 17.703125 53.65625 
Q 14.5 64.65625 8.015625 75.875 
z
" id="DejaVuSans-41"/>
      </defs>
      <use xlink:href="#DejaVuSans-84"/>
      <use x="57.958984" xlink:href="#DejaVuSans-105"/>
      <use x="85.742188" xlink:href="#DejaVuSans-109"/>
      <use x="183.154297" xlink:href="#DejaVuSans-101"/>
      <use x="244.677734" xlink:href="#DejaVuSans-32"/>
      <use x="276.464844" xlink:href="#DejaVuSans-40"/>
      <use x="315.478516" xlink:href="#DejaVuSans-115"/>
      <use x="367.578125" xlink:href="#DejaVuSans-41"/>
     </g>
    </g>
   </g>
   <g id="line2d_28">
    <path clip-path="url(#p760407be98)" d="M 281.916751 191.035287 
L 274.125436 190.573663 
L 239.602312 188.308087 
L 199.626418 183.016074 
L 157.983562 173.843264 
L 115.392431 161.594851 
L 73.330562 146.895948 
" style="fill:none;stroke:#009afa;stroke-width:3;"/>
   </g>
   <g id="PathCollection_1">
    <defs>
     <path d="M 0 2 
C 0.530406 2 1.03916 1.789267 1.414214 1.414214 
C 1.789267 1.03916 2 0.530406 2 0 
C 2 -0.530406 1.789267 -1.03916 1.414214 -1.414214 
C 1.03916 -1.789267 0.530406 -2 0 -2 
C -0.530406 -2 -1.03916 -1.789267 -1.414214 -1.414214 
C -1.789267 -1.03916 -2 -0.530406 -2 0 
C -2 0.530406 -1.789267 1.03916 -1.414214 1.414214 
C -1.03916 1.789267 -0.530406 2 0 2 
z
" id="m229ad9c118" style="stroke:#000000;"/>
    </defs>
    <g clip-path="url(#p760407be98)">
     <use style="fill:#009afa;stroke:#000000;" x="281.916751" xlink:href="#m229ad9c118" y="191.035287"/>
     <use style="fill:#009afa;stroke:#000000;" x="274.125436" xlink:href="#m229ad9c118" y="190.573663"/>
     <use style="fill:#009afa;stroke:#000000;" x="239.602312" xlink:href="#m229ad9c118" y="188.308087"/>
     <use style="fill:#009afa;stroke:#000000;" x="199.626418" xlink:href="#m229ad9c118" y="183.016074"/>
     <use style="fill:#009afa;stroke:#000000;" x="157.983562" xlink:href="#m229ad9c118" y="173.843264"/>
     <use style="fill:#009afa;stroke:#000000;" x="115.392431" xlink:href="#m229ad9c118" y="161.594851"/>
     <use style="fill:#009afa;stroke:#000000;" x="73.330562" xlink:href="#m229ad9c118" y="146.895948"/>
    </g>
   </g>
   <g id="line2d_29">
    <path clip-path="url(#p760407be98)" d="M 340.890575 213.305316 
L 309.078497 200.768674 
L 267.019287 186.79918 
L 238.092333 171.449125 
L 212.092806 153.829415 
L 177.447652 134.437147 
L 154.757401 113.973295 
" style="fill:none;stroke:#e36f47;stroke-width:3;"/>
   </g>
   <g id="PathCollection_2">
    <defs>
     <path d="M -2 2 
L 2 2 
L 2 -2 
L -2 -2 
z
" id="m850a9760dd" style="stroke:#000000;"/>
    </defs>
    <g clip-path="url(#p760407be98)">
     <use style="fill:#e36f47;stroke:#000000;" x="340.890575" xlink:href="#m850a9760dd" y="213.305316"/>
     <use style="fill:#e36f47;stroke:#000000;" x="309.078497" xlink:href="#m850a9760dd" y="200.768674"/>
     <use style="fill:#e36f47;stroke:#000000;" x="267.019287" xlink:href="#m850a9760dd" y="186.79918"/>
     <use style="fill:#e36f47;stroke:#000000;" x="238.092333" xlink:href="#m850a9760dd" y="171.449125"/>
     <use style="fill:#e36f47;stroke:#000000;" x="212.092806" xlink:href="#m850a9760dd" y="153.829415"/>
     <use style="fill:#e36f47;stroke:#000000;" x="177.447652" xlink:href="#m850a9760dd" y="134.437147"/>
     <use style="fill:#e36f47;stroke:#000000;" x="154.757401" xlink:href="#m850a9760dd" y="113.973295"/>
    </g>
   </g>
   <g id="patch_3">
    <path d="M 43.423206 254.829354 
L 43.423206 2.834646 
" style="fill:none;stroke:#000000;stroke-linecap:square;stroke-linejoin:miter;"/>
   </g>
   <g id="patch_4">
    <path d="M 43.423206 254.829354 
L 429.165354 254.829354 
" style="fill:none;stroke:#000000;stroke-linecap:square;stroke-linejoin:miter;"/>
   </g>
   <g id="line2d_30">
    <path clip-path="url(#p760407be98)" d="M 395.205027 247.697429 
L 382.738992 239.123155 
L 344.798217 222.044456 
L 299.753908 214.946366 
L 267.286263 201.715776 
L 239.178819 189.432788 
L 208.136334 178.087117 
" style="fill:none;stroke:#3ea44e;stroke-width:3;"/>
   </g>
   <g id="PathCollection_3">
    <defs>
     <path d="M 0 -2 
L -0.449028 -0.618034 
L -1.902113 -0.618034 
L -0.726543 0.236068 
L -1.175571 1.618034 
L -0 0.763932 
L 1.175571 1.618034 
L 0.726543 0.236068 
L 1.902113 -0.618034 
L 0.449028 -0.618034 
z
" id="m451bf46e95" style="stroke:#000000;"/>
    </defs>
    <g clip-path="url(#p760407be98)">
     <use style="fill:#3ea44e;stroke:#000000;" x="395.205027" xlink:href="#m451bf46e95" y="247.697429"/>
     <use style="fill:#3ea44e;stroke:#000000;" x="382.738992" xlink:href="#m451bf46e95" y="239.123155"/>
     <use style="fill:#3ea44e;stroke:#000000;" x="344.798217" xlink:href="#m451bf46e95" y="222.044456"/>
     <use style="fill:#3ea44e;stroke:#000000;" x="299.753908" xlink:href="#m451bf46e95" y="214.946366"/>
     <use style="fill:#3ea44e;stroke:#000000;" x="267.286263" xlink:href="#m451bf46e95" y="201.715776"/>
     <use style="fill:#3ea44e;stroke:#000000;" x="239.178819" xlink:href="#m451bf46e95" y="189.432788"/>
     <use style="fill:#3ea44e;stroke:#000000;" x="208.136334" xlink:href="#m451bf46e95" y="178.087117"/>
    </g>
   </g>
   <g id="line2d_31">
    <path clip-path="url(#p760407be98)" d="M 408.272238 118.40169 
L 371.626393 111.262363 
L 332.335229 93.339642 
L 294.764182 68.641582 
L 263.175868 47.021872 
L 251.83062 27.992902 
L 243.292372 9.966571 
" style="fill:none;stroke:#c371d2;stroke-width:3;"/>
   </g>
   <g id="PathCollection_4">
    <defs>
     <path d="M -0 2.828427 
L 2.828427 0 
L 0 -2.828427 
L -2.828427 -0 
z
" id="m2de437bb91" style="stroke:#000000;"/>
    </defs>
    <g clip-path="url(#p760407be98)">
     <use style="fill:#c371d2;stroke:#000000;" x="408.272238" xlink:href="#m2de437bb91" y="118.40169"/>
     <use style="fill:#c371d2;stroke:#000000;" x="371.626393" xlink:href="#m2de437bb91" y="111.262363"/>
     <use style="fill:#c371d2;stroke:#000000;" x="332.335229" xlink:href="#m2de437bb91" y="93.339642"/>
     <use style="fill:#c371d2;stroke:#000000;" x="294.764182" xlink:href="#m2de437bb91" y="68.641582"/>
     <use style="fill:#c371d2;stroke:#000000;" x="263.175868" xlink:href="#m2de437bb91" y="47.021872"/>
     <use style="fill:#c371d2;stroke:#000000;" x="251.83062" xlink:href="#m2de437bb91" y="27.992902"/>
     <use style="fill:#c371d2;stroke:#000000;" x="243.292372" xlink:href="#m2de437bb91" y="9.966571"/>
    </g>
   </g>
   <g id="line2d_32">
    <path clip-path="url(#p760407be98)" d="M 418.248124 144.681648 
L 362.727851 143.651138 
L 350.474066 141.588279 
L 323.849693 140.578219 
L 290.70271 138.700686 
L 258.22634 131.839399 
L 225.397319 122.795268 
" style="fill:none;stroke:#ac8e18;stroke-width:3;"/>
   </g>
   <g id="PathCollection_5">
    <defs>
     <path d="M 0 -2 
L -1.732051 -1 
L -1.732051 1 
L -0 2 
L 1.732051 1 
L 1.732051 -1 
z
" id="m3e5184870a" style="stroke:#000000;"/>
    </defs>
    <g clip-path="url(#p760407be98)">
     <use style="fill:#ac8e18;stroke:#000000;" x="418.248124" xlink:href="#m3e5184870a" y="144.681648"/>
     <use style="fill:#ac8e18;stroke:#000000;" x="362.727851" xlink:href="#m3e5184870a" y="143.651138"/>
     <use style="fill:#ac8e18;stroke:#000000;" x="350.474066" xlink:href="#m3e5184870a" y="141.588279"/>
     <use style="fill:#ac8e18;stroke:#000000;" x="323.849693" xlink:href="#m3e5184870a" y="140.578219"/>
     <use style="fill:#ac8e18;stroke:#000000;" x="290.70271" xlink:href="#m3e5184870a" y="138.700686"/>
     <use style="fill:#ac8e18;stroke:#000000;" x="258.22634" xlink:href="#m3e5184870a" y="131.839399"/>
     <use style="fill:#ac8e18;stroke:#000000;" x="225.397319" xlink:href="#m3e5184870a" y="122.795268"/>
    </g>
   </g>
   <g id="line2d_33">
    <path clip-path="url(#p760407be98)" d="M 400.050714 144.150058 
L 392.47541 141.331301 
L 331.276086 138.2045 
L 315.264789 134.061503 
L 294.256617 133.112546 
L 273.557652 130.790264 
L 246.298171 124.622855 
" style="fill:none;stroke:#00aaae;stroke-width:3;"/>
   </g>
   <g id="PathCollection_6">
    <defs>
     <path d="M 0.828427 2 
L 0.765367 0.765367 
L 2 0.828427 
L 2 -0.828427 
L 0.765367 -0.765367 
L 0.828427 -2 
L -0.828427 -2 
L -0.765367 -0.765367 
L -2 -0.828427 
L -2 0.828427 
L -0.765367 0.765367 
L -0.828427 2 
L 0.828427 2 
L 0.765367 0.765367 
L 0.828427 2 
" id="m582d6cf81c" style="stroke:#000000;"/>
    </defs>
    <g clip-path="url(#p760407be98)">
     <use style="fill:#00aaae;stroke:#000000;" x="400.050714" xlink:href="#m582d6cf81c" y="144.150058"/>
     <use style="fill:#00aaae;stroke:#000000;" x="392.47541" xlink:href="#m582d6cf81c" y="141.331301"/>
     <use style="fill:#00aaae;stroke:#000000;" x="331.276086" xlink:href="#m582d6cf81c" y="138.2045"/>
     <use style="fill:#00aaae;stroke:#000000;" x="315.264789" xlink:href="#m582d6cf81c" y="134.061503"/>
     <use style="fill:#00aaae;stroke:#000000;" x="294.256617" xlink:href="#m582d6cf81c" y="133.112546"/>
     <use style="fill:#00aaae;stroke:#000000;" x="273.557652" xlink:href="#m582d6cf81c" y="130.790264"/>
     <use style="fill:#00aaae;stroke:#000000;" x="246.298171" xlink:href="#m582d6cf81c" y="124.622855"/>
    </g>
   </g>
   <g id="line2d_34">
    <path clip-path="url(#p760407be98)" d="M 266.758151 183.981444 
L 238.139505 183.528575 
L 191.526662 181.576784 
L 145.297717 177.615184 
L 100.484016 170.741118 
L 55.247887 161.955188 
L 54.340436 151.205089 
" style="fill:none;stroke:#ed5e93;stroke-width:3;"/>
   </g>
   <g id="PathCollection_7">
    <defs>
     <path d="M -0.828427 2 
L 0 1.082392 
L 0.828427 2 
L 2 0.828427 
L 1.082392 0 
L 2 -0.828427 
L 0.828427 -2 
L 0 -1.082392 
L -0.828427 -2 
L -2 -0.828427 
L -1.082392 -0 
L -2 0.828427 
L -0.828427 2 
L -0 1.082392 
L -0.828427 2 
" id="m678ed009a0" style="stroke:#000000;"/>
    </defs>
    <g clip-path="url(#p760407be98)">
     <use style="fill:#ed5e93;stroke:#000000;" x="266.758151" xlink:href="#m678ed009a0" y="183.981444"/>
     <use style="fill:#ed5e93;stroke:#000000;" x="238.139505" xlink:href="#m678ed009a0" y="183.528575"/>
     <use style="fill:#ed5e93;stroke:#000000;" x="191.526662" xlink:href="#m678ed009a0" y="181.576784"/>
     <use style="fill:#ed5e93;stroke:#000000;" x="145.297717" xlink:href="#m678ed009a0" y="177.615184"/>
     <use style="fill:#ed5e93;stroke:#000000;" x="100.484016" xlink:href="#m678ed009a0" y="170.741118"/>
     <use style="fill:#ed5e93;stroke:#000000;" x="55.247887" xlink:href="#m678ed009a0" y="161.955188"/>
     <use style="fill:#ed5e93;stroke:#000000;" x="54.340436" xlink:href="#m678ed009a0" y="151.205089"/>
    </g>
   </g>
   <g id="line2d_35">
    <path clip-path="url(#p760407be98)" d="M 317.945161 183.053545 
L 272.291937 182.890676 
L 230.496021 182.166271 
L 167.944532 179.1139 
L 121.90609 173.467266 
L 88.079805 165.33159 
L 67.674311 155.590426 
" style="fill:none;stroke:#c68225;stroke-width:3;"/>
   </g>
   <g id="PathCollection_8">
    <defs>
     <path d="M 0 -2 
L -2 2 
L 2 2 
z
" id="m1b761120c3" style="stroke:#000000;"/>
    </defs>
    <g clip-path="url(#p760407be98)">
     <use style="fill:#c68225;stroke:#000000;" x="317.945161" xlink:href="#m1b761120c3" y="183.053545"/>
     <use style="fill:#c68225;stroke:#000000;" x="272.291937" xlink:href="#m1b761120c3" y="182.890676"/>
     <use style="fill:#c68225;stroke:#000000;" x="230.496021" xlink:href="#m1b761120c3" y="182.166271"/>
     <use style="fill:#c68225;stroke:#000000;" x="167.944532" xlink:href="#m1b761120c3" y="179.1139"/>
     <use style="fill:#c68225;stroke:#000000;" x="121.90609" xlink:href="#m1b761120c3" y="173.467266"/>
     <use style="fill:#c68225;stroke:#000000;" x="88.079805" xlink:href="#m1b761120c3" y="165.33159"/>
     <use style="fill:#c68225;stroke:#000000;" x="67.674311" xlink:href="#m1b761120c3" y="155.590426"/>
    </g>
   </g>
   <g id="line2d_36">
    <path clip-path="url(#p760407be98)" d="M 371.284799 126.484413 
L 338.74637 120.28851 
L 331.191854 112.573424 
L 293.503694 109.385003 
L 279.092597 102.241915 
L 273.423619 94.60185 
L 256.616442 86.396861 
" style="fill:none;stroke:#00a98d;stroke-width:3;"/>
   </g>
   <g id="PathCollection_9">
    <defs>
     <path d="M -0 2 
L 2 -2 
L -2 -2 
z
" id="m53ff78301a" style="stroke:#000000;"/>
    </defs>
    <g clip-path="url(#p760407be98)">
     <use style="fill:#00a98d;stroke:#000000;" x="371.284799" xlink:href="#m53ff78301a" y="126.484413"/>
     <use style="fill:#00a98d;stroke:#000000;" x="338.74637" xlink:href="#m53ff78301a" y="120.28851"/>
     <use style="fill:#00a98d;stroke:#000000;" x="331.191854" xlink:href="#m53ff78301a" y="112.573424"/>
     <use style="fill:#00a98d;stroke:#000000;" x="293.503694" xlink:href="#m53ff78301a" y="109.385003"/>
     <use style="fill:#00a98d;stroke:#000000;" x="279.092597" xlink:href="#m53ff78301a" y="102.241915"/>
     <use style="fill:#00a98d;stroke:#000000;" x="273.423619" xlink:href="#m53ff78301a" y="94.60185"/>
     <use style="fill:#00a98d;stroke:#000000;" x="256.616442" xlink:href="#m53ff78301a" y="86.396861"/>
    </g>
   </g>
   <g id="legend_1">
    <g id="patch_5">
     <path d="M 47.423206 121.539646 
L 131.304456 121.539646 
L 131.304456 6.834646 
L 47.423206 6.834646 
z
" style="fill:#ffffff;stroke:#000000;stroke-linejoin:miter;"/>
    </g>
    <g id="line2d_37">
     <path d="M 53.823206 16.513396 
L 69.823206 16.513396 
" style="fill:none;stroke:#009afa;stroke-linejoin:miter;"/>
    </g>
    <g id="line2d_38">
     <defs>
      <path d="M 0 3.2 
C 0.84865 3.2 1.662656 2.862828 2.262742 2.262742 
C 2.862828 1.662656 3.2 0.84865 3.2 0 
C 3.2 -0.84865 2.862828 -1.662656 2.262742 -2.262742 
C 1.662656 -2.862828 0.84865 -3.2 0 -3.2 
C -0.84865 -3.2 -1.662656 -2.862828 -2.262742 -2.262742 
C -2.862828 -1.662656 -3.2 -0.84865 -3.2 0 
C -3.2 0.84865 -2.862828 1.662656 -2.262742 2.262742 
C -1.662656 2.862828 -0.84865 3.2 0 3.2 
z
" id="mcdd67aa547" style="stroke:#000000;stroke-width:1.6;"/>
     </defs>
     <g>
      <use style="fill:#009afa;stroke:#000000;stroke-width:1.6;" x="61.823206" xlink:href="#mcdd67aa547" y="16.513396"/>
     </g>
    </g>
    <g id="text_14">
     <!-- Tsit5 -->
     <g transform="translate(76.223206 19.313396)scale(0.08 -0.08)">
      <defs>
       <path d="M 18.3125 70.21875 
L 18.3125 54.6875 
L 36.8125 54.6875 
L 36.8125 47.703125 
L 18.3125 47.703125 
L 18.3125 18.015625 
Q 18.3125 11.328125 20.140625 9.421875 
Q 21.96875 7.515625 27.59375 7.515625 
L 36.8125 7.515625 
L 36.8125 0 
L 27.59375 0 
Q 17.1875 0 13.234375 3.875 
Q 9.28125 7.765625 9.28125 18.015625 
L 9.28125 47.703125 
L 2.6875 47.703125 
L 2.6875 54.6875 
L 9.28125 54.6875 
L 9.28125 70.21875 
z
" id="DejaVuSans-116"/>
      </defs>
      <use xlink:href="#DejaVuSans-84"/>
      <use x="44.583984" xlink:href="#DejaVuSans-115"/>
      <use x="96.683594" xlink:href="#DejaVuSans-105"/>
      <use x="124.466797" xlink:href="#DejaVuSans-116"/>
      <use x="163.675781" xlink:href="#DejaVuSans-53"/>
     </g>
    </g>
    <g id="line2d_39">
     <path d="M 53.823206 28.255896 
L 69.823206 28.255896 
" style="fill:none;stroke:#e36f47;stroke-linejoin:miter;"/>
    </g>
    <g id="line2d_40">
     <defs>
      <path d="M -3.2 3.2 
L 3.2 3.2 
L 3.2 -3.2 
L -3.2 -3.2 
z
" id="m2ee8366649" style="stroke:#000000;stroke-linejoin:miter;stroke-width:1.6;"/>
     </defs>
     <g>
      <use style="fill:#e36f47;stroke:#000000;stroke-linejoin:miter;stroke-width:1.6;" x="61.823206" xlink:href="#m2ee8366649" y="28.255896"/>
     </g>
    </g>
    <g id="text_15">
     <!-- ROCK4 -->
     <g transform="translate(76.223206 31.055896)scale(0.08 -0.08)">
      <defs>
       <path d="M 44.390625 34.1875 
Q 47.5625 33.109375 50.5625 29.59375 
Q 53.5625 26.078125 56.59375 19.921875 
L 66.609375 0 
L 56 0 
L 46.6875 18.703125 
Q 43.0625 26.03125 39.671875 28.421875 
Q 36.28125 30.8125 30.421875 30.8125 
L 19.671875 30.8125 
L 19.671875 0 
L 9.8125 0 
L 9.8125 72.90625 
L 32.078125 72.90625 
Q 44.578125 72.90625 50.734375 67.671875 
Q 56.890625 62.453125 56.890625 51.90625 
Q 56.890625 45.015625 53.6875 40.46875 
Q 50.484375 35.9375 44.390625 34.1875 
z
M 19.671875 64.796875 
L 19.671875 38.921875 
L 32.078125 38.921875 
Q 39.203125 38.921875 42.84375 42.21875 
Q 46.484375 45.515625 46.484375 51.90625 
Q 46.484375 58.296875 42.84375 61.546875 
Q 39.203125 64.796875 32.078125 64.796875 
z
" id="DejaVuSans-82"/>
       <path d="M 39.40625 66.21875 
Q 28.65625 66.21875 22.328125 58.203125 
Q 16.015625 50.203125 16.015625 36.375 
Q 16.015625 22.609375 22.328125 14.59375 
Q 28.65625 6.59375 39.40625 6.59375 
Q 50.140625 6.59375 56.421875 14.59375 
Q 62.703125 22.609375 62.703125 36.375 
Q 62.703125 50.203125 56.421875 58.203125 
Q 50.140625 66.21875 39.40625 66.21875 
z
M 39.40625 74.21875 
Q 54.734375 74.21875 63.90625 63.9375 
Q 73.09375 53.65625 73.09375 36.375 
Q 73.09375 19.140625 63.90625 8.859375 
Q 54.734375 -1.421875 39.40625 -1.421875 
Q 24.03125 -1.421875 14.8125 8.828125 
Q 5.609375 19.09375 5.609375 36.375 
Q 5.609375 53.65625 14.8125 63.9375 
Q 24.03125 74.21875 39.40625 74.21875 
z
" id="DejaVuSans-79"/>
       <path d="M 64.40625 67.28125 
L 64.40625 56.890625 
Q 59.421875 61.53125 53.78125 63.8125 
Q 48.140625 66.109375 41.796875 66.109375 
Q 29.296875 66.109375 22.65625 58.46875 
Q 16.015625 50.828125 16.015625 36.375 
Q 16.015625 21.96875 22.65625 14.328125 
Q 29.296875 6.6875 41.796875 6.6875 
Q 48.140625 6.6875 53.78125 8.984375 
Q 59.421875 11.28125 64.40625 15.921875 
L 64.40625 5.609375 
Q 59.234375 2.09375 53.4375 0.328125 
Q 47.65625 -1.421875 41.21875 -1.421875 
Q 24.65625 -1.421875 15.125 8.703125 
Q 5.609375 18.84375 5.609375 36.375 
Q 5.609375 53.953125 15.125 64.078125 
Q 24.65625 74.21875 41.21875 74.21875 
Q 47.75 74.21875 53.53125 72.484375 
Q 59.328125 70.75 64.40625 67.28125 
z
" id="DejaVuSans-67"/>
       <path d="M 9.8125 72.90625 
L 19.671875 72.90625 
L 19.671875 42.09375 
L 52.390625 72.90625 
L 65.09375 72.90625 
L 28.90625 38.921875 
L 67.671875 0 
L 54.6875 0 
L 19.671875 35.109375 
L 19.671875 0 
L 9.8125 0 
z
" id="DejaVuSans-75"/>
      </defs>
      <use xlink:href="#DejaVuSans-82"/>
      <use x="69.482422" xlink:href="#DejaVuSans-79"/>
      <use x="148.193359" xlink:href="#DejaVuSans-67"/>
      <use x="218.017578" xlink:href="#DejaVuSans-75"/>
      <use x="283.59375" xlink:href="#DejaVuSans-52"/>
     </g>
    </g>
    <g id="line2d_41">
     <path d="M 53.823206 39.998396 
L 69.823206 39.998396 
" style="fill:none;stroke:#3ea44e;stroke-linejoin:miter;"/>
    </g>
    <g id="line2d_42">
     <defs>
      <path d="M 0 -3.2 
L -0.718445 -0.988854 
L -3.043381 -0.988854 
L -1.162468 0.377709 
L -1.880913 2.588854 
L -0 1.222291 
L 1.880913 2.588854 
L 1.162468 0.377709 
L 3.043381 -0.988854 
L 0.718445 -0.988854 
z
" id="m836ca591a0" style="stroke:#000000;stroke-linejoin:bevel;stroke-width:1.6;"/>
     </defs>
     <g>
      <use style="fill:#3ea44e;stroke:#000000;stroke-linejoin:bevel;stroke-width:1.6;" x="61.823206" xlink:href="#m836ca591a0" y="39.998396"/>
     </g>
    </g>
    <g id="text_16">
     <!-- CVODE_BDF -->
     <g transform="translate(76.223206 42.798396)scale(0.08 -0.08)">
      <defs>
       <path d="M 28.609375 0 
L 0.78125 72.90625 
L 11.078125 72.90625 
L 34.1875 11.53125 
L 57.328125 72.90625 
L 67.578125 72.90625 
L 39.796875 0 
z
" id="DejaVuSans-86"/>
       <path d="M 19.671875 64.796875 
L 19.671875 8.109375 
L 31.59375 8.109375 
Q 46.6875 8.109375 53.6875 14.9375 
Q 60.6875 21.78125 60.6875 36.53125 
Q 60.6875 51.171875 53.6875 57.984375 
Q 46.6875 64.796875 31.59375 64.796875 
z
M 9.8125 72.90625 
L 30.078125 72.90625 
Q 51.265625 72.90625 61.171875 64.09375 
Q 71.09375 55.28125 71.09375 36.53125 
Q 71.09375 17.671875 61.125 8.828125 
Q 51.171875 0 30.078125 0 
L 9.8125 0 
z
" id="DejaVuSans-68"/>
       <path d="M 50.984375 -16.609375 
L 50.984375 -23.578125 
L -0.984375 -23.578125 
L -0.984375 -16.609375 
z
" id="DejaVuSans-95"/>
       <path d="M 19.671875 34.8125 
L 19.671875 8.109375 
L 35.5 8.109375 
Q 43.453125 8.109375 47.28125 11.40625 
Q 51.125 14.703125 51.125 21.484375 
Q 51.125 28.328125 47.28125 31.5625 
Q 43.453125 34.8125 35.5 34.8125 
z
M 19.671875 64.796875 
L 19.671875 42.828125 
L 34.28125 42.828125 
Q 41.5 42.828125 45.03125 45.53125 
Q 48.578125 48.25 48.578125 53.8125 
Q 48.578125 59.328125 45.03125 62.0625 
Q 41.5 64.796875 34.28125 64.796875 
z
M 9.8125 72.90625 
L 35.015625 72.90625 
Q 46.296875 72.90625 52.390625 68.21875 
Q 58.5 63.53125 58.5 54.890625 
Q 58.5 48.1875 55.375 44.234375 
Q 52.25 40.28125 46.1875 39.3125 
Q 53.46875 37.75 57.5 32.78125 
Q 61.53125 27.828125 61.53125 20.40625 
Q 61.53125 10.640625 54.890625 5.3125 
Q 48.25 0 35.984375 0 
L 9.8125 0 
z
" id="DejaVuSans-66"/>
       <path d="M 9.8125 72.90625 
L 51.703125 72.90625 
L 51.703125 64.59375 
L 19.671875 64.59375 
L 19.671875 43.109375 
L 48.578125 43.109375 
L 48.578125 34.8125 
L 19.671875 34.8125 
L 19.671875 0 
L 9.8125 0 
z
" id="DejaVuSans-70"/>
      </defs>
      <use xlink:href="#DejaVuSans-67"/>
      <use x="69.824219" xlink:href="#DejaVuSans-86"/>
      <use x="136.482422" xlink:href="#DejaVuSans-79"/>
      <use x="215.193359" xlink:href="#DejaVuSans-68"/>
      <use x="292.195312" xlink:href="#DejaVuSans-69"/>
      <use x="355.378906" xlink:href="#DejaVuSans-95"/>
      <use x="405.378906" xlink:href="#DejaVuSans-66"/>
      <use x="473.982422" xlink:href="#DejaVuSans-68"/>
      <use x="550.984375" xlink:href="#DejaVuSans-70"/>
     </g>
    </g>
    <g id="line2d_43">
     <path d="M 53.823206 51.963396 
L 69.823206 51.963396 
" style="fill:none;stroke:#c371d2;stroke-linejoin:miter;"/>
    </g>
    <g id="line2d_44">
     <defs>
      <path d="M -0 4.525483 
L 4.525483 0 
L 0 -4.525483 
L -4.525483 -0 
z
" id="mb00dde60a6" style="stroke:#000000;stroke-linejoin:miter;stroke-width:1.6;"/>
     </defs>
     <g>
      <use style="fill:#c371d2;stroke:#000000;stroke-linejoin:miter;stroke-width:1.6;" x="61.823206" xlink:href="#mb00dde60a6" y="51.963396"/>
     </g>
    </g>
    <g id="text_17">
     <!-- Rodas5 -->
     <g transform="translate(76.223206 54.763396)scale(0.08 -0.08)">
      <defs>
       <path d="M 45.40625 46.390625 
L 45.40625 75.984375 
L 54.390625 75.984375 
L 54.390625 0 
L 45.40625 0 
L 45.40625 8.203125 
Q 42.578125 3.328125 38.25 0.953125 
Q 33.9375 -1.421875 27.875 -1.421875 
Q 17.96875 -1.421875 11.734375 6.484375 
Q 5.515625 14.40625 5.515625 27.296875 
Q 5.515625 40.1875 11.734375 48.09375 
Q 17.96875 56 27.875 56 
Q 33.9375 56 38.25 53.625 
Q 42.578125 51.265625 45.40625 46.390625 
z
M 14.796875 27.296875 
Q 14.796875 17.390625 18.875 11.75 
Q 22.953125 6.109375 30.078125 6.109375 
Q 37.203125 6.109375 41.296875 11.75 
Q 45.40625 17.390625 45.40625 27.296875 
Q 45.40625 37.203125 41.296875 42.84375 
Q 37.203125 48.484375 30.078125 48.484375 
Q 22.953125 48.484375 18.875 42.84375 
Q 14.796875 37.203125 14.796875 27.296875 
z
" id="DejaVuSans-100"/>
       <path d="M 34.28125 27.484375 
Q 23.390625 27.484375 19.1875 25 
Q 14.984375 22.515625 14.984375 16.5 
Q 14.984375 11.71875 18.140625 8.90625 
Q 21.296875 6.109375 26.703125 6.109375 
Q 34.1875 6.109375 38.703125 11.40625 
Q 43.21875 16.703125 43.21875 25.484375 
L 43.21875 27.484375 
z
M 52.203125 31.203125 
L 52.203125 0 
L 43.21875 0 
L 43.21875 8.296875 
Q 40.140625 3.328125 35.546875 0.953125 
Q 30.953125 -1.421875 24.3125 -1.421875 
Q 15.921875 -1.421875 10.953125 3.296875 
Q 6 8.015625 6 15.921875 
Q 6 25.140625 12.171875 29.828125 
Q 18.359375 34.515625 30.609375 34.515625 
L 43.21875 34.515625 
L 43.21875 35.40625 
Q 43.21875 41.609375 39.140625 45 
Q 35.0625 48.390625 27.6875 48.390625 
Q 23 48.390625 18.546875 47.265625 
Q 14.109375 46.140625 10.015625 43.890625 
L 10.015625 52.203125 
Q 14.9375 54.109375 19.578125 55.046875 
Q 24.21875 56 28.609375 56 
Q 40.484375 56 46.34375 49.84375 
Q 52.203125 43.703125 52.203125 31.203125 
z
" id="DejaVuSans-97"/>
      </defs>
      <use xlink:href="#DejaVuSans-82"/>
      <use x="64.982422" xlink:href="#DejaVuSans-111"/>
      <use x="126.164062" xlink:href="#DejaVuSans-100"/>
      <use x="189.640625" xlink:href="#DejaVuSans-97"/>
      <use x="250.919922" xlink:href="#DejaVuSans-115"/>
      <use x="303.019531" xlink:href="#DejaVuSans-53"/>
     </g>
    </g>
    <g id="line2d_45">
     <path d="M 53.823206 63.705896 
L 69.823206 63.705896 
" style="fill:none;stroke:#ac8e18;stroke-linejoin:miter;"/>
    </g>
    <g id="line2d_46">
     <defs>
      <path d="M 0 -3.2 
L -2.771281 -1.6 
L -2.771281 1.6 
L -0 3.2 
L 2.771281 1.6 
L 2.771281 -1.6 
z
" id="m59ccfb5d27" style="stroke:#000000;stroke-linejoin:miter;stroke-width:1.6;"/>
     </defs>
     <g>
      <use style="fill:#ac8e18;stroke:#000000;stroke-linejoin:miter;stroke-width:1.6;" x="61.823206" xlink:href="#m59ccfb5d27" y="63.705896"/>
     </g>
    </g>
    <g id="text_18">
     <!-- Kvaerno5 -->
     <g transform="translate(76.223206 66.505896)scale(0.08 -0.08)">
      <defs>
       <path d="M 2.984375 54.6875 
L 12.5 54.6875 
L 29.59375 8.796875 
L 46.6875 54.6875 
L 56.203125 54.6875 
L 35.6875 0 
L 23.484375 0 
z
" id="DejaVuSans-118"/>
       <path d="M 54.890625 33.015625 
L 54.890625 0 
L 45.90625 0 
L 45.90625 32.71875 
Q 45.90625 40.484375 42.875 44.328125 
Q 39.84375 48.1875 33.796875 48.1875 
Q 26.515625 48.1875 22.3125 43.546875 
Q 18.109375 38.921875 18.109375 30.90625 
L 18.109375 0 
L 9.078125 0 
L 9.078125 54.6875 
L 18.109375 54.6875 
L 18.109375 46.1875 
Q 21.34375 51.125 25.703125 53.5625 
Q 30.078125 56 35.796875 56 
Q 45.21875 56 50.046875 50.171875 
Q 54.890625 44.34375 54.890625 33.015625 
z
" id="DejaVuSans-110"/>
      </defs>
      <use xlink:href="#DejaVuSans-75"/>
      <use x="65.576172" xlink:href="#DejaVuSans-118"/>
      <use x="124.755859" xlink:href="#DejaVuSans-97"/>
      <use x="186.035156" xlink:href="#DejaVuSans-101"/>
      <use x="247.558594" xlink:href="#DejaVuSans-114"/>
      <use x="286.921875" xlink:href="#DejaVuSans-110"/>
      <use x="350.300781" xlink:href="#DejaVuSans-111"/>
      <use x="411.482422" xlink:href="#DejaVuSans-53"/>
     </g>
    </g>
    <g id="line2d_47">
     <path d="M 53.823206 75.448396 
L 69.823206 75.448396 
" style="fill:none;stroke:#00aaae;stroke-linejoin:miter;"/>
    </g>
    <g id="line2d_48">
     <defs>
      <path d="M 1.325483 3.2 
L 1.224587 1.224587 
L 3.2 1.325483 
L 3.2 -1.325483 
L 1.224587 -1.224587 
L 1.325483 -3.2 
L -1.325483 -3.2 
L -1.224587 -1.224587 
L -3.2 -1.325483 
L -3.2 1.325483 
L -1.224587 1.224587 
L -1.325483 3.2 
L 1.325483 3.2 
L 1.224587 1.224587 
L 1.325483 3.2 
" id="m1b6158335f" style="stroke:#000000;stroke-width:1.6;"/>
     </defs>
     <g>
      <use style="fill:#00aaae;stroke:#000000;stroke-width:1.6;" x="61.823206" xlink:href="#m1b6158335f" y="75.448396"/>
     </g>
    </g>
    <g id="text_19">
     <!-- KenCarp5 -->
     <g transform="translate(76.223206 78.248396)scale(0.08 -0.08)">
      <defs>
       <path d="M 18.109375 8.203125 
L 18.109375 -20.796875 
L 9.078125 -20.796875 
L 9.078125 54.6875 
L 18.109375 54.6875 
L 18.109375 46.390625 
Q 20.953125 51.265625 25.265625 53.625 
Q 29.59375 56 35.59375 56 
Q 45.5625 56 51.78125 48.09375 
Q 58.015625 40.1875 58.015625 27.296875 
Q 58.015625 14.40625 51.78125 6.484375 
Q 45.5625 -1.421875 35.59375 -1.421875 
Q 29.59375 -1.421875 25.265625 0.953125 
Q 20.953125 3.328125 18.109375 8.203125 
z
M 48.6875 27.296875 
Q 48.6875 37.203125 44.609375 42.84375 
Q 40.53125 48.484375 33.40625 48.484375 
Q 26.265625 48.484375 22.1875 42.84375 
Q 18.109375 37.203125 18.109375 27.296875 
Q 18.109375 17.390625 22.1875 11.75 
Q 26.265625 6.109375 33.40625 6.109375 
Q 40.53125 6.109375 44.609375 11.75 
Q 48.6875 17.390625 48.6875 27.296875 
z
" id="DejaVuSans-112"/>
      </defs>
      <use xlink:href="#DejaVuSans-75"/>
      <use x="60.576172" xlink:href="#DejaVuSans-101"/>
      <use x="122.099609" xlink:href="#DejaVuSans-110"/>
      <use x="185.478516" xlink:href="#DejaVuSans-67"/>
      <use x="255.302734" xlink:href="#DejaVuSans-97"/>
      <use x="316.582031" xlink:href="#DejaVuSans-114"/>
      <use x="357.695312" xlink:href="#DejaVuSans-112"/>
      <use x="421.171875" xlink:href="#DejaVuSans-53"/>
     </g>
    </g>
    <g id="line2d_49">
     <path d="M 53.823206 87.190896 
L 69.823206 87.190896 
" style="fill:none;stroke:#ed5e93;stroke-linejoin:miter;"/>
    </g>
    <g id="line2d_50">
     <defs>
      <path d="M -1.325483 3.2 
L 0 1.731828 
L 1.325483 3.2 
L 3.2 1.325483 
L 1.731828 0 
L 3.2 -1.325483 
L 1.325483 -3.2 
L 0 -1.731828 
L -1.325483 -3.2 
L -3.2 -1.325483 
L -1.731828 -0 
L -3.2 1.325483 
L -1.325483 3.2 
L -0 1.731828 
L -1.325483 3.2 
" id="m7768183fa5" style="stroke:#000000;stroke-width:1.6;"/>
     </defs>
     <g>
      <use style="fill:#ed5e93;stroke:#000000;stroke-width:1.6;" x="61.823206" xlink:href="#m7768183fa5" y="87.190896"/>
     </g>
    </g>
    <g id="text_20">
     <!-- Vern7 -->
     <g transform="translate(76.223206 89.990896)scale(0.08 -0.08)">
      <defs>
       <path d="M 8.203125 72.90625 
L 55.078125 72.90625 
L 55.078125 68.703125 
L 28.609375 0 
L 18.3125 0 
L 43.21875 64.59375 
L 8.203125 64.59375 
z
" id="DejaVuSans-55"/>
      </defs>
      <use xlink:href="#DejaVuSans-86"/>
      <use x="60.658203" xlink:href="#DejaVuSans-101"/>
      <use x="122.181641" xlink:href="#DejaVuSans-114"/>
      <use x="161.544922" xlink:href="#DejaVuSans-110"/>
      <use x="224.923828" xlink:href="#DejaVuSans-55"/>
     </g>
    </g>
    <g id="line2d_51">
     <path d="M 53.823206 98.933396 
L 69.823206 98.933396 
" style="fill:none;stroke:#c68225;stroke-linejoin:miter;"/>
    </g>
    <g id="line2d_52">
     <defs>
      <path d="M 0 -3.2 
L -3.2 3.2 
L 3.2 3.2 
z
" id="m7620d6ae7a" style="stroke:#000000;stroke-linejoin:miter;stroke-width:1.6;"/>
     </defs>
     <g>
      <use style="fill:#c68225;stroke:#000000;stroke-linejoin:miter;stroke-width:1.6;" x="61.823206" xlink:href="#m7620d6ae7a" y="98.933396"/>
     </g>
    </g>
    <g id="text_21">
     <!-- Vern8 -->
     <g transform="translate(76.223206 101.733396)scale(0.08 -0.08)">
      <use xlink:href="#DejaVuSans-86"/>
      <use x="60.658203" xlink:href="#DejaVuSans-101"/>
      <use x="122.181641" xlink:href="#DejaVuSans-114"/>
      <use x="161.544922" xlink:href="#DejaVuSans-110"/>
      <use x="224.923828" xlink:href="#DejaVuSans-56"/>
     </g>
    </g>
    <g id="line2d_53">
     <path d="M 53.823206 110.675896 
L 69.823206 110.675896 
" style="fill:none;stroke:#00a98d;stroke-linejoin:miter;"/>
    </g>
    <g id="line2d_54">
     <defs>
      <path d="M -0 3.2 
L 3.2 -3.2 
L -3.2 -3.2 
z
" id="mbf94adf18e" style="stroke:#000000;stroke-linejoin:miter;stroke-width:1.6;"/>
     </defs>
     <g>
      <use style="fill:#00a98d;stroke:#000000;stroke-linejoin:miter;stroke-width:1.6;" x="61.823206" xlink:href="#mbf94adf18e" y="110.675896"/>
     </g>
    </g>
    <g id="text_22">
     <!-- lsoda -->
     <g transform="translate(76.223206 113.475896)scale(0.08 -0.08)">
      <defs>
       <path d="M 9.421875 75.984375 
L 18.40625 75.984375 
L 18.40625 0 
L 9.421875 0 
z
" id="DejaVuSans-108"/>
      </defs>
      <use xlink:href="#DejaVuSans-108"/>
      <use x="27.783203" xlink:href="#DejaVuSans-115"/>
      <use x="79.882812" xlink:href="#DejaVuSans-111"/>
      <use x="141.064453" xlink:href="#DejaVuSans-100"/>
      <use x="204.541016" xlink:href="#DejaVuSans-97"/>
     </g>
    </g>
   </g>
  </g>
 </g>
 <defs>
  <clipPath id="p760407be98">
   <rect height="251.994709" width="385.742149" x="43.423206" y="2.834646"/>
  </clipPath>
 </defs>
</svg>
